<?xml version="1.0" encoding="UTF-8" standalone="no"?>
<!DOCTYPE svg PUBLIC "-//W3C//DTD SVG 1.1//EN" "http://www.w3.org/Graphics/SVG/1.1/DTD/svg11.dtd">
<svg width="100%" height="100%" viewBox="0 0 451 453" version="1.1" xmlns="http://www.w3.org/2000/svg" xmlns:xlink="http://www.w3.org/1999/xlink" xml:space="preserve" xmlns:serif="http://www.serif.com/" style="fill-rule:evenodd;clip-rule:evenodd;stroke-linecap:round;stroke-linejoin:round;stroke-miterlimit:10;">
    <g transform="matrix(1,0,0,1,-1132,-616)">
        <g transform="matrix(1,0,0,1,-154.683,-837.487)">
            <g transform="matrix(0,202.348,202.348,0,1511.96,1678.77)">
                <ellipse cx="0" cy="-0" rx="1" ry="1" style="fill:url(#_Radial1);"/>
            </g>
            <g transform="matrix(4.16667,0,0,4.16667,0,0)">
                <g opacity="0.2">
                    <g transform="matrix(0,-1,-1,0,367.608,367.503)">
                        <path d="M-36.839,-36.839C-57.555,-36.839 -74.349,-20.346 -74.349,-0C-74.349,20.346 -57.555,36.839 -36.839,36.839C-16.123,36.839 0.67,20.346 0.67,-0C0.67,-20.346 -16.123,-36.839 -36.839,-36.839" style="fill:rgb(117,76,40);fill-rule:nonzero;"/>
                    </g>
                </g>
            </g>
            <g transform="matrix(0,-4.16667,-4.16667,0,1511.96,1528.72)">
                <path d="M-36.011,-36.011C-55.898,-36.011 -72.021,-19.889 -72.021,-0.001C-72.021,19.888 -55.898,36.011 -36.011,36.011C-16.123,36.011 -0.001,19.888 -0.001,-0.001C-0.001,-19.889 -16.123,-36.011 -36.011,-36.011" style="fill:rgb(234,203,156);fill-rule:nonzero;"/>
            </g>
            <g transform="matrix(4.16667,0,0,4.16667,1431.5,1748.89)">
                <path d="M0,-43.405C-4.003,-38.983 -7.036,-33.685 -8.835,-28C-10.63,-22.34 -11.193,-16.254 -10.145,-10.392C-9.103,-4.563 -6.467,1.069 -1.792,4.848C0.394,6.615 2.943,7.915 5.66,8.635C7.939,9.239 10.297,9.436 12.641,9.304C11.258,8.875 10.012,8.045 8.927,7.1C7.633,5.975 6.501,4.671 5.496,3.285C4.58,2.02 3.75,0.681 3.079,-0.731C2.401,-2.157 1.943,-3.689 1.595,-5.227C0.75,-8.951 0.609,-12.833 0.98,-16.626C1.354,-20.452 2.253,-24.26 3.786,-27.791C5.207,-31.066 7.209,-34.047 9.862,-36.45C12.486,-38.828 15.619,-40.609 18.923,-41.857C22.303,-43.132 25.886,-43.87 29.487,-44.126C33.149,-44.385 36.88,-44.171 40.454,-43.303C42.109,-42.902 43.746,-42.367 45.331,-41.709C38.775,-48.564 29.545,-52.841 19.311,-52.841C16.577,-52.841 13.918,-52.526 11.359,-51.949C7.06,-49.888 3.199,-46.938 0,-43.405" style="fill:rgb(213,167,111);fill-rule:nonzero;"/>
            </g>
            <g transform="matrix(4.16667,0,0,4.16667,1554.22,1737.28)">
                <path d="M0,-28.33C-2.596,-29.917 -5.716,-30.4 -8.694,-29.838C-11.536,-29.301 -14.061,-27.674 -15.749,-25.328C-17.454,-22.957 -18.219,-20.08 -18.275,-17.185C-18.32,-14.929 -17.994,-12.355 -16.772,-10.367C-16.84,-11.896 -16.663,-13.434 -16.328,-14.922C-15.914,-16.759 -15.254,-18.55 -14.325,-20.189C-13.468,-21.702 -12.338,-23.138 -10.863,-24.089C-9.476,-24.983 -7.837,-25.349 -6.208,-25.049C-4.375,-24.71 -2.685,-23.71 -1.649,-22.143C-0.65,-20.631 -0.316,-18.778 -0.361,-16.99C-0.409,-15.014 -0.898,-13.043 -1.672,-11.231C-2.396,-9.533 -3.385,-7.905 -4.724,-6.623C-6.593,-4.833 -9.208,-4.016 -11.759,-3.989C-14.564,-3.961 -17.29,-4.719 -20.031,-5.217C-19.935,-4.737 -19.797,-4.268 -19.591,-3.822C-18.512,-1.5 -16.198,0.037 -13.859,0.888C-11.581,1.717 -8.877,2.07 -6.536,1.281C-3.55,0.275 -0.929,-1.79 1.093,-4.168C3.179,-6.621 4.748,-9.533 5.593,-12.644C6.392,-15.585 6.54,-18.717 5.478,-21.61C4.46,-24.379 2.52,-26.789 0,-28.33" style="fill:rgb(213,167,111);fill-rule:nonzero;"/>
            </g>
            <g transform="matrix(4.16667,0,0,4.16667,1588.43,1653.62)">
                <path d="M0,-16.967C2.767,-16.116 5.43,-14.92 7.791,-13.233C11.906,-10.291 14.767,-6.056 16.577,-1.376C16.802,-0.797 17.008,-0.211 17.205,0.378C16.225,-5.823 13.663,-11.494 9.943,-16.216C8.685,-16.595 7.395,-16.875 6.097,-17.048C4.09,-17.315 2.003,-17.345 0,-16.967" style="fill:rgb(213,167,111);fill-rule:nonzero;"/>
            </g>
            <g transform="matrix(4.16667,0,0,4.16667,1584.41,1698.71)">
                <path d="M0,21.665C2.228,18.784 4.128,15.643 5.657,12.336C6.372,10.787 7.007,9.199 7.538,7.577C8.265,5.355 8.642,3.039 8.769,0.707C8.957,-2.729 8.615,-6.149 8.235,-9.56C8.167,-4.875 7.792,-0.128 5.88,4.197C4.794,6.651 3.208,8.885 1.504,10.944C-0.25,13.061 -2.196,15.019 -4.253,16.841C-8.17,20.309 -12.467,23.372 -17.488,24.997C-19.925,25.785 -22.474,26.233 -25.037,26.251C-26.34,26.261 -27.644,26.165 -28.931,25.96C-30.383,25.729 -31.821,25.496 -33.248,25.142C-34.642,24.796 -36.017,24.38 -37.371,23.901C-38.568,23.478 -39.768,23.014 -40.917,22.464C-34.605,27.918 -26.385,31.225 -17.389,31.225C-14.548,31.225 -11.788,30.885 -9.135,30.264C-8.684,29.975 -8.239,29.677 -7.806,29.366C-4.828,27.22 -2.239,24.564 0,21.665" style="fill:rgb(213,167,111);fill-rule:nonzero;"/>
            </g>
            <g transform="matrix(4.16667,0,0,4.16667,1377.01,1693.33)">
                <path d="M0,8.737C1.976,13.763 5.293,18.208 9.318,21.808C6.867,19.058 5.062,15.792 3.565,12.427C1.775,8.4 0.388,4.142 0.048,-0.252C-0.299,-4.733 0.62,-8.876 2.083,-13.071C-4.303,-8.333 -2.475,2.444 0,8.737" style="fill:rgb(247,239,206);fill-rule:nonzero;"/>
            </g>
            <g transform="matrix(4.16667,0,0,4.16667,1511.53,1618.38)">
                <path d="M0,-2.511C5.464,-3.811 11.596,-1.65 15.038,2.789C15.498,1.731 15.239,0.463 14.609,-0.505C13.98,-1.472 13.028,-2.182 12.046,-2.786C9.565,-4.31 6.679,-5.3 3.774,-5.126C1.022,-4.959 -2.248,-3.536 -3.511,-0.944C-2.369,-1.586 -1.31,-2.199 0,-2.511" style="fill:rgb(247,239,206);fill-rule:nonzero;"/>
            </g>
            <g transform="matrix(4.16667,0,0,4.16667,1639.11,1771.2)">
                <path d="M0,-27.384C0.482,-22.693 0.771,-17.953 0.245,-13.266C-0.28,-8.581 -1.651,-3.924 -4.266,0C-1.045,-3.194 1.65,-7.202 2.398,-11.703C2.843,-14.387 2.857,-17.139 2.442,-19.827C2.235,-21.17 1.921,-22.497 1.499,-23.789C1.145,-24.877 0.111,-26.293 0,-27.384" style="fill:rgb(247,239,206);fill-rule:nonzero;"/>
            </g>
            <g transform="matrix(4.16667,0,0,4.16667,1584.64,1666.36)">
                <path d="M0,17.731C1.569,16.044 3.103,14.284 4.153,12.234C5.279,10.03 5.809,7.568 6.092,5.11C6.692,-0.075 6.132,-5.671 3.027,-9.867C4.009,-6.195 5,-2.414 4.551,1.359C4.153,4.707 2.644,7.816 0.956,10.734C-2.652,16.973 -7.185,22.677 -12.45,27.598C-11.643,26.844 -9.581,26.506 -8.546,25.854C-7.692,25.312 -6.96,24.712 -6.229,24.022C-4.086,22.006 -2.005,19.885 0,17.731" style="fill:rgb(247,239,206);fill-rule:nonzero;"/>
            </g>
            <g transform="matrix(4.16667,0,0,4.16667,1464.26,1659.95)">
                <path d="M0,10.438C3.963,14.092 10.695,14.484 14.762,10.946C18.038,8.097 19.18,3.462 19.195,-0.88C18.071,2.959 16.468,7.076 12.956,8.991C11.109,9.998 8.948,10.256 6.843,10.276C5.202,10.292 3.493,10.154 2.073,9.332C-0.261,7.983 -1.24,5.175 -2.041,2.6C-2.735,0.371 -3.171,-1.738 -3.041,-4.046C-4.986,0.764 -3.853,6.886 0,10.438" style="fill:rgb(247,239,206);fill-rule:nonzero;"/>
            </g>
            <g transform="matrix(4.16667,0,0,4.16667,0,0)">
                <g opacity="0.3">
                    <g transform="matrix(1,0,0,1,349.798,447.268)">
                        <path d="M0,-81.32C-10.222,-79.386 -18.403,-71.273 -23.119,-61.999C-26.001,-56.331 -27.831,-50.088 -28.102,-43.735C-28.215,-41.134 -28.05,-38.453 -26.991,-36.074C-25.931,-33.695 -23.84,-31.654 -21.272,-31.225C-20.826,-42.888 -16.343,-54.38 -8.682,-63.186C-1.021,-71.992 9.783,-78.035 21.316,-79.833C25.646,-80.509 29.793,-83.265 34.081,-82.364C35.864,-81.989 37.546,-80.918 38.41,-79.314C39.276,-77.71 39.193,-75.571 38.008,-74.188C36.436,-72.351 33.674,-72.316 31.258,-72.227C18.328,-71.751 5.748,-65.223 -2.086,-54.926C-9.921,-44.629 -12.857,-30.764 -9.867,-18.175C-9.523,-16.727 -9.105,-15.212 -9.503,-13.778C-10.47,-10.289 -9.342,-6.303 -6.691,-3.837C-5.668,-2.887 -4.026,-2.168 -2.945,-3.052C-2.544,-3.38 -2.315,-3.871 -2.132,-4.357C-0.228,-9.431 -2.26,-15.052 -2.27,-20.472C-2.279,-25.713 -0.285,-30.932 3.218,-34.83C4.414,-36.163 5.897,-37.772 5.345,-39.475C3.857,-44.073 4.416,-49.294 6.847,-53.47C9.28,-57.647 13.542,-60.713 18.275,-61.689C19.587,-61.96 20.958,-62.075 22.261,-61.761C23.677,-61.421 24.92,-60.6 26.208,-59.92C31.6,-57.072 38.849,-56.889 43.319,-61.036C44.921,-62.52 46.115,-64.485 48.009,-65.573C49.902,-66.661 52.934,-66.259 53.484,-64.145C53.968,-62.277 52.279,-60.647 51.044,-59.163C49.252,-57.006 48.179,-54.261 48.033,-51.46C35.29,-43.961 24.137,-33.774 15.518,-21.759C13.581,-19.058 11.72,-16.138 11.292,-12.84C11.01,-10.683 11.363,-8.499 11.715,-6.353C11.941,-4.959 12.175,-3.55 12.738,-2.255C13.749,0.06 16.042,1.945 18.568,1.869C21.095,1.793 23.442,-0.74 22.823,-3.191C22.163,-5.797 23.175,-8.513 24.276,-10.968C30.683,-25.257 40.787,-37.868 53.334,-47.237C54.294,-47.952 55.538,-48.681 56.614,-48.152C57.33,-47.799 57.698,-46.982 57.838,-46.195C58.368,-43.201 56.418,-40.392 54.612,-37.949C48.59,-29.808 42.885,-21.103 40.622,-11.234C40.609,-11.179 40.583,-11.127 40.548,-11.083" style="fill:none;fill-rule:nonzero;stroke:rgb(138,93,59);stroke-width:3.01px;"/>
                    </g>
                </g>
            </g>
            <g transform="matrix(4.16667,0,0,4.16667,1449.89,1860.07)">
                <path d="M0,-81.32C-10.222,-79.385 -18.404,-71.273 -23.119,-61.999C-26.001,-56.331 -27.831,-50.088 -28.102,-43.735C-28.215,-41.133 -28.05,-38.453 -26.991,-36.074C-25.931,-33.695 -23.84,-31.653 -21.272,-31.225C-20.826,-42.888 -16.344,-54.38 -8.682,-63.186C-1.021,-71.992 9.783,-78.034 21.316,-79.833C25.646,-80.509 29.793,-83.265 34.081,-82.364C35.864,-81.989 37.546,-80.918 38.41,-79.314C39.276,-77.71 39.193,-75.571 38.008,-74.188C36.436,-72.351 33.674,-72.316 31.258,-72.227C18.327,-71.751 5.748,-65.223 -2.086,-54.926C-9.921,-44.629 -12.857,-30.764 -9.867,-18.175C-9.523,-16.727 -9.105,-15.211 -9.503,-13.778C-10.47,-10.289 -9.342,-6.303 -6.691,-3.837C-5.668,-2.887 -4.026,-2.168 -2.945,-3.052C-2.544,-3.38 -2.315,-3.871 -2.132,-4.357C-0.228,-9.431 -2.26,-15.052 -2.27,-20.472C-2.279,-25.713 -0.285,-30.932 3.218,-34.83C4.414,-36.163 5.897,-37.772 5.345,-39.475C3.857,-44.073 4.416,-49.294 6.847,-53.47C9.28,-57.647 13.542,-60.713 18.275,-61.689C19.587,-61.96 20.958,-62.075 22.261,-61.761C23.677,-61.421 24.92,-60.6 26.208,-59.92C31.6,-57.071 38.849,-56.889 43.319,-61.036C44.921,-62.52 46.115,-64.485 48.009,-65.573C49.902,-66.661 52.934,-66.259 53.484,-64.145C53.968,-62.277 52.279,-60.647 51.044,-59.163C49.252,-57.006 48.179,-54.261 48.033,-51.46C35.29,-43.961 24.137,-33.774 15.518,-21.759C13.581,-19.057 11.72,-16.138 11.292,-12.84C11.01,-10.683 11.363,-8.499 11.715,-6.353C11.941,-4.959 12.175,-3.55 12.738,-2.255C13.749,0.061 16.042,1.945 18.568,1.869C21.095,1.793 23.442,-0.74 22.823,-3.191C22.163,-5.797 23.175,-8.513 24.276,-10.968C30.683,-25.257 40.788,-37.868 53.334,-47.237C54.294,-47.952 55.538,-48.68 56.613,-48.152C57.33,-47.799 57.698,-46.982 57.838,-46.194C58.368,-43.201 56.418,-40.392 54.612,-37.949C48.59,-29.807 42.885,-21.103 40.622,-11.234C40.609,-11.179 40.583,-11.127 40.548,-11.083" style="fill:none;fill-rule:nonzero;stroke:rgb(138,93,59);stroke-width:3.01px;"/>
            </g>
            <g transform="matrix(0,-4.16667,-4.16667,0,1531.7,1631.86)">
                <path d="M-1.62,-1.62C-2.514,-1.62 -3.24,-0.893 -3.24,0.001C-3.24,0.895 -2.514,1.62 -1.62,1.62C-0.724,1.62 0.001,0.895 0.001,0.001C0.001,-0.893 -0.724,-1.62 -1.62,-1.62" style="fill:rgb(96,56,18);fill-rule:nonzero;"/>
            </g>
            <g transform="matrix(0,-4.16667,-4.16667,0,1530.31,1634.33)">
                <path d="M-0.544,-0.544C-0.844,-0.544 -1.087,-0.3 -1.087,0C-1.087,0.3 -0.844,0.544 -0.544,0.544C-0.243,0.544 -0.001,0.3 -0.001,0C-0.001,-0.3 -0.243,-0.544 -0.544,-0.544" style="fill:rgb(247,239,206);fill-rule:nonzero;"/>
            </g>
            <g transform="matrix(0,-4.16667,-4.16667,0,1505.21,1650.35)">
                <path d="M-1.62,-1.62C-2.514,-1.62 -3.24,-0.894 -3.24,0C-3.24,0.895 -2.514,1.62 -1.62,1.62C-0.725,1.62 0,0.895 0,0C0,-0.894 -0.725,-1.62 -1.62,-1.62" style="fill:rgb(96,56,18);fill-rule:nonzero;"/>
            </g>
            <g transform="matrix(0,-4.16667,-4.16667,0,1503.81,1652.82)">
                <path d="M-0.544,-0.544C-0.844,-0.544 -1.087,-0.3 -1.087,0C-1.087,0.3 -0.844,0.544 -0.544,0.544C-0.243,0.544 -0.001,0.3 -0.001,0C-0.001,-0.3 -0.243,-0.544 -0.544,-0.544" style="fill:rgb(247,239,206);fill-rule:nonzero;"/>
            </g>
            <g transform="matrix(0,-4.16667,-4.16667,0,1530.31,1662.48)">
                <path d="M-1.62,-1.62C-2.515,-1.62 -3.24,-0.893 -3.24,0.001C-3.24,0.894 -2.515,1.62 -1.62,1.62C-0.725,1.62 0.001,0.894 0.001,0.001C0.001,-0.893 -0.725,-1.62 -1.62,-1.62" style="fill:rgb(96,56,18);fill-rule:nonzero;"/>
            </g>
            <g transform="matrix(0,-4.16667,-4.16667,0,1528.91,1664.95)">
                <path d="M-0.544,-0.544C-0.845,-0.544 -1.087,-0.3 -1.087,-0.001C-1.087,0.3 -0.845,0.544 -0.544,0.544C-0.244,0.544 -0.001,0.3 -0.001,-0.001C-0.001,-0.3 -0.244,-0.544 -0.544,-0.544" style="fill:rgb(247,239,206);fill-rule:nonzero;"/>
            </g>
            <g transform="matrix(0,-4.16667,-4.16667,0,1510.8,1628.64)">
                <path d="M-1.62,-1.62C-2.515,-1.62 -3.24,-0.895 -3.24,-0C-3.24,0.894 -2.515,1.62 -1.62,1.62C-0.725,1.62 0.001,0.894 0.001,-0C0.001,-0.895 -0.725,-1.62 -1.62,-1.62" style="fill:rgb(96,56,18);fill-rule:nonzero;"/>
            </g>
            <g transform="matrix(0,-4.16667,-4.16667,0,1509.4,1631.11)">
                <path d="M-0.544,-0.544C-0.845,-0.544 -1.087,-0.301 -1.087,-0C-1.087,0.301 -0.845,0.544 -0.544,0.544C-0.244,0.544 -0,0.301 -0,-0C-0,-0.301 -0.244,-0.544 -0.544,-0.544" style="fill:rgb(247,239,206);fill-rule:nonzero;"/>
            </g>
            <g transform="matrix(0,-4.16667,-4.16667,0,1523.56,1646.07)">
                <path d="M-1.62,-1.62C-2.515,-1.62 -3.24,-0.895 -3.24,-0C-3.24,0.894 -2.515,1.62 -1.62,1.62C-0.724,1.62 0.001,0.894 0.001,-0C0.001,-0.895 -0.724,-1.62 -1.62,-1.62" style="fill:rgb(96,56,18);fill-rule:nonzero;"/>
            </g>
            <g transform="matrix(0,-4.16667,-4.16667,0,1522.16,1648.54)">
                <path d="M-0.544,-0.544C-0.843,-0.544 -1.087,-0.301 -1.087,-0C-1.087,0.301 -0.843,0.544 -0.544,0.544C-0.244,0.544 -0,0.301 -0,-0C-0,-0.301 -0.244,-0.544 -0.544,-0.544" style="fill:rgb(247,239,206);fill-rule:nonzero;"/>
            </g>
            <g transform="matrix(0,-4.16667,-4.16667,0,1545.2,1645.36)">
                <path d="M-1.62,-1.62C-2.515,-1.62 -3.24,-0.893 -3.24,-0C-3.24,0.894 -2.515,1.62 -1.62,1.62C-0.725,1.62 0.001,0.894 0.001,-0C0.001,-0.893 -0.725,-1.62 -1.62,-1.62" style="fill:rgb(96,56,18);fill-rule:nonzero;"/>
            </g>
            <g transform="matrix(0,-4.16667,-4.16667,0,1543.8,1647.83)">
                <path d="M-0.544,-0.544C-0.845,-0.544 -1.087,-0.3 -1.087,-0.001C-1.087,0.3 -0.845,0.544 -0.544,0.544C-0.244,0.544 -0.001,0.3 -0.001,-0.001C-0.001,-0.3 -0.244,-0.544 -0.544,-0.544" style="fill:rgb(247,239,206);fill-rule:nonzero;"/>
            </g>
            <g transform="matrix(0,-4.16667,-4.16667,0,1516.81,1685.26)">
                <path d="M-1.62,-1.62C-2.515,-1.62 -3.24,-0.894 -3.24,0C-3.24,0.895 -2.515,1.62 -1.62,1.62C-0.725,1.62 0,0.895 0,0C0,-0.894 -0.725,-1.62 -1.62,-1.62" style="fill:rgb(96,56,18);fill-rule:nonzero;"/>
            </g>
            <g transform="matrix(0,-4.16667,-4.16667,0,1515.41,1687.73)">
                <path d="M-0.544,-0.544C-0.845,-0.544 -1.087,-0.3 -1.087,0C-1.087,0.3 -0.845,0.544 -0.544,0.544C-0.243,0.544 -0.001,0.3 -0.001,0C-0.001,-0.3 -0.243,-0.544 -0.544,-0.544" style="fill:rgb(247,239,206);fill-rule:nonzero;"/>
            </g>
            <g transform="matrix(0,-4.16667,-4.16667,0,1485.93,1664.96)">
                <path d="M-1.62,-1.62C-2.515,-1.62 -3.24,-0.893 -3.24,0.001C-3.24,0.895 -2.515,1.62 -1.62,1.62C-0.724,1.62 0.001,0.895 0.001,0.001C0.001,-0.893 -0.724,-1.62 -1.62,-1.62" style="fill:rgb(96,56,18);fill-rule:nonzero;"/>
            </g>
            <g transform="matrix(0,-4.16667,-4.16667,0,1484.53,1667.43)">
                <path d="M-0.544,-0.544C-0.844,-0.544 -1.087,-0.3 -1.087,0C-1.087,0.3 -0.844,0.544 -0.544,0.544C-0.244,0.544 -0.001,0.3 -0.001,0C-0.001,-0.3 -0.244,-0.544 -0.544,-0.544" style="fill:rgb(247,239,206);fill-rule:nonzero;"/>
            </g>
            <g transform="matrix(0,-4.16667,-4.16667,0,1507.14,1667.8)">
                <path d="M-1.62,-1.62C-2.515,-1.62 -3.24,-0.893 -3.24,-0C-3.24,0.894 -2.515,1.62 -1.62,1.62C-0.725,1.62 0.001,0.894 0.001,-0C0.001,-0.893 -0.725,-1.62 -1.62,-1.62" style="fill:rgb(96,56,18);fill-rule:nonzero;"/>
            </g>
            <g transform="matrix(0,-4.16667,-4.16667,0,1505.74,1670.27)">
                <path d="M-0.544,-0.544C-0.845,-0.544 -1.087,-0.3 -1.087,-0.001C-1.087,0.3 -0.845,0.544 -0.544,0.544C-0.244,0.544 -0.001,0.3 -0.001,-0.001C-0.001,-0.3 -0.244,-0.544 -0.544,-0.544" style="fill:rgb(247,239,206);fill-rule:nonzero;"/>
            </g>
            <g transform="matrix(0,-4.16667,-4.16667,0,1486.8,1634.33)">
                <path d="M-1.62,-1.62C-2.515,-1.62 -3.24,-0.895 -3.24,-0C-3.24,0.894 -2.515,1.62 -1.62,1.62C-0.725,1.62 0.001,0.894 0.001,-0C0.001,-0.895 -0.725,-1.62 -1.62,-1.62" style="fill:rgb(96,56,18);fill-rule:nonzero;"/>
            </g>
            <g transform="matrix(0,-4.16667,-4.16667,0,1485.41,1636.8)">
                <path d="M-0.544,-0.544C-0.845,-0.544 -1.087,-0.301 -1.087,-0C-1.087,0.301 -0.845,0.544 -0.544,0.544C-0.244,0.544 -0,0.301 -0,-0C-0,-0.301 -0.244,-0.544 -0.544,-0.544" style="fill:rgb(247,239,206);fill-rule:nonzero;"/>
            </g>
            <g transform="matrix(0,-4.16667,-4.16667,0,1552.82,1672.02)">
                <path d="M-1.62,-1.62C-2.514,-1.62 -3.24,-0.893 -3.24,-0C-3.24,0.894 -2.514,1.62 -1.62,1.62C-0.724,1.62 0.001,0.894 0.001,-0C0.001,-0.893 -0.724,-1.62 -1.62,-1.62" style="fill:rgb(96,56,18);fill-rule:nonzero;"/>
            </g>
            <g transform="matrix(0,-4.16667,-4.16667,0,1551.42,1674.49)">
                <path d="M-0.544,-0.544C-0.844,-0.544 -1.087,-0.3 -1.087,-0.001C-1.087,0.3 -0.844,0.544 -0.544,0.544C-0.243,0.544 -0.001,0.3 -0.001,-0.001C-0.001,-0.3 -0.243,-0.544 -0.544,-0.544" style="fill:rgb(247,239,206);fill-rule:nonzero;"/>
            </g>
            <g transform="matrix(0,-4.16667,-4.16667,0,1566.32,1648.98)">
                <path d="M-1.62,-1.62C-2.514,-1.62 -3.24,-0.894 -3.24,0C-3.24,0.895 -2.514,1.62 -1.62,1.62C-0.725,1.62 0,0.895 0,0C0,-0.894 -0.725,-1.62 -1.62,-1.62" style="fill:rgb(96,56,18);fill-rule:nonzero;"/>
            </g>
            <g transform="matrix(0,-4.16667,-4.16667,0,1564.92,1651.46)">
                <path d="M-0.544,-0.544C-0.843,-0.544 -1.087,-0.301 -1.087,-0C-1.087,0.301 -0.843,0.544 -0.544,0.544C-0.243,0.544 -0,0.301 -0,-0C-0,-0.301 -0.243,-0.544 -0.544,-0.544" style="fill:rgb(247,239,206);fill-rule:nonzero;"/>
            </g>
            <g transform="matrix(0,-4.16667,-4.16667,0,1550.56,1625.11)">
                <path d="M-1.62,-1.62C-2.515,-1.62 -3.24,-0.893 -3.24,0.001C-3.24,0.895 -2.515,1.62 -1.62,1.62C-0.725,1.62 0.001,0.895 0.001,0.001C0.001,-0.893 -0.725,-1.62 -1.62,-1.62" style="fill:rgb(96,56,18);fill-rule:nonzero;"/>
            </g>
            <g transform="matrix(0,-4.16667,-4.16667,0,1549.16,1627.58)">
                <path d="M-0.544,-0.544C-0.845,-0.544 -1.087,-0.3 -1.087,0C-1.087,0.3 -0.845,0.544 -0.544,0.544C-0.244,0.544 -0.001,0.3 -0.001,0C-0.001,-0.3 -0.244,-0.544 -0.544,-0.544" style="fill:rgb(247,239,206);fill-rule:nonzero;"/>
            </g>
            <g transform="matrix(0,-4.16667,-4.16667,0,1522.16,1612.7)">
                <path d="M-1.62,-1.62C-2.515,-1.62 -3.24,-0.894 -3.24,0C-3.24,0.895 -2.515,1.62 -1.62,1.62C-0.726,1.62 0,0.895 0,0C0,-0.894 -0.726,-1.62 -1.62,-1.62" style="fill:rgb(96,56,18);fill-rule:nonzero;"/>
            </g>
            <g transform="matrix(0,-4.16667,-4.16667,0,1520.77,1615.17)">
                <path d="M-0.544,-0.544C-0.845,-0.544 -1.087,-0.301 -1.087,-0C-1.087,0.301 -0.845,0.544 -0.544,0.544C-0.244,0.544 -0,0.301 -0,-0C-0,-0.301 -0.244,-0.544 -0.544,-0.544" style="fill:rgb(247,239,206);fill-rule:nonzero;"/>
            </g>
            <g transform="matrix(0,-4.16667,-4.16667,0,1538.45,1686.48)">
                <path d="M-1.62,-1.62C-2.515,-1.62 -3.24,-0.894 -3.24,0C-3.24,0.895 -2.515,1.62 -1.62,1.62C-0.725,1.62 0,0.895 0,0C0,-0.894 -0.725,-1.62 -1.62,-1.62" style="fill:rgb(96,56,18);fill-rule:nonzero;"/>
            </g>
            <g transform="matrix(0,-4.16667,-4.16667,0,1537.05,1688.96)">
                <path d="M-0.544,-0.544C-0.845,-0.544 -1.087,-0.301 -1.087,-0C-1.087,0.301 -0.845,0.544 -0.544,0.544C-0.243,0.544 -0,0.301 -0,-0C-0,-0.301 -0.243,-0.544 -0.544,-0.544" style="fill:rgb(247,239,206);fill-rule:nonzero;"/>
            </g>
            <g transform="matrix(0,-4.16667,-4.16667,0,1495.98,1702.28)">
                <path d="M-1.621,-1.62C-2.515,-1.62 -3.24,-0.894 -3.24,0C-3.24,0.895 -2.515,1.621 -1.621,1.621C-0.726,1.621 -0,0.895 -0,0C-0,-0.894 -0.726,-1.62 -1.621,-1.62" style="fill:rgb(96,56,18);fill-rule:nonzero;"/>
            </g>
            <g transform="matrix(0,-4.16667,-4.16667,0,1494.58,1704.75)">
                <path d="M-0.544,-0.543C-0.844,-0.543 -1.087,-0.3 -1.087,0C-1.087,0.301 -0.844,0.544 -0.544,0.544C-0.243,0.544 0,0.301 0,0C0,-0.3 -0.243,-0.543 -0.544,-0.543" style="fill:rgb(247,239,206);fill-rule:nonzero;"/>
            </g>
            <g transform="matrix(0,-4.16667,-4.16667,0,1495.98,1682.21)">
                <path d="M-1.621,-1.62C-2.516,-1.62 -3.24,-0.894 -3.24,0C-3.24,0.895 -2.516,1.621 -1.621,1.621C-0.726,1.621 -0,0.895 -0,0C-0,-0.894 -0.726,-1.62 -1.621,-1.62" style="fill:rgb(96,56,18);fill-rule:nonzero;"/>
            </g>
            <g transform="matrix(0,-4.16667,-4.16667,0,1494.58,1684.68)">
                <path d="M-0.544,-0.543C-0.845,-0.543 -1.087,-0.3 -1.087,0C-1.087,0.301 -0.845,0.544 -0.544,0.544C-0.243,0.544 0,0.301 0,0C0,-0.3 -0.243,-0.543 -0.544,-0.543" style="fill:rgb(247,239,206);fill-rule:nonzero;"/>
            </g>
            <g transform="matrix(0,-4.16667,-4.16667,0,1464.01,1672.02)">
                <path d="M-1.62,-1.62C-2.514,-1.62 -3.24,-0.894 -3.24,0C-3.24,0.895 -2.514,1.62 -1.62,1.62C-0.725,1.62 0,0.895 0,0C0,-0.894 -0.725,-1.62 -1.62,-1.62" style="fill:rgb(96,56,18);fill-rule:nonzero;"/>
            </g>
            <g transform="matrix(0,-4.16667,-4.16667,0,1462.61,1674.49)">
                <path d="M-0.544,-0.544C-0.844,-0.544 -1.087,-0.3 -1.087,0C-1.087,0.3 -0.844,0.544 -0.544,0.544C-0.243,0.544 -0.001,0.3 -0.001,0C-0.001,-0.3 -0.243,-0.544 -0.544,-0.544" style="fill:rgb(247,239,206);fill-rule:nonzero;"/>
            </g>
            <g transform="matrix(0,-4.16667,-4.16667,0,1475.52,1652.11)">
                <path d="M-1.62,-1.62C-2.514,-1.62 -3.24,-0.893 -3.24,0.001C-3.24,0.894 -2.514,1.62 -1.62,1.62C-0.724,1.62 0.001,0.894 0.001,0.001C0.001,-0.893 -0.724,-1.62 -1.62,-1.62" style="fill:rgb(96,56,18);fill-rule:nonzero;"/>
            </g>
            <g transform="matrix(0,-4.16667,-4.16667,0,1474.12,1654.58)">
                <path d="M-0.544,-0.544C-0.844,-0.544 -1.087,-0.3 -1.087,-0.001C-1.087,0.3 -0.844,0.544 -0.544,0.544C-0.243,0.544 -0.001,0.3 -0.001,-0.001C-0.001,-0.3 -0.243,-0.544 -0.544,-0.544" style="fill:rgb(247,239,206);fill-rule:nonzero;"/>
            </g>
            <g transform="matrix(4.16667,0,0,4.16667,1511.96,1881.12)">
                <path d="M0,-48.563L48.563,-48.563C48.563,-21.921 26.641,0 0,0L-0.238,0L0,-48.563Z" style="fill:white;fill-rule:nonzero;"/>
            </g>
            <g transform="matrix(0,4.16667,4.16667,0,1715.18,1679.76)">
                <path d="M-48.841,-48.841L48.841,-48.841" style="fill:none;fill-rule:nonzero;stroke:rgb(96,56,18);stroke-width:1.09px;stroke-linecap:butt;stroke-linejoin:miter;"/>
            </g>
            <g transform="matrix(-4.16667,0,0,4.16667,1309.92,1679.02)">
                <path d="M-97.024,0L0,0" style="fill:none;fill-rule:nonzero;stroke:rgb(96,56,18);stroke-width:1.09px;stroke-linecap:butt;stroke-linejoin:miter;"/>
            </g>
            <g transform="matrix(0,-4.16667,-4.16667,0,1510.97,1477.94)">
                <ellipse cx="-48.564" cy="0" rx="48.563" ry="48.564" style="fill:none;stroke:rgb(35,31,32);stroke-width:1px;stroke-linecap:butt;stroke-linejoin:miter;"/>
            </g>
        </g>
    </g>
    <defs>
        <radialGradient id="_Radial1" cx="0" cy="0" r="1" gradientUnits="userSpaceOnUse" gradientTransform="matrix(0,1,1,0,4.9605e-06,-4.9605e-06)"><stop offset="0" style="stop-color:rgb(231,193,138);stop-opacity:1"/><stop offset="0.93" style="stop-color:rgb(183,126,78);stop-opacity:1"/><stop offset="1" style="stop-color:rgb(183,126,78);stop-opacity:1"/></radialGradient>
    </defs>
</svg>
