<?xml version="1.0" encoding="UTF-8" standalone="no"?>
<!DOCTYPE svg PUBLIC "-//W3C//DTD SVG 1.1//EN" "http://www.w3.org/Graphics/SVG/1.1/DTD/svg11.dtd">
<svg width="100%" height="100%" viewBox="0 0 450 448" version="1.1" xmlns="http://www.w3.org/2000/svg" xmlns:xlink="http://www.w3.org/1999/xlink" xml:space="preserve" xmlns:serif="http://www.serif.com/" style="fill-rule:evenodd;clip-rule:evenodd;stroke-miterlimit:10;">
    <g transform="matrix(1,0,0,1,-156,-1167)">
        <g transform="matrix(1,0,0,1,-37.155,-1054.81)">
            <g transform="matrix(0,201.69,201.69,0,416.978,2447.6)">
                <circle cx="-0" cy="-0" r="1" style="fill:url(#_Radial1);"/>
            </g>
            <g transform="matrix(4.16667,0,0,4.16667,0,0)">
                <g opacity="0.2">
                    <g transform="matrix(1,0,0,1,85.5988,562.991)">
                        <path d="M0,-17.049C-2.517,-15.645 -4.501,-13.31 -5.478,-10.598C-5.847,-9.574 -6.078,-8.495 -6.11,-7.408C-6.21,-4.066 -4.287,-0.745 -1.339,0.833C1.608,2.41 5.439,2.166 8.163,0.229C9.378,-0.636 10.36,-1.786 11.504,-2.741C12.506,-3.577 13.649,-4.279 14.418,-5.332C14.999,-6.129 15.332,-7.084 15.51,-8.054C15.956,-10.492 15.418,-13.115 13.958,-15.117C10.822,-19.417 4.323,-19.459 0,-17.049" style="fill:rgb(217,27,91);fill-rule:nonzero;"/>
                    </g>
                </g>
            </g>
            <g transform="matrix(4.16667,0,0,4.16667,346.458,2344.79)">
                <path d="M0,-17.048C-2.517,-15.645 -4.501,-13.309 -5.478,-10.598C-5.847,-9.573 -6.078,-8.495 -6.11,-7.408C-6.21,-4.066 -4.287,-0.745 -1.339,0.833C1.608,2.41 5.439,2.166 8.162,0.229C9.377,-0.636 10.36,-1.786 11.504,-2.74C12.506,-3.576 13.648,-4.279 14.418,-5.332C14.999,-6.129 15.331,-7.084 15.509,-8.054C15.956,-10.491 15.418,-13.115 13.958,-15.116C10.822,-19.417 4.323,-19.458 0,-17.048" style="fill:rgb(255,226,182);fill-rule:nonzero;"/>
            </g>
            <g transform="matrix(4.16667,0,0,4.16667,404.615,2354.28)">
                <path d="M0,-17.396C-0.034,-17.443 -0.073,-17.481 -0.107,-17.526C0.122,-17.023 0.262,-16.472 0.272,-15.875C0.292,-14.714 -0.148,-13.654 -1.038,-12.907C-1.889,-12.194 -2.942,-11.778 -3.887,-11.211C-4.369,-10.922 -4.844,-10.592 -5.216,-10.167C-5.62,-9.708 -5.915,-9.141 -6.197,-8.6C-6.798,-7.445 -7.29,-6.233 -7.937,-5.101C-8.567,-4.001 -9.37,-2.971 -10.467,-2.305C-11.562,-1.639 -12.841,-1.469 -14.091,-1.712C-15.345,-1.956 -16.546,-2.529 -17.622,-3.294C-16.951,-2.557 -16.177,-1.917 -15.297,-1.446C-12.349,0.13 -8.519,-0.113 -5.795,-2.051C-4.58,-2.915 -3.598,-4.065 -2.454,-5.019C-1.452,-5.854 -0.31,-6.558 0.46,-7.612C1.041,-8.408 1.374,-9.364 1.551,-10.334C1.998,-12.77 1.46,-15.394 0,-17.396" style="fill:rgb(255,210,145);fill-rule:nonzero;"/>
            </g>
            <g transform="matrix(4.16667,0,0,4.16667,322.94,2300.84)">
                <path d="M0,0.467C0.272,3.176 1.778,5.897 4.439,6.84C5.179,7.104 5.926,7.172 6.674,6.896C7.405,6.626 8.025,6.109 8.516,5.514C9.318,4.543 9.878,3.296 10.009,2.024C9.343,3.001 8.432,3.889 7.381,4.356C6.863,4.586 6.276,4.691 5.725,4.525C5.108,4.341 4.66,3.853 4.353,3.306C3.671,2.091 3.574,0.585 3.71,-0.774C3.861,-2.27 4.305,-3.742 4.997,-5.076C5.293,-5.646 5.647,-6.198 6.056,-6.705C5.919,-6.636 5.777,-6.576 5.644,-6.502C3.127,-5.098 1.144,-2.762 0.167,-0.052C0.105,0.119 0.054,0.293 0,0.467" style="fill:rgb(255,210,145);fill-rule:nonzero;"/>
            </g>
            <g transform="matrix(4.16667,0,0,4.16667,386.161,2287.08)">
                <path d="M0,3.418C-1.162,6.147 -4.316,7.417 -7.045,6.255C-9.773,5.094 -11.043,1.94 -9.882,-0.79C-9.091,-2.645 -7.746,-2.54 -5.874,-2.74C-4.993,-2.835 -3.709,-3.999 -2.837,-3.627C-0.108,-2.465 1.162,0.69 0,3.418" style="fill:rgb(237,28,36);fill-rule:nonzero;"/>
            </g>
            <g transform="matrix(4.16667,0,0,4.16667,374.74,2317.98)">
                <path d="M0,-10.991C0.602,-10.41 1.052,-9.685 1.245,-8.852C1.805,-6.432 0.391,-4.079 -1.676,-2.875C-2.837,-2.197 -4.288,-1.864 -5.542,-2.486C-5.992,-2.709 -6.381,-3.025 -6.781,-3.326C-6.219,-2.395 -5.38,-1.621 -4.304,-1.162C-1.575,0 1.58,-1.269 2.741,-3.999C3.889,-6.693 2.658,-9.795 0,-10.991" style="fill:rgb(186,40,46);fill-rule:nonzero;"/>
            </g>
            <g transform="matrix(4.16667,0,0,4.16667,348.257,2294.18)">
                <path d="M0,-1.719C-0.32,-1.477 -0.509,-1.041 -0.39,-0.659C-0.29,-0.337 -0.005,-0.11 0.285,0.062C0.622,0.262 0.992,0.419 1.382,0.446C1.773,0.474 2.185,0.36 2.46,0.082C2.982,-0.446 3.245,-1.499 2.404,-1.776C1.704,-2.006 0.626,-2.193 0,-1.719" style="fill:white;fill-rule:nonzero;"/>
            </g>
            <g transform="matrix(4.16667,0,0,4.16667,365.322,2283.53)">
                <path d="M0,-1.254C-0.28,-1.259 -0.562,-1.202 -0.817,-1.089C-1.103,-0.963 -1.389,-0.691 -1.319,-0.387C-1.248,-0.078 -0.868,0.04 -0.553,0.039C-0.121,0.038 0.339,-0.1 0.599,-0.444C0.691,-0.565 0.754,-0.721 0.717,-0.868C0.657,-1.115 0.366,-1.213 0.118,-1.271C0.06,-1.284 -0.013,-1.294 -0.052,-1.248" style="fill:rgb(186,40,46);fill-rule:nonzero;"/>
            </g>
            <g transform="matrix(4.16667,0,0,4.16667,363.072,2225.43)">
                <path d="M0,13.324C0,13.324 -3.513,6.305 0,0L0.995,0.359C0.995,0.359 -2.522,3.724 0,13.324" style="fill:rgb(186,40,46);fill-rule:nonzero;"/>
            </g>
            <g transform="matrix(4.16667,0,0,4.16667,328.386,2334.93)">
                <path d="M0,-0.312C0.519,0.691 1.366,1.549 2.424,1.945C3.559,2.371 4.893,2.222 5.908,1.558C6.922,0.893 7.591,-0.272 7.652,-1.483C7.362,-0.582 6.73,0.207 5.913,0.686C5.4,0.988 4.809,1.17 4.215,1.149C3.828,1.135 3.45,1.037 3.086,0.903C1.24,0.221 0.508,-1.173 -0.476,-2.683C-0.837,-1.995 -0.327,-0.945 0,-0.312" style="fill:white;fill-rule:nonzero;"/>
            </g>
            <g transform="matrix(4.16667,0,0,4.16667,0,0)">
                <g opacity="0.2">
                    <g transform="matrix(1,0,0,1,113.62,629.223)">
                        <path d="M0,-18.905C-2.815,-18.287 -5.388,-16.623 -7.106,-14.308C-7.755,-13.434 -8.286,-12.469 -8.632,-11.435C-9.691,-8.267 -8.808,-4.529 -6.44,-2.17C-4.073,0.189 -0.335,1.061 2.832,-0.008C4.245,-0.484 5.516,-1.303 6.888,-1.887C8.087,-2.397 9.385,-2.742 10.426,-3.528C11.211,-4.123 11.806,-4.942 12.255,-5.819C13.385,-8.024 13.628,-10.691 12.807,-13.029C11.045,-18.052 4.835,-19.966 0,-18.905" style="fill:rgb(217,27,91);fill-rule:nonzero;"/>
                    </g>
                </g>
            </g>
            <g transform="matrix(4.16667,0,0,4.16667,465.105,2619.54)">
                <path d="M0,-18.905C-2.815,-18.287 -5.388,-16.624 -7.106,-14.308C-7.755,-13.434 -8.286,-12.47 -8.632,-11.436C-9.691,-8.267 -8.808,-4.53 -6.44,-2.171C-4.073,0.189 -0.335,1.061 2.832,-0.009C4.245,-0.485 5.516,-1.304 6.888,-1.887C8.087,-2.398 9.385,-2.742 10.426,-3.529C11.211,-4.124 11.806,-4.942 12.255,-5.819C13.385,-8.025 13.628,-10.692 12.807,-13.03C11.045,-18.052 4.835,-19.966 0,-18.905" style="fill:rgb(255,226,182);fill-rule:nonzero;"/>
            </g>
            <g transform="matrix(4.16667,0,0,4.16667,518.468,2623.32)">
                <path d="M0,-13.937C-0.019,-13.991 -0.045,-14.04 -0.065,-14.092C0.009,-13.544 -0.016,-12.977 -0.179,-12.401C-0.495,-11.285 -1.222,-10.397 -2.289,-9.938C-3.31,-9.501 -4.438,-9.406 -5.506,-9.135C-6.051,-8.998 -6.6,-8.82 -7.08,-8.52C-7.599,-8.195 -8.045,-7.738 -8.47,-7.303C-9.379,-6.369 -10.201,-5.351 -11.147,-4.454C-12.067,-3.582 -13.134,-2.829 -14.376,-2.507C-15.615,-2.185 -16.89,-2.389 -18.016,-2.983C-19.147,-3.579 -20.132,-4.474 -20.941,-5.516C-20.511,-4.619 -19.955,-3.782 -19.248,-3.078C-16.881,-0.717 -13.142,0.155 -9.975,-0.915C-8.563,-1.392 -7.292,-2.21 -5.92,-2.794C-4.72,-3.305 -3.423,-3.648 -2.382,-4.436C-1.596,-5.03 -1.001,-5.849 -0.552,-6.726C0.579,-8.932 0.82,-11.599 0,-13.937" style="fill:rgb(255,210,145);fill-rule:nonzero;"/>
            </g>
            <g transform="matrix(4.16667,0,0,4.16667,434.21,2574.33)">
                <path d="M0,-3.01C-0.522,-0.337 0.135,2.702 2.411,4.373C3.045,4.838 3.739,5.12 4.536,5.071C5.313,5.023 6.057,4.707 6.698,4.28C7.746,3.581 8.642,2.548 9.133,1.367C8.215,2.111 7.086,2.698 5.945,2.842C5.383,2.914 4.791,2.844 4.31,2.526C3.773,2.173 3.485,1.575 3.35,0.964C3.047,-0.397 3.389,-1.866 3.911,-3.128C4.486,-4.517 5.335,-5.799 6.383,-6.875C6.831,-7.336 7.33,-7.764 7.866,-8.13C7.716,-8.104 7.562,-8.087 7.415,-8.054C4.6,-7.437 2.027,-5.773 0.309,-3.458C0.201,-3.313 0.101,-3.161 0,-3.01" style="fill:rgb(255,210,145);fill-rule:nonzero;"/>
            </g>
            <g transform="matrix(4.16667,0,0,4.16667,495.169,2554.26)">
                <path d="M0,5.846C-1.9,8.123 -5.286,8.429 -7.564,6.531C-9.842,4.63 -10.148,1.244 -8.248,-1.034C-6.956,-2.583 -5.699,-2.093 -3.848,-1.746C-2.978,-1.582 -1.413,-2.326 -0.685,-1.718C1.593,0.182 1.9,3.569 0,5.846" style="fill:rgb(237,28,36);fill-rule:nonzero;"/>
            </g>
            <g transform="matrix(4.16667,0,0,4.16667,492.636,2589.38)">
                <path d="M0,-10.069C0.408,-9.341 0.631,-8.516 0.575,-7.662C0.413,-5.182 -1.62,-3.339 -3.946,-2.781C-5.253,-2.468 -6.738,-2.567 -7.76,-3.525C-8.126,-3.867 -8.408,-4.283 -8.704,-4.687C-8.434,-3.634 -7.854,-2.649 -6.956,-1.899C-4.679,0 -1.292,-0.305 0.608,-2.583C2.483,-4.833 2.2,-8.156 0,-10.069" style="fill:rgb(186,40,46);fill-rule:nonzero;"/>
            </g>
            <g transform="matrix(4.16667,0,0,4.16667,462.998,2563.78)">
                <path d="M0,-2.348C-0.376,-2.208 -0.683,-1.846 -0.679,-1.446C-0.676,-1.109 -0.469,-0.809 -0.241,-0.56C0.023,-0.272 0.333,-0.015 0.7,0.124C1.064,0.263 1.493,0.272 1.836,0.086C2.488,-0.268 3.043,-1.203 2.318,-1.708C1.714,-2.131 0.735,-2.62 0,-2.348" style="fill:white;fill-rule:nonzero;"/>
            </g>
            <g transform="matrix(4.16667,0,0,4.16667,481.853,2555.11)">
                <path d="M0,-1.089C-0.267,-1.175 -0.553,-1.202 -0.83,-1.167C-1.141,-1.129 -1.492,-0.951 -1.513,-0.639C-1.534,-0.323 -1.205,-0.101 -0.902,-0.011C-0.489,0.113 -0.009,0.113 0.339,-0.142C0.462,-0.232 0.569,-0.362 0.577,-0.513C0.589,-0.767 0.338,-0.945 0.118,-1.071C0.066,-1.102 0,-1.132 -0.051,-1.099" style="fill:rgb(186,40,46);fill-rule:nonzero;"/>
            </g>
            <g transform="matrix(4.16667,0,0,4.16667,478.937,2499.28)">
                <path d="M0,12.76C0,12.76 -1.339,5.026 3.844,0L4.693,0.633C4.693,0.633 0.354,2.839 0,12.76" style="fill:rgb(186,40,46);fill-rule:nonzero;"/>
            </g>
            <g transform="matrix(4.16667,0,0,4.16667,430.528,2598.86)">
                <path d="M0,-1.431C0.207,-0.322 0.771,0.744 1.67,1.429C2.634,2.164 3.955,2.407 5.117,2.063C6.281,1.719 7.256,0.796 7.665,-0.345C7.126,0.435 6.294,1.006 5.373,1.23C4.796,1.371 4.177,1.376 3.613,1.183C3.248,1.059 2.913,0.855 2.604,0.623C1.033,-0.564 0.734,-2.111 0.229,-3.838C-0.317,-3.284 -0.13,-2.13 0,-1.431" style="fill:white;fill-rule:nonzero;"/>
            </g>
            <g transform="matrix(4.16667,0,0,4.16667,0,0)">
                <g opacity="0.2">
                    <g transform="matrix(1,0,0,1,68.8467,612.012)">
                        <path d="M0,-18.905C-2.815,-18.287 -5.388,-16.624 -7.106,-14.308C-7.754,-13.434 -8.286,-12.47 -8.631,-11.436C-9.691,-8.267 -8.808,-4.53 -6.44,-2.171C-4.073,0.189 -0.335,1.061 2.832,-0.009C4.245,-0.485 5.516,-1.304 6.888,-1.887C8.088,-2.398 9.385,-2.742 10.426,-3.529C11.212,-4.124 11.806,-4.943 12.255,-5.819C13.386,-8.025 13.628,-10.692 12.808,-13.03C11.045,-18.052 4.835,-19.966 0,-18.905" style="fill:rgb(217,27,91);fill-rule:nonzero;"/>
                    </g>
                </g>
            </g>
            <g transform="matrix(4.16667,0,0,4.16667,281.365,2543.53)">
                <path d="M0,-18.905C-2.815,-18.287 -5.388,-16.624 -7.106,-14.308C-7.755,-13.434 -8.286,-12.47 -8.632,-11.436C-9.691,-8.267 -8.808,-4.53 -6.44,-2.171C-4.073,0.189 -0.335,1.061 2.832,-0.009C4.245,-0.485 5.516,-1.304 6.888,-1.887C8.087,-2.398 9.385,-2.742 10.426,-3.529C11.211,-4.124 11.806,-4.943 12.255,-5.819C13.385,-8.025 13.628,-10.692 12.807,-13.03C11.045,-18.052 4.835,-19.966 0,-18.905" style="fill:rgb(255,226,182);fill-rule:nonzero;"/>
            </g>
            <g transform="matrix(4.16667,0,0,4.16667,334.729,2547.31)">
                <path d="M0,-13.937C-0.019,-13.991 -0.045,-14.04 -0.065,-14.092C0.009,-13.544 -0.016,-12.977 -0.179,-12.401C-0.495,-11.285 -1.222,-10.397 -2.289,-9.938C-3.31,-9.501 -4.438,-9.406 -5.506,-9.135C-6.051,-8.998 -6.6,-8.82 -7.08,-8.52C-7.599,-8.195 -8.045,-7.738 -8.47,-7.303C-9.379,-6.369 -10.201,-5.351 -11.147,-4.454C-12.067,-3.582 -13.134,-2.829 -14.376,-2.507C-15.615,-2.185 -16.89,-2.39 -18.016,-2.983C-19.147,-3.579 -20.132,-4.474 -20.942,-5.516C-20.511,-4.619 -19.955,-3.782 -19.248,-3.078C-16.881,-0.717 -13.142,0.155 -9.975,-0.915C-8.563,-1.392 -7.292,-2.21 -5.92,-2.794C-4.72,-3.305 -3.423,-3.648 -2.382,-4.436C-1.596,-5.03 -1.001,-5.85 -0.552,-6.726C0.579,-8.932 0.82,-11.599 0,-13.937" style="fill:rgb(255,210,145);fill-rule:nonzero;"/>
            </g>
            <g transform="matrix(4.16667,0,0,4.16667,250.471,2498.32)">
                <path d="M0,-3.01C-0.522,-0.337 0.135,2.702 2.411,4.373C3.045,4.838 3.739,5.12 4.536,5.071C5.313,5.023 6.057,4.707 6.698,4.28C7.745,3.581 8.642,2.548 9.133,1.367C8.215,2.111 7.086,2.698 5.945,2.842C5.383,2.914 4.791,2.844 4.31,2.526C3.773,2.173 3.486,1.575 3.35,0.964C3.047,-0.397 3.389,-1.866 3.911,-3.128C4.486,-4.517 5.335,-5.799 6.383,-6.875C6.831,-7.336 7.33,-7.764 7.866,-8.13C7.716,-8.104 7.562,-8.087 7.415,-8.054C4.6,-7.437 2.027,-5.773 0.309,-3.458C0.201,-3.313 0.101,-3.161 0,-3.01" style="fill:rgb(255,210,145);fill-rule:nonzero;"/>
            </g>
            <g transform="matrix(4.16667,0,0,4.16667,311.429,2478.25)">
                <path d="M0,5.846C-1.9,8.122 -5.286,8.429 -7.564,6.531C-9.841,4.63 -10.148,1.244 -8.247,-1.034C-6.955,-2.583 -5.699,-2.093 -3.848,-1.746C-2.977,-1.582 -1.413,-2.326 -0.685,-1.718C1.594,0.182 1.9,3.569 0,5.846" style="fill:rgb(237,28,36);fill-rule:nonzero;"/>
            </g>
            <g transform="matrix(4.16667,0,0,4.16667,308.897,2513.37)">
                <path d="M0,-10.069C0.408,-9.341 0.631,-8.516 0.575,-7.662C0.413,-5.184 -1.62,-3.339 -3.946,-2.781C-5.253,-2.468 -6.738,-2.567 -7.76,-3.525C-8.126,-3.867 -8.409,-4.283 -8.704,-4.687C-8.434,-3.634 -7.855,-2.649 -6.956,-1.899C-4.679,0 -1.292,-0.306 0.608,-2.583C2.483,-4.833 2.2,-8.156 0,-10.069" style="fill:rgb(186,40,46);fill-rule:nonzero;"/>
            </g>
            <g transform="matrix(4.16667,0,0,4.16667,279.26,2487.77)">
                <path d="M0,-2.348C-0.376,-2.208 -0.683,-1.846 -0.679,-1.446C-0.676,-1.109 -0.469,-0.809 -0.241,-0.56C0.023,-0.272 0.333,-0.015 0.699,0.124C1.064,0.263 1.493,0.272 1.836,0.086C2.488,-0.269 3.043,-1.203 2.318,-1.708C1.714,-2.131 0.735,-2.62 0,-2.348" style="fill:white;fill-rule:nonzero;"/>
            </g>
            <g transform="matrix(4.16667,0,0,4.16667,298.114,2479.1)">
                <path d="M0,-1.089C-0.267,-1.175 -0.553,-1.202 -0.83,-1.168C-1.141,-1.129 -1.492,-0.951 -1.513,-0.639C-1.535,-0.323 -1.205,-0.101 -0.902,-0.011C-0.489,0.113 -0.009,0.113 0.339,-0.142C0.462,-0.232 0.569,-0.362 0.577,-0.514C0.589,-0.768 0.338,-0.945 0.118,-1.071C0.066,-1.102 0,-1.132 -0.051,-1.099" style="fill:rgb(186,40,46);fill-rule:nonzero;"/>
            </g>
            <g transform="matrix(4.16667,0,0,4.16667,295.199,2423.27)">
                <path d="M0,12.76C0,12.76 -1.339,5.026 3.844,0L4.693,0.633C4.693,0.633 0.354,2.839 0,12.76" style="fill:rgb(186,40,46);fill-rule:nonzero;"/>
            </g>
            <g transform="matrix(4.16667,0,0,4.16667,246.79,2522.84)">
                <path d="M0,-1.431C0.207,-0.322 0.771,0.744 1.67,1.429C2.634,2.164 3.955,2.407 5.117,2.063C6.28,1.719 7.256,0.796 7.665,-0.345C7.126,0.435 6.294,1.006 5.373,1.23C4.796,1.371 4.177,1.376 3.613,1.183C3.248,1.059 2.913,0.855 2.604,0.623C1.033,-0.564 0.734,-2.111 0.229,-3.838C-0.317,-3.284 -0.13,-2.13 0,-1.431" style="fill:white;fill-rule:nonzero;"/>
            </g>
            <g transform="matrix(4.16667,0,0,4.16667,360.051,2393.24)">
                <path d="M0,2.984C0.458,2.313 0.857,1.61 1.202,0.875C1.408,0.435 1.325,-0.095 0.879,-0.357C0.49,-0.583 -0.145,-0.476 -0.352,-0.034C-0.696,0.703 -1.095,1.405 -1.553,2.077C-1.827,2.478 -1.629,3.074 -1.23,3.307C-0.786,3.567 -0.274,3.387 0,2.984" style="fill:rgb(4,175,231);fill-rule:nonzero;"/>
            </g>
            <g transform="matrix(4.16667,0,0,4.16667,457.899,2329.11)">
                <path d="M0,-0.293C0.569,0.209 1.115,0.732 1.64,1.28C1.976,1.631 2.573,1.619 2.912,1.28C3.262,0.93 3.249,0.36 2.912,0.009C2.386,-0.539 1.84,-1.063 1.271,-1.564C0.907,-1.886 0.358,-1.924 0,-1.564C-0.328,-1.237 -0.366,-0.616 0,-0.293" style="fill:rgb(4,175,231);fill-rule:nonzero;"/>
            </g>
            <g transform="matrix(4.16667,0,0,4.16667,544.278,2487.97)">
                <path d="M0,3.458C0.362,2.608 0.723,1.757 1.084,0.907C1.274,0.46 1.218,-0.056 0.761,-0.323C0.384,-0.544 -0.278,-0.45 -0.469,-0.001C-0.83,0.85 -1.191,1.699 -1.553,2.551C-1.743,2.996 -1.687,3.514 -1.23,3.781C-0.853,4.002 -0.191,3.908 0,3.458" style="fill:rgb(4,175,231);fill-rule:nonzero;"/>
            </g>
            <g transform="matrix(-0.983218,4.049,4.049,0.983218,366.599,2573.63)">
                <path d="M2.129,-2.791C2.83,-1.589 3.406,-0.32 3.852,0.999C4.225,2.098 2.501,2.609 2.129,1.515C1.73,0.338 1.219,-0.782 0.594,-1.856C0.01,-2.855 1.545,-3.793 2.129,-2.791" style="fill:rgb(4,175,231);fill-rule:nonzero;"/>
            </g>
            <g transform="matrix(4.16667,0,0,4.16667,264.41,2391.13)">
                <path d="M0,-0.125C0.514,0.37 0.973,0.903 1.371,1.496C1.642,1.898 2.163,2.074 2.601,1.818C3.001,1.585 3.196,0.992 2.924,0.587C2.442,-0.129 1.894,-0.798 1.272,-1.396C0.438,-2.199 -0.835,-0.93 0,-0.125" style="fill:rgb(4,175,231);fill-rule:nonzero;"/>
            </g>
            <g transform="matrix(4.16667,0,0,4.16667,295.985,2571.66)">
                <path d="M0,-0.619C0.351,0.027 0.807,0.617 1.343,1.12C1.697,1.452 2.263,1.471 2.615,1.12C2.951,0.784 2.971,0.181 2.615,-0.152C2.154,-0.584 1.858,-0.967 1.553,-1.526C1.321,-1.954 0.732,-2.09 0.323,-1.849C-0.108,-1.597 -0.233,-1.048 0,-0.619" style="fill:rgb(4,175,231);fill-rule:nonzero;"/>
            </g>
            <g transform="matrix(4.16667,0,0,4.16667,410.035,2483.21)">
                <path d="M0,1.498C0.909,1.862 1.849,1.916 2.81,1.783C3.291,1.717 3.554,1.101 3.438,0.678C3.295,0.158 2.814,-0.018 2.331,0.049C1.696,0.137 1.065,-0.002 0.479,-0.237C0.027,-0.418 -0.51,-0.04 -0.628,0.392C-0.769,0.903 -0.453,1.316 0,1.498" style="fill:rgb(4,175,231);fill-rule:nonzero;"/>
            </g>
            <g transform="matrix(4.16667,0,0,4.16667,411.546,2388.81)">
                <path d="M0,3.239C0.734,2.684 1.4,2.076 1.978,1.357C2.281,0.98 2.347,0.456 1.978,0.086C1.663,-0.23 1.011,-0.294 0.705,0.086C0.232,0.676 -0.303,1.229 -0.907,1.685C-1.295,1.977 -1.496,2.463 -1.23,2.916C-1.007,3.298 -0.39,3.533 0,3.239" style="fill:rgb(255,217,64);fill-rule:nonzero;"/>
            </g>
            <g transform="matrix(4.16667,0,0,4.16667,289.407,2323.91)">
                <path d="M0,-0.709C0.259,-0.252 0.461,0.212 0.618,0.714C0.761,1.178 1.244,1.474 1.724,1.343C2.181,1.217 2.496,0.701 2.351,0.235C2.151,-0.407 1.885,-1.031 1.553,-1.617C1.314,-2.04 0.737,-2.183 0.323,-1.939C-0.103,-1.69 -0.24,-1.134 0,-0.709" style="fill:rgb(255,217,64);fill-rule:nonzero;"/>
            </g>
            <g transform="matrix(4.16667,0,0,4.16667,238.859,2446.1)">
                <path d="M0,2.751C0.521,2.352 1.04,1.952 1.561,1.553C1.945,1.257 2.149,0.778 1.883,0.322C1.662,-0.057 1.04,-0.299 0.653,-0.001C0.132,0.399 -0.388,0.798 -0.908,1.198C-1.292,1.494 -1.498,1.973 -1.23,2.429C-1.009,2.808 -0.388,3.05 0,2.751" style="fill:rgb(255,217,64);fill-rule:nonzero;"/>
            </g>
            <g transform="matrix(4.16667,0,0,4.16667,357.684,2482.39)">
                <path d="M0,-0.745C0.456,0.065 0.986,0.819 1.572,1.54C1.878,1.917 2.525,1.858 2.843,1.54C3.217,1.167 3.151,0.647 2.843,0.268C2.355,-0.332 1.933,-0.979 1.553,-1.652C0.985,-2.662 -0.569,-1.756 0,-0.745" style="fill:rgb(255,217,64);fill-rule:nonzero;"/>
            </g>
            <g transform="matrix(4.16667,0,0,4.16667,415.317,2549.7)">
                <path d="M0,1.993C0.042,1.425 0.188,0.879 0.395,0.348C0.571,-0.104 0.201,-0.638 -0.234,-0.758C-0.742,-0.898 -1.163,-0.583 -1.34,-0.129C-1.606,0.555 -1.745,1.263 -1.799,1.993C-1.835,2.478 -1.359,2.891 -0.899,2.891C-0.383,2.891 -0.036,2.479 0,1.993" style="fill:rgb(255,217,64);fill-rule:nonzero;"/>
            </g>
            <g transform="matrix(4.16667,0,0,4.16667,388.52,2626.04)">
                <path d="M0,0.628C0.957,0.997 1.916,1.365 2.873,1.734C3.327,1.909 3.859,1.541 3.979,1.107C4.119,0.599 3.806,0.175 3.352,-0C2.393,-0.368 1.436,-0.737 0.479,-1.106C0.025,-1.281 -0.509,-0.914 -0.629,-0.478C-0.767,0.029 -0.456,0.453 0,0.628" style="fill:rgb(255,217,64);fill-rule:nonzero;"/>
            </g>
            <g transform="matrix(4.16667,0,0,4.16667,543.85,2539.77)">
                <path d="M0,2.971C0.654,2.47 1.202,1.894 1.622,1.179C1.868,0.761 1.718,0.194 1.299,-0.051C0.877,-0.298 0.315,-0.149 0.068,0.272C-0.084,0.532 -0.215,0.72 -0.366,0.89C-0.453,0.989 -0.544,1.083 -0.64,1.175C-0.699,1.232 -0.759,1.287 -0.821,1.341C-0.834,1.353 -0.979,1.473 -0.908,1.418C-1.292,1.713 -1.498,2.193 -1.23,2.649C-1.009,3.028 -0.388,3.269 0,2.971" style="fill:rgb(255,217,64);fill-rule:nonzero;"/>
            </g>
            <g transform="matrix(-2.82684,3.06106,3.06106,2.82684,598.061,2441.64)">
                <path d="M1.229,-2.807C1.739,-2.009 2.248,-1.21 2.758,-0.412C3.38,0.563 1.854,1.517 1.229,0.537C0.72,-0.261 0.211,-1.058 -0.3,-1.857C-0.921,-2.833 0.605,-3.785 1.229,-2.807" style="fill:rgb(255,217,64);fill-rule:nonzero;"/>
            </g>
            <g transform="matrix(4.16667,0,0,4.16667,417.993,2271.76)">
                <path d="M0,-0.271L1.221,1.272C1.523,1.653 2.177,1.587 2.493,1.272C2.87,0.895 2.795,0.382 2.493,0C2.085,-0.514 1.679,-1.029 1.271,-1.543C0.97,-1.924 0.315,-1.859 0,-1.543C-0.377,-1.166 -0.303,-0.654 0,-0.271" style="fill:rgb(255,217,64);fill-rule:nonzero;"/>
            </g>
            <g transform="matrix(0.575172,4.12678,4.12678,-0.575172,316.067,2369.51)">
                <path d="M2.012,-1.567C2.748,-0.689 3.313,0.317 3.665,1.407C4.017,2.502 2.367,3.223 2.012,2.12C1.702,1.161 1.247,0.319 0.598,-0.454C-0.146,-1.343 1.269,-2.453 2.012,-1.567" style="fill:rgb(237,28,36);fill-rule:nonzero;"/>
            </g>
            <g transform="matrix(4.16667,0,0,4.16667,396.656,2441.55)">
                <path d="M0,2.713C0.515,2.233 1.028,1.752 1.543,1.272C1.898,0.94 1.878,0.335 1.543,0C1.189,-0.354 0.627,-0.333 0.271,0C-0.244,0.481 -0.757,0.96 -1.272,1.442C-1.627,1.773 -1.607,2.377 -1.272,2.713C-0.917,3.067 -0.356,3.046 0,2.713" style="fill:rgb(237,28,36);fill-rule:nonzero;"/>
            </g>
            <g transform="matrix(4.16667,0,0,4.16667,414.742,2342.59)">
                <path d="M0,2.844C0.544,2.32 1.088,1.795 1.632,1.271C1.982,0.933 1.972,0.338 1.632,-0.001C1.283,-0.351 0.711,-0.34 0.361,-0.001C-0.184,0.524 -0.728,1.048 -1.272,1.573C-1.622,1.91 -1.611,2.505 -1.272,2.844C-0.922,3.195 -0.351,3.183 0,2.844" style="fill:rgb(237,28,36);fill-rule:nonzero;"/>
            </g>
            <g transform="matrix(4.16667,0,0,4.16667,576.908,2500.96)">
                <path d="M0,2.875C0.545,2.375 1,1.771 1.322,1.105C1.534,0.669 1.442,0.133 0.999,-0.125C0.605,-0.356 -0.018,-0.242 -0.231,0.197C-0.51,0.773 -0.803,1.173 -1.272,1.603C-1.63,1.932 -1.605,2.541 -1.272,2.875C-0.915,3.231 -0.359,3.204 0,2.875" style="fill:rgb(237,28,36);fill-rule:nonzero;"/>
            </g>
            <g transform="matrix(0.381147,4.1492,4.1492,-0.381147,333.589,2600.83)">
                <path d="M1.72,-1.568C2.209,-0.766 2.695,0.037 3.183,0.839C3.783,1.824 2.322,2.875 1.72,1.886C1.232,1.082 0.744,0.281 0.256,-0.522C-0.344,-1.507 1.117,-2.558 1.72,-1.568" style="fill:rgb(237,28,36);fill-rule:nonzero;"/>
            </g>
            <g transform="matrix(4.16667,0,0,4.16667,356.261,2528.91)">
                <path d="M0,3.232C0.366,2.458 0.731,1.681 1.097,0.907C1.304,0.467 1.219,-0.064 0.774,-0.324C0.384,-0.552 -0.249,-0.442 -0.457,-0.001C-0.821,0.774 -1.187,1.548 -1.553,2.324C-1.76,2.762 -1.676,3.294 -1.23,3.554C-0.839,3.784 -0.208,3.673 0,3.232" style="fill:rgb(237,28,36);fill-rule:nonzero;"/>
            </g>
            <g transform="matrix(4.16667,0,0,4.16667,245.69,2414.47)">
                <path d="M0,-0.568C0.647,-0.286 1.134,0.127 1.477,0.739C2.042,1.748 3.596,0.843 3.03,-0.169C2.552,-1.022 1.807,-1.729 0.908,-2.122C0.463,-2.316 -0.057,-2.253 -0.323,-1.798C-0.545,-1.418 -0.448,-0.763 0,-0.568" style="fill:rgb(237,28,36);fill-rule:nonzero;"/>
            </g>
            <g transform="matrix(4.16667,0,0,4.16667,272.418,2347.37)">
                <path d="M0,1.011C0.656,1.252 1.312,1.493 1.968,1.733C2.423,1.901 2.953,1.546 3.074,1.106C3.212,0.604 2.904,0.167 2.446,-0.001C1.791,-0.242 1.134,-0.482 0.479,-0.723C0.022,-0.89 -0.507,-0.536 -0.628,-0.094C-0.766,0.407 -0.458,0.843 0,1.011" style="fill:white;fill-rule:nonzero;"/>
            </g>
            <g transform="matrix(4.16667,0,0,4.16667,336.579,2444.21)">
                <path d="M0,2.802C0.473,2.17 0.945,1.539 1.417,0.907C1.709,0.52 1.48,-0.096 1.095,-0.323C0.636,-0.592 0.156,-0.39 -0.136,0C-0.608,0.632 -1.081,1.263 -1.553,1.894C-1.845,2.282 -1.616,2.899 -1.23,3.124C-0.77,3.394 -0.292,3.192 0,2.802" style="fill:white;fill-rule:nonzero;"/>
            </g>
            <g transform="matrix(4.16667,0,0,4.16667,477.006,2469.3)">
                <path d="M0,-0.613C0.543,0.063 1.215,0.625 1.963,1.064C2.963,1.651 3.869,0.096 2.87,-0.489C2.246,-0.855 1.726,-1.321 1.272,-1.885C0.967,-2.264 0.318,-2.203 0,-1.885C-0.375,-1.51 -0.306,-0.993 0,-0.613" style="fill:white;fill-rule:nonzero;"/>
            </g>
            <g transform="matrix(4.16667,0,0,4.16667,539.595,2577.73)">
                <path d="M0,2.132C0.107,1.919 0.227,1.714 0.364,1.519C0.373,1.506 0.471,1.374 0.418,1.441C0.366,1.509 0.47,1.381 0.479,1.369C0.561,1.274 0.647,1.182 0.734,1.092C1.064,0.755 1.095,0.15 0.734,-0.18C0.379,-0.508 -0.185,-0.539 -0.538,-0.18C-0.942,0.233 -1.292,0.707 -1.553,1.224C-1.765,1.643 -1.678,2.218 -1.23,2.454C-0.821,2.671 -0.226,2.58 0,2.132" style="fill:white;fill-rule:nonzero;"/>
            </g>
            <g transform="matrix(4.06195,-0.928247,-0.928247,-4.06195,409.244,2599.03)">
                <path d="M-0.342,-0.039C0.254,0.619 0.782,1.335 1.243,2.094C1.845,3.085 0.257,3.933 -0.342,2.946C-0.724,2.316 -1.159,1.739 -1.654,1.193C-2.432,0.333 -1.12,-0.897 -0.342,-0.039" style="fill:white;fill-rule:nonzero;"/>
            </g>
            <g transform="matrix(4.16667,0,0,4.16667,436.412,2291.31)">
                <path d="M0,1.799L2.873,1.799C4.031,1.799 4.033,0 2.873,0L0,0C-1.157,0 -1.159,1.799 0,1.799" style="fill:white;fill-rule:nonzero;"/>
            </g>
            <g transform="matrix(0.372598,4.14997,4.14997,-0.372598,432.513,2422.88)">
                <path d="M1.854,-1.652C2.528,-0.741 3.088,0.245 3.539,1.285C4.001,2.349 2.315,2.974 1.854,1.915C1.462,1.014 0.974,0.182 0.387,-0.609C-0.302,-1.542 1.164,-2.582 1.854,-1.652" style="fill:white;fill-rule:nonzero;"/>
            </g>
            <g transform="matrix(-0.244981,4.15946,4.15946,0.244981,438.277,2511.57)">
                <path d="M1.996,-2.116C2.531,-1.056 3.065,0.005 3.6,1.065C4.122,2.101 2.517,2.915 1.996,1.88L0.391,-1.302C-0.131,-2.337 1.473,-3.15 1.996,-2.116" style="fill:white;fill-rule:nonzero;"/>
            </g>
            <g transform="matrix(4.16667,0,0,4.16667,561.953,2466.02)">
                <path d="M0,0.017L1.172,1.273C1.495,1.618 2.123,1.622 2.444,1.273C2.784,0.904 2.788,0.369 2.444,0L1.272,-1.255C0.95,-1.6 0.321,-1.605 0,-1.255C-0.339,-0.885 -0.343,-0.351 0,0.017" style="fill:white;fill-rule:nonzero;"/>
            </g>
            <g transform="matrix(4.16667,0,0,4.16667,324.979,2568.04)">
                <path d="M0,2.701C0.311,1.871 0.48,1.015 0.551,0.133C0.591,-0.353 0.11,-0.767 -0.349,-0.767C-0.867,-0.767 -1.208,-0.354 -1.248,0.133C-1.306,0.852 -1.482,1.547 -1.734,2.222C-1.905,2.678 -1.545,3.209 -1.106,3.33C-0.603,3.468 -0.17,3.158 0,2.701" style="fill:white;fill-rule:nonzero;"/>
            </g>
            <g transform="matrix(4.15315,0.335354,0.335354,-4.15315,278.034,2444.36)">
                <path d="M0.16,-0.006C0.701,1.059 1.241,2.125 1.782,3.19C2.305,4.224 0.683,5 0.16,3.969C-0.381,2.903 -0.921,1.839 -1.461,0.773C-1.986,-0.262 -0.364,-1.038 0.16,-0.006" style="fill:white;fill-rule:nonzero;"/>
            </g>
            <g transform="matrix(4.16667,0,0,4.16667,316.2,2280.11)">
                <path d="M0,2.588C0.59,2.02 1.213,1.499 1.884,1.03C2.282,0.753 2.466,0.243 2.206,-0.2C1.977,-0.594 1.376,-0.803 0.976,-0.522C0.181,0.033 -0.573,0.643 -1.272,1.316C-2.107,2.119 -0.834,3.391 0,2.588" style="fill:white;fill-rule:nonzero;"/>
            </g>
            <g transform="matrix(4.16667,0,0,4.16667,444.668,2386.62)">
                <path d="M0,-1.614C0.27,-0.556 0.77,0.378 1.456,1.222C1.762,1.6 2.409,1.54 2.727,1.222C3.101,0.849 3.035,0.328 2.727,-0.05C2.241,-0.65 1.924,-1.347 1.735,-2.093C1.45,-3.214 -0.286,-2.738 0,-1.614" style="fill:rgb(189,61,150);fill-rule:nonzero;"/>
            </g>
            <g transform="matrix(4.16667,0,0,4.16667,460.955,2486.01)">
                <path d="M0,2.61C0.396,2.016 0.891,1.509 1.451,1.067C1.832,0.765 1.766,0.111 1.451,-0.204C1.074,-0.581 0.562,-0.507 0.179,-0.204C-0.502,0.334 -1.072,0.981 -1.553,1.703C-1.823,2.106 -1.632,2.698 -1.23,2.933C-0.789,3.191 -0.271,3.015 0,2.61" style="fill:rgb(189,61,150);fill-rule:nonzero;"/>
            </g>
            <g transform="matrix(4.16667,0,0,4.16667,520.275,2523.81)">
                <path d="M0,2.477C0.282,1.954 0.563,1.431 0.845,0.908C1.075,0.48 0.951,-0.071 0.522,-0.322C0.113,-0.562 -0.478,-0.428 -0.707,0C-0.99,0.523 -1.271,1.046 -1.553,1.569C-1.784,1.996 -1.66,2.548 -1.23,2.799C-0.821,3.039 -0.231,2.906 0,2.477" style="fill:rgb(189,61,150);fill-rule:nonzero;"/>
            </g>
            <g transform="matrix(-1.05939,4.02974,4.02974,1.05939,394.393,2508.91)">
                <path d="M1.794,-2.326C2.312,-1.393 2.83,-0.458 3.348,0.476C3.909,1.49 2.357,2.398 1.794,1.382L0.241,-1.42C-0.322,-2.432 1.232,-3.341 1.794,-2.326" style="fill:rgb(189,61,150);fill-rule:nonzero;"/>
            </g>
            <g transform="matrix(4.16667,0,0,4.16667,307.858,2546.93)">
                <path d="M0,0.982C0.101,1.022 0.113,1.027 0.036,0.997C0.091,1.021 0.146,1.047 0.2,1.075C0.295,1.122 0.388,1.172 0.479,1.226C0.571,1.279 0.661,1.336 0.747,1.395C0.797,1.429 0.847,1.463 0.895,1.5C0.834,1.45 0.845,1.459 0.928,1.526C1.293,1.821 1.849,1.909 2.2,1.526C2.501,1.198 2.591,0.57 2.2,0.254C1.666,-0.178 1.117,-0.499 0.479,-0.753C0.04,-0.927 -0.529,-0.563 -0.628,-0.124C-0.746,0.394 -0.47,0.795 0,0.982" style="fill:rgb(189,61,150);fill-rule:nonzero;"/>
            </g>
            <g transform="matrix(4.16667,0,0,4.16667,381.567,2610.02)">
                <path d="M0,2.125C0.183,1.581 0.323,1.028 0.419,0.463C0.501,-0.015 0.292,-0.506 -0.209,-0.644C-0.642,-0.763 -1.233,-0.497 -1.315,-0.015C-1.412,0.55 -1.551,1.104 -1.735,1.646C-1.89,2.107 -1.556,2.63 -1.106,2.754C-0.615,2.888 -0.156,2.588 0,2.125" style="fill:rgb(189,61,150);fill-rule:nonzero;"/>
            </g>
            <g transform="matrix(4.16667,0,0,4.16667,369.561,2376.04)">
                <path d="M0,-1.077C0.831,-0.479 1.582,0.215 2.265,0.976C3.041,1.837 4.31,0.562 3.537,-0.298C2.748,-1.174 1.866,-1.941 0.907,-2.63C0.513,-2.914 -0.094,-2.699 -0.323,-2.306C-0.588,-1.854 -0.396,-1.361 0,-1.077" style="fill:rgb(189,61,150);fill-rule:nonzero;"/>
            </g>
            <g transform="matrix(4.1405,-0.466237,-0.466237,-4.1405,253.55,2375.65)">
                <path d="M-0.176,-0.01C0.305,0.68 0.784,1.369 1.266,2.06C1.928,3.01 0.487,4.087 -0.176,3.136C-0.656,2.446 -1.137,1.756 -1.618,1.065C-2.279,0.116 -0.84,-0.961 -0.176,-0.01" style="fill:rgb(189,61,150);fill-rule:nonzero;"/>
            </g>
            <g transform="matrix(4.16667,0,0,4.16667,297.791,2408.83)">
                <path d="M0,-1.103C1.037,-0.259 2.096,0.559 3.177,1.348C3.571,1.637 4.176,1.412 4.407,1.025C4.679,0.574 4.475,0.08 4.084,-0.206C3.128,-0.904 2.19,-1.627 1.271,-2.375C0.892,-2.684 0.373,-2.74 0,-2.375C-0.32,-2.061 -0.376,-1.41 0,-1.103" style="fill:rgb(189,61,150);fill-rule:nonzero;"/>
            </g>
            <g transform="matrix(4.16667,0,0,4.16667,467.833,2298.49)">
                <path d="M0,2.739C0.762,2.297 1.491,1.807 2.188,1.268C2.572,0.971 2.779,0.496 2.511,0.038C2.29,-0.34 1.667,-0.584 1.281,-0.285C0.584,0.254 -0.146,0.744 -0.907,1.186C-1.909,1.767 -1.004,3.323 0,2.739" style="fill:rgb(189,61,150);fill-rule:nonzero;"/>
            </g>
            <g transform="matrix(4.16667,0,0,4.16667,579.262,2538.69)">
                <path d="M0,2.777L0.901,0.906C1.112,0.469 1.021,-0.065 0.58,-0.324C0.186,-0.554 -0.44,-0.441 -0.652,-0.001L-1.553,1.87C-1.765,2.306 -1.673,2.84 -1.23,3.1C-0.836,3.331 -0.212,3.216 0,2.777" style="fill:rgb(189,61,150);fill-rule:nonzero;"/>
            </g>
            <g transform="matrix(4.16667,0,0,4.16667,593.52,2477.73)">
                <path d="M0,-1.383C0.364,-0.517 0.857,0.255 1.557,0.891C1.916,1.219 2.474,1.247 2.829,0.891C3.161,0.56 3.189,-0.052 2.829,-0.38C2.373,-0.794 1.976,-1.288 1.735,-1.862C1.546,-2.309 1.139,-2.63 0.628,-2.489C0.206,-2.373 -0.189,-1.834 0,-1.383" style="fill:rgb(189,61,150);fill-rule:nonzero;"/>
            </g>
            <g transform="matrix(4.16667,0,0,4.16667,261.883,2549.55)">
                <path d="M0,1.93C0.663,1.887 1.325,1.843 1.988,1.799C2.473,1.768 2.888,1.409 2.888,0.901C2.888,0.438 2.475,-0.032 1.988,0C1.325,0.044 0.663,0.088 0,0.131C-0.485,0.163 -0.899,0.522 -0.899,1.032C-0.899,1.493 -0.487,1.962 0,1.93" style="fill:rgb(189,61,150);fill-rule:nonzero;"/>
            </g>
            <g transform="matrix(4.16667,0,0,4.16667,447.555,2263.67)">
                <path d="M0,-1.402C0.145,-0.775 0.29,-0.149 0.434,0.479C0.543,0.951 1.086,1.231 1.541,1.107C2.026,0.973 2.278,0.476 2.168,-0C2.024,-0.627 1.879,-1.254 1.735,-1.881C1.625,-2.353 1.082,-2.633 0.628,-2.508C0.143,-2.375 -0.109,-1.878 0,-1.402" style="fill:rgb(189,61,150);fill-rule:nonzero;"/>
            </g>
            <g transform="matrix(0.0129148,-4.16665,-4.16665,-0.0129148,620.219,2446.06)">
                <path d="M-0.52,47.872L47.874,47.872C47.637,35.224 42.452,23.158 33.437,14.283C24.422,5.408 12.278,0.411 -0.373,0.372L-0.52,47.872Z" style="fill:white;fill-rule:nonzero;"/>
            </g>
            <g transform="matrix(0,4.16667,4.16667,0,621.215,2446.04)">
                <path d="M-48.209,-48.209L48.209,-48.209" style="fill:none;fill-rule:nonzero;stroke:rgb(96,56,18);stroke-width:1.08px;"/>
            </g>
            <g transform="matrix(4.16667,0,0,4.16667,216.788,2446.04)">
                <path d="M0,0L96.816,0" style="fill:none;fill-rule:nonzero;stroke:rgb(96,56,18);stroke-width:1.08px;"/>
            </g>
            <g transform="matrix(-2.96669,2.92572,2.92572,2.96669,416.185,2648.25)">
                <path d="M-82.352,-33.777L13.853,-33.776" style="fill:none;fill-rule:nonzero;stroke:rgb(96,56,18);stroke-width:1.08px;"/>
            </g>
            <g transform="matrix(2.93758,2.95495,2.95495,-2.93758,418.775,2244.79)">
                <path d="M-14.289,-34.352L82.59,-34.353" style="fill:none;fill-rule:nonzero;stroke:rgb(96,56,18);stroke-width:1.08px;"/>
            </g>
            <g transform="matrix(0,-4.16667,-4.16667,0,417.981,2243.84)">
                <ellipse cx="-48.406" cy="0" rx="48.405" ry="48.406" style="fill:none;stroke:rgb(35,31,32);stroke-width:1px;"/>
            </g>
        </g>
    </g>
    <defs>
        <radialGradient id="_Radial1" cx="0" cy="0" r="1" gradientUnits="userSpaceOnUse" gradientTransform="matrix(0,1,1,0,1.13995e-05,-1.13995e-05)"><stop offset="0" style="stop-color:rgb(188,132,81);stop-opacity:1"/><stop offset="0" style="stop-color:rgb(188,132,81);stop-opacity:1"/><stop offset="0.93" style="stop-color:rgb(158,93,55);stop-opacity:1"/><stop offset="1" style="stop-color:rgb(158,93,55);stop-opacity:1"/></radialGradient>
    </defs>
</svg>
