<?xml version="1.0" encoding="UTF-8" standalone="no"?>
<!DOCTYPE svg PUBLIC "-//W3C//DTD SVG 1.1//EN" "http://www.w3.org/Graphics/SVG/1.1/DTD/svg11.dtd">
<svg width="100%" height="100%" viewBox="0 0 447 450" version="1.1" xmlns="http://www.w3.org/2000/svg" xmlns:xlink="http://www.w3.org/1999/xlink" xml:space="preserve" xmlns:serif="http://www.serif.com/" style="fill-rule:evenodd;clip-rule:evenodd;stroke-linecap:round;stroke-linejoin:round;stroke-miterlimit:10;">
    <g transform="matrix(1,0,0,1,-1129,-1166)">
        <g transform="matrix(1,0,0,1,-133.043,-1052.37)">
            <g transform="matrix(0,201.69,201.69,0,1486.73,2444.91)">
                <ellipse cx="0" cy="-0" rx="1" ry="1" style="fill:url(#_Radial1);"/>
            </g>
            <g transform="matrix(4.16667,0,0,4.16667,0,0)">
                <g opacity="0.2">
                    <g transform="matrix(0,-1,-1,0,361.536,551.494)">
                        <path d="M-36.719,-36.719C-57.367,-36.719 -74.106,-20.28 -74.106,-0C-74.106,20.28 -57.367,36.719 -36.719,36.719C-16.071,36.719 0.667,20.28 0.667,-0C0.667,-20.28 -16.071,-36.719 -36.719,-36.719" style="fill:rgb(158,30,99);fill-rule:nonzero;"/>
                    </g>
                </g>
            </g>
            <g transform="matrix(0,-4.16667,-4.16667,0,1486.72,2295.36)">
                <path d="M-35.893,-35.894C-55.717,-35.894 -71.787,-19.824 -71.787,0C-71.787,19.824 -55.717,35.893 -35.893,35.893C-16.07,35.893 -0,19.824 -0,0C-0,-19.824 -16.07,-35.894 -35.893,-35.894" style="fill:rgb(252,213,200);fill-rule:nonzero;"/>
            </g>
            <g transform="matrix(4.16667,0,0,4.16667,1406.53,2514.81)">
                <path d="M0,-43.263C-3.991,-38.856 -7.013,-33.576 -8.808,-27.909C-10.595,-22.267 -11.157,-16.201 -10.113,-10.358C-9.073,-4.548 -6.447,1.065 -1.787,4.833C0.392,6.594 2.933,7.889 5.641,8.607C7.912,9.209 10.263,9.405 12.6,9.273C11.22,8.847 9.979,8.018 8.898,7.078C7.608,5.957 6.479,4.656 5.478,3.275C4.564,2.015 3.737,0.679 3.068,-0.729C2.392,-2.15 1.936,-3.677 1.589,-5.21C0.747,-8.921 0.607,-12.792 0.976,-16.572C1.349,-20.384 2.244,-24.182 3.772,-27.701C5.189,-30.964 7.185,-33.936 9.829,-36.331C12.444,-38.701 15.567,-40.477 18.86,-41.72C22.229,-42.992 25.802,-43.728 29.39,-43.981C33.041,-44.24 36.759,-44.027 40.322,-43.161C41.972,-42.761 43.604,-42.23 45.184,-41.573C38.648,-48.405 29.449,-52.668 19.247,-52.668C16.522,-52.668 13.872,-52.355 11.321,-51.779C7.036,-49.726 3.189,-46.784 0,-43.263" style="fill:rgb(246,153,138);fill-rule:nonzero;"/>
            </g>
            <g transform="matrix(4.16667,0,0,4.16667,1528.85,2503.23)">
                <path d="M0,-28.238C-2.587,-29.819 -5.696,-30.301 -8.665,-29.741C-11.499,-29.205 -14.015,-27.584 -15.698,-25.246C-17.398,-22.882 -18.159,-20.015 -18.216,-17.129C-18.261,-14.881 -17.935,-12.314 -16.717,-10.334C-16.785,-11.857 -16.609,-13.391 -16.274,-14.874C-15.862,-16.704 -15.204,-18.489 -14.278,-20.123C-13.424,-21.631 -12.298,-23.062 -10.826,-24.011C-9.445,-24.9 -7.811,-25.266 -6.188,-24.967C-4.36,-24.63 -2.676,-23.632 -1.644,-22.07C-0.647,-20.564 -0.315,-18.716 -0.359,-16.934C-0.408,-14.966 -0.895,-13 -1.666,-11.193C-2.388,-9.502 -3.374,-7.88 -4.709,-6.602C-6.571,-4.818 -9.178,-4.002 -11.72,-3.976C-14.516,-3.947 -17.234,-4.703 -19.966,-5.2C-19.87,-4.722 -19.733,-4.253 -19.526,-3.81C-18.452,-1.494 -16.145,0.038 -13.813,0.887C-11.544,1.713 -8.847,2.063 -6.514,1.277C-3.539,0.274 -0.926,-1.783 1.09,-4.153C3.169,-6.6 4.733,-9.502 5.575,-12.603C6.371,-15.533 6.519,-18.655 5.46,-21.539C4.447,-24.3 2.512,-26.702 0,-28.238" style="fill:rgb(246,153,138);fill-rule:nonzero;"/>
            </g>
            <g transform="matrix(4.16667,0,0,4.16667,1562.95,2419.84)">
                <path d="M0,-16.91C2.758,-16.062 5.412,-14.869 7.765,-13.188C11.867,-10.257 14.72,-6.035 16.523,-1.37C16.747,-0.793 16.953,-0.209 17.15,0.378C16.172,-5.803 13.618,-11.455 9.911,-16.162C8.657,-16.54 7.372,-16.818 6.078,-16.991C4.077,-17.258 1.997,-17.288 0,-16.91" style="fill:rgb(246,153,138);fill-rule:nonzero;"/>
            </g>
            <g transform="matrix(4.16667,0,0,4.16667,1558.94,2464.78)">
                <path d="M0,21.597C2.22,18.724 4.116,15.593 5.639,12.298C6.352,10.754 6.985,9.171 7.515,7.554C8.239,5.339 8.615,3.03 8.741,0.706C8.928,-2.719 8.587,-6.126 8.209,-9.528C8.14,-4.859 7.767,-0.126 5.861,4.184C4.78,6.631 3.198,8.857 1.499,10.91C-0.248,13.02 -2.187,14.972 -4.239,16.787C-8.142,20.244 -12.425,23.298 -17.431,24.918C-19.859,25.703 -22.401,26.149 -24.955,26.168C-26.253,26.177 -27.554,26.082 -28.837,25.877C-30.284,25.647 -31.716,25.414 -33.139,25.062C-34.529,24.717 -35.9,24.302 -37.248,23.824C-38.442,23.404 -39.639,22.942 -40.784,22.392C-34.492,27.829 -26.299,31.125 -17.333,31.125C-14.501,31.125 -11.749,30.786 -9.105,30.167C-8.656,29.879 -8.212,29.582 -7.779,29.271C-4.813,27.133 -2.231,24.486 0,21.597" style="fill:rgb(246,153,138);fill-rule:nonzero;"/>
            </g>
            <g transform="matrix(4.16667,0,0,4.16667,1352.21,2459.43)">
                <path d="M0,8.708C1.971,13.717 5.276,18.148 9.288,21.737C6.846,18.997 5.045,15.74 3.554,12.386C1.769,8.372 0.387,4.128 0.048,-0.252C-0.298,-4.718 0.619,-8.846 2.076,-13.029C-4.289,-8.307 -2.467,2.436 0,8.708" style="fill:rgb(254,234,231);fill-rule:nonzero;"/>
            </g>
            <g transform="matrix(4.16667,0,0,4.16667,1486.3,2384.71)">
                <path d="M0,-2.501C5.447,-3.797 11.559,-1.644 14.989,2.781C15.448,1.727 15.189,0.463 14.563,-0.501C13.935,-1.466 12.986,-2.174 12.006,-2.776C9.534,-4.295 6.657,-5.282 3.761,-5.107C1.018,-4.941 -2.239,-3.522 -3.498,-0.94C-2.361,-1.579 -1.305,-2.19 0,-2.501" style="fill:rgb(254,234,231);fill-rule:nonzero;"/>
            </g>
            <g transform="matrix(4.16667,0,0,4.16667,1613.46,2537.04)">
                <path d="M0,-27.295C0.482,-22.618 0.768,-17.895 0.245,-13.223C-0.279,-8.552 -1.645,-3.912 -4.252,0C-1.041,-3.182 1.645,-7.177 2.39,-11.664C2.835,-14.339 2.848,-17.082 2.434,-19.762C2.227,-21.1 1.915,-22.424 1.495,-23.711C1.142,-24.795 0.112,-26.207 0,-27.295" style="fill:rgb(254,234,231);fill-rule:nonzero;"/>
            </g>
            <g transform="matrix(4.16667,0,0,4.16667,1559.17,2432.55)">
                <path d="M0,17.672C1.564,15.99 3.093,14.236 4.139,12.193C5.263,9.997 5.79,7.542 6.073,5.092C6.67,-0.076 6.112,-5.654 3.017,-9.835C3.996,-6.176 4.983,-2.408 4.537,1.355C4.14,4.69 2.635,7.789 0.953,10.698C-2.643,16.917 -7.161,22.601 -12.408,27.507C-11.605,26.755 -9.549,26.419 -8.518,25.768C-7.666,25.229 -6.937,24.63 -6.209,23.943C-4.073,21.933 -1.998,19.819 0,17.672" style="fill:rgb(254,234,231);fill-rule:nonzero;"/>
            </g>
            <g transform="matrix(4.16667,0,0,4.16667,1439.19,2426.16)">
                <path d="M0,10.403C3.949,14.045 10.659,14.436 14.713,10.911C17.978,8.07 19.116,3.45 19.131,-0.877C18.011,2.948 16.413,7.052 12.914,8.961C11.073,9.965 8.918,10.221 6.821,10.241C5.185,10.257 3.481,10.121 2.065,9.301C-0.26,7.956 -1.237,5.157 -2.036,2.592C-2.727,0.37 -3.162,-1.733 -3.032,-4.033C-4.969,0.762 -3.84,6.863 0,10.403" style="fill:rgb(254,234,231);fill-rule:nonzero;"/>
            </g>
            <g transform="matrix(4.16667,0,0,4.16667,0,0)">
                <g opacity="0.3">
                    <g transform="matrix(1,0,0,1,343.784,630.998)">
                        <path d="M0,-81.055C-10.189,-79.127 -18.343,-71.041 -23.043,-61.798C-25.915,-56.147 -27.74,-49.925 -28.011,-43.593C-28.122,-40.999 -27.958,-38.328 -26.903,-35.956C-25.846,-33.585 -23.762,-31.551 -21.203,-31.123C-20.757,-42.749 -16.29,-54.203 -8.653,-62.98C-1.017,-71.758 9.751,-77.78 21.247,-79.574C25.564,-80.247 29.696,-82.994 33.972,-82.095C35.748,-81.722 37.424,-80.655 38.286,-79.056C39.148,-77.457 39.067,-75.326 37.885,-73.946C36.318,-72.116 33.565,-72.081 31.158,-71.992C18.269,-71.517 5.729,-65.011 -2.08,-54.748C-9.889,-44.483 -12.814,-30.663 -9.835,-18.116C-9.492,-16.672 -9.076,-15.162 -9.472,-13.733C-10.436,-10.255 -9.311,-6.283 -6.669,-3.825C-5.65,-2.878 -4.012,-2.162 -2.936,-3.043C-2.535,-3.37 -2.306,-3.858 -2.124,-4.342C-0.227,-9.4 -2.251,-15.002 -2.262,-20.406C-2.271,-25.629 -0.283,-30.831 3.208,-34.717C4.401,-36.045 5.878,-37.648 5.328,-39.347C3.844,-43.93 4.403,-49.133 6.826,-53.297C9.249,-57.46 13.498,-60.515 18.216,-61.488C19.524,-61.758 20.89,-61.873 22.189,-61.56C23.6,-61.22 24.839,-60.403 26.123,-59.724C31.497,-56.886 38.722,-56.704 43.179,-60.838C44.775,-62.316 45.965,-64.276 47.853,-65.36C49.739,-66.443 52.763,-66.044 53.31,-63.936C53.792,-62.075 52.109,-60.45 50.88,-58.97C49.092,-56.82 48.023,-54.085 47.878,-51.293C35.176,-43.818 24.059,-33.664 15.469,-21.689C13.537,-18.996 11.683,-16.085 11.255,-12.798C10.974,-10.649 11.326,-8.471 11.677,-6.333C11.903,-4.944 12.136,-3.539 12.698,-2.249C13.704,0.061 15.99,1.939 18.508,1.864C21.026,1.787 23.366,-0.738 22.749,-3.18C22.091,-5.779 23.099,-8.486 24.198,-10.932C30.583,-25.174 40.656,-37.744 53.161,-47.082C54.117,-47.797 55.358,-48.522 56.43,-47.995C57.144,-47.643 57.512,-46.829 57.65,-46.044C58.178,-43.06 56.236,-40.261 54.434,-37.824C48.432,-29.71 42.745,-21.035 40.491,-11.198C40.478,-11.142 40.452,-11.09 40.416,-11.046" style="fill:none;fill-rule:nonzero;stroke:rgb(158,30,99);stroke-width:3px;"/>
                    </g>
                </g>
            </g>
            <g transform="matrix(4.16667,0,0,4.16667,1424.85,2625.63)">
                <path d="M0,-81.055C-10.189,-79.127 -18.343,-71.041 -23.044,-61.797C-25.915,-56.147 -27.74,-49.925 -28.011,-43.593C-28.122,-40.999 -27.958,-38.327 -26.903,-35.956C-25.846,-33.585 -23.762,-31.551 -21.203,-31.123C-20.757,-42.749 -16.29,-54.202 -8.653,-62.98C-1.017,-71.758 9.751,-77.78 21.247,-79.574C25.564,-80.247 29.696,-82.994 33.972,-82.095C35.748,-81.722 37.424,-80.655 38.286,-79.055C39.148,-77.457 39.066,-75.326 37.885,-73.946C36.318,-72.116 33.565,-72.081 31.158,-71.992C18.269,-71.517 5.729,-65.011 -2.08,-54.747C-9.889,-44.483 -12.814,-30.663 -9.835,-18.116C-9.492,-16.672 -9.076,-15.162 -9.472,-13.733C-10.436,-10.255 -9.311,-6.283 -6.669,-3.825C-5.65,-2.878 -4.012,-2.162 -2.936,-3.043C-2.535,-3.37 -2.306,-3.858 -2.125,-4.342C-0.227,-9.4 -2.251,-15.002 -2.262,-20.406C-2.271,-25.629 -0.283,-30.831 3.208,-34.717C4.401,-36.045 5.878,-37.648 5.328,-39.347C3.844,-43.93 4.402,-49.133 6.826,-53.297C9.249,-57.46 13.498,-60.515 18.216,-61.488C19.524,-61.758 20.89,-61.873 22.189,-61.56C23.6,-61.22 24.839,-60.403 26.123,-59.724C31.497,-56.886 38.722,-56.704 43.179,-60.836C44.775,-62.316 45.965,-64.276 47.853,-65.359C49.739,-66.443 52.763,-66.044 53.31,-63.936C53.792,-62.075 52.109,-60.45 50.879,-58.97C49.092,-56.82 48.023,-54.084 47.878,-51.293C35.176,-43.818 24.059,-33.664 15.469,-21.689C13.537,-18.996 11.683,-16.085 11.255,-12.798C10.974,-10.649 11.326,-8.471 11.677,-6.332C11.903,-4.944 12.136,-3.539 12.698,-2.249C13.704,0.061 15.99,1.939 18.508,1.864C21.026,1.787 23.366,-0.738 22.749,-3.18C22.091,-5.779 23.099,-8.486 24.197,-10.932C30.583,-25.173 40.656,-37.744 53.161,-47.082C54.117,-47.797 55.358,-48.522 56.43,-47.995C57.144,-47.643 57.512,-46.829 57.65,-46.044C58.178,-43.06 56.236,-40.261 54.434,-37.824C48.432,-29.71 42.745,-21.035 40.491,-11.198C40.478,-11.142 40.452,-11.09 40.416,-11.046" style="fill:none;fill-rule:nonzero;stroke:rgb(217,27,91);stroke-width:3px;"/>
            </g>
            <g transform="matrix(0,-4.16667,-4.16667,0,1506.4,2398.16)">
                <path d="M-1.614,-1.615C-2.506,-1.615 -3.229,-0.891 -3.229,-0.001C-3.229,0.891 -2.506,1.614 -1.614,1.614C-0.723,1.614 0,0.891 0,-0.001C0,-0.891 -0.723,-1.615 -1.614,-1.615" style="fill:rgb(96,56,18);fill-rule:nonzero;"/>
            </g>
            <g transform="matrix(0,-4.16667,-4.16667,0,1505.01,2400.62)">
                <path d="M-0.542,-0.543C-0.841,-0.543 -1.085,-0.3 -1.085,-0.001C-1.085,0.299 -0.841,0.542 -0.542,0.542C-0.242,0.542 0.001,0.299 0.001,-0.001C0.001,-0.3 -0.242,-0.543 -0.542,-0.543" style="fill:rgb(254,234,231);fill-rule:nonzero;"/>
            </g>
            <g transform="matrix(0,-4.16667,-4.16667,0,1480,2416.58)">
                <path d="M-1.614,-1.615C-2.506,-1.615 -3.229,-0.891 -3.229,0C-3.229,0.891 -2.506,1.614 -1.614,1.614C-0.723,1.614 0,0.891 0,0C0,-0.891 -0.723,-1.615 -1.614,-1.615" style="fill:rgb(96,56,18);fill-rule:nonzero;"/>
            </g>
            <g transform="matrix(0,-4.16667,-4.16667,0,1478.61,2419.05)">
                <path d="M-0.542,-0.543C-0.841,-0.543 -1.085,-0.3 -1.085,-0.001C-1.085,0.299 -0.841,0.542 -0.542,0.542C-0.242,0.542 0.001,0.299 0.001,-0.001C0.001,-0.3 -0.242,-0.543 -0.542,-0.543" style="fill:rgb(254,234,231);fill-rule:nonzero;"/>
            </g>
            <g transform="matrix(0,-4.16667,-4.16667,0,1505.01,2428.68)">
                <path d="M-1.614,-1.615C-2.506,-1.615 -3.229,-0.893 -3.229,-0.001C-3.229,0.891 -2.506,1.614 -1.614,1.614C-0.722,1.614 0,0.891 0,-0.001C0,-0.893 -0.722,-1.615 -1.614,-1.615" style="fill:rgb(96,56,18);fill-rule:nonzero;"/>
            </g>
            <g transform="matrix(0,-4.16667,-4.16667,0,1503.62,2431.15)">
                <path d="M-0.541,-0.542C-0.841,-0.542 -1.084,-0.3 -1.084,0C-1.084,0.299 -0.841,0.541 -0.541,0.541C-0.242,0.541 0.001,0.299 0.001,0C0.001,-0.3 -0.242,-0.542 -0.541,-0.542" style="fill:rgb(254,234,231);fill-rule:nonzero;"/>
            </g>
            <g transform="matrix(0,-4.16667,-4.16667,0,1485.57,2394.94)">
                <path d="M-1.615,-1.614C-2.507,-1.614 -3.229,-0.89 -3.229,0.001C-3.229,0.893 -2.507,1.615 -1.615,1.615C-0.723,1.615 0,0.893 0,0.001C0,-0.89 -0.723,-1.614 -1.615,-1.614" style="fill:rgb(96,56,18);fill-rule:nonzero;"/>
            </g>
            <g transform="matrix(0,-4.16667,-4.16667,0,1484.18,2397.41)">
                <path d="M-0.543,-0.542C-0.842,-0.542 -1.085,-0.299 -1.085,0.001C-1.085,0.3 -0.842,0.543 -0.543,0.543C-0.243,0.543 0.001,0.3 0.001,0.001C0.001,-0.299 -0.243,-0.542 -0.543,-0.542" style="fill:rgb(254,234,231);fill-rule:nonzero;"/>
            </g>
            <g transform="matrix(0,-4.16667,-4.16667,0,1498.29,2412.32)">
                <path d="M-1.615,-1.615C-2.507,-1.615 -3.23,-0.891 -3.23,0C-3.23,0.892 -2.507,1.615 -1.615,1.615C-0.723,1.615 0,0.892 0,0C0,-0.891 -0.723,-1.615 -1.615,-1.615" style="fill:rgb(96,56,18);fill-rule:nonzero;"/>
            </g>
            <g transform="matrix(0,-4.16667,-4.16667,0,1496.9,2414.78)">
                <path d="M-0.542,-0.542C-0.842,-0.542 -1.084,-0.299 -1.084,0.001C-1.084,0.299 -0.842,0.542 -0.542,0.542C-0.242,0.542 0,0.299 0,0.001C0,-0.299 -0.242,-0.542 -0.542,-0.542" style="fill:rgb(254,234,231);fill-rule:nonzero;"/>
            </g>
            <g transform="matrix(0,-4.16667,-4.16667,0,1519.86,2411.61)">
                <path d="M-1.616,-1.615C-2.508,-1.615 -3.229,-0.891 -3.229,0C-3.229,0.893 -2.508,1.616 -1.616,1.616C-0.723,1.616 -0,0.893 -0,0C-0,-0.891 -0.723,-1.615 -1.616,-1.615" style="fill:rgb(96,56,18);fill-rule:nonzero;"/>
            </g>
            <g transform="matrix(0,-4.16667,-4.16667,0,1518.47,2414.08)">
                <path d="M-0.542,-0.541C-0.841,-0.541 -1.084,-0.299 -1.084,0.001C-1.084,0.3 -0.841,0.542 -0.542,0.542C-0.242,0.542 0.001,0.3 0.001,0.001C0.001,-0.299 -0.242,-0.541 -0.542,-0.541" style="fill:rgb(254,234,231);fill-rule:nonzero;"/>
            </g>
            <g transform="matrix(0,-4.16667,-4.16667,0,1491.56,2451.38)">
                <path d="M-1.615,-1.615C-2.507,-1.615 -3.229,-0.891 -3.229,0C-3.229,0.891 -2.507,1.615 -1.615,1.615C-0.723,1.615 0,0.891 0,0C0,-0.891 -0.723,-1.615 -1.615,-1.615" style="fill:rgb(96,56,18);fill-rule:nonzero;"/>
            </g>
            <g transform="matrix(0,-4.16667,-4.16667,0,1490.17,2453.85)">
                <path d="M-0.542,-0.542C-0.842,-0.542 -1.084,-0.299 -1.084,0C-1.084,0.299 -0.842,0.542 -0.542,0.542C-0.242,0.542 0,0.299 0,0C0,-0.299 -0.242,-0.542 -0.542,-0.542" style="fill:rgb(254,234,231);fill-rule:nonzero;"/>
            </g>
            <g transform="matrix(0,-4.16667,-4.16667,0,1460.78,2431.14)">
                <path d="M-1.615,-1.614C-2.506,-1.614 -3.229,-0.89 -3.229,0C-3.229,0.892 -2.506,1.615 -1.615,1.615C-0.723,1.615 0,0.892 0,0C0,-0.89 -0.723,-1.614 -1.615,-1.614" style="fill:rgb(96,56,18);fill-rule:nonzero;"/>
            </g>
            <g transform="matrix(0,-4.16667,-4.16667,0,1459.39,2433.61)">
                <path d="M-0.543,-0.542C-0.842,-0.542 -1.085,-0.299 -1.085,0C-1.085,0.3 -0.842,0.543 -0.543,0.543C-0.243,0.543 0.001,0.3 0.001,0C0.001,-0.299 -0.243,-0.542 -0.543,-0.542" style="fill:rgb(254,234,231);fill-rule:nonzero;"/>
            </g>
            <g transform="matrix(0,-4.16667,-4.16667,0,1481.92,2433.98)">
                <path d="M-1.616,-1.615C-2.508,-1.615 -3.229,-0.891 -3.229,0C-3.229,0.893 -2.508,1.616 -1.616,1.616C-0.723,1.616 -0,0.893 -0,0C-0,-0.891 -0.723,-1.615 -1.616,-1.615" style="fill:rgb(96,56,18);fill-rule:nonzero;"/>
            </g>
            <g transform="matrix(0,-4.16667,-4.16667,0,1480.53,2436.45)">
                <path d="M-0.542,-0.541C-0.841,-0.541 -1.084,-0.299 -1.084,0.001C-1.084,0.3 -0.841,0.542 -0.542,0.542C-0.242,0.542 0.001,0.3 0.001,0.001C0.001,-0.299 -0.242,-0.541 -0.542,-0.541" style="fill:rgb(254,234,231);fill-rule:nonzero;"/>
            </g>
            <g transform="matrix(0,-4.16667,-4.16667,0,1461.65,2400.62)">
                <path d="M-1.616,-1.615C-2.508,-1.615 -3.229,-0.891 -3.229,0C-3.229,0.893 -2.508,1.616 -1.616,1.616C-0.723,1.616 -0,0.893 -0,0C-0,-0.891 -0.723,-1.615 -1.616,-1.615" style="fill:rgb(96,56,18);fill-rule:nonzero;"/>
            </g>
            <g transform="matrix(0,-4.16667,-4.16667,0,1460.26,2403.08)">
                <path d="M-0.543,-0.542C-0.843,-0.542 -1.085,-0.299 -1.085,0.001C-1.085,0.3 -0.843,0.543 -0.543,0.543C-0.243,0.543 0.001,0.3 0.001,0.001C0.001,-0.299 -0.243,-0.542 -0.543,-0.542" style="fill:rgb(254,234,231);fill-rule:nonzero;"/>
            </g>
            <g transform="matrix(0,-4.16667,-4.16667,0,1527.45,2438.18)">
                <path d="M-1.615,-1.616C-2.507,-1.616 -3.229,-0.891 -3.229,-0C-3.229,0.892 -2.507,1.615 -1.615,1.615C-0.724,1.615 -0,0.892 -0,-0C-0,-0.891 -0.724,-1.616 -1.615,-1.616" style="fill:rgb(96,56,18);fill-rule:nonzero;"/>
            </g>
            <g transform="matrix(0,-4.16667,-4.16667,0,1526.07,2440.65)">
                <path d="M-0.542,-0.541C-0.841,-0.541 -1.084,-0.299 -1.084,0.001C-1.084,0.3 -0.841,0.542 -0.542,0.542C-0.242,0.542 0.001,0.3 0.001,0.001C0.001,-0.299 -0.242,-0.541 -0.542,-0.541" style="fill:rgb(254,234,231);fill-rule:nonzero;"/>
            </g>
            <g transform="matrix(0,-4.16667,-4.16667,0,1540.91,2415.22)">
                <path d="M-1.615,-1.615C-2.507,-1.615 -3.229,-0.891 -3.229,0C-3.229,0.893 -2.507,1.615 -1.615,1.615C-0.723,1.615 0,0.893 0,0C0,-0.891 -0.723,-1.615 -1.615,-1.615" style="fill:rgb(96,56,18);fill-rule:nonzero;"/>
            </g>
            <g transform="matrix(0,-4.16667,-4.16667,0,1539.52,2417.69)">
                <path d="M-0.542,-0.542C-0.842,-0.542 -1.084,-0.299 -1.084,0.001C-1.084,0.299 -0.842,0.542 -0.542,0.542C-0.242,0.542 0,0.299 0,0.001C0,-0.299 -0.242,-0.542 -0.542,-0.542" style="fill:rgb(254,234,231);fill-rule:nonzero;"/>
            </g>
            <g transform="matrix(0,-4.16667,-4.16667,0,1525.2,2391.43)">
                <path d="M-1.615,-1.614C-2.507,-1.614 -3.229,-0.89 -3.229,0C-3.229,0.892 -2.507,1.615 -1.615,1.615C-0.723,1.615 0,0.892 0,0C0,-0.89 -0.723,-1.614 -1.615,-1.614" style="fill:rgb(96,56,18);fill-rule:nonzero;"/>
            </g>
            <g transform="matrix(0,-4.16667,-4.16667,0,1523.81,2393.89)">
                <path d="M-0.543,-0.542C-0.843,-0.542 -1.085,-0.3 -1.085,0C-1.085,0.3 -0.843,0.543 -0.543,0.543C-0.243,0.543 0.001,0.3 0.001,0C0.001,-0.3 -0.243,-0.542 -0.543,-0.542" style="fill:rgb(254,234,231);fill-rule:nonzero;"/>
            </g>
            <g transform="matrix(0,-4.16667,-4.16667,0,1496.89,2379.06)">
                <path d="M-1.614,-1.615C-2.506,-1.615 -3.229,-0.891 -3.229,0C-3.229,0.892 -2.506,1.614 -1.614,1.614C-0.722,1.614 0,0.892 0,0C0,-0.891 -0.722,-1.615 -1.614,-1.615" style="fill:rgb(96,56,18);fill-rule:nonzero;"/>
            </g>
            <g transform="matrix(0,-4.16667,-4.16667,0,1495.5,2381.52)">
                <path d="M-0.542,-0.543C-0.841,-0.543 -1.085,-0.3 -1.085,0C-1.085,0.299 -0.841,0.542 -0.542,0.542C-0.242,0.542 0.001,0.299 0.001,0C0.001,-0.3 -0.242,-0.543 -0.542,-0.543" style="fill:rgb(254,234,231);fill-rule:nonzero;"/>
            </g>
            <g transform="matrix(0,-4.16667,-4.16667,0,1513.13,2452.6)">
                <path d="M-1.614,-1.615C-2.506,-1.615 -3.229,-0.891 -3.229,0C-3.229,0.892 -2.506,1.614 -1.614,1.614C-0.722,1.614 0,0.892 0,0C0,-0.891 -0.722,-1.615 -1.614,-1.615" style="fill:rgb(96,56,18);fill-rule:nonzero;"/>
            </g>
            <g transform="matrix(0,-4.16667,-4.16667,0,1511.74,2455.07)">
                <path d="M-0.542,-0.543C-0.841,-0.543 -1.085,-0.3 -1.085,0C-1.085,0.299 -0.841,0.542 -0.542,0.542C-0.242,0.542 0.001,0.299 0.001,0C0.001,-0.3 -0.242,-0.543 -0.542,-0.543" style="fill:rgb(254,234,231);fill-rule:nonzero;"/>
            </g>
            <g transform="matrix(0,-4.16667,-4.16667,0,1470.79,2468.35)">
                <path d="M-1.615,-1.614C-2.506,-1.614 -3.229,-0.89 -3.229,0.001C-3.229,0.892 -2.506,1.615 -1.615,1.615C-0.723,1.615 0,0.892 0,0.001C0,-0.89 -0.723,-1.614 -1.615,-1.614" style="fill:rgb(96,56,18);fill-rule:nonzero;"/>
            </g>
            <g transform="matrix(0,-4.16667,-4.16667,0,1469.4,2470.81)">
                <path d="M-0.543,-0.542C-0.842,-0.542 -1.085,-0.299 -1.085,0C-1.085,0.3 -0.842,0.543 -0.543,0.543C-0.243,0.543 0.001,0.3 0.001,0C0.001,-0.299 -0.243,-0.542 -0.543,-0.542" style="fill:rgb(254,234,231);fill-rule:nonzero;"/>
            </g>
            <g transform="matrix(0,-4.16667,-4.16667,0,1470.79,2448.34)">
                <path d="M-1.615,-1.615C-2.507,-1.615 -3.229,-0.891 -3.229,0C-3.229,0.891 -2.507,1.615 -1.615,1.615C-0.723,1.615 0,0.891 0,0C0,-0.891 -0.723,-1.615 -1.615,-1.615" style="fill:rgb(96,56,18);fill-rule:nonzero;"/>
            </g>
            <g transform="matrix(0,-4.16667,-4.16667,0,1469.4,2450.81)">
                <path d="M-0.542,-0.542C-0.842,-0.542 -1.084,-0.299 -1.084,0C-1.084,0.299 -0.842,0.542 -0.542,0.542C-0.242,0.542 0,0.299 0,0C0,-0.299 -0.242,-0.542 -0.542,-0.542" style="fill:rgb(254,234,231);fill-rule:nonzero;"/>
            </g>
            <g transform="matrix(0,-4.16667,-4.16667,0,1438.93,2438.19)">
                <path d="M-1.614,-1.615C-2.506,-1.615 -3.229,-0.891 -3.229,0C-3.229,0.891 -2.506,1.614 -1.614,1.614C-0.723,1.614 0,0.891 0,0C0,-0.891 -0.723,-1.615 -1.614,-1.615" style="fill:rgb(96,56,18);fill-rule:nonzero;"/>
            </g>
            <g transform="matrix(0,-4.16667,-4.16667,0,1437.54,2440.65)">
                <path d="M-0.543,-0.542C-0.842,-0.542 -1.085,-0.299 -1.085,0C-1.085,0.3 -0.842,0.543 -0.543,0.543C-0.243,0.543 0.001,0.3 0.001,0C0.001,-0.299 -0.243,-0.542 -0.543,-0.542" style="fill:rgb(254,234,231);fill-rule:nonzero;"/>
            </g>
            <g transform="matrix(0,-4.16667,-4.16667,0,1450.4,2418.34)">
                <path d="M-1.614,-1.615C-2.506,-1.615 -3.229,-0.892 -3.229,-0.001C-3.229,0.891 -2.506,1.614 -1.614,1.614C-0.723,1.614 0,0.891 0,-0.001C0,-0.892 -0.723,-1.615 -1.614,-1.615" style="fill:rgb(96,56,18);fill-rule:nonzero;"/>
            </g>
            <g transform="matrix(0,-4.16667,-4.16667,0,1449.01,2420.81)">
                <path d="M-0.541,-0.542C-0.841,-0.542 -1.084,-0.3 -1.084,0C-1.084,0.299 -0.841,0.541 -0.541,0.541C-0.242,0.541 0.001,0.299 0.001,0C0.001,-0.3 -0.242,-0.542 -0.541,-0.542" style="fill:rgb(254,234,231);fill-rule:nonzero;"/>
            </g>
            <g transform="matrix(4.16667,0,0,4.16667,1486.72,2444.92)">
                <path d="M0,-0.001L39.867,-27.455C45.427,-19.381 48.405,-9.805 48.405,-0.001C48.405,26.554 26.554,48.404 0,48.404C-26.554,48.404 -48.405,26.554 -48.405,-0.001C-48.405,-26.45 -26.727,-48.253 -0.278,-48.405L0,-0.001Z" style="fill:white;fill-rule:nonzero;"/>
            </g>
            <g transform="matrix(0,4.16667,4.16667,0,1689.54,2443.48)">
                <path d="M-48.406,-48.406L48.406,-48.406" style="fill:none;fill-rule:nonzero;stroke:rgb(158,30,99);stroke-width:1.08px;stroke-linecap:butt;stroke-linejoin:miter;"/>
            </g>
            <g transform="matrix(3.40507,2.40138,2.40138,-3.40507,1420.16,2253.53)">
                <path d="M-8.846,-27.893L87.947,-27.893" style="fill:none;fill-rule:nonzero;stroke:rgb(158,30,99);stroke-width:1.08px;stroke-linecap:butt;stroke-linejoin:miter;"/>
            </g>
            <g transform="matrix(-3.43677,2.35579,2.35579,3.43677,1413.33,2633.18)">
                <path d="M-88.482,-27.415L8.494,-27.415" style="fill:none;fill-rule:nonzero;stroke:rgb(158,30,99);stroke-width:1.08px;stroke-linecap:butt;stroke-linejoin:miter;"/>
            </g>
            <g transform="matrix(0,-4.16667,-4.16667,0,1485.57,2243.48)">
                <ellipse cx="-48.406" cy="0" rx="48.405" ry="48.406" style="fill:none;stroke:rgb(35,31,32);stroke-width:1px;stroke-linecap:butt;stroke-linejoin:miter;"/>
            </g>
        </g>
    </g>
    <defs>
        <radialGradient id="_Radial1" cx="0" cy="0" r="1" gradientUnits="userSpaceOnUse" gradientTransform="matrix(0,1,1,0,1.43082e-05,-1.43082e-05)"><stop offset="0" style="stop-color:rgb(251,209,208);stop-opacity:1"/><stop offset="1" style="stop-color:rgb(243,129,141);stop-opacity:1"/><stop offset="1" style="stop-color:rgb(243,129,141);stop-opacity:1"/></radialGradient>
    </defs>
</svg>
