<?xml version="1.0" encoding="UTF-8" standalone="no"?>
<!DOCTYPE svg PUBLIC "-//W3C//DTD SVG 1.1//EN" "http://www.w3.org/Graphics/SVG/1.1/DTD/svg11.dtd">
<svg width="100%" height="100%" viewBox="0 0 455 454" version="1.1" xmlns="http://www.w3.org/2000/svg" xmlns:xlink="http://www.w3.org/1999/xlink" xml:space="preserve" xmlns:serif="http://www.serif.com/" style="fill-rule:evenodd;clip-rule:evenodd;stroke-linecap:round;stroke-linejoin:round;stroke-miterlimit:10;">
    <g transform="matrix(1,0,0,1,-1679,-1146)">
        <g transform="matrix(1,0,0,1,-116.139,-1064.13)">
            <g transform="matrix(0,201.69,201.69,0,2022.61,2440.11)">
                <ellipse cx="0" cy="-0" rx="1" ry="1" style="fill:url(#_Radial1);"/>
            </g>
            <g transform="matrix(4.16667,0,0,4.16667,0,0)">
                <g opacity="0.2">
                    <g transform="matrix(0,-1,-1,0,490.149,550.341)">
                        <path d="M-36.72,-36.719C-57.368,-36.719 -74.106,-20.279 -74.106,0.001C-74.106,20.28 -57.368,36.72 -36.72,36.72C-16.072,36.72 0.667,20.28 0.667,0.001C0.667,-20.279 -16.072,-36.719 -36.72,-36.719" style="fill:rgb(158,30,99);fill-rule:nonzero;"/>
                    </g>
                </g>
            </g>
            <g transform="matrix(0,-4.16667,-4.16667,0,2022.6,2290.56)">
                <path d="M-35.893,-35.894C-55.717,-35.894 -71.787,-19.825 -71.787,-0.001C-71.787,19.823 -55.717,35.893 -35.893,35.893C-16.069,35.893 -0,19.823 -0,-0.001C-0,-19.825 -16.069,-35.894 -35.893,-35.894" style="fill:rgb(252,213,200);fill-rule:nonzero;"/>
            </g>
            <g transform="matrix(4.16667,0,0,4.16667,1942.41,2510.01)">
                <path d="M0,-43.264C-3.99,-38.857 -7.013,-33.576 -8.807,-27.909C-10.595,-22.267 -11.157,-16.201 -10.112,-10.359C-9.074,-4.549 -6.446,1.065 -1.786,4.832C0.393,6.594 2.934,7.888 5.642,8.607C7.913,9.208 10.264,9.405 12.6,9.273C11.22,8.846 9.98,8.018 8.898,7.078C7.609,5.957 6.48,4.656 5.478,3.274C4.565,2.015 3.737,0.679 3.069,-0.729C2.393,-2.149 1.937,-3.678 1.59,-5.21C0.747,-8.922 0.607,-12.792 0.977,-16.572C1.35,-20.384 2.245,-24.182 3.773,-27.701C5.19,-30.964 7.186,-33.937 9.83,-36.332C12.445,-38.702 15.568,-40.477 18.861,-41.72C22.23,-42.992 25.801,-43.729 29.391,-43.982C33.041,-44.241 36.76,-44.027 40.322,-43.162C41.972,-42.761 43.604,-42.23 45.184,-41.574C38.649,-48.406 29.449,-52.669 19.248,-52.669C16.522,-52.669 13.873,-52.355 11.322,-51.78C7.037,-49.727 3.189,-46.785 0,-43.264" style="fill:rgb(246,153,138);fill-rule:nonzero;"/>
            </g>
            <g transform="matrix(4.16667,0,0,4.16667,2064.73,2498.43)">
                <path d="M0,-28.237C-2.587,-29.819 -5.697,-30.301 -8.666,-29.74C-11.499,-29.205 -14.015,-27.583 -15.698,-25.245C-17.398,-22.882 -18.16,-20.014 -18.216,-17.128C-18.261,-14.881 -17.935,-12.313 -16.717,-10.334C-16.785,-11.856 -16.61,-13.39 -16.275,-14.874C-15.863,-16.703 -15.204,-18.488 -14.279,-20.123C-13.424,-21.631 -12.298,-23.061 -10.827,-24.01C-9.445,-24.9 -7.811,-25.266 -6.188,-24.966C-4.361,-24.63 -2.676,-23.632 -1.644,-22.069C-0.648,-20.563 -0.315,-18.716 -0.36,-16.933C-0.408,-14.966 -0.895,-13 -1.667,-11.192C-2.388,-9.501 -3.374,-7.879 -4.709,-6.602C-6.571,-4.817 -9.178,-4.001 -11.721,-3.975C-14.517,-3.946 -17.234,-4.703 -19.966,-5.2C-19.87,-4.721 -19.733,-4.253 -19.527,-3.809C-18.452,-1.494 -16.145,0.038 -13.814,0.887C-11.544,1.714 -8.848,2.064 -6.514,1.278C-3.538,0.275 -0.926,-1.782 1.089,-4.152C3.169,-6.599 4.733,-9.502 5.575,-12.602C6.371,-15.533 6.518,-18.654 5.46,-21.539C4.446,-24.299 2.512,-26.701 0,-28.237" style="fill:rgb(246,153,138);fill-rule:nonzero;"/>
            </g>
            <g transform="matrix(4.16667,0,0,4.16667,2098.83,2415.04)">
                <path d="M0,-16.912C2.758,-16.064 5.412,-14.871 7.765,-13.19C11.867,-10.258 14.719,-6.036 16.523,-1.372C16.747,-0.794 16.953,-0.21 17.149,0.377C16.172,-5.805 13.618,-11.457 9.911,-16.164C8.657,-16.542 7.371,-16.82 6.078,-16.992C4.077,-17.259 1.997,-17.289 0,-16.912" style="fill:rgb(246,153,138);fill-rule:nonzero;"/>
            </g>
            <g transform="matrix(4.16667,0,0,4.16667,2094.83,2459.99)">
                <path d="M0,21.595C2.22,18.723 4.115,15.591 5.639,12.297C6.351,10.752 6.984,9.17 7.514,7.553C8.238,5.338 8.614,3.028 8.741,0.704C8.928,-2.721 8.587,-6.128 8.208,-9.529C8.14,-4.86 7.766,-0.128 5.861,4.184C4.779,6.629 3.198,8.855 1.499,10.909C-0.249,13.019 -2.188,14.97 -4.239,16.786C-8.143,20.242 -12.426,23.297 -17.432,24.917C-19.86,25.702 -22.401,26.148 -24.955,26.166C-26.254,26.176 -27.554,26.081 -28.837,25.876C-30.284,25.645 -31.717,25.413 -33.14,25.061C-34.529,24.716 -35.9,24.3 -37.249,23.822C-38.442,23.402 -39.639,22.94 -40.784,22.391C-34.492,27.828 -26.299,31.124 -17.333,31.124C-14.501,31.124 -11.75,30.785 -9.106,30.165C-8.656,29.877 -8.212,29.581 -7.78,29.271C-4.813,27.131 -2.231,24.485 0,21.595" style="fill:rgb(246,153,138);fill-rule:nonzero;"/>
            </g>
            <g transform="matrix(4.16667,0,0,4.16667,1888.1,2454.62)">
                <path d="M0,8.709C1.97,13.717 5.276,18.149 9.287,21.738C6.845,18.997 5.045,15.741 3.553,12.387C1.769,8.372 0.387,4.129 0.048,-0.251C-0.298,-4.718 0.618,-8.846 2.076,-13.029C-4.289,-8.307 -2.467,2.437 0,8.709" style="fill:rgb(254,234,231);fill-rule:nonzero;"/>
            </g>
            <g transform="matrix(4.16667,0,0,4.16667,2022.18,2379.92)">
                <path d="M0,-2.503C5.446,-3.799 11.559,-1.645 14.989,2.78C15.448,1.725 15.189,0.461 14.562,-0.503C13.935,-1.468 12.986,-2.175 12.006,-2.777C9.534,-4.296 6.657,-5.283 3.761,-5.108C1.018,-4.943 -2.24,-3.523 -3.5,-0.942C-2.361,-1.58 -1.306,-2.191 0,-2.503" style="fill:rgb(254,234,231);fill-rule:nonzero;"/>
            </g>
            <g transform="matrix(4.16667,0,0,4.16667,2149.34,2532.24)">
                <path d="M0,-27.295C0.482,-22.619 0.769,-17.895 0.245,-13.224C-0.278,-8.552 -1.645,-3.912 -4.251,0C-1.04,-3.182 1.645,-7.177 2.391,-11.665C2.835,-14.339 2.849,-17.083 2.435,-19.762C2.227,-21.101 1.916,-22.423 1.495,-23.712C1.142,-24.796 0.112,-26.207 0,-27.295" style="fill:rgb(254,234,231);fill-rule:nonzero;"/>
            </g>
            <g transform="matrix(4.16667,0,0,4.16667,2095.05,2427.74)">
                <path d="M0,17.673C1.564,15.991 3.093,14.237 4.139,12.194C5.262,9.998 5.79,7.542 6.073,5.092C6.67,-0.076 6.111,-5.653 3.017,-9.835C3.996,-6.175 4.983,-2.408 4.536,1.355C4.139,4.69 2.635,7.79 0.953,10.699C-2.643,16.918 -7.162,22.602 -12.409,27.508C-11.605,26.756 -9.55,26.419 -8.518,25.769C-7.667,25.23 -6.937,24.631 -6.209,23.944C-4.073,21.933 -1.999,19.819 0,17.673" style="fill:rgb(254,234,231);fill-rule:nonzero;"/>
            </g>
            <g transform="matrix(4.16667,0,0,4.16667,1975.07,2421.35)">
                <path d="M0,10.405C3.95,14.047 10.66,14.437 14.714,10.912C17.979,8.072 19.117,3.452 19.132,-0.876C18.011,2.95 16.414,7.054 12.914,8.963C11.073,9.966 8.919,10.222 6.821,10.243C5.185,10.259 3.482,10.122 2.066,9.303C-0.26,7.957 -1.236,5.159 -2.035,2.593C-2.726,0.371 -3.161,-1.731 -3.031,-4.032C-4.969,0.763 -3.84,6.865 0,10.405" style="fill:rgb(254,234,231);fill-rule:nonzero;"/>
            </g>
            <g transform="matrix(4.16667,0,0,4.16667,0,0)">
                <g opacity="0.3">
                    <g transform="matrix(1,0,0,1,472.396,629.846)">
                        <path d="M0,-81.056C-10.189,-79.127 -18.344,-71.041 -23.044,-61.798C-25.916,-56.147 -27.74,-49.925 -28.011,-43.593C-28.123,-41 -27.959,-38.328 -26.903,-35.956C-25.846,-33.585 -23.762,-31.552 -21.203,-31.123C-20.758,-42.749 -16.291,-54.203 -8.654,-62.981C-1.017,-71.758 9.751,-77.781 21.247,-79.575C25.563,-80.248 29.696,-82.995 33.971,-82.096C35.747,-81.723 37.424,-80.655 38.286,-79.056C39.148,-77.458 39.066,-75.326 37.885,-73.947C36.318,-72.116 33.565,-72.081 31.157,-71.992C18.268,-71.518 5.729,-65.012 -2.08,-54.748C-9.889,-44.483 -12.815,-30.663 -9.835,-18.116C-9.492,-16.673 -9.076,-15.163 -9.472,-13.734C-10.436,-10.256 -9.311,-6.284 -6.669,-3.825C-5.65,-2.879 -4.013,-2.162 -2.936,-3.043C-2.536,-3.371 -2.307,-3.859 -2.125,-4.343C-0.227,-9.401 -2.252,-15.003 -2.262,-20.406C-2.271,-25.629 -0.284,-30.832 3.208,-34.718C4.4,-36.045 5.878,-37.649 5.327,-39.347C3.844,-43.93 4.402,-49.134 6.825,-53.297C9.249,-57.46 13.498,-60.516 18.216,-61.489C19.523,-61.758 20.89,-61.874 22.189,-61.561C23.6,-61.221 24.839,-60.403 26.123,-59.725C31.497,-56.886 38.722,-56.704 43.178,-60.837C44.775,-62.317 45.965,-64.276 47.853,-65.36C49.739,-66.444 52.762,-66.044 53.31,-63.936C53.792,-62.075 52.109,-60.45 50.878,-58.97C49.092,-56.821 48.023,-54.085 47.877,-51.293C35.175,-43.819 24.059,-33.664 15.468,-21.69C13.537,-18.997 11.682,-16.085 11.255,-12.799C10.974,-10.648 11.326,-8.472 11.677,-6.333C11.902,-4.944 12.135,-3.539 12.697,-2.25C13.704,0.061 15.99,1.939 18.508,1.863C21.026,1.786 23.366,-0.738 22.749,-3.18C22.091,-5.78 23.099,-8.486 24.197,-10.932C30.583,-25.174 40.655,-37.744 53.161,-47.083C54.117,-47.797 55.357,-48.522 56.428,-47.996C57.144,-47.643 57.511,-46.829 57.65,-46.045C58.178,-43.061 56.235,-40.262 54.434,-37.825C48.432,-29.711 42.745,-21.036 40.49,-11.198C40.477,-11.143 40.451,-11.091 40.416,-11.047" style="fill:none;fill-rule:nonzero;stroke:rgb(158,30,99);stroke-width:3px;"/>
                    </g>
                </g>
            </g>
            <g transform="matrix(4.16667,0,0,4.16667,1960.73,2620.83)">
                <path d="M0,-81.056C-10.188,-79.127 -18.343,-71.041 -23.042,-61.798C-25.915,-56.147 -27.739,-49.925 -28.01,-43.593C-28.122,-41 -27.958,-38.328 -26.902,-35.956C-25.846,-33.585 -23.761,-31.552 -21.202,-31.123C-20.757,-42.749 -16.29,-54.203 -8.653,-62.981C-1.016,-71.758 9.752,-77.781 21.248,-79.574C25.564,-80.248 29.697,-82.995 33.972,-82.095C35.748,-81.722 37.425,-80.655 38.287,-79.056C39.149,-77.458 39.067,-75.326 37.886,-73.947C36.319,-72.116 33.566,-72.081 31.158,-71.993C18.269,-71.518 5.73,-65.011 -2.078,-54.748C-9.888,-44.483 -12.814,-30.663 -9.834,-18.116C-9.491,-16.673 -9.074,-15.163 -9.471,-13.733C-10.435,-10.256 -9.31,-6.284 -6.668,-3.825C-5.649,-2.879 -4.012,-2.162 -2.936,-3.043C-2.535,-3.371 -2.306,-3.859 -2.124,-4.343C-0.227,-9.4 -2.251,-15.002 -2.261,-20.406C-2.27,-25.629 -0.283,-30.832 3.209,-34.717C4.401,-36.045 5.879,-37.649 5.328,-39.347C3.844,-43.93 4.403,-49.134 6.826,-53.297C9.25,-57.46 13.498,-60.516 18.216,-61.489C19.524,-61.758 20.891,-61.874 22.189,-61.561C23.601,-61.221 24.84,-60.403 26.124,-59.725C31.498,-56.886 38.723,-56.704 43.179,-60.838C44.776,-62.317 45.966,-64.276 47.854,-65.36C49.74,-66.444 52.763,-66.044 53.311,-63.936C53.793,-62.075 52.11,-60.45 50.88,-58.97C49.093,-56.821 48.024,-54.085 47.878,-51.293C35.176,-43.819 24.06,-33.664 15.469,-21.689C13.537,-18.997 11.683,-16.085 11.256,-12.798C10.975,-10.649 11.327,-8.472 11.677,-6.333C11.904,-4.944 12.136,-3.539 12.698,-2.25C13.705,0.061 15.991,1.939 18.508,1.863C21.027,1.786 23.366,-0.738 22.75,-3.18C22.092,-5.78 23.1,-8.486 24.198,-10.932C30.584,-25.174 40.656,-37.744 53.162,-47.083C54.118,-47.797 55.358,-48.522 56.43,-47.996C57.145,-47.643 57.512,-46.829 57.65,-46.045C58.179,-43.061 56.236,-40.261 54.435,-37.825C48.433,-29.711 42.746,-21.036 40.491,-11.198C40.478,-11.143 40.452,-11.09 40.417,-11.047" style="fill:none;fill-rule:nonzero;stroke:rgb(217,27,91);stroke-width:3px;"/>
            </g>
            <g transform="matrix(0,-4.16667,-4.16667,0,2042.29,2393.36)">
                <path d="M-1.615,-1.615C-2.507,-1.615 -3.229,-0.891 -3.229,0C-3.229,0.893 -2.507,1.615 -1.615,1.615C-0.723,1.615 0,0.893 0,0C0,-0.891 -0.723,-1.615 -1.615,-1.615" style="fill:rgb(96,56,18);fill-rule:nonzero;"/>
            </g>
            <g transform="matrix(0,-4.16667,-4.16667,0,2040.9,2395.82)">
                <path d="M-0.542,-0.542C-0.842,-0.542 -1.084,-0.299 -1.084,0.001C-1.084,0.299 -0.842,0.542 -0.542,0.542C-0.242,0.542 0,0.299 0,0.001C0,-0.299 -0.242,-0.542 -0.542,-0.542" style="fill:rgb(254,234,231);fill-rule:nonzero;"/>
            </g>
            <g transform="matrix(0,-4.16667,-4.16667,0,2015.88,2411.78)">
                <path d="M-1.615,-1.615C-2.507,-1.615 -3.23,-0.891 -3.23,0C-3.23,0.892 -2.507,1.615 -1.615,1.615C-0.723,1.615 0,0.892 0,0C0,-0.891 -0.723,-1.615 -1.615,-1.615" style="fill:rgb(96,56,18);fill-rule:nonzero;"/>
            </g>
            <g transform="matrix(0,-4.16667,-4.16667,0,2014.49,2414.25)">
                <path d="M-0.542,-0.542C-0.842,-0.542 -1.084,-0.299 -1.084,0.001C-1.084,0.3 -0.842,0.542 -0.542,0.542C-0.242,0.542 0,0.3 0,0.001C0,-0.299 -0.242,-0.542 -0.542,-0.542" style="fill:rgb(254,234,231);fill-rule:nonzero;"/>
            </g>
            <g transform="matrix(0,-4.16667,-4.16667,0,2040.9,2423.88)">
                <path d="M-1.615,-1.614C-2.507,-1.614 -3.229,-0.89 -3.229,0.001C-3.229,0.893 -2.507,1.615 -1.615,1.615C-0.723,1.615 0,0.893 0,0.001C0,-0.89 -0.723,-1.614 -1.615,-1.614" style="fill:rgb(96,56,18);fill-rule:nonzero;"/>
            </g>
            <g transform="matrix(0,-4.16667,-4.16667,0,2039.5,2426.34)">
                <path d="M-0.542,-0.542C-0.842,-0.542 -1.084,-0.299 -1.084,0.001C-1.084,0.299 -0.842,0.542 -0.542,0.542C-0.242,0.542 0,0.299 0,0.001C0,-0.299 -0.242,-0.542 -0.542,-0.542" style="fill:rgb(254,234,231);fill-rule:nonzero;"/>
            </g>
            <g transform="matrix(0,-4.16667,-4.16667,0,2021.45,2390.15)">
                <path d="M-1.614,-1.615C-2.506,-1.615 -3.229,-0.893 -3.229,-0.001C-3.229,0.891 -2.506,1.614 -1.614,1.614C-0.722,1.614 0,0.891 0,-0.001C0,-0.893 -0.722,-1.615 -1.614,-1.615" style="fill:rgb(96,56,18);fill-rule:nonzero;"/>
            </g>
            <g transform="matrix(0,-4.16667,-4.16667,0,2020.06,2392.61)">
                <path d="M-0.541,-0.542C-0.841,-0.542 -1.084,-0.3 -1.084,0C-1.084,0.299 -0.841,0.541 -0.541,0.541C-0.242,0.541 0.001,0.299 0.001,0C0.001,-0.3 -0.242,-0.542 -0.541,-0.542" style="fill:rgb(254,234,231);fill-rule:nonzero;"/>
            </g>
            <g transform="matrix(0,-4.16667,-4.16667,0,2034.17,2407.52)">
                <path d="M-1.615,-1.614C-2.507,-1.614 -3.229,-0.892 -3.229,0C-3.229,0.892 -2.507,1.615 -1.615,1.615C-0.723,1.615 0,0.892 0,0C0,-0.892 -0.723,-1.614 -1.615,-1.614" style="fill:rgb(96,56,18);fill-rule:nonzero;"/>
            </g>
            <g transform="matrix(0,-4.16667,-4.16667,0,2032.78,2409.98)">
                <path d="M-0.543,-0.542C-0.842,-0.542 -1.085,-0.3 -1.085,0C-1.085,0.3 -0.842,0.543 -0.543,0.543C-0.243,0.543 0.001,0.3 0.001,0C0.001,-0.3 -0.243,-0.542 -0.543,-0.542" style="fill:rgb(254,234,231);fill-rule:nonzero;"/>
            </g>
            <g transform="matrix(0,-4.16667,-4.16667,0,2055.74,2406.81)">
                <path d="M-1.614,-1.615C-2.506,-1.615 -3.229,-0.891 -3.229,0C-3.229,0.891 -2.506,1.614 -1.614,1.614C-0.722,1.614 0,0.891 0,0C0,-0.891 -0.722,-1.615 -1.614,-1.615" style="fill:rgb(96,56,18);fill-rule:nonzero;"/>
            </g>
            <g transform="matrix(0,-4.16667,-4.16667,0,2054.35,2409.28)">
                <path d="M-0.542,-0.543C-0.841,-0.543 -1.085,-0.3 -1.085,-0.001C-1.085,0.299 -0.841,0.542 -0.542,0.542C-0.242,0.542 0.001,0.299 0.001,-0.001C0.001,-0.3 -0.242,-0.543 -0.542,-0.543" style="fill:rgb(254,234,231);fill-rule:nonzero;"/>
            </g>
            <g transform="matrix(0,-4.16667,-4.16667,0,2027.44,2446.58)">
                <path d="M-1.616,-1.615C-2.507,-1.615 -3.229,-0.891 -3.229,0C-3.229,0.893 -2.507,1.616 -1.616,1.616C-0.723,1.616 -0,0.893 -0,0C-0,-0.891 -0.723,-1.615 -1.616,-1.615" style="fill:rgb(96,56,18);fill-rule:nonzero;"/>
            </g>
            <g transform="matrix(0,-4.16667,-4.16667,0,2026.05,2449.05)">
                <path d="M-0.542,-0.541C-0.841,-0.541 -1.084,-0.299 -1.084,0.001C-1.084,0.3 -0.841,0.542 -0.542,0.542C-0.242,0.542 0.001,0.3 0.001,0.001C0.001,-0.299 -0.242,-0.541 -0.542,-0.541" style="fill:rgb(254,234,231);fill-rule:nonzero;"/>
            </g>
            <g transform="matrix(0,-4.16667,-4.16667,0,1996.66,2426.35)">
                <path d="M-1.614,-1.615C-2.506,-1.615 -3.229,-0.891 -3.229,0C-3.229,0.892 -2.506,1.614 -1.614,1.614C-0.722,1.614 0,0.892 0,0C0,-0.891 -0.722,-1.615 -1.614,-1.615" style="fill:rgb(96,56,18);fill-rule:nonzero;"/>
            </g>
            <g transform="matrix(0,-4.16667,-4.16667,0,1995.27,2428.81)">
                <path d="M-0.542,-0.543C-0.841,-0.543 -1.085,-0.3 -1.085,0C-1.085,0.299 -0.841,0.542 -0.542,0.542C-0.242,0.542 0.001,0.299 0.001,0C0.001,-0.3 -0.242,-0.543 -0.542,-0.543" style="fill:rgb(254,234,231);fill-rule:nonzero;"/>
            </g>
            <g transform="matrix(0,-4.16667,-4.16667,0,2017.8,2429.18)">
                <path d="M-1.614,-1.615C-2.506,-1.615 -3.229,-0.891 -3.229,-0.001C-3.229,0.891 -2.506,1.614 -1.614,1.614C-0.722,1.614 0,0.891 0,-0.001C0,-0.891 -0.722,-1.615 -1.614,-1.615" style="fill:rgb(96,56,18);fill-rule:nonzero;"/>
            </g>
            <g transform="matrix(0,-4.16667,-4.16667,0,2016.41,2431.65)">
                <path d="M-0.542,-0.543C-0.841,-0.543 -1.085,-0.3 -1.085,-0.001C-1.085,0.299 -0.841,0.542 -0.542,0.542C-0.242,0.542 0.001,0.299 0.001,-0.001C0.001,-0.3 -0.242,-0.543 -0.542,-0.543" style="fill:rgb(254,234,231);fill-rule:nonzero;"/>
            </g>
            <g transform="matrix(0,-4.16667,-4.16667,0,1997.53,2395.82)">
                <path d="M-1.614,-1.615C-2.506,-1.615 -3.229,-0.891 -3.229,-0.001C-3.229,0.891 -2.506,1.614 -1.614,1.614C-0.722,1.614 0,0.891 0,-0.001C0,-0.891 -0.722,-1.615 -1.614,-1.615" style="fill:rgb(96,56,18);fill-rule:nonzero;"/>
            </g>
            <g transform="matrix(0,-4.16667,-4.16667,0,1996.14,2398.29)">
                <path d="M-0.542,-0.543C-0.841,-0.543 -1.085,-0.3 -1.085,-0.001C-1.085,0.299 -0.841,0.542 -0.542,0.542C-0.242,0.542 0.001,0.299 0.001,-0.001C0.001,-0.3 -0.242,-0.543 -0.542,-0.543" style="fill:rgb(254,234,231);fill-rule:nonzero;"/>
            </g>
            <g transform="matrix(0,-4.16667,-4.16667,0,2063.34,2433.39)">
                <path d="M-1.615,-1.615C-2.507,-1.615 -3.229,-0.891 -3.229,-0C-3.229,0.891 -2.507,1.615 -1.615,1.615C-0.723,1.615 0,0.891 0,-0C0,-0.891 -0.723,-1.615 -1.615,-1.615" style="fill:rgb(96,56,18);fill-rule:nonzero;"/>
            </g>
            <g transform="matrix(0,-4.16667,-4.16667,0,2061.95,2435.85)">
                <path d="M-0.542,-0.542C-0.842,-0.542 -1.084,-0.299 -1.084,0C-1.084,0.299 -0.842,0.542 -0.542,0.542C-0.242,0.542 0,0.299 0,0C0,-0.299 -0.242,-0.542 -0.542,-0.542" style="fill:rgb(254,234,231);fill-rule:nonzero;"/>
            </g>
            <g transform="matrix(0,-4.16667,-4.16667,0,2076.79,2410.42)">
                <path d="M-1.616,-1.615C-2.507,-1.615 -3.229,-0.891 -3.229,0C-3.229,0.893 -2.507,1.616 -1.616,1.616C-0.723,1.616 -0,0.893 -0,0C-0,-0.891 -0.723,-1.615 -1.616,-1.615" style="fill:rgb(96,56,18);fill-rule:nonzero;"/>
            </g>
            <g transform="matrix(0,-4.16667,-4.16667,0,2075.4,2412.89)">
                <path d="M-0.542,-0.541C-0.841,-0.541 -1.084,-0.299 -1.084,0.001C-1.084,0.3 -0.841,0.542 -0.542,0.542C-0.242,0.542 0.001,0.3 0.001,0.001C0.001,-0.299 -0.242,-0.541 -0.542,-0.541" style="fill:rgb(254,234,231);fill-rule:nonzero;"/>
            </g>
            <g transform="matrix(0,-4.16667,-4.16667,0,2061.08,2386.63)">
                <path d="M-1.614,-1.615C-2.506,-1.615 -3.229,-0.891 -3.229,0C-3.229,0.892 -2.506,1.614 -1.614,1.614C-0.723,1.614 0,0.892 0,0C0,-0.891 -0.723,-1.615 -1.614,-1.615" style="fill:rgb(96,56,18);fill-rule:nonzero;"/>
            </g>
            <g transform="matrix(0,-4.16667,-4.16667,0,2059.69,2389.09)">
                <path d="M-0.542,-0.543C-0.841,-0.543 -1.085,-0.3 -1.085,0C-1.085,0.299 -0.841,0.542 -0.542,0.542C-0.242,0.542 0.001,0.299 0.001,0C0.001,-0.3 -0.242,-0.543 -0.542,-0.543" style="fill:rgb(254,234,231);fill-rule:nonzero;"/>
            </g>
            <g transform="matrix(0,-4.16667,-4.16667,0,2032.78,2374.26)">
                <path d="M-1.615,-1.614C-2.507,-1.614 -3.229,-0.891 -3.229,0C-3.229,0.892 -2.507,1.615 -1.615,1.615C-0.723,1.615 0,0.892 0,0C0,-0.891 -0.723,-1.614 -1.615,-1.614" style="fill:rgb(96,56,18);fill-rule:nonzero;"/>
            </g>
            <g transform="matrix(0,-4.16667,-4.16667,0,2031.39,2376.73)">
                <path d="M-0.542,-0.541C-0.842,-0.541 -1.084,-0.299 -1.084,0.001C-1.084,0.3 -0.842,0.542 -0.542,0.542C-0.242,0.542 0.001,0.3 0.001,0.001C0.001,-0.299 -0.242,-0.541 -0.542,-0.541" style="fill:rgb(254,234,231);fill-rule:nonzero;"/>
            </g>
            <g transform="matrix(0,-4.16667,-4.16667,0,2049.01,2447.8)">
                <path d="M-1.615,-1.614C-2.507,-1.614 -3.229,-0.891 -3.229,0C-3.229,0.892 -2.507,1.615 -1.615,1.615C-0.723,1.615 0,0.892 0,0C0,-0.891 -0.723,-1.614 -1.615,-1.614" style="fill:rgb(96,56,18);fill-rule:nonzero;"/>
            </g>
            <g transform="matrix(0,-4.16667,-4.16667,0,2047.62,2450.27)">
                <path d="M-0.542,-0.541C-0.841,-0.541 -1.084,-0.299 -1.084,0.001C-1.084,0.3 -0.841,0.542 -0.542,0.542C-0.242,0.542 0.001,0.3 0.001,0.001C0.001,-0.299 -0.242,-0.541 -0.542,-0.541" style="fill:rgb(254,234,231);fill-rule:nonzero;"/>
            </g>
            <g transform="matrix(0,-4.16667,-4.16667,0,2006.67,2463.55)">
                <path d="M-1.615,-1.616C-2.507,-1.616 -3.229,-0.891 -3.229,-0C-3.229,0.892 -2.507,1.615 -1.615,1.615C-0.723,1.615 -0,0.892 -0,-0C-0,-0.891 -0.723,-1.616 -1.615,-1.616" style="fill:rgb(96,56,18);fill-rule:nonzero;"/>
            </g>
            <g transform="matrix(0,-4.16667,-4.16667,0,2005.28,2466.02)">
                <path d="M-0.541,-0.542C-0.841,-0.542 -1.084,-0.3 -1.084,0C-1.084,0.299 -0.841,0.541 -0.541,0.541C-0.241,0.541 0.001,0.299 0.001,0C0.001,-0.3 -0.241,-0.542 -0.541,-0.542" style="fill:rgb(254,234,231);fill-rule:nonzero;"/>
            </g>
            <g transform="matrix(0,-4.16667,-4.16667,0,2006.67,2443.54)">
                <path d="M-1.615,-1.616C-2.507,-1.616 -3.229,-0.891 -3.229,-0C-3.229,0.892 -2.507,1.615 -1.615,1.615C-0.724,1.615 -0,0.892 -0,-0C-0,-0.891 -0.724,-1.616 -1.615,-1.616" style="fill:rgb(96,56,18);fill-rule:nonzero;"/>
            </g>
            <g transform="matrix(0,-4.16667,-4.16667,0,2005.28,2446.01)">
                <path d="M-0.541,-0.542C-0.841,-0.542 -1.084,-0.3 -1.084,0C-1.084,0.299 -0.841,0.541 -0.541,0.541C-0.242,0.541 0.001,0.299 0.001,0C0.001,-0.3 -0.242,-0.542 -0.541,-0.542" style="fill:rgb(254,234,231);fill-rule:nonzero;"/>
            </g>
            <g transform="matrix(0,-4.16667,-4.16667,0,1974.81,2433.38)">
                <path d="M-1.615,-1.615C-2.507,-1.615 -3.23,-0.891 -3.23,0C-3.23,0.892 -2.507,1.615 -1.615,1.615C-0.723,1.615 0,0.892 0,0C0,-0.891 -0.723,-1.615 -1.615,-1.615" style="fill:rgb(96,56,18);fill-rule:nonzero;"/>
            </g>
            <g transform="matrix(0,-4.16667,-4.16667,0,1973.42,2435.85)">
                <path d="M-0.542,-0.542C-0.842,-0.542 -1.084,-0.299 -1.084,0.001C-1.084,0.3 -0.842,0.542 -0.542,0.542C-0.242,0.542 0,0.3 0,0.001C0,-0.299 -0.242,-0.542 -0.542,-0.542" style="fill:rgb(254,234,231);fill-rule:nonzero;"/>
            </g>
            <g transform="matrix(0,-4.16667,-4.16667,0,1986.29,2413.54)">
                <path d="M-1.615,-1.615C-2.507,-1.615 -3.229,-0.891 -3.229,0C-3.229,0.891 -2.507,1.615 -1.615,1.615C-0.723,1.615 0,0.891 0,0C0,-0.891 -0.723,-1.615 -1.615,-1.615" style="fill:rgb(96,56,18);fill-rule:nonzero;"/>
            </g>
            <g transform="matrix(0,-4.16667,-4.16667,0,1984.9,2416)">
                <path d="M-0.542,-0.542C-0.842,-0.542 -1.084,-0.299 -1.084,0.001C-1.084,0.299 -0.842,0.542 -0.542,0.542C-0.242,0.542 0,0.299 0,0.001C0,-0.299 -0.242,-0.542 -0.542,-0.542" style="fill:rgb(254,234,231);fill-rule:nonzero;"/>
            </g>
            <g transform="matrix(4.16667,0,0,4.16667,2022.61,2380.3)">
                <path d="M0,14.356L-34.407,48.405C-43.372,39.345 -48.405,27.102 -48.405,14.356C-48.405,-12.198 -26.555,-34.049 0,-34.049C26.554,-34.049 48.405,-12.198 48.405,14.356L0,14.356Z" style="fill:white;fill-rule:nonzero;"/>
            </g>
            <g transform="matrix(-4.16667,0,0,4.16667,1819.2,2440.11)">
                <path d="M-97.635,0L0,0" style="fill:none;fill-rule:nonzero;stroke:rgb(158,30,99);stroke-width:1.14px;stroke-linecap:butt;stroke-linejoin:miter;"/>
            </g>
            <g transform="matrix(-2.95163,2.94092,2.94092,2.95163,2022.06,2641.6)">
                <path d="M-83.086,-34.327L14.182,-34.327" style="fill:none;fill-rule:nonzero;stroke:rgb(158,30,99);stroke-width:1.14px;stroke-linecap:butt;stroke-linejoin:miter;"/>
            </g>
            <g transform="matrix(2.94167,2.95088,2.95088,-2.94167,2021.34,2237.3)">
                <path d="M-14.176,-34.149L82.261,-34.149" style="fill:none;fill-rule:nonzero;stroke:rgb(158,30,99);stroke-width:1.14px;stroke-linecap:butt;stroke-linejoin:miter;"/>
            </g>
            <g transform="matrix(0,4.16667,4.16667,0,2225.13,2437.27)">
                <path d="M-48.606,-48.606L48.606,-48.606" style="fill:none;fill-rule:nonzero;stroke:rgb(158,30,99);stroke-width:1.14px;stroke-linecap:butt;stroke-linejoin:miter;"/>
            </g>
            <g transform="matrix(0,-4.16667,-4.16667,0,2022.61,2236.42)">
                <ellipse cx="-48.406" cy="0" rx="48.405" ry="48.406" style="fill:none;stroke:rgb(35,31,32);stroke-width:1px;stroke-linecap:butt;stroke-linejoin:miter;"/>
            </g>
        </g>
    </g>
    <defs>
        <radialGradient id="_Radial1" cx="0" cy="0" r="1" gradientUnits="userSpaceOnUse" gradientTransform="matrix(0,1,1,0,6.25133e-06,-6.25133e-06)"><stop offset="0" style="stop-color:rgb(251,209,208);stop-opacity:1"/><stop offset="1" style="stop-color:rgb(243,129,141);stop-opacity:1"/><stop offset="1" style="stop-color:rgb(243,129,141);stop-opacity:1"/></radialGradient>
    </defs>
</svg>
