<svg clip-rule="evenodd" fill-rule="evenodd" stroke-miterlimit="10" viewBox="0 0 1232 795" xmlns="http://www.w3.org/2000/svg" xmlns:xlink="http://www.w3.org/1999/xlink"><linearGradient id="a" gradientTransform="matrix(0 1 -1 0 .499997 -.499997)" gradientUnits="userSpaceOnUse" x1="0" x2="1" y1="0" y2="0"><stop offset="0" stop-color="#e1f4fd"/><stop offset="1" stop-color="#aedfe4"/></linearGradient><path d="m350.176 539.74h193.163v6.504h-193.163z" fill="#9dbbd7" transform="matrix(-5.55556 0 0 5.55556 3147.88 -2269.13)"/><path d="m0 5.988c-2.335-.81-4.687-1.577-7.062-2.26-1.141-.329-2.302-.595-3.441-.933-.781-.233-1.58-.405-2.379-.565-1.804-.362-3.624-.653-5.403-1.126-1.199-.32-2.424-.722-3.5-1.362h-54.913c-1.111.686-2.27 1.289-3.458 1.829-2.808 1.272-5.752 2.205-8.684 3.142-1.537.492-3.076.988-4.596 1.533h94.162c-.243-.085-.484-.174-.726-.258" fill="#231f20" fill-rule="nonzero" opacity=".11" transform="matrix(5.55556 0 0 5.55556 1034.6512806 730.86208608)"/><path d="m350.176 546.244h192.909v8.245h-192.909z" fill="#ffebce" transform="matrix(-5.55556 0 0 5.55556 3146.46 -2351.07)"/><path d="m-.481-.5h1.961v1h-1.961z" fill="url(#a)" transform="matrix(546.447 0 0 -546.447 391.96 411.22)"/><path d="m350.194 573.286h56.192v46.578h-56.192z" fill="#754c28" transform="matrix(-5.55556 0 0 5.55556 2387.13 -2864.5)"/><path d="m418.163 546.126h97.819v82.429h-97.819z" fill="#a87b50" transform="matrix(-5.55556 0 0 5.55556 3373.6 -2761.89)"/><path d="m0 12.313h-65.126c-1.944 0-3.52-1.576-3.52-3.521v-5.271c0-1.944 1.576-3.521 3.52-3.521h65.126c1.945 0 3.521 1.577 3.521 3.521v5.271c0 1.945-1.576 3.521-3.521 3.521z" fill="#ffe3a5" fill-rule="nonzero" stroke="#fbb040" stroke-width=".5" transform="matrix(5.55556 0 0 5.55556 959.9 202.52)"/><path d="m420.412 546.369h46.409v79.99h-46.409z" fill="#c2b59b" stroke="#9b8579" stroke-width=".5" transform="matrix(-5.55556 0 0 5.55556 3112.98 -2751.04)"/><path d="m0 37h-33.134c-1.455 0-2.635-1.18-2.635-2.635v-31.73c0-1.455 1.18-2.635 2.635-2.635h33.134c1.455 0 2.636 1.18 2.636 2.635v31.73c0 1.455-1.181 2.635-2.636 2.635z" fill="#b9e5fb" fill-rule="nonzero" stroke="#9b8579" stroke-width=".5" transform="matrix(5.55556 0 0 5.55556 738.54 326.42)"/><path d="m0 9.996h-3.624c-.532 0-.964-.432-.964-.965v-8.066c0-.532.432-.965.964-.965h3.624c.533 0 .965.433.965.965v8.066c0 .533-.432.965-.965.965z" fill="#dab06d" fill-rule="nonzero" stroke="#9b8579" stroke-width=".5" transform="matrix(5.55556 0 0 5.55556 746.82 541.92)"/><path d="m0 5.343h-.391c-.532 0-.964-.432-.964-.965v-3.413c0-.533.432-.965.964-.965h.391c.533 0 .965.432.965.965v3.413c0 .533-.432.965-.965.965z" fill="#cf954f" fill-rule="nonzero" stroke="#8a5d3b" stroke-width=".5" transform="matrix(5.55556 0 0 5.55556 737.61 554.92)"/><path d="m0 24.78c1.634-1.131 3.186-2.366 4.554-3.811 1.245-1.314 2.331-2.768 3.267-4.314 1.912-3.158 3.106-6.651 4.505-10.048 1.346-3.272 2.818-6.52 4.797-9.464.557-.827 1.157-1.62 1.795-2.379h-10.523c-.298.312-.586.635-.85.978-.556.723-1.027 1.518-1.362 2.367-.408 1.029-.57 2.122-.675 3.219-.112 1.166-.133 2.338-.138 3.509-.003 1.022-.013 2.023-.237 3.026-.408 1.819-1.363 3.44-2.49 4.904-.607.786-1.246 1.552-1.955 2.248-.696.685-1.442 1.317-2.22 1.907-1.587 1.203-3.309 2.216-5.07 3.142-1.055.554-2.127 1.078-3.202 1.595v6.832c0 .573.192 1.097.507 1.525 3.205-1.551 6.366-3.207 9.297-5.236" fill="#fff" fill-rule="nonzero" transform="matrix(5.55556 0 0 5.55556 596.27 357.42)"/><path d="m0-17.847c-.632 1.675-.722 3.49-.634 5.262.043.869.09 1.74.323 2.582.236.849.519 1.684.707 2.546.178.81.316 1.697.095 2.512-.099.369-.283.698-.553.968-.231.234-.524.474-.865.503-.608.051-.9-.643-1.046-1.119-.169-.556-.24-1.138-.295-1.717-.581.634-1.065 1.352-1.41 2.142-.185.427-.328.874-.426 1.329-.05.234-.098.474-.1.715-.002.218.025.436.045.653.031.346.042.703-.166.998-.146.207-.352.358-.564.492-.536.338-1.131.563-1.691.854-.744.385-1.542.687-2.321.997-.867.344-1.741.668-2.62.976-.145.051-.292.095-.438.145h11.32c1.428 0 2.586-1.158 2.586-2.587v-21.242c-.825.869-1.518 1.855-1.947 2.991" fill="#fff" fill-rule="nonzero" transform="matrix(5.55556 0 0 5.55556 740.38 513.42)"/><path d="m777.75663064 284.34576164h257.82798404v444.3892444h-257.82798404z" fill="#c2b59b" stroke="#9b8579" stroke-width="2.77778"/><path d="m0 37h-33.134c-1.455 0-2.636-1.18-2.636-2.635v-31.73c0-1.455 1.181-2.635 2.636-2.635h33.134c1.455 0 2.635 1.18 2.635 2.635v31.73c0 1.455-1.18 2.635-2.635 2.635z" fill="#b9e5fb" fill-rule="nonzero" stroke="#9b8579" stroke-width=".5" transform="matrix(5.55556 0 0 5.55556 996.78 326.42)"/><path d="m0 9.996h3.624c.533 0 .965-.432.965-.965v-8.066c0-.532-.432-.965-.965-.965h-3.624c-.532 0-.965.433-.965.965v8.066c0 .533.433.965.965.965z" fill="#dab06d" fill-rule="nonzero" stroke="#9b8579" stroke-width=".5" transform="matrix(5.55556 0 0 5.55556 808.3 541.92)"/><path d="m0 5.343h.391c.533 0 .964-.432.964-.965v-3.413c0-.533-.431-.965-.964-.965h-.391c-.532 0-.965.432-.965.965v3.413c0 .533.433.965.965.965z" fill="#cf954f" fill-rule="nonzero" stroke="#8a5d3b" stroke-width=".5" transform="matrix(5.55556 0 0 5.55556 817.5 554.92)"/><path d="m0 28.942c-.653-.133-1.326-.154-1.976-.308-.597-.141-1.238-.391-1.585-.916-.332-.502-.483-1.099-.821-1.598-.279-.412-.756-.62-1.191-.835-.44-.217-.914-.413-1.3-.719-.339-.269-.431-.672-.317-1.082.139-.507.507-.91.761-1.361.13-.232.173-.421.153-.684-.018-.231-.038-.463-.074-.692-.038-.252-.081-.561-.253-.763-.133-.158-.338-.183-.535-.182-.346.003-.693.074-1.033.131-.527.088-1.056.171-1.587.234-.097.011-.17-.104-.144-.188.669-2.269 1.273-4.558 1.729-6.878.2-1.015.372-2.036.513-3.061.143-1.051.212-2.108.345-3.159.213-1.689.774-3.306 1.588-4.804 1.165-2.141 2.755-4.001 4.322-5.871h-8.481c-1.455 0-2.635 1.165-2.635 2.602v31.326c0 1.437 1.18 2.602 2.635 2.602h16.058c-1.909-1.481-3.735-3.296-6.172-3.794" fill="#fff" fill-rule="nonzero" transform="matrix(5.55556 0 0 5.55556 869.2 348.82)"/><path d="m0 22.576c.099.889.006 1.791-.185 2.662-.331 1.507-.948 2.944-1.676 4.315h4.161c1.171-1.629 2.266-3.305 3.134-5.116.856-1.788 1.462-3.718 1.532-5.706.061-1.733-.261-3.547-1.35-4.951-.873-1.127-2.113-1.893-3.261-2.717-1.307-.939-2.643-2.025-3.468-3.423-1.639-2.776-.338-6.155 1.129-8.705 1.225-2.131 2.765-4.06 4.386-5.912h-4.847c-2.326 2.12-4.54 4.378-6.395 6.906-1.218 1.66-2.324 3.48-2.871 5.473-.502 1.828-.387 3.694.565 5.362 1.023 1.791 2.663 3.159 4.188 4.519 1.543 1.376 3.142 2.811 4.117 4.655.433.819.739 1.717.841 2.638" fill="#fff" fill-rule="nonzero" transform="matrix(5.55556 0 0 5.55556 953.73 366.52)"/><path d="m350.441 574.686h54.211v43.779h-54.211z" fill="#e4c89e" transform="matrix(-5.55556 0 0 5.55556 2378.86 -2864.5)"/><path d="m1117.16801328 320.42477016h86.97784736v258.76687368h-86.97784736z" fill="#754c28" stroke-width="5.55556"/><path d="m1126.79579876 328.20255416h75.97783856v243.21686124h-75.97783856z" fill="#e4c89e" stroke-width="5.55556"/><path d="m.093 0v-.723h.188c.072 0 .127.014.166.041.039.028.058.067.058.119 0 .087-.05.149-.149.187.119.036.178.101.178.195 0 .059-.02.104-.059.135s-.095.046-.169.046zm.102-.077h.021c.075 0 .124-.004.146-.014.042-.018.063-.051.063-.099 0-.043-.019-.079-.057-.108-.039-.028-.087-.042-.144-.042h-.029zm0-.328h.033c.054 0 .097-.012.127-.035.03-.024.045-.057.045-.1 0-.071-.055-.106-.165-.106h-.04z" fill="#a87b50" fill-rule="nonzero" transform="matrix(66.66672 0 0 66.66672 626.21206496 258.98948636)"/><path d="m.096 0v-.53h.096v.53zm0-.626v-.097h.096v.097z" fill="#a87b50" fill-rule="nonzero" transform="matrix(66.66672 0 0 66.66672 663.68987272 258.98948636)"/><path d="m.096.006v-.777h.096v.34c.04-.074.099-.111.178-.111.063 0 .114.023.15.07.037.046.055.11.055.191 0 .088-.021.159-.062.212-.042.054-.096.081-.164.081-.063 0-.115-.024-.157-.072l-.011.066zm.096-.132c.05.044.097.066.142.066.092 0 .139-.071.139-.211 0-.125-.041-.187-.123-.187-.054 0-.107.029-.158.087z" fill="#a87b50" fill-rule="nonzero" transform="matrix(66.66672 0 0 66.66672 682.96072147 258.98948636)"/><path d="m731.32048238 207.58944524h6.40000512v51.40004112h-6.40000512z" fill="#a87b50" fill-rule="nonzero" stroke-width="66.66672"/><path d="m.096 0v-.53h.096v.53zm0-.626v-.097h.096v.097z" fill="#a87b50" fill-rule="nonzero" transform="matrix(66.66672 0 0 66.66672 744.191048232 258.98948636)"/><path d="m.304.012c-.076 0-.137-.025-.182-.075-.045-.051-.068-.118-.068-.202 0-.085.023-.153.068-.203.046-.049.107-.074.185-.074s.14.025.185.074c.045.05.068.117.068.202 0 .086-.023.155-.068.204-.046.049-.109.074-.188.074zm.001-.072c.102 0 .153-.069.153-.206 0-.136-.05-.204-.151-.204-.1 0-.15.068-.15.205s.049.205.148.205z" fill="#a87b50" fill-rule="nonzero" transform="matrix(66.66672 0 0 66.66672 763.46217476 258.98948636)"/><path d="m.255.012c-.048 0-.087-.014-.114-.042s-.041-.067-.041-.116v-.312h-.066v-.072h.066v-.096l.096-.01v.106h.139v.072h-.139v.294c0 .069.03.104.09.104.013 0 .028-.002.047-.006v.066c-.03.008-.056.012-.078.012z" fill="#a87b50" fill-rule="nonzero" transform="matrix(66.66672 0 0 66.66672 804.412763076 258.98948636)"/><path d="m.485-.017c-.065.019-.12.029-.166.029-.078 0-.142-.026-.191-.078s-.074-.119-.074-.202c0-.08.022-.146.065-.197.044-.052.099-.077.167-.077.064 0 .114.022.149.068.035.045.052.11.052.194v.03h-.335c.014.126.076.189.185.189.04 0 .09-.011.148-.032zm-.328-.305h.234c0-.099-.037-.148-.111-.148s-.115.049-.123.148z" fill="#a87b50" fill-rule="nonzero" transform="matrix(66.66672 0 0 66.66672 829.347783024 258.98948636)"/><path d="m.303.012c-.071 0-.131-.026-.178-.079s-.071-.12-.071-.201c0-.086.024-.154.07-.202.047-.048.112-.072.196-.072.041 0 .087.006.138.017v.081c-.054-.016-.098-.024-.132-.024-.049 0-.089.018-.119.055s-.044.086-.044.148c0 .059.015.108.045.144.031.037.071.056.121.056.044 0 .089-.012.135-.034v.083c-.062.019-.116.028-.161.028z" fill="#a87b50" fill-rule="nonzero" transform="matrix(66.66672 0 0 66.66672 866.489479404 258.98948636)"/><path d="m.37-.067c-.058.053-.113.079-.167.079-.044 0-.08-.014-.109-.041-.029-.028-.044-.062-.044-.104 0-.058.025-.103.073-.134.049-.031.119-.046.21-.046h.022v-.064c0-.062-.031-.093-.094-.093-.051 0-.106.016-.165.047v-.079c.065-.027.126-.04.182-.04.06 0 .103.013.131.04.029.027.043.068.043.125v.24c0 .055.017.082.05.082.005 0 .011 0 .019-.002l.007.054c-.022.01-.046.015-.072.015-.045 0-.074-.026-.086-.079zm-.015-.053v-.137l-.032-.001c-.052 0-.095.01-.128.03-.032.02-.049.047-.049.079 0 .023.009.043.025.059s.036.024.059.024c.041 0 .082-.018.125-.054z" fill="#a87b50" fill-rule="nonzero" transform="matrix(66.66672 0 0 66.66672 900.636728944 258.98948636)"/><path d="m0-10.608c-.375-.197-.044-.758.331-.567.535.274.952.663 1.279 1.125.003-.002.008-.002.011-.004-.119-.262-.084-.515-.174-.806-.116-.379-.361-.744-.693-.968-.707-.478-1.574-.324-2.248.125-.01.007-.02.001-.03.006-.018.017-.027.041-.047.057-.072.052-.171.02-.231-.03-.232-.193-.17-.531-.043-.83-.486.026-.956.141-1.408.343-.019.135-.039.271-.059.406-.032.22-.311.159-.372-.011-.014.075-.108.14-.191.1-1.574-.755-3.186-1.009-4.809-.429.223.109.434.233.647.358.534-.012 1.061-.007 1.545.016.273.013.275.424 0 .426-.341.002-.68.026-1.02.045-.014.113-.098.211-.242.166-.115-.036-.221-.094-.332-.139-.511.045-1.019.111-1.525.208-.93.177-1.837.29-2.155 1.253.007-.001.009-.007.016-.007.083 0 .123.057.135.12.079-.087.161-.171.252-.244.229-.183.556.126.329.329-1.258 1.126-.952 4.863-.633 6.359.442 2.074 1.597 3.845 3.581 4.628.016-.183.248-.315.406-.206.335.232.522.564.974.578.256.008.469-.085.643-.235-.157-.202-.064-.604.282-.633.442-.038.581.308.828.594.463.538 1.014-.166 1.275-.54.13-.187.372-.135.466.008 2.821-.471 3.743-2.56 4.508-4.966.672-2.115 1.073-5.395-1.296-6.635" fill="#292d41" fill-rule="nonzero" transform="matrix(5.55556 0 0 5.55556 699.89 549.32)"/><path d="m0 2.178c-.571.628-1.668.716-2.455.749-1.295.054-2.66-.12-3.907-.471-.366-.103-.7-.146-.824-.446-.165-.401.207-.775.656-1.068.051-.018.093-.044.127-.079.349-.21.72-.371.918-.451.976-.394 2.029-.588 2.958-1.097.056-.031.088-.073.108-.118.313.188.691.308.984.375.339.078 1.117.13 1.707-.006 0 .008-.006.01-.006.019.037.784.337 1.93-.266 2.593" fill="#662c91" fill-rule="nonzero" transform="matrix(5.55556 0 0 5.55556 826.75 726.52)"/><path d="m0 6.115c-.074-.074-.177-.115-.294-.075-.164-.11-.327-.22-.49-.331.006-.193-.16-.322-.337-.336-.418-.035-.718-.257-.921-.611-.144-.249-.48-1.03.159-1.109.2-.025.412-.201.328-.432-.299-.825.618-.851 1.137-.824.115.112.297.15.474.002 1.082-.907 1.92-1.949 2.617-3.169.508.478 1.363.61 2.061.58-.32.597-.56 1.239-.921 1.815-.407.648-1.024.996-1.484 1.548-.225.269-.249.456-.338.803-.057.226-1.254 2.909-1.782 2.197-.052-.07-.141-.084-.209-.058" fill="#fdceae" fill-rule="nonzero" transform="matrix(5.55556 0 0 5.55556 782.85 608.82)"/><path d="m0 .027c-.004-.01-.009-.018-.014-.027.005.006.011.012.016.019-.001.003-.002.005-.002.008" fill="#231f20" fill-rule="nonzero" transform="matrix(5.55556 0 0 5.55556 817.68 569.82)"/><path d="m0-10.14c.058-.012.09-.058.124-.099-.002.011-.005.021-.008.032.393-.308.929-.522 1.399-.675.223-.072.526-.101.755-.214.009.047.007.091.021.139.027.1.116.156.215.163 1.238.096 3.33.549 4.247-.575l.001-.001c.701.329 1.456.506 2.247.543-.078.035-.145.12-.128.216.624 3.596-.102 7.173-.107 10.805 0 .07.016.128.042.179-1.487.187-2.971.344-4.471.377-1.244.027-3.948.48-4.651-.701-.282-.472.002-1.972.004-2.486.001-.828.003-1.657.004-2.485.003-1.724-.179-3.54.11-5.245.055.031.123.043.196.027" fill="#b84144" fill-rule="nonzero" transform="matrix(5.55556 0 0 5.55556 816.68 628.02)"/><path d="m0-.007c.005 0 .01-.001.015-.002.003.004.006.007.008.011-.006-.005-.015-.005-.023-.009" fill="#231f20" fill-rule="nonzero" transform="matrix(5.55556 0 0 5.55556 817.18 569.42)"/><path d="m0-1.203c-.021.012-.037.029-.067.029-.009 0-.013-.008-.021-.009.023.103.003.211-.114.263-.783.346-1.053.261-1.96.223-.157-.007-.337.009-.523.027.033.618.317.622.889.623.355.001.709.014 1.063.019.62.01 1.287.028 1.747-.418-.356-.213-.693-.468-1.014-.757" fill="#fff" fill-rule="nonzero" transform="matrix(5.55556 0 0 5.55556 845.63 565.72)"/><path d="m0 12.487c.08-.023.149.001.207.043.002-.006.004-.012.007-.018-.328-.319-.637-.678-.915-1.089-1.497-2.209-1.774-4.436-1.09-6.746-.937-.2-1.994-.711-1.93-1.772.051-.842.475-1.687 1.325-1.932.013-.003.021.007.034.005.194-.662.547-1.214 1.006-1.629-.835-.108-1.576.002-2.207.693-.008.008-.017.01-.026.018-.022.08-.085.154-.181.163-.611.058-1.216.111-1.798.32-.32.115-1.033.364-.963.847.031.22.336.482.472.669.095.131.008.276-.116.34-.84 2.567-1.05 5.184.488 7.568 1.373 2.13 3.104 3.279 5.687 2.52" fill="#8b5d2f" fill-rule="nonzero" transform="matrix(5.55556 0 0 5.55556 843.37 488.52)"/><path d="m-1.556-3.569c-.752-1.069-1.227-2.369-1.157-3.674-1.943.718 1.091 5.452 1.157 5.534 1.567 1.951 3.563 3.566 6.034 4.046-.937-2.19-4.849-4.222-6.034-5.906" fill="#8b5d2f" fill-rule="nonzero" transform="matrix(-4.19078 3.64714 3.64714 4.19078 879.25 527.52)"/><path d="m0-7.436c.609 1.506.428 3.068.083 4.619-.312 1.4-1.084 2.886-.922 4.362.162 1.474 1.067 2.483 2.301 2.801-2.691.438-4.959-.824-6.389-3.373-1.529-2.727-.537-4.848.186-7.586.059-.225-.271-.377-.384-.162-.108.205-.191.406-.285.609-.241.023-.477.009-.657-.183-.197-.207-.21-.523-.081-.768.039-.076.031-.146.003-.206.037-.048.065-.103.071-.175.379-4.722 5.127-2.281 6.074.062" fill="#8b5d2f" fill-rule="nonzero" transform="matrix(5.55556 0 0 5.55556 866.75 540.42)"/><path d="m0 .018c.099-.053.175-.208.13-.319-.124-.302-.445-.396-.692-.593.086-.257.183-.482.407-.665.174-.143.379-.207.592-.236.012.1.043.196.083.291-.088.22.162.522.445.387.245-.117.642-.276.952-.243.114.323-.052.789-.208 1.038-.047.074-.106.138-.172.198.031-.119.075-.231.098-.353.064-.345-.444-.628-.613-.258-.36.789-.397 1.531-1.24 2.029-.88.519-1.963.306-2.711-.339-.033-.028-.067-.047-.102-.059.041-.546.088-1.099.133-1.655.46-.051.932-.278 1.314-.61.01.042.021.089.029.124.14.53.907 1.609 1.555 1.263" fill="#fdceae" fill-rule="nonzero" transform="matrix(5.55556 0 0 5.55556 887.18 611.82)"/><path d="m0-9.522c.688-.899 2.168-.686 2.995-1.354.228.083.533.193.542.209.073.145-.764 2.488-.84 2.78-.558 2.123-1.149 4.239-1.647 6.377-.014.02-.029.037-.039.062-.305.794-1.231 1.369-1.877 1.858-.554.418-.813.944-1.547.856.283-1.048.485-2.159.581-3.236.377-.255.664-.587.879-.975.402.071.754-.295.98-.595.276-.363.44-.808.458-1.264.015-.368-.053-.853-.479-.947-.359-.08-.787.046-1.152.203-.012-.096-.021-.192-.017-.292.001-.007-.007-.01-.007-.017.567-1.114 1.167-2.429 1.17-3.665" fill="#9e1e63" fill-rule="nonzero" transform="matrix(5.55556 0 0 5.55556 898.99 632.62)"/><path d="m0 6.174c.154-2.132.182-4.271-.555-6.174 1.172.775 1.504 2.201 1.715 3.558.253 1.627-.184 2.003-1.16 2.616" fill="#fff" fill-rule="nonzero" transform="matrix(5.55556 0 0 5.55556 871.36 569.52)"/><path d="m0-1.591c-.166.382-.147.828.11 1.169.191.251.512.422.835.448-.062.153-.102.304-.157.457-.647-.229-1.555-.45-1.543-1.258.008-.502.236-1.033.665-1.299-.01.075-.025.147-.031.225-.009.124.045.207.121.258" fill="#ec008c" fill-rule="nonzero" transform="matrix(5.55556 0 0 5.55556 830.03 509.02)"/><path d="m0 3.585c-.006.371-.004.741-.009 1.111-.019-.003-.027-.019-.05-.017-.914.056-2.098.079-2.164-1.171-.022-.438.287-1.061.436-1.47.398-1.095 1.008-2.743 2.203-3.211-.472 1.519-.39 3.181-.416 4.758" fill="#fff" fill-rule="nonzero" transform="matrix(5.55556 0 0 5.55556 811.21 578.42)"/><path d="m0-9.816c3.255.333 6.509.296 9.743-.208 1.651 2.353 1.231 5.556 1.991 8.218.003.009.012.011.016.019-4.658 1.762-9.097 1.995-13.8.095.01-.032.023-.061.025-.099.163-2.87.717-5.482 2.025-8.025" fill="#0a4d77" fill-rule="nonzero" transform="matrix(5.55556 0 0 5.55556 813.95 689.52)"/><path d="m0-.227c.089.745.133 1.549.403 2.253-.831.258-1.629.48-2.509.392-.236-1.463-.249-3.163-.743-4.578.898-.123 1.793-.314 2.687-.573-.073.825.065 1.701.162 2.506" fill="#fdceae" fill-rule="nonzero" transform="matrix(5.55556 0 0 5.55556 869.18 703.02)"/><path d="m-.924-.64c-.203.515-.785 2.244.008 2.506-.001-.007-.006-.008-.008-.015-.149-.908.331-2.101.905-2.818-.465-.083-.62-.396-.905.327" fill="#fff" fill-rule="nonzero" transform="matrix(1.03716 -5.45789 -5.45789 -1.03716 867.16 715.72)"/><path d="m0-3.996c-.242.602-.282 1.313-.361 1.941-.066.524-.123 1.05-.23 1.568-.06.294-.165.567-.189.857-.292-.048-.648.067-.937.056-.502-.019-.946-.123-1.38-.322.378-1.359.598-3.086.473-4.537.872.219 1.747.364 2.624.437" fill="#fdceae" fill-rule="nonzero" transform="matrix(5.55556 0 0 5.55556 832.93 713.82)"/><path d="m0-1.246c.275.436.932.541 1.401.597.318.039.95.134 1.342-.02.001.042.01.086.033.131.28.538-1.83.225-1.98.181-.224-.066-.685-.148-.808-.366-.092-.164-.048-.348.012-.523" fill="#fff" fill-rule="nonzero" transform="matrix(5.55556 0 0 5.55556 813.45 722.52)"/><path d="m0-3.399c.763.223 1.896.103 2.355.031.226-.035.498-.107.723-.235-.016.1.015.205.126.272.874.532 1.886.736 2.8 1.181.436.212 1.788 1 1.343 1.696-.137.214-.972.286-1.187.327-1.203.231-2.476.331-3.699.216-.752-.07-1.754-.21-2.263-.833-.603-.739-.267-1.761-.189-2.627.001-.012-.008-.017-.009-.028" fill="#662c91" fill-rule="nonzero" transform="matrix(5.55556 0 0 5.55556 857.05 743.42)"/><path d="m0-3.501c.03-.02.051-.045.07-.07.655.044 1.313.06 1.974.078.408.01.81.037 1.192-.004.117.657.369 1.448.141 2.044-.314.822-1.243 1.102-2.019 1.259-1.31.264-2.727.207-4.046.027-.264-.036-1.026-.042-1.219-.253-.547-.6.52-1.419 1.023-1.711.924-.536 1.989-.774 2.884-1.37" fill="#603812" fill-rule="nonzero" transform="matrix(5.55556 0 0 5.55556 647.25 745.62)"/><path d="m0 15.052c-.398-5.091.696-10.004.533-15.04.616.337 1.478.289 2.122.281 2.523-.029 5.261-.051 7.737-.478.067-.012.101-.051.138-.087-.127 2.086-.089 4.18.141 6.258.294 2.669.276 5.344.571 8.004-.524.461-1.293.597-1.956.744-.696.154-1.558.376-2.291.224-.007-.909-.283-1.865-.355-2.78-.09-1.125-.134-2.317-.444-3.405-.001-.003-.004-.003-.005-.006.081-1.322.159-2.644.272-3.945.014-.158-.244-.193-.277-.038-.689 3.25-1.287 6.808-1.222 10.144-.754.396-1.82.198-2.628.185-.778-.013-1.558-.031-2.336-.061" fill="#0a4d77" fill-rule="nonzero" transform="matrix(5.55556 0 0 5.55556 640.72 638.32)"/><path d="m0-2.41c.199 1.44.276 2.865.289 4.297-.041.016-.081.036-.109.078-.518.758-.857 1.643-1.341 2.425-.285.46-.55.883-.968 1.231-.588.489-1.198.293-1.841.019.032-.062.047-.136.026-.225-.413-1.695 1.772-5.293 2.179-7.069.337-1.469.435-2.186 1.814-3.079.99-.641 2.068-1.111 3.18-1.494.331.771 2.591.526 3.086.516.513-.012 1.288.087 1.738-.274 2.425 1.398 7.438.482 8.009-2.692.013-.077.002-.144-.019-.205.27-.049.547-.07.816-.024.357.061.612.241.884.442-.055.062-.096.137-.1.24-.191 3.665-3.46 5.383-6.603 6.222-.005-.265.001-.531-.021-.795-.017-.197-.338-.278-.373-.05-.055.345-.096.693-.13 1.041-.082.094-.086.227-.03.339-.088 1.026-.118 2.06-.172 3.087-.035.669-.227 1.503-.065 2.158.213.865.708.956.472 2.165-.003.014.001.024 0 .038-2.308-.197-4.697.212-7.012.297-.73.027-2.105.264-2.579-.44-.407-.605-.079-2.17-.068-2.846.029-1.875-.12-3.731-.397-5.585-.066-.439-.725-.25-.665.183" fill="#b84144" fill-rule="nonzero" transform="matrix(5.55556 0 0 5.55556 638.02 600.52)"/><path d="m0 11.745c-.005.03.014.048.016.076-.085-.034-.183-.024-.261.067-.166.194-.381.302-.617.362-.03-.057-.073-.11-.148-.148-2.602-1.308-4.167-3.857-6.285-5.756.008-.018.025-.021.031-.042.272-1.059.388-2.168.493-3.255.07-.73-.199-3.064.661-3.554.018.094.072.179.177.234.449.234.731.68 1.145.971.182.127.41.273.645.355-.726.609-.982 1.416-.13 2.232-.118.364-.049.77.299 1.007.142.097.277.067.411.138.217.115.222.22.361.404.152.202.222.358.456.493 1.152.663 1.779-.322 2.134-1.365.182.171.471.269.674.364.243.113.478.409.751.445-.183 2.357-.43 4.635-.813 6.972" fill="#1375bc" fill-rule="nonzero" transform="matrix(5.55556 0 0 5.55556 629.39 622.92)"/><path d="m0 .882c-.172.611-.937 1.807-1.584.771-.126-.202-.041-.329-.247-.49-.176-.139-1.007-.206-.755-.652.058-.103.053-.267-.045-.348-1.003-.831-.157-1.511.599-1.97.023.166.057.337.12.522.013.039.032.067.053.095-.11.137-.12.34.085.435.646.3 1.392.561 2.052.417-.116.402-.165.816-.278 1.22" fill="#fdceae" fill-rule="nonzero" transform="matrix(5.55556 0 0 5.55556 623.21 638.72)"/><path d="m0-1.228c.127.15.286.389.361.439.237.159.513.205.788.142.194-.045.357-.137.508-.246.03.049.072.095.128.137.774.568-.293.533-.474.547-.33.024-.662.037-.992.056-.111.006-1.62.153-2.001-.104.14-.106.129-.309.02-.421.217.078.449.114.658.095.416-.04.773-.303 1.004-.645" fill="#fff" fill-rule="nonzero" transform="matrix(5.55556 0 0 5.55556 668.57 566.12)"/><path d="m0 2.14c-.016-.632.384-.926.79-1.274-.016.071-.043.14-.055.211-.025.146.168.25.252.106.247-.426.398-.906.581-1.363.17-.422.321-1.001.62-1.359.108-.249.306-.32.594-.214.01.112.019.223.028.335.009.356-.042.713-.117 1.06-.103.485-.339.951-.409 1.437-.02.138.107.277.234.251.055.004.113-.015.165-.074.35-.172.544-.092.58.24.046.124.164.21.301.172.639-.178.462.31.453.531-.003.077.045.147.107.187.793.501-.735 1.613-1.247 1.58-.012-.001-.02.007-.03.011-.002-.053-.014-.107-.051-.156-.576-.771-1.705-.948-2.532-.523-.019-.377-.255-.774-.264-1.158" fill="#fdceae" fill-rule="nonzero" transform="matrix(5.55556 0 0 5.55556 724.46 530.22)"/><path d="m0-2.542c.476-.04.956-.153 1.395-.242.444-.09.909-.183 1.346-.334.011.007.018.017.03.024.849.42 1.785.589 2.682.872.864.272 3.168 1.484 1.36 2.089-1.154.385-2.419.605-3.632.65-.656.024-1.502.059-2.118-.227-1.132-.528-1.079-1.762-1.063-2.832" fill="#603812" fill-rule="nonzero" transform="matrix(5.55556 0 0 5.55556 684.41 738.92)"/><path d="m-.028-.003c.017.021.034.044.052.065.023.031-.035.066-.052.031-.011-.026-.023-.051-.034-.076-.01-.023.019-.04.034-.02" fill="#231f20" fill-rule="nonzero" transform="matrix(4.75879 -2.86674 -2.86674 -4.75879 901 581.62)"/><path d="m0-1.22c.079-.087.161-.171.252-.244.229-.184.557.126.329.329-.638.571-.872 1.812-.908 3.094 1.079-.656 1.892-1.702 2.869-2.49.087-.07.274-.038.256.107-.101.781-.275 1.548-.402 2.324 1.187-.384 2.139-1.261 3.308-1.695.106-.039.222.081.185.185-.149.422-.331.948-.21 1.4.149.558.827.436 1.245.303.666-.212 1.296-.606 1.811-1.075.078-.07.229-.051.25.066.095.494.307.984.628 1.372.233.281.577.57.968.504.232-.038.424-.192.577-.36.131-.144.181-.294.214-.482.14-.8-.022-1.627-.026-2.432-.001-.093.096-.176.189-.144.639.217 1.229.534 1.816.86-.177-1.077-.681-2.034-1.736-2.585-.375-.197-.044-.759.331-.567.535.273.952.663 1.28 1.125.003-.003.007-.003.01-.005-.119-.261-.084-.514-.173-.806-.117-.379-.362-.743-.694-.967-.707-.478-1.574-.324-2.248.124-.01.007-.019.001-.03.006-.018.018-.027.042-.047.057-.071.053-.171.02-.231-.029-.232-.193-.169-.531-.042-.83-.487.025-.957.14-1.409.342-.019.136-.039.271-.058.407-.033.22-.312.159-.372-.012-.015.076-.109.14-.192.101-1.574-.755-3.185-1.009-4.808-.429.222.109.433.233.646.357.534-.011 1.062-.007 1.545.016.273.013.275.425 0 .427-.341.002-.68.026-1.019.044-.015.114-.099.211-.243.166-.115-.036-.22-.093-.332-.138-.51.045-1.019.111-1.525.207-.93.178-1.837.29-2.154 1.253.006-.001.008-.007.015-.007.083 0 .123.058.135.121" fill="#fff" fill-rule="nonzero" opacity=".2" transform="matrix(5.55556 0 0 5.55556 635.36207228 502.4841256)"/><path d="m0-.716c-.416 1.271-.675 2.553-.646 3.813.012.02.021.041.035.061.674-.575.948-1.523 1.155-2.35.034-.133.203-.134.274-.035.206.289.551.428.832.636.392-.579.409-1.336.851-1.886.117-.746.52-1.446 1.278-1.665.013-.003.021.007.034.005.194-.662.546-1.214 1.005-1.629-.835-.108-1.575.002-2.207.693-.007.008-.016.01-.025.018-.023.08-.085.153-.181.163-.611.058-1.217.111-1.799.32-.319.115-1.032.364-.962.847.031.219.335.482.472.669.095.131.008.276-.116.34" fill="#fff" fill-rule="nonzero" opacity=".2" transform="matrix(5.55556 0 0 5.55556 809.0677668 505.85635052)"/><path d="m0 3.837c-.393-1.62-1.181-3.858-2.455-3.375.861.887 1.34 2.095 1.503 3.323.311.045.636.073.952.052" fill="#fff" fill-rule="nonzero" opacity=".2" transform="matrix(5.55556 0 0 5.55556 877.83448848 484.68411136)"/><path d="m0-5.294c.434.469.6 1.129.684 1.746.106.774.088 1.559.073 2.337-.017.804-.067 1.626.097 2.418.165.789.559 1.485 1.033 2.126.19-.641.392-1.279.577-1.921.038-.134.263-.153.289 0 .075.44.203.87.4 1.267.219-.829.538-1.649.715-2.44.345-1.551.527-3.113-.083-4.619-.847-2.092-4.716-4.247-5.805-1.324.708-.178 1.491-.163 2.02.41" fill="#fff" fill-rule="nonzero" opacity=".2" transform="matrix(5.55556 0 0 5.55556 845.71779612 523.400809)"/><path d="m0 .078c-.782-.179-1.5-.529-2.112-1.043-.031.365-.061.731-.088 1.091.035.012.069.031.102.059.748.644 1.831.858 2.711.339.153-.09.271-.19.377-.294-.333-.033-.664-.077-.99-.152" fill="#603812" fill-rule="nonzero" opacity=".15" transform="matrix(5.55556 0 0 5.55556 882.5678256 616.05088312)"/><path d="m0 .173c.387-.406.839-.739 1.271-1.093-.004-.221-.001-.441.018-.657-.893.259-1.789.45-2.686.573.296.853.418 1.808.52 2.754.15-.597.45-1.129.877-1.577" fill="#603812" fill-rule="nonzero" opacity=".15" transform="matrix(5.55556 0 0 5.55556 861.123364 696.63983648)"/><path d="m0-2.374c.68.823.898 1.958 1.035 2.988.017.124.023.25.035.375.035-.134.074-.268.103-.407.106-.518.164-1.044.229-1.568.079-.628.119-1.339.362-1.941-.877-.072-1.752-.218-2.624-.436.009.117.005.244.01.364.327.136.62.345.85.625" fill="#603812" fill-rule="nonzero" opacity=".15" transform="matrix(5.55556 0 0 5.55556 823.14000028 707.89540104)"/><path d="m0 9.449c-.505-.091-1.003-.218-1.493-.357-.184-.052-.336-.162-.496-.264-.211-.135-.422-.271-.635-.402-.189-.116-.381-.24-.585-.329-.181-.08-.394-.059-.61-.014-.538.111-1.016.422-1.561.506-.642.098-1.126-.244-1.504-.736-.033-.042-.022-.107 0-.151.27-.526.685-.963.962-1.487.28-.529.401-1.277-.258-1.584-.388-.181-.835-.007-1.216.103-.31.09-.655.173-.916-.071-.486-.453-.533-1.283-.544-1.901-.017-.891.1-1.788.271-2.66.078-.395.165-.804.285-1.2-.119.068-.249.127-.351.207.003-.01.005-.021.007-.032-.034.042-.066.088-.124.1-.073.015-.14.004-.196-.028-.289 1.705-.106 3.521-.109 5.245-.001.829-.003 1.657-.004 2.486-.002.514-.286 2.014-.005 2.486.703 1.181 3.407.728 4.651.7 1.5-.033 2.985-.189 4.471-.377-.025-.051-.042-.109-.042-.178 0-.021.002-.041.002-.062" fill="#231f20" fill-rule="nonzero" opacity=".2" transform="matrix(5.55556 0 0 5.55556 865.38447852 576.25085128)"/><path d="m0 1.233c-.454-.474-1.036-.483-1.647-.547-.524-.055-1.023-.229-1.208-.772-.066-.19-.024-.397.023-.586.07-.281.176-.553.282-.823.162-.408.352-.823.481-1.249-.885.227-1.659.817-2.488 1.178-.075.033-.158.021-.205-.054-.061-.1-.102-.209-.158-.312.048.784.073 1.57.061 2.359-.011.676-.339 2.241.068 2.846.474.704 1.849.467 2.579.44.953-.035 1.918-.123 2.885-.203-.009-.799-.096-1.676-.673-2.277" fill="#231f20" fill-rule="nonzero" opacity=".2" transform="matrix(5.55556 0 0 5.55556 670.91210072 614.77310432)"/><path d="m0-3.169c-.202-.094-.491-.192-.674-.364-.354 1.044-.981 2.028-2.134 1.365-.234-.134-.303-.29-.456-.492-.138-.185-.143-.289-.361-.405-.134-.07-.269-.041-.41-.138-.349-.237-.417-.642-.3-1.006-.852-.816-.596-1.623.131-2.232-.235-.082-.464-.228-.646-.355-.173-.123-.323-.272-.473-.422-.021.053-.042.107-.063.161-.001.003-.005.005-.006.008.007.023.02.042.015.07-.204 1.09-.411 2.252-.209 3.359.153.841.579 1.57 1.149 2.197.699.768 1.565 1.326 2.33 2.018.531.481.974 1.029 1.302 1.668.297.575.536 1.18.771 1.786.364-2.267.607-4.483.786-6.773-.273-.035-.509-.331-.752-.445" fill="#231f20" fill-rule="nonzero" opacity=".2" transform="matrix(5.55556 0 0 5.55556 629.72873444 664.51758856)"/><path d="m0 2.15c.233-.924.474-1.846.719-2.766-.869-.585-1.832-1.081-2.504-1.878-.225.663-.528 1.311-.829 1.901 0 .007.008.011.007.017-.004.1.004.196.016.292.365-.156.794-.283 1.153-.203.425.095.494.579.479.947-.019.457-.183.901-.458 1.265-.227.3-.578.666-.98.594-.215.388-.502.721-.879.976-.04.446-.109.898-.183 1.349 1.118-.878 2.304-1.666 3.459-2.494" fill="#231f20" fill-rule="nonzero" opacity=".2" transform="matrix(5.55556 0 0 5.55556 907.0122896 603.3453174)"/><path d="m0 5.196c-.395-1.669-.439-3.501-.836-5.196-.283.406-.529.838-.684 1.306-.522 1.593.353 2.877 1.52 3.89" fill="#231f20" fill-rule="nonzero" opacity=".2" transform="matrix(5.55556 0 0 5.55556 878.54560016 648.06201984)"/><path d="m0 8.408c-.052-.037-.093-.104-.069-.169.131-.365.367-.661.644-.919-.204-.013-.408-.015-.61-.011-.391.007-.781.026-1.172.037-.733.02-1.551.059-2.253-.196-.23-.084-.451-.205-.602-.403-.205-.268-.143-.596-.079-.906.037-.17.098-.338.126-.509.036-.219.024-.452.045-.674.034-.362.089-.725.202-1.072.226-.69.671-1.277 1.092-1.857.137-.189.238-.343.286-.572.027-.127.057-.243.139-.347.231-.292.602-.369.953-.386.401-.02.797.04 1.196.042.291.001.582-.013.873-.015.742-.005 1.482-.008 2.221-.052.759-.046 1.525-.128 2.257-.34.432-.125.879-.304 1.231-.593-.016-.025-.027-.054-.044-.078-3.235.504-6.489.541-9.744.208-1.307 2.543-1.862 5.155-2.025 8.025-.002.037-.015.067-.024.099 2.083.841 4.112 1.243 6.133 1.3-.251-.212-.505-.422-.776-.612" fill="#231f20" fill-rule="nonzero" opacity=".2" transform="matrix(5.55556 0 0 5.55556 832.32334096 637.20090004)"/><path d="m0 10.234c-.046-.47-.26-.843-.511-1.229-.111-.169-.224-.346-.3-.535-.068-.17-.096-.358-.122-.538-.057-.425-.053-.855-.036-1.282.02-.455.059-.909.065-1.364.008-.502-.024-1.004-.05-1.506-.027-.512-.052-1.025-.035-1.538.009-.256.002-.507-.003-.763-.003-.216.013-.441.095-.643.185-.462.846-.579.859-1.093-.408.046-.825.017-1.233.012-.243-.003-.493-.006-.733.037-.124.022-.339.058-.394.192-.029.068-.089.089-.149.09-.254.777-.405 1.582-.49 2.394-.151 1.439-.119 2.889-.181 4.332-.008.184-.021.371-.031.556.195-2.405.629-4.842 1.113-7.126.033-.155.291-.121.278.037-.114 1.302-.191 2.623-.272 3.946.001.002.004.003.005.006.31 1.087.354 2.28.443 3.405.073.915.349 1.871.356 2.779.421.088.883.047 1.333-.028-.003-.047-.002-.094-.007-.141" fill="#231f20" fill-rule="nonzero" opacity=".2" transform="matrix(5.55556 0 0 5.55556 686.94544688 663.61203228)"/><path d="m0 14.674c-.244-.677-.429-1.377-.594-2.078-.122-.514-.236-1.032-.317-1.555-.117-.749-.006-1.502.179-2.231.244-.965.609-1.895.834-2.865.182-.788.206-1.582.242-2.385.032-.704.066-1.468.383-2.112.135-.277.33-.513.624-.623.371-.138.791-.141 1.181-.161.429-.021.849-.099 1.272-.168.51-.083 1.022-.171 1.53-.272.486-.096.971-.21 1.449-.341-1.802.152-3.656.177-5.409.197-.645.008-1.506.056-2.122-.281.163 5.036-.932 9.949-.533 15.04.456.018.912.025 1.367.036-.025-.068-.062-.133-.086-.201" fill="#231f20" fill-rule="nonzero" opacity=".2" transform="matrix(5.55556 0 0 5.55556 647.83430448 639.48979076)"/><path d="m-193.348 0h193.348v113.386h-193.348z" fill="none" stroke="#231f20" transform="matrix(-5.55556 0 0 5.55556 129.16 136.62)"/><g fill-rule="nonzero"><path d="m0 .483c-1.633-1.309-3.914-1.341-5.755-.485-.181.084-.17.377 0 .464.566.288 1.114.615 1.721.804.243.075.341-.251.162-.384-.491-.364-1.066-.609-1.611-.884v.464c1.797-.846 3.586-.613 5.328.222.121.058.276-.103.155-.201" fill="#231f20" transform="matrix(5.55556 0 0 5.55556 679.22 480.72)"/><path d="m0-2.193c-1.515-.072-3.419-.059-4.846.553-.6.258-1.5 1.093-.7 1.657.076.055.196-.001.217-.088.261-1.125 1.227-1.228 2.21-1.416 1.03-.196 2.071-.273 3.119-.279.275-.002.273-.414 0-.427" fill="#231f20" transform="matrix(5.55556 0 0 5.55556 663.82 496.42)"/><path d="m0-12.181c-1.712 1.373-1.368 5.48-.926 7.309.567 2.339 2.069 4.179 4.383 4.906.477.15.682-.599.206-.746-2.23-.692-3.496-2.573-3.967-4.782-.319-1.495-.625-5.232.634-6.357.227-.204-.101-.514-.33-.33" fill="#231f20" transform="matrix(5.55556 0 0 5.55556 636.76 562.02)"/><path d="m0 1.111c.028-.197.06-.394.086-.591-.044.075-.087.151-.13.227.629-.303 1.294-.426 1.99-.386-.083-.144-.165-.287-.247-.431-.202.31-.551.962-.19 1.262.06.05.16.082.231.03.301-.223.255-.684.453-1.003.119-.191-.038-.423-.247-.43-.793-.029-1.55.145-2.256.504-.077.038-.136.14-.13.227.013.179.032.359.047.538.018.206.358.293.393.053" fill="#231f20" transform="matrix(5.55556 0 0 5.55556 681.5 477.82)"/><path d="m0-.676c.674-.449 1.541-.602 2.248-.125.332.225.577.589.693.967.098.318.038.59.202.876.058.103.237.146.319.041.576-.733-.27-1.974-.919-2.387-.882-.56-2.061-.431-2.805.288-.174.168.054.479.262.34" fill="#231f20" transform="matrix(5.55556 0 0 5.55556 691.59 488.02)"/><path d="m0-13.969c2.369 1.24 1.968 4.52 1.296 6.635-.794 2.497-1.736 4.673-4.819 5.03-.098.011-.133.124-.05.183 4.033 2.879 9.05-9.785 3.904-12.415-.375-.191-.706.37-.331.567" fill="#231f20" transform="matrix(5.55556 0 0 5.55556 699.89 567.92)"/><path d="m0-1.181c-.262.375-.812 1.078-1.275.541-.247-.287-.385-.632-.829-.595-.477.041-.478.794 0 .748.096-.008.395.489.506.564.237.158.513.204.788.141.596-.137.967-.639 1.274-1.128.187-.296-.269-.552-.464-.271" fill="#231f20" transform="matrix(5.55556 0 0 5.55556 679.46 561.32)"/><path d="m0-1.128c-.179.384-.509.643-.945.629-.452-.014-.639-.346-.974-.578-.167-.115-.429.037-.415.239.046.666.849 1.044 1.454.988.6-.056 1.094-.566 1.234-1.129.051-.204-.257-.355-.354-.149" fill="#231f20" transform="matrix(5.55556 0 0 5.55556 667.88 562.02)"/><path d="m0-.574c-.89 1.583 2.371 1.217 2.978 1.204.56-.012 1.439.113 1.857-.381.451-.532.025-1.117-.41-1.474-.438-.358-.94.279-.478.619.774.568-.293.533-.474.547-.329.025-.661.037-.992.056-.134.007-2.336.224-2.067-.329.134-.275-.261-.514-.414-.242" fill="#231f20" transform="matrix(5.55556 0 0 5.55556 656.56 565.32)"/><path d="m0-12.831c-2.177.588-5.12 1.542-5.79 3.941-.571 2.049-1.044 3.83-1.92 5.794-.446 1.001-.816 1.691-.448 2.792.133.398.733.239.633-.174-.413-1.696 1.772-5.294 2.179-7.07.337-1.47.435-2.186 1.814-3.079 1.138-.737 2.391-1.257 3.68-1.666.341-.108.201-.632-.148-.538" fill="#231f20" transform="matrix(5.55556 0 0 5.55556 657.91 633.22)"/><path d="m0-8.972c.303 2.191.341 4.346.265 6.549-.027.755-.176 1.79.389 2.404.592.641 1.702.561 2.487.552 2.522-.029 5.259-.051 7.736-.479.382-.066.25-.601-.085-.631-2.33-.211-4.744.207-7.083.293-.73.027-2.105.264-2.579-.44-.407-.605-.079-2.17-.068-2.846.03-1.875-.12-3.731-.397-5.585-.066-.439-.725-.249-.665.183" fill="#231f20" transform="matrix(5.55556 0 0 5.55556 638.02 637.02)"/><path d="m0-9.282c-.231 1.475-.252 2.978-.33 4.468-.035.668-.228 1.503-.066 2.158.213.865.708.956.472 2.165-.098.501.661.719.772.212.271-1.241-.38-1.969-.496-3.176-.184-1.904.183-3.861.022-5.777-.017-.196-.338-.278-.374-.05" fill="#231f20" transform="matrix(5.55556 0 0 5.55556 697.16 636.22)"/><path d="m3.374-3.031c2.225 1.706 3.242 6.78.472 8.485-.431.266-.905-.375-.472-.63 2.379-1.394 1.378-5.909-.381-7.37-.306-.255.066-.728.381-.485" fill="#231f20" transform="matrix(2.02983 5.17147 5.17147 -2.02983 691.23 543.52)"/><path d="m3.587-1.408c2.19 3.017 3.238 7.207.573 10.275-.338.388-.914-.175-.573-.561 2.519-2.858 1.199-6.542-.561-9.387-.223-.361.321-.658.561-.327" fill="#231f20" transform="matrix(3.97131 3.88496 3.88496 -3.97131 689.52 573.92)"/><path d="m0 .368c.371-.118.778-.161 1.165-.094.416.072.69.302 1.02.541.274.2.681-.2.475-.475-.657-.879-2.031-.987-2.857-.312-.16.131.011.399.197.34" fill="#231f20" transform="matrix(5.55556 0 0 5.55556 725.21 549.52)"/><path d="m0 3.322c.247-.426.397-.906.581-1.363.17-.423.32-1.001.619-1.359.109-.249.307-.32.595-.214.01.112.018.223.027.335.01.356-.042.713-.116 1.06-.103.485-.339.951-.409 1.437-.026.176.187.364.335.195.071-.083.143-.165.216-.248.004-.005.003-.015-.005-.016-.1-.024-.2-.047-.3-.071.029.112.059.223.089.335.266-.225.291-.635.373-.959.097-.386.183-.775.221-1.172.045-.46.142-1.391-.517-1.477-.505-.065-.936.413-1.136.816-.156.314-.241.659-.345.993-.166.525-.388 1.059-.48 1.602-.025.146.168.25.252.106" fill="#231f20" transform="matrix(5.55556 0 0 5.55556 729.94 518.32)"/><path d="m0-3.371c-.618.076-1.147.667-1.314 1.25-.162.561-.055 1.79.487 2.11.053.032.132.015.161-.042.249-.482-.175-1.022-.188-1.539-.018-.736.528-1.008.991-1.449.112-.106.035-.351-.137-.33" fill="#231f20" transform="matrix(5.55556 0 0 5.55556 729.2 550.92)"/><path d="m0-2.271c.351-.172.544-.092.58.24.046.124.164.21.302.172.639-.179.462.31.452.53-.003.078.045.148.107.188.793.5-.735 1.613-1.247 1.58-.058-.004-.099.042-.12.091-.015.038-.031.076-.047.114-.084.206.155.374.334.334.796-.176 2.134-1.17 1.653-2.144-.032-.063-.084-.116-.116-.178-.035-.027-.07-.054-.105-.081-.093-.053-.08-.068.04-.045.006-.143.084-.227.051-.381-.111-.506-.653-.515-1.068-.49l.238.18c-.206-.703-.839-1.128-1.378-.435-.177.227.124.552.324.325" fill="#231f20" transform="matrix(5.55556 0 0 5.55556 739.36 549.82)"/><path d="m0 3.521c.965.447 2.158.833 2.942-.137.416-.513.727-1.166 1.052-1.74.382-.673.815-1.36 1.027-2.107.071-.249-.265-.37-.402-.17-.517.758-.855 1.642-1.341 2.425-.285.46-.549.883-.967 1.23-.635.528-1.294.26-1.993-.045-.366-.159-.689.372-.318.544" fill="#231f20" transform="matrix(5.55556 0 0 5.55556 613.36 614.92)"/><path d="m0-5.715c-1.37.624-2.33 1.785-.945 2.945-.015-.116-.031-.232-.045-.347-.231.403-.2.936.219 1.22.141.097.276.068.41.139.217.115.222.219.361.404.152.202.222.358.456.493 1.733.997 2.283-1.733 2.493-2.787.072-.359-.433-.502-.55-.151-.146.439-.183.898-.308 1.342-.172.612-.938 1.807-1.584.771-.126-.201-.041-.328-.247-.49-.176-.139-1.007-.206-.755-.652.058-.102.053-.266-.045-.347-1.094-.907.013-1.637.802-2.093.294-.17.036-.583-.262-.447" fill="#231f20" transform="matrix(5.55556 0 0 5.55556 611.6 657.22)"/><path d="m0 1.512c-.104-.209-.3-.276-.489-.396-.225-.143-.424-.312-.603-.509-.312-.345-.556-.756-1.026-.897-.411-.124-.685.498-.295.701.448.234.73.68 1.144.971.328.229.804.544 1.205.372.092-.039.102-.165.064-.242" fill="#231f20" transform="matrix(5.55556 0 0 5.55556 609.83 619.12)"/><path d="m0-7.663c-.801-.002-1.125.433-1.267 1.189-.169.901-.122 1.891-.239 2.805-.135 1.054-.365 2.085-.539 3.132-.061.371.479.539.576.159.271-1.059.388-2.168.492-3.255.078-.809-.265-3.593.977-3.65.243-.011.246-.38 0-.38" fill="#231f20" transform="matrix(5.55556 0 0 5.55556 597.2 660.02)"/><path d="m0-6.405c.882 1.326 2.029 2.534 3.083 3.727.985 1.114 2.073 2.095 3.406 2.772.429.217.809-.43.378-.646-2.736-1.376-4.317-4.132-6.609-6.052-.133-.112-.368.033-.258.199" fill="#231f20" transform="matrix(5.55556 0 0 5.55556 585.63 693.22)"/><path d="m.557-.238c.345.321.539.759.539 1.23-.002.349-.554.36-.539.017.016-.341-.092-.647-.333-.893-.22-.222.103-.568.333-.354" fill="#231f20" transform="matrix(4.04896 3.80397 3.80397 -4.04896 621.93 690.92)"/><path d="m-.155-7.312c.107 2.374.281 4.669.587 7.027.05.377-.496.528-.587.142-.53-2.277-.679-4.866-.367-7.181.031-.233.356-.227.367.012" fill="#231f20" transform="matrix(-5.5526 -.181341 -.181341 5.5526 631.74 689.82)"/><path d="m0 1.002c-.086-.273-.416-.537-.654-.681-.141-.086-.292-.152-.434-.234-.158-.091-.277-.22-.447-.289-.197-.079-.331.143-.307.307.058.376.547.509.841.646.282.132.551.532.884.457.086-.019.142-.123.117-.206" fill="#231f20" transform="matrix(5.55556 0 0 5.55556 635.29 642.72)"/><path d="m0-4.846c-.456 1.363-.54 3.257-.435 4.679.016.218.374.305.413.055.11-.722.081-1.46.109-2.19.032-.836.165-1.674.171-2.509.001-.152-.212-.173-.258-.035" fill="#231f20" transform="matrix(5.55556 0 0 5.55556 628.28 678.52)"/><path d="m-.77-15.604c.406 5.245 1.264 10.034.754 15.339-.045.48-.801.475-.754-.01.498-5.185-.589-10.202-.328-15.333.012-.214.311-.204.328.004" fill="#231f20" transform="matrix(-5.5551 -.0717584 -.0717584 5.5551 636.45 724.12)"/><path d="m0 .471c1.245.244 2.496.265 3.762.298.833.022 1.639.117 2.301-.457.279-.241-.089-.727-.397-.515-.757.521-1.923.285-2.788.271-.938-.015-1.877-.027-2.814-.074-.269-.013-.335.424-.064.477" fill="#231f20" transform="matrix(5.55556 0 0 5.55556 637.71 721.92)"/><path d="m1.728-1.802c.574 1.066.547 2.362.543 3.543-.001.348-.544.391-.543.04.007-1.091.057-2.361-.435-3.361-.122-.247.303-.468.435-.222" fill="#231f20" transform="matrix(.410913 5.54034 5.54034 -.410913 674.76 653.92)"/><path d="m-.696-10.631c.497 3.35.884 7.019.584 10.401-.029.317-.547.386-.584.042-.378-3.423-.192-6.978-.279-10.424-.004-.158.256-.176.279-.019" fill="#231f20" transform="matrix(-5.54505 -.341512 -.341512 5.54505 667.59 723.62)"/><path d="m0 6.32c.022-.947-.286-1.952-.362-2.911-.09-1.125-.134-2.318-.444-3.405-.083-.291-.499-.222-.515.07-.118 2.102.373 4.295.909 6.302.061.231.407.179.412-.056" fill="#231f20" transform="matrix(5.55556 0 0 5.55556 679.62 687.02)"/><path d="m0-14.928c-.146 2.17-.109 4.351.129 6.513.295 2.679.276 5.365.574 8.033.051.453.767.458.716 0-.268-2.389-.238-4.76-.595-7.143-.366-2.443-.614-4.934-.706-7.403-.003-.076-.113-.075-.118 0" fill="#231f20" transform="matrix(5.55556 0 0 5.55556 699.28 718.32)"/><path d="m0 1.337c.812.36 1.807.092 2.647-.079.853-.172 1.789-.342 2.443-.954.271-.255-.139-.664-.409-.409-.525.496-1.324.629-2.006.78-.755.167-1.711.433-2.478.194-.27-.084-.466.349-.197.468" fill="#231f20" transform="matrix(5.55556 0 0 5.55556 677.45 716.42)"/><path d="m0-3.915c.092.687.428 1.583.177 2.236-.315.823-1.243 1.103-2.019 1.26-1.31.264-2.727.207-4.046.027-.264-.036-1.026-.043-1.219-.254-.547-.599.52-1.419 1.023-1.71.924-.537 1.989-.775 2.884-1.371.294-.195.018-.672-.279-.476-1.226.813-3.395 1.027-4.12 2.465-.613 1.216.115 1.655 1.176 1.852 1.777.329 3.814.37 5.545-.212 1.958-.658 2.029-2.062 1.277-3.871-.078-.188-.432-.196-.399.054" fill="#231f20" transform="matrix(5.55556 0 0 5.55556 665.03 746.82)"/><path d="m0-3.082c-.508 1.93-.268 3.317 1.812 3.711 1.843.35 4.051.046 5.796-.618.921-.35 1.226-.964.571-1.879-1.011-1.413-3.299-1.331-4.732-2.036-.316-.157-.596.318-.278.476.849.42 1.783.589 2.682.872.864.272 3.168 1.484 1.36 2.089-1.154.385-2.42.605-3.633.65-.655.024-1.503.059-2.117-.227-1.187-.553-1.07-1.882-1.061-2.984.002-.228-.34-.277-.4-.054" fill="#231f20" transform="matrix(5.55556 0 0 5.55556 682.2 740.72)"/><path d="m0-3.782c-.63 1.71-.62 3.17 1.269 3.775 1.783.572 3.899.445 5.704.031 1.014-.233 1.712-.593 1.168-1.778-.69-1.503-3.009-1.649-4.268-2.409-.305-.184-.582.291-.278.475.874.532 1.885.736 2.8 1.181.436.212 1.788 1 1.342 1.696-.136.214-.971.286-1.186.327-1.203.231-2.477.33-3.699.216-.752-.07-1.754-.21-2.263-.833-.604-.74-.268-1.761-.19-2.627.022-.243-.326-.255-.399-.054" fill="#231f20" transform="matrix(5.55556 0 0 5.55556 854.88 745.42)"/><path d="m0-3.227c.037.784.337 1.93-.266 2.593-.571.629-1.668.716-2.455.749-1.295.054-2.66-.12-3.907-.471-.365-.103-.699-.146-.823-.447-.306-.742 1.219-1.403 1.7-1.597.977-.394 2.029-.588 2.958-1.097.312-.171.034-.646-.278-.476-1.384.755-3.482.776-4.531 2.08-.837 1.042-.389 1.733.697 2.063 1.761.537 3.882.746 5.682.318 2.033-.483 2.215-1.89 1.623-3.769-.066-.211-.411-.184-.4.054" fill="#231f20" transform="matrix(5.55556 0 0 5.55556 828.22 742.12)"/><path d="m0-2.48c-.96-.221-2.213.01-2.992.642-.72.585-.387 1.48.305 1.927.205.132.496-.139.346-.346-.137-.187-.441-.45-.472-.669-.07-.483.643-.732.962-.847.582-.209 1.188-.262 1.799-.32.206-.02.284-.334.052-.387" fill="#231f20" transform="matrix(5.55556 0 0 5.55556 822.72 501.42)"/><path d="m0-11.04c-1.735 2.616-1.309 6.141.518 8.596.551.742 1.521 2.173 2.447 2.427.452.124 1.15-.061 1.642-.04.907.038 1.176.123 1.959-.223.279-.123.08-.57-.204-.486-2.583.759-4.314-.39-5.687-2.52-1.556-2.413-1.325-5.066-.459-7.663.045-.132-.145-.198-.216-.091" fill="#231f20" transform="matrix(5.55556 0 0 5.55556 808.03 562.22)"/><path d="m0 15.413c-5.049.054-1.596-7.085-1.897-10.013-.163-1.567-.839-3.132-2.147-4.064-2.423-1.73-5.449-.318-5.665 2.598-.031.422.623.418.656 0 .379-4.722 5.127-2.28 6.074.062.61 1.506.428 3.068.083 4.619-.311 1.4-1.083 2.887-.921 4.363.225 2.05 1.875 3.223 3.873 2.848.235-.045.176-.415-.056-.413" fill="#231f20" transform="matrix(5.55556 0 0 5.55556 883.3 476.82)"/><path d="m0 9.505c-3.202 1.062-5.928-.171-7.561-3.082-1.529-2.727-.537-4.848.186-7.585.059-.226-.271-.378-.384-.163-1.628 3.085-1.734 5.991.217 8.87 1.794 2.647 4.651 3.5 7.673 2.435.296-.104.173-.576-.131-.475" fill="#231f20" transform="matrix(5.55556 0 0 5.55556 881.38 510.12)"/><path d="m0-1.585c-.228.403-.221.912.063 1.288.271.357.803.567 1.235.401.244-.094.242-.541-.069-.502-.267.033-.534.036-.734-.176-.196-.208-.21-.524-.081-.769.143-.272-.262-.512-.414-.242" fill="#231f20" transform="matrix(5.55556 0 0 5.55556 830.29 508.32)"/><path d="m0-3.713c-.851.244-1.274 1.089-1.325 1.931-.071 1.157 1.196 1.664 2.181 1.823.326.052.435-.363.135-.487-.637-.265-1.766-.437-1.753-1.336.01-.591.306-1.247.9-1.431.317-.099.184-.593-.138-.5" fill="#231f20" transform="matrix(5.55556 0 0 5.55556 830.07 514.62)"/><path d="m1.396-.634c-.426.962-.125 1.755.424 2.568.189.28-.124.673-.424.45-.968-.717-1.087-2.235-.6-3.252.177-.369.768-.148.6.234" fill="#231f20" transform="matrix(2.23324 5.08693 5.08693 -2.23324 823.68 480.22)"/><path d="m0-11.147c2.048-1.099 2.907 4.774 2.911 4.882.107 2.69-.4 5.422-2.253 7.462-.25.275.159.686.408.409 2.267-2.526 3.182-7.185 2.125-10.442-.463-1.428-1.621-4.194-3.354-2.522-.112.108.031.282.163.211" fill="#231f20" transform="matrix(5.55556 0 0 5.55556 863.36 549.42)"/><path d="m0-1.62c-.067.374-.061.697.04 1.065.027.101.116.156.215.164 1.238.095 3.33.548 4.247-.576.234-.287-.179-.698-.408-.408-.458.579-1.192.551-1.866.541-.354-.005-.708-.019-1.063-.02-.606-.001-.893.004-.894-.729 0-.151-.243-.194-.271-.037" fill="#231f20" transform="matrix(5.55556 0 0 5.55556 829.18 570.22)"/><path d="m0-.955c-.3-.313-.946-.062-1.303.041-.496.142-1.071.333-1.472.665-.077.063-.112.201-.079.294.007.018.014.036.02.054.051.139.175.214.322.183.083-.017.144-.066.178-.142.035-.077.041-.183-.031-.245-.006-.005-.012-.01-.017-.015-.073-.062-.183-.074-.256 0-.005.005-.008.01-.013.015.082-.011.163-.021.245-.032.026.033.052.064.078.097l-.068.254c.393-.307.929-.521 1.399-.674.324-.105.825-.105 1.006-.427.012-.023.009-.05-.009-.068" fill="#231f20" transform="matrix(5.55556 0 0 5.55556 830.63 570.12)"/><path d="m0-11.802c-.583 1.597-.479 3.375-.508 5.056-.034 2.071-.044 4.143-.049 6.214-.001.209.166.339.36.359 3.374.36 6.75.326 10.103-.215.397-.065.308-.763-.096-.709-1.662.218-3.32.4-4.997.437-1.244.027-3.948.481-4.651-.701-.281-.471.004-1.971.005-2.485.001-.829.003-1.657.004-2.486.003-1.772-.198-3.643.127-5.388.036-.196-.23-.269-.298-.082" fill="#231f20" transform="matrix(5.55556 0 0 5.55556 814.03 635.82)"/><path d="m1.281-11.022c-.393 3.63.562 7.152.798 10.777.033.514-.768.565-.798.051-.204-3.511-1.533-7.534-.338-10.946.072-.206.357-.07.338.118" fill="#231f20" transform="matrix(-5.54417 .355554 .355554 5.54417 876.99 629.72)"/><path d="m-.934-8.966c1.003 2.901 1.367 6.041.688 9.059-.1.442-.751.31-.688-.136.417-3.007.361-5.815-.565-8.728-.116-.365.439-.56.565-.195" fill="#231f20" transform="matrix(-5.45039 -1.07588 -1.07588 5.45039 797.55 678.82)"/><path d="m6.276-7.997c2.476 4.675 2.525 9.654.703 14.564-.147.396-.838.148-.703-.258 1.609-4.833 1.65-9.356-.534-14.051-.141-.304.375-.554.534-.255" fill="#231f20" transform="matrix(.264841 5.54924 5.54924 -.264841 843.62 646.02)"/><path d="m0-7.938c1.673 2.356 1.244 5.575 2.008 8.247.099.346.648.288.638-.086-.044-1.585-.402-3.202-.677-4.762-.24-1.362-.565-2.609-1.407-3.727-.248-.327-.807-.017-.562.328" fill="#231f20" transform="matrix(5.55556 0 0 5.55556 867.98 677.72)"/><path d="m0-2.018c-.27.296-.58.634-.386 1.056.23.5.972.727 1.456.838.674.155 3.086.209 2.305-1.122-.186-.314-.654-.036-.487.285.279.539-1.83.226-1.981.181-.223-.065-.684-.148-.807-.365-.137-.241.021-.53.091-.761.034-.108-.114-.197-.191-.112" fill="#231f20" transform="matrix(5.55556 0 0 5.55556 812.83 724.82)"/><path d="m0-.897c-.524 1.578 2.25 1.303 3.039 1.181.421-.066 1.02-.243 1.133-.715.072-.302-.054-.849-.318-1.025-.183-.122-.388.044-.405.232-.047.537.32.762-.49.915-.556.106-2.44.37-2.476-.523-.01-.28-.395-.33-.483-.065" fill="#231f20" transform="matrix(5.55556 0 0 5.55556 853.26 723.12)"/><path d="m0-5.078c-.209.818-.271 1.685-.389 2.521-.11.783-.296 1.563-.351 2.352-.017.24.35.279.412.056.411-1.474.654-3.397.451-4.912-.009-.064-.103-.091-.123-.017" fill="#231f20" transform="matrix(5.55556 0 0 5.55556 817.55 715.22)"/><path d="m0-1.144-.056.04c-.085.06-.112.154-.065.249.245.497.959.598 1.453.658.428.052 1.424.209 1.641-.282.018-.041.019-.09-.016-.123-.311-.297-.836-.065-1.235-.081-.612-.023-1.139-.163-1.662-.461-.018-.01-.043-.012-.06 0" fill="#231f20" transform="matrix(5.55556 0 0 5.55556 813.83 720.02)"/><path d="m0-5.008c-.37.648-.391 1.5-.482 2.229-.066.523-.123 1.05-.23 1.567-.075.365-.224.694-.195 1.067.008.109.15.195.234.097.431-.496.409-1.342.483-1.975.109-.95.347-2.006.294-2.957-.003-.053-.076-.078-.104-.028" fill="#231f20" transform="matrix(5.55556 0 0 5.55556 833.61 717.82)"/><path d="m.384-5.254c.42 1.561.412 3.385.472 4.997.01.302-.463.267-.472-.035-.051-1.585-.419-3.393-.116-4.956.012-.063.099-.073.116-.006" fill="#231f20" transform="matrix(-5.45105 1.07252 1.07252 5.45105 859.91 717.82)"/><path d="m1.353-1.217c.565.763.679 2.111.47 3.012-.06.26-.474.222-.47-.053.014-.945.023-1.839-.376-2.727-.115-.256.202-.467.376-.232" fill="#231f20" transform="matrix(1.56932 5.3293 5.3293 -1.56932 860.46 709.72)"/><path d="m0-5.413c-.182.936.008 1.977.12 2.915.096.8.127 1.673.458 2.412.065.145.276.06.281-.077.035-.896-.234-1.828-.339-2.718-.099-.839-.113-1.74-.413-2.532-.017-.046-.095-.059-.107 0" fill="#231f20" transform="matrix(5.55556 0 0 5.55556 868.52 715.72)"/><path d="m0-6.94c-1.77.147-2.599 2.706-3.048 4.132-.203.647-.521 1.44-.055 2.032.545.69 1.725.794 2.521.702.356-.042.374-.595 0-.571-.914.057-2.099.079-2.164-1.171-.024-.437.287-1.061.435-1.469.416-1.145 1.056-2.909 2.362-3.281.199-.057.17-.392-.051-.374" fill="#231f20" transform="matrix(5.55556 0 0 5.55556 814.12 608.02)"/><path d="m0-7.539c-.029-.003-.059-.007-.088-.011-.068-.008-.16.047-.188.109-.015.031-.029.062-.043.093-.055.12-.034.254.086.328 1.228.763 1.564 2.223 1.779 3.606.295 1.897-.343 2.091-1.685 2.946-.165.105-.083.321.093.343 1.171.144 2.65-1.109 2.475-2.326-.161-1.117-.562-2.431-.99-3.478-.127-.312-.274-.612-.496-.867-.339-.39-.507-.475-.89-.35.225-.074.166-.367-.053-.393" fill="#231f20" transform="matrix(5.55556 0 0 5.55556 869.22 608.32)"/><path d="m-1.462-3.988c.013 1.309.254 2.66.667 3.9.161.482-.526.717-.667.221-.392-1.376-.502-2.725-.386-4.147.02-.251.384-.22.386.026" fill="#231f20" transform="matrix(-4.59873 -3.11705 -3.11705 4.59873 776.84 616.92)"/><path d="m0-4.858c-1.013-.264-2.486.27-2.022 1.563l.328-.431c-.845.102-1.199.814-.981 1.625.223.832.894 1.381 1.742 1.449-.112-.112-.224-.224-.337-.336-.022.844.667 1.252 1.415.924.335-.147.096-.712-.25-.593-.165-.111-.328-.221-.491-.331.006-.193-.16-.322-.337-.337-.418-.035-.717-.257-.921-.611-.143-.249-.48-1.03.16-1.109.2-.025.412-.2.328-.431-.33-.912.83-.849 1.29-.815.328.024.388-.486.076-.567" fill="#231f20" transform="matrix(5.55556 0 0 5.55556 781.8 646.02)"/><path d="m0 5.394c.424 1.406 2.164-.88 2.394-1.379.176-.385.22-.826.45-1.175.272-.412.769-.681 1.097-1.065.651-.759 1.12-1.705 1.437-2.649.109-.324-.39-.532-.552-.232-.324.602-.564 1.248-.929 1.829-.406.648-1.023.996-1.483 1.548-.225.269-.249.456-.338.803-.057.226-1.254 2.909-1.782 2.196-.102-.136-.351-.064-.294.124" fill="#231f20" transform="matrix(5.55556 0 0 5.55556 782.37 613.82)"/><path d="m0-2.247c-.066-.216-.315-.258-.472-.092-.217.229-.1.721-.03.988.14.529.906 1.609 1.555 1.263.098-.053.175-.208.13-.319-.143-.348-.554-.41-.803-.685-.19-.209-.584-.754-.411-1.049-.101.013-.2.026-.3.039.012.009.023.018.035.027.127.099.355.015.296-.172" fill="#231f20" transform="matrix(5.55556 0 0 5.55556 881.33 612.32)"/><path d="m0 1.292c.787.816 1.952 1.157 3.038.753 1.15-.427 1.702-1.431 1.916-2.575.065-.345-.443-.627-.611-.258-.362.789-.399 1.531-1.241 2.029-.88.52-1.963.306-2.711-.339-.267-.229-.64.132-.391.39" fill="#231f20" transform="matrix(5.55556 0 0 5.55556 868.75 612.02)"/><path d="m0 1.373c.097-.3.188-.559.441-.766.244-.198.539-.285.849-.264-.09-.09-.18-.179-.269-.269-.01.249.009.487.135.704.115.198.473.125.453-.122-.015-.198-.058-.383-.05-.582.006-.153-.128-.26-.269-.269-.805-.055-1.784.626-1.741 1.507.013.259.371.311.451.061" fill="#231f20" transform="matrix(5.55556 0 0 5.55556 883.87 599.72)"/><path d="m0-1.031c.286-.136.784-.348 1.103-.222-.065-.049-.129-.099-.195-.149.226.312.013.884-.164 1.165-.191.304-.586.44-.724.754-.064.143-.023.329.15.371.418.104.783-.285 1.017-.594.276-.364.44-.809.459-1.265.014-.369-.054-.853-.48-.948-.473-.104-1.067.148-1.478.355-.356.18-.043.702.312.533" fill="#231f20" transform="matrix(5.55556 0 0 5.55556 892.55 611.32)"/><path d="m0 4.324c.617-1.193 1.355-2.673 1.337-4.045-.003-.273-.413-.42-.544-.148-.288.6-.371 1.283-.543 1.924-.192.718-.331 1.441-.495 2.165-.033.143.173.245.245.104" fill="#231f20" transform="matrix(5.55556 0 0 5.55556 891.58 577.82)"/><path d="m0 1.517c.686-.908 2.173-.69 3.002-1.36.186-.151.023-.444-.187-.449-.644-.013-1.437.372-2.027.614-.501.205-.985.443-1.309.89-.23.318.291.61.521.305" fill="#231f20" transform="matrix(5.55556 0 0 5.55556 898.96 571.32)"/><path d="m0-9.68c.041.022.771.274.783.299.073.144-.763 2.487-.84 2.779-.564 2.146-1.164 4.284-1.665 6.445-.084.366.472.521.564.156.801-3.18 1.608-6.361 2.358-9.553.036-.153-.071-.307-.234-.308-.352-.001-.633-.182-.966-.01-.074.037-.072.153 0 .192" fill="#231f20" transform="matrix(5.55556 0 0 5.55556 914.29 625.42)"/><path d="m-.434-3.916c.246 1.183.451 2.411.6 3.609.047.388-.522.502-.6.114-.241-1.193-.366-2.485-.364-3.704 0-.212.322-.216.364-.019" fill="#231f20" transform="matrix(-5.53688 -.455188 -.455188 5.53688 882.72 642.12)"/><path d="m0 3.125c1.028.363 1.299-.229 2.059-.778.82-.592 1.827-1.18 2.206-2.167.145-.379-.464-.543-.608-.168-.304.795-1.23 1.37-1.877 1.859-.584.441-.834 1.011-1.667.843-.269-.054-.372.32-.113.411" fill="#231f20" transform="matrix(5.55556 0 0 5.55556 884.28 624.52)"/><path d="m.037-.08c.011.026.023.051.034.076.01.023-.019.041-.034.021-.017-.022-.034-.044-.052-.066-.022-.031.036-.066.052-.031" fill="#231f20" transform="matrix(-4.75879 2.86674 2.86674 4.75879 901 581.52)"/><path d="m0-3.521c-.223 1.06-.589 2.363-.458 3.448.026.222.354.308.419.057.127-.489.114-1 .158-1.501.056-.638.137-1.273.235-1.906.036-.228-.305-.333-.354-.098" fill="#231f20" transform="matrix(5.55556 0 0 5.55556 899.85 603.32)"/><path d="m0-2.711c-.447.652-.735 1.789-.659 2.578.019.197.315.27.367.05.101-.419.111-.853.203-1.275.093-.421.27-.821.354-1.242.032-.162-.17-.248-.265-.111" fill="#231f20" transform="matrix(5.55556 0 0 5.55556 894.35 630.82)"/><path d="m0-1.213c.128.288.379.411.654.534.177.078.344.158.486.293.12.114.2.257.332.361.259.204.496-.226.194-.334-.261-.095-.437-.36-.699-.476-.289-.128-.612-.204-.814-.467-.069-.09-.2-.016-.153.089" fill="#231f20" transform="matrix(5.55556 0 0 5.55556 595.62 633.02)"/><path d="m27.719-27.342c.221 18.481.588 36.967.623 55.449.001.402-.614.409-.623.007-.41-18.477-.49-36.967-.715-55.447-.005-.46.71-.47.715-.009" fill="#231f20" transform="matrix(.0670201 5.55515 5.55515 -.0670201 1041.96 576.12)"/><path d="m0 .715h4.135c.46 0 .461-.715 0-.715h-4.135c-.46 0-.461.715 0 .715" fill="#231f20" transform="matrix(5.55556 0 0 5.55556 830.83 727.92)"/><path d="m5.674-5.322c.239 3.774.479 7.549.714 11.325.028.46-.684.505-.714.045-.244-3.775-.482-7.55-.721-11.325-.029-.464.691-.51.721-.045" fill="#231f20" transform="matrix(.351291 5.54444 5.54444 -.351291 754.26 698.62)"/><path d="m0 .715h2.54c.46 0 .461-.715 0-.715h-2.54c-.461 0-.462.715 0 .715" fill="#231f20" transform="matrix(5.55556 0 0 5.55556 668.16 727.92)"/><path d="m45.354-45.16c.9 30.191.508 60.47.715 90.674.003.461-.712.466-.715.004-.197-30.203-.995-60.474-.499-90.674.005-.32.489-.325.499-.004" fill="#231f20" transform="matrix(.037189 5.55544 5.55544 -.037189 379.82 477.72)"/><path d="m0 43.078h-69.773c-2.226 0-4.031-1.804-4.031-4.03v-35.018c0-2.226 1.805-4.03 4.031-4.03h69.773c2.226 0 4.03 1.804 4.03 4.03v35.018c0 2.226-1.804 4.03-4.03 4.03z" fill="#fff" stroke="#f69679" transform="matrix(5.55556 0 0 5.55556 437.94 500.22)"/><path d="m0 31.71h-174.909c-2.226 0-4.029-1.804-4.029-4.03v-23.65c0-2.225 1.803-4.03 4.029-4.03h174.909c2.226 0 4.029 1.805 4.029 4.03v23.65c0 2.226-1.803 4.03-4.029 4.03z" fill="#fff" stroke="#00aeef" transform="matrix(5.55556 0 0 5.55556 1071.58 27.93)"/><path d="m0 6.055s40.536 10.933 53.083-16.988c-9.942 12.483-33.583 18.669-52.906 11.489" fill="#fff" stroke="#f69679" stroke-linecap="round" stroke-linejoin="round" transform="matrix(5.55556 0 0 5.55556 454.65 679.62)"/><path d="m0-53.142s-1.295 41.861 34.981 53.142c-11.723-7.52-28.706-26.773-23.109-52.965" fill="#fff" stroke="#00aeef" stroke-linecap="round" stroke-linejoin="round" transform="matrix(5.55556 0 0 5.55556 383.16 494.52)"/><path d="m.075 0h.365v-.073h-.282v-.667h-.083z" fill="#231f20" transform="matrix(55.5556 0 0 55.5556 152.27326812 100.011479)"/><path d="m.039-.269c0 .151.112.283.285.283.174 0 .286-.132.286-.283s-.112-.284-.286-.284c-.173 0-.285.133-.285.283zm.073 0c0-.123.093-.215.212-.215.12 0 .212.092.212.215s-.092.215-.212.215c-.119 0-.212-.092-.212-.214z" fill="#231f20" transform="matrix(55.5556 0 0 55.5556 175.43995332 100.011479)"/><path d="m.072 0h.071v-.111c.04.077.119.126.22.126.163 0 .279-.123.279-.285 0-.168-.124-.283-.277-.283-.093.001-.174.047-.219.123v-.31h-.074zm.496-.269c0 .104-.073.215-.216.215-.125 0-.21-.099-.21-.216 0-.119.089-.215.213-.215.12 0 .213.092.213.215z" fill="#231f20" transform="matrix(55.5556 0 0 55.5556 227.49555052 100.011479)"/><path d="m.567-.538h-.074v.304c0 .112-.064.179-.176.18-.121.001-.173-.077-.173-.193v-.291h-.073v.305c0 .131.059.245.227.248.096.001.169-.041.199-.111v.096h.07z" fill="#231f20" transform="matrix(55.5556 0 0 55.5556 265.27335852 100.011479)"/><path d="m.595-.248c.008-.086-.022-.169-.084-.229-.051-.049-.121-.076-.197-.076-.161 0-.283.127-.283.285 0 .134.097.283.284.283.055 0 .108-.015.153-.044.046-.029.084-.073.109-.131h-.077c-.035.07-.102.111-.185.111-.091.001-.206-.064-.21-.199zm-.489-.059c.007-.098.093-.183.209-.183.111-.003.202.089.207.183z" fill="#231f20" transform="matrix(55.5556 0 0 55.5556 300.77338692 100.011479)"/><path d="m.072 0h.074v-.304c0-.112.064-.179.175-.18.121-.002.173.077.173.193v.291h.073v-.306c0-.131-.059-.245-.226-.247-.096-.002-.169.041-.2.111.001-.036.001-.066.001-.096h-.07z" fill="#231f20" transform="matrix(55.5556 0 0 55.5556 335.66230372 100.011479)"/><path d="m.039-.269c0 .151.112.283.285.283.174 0 .286-.132.286-.283s-.112-.284-.286-.284c-.173 0-.285.133-.285.283zm.073 0c0-.123.093-.215.212-.215.12 0 .212.092.212.215s-.092.215-.212.215c-.119 0-.212-.092-.212-.214z" fill="#231f20" transform="matrix(55.5556 0 0 55.5556 371.10677652 100.011479)"/><path d="m.595-.248c.008-.086-.022-.169-.084-.229-.051-.049-.121-.076-.197-.076-.161 0-.283.127-.283.285 0 .134.097.283.284.283.055 0 .108-.015.153-.044.046-.029.084-.073.109-.131h-.077c-.035.07-.102.111-.185.111-.091.001-.206-.064-.21-.199zm-.489-.059c.007-.098.093-.183.209-.183.111-.003.202.089.207.183z" fill="#231f20" transform="matrix(55.5556 0 0 55.5556 423.16237372 100.011479)"/><path d="m.387-.403c-.005-.109-.089-.15-.164-.15-.091 0-.168.057-.168.154.002.085.062.116.139.139.093.027.133.052.135.113.001.055-.042.101-.104.101-.054 0-.109-.033-.112-.107h-.073c.001.113.097.168.184.168.102 0 .182-.072.178-.171-.004-.115-.09-.137-.167-.158-.065-.019-.104-.04-.106-.091-.002-.047.034-.087.093-.087.054 0 .092.032.092.089z" fill="#231f20" transform="matrix(55.5556 0 0 55.5556 458.05129052 100.011479)"/><path d="m.61-.538h-.071v.108c-.037-.067-.111-.123-.221-.123-.167 0-.279.128-.279.287 0 .151.109.281.275.281.121 0 .197-.069.222-.124v.313h.074zm-.498.27c.001-.104.072-.217.216-.217.059 0 .114.024.152.064.039.039.062.093.06.153 0 .06-.023.114-.061.152-.039.039-.092.062-.152.062-.124 0-.215-.095-.215-.213z" fill="#231f20" transform="matrix(55.5556 0 0 55.5556 499.05132332 100.011479)"/><path d="m.567-.538h-.074v.304c0 .112-.064.179-.176.18-.121.001-.173-.077-.173-.193v-.291h-.073v.305c0 .131.059.245.227.248.096.001.169-.041.199-.111v.096h.07z" fill="#231f20" transform="matrix(55.5556 0 0 55.5556 536.94024252 100.011479)"/><path d="m.595-.248c.008-.086-.022-.169-.084-.229-.051-.049-.121-.076-.197-.076-.161 0-.283.127-.283.285 0 .134.097.283.284.283.055 0 .108-.015.153-.044.046-.029.084-.073.109-.131h-.077c-.035.07-.102.111-.185.111-.091.001-.206-.064-.21-.199zm-.489-.059c.007-.098.093-.183.209-.183.111-.003.202.089.207.183z" fill="#231f20" transform="matrix(55.5556 0 0 55.5556 572.44027092 100.011479)"/><path d="m627.32920372 58.900335h4.1111144v41.111144h-4.1111144z" fill="#231f20" stroke-width="55.5556"/><path d="m.612-.538h-.074v.113c-.026-.061-.105-.128-.22-.128-.164 0-.279.126-.279.284 0 .148.104.284.279.284.096 0 .178-.045.22-.126v.111h.074zm-.5.269c0-.12.09-.216.214-.216.095 0 .167.055.197.129.012.026.018.056.017.086 0 .029-.006.059-.018.085-.029.076-.099.131-.194.131-.148 0-.215-.117-.216-.214z" fill="#231f20" transform="matrix(55.5556 0 0 55.5556 635.38476572 100.011479)"/><path d="m.072 0h.074v-.3c0-.057.013-.098.036-.129.022-.032.064-.057.114-.055.055.001.093.022.118.057.021.033.03.068.028.128v.299h.074v-.299c0-.061.005-.091.032-.129.025-.037.071-.056.118-.056.051 0 .085.017.107.045.031.035.04.086.04.143v.296h.074v-.299c0-.095-.014-.153-.061-.2-.037-.038-.09-.054-.145-.054-.06 0-.113.023-.148.06-.02.021-.031.042-.039.057-.003-.006-.021-.042-.035-.056-.038-.043-.091-.061-.147-.061-.061 0-.136.032-.17.1v-.085h-.07z" fill="#231f20" transform="matrix(55.5556 0 0 55.5556 689.38480892 100.011479)"/><path d="m.612-.538h-.074v.113c-.026-.061-.105-.128-.22-.128-.164 0-.279.126-.279.284 0 .148.104.284.279.284.096 0 .178-.045.22-.126v.111h.074zm-.5.269c0-.12.09-.216.214-.216.095 0 .167.055.197.129.012.026.018.056.017.086 0 .029-.006.059-.018.085-.029.076-.099.131-.194.131-.148 0-.215-.117-.216-.214z" fill="#231f20" transform="matrix(55.5556 0 0 55.5556 742.49596252 100.011479)"/><path d="m.595-.248c.008-.086-.022-.169-.084-.229-.051-.049-.121-.076-.197-.076-.161 0-.283.127-.283.285 0 .134.097.283.284.283.055 0 .108-.015.153-.044.046-.029.084-.073.109-.131h-.077c-.035.07-.102.111-.185.111-.091.001-.206-.064-.21-.199zm-.489-.059c.007-.098.093-.183.209-.183.111-.003.202.089.207.183z" fill="#231f20" transform="matrix(55.5556 0 0 55.5556 780.49599292 100.011479)"/><path d="m.387-.403c-.005-.109-.089-.15-.164-.15-.091 0-.168.057-.168.154.002.085.062.116.139.139.093.027.133.052.135.113.001.055-.042.101-.104.101-.054 0-.109-.033-.112-.107h-.073c.001.113.097.168.184.168.102 0 .182-.072.178-.171-.004-.115-.09-.137-.167-.158-.065-.019-.104-.04-.106-.091-.002-.047.034-.087.093-.087.054 0 .092.032.092.089z" fill="#231f20" transform="matrix(55.5556 0 0 55.5556 815.38490972 100.011479)"/><path d="m.114 0h.073v-.479h.118v-.059h-.118v-.202h-.073v.202h-.106v.059h.106z" fill="#231f20" transform="matrix(55.5556 0 0 55.5556 840.38492972 100.011479)"/><path d="m.072 0h.073v-.293c0-.122.058-.187.162-.187h.007v-.073c-.063.002-.133.023-.172.103v-.088h-.07z" fill="#231f20" transform="matrix(55.5556 0 0 55.5556 857.82938812 100.011479)"/><path d="m.612-.538h-.074v.113c-.026-.061-.105-.128-.22-.128-.164 0-.279.126-.279.284 0 .148.104.284.279.284.096 0 .178-.045.22-.126v.111h.074zm-.5.269c0-.12.09-.216.214-.216.095 0 .167.055.197.129.012.026.018.056.017.086 0 .029-.006.059-.018.085-.029.076-.099.131-.194.131-.148 0-.215-.117-.216-.214z" fill="#231f20" transform="matrix(55.5556 0 0 55.5556 873.38495612 100.011479)"/><path d="m.072 0h.074v-.304c0-.112.064-.179.175-.18.121-.002.173.077.173.193v.291h.073v-.306c0-.131-.059-.245-.226-.247-.096-.002-.169.041-.2.111.001-.036.001-.066.001-.096h-.07z" fill="#231f20" transform="matrix(55.5556 0 0 55.5556 927.38499932 100.011479)"/><path d="m.039-.269c0 .151.112.283.285.283.174 0 .286-.132.286-.283s-.112-.284-.286-.284c-.173 0-.285.133-.285.283zm.073 0c0-.123.093-.215.212-.215.12 0 .212.092.212.215s-.092.215-.212.215c-.119 0-.212-.092-.212-.214z" fill="#231f20" transform="matrix(55.5556 0 0 55.5556 962.82947212 100.011479)"/><path d="m.387-.403c-.005-.109-.089-.15-.164-.15-.091 0-.168.057-.168.154.002.085.062.116.139.139.093.027.133.052.135.113.001.055-.042.101-.104.101-.054 0-.109-.033-.112-.107h-.073c.001.113.097.168.184.168.102 0 .182-.072.178-.171-.004-.115-.09-.137-.167-.158-.065-.019-.104-.04-.106-.091-.002-.047.034-.087.093-.087.054 0 .092.032.092.089z" fill="#231f20" transform="matrix(55.5556 0 0 55.5556 998.88505652 100.011479)"/><path d="m.61-.74h-.074v.311c-.024-.056-.102-.124-.22-.124-.161 0-.277.123-.277.283 0 .151.106.285.278.285.112 0 .184-.055.222-.126v.111h.071zm-.498.47c0-.121.091-.215.215-.215.06 0 .114.023.152.062.039.038.062.09.062.151.002.06-.021.115-.06.155-.038.039-.093.063-.153.063-.14 0-.215-.107-.216-.215z" fill="#231f20" transform="matrix(55.5556 0 0 55.5556 136.49547772 166.678199)"/><path d="m.072-.637h.074v-.103h-.074zm0 .637h.074v-.538h-.074z" fill="#231f20" transform="matrix(55.5556 0 0 55.5556 174.49550812 166.678199)"/><path d="m.092-.637h.074v-.103h-.074zm.074.099h-.074v.532c0 .08-.007.14-.085.153-.004.001-.009.001-.014.001v.062c.008-.001.016-.001.023-.001.142-.016.15-.121.15-.217z" fill="#231f20" transform="matrix(55.5556 0 0 55.5556 186.60662892 166.678199)"/><path d="m.039-.269c0 .151.112.283.285.283.174 0 .286-.132.286-.283s-.112-.284-.286-.284c-.173 0-.285.133-.285.283zm.073 0c0-.123.093-.215.212-.215.12 0 .212.092.212.215s-.092.215-.212.215c-.119 0-.212-.092-.212-.214z" fill="#231f20" transform="matrix(55.5556 0 0 55.5556 200.66219572 166.678199)"/><path d="m.61-.538h-.071v.108c-.037-.067-.111-.123-.221-.123-.167 0-.279.128-.279.287 0 .151.109.281.275.281.121 0 .197-.069.222-.124v.313h.074zm-.498.27c.001-.104.072-.217.216-.217.059 0 .114.024.152.064.039.039.062.093.06.153 0 .06-.023.114-.061.152-.039.039-.092.062-.152.062-.124 0-.215-.095-.215-.213z" fill="#231f20" transform="matrix(55.5556 0 0 55.5556 252.71779292 166.678199)"/><path d="m.567-.538h-.074v.304c0 .112-.064.179-.176.18-.121.001-.173-.077-.173-.193v-.291h-.073v.305c0 .131.059.245.227.248.096.001.169-.041.199-.111v.096h.07z" fill="#231f20" transform="matrix(55.5556 0 0 55.5556 290.60671212 166.678199)"/><path d="m.595-.248c.008-.086-.022-.169-.084-.229-.051-.049-.121-.076-.197-.076-.161 0-.283.127-.283.285 0 .134.097.283.284.283.055 0 .108-.015.153-.044.046-.029.084-.073.109-.131h-.077c-.035.07-.102.111-.185.111-.091.001-.206-.064-.21-.199zm-.489-.059c.007-.098.093-.183.209-.183.111-.003.202.089.207.183z" fill="#231f20" transform="matrix(55.5556 0 0 55.5556 326.10674052 166.678199)"/><path d="m.509-.538h-.078l-.172.447-.173-.447h-.078l.212.538h.077z" fill="#231f20" transform="matrix(55.5556 0 0 55.5556 376.99567012 166.678199)"/><path d="m.072-.637h.074v-.103h-.074zm0 .637h.074v-.538h-.074z" fill="#231f20" transform="matrix(55.5556 0 0 55.5556 405.77347092 166.678199)"/><path d="m.387-.403c-.005-.109-.089-.15-.164-.15-.091 0-.168.057-.168.154.002.085.062.116.139.139.093.027.133.052.135.113.001.055-.042.101-.104.101-.054 0-.109-.033-.112-.107h-.073c.001.113.097.168.184.168.102 0 .182-.072.178-.171-.004-.115-.09-.137-.167-.158-.065-.019-.104-.04-.106-.091-.002-.047.034-.087.093-.087.054 0 .092.032.092.089z" fill="#231f20" transform="matrix(55.5556 0 0 55.5556 417.88459172 166.678199)"/><path d="m.072-.637h.074v-.103h-.074zm0 .637h.074v-.538h-.074z" fill="#231f20" transform="matrix(55.5556 0 0 55.5556 442.88461172 166.678199)"/><path d="m.114 0h.073v-.479h.118v-.059h-.118v-.202h-.073v.202h-.106v.059h.106z" fill="#231f20" transform="matrix(55.5556 0 0 55.5556 454.99573252 166.678199)"/><path d="m.612-.538h-.074v.113c-.026-.061-.105-.128-.22-.128-.164 0-.279.126-.279.284 0 .148.104.284.279.284.096 0 .178-.045.22-.126v.111h.074zm-.5.269c0-.12.09-.216.214-.216.095 0 .167.055.197.129.012.026.018.056.017.086 0 .029-.006.059-.018.085-.029.076-.099.131-.194.131-.148 0-.215-.117-.216-.214zm.107-.379.024.048.241-.129-.027-.054z" fill="#231f20" transform="matrix(55.5556 0 0 55.5556 470.77352292 166.678199)"/><path d="m.072 0h.073v-.293c0-.122.058-.187.162-.187h.007v-.073c-.063.002-.133.023-.172.103v-.088h-.07z" fill="#231f20" transform="matrix(55.5556 0 0 55.5556 508.77355332 166.678199)"/><path d="m.612-.538h-.074v.113c-.026-.061-.105-.128-.22-.128-.164 0-.279.126-.279.284 0 .148.104.284.279.284.096 0 .178-.045.22-.126v.111h.074zm-.5.269c0-.12.09-.216.214-.216.095 0 .167.055.197.129.012.026.018.056.017.086 0 .029-.006.059-.018.085-.029.076-.099.131-.194.131-.148 0-.215-.117-.216-.214z" fill="#231f20" transform="matrix(55.5556 0 0 55.5556 524.32912132 166.678199)"/><path d="m.072 0h.074v-.3c0-.057.013-.098.036-.129.022-.032.064-.057.114-.055.055.001.093.022.118.057.021.033.03.068.028.128v.299h.074v-.299c0-.061.005-.091.032-.129.025-.037.071-.056.118-.056.051 0 .085.017.107.045.031.035.04.086.04.143v.296h.074v-.299c0-.095-.014-.153-.061-.2-.037-.038-.09-.054-.145-.054-.06 0-.113.023-.148.06-.02.021-.031.042-.039.057-.003-.006-.021-.042-.035-.056-.038-.043-.091-.061-.147-.061-.061 0-.136.032-.17.1v-.085h-.07z" fill="#231f20" transform="matrix(55.5556 0 0 55.5556 562.32915172 166.678199)"/><path d="m.039-.269c0 .151.112.283.285.283.174 0 .286-.132.286-.283s-.112-.284-.286-.284c-.173 0-.285.133-.285.283zm.073 0c0-.123.093-.215.212-.215.12 0 .212.092.212.215s-.092.215-.212.215c-.119 0-.212-.092-.212-.214z" fill="#231f20" transform="matrix(55.5556 0 0 55.5556 615.44030532 166.678199)"/><path d="m.387-.403c-.005-.109-.089-.15-.164-.15-.091 0-.168.057-.168.154.002.085.062.116.139.139.093.027.133.052.135.113.001.055-.042.101-.104.101-.054 0-.109-.033-.112-.107h-.073c.001.113.097.168.184.168.102 0 .182-.072.178-.171-.004-.115-.09-.137-.167-.158-.065-.019-.104-.04-.106-.091-.002-.047.034-.087.093-.087.054 0 .092.032.092.089z" fill="#231f20" transform="matrix(55.5556 0 0 55.5556 651.49588972 166.678199)"/><path d="m696.49592572 125.567055h4.1111144v41.111144h-4.1111144z" fill="#231f20" stroke-width="55.5556"/><path d="m.612-.538h-.074v.113c-.026-.061-.105-.128-.22-.128-.164 0-.279.126-.279.284 0 .148.104.284.279.284.096 0 .178-.045.22-.126v.111h.074zm-.5.269c0-.12.09-.216.214-.216.095 0 .167.055.197.129.012.026.018.056.017.086 0 .029-.006.059-.018.085-.029.076-.099.131-.194.131-.148 0-.215-.117-.216-.214z" fill="#231f20" transform="matrix(55.5556 0 0 55.5556 704.55148772 166.678199)"/><path d="m.072 0h.071v-.111c.04.077.119.126.22.126.163 0 .279-.123.279-.285 0-.168-.124-.283-.277-.283-.093.001-.174.047-.219.123v-.31h-.074zm.496-.269c0 .104-.073.215-.216.215-.125 0-.21-.099-.21-.216 0-.119.089-.215.213-.215.12 0 .213.092.213.215z" fill="#231f20" transform="matrix(55.5556 0 0 55.5556 758.55153092 166.678199)"/><path d="m.072-.637h.074v-.103h-.074zm0 .637h.074v-.538h-.074z" fill="#231f20" transform="matrix(55.5556 0 0 55.5556 796.32933892 166.678199)"/><path d="m.072 0h.071v-.111c.04.077.119.126.22.126.163 0 .279-.123.279-.285 0-.168-.124-.283-.277-.283-.093.001-.174.047-.219.123v-.31h-.074zm.496-.269c0 .104-.073.215-.216.215-.125 0-.21-.099-.21-.216 0-.119.089-.215.213-.215.12 0 .213.092.213.215z" fill="#231f20" transform="matrix(55.5556 0 0 55.5556 808.44045972 166.678199)"/><path d="m850.21827092 125.567055h4.1111144v41.111144h-4.1111144z" fill="#231f20" stroke-width="55.5556"/><path d="m.072-.637h.074v-.103h-.074zm0 .637h.074v-.538h-.074z" fill="#231f20" transform="matrix(55.5556 0 0 55.5556 858.27383292 166.678199)"/><path d="m.039-.269c0 .151.112.283.285.283.174 0 .286-.132.286-.283s-.112-.284-.286-.284c-.173 0-.285.133-.285.283zm.073 0c0-.123.093-.215.212-.215.12 0 .212.092.212.215s-.092.215-.212.215c-.119 0-.212-.092-.212-.214z" fill="#231f20" transform="matrix(55.5556 0 0 55.5556 870.38495372 166.678199)"/><path d="m.114 0h.073v-.479h.118v-.059h-.118v-.202h-.073v.202h-.106v.059h.106z" fill="#231f20" transform="matrix(55.5556 0 0 55.5556 906.44053812 166.678199)"/><path d="m.595-.248c.008-.086-.022-.169-.084-.229-.051-.049-.121-.076-.197-.076-.161 0-.283.127-.283.285 0 .134.097.283.284.283.055 0 .108-.015.153-.044.046-.029.084-.073.109-.131h-.077c-.035.07-.102.111-.185.111-.091.001-.206-.064-.21-.199zm-.489-.059c.007-.098.093-.183.209-.183.111-.003.202.089.207.183z" fill="#231f20" transform="matrix(55.5556 0 0 55.5556 922.21832852 166.678199)"/><path d="m.519-.182c-.023.065-.092.127-.195.128-.116 0-.212-.088-.212-.215 0-.062.025-.12.061-.155.045-.042.089-.061.152-.061.076 0 .161.042.195.133h.076c-.037-.129-.153-.201-.274-.201-.163 0-.284.125-.284.284 0 .144.107.284.289.284.129 0 .234-.083.269-.197z" fill="#231f20" transform="matrix(55.5556 0 0 55.5556 957.10724532 166.678199)"/><path d="m.612-.538h-.074v.113c-.026-.061-.105-.128-.22-.128-.164 0-.279.126-.279.284 0 .148.104.284.279.284.096 0 .178-.045.22-.126v.111h.074zm-.5.269c0-.12.09-.216.214-.216.095 0 .167.055.197.129.012.026.018.056.017.086 0 .029-.006.059-.018.085-.029.076-.099.131-.194.131-.148 0-.215-.117-.216-.214z" fill="#231f20" transform="matrix(55.5556 0 0 55.5556 992.10727332 166.678199)"/><path d="m1035.99619732 160.567083h4.3333368v6.111116h-4.3333368z" fill="#231f20" stroke-width="55.5556"/><path d="m.253-.428h.077v-.11h-.077zm-.001.079c-.001.04-.003.09-.075.16-.056.052-.117.109-.117.193 0 .116.095.211.221.211.1 0 .216-.064.23-.204 0-.008.001-.016.001-.025h-.081c0 .01-.001.019-.002.028-.013.083-.08.123-.145.123-.084 0-.141-.062-.141-.139.002-.061.04-.095.092-.147.08-.076.093-.133.095-.2z" fill="#231f20" transform="matrix(55.5556 0 0 55.5556 88.5 572.02)"/><path d="m.677-.199c-.018.028-.097.139-.252.139-.172 0-.303-.136-.303-.311 0-.172.13-.309.303-.309.143 0 .227.099.252.143h.089c-.043-.094-.158-.216-.341-.216-.222 0-.385.172-.385.383 0 .214.167.383.386.383.163 0 .292-.098.34-.212z" fill="#231f20" transform="matrix(55.5556 0 0 55.5556 119.333358 572.02)"/><path d="m.072 0h.073v-.293c0-.122.058-.187.162-.187h.007v-.073c-.063.002-.133.023-.172.103v-.088h-.07z" fill="#231f20" transform="matrix(55.5556 0 0 55.5556 163.8333936 572.02)"/><path d="m.595-.248c.008-.086-.022-.169-.084-.229-.051-.049-.121-.076-.197-.076-.161 0-.283.127-.283.285 0 .134.097.283.284.283.055 0 .108-.015.153-.044.046-.029.084-.073.109-.131h-.077c-.035.07-.102.111-.185.111-.091.001-.206-.064-.21-.199zm-.489-.059c.007-.098.093-.183.209-.183.111-.003.202.089.207.183z" fill="#231f20" transform="matrix(55.5556 0 0 55.5556 179.6 572.02)"/><path d="m.595-.248c.008-.086-.022-.169-.084-.229-.051-.049-.121-.076-.197-.076-.161 0-.283.127-.283.285 0 .134.097.283.284.283.055 0 .108-.015.153-.044.046-.029.084-.073.109-.131h-.077c-.035.07-.102.111-.185.111-.091.001-.206-.064-.21-.199zm-.489-.059c.007-.098.093-.183.209-.183.111-.003.202.089.207.183z" fill="#231f20" transform="matrix(55.5556 0 0 55.5556 214.4889168 572.02)"/><path d="m.387-.403c-.005-.109-.089-.15-.164-.15-.091 0-.168.057-.168.154.002.085.062.116.139.139.093.027.133.052.135.113.001.055-.042.101-.104.101-.054 0-.109-.033-.112-.107h-.073c.001.113.097.168.184.168.102 0 .182-.072.178-.171-.004-.115-.09-.137-.167-.158-.065-.019-.104-.04-.106-.091-.002-.047.034-.087.093-.087.054 0 .092.032.092.089z" fill="#231f20" transform="matrix(55.5556 0 0 55.5556 249.3778336 572.02)"/><path d="m.61-.538h-.071v.108c-.037-.067-.111-.123-.221-.123-.167 0-.279.128-.279.287 0 .151.109.281.275.281.121 0 .197-.069.222-.124v.313h.074zm-.498.27c.001-.104.072-.217.216-.217.059 0 .114.024.152.064.039.039.062.093.06.153 0 .06-.023.114-.061.152-.039.039-.092.062-.152.062-.124 0-.215-.095-.215-.213z" fill="#231f20" transform="matrix(55.5556 0 0 55.5556 290.3778664 572.02)"/><path d="m.567-.538h-.074v.304c0 .112-.064.179-.176.18-.121.001-.173-.077-.173-.193v-.291h-.073v.305c0 .131.059.245.227.248.096.001.169-.041.199-.111v.096h.07z" fill="#231f20" transform="matrix(55.5556 0 0 55.5556 328.2667856 572.02)"/><path d="m.595-.248c.008-.086-.022-.169-.084-.229-.051-.049-.121-.076-.197-.076-.161 0-.283.127-.283.285 0 .134.097.283.284.283.055 0 .108-.015.153-.044.046-.029.084-.073.109-.131h-.077c-.035.07-.102.111-.185.111-.091.001-.206-.064-.21-.199zm-.489-.059c.007-.098.093-.183.209-.183.111-.003.202.089.207.183z" fill="#231f20" transform="matrix(55.5556 0 0 55.5556 363.766814 572.02)"/><path d="m.595-.248c.008-.086-.022-.169-.084-.229-.051-.049-.121-.076-.197-.076-.161 0-.283.127-.283.285 0 .134.097.283.284.283.055 0 .108-.015.153-.044.046-.029.084-.073.109-.131h-.077c-.035.07-.102.111-.185.111-.091.001-.206-.064-.21-.199zm-.489-.059c.007-.098.093-.183.209-.183.111-.003.202.089.207.183z" fill="#231f20" transform="matrix(55.5556 0 0 55.5556 64.05 638.72)"/><path d="m.072 0h.074v-.304c0-.112.064-.179.175-.18.121-.002.173.077.173.193v.291h.073v-.306c0-.131-.059-.245-.226-.247-.096-.002-.169.041-.2.111.001-.036.001-.066.001-.096h-.07z" fill="#231f20" transform="matrix(55.5556 0 0 55.5556 98.9389168 638.72)"/><path d="m.519-.182c-.023.065-.092.127-.195.128-.116 0-.212-.088-.212-.215 0-.062.025-.12.061-.155.045-.042.089-.061.152-.061.076 0 .161.042.195.133h.076c-.037-.129-.153-.201-.274-.201-.163 0-.284.125-.284.284 0 .144.107.284.289.284.129 0 .234-.083.269-.197z" fill="#231f20" transform="matrix(55.5556 0 0 55.5556 134.3833896 638.72)"/><path d="m.039-.269c0 .151.112.283.285.283.174 0 .286-.132.286-.283s-.112-.284-.286-.284c-.173 0-.285.133-.285.283zm.073 0c0-.123.093-.215.212-.215.12 0 .212.092.212.215s-.092.215-.212.215c-.119 0-.212-.092-.212-.214z" fill="#231f20" transform="matrix(55.5556 0 0 55.5556 169.3834176 638.72)"/><path d="m.072 0h.074v-.304c0-.112.064-.179.175-.18.121-.002.173.077.173.193v.291h.073v-.306c0-.131-.059-.245-.226-.247-.096-.002-.169.041-.2.111.001-.036.001-.066.001-.096h-.07z" fill="#231f20" transform="matrix(55.5556 0 0 55.5556 205.439002 638.72)"/><path d="m.114 0h.073v-.479h.118v-.059h-.118v-.202h-.073v.202h-.106v.059h.106z" fill="#231f20" transform="matrix(55.5556 0 0 55.5556 240.8834748 638.72)"/><path d="m.072 0h.073v-.293c0-.122.058-.187.162-.187h.007v-.073c-.063.002-.133.023-.172.103v-.088h-.07z" fill="#231f20" transform="matrix(55.5556 0 0 55.5556 258.3279332 638.72)"/><path d="m.595-.248c.008-.086-.022-.169-.084-.229-.051-.049-.121-.076-.197-.076-.161 0-.283.127-.283.285 0 .134.097.283.284.283.055 0 .108-.015.153-.044.046-.029.084-.073.109-.131h-.077c-.035.07-.102.111-.185.111-.091.001-.206-.064-.21-.199zm-.489-.059c.007-.098.093-.183.209-.183.111-.003.202.089.207.183z" fill="#231f20" transform="matrix(55.5556 0 0 55.5556 274.11 638.72)"/><path d="m.072 0h.074v-.3c0-.057.013-.098.036-.129.022-.032.064-.057.114-.055.055.001.093.022.118.057.021.033.03.068.028.128v.299h.074v-.299c0-.061.005-.091.032-.129.025-.037.071-.056.118-.056.051 0 .085.017.107.045.031.035.04.086.04.143v.296h.074v-.299c0-.095-.014-.153-.061-.2-.037-.038-.09-.054-.145-.054-.06 0-.113.023-.148.06-.02.021-.031.042-.039.057-.003-.006-.021-.042-.035-.056-.038-.043-.091-.061-.147-.061-.061 0-.136.032-.17.1v-.085h-.07z" fill="#231f20" transform="matrix(55.5556 0 0 55.5556 308.9989168 638.72)"/><path d="m.039-.269c0 .151.112.283.285.283.174 0 .286-.132.286-.283s-.112-.284-.286-.284c-.173 0-.285.133-.285.283zm.073 0c0-.123.093-.215.212-.215.12 0 .212.092.212.215s-.092.215-.212.215c-.119 0-.212-.092-.212-.214z" fill="#231f20" transform="matrix(55.5556 0 0 55.5556 362.1100704 638.72)"/><path d="m.387-.403c-.005-.109-.089-.15-.164-.15-.091 0-.168.057-.168.154.002.085.062.116.139.139.093.027.133.052.135.113.001.055-.042.101-.104.101-.054 0-.109-.033-.112-.107h-.073c.001.113.097.168.184.168.102 0 .182-.072.178-.171-.004-.115-.09-.137-.167-.158-.065-.019-.104-.04-.106-.091-.002-.047.034-.087.093-.087.054 0 .092.032.092.089z" fill="#231f20" transform="matrix(55.5556 0 0 55.5556 398.1656548 638.72)"/><path d="m.612-.538h-.074v.113c-.026-.061-.105-.128-.22-.128-.164 0-.279.126-.279.284 0 .148.104.284.279.284.096 0 .178-.045.22-.126v.111h.074zm-.5.269c0-.12.09-.216.214-.216.095 0 .167.055.197.129.012.026.018.056.017.086 0 .029-.006.059-.018.085-.029.076-.099.131-.194.131-.148 0-.215-.117-.216-.214z" fill="#231f20" transform="matrix(55.5556 0 0 55.5556 166.22 705.32)"/><path d="m208.2200336 664.208856h4.1111144v41.111144h-4.1111144z" fill="#231f20" stroke-width="55.5556"/><path d="m.61-.538h-.073v.111c-.03-.066-.112-.126-.218-.126-.164 0-.281.124-.281.285 0 .155.113.283.281.283.104 0 .179-.053.217-.129v.069c0 .134-.105.214-.208.214-.034 0-.08-.011-.119-.039-.032-.022-.051-.048-.064-.071h-.085c.034.097.132.174.266.174.073 0 .151-.031.204-.083.047-.045.08-.11.08-.212zm-.498.268c0-.126.096-.214.214-.214.077 0 .131.032.164.075.034.043.049.096.049.141-.001.059-.023.113-.06.152-.038.039-.09.062-.151.062-.139 0-.216-.106-.216-.215z" fill="#231f20" transform="matrix(55.5556 0 0 55.5556 216.2755956 705.32)"/><path d="m.039-.269c0 .151.112.283.285.283.174 0 .286-.132.286-.283s-.112-.284-.286-.284c-.173 0-.285.133-.285.283zm.073 0c0-.123.093-.215.212-.215.12 0 .212.092.212.215s-.092.215-.212.215c-.119 0-.212-.092-.212-.214z" fill="#231f20" transform="matrix(55.5556 0 0 55.5556 254.1089592 705.32)"/><path d="m.302-.189c.001-.04.003-.09.076-.16.055-.052.117-.109.117-.194 0-.116-.096-.21-.221-.21-.1 0-.217.063-.23.204-.001.008-.001.015-.001.024h.081c0-.009 0-.018.002-.027.013-.084.079-.124.145-.124.084 0 .14.063.14.139-.002.062-.04.096-.091.148-.08.076-.094.133-.096.2zm-.001.079h-.077v.11h.077z" fill="#231f20" transform="matrix(55.5556 0 0 55.5556 290.1645436 705.32)"/></g></svg>