<svg clip-rule="evenodd" fill-rule="evenodd" stroke-miterlimit="10" viewBox="0 0 755 798" xmlns="http://www.w3.org/2000/svg" xmlns:xlink="http://www.w3.org/1999/xlink"><linearGradient id="a" gradientTransform="matrix(-1 0 0 -1 1 0)" gradientUnits="userSpaceOnUse" x1="0" x2="1" y1="0" y2="0"><stop offset="0" stop-color="#e5a82e"/><stop offset="1" stop-color="#ffe292"/></linearGradient><circle cx=".5" fill="url(#a)" r=".5" transform="matrix(0 642.689 642.689 0 357.49 83.2)"/><path d="m0-.983c-1.499-.715-3.295-.654-4.73.251-1.521.958-2.725 2.872-2.921 4.691-.113-.482-.319-.974-.623-1.445-.345-.533-.782-1.011-1.276-1.426-.738-2.966 3.387-6.03 6.154-4.79 1.137.511 2.58 1.594 3.396 2.719" fill="#fdceae" fill-rule="nonzero" transform="matrix(5.55556 0 0 5.55556 637.95 447)"/><path d="m0-3.738c-.709-.167-1.409-.171-2.037.062-1.888.699-4.622 3.03-3.995 5.233-.346-.242-.712-.455-1.096-.634-.612-1.803-.143-3.623 1.326-4.935.665-.594 1.585-.837 2.442-1.006 1.409-.277 2.522.298 3.36 1.28" fill="#fdceae" fill-rule="nonzero" transform="matrix(5.55556 0 0 5.55556 615.75 442.3)"/><path d="m0-8.678c.526-.816 1.072-1.623 1.772-2.304.807-.784 4.062-3.157 4.834-.436.006 1.96-1.778 3.946-2.72 5.557-.922 1.575-1.647 3.183-1.898 4.99-1.144-.177-2.377.081-3.55.86-1.434.954-3.088 3.774-2.059 5.472-.655-.221-1.34-.338-2.023-.347.965-2.949 1.926-5.893 3.126-8.759.723-1.726 1.501-3.456 2.518-5.033" fill="#fdceae" fill-rule="nonzero" transform="matrix(5.55556 0 0 5.55556 592.1 415.4)"/><path d="m0-8.091c2.236-3.325 7.543-1.502 8.962 1.612 1.37 3.007-1.957 3.314-3.989 2.584-.976-.351-1.744-.86-2.438-1.613-.502-.542-.715-.906-1.5-.917-.303-.004-.328.407-.067.502.618.228 1.033 1.213 1.548 1.664.406.355.885.621 1.376.839 1.125.5 2.483.785 3.715.627 1.412-.181 2.135-.971 2.312-1.966.184.993.759 1.873 1.868 2.434 2.795 1.41 5.453-1.29 3.674-3.925.018-.045.031-.089.023-.131.44.036.881.045 1.327.022.38-.019.376-.621 0-.59-.868.07-1.723.031-2.579-.131-.32-.06-.461.423-.136.494.281.061.563.09.845.128-.416.429-.818.789-1.4.999-.326.118-.189.641.145.526.532-.184 1.07-.491 1.47-.909.921 1.774-.479 3.742-2.503 3.168-.917-.261-1.773-.938-2.044-1.833-1.097-3.629 3.593-7.591 6.905-5.689 3.41 1.959.907 7.032-.923 9.219-1.133 1.353-2.52 2.451-4.06 3.252-.219-.061-.468.063-.532.258-1.246.578-2.579.972-3.966 1.131-.164.018-.268.12-.323.243-2.148.1-4.231-.197-5.999-1.534-.765-.577-1.452-1.343-2.276-1.844.142-2.79-1.122-6.111.565-8.62" fill="#fdceae" fill-rule="nonzero" transform="matrix(5.55556 0 0 5.55556 540.53 502.3)"/><path d="m0 .272c-.132-.243-.293-.486-.499-.729-1.008-1.189-2.615-2.085-3.971-2.805-1.427-.758-2.848-1.158-4.431-.678-.331.1-.193.576.141.512 2.41-.459 4.522 1.048 6.386 2.395 1.106.801 2.141 1.87 1.948 3.387-.102.805-.815 1.475-1.468 2.038-.327-1.036-.973-2.024-1.644-2.758-1.411-1.545-3.306-2.304-5.374-1.945-.412.072-.232.678.171.62 2.582-.372 5.873 2.026 6.22 4.779 0 .018.003.036.005.054.037.329.04.663-.013.999-.175 1.071-.845 2.291-1.642 3.02-1.515 1.386-3.177.725-4.55-.459.847-1.362 1.44-2.856 1.668-4.039.096-.5-.637-.717-.772-.213-.605 2.256-2.272 5.58-4.469 6.676-2.34 1.167-5.328-1.266-6.577-3.248-.914-1.45-1.065-3.322-1.391-4.973 1.883-3.32 3.615-6.841 5.946-9.87 1.385-1.8 2.898-3.26 4.99-4.223 1.171-.54 2.055-.833 3.386-.708 2.703.254 3.639 2.259 3.185 4.854-2.218-.937-4.874-1.227-6.896-.345-.327.142-.09.717.245.581 2.225-.901 4.935-.157 7.033.863 2.29 1.113 4.462 3.984 2.373 6.215" fill="#fdceae" fill-rule="nonzero" transform="matrix(5.55556 0 0 5.55556 362.74 534.5)"/><path d="m0 5.463c-1.358-2.085-.055-3.987 1.421-5.504.059.507.351.908.593 1.398.011.025.03.04.046.058-.729 1.373-1.398 2.763-2.044 4.089-.007-.014-.007-.027-.016-.041" fill="#db597e" fill-rule="nonzero" transform="matrix(5.55556 0 0 5.55556 253.17 508.9)"/><path d="m0-3.554c.503.504 1.236.681 1.239 1.567.002.476-.172.972-.427 1.37-.194.302-.51.513-.868.59-.124.027-.834.017-.872-.171-.02-.098-.074-.158-.139-.188.44-1.026.798-2.083 1.067-3.168" fill="#fff" fill-rule="nonzero" transform="matrix(5.55556 0 0 5.55556 222.98 422.6)"/><path d="m0 20.642c.374-.647.597-1.45.393-2.19-.077-.276-.212-.545-.397-.764-.263-.309-.725-.409-.955-.723-.104-.142-.252-.185-.393-.173.016-.078.041-.154.056-.233.631-3.292.664-7.235-.693-10.374 3.051-5.65 4.408-12.127 3.282-18.482 4.188 1.978 9.486 1.894 12.801-.509.026.042.061.082.109.118 2.994 2.268 9.599 2.889 13.276.972 2.285 1.691 6.451 1.917 9.752 1.473-.039 4.866.749 9.561 2.43 14.008-.156.086-.26.252-.186.474 1.797 5.447-1.112 12.409-3.789 17.06-2.951 5.125-7.3 12.149-13.911 11.899.842-3.655-2.362-5.514-6.241-4.49-2.183.577-3.957 1.788-5.459 3.345-.03-.029-.057-.058-.1-.079-4.673-2.333-7.341-6.782-10.307-10.873.123-.139.234-.291.332-.459" fill="#fdceae" fill-rule="nonzero" transform="matrix(5.55556 0 0 5.55556 231.51 305.3)"/><path d="m0-3.368c.751.71.599 1.809-.101 2.522-.503.512-1.118.696-1.76.846.641-1.058 1.272-2.187 1.861-3.368" fill="#fff" fill-rule="nonzero" transform="matrix(5.55556 0 0 5.55556 441.67 429.8)"/><path d="m0-5.611c1.152 1.071 2.419 2.023 3.884 2.761-.763.875-1.451 1.839-2.087 2.85-.166-.934-.39-1.845-.877-2.679-.242-.415-.547-.79-.844-1.166-.542-.683-.429-1.15-.076-1.766" fill="#fdceae" fill-rule="nonzero" transform="matrix(5.55556 0 0 5.55556 262.69 502.7)"/><path d="m0 .462c.007.05.024.088.045.124-.186.317-.368.637-.546.959-.26-.443-.513-.816-.395-1.41.09-.449.347-.846.622-1.218.119.506.198 1.024.274 1.545" fill="#db597e" fill-rule="nonzero" transform="matrix(5.55556 0 0 5.55556 269.25 504.7)"/><path d="m0 3.45c-.022.001-.037.011-.057.015-.292-.437-.647-.842-1.061-1.193-.564-.477-1.235-.897-1.964-1.249.101-.232.186-.457.257-.677 1.403.182 2.693.038 3.884-.361-.055.422-.106.844-.146 1.266-.06.631-.19 1.303-.114 1.931.007.057.039.101.07.143-.278.062-.565.107-.869.125" fill="#fdceae" fill-rule="nonzero" transform="matrix(5.55556 0 0 5.55556 367.38 490.8)"/><path d="m0 70.301c-.026-1.568.431-3.112.932-4.58.1-.294-.341-.396-.456-.125-.539 1.279-1.08 2.903-1.138 4.447-1.773-.909-3.436-2.078-4.845-3.489-2.72-2.721-2.398-5.654-1.194-8.986 1.531-4.238 2.497-8.637 2.754-13.136.017-.311-.435-.293-.473 0-.541 4.17-1.261 8.192-2.664 12.164-.393 1.111-.934 2.207-1.289 3.336-5.75-5.86.147-13.095 2.634-19.022 1.987-4.738 2.804-9.832 3.557-14.883.831-5.575 1.534-11.218 3.647-16.484 3.17-7.9 11.315-13.414 19.378-8.091.045.029.088.044.131.053.105.097.259.138.422.048 5.875-3.231 12.433-4.442 17.095 1.37.167.208.503-.06.366-.282-.175-.287-.369-.539-.559-.795 5.266-1.653 12.364-2.259 14.821 4.046.014.035.042.048.065.071-.079.169-.037.395.194.46 8.531 2.379 2.001 23.119 2.824 28.961.848 6.021 12.856 22.341 1.857 25.217-.04.011-.069.032-.101.05-.116-2.127-.653-4.312-1.142-6.134-.075-.278-.469-.156-.423.117.455 2.749 1.294 6.164.632 8.978-.791 3.363-4.042 5.938-7.234 6.773.022-.125.045-.248.057-.383.24-2.795-.053-5.757-.342-8.537-.036-.342-.565-.356-.545 0 .18 3.33 1.293 9.027-1.674 11.252-.068.052-.105.118-.128.186-1.827-.694-3.705-1.232-5.272-1.788-.608-.792-1.743-1.185-2.916-1.565.149-.369.277-.745.353-1.138.422-2.158-2.406-2.839-4.077-2.776-.009-.216-.019-.421-.03-.626 3.951-1.549 6.796-5.798 9.124-9.377.101-.156.204-.321.305-.48 1.309-.032 2.779-.727 3.401-1.911.544-1.034.29-2.254-.665-2.935-.007-.005-.014-.005-.021-.009 1.822-3.789 3.138-8.04 2.745-12.001.52 1.091 1.077 2.172 1.714 3.228.182.301.696.108.582-.245-1.115-3.484-3.107-6.624-4.048-10.182-.831-3.14-.845-6.431-1.456-9.616.881-.136 1.692-.315 2.369-.528 3.59-1.13 6.353-4.471 5.087-8.311-.102-.312-.57-.186-.493.136 1.227 5.134-3.629 7.656-7.976 7.847-2.275.1-6.132.111-8.238-1.116.023-.017.05-.031.072-.048 3.307-2.596 2.794-7.459 1.63-11.051-.088-.271-.478-.16-.424.117.596 3.082 1.407 7.359-1.134 9.783-.341.325-.73.592-1.145.824-.045.019-.086.045-.125.075-3.546 1.889-9.343.716-12.584-.687 1.845-1.612 2.909-4.066 2.507-7.427-.019-.164-.253-.172-.262 0-.225 4.38-1.717 8.202-6.643 8.77-3.152.364-6.391.005-9.153-1.62-.027-.016-.052-.016-.079-.027-.043-.189-.078-.38-.127-.569-.061-.237-.47-.196-.439.059.026.201.043.401.066.602-.23.215-.291.626.062.819.009.005.019.009.028.014.699 7.466-.538 14.372-4.77 20.821-.295.45.427.869.72.421.367-.56.71-1.134 1.041-1.714 1.738 5.019.354 11.483-2.226 15.87-1.499 2.55-4.318 4.884-4.289 8.024.005.583.897.583.905 0 .044-2.838 2.806-5.27 4.154-7.575.349-.599.665-1.217.959-1.844.283.322.892.363 1.293.356.288-.006.531-.095.754-.219 1.809 2.81 3.639 5.674 5.991 7.997-.438.615-.787 1.335-.442 2.057.287.6.876 1.07 1.209 1.659.213.376.357.771.476 1.174-.464.471-.895 1.001-1.041 1.655-.077-.046-.166-.067-.262-.006-1.222.771-2.127 2.037-2.412 3.402-.107-.062-.247-.075-.368.019-2.092 1.64-4.809 1.39-7.146 2.301-.438.17-.848.389-1.246.63-1.806-.666-3.163-1.716-3.197-3.871" fill="#5f4c3a" fill-rule="nonzero" transform="matrix(5.55556 0 0 5.55556 179.99 128.7)"/><path d="m0 31.119c-5.401-2.962-7.134-11.133-1.851-15.168 2.136-1.631 4.677-1.845 6.86-3.581 2.317-1.843 4.156-4.353 6.1-6.558 2.676-3.033 5.117-5.688 9.125-6.839 2.105-.604 3.552-.65 5.247-1.989-.07.852.106 1.721.612 2.517.111.174.288.206.443.16-.073.149-.146.298-.22.445-.058-.075-.149-.124-.279-.112-1.464.141-3.099.658-4.045 1.867-.407.521-.49 1.068-.503 1.693-3.32.119-5.847 1.369-7.977 3.929-1.187 1.427-2.079 3.092-3.359 4.444-2.674 2.827-6.324 3.149-9.992 3.096-.373-.006-.37.561 0 .577 3.135.14 6.516.003 9.155-1.919 4.566-3.328 5.396-9.043 12.175-9.287.008 1.098.032 2.202.093 3.293.018.333.503.335.519 0 .06-1.301-.07-2.649.066-3.945.211-2.002 1.974-2.797 3.826-3-.041.082-.082.166-.124.247-.011.01-.012.027-.019.039-.001.002-.002.003-.002.004v.001c-.019.029-.04.057-.04.098.02 2.173.215 4.375 1.639 6.124 1.235 1.516 3.392 3.552 5.517 3.398.848-.062 1.652-.421 2.389-.963 1.09 1.149-.124 3.65-1.087 4.339-.69.494-1.609.716-2.44.762-2.062.116-3.93-.753-5.441-2.104-.193-.172-.456.091-.283.284 1.115 1.236 2.763 2.166 4.471 2.462-1.41 2.952-5.305 4.455-7.656 6.569-2.649 2.383-4.774 5.239-7.68 7.356-4.681 3.411-9.741 4.777-15.239 1.761" fill="#db597e" fill-rule="nonzero" transform="matrix(5.55556 0 0 5.55556 104.42 544.2)"/><path d="m0 26.9c-.003-.011-.01-.018-.014-.027 2.115-1.903 3.98-4.043 6.149-5.998 2.774-2.502 6.421-3.546 7.949-7.089 1.19.04 2.371-.256 3.383-1.005 1.128-.836 2.581-4.392 1.132-5.381.454-.423.878-.907 1.259-1.432 1.353 1.046 3 1.835 4.672.985 1.464-.745 2.366-2.387 2.782-3.915.11-.401.126-.816.084-1.232 1.401-1.133 2.378-2.625 2.022-4.194 1.48-1.332 1.601-3.191.854-4.788 1.069-.162 2.049-.746 2.722-1.585.161-.199-.095-.474-.287-.287-.428.414-.895.688-1.401.87.131-.596.165-1.264.158-1.932.612.12 1.228.217 1.825.407 1.311.419 1.441 1.596 1.046 2.679-.049.057-.077.131-.091.207-.036.084-.068.169-.11.251-.687 1.339-1.771 2.359-3.083 3.072-.351.191-.041.713.311.533 1.393-.71 2.643-1.85 3.427-3.238.411.183.83.267 1.271.444 2.026.814 1.944 2.422 1.024 4.104-1.025 1.875-2.785 2.663-4.366 3.929-.138.111.011.369.176.302 2.426-.985 4.91-2.992 5.532-5.663.146-.626.139-1.136.028-1.564 4.795 1.84 9.938 3.243 11.858 8.47 1.028 2.8 1.59 5.591 3.733 7.78.012 3.191-.611 6.146-3.253 7.139-.241.09-.146.472.108.392 2.505-.797 3.426-2.592 3.687-5.161.079-.78.115-1.552.126-2.316.133-.147.176-.372 0-.553-.011-5.23-1.107-10.153 1.44-15.244.27.638.685 1.219 1.261 1.692.198.162.46-.035.351-.27-.679-1.459-1.794-3.054-1.13-4.729.553-1.395 1.767-2.662 3.133-3.265.072.59.149 1.154.214 1.677-.142-.059-.288-.11-.441-.148-.155-.039-.291.163-.163.28 1.284 1.164 2.758 2.573 4.325 3.348 1.693.836 3.571.967 5.426.855.142-.009.234-.089.285-.19 1.361-.197 2.704-.606 3.969-1.197 1.413 2.423-.757 4.838-3.154 5.519-2.187.622-4.533.201-6.762.171-.231-.004-.215.319 0 .347 2.868.376 6.222.98 8.821-.648-.139 6.354-3.497 11.924-4.241 18.251-.57 4.847-1.351 9.147-5.989 11.734-4.802 2.678-11.405 2.958-15.788-.59-.007-.005-.015-.002-.022-.006.769-2.696 1.483-5.384 1.461-8.15-.042-5.016-2.766-9.773-3.992-14.549-.064-.243-.421-.139-.374.103 1.151 5.884 4.506 11.538 3.214 17.695-.958 4.569-2.647 8.609-2.911 13.347-.008.153.059.254.155.316v.159h-41.721v-.036c.124-.054.227-.155.228-.333.024-3.42-1.405-7.08-2.308-10.343" fill="#db597e" fill-rule="nonzero" transform="matrix(5.55556 0 0 5.55556 201.12 553.9)"/><path d="m0 3.969c-.551.042-1.021-.454-1.037-1.007l.03-2.243c-.009-.276.09-.535.277-.729.179-.187.422-.292.649-.295 3.271.273 7.672.326 10.444.128h.009c.551 0 1.013.457 1.029 1.013l.009 2.158c.009.277-.09.536-.276.729-.18.187-.423.292-.684.294l-.027.001c-3.182.256-7.55.237-10.423-.049" fill="#c7eafb" fill-rule="nonzero" transform="matrix(5.55556 0 0 5.55556 259.08 327.2)"/><path d="m0-2.531c-.008-.277.09-.536.277-.73.18-.187.422-.291.649-.294 3.272.272 7.675.325 10.445.127h.009c.551 0 1.013.457 1.029 1.013l.009 2.159c.009.276-.09.535-.276.729-.18.187-.423.291-.684.293l-.027.001c-3.182.257-7.55.237-10.423-.048h-.009c-.551 0-1.013-.458-1.029-1.007z" fill="#c7eafb" fill-rule="nonzero" transform="matrix(5.55556 0 0 5.55556 371.65 345.3)"/><path d="m0 3.237c-2.157-.228-3.09-1.646-3.638-3.356 2.46.395 4.658 1.336 6.701 2.727-.924.482-1.935.748-3.063.629" fill="#f598b1" fill-rule="nonzero" transform="matrix(5.55556 0 0 5.55556 324.05 437.1)"/><path d="m0-.74c-.915 1.016-1.91 2.083-3.041 2.858-2.207-1.685-4.774-2.617-7.52-2.938-.065-.008-.118.011-.165.038-.179-.682-.319-1.39-.462-2.076 3.384 2.042 7.301 2.72 11.188 2.118" fill="#ef402f" fill-rule="nonzero" transform="matrix(5.55556 0 0 5.55556 362.38 437.2)"/><path d="m0 31.312c1.765-1.564 2.933-3.877 3.684-6.082 1.141-3.353.943-7.026 2.534-10.251.039-.079.136-.084.205-.053 1.588.691 3.192 1.38 4.875 1.804 1.411.356 2.86.49 4.311.374.848-.068 1.688-.217 2.514-.417.732-.177 1.453-.37 2.116-.74 1.073-.598 1.817-1.55 2.448-2.58.657-1.073 1.245-2.18 2.024-3.174.062-.079.19-.042.236.031.641 1.019 1.89 1.031 2.967 1.032.078 0 .154.069.15.15-.064 1.142.494 2.132 1.378 2.826.807.633 1.805 1.013 2.808 1.189.965.17 2.119.194 3.027-.226 1.095-.505 1.893-1.546 2.509-2.546.656-1.063 1.163-2.214 1.597-3.385.042-.115.207-.156.273-.035.331.593.673 1.182 1.032 1.759.291.467.581 1.044 1.017 1.391.769.611.622 1.495.698 2.381.059.674.5 1.39.94 1.89.402.458.907.815 1.474 1.037 1.167.455 2.478.363 3.663.034 1.32-.367 2.568-1.036 3.62-1.911.96-.799 1.815-1.806 2.213-3.006.024-.072.106-.134.185-.105.987.363 1.888-.256 2.563-.943-.691-1.293-1.695-2.23-3.138-2.632-.231-.064-.273-.291-.194-.459-.023-.023-.051-.036-.065-.071-2.457-6.305-9.555-5.699-14.821-4.047.19.257.384.508.559.795.137.222-.199.491-.366.283-4.662-5.813-11.221-4.601-17.095-1.37-.163.09-.317.048-.422-.048-.043-.009-.086-.024-.131-.054-8.063-5.323-16.208.191-19.378 8.091-2.114 5.267-2.816 10.909-3.647 16.484-.186 1.251-.377 2.504-.588 3.754.821-.164 1.579-.598 2.225-1.17" fill="#fff" fill-rule="nonzero" opacity=".2" transform="matrix(5.55556 0 0 5.55556 176.9609752 113.72551132)"/><path d="m0-30.391c-2.128 2.893-3.004 6.486-3.357 10.006-.086.863-.122 1.727-.186 2.592-.061.822-.138 1.643-.195 2.465-.12 1.714-.187 3.469.14 5.166.156.805.404 1.598.803 2.317.422.757 1.158 1.265 1.616 1.998.232.371.301.849.376 1.273.08.452.146.908.274 1.35.084.289.205.567.302.852.109.316.214.633.337.944.121.31.26.618.446.894.136.205.317.416.564.48.397.103.826-.006 1.18-.189.812-.42 1.432-1.173 1.958-1.93-1.685-5.334-5.096-11.191-5.533-14.301-.372-2.638.754-8.315 1.315-13.966-.013.017-.027.032-.04.049" fill="#fff" fill-rule="nonzero" opacity=".2" transform="matrix(5.55556 0 0 5.55556 499.31123308 416.83130936)"/><path d="m0 9.379c.58-.07 1.338-.296 1.812-.741.413-1.99.723-4.004.989-6.054.038-.292.49-.31.472 0-.104 1.827-.331 3.636-.659 5.425.241.966.31 1.973.404 2.959.089.948.171 1.97.554 2.857 1.011-.827 1.924-1.773 2.714-2.812 1.543-2.028 2.702-4.388 3.235-6.886.501-2.356.389-4.862-.648-7.059-.017-.008-.033-.006-.048-.022-.386-.448-.831-.974-1.391-1.207-.688-.285-1.128.373-1.444.885-.524.855-.967 1.748-1.598 2.533-.052.065-.158.051-.212 0-.38-.352-.669-.806-.952-1.236-.29-.438-.57-.886-.86-1.327-.268.797-.559 1.588-.887 2.368-1.154 2.752-3.043 5.786-4.161 8.833.064.158.117.319.207.467.234.387.568.755 1.004.906.467.161.983.17 1.469.111" fill="#fff" fill-rule="nonzero" opacity=".2" transform="matrix(5.55556 0 0 5.55556 139.87205664 361.22015376)"/><path d="m0-4.477c-.446.49-.91.968-1.378 1.429-.352.346-.717.681-1.093 1.002-.187.566-.374 1.132-.559 1.7.682.008 1.367.126 2.022.346-.777-1.281-.024-3.202 1.008-4.477" fill="#603812" fill-rule="nonzero" opacity=".15" transform="matrix(5.55556 0 0 5.55556 577.5724068 445.73133248)"/><path d="m0-3.118c-.649.424-1.258.909-1.809 1.457-.659.655-1.172 1.459-1.758 2.18-.081.099-.174.191-.258.289.23-.239.468-.446.699-.6 1.174-.78 2.406-1.037 3.551-.861.161-1.159.531-2.233 1.009-3.273-.49.245-.972.506-1.434.808" fill="#603812" fill-rule="nonzero" opacity=".15" transform="matrix(5.55556 0 0 5.55556 600.77798092 414.18130724)"/><path d="m0-1.996c-.313.236-.567.497-.815.8-.226.276-.448.556-.724.783-.575.475-1.188.84-1.88 1.119-.626.251-1.273.424-1.912.637-.441.148-.99.326-1.392-.011-.381-.319-.464-.845-.31-1.297.17-.497.52-.926.883-1.297.177-.183.369-.356.566-.52-1.102-.561-1.673-1.437-1.856-2.426-.177.995-.901 1.785-2.312 1.966-1.232.158-2.591-.127-3.716-.627-.49-.218-.97-.484-1.376-.839-.514-.451-.929-1.436-1.548-1.663-.26-.096-.235-.507.068-.503.785.011.998.375 1.5.917.694.753 1.462 1.262 2.437 1.613 1.031.37 2.392.472 3.307.092-.101.02-.199.053-.302.062-.97.081-1.934-.318-2.777-.758-.848-.443-1.614-1.01-2.437-1.493-.564-.332-1.121-.773-1.745-.987-.205-.071-.46-.126-.635.039-.259.246-.263.732-.268 1.058-.007.374.086.704.306 1.008.193.269.447.49.676.726.558.575.871 1.246.768 2.061-.065.505-.23 1.21-.817 1.334-.518.11-1.043-.26-1.427-.561-.093-.073-.177-.159-.268-.236.068.711.115 1.41.081 2.079.824.501 1.512 1.267 2.277 1.844 1.768 1.337 3.851 1.634 5.999 1.534.054-.122.159-.225.323-.243 1.387-.159 2.72-.553 3.966-1.131.063-.195.312-.319.532-.258 1.54-.801 2.927-1.899 4.059-3.252.429-.512.892-1.186 1.31-1.938-.182.121-.366.237-.541.368" fill="#603812" fill-rule="nonzero" opacity=".15" transform="matrix(5.55556 0 0 5.55556 636.97800988 499.28137532)"/><path d="m0 2.078c.078.053.173.074.259.112-.089-.135-.065-.362.137-.435.582-.21.984-.57 1.4-.999-.282-.038-.565-.067-.846-.128-.324-.071-.183-.554.137-.494.855.162 1.711.201 2.578.131.377-.031.381.571 0 .59-.445.023-.887.014-1.326-.022.008.042-.005.086-.024.131.364.538.533 1.075.563 1.582.153.035.306.079.457.134.3-.565.637-1.182.685-1.826.038-.498-.121-.984-.268-1.456-.573.044-1.144.105-1.706.218-.671.134-1.435.316-1.972.767-.513.432-.697 1.276-.074 1.695" fill="#603812" fill-rule="nonzero" opacity=".15" transform="matrix(5.55556 0 0 5.55556 613.56688004 462.2702346)"/><path d="m0 4.189c-.013-.366.069-.716.188-1.06.118-.339.271-.683.279-1.048.004-.191-.027-.414-.118-.584-.017-.031-.031-.043-.07-.086-.136-.15-.288-.288-.437-.425-.391-.357-.796-.706-1.226-1.016-.132-.095-.29-.22-.438-.269-.033-.011-.004-.009-.072-.009-.049-.001-.099-.001-.148.006-.098.013-.194.047-.281.094-.443.239-.687.772-.867 1.216-.222.542-.377 1.106-.564 1.66-.427 1.27-1.209 2.447-2.279 3.264-1.162.885-2.658 1.214-4.044.672-.607-.237-1.197-.596-1.644-1.075-.345-.369-.617-.803-.836-1.257-.508-1.062-.763-2.234-.89-3.399-.134-1.227-.115-2.477.073-3.698.075-.485.179-.982.329-1.462-.625 1.131-1.243 2.263-1.874 3.375.326 1.651.477 3.523 1.391 4.973 1.249 1.982 4.237 4.415 6.577 3.248 2.197-1.096 3.864-4.42 4.469-6.676.134-.504.868-.287.772.213-.228 1.183-.821 2.677-1.668 4.039 1.218 1.05 2.661 1.68 4.027.847-.41-.416-.628-.955-.649-1.543" fill="#603812" fill-rule="nonzero" opacity=".15" transform="matrix(5.55556 0 0 5.55556 333.06110008 555.6591982)"/><path d="m0 29.049c.313-.716.415-1.517.454-2.29.042-.848 0-1.698-.062-2.544-.057-.764-.139-1.526-.186-2.29-.06-.992-.059-1.998.008-2.989.062-.944.202-1.882.436-2.799.266-1.042.685-2.02 1.048-3.029.394-1.098.792-2.2 1.03-3.344.162-.778.21-1.572.36-2.351.1-.516.329-.952.798-1.219.792-.454 1.77-.472 2.656-.44 1.152.041 2.329.19 3.447-.181.519-.172.958-.416 1.408-.726.426-.294.857-.588 1.329-.805 1.765-.812 3.604-.233 5.403.122 2.209.436 4.512.324 6.738.086.868-.093 1.718-.225 2.586-.06.945.18 1.829.591 2.746.869 2.223.672 4.563.674 6.864.674.082 0 .15.069.15.15.001 2.026.078 4.072.426 6.071.158.91.431 1.767.765 2.627.346.886.683 1.76.913 2.685.38 1.527.557 3.08.701 4.645.01.117.022.237.033.355.257-1.996.184-3.965-.41-5.768-.074-.221.03-.387.186-.474-1.681-4.447-2.469-9.142-2.43-14.008-3.301.444-7.467.219-9.751-1.473-3.678 1.917-10.283 1.297-13.277-.972-.048-.036-.083-.076-.109-.118-3.315 2.403-8.613 2.487-12.801.509 1.126 6.355-.231 12.832-3.282 18.482 1.357 3.139 1.324 7.082.693 10.375-.015.078-.04.154-.056.232.141-.012.289.031.393.173.117.161.297.266.48.372.12-.172.228-.353.313-.547" fill="#603812" fill-rule="nonzero" opacity=".15" transform="matrix(5.55556 0 0 5.55556 230.58879588 237.1867212)"/><path d="m0 4.711c-1.869-.938-3.546-2.259-5.125-3.617-1.224-1.051-2.388-2.167-3.534-3.301 2.495 3.531 5.02 7.057 9.004 9.045.043.022.07.051.1.08.507-.526 1.047-1.007 1.621-1.442-.719-.154-1.411-.436-2.066-.765" fill="#603812" fill-rule="nonzero" opacity=".15" transform="matrix(5.55556 0 0 5.55556 285.01106164 444.93133184)"/><path d="m0-.837c-.861.537-1.8 1.071-2.778 1.359-.769.226-1.552.196-2.27-.171-.607-.31-1.103-.79-1.682-1.145-.625-.383-1.301-.511-2.012-.413 1.512.719 2.338 2.212 1.86 4.286 4.688.177 8.234-3.305 10.954-7.172-1.25 1.214-2.595 2.335-4.072 3.256" fill="#603812" fill-rule="nonzero" opacity=".15" transform="matrix(5.55556 0 0 5.55556 390.72225732 472.62024288)"/><path d="m0-9.887c-.362.009-.688.16-.983.372-.003.004-.001.009-.005.013-.764.77-1.312 1.791-1.783 2.756-.519 1.063-.957 2.194-1.154 3.365-.146.866-.191 1.958.502 2.614.707.67 1.835.767 2.759.747.903-.019 1.856-.161 2.703-.499-.134-.589-.374-1.142-.645-1.68-.537-1.065-1.134-2.119-1.283-3.323-.177-1.448.195-2.931-.111-4.365" fill="#603812" fill-rule="nonzero" opacity=".15" transform="matrix(5.55556 0 0 5.55556 343.03888584 406.19796752)"/><path d="m0-3.194c.259.385.562.734.9 1.051.452.421.969.782 1.327 1.292.316.45.453.98.512 1.521.431-.617.876-1.218 1.361-1.774-1.465-.737-2.732-1.689-3.884-2.76-.129.226-.226.431-.27.635.019.011.039.014.054.035" fill="#603812" fill-rule="nonzero" opacity=".15" transform="matrix(5.55556 0 0 5.55556 261.4888206 493.03137032)"/><path d="m0-.156c.033-.312.067-.624.107-.935-1.19.398-2.48.542-3.883.36-.072.221-.157.446-.257.678.587.283 1.12.622 1.605.988.851-.267 1.627-.705 2.428-1.091" fill="#603812" fill-rule="nonzero" opacity=".15" transform="matrix(5.55556 0 0 5.55556 372.66113176 496.8258178)"/><path d="m0-24.445c-.737.542-1.541.901-2.39.963-.861.062-1.725-.244-2.535-.722.074.17.132.344.165.524.051.278.029.57-.137.808-.201.286-.54.437-.867.526-.432.118-.855.143-1.293.04-.436-.103-.851-.29-1.257-.477-.393-.181-.782-.381-1.195-.511-.351-.111-.751-.154-1.03.147-.22.238.041.641.104.899.111.45.047.965-.028 1.417-.161.968-.6 1.867-1.196 2.64-.618.804-1.392 1.475-2.227 2.045-.894.611-1.864 1.063-2.837 1.531-2.281 1.096-4.59 2.139-6.793 3.39-1.115.634-2.201 1.322-3.23 2.089-.897.668-1.878 1.168-2.952 1.483-1.098.324-2.242.464-3.382.53-.975.056-1.962.007-2.912-.232-1.449-.365-2.695-1.212-3.512-2.468-.384-.59-.662-1.237-.878-1.907-.036 3.44 1.855 6.974 5.027 8.714 5.498 3.016 10.557 1.65 15.239-1.761 2.905-2.117 5.03-4.973 7.679-7.356 2.351-2.114 6.247-3.617 7.657-6.568-1.708-.297-3.357-1.226-4.472-2.463-.173-.193.091-.455.283-.283 1.512 1.351 3.379 2.219 5.442 2.104.831-.047 1.75-.269 2.439-.763.964-.689 2.178-3.19 1.088-4.339" fill="#231f20" fill-rule="nonzero" opacity=".2" transform="matrix(5.55556 0 0 5.55556 300.84440764 733.84822964)"/><path d="m0 6.331c.508-.214 1.015-.429 1.534-.612.06-.021.141.014.169.069.076.144.142.277.182.425.624.018 1.342-.018 1.82-.461.357-.331.519-.815.652-1.27.183-.617.292-1.269.582-1.848.278-.556.718-1.028 1.28-1.303.185-.092.379-.156.576-.207-.989-.38-1.994-.743-2.985-1.124.111.429.118.938-.029 1.564-.47 2.022-2.009 3.661-3.781 4.767" fill="#231f20" fill-rule="nonzero" opacity=".2" transform="matrix(5.55556 0 0 5.55556 393.58337072 528.09806504)"/><path d="m0 17.533v.036h13.684c-.728-.775-1.382-1.625-1.903-2.53-.03-.053-.027-.14.024-.181 1.178-.949 2.519-1.662 3.889-2.291 1.205-.553 2.434-1.056 3.652-1.579.943-.405 1.913-.746 2.869-1.117 1.044-.405 2.083-.838 3.057-1.393.843-.479 1.658-1.064 2.253-1.839-.759-.437-1.661-.567-2.513-.703-1.095-.175-2.192-.305-3.297-.394-2.015-.16-4.036-.206-6.056-.235-1.017-.015-2.035-.025-3.053-.045-.849-.015-1.7.008-2.549-.015-1.493-.041-3.055-.369-3.992-1.642-.75-1.021-.988-2.367-.947-3.641-.364.272-.721.559-1.063.868-2.169 1.955-4.034 4.096-6.149 5.998.004.01.011.016.014.027.903 3.263 2.332 6.923 2.308 10.343-.001.179-.104.279-.228.333" fill="#231f20" fill-rule="nonzero" opacity=".2" transform="matrix(5.55556 0 0 5.55556 212.67211488 665.26484144)"/><path d="m0 7.842c.041 0 .081-.003.122-.001.312.022.612.115.921.154.264.033.527.015.634-.265.103-.271.045-.487-.092-.733-.167-.3-.383-.572-.594-.841-.232-.297-.472-.591-.685-.903-.176-.26-.341-.538-.388-.852-.123-.823.018-1.681.456-2.394.4-.653 1.02-1.116 1.729-1.382-.035-.264-.07-.534-.104-.811-1.365.603-2.579 1.87-3.133 3.266-.664 1.674.451 3.269 1.13 4.728.006.012 0 .022.004.034" fill="#231f20" fill-rule="nonzero" opacity=".2" transform="matrix(5.55556 0 0 5.55556 522.05014016 495.4369278)"/><path d="m0 5.298c.199-.552.451-1.083.665-1.63.211-.535.436-1.065.618-1.61.148-.441.298-.904.288-1.372-.009-.401-.066-.799-.053-1.2.011-.346.072-.722.322-.981.058-.062.126-.108.197-.147-.506-.45-.883-.984-1.13-1.57-1.968 3.934-1.761 7.769-1.56 11.722.112-1.088.275-2.167.653-3.212" fill="#231f20" fill-rule="nonzero" opacity=".2" transform="matrix(5.55556 0 0 5.55556 508.03901784 548.75919268)"/><path d="m0-6.141c-.877.41-1.792.725-2.724.95.151.111.278.249.358.425.13.289.095.609-.026.894-.253.594-.77.978-1.302 1.305-.7.43-1.497.703-2.285.923-.821.229-1.659.394-2.501.514-.418.059-.829.081-1.25.088-.397.006-.822.031-1.17.234.254.246.537.432.838.578-.036-.101.001-.224.146-.222 2.229.031 4.575.452 6.762-.17 2.397-.682 4.567-3.097 3.154-5.519" fill="#231f20" fill-rule="nonzero" opacity=".2" transform="matrix(5.55556 0 0 5.55556 608.80020956 554.22030816)"/><path d="m0-8.694c.852.307 1.812.367 2.709.489.581.079 1.173.192 1.693.475.45.244.985.681 1.071 1.216.04.246-.01.494-.05.737-.062.367-.1.734-.107 1.106-.015.787.084 1.569.247 2.337.214 1.008.532 2.01.825 3.015 1.056-3.286 2.112-6.552 2.188-10.056-2.525 1.582-5.763 1.056-8.576.681" fill="#231f20" fill-rule="nonzero" opacity=".2" transform="matrix(5.55556 0 0 5.55556 555.0723888 602.12034648)"/><path d="m0-1.626c-1.139.282-2.079 1.044-2.958 1.782-.821.689-1.635 1.417-2.616 1.873-.845.392-1.754.625-2.678.734-1.854.219-3.88-.057-5.484-1.059-1.844-1.15-2.633-3.237-3.108-5.264-.493-2.105-.81-4.292-2.042-6.101.62 1.967 1.081 3.958 1.099 5.992.022 2.766-.692 5.454-1.461 8.149.007.005.015.001.021.007 4.384 3.548 10.987 3.268 15.789.59 3.018-1.684 4.399-4.096 5.155-6.909-.577.034-1.155.067-1.717.206" fill="#231f20" fill-rule="nonzero" opacity=".2" transform="matrix(5.55556 0 0 5.55556 564.98350784 688.41485996)"/><path d="m0 3.241c1.794.047 3.205-1.497 4.99-1.513.064 0 .131.047.145.11.149.692.08 1.398-.298 2.006-.67 1.077-1.945 1.661-3.03 2.223-.578.298-1.161.594-1.694.968-.382.268-.733.592-.964.998 1.08.171 2.179-.083 3.202-.432-.021-.062-.02-.13.036-.175 1.581-1.267 3.341-2.055 4.366-3.93.92-1.682 1.002-3.29-1.024-4.104-.441-.176-.86-.261-1.271-.443-.784 1.387-2.034 2.527-3.427 3.237-.352.18-.662-.341-.311-.532 1.312-.714 2.396-1.734 3.083-3.073.042-.082.074-.167.11-.251.014-.076.042-.15.091-.207.395-1.083.265-2.259-1.046-2.678-.597-.191-1.213-.287-1.825-.408.007.668-.027 1.336-.158 1.933.506-.183.973-.457 1.401-.871.192-.187.448.088.287.288-.054.067-.122.122-.18.187.17.482.276.992.243 1.505-.098 1.535-1.309 2.527-2.6 3.184-.209.538-.541 1.048-1.039 1.497.021.091.022.182.034.273.275.123.569.2.879.208" fill="#231f20" fill-rule="nonzero" opacity=".2" transform="matrix(5.55556 0 0 5.55556 369.62224044 525.32028504)"/><path d="m0-4.261c-.823.024-1.706.035-2.62.03-.387.415-.783.821-1.199 1.207-1.143 1.063-2.378 2.013-3.648 2.915.716.05 1.49.086 2.294.109 1.804-1.318 3.504-2.774 5.173-4.261" fill="#fff" fill-rule="nonzero" transform="matrix(5.55556 0 0 5.55556 306.66 350.4)"/><path d="m0 2.001c.144-.172.268-.401.18-.627-.125-.321-.521-.5-.811-.628-.073-.033-.093-.142-.054-.205.412-.67 1.045-1.11 1.703-1.524-.167-.119-.359-.203-.574-.203h-.008c-.132.009-.275.017-.415.025-.14.391-.387.725-.737 1-.433.342-.923.605-1.341.965.158.079.315.157.472.236.056.028.089.11.068.169-.133.388-.392.697-.715.944-.678.517-1.54.77-2.35.995-.043.013-.089.023-.133.035 1.01.004 2.024-.014 2.997-.05.609-.279 1.285-.611 1.718-1.132" fill="#fff" fill-rule="nonzero" transform="matrix(5.55556 0 0 5.55556 314.23 332.8)"/><path d="m0-4.139c-.684-.004-1.38-.015-2.073-.035-.332.385-.663.771-.997 1.155-.865.995-1.745 1.981-2.67 2.923.582.055 1.231.097 1.906.131 1.297-1.374 2.544-2.794 3.834-4.174" fill="#fff" fill-rule="nonzero" transform="matrix(5.55556 0 0 5.55556 409.98 349.9)"/><path d="m0 4.296c.976-.473 1.932-.983 2.752-1.698-.335-.34-.674-.694-1.066-.962-.082-.056-.099-.16-.031-.236.473-.521 1.011-.973 1.569-1.402-.393.014-.797.026-1.219.033-.137.196-.278.389-.415.584-.62.882-1.256 1.764-2.006 2.542-.408.423-.87.816-1.379 1.124.591.013 1.192.017 1.795.015" fill="#fff" fill-rule="nonzero" transform="matrix(5.55556 0 0 5.55556 408.89 326.6)"/><path d="m-1.458-.975c-1.24 0-1.798.56-1.799 1.242 0 .682.558 1.228 1.799 1.228 1.239 0 2.246-.553 2.245-1.235 0-.682-1.006-1.235-2.245-1.235" fill="#231f20" fill-rule="nonzero" transform="matrix(.197885 -5.55203 -5.55203 -.197885 294.69 306.2)"/><path d="m-1.458-.975c-1.24 0-1.798.56-1.799 1.242 0 .682.558 1.228 1.799 1.228 1.239 0 2.246-.553 2.245-1.235 0-.682-1.006-1.235-2.245-1.235" fill="#231f20" fill-rule="nonzero" transform="matrix(.197885 -5.55203 -5.55203 -.197885 400.92 306.2)"/><path d="m0 4.821c-3.085.249-7.517.246-10.45-.048-.759.006-1.393-.615-1.415-1.387l.03-2.227c-.023-.772.573-1.402 1.332-1.408 3.121.259 7.552.329 10.41.126.759-.007 1.393.614 1.416 1.386l.009 2.149c.023.772-.573 1.403-1.332 1.409z" fill="none" stroke="#231f20" stroke-width=".75" transform="matrix(5.55556 0 0 5.55556 317.16 324.8)"/><path d="m0 4.821c-3.085.249-7.517.246-10.45-.048-.759.006-1.393-.615-1.416-1.387l.03-2.227c-.022-.772.573-1.402 1.332-1.408 3.121.259 7.553.329 10.411.126.759-.007 1.393.614 1.416 1.386l.009 2.149c.023.772-.573 1.403-1.332 1.409z" fill="none" stroke="#231f20" stroke-width=".75" transform="matrix(5.55556 0 0 5.55556 435.32 324.8)"/><g fill-rule="nonzero"><path d="m0 16.445c1.9-3.344 3.642-6.898 5.991-9.952 1.386-1.8 2.899-3.26 4.99-4.224 1.171-.539 2.055-.832 3.386-.707 2.729.256 3.661 2.294 3.178 4.924-.051.275.359.506.491.207 1.993-4.497-1.502-6.915-5.815-5.776-6.813 1.799-9.675 9.732-12.561 15.329-.115.224.214.421.34.199" fill="#231f20" transform="matrix(5.55556 0 0 5.55556 249.92 459.7)"/><path d="m0-6.499c2.226-.9 4.936-.158 7.033.862 2.401 1.167 4.684 4.267 2.052 6.535-.403.349.184.933.584.585 2.22-1.921 1.523-4.999-.547-6.753-2.345-1.987-6.502-3.06-9.367-1.811-.326.143-.09.718.245.582" fill="#231f20" transform="matrix(5.55556 0 0 5.55556 310.48 532.7)"/><path d="m0-8.201c2.41-.459 4.521 1.047 6.386 2.395 1.107.8 2.141 1.87 1.949 3.387-.13 1.026-1.252 1.84-1.98 2.48-.343.303.126.931.498.644 1.978-1.526 3.267-3.738 1.408-5.935-1.007-1.19-2.615-2.085-3.971-2.805-1.427-.758-2.849-1.158-4.432-.679-.331.1-.192.576.142.513" fill="#231f20" transform="matrix(5.55556 0 0 5.55556 314.08 561)"/><path d="m.709-.735c.035.431.464.753.729 1.096.364.468-.36 1.021-.729.559-.386-.487-.869-.881-.93-1.538-.057-.601.881-.719.93-.117" fill="#231f20" transform="matrix(.691562 5.51235 5.51235 -.691562 324.9 563.2)"/><path d="m0-10.095c2.907-.419 6.725 2.674 6.212 5.831-.175 1.071-.845 2.291-1.643 3.021-1.591 1.457-3.353.657-4.766-.64-.446-.408-1.115.277-.659.659 1.412 1.183 3.21 2.203 5.035 1.275 1.464-.744 2.365-2.387 2.782-3.914.465-1.706-.625-3.667-1.758-4.907-1.411-1.545-3.306-2.304-5.374-1.946-.412.072-.231.679.171.621" fill="#231f20" transform="matrix(5.55556 0 0 5.55556 314.18 592.3)"/><path d="m0-1.585c-.171.272-.37.523-.616.732-.246.208-.569.285-.83.466-.315.218-.118.673.256.606.378-.068.688-.371.959-.621.282-.261.515-.573.676-.923.137-.297-.265-.546-.445-.26" fill="#231f20" transform="matrix(5.55556 0 0 5.55556 333.77 492.6)"/><path d="m0-11.652c-.225 4.38-1.717 8.201-6.643 8.771-3.153.364-6.391.008-9.155-1.619-.565-.333-1.088.566-.513.879 6.959 3.794 17.718 1.565 16.574-8.031-.02-.165-.253-.173-.263 0" fill="#231f20" transform="matrix(5.55556 0 0 5.55556 325.44 255.1)"/><path d="m0 .184c.026-.002.054-.004.08-.007.044-.003.087-.036.085-.085s-.037-.081-.085-.085c-.026-.003-.054-.005-.08-.007-.048-.004-.094.045-.092.092s.041.096.092.092" fill="#231f20" transform="matrix(5.55556 0 0 5.55556 310.37 231.8)"/><path d="m0-13.176c.597 3.084 1.406 7.356-1.134 9.784-3.27 3.125-10.327 1.786-13.956.169-.42-.188-.723.337-.357.611 3.287 2.474 10.878 3 14.24.368 3.31-2.591 2.794-7.458 1.631-11.049-.088-.271-.478-.16-.424.117" fill="#231f20" transform="matrix(5.55556 0 0 5.55556 396.24 249.3)"/><path d="m0-9.082c1.227 5.134-3.628 7.659-7.977 7.851-2.46.108-6.797.13-8.739-1.425-.46-.368-1.121.267-.659.659 2.882 2.445 9.427 2.141 12.779 1.087 3.591-1.128 6.355-4.468 5.089-8.308-.102-.312-.57-.186-.493.136" fill="#231f20" transform="matrix(5.55556 0 0 5.55556 479.22 250.2)"/><path d="m2.391-1.133c-.426 1.993-.815 4.229.631 5.97.361.435-.391.929-.631.425-.946-1.982-1.734-4.55-.435-6.602.157-.247.489-.049.435.207" fill="#231f20" transform="matrix(3.69555 4.14815 4.14815 -3.69555 275.58 267.1)"/><path d="m0-4.066c-1.048-.238-2.081.441-2.882 1.049-.877.666-2.092 1.692-2.369 2.807-.068.276.257.448.461.268.715-.628 1.156-1.54 1.876-2.198.88-.803 1.77-1.259 2.914-1.559.177-.047.185-.325 0-.367" fill="#231f20" transform="matrix(5.55556 0 0 5.55556 418.47 284.3)"/><path d="m0 .991c1.137.25 2.523-.43 3.703-.491 1.492-.078 2.706.739 4.162.838-.036-.272-.073-.545-.11-.817-.068.027-.136.053-.204.08-.294.115-.371.595 0 .677l.204.045c.583.128.72-.757.11-.817-1.517-.149-2.698-.966-4.268-.795-1.155.126-2.808.27-3.619 1.192-.026.028-.019.079.022.088" fill="#231f20" transform="matrix(5.55556 0 0 5.55556 324.9 327.4)"/><path d="m5.213-11.938c-3.542 2.906-7.791 11.156.116 11.376.596.017.483.954-.116.925-8.144-.402-5.329-9.601-.31-12.7.272-.167.567.189.31.399" fill="#231f20" transform="matrix(-5.51225 -.692362 -.692362 5.51225 373.84 410.2)"/><path d="m-.516-22.874c-2.344 7.733-2.497 15.193.78 22.717.215.492-.568.783-.78.292-3.185-7.338-3.727-15.74-.422-23.141.1-.223.496-.113.422.132" fill="#231f20" transform="matrix(-5.47538 -.940451 -.940451 5.47538 209.77 351.9)"/><path d="m0-24.618c2.129 5.104.73 11.975-1.969 16.567-1.498 2.549-4.316 4.883-4.288 8.023.006.578.891.579.9 0 .044-2.84 2.805-5.271 4.154-7.576 1.206-2.061 2.098-4.303 2.548-6.65.646-3.37.676-7.428-.782-10.602-.143-.313-.698-.086-.563.238" fill="#231f20" transform="matrix(5.55556 0 0 5.55556 216.84 476.5)"/><path d="m0 3.871c.101.606.939.665 1.441.655.734-.013 1.24-.472 1.591-1.08.374-.647.597-1.45.393-2.189-.076-.277-.212-.546-.397-.765-.262-.309-.725-.409-.955-.723-.317-.434-1.051-.003-.725.424.489.645 1.384.753 1.388 1.732.002.475-.172.971-.427 1.369-.194.302-.51.513-.868.591-.124.027-.834.016-.872-.171-.077-.376-.631-.212-.569.157" fill="#231f20" transform="matrix(5.55556 0 0 5.55556 214.67 400.8)"/><path d="m5.572-13.348c1.168 5.099 2.476 10.332.827 15.478-.166.522-.995.319-.827-.205 1.608-5.02.243-10.079-.614-15.104-.067-.396.521-.576.614-.169" fill="#231f20" transform="matrix(-3.87914 3.977 3.977 3.87914 300.88 453.3)"/><path d="m0 29.115c6.551 1.125 10.658-4.99 13.821-9.852 3.5-5.379 7.305-13.295 5.259-19.848-.168-.54-1.025-.305-.848.234 1.795 5.446-1.115 12.41-3.792 17.061-3.019 5.244-7.497 12.499-14.37 11.889-.292-.026-.362.466-.07.516" fill="#231f20" transform="matrix(5.55556 0 0 5.55556 349.54 330.8)"/><path d="m0-20.407c-.117 7.246 1.568 14.103 5.32 20.344.182.301.696.107.582-.245-1.124-3.481-3.111-6.623-4.051-10.181-.861-3.254-.836-6.671-1.516-9.963-.039-.193-.332-.143-.335.045" fill="#231f20" transform="matrix(5.55556 0 0 5.55556 438.32 359.8)"/><path d="m0-3.771c.835.706.687 1.857-.033 2.593-.709.724-1.65.805-2.575 1.037-.431.108-.339.776.105.774 1.339-.009 2.868-.694 3.514-1.918.544-1.034.29-2.254-.665-2.934-.262-.187-.594.239-.346.448" fill="#231f20" transform="matrix(5.55556 0 0 5.55556 441.3 431.7)"/><path d="m6.203-7.95c2.162 4.167 2.338 8.91.795 13.308-.183.522-.979.196-.795-.326 1.516-4.288 1.169-8.57-.717-12.671-.213-.462.487-.752.717-.311" fill="#231f20" transform="matrix(-.670167 5.51499 5.51499 .670167 343.87 389.8)"/><path d="m0-7.813c.481 3.267.777 7.175 4.702 7.844 3.725.635 6.755-2.464 8.823-5.123.34-.436-.231-1.058-.626-.626-2.001 2.192-4.332 5.171-7.674 4.818-3.683-.389-3.806-4.235-4.517-7.109-.116-.47-.775-.259-.708.196" fill="#231f20" transform="matrix(5.55556 0 0 5.55556 295.02 460.1)"/><path d="m3.681-5.363c-.372 2.659-.066 5.232.817 7.763.18.516-.632.695-.817.198-.974-2.615-1.145-5.327-.662-8.066.065-.371.714-.273.662.105" fill="#231f20" transform="matrix(-1.59522 5.3216 5.3216 1.59522 337.62 425.3)"/><path d="m0-7.413c-.537.679-1.114 1.542-.702 2.404.287.6.876 1.071 1.209 1.659.55.972.713 2.051.871 3.139.068.472.796.275.721-.199-.181-1.149-.389-2.279-.983-3.296-.242-.415-.547-.79-.844-1.165-.66-.833-.354-1.339.181-2.192.171-.271-.247-.611-.453-.35" fill="#231f20" transform="matrix(5.55556 0 0 5.55556 261.6 508.4)"/><path d="m0-3.838c-.09.564-.143 1.136-.197 1.705-.06.63-.19 1.303-.114 1.931.037.298.485.421.568.076.266-1.116.164-2.52.11-3.662-.009-.199-.332-.269-.367-.05" fill="#231f20" transform="matrix(5.55556 0 0 5.55556 373.54 509.7)"/><path d="m-1.502-2.561c-.177 1.084.084 2.015.647 2.937.263.431-.381.883-.647.45-.63-1.029-.737-2.314-.4-3.458.072-.246.444-.193.4.071" fill="#231f20" transform="matrix(-3.17268 -4.56052 -4.56052 3.17268 366.38 504.9)"/><path d="m0 7.844c1.99-1.016 3.725-2.904 4.159-5.16.428-2.218-2.557-2.864-4.205-2.772-.399.022-.534.645-.1.735.694.143 1.397.236 2.074.452 1.499.479 1.453 1.953.843 3.14-.686 1.339-1.77 2.358-3.083 3.073-.35.19-.041.712.312.532" fill="#231f20" transform="matrix(5.55556 0 0 5.55556 375.35 493.9)"/><path d="m0 9.789c2.427-.985 4.911-2.992 5.532-5.663.648-2.781-1.58-3.334-3.701-4.045-.443-.148-.681.496-.309.732.532.337 1.073.408 1.645.638 2.027.814 1.943 2.423 1.023 4.107-1.025 1.875-2.785 2.663-4.366 3.929-.137.111.012.369.176.302" fill="#231f20" transform="matrix(5.55556 0 0 5.55556 383.86 513.9)"/><path d="m0-3.979c-.548.543-1.105 1.153-1.222 1.948-.105.726.295 1.192.599 1.807.173.351.708.042.526-.308-.297-.574-.68-.96-.54-1.666.119-.6.537-1.106.895-1.582.114-.152-.129-.326-.258-.199" fill="#231f20" transform="matrix(5.55556 0 0 5.55556 267.82 517.7)"/><path d="m-2.077-6.922c1.834 1.736 2.438 4.77.591 6.708-.35.366-.945-.158-.591-.521 1.783-1.832.776-4.016-.421-5.818-.173-.262.184-.594.421-.369" fill="#231f20" transform="matrix(-5.45059 -1.07485 -1.07485 5.45059 241.06 541)"/><path d="m0-9.384c.021 2.173.216 4.375 1.64 6.124 1.233 1.516 3.391 3.551 5.516 3.397 3.292-.238 5.93-4.9 6.479-7.746.095-.5-.638-.717-.773-.213-.604 2.256-2.271 5.58-4.468 6.676-2.34 1.167-5.329-1.266-6.578-3.248-.927-1.471-1.068-3.377-1.404-5.046-.047-.235-.414-.177-.412.056" fill="#231f20" transform="matrix(5.55556 0 0 5.55556 247.81 602.6)"/><path d="m0 7.405c.061-1.302-.069-2.65.066-3.946.212-2.017 1.999-2.81 3.868-3.006.468-.049.477-.787 0-.741-1.463.14-3.098.657-4.044 1.866-.449.574-.51 1.173-.509 1.881 0 1.311.028 2.637.1 3.946.019.333.503.334.519 0" fill="#231f20" transform="matrix(5.55556 0 0 5.55556 227.22 545.8)"/><path d="m0 .539c2.088 2.315 6.039 3.578 8.768 1.557 1.275-.945 2.95-5.309.454-5.628-.359-.046-.394.446-.165.612 1.434 1.036.116 3.796-.893 4.518-.689.493-1.608.715-2.439.762-2.063.115-3.93-.753-5.442-2.104-.192-.172-.456.091-.283.283" fill="#231f20" transform="matrix(5.55556 0 0 5.55556 249.44 613.3)"/><path d="m0 11.928c3.135.139 6.516.003 9.155-1.92 4.572-3.331 5.397-9.057 12.198-9.288.539-.019.541-.859 0-.84-3.333.113-5.868 1.364-8.002 3.931-1.187 1.427-2.08 3.092-3.359 4.444-2.676 2.826-6.324 3.148-9.992 3.095-.373-.005-.37.561 0 .578" fill="#231f20" transform="matrix(5.55556 0 0 5.55556 105.32 564.6)"/><path d="m0-38.148c-2.092 1.639-4.809 1.389-7.146 2.3-1.522.593-2.774 1.679-3.958 2.769-4.298 3.957-7.478 10.095-13.17 12.196-3.254 1.201-4.519 1.388-5.859 4.978-1.129 3.024-1.589 6.615.172 9.503 3.941 6.46 12.71 6.637 18.469 3.198 3.907-2.332 6.51-5.779 9.838-8.781 2.83-2.551 6.573-3.579 8.043-7.296.207-.522-.637-.749-.841-.232-1.26 3.186-5.375 4.718-7.817 6.913-2.65 2.383-4.774 5.24-7.681 7.357-4.682 3.411-9.742 4.775-15.241 1.759-5.4-2.963-7.134-11.134-1.85-15.169 2.136-1.631 4.677-1.845 6.859-3.58 2.317-1.844 4.157-4.353 6.101-6.559 2.676-3.033 5.116-5.688 9.125-6.839 2.161-.621 3.627-.641 5.383-2.09.302-.25-.127-.662-.427-.427" fill="#231f20" transform="matrix(5.55556 0 0 5.55556 244.37 736.5)"/><path d="m-11.558-6.167c6.358 4.473 4.297 12.354.622 17.913-.266.402-.879-.01-.622-.418 3.59-5.662 5.207-12.133-.304-17.147-.197-.179.091-.498.304-.348" fill="#231f20" transform="matrix(.345182 -5.54483 -5.54483 -.345182 365.66 77.2)"/><path d="m-9.383-5.26c6.206 3.283 4.374 11.958.548 16.431-.252.296-.755-.077-.548-.408 2.954-4.718 5.404-11.661-.224-15.623-.238-.166-.043-.541.224-.4" fill="#231f20" transform="matrix(1.3293 -5.39418 -5.39418 -1.3293 461.65 103.2)"/><path d="m0-54.346c8.531 2.379 2.002 23.12 2.824 28.961.848 6.021 12.856 22.342 1.857 25.218-.511.133-.295.917.218.791 11.413-2.815.696-18.111-.843-24.032-1.837-7.072.908-14.794.737-21.998-.093-3.903-.183-8.395-4.616-9.579-.413-.111-.588.524-.177.639" fill="#231f20" transform="matrix(5.55556 0 0 5.55556 476.53 466.3)"/><path d="m0-16.361c.455 2.749 1.294 6.164.633 8.978-.812 3.452-4.213 6.073-7.483 6.843-.525.124-.302.936.224.81 3.296-.789 6.297-3.104 7.614-6.306 1.288-3.131.273-7.321-.564-10.442-.075-.279-.47-.156-.424.117" fill="#231f20" transform="matrix(5.55556 0 0 5.55556 493.28 523.2)"/><path d="m0-55.739c-4.721-3.435-10.725-3.025-15.245.631-5.61 4.539-7.115 12.558-8.216 19.268-1.526 9.312-2.924 17.094-7.222 25.581-2.439 4.817-3.577 10.458.813 14.575.41.384 1.028-.232.617-.617-6.313-5.917-.23-13.318 2.304-19.358 1.987-4.738 2.804-9.831 3.557-14.882.831-5.575 1.533-11.219 3.647-16.485 3.17-7.901 11.318-13.413 19.381-8.089.393.259.733-.355.364-.624" fill="#231f20" transform="matrix(5.55556 0 0 5.55556 297.81 443)"/><path d="m0-26.364c-.541 4.17-1.261 8.193-2.664 12.164-.711 2.012-1.934 3.973-1.597 6.176.563 3.673 4.806 6.593 7.865 8.106.464.229.874-.467.408-.697-1.87-.925-3.622-2.147-5.099-3.626-2.72-2.722-2.398-5.655-1.194-8.987 1.531-4.238 2.497-8.636 2.754-13.136.017-.311-.435-.292-.473 0" fill="#231f20" transform="matrix(5.55556 0 0 5.55556 155.43 522)"/><path d="m0-4.117c-1.024.575-2.025 1.185-3.005 1.835-.861.572-1.858 1.128-2.534 1.918-.187.218.043.516.302.392.976-.465 1.825-1.278 2.713-1.898.906-.634 1.833-1.241 2.766-1.833.26-.165.029-.566-.242-.414" fill="#231f20" transform="matrix(5.55556 0 0 5.55556 250.07 349)"/><path d="m0-2.356c.19.418.569.768.827 1.152.266.399.45.849.722 1.241.177.253.632.108.527-.223-.152-.486-.48-.928-.786-1.33-.288-.378-.628-.857-1.069-1.06-.151-.07-.288.07-.221.22" fill="#231f20" transform="matrix(5.55556 0 0 5.55556 443.15 346)"/><path d="m0 11.877c.234-2.837-1.159-6.279.577-8.86 2.236-3.325 7.543-1.502 8.962 1.611 1.37 3.009-1.957 3.312-3.989 2.585-.979-.349-1.744-.856-2.44-1.612-.5-.544-.713-.908-1.498-.919-.302-.004-.328.407-.067.503.618.227 1.035 1.211 1.551 1.661.405.354.884.621 1.374.839 1.125.502 2.48.788 3.715.629 2.586-.331 2.932-2.683 1.652-4.662-1.648-2.548-5.31-3.921-8.125-2.541-3.807 1.868-2.556 7.453-2.185 10.766.035.3.448.308.473 0" fill="#231f20" transform="matrix(5.55556 0 0 5.55556 537.33 440.6)"/><path d="m0-4.716c1.277 1.845-.171 4.092-2.315 3.483-.917-.26-1.774-.936-2.045-1.832-1.096-3.629 3.593-7.591 6.905-5.689 3.41 1.959.907 7.032-.923 9.219-2.157 2.577-5.22 4.259-8.558 4.641-.491.056-.493.834 0 .774 5.173-.633 10.164-4.338 11.506-9.526.535-2.069.655-4.012-1.176-5.378-1.621-1.209-3.848-1.314-5.559-.235-2.758 1.738-4.493 6.621-1.017 8.376 2.845 1.435 5.561-1.389 3.584-4.068-.174-.237-.575-.015-.402.235" fill="#231f20" transform="matrix(5.55556 0 0 5.55556 623.7 494.3)"/><path d="m1.341-1.252c.314.862.51 1.746.586 2.661.031.38-.567.456-.586.078-.045-.869-.198-1.712-.471-2.538-.102-.31.358-.513.471-.201" fill="#231f20" transform="matrix(.736234 5.50656 5.50656 -.736234 624.76 457.4)"/><path d="m0 6.606c-1.104-3.051 3.221-6.364 6.079-5.083 1.343.603 3.119 2.001 3.777 3.328.188.377.757.045.567-.332-1.068-2.114-4.553-4.708-6.983-3.809-2.103.78-5.273 3.588-3.65 5.984.068.101.257.042.21-.088" fill="#231f20" transform="matrix(5.55556 0 0 5.55556 585.31 417.9)"/><path d="m0 7.185c-.626-1.812-.158-3.643 1.318-4.962.665-.594 1.585-.837 2.442-1.006 1.725-.34 3.013.587 3.887 1.991.227.365.806.03.579-.338-1.564-2.517-4.391-3.173-6.925-1.489-1.592 1.059-3.468 4.425-1.625 5.992.135.115.392.01.324-.188" fill="#231f20" transform="matrix(5.55556 0 0 5.55556 576.19 407.7)"/><path d="m0-10.93c.052 1.983-1.772 4-2.727 5.631-.974 1.665-1.748 3.36-1.952 5.294-.05.479.697.474.748 0 .285-2.611 1.79-4.791 3.118-6.981.722-1.192 1.59-2.495 1.548-3.944-.013-.472-.748-.474-.735 0" fill="#231f20" transform="matrix(5.55556 0 0 5.55556 628.83 412.3)"/><path d="m0 20.65c.994-3.038 1.977-6.073 3.213-9.024.723-1.726 1.501-3.456 2.517-5.033.527-.816 1.073-1.623 1.773-2.304.81-.786 4.087-3.178 4.844-.41.128.469.869.266.727-.2-1.216-3.994-5.873-.386-7.291 1.567-3.228 4.448-4.692 10.086-6.283 15.266-.098.321.396.453.5.138" fill="#231f20" transform="matrix(5.55556 0 0 5.55556 560.26 330.6)"/><path d="m.717-.27c.37.612.634 1.382.547 2.107-.038.31-.525.291-.547-.021-.044-.642-.114-1.207-.447-1.776-.176-.3.265-.613.447-.31" fill="#231f20" transform="matrix(4.27008 3.55396 3.55396 -4.27008 614.47 471.2)"/><path d="m0-3.997c1.284 1.165 2.758 2.573 4.325 3.348 1.693.837 3.571.967 5.426.855.44-.027.443-.718 0-.689-2.262.146-4.465-.116-6.322-1.52-1.049-.793-1.952-1.948-3.266-2.274-.155-.038-.291.163-.163.28" fill="#231f20" transform="matrix(5.55556 0 0 5.55556 531 526.7)"/><path d="m0 8.383c-.679-1.459-1.794-3.054-1.13-4.729.575-1.449 1.86-2.768 3.291-3.339.402-.161.257-.747-.182-.658-3.874.789-5.429 6.455-2.33 8.996.199.162.46-.035.351-.27" fill="#231f20" transform="matrix(5.55556 0 0 5.55556 522.03 492.2)"/><path d="m0 6.183c2.999.393 6.53 1.042 9.173-.878 1.883-1.368 2.61-3.965 1.212-5.926-.3-.421-1.003-.01-.697.408 1.865 2.538-.41 5.163-2.926 5.878-2.187.622-4.533.201-6.762.17-.23-.003-.215.32 0 .348" fill="#231f20" transform="matrix(5.55556 0 0 5.55556 553.71 519.3)"/><path d="m0 .046c.029 0 .029-.046 0-.046-.03 0-.03.046 0 .046" fill="#231f20" transform="matrix(5.55556 0 0 5.55556 442.03 662.4)"/><path d="m0 24.374c2.505-.797 3.426-2.592 3.687-5.161.65-6.422-1.526-12.285 1.699-18.392.252-.477-.472-.902-.726-.424-1.34 2.52-1.962 5.098-2.08 7.945-.163 3.921 2.567 13.664-2.688 15.64-.242.09-.146.473.108.392" fill="#231f20" transform="matrix(5.55556 0 0 5.55556 483.9 524.8)"/><path d="m0-31.21c1.151 5.883 4.506 11.538 3.214 17.695-.958 4.569-2.647 8.609-2.911 13.347-.029.515.772.513.801 0 .315-5.688 3.308-10.982 3.262-16.597-.042-5.016-2.765-9.772-3.992-14.548-.063-.244-.421-.139-.374.103" fill="#231f20" transform="matrix(5.55556 0 0 5.55556 441.91 761.2)"/><path d="m1.37-10.397c.174 3.416-.08 7.036.771 10.369.127.499-.628.712-.771.215-.946-3.286-.555-7.196-.564-10.582-.002-.364.546-.364.564-.002" fill="#231f20" transform="matrix(-5.35008 1.49695 1.49695 5.35008 220.98 757.8)"/><path d="m0-16.264c4.966 1.969 10.479 3.257 12.483 8.712 1.041 2.835 1.599 5.663 3.807 7.864.381.379.971-.211.59-.59-2.996-2.973-2.781-7.447-5.208-10.731-2.458-3.326-7.87-4.513-11.517-5.818-.358-.128-.498.427-.155.563" fill="#231f20" transform="matrix(5.55556 0 0 5.55556 411.27 617.1)"/><path d="m0 25.812c5.23 4.614 15.285 3.871 19.905-1.578 2.93-3.455 2.689-8.366 3.367-12.557.904-5.579 4.086-10 3.831-15.824-.021-.462-.717-.467-.722 0-.068 6.443-3.498 12.064-4.251 18.462-.57 4.847-1.351 9.147-5.989 11.734-4.802 2.679-11.405 2.958-15.787-.59-.246-.198-.598.138-.354.353" fill="#231f20" transform="matrix(5.55556 0 0 5.55556 456.21 571.9)"/><path d="m0-1.972c-.002.315-.004.629-.007.944-.001.277.055.654-.037.916l.144-.186c-.02.01-.04.019-.06.029.076-.011.152-.02.228-.03-.022-.006-.043-.012-.065-.017.066.065.13.13.195.195-.006-.018-.013-.037-.021-.055-.109-.283-.491-.234-.522.071-.047.466.597.495.756.113.106-.251.027-.625.02-.891-.009-.363-.019-.726-.027-1.089-.01-.388-.601-.39-.604 0" fill="#231f20" transform="matrix(5.55556 0 0 5.55556 328.49 575.8)"/><path d="m0-11.798c.18 3.33 1.293 9.027-1.674 11.251-.367.276-.008.903.365.624 1.236-.927 2.059-1.757 2.196-3.338.24-2.795-.053-5.757-.343-8.537-.035-.342-.564-.356-.544 0" fill="#231f20" transform="matrix(5.55556 0 0 5.55556 452 535.8)"/><path d="m0-9.213c-.783 1.857-1.597 4.449-.874 6.455.563 1.566 2.063 2.337 3.541 2.871.437.158.629-.542.192-.696-1.877-.663-3.299-1.713-3.336-3.925-.025-1.568.432-3.112.933-4.579.101-.295-.341-.397-.456-.126" fill="#231f20" transform="matrix(5.55556 0 0 5.55556 182.63 544.3)"/><path d="m0 6.644c.24-.951.195-1.96.387-2.927.216-1.087.562-2.133 1.012-3.145.188-.421-.436-.788-.623-.364-.809 1.838-1.729 4.41-1.213 6.436.055.215.382.216.437 0" fill="#231f20" transform="matrix(5.55556 0 0 5.55556 235.08 446.5)"/><path d="m0 3.919c.28-.482.156-1.102.082-1.634-.095-.677-.259-1.338-.501-1.978-.161-.428-.852-.25-.695.192.209.59.388 1.184.494 1.803.09.53.023 1.145.298 1.617.07.121.252.121.322 0" fill="#231f20" transform="matrix(5.55556 0 0 5.55556 417.32 453.8)"/><path d="m0 4.717c-.8-.774-1.573-1.515-2.175-2.465-.549-.867-.77-1.91-1.332-2.748-.154-.231-.506-.142-.519.141-.051 1.078.679 2.275 1.256 3.142.63.946 1.412 1.828 2.369 2.451.316.206.67-.261.401-.521" fill="#231f20" transform="matrix(5.55556 0 0 5.55556 469.41 396.6)"/><path d="m0 1.961c.504-.928 1.364-1.403 2.392-1.518.257-.029.315-.361.061-.454-.13-.048-.259-.095-.388-.143-.219-.081-.367.272-.159.378.123.062.245.125.368.187l.118-.43c-1.162-.007-2.231.76-2.748 1.771-.122.236.229.444.356.209" fill="#231f20" transform="matrix(5.55556 0 0 5.55556 557.43 482.8)"/><path d="m0 30.617h-83.75c-2.226 0-4.029-1.804-4.029-4.03v-22.557c0-2.225 1.803-4.03 4.029-4.03h83.75c2.226 0 4.03 1.805 4.03 4.03v22.557c0 2.226-1.804 4.03-4.03 4.03z" fill="#fff" stroke="#c6168d" transform="matrix(5.55556 0 0 5.55556 515.58 28)"/><path d="m0 30.617h-114.472c-2.225 0-4.03-1.804-4.03-4.03v-22.557c0-2.225 1.805-4.03 4.03-4.03h114.472c2.226 0 4.029 1.805 4.029 4.03v22.557c0 2.226-1.803 4.03-4.029 4.03z" fill="#fff" stroke="#c6168d" transform="matrix(5.55556 0 0 5.55556 704.2 599.6)"/><path d="m0-33.844s-5.802 26.185 22.506 33.844c-5.994-4.829-19.671-16.125-10.634-33.667" fill="#fff" stroke="#c6168d" stroke-linecap="round" stroke-linejoin="round" transform="matrix(5.55556 0 0 5.55556 59.21 380.1)"/><path d="m0 21.149s-1.848-18.459 22.895-21.149c-5.996 4.829-13.663 7.853-11.023 20.972" fill="#fff" stroke="#c6168d" stroke-linecap="round" stroke-linejoin="round" transform="matrix(5.55556 0 0 5.55556 90.29 482.5)"/><path d="m.251 0h.083v-.26l.238-.48h-.09l-.189.4-.19-.4h-.09l.238.48z" fill="#231f20" transform="matrix(55.5556 0 0 55.5556 90.17 95.8)"/><path d="m.612-.538h-.074v.113c-.026-.061-.105-.128-.22-.128-.164 0-.279.126-.279.284 0 .148.104.284.279.284.096 0 .178-.045.22-.126v.111h.074zm-.5.269c0-.12.09-.216.214-.216.095 0 .167.055.197.129.012.026.018.056.017.086 0 .029-.006.059-.018.085-.029.076-.099.131-.194.131-.148 0-.215-.117-.216-.214z" fill="#231f20" transform="matrix(55.5556 0 0 55.5556 116.94 95.8)"/><path d="m.509-.538h-.078l-.172.447-.173-.447h-.078l.212.538h.077z" fill="#231f20" transform="matrix(55.5556 0 0 55.5556 170.9400432 95.8)"/><path d="m.595-.248c.008-.086-.022-.169-.084-.229-.051-.049-.121-.076-.197-.076-.161 0-.283.127-.283.285 0 .134.097.283.284.283.055 0 .108-.015.153-.044.046-.029.084-.073.109-.131h-.077c-.035.07-.102.111-.185.111-.091.001-.206-.064-.21-.199zm-.489-.059c.007-.098.093-.183.209-.183.111-.003.202.089.207.183z" fill="#231f20" transform="matrix(55.5556 0 0 55.5556 198.33 95.8)"/><path d="m.039-.269c0 .151.112.283.285.283.174 0 .286-.132.286-.283s-.112-.284-.286-.284c-.173 0-.285.133-.285.283zm.073 0c0-.123.093-.215.212-.215.12 0 .212.092.212.215s-.092.215-.212.215c-.119 0-.212-.092-.212-.214z" fill="#231f20" transform="matrix(55.5556 0 0 55.5556 233.2189168 95.8)"/><path d="m.519-.182c-.023.065-.092.127-.195.128-.116 0-.212-.088-.212-.215 0-.062.025-.12.061-.155.045-.042.089-.061.152-.061.076 0 .161.042.195.133h.076c-.037-.129-.153-.201-.274-.201-.163 0-.284.125-.284.284 0 .144.107.284.289.284.129 0 .234-.083.269-.197z" fill="#231f20" transform="matrix(55.5556 0 0 55.5556 285.274514 95.8)"/><path d="m.567-.538h-.074v.304c0 .112-.064.179-.176.18-.121.001-.173-.077-.173-.193v-.291h-.073v.305c0 .131.059.245.227.248.096.001.169-.041.199-.111v.096h.07z" fill="#231f20" transform="matrix(55.5556 0 0 55.5556 320.274542 95.8)"/><path d="m.612-.538h-.074v.113c-.026-.061-.105-.128-.22-.128-.164 0-.279.126-.279.284 0 .148.104.284.279.284.096 0 .178-.045.22-.126v.111h.074zm-.5.269c0-.12.09-.216.214-.216.095 0 .167.055.197.129.012.026.018.056.017.086 0 .029-.006.059-.018.085-.029.076-.099.131-.194.131-.148 0-.215-.117-.216-.214zm.107-.379.024.048.241-.129-.027-.054z" fill="#231f20" transform="matrix(55.5556 0 0 55.5556 355.7745704 95.8)"/><path d="m397.774604 54.688856h4.1111144v41.111144h-4.1111144z" fill="#231f20" stroke-width="55.5556"/><path d="m.595-.248c.008-.086-.022-.169-.084-.229-.051-.049-.121-.076-.197-.076-.161 0-.283.127-.283.285 0 .134.097.283.284.283.055 0 .108-.015.153-.044.046-.029.084-.073.109-.131h-.077c-.035.07-.102.111-.185.111-.091.001-.206-.064-.21-.199zm-.489-.059c.007-.098.093-.183.209-.183.111-.003.202.089.207.183z" fill="#231f20" transform="matrix(55.5556 0 0 55.5556 421.8301788 95.8)"/><path d="m.387-.403c-.005-.109-.089-.15-.164-.15-.091 0-.168.057-.168.154.002.085.062.116.139.139.093.027.133.052.135.113.001.055-.042.101-.104.101-.054 0-.109-.033-.112-.107h-.073c.001.113.097.168.184.168.102 0 .182-.072.178-.171-.004-.115-.09-.137-.167-.158-.065-.019-.104-.04-.106-.091-.002-.047.034-.087.093-.087.054 0 .092.032.092.089z" fill="#231f20" transform="matrix(55.5556 0 0 55.5556 456.7190956 95.8)"/><path d="m128.7800032 121.288856h4.1111144v41.111144h-4.1111144z" fill="#231f20" stroke-width="55.5556"/><path d="m.612-.538h-.074v.113c-.026-.061-.105-.128-.22-.128-.164 0-.279.126-.279.284 0 .148.104.284.279.284.096 0 .178-.045.22-.126v.111h.074zm-.5.269c0-.12.09-.216.214-.216.095 0 .167.055.197.129.012.026.018.056.017.086 0 .029-.006.059-.018.085-.029.076-.099.131-.194.131-.148 0-.215-.117-.216-.214z" fill="#231f20" transform="matrix(55.5556 0 0 55.5556 136.8355652 162.4)"/><path d="m.387-.403c-.005-.109-.089-.15-.164-.15-.091 0-.168.057-.168.154.002.085.062.116.139.139.093.027.133.052.135.113.001.055-.042.101-.104.101-.054 0-.109-.033-.112-.107h-.073c.001.113.097.168.184.168.102 0 .182-.072.178-.171-.004-.115-.09-.137-.167-.158-.065-.019-.104-.04-.106-.091-.002-.047.034-.087.093-.087.054 0 .092.032.092.089z" fill="#231f20" transform="matrix(55.5556 0 0 55.5556 190.8356084 162.4)"/><path d="m.072-.637h.074v-.103h-.074zm0 .637h.074v-.538h-.074z" fill="#231f20" transform="matrix(55.5556 0 0 55.5556 215.8356284 162.4)"/><path d="m.114 0h.073v-.479h.118v-.059h-.118v-.202h-.073v.202h-.106v.059h.106z" fill="#231f20" transform="matrix(55.5556 0 0 55.5556 227.9467492 162.4)"/><path d="m.567-.538h-.074v.304c0 .112-.064.179-.176.18-.121.001-.173-.077-.173-.193v-.291h-.073v.305c0 .131.059.245.227.248.096.001.169-.041.199-.111v.096h.07z" fill="#231f20" transform="matrix(55.5556 0 0 55.5556 245.3912076 162.4)"/><path d="m.612-.538h-.074v.113c-.026-.061-.105-.128-.22-.128-.164 0-.279.126-.279.284 0 .148.104.284.279.284.096 0 .178-.045.22-.126v.111h.074zm-.5.269c0-.12.09-.216.214-.216.095 0 .167.055.197.129.012.026.018.056.017.086 0 .029-.006.059-.018.085-.029.076-.099.131-.194.131-.148 0-.215-.117-.216-.214z" fill="#231f20" transform="matrix(55.5556 0 0 55.5556 280.891236 162.4)"/><path d="m.519-.182c-.023.065-.092.127-.195.128-.116 0-.212-.088-.212-.215 0-.062.025-.12.061-.155.045-.042.089-.061.152-.061.076 0 .161.042.195.133h.076c-.037-.129-.153-.201-.274-.201-.163 0-.284.125-.284.284 0 .144.107.284.289.284.129 0 .234-.083.269-.197z" fill="#231f20" transform="matrix(55.5556 0 0 55.5556 318.8912664 162.4)"/><path d="m.072-.637h.074v-.103h-.074zm0 .637h.074v-.538h-.074z" fill="#231f20" transform="matrix(55.5556 0 0 55.5556 353.8912944 162.4)"/><path d="m.039-.269c0 .151.112.283.285.283.174 0 .286-.132.286-.283s-.112-.284-.286-.284c-.173 0-.285.133-.285.283zm.073 0c0-.123.093-.215.212-.215.12 0 .212.092.212.215s-.092.215-.212.215c-.119 0-.212-.092-.212-.214zm.089-.379.024.048.241-.129-.027-.054z" fill="#231f20" transform="matrix(55.5556 0 0 55.5556 366.0024152 162.4)"/><path d="m.072 0h.074v-.304c0-.112.064-.179.175-.18.121-.002.173.077.173.193v.291h.073v-.306c0-.131-.059-.245-.226-.247-.096-.002-.169.041-.2.111.001-.036.001-.066.001-.096h-.07z" fill="#231f20" transform="matrix(55.5556 0 0 55.5556 402.0579996 162.4)"/><path d="m443.391366 156.288884h4.3333368v6.111116h-4.3333368z" fill="#231f20" stroke-width="55.5556"/><path d="m.067-.74v.74h.083v-.291h.119c.096 0 .146-.012.195-.05.045-.035.076-.106.076-.176 0-.069-.03-.138-.079-.176-.046-.035-.095-.047-.199-.047zm.083.073h.116c.063 0 .101.007.138.031.033.021.056.068.056.121 0 .052-.023.099-.055.12-.037.024-.075.031-.137.031h-.118z" fill="#231f20" transform="matrix(55.5556 0 0 55.5556 86.61 674.1)"/><path d="m.595-.248c.008-.086-.022-.169-.084-.229-.051-.049-.121-.076-.197-.076-.161 0-.283.127-.283.285 0 .134.097.283.284.283.055 0 .108-.015.153-.044.046-.029.084-.073.109-.131h-.077c-.035.07-.102.111-.185.111-.091.001-.206-.064-.21-.199zm-.489-.059c.007-.098.093-.183.209-.183.111-.003.202.089.207.183z" fill="#231f20" transform="matrix(55.5556 0 0 55.5556 116.33 674.1)"/><path d="m.072 0h.073v-.293c0-.122.058-.187.162-.187h.007v-.073c-.063.002-.133.023-.172.103v-.088h-.07z" fill="#231f20" transform="matrix(55.5556 0 0 55.5556 151.2189168 674.1)"/><path d="m.039-.269c0 .151.112.283.285.283.174 0 .286-.132.286-.283s-.112-.284-.286-.284c-.173 0-.285.133-.285.283zm.073 0c0-.123.093-.215.212-.215.12 0 .212.092.212.215s-.092.215-.212.215c-.119 0-.212-.092-.212-.214z" fill="#231f20" transform="matrix(55.5556 0 0 55.5556 166.7744848 674.1)"/><path d="m.61-.74h-.074v.311c-.024-.056-.102-.124-.22-.124-.161 0-.277.123-.277.283 0 .151.106.285.278.285.112 0 .184-.055.222-.126v.111h.071zm-.498.47c0-.121.091-.215.215-.215.06 0 .114.023.152.062.039.038.062.09.062.151.002.06-.021.115-.06.155-.038.039-.093.063-.153.063-.14 0-.215-.107-.216-.215z" fill="#231f20" transform="matrix(55.5556 0 0 55.5556 218.830082 674.1)"/><path d="m.595-.248c.008-.086-.022-.169-.084-.229-.051-.049-.121-.076-.197-.076-.161 0-.283.127-.283.285 0 .134.097.283.284.283.055 0 .108-.015.153-.044.046-.029.084-.073.109-.131h-.077c-.035.07-.102.111-.185.111-.091.001-.206-.064-.21-.199zm-.489-.059c.007-.098.093-.183.209-.183.111-.003.202.089.207.183zm.084-.341.025.048.24-.129-.027-.054z" fill="#231f20" transform="matrix(55.5556 0 0 55.5556 256.8301124 674.1)"/><path d="m.092-.637h.074v-.103h-.074zm.074.099h-.074v.532c0 .08-.007.14-.085.153-.004.001-.009.001-.014.001v.062c.008-.001.016-.001.023-.001.142-.016.15-.121.15-.217z" fill="#231f20" transform="matrix(55.5556 0 0 55.5556 291.7190292 674.1)"/><path d="m.595-.248c.008-.086-.022-.169-.084-.229-.051-.049-.121-.076-.197-.076-.161 0-.283.127-.283.285 0 .134.097.283.284.283.055 0 .108-.015.153-.044.046-.029.084-.073.109-.131h-.077c-.035.07-.102.111-.185.111-.091.001-.206-.064-.21-.199zm-.489-.059c.007-.098.093-.183.209-.183.111-.003.202.089.207.183z" fill="#231f20" transform="matrix(55.5556 0 0 55.5556 305.774596 674.1)"/><path d="m.072 0h.074v-.304c0-.112.064-.179.175-.18.121-.002.173.077.173.193v.291h.073v-.306c0-.131-.059-.245-.226-.247-.096-.002-.169.041-.2.111.001-.036.001-.066.001-.096h-.07z" fill="#231f20" transform="matrix(55.5556 0 0 55.5556 340.6635128 674.1)"/><path d="m.072 0h.074v-.3c0-.057.013-.098.036-.129.022-.032.064-.057.114-.055.055.001.093.022.118.057.021.033.03.068.028.128v.299h.074v-.299c0-.061.005-.091.032-.129.025-.037.071-.056.118-.056.051 0 .085.017.107.045.031.035.04.086.04.143v.296h.074v-.299c0-.095-.014-.153-.061-.2-.037-.038-.09-.054-.145-.054-.06 0-.113.023-.148.06-.02.021-.031.042-.039.057-.003-.006-.021-.042-.035-.056-.038-.043-.091-.061-.147-.061-.061 0-.136.032-.17.1v-.085h-.07z" fill="#231f20" transform="matrix(55.5556 0 0 55.5556 376.1079856 674.1)"/><path d="m.595-.248c.008-.086-.022-.169-.084-.229-.051-.049-.121-.076-.197-.076-.161 0-.283.127-.283.285 0 .134.097.283.284.283.055 0 .108-.015.153-.044.046-.029.084-.073.109-.131h-.077c-.035.07-.102.111-.185.111-.091.001-.206-.064-.21-.199zm-.489-.059c.007-.098.093-.183.209-.183.111-.003.202.089.207.183z" fill="#231f20" transform="matrix(55.5556 0 0 55.5556 429.2191392 674.1)"/><path d="m.509-.538h-.078l-.172.447-.173-.447h-.078l.212.538h.077z" fill="#231f20" transform="matrix(55.5556 0 0 55.5556 480.1080688 674.1)"/><path d="m.595-.248c.008-.086-.022-.169-.084-.229-.051-.049-.121-.076-.197-.076-.161 0-.283.127-.283.285 0 .134.097.283.284.283.055 0 .108-.015.153-.044.046-.029.084-.073.109-.131h-.077c-.035.07-.102.111-.185.111-.091.001-.206-.064-.21-.199zm-.489-.059c.007-.098.093-.183.209-.183.111-.003.202.089.207.183z" fill="#231f20" transform="matrix(55.5556 0 0 55.5556 507.5 674.1)"/><path d="m.072 0h.073v-.293c0-.122.058-.187.162-.187h.007v-.073c-.063.002-.133.023-.172.103v-.088h-.07z" fill="#231f20" transform="matrix(55.5556 0 0 55.5556 542.3889168 674.1)"/><path d="m.61-.538h-.071v.108c-.037-.067-.111-.123-.221-.123-.167 0-.279.128-.279.287 0 .151.109.281.275.281.121 0 .197-.069.222-.124v.313h.074zm-.498.27c.001-.104.072-.217.216-.217.059 0 .114.024.152.064.039.039.062.093.06.153 0 .06-.023.114-.061.152-.039.039-.092.062-.152.062-.124 0-.215-.095-.215-.213z" fill="#231f20" transform="matrix(55.5556 0 0 55.5556 576.2778328 674.1)"/><path d="m.567-.538h-.074v.304c0 .112-.064.179-.176.18-.121.001-.173-.077-.173-.193v-.291h-.073v.305c0 .131.059.245.227.248.096.001.169-.041.199-.111v.096h.07z" fill="#231f20" transform="matrix(55.5556 0 0 55.5556 614.166752 674.1)"/><path d="m.595-.248c.008-.086-.022-.169-.084-.229-.051-.049-.121-.076-.197-.076-.161 0-.283.127-.283.285 0 .134.097.283.284.283.055 0 .108-.015.153-.044.046-.029.084-.073.109-.131h-.077c-.035.07-.102.111-.185.111-.091.001-.206-.064-.21-.199zm-.489-.059c.007-.098.093-.183.209-.183.111-.003.202.089.207.183z" fill="#231f20" transform="matrix(55.5556 0 0 55.5556 649.6667804 674.1)"/><path d="m.114 0h.073v-.479h.118v-.059h-.118v-.202h-.073v.202h-.106v.059h.106z" fill="#231f20" transform="matrix(55.5556 0 0 55.5556 139.33 740.8)"/><path d="m.595-.248c.008-.086-.022-.169-.084-.229-.051-.049-.121-.076-.197-.076-.161 0-.283.127-.283.285 0 .134.097.283.284.283.055 0 .108-.015.153-.044.046-.029.084-.073.109-.131h-.077c-.035.07-.102.111-.185.111-.091.001-.206-.064-.21-.199zm-.489-.059c.007-.098.093-.183.209-.183.111-.003.202.089.207.183z" fill="#231f20" transform="matrix(55.5556 0 0 55.5556 155.11 740.8)"/><path d="m.072 0h.074v-.304c0-.112.064-.179.175-.18.121-.002.173.077.173.193v.291h.073v-.306c0-.131-.059-.245-.226-.247-.096-.002-.169.041-.2.111.001-.036.001-.066.001-.096h-.07z" fill="#231f20" transform="matrix(55.5556 0 0 55.5556 189.9989168 740.8)"/><path d="m.595-.248c.008-.086-.022-.169-.084-.229-.051-.049-.121-.076-.197-.076-.161 0-.283.127-.283.285 0 .134.097.283.284.283.055 0 .108-.015.153-.044.046-.029.084-.073.109-.131h-.077c-.035.07-.102.111-.185.111-.091.001-.206-.064-.21-.199zm-.489-.059c.007-.098.093-.183.209-.183.111-.003.202.089.207.183z" fill="#231f20" transform="matrix(55.5556 0 0 55.5556 225.4433896 740.8)"/><path d="m.072 0h.074v-.3c0-.057.013-.098.036-.129.022-.032.064-.057.114-.055.055.001.093.022.118.057.021.033.03.068.028.128v.299h.074v-.299c0-.061.005-.091.032-.129.025-.037.071-.056.118-.056.051 0 .085.017.107.045.031.035.04.086.04.143v.296h.074v-.299c0-.095-.014-.153-.061-.2-.037-.038-.09-.054-.145-.054-.06 0-.113.023-.148.06-.02.021-.031.042-.039.057-.003-.006-.021-.042-.035-.056-.038-.043-.091-.061-.147-.061-.061 0-.136.032-.17.1v-.085h-.07z" fill="#231f20" transform="matrix(55.5556 0 0 55.5556 260.3323064 740.8)"/><path d="m.039-.269c0 .151.112.283.285.283.174 0 .286-.132.286-.283s-.112-.284-.286-.284c-.173 0-.285.133-.285.283zm.073 0c0-.123.093-.215.212-.215.12 0 .212.092.212.215s-.092.215-.212.215c-.119 0-.212-.092-.212-.214z" fill="#231f20" transform="matrix(55.5556 0 0 55.5556 313.44346 740.8)"/><path d="m.387-.403c-.005-.109-.089-.15-.164-.15-.091 0-.168.057-.168.154.002.085.062.116.139.139.093.027.133.052.135.113.001.055-.042.101-.104.101-.054 0-.109-.033-.112-.107h-.073c.001.113.097.168.184.168.102 0 .182-.072.178-.171-.004-.115-.09-.137-.167-.158-.065-.019-.104-.04-.106-.091-.002-.047.034-.087.093-.087.054 0 .092.032.092.089z" fill="#231f20" transform="matrix(55.5556 0 0 55.5556 349.4990444 740.8)"/><path d="m.072.204h.074v-.314c.025.056.102.125.221.125.167 0 .276-.132.276-.282 0-.139-.095-.286-.276-.286-.103 0-.181.049-.225.127v-.112h-.07zm.497-.473c0 .123-.093.215-.214.215-.06 0-.114-.023-.152-.061-.039-.039-.062-.093-.062-.153 0-.061.023-.115.06-.154.039-.039.092-.063.152-.063.145 0 .216.114.216.215z" fill="#231f20" transform="matrix(55.5556 0 0 55.5556 390.4990772 740.8)"/><path d="m.039-.269c0 .151.112.283.285.283.174 0 .286-.132.286-.283s-.112-.284-.286-.284c-.173 0-.285.133-.285.283zm.073 0c0-.123.093-.215.212-.215.12 0 .212.092.212.215s-.092.215-.212.215c-.119 0-.212-.092-.212-.214z" fill="#231f20" transform="matrix(55.5556 0 0 55.5556 428.4991076 740.8)"/><path d="m.072 0h.073v-.293c0-.122.058-.187.162-.187h.007v-.073c-.063.002-.133.023-.172.103v-.088h-.07z" fill="#231f20" transform="matrix(55.5556 0 0 55.5556 464.554692 740.8)"/><path d="m.612-.538h-.074v.113c-.026-.061-.105-.128-.22-.128-.164 0-.279.126-.279.284 0 .148.104.284.279.284.096 0 .178-.045.22-.126v.111h.074zm-.5.269c0-.12.09-.216.214-.216.095 0 .167.055.197.129.012.026.018.056.017.086 0 .029-.006.059-.018.085-.029.076-.099.131-.194.131-.148 0-.215-.117-.216-.214z" fill="#231f20" transform="matrix(55.5556 0 0 55.5556 498.443608 740.8)"/><path d="m.61-.538h-.071v.108c-.037-.067-.111-.123-.221-.123-.167 0-.279.128-.279.287 0 .151.109.281.275.281.121 0 .197-.069.222-.124v.313h.074zm-.498.27c.001-.104.072-.217.216-.217.059 0 .114.024.152.064.039.039.062.093.06.153 0 .06-.023.114-.061.152-.039.039-.092.062-.152.062-.124 0-.215-.095-.215-.213z" fill="#231f20" transform="matrix(55.5556 0 0 55.5556 536.4436384 740.8)"/><path d="m.567-.538h-.074v.304c0 .112-.064.179-.176.18-.121.001-.173-.077-.173-.193v-.291h-.073v.305c0 .131.059.245.227.248.096.001.169-.041.199-.111v.096h.07z" fill="#231f20" transform="matrix(55.5556 0 0 55.5556 574.3325576 740.8)"/><path d="m.072 0h.074v-.538h-.074zm-.064-.648.024.048.241-.129-.027-.054z" fill="#231f20" transform="matrix(55.5556 0 0 55.5556 609.832586 740.8)"/><path d="m627.8326004 734.688884h4.3333368v6.111116h-4.3333368z" fill="#231f20" stroke-width="55.5556"/></g></svg>