<svg clip-rule="evenodd" fill-rule="evenodd" stroke-miterlimit="10" viewBox="0 0 909 541" xmlns="http://www.w3.org/2000/svg" xmlns:xlink="http://www.w3.org/1999/xlink"><linearGradient id="a" gradientTransform="matrix(0 1 -1 0 .500009 -.500009)" gradientUnits="userSpaceOnUse" x1="0" x2="1" y1="0" y2="0"><stop offset="0" stop-color="#aedfe4"/><stop offset="1" stop-color="#e1f4fd"/></linearGradient><path d="m-.377-.5h1.754v1h-1.754z" fill="url(#a)" transform="matrix(486.787 0 0 -486.787 211.012 269.8)"/><path d="m-63.267-63.268c-18.889 0-34.2 28.326-34.2 63.268 0 34.941 15.311 63.267 34.2 63.267 18.888 0 34.199-28.326 34.199-63.267 0-34.942-15.311-63.268-34.199-63.268" fill="#fff" fill-rule="nonzero" transform="matrix(0 -5.55556 -5.55556 0 452.036 -54.7)"/><path d="m0 9.951c1.473-.88 3.786-.843 5.353-1.102 1.754-.29 3.496-.689 5.145-1.369 2.106-.868 3.981-2.13 5.381-3.936.173-.224-.093-.522-.308-.346.126-1.035.56-2.143.993-3.198.006.021.007.046.022.064 2.482 3.151 3.294 6.375 1.27 9.887z" fill="#fdceae" fill-rule="nonzero" transform="matrix(5.55556 0 0 5.55556 464.298 454.9)"/><path d="m0 10.234c.909-.74 1.066-2.643 1.375-3.612.689-2.171 1.534-4.388 2.105-6.622.141.119.293.229.431.346.364.312.722.631 1.073.956.363.336.722.678 1.065 1.036.184.192.362.466.573.661-1.481 2.429-3.096 4.785-4.539 7.235z" fill="#ed1c24" fill-rule="nonzero" transform="matrix(5.55556 0 0 5.55556 277.905 453.3)"/><path d="m0 3.525c-1.476-.839-4.05-.635-5.674-.828-.33-.039-.648-.086-.958-.137 1.131-2.607 2.077-5.335 3.113-7.982 9.731-3.103 22.962.17 31.194 5.562.062.04.122.051.179.05-.746 1.606-1.227 3.34-1.79 5.017-.291.866-.582 1.732-.87 2.599-.364 1.099-.713 3.246-1.575 4.032-.068.063-.081.138-.074.212h-21.964c.106-1.507-.44-2.945-1.57-3.971 1.149-1.319 1.604-3.635-.011-4.554" fill="#fbb040" fill-rule="nonzero" transform="matrix(5.55556 0 0 5.55556 142.38 443.2)"/><path d="m0-9.701c.013-.069-.005-.125-.032-.174 6.178-1.105 12.792-.849 18.974.138 3.789.605 6.79 1.821 9.845 3.434-.553-.143-1.113-.269-1.674-.385-7.724-3.062-17.406-3.946-25.509-1.949h-.002c-.038.01-.076.017-.113.026-.173.043-.206.197-.157.324-.848 3.174-1.688 6.363-2.415 9.566-.357-.215-.685-.472-.983-.773.877-3.289 1.439-6.861 2.066-10.207" fill="#e6e7e8" fill-rule="nonzero" transform="matrix(5.55556 0 0 5.55556 94.452 444.7)"/><path d="m0 31.018c-1.397 2.443-2.813 4.92-4.068 7.44-.205.411-.412.816-.595 1.224-2.425-.491-5.659-2.384-6.204-5.024-.654-3.17 1.123-6.956 2.215-9.9 1.454-3.917 2.552-7.827 3.033-11.988 1.125-9.726-.515-23.042 9.156-28.807.072-.043.116-.098.15-.157h41.035c2.564 3.366 1.632 7.027-1.477 9.776-1.685 1.491-3.802 2.075-5.988 2.315-1.633.179-4.095.526-5.774-.119 2.475-2.367 2.498-6.979 1.096-9.915-.107-.225-.479-.067-.402.169 1.02 3.118 1.108 7.666-1.935 9.68-3.2 2.118-8.407 1.95-12.078 1.24 1.431-1.854 1.755-4.407 1.096-6.723-.039-.137-.27-.117-.258.035.304 3.691-.416 6.986-4.448 8.241-3.134.976-6.148.349-9.082-.893-.678-.287-1.091.67-.395.935.01.004.021.007.031.011 1.656 6.563 1.619 12.804-1.303 19.057-.226.483.493.906.719.421.238-.511.455-1.031.663-1.553 2.386 4.688 1.4 10.917-.799 15.374-.927 1.879-2.213 3.648-1.875 5.816.078.499.954.387.889-.12-.316-2.491 1.79-4.956 2.661-7.179.193-.49.362-.992.519-1.499.286.192.725.172 1.072.123.16-.022.303-.067.435-.128v.001c2.696 3.334 6.5 6.175 10.653 7.644-.012.031-.025.061-.029.1-.004.036-.008.072-.012.108-.038-.008-.077-.011-.118-.005-1.571.242-2.864.896-3.177 2.612-.011.064-.011.126-.019.191-.055-.024-.116-.037-.187-.027-1.151.158-3.273 1.645-2.433 2.981-.805-.049-1.614-.075-2.428-.056-.576.014-1.26.018-1.976.045.031-.042.055-.091.062-.159.103-1.069.374-2.075.744-3.079.081-.219-.276-.371-.377-.159-.478 1-.767 2.066-.915 3.164-.015.111.02.194.077.253-1.615.085-3.327.345-4.442 1.187-.11-.081-.284-.088-.39.055-.368.499-.594 1.164-.831 1.732-.233.559-.525 1.148-.59 1.754-.044-.049-.1-.093-.184-.119-1.107-.327-2.215-.684-3.172-1.347-2.922-2.028-2.955-4.245-1.533-7.474 1.051-2.39 2.455-4.664 3.607-7.009.137-.277-.262-.518-.419-.245" fill="#5f4c3a" fill-rule="nonzero" transform="matrix(5.55556 0 0 5.55556 101.66 120.6)"/><path d="m0 10.168c-.09-.269-.482-.16-.424.117.552 2.638 1.342 5.398.647 8.049-.665 2.539-2.06 4.829-4.726 5.605h-.001c.125-1.767-.202-3.668-.42-5.229-.04-.285-.501-.212-.497.067.033 2.267.588 5.406-.503 7.424-1.239 2.29-3.899 3.232-6.375 3.202-.045 0-.081.012-.118.023.042-.571.024-1.143-.002-1.72-.036-.776.032-1.666-.259-2.393-.064-.161-.282-.175-.342 0-.236.696-.133 1.497-.129 2.226.003.721.007 1.431-.054 2.147-.574-.337-1.18-.63-1.829-.866.181-1.419-.736-2.957-2.25-3.459.038-.134.077-.269.095-.416.145-1.134-.405-1.886-1.259-2.369 1.264-.311 2.513-.781 3.721-1.475 4.501-2.589 5.828-7.133 7.853-11.659 1.944-4.341 2.752-8.818 2.31-13.437.569.97 1.181 1.898 1.884 2.725.25.293.642-.081.5-.386-.801-1.72-1.997-3.179-2.701-4.957-.553-1.394-.845-2.899-1.306-4.324-.745-2.302-1.269-4.703-2.076-6.977 1.581-.273 3.037-.756 4.324-1.604 1.204 4.746 1.134 9.726 2.905 14.334 1.686 4.388 10.924 17.76 2.345 20.488-.12.038-.196.113-.24.202-.114-1.849-.531-3.712-1.073-5.338" fill="#5f4c3a" fill-rule="nonzero" transform="matrix(5.55556 0 0 5.55556 360.72 201.6)"/><path d="m0-19.383c.002 0 .003.001.005.001 6.719.065 13.573 2.156 20.04 3.824 6.022 1.553 15.498 2.673 19.37 8.057-.019.056-.036.113-.054.17-.057.03-.11.073-.149.147-3.792 7.184-16.733 1.335-22.653-.267-6.516-1.764-13.012-3.597-19.501-5.456 1.201-.489 2.576-1.345 3.114-2.324.35-.638.477-1.53.469-2.245-.009-.718-.501-1.276-.641-1.907" fill="#e6e7e8" fill-rule="nonzero" transform="matrix(5.55556 0 0 5.55556 346.031 458)"/><path d="m0 4.014c-5.071-2.969-9.011-4.86-15.132-5.646-4.588-.589-9.344-.879-13.965-.313.002-.003.005-.003.007-.005.58-.914.768-2.065 1.262-3.044 5.887-.67 11.609.159 17.301 1.686 5.66 1.518 13.442 3.653 16.9 8.789-.337.622-.541 1.326-.772 1.999-.175.507-.701 1.517-.666 2.198-.187-.112-.376-.217-.57-.304-.043-.018-.081-.016-.114-.003.021-.104.044-.208.064-.312.249-.021.497-.291.348-.591-1.043-2.109-2.708-3.491-4.663-4.454" fill="#24aae1" fill-rule="nonzero" transform="matrix(5.55556 0 0 5.55556 275.109 394.8)"/><path d="m-3.497-3.184c-1.746 4.949-4.663 12.71-1.901 17.895-1.161-4.879.475-10.803 1.901-15.283 2.055-6.466 4.692-12.621 9.403-17.585-4.634 1.801-7.938 10.822-9.403 14.973" fill="#e6e7e8" fill-rule="nonzero" transform="matrix(-3.13156 4.58885 4.58885 3.13156 223.736 394.5)"/><path d="m0-3.021c.008.01.008.021.02.029.65.464 1.266.983 1.833 1.544.269.267.542.54.782.834.167.204.235.405.277.614l-.018-.019c-.337-.353-.693-.688-1.056-1.013-.582-.521-1.409-1.017-1.911-1.641.027-.117.048-.232.073-.348" fill="#e6e7e8" fill-rule="nonzero" transform="matrix(5.55556 0 0 5.55556 298.492 464.7)"/><path d="m0 22.728c-.3-.259-.613-.513-.942-.748.451-.474.554-1.675.73-2.23.223-.705.513-1.398.689-2.112.19-.073.326-.277.181-.496-.023-.034-.05-.064-.073-.099.005-.038.017-.076.021-.114.004-.031-.01-.056-.029-.078.069-.069.104-.168.058-.293-2.252-6.056-10.311-8.151-15.94-9.706-3.004-.829-6.036-1.503-9.13-1.73.006-.024.016-.046.012-.07-.195-1.27 1.151-2.065 2.199-2.282 0 0 .001 0 .001-.001.102.951.692 1.762 1.658 2.097.217.075.335-.245.151-.361-1.126-.702-1.301-2.049-.668-3.16.502-.879 1.273-.964 2.095-1.268-.025.189-.052.379-.087.566-.068.359-.191.709-.229 1.072-.2-.15-.271-.339-.149-.575.193-.374-.369-.706-.567-.331-1.047 1.987 1.949 2.057 3.242 2.131 1.939.11 5.452.457 6.843-1.267.276-.341-.209-.832-.487-.487-.071.089-.159.156-.242.23-.042-.25-.085-.5-.115-.75-.023-.198-.024-.411-.045-.618.127-.018.254-.026.38-.048.022.089.078.167.18.213.979.436 1.672 1.166 1.363 2.34-.288 1.092-1.335 1.737-2.275 2.21-.151.076-.045.335.116.277.985-.357 1.966-.916 2.504-1.793 2.218.559 2.545 3.001 1.14 4.594-.068.077.019.21.115.15.619-.393.999-.915 1.185-1.482 3.079 1.415 5.216 4.155 8.196 5.7.015.008.029.007.044.012-.572 3.525-1.721 6.936-2.125 10.507" fill="#db597e" fill-rule="nonzero" transform="matrix(5.55556 0 0 5.55556 310.571 328.3)"/><path d="m0-2.889c.002-.023.003-.048.005-.071.424.261.942.334 1.099.916.116.431.031.944-.159 1.346-.118.252-.204.37-.455.499-.083.043-.829.27-.883.123-.026-.073-.073-.12-.127-.153.239-.873.422-1.763.52-2.66" fill="#fff" fill-rule="nonzero" transform="matrix(5.55556 0 0 5.55556 142.163 278.8)"/><path d="m0 15.797c-.096-.237-.237-.465-.424-.643-.278-.262-.714-.301-.971-.564-.091-.094-.195-.127-.295-.123.164-2.961-.346-6.419-1.879-8.894 1.99-5.449 2.317-11.448.252-16.931 3.448 1.193 7.528 1.669 10.769-.332.412-.254.767-.554 1.094-.875 3.376 1.532 9.76 1.09 13.059-1.143 2.009 1.146 5.114.63 7.301.287.36 3.726 1.265 7.857 2.896 11.494.001.005-.001.009 0 .014 1.265 6.052-.038 11.388-2.573 16.904-1.754 3.816-2.931 7.592-6.781 9.837-8.016 4.677-17.414-.285-22.988-6.417.156-.16.29-.346.39-.569.284-.629.416-1.387.15-2.045" fill="#fdceae" fill-rule="nonzero" transform="matrix(5.55556 0 0 5.55556 151.953 177)"/><path d="m0-1.433c.015.213.062.429.093.63.054.35.124.7.237 1.036-1.028.498-2.453.443-3.493.482-.424.017-3.307.079-4.389-.443.001-.002.004-.002.006-.005.443-.685.649-1.701.818-2.494 2.194.701 4.471 1.003 6.728.794" fill="#fdceae" fill-rule="nonzero" transform="matrix(5.55556 0 0 5.55556 246.425 336.9)"/><path d="m0 10.829c.95-3.184 1.788-6.412 2.614-9.63 6.465-1.303 13.69-1.099 20.238.57-6.122-1.09-12.453-1.826-18.498-.022-.167-.088-.424-.054-.519.175-1.22 2.943-2.658 5.954-3.611 9.011-.075-.035-.152-.067-.224-.104" fill="#ed1c24" fill-rule="nonzero" transform="matrix(5.55556 0 0 5.55556 90.307 392.7)"/><path d="m0-7.119c5.651-1.069 11.025-.835 16.694.093 5.045.826 12.239 1.424 15.417 5.869-8.331-5.247-21.404-8.241-30.891-4.981-.175.06-.219.233-.174.37-1.233 2.564-2.478 5.318-3.272 8.047-.556-.111-1.075-.253-1.554-.436 1.473-2.853 2.582-6.005 3.78-8.962" fill="#e6e7e8" fill-rule="nonzero" transform="matrix(5.55556 0 0 5.55556 115.063 444.2)"/><path d="m0-2.681c-.182.898-.373 1.796-.609 2.681h-1.17c.565-.896 1.176-1.784 1.779-2.681" fill="#db597e" fill-rule="nonzero" transform="matrix(5.55556 0 0 5.55556 303.347 510.1)"/><path d="m0 14.141c.666-1.046 1.271-2.119 1.725-3.247.115-.035.197-.149.174-.291-.005-.033-.024-.063-.034-.095.014-.02.035-.033.043-.059.237-.782-.144-1.368-.656-1.88.015-.032.032-.061.038-.1.585-4.09 1.835-8.166 2.168-12.278 9.621 2.857 19.286 5.567 28.994 8.113 4.924 1.292 9.818 3.058 13.053-.573-.372 1.2-.734 2.403-1.083 3.611-.332 1.144-1.373 2.994-1.003 4.206-2.649 2.578-5.731 3.897-9.39 4.557-.221.039-.453.067-.686.095.197-.849.588-1.663.844-2.493.279-.906.496-1.827.619-2.767.098-.142.091-.355-.123-.396-9.526-1.852-18.941-4.452-28.289-7.027-.059-.016-.072.045-.043.083-.059.02-.111.062-.121.148-.307 2.538-.994 5.002-1.369 7.527-.162.105-.18.406.063.48 7.623 2.323 15.354 4.11 23.206 5.454-.34.192-.664.412-.943.71-.009.01-.011.021-.019.031h-27.804c.201-1.271.44-2.537.636-3.809" fill="#262261" fill-rule="nonzero" transform="matrix(5.55556 0 0 5.55556 307.444 410.4)"/><path d="m0 13.179c-.01-.119-.083-.225-.241-.251-7.856-1.314-15.591-3.103-23.248-5.289.333-1.348.569-2.724.833-4.086.225-1.158.53-2.314.375-3.498-.003-.024-.018-.036-.027-.055 8.804 3.414 18.579 5.52 27.834 7.338-.283.979-.55 1.96-.905 2.917-.289.78-.664 1.511-.825 2.321-1.273.111-2.627.18-3.796.603" fill="#f7931d" fill-rule="nonzero" transform="matrix(5.55556 0 0 5.55556 467.77 430.9)"/><path d="m0 .038c2.448-4.028 5.03-9.773 10.36-9.763-.703 2.529-1.232 5.3-1.305 7.814-.491-.614-.885-1.384-1.169-2.371-.104-.363-.721-.311-.683.092.214 2.254 1.51 3.813 3.528 4.635.04.087.145.129.233.093.082.029.157.067.24.095 2.237.742 8.338-.028 9.154 2.222 1.307 3.604-4.847 4.289-6.908 4.16-3.079-.196-6.695-1.294-8.209-4.207-.142-.274-.516-.034-.403.234 1.968 4.638 11.158 6.33 14.905 3.135.992.937 1.496 2.233 1.348 3.596h-16.06c-.479-.297-.863-.704-1.122-1.218-.145-.288-.57-.036-.43.252.176.364.417.688.701.966h-4.18z" fill="#fdceae" fill-rule="nonzero" transform="matrix(5.55556 0 0 5.55556 30.694 455.9)"/><path d="m0-1.709c.123-.172.306-.284.481-.312 2.751-.167 7.639-.749 10.04-1.272.041-.007.082-.01.122-.01.4 0 .76.298.832.705l.275 1.847c.039.221-.009.44-.137.618-.123.172-.306.283-.515.316l-.027.005c-2.499.57-7.34 1.217-10.002 1.335-.451.071-.877-.248-.954-.688l-.253-1.925c-.038-.222.011-.441.138-.619" fill="#c7eafb" fill-rule="nonzero" transform="matrix(5.55556 0 0 5.55556 160.061 202.6)"/><path d="m0-1.884c.123-.172.306-.284.481-.312 2.585-.157 5.41-.549 7.93-1.1.041-.007.081-.01.122-.01.401 0 .761.299.833.706l.276 1.846c.039.222-.01.441-.138.619-.123.171-.305.283-.514.314l-.028.006c-2.939.67-5.581 1.061-7.894 1.163-.447.074-.875-.248-.953-.688l-.253-1.925c-.038-.222.011-.441.138-.619" fill="#c7eafb" fill-rule="nonzero" transform="matrix(5.55556 0 0 5.55556 266.827 188.5)"/><path d="m0 3.506c-1.064-.575-1.596-2.33-1.871-3.426-.072-.285-.108-.555-.141-.826.88.531 1.897.867 2.808 1.351.921.487 1.779 1.064 2.671 1.596-.956 1.183-2.088 2.051-3.467 1.305" fill="#f598b1" fill-rule="nonzero" transform="matrix(5.55556 0 0 5.55556 209.717 283.6)"/><path d="m0 .727c-.508.603-1.082 1.576-1.742 2.46-1.457-1.362-3.663-2.862-5.623-3.232-.066-.013-.12.006-.174.026-.023-.809.097-1.595.309-2.441 1.972 2.058 4.55 3.171 7.23 3.187" fill="#ef402f" fill-rule="nonzero" transform="matrix(5.55556 0 0 5.55556 240.18 276.2)"/><path d="m0 27.683c.584.228 1.228.351 1.849.21.553-.125 1.029-.444 1.415-.854 1.016-1.076 1.498-2.62 1.854-4.021.466-1.839.709-3.732.882-5.619.167-1.831.257-3.668.333-5.505.051-1.242.057-2.501.209-3.736.013-.099.124-.205.226-.129 1.142.84 2.433 1.456 3.835 1.705 4.758.848 9.254-2.481 12.241-5.829.034-.038.099-.056.146-.039.918.312 1.745.825 2.649 1.168.418.159.859.278 1.31.258.512-.021.973-.243 1.37-.558.064-.051.15-.062.212 0 .639.63 1.431 1.15 2.355 1.174 1.461.036 2.708-1.057 3.661-2.041 1.045-1.082 1.915-2.31 2.896-3.447.047-.053.124-.048.182-.023.734.31 1.332.813 1.795 1.459.449.625.759 1.334 1.112 2.014.324.625.688 1.235 1.191 1.734.632.627 1.45 1.005 2.285 1.289 1.417.482 2.938.534 4.308-.125 1.293-.622 2.309-1.702 3.184-2.815.03-.04.058-.081.088-.119.028-1.389-.427-2.812-1.473-4.185h-41.035c-.034.058-.078.114-.15.157-9.347 5.572-8.128 18.2-9.053 27.82.042.018.081.04.123.057" fill="#fff" fill-rule="nonzero" opacity=".2" transform="matrix(5.55556 0 0 5.55556 71.698364352 32.6323576)"/><path d="m0-6.696c.017-.511.013-1.06-.187-1.54-.373-.898-1.38-1.026-2.317-.961-.297.916-.614 1.828-.953 2.741-.83 2.238-2.053 4.96-2.307 7.531 1.04.244 2.161.204 3.212.052.9-.13 1.894-.33 2.666-.838.084-.054.193.002.22.09.326 1.038 1.014 1.95 2.145 2.124.409.063.823.022 1.227-.075.494-.878.991-1.754 1.489-2.624.157-.273.555-.032.419.245-.346.704-.715 1.401-1.09 2.097.172-.078.342-.16.502-.252.825-.477 1.558-1.153 2.063-1.964.274-.44.453-.922.61-1.415.229-.727.381-1.479.465-2.235.158-1.414.107-2.883-.277-4.26-.58.294-1.128.647-1.646 1.04-1.062.805-2.022 1.732-3.034 2.596-.959.817-1.972 1.599-3.143 2.087-.101.042-.179-.061-.19-.144-.105-.786-.077-1.582-.017-2.37.049-.642.122-1.281.143-1.925" fill="#fff" fill-rule="nonzero" opacity=".2" transform="matrix(5.55556 0 0 5.55556 72.8000319 294.06034452)"/><path d="m0-13.83c.204 2.275.69 4.519 1.293 6.719.296 1.081.622 2.153.962 3.221.292.92.555 1.85.896 2.754.563 1.494 1.32 2.906 2.319 4.155.576.72 1.217 1.384 1.888 2.015 1.534-5.039-4.374-13.926-5.689-17.348-.816-2.124-1.237-4.328-1.576-6.55-.238 1.664-.243 3.36-.093 5.034" fill="#fff" fill-rule="nonzero" opacity=".2" transform="matrix(5.55556 0 0 5.55556 345.71413912 241.19363556)"/><path d="m0-7.831c.029.246.052.493.061.741.056 1.535-.233 3.083-.681 4.547-.266.868-.6 1.721-.995 2.543h1.527c1.587-2.753 1.425-5.329.088-7.831" fill="#603812" fill-rule="nonzero" opacity=".15" transform="matrix(5.55556 0 0 5.55556 563.9809804 510.14940628)"/><path d="m0 21.682c.004-.197.003-.394.01-.591.032-.9.099-1.803.246-2.693.071-.428.161-.853.279-1.271.129-.46.31-.903.442-1.362.531-1.853.555-3.795.884-5.686.209-1.194.365-2.587 1.407-3.378.486-.37 1.086-.535 1.684-.612.987-.126 1.958-.299 2.926-.529.479-.114.956-.235 1.433-.355.469-.116.939-.248 1.418-.319.833-.122 1.674-.087 2.508.01 1.761.203 3.504.662 5.288.614.916-.024 1.831-.197 2.668-.581.412-.189.778-.487 1.176-.707.355-.196.733-.354 1.127-.454.876-.221 1.838-.058 2.722.023.449.042.9.08 1.351.055.377-.021.753-.049 1.128-.096.7-.086 1.411-.246 2.03-.597.362-.206.665-.478.923-.788-.103-.702-.194-1.398-.259-2.078-2.187.343-5.292.859-7.301-.287-3.299 2.233-9.683 2.675-13.059 1.143-.327.321-.682.621-1.094.875-3.241 2.001-7.321 1.525-10.77.332 2.065 5.483 1.739 11.482-.251 16.932.45.725.801 1.542 1.084 2.4" fill="#603812" fill-rule="nonzero" opacity=".15" transform="matrix(5.55556 0 0 5.55556 138.148417512 100.8546344)"/><path d="m0 .943c-2.356.774-4.867 1.018-7.335.841-2.826-.203-5.517-1.12-7.909-2.633-2.084-1.317-3.892-3.014-5.548-4.833-.052.223-.119.44-.21.644-.101.222-.235.409-.39.569 5.573 6.132 14.971 11.094 22.987 6.417 1.937-1.129 3.197-2.647 4.194-4.361-1.676 1.502-3.649 2.653-5.789 3.356" fill="#603812" fill-rule="nonzero" opacity=".15" transform="matrix(5.55556 0 0 5.55556 267.800743456 304.12146368)"/><path d="m0 4.352c-.479-.242-.827-.701-1.104-1.146-.355-.57-.625-1.191-.881-1.81-.257-.62-.491-1.251-.758-1.868-.184-.427-.387-.882-.687-1.246-.482.245-.848.67-1.127 1.125-.365.597-.61 1.264-.768 1.944-.258 1.107-.356 2.475.225 3.503.509.9 1.508 1.216 2.492 1.213 1.005-.002 2.049-.276 2.926-.768.305-.172.632-.382.833-.675.055-.08.087-.157.103-.232-.406.153-.84.17-1.254-.04" fill="#603812" fill-rule="nonzero" opacity=".15" transform="matrix(5.55556 0 0 5.55556 259.176847668 215.47694832)"/><path d="m0 .577c.705.512 1.528.976 2.396 1.187.166-.002.294-.005.359-.008.486-.019 1.057-.02 1.631-.064.623-.242 1.159-.677 1.687-1.118-.022-.112-.045-.225-.062-.337-.031-.201-.078-.417-.094-.63-2.257.209-4.534-.092-6.728-.794-.058.272-.125.571-.199.871.313.326.648.63 1.01.893" fill="#603812" fill-rule="nonzero" opacity=".15" transform="matrix(5.55556 0 0 5.55556 213.549588944 331.17148532)"/><path d="m0 9.611c-.298-1.42-.341-2.887-.156-4.325.177-1.373.567-2.705 1.064-3.995.616-1.598 1.372-3.135 2.087-4.69-1.736 1.98-3.061 4.56-4.346 6.674v9.735h2.403c-.41-1.115-.807-2.236-1.052-3.399" fill="#603812" fill-rule="nonzero" opacity=".15" transform="matrix(5.55556 0 0 5.55556 38.199448664 437.86601512)"/><path d="m0-5.088c-.1.051-.202.1-.301.152-.602.318-1.192.666-1.736 1.076-.429.322-.926.724-1.129 1.24-.08.203-.102.45.021.642.131.203.394.256.612.308.043.011.085.023.128.033-.041-.209-.081-.419-.102-.641-.038-.404.578-.456.683-.093.284.987.678 1.758 1.168 2.371.048-1.634.301-3.374.656-5.088" fill="#603812" fill-rule="nonzero" opacity=".15" transform="matrix(5.55556 0 0 5.55556 84.640596928 445.23268768)"/><path d="m0 5.854c.424-.393 1.021-.511 1.623-.554.632-.045 1.416-.02 1.873-.506-.459-.045-.928-.035-1.387-.046-.951-.024-2.157-.091-2.778-.928-.258-.346-.474-.974-.159-1.351.058-.069.136-.106.211-.146-.516-.304-.756-.789-.334-1.591.198-.375.76-.043.567.331-.122.236-.051.425.149.575.039-.363.161-.713.23-1.072.035-.188.061-.377.086-.566-.821.304-1.593.389-2.094 1.268-.633 1.11-.458 2.458.668 3.16.183.115.065.436-.152.361-.965-.335-1.555-1.146-1.657-2.097-.001.001-.001.001-.002.001-1.048.217-2.393 1.012-2.198 2.282.003.024-.007.046-.012.069 1.808.133 3.593.43 5.366.81" fill="#231f20" fill-rule="nonzero" opacity=".2" transform="matrix(5.55556 0 0 5.55556 204.635692924 328.7159278)"/><path d="m0 7.442c-.069.038-.145.079-.223.12.506.164 1.014.339 1.52.523.456-.06.907-.157 1.336-.327.879-.348 1.603-.925 2.237-1.603-.183-.097-.359-.202-.548-.289-.186.566-.565 1.089-1.184 1.481-.096.061-.183-.072-.116-.149 1.405-1.594 1.079-4.035-1.14-4.595-.538.877-1.518 1.437-2.503 1.793-.162.059-.267-.2-.116-.276.94-.474 1.987-1.118 2.274-2.21.309-1.174-.384-1.905-1.363-2.34-.102-.046-.158-.124-.179-.213-.127.022-.254.029-.38.048.021.207.021.42.045.617.029.251.072.501.114.75.083-.073.171-.141.242-.229.278-.345.764.145.487.487-.367.455-.888.76-1.483.969-.138.618-.484 1.139-.86 1.661-.11.151-.27.36-.289.525-.008.073.008.114.054.168.076.089.196.145.302.19.193.081.399.134.604.182.251.059.515.128.774.139.398.016.801-.068 1.196.02.399.09.678.414.693.829.013.377-.222.718-.473.978-.293.304-.652.55-1.021.751" fill="#231f20" fill-rule="nonzero" opacity=".2" transform="matrix(5.55556 0 0 5.55556 252.585175728 331.86037476)"/><path d="m0 11.878c.879-1.468 1.711-2.971 2.352-4.555.355-.879.67-1.802.774-2.749.075-.676.028-1.392-.321-1.989-.095.052-.19.103-.283.158-.792.479-1.532 1.043-2.275 1.592-.956.705-1.911 1.413-2.893 2.082-1 .681-2.027 1.331-3.117 1.857-.891.431-1.852.809-2.849.869-.813.049-1.67-.18-2.238-.794-.375-.407-.443-1.03-.469-1.557-.033-.663.028-1.327.072-1.988.019-.284.023-.567.033-.851.012-.356.061-.709.107-1.061.076-.598.11-1.183-.262-1.695-.734-1.01-2.053-1.132-3.203-1.13-1.397.002-2.787.19-4.184.2-.813.006-1.649-.063-2.443-.267-.314.803-.636 1.602-.977 2.388.31.051.628.097.958.136 1.624.194 4.198-.01 5.674.829 1.615.919 1.16 3.235.011 4.553 1.13 1.027 1.676 2.464 1.57 3.972z" fill="#231f20" fill-rule="nonzero" opacity=".2" transform="matrix(5.55556 0 0 5.55556 228.735156648 444.1604646)"/><path d="m0-12.469c-1.351 1.517-2.994 2.084-4.805 2.146-.092.136-.169.284-.266.417-.599.819-1.332 1.598-2.264 2.034-.759.354-1.635.339-2.452.276-.964-.074-1.918-.243-2.88-.332-.738-.068-1.636-.158-2.316.208-.444.238-.576.635-.598 1.071 1.583.348 3.169.684 4.758.993.215.041.222.254.124.396-.123.94-.34 1.861-.619 2.768-.257.829-.647 1.643-.845 2.492.233-.028.466-.056.686-.095 3.66-.66 6.742-1.978 9.391-4.557-.37-1.212.671-3.062 1.003-4.206.349-1.208.711-2.411 1.083-3.611" fill="#231f20" fill-rule="nonzero" opacity=".2" transform="matrix(5.55556 0 0 5.55556 560.25319964 500.42717628)"/><path d="m0-1.032c.311.508.644 1.003.957 1.508h5.241c.008-.01.01-.021.019-.03.279-.298.603-.519.943-.71-2.196-.376-4.38-.796-6.557-1.244-.211.146-.415.3-.603.476" fill="#231f20" fill-rule="nonzero" opacity=".2" transform="matrix(5.55556 0 0 5.55556 423.94197948 507.50495972)"/><path d="m0-5.074c-.006.468-.172.809-.476 1.157-.293.336-.638.626-1.007.876-.783.53-1.675.881-2.564 1.189-.92.317-1.857.587-2.764.943-.261.104-.519.221-.773.346 2.06.411 4.126.797 6.201 1.143.157.027.231.132.24.251 1.169-.423 2.524-.492 3.797-.602.16-.811.535-1.541.825-2.322.354-.957.621-1.938.905-2.917-1.469-.288-2.953-.588-4.442-.895.026.29.061.577.058.831" fill="#231f20" fill-rule="nonzero" opacity=".2" transform="matrix(5.55556 0 0 5.55556 474.11424184 499.54384224)"/><path d="m0-3.964c-.483.06-.968.116-1.446.169-.162.357-.318.717-.489 1.07-.443.919-.914 1.824-1.392 2.725.271-.022.561-.048.853-.075.771-1.33 1.585-2.636 2.474-3.889" fill="#fff" fill-rule="nonzero" transform="matrix(5.55556 0 0 5.55556 190.817 210.7)"/><path d="m0 3.975c.424-.057.846-.115 1.262-.177.341-.777.526-1.593.691-2.426.067-.339.129-.679.294-.988.076-.144.186-.263.294-.384-.368.059-.746.117-1.142.174-.488.599-.997 1.188-1.371 1.864.314.119.55.354.526.728-.026.423-.279.821-.514 1.158-.013.018-.027.033-.04.051" fill="#fff" fill-rule="nonzero" transform="matrix(5.55556 0 0 5.55556 193.536 186.3)"/><path d="m-1.495-4.423c.2.2.391.405.594.6-.256 1.435-.472 2.877-.595 4.329-.27-.228-.547-.483-.821-.731.208-1.411.489-2.811.822-4.198" fill="#fff" fill-rule="nonzero" transform="matrix(-4.41547 -3.37163 -3.37163 4.41547 268.239 188.7)"/><path d="m0 2.882c.362-.591.924-1.682.119-2.168-.089-.053-.092-.161-.031-.235.287-.346.562-.706.81-1.083-.396.074-.784.156-1.189.222-.025.027-.049.054-.074.079-.323.324-.639.656-.875 1.048.351.168.609.455.565.884-.048.469-.343.893-.624 1.254-.164.211-.343.409-.527.603.516-.074 1.053-.167 1.592-.262.078-.114.162-.225.234-.342" fill="#fff" fill-rule="nonzero" transform="matrix(5.55556 0 0 5.55556 303.19 174.5)"/><path d="m-153.532 0h153.532v87.304h-153.532z" fill="none" stroke="#231f20" transform="matrix(-5.55556 0 0 5.55556 27.916 27.9)"/><path d="m-1.258-.923c-1.071 0-1.554.484-1.554 1.074-.001.589.482 1.061 1.554 1.061 1.072.001 1.941-.477 1.941-1.067 0-.589-.869-1.067-1.941-1.068" fill="#231f20" fill-rule="nonzero" transform="matrix(-.299232 -5.54749 -5.54749 .299232 206.709 167.9)"/><path d="m-1.258-.919c-1.071 0-1.554.485-1.554 1.074-.001.589.482 1.061 1.554 1.061s1.941-.478 1.941-1.067c0-.59-.869-1.068-1.941-1.068" fill="#231f20" fill-rule="nonzero" transform="matrix(-.281066 -5.54844 -5.54844 .281066 275.018 159.1)"/><path d="m0 2.878c-2.608.595-7.484 1.229-10.029 1.341-.648.098-1.267-.354-1.383-1.011l-.25-1.909c-.115-.657.317-1.271.966-1.37 2.701-.164 7.584-.741 10.005-1.269.648-.099 1.267.354 1.382 1.011l.274 1.837c.116.657-.317 1.27-.965 1.37z" fill="none" stroke="#231f20" stroke-width=".75" transform="matrix(5.55556 0 0 5.55556 222.032 189.7)"/><path d="m0 3.047c-2.608.595-5.375 1.058-7.92 1.169-.648.1-1.268-.354-1.383-1.011l-.25-1.909c-.115-.657.317-1.27.965-1.37 2.702-.164 5.477-.568 7.897-1.097.648-.098 1.267.354 1.382 1.012l.274 1.837c.116.657-.317 1.27-.965 1.369z" fill="none" stroke="#231f20" stroke-width=".75" transform="matrix(5.55556 0 0 5.55556 317.081 174.6)"/><g fill-rule="nonzero"><path d="m0-10.148c.304 3.691-.416 6.986-4.448 8.242-3.135.976-6.148.351-9.084-.891-.674-.286-1.084.666-.392.929 3.577 1.362 7.977 2.04 11.427-.09 2.807-1.732 3.62-5.187 2.755-8.225-.039-.137-.27-.116-.258.035" fill="#231f20" transform="matrix(5.55556 0 0 5.55556 207.226 122.9)"/><path d="m0-12.823c1.02 3.118 1.107 7.666-1.934 9.683-3.33 2.208-8.867 1.942-12.544 1.144-.371-.08-.653.464-.272.649 3.601 1.741 10.934 1.123 13.97-1.643 2.566-2.337 2.6-7.031 1.182-10.002-.107-.225-.479-.066-.402.169" fill="#231f20" transform="matrix(5.55556 0 0 5.55556 280.422 114.3)"/><path d="m0-13.629c2.949 3.472 2.059 7.312-1.171 10.17-1.685 1.491-3.802 2.075-5.989 2.315-1.807.199-4.636.616-6.287-.348-.52-.303-.976.485-.47.804 2.038 1.288 5.344.695 7.589.345 2.323-.362 4.388-1.149 6.056-2.839 3.191-3.229 4.001-7.404.634-10.809-.235-.238-.572.114-.362.362" fill="#231f20" transform="matrix(5.55556 0 0 5.55556 348.425 104.2)"/><path d="m0 4.378c.463-.783.741-1.555 1.401-2.223.615-.622 1.491-1.254 2.377-1.377.503-.07.251-.973-.296-.702-.982.489-1.859.87-2.621 1.701-.607.662-1.235 1.56-1.314 2.478-.021.249.337.318.453.123" fill="#231f20" transform="matrix(5.55556 0 0 5.55556 180.971 125.7)"/><path d="m0 3.091c-.074-.905-.886-1.539-1.587-2.02-.806-.553-2.074-1.302-3.085-1.185-.255.03-.395.364-.139.514.726.423 1.619.517 2.377.922.891.476 1.486 1.064 2.08 1.865.099.135.371.113.354-.096" fill="#231f20" transform="matrix(5.55556 0 0 5.55556 294.499 119.3)"/><path d="m0 1.909c.59.1.951-.188 1.522-.386.887-.306 1.821-.597 2.758-.681.82-.074 1.833.381 2.601.15.263-.079.375-.513.084-.642-.932-.413-2.084-.45-3.077-.296-1.127.173-3.339.664-3.919 1.778-.014.026-.004.07.031.077" fill="#231f20" transform="matrix(5.55556 0 0 5.55556 226.302 178.2)"/><path d="m0-10.198c2.993 2.412 6.979 9.455.19 9.76-.599.027-.596.973 0 .932 2.597-.181 4.742-1.307 4.639-4.234-.099-2.817-2.163-5.494-4.523-6.855-.24-.138-.535.211-.306.397" fill="#231f20" transform="matrix(5.55556 0 0 5.55556 248.152 248.8)"/><path d="m1.993-19.975c-1.931 6.682-2.107 13.06.728 19.525.215.488-.514.894-.728.403-2.782-6.366-3.324-13.689-.404-20.11.106-.234.471-.054.404.182" fill="#231f20" transform="matrix(-5.55399 -.132138 -.132138 5.55399 137.854 221.4)"/><path d="m0-21.676c2.82 4.748 1.837 11.348-.46 16.008-.926 1.879-2.212 3.648-1.874 5.815.077.495.946.384.882-.12-.316-2.491 1.791-4.956 2.663-7.18.601-1.534 1.048-3.154 1.228-4.797.351-3.209-.114-7.286-1.906-10.037-.216-.331-.738-.033-.533.311" fill="#231f20" transform="matrix(5.55556 0 0 5.55556 128.608 329.1)"/><path d="m0 3.652c.172.547.843.52 1.326.452.607-.085 1.003-.469 1.249-1.011.284-.629.416-1.387.15-2.045-.096-.238-.237-.465-.425-.643-.277-.263-.713-.301-.97-.565-.378-.387-.981.214-.594.594.44.432 1.143.398 1.33 1.092.117.432.032.944-.158 1.347-.119.252-.205.369-.455.499-.084.043-.83.269-.883.123-.129-.352-.685-.21-.57.157" fill="#231f20" transform="matrix(5.55556 0 0 5.55556 136.816 258.9)"/><path d="m0 9.873c5.482 6.783 15.546 11.553 23.817 6.797 4.501-2.589 5.828-7.133 7.853-11.658 2.304-5.147 3.032-10.475 1.946-16.012-.108-.553-.963-.32-.847.234 1.263 6.05-.042 11.389-2.577 16.905-1.754 3.815-2.931 7.591-6.781 9.837-8.041 4.69-17.473-.316-23.04-6.474-.23-.255-.579.114-.371.371" fill="#231f20" transform="matrix(5.55556 0 0 5.55556 146.601 226.2)"/><path d="m0-17.04c.501 5.723 2.277 12.517 6.039 16.958.249.294.643-.08.5-.386-.806-1.717-2.001-3.178-2.705-4.956-.552-1.393-.845-2.898-1.306-4.323-.783-2.423-1.31-4.96-2.193-7.339-.062-.166-.353-.16-.335.046" fill="#231f20" transform="matrix(5.55556 0 0 5.55556 312.297 195)"/><path d="m0-35.594c1.317 4.867 1.179 10.006 3.002 14.748 1.686 4.388 10.924 17.76 2.346 20.487-.501.16-.291.945.218.791 5.253-1.581 4.45-7.42 2.86-11.538-1.467-3.797-3.822-7.216-5.12-11.083-1.473-4.391-1.381-9.13-2.667-13.582-.118-.409-.751-.236-.639.177" fill="#231f20" transform="matrix(5.55556 0 0 5.55556 338.309 288.6)"/><path d="m0-14.236c.553 2.638 1.342 5.397.647 8.049-.665 2.54-2.061 4.826-4.725 5.608-.517.152-.296.965.224.81 6.474-1.932 5.989-9.455 4.278-14.584-.09-.269-.482-.16-.424.117" fill="#231f20" transform="matrix(5.55556 0 0 5.55556 358.364 337.8)"/><path d="m0-57.134c-11.037 6.562-8.043 21.861-10.053 32.663-1.405 7.547-10.827 22.108 2.096 24.641.549.107.784-.734.232-.842-2.432-.476-5.708-2.379-6.257-5.038-.654-3.171 1.124-6.957 2.216-9.901 1.453-3.917 2.551-7.828 3.033-11.988 1.125-9.726-.515-23.044 9.157-28.809.464-.277.042-1.003-.424-.726" fill="#231f20" transform="matrix(5.55556 0 0 5.55556 118.945 344.9)"/><path d="m0-4.248c-.779.594-1.536 1.209-2.269 1.858-.696.615-1.607 1.263-2.055 2.086-.118.217.12.469.341.342.776-.449 1.381-1.271 2.029-1.888.73-.693 1.483-1.363 2.245-2.022.202-.175-.073-.541-.291-.376" fill="#231f20" transform="matrix(5.55556 0 0 5.55556 155.52 216.1)"/><path d="m0-1.83c.167.343.575.609.832.892.289.319.502.721.81 1.016.19.183.599.002.482-.28-.172-.419-.536-.776-.856-1.089-.282-.275-.684-.707-1.086-.775-.141-.025-.246.104-.182.236" fill="#231f20" transform="matrix(5.55556 0 0 5.55556 321.303 184.8)"/><path d="m0 7.274c.019-1.15-.297-2.309-.571-3.446-.291-1.209-.527-2.543-1.096-3.662-.211-.415-.829-.05-.623.364 1.026 2.069 1.236 4.62 1.922 6.794.063.199.364.165.368-.05" fill="#231f20" transform="matrix(5.55556 0 0 5.55556 335.297 248)"/><path d="m-5.033-5.297c-2.206 3.72-2.099 7.866.575 11.307.274.354-.303.748-.575.393-2.72-3.564-2.908-8.219-.353-11.934.136-.197.477.026.353.234" fill="#231f20" transform="matrix(1.02417 -5.46034 -5.46034 -1.02417 238.802 240.2)"/><path d="m0-9.563c-.879 1.268-.801 2.939-.429 4.382.333 1.287.869 3.084 2.115 3.772 2.799 1.549 5.127-2.427 6.217-4.394.129-.234-.193-.509-.382-.295-1.293 1.468-3.004 5.57-5.546 4.195-1.065-.575-1.597-2.33-1.871-3.426-.368-1.463-.2-2.681.178-4.115.046-.176-.185-.259-.282-.119" fill="#231f20" transform="matrix(5.55556 0 0 5.55556 198.747 313.6)"/><path d="m0 2.926c-1.455-1.384-3.718-2.94-5.719-3.318-.344-.065-.556.378-.243.576.904.57 1.972.908 2.921 1.412.959.508 1.85 1.115 2.783 1.665.206.122.436-.166.258-.335" fill="#231f20" transform="matrix(5.55556 0 0 5.55556 231.036 278.1)"/><path d="m0 1.355c1.969 4.64 11.166 6.332 14.909 3.131 1.406-1.202 2.134-3.913.356-4.925-1.476-.839-4.05-.635-5.674-.828-3.287-.392-5.556-1.274-6.543-4.702-.104-.363-.721-.311-.683.093.23 2.428 1.707 4.061 4.001 4.822 2.237.743 8.337-.028 9.154 2.222 1.306 3.604-4.847 4.29-6.908 4.16-3.079-.196-6.695-1.294-8.21-4.207-.141-.274-.516-.034-.402.234" fill="#231f20" transform="matrix(5.55556 0 0 5.55556 57.573 465.2)"/><path d="m1.067-4.177c-.588 1.407-.447 2.966.449 4.213.225.315-.231.72-.449.404-.988-1.425-1.197-3.185-.498-4.783.134-.306.629-.148.498.166" fill="#231f20" transform="matrix(-4.9688 2.485 2.485 4.9688 155.193 507.4)"/><path d="m1.012-1.771c.41.645.596 1.404.532 2.166-.029.342-.566.327-.532-.012.068-.683-.082-1.335-.441-1.92-.168-.274.27-.504.441-.234" fill="#231f20" transform="matrix(-2.91913 4.72683 4.72683 2.91913 61.346 505.2)"/><path d="m1.806-.367c.563 3.434.512 7.101.668 10.574.019.432-.645.376-.668-.048-.18-3.449-.584-7.06-.358-10.504.014-.203.324-.226.358-.022" fill="#231f20" transform="matrix(5.23627 1.85626 1.85626 -5.23627 83.301 453.2)"/><path d="m0-5.183c5.741-1.123 11.187-.89 16.939.052 5.441.891 13.394 1.508 16.097 6.986.224.454.904.056.68-.397-2.692-5.444-9.496-6.074-14.859-7.037-6.272-1.127-12.772-1.913-18.963.009-.248.077-.145.436.106.387" fill="#231f20" transform="matrix(5.55556 0 0 5.55556 113.705 433.7)"/><path d="m0-12.201c-.798 1.657-1.288 3.466-1.874 5.209-.291.866-.582 1.732-.87 2.6-.364 1.098-.713 3.246-1.575 4.032-.217.197.011.547.277.477 1.366-.358 1.515-2.752 1.873-3.878.863-2.716 1.977-5.503 2.481-8.309.032-.176-.222-.318-.312-.131" fill="#231f20" transform="matrix(5.55556 0 0 5.55556 297.591 511)"/><path d="m-1.541-8.764c.345 2.888.645 5.975.5 8.879-.014.277-.476.326-.5.034-.244-2.938-.245-5.938-.377-8.886-.009-.215.352-.239.377-.027" fill="#231f20" transform="matrix(-5.25583 -1.80015 -1.80015 5.25583 97.282 454.9)"/><path d="m17.232-16.623c-4.593 9.13-3.416 22.728.636 31.708.181.401-.451.643-.636.248-4.218-9.037-5.358-23.028-.508-32.186.166-.315.671-.094.508.23" fill="#231f20" transform="matrix(-.863167 5.48809 5.48809 .863167 228.771 332.9)"/><path d="m1.091-.135c.272 3.401.414 6.824.55 10.235.014.354-.533.386-.55.031-.169-3.409-.332-6.833-.366-10.245-.003-.237.348-.259.366-.021" fill="#231f20" transform="matrix(5.43191 1.1656 1.1656 -5.43191 84.341 451.5)"/><path d="m13.659-12.626c-2.18 8.1-2.02 17.63.642 25.55.134.401-.508.534-.642.138-2.669-7.954-3.002-17.805-.485-25.852.099-.317.569-.152.485.164" fill="#231f20" transform="matrix(-.321594 5.54624 5.54624 .321594 177.896 327.9)"/><path d="m0-3.98c-.023.024-.045.049-.068.073-.078.085-.101.213-.041.315.187.318.524.525.801.761.364.312.722.631 1.074.956.362.336.721.678 1.064 1.036.249.258.483.669.806.828.203.1.396-.065.361-.279-.054-.336-.391-.607-.617-.843-.337-.353-.692-.688-1.055-1.013-.632-.566-1.571-1.095-2.047-1.799-.061-.09-.196-.124-.278-.035" fill="#231f20" transform="matrix(5.55556 0 0 5.55556 295.787 470.9)"/><path d="m-2.352-8.684c.151 3.002.494 6.003.605 9.005.014.389-.584.41-.605.022-.157-2.972-.81-6.097-.401-9.065.032-.233.39-.186.401.038" fill="#231f20" transform="matrix(-4.89429 -2.62871 -2.62871 4.89429 281.354 504.7)"/><path d="m.829-.078c.381 3.438.382 7.128.488 10.595.01.313-.436.37-.488.055-.554-3.306-.841-7.33-.332-10.657.029-.186.311-.183.332.007" fill="#231f20" transform="matrix(5.48954 .853895 .853895 -5.48954 78.239 447.4)"/><path d="m0-4.019c6.265-1.17 12.999-.914 19.283.089 5.3.847 9.057 2.873 13.581 5.539.368.217.702-.356.335-.572-5.241-3.086-9.212-5.038-15.472-5.843-5.884-.755-12.045-1.039-17.841.376-.269.065-.153.461.114.411" fill="#231f20" transform="matrix(5.55556 0 0 5.55556 92.562 412.4)"/><path d="m0-3.6c.65.464 1.266.982 1.833 1.545.269.266.542.539.782.833.336.41.271.803.404 1.284.066.241.41.234.481 0 .29-.962-.351-1.629-1.025-2.227-.696-.619-1.485-1.286-2.339-1.667-.158-.071-.279.13-.136.232" fill="#231f20" transform="matrix(5.55556 0 0 5.55556 298.603 468.1)"/><path d="m.525-.663c.083.285.222.549.408.78.219.273-.194.639-.408.361-.241-.31-.411-.652-.514-1.031-.09-.328.42-.431.514-.11" fill="#231f20" transform="matrix(-1.73343 5.2782 5.2782 1.73343 118.721 404.3)"/><path d="m0 .304c-.075-.146-.247-.207-.382-.284-.123-.07-.229-.152-.329-.251-.295-.291-.758.174-.455.455.251.233.717.602 1.077.422.125-.064.147-.228.089-.342" fill="#231f20" transform="matrix(5.55556 0 0 5.55556 99.237 390.1)"/><path d="m0-3.585c-.368.499-.593 1.164-.831 1.732-.241.577-.549 1.186-.601 1.812-.02.247.324.304.441.12.651-1.025.785-2.361 1.439-3.402.182-.288-.254-.525-.448-.262" fill="#231f20" transform="matrix(5.55556 0 0 5.55556 119.005 383.5)"/><path d="m0-9.382c5.888-.671 11.612.158 17.306 1.686 5.683 1.524 13.508 3.668 16.944 8.849.256.386.882.025.624-.364-3.07-4.62-9.754-6.919-14.79-8.427-6.598-1.975-13.268-3.283-20.132-2.098-.198.034-.155.377.048.354" fill="#231f20" transform="matrix(5.55556 0 0 5.55556 120.483 419.1)"/><path d="m0-5.238c-.601.744-.859 1.703-1.17 2.606-.211.612-.946 1.964-.573 2.575.058.095.194.14.292.077.561-.364.66-1.743.851-2.346.296-.935.711-1.85.819-2.821.011-.107-.151-.174-.219-.091" fill="#231f20" transform="matrix(5.55556 0 0 5.55556 312.725 450.9)"/><path d="m0-7.476c4.017-2.981 13.521-.569 17.83.574 5.377 1.428 14.114 3.547 16.291 9.489.144.394.78.222.632-.174-2.251-6.056-10.311-8.152-15.94-9.706-3.914-1.08-7.875-1.906-11.959-1.808-2.041.049-5.376-.064-7.033 1.393-.124.109.043.333.179.232" fill="#231f20" transform="matrix(5.55556 0 0 5.55556 121.023 406.9)"/><path d="m-6.219-12.713c4.884 3.644 1.945 10.832.657 15.547-.117.426-.762.242-.657-.183 1.154-4.722 3.942-11.057-.27-15.021-.177-.168.069-.492.27-.343" fill="#231f20" transform="matrix(-3.86274 -3.99293 -3.99293 3.86274 15.62 423.7)"/><path d="m0-7.253c-2.727 2.814-5.926 4.207-9.75 4.896-2.222.401-5.166.029-6.841 1.815-.292.311.162.768.468.469 1.372-1.335 4.139-1.244 5.931-1.54 1.754-.29 3.496-.69 5.145-1.369 2.106-.869 3.981-2.13 5.381-3.937.181-.232-.116-.56-.334-.334" fill="#231f20" transform="matrix(5.55556 0 0 5.55556 550.659 513)"/><path d="m0 11.079c.044-1.697 1.12-3.667 1.673-5.273.611-1.77 1.182-3.555 1.728-5.345.142-.468-.575-.659-.728-.201-.72 2.157-1.381 4.331-2.013 6.514-.344 1.187-1.467 3.141-.969 4.347.064.156.304.147.309-.042" fill="#231f20" transform="matrix(5.55556 0 0 5.55556 550.564 413.6)"/><path d="m0 12.855c-1.814-5.608-10.214-6.569-14.982-7.911-7.984-2.245-16.6-5.048-24.946-5.133-.536-.005-.537.828 0 .834 6.719.065 13.573 2.156 20.04 3.824 6.179 1.594 16.012 2.718 19.678 8.474.067.106.252.041.21-.088" fill="#231f20" transform="matrix(5.55556 0 0 5.55556 567.881 346.7)"/><path d="m0-6.812c0 .467.137.59.327 1.017.402.899.424 2.226-.088 3.129-.7 1.235-2.566 1.766-3.713 2.469-.253.156-.089.556.202.481 1.309-.337 3.355-1.396 4.04-2.641.35-.639.478-1.53.469-2.245-.01-.831-.67-1.447-.679-2.21-.005-.358-.558-.359-.558 0" fill="#231f20" transform="matrix(5.55556 0 0 5.55556 342.72 386.5)"/><path d="m0-11.673c9.688 2.88 19.421 5.609 29.197 8.173 5.648 1.481 11.259 3.592 14.369-2.539.223-.439-.431-.826-.663-.388-3.793 7.184-16.734 1.335-22.653-.267-6.707-1.816-13.395-3.704-20.074-5.619-.411-.117-.584.518-.176.64" fill="#231f20" transform="matrix(5.55556 0 0 5.55556 325.525 453.8)"/><path d="m-1.004-12.702c-.098 4.244.924 8.411.787 12.676-.014.442-.78.453-.787.005-.063-4.231-.828-8.538-.585-12.756.022-.384.594-.299.585.075" fill="#231f20" transform="matrix(-5.51077 -.704017 -.704017 5.51077 309.063 456.9)"/><path d="m0-4.381c-.27 1.363-.532 2.737-.893 4.08-.131.488.663.62.695.094.003-.041.006-.082.008-.123.024-.403-.531-.418-.658-.089-.015.039-.03.079-.045.118.227.063.455.125.683.189.212-1.382.48-2.754.691-4.136.047-.311-.418-.452-.481-.133" fill="#231f20" transform="matrix(5.55556 0 0 5.55556 304.842 512.2)"/><path d="m-3.31-2.481c.234 2.077.77 4.308.603 6.4-.028.346-.588.294-.603-.043-.095-2.113-.186-4.226-.308-6.338-.012-.199.285-.216.308-.019" fill="#231f20" transform="matrix(1.13336 -5.43873 -5.43873 -1.13336 374.075 348.9)"/><path d="m7.687-10.695c-.253 5.422-.033 10.79.591 16.179.044.378-.546.37-.591-.003-.633-5.385-.674-10.777-.203-16.177.011-.129.21-.131.203.001" fill="#231f20" transform="matrix(-1.5029 5.34842 5.34842 1.5029 443.503 356.5)"/><path d="m6.62-9.5c.438 4.628-.182 9.257.614 13.863.068.398-.542.545-.614.145-.832-4.637-.071-9.339-.184-14.013-.003-.121.173-.109.184.005" fill="#231f20" transform="matrix(-1.62132 5.31372 5.31372 1.62132 525.748 360.6)"/><path d="m5.45-7.413c.427 3.768.567 7.539.525 11.331-.003.338-.531.348-.525.009.073-3.781-.027-7.56-.197-11.338-.006-.128.183-.126.197-.002" fill="#231f20" transform="matrix(-1.38692 5.37965 5.37965 1.38692 489.848 367.8)"/><path d="m14.107-18.452c1.265 9.47.976 19.601.537 29.136-.015.344-.554.361-.537.016.461-9.694.172-19.457-.112-29.149-.001-.073.102-.073.112-.003" fill="#231f20" transform="matrix(-1.31857 5.39682 5.39682 1.31857 460.981 378.8)"/><path d="m0-7.946c-.314 2.602-1.035 5.126-1.401 7.718-.043.307.398.453.481.133.37-1.432.611-2.901.893-4.353.225-1.158.529-2.314.375-3.498-.029-.223-.321-.225-.348 0" fill="#231f20" transform="matrix(5.55556 0 0 5.55556 342.053 475.4)"/><path d="m11.85-14.647c.753 8.039.947 16.075.669 24.144-.015.427-.684.474-.669.044.298-8.065.097-16.107-.523-24.153-.027-.339.492-.371.523-.035" fill="#231f20" transform="matrix(-1.11766 5.44198 5.44198 1.11766 427.753 427.6)"/><path d="m0-6.066c-.319 1.08-.603 2.167-.995 3.224-.319.862-.758 1.659-.879 2.576-.048.366.599.458.651.088.141-1.002.639-1.942.936-2.906.296-.961.531-1.935.648-2.933.025-.211-.304-.241-.361-.049" fill="#231f20" transform="matrix(5.55556 0 0 5.55556 498.964 503.7)"/><path d="m.638-.065c.19 2.504.46 5.024.548 7.531.012.351-.516.412-.548.055-.229-2.498-.279-5.036-.405-7.544-.013-.26.385-.304.405-.042" fill="#231f20" transform="matrix(5.47864 .921284 .921284 -5.47864 522.614 484)"/><path d="m3.094-10.883c-2.116 3.637-2.409 7.097.505 10.438.278.32-.219.682-.505.398-2.882-2.86-3.436-8.184-.242-11.073.156-.14.332.083.242.237" fill="#231f20" transform="matrix(-5.50114 .775695 .775695 5.50114 581.903 512.7)"/><path d="m0 2.956c.445-.688.65-1.709.82-2.503.095-.443-.574-.545-.619-.084-.045.468-.095.941-.182 1.403-.072.377-.209.743-.239 1.124-.01.124.161.152.22.06" fill="#231f20" transform="matrix(5.55556 0 0 5.55556 204.503 322)"/><path d="m0 2.132c-.051-.408-.139-.811-.187-1.22-.044-.37 0-.798-.181-1.132-.099-.182-.397-.19-.493 0-.19.373-.063.828-.002 1.223.067.435.134.874.313 1.277.115.262.586.138.55-.148" fill="#231f20" transform="matrix(5.55556 0 0 5.55556 251.736 326.9)"/><path d="m0-2.213c-1.048 1.987 1.949 2.057 3.242 2.131 1.938.11 5.451.457 6.842-1.267.277-.342-.209-.832-.487-.487-.931 1.156-2.938 1.038-4.287 1.089-.56.021-5.393.125-4.744-1.135.193-.374-.369-.706-.566-.331" fill="#231f20" transform="matrix(5.55556 0 0 5.55556 199.357 345.1)"/><path d="m0 4.781c-1.126-.702-1.301-2.05-.667-3.16.549-.963 1.422-.969 2.33-1.36.396-.17.087-.697-.27-.642-1.571.242-2.865.895-3.177 2.611-.234 1.281.398 2.484 1.632 2.911.217.076.336-.245.152-.36" fill="#231f20" transform="matrix(5.55556 0 0 5.55556 197.162 326.8)"/><path d="m0 5.633c1.35-.489 2.702-1.352 2.899-2.902.173-1.363-.648-2.18-1.805-2.632-.406-.158-.699.529-.299.708.979.435 1.672 1.166 1.363 2.34-.287 1.091-1.334 1.736-2.274 2.21-.151.076-.046.335.116.276" fill="#231f20" transform="matrix(5.55556 0 0 5.55556 249.135 325)"/><path d="m-.73.175c2.662.81 2.559 4.301.386 5.594-.418.248-.813-.417-.386-.648 2.057-1.115 1.725-3.598-.072-4.772-.086-.056-.037-.207.072-.174" fill="#231f20" transform="matrix(5.35495 -1.47943 -1.47943 -5.35495 274.187 372.5)"/><path d="m.854-.114c-.881.937-.224 2.354.518 3.127.307.321-.205.719-.518.435-.889-.811-1.835-3.391-.16-3.9.208-.063.274.217.16.338" fill="#231f20" transform="matrix(4.57665 3.14937 3.14937 -4.57665 171.339 353.1)"/><path d="m4.434-8.071c-.466 3.502.94 6.837.768 10.309-.025.493-.794.495-.768 0 .186-3.542-1.239-6.869-.463-10.432.067-.309.502-.172.463.123" fill="#231f20" transform="matrix(-2.79905 4.79891 4.79891 2.79905 325.953 364.9)"/><path d="m0-16.608c-1.397 2.443-2.814 4.92-4.068 7.44-.619 1.244-1.291 2.426-1.057 3.87.483 2.982 3.654 5.079 6.439 5.5.472.071.686-.593.203-.735-1.108-.323-2.217-.681-3.173-1.346-2.926-2.028-2.956-4.243-1.532-7.475 1.052-2.389 2.455-4.664 3.607-7.009.137-.277-.262-.518-.419-.245" fill="#231f20" transform="matrix(5.55556 0 0 5.55556 101.66 385.2)"/><path d="m0-11.178c.033 2.267.588 5.405-.503 7.424-1.239 2.29-3.899 3.231-6.375 3.202-.521-.006-.518.787 0 .808 2.492.097 5.012-.864 6.607-2.836 1.85-2.287 1.144-5.981.768-8.665-.04-.286-.501-.212-.497.067" fill="#231f20" transform="matrix(5.55556 0 0 5.55556 330.603 368)"/><path d="m0-4.969c-.236.697-.133 1.497-.129 2.227.003.807.022 1.601-.069 2.406-.046.411.66.511.728.098.13-.777.107-1.552.071-2.337-.036-.777.032-1.666-.259-2.394-.064-.16-.282-.175-.342 0" fill="#231f20" transform="matrix(5.55556 0 0 5.55556 288.387 369.8)"/><path d="m-.315-3.45c.361 1.048.529 2.14.553 3.247.007.403-.561.42-.553.012.018-1.074-.138-2.104-.394-3.143-.055-.226.317-.338.394-.116" fill="#231f20" transform="matrix(-5.52022 -.625667 -.625667 5.52022 146.604 356.5)"/><path d="m0 55.45h-70.667c-2.225 0-4.03-1.805-4.03-4.03v-47.391c0-2.225 1.805-4.029 4.03-4.029h70.667c2.226 0 4.03 1.804 4.03 4.029v47.391c0 2.225-1.804 4.03-4.03 4.03z" fill="#fff" stroke="#c6168d" transform="matrix(5.55556 0 0 5.55556 843.497 43.9)"/><path d="m0-23.412s-7.434 23.412-37.67 11.269c8.179 0 20.694 3.345 25.798-11.119" fill="#fff" stroke="#c6168d" stroke-linecap="round" stroke-linejoin="round" transform="matrix(5.55556 0 0 5.55556 687.931 476.1)"/><path d="m.677-.199c-.018.028-.097.139-.252.139-.172 0-.303-.136-.303-.311 0-.172.13-.309.303-.309.143 0 .227.099.252.143h.089c-.043-.094-.158-.216-.341-.216-.222 0-.385.172-.385.383 0 .214.167.383.386.383.163 0 .292-.098.34-.212z" fill="#231f20" transform="matrix(55.5556 0 0 55.5556 527.85317372 114.3268674)"/><path d="m.039-.269c0 .151.112.283.285.283.174 0 .286-.132.286-.283s-.112-.284-.286-.284c-.173 0-.285.133-.285.283zm.073 0c0-.123.093-.215.212-.215.12 0 .212.092.212.215s-.092.215-.212.215c-.119 0-.212-.092-.212-.214z" fill="#231f20" transform="matrix(55.5556 0 0 55.5556 572.35320932 114.3268674)"/><path d="m.072 0h.074v-.304c0-.112.064-.179.175-.18.121-.002.173.077.173.193v.291h.073v-.306c0-.131-.059-.245-.226-.247-.096-.002-.169.041-.2.111.001-.036.001-.066.001-.096h-.07z" fill="#231f20" transform="matrix(55.5556 0 0 55.5556 608.40879372 114.3268674)"/><path d="m.595-.248c.008-.086-.022-.169-.084-.229-.051-.049-.121-.076-.197-.076-.161 0-.283.127-.283.285 0 .134.097.283.284.283.055 0 .108-.015.153-.044.046-.029.084-.073.109-.131h-.077c-.035.07-.102.111-.185.111-.091.001-.206-.064-.21-.199zm-.489-.059c.007-.098.093-.183.209-.183.111-.003.202.089.207.183z" fill="#231f20" transform="matrix(55.5556 0 0 55.5556 659.85327932 114.3268674)"/><path d="m.387-.403c-.005-.109-.089-.15-.164-.15-.091 0-.168.057-.168.154.002.085.062.116.139.139.093.027.133.052.135.113.001.055-.042.101-.104.101-.054 0-.109-.033-.112-.107h-.073c.001.113.097.168.184.168.102 0 .182-.072.178-.171-.004-.115-.09-.137-.167-.158-.065-.019-.104-.04-.106-.091-.002-.047.034-.087.093-.087.054 0 .092.032.092.089z" fill="#231f20" transform="matrix(55.5556 0 0 55.5556 694.74219612 114.3268674)"/><path d="m.114 0h.073v-.479h.118v-.059h-.118v-.202h-.073v.202h-.106v.059h.106z" fill="#231f20" transform="matrix(55.5556 0 0 55.5556 719.74221612 114.3268674)"/><path d="m.039-.269c0 .151.112.283.285.283.174 0 .286-.132.286-.283s-.112-.284-.286-.284c-.173 0-.285.133-.285.283zm.073 0c0-.123.093-.215.212-.215.12 0 .212.092.212.215s-.092.215-.212.215c-.119 0-.212-.092-.212-.214z" fill="#231f20" transform="matrix(55.5556 0 0 55.5556 735.52000652 114.3268674)"/><path d="m.072.204h.074v-.314c.025.056.102.125.221.125.167 0 .276-.132.276-.282 0-.139-.095-.286-.276-.286-.103 0-.181.049-.225.127v-.112h-.07zm.497-.473c0 .123-.093.215-.214.215-.06 0-.114-.023-.152-.061-.039-.039-.062-.093-.062-.153 0-.061.023-.115.06-.154.039-.039.092-.063.152-.063.145 0 .216.114.216.215z" fill="#231f20" transform="matrix(55.5556 0 0 55.5556 541.35318452 180.9935874)"/><path d="m.567-.538h-.074v.304c0 .112-.064.179-.176.18-.121.001-.173-.077-.173-.193v-.291h-.073v.305c0 .131.059.245.227.248.096.001.169-.041.199-.111v.096h.07z" fill="#231f20" transform="matrix(55.5556 0 0 55.5556 579.35321492 180.9935874)"/><path d="m.595-.248c.008-.086-.022-.169-.084-.229-.051-.049-.121-.076-.197-.076-.161 0-.283.127-.283.285 0 .134.097.283.284.283.055 0 .108-.015.153-.044.046-.029.084-.073.109-.131h-.077c-.035.07-.102.111-.185.111-.091.001-.206-.064-.21-.199zm-.489-.059c.007-.098.093-.183.209-.183.111-.003.202.089.207.183z" fill="#231f20" transform="matrix(55.5556 0 0 55.5556 614.85324332 180.9935874)"/><path d="m.61-.74h-.074v.311c-.024-.056-.102-.124-.22-.124-.161 0-.277.123-.277.283 0 .151.106.285.278.285.112 0 .184-.055.222-.126v.111h.071zm-.498.47c0-.121.091-.215.215-.215.06 0 .114.023.152.062.039.038.062.09.062.151.002.06-.021.115-.06.155-.038.039-.093.063-.153.063-.14 0-.215-.107-.216-.215z" fill="#231f20" transform="matrix(55.5556 0 0 55.5556 649.74216012 180.9935874)"/><path d="m.595-.248c.008-.086-.022-.169-.084-.229-.051-.049-.121-.076-.197-.076-.161 0-.283.127-.283.285 0 .134.097.283.284.283.055 0 .108-.015.153-.044.046-.029.084-.073.109-.131h-.077c-.035.07-.102.111-.185.111-.091.001-.206-.064-.21-.199zm-.489-.059c.007-.098.093-.183.209-.183.111-.003.202.089.207.183z" fill="#231f20" transform="matrix(55.5556 0 0 55.5556 687.74219052 180.9935874)"/><path d="m.072 0h.074v-.304c0-.112.064-.179.175-.18.121-.002.173.077.173.193v.291h.073v-.306c0-.131-.059-.245-.226-.247-.096-.002-.169.041-.2.111.001-.036.001-.066.001-.096h-.07z" fill="#231f20" transform="matrix(55.5556 0 0 55.5556 722.63110732 180.9935874)"/><path d="m.595-.248c.008-.086-.022-.169-.084-.229-.051-.049-.121-.076-.197-.076-.161 0-.283.127-.283.285 0 .134.097.283.284.283.055 0 .108-.015.153-.044.046-.029.084-.073.109-.131h-.077c-.035.07-.102.111-.185.111-.091.001-.206-.064-.21-.199zm-.489-.059c.007-.098.093-.183.209-.183.111-.003.202.089.207.183z" fill="#231f20" transform="matrix(55.5556 0 0 55.5556 491.46425572 247.6603074)"/><path d="m.072 0h.074v-.3c0-.057.013-.098.036-.129.022-.032.064-.057.114-.055.055.001.093.022.118.057.021.033.03.068.028.128v.299h.074v-.299c0-.061.005-.091.032-.129.025-.037.071-.056.118-.056.051 0 .085.017.107.045.031.035.04.086.04.143v.296h.074v-.299c0-.095-.014-.153-.061-.2-.037-.038-.09-.054-.145-.054-.06 0-.113.023-.148.06-.02.021-.031.042-.039.057-.003-.006-.021-.042-.035-.056-.038-.043-.091-.061-.147-.061-.061 0-.136.032-.17.1v-.085h-.07z" fill="#231f20" transform="matrix(55.5556 0 0 55.5556 526.35317252 247.6603074)"/><path d="m.072.204h.074v-.314c.025.056.102.125.221.125.167 0 .276-.132.276-.282 0-.139-.095-.286-.276-.286-.103 0-.181.049-.225.127v-.112h-.07zm.497-.473c0 .123-.093.215-.214.215-.06 0-.114-.023-.152-.061-.039-.039-.062-.093-.062-.153 0-.061.023-.115.06-.154.039-.039.092-.063.152-.063.145 0 .216.114.216.215z" fill="#231f20" transform="matrix(55.5556 0 0 55.5556 579.46432612 247.6603074)"/><path d="m.595-.248c.008-.086-.022-.169-.084-.229-.051-.049-.121-.076-.197-.076-.161 0-.283.127-.283.285 0 .134.097.283.284.283.055 0 .108-.015.153-.044.046-.029.084-.073.109-.131h-.077c-.035.07-.102.111-.185.111-.091.001-.206-.064-.21-.199zm-.489-.059c.007-.098.093-.183.209-.183.111-.003.202.089.207.183z" fill="#231f20" transform="matrix(55.5556 0 0 55.5556 617.46435652 247.6603074)"/><path d="m.013 0h.392v-.059h-.303l.292-.419v-.06h-.369v.059h.286l-.298.425z" fill="#231f20" transform="matrix(55.5556 0 0 55.5556 652.35327332 247.6603074)"/><path d="m.612-.538h-.074v.113c-.026-.061-.105-.128-.22-.128-.164 0-.279.126-.279.284 0 .148.104.284.279.284.096 0 .178-.045.22-.126v.111h.074zm-.5.269c0-.12.09-.216.214-.216.095 0 .167.055.197.129.012.026.018.056.017.086 0 .029-.006.059-.018.085-.029.076-.099.131-.194.131-.148 0-.215-.117-.216-.214z" fill="#231f20" transform="matrix(55.5556 0 0 55.5556 675.63106972 247.6603074)"/><path d="m.072 0h.073v-.293c0-.122.058-.187.162-.187h.007v-.073c-.063.002-.133.023-.172.103v-.088h-.07z" fill="#231f20" transform="matrix(55.5556 0 0 55.5556 713.63110012 247.6603074)"/><path d="m.387-.403c-.005-.109-.089-.15-.164-.15-.091 0-.168.057-.168.154.002.085.062.116.139.139.093.027.133.052.135.113.001.055-.042.101-.104.101-.054 0-.109-.033-.112-.107h-.073c.001.113.097.168.184.168.102 0 .182-.072.178-.171-.004-.115-.09-.137-.167-.158-.065-.019-.104-.04-.106-.091-.002-.047.034-.087.093-.087.054 0 .092.032.092.089z" fill="#231f20" transform="matrix(55.5556 0 0 55.5556 747.52001612 247.6603074)"/><path d="m.567-.538h-.074v.304c0 .112-.064.179-.176.18-.121.001-.173-.077-.173-.193v-.291h-.073v.305c0 .131.059.245.227.248.096.001.169-.041.199-.111v.096h.07z" fill="#231f20" transform="matrix(55.5556 0 0 55.5556 772.52003612 247.6603074)"/><path d="m.072-.637h.074v-.103h-.074zm0 .637h.074v-.538h-.074z" fill="#231f20" transform="matrix(55.5556 0 0 55.5556 466.29756892 314.3270274)"/><path d="m.072 0h.074v-.304c0-.112.064-.179.175-.18.121-.002.173.077.173.193v.291h.073v-.306c0-.131-.059-.245-.226-.247-.096-.002-.169.041-.2.111.001-.036.001-.066.001-.096h-.07z" fill="#231f20" transform="matrix(55.5556 0 0 55.5556 478.40868972 314.3270274)"/><path d="m.509-.538h-.078l-.172.447-.173-.447h-.078l.212.538h.077z" fill="#231f20" transform="matrix(55.5556 0 0 55.5556 512.29760572 314.3270274)"/><path d="m.595-.248c.008-.086-.022-.169-.084-.229-.051-.049-.121-.076-.197-.076-.161 0-.283.127-.283.285 0 .134.097.283.284.283.055 0 .108-.015.153-.044.046-.029.084-.073.109-.131h-.077c-.035.07-.102.111-.185.111-.091.001-.206-.064-.21-.199zm-.489-.059c.007-.098.093-.183.209-.183.111-.003.202.089.207.183z" fill="#231f20" transform="matrix(55.5556 0 0 55.5556 539.68651652 314.3270274)"/><path d="m.387-.403c-.005-.109-.089-.15-.164-.15-.091 0-.168.057-.168.154.002.085.062.116.139.139.093.027.133.052.135.113.001.055-.042.101-.104.101-.054 0-.109-.033-.112-.107h-.073c.001.113.097.168.184.168.102 0 .182-.072.178-.171-.004-.115-.09-.137-.167-.158-.065-.019-.104-.04-.106-.091-.002-.047.034-.087.093-.087.054 0 .092.032.092.089z" fill="#231f20" transform="matrix(55.5556 0 0 55.5556 574.57543332 314.3270274)"/><path d="m.114 0h.073v-.479h.118v-.059h-.118v-.202h-.073v.202h-.106v.059h.106z" fill="#231f20" transform="matrix(55.5556 0 0 55.5556 599.57545332 314.3270274)"/><path d="m.072-.637h.074v-.103h-.074zm0 .637h.074v-.538h-.074z" fill="#231f20" transform="matrix(55.5556 0 0 55.5556 617.01991172 314.3270274)"/><path d="m.61-.538h-.073v.111c-.03-.066-.112-.126-.218-.126-.164 0-.281.124-.281.285 0 .155.113.283.281.283.104 0 .179-.053.217-.129v.069c0 .134-.105.214-.208.214-.034 0-.08-.011-.119-.039-.032-.022-.051-.048-.064-.071h-.085c.034.097.132.174.266.174.073 0 .151-.031.204-.083.047-.045.08-.11.08-.212zm-.498.268c0-.126.096-.214.214-.214.077 0 .131.032.164.075.034.043.049.096.049.141-.001.059-.023.113-.06.152-.038.039-.09.062-.151.062-.139 0-.216-.106-.216-.215z" fill="#231f20" transform="matrix(55.5556 0 0 55.5556 629.13103252 314.3270274)"/><path d="m.612-.538h-.074v.113c-.026-.061-.105-.128-.22-.128-.164 0-.279.126-.279.284 0 .148.104.284.279.284.096 0 .178-.045.22-.126v.111h.074zm-.5.269c0-.12.09-.216.214-.216.095 0 .167.055.197.129.012.026.018.056.017.086 0 .029-.006.059-.018.085-.029.076-.099.131-.194.131-.148 0-.215-.117-.216-.214z" fill="#231f20" transform="matrix(55.5556 0 0 55.5556 666.96439612 314.3270274)"/><path d="m.519-.182c-.023.065-.092.127-.195.128-.116 0-.212-.088-.212-.215 0-.062.025-.12.061-.155.045-.042.089-.061.152-.061.076 0 .161.042.195.133h.076c-.037-.129-.153-.201-.274-.201-.163 0-.284.125-.284.284 0 .144.107.284.289.284.129 0 .234-.083.269-.197z" fill="#231f20" transform="matrix(55.5556 0 0 55.5556 704.96442652 314.3270274)"/><path d="m.072-.637h.074v-.103h-.074zm0 .637h.074v-.538h-.074z" fill="#231f20" transform="matrix(55.5556 0 0 55.5556 739.96445452 314.3270274)"/><path d="m.039-.269c0 .151.112.283.285.283.174 0 .286-.132.286-.283s-.112-.284-.286-.284c-.173 0-.285.133-.285.283zm.073 0c0-.123.093-.215.212-.215.12 0 .212.092.212.215s-.092.215-.212.215c-.119 0-.212-.092-.212-.214zm.089-.379.024.048.241-.129-.027-.054z" fill="#231f20" transform="matrix(55.5556 0 0 55.5556 752.07557532 314.3270274)"/><path d="m.072 0h.074v-.304c0-.112.064-.179.175-.18.121-.002.173.077.173.193v.291h.073v-.306c0-.131-.059-.245-.226-.247-.096-.002-.169.041-.2.111.001-.036.001-.066.001-.096h-.07z" fill="#231f20" transform="matrix(55.5556 0 0 55.5556 788.13115972 314.3270274)"/><path d="m829.46452612 308.2159114h4.3333368v6.111116h-4.3333368z" fill="#231f20" stroke-width="55.5556"/></g></svg>