<svg clip-rule="evenodd" fill-rule="evenodd" stroke-miterlimit="10" viewBox="0 0 605 803" xmlns="http://www.w3.org/2000/svg" xmlns:xlink="http://www.w3.org/1999/xlink"><linearGradient id="a" gradientTransform="matrix(0 187.534 -187.534 0 432.979 296.467)" gradientUnits="userSpaceOnUse" x1="0" x2="1" y1="0" y2="0"><stop offset="0" stop-color="#ffdd31"/><stop offset="1" stop-color="#ff2000"/></linearGradient><path d="m355.255 296.232h139.885v187.406h-139.885z" fill="url(#a)" transform="matrix(4.16667 0 0 4.16667 -1469 -1223.4833)"/><g fill-rule="nonzero" transform="translate(-1469 -1163)"><path d="m1480.21 1404.85 355.47-41.04 20.06 211.03-375.53 46.53z" fill="#d20020"/><g fill="#fff" stroke="#000"><path d="m0 6.282.867-.09-1.141-6.83-1.132.117-.88 3.451c-.216.9-.382 1.679-.484 2.391l-.031.004c-.247-.697-.56-1.427-.933-2.245l-1.517-3.202-1.133.117.233 6.925.846-.088-.122-2.967c-.045-1.037-.113-2.194-.181-3.054l.02-.002c.278.796.645 1.654 1.072 2.59l1.451 3.159.673-.07.869-3.461c.249-.984.445-1.872.596-2.7l.031-.004c.079.857.259 2.004.41 2.958z" stroke-width="3" transform="matrix(4.16667 0 0 4.16667 1590.58 1428.75)"/><path d="m0 4.534c-.096-.33-.16-.746-.204-1.175l-.192-1.846c-.102-.99-.576-1.981-2.085-1.825-.623.065-1.197.299-1.578.606l.266.57c.323-.26.789-.452 1.248-.5 1.009-.104 1.198.618 1.24 1.027l.011.102c-1.909.187-2.903.95-2.779 2.144.074.713.657 1.365 1.657 1.261.704-.073 1.198-.475 1.434-.891l.03-.004.136.616zm-1.121-1.564c.009.091 0 .196-.022.29-.099.433-.464.884-1.107.951-.459.048-.876-.189-.936-.769-.099-.959.995-1.248 1.976-1.329z" stroke-width="3" transform="matrix(4.16667 0 0 4.16667 1614.8 1433.53)"/><path d="m0 5.285.887-.092-.273-2.632c-.015-.153-.01-.297-.002-.422.054-.686.452-1.212 1.085-1.278.122-.013.215-.012.308-.001l-.088-.847c-.083-.012-.155-.013-.257-.003-.602.062-1.099.536-1.255 1.223l-.041.004-.131-.967-.786.081c.078.456.14.955.201 1.537z" stroke-width="3" transform="matrix(4.16667 0 0 4.16667 1620.5 1429.81)"/><path d="m0-5.804.123 1.184-.766.079.071.683.765-.079.279 2.692c.061.582.198 1.011.48 1.25.239.222.59.32 1.008.277.347-.036.618-.114.784-.205l-.111-.668c-.109.041-.279.09-.514.114-.499.052-.709-.277-.772-.889l-.276-2.663 1.285-.132-.071-.684-1.285.133-.147-1.417z" stroke-width="3" transform="matrix(4.16667 0 0 4.16667 1633.62 1448.87)"/><path d="m0-.06c.001-.093.006-.237-.013-.421-.094-.908-.669-2.281-2.28-2.114-1.439.149-2.195 1.412-2.04 2.902.154 1.489 1.165 2.395 2.686 2.237.785-.082 1.309-.3 1.61-.476l-.22-.627c-.322.178-.698.33-1.34.397-.898.093-1.725-.327-1.871-1.539zm-3.524-.284c.006-.63.318-1.508 1.226-1.602 1.009-.104 1.346.758 1.395 1.33z" stroke-width="3" transform="matrix(4.16667 0 0 4.16667 1664.76 1437.78)"/><path d="m0 4.808c.368.168.881.249 1.422.193 1.173-.122 1.784-.802 1.693-1.671-.075-.734-.559-1.117-1.449-1.354-.668-.179-.984-.331-1.026-.739-.038-.367.227-.704.757-.759.459-.048.833.078 1.04.181l.156-.676c-.292-.135-.746-.232-1.245-.18-1.062.109-1.636.829-1.554 1.625.061.591.53 1.037 1.451 1.262.688.177.967.384 1.012.812.042.409-.23.766-.882.833-.45.047-.938-.088-1.221-.233z" stroke-width="3" transform="matrix(4.16667 0 0 4.16667 1668.97 1425.78)"/><path d="m0-7.551.305 2.947-.02.002c-.265-.374-.812-.678-1.567-.599-1.204.125-2.12 1.239-1.939 2.88.155 1.5 1.178 2.415 2.372 2.291.806-.084 1.364-.565 1.582-1.144l.02-.002.13.854.806-.084c-.065-.334-.127-.833-.173-1.272l-.618-5.967zm.536 5.171c.015.142.017.266-.001.391-.093.69-.602 1.146-1.204 1.209-.969.099-1.545-.676-1.649-1.676-.113-1.092.354-1.964 1.282-2.061.673-.069 1.211.349 1.403.907.042.109.069.261.08.373z" stroke-width="3" transform="matrix(4.16667 0 0 4.16667 1707.26 1443.8)"/><path d="m0-.06c0-.093.006-.237-.013-.421-.094-.908-.67-2.281-2.281-2.114-1.439.149-2.194 1.412-2.04 2.902.154 1.489 1.166 2.395 2.686 2.237.785-.082 1.309-.3 1.61-.476l-.219-.628c-.322.179-.698.331-1.341.398-.897.093-1.725-.327-1.871-1.539zm-3.525-.284c.007-.63.318-1.508 1.226-1.602 1.009-.104 1.347.758 1.396 1.33z" stroke-width="3" transform="matrix(4.16667 0 0 4.16667 1735.87 1430.41)"/><path d="m0 24.124.038.059 17.931-1.858-.75-7.236-5.065.525-.038-.059c.611-.657 1.208-1.333 1.793-2.031.585-.695 1.092-1.425 1.522-2.192.429-.765.76-1.556.993-2.376.233-.819.303-1.679.21-2.581-.09-.86-.341-1.703-.755-2.528-.415-.827-1.019-1.543-1.813-2.15-.794-.606-1.79-1.065-2.988-1.375-1.198-.31-2.625-.381-4.282-.209-1.573.163-2.991.485-4.256.965-1.265.483-2.386 1.017-3.363 1.606l.73 7.046c.32-.181.678-.366 1.072-.557.394-.188.798-.368 1.215-.538.417-.171.836-.314 1.26-.433.421-.118.832-.198 1.23-.239.692-.071 1.283.005 1.773.229.489.225.767.653.832 1.282.026.252.007.523-.059.817-.064.292-.178.628-.34 1.004-.162.379-.376.823-.64 1.339-.265.515-.585 1.11-.96 1.784z" stroke-width="2" transform="matrix(4.16667 0 0 4.16667 1527.09 1475.4)"/><path d="m0 16.598 3.214-3.957 3.958 3.214 3.891-4.791-3.957-3.214 3.214-3.958-4.791-3.892-3.215 3.958-3.957-3.214-3.892 4.791 3.958 3.214-3.215 3.957z" stroke-width="2" transform="matrix(4.16667 0 0 4.16667 1653.29 1479.37)"/><path d="m0 24.093 9.374-.972-2.396-23.121-12.796 4.156.822 7.927 3.63-1.17z" stroke-width="2" transform="matrix(4.16667 0 0 4.16667 1753.09 1452.38)"/></g><path d="m.093 0v-.723h.142l.201.559.206-.559h.127v.723h-.096v-.588l-.199.54h-.099l-.194-.541v.589z" fill="#fef2f9" transform="matrix(42.502783191 -4.4045693076 4.4045693076 42.502783191 1562.480811642 1457.836331334)"/><path d="m.37-.067c-.058.053-.113.079-.167.079-.044 0-.08-.014-.109-.041-.029-.028-.044-.062-.044-.104 0-.058.025-.103.073-.134.049-.031.119-.046.21-.046h.022v-.064c0-.062-.031-.093-.094-.093-.051 0-.106.016-.165.047v-.079c.065-.027.126-.04.182-.04.06 0 .103.013.131.04.029.027.043.068.043.125v.24c0 .055.017.082.05.082.005 0 .011 0 .019-.002l.007.054c-.022.01-.046.015-.072.015-.045 0-.074-.026-.086-.079zm-.015-.053v-.137l-.032-.001c-.052 0-.095.01-.128.03-.032.02-.049.047-.049.079 0 .023.009.043.025.059s.036.024.059.024c.041 0 .082-.018.125-.054z" fill="#fef2f9" transform="matrix(42.502783191 -4.4045693076 4.4045693076 42.502783191 1596.270675552 1454.334683058)"/><path d="m.096 0v-.53h.096v.099c.038-.074.094-.111.166-.111.01 0 .02.001.031.002v.09c-.016-.005-.031-.008-.044-.008-.061 0-.112.036-.153.108v.35z" fill="#fef2f9" transform="matrix(42.502783191 -4.4045693076 4.4045693076 42.502783191 1616.926714032 1452.19409493)"/><path d="m.255.012c-.048 0-.087-.014-.114-.042s-.041-.067-.041-.116v-.312h-.066v-.072h.066v-.096l.096-.01v.106h.139v.072h-.139v.294c0 .069.03.104.09.104.013 0 .028-.002.047-.006v.066c-.03.008-.056.012-.078.012z" fill="#fef2f9" transform="matrix(42.502783191 -4.4045693076 4.4045693076 42.502783191 1631.502815022 1450.683571566)"/><path d="m.485-.017c-.065.019-.12.029-.166.029-.078 0-.142-.026-.191-.078s-.074-.119-.074-.202c0-.08.022-.146.065-.197.044-.052.099-.077.167-.077.064 0 .114.022.149.068.035.045.052.11.052.194v.03h-.335c.014.126.076.189.185.189.04 0 .09-.011.148-.032zm-.328-.305h.234c0-.099-.037-.148-.111-.148s-.115.049-.123.148z" fill="#fef2f9" transform="matrix(42.502783191 -4.4045693076 4.4045693076 42.502783191 1644.582762342 1449.328094814)"/><path d="m.237.012c-.044 0-.098-.01-.16-.031v-.088c.062.031.117.047.164.047.027 0 .05-.008.069-.023.018-.014.027-.033.027-.056 0-.033-.026-.06-.077-.081l-.056-.024c-.083-.035-.124-.084-.124-.149 0-.046.016-.083.049-.109.032-.027.077-.04.134-.04.03 0 .066.004.11.012l.02.004v.08c-.054-.016-.096-.024-.128-.024-.062 0-.093.023-.093.068 0 .029.024.053.071.073l.046.019c.052.023.09.046.111.07.022.025.033.056.033.093 0 .046-.018.084-.055.114-.037.03-.084.045-.141.045z" fill="#fef2f9" transform="matrix(42.502783191 -4.4045693076 4.4045693076 42.502783191 1665.441879852 1447.166461578)"/><path d="m.437 0v-.1c-.04.075-.098.112-.177.112-.064 0-.114-.023-.151-.07-.036-.046-.055-.11-.055-.191 0-.088.021-.159.062-.212.042-.054.097-.081.164-.081.063 0 .115.024.157.072v-.301h.096v.771zm0-.404c-.05-.044-.097-.066-.142-.066-.092 0-.138.071-.138.212 0 .124.041.186.123.186.053 0 .105-.029.157-.088z" fill="#fef2f9" transform="matrix(42.502783191 -4.4045693076 4.4045693076 42.502783191 1694.925639432 1444.11105549)"/><path d="m.485-.017c-.065.019-.12.029-.166.029-.078 0-.142-.026-.191-.078s-.074-.119-.074-.202c0-.08.022-.146.065-.197.044-.052.099-.077.167-.077.064 0 .114.022.149.068.035.045.052.11.052.194v.03h-.335c.014.126.076.189.185.189.04 0 .09-.011.148-.032zm-.328-.305h.234c0-.099-.037-.148-.111-.148s-.115.049-.123.148z" fill="#fef2f9" transform="matrix(42.502783191 -4.4045693076 4.4045693076 42.502783191 1718.859953682 1441.63073919)"/></g><g transform="translate(-1469 -1163)"><g transform="matrix(4.16667 0 0 4.16667 1886.59 1814.11)"><path d="m-29.547 5.198c-.927 0-1.855.049-2.778-.012-1.343-.087-2.681-.25-4.021-.387-1.047-.109-2.094-.221-3.141-.337-3.18-.354-6.366-.673-9.538-1.086-1.162-.151-2.294-.532-3.44-.805-1.72-.407-3.444-.793-5.156-1.226-.939-.237-1.863-.534-2.783-.837-1.839-.607-3.716-1.122-5.49-1.885-1.807-.776-3.613-1.608-5.216-2.794-.44-.325-.874-.671-1.358-.917-1.495-.762-2.592-2.006-3.834-3.074-.895-.772-1.759-1.582-2.68-2.32-1.408-1.125-2.049-2.679-2.373-4.347-.304-1.567-.458-3.173-.546-4.769-.087-1.611.313-3.177.778-4.716.159-.524.315-1.052.517-1.562 1.058-2.683 2.416-5.183 4.219-7.46.862-1.088 1.844-1.943 2.987-2.685 1.343-.872 2.754-1.688 3.942-2.744 2.657-2.366 5.955-3.45 9.112-4.819 1.894-.821 3.825-1.572 5.78-2.232.941-.318 1.983-.332 2.972-.521 1.426-.271 2.841-.318 4.281-.068 1.062.185 2.084-.035 3.053-.547 1.284-.679 2.665-.948 4.123-.987 1.675-.045 3.345-.215 5.018-.334.126-.009.249-.044.375-.053 1.387-.105 2.773-.211 4.16-.305 1.753-.119 3.44.334 5.145.61 1.71.279 3.415.528 5.155.442.887-.044 1.776-.021 2.664-.06 1.67-.072 3.262.218 4.845.768 1.268.44 2.593.725 3.905 1.033 2.702.632 5.428 1.165 8.108 1.871 1.501.395 2.969.976 4.39 1.611 1.807.806 3.557 1.744 5.322 2.641 2.627 1.338 5.245 2.691 7.867 4.036.766.393 1.424.905 1.875 1.657.109.179.237.365.4.489 1.42 1.081 2.156 2.677 3.125 4.1.498.732.946 1.506 1.504 2.188 1.504 1.836 1.815 3.933 1.479 6.191-.129.872-.259 1.748-.452 2.608-.82 3.643-2.577 6.714-5.451 9.165-1.195 1.018-2.418 1.947-3.794 2.709-.729.402-1.315 1.055-2.021 1.514-1.411.923-2.853 1.797-4.294 2.674-.575.351-1.2.622-1.767.986-1.941 1.243-4.093 1.967-6.281 2.594-2.223.637-4.443 1.296-6.693 1.818-1.468.339-2.996.416-4.487.67-2.364.4-4.781.361-7.131.93-1.013.245-2.089.226-3.139.315-1.26.105-2.521.198-3.783.296-.042.003-.094-.013-.125.005-.854.518-1.779.225-2.676.236-.883.011-1.767.003-2.65.003-.002-.091-.002-.181-.003-.271z" fill="#ffae23"/><path d="m-72.636-34.314c-1.196-.263-2.114-.032-2.802.89-.203.27-.421.528-.65.775-1.375 1.479-2.155 3.319-3.064 5.078-2.059 3.981-2.565 8.173-1.479 12.515.388 1.554.988 3.052 2.298 4.127.911.75 1.845 1.481 2.697 2.295 2.342 2.238 5.017 3.993 7.878 5.467 3.424 1.764 7.033 3.039 10.778 3.931 1.35.322 2.725.547 4.057.927 2.723.779 5.479 1.33 8.306 1.546 1.638.123 3.285.241 4.903.509 2.921.486 5.855.691 8.809.733.758.011 1.516.075 2.269.154 1.143.121 1.301.049 1.705-1.002.121-.315.298-.654.272-.967-.105-1.251-.234-2.504-.456-3.737-.062-.346-.475-.628-.651-.846-.773.203-1.369.426-1.982.506-1.333.175-2.685.22-4.014.42-2.088.317-4.142.118-6.13-.461-.75-.219-1.35-.943-2.021-1.433-.205-.15-.432-.272-.622-.437-.39-.338-.839-.375-1.313-.3-.957.148-1.909.344-2.87.454-1.04.121-2.096.269-3.135.204-.64-.039-1.246-.023-1.855.11-2.275.5-2.292.517-3.664-1.341-.361-.489-.774-.715-1.351-.806-1.951-.31-3.824-.305-5.699.534-1.399.627-2.775.02-3.514-1.312-.471-.849-1.037-1.512-2.05-1.73-.572-.124-1.112-.395-1.664-.602-1.759-.658-3.279-1.727-4.709-2.897-1.456-1.191-1.93-2.84-1.681-4.676.102-.746-.07-1.314-.657-1.775-.198-.156-.398-.329-.539-.532-.505-.724-1.349-1.524-1.004-2.358.565-1.364.436-2.759.653-4.131.032-.208.111-.407.152-.614.048-.246.132-.502.108-.743-.19-1.809.855-2.978 2.17-3.886.972-.671 1.542-1.522 1.888-2.589.209-.641.407-1.287.633-2z" fill="#ec8123"/><path d="m14.812-12.453c-1.01.221-1.927.374-2.813.633-.461.133-.973.361-1.28.707-1.463 1.644-3.173 2.733-5.433 2.899-.595.044-1.23.267-1.437 1.033-.068.246-.353.476-.593.624-1.295.794-2.573 1.624-3.923 2.317-1.106.567-2.343.846-3.552.331-.77-.329-1.374-.198-1.996.256-.724.53-1.52.886-2.408 1.066-.863.176-1.706.458-2.571.627-1.71.335-3.436.521-5.137-.042-.667-.222-1.26-.014-1.848.203-2.635.979-5.182 1.025-7.589-.64-.433-.301-.837-.329-1.185.01 1.06 2.26 1.348 4.538.86 6.947 2.042.312 3.998-.059 5.951-.189 2.016-.134 4.022-.431 6.028-.67 1.759-.209 3.52-.39 5.265-.675 1.159-.188 2.287-.542 3.431-.815 1.838-.44 3.686-.841 5.51-1.327.768-.204 1.484-.603 2.236-.879.628-.231 1.307-.343 1.905-.626 1.295-.615 2.559-1.295 3.825-1.969 2.051-1.095 3.981-2.388 5.78-3.849.664-.538 1.192-1.333 1.563-2.115.267-.564.304-1.319.203-1.951-.102-.641-.5-1.235-.792-1.906z" fill="#ec8123"/><path d="m-29.696-6.73c-.999.605-1.979 1.136-2.693 2.084-1.146 1.525-2.779 2.142-4.632 2.182-.662.014-1.426.029-1.969-.27-1.016-.562-1.912-1.342-2.84-2.057-.349-.268-.576-.648-.439-1.11.231-.776-.239-1.197-.773-1.56-.872-.594-1.785-.598-2.765-.197-1.085.444-2.21.786-3.317 1.177-.315.113-.651.201-.931.376-.523.332-.702.858-.578 1.421.127.573.488.883 1.056.91.67.031 1.353.087 2.012-.003 1.122-.154 2.233-.399 3.343-.634.968-.204 1.832-.109 2.556.649.26.271.561.517.878.718.457.291.919.654 1.429.771 2.238.509 4.507.548 6.776.213 1.078-.159 2.142-.413 3.22-.559.929-.126 1.229-.41 1.313-1.353.112-1.255-.508-2.073-1.646-2.758z" fill="#f4a900"/><path d="m-26.908-3.681c1.026-.194.994-.16 1.751.552.383.36.871.659 1.365.841 1.164.427 2.378.35 3.588.191.943-.123 1.824-.391 2.877-1.115-.784-.082-1.274-.182-1.761-.177-1.196.015-2.104-.412-2.731-1.473-.247-.418-.602-.86-1.02-1.073-1.082-.55-2.194-1.102-3.359-1.413-.689-.183-1.522.017-2.091.518.477 1.087.911 2.079 1.381 3.149z" fill="#ffc61d"/><path d="m-6.748-4.31c-.627-.254-1.157-.474-1.691-.686-1.054-.42-2.112-.831-3.164-1.253-.602-.24-1.169-.058-1.71.166-.57.236-.552.784-.555 1.301-.007.668-.411.97-1.019 1.084-.33.062-.658.141-.986.209-.278.057-.559.108-1.004.193 1.897.889 2.446 1.032 3.944.837 1.125-.147 2.253-.335 3.353-.614.96-.244 1.954-.482 2.832-1.237z" fill="#f4a900"/><path d="m-49.103-23.393c.462.441.939.799 1.296 1.251.852 1.081 1.001 2.304-.086 3.566-.667.776-1.465 1.363-2.447 1.738-1.842.702-3.721 1.121-5.692.946-.777-.068-1.405.147-1.986.625-.226.187-.52.304-.717.514-.686.733-1.514.955-2.504.97-1.358.023-2.565.451-3.317 1.739-.143.244-.563.509-.816.474-.982-.134-1.466.46-1.938 1.134-.577.83-.473 1.863.413 2.248.757.331 1.064.89 1.402 1.525.813 1.531 1.626 1.783 3.217 1.169.776-.302 1.606-.573 2.427-.628.999-.067 2.017.099 3.024.183.894.077 1.579.331 2.223 1.154.948 1.212 1.057 1.587 2.761.904-.541-.712-.165-1.181.253-1.858.604-.979 1.366-1.372 2.398-1.63 1.135-.283 2.272-.647 3.331-1.141.927-.433 1.728-.464 2.635-.01 1.169.585 2.124 1.248 1.875 2.779-.096.581.168.922.768 1.11.597.19 1.266.411 1.691.832.896.887 1.909.72 2.942.572.802-.116 1.587-.327 2.155-.969 1.179-1.332 2.435-2.571 4.1-3.358-.781-1.718-1.329-3.459-2.522-4.859-.104 0-.187-.01-.266.002-.167.024-.338.046-.498.096-2.782.88-5.412.125-8.026-.754-.274-.092-.544-.244-.775-.421-.693-.533-1.006-1.326-.909-2.123.087-.725.664-1.261 1.421-1.47 1.339-.37 2.684-.722 4.025-1.088.306-.083.603-.194 1.029-.334-.728-.615-.832-1.289-.604-2.038.023-.081.038-.165.054-.247.249-1.275.357-2.58 1.217-3.672.228-.287.213-.787.254-1.195.107-1.081.188-2.165.273-3.248.014-.197.001-.392.001-.826-.914.564-1.682.985-2.39 1.492-.625.45-1.273.765-2.014 1.007-.948.308-1.985.684-2.681 1.347-.961.913-1.954 1.246-3.203 1.111-.292-.032-.594-.018-.886.022-1.107.151-2.105.539-2.908 1.359z" fill="#ffc61d"/><path d="m15.615-13.107c.307.804.727 1.564.869 2.375.139.776-.008 1.604-.032 2.454.194-.06.328-.069.427-.135 2.653-1.828 4.74-4.127 6.074-7.105.72-1.605 1.014-3.298 1.273-5.001.13-.859.042-1.751.072-2.627.056-1.687-.937-2.569-2.334-3.236-.688-.329-1.31-.266-1.949-.055-.602.2-.777.606-.464 1.2.29.548.698 1.041 1.097 1.523.518.623 1.085 1.228.975 2.111-.222 1.79-.769 3.455-2.106 4.752-1.27 1.232-2.553 2.452-3.902 3.744z" fill="#ec8123"/><path d="m-67.264-12.397c-.174-1.796-1.972-2.42-3.299-2.124-.289.065-.575.151-.868.183-1.651.189-2.688-.745-2.64-2.395.011-.371.15-.734.216-1.103.082-.47.149-.943.235-1.493-1.192-.28-2.118-.723-2.747-1.66-.087-.129-.578-.136-.763-.017-.428.277-.608.749-.309 1.212.384.598.781 1.22 1.299 1.692.723.659 1.037 1.338.863 2.335-.203 1.157.048 2.242.78 3.226.739.993 3.687 3.103 5.141 3.546.233.072.477.115.925.22-.232-1.465.167-2.67 1.167-3.622z" fill="#f4a900"/><path d="m-37.226-29.297c-.42 0-.634-.036-.835.005-2.35.474-4.711.907-7.044 1.453-2.688.629-5.386.98-8.149.791-.757-.052-1.521-.016-2.281.002-.335.008-.673.056-1.003.118-2.092.403-4.022 1.186-5.854 2.289-1.885 1.138-3.966 1.815-6.171 1.216-1.727-.468-3.341-.162-4.973.26-.523.134-.999.446-1.489.691-.369.185-.611.471-.54.91.069.443.277.81.732.947.28.084.577.111.868.157.8.124 1.344.597 1.368 1.385.015.477-.095 1.033-.347 1.426-.359.558-.51 1.086-.201 1.651.345.633.957.712 1.642.681.88-.041 1.769-.01 2.647.069 1.009.092 1.699.684 2.136 1.586.178.365.366.723.531 1.05.668-.068 1.056-.305 1.438-.692.959-.97 2.197-1.405 3.535-1.447 1.184-.038 2.083-.618 3.007-1.223-.239-.118-.446-.16-.655-.16-1.157-.008-2.127-.498-3.001-1.194-1.162-.925-1.275-2.37-.402-3.583 1.252-1.739 3.013-2.558 5.05-2.784 2.412-.27 4.843-.748 7.195.125 1.34-1.423 3.022-1.832 4.76-1.905 1.125-.047 2.031-.355 2.882-1.07.506-.425 1.114-.851 1.739-.985 1.245-.268 2.25-.897 3.415-1.769z" fill="#ffc61d"/><path d="m-35.825-17.097c-.451-.03-.834-.019-1.202-.089-1.582-.297-2.975.178-4.264 1.037-.637.424-.748 1.159-.239 1.727.296.333.697.612 1.105.794 1.522.671 3.165.878 4.793.958.867.044 1.837.029 2.682-.507-.452-1.706-1.918-2.581-2.875-3.92z" fill="#d20020"/><path d="m-32.154-13.579c.854-.649 1.007-1.101.584-1.724-.53-.78-1.328-1.078-2.323-1.288.643 1.113 1.187 2.056 1.739 3.012z" fill="#d20020"/><path d="m18.468-26.403c-2.244-.473-4.162.172-6.067 1.009.557 1.055 1.657 1.161 2.513 1.646.288.163.739.257.837.496.347.849.615 1.734.827 2.628.126.526-.25.863-.721 1.05-.39.153-.791.283-1.186.423-.587.207-.755.643-.611 1.205.071.277.175.572.349.79.621.774 1.059 1.602.922 2.665.204-.034.359-.013.437-.079 1.652-1.429 3.436-2.791 4.397-4.794.977-2.034 1.102-2.558-.647-4.377-.386-.402-.617-.979-.84-1.508-.142-.335-.139-.732-.21-1.154z" fill="#f4a900"/><path d="m-30.283-31.188c.207.985.844 1.015 1.338 1.097 2.198.365 4.399.737 6.613.977 2.601.281 5.126.835 7.589 1.699 1.361.477 2.62 1.124 3.719 2.105.549.491 1.291.778 1.963 1.12.512.26 1.002.301 1.54-.081.358-.252.857-.389 1.303-.42 1.42-.102 2.85-.232 4.266-.16 2.046.104 3.965.78 5.762 1.747 1.293.696 1.518 1.354 1.154 2.826-.018.072.015.158.038.346 1.436.274 2.948.425 4.368.868 1.465.458 2.95 1.006 4.106 2.531-.137-.704-.217-1.108-.291-1.511-.16-.854 0-1.272.704-1.686.325-.191.685-.329 1.042-.46.475-.172.581-.439.525-.965-.138-1.303-.988-1.963-2.065-2.29-.867-.264-1.457-.835-2.07-1.385-.617-.55-.436-1.16.336-1.437.393-.14.794-.256 1.233-.395-2.385-1.793-4.974-2.059-7.682-1.82-.666.057-1.338.081-2.006.064-2.142-.051-4.275-.185-6.326-.897-.077-.028-.169-.02-.253-.017-2.063.06-4.127.138-6.191.173-.403.007-.84-.074-1.202-.241-.372-.173-.662-.515-1.005-.758-.771-.546-1.639-1.048-2.572-.856-2.182.45-4.366.374-6.533.11-1.097-.134-2.084-.008-3.098.31-.355.112-.748.229-1.103.185-.916-.115-1.817-.338-2.731-.481-.778-.122-1.566-.19-2.471-.298z" fill="#ffc61d"/><path d="m-53.58-23.383c-1.476.215-3.108.389-4.71.711-1.174.235-2.197.849-2.954 1.824-1.133 1.46-.757 2.881 1.006 3.465 3.087 1.022 6.212 1.093 9.267-.086.874-.338 1.657-.989 2.377-1.615.609-.527.642-1.537.208-2.21-.542-.842-1.269-1.475-2.28-1.662-.908-.17-1.827-.272-2.914-.427z" fill="#d20020"/><path d="m-7.888-23.077c-.841 1.182-.717 2.054.454 2.814.385.249.814.446 1.245.608 1.925.731 3.921.806 5.942.56.809-.098 1.616-.217 2.424-.326.013-.088.028-.173.043-.26-.79-.46-1.532-1.053-2.377-1.353-2.481-.875-4.846-2.208-7.731-2.043z" fill="#d20020"/><path d="m4.03-20.45c.117-1.442-.009-1.695-1.026-2.231-1.586-.838-3.272-1.344-5.057-1.52-.759-.076-3.009.178-3.735.414.069.047.131.111.206.137 2.888.936 5.745 1.946 8.521 3.183.29.128.687.017 1.091.017z" fill="#d20020"/><path d="m-76.695-23.029c1.631-.472 3.154-.921 4.683-1.35.948-.265 1.932-.375 2.86-.025 2.139.809 4.148.269 5.94-.792 1.849-1.095 3.805-1.815 5.829-2.41 1.341-.395 2.723-.539 4.127-.333 2.419.354 4.786.068 7.122-.592.405-.115.818-.199 1.231-.277 2.151-.409 4.304-.81 6.459-1.215.692-.13 1.341-.339 1.867-.954-.647-.125-1.179-.287-1.719-.314-.483-.023-1.049-.033-1.451.185-1.573.848-3.162.69-4.789.278-1.112-.283-2.067-.756-2.48-1.959-.88-.188-1.739-.391-2.604-.55-.637-.118-1.233-.068-1.776.403-.375.326-.839.598-1.308.757-3.107 1.049-6.256 1.704-9.565 1.1-1.502-.275-2.625-1.292-2.861-2.8-.044-.284-.072-.57-.107-.864-1.559-.549-3.119-.451-4.674-.407-.733.021-1.305.375-1.664 1-.25.433-.49.9-.599 1.382-.422 1.881-1.606 3.213-3.037 4.381-.131.107-.312.166-.41.293-.229.298-.536.601-.605.944-.248 1.231-.416 2.479-.598 3.722-.016.109.073.234.129.397z" fill="#ffc61d"/><path d="m22.568-27.517c-.437-.688-.838-1.276-1.194-1.889-.757-1.3-1.449-2.641-2.583-3.676-.28-.255-.496-.581-.784-.826-.699-.594-1.378-1.229-2.149-1.716-.851-.54-1.796-.93-2.697-1.392-2.097-1.077-4.196-2.146-6.281-3.246-.518-.272-.948-.273-1.384.133.273.847.855 1.289 1.737 1.424.451.068.915.204 1.311.424.994.55 1.961 1.149 2.92 1.758 1.278.808 2.349 1.799 2.667 3.361.935.333 1.714.795 2.255 1.618.251.38.59.732.96.997.586.415.902.934 1.101 1.626.32 1.104.939 1.453 2.083 1.409.663-.025 1.328-.005 2.038-.005z" fill="#ec8123"/><path d="m-6.543-42.741c-.629.42-1.017.9-1.412.905-1.216.017-2.507.07-3.637-.297-1.69-.549-3.42-.346-5.108-.645-.63-.113-1.102.153-1.189.821-.079.614-.502.92-.984 1.032-.852.198-1.735.373-2.603.359-1.044-.019-1.162-.352-.664-1.312.314-.603.235-.907-.343-1.243-.293-.169-.656-.257-.88-.487-.208-.213-.383-.572-.364-.852.015-.201.346-.431.584-.553.314-.159.675-.223 1.016-.329-.73-.416-1.473-.548-2.172-.799-.907-.326-1.792-.723-2.666-1.131-1.687-.787-3.47-.642-5.235-.533-.942.058-1.453.978-1.152 1.854.378 1.1.77 2.198 1.131 3.224 1.366.496 2.78.918 4.113 1.521 1.149.518 1.212 2.197.172 2.892-.378.255-.816.461-1.255.576-.608.158-1.247.192-1.867.31-.6.116-1.194.275-1.724.398.093 1.983.177 3.8.263 5.674.46-.109.832-.175 1.192-.286 2.053-.625 4.092-1.303 6.159-1.874.843-.233 1.593-.578 2.222-1.147.732-.663 1.581-.917 2.536-.994.671-.054 1.334-.199 2.226-.337-.552-.351-.872-.55-1.188-.755-.429-.279-.579-.685-.593-1.188-.016-.685.371-1.135.88-1.445 1.325-.808 2.81-1.192 4.339-1.065 1.296.108 2.728.185 3.813.79 1.476.823 2.743.521 4.172.179 1.343-.32 2.734-.436 4.257-.666-1.42-.914-2.783-1.789-4.039-2.597z" fill="#ffc61d"/><path d="m-41.465-31.598c-.709-.168-1.418-.336-2.127-.504-.709-.167-1.418-.335-2.126-.503 1.094 1.683 2.696 1.256 4.253 1.007z" fill="#d20020"/><path d="m-68.895-36.15c1.162.143 2.155.269 3.15.39.373.045.74.131 1.029-.259.746-1.001 1.818-1.435 2.999-1.668.412-.081.834-.138 1.23-.271 1.55-.521 3.147-.567 4.754-.516.244.007.493.084.725.167.548.196 1.089.411 1.63.622.429.167.869.31 1.278.515 1.226.61 1.866 1.647 1.994 2.994 1.19.239 2.299.464 3.357.676 1.021-.736 2.145-.94 3.274-1.094.311-.042.726.004.953.186.362.287.742.302 1.151.384 1.098.219 2.159.539 2.473 1.91 1.793.243 3.565.484 5.373.729.113-.408.284-.733.275-1.054-.033-1.209-.104-2.419-.2-3.626-.06-.75-.234-.812-1.071-.909-1.001-.117-2.006-.27-2.979-.522-.999-.258-1.47-.95-1.513-1.943-.036-.847.217-1.739 1.291-2.072.522-.16 1.023-.396 1.552-.528.967-.242 1.949-.433 3.08-.678-.187-.695-.287-1.364-.549-1.963-.395-.904-.741-1.785-.303-2.952-1.059.113-1.962.21-2.855.307-.089.953-.198 1.917-1.009 2.392-1.184.696-2.326 1.578-3.792 1.635-.84.033-1.307.479-1.556 1.237-.128.393-.284.778-.432 1.175.226.236.403.411.57.597.683.764.578 1.374-.334 1.767-.463.201-.951.363-1.44.483-1.49.364-2.859.057-3.71-1.236-.609-.926-1.404-1.27-2.373-1.469-.494-.102-.986-.242-1.487-.28-.667-.053-1.04-.427-1.449-1.082 1.723-.821 3.691-.05 5.28-1.038-.198-.518-.602-.612-1.03-.67-.999-.141-1.996-.326-3-.408-.69-.057-1.176-.294-1.283-.891-.746.434-1.39.899-2.101 1.212-2.047.898-4.108 1.768-6.188 2.581-1.046.409-1.957.991-2.755 1.754-.79.754-1.53 1.543-2.508 2.093-.569.32-1.005.874-1.501 1.323z" fill="#ffc61d"/><path d="m-64.271-34.541c-.063 1.482.167 1.952 1.381 2.419.696.267 1.451.434 2.193.512 2.511.259 4.943-.209 7.332-.947.462-.142.887-.401 1.406-.641-1.935-1.165-8.853-1.896-12.312-1.343z" fill="#d20020"/><path d="m-40.022-32.273c-.103-.939-.843-.933-1.382-1.084-.598-.169-1.24-.172-1.856-.284-.839-.151-.837-.167-1.669.252 1.612.493 3.153 1.09 4.907 1.116z" fill="#d20020"/><path d="m-51.088-34.095c.084-1.312-.346-2.091-1.448-2.587-.762-.342-1.583-.569-2.394-.786-.902-.241-1.865-.026-2.74-.139-2.055-.265-3.798.465-5.571 1.221-.309.132-.688.363-.528.925 4.251-.148 8.464.15 12.681 1.366z" fill="#d20020"/><path d="m-68.19-38.236c1.372-.587 2.021-1.095 2.852-2.272-.565.356-1.023.641-1.477.933-.55.354-1.142.666-1.375 1.339l-.039.019-.021.036c-.449.147-.934.232-1.33.467-.786.467-1.524 1.019-2.27 1.55-.078.057-.083.213-.171.452.344-.023.67.053.859-.075 1.046-.705 2.304-1.165 2.912-2.394l.043-.013z" fill="#ec8123"/><path d="m-15.028-36.19c2.039-.092 3.79-.095 5.15-1.454-1.498.301-2.973.689-4.443 1.087-.158.042-.294.151-.707.367z" fill="#d20020"/><path d="m-10.421-38.273c.018-.119.036-.237.054-.355-.535-.181-1.058-.417-1.606-.529-1.112-.227-2.233-.437-3.36-.557-1.276-.137-2.423.325-3.392 1.121-.712.586-.62 1.195.192 1.573.886.414 1.792.647 2.791.261.781-.301 1.618-.453 2.427-.681.966-.271 1.929-.555 2.894-.833z" fill="#d20020"/><path d="m-33.242-41.965c-.791.135-1.493.215-2.174.383-.648.158-1.299.357-1.906.632-.573.258-.928.77-.902 1.416.031.705.48 1.183 1.12 1.396.99.33 2.017.461 3.147.369-.099-1.45.812-2.668.715-4.196z" fill="#d20020"/><path d="m-32.272-42.011c-.833 2.53-.959 3.387-.644 4.258.362-.058.734-.107 1.103-.178.941-.179 1.9-.308 2.82-.57 1.118-.315 1.33-1.282.492-2.06-.27-.252-.598-.491-.941-.609-.906-.311-1.836-.551-2.83-.841z" fill="#d20020"/><path d="m-52.239-41.63c1.043.245 1.85.478 2.674.617.547.093.931.351 1.235.785.193.277.373.567.598.816 1.164 1.288 3.003 1.292 4.329.021-.013-.08 0-.176-.039-.242-.089-.14-.19-.276-.309-.391-.753-.727-.755-.724-.34-1.703.081-.193.178-.382.239-.583.385-1.262.789-1.595 2.118-1.714 1.208-.109 2.287-.542 3.208-1.327.864-.735.851-.751.293-1.902-.868.049-1.744.108-2.621.145-1.072.043-2.052.35-3.002.856-.461.246-1.024.401-1.545.417-1.894.058-3.788.024-5.682.059-.519.008-1.035.139-1.542.212.091.696.5.787.937.84.834.104 1.677.163 2.5.328.433.087.878.294 1.235.559.461.343.404.957-.081 1.277-.237.159-.534.251-.817.307-1.048.209-2.102.389-3.388.623z" fill="#f5a91b"/><path d="m-21.385-41.36c.196.04.432.121.671.132 1.36.064 1.818-.233 2.317-1.563.218-.586.653-.747 1.196-.719 1.595.082 3.189.174 4.783.289.24.017.49.139.704.266.85.502 1.755.526 2.712.381.134-.387.265-.765.398-1.154 1.286-.053 2.398.231 3.404.934.588.41 1.176.829 1.8 1.178.955.535 1.935 1.02 3.095.887.867-.098 1.741-.155 2.607-.253.181-.022.35-.146.656-.28-.277-.215-.417-.364-.589-.449-1.032-.511-2.123-.818-3.277-.854-.829-.025-1.543-.28-2.211-.793-.527-.406-1.121-.803-1.749-.98-1.208-.338-2.461-.513-3.695-.764-.491-.099-.999-.167-1.463-.342-1.775-.674-3.6-1.136-5.472-1.419-.704-.107-1.437-.256-2.129-.169-2.173.274-4.34.239-6.532.154.577.24 1.193.355 1.761.586.491.198.986.467 1.377.818.446.402.265.81-.231 1.136-.628-.537-1.186-.409-1.848.122.643.358 1.385.533 1.655.988.268.455.06 1.188.06 1.868z" fill="#f5a91b"/></g><path d="m0 4.746c1.351.109 2.594-.305 3.809-.789 1.028-.41 1.222-1.613.413-2.352-.245-.223-.546-.393-.84-.553-1.62-.88-3.467-.426-5.164-.863-.036-.009-.083.012-.123.026-.873.301-1.758.575-2.616.916-.572.226-.977.618-.994 1.322-.013.669.401.975.895 1.249 1.441.796 3.016 1.003 4.62 1.044z" fill="#d20020" transform="matrix(4.16667 0 0 4.16667 1817.72 1729.29)"/><path d="m0-1.495c.577.133 1.003.3 1.434.315 1.03.039 1.872.411 2.545 1.188.249.285.515.559.802.804.898.764 1.91.999 3.031.564.686-.267.877-.756.526-1.392-.135-.245-.358-.493-.602-.616-.633-.318-1.289-.609-1.962-.837-.789-.266-1.677-.323-2.393-.708-.863-.465-1.717-.575-2.655-.557-.204.346-.391.667-.726 1.239z" fill="#d20020" transform="matrix(4.16667 0 0 4.16667 1778.77 1765.67)"/><path d="m1825 1794.65c.5-8.11 4.05-11.32 11.53-10.37 3.26.41 6.73 1.18 9.52 2.79 9.08 5.25 19.18 6.44 29.17 8.25.64.11 1.41-.06 2.04-.32 4.71-1.9 9.42-3.81 14.07-5.83 1.6-.69 2.51-2.07 3.57-3.54 3.36-4.64 6.64-9.31 13.56-9.62 7.69-.34 13.98-4.29 19.08-10 3.46-3.87 7.58-6.17 12.88-6.09 1.04.02 2.12-.13 3.14-.37 2.23-.53 3.05-1.83 2.06-3.87-3.23-6.64-7.82-11.98-14.61-15.35-8.22-4.08-17.13-4.91-26.01-5.92-1.31-.14-2.74.32-4.06.72-4.55 1.38-9.13 2.46-13.96 2.3-2.63-.09-5.28.34-7.92.38-8.47.14-16.77-.36-24.34-4.99-6.72-4.11-8.12-7.16-5.93-14.85.09-.31-.09-.67-.11-.81-3.9-2.61-7.68-5.16-11.48-7.67-2.61-1.74-5.12-3.72-7.91-5.14-10.65-5.38-22.31-7.31-33.91-9.23-6.74-1.1-13.75-.86-20.35-2.44-6.62-1.58-13.72-.56-19.97-3.91-.7-.38-1.73-.16-2.61-.17-2.02-.01-4.03 0-6.11 0-.44.78-.87 1.54-1.28 2.31-2.4 4.58-2.18 9.56-2.04 14.47.11 3.97-.76 7.45-2.65 11.06-1.9 3.65-2.68 7.94-3.64 12.02-.59 2.53.14 4.75 2.6 6.37 1.4.92 2.37 2.53 3.48 3.88.98 1.19 1.84 2.01 3.61 2.51 3.31.93 6.51 2.66 9.43 4.57 4.71 3.08 5.46 8.18 2.25 12.83-.59.85-1.35 1.58-1.87 2.19 3.11 6.74 6.1 13.23 8.81 19.13 4.34-.1 8.04-.7 11.58-.17 8.9 1.3 16.86 4.55 22.21 12.48.99 1.48 2.78 2.65 4.45 3.41 5.01 2.28 10.32 1.59 15.53.91 2.18-.27 4.27-1.3 6.19-1.92zm-17.6-19.3c-4.55-.03-8.77-1.24-11.69-4.9-3.58-4.48-8.29-6.09-13.74-6.56-3.8-.32-6.26-3.37-5.82-6.68.6-4.37 3.92-7.65 7.72-7.05 3.27.5 6.45 1.61 9.63 2.6 1.97.62 3.81 1.98 5.8 2.17 4.73.44 8.52 2.98 12.58 4.94.78.36 1.52.88 2.16 1.47 2.89 2.63 4.91 6.03 3.88 9.79-.95 3.49-4.95 3.34-7.89 4.19-.81.24-1.75.03-2.63.03zm9.48-23.25c-7.03.29-13.54-1.67-19.83-4.55-1.26-.57-2.32-1.57-3.47-2.36-3.75-2.55-4.35-8.32.66-12.03 1.4-1.04 2.9-2.11 4.54-2.67 7.31-2.52 14.76-4.53 22.6-4.5 1.2.01 2.53.08 3.59.59 4.09 1.96 8.17 3.98 12.11 6.25 2.92 1.68 4.67 4.39 4.2 7.9-.45 3.4-1.64 6.1-5.42 7.63-6.16 2.51-12.47 3.48-18.98 3.74zm-42-28.86c-4.01-1.1-8.07-2.06-12.03-3.34-2.51-.82-3.86-2.68-3.97-5.56-.11-2.94 1.88-3.9 3.86-5.02 1.37-.77 2.76-1.49 4.15-2.23 3.34-1.76 17.58.01 19.99 2.78 3.4 3.9 3.57 8.25-1.74 10.53-3.23 1.4-6.45 2.79-10.26 2.84z" fill="#ffc61d"/><path d="m0-.161c.371.784.388.824.862.981.963.319 1.961.33 2.96.279.285-.015.576-.113.848-.216.452-.172.841-.447.81-.991-.025-.47-.356-.747-.785-.876-.277-.083-.571-.132-.86-.145-.502-.023-1.005.013-1.508-.013-.944-.048-1.695.322-2.327.981z" fill="#d20020" transform="matrix(4.16667 0 0 4.16667 1762.39 1714.62)"/><path d="m1769.4 1681.66c7.15 2.61 13.27 2.9 19.62 1.25 2.81-.74 6.04-1.14 8.82-.53 9.69 2.13 19.25.81 28.79-.54 3.95-.57 7.06-.14 10.22 2.53 5.29 4.5 11.23 6.21 18.55 5.1 8.25-1.25 16.67-.67 25.05 1.05 9.77 2 19.68 3.24 29.83 1.9 6.19-.81 12.65-1.38 18.78.99 3.77 1.46 7.43 3.2 11.22 4.61 1.95.71 4.05 1.25 6.11 1.36 4.65.24 9.3-1.31 13.99-.17.21.05.52-.32.87-.57-2.89-9.88-9.44-16.28-19.39-20.5-.04-.09-.7-.92-.65-1.7.27-4.06-2.2-6.47-4.94-8.78-1.08-.91-2.03-1.96-3.13-2.84-5.09-4.07-10.4-7.64-16.97-9.05-4.23-.9-7.98-3.01-9.98-7.11-1.66-3.43-2.09-3.59-6.8-3.21-.86.08-1.69.46-2.52.74-9.4 3.1-18.92 4.85-28.96 4.63-5.1-.12-10.26 1.85-15.38 3.01-2.17.49-3.51 1.72-4 4.23-.28 1.46-1.78 3.21-3.18 3.83-8.32 3.63-16.96 5.64-26.13 4.14-1.35-.22-2.78-.29-4.11-.07-5.01.83-10.04 1.66-14.99 2.82-2.32.54-4.61 1.62-6.67 2.87-3.76 2.27-7.35 4.73-11.71 5.88-3.86 1.01-7.59 2.52-12.34 4.13zm127.63 5.34c-6.63-.62-11.7-1.01-16.75-1.62-1.71-.21-3.43-.78-5.02-1.48-3.41-1.49-6.18-3.8-5.99-7.85.21-4.32 2.24-8 6.54-9.35 7.52-2.35 15.22-4.13 23.19-4.29 1.21-.02 2.75-.18 3.58.46 3.98 3.02 8.91 2.99 13.33 4.53 4.75 1.66 7.32 5.43 6.87 10.39-.21 2.15-1.25 3.66-3.13 4.53-1.75.8-3.54 1.73-5.4 2.05-6.21 1.08-12.45 1.92-17.22 2.63z" fill="#ffc61d"/><path d="m0 4.508c1.372-.032 2.707-.169 4.008-.606.763-.257 1.6-.429 1.713-1.434.091-.807-.442-1.419-1.641-1.789-2.429-.751-4.895-.862-7.352-.168-.632.177-1.269.503-1.775.918-.906.744-.781 1.688.232 2.243.365.201.771.381 1.177.438 1.208.168 2.425.27 3.638.398z" fill="#d20020" transform="matrix(4.16667 0 0 4.16667 1895.8 1665.22)"/><path d="m0-2.11c-.033-.087-.067-.174-.101-.262-.275-.071-.548-.194-.828-.206-1.045-.043-2.092-.081-3.137-.06-.6.012-1.157.179-1.455.817-.206.439-.574.525-1.059.409-.689-.166-1.399-.24-2.098-.364-.764-.134-1.83.485-2.307 1.381.476.303.944.156 1.434.038.305-.074.648-.059.965-.019.783.099 1.56.257 2.344.347.582.067 1.204-.04 1.756.114 1.081.304 1.979.008 2.909-.597-.084-1.053.38-1.665 1.577-1.598z" fill="#d20020" transform="matrix(4.16667 0 0 4.16667 1629.54 1704.64)"/></g><g transform="translate(-1471.23524 -1163.917285)"><path d="m2021.11 1480.09c-2.19 2.26-7.79 4.74-10.34 10.91-4.46 3.07-8.76 6.03-13.09 9.4s-9.05 5.28-13.35 8.53c-6.99 5.27-12.51 12.55-19.39 18.2-5.32 4.38-11.77 7.33-17.13 11.49-8.93 6.93-15.21 14.3-23.43 20.31-4.22 3.09-7.77 5.67-12.19 7.73-3.88 1.81-8.6 2.11-13.18 4.29-7.1 3.4-11.52 11.53-18.96 14.83-12.76-4.13-9.05-18.02-9.03-29.49 0-4.32-.71-8.42.18-12.16 1.06-4.43 4.12-8.22 5.04-13.1 1.76-9.34-3.25-20.93-.95-33.71.55-3.06 1.89-5.51 2.3-8.12.38-2.42-.06-4.62.28-7.06 1.66-12.14 9.93-22.34 10.4-34.67.16-4.12-1.59-7.38-1.83-11.11-.59-9.14 3.42-26.11 10.6-32.41-8.18 3.59-10.31-6-5.76-11.82-2.89-2.18-6.08-7.27-7.48-11.32 17.34-20.3 53.91-20.23 87.1-6.23 12.96 5.47 26.17 14.67 38.16 22.43 20.38 13.18 36.07 33.58 40.81 49.12 1.46 4.8 3.3 16.25 1.14 21.55-4.34 10.61-13.55 12.2-20.99 15.87-3.35-2.46-5.77-1.68-8.91-3.46z" fill="#eb8000"/><path d="m2000.74 1443.65c-8.62-7.13-21.99-8.96-27.84-18.91-.94-1.59-.62-3.75-2.05-5.46-8.91-10.66-22.63-5.08-32.4-10.6-4.38-2.47-5.94-7.04-9.56-8.86-7.35-3.69-24.43.65-29.02 4.24-8.04 6.28-12.54 24.84-11.47 32.66.44 3.17 3.02 4.68 3.97 7.23.48 1.28-.57 2.9-.17 4.24.37 1.21 1.9 2.2 2.41 3.48 5.23 13.12-.13 26.05-12.73 36.28-.55 4.31-3.34 6.57-4.37 10.59-2.6 10.08 2.69 23.28 1.3 31.74-1.02 6.23-5.29 11.86-6.36 18.14-.92 5.43.24 12.42.45 17.56.22 5.66-.6 13.87 6.15 16.36 5.81-1.36 8.48-6.92 12.85-10.25 6.28-4.79 14.32-5.49 20.41-8.25 4.57-2.09 8.1-5.4 12.79-8.84 7.94-5.83 16.18-13.56 25.69-20.93 5.44-4.22 16.71-15.02 25.8-22 5.41-4.14 9.46-9.92 15.63-9.62 9.06-6.74 17.48-15.66 26.11-23.88-7.53-14.7-6.66-25.88-17.59-34.92zm-88.14 61.92c1.1 1.83 11.37 6.14 14.1 8.47 9.02 7.7 5.5 22.34-4.29 30.1-6.1 4.84-17.17 6.93-26.09 1.53-20.01-12.13-4.73-41.85 13.2-41.07 1.26.05 1.45.24 3.08.97zm10.96-5.52c.97-5.88 5.2-7.36 8.69-6.46 3.5.89 6.25 4.17 4.28 7.81-2.27 4.19-9.98 2.63-12.97-1.35zm-20.72-5.62c1.34 5.66-3.26 7.71-6.84 7.07-3.59-.64-6.14-3.96-.72-9.06 2.57.8 4.69.11 7.56 1.99zm67.41-1.89c-19.44-.52-22.86-24.26-6.15-30.8 8.7-3.41 21.27 8.31 20.28 16.92-.85 7.36-7.66 11.1-14.13 13.88zm-22.62-7.39c.7 3.56-1.55 5.65-4.25 6.22-2.69.56-5.84-.41-6.91-2.98 2.64-4.8 6.03-6.99 11.16-3.24zm-25.62-3.27c-1.15-3.45 1.65-5.64 3.77-9.47 6.17-1.01 13.1 1.11 10.16 7.75-2.05 4.62-7.47 6.45-13.93 1.72zm30.1-24.57c-14.89 14.96-48.04-6.04-35.48-26 2.8-4.45 11.62-9.46 17.88-8.92 3.66.32 11.01 3.55 13.35 5.9.4.39-.92.96-.35 1.97.99 1.76 5.81 5.14 6.53 6.47 3.2 5.95.93 13.05-1.93 20.58z" fill="#ffc61d"/><path d="m38.373-3.776c-1.211-3.67-4.675-7.901-9.052-10.807-2.62-1.739-5.782-3.909-8.814-5.179-4.813-2.015-10.357-2.584-14.174-1.794-1.833.379-3.767 1.176-4.822 3.014.3.736.977 1.364 1.356 2.078 1.134-1.024 2.39-1.453 3.966-1.152.973.186 1.7.729 2.654.626 2.455-.267 5.749-2.912 8.609.401.485.561.265 1.456.832 2.123 1.739 2.049 4.22 1.213 6.447 2.212.39.588.502 1.432.845 1.797.158.168 1.187.889 1.465.971.605.182 1.25-.353 1.899-.121.696.248 1.041 1.054 1.708 1.439-.555 1.562.216 3.468 1.677 3.92.544.169 1.176-.493 1.842-.321 1.208.315 1.641 1.022 1.612 2.22-.433.485-.94.713-1.413 1.056 1.011 1.353 1.651 2.816 1.92 4.387 2.684-1.574 2.133-4.78 1.443-6.87z" fill="#ffc61d" transform="matrix(4.33013 0 0 4.33013 1880.33 1462.07)"/><g fill="#d20020"><path d="m0 5.116c1.395-.588 2.526-2.084 3.034-3.669.507-1.586.393-3.261-.701-4.211-.865 2.797-2.169 5.194-2.333 7.88z" transform="matrix(4.33013 0 0 4.33013 1880.33 1462.07)"/><path d="m0-8.822c-.125.047-1.171.723-1.413 1.056-2.838 3.909 4.268 8.452 7.113 5.243 1.749-1.974.889-4.791-2.31-6.102-1.128-.462-2.721-.45-3.39-.197z" transform="matrix(4.33013 0 0 4.33013 1924.96 1466.16)"/><path d="m0-.187c-.083 2.83 5.141 4.415 6.301.965.448-1.335-.728-3.198-2.144-3.677-1.855-.628-4.095.618-4.157 2.712z" transform="matrix(4.33013 0 0 4.33013 1954.47 1477.45)"/><path d="m0 5.604c1.101-.861 2.409-2.883 2.007-4.561-.595-2.48-5.095-4.122-7.202-2.96-5.954 4.613.884 10.891 5.195 7.521z" transform="matrix(4.33013 0 0 4.33013 1921.05 1518.41)"/><path d="m0 .508c.531-.977-.677-1.924-1.593-1.042.027-.115.136-.254.013-.326-2.348 1.498.881 2.655 1.58 1.368z" transform="matrix(4.33013 0 0 4.33013 1934.53 1477.91)"/><path d="m0-.802c.177.128-.053.374-.153.582.544.395.89.107 1.189-.346-.258-.298-.674-.492-1.036-.236z" transform="matrix(4.33013 0 0 4.33013 1940.82 1489.2)"/><path d="m0 1.09c.19.271.549.424.917.458.367.034.744-.05.97-.254.123-1.254-1.302-1.355-1.887-.204z" transform="matrix(4.33013 0 0 4.33013 1926.14 1494.58)"/><path d="m0 .052c.317.106.606.111.861.005.256-.106.479-.324.667-.664-.406-.689-1.532.005-1.528.659z" transform="matrix(4.33013 0 0 4.33013 1894.46 1498.97)"/></g></g><g fill-rule="nonzero"><path d="m.093 0v-.723h.197c.087 0 .15.015.188.045.038.029.057.077.057.145 0 .077-.026.137-.078.18-.052.044-.124.066-.217.066h-.045v.287zm.102-.365h.041c.061 0 .108-.014.141-.042.034-.028.05-.067.05-.118 0-.044-.013-.075-.039-.093-.026-.019-.069-.028-.13-.028h-.063z" fill="#d20020" transform="matrix(73.769225682 0 0 73.769225682 40.60537435 106.25934874)"/><path d="m.096 0v-.53h.096v.53zm0-.626v-.097h.096v.097z" fill="#d20020" transform="matrix(73.769225682 0 0 73.769225682 80.96373997 106.25934874)"/><path d="m.06 0v-.072l.328-.386h-.313v-.072h.432v.072l-.328.386h.334v.072z" fill="#d20020" transform="matrix(73.769225682 0 0 73.769225682 101.8762567 106.25934874)"/><path d="m.06 0v-.072l.328-.386h-.313v-.072h.432v.072l-.328.386h.334v.072z" fill="#d20020" transform="matrix(73.769225682 0 0 73.769225682 143.7512902 106.25934874)"/><path d="m.485-.017c-.065.019-.12.029-.166.029-.078 0-.142-.026-.191-.078s-.074-.119-.074-.202c0-.08.022-.146.065-.197.044-.052.099-.077.167-.077.064 0 .114.022.149.068.035.045.052.11.052.194v.03h-.335c.014.126.076.189.185.189.04 0 .09-.011.148-.032zm-.328-.305h.234c0-.099-.037-.148-.111-.148s-.115.049-.123.148z" fill="#d20020" transform="matrix(73.769225682 0 0 73.769225682 185.62215703 106.25934874)"/><path d="m.096 0v-.53h.096v.099c.038-.074.094-.111.166-.111.01 0 .02.001.031.002v.09c-.016-.005-.031-.008-.044-.008-.061 0-.112.036-.153.108v.35z" fill="#d20020" transform="matrix(73.769225682 0 0 73.769225682 226.30968958 106.25934874)"/><path d="m.096 0v-.53h.096v.53zm-.022-.626.118-.157h.111l-.157.157z" fill="#d20020" transform="matrix(73.769225682 0 0 73.769225682 256.08054673 106.25934874)"/><path d="m.37-.067c-.058.053-.113.079-.167.079-.044 0-.08-.014-.109-.041-.029-.028-.044-.062-.044-.104 0-.058.025-.103.073-.134.049-.031.119-.046.21-.046h.022v-.064c0-.062-.031-.093-.094-.093-.051 0-.106.016-.165.047v-.079c.065-.027.126-.04.182-.04.06 0 .103.013.131.04.029.027.043.068.043.125v.24c0 .055.017.082.05.082.005 0 .011 0 .019-.002l.007.054c-.022.01-.046.015-.072.015-.045 0-.074-.026-.086-.079zm-.015-.053v-.137l-.032-.001c-.052 0-.095.01-.128.03-.032.02-.049.047-.049.079 0 .023.009.043.025.059s.036.024.059.024c.041 0 .082-.018.125-.054z" fill="#d20020" transform="matrix(73.769225682 0 0 73.769225682 276.98889679 106.25934874)"/><path d="m.093 0v-.723h.404v.077h-.301v.232h.252v.076h-.252v.261h.322v.077z" fill="#d20020" transform="matrix(73.769225682 0 0 73.769225682 40.92204127 172.33023493)"/><path d="m88.98308638547 115.45416192918h7.08184566547v56.87607300082h-7.08184566547z" fill="#d20020" stroke-width="73.769225682"/><path d="m.437.193v-.293c-.04.075-.098.112-.177.112-.064 0-.114-.023-.151-.07-.036-.046-.055-.11-.055-.191 0-.088.021-.159.062-.212.042-.054.097-.081.164-.081.063 0 .115.024.157.072v-.06h.096v.723zm0-.597c-.05-.044-.097-.066-.142-.066-.092 0-.138.071-.138.212 0 .124.041.186.123.186.053 0 .105-.029.157-.088z" fill="#d20020" transform="matrix(73.769225682 0 0 73.769225682 121.6262725 172.33023493)"/><path d="m.428 0v-.1c-.051.075-.113.112-.186.112-.047 0-.083-.014-.111-.043-.027-.03-.041-.069-.041-.118v-.381h.097v.349c0 .04.005.068.017.085.011.017.031.025.058.025.058 0 .114-.038.166-.116v-.343h.096v.53z" fill="#d20020" transform="matrix(73.769225682 0 0 73.769225682 169.05131044 172.33023493)"/><path d="m.485-.017c-.065.019-.12.029-.166.029-.078 0-.142-.026-.191-.078s-.074-.119-.074-.202c0-.08.022-.146.065-.197.044-.052.099-.077.167-.077.064 0 .114.022.149.068.035.045.052.11.052.194v.03h-.335c.014.126.076.189.185.189.04 0 .09-.011.148-.032zm-.328-.305h.234c0-.099-.037-.148-.111-.148s-.115.049-.123.148z" fill="#d20020" transform="matrix(73.769225682 0 0 73.769225682 215.82634786 172.33023493)"/><path d="m.237.012c-.044 0-.098-.01-.16-.031v-.088c.062.031.117.047.164.047.027 0 .05-.008.069-.023.018-.014.027-.033.027-.056 0-.033-.026-.06-.077-.081l-.056-.024c-.083-.035-.124-.084-.124-.149 0-.046.016-.083.049-.109.032-.027.077-.04.134-.04.03 0 .066.004.11.012l.02.004v.08c-.054-.016-.096-.024-.128-.024-.062 0-.093.023-.093.068 0 .029.024.053.071.073l.046.019c.052.023.09.046.111.07.022.025.033.056.033.093 0 .046-.018.084-.055.114-.037.03-.084.045-.141.045z" fill="#d20020" transform="matrix(73.769225682 0 0 73.769225682 257.9180482 172.33023493)"/><path d="m.096 0v-.53h.096v.53zm0-.626v-.097h.096v.097z" fill="#d20020" transform="matrix(73.769225682 0 0 73.769225682 296.51807908 172.33023493)"/><path d="m.255.012c-.048 0-.087-.014-.114-.042s-.041-.067-.041-.116v-.312h-.066v-.072h.066v-.096l.096-.01v.106h.139v.072h-.139v.294c0 .069.03.104.09.104.013 0 .028-.002.047-.006v.066c-.03.008-.056.012-.078.012z" fill="#d20020" transform="matrix(73.769225682 0 0 73.769225682 318.83893027 172.33023493)"/><path d="m.304.012c-.076 0-.137-.025-.182-.075-.045-.051-.068-.118-.068-.202 0-.085.023-.153.068-.203.046-.049.107-.074.185-.074s.14.025.185.074c.045.05.068.117.068.202 0 .086-.023.155-.068.204-.046.049-.109.074-.188.074zm.001-.072c.102 0 .153-.069.153-.206 0-.136-.05-.204-.151-.204-.1 0-.15.068-.15.205s.049.205.148.205z" fill="#d20020" transform="matrix(73.769225682 0 0 73.769225682 347.42228647 172.33023493)"/><path d="m.211-.458v.458h-.097v-.458h-.075v-.072h.075v-.064c0-.126.058-.189.173-.189.032 0 .069.005.11.016v.076c-.043-.013-.078-.02-.104-.02-.032 0-.053.008-.065.023-.011.015-.017.043-.017.084v.074h.132v.072z" fill="#d20020" transform="matrix(73.769225682 0 0 73.769225682 405.07233259 172.33023493)"/><path d="m.485-.017c-.065.019-.12.029-.166.029-.078 0-.142-.026-.191-.078s-.074-.119-.074-.202c0-.08.022-.146.065-.197.044-.052.099-.077.167-.077.064 0 .114.022.149.068.035.045.052.11.052.194v.03h-.335c.014.126.076.189.185.189.04 0 .09-.011.148-.032zm-.328-.305h.234c0-.099-.037-.148-.111-.148s-.115.049-.123.148z" fill="#d20020" transform="matrix(73.769225682 0 0 73.769225682 433.18902175 172.33023493)"/><path d="m482.36256775547 115.45416192918h7.08184566547v56.87607300082h-7.08184566547z" fill="#d20020" stroke-width="73.769225682"/><path d="m.096 0v-.53h.096v.53zm0-.626v-.097h.096v.097z" fill="#d20020" transform="matrix(73.769225682 0 0 73.769225682 497.59740661 172.33023493)"/><path d="m.06 0v-.072l.328-.386h-.313v-.072h.432v.072l-.328.386h.334v.072z" fill="#d20020" transform="matrix(73.769225682 0 0 73.769225682 519.9182578 172.33023493)"/><path d="m.09 0v-.723h.252c.088 0 .151.015.189.045.037.029.056.078.056.147 0 .078-.025.139-.076.183-.05.043-.12.065-.211.065h-.062v.283zm.148-.382h.029c.052 0 .092-.012.122-.036s.045-.057.045-.098c0-.072-.046-.108-.138-.108h-.058z" fill="#fff" stroke="#d20020" stroke-linejoin="round" stroke-miterlimit="2" stroke-width=".03" transform="matrix(38.557530846 0 0 38.557530846 38.63870611 715.96400317)"/><path d="m.527-.018c-.069.02-.134.03-.195.03-.09 0-.161-.025-.212-.076-.052-.051-.078-.12-.078-.208 0-.083.024-.15.071-.2.047-.051.11-.076.188-.076s.136.024.172.074c.036.049.054.128.054.235h-.333c.01.102.066.153.169.153.048 0 .103-.011.164-.034zm-.335-.303h.193c0-.091-.03-.137-.089-.137-.06 0-.094.046-.104.137z" fill="#fff" stroke="#d20020" stroke-linejoin="round" stroke-miterlimit="2" stroke-width=".03" transform="matrix(38.557530846 0 0 38.557530846 58.28455516 715.96400317)"/><path d="m.428 0v-.101c-.037.075-.096.113-.176.113-.064 0-.115-.023-.151-.071-.037-.047-.056-.112-.056-.194 0-.09.021-.162.063-.215.041-.054.097-.08.167-.08.056 0 .107.022.153.066v-.289h.145v.771zm0-.396c-.035-.039-.072-.059-.112-.059-.036 0-.064.017-.085.052-.021.034-.032.08-.032.137 0 .11.035.165.106.165.043 0 .084-.028.123-.083z" fill="#fff" stroke="#d20020" stroke-linejoin="round" stroke-miterlimit="2" stroke-width=".03" transform="matrix(38.557530846 0 0 38.557530846 76.8762367 715.96400317)"/><path d="m.09 0v-.536h.145v.536zm0-.626v-.121h.145v.121z" fill="#fff" stroke="#d20020" stroke-linejoin="round" stroke-miterlimit="2" stroke-width=".03" transform="matrix(38.557530846 0 0 38.557530846 98.42208727 715.96400317)"/><path d="m.428 0v-.101c-.037.075-.096.113-.176.113-.064 0-.115-.023-.151-.071-.037-.047-.056-.112-.056-.194 0-.09.021-.162.063-.215.041-.054.097-.08.167-.08.056 0 .107.022.153.066v-.289h.145v.771zm0-.396c-.035-.039-.072-.059-.112-.059-.036 0-.064.017-.085.052-.021.034-.032.08-.032.137 0 .11.035.165.106.165.043 0 .084-.028.123-.083z" fill="#fff" stroke="#d20020" stroke-linejoin="round" stroke-miterlimit="2" stroke-width=".03" transform="matrix(38.557530846 0 0 38.557530846 106.9595941 715.96400317)"/><path d="m.315.012c-.083 0-.15-.025-.199-.076-.049-.05-.074-.118-.074-.204 0-.087.025-.155.074-.205.05-.05.118-.075.203-.075s.153.025.203.075c.049.05.074.118.074.204 0 .088-.025.157-.075.206-.049.05-.118.075-.206.075zm.003-.09c.083 0 .124-.064.124-.191 0-.058-.011-.104-.033-.138s-.052-.051-.09-.051-.068.017-.09.051-.033.08-.033.139c0 .058.011.104.033.139.021.034.051.051.089.051z" fill="#fff" stroke="#d20020" stroke-linejoin="round" stroke-miterlimit="2" stroke-width=".03" transform="matrix(38.557530846 0 0 38.557530846 128.50961134 715.96400317)"/><path d="m.076-.017v-.106c.072.03.133.045.184.045.059 0 .089-.02.089-.061 0-.026-.025-.049-.074-.068l-.048-.02c-.053-.021-.091-.044-.114-.069s-.034-.055-.034-.092c0-.05.019-.09.058-.118.038-.028.093-.042.162-.042.044 0 .096.006.156.019v.101c-.058-.02-.106-.03-.144-.03-.06 0-.09.019-.09.056 0 .024.022.045.067.062l.042.016c.062.024.106.048.131.072.024.024.037.056.037.094 0 .051-.021.092-.063.123-.042.032-.096.047-.164.047-.064 0-.129-.01-.195-.029z" fill="#fff" stroke="#d20020" stroke-linejoin="round" stroke-miterlimit="2" stroke-width=".03" transform="matrix(38.557530846 0 0 38.557530846 149.13462784 715.96400317)"/><path d="m.353-.058c-.048.047-.1.07-.155.07-.047 0-.085-.014-.114-.043-.029-.028-.044-.066-.044-.111 0-.059.024-.105.071-.137s.115-.048.203-.048h.039v-.049c0-.056-.032-.083-.095-.083-.057 0-.113.015-.171.047v-.099c.065-.025.13-.037.194-.037.141 0 .211.055.211.167v.237c0 .042.013.063.04.063.005 0 .011 0 .019-.002l.004.082c-.031.009-.058.013-.081.013-.06 0-.098-.023-.115-.07zm0-.077v-.109h-.034c-.094 0-.14.029-.14.088 0 .02.006.036.02.05.013.013.03.02.05.02.034 0 .069-.016.104-.049z" fill="#fff" stroke="#d20020" stroke-linejoin="round" stroke-miterlimit="2" stroke-width=".03" transform="matrix(38.557530846 0 0 38.557530846 175.64298238 715.96400317)"/><path d="m197.77984175614 686.23614688773h5.59084197267v29.72785628227h-5.59084197267z" fill="#fff" stroke="#d20020" stroke-linejoin="round" stroke-miterlimit="2" stroke-width="1.15672592538"/><path d="m.051 0v-.145h.145v.145zm0-.392v-.144h.145v.144z" fill="#fff" stroke="#d20020" stroke-linejoin="round" stroke-miterlimit="2" stroke-width=".03" transform="matrix(38.557530846 0 0 38.557530846 202.84717081 715.96400317)"/><path d="m.099-.005v-.109c.071.028.13.042.177.042.043 0 .078-.011.104-.033.026-.023.039-.052.039-.089 0-.095-.069-.143-.209-.143h-.044v-.086l.037-.001c.131 0 .196-.043.196-.128 0-.066-.04-.098-.121-.098-.053 0-.109.013-.17.04v-.098c.064-.022.131-.033.201-.033.075 0 .133.015.175.046.042.03.063.073.063.127 0 .085-.053.145-.159.18.121.028.182.093.182.196 0 .064-.024.116-.073.153-.049.038-.115.057-.199.057-.071 0-.138-.008-.199-.023z" fill="#fff" stroke="#d20020" stroke-linejoin="round" stroke-miterlimit="2" stroke-width=".03" transform="matrix(38.557530846 0 0 38.557530846 38.63870611 762.23070685)"/><path d="m.099-.005v-.109c.071.028.13.042.177.042.043 0 .078-.011.104-.033.026-.023.039-.052.039-.089 0-.095-.069-.143-.209-.143h-.044v-.086l.037-.001c.131 0 .196-.043.196-.128 0-.066-.04-.098-.121-.098-.053 0-.109.013-.17.04v-.098c.064-.022.131-.033.201-.033.075 0 .133.015.175.046.042.03.063.073.063.127 0 .085-.053.145-.159.18.121.028.182.093.182.196 0 .064-.024.116-.073.153-.049.038-.115.057-.199.057-.071 0-.138-.008-.199-.023z" fill="#fff" stroke="#d20020" stroke-linejoin="round" stroke-miterlimit="2" stroke-width=".03" transform="matrix(38.557530846 0 0 38.557530846 58.4178886 762.23070685)"/><path d="m.099-.005v-.109c.071.028.13.042.177.042.043 0 .078-.011.104-.033.026-.023.039-.052.039-.089 0-.095-.069-.143-.209-.143h-.044v-.086l.037-.001c.131 0 .196-.043.196-.128 0-.066-.04-.098-.121-.098-.053 0-.109.013-.17.04v-.098c.064-.022.131-.033.201-.033.075 0 .133.015.175.046.042.03.063.073.063.127 0 .085-.053.145-.159.18.121.028.182.093.182.196 0 .064-.024.116-.073.153-.049.038-.115.057-.199.057-.071 0-.138-.008-.199-.023z" fill="#fff" stroke="#d20020" stroke-linejoin="round" stroke-miterlimit="2" stroke-width=".03" transform="matrix(38.557530846 0 0 38.557530846 78.19707109 762.23070685)"/><path d="m.099-.005v-.109c.071.028.13.042.177.042.043 0 .078-.011.104-.033.026-.023.039-.052.039-.089 0-.095-.069-.143-.209-.143h-.044v-.086l.037-.001c.131 0 .196-.043.196-.128 0-.066-.04-.098-.121-.098-.053 0-.109.013-.17.04v-.098c.064-.022.131-.033.201-.033.075 0 .133.015.175.046.042.03.063.073.063.127 0 .085-.053.145-.159.18.121.028.182.093.182.196 0 .064-.024.116-.073.153-.049.038-.115.057-.199.057-.071 0-.138-.008-.199-.023z" fill="#fff" stroke="#d20020" stroke-linejoin="round" stroke-miterlimit="2" stroke-width=".03" transform="matrix(38.557530846 0 0 38.557530846 105.03042589 762.23070685)"/><path d="m.099-.005v-.109c.071.028.13.042.177.042.043 0 .078-.011.104-.033.026-.023.039-.052.039-.089 0-.095-.069-.143-.209-.143h-.044v-.086l.037-.001c.131 0 .196-.043.196-.128 0-.066-.04-.098-.121-.098-.053 0-.109.013-.17.04v-.098c.064-.022.131-.033.201-.033.075 0 .133.015.175.046.042.03.063.073.063.127 0 .085-.053.145-.159.18.121.028.182.093.182.196 0 .064-.024.116-.073.153-.049.038-.115.057-.199.057-.071 0-.138-.008-.199-.023z" fill="#fff" stroke="#d20020" stroke-linejoin="round" stroke-miterlimit="2" stroke-width=".03" transform="matrix(38.557530846 0 0 38.557530846 124.80960838 762.23070685)"/><path d="m.099-.005v-.109c.071.028.13.042.177.042.043 0 .078-.011.104-.033.026-.023.039-.052.039-.089 0-.095-.069-.143-.209-.143h-.044v-.086l.037-.001c.131 0 .196-.043.196-.128 0-.066-.04-.098-.121-.098-.053 0-.109.013-.17.04v-.098c.064-.022.131-.033.201-.033.075 0 .133.015.175.046.042.03.063.073.063.127 0 .085-.053.145-.159.18.121.028.182.093.182.196 0 .064-.024.116-.073.153-.049.038-.115.057-.199.057-.071 0-.138-.008-.199-.023z" fill="#fff" stroke="#d20020" stroke-linejoin="round" stroke-miterlimit="2" stroke-width=".03" transform="matrix(38.557530846 0 0 38.557530846 144.58879087 762.23070685)"/><path d="m.099-.005v-.109c.071.028.13.042.177.042.043 0 .078-.011.104-.033.026-.023.039-.052.039-.089 0-.095-.069-.143-.209-.143h-.044v-.086l.037-.001c.131 0 .196-.043.196-.128 0-.066-.04-.098-.121-.098-.053 0-.109.013-.17.04v-.098c.064-.022.131-.033.201-.033.075 0 .133.015.175.046.042.03.063.073.063.127 0 .085-.053.145-.159.18.121.028.182.093.182.196 0 .064-.024.116-.073.153-.049.038-.115.057-.199.057-.071 0-.138-.008-.199-.023z" fill="#fff" stroke="#d20020" stroke-linejoin="round" stroke-miterlimit="2" stroke-width=".03" transform="matrix(38.557530846 0 0 38.557530846 173.66381413 762.23070685)"/><path d="m.099-.005v-.109c.071.028.13.042.177.042.043 0 .078-.011.104-.033.026-.023.039-.052.039-.089 0-.095-.069-.143-.209-.143h-.044v-.086l.037-.001c.131 0 .196-.043.196-.128 0-.066-.04-.098-.121-.098-.053 0-.109.013-.17.04v-.098c.064-.022.131-.033.201-.033.075 0 .133.015.175.046.042.03.063.073.063.127 0 .085-.053.145-.159.18.121.028.182.093.182.196 0 .064-.024.116-.073.153-.049.038-.115.057-.199.057-.071 0-.138-.008-.199-.023z" fill="#fff" stroke="#d20020" stroke-linejoin="round" stroke-miterlimit="2" stroke-width=".03" transform="matrix(38.557530846 0 0 38.557530846 193.44716329 762.23070685)"/><path d="m.099-.005v-.109c.071.028.13.042.177.042.043 0 .078-.011.104-.033.026-.023.039-.052.039-.089 0-.095-.069-.143-.209-.143h-.044v-.086l.037-.001c.131 0 .196-.043.196-.128 0-.066-.04-.098-.121-.098-.053 0-.109.013-.17.04v-.098c.064-.022.131-.033.201-.033.075 0 .133.015.175.046.042.03.063.073.063.127 0 .085-.053.145-.159.18.121.028.182.093.182.196 0 .064-.024.116-.073.153-.049.038-.115.057-.199.057-.071 0-.138-.008-.199-.023z" fill="#fff" stroke="#d20020" stroke-linejoin="round" stroke-miterlimit="2" stroke-width=".03" transform="matrix(38.557530846 0 0 38.557530846 213.22634578 762.23070685)"/></g><path d="m9.14701585 8.73435244h587.02130295v785.02562802h-587.02130295z" fill="none" stroke="#000" stroke-miterlimit="4" stroke-width="4.16667"/></svg>