<svg clip-rule="evenodd" fill-rule="evenodd" stroke-miterlimit="10" viewBox="0 0 626 824" xmlns="http://www.w3.org/2000/svg"><path d="m21.77566712 21.81768744h582.85463295v780.85895802h-582.85463295z" fill="#78623d" stroke-width="4.16667"/><path d="m-139.885 0h139.885v187.406h-139.885z" fill="none" stroke="#000" transform="matrix(-4.16667 0 0 4.16667 21.775 21.81)"/><path d="m0 13.818c-.603.993-.319 1.816-.213 2.213l-5.957-9.534c-.675-.927-.497-1.518-.106-2.078l3.048-4.885-3.19-1.747h10.249l5.214 8.312-3.194-1.715z" fill="#bcfd82" transform="matrix(4.16667 0 0 4.16667 425.772 110.8)"/><path d="m0 9.632c-4.577-.428-5.46-4.783-4.681-6.136l2.199-3.528h11.349v9.696h-8.654z" fill="#bcfd82" transform="matrix(4.16667 0 0 4.16667 448.825 155.32)"/><path d="m0-9.736c1.242-.029 1.881-.658 2.165-.923l-5.889 9.534c-.496 1.024-1.169 1.188-1.879 1.12h-6.066l-.033 3.433-5.108-8.246 5.141-8.346v3.428z" fill="#bcfd82" transform="matrix(4.16667 0 0 4.16667 567.04 195.88)"/><path d="m0 .328c1.877 3.891-1.739 6.794-3.372 6.831h-4.397l-5.639-9.141 9.008-4.849 4.327 6.96z" fill="#bcfd82" transform="matrix(4.16667 0 0 4.16667 580.791 121.79)"/><path d="m0-9.763c-.636-.99-1.525-1.154-1.915-1.251l11.777-.036c1.205-.1 1.701.329 2.021.957l3.014 4.882 3.192-1.713-5.107 8.279-10.319.032 3.155-1.715z" fill="#bcfd82" transform="matrix(4.16667 0 0 4.16667 484.135 88.79)"/><path d="m0-8.514c2.695-3.462 7.199-2.01 8.051-.69l2.197 3.528-5.675 9.138-9.005-4.848 4.325-6.961z" fill="#bcfd82" transform="matrix(4.16667 0 0 4.16667 447.347 88.66)"/><path d="m-24.973 82.666c-.131-.171-.193-.332-.269-.339-1.806-.159-3.42-.78-4.875-1.877-.353-.265-.862-.426-1.309-.451-1.784-.103-3.474-.582-5.134-1.186-2.81-1.023-5.152-2.668-6.504-5.408-1.416-2.866-2.059-5.992-2.78-9.083-.34-1.455-.027-2.834.648-4.11.409-.774.993-1.459 1.525-2.165.594-.787 1.332-1.224 2.381-1.339.832-.092 1.688-.486 2.411-.941 2.296-1.446 4.554-2.954 6.785-4.497.86-.595 1.71-1.277 1.823-2.527-.215-.112-.409-.25-.625-.32-1.657-.543-1.588-.536-1.528-2.302.043-1.253-.15-2.487-1.538-3.113-.417-.188-.829-.496-1.11-.855-.477-.607-1.078-.673-1.746-.596-.587.068-1.172.267-1.753.251-1.71-.048-3.658.362-4.384-1.942-.032-.102-.135-.232-.23-.258-1.365-.366-1.162-1.571-1.448-2.555-.185-.639-.499-1.501-1-1.732-.977-.45-2.129-.725-3.203-.71-1.279.02-2.545.531-3.831.62-.963.066-2.069.045-2.898-.366-1.782-.884-3.484-1.964-5.107-3.119-1.087-.773-2.016-1.782-2.955-2.743-.811-.829-.836-1.782-.181-2.747.625-.922 1.245-1.848 1.846-2.739-.965-2.94-.346-6.025-1.246-8.952-.491-1.594-.316-3.393-.443-5.1-.013-.177.011-.385-.075-.519-.115-.18-.337-.439-.483-.421-.25.033-.535.206-.695.408-.128.16-.082.453-.131.683-.328 1.554-.689 3.101-.975 4.662-.091.497-.082 1.052.041 1.54.325 1.29.414 2.525-.124 3.804-.206.491-.116 1.127-.083 1.692.027.454.173.899.289 1.457-.964.66-1.815 1.451-2.821 1.883-1.634.703-2.499-.023-2.367-1.799.03-.411.161-.815.179-1.226.126-2.746.769-5.537-.602-8.167-.43-.827-.262-1.534.435-2.036.882-.637 1.074-1.507 1.077-2.482.003-.886.132-1.811-.075-2.65-.416-1.686-.024-3.283.259-4.9.166-.946.175-1.829-.068-2.79-.519-2.063-.137-3.946 1.441-5.548.86-.874 1.573-1.909 2.262-2.933.625-.93 1.026-2.021 1.707-2.901 1.108-1.433 1.627-3.065 2.12-4.852-.348.07-.583.084-.792.165-3.412 1.324-6.871 2.546-10.214 4.029-2.095.929-4.16 2.064-5.979 3.448-2.485 1.89-4.785 4.041-7.052 6.198-3.978 3.785-7.158 8.19-9.555 13.129-1.759 3.626-2.953 7.458-3.629 11.435-.484 2.849-1.139 5.696-1.299 8.567-.325 5.858-.211 11.714 1.618 17.396.339 1.055 1.155 2.006.716 3.277-.111.32.193.782.301 1.18.936 3.447 2.538 6.609 4.3 9.679.903 1.574 1.989 3.072 3.174 4.449 2.367 2.75 5.289 4.9 8.169 7.069 2.217 1.669 4.552 3.178 6.802 4.804 2.515 1.817 5.192 3.193 8.271 3.852 3.227.692 6.404 1.622 9.595 2.473 3.22.857 6.516 1.197 9.822 1.26 3.131.061 6.268-.152 9.403-.246.946-.028 1.899.001 2.837-.099 2.817-.305 5.627-.671 8.443-.99.869-.097 1.702-.24 2.436-.779z" fill="#b7ceff" transform="matrix(4.16667 0 0 4.16667 499.614 317.89)"/><path d="m-27.749 48.493c-1.764 1.809-3.398 3.828-5.781 5.032-.512.259-.964.667-1.389 1.065-1.885 1.758-3.906 3.244-6.552 3.644-.375.058-.766.297-1.06.555-1.306 1.141-2.079 2.619-2.179 4.324-.076 1.283 0 2.683 1.215 3.524.979.677 1.213 1.438.946 2.577-.368 1.567-.052 3.122.919 4.387 1.659 2.162 3.799 3.721 6.485 4.398 1.26.317 2.557.485 3.816.805.787.2 1.661.398 2.27.881.885.701 1.853.959 2.895 1.197.967.221 1.899.589 2.852.873.322.096.722.281.982.174 1.306-.539 2.624-1.077 3.851-1.772 3.913-2.214 7.593-4.748 11.065-7.635 3.399-2.824 5.611-6.282 6.735-10.496.119-.445.154-.933.126-1.395-.184-3.056-.371-6.111-.623-9.161-.046-.554-.316-1.134-.622-1.614-1.528-2.396-3.436-4.216-6.561-4.039-.058.003-.123.004-.176-.015-1.72-.637-3.343-.133-5.031.272-2.631.631-5.309 1.08-7.981 1.518-.535.088-1.201-.103-1.691-.373-1.233-.683-2.463-.951-3.894-.786-1.543.177-2.372-.622-2.375-2.161-.003-1.166.129-2.35.36-3.496.385-1.909-.036-2.506-2.018-2.505-1.468 0-2.939.098-4.405.051-2.265-.072-3.135-1.01-3.163-3.347-.007-.613-.079-1.093-.523-1.602-.843-.962-.703-1.29.38-2.077 1.241-.902 2.512-1.786 3.636-2.823.942-.869 1.717-1.936 1.406-3.542-1.626 0-3.2-.025-4.771.011-.666.016-.763.618-.964 1.117-.64 1.592-1.696 2.827-3.265 3.573-.692.329-1.343.34-1.96-.233-1.789-1.657-2.705-3.623-2.625-6.127.066-2.089.758-3.895 1.716-5.697.832-1.563 1.804-2.874 3.545-3.484 1.445-.507 2.895-1.012 4.294-1.628 2.77-1.219 5.342-.524 7.753.865.917.528 1.477 1.642 2.302 2.373 1.446 1.28 1.737 2.865 1.469 4.655-.053.352-.128.702-.156 1.055-.051.672.18 1.17.919 1.267.836.109 1.383-.3 1.443-1.141.051-.706-.169-1.481.049-2.116.439-1.278.189-2.396-.258-3.595-.511-1.373-.094-2.33 1.266-2.821 1.204-.435 2.488-.65 3.742-.941.923-.214 1.795-.284 2.763.085 1.576.601 4.571-.566 5.216-2.074.896-2.093 2.832-2.795 4.591-3.648 2.211-1.073 4.572-1.835 6.847-2.783.792-.33 1.208-.842 1.172-1.903-.033-.986-.562-1.501-1.064-2.095-2.21-2.62-4.587-5.076-7.323-7.159-1.832-1.394-3.55-2.998-5.539-4.114-4.028-2.261-8.431-3.695-12.8-5.153-2.799-.934-5.69-1.452-8.618-1.906-4.425-.686-8.742-1.72-13.327-1.333-3.414.289-6.81.555-10.203 1.072-2.544.387-3.785 1.875-4.52 4.109-.216.659-.484 1.33-.871 1.898-1.663 2.434-2.934 5.127-4.945 7.336-.986 1.083-1.234 2.376-.578 3.792.468 1.009.391 2.053.034 3.114-.225.663-.401 1.386-.389 2.078.026 1.406.202 2.81.303 4.217.137 1.927.586 3.956-1.524 5.012.18 1.197.531 2.249.448 3.266-.12 1.473-.093 2.925-.031 4.391.023.517-.119 1.044-.206 1.563-.105.622-.349 1.255.226 1.879.998-.15 1.789-.562 2.33-1.559-.517-1.028-.365-2.047.205-3.118.518-.972.529-2.015-.133-3.03-.222-.34-.326-.958-.169-1.308.819-1.827 1.127-3.71 1.066-5.705-.035-1.193 1.048-2.107 2.193-2.084 1.2.026 1.512.44 1.67 1.991.267 2.621-.026 5.317 1.029 7.837.065.158.075.352.066.527-.106 2.098.109 4.135 1.077 6.044.277.546.184 1.227-.347 1.394-1.557.491-1.59 1.895-2.113 2.997 1.024 1.847 2.456 3.093 4.37 3.809 1.094.409 2.219.723 3.073 1.662.343.378 1.053.524 1.615.582 2.01.209 3.949-.424 5.925-.633 1.788-.188 4.526 1.199 4.754 2.861.166 1.218.678 2.116 1.259 3.151.631 1.123 1.397 1.342 2.404 1.355.759.009 1.573-.023 2.271-.283 2.184-.809 3.075 1.155 4.494 1.976.34.196.637.465.947.709.04.03.044.107.058.165.189.805.448 1.6.548 2.417.2 1.626.161 1.653 1.724 1.806.76.074 1.406.223 1.608 1.222z" fill="#a2c08a" transform="matrix(4.16667 0 0 4.16667 499.614 317.89)"/><path d="m0 64.793c.228-.262.49-.502.678-.79 1.127-1.729 2.227-3.475 3.356-5.202 2.148-3.285 3.656-6.872 5.018-10.533 1.678-4.514 1.715-9.264 1.975-13.97.143-2.588-.016-5.191.027-7.785.049-2.931-.479-5.777-1.407-8.516-1.651-4.877-3.76-9.564-6.378-14.01-.161-.273-.388-.509-.52-.679-1.626.898-3.08 1.826-4.635 2.528-1.98.895-4.054 1.583-6.066 2.412-.939.387-1.708.941-2.064 2.039-.174.538-.803.97-1.301 1.351-.415.317-.978.435-1.41.736-1.347.941-2.805 1.151-4.383.817-1.621-.343-3.185-.041-4.691.543-1.437.558-1.607 1.198-1.026 2.625.275.676.534 1.497.395 2.169-.197.961-.235 1.835.001 2.782.248.997.068 1.892-1.041 2.336-.54.215-1.049.557-1.607.674-1.975.414-3.379-.864-2.887-2.815.49-1.948.363-3.599-1.161-5.006-.042-.039-.067-.098-.1-.146-1.902-2.838-4.806-3.855-7.995-2.811-.617.202-1.234.433-1.869.542-1.966.339-3.485 1.395-4.718 2.893-.983 1.195-1.836 2.486-2.035 4.071-.147 1.168-.212 2.346-.311 3.519-.074.894 1.391 3.335 2.208 3.599.25.08.588.039.839-.061 1.19-.478 2.205-1.115 2.314-2.591.085-1.148.637-1.833 1.901-1.866 1.649-.042 3.296-.182 4.945-.268.961-.049 1.438.593 1.57 1.385.229 1.373.173 2.728-1.023 3.746-1.116.95-2.241 1.893-3.321 2.883-.278.254-.566.672-.571 1.02-.018.998.014 2.016.2 2.993.247 1.298.467 1.411 1.773 1.531 1.641.15 3.279.309 4.924-.016 1.379-.274 2.173.379 2.747 1.623.331.716.079 1.27-.069 1.87-.371 1.506-.575 2.995-.038 4.542.346.047.638.147.916.114 1.718-.196 3.287.021 4.6 1.313.219.215.764.19 1.139.138 2.978-.411 5.937-.896 8.798-1.889 1.42-.493 2.886-.486 4.334.087.535.211 1.146.309 1.723.312 1.414.009 2.562.627 3.388 1.657 1.623 2.022 3.07 4.088 3.166 6.917.126 3.699 1.13 7.405-.308 11.187z" fill="#b7ceff" transform="matrix(4.16667 0 0 4.16667 499.614 317.89)"/><path d="m0 64.793c.228-.262.49-.502.678-.79 1.127-1.729 2.227-3.475 3.356-5.202 2.148-3.285 3.656-6.872 5.018-10.533 1.678-4.514 1.715-9.264 1.975-13.97.143-2.588-.016-5.191.027-7.785.049-2.931-.479-5.777-1.407-8.516-1.651-4.877-3.76-9.564-6.378-14.01-.161-.273-.388-.509-.52-.679-1.626.898-3.08 1.826-4.635 2.528-1.98.895-4.054 1.583-6.066 2.412-.939.387-1.708.941-2.064 2.039-.174.538-.803.97-1.301 1.351-.415.317-.978.435-1.41.736-1.347.941-2.805 1.151-4.383.817-1.621-.343-3.185-.041-4.691.543-1.437.558-1.607 1.198-1.026 2.625.275.676.534 1.497.395 2.169-.197.961-.235 1.835.001 2.782.248.997.068 1.892-1.041 2.336-.54.215-1.049.557-1.607.674-1.975.414-3.379-.864-2.887-2.815.49-1.948.363-3.599-1.161-5.006-.042-.039-.067-.098-.1-.146-1.902-2.838-4.806-3.855-7.995-2.811-.617.202-1.234.433-1.869.542-1.966.339-3.485 1.395-4.718 2.893-.983 1.195-1.836 2.486-2.035 4.071-.147 1.168-.212 2.346-.311 3.519-.074.894 1.391 3.335 2.208 3.599.25.08.588.039.839-.061 1.19-.478 2.205-1.115 2.314-2.591.085-1.148.637-1.833 1.901-1.866 1.649-.042 3.296-.182 4.945-.268.961-.049 1.438.593 1.57 1.385.229 1.373.173 2.728-1.023 3.746-1.116.95-2.241 1.893-3.321 2.883-.278.254-.566.672-.571 1.02-.018.998.014 2.016.2 2.993.247 1.298.467 1.411 1.773 1.531 1.641.15 3.279.309 4.924-.016 1.379-.274 2.173.379 2.747 1.623.331.716.079 1.27-.069 1.87-.371 1.506-.575 2.995-.038 4.542.346.047.638.147.916.114 1.718-.196 3.287.021 4.6 1.313.219.215.764.19 1.139.138 2.978-.411 5.937-.896 8.798-1.889 1.42-.493 2.886-.486 4.334.087.535.211 1.146.309 1.723.312 1.414.009 2.562.627 3.388 1.657 1.623 2.022 3.07 4.088 3.166 6.917.126 3.699 1.13 7.405-.308 11.187m-27.749-16.3c-1.764 1.809-3.398 3.828-5.781 5.032-.512.259-.964.667-1.389 1.065-1.885 1.758-3.906 3.244-6.552 3.644-.375.058-.766.297-1.06.555-1.306 1.141-2.079 2.619-2.179 4.324-.076 1.283 0 2.683 1.215 3.524.979.677 1.213 1.438.946 2.577-.368 1.567-.052 3.122.919 4.387 1.659 2.162 3.799 3.721 6.485 4.398 1.26.317 2.557.485 3.816.805.787.2 1.661.398 2.27.881.885.701 1.853.959 2.895 1.197.967.221 1.899.589 2.852.873.322.096.722.281.982.174 1.306-.539 2.624-1.077 3.851-1.772 3.913-2.214 7.593-4.748 11.065-7.635 3.399-2.824 5.611-6.282 6.735-10.496.119-.445.154-.933.126-1.395-.184-3.056-.371-6.111-.623-9.161-.046-.554-.316-1.134-.622-1.614-1.528-2.396-3.436-4.216-6.561-4.039-.058.003-.123.004-.176-.015-1.72-.637-3.343-.133-5.031.272-2.631.631-5.309 1.08-7.981 1.518-.535.088-1.201-.103-1.691-.373-1.233-.683-2.463-.951-3.894-.786-1.543.177-2.372-.622-2.375-2.161-.003-1.166.129-2.35.36-3.496.385-1.909-.036-2.506-2.018-2.505-1.468 0-2.939.098-4.405.051-2.265-.072-3.135-1.01-3.163-3.347-.007-.613-.079-1.093-.523-1.602-.843-.962-.703-1.29.38-2.077 1.241-.902 2.512-1.786 3.636-2.823.942-.869 1.717-1.936 1.406-3.542-1.626 0-3.2-.025-4.771.011-.666.016-.763.618-.964 1.117-.64 1.592-1.696 2.827-3.265 3.573-.692.329-1.343.34-1.96-.233-1.789-1.657-2.705-3.623-2.625-6.127.066-2.089.758-3.895 1.716-5.697.832-1.563 1.804-2.874 3.545-3.484 1.445-.507 2.895-1.012 4.294-1.628 2.77-1.219 5.342-.524 7.753.865.917.528 1.477 1.642 2.302 2.373 1.446 1.28 1.737 2.865 1.469 4.655-.053.352-.128.702-.156 1.055-.051.672.18 1.17.919 1.267.836.109 1.383-.3 1.443-1.141.051-.706-.169-1.481.049-2.116.439-1.278.189-2.396-.258-3.595-.511-1.373-.094-2.33 1.266-2.821 1.204-.435 2.488-.65 3.742-.941.923-.214 1.795-.284 2.763.085 1.576.601 4.571-.566 5.216-2.074.896-2.093 2.832-2.795 4.591-3.648 2.211-1.073 4.572-1.835 6.847-2.783.792-.33 1.208-.842 1.172-1.903-.033-.986-.562-1.501-1.064-2.095-2.21-2.62-4.587-5.076-7.323-7.159-1.832-1.394-3.55-2.998-5.539-4.114-4.028-2.261-8.431-3.695-12.8-5.153-2.799-.934-5.69-1.452-8.618-1.906-4.425-.686-8.742-1.72-13.327-1.333-3.414.289-6.81.555-10.203 1.072-2.544.387-3.785 1.875-4.52 4.109-.216.659-.484 1.33-.871 1.898-1.663 2.434-2.934 5.127-4.945 7.336-.986 1.083-1.234 2.376-.578 3.792.468 1.009.391 2.053.034 3.114-.225.663-.401 1.386-.389 2.078.026 1.406.202 2.81.303 4.217.137 1.927.586 3.956-1.524 5.012.18 1.197.531 2.249.448 3.266-.12 1.473-.093 2.925-.031 4.391.023.517-.119 1.044-.206 1.563-.105.622-.349 1.255.226 1.879.998-.15 1.789-.562 2.33-1.559-.517-1.028-.365-2.047.205-3.118.518-.972.529-2.015-.133-3.03-.222-.34-.326-.958-.169-1.308.819-1.827 1.127-3.71 1.066-5.705-.035-1.193 1.048-2.107 2.193-2.084 1.2.026 1.512.44 1.67 1.991.267 2.621-.026 5.317 1.029 7.837.065.158.075.352.066.527-.106 2.098.109 4.135 1.077 6.044.277.546.184 1.227-.347 1.394-1.557.491-1.59 1.895-2.113 2.997 1.024 1.847 2.456 3.093 4.37 3.809 1.094.409 2.219.723 3.073 1.662.343.378 1.053.524 1.615.582 2.01.209 3.949-.424 5.925-.633 1.788-.188 4.526 1.199 4.754 2.861.166 1.218.678 2.116 1.259 3.151.631 1.123 1.397 1.342 2.404 1.355.759.009 1.573-.023 2.271-.283 2.184-.809 3.075 1.155 4.494 1.976.34.196.637.465.947.709.04.03.044.107.058.165.189.805.448 1.6.548 2.417.2 1.626.161 1.653 1.724 1.806.76.074 1.406.223 1.608 1.222m2.776 34.173c-.131-.171-.193-.332-.269-.339-1.806-.159-3.42-.78-4.875-1.877-.353-.265-.862-.426-1.309-.451-1.784-.103-3.474-.582-5.134-1.186-2.81-1.023-5.152-2.668-6.504-5.408-1.416-2.866-2.059-5.992-2.78-9.083-.34-1.455-.027-2.834.648-4.11.409-.774.993-1.459 1.525-2.165.594-.787 1.332-1.224 2.381-1.339.832-.092 1.688-.486 2.411-.941 2.296-1.446 4.554-2.954 6.785-4.497.86-.595 1.71-1.277 1.823-2.527-.215-.112-.409-.25-.625-.32-1.657-.543-1.588-.536-1.528-2.302.043-1.253-.15-2.487-1.538-3.113-.417-.188-.829-.496-1.11-.855-.477-.607-1.078-.673-1.746-.596-.587.068-1.172.267-1.753.251-1.71-.048-3.658.362-4.384-1.942-.032-.102-.135-.232-.23-.258-1.365-.366-1.162-1.571-1.448-2.555-.185-.639-.499-1.501-1-1.732-.977-.45-2.129-.725-3.203-.71-1.279.02-2.545.531-3.831.62-.963.066-2.069.045-2.898-.366-1.782-.884-3.484-1.964-5.107-3.119-1.087-.773-2.016-1.782-2.955-2.743-.811-.829-.836-1.782-.181-2.747.625-.922 1.245-1.848 1.846-2.739-.965-2.94-.346-6.025-1.246-8.952-.491-1.594-.316-3.393-.443-5.1-.013-.177.011-.385-.075-.519-.115-.18-.337-.439-.483-.421-.25.033-.535.206-.695.408-.128.16-.082.453-.131.683-.328 1.554-.689 3.101-.975 4.662-.091.497-.082 1.052.041 1.54.325 1.29.414 2.525-.124 3.804-.206.491-.116 1.127-.083 1.692.027.454.173.899.289 1.457-.964.66-1.815 1.451-2.821 1.883-1.634.703-2.499-.023-2.367-1.799.03-.411.161-.815.179-1.226.126-2.746.769-5.537-.602-8.167-.43-.827-.262-1.534.435-2.036.882-.637 1.074-1.507 1.077-2.482.003-.886.132-1.811-.075-2.65-.416-1.686-.024-3.283.259-4.9.166-.946.175-1.829-.068-2.79-.519-2.063-.137-3.946 1.441-5.548.86-.874 1.573-1.909 2.262-2.933.625-.93 1.026-2.021 1.707-2.901 1.108-1.433 1.627-3.065 2.12-4.852-.348.07-.583.084-.792.165-3.412 1.324-6.871 2.546-10.214 4.029-2.095.929-4.16 2.064-5.979 3.448-2.485 1.89-4.785 4.041-7.052 6.198-3.978 3.785-7.158 8.19-9.555 13.129-1.759 3.626-2.953 7.458-3.629 11.435-.484 2.849-1.139 5.696-1.299 8.567-.325 5.858-.211 11.714 1.618 17.396.339 1.055 1.155 2.006.716 3.277-.111.32.193.782.301 1.18.936 3.447 2.538 6.609 4.3 9.679.903 1.574 1.989 3.072 3.174 4.449 2.367 2.75 5.289 4.9 8.169 7.069 2.217 1.669 4.552 3.178 6.802 4.804 2.515 1.817 5.192 3.193 8.271 3.852 3.227.692 6.404 1.622 9.595 2.473 3.22.857 6.516 1.197 9.822 1.26 3.131.061 6.268-.152 9.403-.246.946-.028 1.899.001 2.837-.099 2.817-.305 5.627-.671 8.443-.99.869-.097 1.702-.24 2.436-.779m37.466-51.169c-.158 2.232-.386 6.125-.719 10.01-.326 3.802-1.378 7.443-2.96 10.896-1.999 4.364-4.503 8.452-7.238 12.395-1.972 2.843-4.65 5.006-7.087 7.412-2.76 2.728-5.914 4.899-9.113 6.991-4.067 2.66-8.384 4.88-13.293 5.619-.118.018-.236.061-.351.054-3.456-.209-6.791.87-10.21.972-3.83.115-7.676.288-11.494.062-3.107-.182-6.204-.802-9.263-1.433-3.291-.681-6.52-1.656-9.799-2.403-2.723-.621-5.051-1.987-7.271-3.578-4.994-3.578-10.064-7.07-14.422-11.444-1.627-1.633-2.949-3.513-4.169-5.494-2.773-4.503-4.312-9.43-5.495-14.524-.83-3.577-1.735-7.165-1.555-10.843.143-2.913.102-5.832.55-8.754.472-3.079.755-6.192 1.532-9.212.802-3.118 1.315-6.315 3.201-9.106 1.544-2.284 2.688-4.836 4.089-7.222.503-.857 1.192-1.62 1.876-2.352 2.139-2.29 4.222-4.646 6.504-6.787 2.757-2.59 5.804-4.826 9.247-6.477 4.583-2.197 9.184-4.327 14.151-5.559 4.428-1.099 8.861-2.041 13.473-1.805 1.469.076 2.951-.113 4.428-.177.354-.015.721-.079 1.061-.011 2.489.492 4.972 1.012 7.457 1.522.405.083.809.183 1.219.231 5.034.61 9.727 2.373 14.42 4.18 3.268 1.259 6.534 2.563 9.281 4.732 2.868 2.265 5.513 4.819 8.199 7.308 1.385 1.282 2.67 2.678 3.956 4.063.478.514.877 1.118 1.237 1.725 2.959 4.999 5.47 10.219 7.146 15.784 1.127 3.746 1.402 7.648 1.412 13.225" fill="#070707" fill-rule="nonzero" transform="matrix(4.16667 0 0 4.16667 499.614 317.89)"/><path d="m10.209 3.468c-.648 0-1.307.071-1.944-.018-.748-.105-1.731-.109-2.167-.574-1.216-1.301-2.848-1.453-4.351-1.972-.546-.19-1.139-.243-1.71-.355-1.127-.217-1.468-1.016-.717-1.896.68-.796 1.382-1.651 2.609-1.609.174.005.379.007.522-.074 2.1-1.191 3.949-.143 5.827.641.908.379 1.727.832 2.83.762 2.023-.128 3.573 1.975 3.166 3.99-.144.711-.589 1.005-1.235 1.028-.942.033-1.886.008-2.83.008z" fill="#070707" transform="matrix(4.16667 0 0 4.16667 394.456 440.86)"/><path d="m0-.682c1.139.353 2.085.662 3.043.93.213.059.476.008.7-.05.977-.253 1.638.104 2.309.855 1.381 1.546 4.919 1.742 6.676.475.074-.053.069-.215.117-.381-.309-.775-.828-1.521-1.72-1.523-1.134-.003-2.02-.538-3.008-.903-.866-.319-1.811-.441-2.732-.587-.633-.1-1.285-.145-1.925-.121-1.203.046-2.5-.12-3.46 1.305z" fill="#a2c08a" transform="matrix(4.16667 0 0 4.16667 394.456 440.86)"/><g fill-rule="nonzero"><path d="m.407.018c-.109 0-.197-.034-.263-.103s-.099-.161-.099-.276c0-.117.033-.209.1-.277.066-.069.155-.103.267-.103s.201.034.267.103c.066.068.099.16.099.275 0 .118-.033.211-.099.279s-.157.102-.272.102zm.002-.1c.065 0 .116-.025.153-.075.038-.051.057-.12.057-.206 0-.084-.019-.152-.057-.202-.038-.051-.088-.077-.15-.077-.063 0-.113.026-.151.077-.037.05-.056.118-.056.203 0 .084.019.152.056.204.038.051.087.076.148.076z" fill="#ffdd31" transform="matrix(38.557530846 0 0 38.557530846 43.23401762 78.30931758)"/><path d="m73.38338340614 48.58146129773h5.59084197267v29.72785628227h-5.59084197267z" fill="#ffdd31" stroke-width="38.557530846"/><path d="m.09 0v-.536h.145v.536zm0-.626v-.121h.145v.121z" fill="#ffdd31" transform="matrix(38.557530846 0 0 38.557530846 77.39237828 78.30931758)"/><path d="m.09 0v-.536h.139v.101c.042-.076.103-.113.181-.113.04 0 .073.01.099.029.026.02.042.048.048.084.05-.076.111-.113.182-.113.098 0 .147.054.147.162v.386h-.139v-.339c0-.063-.021-.095-.063-.095-.044 0-.086.031-.127.094v.34h-.139v-.339c0-.064-.021-.096-.064-.096-.042 0-.084.032-.125.095v.34z" fill="#ffdd31" transform="matrix(38.557530846 0 0 38.557530846 84.87155093 78.30931758)"/><path d="m.09.193v-.729h.145v.101c.037-.076.095-.113.175-.113.065 0 .115.023.152.07.037.048.056.113.056.195 0 .09-.021.162-.063.215-.041.054-.097.08-.167.08-.057 0-.108-.022-.153-.066v.247zm.145-.333c.035.039.072.058.112.058.036 0 .064-.017.085-.051s.032-.08.032-.138c0-.109-.035-.164-.106-.164-.043 0-.084.027-.123.082z" fill="#ffdd31" transform="matrix(38.557530846 0 0 38.557530846 117.20074346 78.30931758)"/><path d="m.09 0v-.536h.145v.536zm0-.626v-.121h.145v.121z" fill="#ffdd31" transform="matrix(38.557530846 0 0 38.557530846 137.69242652 78.30931758)"/><path d="m.353-.058c-.048.047-.1.07-.155.07-.047 0-.085-.014-.114-.043-.029-.028-.044-.066-.044-.111 0-.059.024-.105.071-.137s.115-.048.203-.048h.039v-.049c0-.056-.032-.083-.095-.083-.057 0-.113.015-.171.047v-.099c.065-.025.13-.037.194-.037.141 0 .211.055.211.167v.237c0 .042.013.063.04.063.005 0 .011 0 .019-.002l.004.082c-.031.009-.058.013-.081.013-.06 0-.098-.023-.115-.07zm0-.077v-.109h-.034c-.094 0-.14.029-.14.088 0 .02.006.036.02.05.013.013.03.02.05.02.034 0 .069-.016.104-.049z" fill="#ffdd31" transform="matrix(38.557530846 0 0 38.557530846 145.1674325 78.30931758)"/><path d="m.428 0v-.101c-.037.075-.096.113-.176.113-.064 0-.115-.023-.151-.071-.037-.047-.056-.112-.056-.194 0-.09.021-.162.063-.215.041-.054.097-.08.167-.08.056 0 .107.022.153.066v-.289h.145v.771zm0-.396c-.035-.039-.072-.059-.112-.059-.036 0-.064.017-.085.052-.021.034-.032.08-.032.137 0 .11.035.165.106.165.043 0 .084-.028.123-.083z" fill="#ffdd31" transform="matrix(38.557530846 0 0 38.557530846 162.77577992 78.30931758)"/><path d="m.353-.058c-.048.047-.1.07-.155.07-.047 0-.085-.014-.114-.043-.029-.028-.044-.066-.044-.111 0-.059.024-.105.071-.137s.115-.048.203-.048h.039v-.049c0-.056-.032-.083-.095-.083-.057 0-.113.015-.171.047v-.099c.065-.025.13-.037.194-.037.141 0 .211.055.211.167v.237c0 .042.013.063.04.063.005 0 .011 0 .019-.002l.004.082c-.031.009-.058.013-.081.013-.06 0-.098-.023-.115-.07zm0-.077v-.109h-.034c-.094 0-.14.029-.14.088 0 .02.006.036.02.05.013.013.03.02.05.02.034 0 .069-.016.104-.049z" fill="#ffdd31" transform="matrix(38.557530846 0 0 38.557530846 183.26329631 78.30931758)"/><path d="m.428 0v-.101c-.037.075-.096.113-.176.113-.064 0-.115-.023-.151-.071-.037-.047-.056-.112-.056-.194 0-.09.021-.162.063-.215.041-.054.097-.08.167-.08.056 0 .107.022.153.066v-.289h.145v.771zm0-.396c-.035-.039-.072-.059-.112-.059-.036 0-.064.017-.085.052-.021.034-.032.08-.032.137 0 .11.035.165.106.165.043 0 .084-.028.123-.083z" fill="#ffdd31" transform="matrix(38.557530846 0 0 38.557530846 204.05497961 78.30931758)"/><path d="m.527-.018c-.069.02-.134.03-.195.03-.09 0-.161-.025-.212-.076-.052-.051-.078-.12-.078-.208 0-.083.024-.15.071-.2.047-.051.11-.076.188-.076s.136.024.172.074c.036.049.054.128.054.235h-.333c.01.102.066.153.169.153.048 0 .103-.011.164-.034zm-.335-.303h.193c0-.091-.03-.137-.089-.137-.06 0-.094.046-.104.137z" fill="#ffdd31" transform="matrix(38.557530846 0 0 38.557530846 224.542496 78.30931758)"/><path d="m245.54602113614 48.58146129773h5.59084197267v29.72785628227h-5.59084197267z" fill="#ffdd31" stroke-width="38.557530846"/><path d="m.09 0v-.536h.145v.101c.037-.076.094-.113.171-.113.009 0 .018.001.027.003v.128c-.021-.007-.04-.011-.058-.011-.057 0-.104.029-.14.088v.34z" fill="#ffdd31" transform="matrix(38.557530846 0 0 38.557530846 260.88835841 78.30931758)"/><path d="m.527-.018c-.069.02-.134.03-.195.03-.09 0-.161-.025-.212-.076-.052-.051-.078-.12-.078-.208 0-.083.024-.15.071-.2.047-.051.11-.076.188-.076s.136.024.172.074c.036.049.054.128.054.235h-.333c.01.102.066.153.169.153.048 0 .103-.011.164-.034zm-.335-.303h.193c0-.091-.03-.137-.089-.137-.06 0-.094.046-.104.137z" fill="#ffdd31" transform="matrix(38.557530846 0 0 38.557530846 273.35920172 78.30931758)"/><path d="m.486-.012c-.06.016-.116.024-.167.024-.085 0-.153-.025-.203-.075-.049-.051-.074-.119-.074-.206s.026-.156.077-.205c.051-.05.121-.074.212-.074.043 0 .093.007.15.021v.104c-.059-.019-.106-.029-.142-.029-.043 0-.078.017-.104.05-.027.033-.04.077-.04.132 0 .057.015.102.043.136.029.034.067.051.114.051.043 0 .088-.01.134-.029z" fill="#ffdd31" transform="matrix(38.557530846 0 0 38.557530846 290.88838241 78.30931758)"/><path d="m.09 0v-.536h.145v.536zm0-.626v-.121h.145v.121z" fill="#ffdd31" transform="matrix(38.557530846 0 0 38.557530846 306.35089478 78.30931758)"/><path d="m.486-.012c-.06.016-.116.024-.167.024-.085 0-.153-.025-.203-.075-.049-.051-.074-.119-.074-.206s.026-.156.077-.205c.051-.05.121-.074.212-.074.043 0 .093.007.15.021v.104c-.059-.019-.106-.029-.142-.029-.043 0-.078.017-.104.05-.027.033-.04.077-.04.132 0 .057.015.102.043.136.029.034.067.051.114.051.043 0 .088-.01.134-.029z" fill="#ffdd31" transform="matrix(38.557530846 0 0 38.557530846 313.83006743 78.30931758)"/><path d="m332.76275757614 48.58146129773h5.59084197267v29.72785628227h-5.59084197267z" fill="#ffdd31" stroke-width="38.557530846"/><path d="m.353-.058c-.048.047-.1.07-.155.07-.047 0-.085-.014-.114-.043-.029-.028-.044-.066-.044-.111 0-.059.024-.105.071-.137s.115-.048.203-.048h.039v-.049c0-.056-.032-.083-.095-.083-.057 0-.113.015-.171.047v-.099c.065-.025.13-.037.194-.037.141 0 .211.055.211.167v.237c0 .042.013.063.04.063.005 0 .011 0 .019-.002l.004.082c-.031.009-.058.013-.081.013-.06 0-.098-.023-.115-.07zm0-.077v-.109h-.034c-.094 0-.14.029-.14.088 0 .02.006.036.02.05.013.013.03.02.05.02.034 0 .069-.016.104-.049z" fill="#ffdd31" transform="matrix(38.557530846 0 0 38.557530846 336.77175245 78.30931758)"/><path d="m-.087.182v-.097c.042.02.078.029.108.029.028 0 .047-.008.059-.026.012-.017.018-.047.018-.088v-.536h.145v.526c0 .075-.017.13-.05.164-.034.034-.087.051-.16.051-.033 0-.073-.008-.12-.023zm.185-.808v-.121h.145v.121z" fill="#ffdd31" transform="matrix(38.557530846 0 0 38.557530846 354.3759332 78.30931758)"/><path d="m.527-.018c-.069.02-.134.03-.195.03-.09 0-.161-.025-.212-.076-.052-.051-.078-.12-.078-.208 0-.083.024-.15.071-.2.047-.051.11-.076.188-.076s.136.024.172.074c.036.049.054.128.054.235h-.333c.01.102.066.153.169.153.048 0 .103-.011.164-.034zm-.335-.303h.193c0-.091-.03-.137-.089-.137-.06 0-.094.046-.104.137z" fill="#ffdd31" transform="matrix(38.557530846 0 0 38.557530846 362.15927276 78.30931758)"/><path d="m.072 0v-.114l.008-.011c.038-.052.078-.095.119-.131l.059-.052c.097-.086.146-.161.146-.226 0-.076-.043-.113-.129-.113-.053 0-.115.017-.185.053v-.106c.074-.027.145-.041.214-.041.077 0 .138.018.184.055.047.036.07.085.07.145 0 .042-.012.081-.034.115-.023.035-.062.075-.119.12l-.049.039c-.068.055-.108.106-.121.153h.32v.114z" fill="#fff" transform="matrix(38.557530846 0 0 38.557530846 100.83823037 727.5015036)"/><path d="m.327.018c-.082 0-.149-.035-.2-.105-.052-.071-.077-.162-.077-.274 0-.114.026-.206.077-.275.051-.07.119-.105.203-.105.083 0 .151.035.202.105.052.069.078.16.078.273 0 .115-.026.208-.078.277-.051.069-.12.104-.205.104zm.001-.09c.086 0 .129-.097.129-.289 0-.193-.043-.289-.127-.289s-.126.096-.126.288c0 .193.041.29.124.29z" fill="#fff" transform="matrix(38.557530846 0 0 38.557530846 121.84241384 727.5015036)"/><path d="m.428 0v-.101c-.037.075-.096.113-.176.113-.064 0-.115-.023-.151-.071-.037-.047-.056-.112-.056-.194 0-.09.021-.162.063-.215.041-.054.097-.08.167-.08.056 0 .107.022.153.066v-.289h.145v.771zm0-.396c-.035-.039-.072-.059-.112-.059-.036 0-.064.017-.085.052-.021.034-.032.08-.032.137 0 .11.035.165.106.165.043 0 .084-.028.123-.083z" fill="#fff" transform="matrix(38.557530846 0 0 38.557530846 148.57160189 727.5015036)"/><path d="m.527-.018c-.069.02-.134.03-.195.03-.09 0-.161-.025-.212-.076-.052-.051-.078-.12-.078-.208 0-.083.024-.15.071-.2.047-.051.11-.076.188-.076s.136.024.172.074c.036.049.054.128.054.235h-.333c.01.102.066.153.169.153.048 0 .103-.011.164-.034zm-.335-.303h.193c0-.091-.03-.137-.089-.137-.06 0-.094.046-.104.137z" fill="#fff" transform="matrix(38.557530846 0 0 38.557530846 169.69245212 727.5015036)"/><path d="m.076-.017v-.106c.072.03.133.045.184.045.059 0 .089-.02.089-.061 0-.026-.025-.049-.074-.068l-.048-.02c-.053-.021-.091-.044-.114-.069s-.034-.055-.034-.092c0-.05.019-.09.058-.118.038-.028.093-.042.162-.042.044 0 .096.006.156.019v.101c-.058-.02-.106-.03-.144-.03-.06 0-.09.019-.09.056 0 .024.022.045.067.062l.042.016c.062.024.106.048.131.072.024.024.037.056.037.094 0 .051-.021.092-.063.123-.042.032-.096.047-.164.047-.064 0-.129-.01-.195-.029z" fill="#fff" transform="matrix(38.557530846 0 0 38.557530846 196.13413994 727.5015036)"/><path d="m.527-.018c-.069.02-.134.03-.195.03-.09 0-.161-.025-.212-.076-.052-.051-.078-.12-.078-.208 0-.083.024-.15.071-.2.047-.051.11-.076.188-.076s.136.024.172.074c.036.049.054.128.054.235h-.333c.01.102.066.153.169.153.048 0 .103-.011.164-.034zm-.335-.303h.193c0-.091-.03-.137-.089-.137-.06 0-.094.046-.104.137z" fill="#fff" transform="matrix(38.557530846 0 0 38.557530846 213.50498717 727.5015036)"/><path d="m.09.193v-.729h.145v.101c.037-.076.095-.113.175-.113.065 0 .115.023.152.07.037.048.056.113.056.195 0 .09-.021.162-.063.215-.041.054-.097.08-.167.08-.057 0-.108-.022-.153-.066v.247zm.145-.333c.035.039.072.058.112.058.036 0 .064-.017.085-.051s.032-.08.032-.138c0-.109-.035-.164-.106-.164-.043 0-.084.027-.123.082z" fill="#fff" transform="matrix(38.557530846 0 0 38.557530846 231.67166837 727.5015036)"/><path d="m.367-.003c-.035.01-.062.015-.082.015-.125 0-.188-.058-.188-.176v-.282h-.06v-.09h.06v-.09l.145-.017v.107h.114v.09h-.114v.263c0 .066.027.099.08.099.013 0 .027-.002.045-.007z" fill="#fff" transform="matrix(38.557530846 0 0 38.557530846 252.78835193 727.5015036)"/><path d="m.09 0v-.536h.145v.536zm0-.626v-.121h.145v.121z" fill="#fff" transform="matrix(38.557530846 0 0 38.557530846 263.98836089 727.5015036)"/><path d="m.527-.018c-.069.02-.134.03-.195.03-.09 0-.161-.025-.212-.076-.052-.051-.078-.12-.078-.208 0-.083.024-.15.071-.2.047-.051.11-.076.188-.076s.136.024.172.074c.036.049.054.128.054.235h-.333c.01.102.066.153.169.153.048 0 .103-.011.164-.034zm-.335-.303h.193c0-.091-.03-.137-.089-.137-.06 0-.094.046-.104.137z" fill="#fff" transform="matrix(38.557530846 0 0 38.557530846 272.09670071 727.5015036)"/><path d="m.09 0v-.536h.139v.101c.042-.076.103-.113.181-.113.04 0 .073.01.099.029.026.02.042.048.048.084.05-.076.111-.113.182-.113.098 0 .147.054.147.162v.386h-.139v-.339c0-.063-.021-.095-.063-.095-.044 0-.086.031-.127.094v.34h-.139v-.339c0-.064-.021-.096-.064-.096-.042 0-.084.032-.125.095v.34z" fill="#fff" transform="matrix(38.557530846 0 0 38.557530846 290.25921524 727.5015036)"/><path d="m.09 0v-.771h.145v.336c.037-.076.095-.113.175-.113.065 0 .115.023.152.07.037.048.056.113.056.195 0 .09-.021.161-.063.215-.041.053-.097.08-.167.08-.06 0-.111-.022-.153-.066l-.027.054zm.145-.14c.035.039.072.058.112.058.036 0 .064-.017.085-.051s.032-.08.032-.138c0-.109-.035-.164-.106-.164-.043 0-.084.027-.123.082z" fill="#fff" transform="matrix(38.557530846 0 0 38.557530846 323.22174161 727.5015036)"/><path d="m.09 0v-.536h.145v.101c.037-.076.094-.113.171-.113.009 0 .018.001.027.003v.128c-.021-.007-.04-.011-.058-.011-.057 0-.104.029-.14.088v.34z" fill="#fff" transform="matrix(38.557530846 0 0 38.557530846 344.34259184 727.5015036)"/><path d="m.527-.018c-.069.02-.134.03-.195.03-.09 0-.161-.025-.212-.076-.052-.051-.078-.12-.078-.208 0-.083.024-.15.071-.2.047-.051.11-.076.188-.076s.136.024.172.074c.036.049.054.128.054.235h-.333c.01.102.066.153.169.153.048 0 .103-.011.164-.034zm-.335-.303h.193c0-.091-.03-.137-.089-.137-.06 0-.094.046-.104.137z" fill="#fff" transform="matrix(38.557530846 0 0 38.557530846 357.44260232 727.5015036)"/><path d="m.428 0v-.101c-.037.075-.096.113-.176.113-.064 0-.115-.023-.151-.071-.037-.047-.056-.112-.056-.194 0-.09.021-.162.063-.215.041-.054.097-.08.167-.08.056 0 .107.022.153.066v-.289h.145v.771zm0-.396c-.035-.039-.072-.059-.112-.059-.036 0-.064.017-.085.052-.021.034-.032.08-.032.137 0 .11.035.165.106.165.043 0 .084-.028.123-.083z" fill="#fff" transform="matrix(38.557530846 0 0 38.557530846 389.2509611 727.5015036)"/><path d="m.527-.018c-.069.02-.134.03-.195.03-.09 0-.161-.025-.212-.076-.052-.051-.078-.12-.078-.208 0-.083.024-.15.071-.2.047-.051.11-.076.188-.076s.136.024.172.074c.036.049.054.128.054.235h-.333c.01.102.066.153.169.153.048 0 .103-.011.164-.034zm-.335-.303h.193c0-.091-.03-.137-.089-.137-.06 0-.094.046-.104.137z" fill="#fff" transform="matrix(38.557530846 0 0 38.557530846 410.37181133 727.5015036)"/><path d="m.072 0v-.114l.008-.011c.038-.052.078-.095.119-.131l.059-.052c.097-.086.146-.161.146-.226 0-.076-.043-.113-.129-.113-.053 0-.115.017-.185.053v-.106c.074-.027.145-.041.214-.041.077 0 .138.018.184.055.047.036.07.085.07.145 0 .042-.012.081-.034.115-.023.035-.062.075-.119.12l-.049.039c-.068.055-.108.106-.121.153h.32v.114z" fill="#fff" transform="matrix(38.557530846 0 0 38.557530846 436.81349915 727.5015036)"/><path d="m.327.018c-.082 0-.149-.035-.2-.105-.052-.071-.077-.162-.077-.274 0-.114.026-.206.077-.275.051-.07.119-.105.203-.105.083 0 .151.035.202.105.052.069.078.16.078.273 0 .115-.026.208-.078.277-.051.069-.12.104-.205.104zm.001-.09c.086 0 .129-.097.129-.289 0-.193-.043-.289-.127-.289s-.126.096-.126.288c0 .193.041.29.124.29z" fill="#fff" transform="matrix(38.557530846 0 0 38.557530846 457.82184929 727.5015036)"/><path d="m.072 0v-.114l.008-.011c.038-.052.078-.095.119-.131l.059-.052c.097-.086.146-.161.146-.226 0-.076-.043-.113-.129-.113-.053 0-.115.017-.185.053v-.106c.074-.027.145-.041.214-.041.077 0 .138.018.184.055.047.036.07.085.07.145 0 .042-.012.081-.034.115-.023.035-.062.075-.119.12l-.049.039c-.068.055-.108.106-.121.153h.32v.114z" fill="#fff" transform="matrix(38.557530846 0 0 38.557530846 478.82603276 727.5015036)"/><path d="m.327.018c-.082 0-.149-.035-.2-.105-.052-.071-.077-.162-.077-.274 0-.114.026-.206.077-.275.051-.07.119-.105.203-.105.083 0 .151.035.202.105.052.069.078.16.078.273 0 .115-.026.208-.078.277-.051.069-.12.104-.205.104zm.001-.09c.086 0 .129-.097.129-.289 0-.193-.043-.289-.127-.289s-.126.096-.126.288c0 .193.041.29.124.29z" fill="#fff" transform="matrix(38.557530846 0 0 38.557530846 499.8343829 727.5015036)"/><path d="m522.57365525807 721.44797125718h6.05353234282v6.05353234282h-6.05353234282z" fill="#fff" stroke-width="38.557530846"/><path d="m.09 0v-.723h.452v.099h-.301v.202h.247v.097h-.247v.222h.324v.103z" fill="#fff" transform="matrix(38.557530846 0 0 38.557530846 96.82572716 773.76820728)"/><path d="m.223 0-.205-.536h.152l.15.387.149-.387h.105l-.207.536z" fill="#fff" transform="matrix(38.557530846 0 0 38.557530846 116.05074254 773.76820728)"/><path d="m.527-.018c-.069.02-.134.03-.195.03-.09 0-.161-.025-.212-.076-.052-.051-.078-.12-.078-.208 0-.083.024-.15.071-.2.047-.051.11-.076.188-.076s.136.024.172.074c.036.049.054.128.054.235h-.333c.01.102.066.153.169.153.048 0 .103-.011.164-.034zm-.335-.303h.193c0-.091-.03-.137-.089-.137-.06 0-.094.046-.104.137z" fill="#fff" transform="matrix(38.557530846 0 0 38.557530846 134.98825769 773.76820728)"/><path d="m.09 0v-.536h.145v.101c.047-.076.108-.113.182-.113.048 0 .086.015.114.045.027.03.041.072.041.124v.379h-.144v-.343c0-.061-.02-.092-.061-.092-.046 0-.09.033-.132.098v.337z" fill="#fff" transform="matrix(38.557530846 0 0 38.557530846 153.64660595 773.76820728)"/><path d="m.367-.003c-.035.01-.062.015-.082.015-.125 0-.188-.058-.188-.176v-.282h-.06v-.09h.06v-.09l.145-.017v.107h.114v.09h-.114v.263c0 .066.027.099.08.099.013 0 .027-.002.045-.007z" fill="#fff" transform="matrix(38.557530846 0 0 38.557530846 175.03412306 773.76820728)"/><path d="m.315.012c-.083 0-.15-.025-.199-.076-.049-.05-.074-.118-.074-.204 0-.087.025-.155.074-.205.05-.05.118-.075.203-.075s.153.025.203.075c.049.05.074.118.074.204 0 .088-.025.157-.075.206-.049.05-.118.075-.206.075zm.003-.09c.083 0 .124-.064.124-.191 0-.058-.011-.104-.033-.138s-.052-.051-.09-.051-.068.017-.09.051-.033.08-.033.139c0 .058.011.104.033.139.021.034.051.051.089.051z" fill="#fff" transform="matrix(38.557530846 0 0 38.557530846 186.72163241 773.76820728)"/><path d="m.09.193v-.729h.145v.101c.037-.076.095-.113.175-.113.065 0 .115.023.152.07.037.048.056.113.056.195 0 .09-.021.162-.063.215-.041.054-.097.08-.167.08-.057 0-.108-.022-.153-.066v.247zm.145-.333c.035.039.072.058.112.058.036 0 .064-.017.085-.051s.032-.08.032-.138c0-.109-.035-.164-.106-.164-.043 0-.084.027-.123.082z" fill="#fff" transform="matrix(38.557530846 0 0 38.557530846 216.18415598 773.76820728)"/><path d="m.353-.058c-.048.047-.1.07-.155.07-.047 0-.085-.014-.114-.043-.029-.028-.044-.066-.044-.111 0-.059.024-.105.071-.137s.115-.048.203-.048h.039v-.049c0-.056-.032-.083-.095-.083-.057 0-.113.015-.171.047v-.099c.065-.025.13-.037.194-.037.141 0 .211.055.211.167v.237c0 .042.013.063.04.063.005 0 .011 0 .019-.002l.004.082c-.031.009-.058.013-.081.013-.06 0-.098-.023-.115-.07zm0-.077v-.109h-.034c-.094 0-.14.029-.14.088 0 .02.006.036.02.05.013.013.03.02.05.02.034 0 .069-.016.104-.049z" fill="#fff" transform="matrix(38.557530846 0 0 38.557530846 237.80083994 773.76820728)"/><path d="m.09 0v-.536h.145v.101c.037-.076.094-.113.171-.113.009 0 .018.001.027.003v.128c-.021-.007-.04-.011-.058-.011-.057 0-.104.029-.14.088v.34z" fill="#fff" transform="matrix(38.557530846 0 0 38.557530846 256.53002159 773.76820728)"/><path d="m.353-.058c-.048.047-.1.07-.155.07-.047 0-.085-.014-.114-.043-.029-.028-.044-.066-.044-.111 0-.059.024-.105.071-.137s.115-.048.203-.048h.039v-.049c0-.056-.032-.083-.095-.083-.057 0-.113.015-.171.047v-.099c.065-.025.13-.037.194-.037.141 0 .211.055.211.167v.237c0 .042.013.063.04.063.005 0 .011 0 .019-.002l.004.082c-.031.009-.058.013-.081.013-.06 0-.098-.023-.115-.07zm0-.077v-.109h-.034c-.094 0-.14.029-.14.088 0 .02.006.036.02.05.013.013.03.02.05.02.034 0 .069-.016.104-.049z" fill="#fff" transform="matrix(38.557530846 0 0 38.557530846 270.12169913 773.76820728)"/><path d="m.367-.003c-.035.01-.062.015-.082.015-.125 0-.188-.058-.188-.176v-.282h-.06v-.09h.06v-.09l.145-.017v.107h.114v.09h-.114v.263c0 .066.027.099.08.099.013 0 .027-.002.045-.007z" fill="#fff" transform="matrix(38.557530846 0 0 38.557530846 297.63005447 773.76820728)"/><path d="m.315.012c-.083 0-.15-.025-.199-.076-.049-.05-.074-.118-.074-.204 0-.087.025-.155.074-.205.05-.05.118-.075.203-.075s.153.025.203.075c.049.05.074.118.074.204 0 .088-.025.157-.075.206-.049.05-.118.075-.206.075zm.003-.09c.083 0 .124-.064.124-.191 0-.058-.011-.104-.033-.138s-.052-.051-.09-.051-.068.017-.09.051-.033.08-.033.139c0 .058.011.104.033.139.021.034.051.051.089.051z" fill="#fff" transform="matrix(38.557530846 0 0 38.557530846 309.31756382 773.76820728)"/><path d="m.428 0v-.101c-.037.075-.096.113-.176.113-.064 0-.115-.023-.151-.071-.037-.047-.056-.112-.056-.194 0-.09.021-.162.063-.215.041-.054.097-.08.167-.08.056 0 .107.022.153.066v-.289h.145v.771zm0-.396c-.035-.039-.072-.059-.112-.059-.036 0-.064.017-.085.052-.021.034-.032.08-.032.137 0 .11.035.165.106.165.043 0 .084-.028.123-.083z" fill="#fff" transform="matrix(38.557530846 0 0 38.557530846 330.00924704 773.76820728)"/><path d="m.353-.058c-.048.047-.1.07-.155.07-.047 0-.085-.014-.114-.043-.029-.028-.044-.066-.044-.111 0-.059.024-.105.071-.137s.115-.048.203-.048h.039v-.049c0-.056-.032-.083-.095-.083-.057 0-.113.015-.171.047v-.099c.065-.025.13-.037.194-.037.141 0 .211.055.211.167v.237c0 .042.013.063.04.063.005 0 .011 0 .019-.002l.004.082c-.031.009-.058.013-.081.013-.06 0-.098-.023-.115-.07zm0-.077v-.109h-.034c-.094 0-.14.029-.14.088 0 .02.006.036.02.05.013.013.03.02.05.02.034 0 .069-.016.104-.049z" fill="#fff" transform="matrix(38.557530846 0 0 38.557530846 351.62176433 773.76820728)"/><path d="m382.59613077614 744.04035099773h5.59084197267v29.72785628227h-5.59084197267z" fill="#fff" stroke-width="38.557530846"/><path d="m.353-.058c-.048.047-.1.07-.155.07-.047 0-.085-.014-.114-.043-.029-.028-.044-.066-.044-.111 0-.059.024-.105.071-.137s.115-.048.203-.048h.039v-.049c0-.056-.032-.083-.095-.083-.057 0-.113.015-.171.047v-.099c.065-.025.13-.037.194-.037.141 0 .211.055.211.167v.237c0 .042.013.063.04.063.005 0 .011 0 .019-.002l.004.082c-.031.009-.058.013-.081.013-.06 0-.098-.023-.115-.07zm0-.077v-.109h-.034c-.094 0-.14.029-.14.088 0 .02.006.036.02.05.013.013.03.02.05.02.034 0 .069-.016.104-.049z" fill="#fff" transform="matrix(38.557530846 0 0 38.557530846 387.73012655 773.76820728)"/><path d="m.105 0v-.446h-.073v-.09h.073v-.039c0-.139.066-.208.198-.208.043 0 .087.006.132.018v.098c-.041-.017-.078-.026-.11-.026-.05 0-.075.038-.075.113v.044h.136v.09h-.136v.446z" fill="#fff" transform="matrix(38.557530846 0 0 38.557530846 415.23431522 773.76820728)"/><path d="m.353-.058c-.048.047-.1.07-.155.07-.047 0-.085-.014-.114-.043-.029-.028-.044-.066-.044-.111 0-.059.024-.105.071-.137s.115-.048.203-.048h.039v-.049c0-.056-.032-.083-.095-.083-.057 0-.113.015-.171.047v-.099c.065-.025.13-.037.194-.037.141 0 .211.055.211.167v.237c0 .042.013.063.04.063.005 0 .011 0 .019-.002l.004.082c-.031.009-.058.013-.081.013-.06 0-.098-.023-.115-.07zm0-.077v-.109h-.034c-.094 0-.14.029-.14.088 0 .02.006.036.02.05.013.013.03.02.05.02.034 0 .069-.016.104-.049z" fill="#fff" transform="matrix(38.557530846 0 0 38.557530846 427.28432486 773.76820728)"/><path d="m.09 0v-.536h.139v.101c.042-.076.103-.113.181-.113.04 0 .073.01.099.029.026.02.042.048.048.084.05-.076.111-.113.182-.113.098 0 .147.054.147.162v.386h-.139v-.339c0-.063-.021-.095-.063-.095-.044 0-.086.031-.127.094v.34h-.139v-.339c0-.064-.021-.096-.064-.096-.042 0-.084.032-.125.095v.34z" fill="#fff" transform="matrix(38.557530846 0 0 38.557530846 446.01767318 773.76820728)"/><path d="m.09 0v-.536h.145v.536zm0-.626v-.121h.145v.121z" fill="#fff" transform="matrix(38.557530846 0 0 38.557530846 479.47186661 773.76820728)"/><path d="m491.54621793614 744.04035099773h5.59084197267v29.72785628227h-5.59084197267z" fill="#fff" stroke-width="38.557530846"/><path d="m.09 0v-.536h.145v.536zm0-.626v-.121h.145v.121z" fill="#fff" transform="matrix(38.557530846 0 0 38.557530846 496.68021371 773.76820728)"/><path d="m.353-.058c-.048.047-.1.07-.155.07-.047 0-.085-.014-.114-.043-.029-.028-.044-.066-.044-.111 0-.059.024-.105.071-.137s.115-.048.203-.048h.039v-.049c0-.056-.032-.083-.095-.083-.057 0-.113.015-.171.047v-.099c.065-.025.13-.037.194-.037.141 0 .211.055.211.167v.237c0 .042.013.063.04.063.005 0 .011 0 .019-.002l.004.082c-.031.009-.058.013-.081.013-.06 0-.098-.023-.115-.07zm0-.077v-.109h-.034c-.094 0-.14.029-.14.088 0 .02.006.036.02.05.013.013.03.02.05.02.034 0 .069-.016.104-.049z" fill="#fff" transform="matrix(38.557530846 0 0 38.557530846 505.28022059 773.76820728)"/><path d="m525.74865779807 767.71467493718h6.05353234282v6.05353234282h-6.05353234282z" fill="#fff" stroke-width="38.557530846"/><path d="m.265 0v-.646h-.256v-.077h.615v.077h-.256v.646z" fill="#ffdd31" transform="matrix(133.073023125 0 0 133.073023125 46.60485365 195.79691157)"/><path d="m.485-.017c-.065.019-.12.029-.166.029-.078 0-.142-.026-.191-.078s-.074-.119-.074-.202c0-.08.022-.146.065-.197.044-.052.099-.077.167-.077.064 0 .114.022.149.068.035.045.052.11.052.194v.03h-.335c.014.126.076.189.185.189.04 0 .09-.011.148-.032zm-.328-.305h.234c0-.099-.037-.148-.111-.148s-.115.049-.123.148z" fill="#ffdd31" transform="matrix(133.073023125 0 0 133.073023125 127.53825173 195.79691157)"/><path d="m.096 0v-.53h.096v.099c.038-.074.094-.111.166-.111.01 0 .02.001.031.002v.09c-.016-.005-.031-.008-.044-.008-.061 0-.112.036-.153.108v.35z" fill="#ffdd31" transform="matrix(133.073023125 0 0 133.073023125 198.46330847 195.79691157)"/><path d="m.096 0v-.53h.096v.099c.038-.074.094-.111.166-.111.01 0 .02.001.031.002v.09c-.016-.005-.031-.008-.044-.008-.061 0-.112.036-.153.108v.35z" fill="#ffdd31" transform="matrix(133.073023125 0 0 133.073023125 249.69668279 195.79691157)"/><path d="m.37-.067c-.058.053-.113.079-.167.079-.044 0-.08-.014-.109-.041-.029-.028-.044-.062-.044-.104 0-.058.025-.103.073-.134.049-.031.119-.046.21-.046h.022v-.064c0-.062-.031-.093-.094-.093-.051 0-.106.016-.165.047v-.079c.065-.027.126-.04.182-.04.06 0 .103.013.131.04.029.027.043.068.043.125v.24c0 .055.017.082.05.082.005 0 .011 0 .019-.002l.007.054c-.022.01-.046.015-.072.015-.045 0-.074-.026-.086-.079zm-.015-.053v-.137l-.032-.001c-.052 0-.095.01-.128.03-.032.02-.049.047-.049.079 0 .023.009.043.025.059s.036.024.059.024c.041 0 .082-.018.125-.054z" fill="#ffdd31" transform="matrix(133.073023125 0 0 133.073023125 300.93422378 195.79691157)"/></g></svg>