<svg xmlns="http://www.w3.org/2000/svg" viewBox="0 0 486.89 156.35"><defs><style>.cls-1,.cls-33,.cls-8{fill:none;}.cls-1,.cls-8{stroke:#80c41c;}.cls-1{stroke-width:3px;}.cls-2{fill:#80c41c;}.cls-22,.cls-3{fill:#fff;}.cls-4{font-size:10px;font-family:ITCAvantGardeStd-Bk, ITC Avant Garde Gothic Std;}.cls-5{letter-spacing:-0.03em;}.cls-6{letter-spacing:-0.04em;}.cls-7{letter-spacing:0em;}.cls-9{letter-spacing:-0.02em;}.cls-10{letter-spacing:-0.03em;}.cls-11{letter-spacing:-0.04em;}.cls-12{letter-spacing:-0.03em;}.cls-13{letter-spacing:-0.04em;}.cls-14{letter-spacing:-0.03em;}.cls-15{letter-spacing:-0.04em;}.cls-16{letter-spacing:-0.04em;}.cls-17{letter-spacing:-0.03em;}.cls-18,.cls-24,.cls-31{fill:#0390bf;}.cls-19,.cls-22,.cls-24{font-size:19px;}.cls-19{fill:#99d0e4;}.cls-19,.cls-22,.cls-24,.cls-25,.cls-27,.cls-31{font-family:ITCAvantGardeStd-Bold, ITC Avant Garde Gothic Std;font-weight:700;}.cls-20{letter-spacing:0.01em;}.cls-21{letter-spacing:0.04em;}.cls-23{letter-spacing:0.01em;}.cls-25,.cls-27,.cls-31{font-size:12px;}.cls-26{letter-spacing:0.01em;}.cls-27,.cls-30{letter-spacing:0.04em;}.cls-28{letter-spacing:0.01em;}.cls-29{letter-spacing:0em;}.cls-31{letter-spacing:0.01em;}.cls-32{letter-spacing:0em;}.cls-33{stroke:#0390bf;}</style></defs><title>Capa 2</title><g id="Capa_2" data-name="Capa 2"><g id="Capa_2-2" data-name="Capa 2"><polyline class="cls-1" points="384.02 16.56 246.19 16.56 246.19 30.3"/><polygon class="cls-2" points="246.19 35.5 253.58 27.55 238.79 27.55 246.19 35.5"/><polyline class="cls-1" points="133.81 133.75 252.61 133.75 252.61 104.11"/><polygon class="cls-2" points="252.61 98.91 245.21 106.86 260.01 106.86 252.61 98.91"/><line class="cls-1" x1="384.02" y1="74.93" x2="240.76" y2="74.93"/><polygon class="cls-2" points="235.55 74.93 243.51 82.33 243.51 67.54 235.55 74.93"/><rect class="cls-3" x="384.52" y="0.5" width="71.83" height="29.94"/><text class="cls-4" transform="translate(390.82 13.17)">Le qui<tspan class="cls-5" x="28.99" y="0">t</tspan><tspan x="31.83" y="0">amos </tspan></text><text class="cls-4" transform="translate(399.22 25.17)">los ce<tspan class="cls-6" x="28.62" y="0">r</tspan><tspan class="cls-7" x="31.43" y="0">os</tspan></text><rect class="cls-8" x="384.52" y="0.5" width="71.83" height="29.94"/><rect class="cls-3" x="384.52" y="54.9" width="101.87" height="40.2"/><text class="cls-4" transform="translate(393.42 66.7)">Multiplicamos los </text><text class="cls-4" transform="translate(389.42 78.7)"><tspan class="cls-9">n</tspan><tspan x="6.22" y="0">úme</tspan><tspan class="cls-6" x="28.45" y="0">r</tspan><tspan class="cls-7" x="31.26" y="0">os di</tspan><tspan class="cls-10" x="54.15" y="0">f</tspan><tspan x="56.68" y="0">e</tspan><tspan class="cls-11" x="62.96" y="0">r</tspan><tspan x="65.81" y="0">en</tspan><tspan class="cls-12" x="78.47" y="0">t</tspan><tspan x="81.32" y="0">es </tspan></text><text class="cls-4" transform="translate(418.93 90.7)">a ce<tspan class="cls-13" x="22.3" y="0">r</tspan><tspan class="cls-14" x="25.11" y="0">o</tspan><tspan x="31.34" y="0">.</tspan></text><rect class="cls-8" x="384.52" y="54.9" width="101.87" height="40.2"/><rect class="cls-3" x="0.5" y="108.85" width="133.8" height="47"/><text class="cls-4" transform="translate(4.95 130.05)">Ag<tspan class="cls-15" x="13.92" y="0">r</tspan><tspan x="16.77" y="0">egamos los ce</tspan><tspan class="cls-16" x="88.75" y="0">r</tspan><tspan x="91.55" y="0">os que </tspan></text><text class="cls-4" transform="translate(15.18 142.05)">qui<tspan class="cls-12" x="15.39" y="0">t</tspan><tspan x="18.24" y="0">amos al principi</tspan><tspan class="cls-17" x="96.52" y="0">o</tspan><tspan x="102.74" y="0">.</tspan></text><rect class="cls-8" x="0.5" y="108.85" width="133.8" height="47"/><rect class="cls-18" x="157.4" y="31.89" width="148.47" height="27.34"/><text class="cls-19" transform="translate(186.3 52.59)"><tspan class="cls-20">2</tspan><tspan x="11.91" y="0"> </tspan></text><text class="cls-19" transform="translate(204.88 52.59)">×</text><text class="cls-19" transform="translate(216.47 52.59)"><tspan class="cls-21"> </tspan><tspan x="6.65" y="0">1</tspan></text><text class="cls-22" transform="translate(235.06 52.59)"><tspan class="cls-23">0</tspan><tspan x="11.91" y="0">0</tspan></text><text class="cls-24" transform="translate(258.92 52.59)"> </text><text class="cls-19" transform="translate(265.57 52.59)">=</text><text class="cls-25" transform="translate(175.41 79.28)"><tspan class="cls-26">2</tspan><tspan x="7.52" y="0"> </tspan></text><text class="cls-25" transform="translate(187.14 79.28)">×</text><text class="cls-27" transform="translate(194.46 79.28)"> <tspan class="cls-26" x="4.2" y="0">1</tspan><tspan class="cls-21" x="11.72" y="0"> </tspan><tspan class="cls-28" x="15.92" y="0">=</tspan><tspan x="23.24" y="0"> </tspan><tspan class="cls-29" x="27.44" y="0">2</tspan></text><text class="cls-25" transform="translate(175.41 95.28)"><tspan class="cls-26">2</tspan><tspan x="7.52" y="0"> </tspan></text><text class="cls-25" transform="translate(187.14 95.28)">×</text><text class="cls-25" transform="translate(194.46 95.28)"><tspan class="cls-30"> </tspan><tspan class="cls-26" x="4.2" y="0">100</tspan><tspan class="cls-30" x="26.77" y="0"> </tspan><tspan class="cls-28" x="30.97" y="0">=</tspan><tspan class="cls-21" x="38.29" y="0"> </tspan><tspan x="42.49" y="0">2</tspan></text><text class="cls-31" transform="translate(244.53 95.28)">0<tspan class="cls-32" x="7.52" y="0">0</tspan></text><polygon class="cls-33" points="157.9 53.09 157.9 53.09 157.9 112.59 305.37 112.59 305.37 53.09 157.9 53.09"/></g></g></svg>