<?xml version="1.0" encoding="UTF-8" standalone="no"?>
<!DOCTYPE svg PUBLIC "-//W3C//DTD SVG 1.1//EN" "http://www.w3.org/Graphics/SVG/1.1/DTD/svg11.dtd">
<svg width="100%" height="100%" viewBox="0 0 1006 925" version="1.1" xmlns="http://www.w3.org/2000/svg" xmlns:xlink="http://www.w3.org/1999/xlink" xml:space="preserve" xmlns:serif="http://www.serif.com/" style="fill-rule:evenodd;clip-rule:evenodd;stroke-linejoin:round;stroke-miterlimit:2;">
    <g transform="matrix(1,0,0,1,-165,-670)">
        <g>
            <g transform="matrix(4.16667,0,0,4.16667,588.9,1092.2)">
                <path d="M0,19.499C-1.36,20.682 -2.525,20.413 -3.764,20.053C-4.199,19.926 -4.923,20.157 -5.26,20.495C-6.356,21.595 -7.369,22.792 -8.337,24.016C-8.622,24.374 -8.796,24.952 -8.776,25.42C-8.678,27.781 -8.205,30.169 -8.421,32.491C-8.696,35.438 -7.477,37.847 -6.551,40.395C-5.062,44.496 -3.497,48.568 -2.043,52.682C-1.522,54.155 -1.207,55.708 -0.844,57.236C-0.651,58.05 -0.852,58.457 -1.841,58.578C-2.813,58.697 -3.705,59.393 -4.677,59.656C-6.975,60.277 -9.295,60.812 -11.615,61.343C-13.293,61.727 -13.33,61.74 -12.888,63.531C-12.284,65.985 -11.558,68.414 -11.08,70.895C-10.122,75.857 -10.078,80.828 -11.508,85.727C-11.811,86.763 -11.742,87.499 -10.84,88.249C-9.604,89.277 -9.645,90.84 -9.875,92.279C-10.074,93.519 -10.38,94.797 -10.932,95.903C-11.573,97.191 -11.21,97.777 -10.09,98.358C-6.556,100.19 -3.533,102.753 -0.795,105.656C0.381,106.904 1.468,108.292 2.352,109.77C3.943,112.435 3.566,116.164 -0.069,118.058C-3.332,119.757 -6.764,120.424 -10.281,120.589C-14.019,120.764 -17.787,120.651 -21.521,120.372C-23.702,120.208 -25.844,119.473 -28.004,118.994C-29.911,118.571 -31.828,118.193 -33.721,117.711C-35.763,117.191 -37.427,116.078 -38.742,114.322C-39.142,113.789 -40.014,113.386 -40.686,113.359C-43.911,113.236 -45.512,111.477 -44.976,108.124C-44.479,105.027 -43.712,101.977 -43.082,98.901C-42.821,97.632 -42.487,96.419 -43.531,95.217C-44.935,93.602 -45.036,91.659 -44.25,89.678C-43.559,87.937 -42.833,86.209 -42.125,84.474C-41.409,82.716 -40.11,81.667 -38.328,81.299C-37.405,81.107 -37.033,80.581 -36.775,79.684C-35.304,74.562 -33.764,69.46 -32.26,64.348C-32.068,63.696 -31.949,63.022 -31.773,62.263C-32.352,62.133 -32.785,61.895 -33.155,61.975C-36.512,62.692 -39.563,61.137 -42.742,60.602C-44.302,60.339 -45.793,59.608 -47.299,59.043C-48.092,58.745 -48.405,58.189 -48.078,57.275C-47.244,54.941 -46.585,52.533 -45.638,50.251C-43.599,45.338 -41.545,40.425 -39.242,35.642C-38.335,33.759 -37.583,32.514 -39.269,30.496C-40.857,28.596 -40.828,25.841 -40.665,23.313C-40.602,22.33 -40.457,21.474 -41.454,20.767C-42.261,20.194 -42.399,19.176 -41.868,18.276C-40.125,15.327 -38.389,12.372 -36.545,9.49C-35.377,7.665 -33.993,5.988 -32.765,4.202C-32.169,3.336 -31.713,2.371 -32.404,1.218C-32.807,1.28 -33.232,1.29 -33.622,1.418C-35.032,1.882 -36.184,1.315 -37.07,0.313C-37.924,-0.652 -38.52,-0.773 -39.404,0.257C-41.455,2.65 -43.917,4.478 -46.999,5.126C-48.984,5.543 -51.027,5.673 -53.043,5.936C-53.284,5.968 -53.521,6.036 -53.966,6.131C-52.997,7.233 -52.125,8.204 -51.277,9.195C-48.675,12.234 -48.014,15.871 -48.389,19.753C-48.577,21.696 -49.044,23.566 -50.109,25.293C-51.205,27.069 -52.438,27.739 -54.349,26.928C-56.162,26.158 -56.514,26.221 -57.187,28.362C-58.492,32.514 -56.025,35.395 -52.789,36.785C-52.53,36.895 -52.12,36.63 -51.767,36.535C-50.868,37.772 -50.936,38.137 -52.235,38.704C-53.676,39.333 -55.092,40.049 -56.577,40.542C-61.472,42.169 -65.807,40.867 -69.592,37.513C-71.357,35.95 -72.161,33.742 -72.575,31.403C-72.649,30.983 -72.726,30.564 -72.805,30.126C-73.945,31.228 -74.919,32.388 -76.093,33.26C-78.837,35.296 -84.333,34.882 -87.199,32.65C-88.094,31.954 -89.181,31.526 -90.151,30.925C-90.434,30.75 -90.615,30.401 -90.843,30.132C-90.544,29.96 -90.261,29.703 -89.941,29.639C-89.578,29.564 -89.09,29.519 -88.816,29.708C-87.248,30.787 -86.017,29.826 -84.859,28.976C-84.431,28.66 -84.041,27.782 -84.154,27.286C-84.486,25.826 -84.76,24.163 -85.629,23.058C-88.119,19.891 -90.803,16.871 -93.571,13.955C-97.878,9.419 -100.298,3.974 -101.226,-2.209C-102.091,-7.98 -101.612,-13.734 -100.008,-19.279C-98.916,-23.053 -96.499,-26.075 -92.988,-27.924C-92.082,-28.401 -91.767,-29.003 -91.823,-30C-91.904,-31.441 -91.648,-32.768 -90.567,-33.863C-90.279,-34.155 -90.25,-34.84 -90.286,-35.33C-90.64,-40.175 -86.716,-42.299 -82.987,-41.065C-82.166,-40.794 -81.994,-41.17 -81.695,-41.808C-80.091,-45.233 -78.705,-48.814 -76.71,-51.986C-74.738,-55.122 -72.272,-57.971 -69.765,-60.694C-66.897,-63.81 -63.756,-66.662 -60.133,-68.864C-58.643,-69.77 -56.821,-70.291 -56.054,-72.075C-55.183,-74.102 -53.689,-75.555 -52.283,-77.147C-47.897,-82.117 -40.376,-82.216 -35.818,-77.647C-34.025,-75.85 -32.849,-73.582 -32.403,-71.003C-32.226,-69.979 -31.754,-69.393 -30.806,-69.015C-24.771,-66.611 -19.311,-63.134 -14.036,-59.33C-13.195,-58.724 -12.484,-58.52 -11.483,-59.084C-10.294,-59.754 -8.995,-59.641 -7.92,-58.689C-6.956,-57.835 -7.133,-56.618 -7.447,-55.612C-8.016,-53.789 -7.498,-52.319 -6.654,-50.75C-5.047,-47.762 -3.302,-44.799 -2.158,-41.617C-1.048,-38.527 -0.393,-35.21 0.057,-31.933C0.8,-26.525 -0.653,-21.43 -2.679,-16.489C-2.745,-16.327 -2.81,-16.162 -2.852,-15.993C-2.87,-15.919 -2.828,-15.83 -2.758,-15.443C-1.808,-16.169 -0.984,-16.859 -0.102,-17.457C1.221,-18.354 1.886,-19.281 1.759,-21.198C1.304,-28.07 1.219,-34.968 0.917,-41.853C0.704,-46.719 0.322,-51.577 0.093,-56.442C-0.196,-62.58 -0.412,-68.722 -0.65,-74.862C-0.826,-79.417 -0.974,-83.972 -1.158,-88.525C-1.294,-91.894 -1.476,-95.26 -1.621,-98.628C-1.656,-99.448 -1.626,-100.272 -1.626,-101.265C0.138,-101.161 1.736,-101.052 3.336,-100.978C7.967,-100.76 12.599,-100.52 17.232,-100.361C20.125,-100.262 23.023,-100.255 25.918,-100.273C30.649,-100.305 35.38,-100.482 40.11,-100.433C49.955,-100.331 52.477,-100.079 62.322,-99.97C69.575,-99.889 76.829,-99.952 84.083,-99.921C95.385,-99.872 106.688,-99.749 117.99,-99.753C124.722,-99.756 131.453,-99.96 138.186,-100.002C138.585,-100.004 139.242,-99.428 139.333,-99.015C139.498,-98.276 139.285,-97.457 139.297,-96.673C139.368,-92.283 139.526,-87.894 139.523,-83.504C139.521,-79.22 139.359,-74.937 139.27,-70.652C139.25,-69.686 139.243,-68.719 139.228,-67.752C139.138,-61.821 139.021,-55.891 138.963,-49.959C138.854,-38.529 138.808,-27.1 138.67,-15.67C138.621,-11.55 138.349,-7.433 138.253,-3.313C138.215,-1.694 138.454,-0.071 138.439,1.549C138.384,7.525 138.304,13.501 138.172,19.476C138.122,21.709 137.832,23.936 137.782,26.17C137.733,28.348 137.885,30.528 137.886,32.707C137.889,35.46 137.808,38.213 137.804,40.966C137.802,42.188 137.972,43.414 137.939,44.634C137.822,49.023 137.593,53.409 137.516,57.799C137.423,63.061 137.422,68.324 137.416,73.587C137.404,83.338 137.429,93.089 137.411,102.84C137.408,104.901 137.25,106.963 137.238,109.024C137.232,110.14 136.794,110.645 135.718,110.638C132.445,110.616 129.17,110.64 125.897,110.599C122.625,110.557 119.354,110.394 116.082,110.395C106.237,110.401 96.392,110.495 86.547,110.489C80.458,110.485 74.366,110.435 68.279,110.273C61.254,110.087 61.556,109.708 54.532,109.506C51.124,109.407 47.709,109.521 44.298,109.538C41.067,109.553 37.835,109.605 34.604,109.571C29.089,109.513 23.573,109.438 18.059,109.296C13.463,109.178 8.87,108.939 4.274,108.785C3.398,108.756 2.946,108.445 2.893,107.486C2.784,105.52 2.543,103.559 2.471,101.591C2.173,93.425 1.914,85.258 1.647,77.091C1.392,69.24 1.116,61.39 0.902,53.538C0.675,45.24 0.513,36.941 0.321,28.643C0.264,26.183 0.204,23.723 0.136,21.264C0.123,20.797 0.065,20.331 0,19.499" style="fill:rgb(35,31,32);fill-rule:nonzero;"/>
            </g>
            <g transform="matrix(4.16667,0,0,4.16667,1128.26,1510.41)">
                <path d="M0,-190.855C-0.052,-189.839 -0.138,-189.101 -0.12,-188.365C0.094,-179.812 0.362,-171.259 0.537,-162.706C0.681,-155.676 0.727,-148.645 0.795,-141.614C0.804,-140.698 0.656,-139.782 0.63,-138.864C0.599,-137.784 0.064,-137.491 -0.931,-137.48C-4.326,-137.442 -7.721,-137.338 -11.115,-137.216C-14.261,-137.104 -17.405,-136.835 -20.551,-136.815C-24.546,-136.789 -28.542,-136.981 -32.538,-137.011C-37.796,-137.051 -43.056,-137.007 -48.314,-137.035C-50.485,-137.045 -52.656,-137.172 -54.828,-137.202C-58.695,-137.254 -62.563,-137.263 -66.431,-137.308C-71.461,-137.366 -69.169,-137.455 -74.2,-137.473C-74.533,-137.474 -75.015,-137.065 -75.168,-136.723C-75.411,-136.18 -75.564,-135.525 -75.528,-134.931C-75.388,-132.621 -74.565,-131.765 -72.483,-132.432C-71.995,-132.588 -71.516,-132.788 -71.019,-132.905C-69.146,-133.349 -68.636,-132.978 -68.046,-131.075C-67.923,-130.677 -67.361,-130.186 -66.973,-130.157C-65.496,-130.048 -71.33,-130.107 -69.846,-130.112C-65.127,-130.127 -60.408,-130.165 -55.689,-130.162C-45.686,-130.154 -35.683,-130.182 -25.68,-130.087C-17.644,-130.011 -9.608,-129.77 -1.572,-129.621C-0.827,-129.607 -0.495,-129.389 -0.534,-128.542C-0.627,-126.531 -0.687,-124.514 -0.668,-122.5C-0.629,-118.533 -0.456,-114.565 -0.47,-110.599C-0.488,-105.695 -0.684,-100.792 -0.723,-95.887C-0.764,-90.701 -0.737,-85.513 -0.691,-80.326C-0.661,-76.95 -0.553,-73.575 -0.458,-70.2C-0.434,-69.33 -0.671,-68.714 -1.612,-68.659C-3.31,-68.559 -5.008,-68.424 -6.708,-68.404C-9.934,-68.364 -13.162,-68.369 -16.389,-68.399C-23.877,-68.47 -31.365,-68.588 -38.854,-68.647C-43.772,-68.685 -48.691,-68.652 -53.61,-68.651C-57.633,-68.649 -61.656,-68.641 -65.679,-68.645C-67.881,-68.647 -62.762,-68.673 -64.964,-68.675C-68.969,-68.68 -72.975,-68.699 -76.98,-68.67C-82.649,-68.63 -88.319,-68.497 -93.988,-68.515C-97.092,-68.525 -100.194,-68.799 -103.299,-68.891C-107.719,-69.022 -112.14,-69.091 -116.561,-69.194C-116.855,-69.201 -117.147,-69.291 -117.443,-69.308C-118.353,-69.364 -118.594,-69.856 -118.609,-70.771C-118.676,-74.631 -118.821,-78.491 -118.946,-82.35C-119.157,-88.883 -119.428,-95.414 -119.563,-101.948C-119.619,-104.667 -119.382,-107.391 -119.302,-110.115C-119.288,-110.591 -119.392,-111.072 -119.473,-111.848C-122.317,-109.584 -124.911,-107.536 -127.476,-105.449C-127.694,-105.272 -127.844,-104.834 -127.817,-104.536C-127.609,-102.15 -127.542,-99.728 -127.066,-97.397C-126.052,-92.427 -126.637,-87.649 -128.148,-82.909C-128.291,-82.463 -128.312,-81.958 -128.302,-81.482C-128.239,-78.281 -128.128,-75.081 -128.079,-71.879C-127.979,-65.294 -127.949,-58.709 -127.813,-52.126C-127.707,-47.033 -127.51,-41.942 -127.304,-36.852C-127.084,-31.416 -126.781,-25.982 -126.558,-20.545C-126.266,-13.45 -126.038,-6.351 -125.737,0.745C-125.661,2.538 -125.468,4.332 -125.199,6.105C-125.142,6.482 -124.539,7.032 -124.159,7.057C-119.189,7.388 -114.217,7.706 -109.24,7.892C-104.826,8.057 -100.406,8.089 -95.989,8.122C-82.772,8.219 -76.876,8.055 -63.669,8.885C-59.254,9.163 -54.81,8.929 -50.38,8.971C-45.308,9.02 -40.236,9.164 -35.164,9.174C-31.073,9.183 -26.981,9.041 -22.89,8.995C-20.547,8.967 -18.204,8.979 -15.861,9.002C-11.173,9.048 -6.486,9.096 -1.8,9.18C0.202,9.216 2.203,9.429 4.202,9.404C6.247,9.377 6.602,8.916 6.687,6.805C6.766,4.832 6.904,2.858 6.917,0.883C6.953,-5.044 6.954,-10.973 6.943,-16.901C6.937,-20.328 6.824,-23.754 6.861,-27.18C6.971,-37.501 7.125,-47.821 7.271,-58.141C7.419,-68.68 7.593,-79.218 7.723,-89.757C7.782,-94.543 7.709,-99.332 7.796,-104.117C7.9,-109.869 8.183,-115.617 8.263,-121.369C8.461,-135.605 8.578,-149.842 8.748,-164.079C8.799,-168.421 8.988,-172.764 8.987,-177.107C8.987,-183.699 8.875,-190.29 8.813,-196.881C8.788,-199.409 8.791,-199.409 6.435,-199.314C6.179,-199.304 5.923,-199.305 5.667,-199.305C0.994,-199.298 -3.679,-199.322 -8.352,-199.276C-11.405,-199.247 -14.458,-199.065 -17.512,-199.044C-23.087,-199.006 -28.664,-198.975 -34.238,-199.063C-37.961,-199.122 -41.679,-199.437 -45.402,-199.552C-47.685,-199.623 -49.973,-199.549 -52.259,-199.507C-55.216,-199.454 -58.173,-199.344 -61.131,-199.302C-63.218,-199.273 -65.306,-199.323 -67.394,-199.325C-73.733,-199.33 -72.752,-199.272 -79.091,-199.352C-82.866,-199.4 -86.637,-199.744 -90.413,-199.798C-93.686,-199.846 -96.962,-199.604 -100.236,-199.616C-107.295,-199.642 -114.354,-199.722 -121.411,-199.837C-123.826,-199.877 -126.238,-200.089 -128.651,-200.226C-129.676,-200.284 -130.189,-199.953 -130.123,-198.732C-129.951,-195.575 -129.929,-192.409 -129.789,-189.25C-129.515,-183.071 -129.18,-176.895 -128.912,-170.716C-128.737,-166.682 -128.733,-162.638 -128.48,-158.611C-128.078,-152.215 -127.439,-145.835 -127.076,-139.439C-126.757,-133.83 -126.683,-128.207 -126.486,-122.59C-126.466,-122.007 -126.343,-121.427 -126.231,-120.563C-124.214,-122.235 -122.503,-123.811 -120.631,-125.147C-119.441,-125.996 -119.078,-127.071 -119.104,-128.387C-119.167,-131.594 -119.287,-134.801 -119.383,-138.008C-119.447,-140.155 -119.996,-141.949 -121.483,-143.701C-123.566,-146.152 -125.146,-149.062 -126.9,-151.804C-127.436,-152.642 -127.476,-153.553 -127.131,-154.561C-125.909,-158.131 -123.929,-161.206 -121.037,-163.46C-119.499,-164.66 -118.972,-165.896 -119.03,-167.766C-119.257,-174.962 -119.407,-182.161 -119.555,-189.359C-119.604,-191.792 -118.874,-192.57 -116.503,-192.636C-112.254,-192.755 -108.004,-192.889 -103.754,-192.901C-99.578,-192.913 -95.402,-192.768 -91.225,-192.713C-87.601,-192.666 -83.975,-192.658 -80.351,-192.614C-78.184,-192.587 -76.017,-192.486 -73.851,-192.49C-71.557,-192.494 -69.261,-192.687 -66.971,-192.613C-61.313,-192.432 -62.981,-192.096 -57.323,-191.917C-52.563,-191.765 -47.798,-191.808 -43.04,-191.655C-36.313,-191.438 -29.59,-191.047 -22.863,-190.865C-16.299,-190.686 -9.732,-190.663 -3.166,-190.604C-2.163,-190.594 -1.158,-190.758 0,-190.855" style="fill:white;fill-rule:nonzero;"/>
            </g>
            <g transform="matrix(4.16667,0,0,4.16667,513.518,942.657)">
                <path d="M0,3.061L0.223,2.721C0.652,2.827 1.082,2.929 1.511,3.037C2.614,3.313 3.717,3.815 4.819,3.816C6.371,3.816 7.934,3.512 9.47,3.216C11.686,2.79 13.662,1.815 15.343,0.22C15.967,-0.371 16.204,-0.909 15.972,-1.837C14.815,-6.483 12.673,-10.67 10.285,-14.71C9.306,-16.367 8.655,-17.854 9.428,-19.736C9.554,-20.044 9.535,-20.428 9.536,-20.777C9.542,-21.968 8.724,-22.616 7.622,-22.287C7.339,-22.203 7.052,-22.074 6.814,-21.897C5.779,-21.127 4.919,-21.411 3.935,-22.13C1.717,-23.751 -0.509,-25.387 -2.874,-26.759C-6.089,-28.626 -9.499,-30.139 -12.707,-32.017C-15.136,-33.44 -16.862,-33.116 -19.065,-31.224C-24.49,-26.563 -25.144,-20.326 -22.756,-14.243C-21.595,-11.286 -20.24,-8.397 -20.014,-5.126C-19.669,-0.152 -20.12,4.582 -23.922,8.21C-25.122,9.356 -25.201,10.402 -24.696,11.897C-23.605,15.122 -23.197,18.428 -23.931,21.847C-24.236,23.273 -24.869,23.895 -26.277,23.801C-27.853,23.697 -28.969,24.577 -29.745,25.873C-32.205,29.99 -29.729,35.441 -25.086,36.205C-23.284,36.501 -20.957,35.059 -20.459,33.416C-20.159,32.429 -19.823,31.427 -19.326,30.537C-18.873,29.726 -19.148,29.452 -19.837,29.2C-22.077,28.381 -23.698,28.989 -24.958,31.062C-25.125,31.337 -25.574,31.432 -25.893,31.61C-25.936,31.257 -26.125,30.831 -25.999,30.564C-25.241,28.972 -24.038,27.747 -22.263,27.873C-20.6,27.991 -18.934,28.47 -17.332,28.994C-14.749,29.837 -12.263,31.036 -9.646,31.709C-8.284,32.06 -6.729,31.611 -5.261,31.52C-4.625,31.481 -3.99,31.436 -3.354,31.394C-2.552,31.021 -1.904,30.235 -1.113,29.656C1.335,27.862 3.799,26.08 6.344,24.438C7.114,23.941 8.46,23.416 9.039,23.773C10.489,24.665 11.24,24.033 12.208,23.113C12.874,22.48 13.673,22.062 13.422,20.897C13.36,20.609 13.597,20.232 13.743,19.918C15.623,15.89 16.952,11.687 17.11,7.199C17.183,5.139 16.867,3.066 16.719,0.871C16.249,1.034 16.056,1.043 15.945,1.147C13.817,3.118 11.206,3.958 8.497,4.601C5.863,5.226 3.272,5.399 0.818,3.956C0.488,3.761 0.27,3.365 0,3.061" style="fill:white;fill-rule:nonzero;"/>
            </g>
            <g transform="matrix(4.16667,0,0,4.16667,825.369,712.913)">
                <path d="M0,52.383C0.598,52.506 0.825,52.588 1.055,52.594C3.994,52.672 4.412,52.849 4.356,50.955C4.131,43.28 3.783,35.606 3.72,27.93C3.669,21.696 3.977,15.461 4.095,9.227C4.133,7.239 4.26,6.927 6.114,6.496C9.807,5.64 13.553,5.664 17.299,5.987C19.285,6.158 21.26,6.457 23.247,6.598C23.609,6.624 24.314,6.193 24.333,5.932C24.436,4.501 24.425,3.054 24.327,1.621C24.307,1.332 23.755,0.862 23.432,0.847C19.02,0.635 14.605,0.46 10.189,0.333C7.292,0.25 4.392,0.289 1.494,0.217C-2.662,0.113 0.505,-0.092 -3.651,-0.156C-6.401,-0.199 -9.155,0.006 -11.906,-0.041C-14.54,-0.086 -17.171,-0.411 -19.805,-0.434C-23.281,-0.466 -26.76,-0.355 -30.236,-0.247C-35.084,-0.096 -39.932,0.092 -44.777,0.324C-45.149,0.343 -45.772,0.806 -45.812,1.123C-45.968,2.37 -46.023,3.648 -45.957,4.904C-45.831,7.295 -45.51,9.676 -45.428,12.067C-45.329,14.951 -45.427,17.843 -45.374,20.731C-45.345,22.27 -45.175,23.806 -45.059,25.494C-36.172,20.618 -27.387,16.067 -18.058,12.815C-17.164,14.327 -16.379,15.776 -15.485,17.149C-12.69,21.444 -9.85,25.706 -7.035,29.987C-3.701,35.059 -0.417,40.165 2.972,45.196C4.617,47.638 4.317,49.645 1.836,51.196C1.316,51.521 0.806,51.862 0,52.383" style="fill:white;fill-rule:nonzero;"/>
            </g>
            <g transform="matrix(4.16667,0,0,4.16667,346.426,1112.82)">
                <path d="M0,-73.093C-0.116,-73.196 -0.231,-73.299 -0.347,-73.403C-1.347,-72.775 -2.446,-72.266 -3.33,-71.494C-5.92,-69.235 -8.389,-66.828 -10.971,-64.558C-14.499,-61.456 -17.068,-57.592 -19.207,-53.44C-20.806,-50.337 -22.171,-47.165 -22.995,-43.637C-23.992,-39.366 -24.504,-35.168 -23.823,-30.908C-23.144,-26.668 -21.763,-22.599 -19.62,-18.864C-18.755,-17.357 -17.837,-15.877 -16.878,-14.432C-14.461,-10.788 -11.659,-7.581 -8.041,-5.073C-5.464,-3.287 -2.839,-1.748 0.123,-0.853C3.97,0.31 7.801,-0.072 11.558,-1.297C12.71,-1.673 13.758,-2.392 14.854,-2.953C14.812,-3.107 14.77,-3.261 14.727,-3.414C14.386,-3.548 14.054,-3.721 13.703,-3.808C10.307,-4.647 7.718,-8.509 8.169,-12.081C8.62,-15.651 10.508,-17.864 13.434,-18.026C14.425,-18.08 14.789,-18.523 14.991,-19.376C15.816,-22.871 15.3,-26.257 14.141,-29.566C14.047,-29.832 13.327,-30.098 12.996,-30.003C11.894,-29.688 10.843,-29.186 9.759,-28.795C7.228,-27.883 4.738,-28.054 2.328,-29.238C-0.789,-30.766 -2.941,-33.316 -4.631,-36.34C-5.463,-37.828 -5.423,-37.947 -3.958,-38.707C-2.165,-39.64 -0.878,-41.071 -0.859,-43.19C-0.836,-45.814 -1.043,-48.444 -1.244,-51.064C-1.468,-53.99 -1.962,-56.905 -2.039,-59.831C-2.145,-63.882 -1.575,-67.874 -0.267,-71.728C-0.12,-72.161 -0.086,-72.637 0,-73.093" style="fill:white;fill-rule:nonzero;"/>
            </g>
            <g transform="matrix(4.16667,0,0,4.16667,445.317,959.699)">
                <path d="M0,-40.993L0.394,-41.421C-0.31,-42.47 -0.949,-43.573 -1.73,-44.557C-4.678,-48.269 -9.745,-48.711 -13.084,-47.233C-18.989,-44.619 -21.608,-39.29 -23.365,-33.562C-24.511,-29.825 -25.062,-25.814 -24.61,-21.765C-24.133,-17.5 -23.812,-13.214 -23.477,-8.932C-23.227,-5.747 -23.602,-2.776 -26.651,-0.978C-27.354,-0.565 -27.472,-0.116 -27.083,0.633C-25.882,2.95 -23.978,4.585 -21.967,6.033C-21,6.73 -19.704,7.153 -18.517,7.272C-14.015,7.718 -10.223,5.953 -7.531,2.343C-4.339,-1.939 -3.922,-6.947 -5.322,-12.047C-6.118,-14.946 -7.419,-17.698 -8.236,-20.593C-9.704,-25.795 -8.931,-30.566 -5.136,-34.579C-4.799,-34.934 -4.494,-35.322 -4.174,-35.695C-4.603,-35.825 -4.889,-35.775 -5.104,-35.621C-10.548,-31.684 -13.041,-26.074 -13.525,-19.429C-13.68,-17.299 -13.417,-15.135 -13.334,-12.987C-13.305,-12.212 -13.252,-11.442 -14.601,-11.506C-14.601,-13.806 -14.584,-16.116 -14.605,-18.427C-14.626,-20.811 -14.322,-23.112 -13.542,-25.389C-11.591,-31.086 -8.527,-35.717 -2.798,-37.942C-1.863,-38.305 -0.889,-38.565 0.075,-38.876C-1.814,-42.702 -9.129,-43.096 -12.158,-39.284C-13.146,-39.646 -13.169,-40.322 -12.348,-40.744C-10.775,-41.552 -9.159,-42.412 -7.464,-42.788C-4.808,-43.378 -2.238,-42.802 0,-40.993" style="fill:white;fill-rule:nonzero;"/>
            </g>
            <g transform="matrix(4.16667,0,0,4.16667,226.596,1262.29)">
                <path d="M0,-61.662C-0.129,-61.01 -0.236,-60.685 -0.251,-60.356C-0.345,-58.21 -0.47,-56.064 -0.487,-53.917C-0.505,-51.682 -0.005,-49.546 1.32,-47.741C4.138,-43.903 6.979,-40.082 9.892,-36.32C12.011,-33.583 13.648,-30.632 14.682,-27.274C15.858,-23.455 16.521,-19.664 15.66,-15.652C15.325,-14.092 15.374,-12.422 15.4,-10.805C15.441,-8.199 16.363,-5.858 18.176,-4.078C21.887,-0.435 27.522,0 32.1,-2.234C32.415,-2.388 32.669,-2.672 33.121,-3.028C32.556,-3.406 32.168,-3.644 31.803,-3.915C30.186,-5.108 28.722,-6.488 28.333,-8.586C27.922,-10.803 28.29,-12.951 29.477,-14.903C30.001,-15.766 30.796,-15.774 31.621,-15.599C31.947,-15.529 32.248,-15.331 32.558,-15.187C34.4,-14.331 35.049,-14.555 36.081,-16.374C37.883,-19.548 37.975,-22.953 37.27,-26.422C36.481,-30.305 33.554,-32.573 30.915,-35.035C30.75,-35.189 30.436,-35.189 30.186,-35.23C27.484,-35.675 24.992,-36.632 22.664,-38.15C18.713,-40.726 15.172,-43.702 12.356,-47.62C10.406,-50.335 8.982,-53.501 6.13,-55.498C4.838,-56.402 3.685,-57.535 2.553,-58.655C1.706,-59.494 0.995,-60.477 0,-61.662" style="fill:white;fill-rule:nonzero;"/>
            </g>
            <g transform="matrix(4.16667,0,0,4.16667,740.571,773.718)">
                <path d="M0,43.073C0.057,43.18 0.113,43.287 0.17,43.394C0.524,43.267 0.904,43.19 1.228,43.007C7.745,39.315 14.245,35.588 20.782,31.932C21.848,31.337 21.99,30.806 21.342,29.79C18.383,25.142 15.521,20.427 12.519,15.81C9.423,11.05 6.208,6.371 3.038,1.662C1.703,-0.321 1.693,-0.314 -0.549,0.419C-0.711,0.471 -0.884,0.497 -1.038,0.567C-6.35,3.017 -11.687,5.411 -16.957,7.953C-19.104,8.987 -21.126,10.305 -23.163,11.568C-24.861,12.622 -25.006,13.002 -23.972,14.705C-21.581,18.639 -19.084,22.507 -16.622,26.395C-16.156,27.132 -15.735,27.184 -15.006,26.535C-12.346,24.162 -9.757,21.656 -6.176,20.729C-4.754,20.361 -2.574,20.93 -2.15,22.153C-1.804,23.152 -1.36,23.404 -0.375,23.29C0.059,23.24 0.647,23.686 1.007,24.066C1.837,24.939 2.271,25.992 2.185,27.284C2.153,27.764 2.355,28.494 2.696,28.724C3.761,29.444 4.026,30.322 3.738,31.543C3.467,32.686 3.218,33.854 4.417,34.721C4.624,34.871 4.619,35.354 4.685,35.689C5.183,38.22 3.863,39.845 2.086,41.26C1.367,41.832 0.694,42.467 0,43.073" style="fill:white;fill-rule:nonzero;"/>
            </g>
            <g transform="matrix(4.16667,0,0,4.16667,1121.49,994.237)">
                <path d="M0,5.037C0,2.233 0.01,-0.647 -0.006,-3.527C-0.011,-4.393 -0.628,-4.401 -1.266,-4.43C-4.707,-4.586 -8.146,-4.784 -11.586,-4.934C-13.025,-4.996 -14.467,-4.954 -15.906,-4.991C-18.061,-5.045 -20.214,-5.196 -22.367,-5.183C-26.406,-5.156 -30.444,-4.974 -34.482,-4.984C-37.459,-4.992 -40.435,-5.256 -43.412,-5.31C-47.786,-5.39 -52.161,-5.406 -56.536,-5.405C-58.565,-5.405 -60.595,-5.283 -62.625,-5.247C-65.553,-5.196 -61.162,-5.207 -64.089,-5.115C-64.961,-5.088 -65.95,-5.03 -66.672,-4.603C-69.318,-3.037 -71.84,-1.249 -74.485,0.319C-75.326,0.817 -75.63,1.408 -75.669,2.286C-75.763,4.39 -75.87,6.493 -75.928,8.598C-75.971,10.156 -75.684,10.443 -74.155,10.373C-72.286,10.287 -70.417,10.158 -68.551,10.023C-64.266,9.714 -67.307,9.162 -63.02,9.12C-55.056,9.042 -47.088,9.235 -39.124,9.375C-37.928,9.396 -37.493,8.935 -37.505,7.787C-37.531,5.325 -37.49,2.862 -37.562,0.402C-37.64,-2.288 -37.082,-3.288 -34.488,-3.327C-29.352,-3.406 -24.21,-3.189 -19.072,-3.054C-18.193,-3.031 -17.714,-2.546 -17.772,-1.506C-17.851,-0.104 -17.781,1.307 -17.775,2.714C-17.763,5.587 -17.768,5.418 -14.946,4.975C-12.204,4.544 -9.397,4.416 -6.619,4.415C-4.433,4.415 -2.247,4.81 0,5.037" style="fill:white;fill-rule:nonzero;"/>
            </g>
            <g transform="matrix(4.16667,0,0,4.16667,228.783,990.107)">
                <path d="M0,55.873C1.978,58.071 6.932,58.456 9.557,56.778C12.386,54.971 13.335,51.997 14.036,48.946C15.094,44.338 13.958,39.948 12.211,35.762C10.273,31.115 6.88,27.462 3.866,23.551C2.029,21.168 -0.045,18.797 -1.168,16.054C-2.859,11.925 -2.206,7.427 -1.572,3.075C-1.342,1.503 -1.726,0.368 -3.02,-0.5C-3.58,-0.875 -4.197,-1.28 -4.551,-1.833C-5.031,-2.583 -5.473,-2.556 -6.143,-2.214C-9.631,-0.436 -11.666,2.644 -12.657,6.313C-14.106,11.682 -14.492,17.196 -13.549,22.739C-12.719,27.624 -10.952,32.136 -7.847,35.93C-4.888,39.544 -1.618,42.887 1.405,46.448C2.276,47.475 2.968,48.776 3.38,50.074C3.997,52.018 3.809,54.193 1.222,55.244C0.834,55.401 0.472,55.628 0,55.873" style="fill:white;fill-rule:nonzero;"/>
            </g>
            <g transform="matrix(4.16667,0,0,4.16667,705.875,999.328)">
                <path d="M0,-11.92C-0.099,-12.057 -0.197,-12.194 -0.296,-12.331C-0.123,-12.607 0.026,-12.904 0.229,-13.154C2.575,-16.04 5.435,-18.256 8.861,-19.522C10.439,-20.105 10.747,-21.277 10.953,-22.604C11.135,-23.779 10.639,-24.317 9.497,-24.134C8.379,-23.953 7.215,-23.681 6.224,-23.148C3.228,-21.533 0.489,-19.55 -1.586,-16.71C-1.842,-16.36 -2.465,-16.295 -2.918,-16.098C-2.771,-16.548 -2.746,-17.125 -2.454,-17.428C-1.11,-18.821 0.179,-20.332 1.732,-21.435C3.745,-22.863 5.918,-24.116 8.164,-25.106C9.374,-25.638 9.413,-26.446 9.363,-27.355C9.296,-28.583 8.124,-29.785 7.275,-29.601C6.454,-29.423 5.6,-29.195 4.877,-28.775C1.147,-26.609 -2.363,-24.16 -4.842,-20.425C-5.034,-20.136 -5.589,-20.103 -5.976,-19.95C-5.922,-20.345 -5.894,-20.747 -5.803,-21.133C-5.767,-21.284 -5.584,-21.396 -5.48,-21.534C-2.868,-25.062 0.608,-27.485 4.256,-29.707C4.695,-29.974 5.321,-30.726 5.221,-30.957C5.001,-31.462 4.356,-32.123 3.908,-32.105C2.631,-32.053 1.2,-32.006 0.123,-31.401C-5.48,-28.256 -9.633,-23.62 -12.673,-17.832C-13.825,-15.641 -13.815,-13.738 -12.586,-11.653C-11.646,-10.057 -11.843,-8.462 -13.088,-7.049C-13.574,-6.497 -13.986,-5.86 -14.529,-5.38C-18.238,-2.095 -21.946,1.191 -25.708,4.411C-28.458,6.765 -31.288,9.017 -34.084,11.311C-34.939,12.013 -35.132,12.737 -34.523,13.799C-33.705,15.226 -33.081,16.772 -32.359,18.26C-32.071,18.854 -31.745,19.43 -31.336,20.203C-29.961,18.988 -28.836,17.924 -27.641,16.949C-21.334,11.809 -14.998,6.706 -8.707,1.545C-7.834,0.829 -7.074,0.584 -6.075,1.157C-3.619,2.566 -1.672,1.614 0.196,-0.189C2.404,-2.321 3.586,-4.966 4.329,-7.911C4.526,-8.694 4.807,-9.563 5.32,-10.131C6.18,-11.085 7.27,-11.816 8.241,-12.666C9.343,-13.63 10.495,-14.55 11.485,-15.626C12.208,-16.413 12.381,-17.615 11.666,-18.396C11.299,-18.795 10.17,-18.752 9.516,-18.52C6.273,-17.373 3.58,-15.346 1.276,-12.738C0.951,-12.371 0.43,-12.189 0,-11.92" style="fill:white;fill-rule:nonzero;"/>
            </g>
            <g transform="matrix(4.16667,0,0,4.16667,524.777,1501.07)">
                <path d="M0,21.564C2.127,21.448 4.26,21.401 6.379,21.199C9.402,20.912 12.358,20.329 15.03,18.688C17.292,17.299 18.117,15.235 16.784,12.909C15.569,10.791 14.058,8.774 12.353,7.055C10.516,5.204 8.372,3.643 6.227,2.164C4.841,1.208 3.287,0.043 1.489,1.511C1.338,1.635 1.089,1.668 0.882,1.678C-1.485,1.802 -3.863,1.81 -6.218,2.055C-9.165,2.363 -11.816,1.223 -14.52,0.425C-16.417,-0.134 -17.104,-0.168 -18.384,1.424C-20.347,3.865 -22.183,6.407 -22.95,9.552C-23.658,12.457 -23.156,16.591 -19.508,17.912C-17.391,18.676 -15.203,19.264 -13.012,19.769C-8.732,20.756 -4.441,21.732 0,21.564" style="fill:white;fill-rule:nonzero;"/>
            </g>
            <g transform="matrix(4.16667,0,0,4.16667,1044.89,1218.06)">
                <path d="M0,-32.062C-0.695,-32.225 -1.205,-32.341 -1.712,-32.466C-2.125,-32.568 -2.532,-32.749 -2.949,-32.773C-4.734,-32.877 -6.523,-33.033 -8.307,-32.99C-11.153,-32.919 -13.995,-32.642 -16.841,-32.587C-17.937,-32.566 -18.295,-32.137 -18.271,-31.119C-18.175,-27.015 -18.177,-22.907 -17.96,-18.811C-17.826,-16.286 -17.678,-16.294 -15.263,-16.66C-15.094,-16.685 -14.923,-16.698 -14.753,-16.71C-11.533,-16.962 -8.314,-17.243 -5.091,-17.449C-3.731,-17.536 -2.359,-17.522 -1.001,-17.427C-0.658,-17.403 -0.075,-16.885 -0.077,-16.598C-0.082,-15.863 -0.602,-15.938 -1.182,-16.112C-1.827,-16.305 -2.523,-16.407 -3.194,-16.393C-5.019,-16.354 -6.846,-16.289 -8.664,-16.132C-11.154,-15.918 -13.635,-15.607 -16.122,-15.345C-17.062,-15.247 -17.409,-14.761 -17.354,-13.765C-17.133,-9.748 -16.968,-5.728 -16.791,-1.708C-16.688,0.606 -16.591,0.703 -14.345,0.736C-9.916,0.799 -5.486,0.867 -1.056,0.944C0.5,0.971 0.746,0.818 0.887,-0.774C1.014,-2.211 1.102,-3.663 1.06,-5.104C1.01,-6.855 0.737,-8.599 0.681,-10.35C0.462,-17.106 0.293,-23.865 0.101,-30.622C0.084,-31.18 0.023,-31.737 0,-32.062" style="fill:white;fill-rule:nonzero;"/>
            </g>
            <g transform="matrix(4.16667,0,0,4.16667,503.36,1108)">
                <path d="M0,31.194C1.97,30.932 4.994,30.489 8.027,30.138C11.386,29.751 11.15,29.549 10.879,26.439C10.355,20.421 9.562,14.427 8.934,8.419C8.813,7.27 8.443,7.1 7.46,7.533C5.121,8.564 2.644,9.021 0.114,8.877C-1.824,8.766 -3.677,8.325 -4.717,6.271C-5.429,4.865 -5.849,3.469 -5.553,1.855C-5.245,0.177 -5.443,0 -7.041,0.067C-7.167,0.073 -7.295,0.075 -7.422,0.074C-10.345,0.045 -10.531,0.173 -11.067,3.147C-12.485,11.021 -13.839,18.908 -15.314,26.77C-15.573,28.145 -15.128,28.629 -13.995,29.09C-9.832,30.783 -5.471,31.015 0,31.194" style="fill:white;fill-rule:nonzero;"/>
            </g>
            <g transform="matrix(4.16667,0,0,4.16667,969.219,718.056)">
                <path d="M0,31.139C0.001,31.188 0.003,31.236 0.005,31.284C2.053,31.284 4.102,31.246 6.148,31.3C7.135,31.326 7.535,30.964 7.525,29.936C7.434,20.584 7.381,11.234 7.277,1.882C7.257,0.063 7.175,-0.036 5.346,-0.103C0.96,-0.262 -3.428,-0.318 -7.815,-0.436C-8.511,-0.455 -8.87,-0.185 -8.875,0.535C-8.895,3.679 -8.911,6.823 -8.929,9.966C-8.933,10.757 -8.904,11.55 -8.948,12.339C-9.083,14.749 -9.271,17.156 -9.394,19.566C-9.569,23.027 -9.688,26.491 -9.865,29.952C-9.938,31.37 -9.811,31.594 -8.42,31.541C-5.612,31.434 -2.807,31.276 0,31.139" style="fill:white;fill-rule:nonzero;"/>
            </g>
            <g transform="matrix(4.16667,0,0,4.16667,922.431,825.296)">
                <path d="M0,26.335C0.039,25.781 0.08,25.439 0.083,25.098C0.177,17.629 0.268,10.16 0.356,2.691C0.382,0.564 0.244,0.35 -1.821,0.263C-5.038,0.126 -8.261,-0.025 -11.477,0.036C-13.582,0.075 -15.686,0.441 -17.775,0.764C-18.063,0.809 -18.483,1.453 -18.473,1.81C-18.331,6.759 -18.126,11.706 -17.932,16.654C-17.827,19.32 -17.705,21.985 -17.601,24.651C-17.571,25.423 -17.277,25.897 -16.464,25.927C-15.998,25.943 -15.533,26.043 -15.066,26.056C-11.454,26.156 -7.842,26.253 -4.23,26.33C-2.836,26.36 -1.441,26.335 0,26.335" style="fill:white;fill-rule:nonzero;"/>
            </g>
            <g transform="matrix(4.16667,0,0,4.16667,1001.78,1078.67)">
                <path d="M0,-22.679C-1.92,-22.564 -4.087,-22.419 -6.255,-22.307C-7.47,-22.243 -7.868,-21.51 -7.845,-20.385C-7.8,-18.101 -7.709,-15.817 -7.716,-13.532C-7.725,-10.163 -7.643,-6.782 -7.896,-3.43C-8.136,-0.244 -8.078,0 -4.975,-0.158C-4.89,-0.162 -4.805,-0.172 -4.72,-0.172C0.003,-0.187 4.726,-0.188 9.449,-0.245C9.758,-0.249 10.302,-0.674 10.326,-0.941C10.413,-1.934 10.343,-2.944 10.306,-3.947C10.192,-7.062 10.063,-10.176 9.947,-13.291C9.854,-15.791 9.761,-18.291 9.686,-20.792C9.654,-21.829 9.164,-22.271 8.165,-22.306C5.528,-22.399 2.893,-22.543 0,-22.679" style="fill:white;fill-rule:nonzero;"/>
            </g>
            <g transform="matrix(4.16667,0,0,4.16667,471.866,1463.16)">
                <path d="M0,-25.657C0.253,-24.986 0.467,-24.329 0.744,-23.702C2.369,-20.032 3.31,-16.145 3.288,-12.152C3.271,-9.251 2.616,-6.345 2.166,-3.455C1.868,-1.544 1.993,-1.114 3.635,-0.168C3.929,0.002 4.248,0.183 4.572,0.231C7.079,0.594 9.586,0.955 12.1,1.255C13.269,1.395 14.036,0.788 14.399,-0.376C15.483,-3.845 16.443,-7.352 16.395,-11.03C16.329,-16.095 15.596,-21.05 13.889,-25.838C13.549,-26.788 13.101,-27.052 12.212,-26.954C8.208,-26.513 4.202,-26.1 0,-25.657" style="fill:white;fill-rule:nonzero;"/>
            </g>
            <g transform="matrix(4.16667,0,0,4.16667,800.807,1091.59)">
                <path d="M0,-21.547C-0.319,-21.473 -0.495,-21.467 -0.638,-21.394C-4.011,-19.652 -7.315,-17.748 -10.772,-16.21C-13.206,-15.127 -15.819,-14.413 -18.409,-13.789C-19.507,-13.525 -19.993,-13.11 -20.02,-12.045C-20.11,-8.49 -20.173,-4.935 -20.268,-1.379C-20.296,-0.332 -19.814,0 -18.856,-0.042C-16.261,-0.154 -13.664,-0.256 -11.066,-0.29C-7.871,-0.332 -4.675,-0.335 -1.48,-0.283C-0.365,-0.265 0.004,-0.672 -0.008,-1.819C-0.045,-5.247 -0.003,-8.676 0.041,-12.104C0.075,-14.735 0.172,-17.367 0.21,-19.999C0.218,-20.495 0.08,-20.993 0,-21.547" style="fill:white;fill-rule:nonzero;"/>
            </g>
            <g transform="matrix(4.16667,0,0,4.16667,506.806,1046.5)">
                <path d="M0,22.518C1.304,22.338 2.638,22.284 3.905,21.956C8.434,20.786 12.372,18.416 16.016,15.456C16.921,14.72 17.248,13.868 16.874,12.816C16.483,11.717 15.961,10.664 15.453,9.614C14.145,6.908 12.872,4.18 11.469,1.526C10.477,-0.353 10.229,-0.366 8.352,0.576C4.825,2.344 1.774,4.803 -0.862,7.755C-2.767,9.887 -4.313,12.315 -4.925,15.233C-5.85,19.646 -4.078,22.884 0,22.518" style="fill:white;fill-rule:nonzero;"/>
            </g>
            <g transform="matrix(4.16667,0,0,4.16667,636.264,1040.08)">
                <path d="M0,6.126L0.036,6.126C0.036,8.101 0.028,10.076 0.038,12.051C0.044,13.261 0.585,13.709 1.809,13.613C6.762,13.224 11.72,12.883 16.68,12.613C17.854,12.549 18.222,12.11 18.231,10.948C18.26,7.307 18.339,3.665 18.472,0.025C18.51,-1.001 18.13,-1.476 17.306,-2.029C15.946,-2.941 14.506,-3.959 13.604,-5.295C12.873,-6.377 12.2,-7.049 10.982,-7.216C10.655,-7.261 10.344,-7.492 10.021,-7.501C9.542,-7.516 8.933,-7.583 8.598,-7.325C6.183,-5.465 3.834,-3.513 1.44,-1.622C0.419,-0.815 -0.123,0.124 -0.024,1.517C0.083,3.046 0,4.589 0,6.126" style="fill:white;fill-rule:nonzero;"/>
            </g>
            <g transform="matrix(4.16667,0,0,4.16667,805.089,1061.24)">
                <path d="M0,6.247L-0.021,6.247C-0.021,7.697 -0.01,9.146 -0.024,10.597C-0.035,11.706 0.463,12.058 1.511,11.891C2.769,11.689 4.041,11.547 5.312,11.483C9.383,11.279 6.135,11.08 10.209,10.976C11.363,10.947 11.662,10.507 11.63,9.401C11.5,4.851 11.411,0.299 11.352,-4.254C11.338,-5.321 10.949,-5.811 9.908,-5.722C7.842,-5.546 13.097,-5.361 11.029,-5.21C8.244,-5.006 5.456,-4.836 2.67,-4.638C0.287,-4.469 -0.01,-4.116 -0.002,-1.636C0.007,0.992 0,3.62 0,6.247" style="fill:white;fill-rule:nonzero;"/>
            </g>
            <g transform="matrix(4.16667,0,0,4.16667,1120.17,1163.88)">
                <path d="M0,-16.874C-1.421,-17.157 -2.731,-17.624 -4.046,-17.639C-7.395,-17.674 -10.75,-17.578 -14.095,-17.396C-16.493,-17.267 -16.851,-16.731 -16.722,-14.285C-16.71,-14.066 -16.739,-13.847 -16.736,-13.627C-16.707,-10.743 -16.697,-7.859 -16.636,-4.977C-16.604,-3.486 -16.527,-1.994 -16.377,-0.513C-16.32,0.056 -16.39,0.8 -15.324,0.723C-11.085,0.415 -6.841,0.17 -2.595,-0.017C-0.021,-0.129 -0.007,-0.062 -0.002,-2.774C0.006,-7.511 0,-12.246 0,-16.874" style="fill:white;fill-rule:nonzero;"/>
            </g>
            <g transform="matrix(4.16667,0,0,4.16667,1072.64,798.493)">
                <path d="M0,-18.75C-1.841,-18.461 -3.677,-17.998 -5.525,-17.938C-7.037,-17.89 -7.395,-17.103 -7.579,-15.854C-8.138,-12.044 -8.714,-8.237 -9.31,-4.435C-9.53,-3.025 -9.395,-2.942 -7.984,-2.812C-4.905,-2.531 -1.816,-2.256 1.23,-1.735C3.015,-1.431 4.727,-0.671 6.465,-0.094C7.063,0.105 7.553,0.183 7.739,-0.632C8.433,-3.656 9.177,-6.67 9.819,-9.706C10.107,-11.071 10.218,-12.478 10.375,-13.869C10.51,-15.057 9.986,-15.884 8.976,-16.437C6.177,-17.971 3.255,-18.933 0,-18.75" style="fill:white;fill-rule:nonzero;"/>
            </g>
            <g transform="matrix(4.16667,0,0,4.16667,769.15,1158.42)">
                <path d="M0,14.847L0,14.763C1.875,14.763 3.751,14.75 5.627,14.767C7.28,14.781 7.428,14.73 7.459,13.052C7.529,9.288 7.521,5.524 7.535,1.76C7.541,0.061 7.472,-0.039 5.803,-0.018C0.193,0.054 -5.416,0.19 -11.025,0.222C-12.178,0.228 -12.506,0.618 -12.443,1.754C-12.232,5.563 -12.066,9.374 -11.931,13.188C-11.888,14.406 -11.409,14.886 -10.204,14.867C-6.803,14.811 -3.401,14.847 0,14.847" style="fill:white;fill-rule:nonzero;"/>
            </g>
            <g transform="matrix(4.16667,0,0,4.16667,716.269,1130.62)">
                <path d="M0,-2.718C0.084,-2.719 0.167,-2.719 0.251,-2.719C0.251,-0.306 0.267,2.107 0.243,4.519C0.233,5.521 0.615,5.965 1.619,5.895C3.188,5.787 4.761,5.708 6.333,5.688C7.517,5.674 8.704,5.841 9.887,5.804C12.82,5.716 15.75,5.473 18.682,5.467C19.876,5.464 20.281,5.13 20.268,3.92C20.229,0.315 20.222,-3.29 20.292,-6.894C20.315,-8.102 19.869,-8.582 18.754,-8.588C16.295,-8.6 13.836,-8.683 11.378,-8.646C7.973,-8.596 4.57,-8.447 1.166,-8.374C0.276,-8.355 -0.031,-7.946 -0.01,-7.071C0.026,-5.62 0,-4.169 0,-2.718" style="fill:white;fill-rule:nonzero;"/>
            </g>
            <g transform="matrix(4.16667,0,0,4.16667,1105.41,931.927)">
                <path d="M0,-50.397C0.562,-50.043 0.907,-49.79 1.282,-49.597C3.51,-48.452 4.081,-47.643 3.743,-45.175C3.364,-42.405 2.797,-39.657 2.213,-36.921C1.092,-31.667 -0.156,-26.441 -1.247,-21.18C-2.649,-14.418 -3.933,-7.629 -5.306,-0.861C-5.521,0.201 -5.257,0.617 -4.194,0.565C-1.6,0.438 0.995,0.344 3.59,0.257C4.348,0.232 4.795,-0.047 4.811,-0.903C4.87,-4.106 5.01,-7.309 5.006,-10.511C4.998,-17.452 4.952,-24.392 4.858,-31.331C4.787,-36.647 4.693,-41.964 4.47,-47.275C4.313,-51 4.186,-51.014 0.592,-50.675C0.513,-50.668 0.439,-50.606 0,-50.397" style="fill:white;fill-rule:nonzero;"/>
            </g>
            <g transform="matrix(4.16667,0,0,4.16667,1020.74,934.405)">
                <path d="M0,-17.232C-0.112,-16.312 -0.219,-15.28 -0.366,-14.253C-0.985,-9.929 -1.597,-5.603 -2.258,-1.286C-2.427,-0.186 -2.123,0.225 -1.018,0.211C3.069,0.162 7.158,0.154 11.246,0.182C12.592,0.192 13.334,-0.545 13.589,-1.749C14.378,-5.464 15.073,-9.201 15.824,-12.924C15.991,-13.753 15.696,-14.196 14.979,-14.589C11.914,-16.269 8.515,-16.622 5.188,-17.186C3.593,-17.457 1.918,-17.232 0,-17.232" style="fill:white;fill-rule:nonzero;"/>
            </g>
            <g transform="matrix(4.16667,0,0,4.16667,712.444,1129.07)">
                <path d="M0,-0.49L-0.106,-0.49C-0.106,-2.248 -0.095,-4.005 -0.109,-5.762C-0.125,-7.729 -0.336,-7.852 -2.194,-7.648C-4.05,-7.445 -5.923,-7.408 -7.785,-7.258C-10.95,-7.003 -14.115,-6.748 -17.27,-6.396C-17.627,-6.357 -18.187,-5.707 -18.199,-5.325C-18.281,-2.718 -18.26,-0.105 -18.232,2.504C-18.218,3.768 -18.11,5.03 -18.057,6.292C-18.024,7.072 -17.631,7.362 -16.896,7.322C-13.031,7.115 -9.164,6.928 -5.298,6.727C-3.983,6.658 -2.669,6.572 -1.354,6.49C-0.392,6.432 0.074,6.012 0.022,4.91C-0.061,3.114 0,1.311 0,-0.49" style="fill:white;fill-rule:nonzero;"/>
            </g>
            <g transform="matrix(4.16667,0,0,4.16667,714.33,1181.33)">
                <path d="M0,4.111C0.021,4.109 0.042,4.108 0.064,4.107C-0.051,1.431 -0.165,-1.244 -0.282,-3.919C-0.31,-4.561 -0.346,-5.189 -1.231,-5.147C-4.417,-4.993 -7.606,-4.9 -10.788,-4.686C-12.949,-4.541 -15.096,-4.201 -17.255,-4.015C-18.269,-3.927 -18.531,-3.401 -18.484,-2.452C-18.346,0.396 -18.26,3.248 -18.135,6.096C-18.035,8.376 -17.953,8.443 -15.77,8.497C-15.259,8.508 -14.748,8.541 -14.238,8.567C-9.86,8.793 -5.482,9.012 -1.106,9.253C-0.247,9.3 0.021,8.879 0.006,8.067C-0.018,6.749 0,5.429 0,4.111" style="fill:white;fill-rule:nonzero;"/>
            </g>
            <g transform="matrix(4.16667,0,0,4.16667,480.014,1239.03)">
                <path d="M0,26.689C0.003,26.66 0.006,26.63 0.008,26.602C0.349,26.602 0.69,26.604 1.031,26.601C3.186,26.585 3.411,26.265 3.105,24.021C2.917,22.635 2.814,21.234 2.748,19.835C2.462,13.885 2.186,7.934 1.957,1.981C1.923,1.11 1.642,0.663 0.82,0.578C-0.53,0.439 -1.891,0.371 -3.229,0.148C-4.114,0 -4.477,0.354 -4.654,1.162C-5.271,3.977 -6.054,6.763 -6.491,9.607C-7.145,13.869 -7.563,18.169 -8.071,22.456C-8.168,23.277 -8.289,24.108 -8.252,24.927C-8.238,25.254 -7.858,25.806 -7.594,25.841C-5.069,26.174 -2.533,26.418 0,26.689" style="fill:white;fill-rule:nonzero;"/>
            </g>
            <g transform="matrix(4.16667,0,0,4.16667,438.16,1231.3)">
                <path d="M0,27.666C0.278,27.128 0.644,26.711 0.707,26.25C1.222,22.441 1.59,18.609 2.183,14.814C2.823,10.714 3.634,6.64 4.426,2.565C4.583,1.757 4.341,1.416 3.636,1.242C2.81,1.038 1.987,0.817 1.167,0.588C-0.792,0.04 -0.864,0 -1.752,1.907C-3.443,5.534 -5.121,9.171 -6.655,12.869C-8.003,16.12 -9.145,19.461 -10.382,22.761C-10.833,23.968 -10.537,24.885 -9.298,25.228C-6.316,26.053 -3.315,26.802 0,27.666" style="fill:white;fill-rule:nonzero;"/>
            </g>
            <g transform="matrix(4.16667,0,0,4.16667,493.503,1316.53)">
                <path d="M0,-10.484C-0.011,-10.483 -0.021,-10.482 -0.032,-10.482C0.139,-6.717 0.285,-2.951 0.491,0.812C0.596,2.733 0.834,4.645 0.96,6.565C1.015,7.395 1.286,7.75 2.15,7.629C4.586,7.289 7.027,6.969 9.474,6.718C10.454,6.618 10.692,6.16 10.554,5.241C10.056,1.915 9.704,-1.439 9.078,-4.738C8.28,-8.937 7.26,-13.091 6.359,-17.27C6.212,-17.95 5.929,-18.234 5.221,-18.158C3.974,-18.024 2.72,-17.94 1.467,-17.897C0.007,-17.846 -0.298,-17.611 -0.262,-16.129C-0.216,-14.246 -0.091,-12.365 0,-10.484" style="fill:white;fill-rule:nonzero;"/>
            </g>
            <g transform="matrix(4.16667,0,0,4.16667,805.633,1180.71)">
                <path d="M0,-9.048C-0.015,-8.999 -0.129,-8.798 -0.131,-8.595C-0.164,-5.827 -0.177,-3.06 -0.203,-0.291C-0.211,0.556 0.304,0.716 0.974,0.717C2.85,0.718 4.727,0.679 6.6,0.744C10.511,0.882 7.098,1.064 11.006,1.257C11.988,1.306 12.449,0.915 12.384,-0.112C12.219,-2.738 12.133,-5.372 11.88,-7.989C11.675,-10.108 11.954,-10.354 9.667,-9.888C9.337,-9.82 8.987,-9.867 8.646,-9.853C4.402,-9.668 7.479,-9.487 3.236,-9.29C2.194,-9.242 1.154,-9.136 0,-9.048" style="fill:white;fill-rule:nonzero;"/>
            </g>
            <g transform="matrix(4.16667,0,0,4.16667,910.558,1080.66)">
                <path d="M0,-4.763L0.115,-4.763C0.115,-3.313 0.068,-1.861 0.126,-0.413C0.197,1.337 0.317,3.089 0.509,4.828C0.549,5.19 0.965,5.754 1.263,5.795C2.391,5.949 3.542,5.982 4.683,5.957C6.895,5.908 9.105,5.742 11.316,5.716C12.52,5.703 12.952,5.241 12.932,3.98C12.875,0.246 12.925,-3.49 12.933,-7.224C12.94,-10.31 12.859,-10.343 9.769,-10.378C7.052,-10.409 4.334,-10.53 1.62,-10.672C0.238,-10.745 -0.01,-10.561 -0.002,-9.11C0.007,-7.661 0,-6.212 0,-4.763" style="fill:white;fill-rule:nonzero;"/>
            </g>
            <g transform="matrix(4.16667,0,0,4.16667,881.765,1105.66)">
                <path d="M0,-16.593L0,-16.672C-1.655,-16.672 -3.314,-16.736 -4.963,-16.624C-5.349,-16.598 -6.017,-15.976 -6.016,-15.63C-5.994,-10.677 -5.901,-5.723 -5.743,-0.772C-5.732,-0.447 -5.058,0.127 -4.689,0.129C-1.89,0.143 0.91,0.02 3.709,-0.01C6.301,-0.037 6.307,-0.01 6.249,-2.628C6.157,-6.742 6.028,-10.857 5.977,-14.971C5.962,-16.186 5.621,-16.726 4.34,-16.62C2.902,-16.502 1.448,-16.593 0,-16.593" style="fill:white;fill-rule:nonzero;"/>
            </g>
            <g transform="matrix(4.16667,0,0,4.16667,1007.39,717.992)">
                <path d="M0,45.793C0.099,45.792 0.198,45.791 0.297,45.79C0.347,45.592 0.415,45.396 0.445,45.194C1.482,38.312 2.47,31.421 3.562,24.548C4.777,16.897 6.071,9.259 7.378,1.624C7.544,0.657 7.292,0.325 6.395,0.304C4.567,0.262 2.735,0.25 0.915,0.102C-0.345,0 -0.691,0.474 -0.676,1.733C-0.605,7.689 -0.61,13.646 -0.598,19.603C-0.591,23.016 -0.661,26.43 -0.594,29.841C-0.496,34.926 -0.31,40.009 -0.153,45.093C-0.146,45.327 -0.053,45.56 0,45.793" style="fill:white;fill-rule:nonzero;"/>
            </g>
            <g transform="matrix(4.16667,0,0,4.16667,927.471,765.851)">
                <path d="M0,-0.492C-0.029,-0.494 -0.058,-0.496 -0.086,-0.499C-0.086,-1.591 -0.021,-2.69 -0.125,-3.772C-0.157,-4.117 -0.61,-4.67 -0.913,-4.701C-4.922,-5.118 -8.933,-5.589 -12.956,-5.761C-14.702,-5.835 -16.49,-5.324 -18.226,-4.929C-18.661,-4.829 -19.257,-4.167 -19.291,-3.723C-19.481,-1.191 -19.512,1.353 -19.624,3.893C-19.667,4.862 -19.213,5.084 -18.365,5.007C-16.969,4.881 -15.563,4.735 -14.167,4.775C-10.046,4.895 -5.928,5.08 -1.811,5.292C-0.812,5.343 -0.322,5.12 -0.314,3.96C-0.305,2.476 -0.113,0.992 0,-0.492" style="fill:white;fill-rule:nonzero;"/>
            </g>
            <g transform="matrix(4.16667,0,0,4.16667,927.308,852.528)">
                <path d="M0,11.726C0.46,11.828 0.586,11.886 0.706,11.876C6.091,11.454 11.474,11.009 16.861,10.611C17.771,10.543 17.88,10.021 17.854,9.288C17.759,6.655 17.717,4.019 17.537,1.392C17.506,0.945 16.932,0.209 16.551,0.168C14.611,-0.04 12.653,-0.104 10.7,-0.138C9.438,-0.16 8.172,-0.061 6.91,0.015C5.228,0.117 3.539,0.174 1.871,0.393C0.752,0.539 -0.144,1.063 0.104,2.546C0.181,3.004 0.008,3.501 0.005,3.982C-0.006,6.558 0,9.135 0,11.726" style="fill:white;fill-rule:nonzero;"/>
            </g>
            <g transform="matrix(4.16667,0,0,4.16667,1021.47,821.135)">
                <path d="M0,8.857C1.051,8.765 1.807,8.617 2.555,8.648C6.834,8.824 10.961,9.793 14.94,11.389C15.807,11.738 16.226,11.616 16.412,10.711C16.965,8.014 17.433,5.296 18.088,2.627C18.42,1.269 17.926,0.587 16.808,0.248C14.001,-0.604 11.18,-1.403 8.359,-2.202C6.575,-2.706 4.799,-2.881 2.954,-2.368C1.907,-2.077 1.507,-1.502 1.381,-0.476C1.167,1.258 0.878,2.983 0.62,4.711C0.416,6.079 0.211,7.446 0,8.857" style="fill:white;fill-rule:nonzero;"/>
            </g>
            <g transform="matrix(4.16667,0,0,4.16667,524.411,1334.54)">
                <path d="M0,-21.397C0.667,-18.231 1.397,-14.945 2.046,-11.642C2.853,-7.53 3.649,-3.413 4.324,0.724C4.497,1.788 4.885,1.999 5.725,1.729C7.91,1.024 10.076,0.26 12.264,-0.431C13.281,-0.752 13.467,-1.306 13.125,-2.315C12.37,-4.542 11.783,-6.831 10.993,-9.043C9.349,-13.64 7.63,-18.21 5.896,-22.773C5.785,-23.067 5.277,-23.396 4.968,-23.381C3.87,-23.329 2.759,-23.221 1.691,-22.963C0.971,-22.79 0.003,-22.708 0,-21.397" style="fill:white;fill-rule:nonzero;"/>
            </g>
            <g transform="matrix(4.16667,0,0,4.16667,1120.82,1017.49)">
                <path d="M0,11.052C0.071,10.872 0.185,10.713 0.189,10.551C0.255,7.697 0.337,4.841 0.324,1.986C0.322,1.653 -0.17,1.127 -0.525,1.026C-1.952,0.62 -3.406,0.121 -4.865,0.069C-8.689,-0.07 -12.522,-0.085 -16.297,0.82C-17.183,1.031 -17.703,1.364 -17.635,2.367C-17.459,4.947 -17.281,7.525 -17.135,10.106C-17.088,10.936 -16.729,11.137 -15.971,11.021C-14.71,10.827 -13.435,10.73 -12.167,10.577C-8.126,10.093 -4.118,10.392 0,11.052" style="fill:white;fill-rule:nonzero;"/>
            </g>
            <g transform="matrix(4.16667,0,0,4.16667,463.06,1456.73)">
                <path d="M0,-25.093C-0.208,-24.709 -0.336,-24.537 -0.401,-24.343C-1.345,-21.53 -2.391,-18.747 -3.191,-15.891C-4.393,-11.607 -5.422,-7.271 -6.521,-2.956C-6.782,-1.932 -6.495,-1.233 -5.406,-1.039C-4.039,-0.796 -2.666,-0.581 -1.304,-0.309C0.237,0 2.84,-1.289 3.134,-2.841C3.628,-5.453 4.124,-8.126 4.089,-10.767C4.056,-13.276 3.449,-15.799 2.901,-18.272C2.373,-20.653 1.358,-22.862 0,-25.093" style="fill:white;fill-rule:nonzero;"/>
            </g>
            <g transform="matrix(4.16667,0,0,4.16667,809.931,1018.58)">
                <path d="M0,-18.995C-0.961,-18.571 -1.655,-18.354 -2.259,-17.984C-7.294,-14.896 -12.339,-11.825 -17.32,-8.648C-19.084,-7.522 -20.738,-6.18 -21.768,-4.219C-22.334,-3.141 -22.556,-2.03 -21.72,-1.027C-20.865,0 -19.894,-0.649 -19.048,-1.086C-14.339,-3.52 -9.628,-5.953 -4.964,-8.478C-2.647,-9.732 -0.43,-11.183 1.992,-12.64C-0.477,-14.149 -0.355,-16.391 0,-18.995" style="fill:white;fill-rule:nonzero;"/>
            </g>
            <g transform="matrix(4.16667,0,0,4.16667,472.051,1506.73)">
                <path d="M0,-12.158C-2.789,-10.408 -3.661,-6.111 -3.218,-3.591C-3.147,-3.189 -2.739,-2.657 -2.377,-2.537C0.077,-1.722 2.52,-0.743 5.045,-0.333C7.1,0 9.271,-0.295 11.376,-0.483C12.784,-0.609 14.417,-0.637 15.145,-2.231C15.902,-3.886 16.568,-5.608 17.033,-7.369C17.234,-8.129 16.883,-9.072 16.671,-9.901C16.606,-10.153 16.17,-10.445 15.899,-10.451C15.715,-10.455 15.425,-10.018 15.35,-9.732C15.027,-8.518 14.297,-8.034 13.088,-8.101C11.025,-8.218 8.953,-8.191 6.895,-8.354C4.113,-8.575 1.742,-9.7 0,-12.158" style="fill:white;fill-rule:nonzero;"/>
            </g>
            <g transform="matrix(4.16667,0,0,4.16667,551.104,1078.12)">
                <path d="M0,26.017C0.139,26.03 0.277,26.041 0.416,26.053C1.32,25.016 2.361,24.071 3.091,22.916C3.862,21.695 4.655,21.417 5.815,22.169C6.852,22.841 7.807,22.57 8.35,21.6C9.123,20.223 9.96,18.763 10.234,17.236C10.701,14.627 10.793,11.941 10.94,9.282C10.966,8.81 10.553,8.251 10.206,7.864C10.125,7.774 9.426,8.151 9.108,8.43C7.479,9.861 7.417,12 6.92,13.915C6.693,14.792 6.374,15.309 5.253,15.473C5.623,13.963 5.95,12.58 6.302,11.204C6.842,9.095 7.892,7.365 9.757,6.213C10.045,6.036 10.335,5.64 10.384,5.307C10.655,3.472 10.12,1.791 9.37,-0.036C8.417,0.734 7.561,1.357 6.801,2.088C6.604,2.278 6.625,2.828 6.706,3.172C6.813,3.632 7.099,4.044 7.272,4.492C7.859,6.006 7.652,7.592 6.595,8.338C4.252,9.994 1.82,11.515 -0.514,13.183C-0.972,13.51 -1.453,14.283 -1.407,14.8C-1.133,17.892 -0.713,20.97 -0.329,24.051C-0.247,24.71 -0.111,25.362 0,26.017" style="fill:white;fill-rule:nonzero;"/>
            </g>
            <g transform="matrix(4.16667,0,0,4.16667,804.587,1220.06)">
                <path d="M0,-7.462C0.092,-5.606 0.251,-3.481 0.278,-1.354C0.292,-0.376 0.64,-0.012 1.544,-0.013C7.416,-0.016 5.965,-0.011 11.836,0.014C12.614,0.017 12.936,-0.357 12.915,-1.093C12.882,-2.188 12.81,-3.281 12.762,-4.375C12.644,-7.085 12.65,-7.24 10.081,-7.325C5.415,-7.479 8.064,-7.429 3.395,-7.461C2.389,-7.469 1.383,-7.462 0,-7.462" style="fill:white;fill-rule:nonzero;"/>
            </g>
            <g transform="matrix(4.16667,0,0,4.16667,915.404,789.935)">
                <path d="M0,7.76L0,7.72C0.426,7.72 0.862,7.659 1.276,7.734C2.032,7.867 2.269,7.526 2.292,6.808C2.343,5.275 2.404,3.739 2.518,2.209C2.591,1.218 2.146,0.704 1.257,0.585C-0.129,0.399 -1.519,0.214 -2.913,0.125C-4.698,0.012 -6.492,-0.107 -8.276,-0.04C-10.763,0.054 -13.245,0.312 -15.728,0.514C-16.424,0.572 -16.762,0.929 -16.762,1.72C-16.76,3.505 -16.873,5.291 -16.855,7.076C-16.853,7.308 -16.352,7.73 -16.079,7.732C-10.72,7.771 -5.36,7.76 0,7.76" style="fill:white;fill-rule:nonzero;"/>
            </g>
            <g transform="matrix(4.16667,0,0,4.16667,940.276,1186.17)">
                <path d="M0,-11.674L0,-11.638C-1.706,-11.638 -3.412,-11.63 -5.117,-11.642C-5.871,-11.648 -6.144,-11.36 -6.1,-10.525C-5.941,-7.454 -5.842,-4.381 -5.767,-1.308C-5.742,-0.305 -5.284,0.013 -4.394,-0.077C-3.504,-0.168 -2.613,-0.244 -1.721,-0.306C0.739,-0.476 3.199,-0.669 5.662,-0.779C6.651,-0.824 6.886,-1.306 6.822,-2.207C6.622,-5.006 6.443,-7.807 6.273,-10.608C6.226,-11.38 5.85,-11.687 5.12,-11.68C3.414,-11.662 1.707,-11.674 0,-11.674" style="fill:white;fill-rule:nonzero;"/>
            </g>
            <g transform="matrix(4.16667,0,0,4.16667,886.4,1137.56)">
                <path d="M0,11.631L0,11.553C1.66,11.553 3.319,11.554 4.979,11.552C5.787,11.552 6.111,11.121 6.085,10.304C6.002,7.72 5.953,5.135 5.868,2.551C5.849,1.985 5.828,1.386 5.636,0.871C5.515,0.548 5.086,0.161 4.77,0.135C3.468,0.027 2.153,-0.022 0.848,0.037C-1.053,0.124 -2.959,0.517 -4.844,0.409C-6.205,0.331 -6.497,0.769 -6.435,1.978C-6.304,4.513 -6.219,7.051 -6.101,9.587C-6.085,9.935 -5.959,10.275 -5.928,10.622C-5.858,11.393 -5.445,11.653 -4.725,11.64C-3.151,11.61 -1.575,11.631 0,11.631" style="fill:white;fill-rule:nonzero;"/>
            </g>
            <g transform="matrix(4.16667,0,0,4.16667,1002.42,900.785)">
                <path d="M0,8.111C0,6.608 -0.003,5.039 0.001,3.469C0.01,0.069 0.053,0 -3.593,0.12C-6.177,0.205 -8.765,0.359 -11.336,0.633C-13.227,0.836 -15.093,1.277 -16.969,1.621C-17.999,1.809 -18.142,2.445 -18.047,3.453C-17.909,4.923 -18.012,6.416 -18.012,8.111L0,8.111Z" style="fill:white;fill-rule:nonzero;"/>
            </g>
            <g transform="matrix(4.16667,0,0,4.16667,1101.85,1171.58)">
                <path d="M0,5.917C0.005,5.977 0.01,6.035 0.014,6.095C1.036,6.095 2.06,6.046 3.077,6.107C4.159,6.174 4.678,5.767 4.605,4.606C4.557,3.819 4.571,3.027 4.579,2.238C4.605,-0.427 4.61,-0.548 1.763,-0.767C-2.427,-1.09 -6.612,-0.77 -10.78,-0.225C-11.532,-0.127 -11.835,0.194 -11.781,0.955C-11.688,2.265 -11.59,3.574 -11.542,4.886C-11.47,6.892 -11.302,7.007 -9.357,6.798C-6.242,6.464 -3.12,6.207 0,5.917" style="fill:white;fill-rule:nonzero;"/>
            </g>
            <g transform="matrix(4.16667,0,0,4.16667,804.951,1110.71)">
                <path d="M0,6.493C3.033,6.389 5.871,6.293 8.709,6.192C11.519,6.093 7.009,6.018 9.817,5.874C11.844,5.769 11.902,5.658 11.872,3.633C11.861,2.929 11.833,2.223 11.865,1.522C11.915,0.475 11.545,0 10.451,0.063C6.587,0.288 10.039,0.419 6.175,0.653C4.608,0.748 3.045,0.98 1.49,1.223C0.858,1.322 0.024,1.326 0.006,2.328C-0.019,3.727 0,5.127 0,6.493" style="fill:white;fill-rule:nonzero;"/>
            </g>
            <g transform="matrix(4.16667,0,0,4.16667,432.097,1494.32)">
                <path d="M0,-13.92C-1.475,-14.091 -2.164,-13.258 -2.862,-12.438C-4.391,-10.639 -4.958,-8.361 -5.685,-6.19C-6.333,-4.255 -5.495,-1.987 -4.081,-1.232C-1.452,0.171 1.3,0.159 4.101,-0.496C4.783,-0.656 5.154,-1.009 5.141,-1.87C5.116,-3.483 5.209,-5.116 6.15,-6.523C6.806,-7.503 6.343,-7.95 5.427,-8.178C5.1,-8.26 4.753,-8.257 4.424,-8.331C2.985,-8.656 1.522,-8.907 0.125,-9.366C-0.57,-9.594 -1.181,-10.169 -1.744,-10.687C-1.871,-10.804 -1.624,-11.632 -1.581,-11.629C0.127,-11.512 -0.42,-12.937 0,-13.92" style="fill:white;fill-rule:nonzero;"/>
            </g>
            <g transform="matrix(4.16667,0,0,4.16667,709.614,990.396)">
                <path d="M0,3.084C-0.689,3.616 -1.417,4.302 -2.253,4.793C-3.176,5.335 -3.033,5.886 -2.52,6.584C-0.863,8.837 1.767,9.863 4.405,9.088C6.609,8.44 8.883,7.852 10.909,6.795C17.169,3.531 23.314,0.031 29.535,-3.313C30.519,-3.842 30.825,-4.63 30.917,-5.598C30.993,-6.413 30.618,-6.779 29.83,-6.367C27.754,-5.283 25.676,-4.205 23.618,-3.086C17.68,0.143 11.759,3.407 5.808,6.61C5.034,7.027 4.128,7.335 3.268,7.381C2.661,7.413 1.756,7.096 1.462,6.62C0.831,5.601 0.509,4.378 0,3.084" style="fill:white;fill-rule:nonzero;"/>
            </g>
            <g transform="matrix(4.16667,0,0,4.16667,944.61,1187.22)">
                <path d="M0,7.879L0,7.912C1.701,7.912 3.401,7.891 5.101,7.923C5.747,7.935 6.219,7.823 6.192,7.033C6.127,5.108 6.094,3.181 5.94,1.264C5.909,0.881 5.427,0.271 5.096,0.227C3.714,0.046 2.307,-0.056 0.915,-0.006C-1.158,0.068 -3.223,0.353 -5.296,0.434C-6.314,0.474 -6.65,0.885 -6.583,1.877C-6.476,3.49 -6.374,5.108 -6.364,6.725C-6.358,7.592 -6.038,7.899 -5.233,7.887C-3.489,7.86 -1.744,7.879 0,7.879" style="fill:white;fill-rule:nonzero;"/>
            </g>
            <g transform="matrix(4.16667,0,0,4.16667,885.873,1220.16)">
                <path d="M0,-7.514C-0.001,-7.467 -0.002,-7.42 -0.004,-7.374C-1.453,-7.374 -2.902,-7.343 -4.349,-7.385C-5.432,-7.415 -5.817,-6.863 -5.726,-5.841C-5.584,-4.271 -5.366,-2.704 -5.292,-1.131C-5.25,-0.244 -4.875,-0.004 -4.104,-0.009C-0.999,-0.029 2.107,-0.042 5.211,-0.009C6.101,0 6.478,-0.401 6.455,-1.254C6.413,-2.832 6.31,-4.41 6.297,-5.988C6.29,-6.793 6.038,-7.213 5.212,-7.245C3.474,-7.313 1.737,-7.421 0,-7.514" style="fill:white;fill-rule:nonzero;"/>
            </g>
            <g transform="matrix(4.16667,0,0,4.16667,1120.85,1083.99)">
                <path d="M0,-4.04C-0.548,-3.916 -0.978,-3.667 -1.303,-3.769C-5.534,-5.099 -9.819,-4.644 -14.071,-4.09C-17.3,-3.668 -17.249,-3.526 -17.077,-0.228C-17.024,0.778 -16.631,1.059 -15.724,0.976C-14.171,0.835 -12.613,0.679 -11.058,0.685C-7.666,0.696 -4.274,0.822 -0.883,0.849C-0.59,0.851 -0.052,0.473 -0.04,0.248C0.039,-1.18 0,-2.614 0,-4.04" style="fill:white;fill-rule:nonzero;"/>
            </g>
            <g transform="matrix(4.16667,0,0,4.16667,423.414,1496.55)">
                <path d="M0,15.065C-0.703,8.708 3.103,4.562 6.878,0.302C4.021,0.281 1.424,0.927 -1.072,-0.285C-1.284,-0.387 -1.847,-0.007 -2.073,0.29C-2.287,0.568 -2.285,1.03 -2.356,1.416C-2.976,4.797 -3.76,8.16 -4.152,11.569C-4.441,14.075 -2.665,15.452 0,15.065" style="fill:white;fill-rule:nonzero;"/>
            </g>
            <g transform="matrix(4.16667,0,0,4.16667,615.923,829.053)">
                <path d="M0,15.359C0.344,14.645 0.656,13.942 1.014,13.263C2.328,10.772 4,8.564 6.056,6.681C6.865,5.941 6.982,5.255 6.319,4.315C5.723,3.468 5.294,2.497 4.788,1.583C3.956,0.082 3.518,0 2.264,1.154C0.467,2.809 -0.942,4.76 -2.027,6.988C-3.504,10.017 -2.81,13.159 0,15.359" style="fill:white;fill-rule:nonzero;"/>
            </g>
            <g transform="matrix(4.16667,0,0,4.16667,723.479,907.683)">
                <path d="M0,18.863C1.321,17.932 2.367,17.113 3.487,16.421C8.078,13.585 12.669,10.746 17.306,7.99C20.213,6.262 23.217,4.709 26.149,3.025C27.41,2.301 27.591,1.346 26.778,0C25.557,0.663 24.321,1.324 23.093,2.002C19.647,3.906 16.165,5.745 12.772,7.747C9.488,9.686 6.26,11.733 3.083,13.855C1.465,14.936 0.196,16.405 0,18.863" style="fill:white;fill-rule:nonzero;"/>
            </g>
            <g transform="matrix(4.16667,0,0,4.16667,928.335,1134.24)">
                <path d="M0,-6.065L0,-6.044C-0.809,-6.044 -1.617,-6.034 -2.426,-6.047C-3.352,-6.062 -3.754,-5.593 -3.673,-4.66C-3.579,-3.571 -3.406,-2.483 -3.4,-1.394C-3.394,-0.36 -2.995,0.019 -2.015,-0.035C-0.105,-0.139 1.807,-0.194 3.718,-0.251C5.037,-0.29 6.356,-0.302 7.676,-0.317C8.521,-0.326 8.938,-0.725 8.871,-1.62C8.792,-2.666 8.667,-3.713 8.672,-4.759C8.678,-5.733 8.278,-6.084 7.371,-6.074C4.915,-6.048 2.457,-6.065 0,-6.065" style="fill:white;fill-rule:nonzero;"/>
            </g>
            <g transform="matrix(4.16667,0,0,4.16667,883.692,1109.12)">
                <path d="M0,6.152L0,5.979C1.618,5.979 3.236,5.951 4.853,5.989C5.919,6.014 6.32,5.491 6.242,4.459C6.178,3.631 6.005,2.794 6.071,1.976C6.186,0.537 5.532,0.143 4.27,0.173C2.118,0.226 -0.036,0.201 -2.188,0.178C-2.819,0.172 -3.455,-0.025 -4.078,0.022C-5.936,0.164 -5.947,0.194 -5.991,2.143C-6.012,3.108 -5.986,4.074 -5.962,5.039C-5.942,5.863 -5.505,6.177 -4.718,6.162C-3.146,6.13 -1.573,6.152 0,6.152" style="fill:white;fill-rule:nonzero;"/>
            </g>
            <g transform="matrix(4.16667,0,0,4.16667,1053.84,1202.74)">
                <path d="M0,4.278C0.597,4.32 1.051,4.386 1.504,4.379C5.85,4.309 10.195,4.196 14.541,4.169C15.765,4.161 16.276,3.688 16.156,2.444C16.118,2.051 16.133,1.652 16.149,1.257C16.189,0.299 15.725,-0.108 14.829,-0.084C10.878,0.02 6.923,0.033 2.979,0.253C0.369,0.398 0.378,0.531 0.171,3.274C0.151,3.533 0.085,3.788 0,4.278" style="fill:white;fill-rule:nonzero;"/>
            </g>
            <g transform="matrix(4.16667,0,0,4.16667,1098.22,790.438)">
                <path d="M0,6.816C1.476,4.566 1.167,3.359 -1.285,2.494C-2.847,1.943 -4.495,1.644 -6.037,1.048C-8.752,0 -11.564,0.24 -14.348,0.243C-15.791,0.244 -16.645,1.671 -16.251,3.134C-16.183,3.388 -15.687,3.749 -15.47,3.697C-13.01,3.107 -10.652,3.747 -8.321,4.351C-5.534,5.075 -2.791,5.98 0,6.816" style="fill:white;fill-rule:nonzero;"/>
            </g>
            <g transform="matrix(4.16667,0,0,4.16667,631.922,857.44)">
                <path d="M0,13.512C0.177,13.204 0.321,12.945 0.473,12.69C1.782,10.505 2.933,8.196 4.441,6.168C6.398,3.537 6.521,3.634 4.648,0.968C4.624,0.933 4.609,0.89 4.586,0.854C4.096,0.088 3.548,0 2.954,0.725C1.51,2.486 -0.242,4.074 -1.301,6.054C-3.433,10.037 -3.463,10.366 -0.372,13.326C-0.312,13.382 -0.222,13.403 0,13.512" style="fill:white;fill-rule:nonzero;"/>
            </g>
            <g transform="matrix(4.16667,0,0,4.16667,452.686,1186.52)">
                <path d="M0,-15.91C-0.459,-15.799 -0.579,-15.807 -0.611,-15.757C-3.063,-11.933 -5.54,-8.126 -7.904,-4.245C-8.148,-3.844 -7.925,-2.734 -7.549,-2.415C-6.584,-1.597 -5.433,-0.998 -4.315,-0.39C-3.595,0 -3.15,-0.266 -2.977,-1.154C-2.417,-4.021 -1.791,-6.875 -1.208,-9.737C-0.802,-11.731 -0.425,-13.731 0,-15.91" style="fill:white;fill-rule:nonzero;"/>
            </g>
            <g transform="matrix(4.16667,0,0,4.16667,240.691,966.468)">
                <path d="M0,0.44L0.004,0.44C0.004,-0.305 0.05,-1.054 -0.014,-1.793C-0.049,-2.201 -0.163,-2.704 -0.425,-2.969C-1.936,-4.501 -4.583,-4.361 -6.047,-2.794C-7.045,-1.725 -7.304,-0.473 -7.23,0.944C-7.115,3.141 -5.39,4.941 -3.401,4.881C-0.746,4.801 0.031,3.937 0,1.097C-0.002,0.878 0,0.659 0,0.44" style="fill:white;fill-rule:nonzero;"/>
            </g>
            <g transform="matrix(4.16667,0,0,4.16667,644.292,878.407)">
                <path d="M0,12.061C0.451,11.49 0.879,11.004 1.246,10.474C2.695,8.373 4.144,6.27 5.546,4.136C5.801,3.748 6.078,3.09 5.927,2.757C5.494,1.8 4.848,0.946 4.253,0C1.433,2.239 -0.278,4.992 -1.4,8.119C-2.151,10.213 -1.937,10.565 0,12.061" style="fill:white;fill-rule:nonzero;"/>
            </g>
            <g transform="matrix(4.16667,0,0,4.16667,495.016,1103.27)">
                <path d="M0,-5.653C-0.307,-5.752 -0.424,-5.823 -0.54,-5.822C-2.268,-5.802 -3.996,-5.783 -5.724,-5.737C-5.958,-5.731 -6.297,-5.659 -6.402,-5.493C-7.092,-4.397 -7.833,-3.316 -8.356,-2.135C-8.892,-0.926 -8.042,0.17 -6.762,0.122C-6.167,0.1 -5.572,0.076 -4.977,0.047C-3.688,-0.017 -2.597,-0.297 -2.149,-1.83C-1.91,-2.645 -1.34,-3.359 -0.911,-4.114C-0.627,-4.612 -0.328,-5.1 0,-5.653" style="fill:white;fill-rule:nonzero;"/>
            </g>
            <g transform="matrix(4.16667,0,0,4.16667,445.159,1067.73)">
                <path d="M0,6.312C1.561,6.336 3.587,5.034 4.013,3.584C4.127,3.197 3.913,2.404 3.62,2.243C2.432,1.592 1.111,1.2 -0.077,0.549C-1.124,-0.024 -1.627,0.399 -2.042,1.313C-2.203,1.667 -2.411,2.004 -2.531,2.373C-3.072,4.032 -1.614,6.288 0,6.312" style="fill:white;fill-rule:nonzero;"/>
            </g>
            <g transform="matrix(4.16667,0,0,4.16667,235.01,948.911)">
                <path d="M0,-5.947C-1.749,-5.71 -4.012,-4.659 -4.254,-2.296C-4.348,-1.386 -4.202,-0.912 -3.152,-0.899C-2.113,-0.886 -1.045,-0.73 -0.047,-0.433C1.411,0 1.57,-0.039 1.851,-1.635C1.942,-2.152 2.009,-2.682 2.175,-3.176C2.832,-5.125 1.935,-5.858 0,-5.947" style="fill:white;fill-rule:nonzero;"/>
            </g>
            <g transform="matrix(4.16667,0,0,4.16667,254.338,988.735)">
                <path d="M0,9.089C-0.045,8.621 -0.031,8.447 -0.082,8.297C-0.947,5.735 -1.794,3.165 -2.729,0.631C-2.842,0.325 -3.473,0 -3.82,0.045C-7.159,0.478 -7.268,0.746 -5.458,3.583C-5.435,3.62 -5.414,3.658 -5.39,3.695C-4.02,5.807 -2.493,7.751 0,9.089" style="fill:white;fill-rule:nonzero;"/>
            </g>
            <g transform="matrix(-3.71271,1.89126,1.89126,3.71271,661.851,970.549)">
                <path d="M0.734,-11.256C2.683,-9.22 5.711,-2.938 5.673,-1.337C2.738,-1.825 0.194,-2.957 0.734,-6.182C0.83,-6.757 0.568,-7.393 0.571,-7.997C0.576,-8.972 0.663,-9.946 0.734,-11.256" style="fill:white;fill-rule:nonzero;"/>
            </g>
            <g transform="matrix(4.16667,0,0,4.16667,432.606,1187.24)">
                <path d="M0,8.282C0.226,7.944 0.377,7.816 0.4,7.667C0.701,5.779 1.016,3.892 1.238,1.994C1.277,1.66 0.999,1.099 0.714,0.948C-0.047,0.544 -0.891,0.304 -1.702,0C-1.819,0.794 -1.938,1.587 -2.049,2.381C-2.067,2.51 -2.064,2.645 -2.044,2.773C-1.744,4.69 -1.499,6.631 0,8.282" style="fill:white;fill-rule:nonzero;"/>
            </g>
            <g transform="matrix(4.16667,0,0,4.16667,1084.74,1336.13)">
                <path d="M0,21.914C0.009,23.849 0.036,23.956 1.963,23.848C3.78,23.746 5.589,23.46 7.396,23.212C9.062,22.983 8.309,21.629 8.4,20.717C8.501,19.697 7.755,19.627 7.028,19.662C5.337,19.744 3.649,19.884 1.958,19.927C0.074,19.976 -0.009,20.023 0,21.914M-107.613,-13.315C-101.611,-15.837 -95.726,-17.698 -89.572,-18.628C-89.991,-18.878 -90.36,-18.867 -90.729,-18.88C-92.929,-18.956 -95.128,-19.049 -97.328,-19.114C-100.306,-19.202 -103.284,-19.291 -106.262,-19.331C-106.886,-19.34 -107.606,-19.252 -107.611,-18.307C-107.619,-16.789 -107.613,-15.272 -107.613,-13.315M-1.014,-13.523L-1.002,-13.523C-1.002,-12.603 -0.991,-11.683 -1.005,-10.762C-1.018,-9.923 -0.647,-9.603 0.17,-9.646C2.499,-9.768 4.83,-9.865 7.161,-9.922C7.987,-9.942 8.168,-10.393 8.136,-11.103C8.069,-12.546 7.954,-13.989 7.959,-15.433C7.963,-16.562 7.449,-17.003 6.427,-17.064C4.27,-17.19 2.115,-17.394 -0.044,-17.44C-0.36,-17.448 -0.911,-16.808 -0.97,-16.407C-1.107,-15.465 -1.014,-14.486 -1.014,-13.523M8.521,13.44C8.502,13.439 8.483,13.437 8.463,13.436C8.463,13.085 8.461,12.733 8.464,12.382C8.467,11.986 8.476,11.591 8.479,11.195C8.496,9.605 8.305,9.315 6.733,9.373C4.91,9.439 3.097,9.74 1.274,9.84C0.092,9.905 -0.273,10.5 -0.221,11.62C-0.131,13.547 0.083,15.492 -0.087,17.397C-0.206,18.727 0.226,18.93 1.27,18.854C3.382,18.701 5.499,18.6 7.606,18.393C7.851,18.369 8.202,17.834 8.239,17.505C8.389,16.156 8.437,14.797 8.521,13.44M-87.333,1.779C-92.083,2.535 -97.813,3.303 -103.324,5.19C-103.576,5.276 -103.917,5.651 -103.909,5.879C-103.863,7.104 -103.731,8.326 -103.607,9.547C-103.53,10.306 -103.228,10.583 -102.405,10.341C-100.284,9.718 -98.145,9.143 -95.989,8.665C-92.839,7.965 -89.69,7.202 -86.501,6.771C-83.646,6.386 -83.624,6.568 -84.024,3.692C-84.304,1.678 -84.421,1.579 -87.333,1.779M-1.747,-3.015C-2.539,-3.015 -3.059,-3.034 -3.577,-3.012C-6.797,-2.874 -10.017,-2.698 -13.239,-2.6C-14.329,-2.565 -14.505,-1.919 -14.456,-1.046C-14.333,1.139 -14.181,3.321 -14.05,5.506C-14.002,6.313 -13.711,6.674 -12.834,6.544C-9.393,6.034 -5.937,5.621 -2.501,5.072C-2.081,5.005 -1.43,4.33 -1.433,3.94C-1.451,1.59 -1.628,-0.76 -1.747,-3.015M0.014,28.815C-0.004,28.816 -0.022,28.817 -0.04,28.818C0.146,32.715 0.344,36.61 0.508,40.509C0.544,41.368 1.053,41.535 1.701,41.515C3.402,41.462 5.103,41.333 6.804,41.315C7.839,41.305 8.229,40.901 8.213,39.81C8.173,36.998 8.209,34.184 8.252,31.37C8.278,29.627 8.408,27.885 8.426,26.142C8.44,24.732 8.06,24.46 6.752,24.588C4.851,24.773 2.945,24.917 1.039,25.027C0.354,25.066 0.004,25.319 0.011,26.046C0.021,26.969 0.014,27.893 0.014,28.815M-60.016,35.984C-59.966,35.984 -59.916,35.983 -59.865,35.983C-59.865,37.299 -59.883,38.613 -59.858,39.929C-59.844,40.692 -59.645,41.289 -58.692,41.283C-54.475,41.26 -57.58,41.271 -53.363,41.272C-52.686,41.273 -52.363,40.993 -52.385,40.237C-52.451,37.868 -52.531,35.496 -52.482,33.127C-52.454,31.782 -53.099,31.294 -54.228,31.265C-58.265,31.16 -54.982,31.091 -59.02,31.003C-59.712,30.988 -60.031,31.309 -60.021,32.033C-60.004,33.35 -60.016,34.667 -60.016,35.984M8.482,0.389L8.374,0.389C8.374,-1.981 8.383,-4.349 8.371,-6.718C8.364,-7.933 7.73,-8.591 6.565,-8.612C4.708,-8.647 2.845,-8.712 0.993,-8.604C-0.774,-8.499 -0.841,-8.354 -0.777,-6.508C-0.617,-1.866 -0.414,2.774 -0.266,7.416C-0.233,8.462 0.152,8.794 1.161,8.661C3.095,8.406 5.044,8.086 6.982,8.12C8.262,8.143 8.523,7.72 8.496,6.575C8.447,4.515 8.482,2.451 8.482,0.389M-63.085,41.196C-61.276,41.286 -61.26,41.286 -61.245,39.375C-61.229,37.272 -61.246,35.169 -61.25,33.065C-61.254,30.944 -61.336,30.872 -63.379,30.739C-67.28,30.483 -71.181,30.222 -75.079,29.933C-76.008,29.864 -76.425,30.176 -76.371,31.182C-76.22,34.017 -76.025,36.853 -76.028,39.688C-76.029,40.694 -75.628,40.741 -74.944,40.766C-70.991,40.906 -67.038,41.053 -63.085,41.196M-4.038,-4.273C-1.863,-4.083 -1.734,-4.18 -1.774,-5.868C-1.836,-8.54 -1.932,-11.212 -2.025,-13.883C-2.058,-14.803 -2.075,-15.73 -2.205,-16.637C-2.243,-16.907 -2.612,-17.294 -2.874,-17.336C-3.749,-17.475 -4.643,-17.511 -5.531,-17.535C-7.887,-17.599 -10.243,-17.643 -12.599,-17.677C-13.106,-17.685 -13.654,-17.73 -14.108,-17.553C-14.43,-17.427 -14.846,-16.955 -14.843,-16.642C-14.813,-13.319 -14.75,-9.995 -14.611,-6.675C-14.484,-3.648 -14.223,-3.472 -11.266,-3.903C-11.224,-3.909 -11.182,-3.922 -11.14,-3.924C-8.599,-4.05 -6.057,-4.175 -4.038,-4.273M-61.291,24.77C-61.267,24.768 -61.243,24.767 -61.219,24.765C-61.316,22.974 -61.464,21.184 -61.492,19.392C-61.51,18.166 -62.097,17.77 -63.17,17.792C-64.275,17.813 -65.38,17.789 -66.485,17.802C-69.624,17.839 -72.763,17.893 -75.901,17.918C-76.635,17.924 -77.05,18.225 -77.017,18.995C-76.905,21.525 -76.771,24.055 -76.646,26.584C-76.578,27.949 -76.137,28.738 -74.561,28.81C-70.573,28.992 -66.595,29.373 -62.614,29.689C-61.625,29.768 -61.223,29.361 -61.277,28.323C-61.338,27.143 -61.291,25.955 -61.291,24.77M-52.478,24.267L-52.438,24.267C-52.438,22.818 -52.496,21.366 -52.419,19.922C-52.355,18.746 -52.727,18.294 -53.919,18.287C-57.533,18.267 -53.824,18.129 -57.437,18.054C-58.159,18.038 -58.902,18.006 -59.598,18.163C-59.917,18.235 -60.375,18.746 -60.375,19.058C-60.372,22.168 -60.266,25.277 -60.235,28.389C-60.225,29.422 -59.862,29.904 -58.81,29.918C-54.694,29.97 -57.9,30.062 -53.786,30.158C-52.903,30.179 -52.436,29.879 -52.466,28.874C-52.513,27.34 -52.478,25.803 -52.478,24.267M-107.27,-7.018C-107.387,-6.997 -107.505,-6.976 -107.623,-6.955C-107.662,-6.79 -107.733,-6.625 -107.735,-6.46C-107.786,-1.85 -107.847,2.761 -107.871,7.37C-107.898,12.678 -107.968,17.986 -107.877,23.291C-107.791,28.294 -107.522,33.294 -107.329,38.295C-107.297,39.104 -107.064,39.807 -106.142,39.89C-104.615,40.026 -103.085,40.132 -101.555,40.226C-100.757,40.276 -100.422,39.987 -100.553,39.046C-101.578,31.714 -102.497,24.365 -103.562,17.039C-104.632,9.67 -105.833,2.321 -106.977,-5.037C-107.079,-5.696 -107.172,-6.357 -107.27,-7.018M-13.901,32.99L-13.891,33.444C-14.298,33.61 -14.695,33.877 -15.115,33.925C-18.235,34.285 -21.355,34.66 -24.484,34.915C-26.985,35.12 -29.498,35.166 -32.006,35.274C-32.627,35.301 -32.925,35.526 -32.866,36.247C-32.769,37.426 -32.71,38.614 -32.74,39.797C-32.768,40.927 -32.356,41.312 -31.24,41.303C-25.615,41.254 -19.989,41.258 -14.364,41.298C-13.293,41.306 -12.912,40.921 -12.988,39.84C-13.2,36.821 -13.372,33.799 -13.549,30.777C-13.606,29.808 -14.18,29.67 -14.964,29.743C-17.5,29.981 -20.034,30.237 -22.574,30.407C-25.606,30.611 -28.643,30.76 -31.679,30.88C-32.915,30.929 -33.066,31.617 -33.07,32.698C-33.075,33.933 -32.315,34.107 -31.495,34.08C-28.479,33.981 -25.458,33.884 -22.453,33.626C-19.921,33.409 -17.409,32.953 -14.883,32.651C-14.573,32.614 -14.229,32.87 -13.901,32.99M-25.842,29.302L-25.812,29.642C-22.264,29.282 -18.716,28.919 -15.167,28.567C-14.161,28.468 -13.646,28.046 -13.759,26.881C-14.011,24.265 -14.186,21.64 -14.369,19.016C-14.432,18.104 -14.807,17.701 -15.74,17.743C-18.396,17.863 -21.057,17.89 -23.713,18.008C-26.542,18.133 -29.366,18.339 -32.195,18.473C-33.408,18.53 -33.813,19.162 -33.731,20.347C-33.555,22.924 -33.375,25.503 -33.299,28.084C-33.261,29.365 -32.75,29.753 -31.569,29.647C-29.665,29.476 -27.751,29.412 -25.842,29.302M-35.022,23.861C-35.022,19.173 -34.993,14.929 -35.074,10.687C-35.082,10.315 -35.785,9.694 -36.219,9.64C-37.86,9.434 -39.523,9.357 -41.18,9.337C-44.479,9.296 -47.778,9.324 -51.156,9.324C-51.183,9.513 -51.297,9.942 -51.296,10.371C-51.282,14.049 -51.245,17.727 -51.22,21.405C-51.205,23.632 -51.09,23.827 -48.95,23.848C-44.29,23.892 -39.628,23.861 -35.022,23.861M-40.684,41.214C-40.684,41.219 -40.684,41.224 -40.685,41.228C-38.937,41.228 -37.189,41.215 -35.441,41.233C-34.37,41.245 -33.938,40.798 -33.996,39.637C-34.22,35.121 -34.386,30.602 -34.54,26.083C-34.57,25.21 -34.829,24.861 -35.747,24.877C-39.439,24.94 -43.133,24.917 -46.826,24.938C-47.716,24.943 -48.61,25.074 -49.494,25.015C-51.115,24.906 -51.405,25.179 -51.373,26.92C-51.302,30.727 -51.254,34.532 -51.193,38.339C-51.183,38.998 -51.275,39.693 -51.095,40.301C-50.985,40.674 -50.455,41.167 -50.104,41.174C-46.965,41.242 -43.824,41.214 -40.684,41.214M-69.424,16.746L-69.424,16.753C-67.25,16.753 -65.074,16.715 -62.901,16.768C-61.839,16.795 -61.601,16.276 -61.615,15.315C-61.706,9.042 -61.781,2.768 -61.828,-3.506C-61.833,-4.265 -62.006,-4.69 -62.801,-4.677C-67.478,-4.594 -72.155,-4.527 -76.831,-4.406C-77.085,-4.4 -77.526,-3.975 -77.545,-3.718C-77.635,-2.503 -77.651,-1.278 -77.614,-0.061C-77.458,5.017 -77.246,10.092 -77.12,15.17C-77.093,16.252 -76.865,16.802 -75.69,16.765C-73.603,16.698 -71.513,16.746 -69.424,16.746M-44.102,-12.844C-44.102,-12.924 -44.102,-13.005 -44.101,-13.085C-45.72,-13.085 -47.342,-13.027 -48.958,-13.105C-50.177,-13.162 -50.806,-12.762 -50.78,-11.424C-50.764,-10.55 -50.927,-9.673 -50.912,-8.799C-50.884,-7.141 -50.69,-5.482 -50.736,-3.827C-50.829,-0.499 -51.012,2.826 -51.211,6.149C-51.281,7.319 -50.759,7.718 -49.727,7.756C-45.393,7.918 -41.059,8.116 -36.724,8.265C-35.246,8.314 -35.055,8.095 -35.074,6.499C-35.106,3.869 -35.235,1.239 -35.228,-1.39C-35.219,-4.723 -35.138,-8.055 -35.038,-11.386C-35.005,-12.479 -35.433,-12.87 -36.462,-12.856C-39.008,-12.819 -41.555,-12.844 -44.102,-12.844M-52.432,3.601L-52.096,3.601C-52.096,1.713 -52.136,-0.176 -52.082,-2.062C-52.047,-3.279 -52.521,-3.801 -53.707,-3.846C-57.904,-4.005 -54.781,-4.19 -58.976,-4.425C-60.231,-4.495 -60.781,-3.984 -60.821,-2.72C-60.853,-1.714 -61.049,-0.707 -61.023,0.295C-60.891,5.471 -60.692,10.643 -60.562,15.819C-60.537,16.818 -60.002,16.977 -59.247,16.979C-55.038,16.989 -58.151,16.987 -53.942,17.015C-52.952,17.021 -52.423,16.65 -52.427,15.565C-52.44,11.577 -52.432,7.589 -52.432,3.601M-104.278,4.066C-102.855,3.71 -101.727,3.364 -100.574,3.149C-95.897,2.28 -91.217,1.419 -86.527,0.624C-84.846,0.339 -84.573,0.063 -84.851,-1.658C-85.29,-4.383 -85.696,-7.113 -86.143,-9.837C-86.419,-11.522 -86.661,-13.219 -87.073,-14.869C-87.473,-16.469 -88.454,-17.086 -89.892,-16.968C-94.766,-16.568 -99.433,-15.269 -103.982,-13.492C-106.947,-12.333 -107,-12.25 -106.486,-9.016C-105.937,-5.559 -105.28,-2.119 -104.682,1.33C-104.521,2.261 -104.405,3.199 -104.278,4.066M-0.994,15.966L-1.246,15.966C-1.246,13.241 -1.26,10.516 -1.238,7.79C-1.23,6.894 -1.468,6.299 -2.463,6.428C-5.957,6.879 -9.453,7.315 -12.934,7.853C-13.265,7.905 -13.746,8.638 -13.735,9.044C-13.662,12.018 -13.533,14.995 -13.324,17.964C-12.82,25.132 -12.252,32.295 -11.736,39.462C-11.61,41.212 -11.533,41.419 -9.779,41.468C-7.222,41.538 -4.663,41.482 -2.105,41.507C-1.208,41.516 -0.789,41.179 -0.824,40.188C-0.914,37.645 -0.977,35.101 -0.987,32.557C-1.01,27.026 -0.994,21.496 -0.994,15.966M-34.043,11.823C-33.932,11.824 -33.821,11.824 -33.71,11.825C-33.71,13.273 -33.758,14.724 -33.688,16.169C-33.656,16.819 -33.447,17.448 -32.526,17.393C-31.047,17.305 -29.561,17.366 -28.083,17.278C-23.967,17.032 -19.854,16.727 -15.739,16.479C-14.873,16.428 -14.512,16.052 -14.561,15.166C-14.643,13.675 -14.656,12.181 -14.756,10.691C-15.104,5.53 -15.508,0.373 -15.826,-4.79C-15.964,-7.03 -15.926,-7.079 -18.085,-7.001C-22.977,-6.825 -27.868,-6.618 -32.761,-6.463C-33.752,-6.432 -34.069,-6.032 -34.062,-5.019C-34.024,0.596 -34.043,6.21 -34.043,11.823M-77.306,40.446C-77.684,39.773 -78,39.428 -78.082,39.03C-78.559,36.714 -79.023,34.393 -79.413,32.06C-80.69,24.412 -81.952,16.762 -83.17,9.103C-83.349,7.979 -83.839,7.592 -84.881,7.74C-87.279,8.083 -89.714,8.244 -92.072,8.772C-95.22,9.477 -98.313,10.445 -101.422,11.329C-103.092,11.805 -103.187,11.968 -102.98,13.696C-102.731,15.782 -102.49,17.869 -102.184,19.946C-101.276,26.096 -100.341,32.241 -99.411,38.388C-99.15,40.115 -98.917,40.378 -97.19,40.406C-95.661,40.431 -94.127,40.239 -92.598,40.266C-88.125,40.343 -83.654,40.487 -79.181,40.588C-78.619,40.601 -78.054,40.506 -77.306,40.446M-34.146,-7.655C-33.542,-7.61 -33.212,-7.558 -32.883,-7.565C-29.006,-7.656 -25.129,-7.725 -21.254,-7.87C-19.77,-7.926 -18.285,-8.117 -16.816,-8.349C-16.473,-8.402 -15.921,-8.87 -15.922,-9.144C-15.938,-11.686 -16.027,-14.229 -16.174,-16.766C-16.19,-17.055 -16.682,-17.54 -16.968,-17.553C-19.988,-17.678 -23.013,-17.811 -26.034,-17.77C-28.966,-17.73 -31.896,-17.381 -34.828,-17.362C-39.022,-17.337 -43.218,-17.458 -47.412,-17.572C-52.558,-17.713 -50.382,-17.888 -55.526,-18.09C-58.843,-18.221 -62.155,-18.514 -65.473,-18.579C-72.801,-18.726 -80.13,-18.777 -87.459,-18.855C-87.757,-18.857 -88.057,-18.736 -88.727,-18.595C-86.51,-17.686 -85.922,-15.98 -85.618,-14.184C-85.041,-10.777 -84.6,-7.346 -84.067,-3.932C-83.276,1.132 -82.486,6.194 -81.634,11.247C-81.14,14.18 -80.458,17.08 -79.982,20.016C-79.353,23.905 -78.853,27.816 -78.273,31.714C-78.165,32.442 -77.945,33.154 -77.776,33.873C-77.657,33.852 -77.538,33.832 -77.418,33.811C-77.418,33.308 -77.401,32.804 -77.42,32.301C-77.661,25.897 -77.907,19.494 -78.15,13.091C-78.174,12.476 -78.193,11.86 -78.212,11.246C-78.377,5.98 -78.54,0.715 -78.709,-4.551C-78.736,-5.397 -78.34,-5.741 -77.546,-5.729C-76.438,-5.71 -75.33,-5.715 -74.221,-5.728C-70.565,-5.769 -66.905,-5.959 -63.254,-5.832C-57.481,-5.633 -59.036,-5.232 -53.268,-4.891C-52.322,-4.835 -51.955,-5.234 -51.956,-6.177C-51.958,-8.496 -51.952,-10.816 -51.877,-13.134C-51.866,-13.488 -51.514,-14.089 -51.251,-14.131C-50.209,-14.301 -49.139,-14.359 -48.082,-14.34C-43.656,-14.258 -39.231,-14.121 -34.806,-14.029C-33.68,-14.006 -33.53,-13.745 -33.691,-12.642C-33.928,-11.019 -33.999,-9.369 -34.146,-7.655M-108.606,-20.682C-104.423,-20.514 -100.479,-20.29 -96.531,-20.211C-89.286,-20.065 -82.037,-20.072 -74.793,-19.888C-68.323,-19.723 -61.858,-19.376 -55.391,-19.125C-50.411,-18.932 -52.753,-18.729 -47.772,-18.59C-43.653,-18.476 -39.53,-18.359 -35.411,-18.41C-31.156,-18.463 -26.904,-18.847 -22.651,-18.853C-15.029,-18.862 -7.407,-18.731 0.213,-18.585C2.848,-18.535 5.479,-18.254 8.112,-18.105C8.942,-18.058 9.144,-17.662 9.154,-16.832C9.212,-12.052 9.347,-7.273 9.43,-2.493C9.472,-0.075 9.468,2.344 9.469,4.762C9.472,12.486 9.471,20.212 9.465,27.937C9.461,32.298 9.425,36.658 9.449,41.018C9.455,42.028 8.808,42.207 8.136,42.273C6.663,42.42 5.18,42.525 3.701,42.538C-0.773,42.575 -5.249,42.596 -9.723,42.559C-17.192,42.497 -24.661,42.37 -32.13,42.303C-35.705,42.269 -39.281,42.336 -42.856,42.306C-45.324,42.284 -47.792,42.102 -50.259,42.118C-56.077,42.154 -54.577,42.438 -60.391,42.304C-67.238,42.145 -74.074,41.534 -80.921,41.341C-85.838,41.202 -90.765,41.475 -95.687,41.47C-98.453,41.468 -101.219,41.281 -103.984,41.167C-104.834,41.132 -105.683,41.037 -106.533,41.011C-107.786,40.973 -108.562,40.209 -108.607,38.908C-108.768,34.258 -109.009,29.607 -109.062,24.954C-109.118,19.959 -108.992,14.962 -108.953,9.966C-108.916,5.186 -108.885,0.407 -108.86,-4.372C-108.834,-9.228 -108.828,-14.083 -108.792,-18.938C-108.787,-19.582 -108.657,-20.225 -108.606,-20.682" style="fill:rgb(35,31,32);fill-rule:nonzero;"/>
            </g>
            <g transform="matrix(4.16667,0,0,4.16667,457.84,839.722)">
                <path d="M0,-5.641C-0.825,-3.637 -3.21,-2.518 -1.877,0C-2.6,-0.037 -2.979,-0.055 -3.342,-0.073C-3.654,-2.538 -2.542,-4.524 0,-5.641" style="fill:rgb(35,31,32);fill-rule:nonzero;"/>
            </g>
            <g transform="matrix(3.04081,2.84862,2.84862,-3.04081,489.382,873.012)">
                <path d="M1.302,0.603C0.19,1.387 -1.37,1.542 -1.997,3.069C-0.888,3.678 0.128,3.441 1.302,2.186C1.601,1.866 1.594,1.26 1.726,0.785C1.585,0.725 1.444,0.664 1.302,0.603" style="fill:rgb(35,31,32);fill-rule:nonzero;"/>
            </g>
        </g>
    </g>
</svg>
