<?xml version="1.0" encoding="UTF-8" standalone="no"?>
<!DOCTYPE svg PUBLIC "-//W3C//DTD SVG 1.1//EN" "http://www.w3.org/Graphics/SVG/1.1/DTD/svg11.dtd">
<svg width="100%" height="100%" viewBox="0 0 708 922" version="1.1" xmlns="http://www.w3.org/2000/svg" xmlns:xlink="http://www.w3.org/1999/xlink" xml:space="preserve" xmlns:serif="http://www.serif.com/" style="fill-rule:evenodd;clip-rule:evenodd;stroke-linejoin:round;stroke-miterlimit:2;">
    <g transform="matrix(1,0,0,1,-1440,-637)">
        <g>
            <g transform="matrix(4.16667,0,0,4.16667,1904.21,937.057)">
                <path d="M0,77.675C0.595,78.061 1.039,78.349 1.482,78.639C3.086,79.688 4.755,80.649 6.272,81.81C7.981,83.118 7.996,83.208 9.362,81.695C9.745,81.272 10.016,80.747 10.255,80.392C8.686,79.103 7.204,78.012 5.869,76.765C2.857,73.948 2.598,73.953 0,77.675M-50.452,33.156C-50.477,31.326 -50.919,30.738 -52.71,30.196C-53.369,29.996 -54.038,29.684 -54.702,29.685C-55.49,29.687 -56.421,29.759 -57.04,30.173C-59.169,31.597 -59.339,33.313 -57.749,35.476C-56.754,36.83 -54.492,37.506 -52.788,36.959C-51.271,36.471 -50.428,35.098 -50.452,33.156M-41.043,42.648C-41.573,46.046 -39.583,50.704 -35.486,51.737C-32.788,52.418 -29.778,51.42 -28.713,49.271C-28.368,48.573 -28.47,48.115 -29.188,47.803C-33.099,46.104 -37.007,44.403 -41.043,42.648M-13.915,97.8C-15.6,97.318 -15.59,97.339 -16.875,97.943C-18.58,98.746 -20.176,100.042 -22.276,99.201C-22.455,99.13 -22.774,99.184 -22.926,99.306C-24.638,100.688 -26.588,101.445 -28.77,101.657C-28.977,101.677 -29.179,101.864 -29.361,102.003C-30.459,102.836 -31.606,103.614 -32.632,104.529C-34.665,106.345 -34.962,106.37 -36.944,104.455C-37.036,104.367 -37.218,104.373 -37.457,104.308C-38.552,105.896 -39.517,107.762 -41.927,107.683C-42.108,107.677 -42.373,107.886 -42.475,108.066C-43.115,109.2 -44.195,109.261 -45.286,109.21C-46.283,109.163 -47.254,109.354 -47.668,110.263C-48.434,111.943 -49.728,112.096 -51.282,111.9C-51.888,111.823 -52.511,111.878 -53.125,111.892C-53.783,111.908 -54.063,112.269 -54.089,112.918C-54.167,114.963 -54.27,117.006 -54.373,119.253C-41.195,111.633 -28.086,104.111 -13.915,97.8M-27.766,63.049C-24.986,62.999 -22.798,61.912 -21.221,59.53C-19.933,57.585 -19.585,55.43 -19.503,53.195C-19.47,52.288 -19.277,51.084 -19.755,50.543C-20.306,49.92 -21.513,49.867 -22.441,49.592C-23.249,49.352 -24.064,49.135 -24.882,48.931C-26.538,48.517 -26.585,48.501 -27.333,50.018C-28.056,51.484 -29.165,52.471 -30.698,52.933C-31.862,53.283 -33.058,53.577 -34.261,53.74C-35.216,53.869 -35.565,54.272 -35.603,55.215C-35.773,59.583 -32.361,63.013 -27.766,63.049M-50.464,42.079C-50.468,42.112 -50.471,42.145 -50.475,42.177C-50.937,42.177 -51.398,42.17 -51.86,42.179C-54.238,42.225 -54.338,42.291 -54.17,44.689C-53.942,47.938 -53.028,51.039 -51.815,54.036C-51.488,54.844 -50.759,55.529 -50.105,56.159C-48.013,58.18 -45.396,58.379 -42.771,57.818C-40.971,57.433 -39.359,56.406 -38.143,54.949C-37.203,53.825 -37.254,52.87 -38.343,52.256C-41.284,50.597 -42.245,47.828 -42.557,44.761C-42.681,43.54 -43.141,42.898 -44.285,42.756C-46.342,42.502 -48.404,42.302 -50.464,42.079M-98.86,111.953L-98.846,111.82C-97.019,112.016 -95.196,112.283 -93.364,112.397C-86.706,112.809 -80.063,113.251 -73.52,114.714C-68.525,115.831 -63.821,117.52 -59.706,120.63C-59.047,121.129 -58.367,122.104 -57.583,121.428C-57.12,121.03 -57.166,119.911 -57.184,119.121C-57.198,118.453 -57.48,117.785 -57.682,117.129C-58.612,114.087 -61.197,112.789 -63.751,111.546C-68.33,109.315 -73.278,108.668 -78.285,108.755C-82.39,108.825 -86.375,108.109 -90.387,107.513C-93.493,107.052 -96.579,106.456 -99.668,105.884C-100.315,105.764 -100.905,105.65 -101.236,106.37C-101.878,107.763 -102.554,109.145 -103.091,110.578C-103.382,111.352 -103.025,111.942 -102.089,111.951C-101.013,111.962 -99.937,111.953 -98.86,111.953M-62.547,-46.626C-62.51,-45.871 -62.549,-45.244 -62.437,-44.646C-61.548,-39.837 -58.967,-35.835 -56.242,-31.92C-56.04,-31.631 -55.28,-31.481 -54.894,-31.609C-50.735,-32.986 -46.73,-34.719 -42.973,-36.991C-41.154,-38.092 -40.084,-39.669 -39.821,-41.801C-39.455,-44.786 -41.21,-47.114 -44.214,-47.391C-46.192,-47.574 -48.165,-47.688 -49.985,-46.44C-51.163,-45.633 -51.916,-46.085 -52.278,-47.495C-52.448,-48.162 -52.578,-48.849 -52.843,-49.478C-53.256,-50.464 -53.662,-51.482 -54.839,-51.862C-58.398,-53.012 -63.189,-50.31 -62.547,-46.626M-53.493,121.144C-53.472,121.315 -53.45,121.486 -53.43,121.656C-52.931,121.811 -52.441,122.024 -51.931,122.111C-50.422,122.367 -48.875,122.451 -47.397,122.821C-42.619,124.017 -38.023,125.735 -33.653,128.02C-29.853,130.007 -26.111,132.111 -22.27,134.012C-19.388,135.438 -16.311,136.474 -13.465,137.962C-11.186,139.155 -8.752,139.594 -6.32,140.127C-5.127,140.387 -3.889,140.498 -2.665,140.547C-0.888,140.617 -0.878,140.54 -1.052,138.807C-1.187,137.44 -1.363,136.067 -1.339,134.699C-1.324,133.917 -1.522,133.613 -2.258,133.437C-5.005,132.778 -7.774,132.181 -10.465,131.336C-12.493,130.699 -14.459,129.81 -16.372,128.871C-20.625,126.784 -24.326,123.761 -28.863,122.077C-34.705,119.91 -40.623,118.661 -46.821,118.967C-49.193,119.083 -51.385,120.092 -53.493,121.144M49.688,104.639C48.754,105.044 48.026,105.29 47.366,105.658C44.755,107.113 42.126,108.542 39.577,110.1C36.174,112.18 32.762,114.263 29.488,116.539C22.418,121.453 15.324,126.323 7.841,130.594C6.178,131.544 4.44,132.42 2.643,133.067C0.38,133.88 0.335,133.762 0.307,136.152C0.3,136.767 0.277,137.388 0.344,137.997C0.57,140.085 1.172,140.384 2.959,139.37C8.899,136.002 14.842,132.636 20.789,129.28C23.932,127.508 27.132,125.833 30.227,123.982C36.422,120.276 42.575,116.499 48.707,112.69C49.344,112.295 50.246,111.719 49.818,110.663C49.176,109.079 49.093,107.522 49.731,105.92C49.833,105.665 49.72,105.325 49.688,104.639M-3.933,92.623C-4.037,92.25 -4.173,91.819 -4.276,91.381C-4.856,88.927 -4.883,88.901 -7.277,89.516C-7.866,89.667 -8.617,89.725 -8.979,90.117C-10.19,91.427 -11.562,91.179 -13.032,90.858C-14.205,90.601 -15.256,90.638 -15.985,91.942C-16.324,92.548 -17.103,93.066 -17.789,93.288C-19.611,93.876 -21.472,94.53 -23.356,94.686C-25.17,94.835 -26.573,95.532 -27.925,96.585C-29.214,97.59 -30.593,98.102 -32.199,97.304C-32.824,96.994 -33.329,97.165 -33.85,97.658C-35.525,99.244 -35.584,99.23 -37.487,98.117C-37.915,97.867 -38.336,97.605 -38.823,97.31C-39.407,98.481 -39.988,99.479 -40.414,100.54C-40.951,101.879 -41.836,102.379 -43.272,102.287C-44.055,102.236 -45.027,102.348 -45.616,102.787C-46.407,103.377 -47.117,103.768 -48.11,103.692C-48.455,103.666 -49.014,103.771 -49.144,104.002C-50.023,105.573 -51.177,104.907 -52.316,104.481C-55.032,103.464 -55.032,103.463 -56.983,105.72C-57.033,105.779 -57.07,105.848 -57.122,105.905C-57.995,106.836 -58.275,106.736 -59.444,106.161C-60.795,105.496 -62.266,104.694 -63.703,104.655C-67.921,104.543 -72.152,104.696 -76.37,104.905C-80.66,105.118 -84.816,105.025 -88.322,102.035C-88.864,101.573 -89.503,101.518 -90.252,101.786C-91.398,102.197 -92.615,102.404 -93.794,102.728C-95.405,103.17 -97.008,103.64 -98.976,104.202C-98.104,104.552 -97.648,104.83 -97.157,104.92C-93.539,105.582 -89.934,106.366 -86.287,106.804C-81.116,107.426 -75.92,107.851 -70.726,108.234C-66.795,108.525 -63.294,109.928 -59.97,111.915C-58.209,112.967 -56.806,114.337 -56.085,116.316C-56.001,116.547 -55.777,116.726 -55.52,117.055C-54.995,114.917 -54.981,113.989 -55.382,111.862C-55.662,110.379 -55.4,110.088 -53.894,110.211C-53.741,110.223 -53.587,110.245 -53.44,110.287C-51.179,110.927 -49.367,110.408 -48.148,108.28C-47.772,107.623 -47.189,107.171 -46.431,107.539C-44.802,108.331 -43.837,107.613 -43.008,106.272C-42.799,105.935 -42.23,105.49 -41.973,105.57C-40.446,106.035 -39.921,104.962 -39.312,103.995C-38.725,103.059 -38.166,102.105 -37.543,101.073C-37.037,101.626 -36.636,102.087 -36.212,102.526C-34.786,104.003 -34.824,103.939 -33.02,102.734C-31.501,101.718 -29.968,100.467 -28.263,100.053C-26.563,99.642 -25.138,98.94 -23.7,98.082C-23.258,97.818 -22.666,97.407 -22.275,97.521C-20.293,98.097 -18.683,97.268 -17.011,96.438C-15.885,95.879 -14.729,95.145 -13.393,96.14C-13.154,96.317 -12.514,96.04 -12.097,95.876C-9.394,94.817 -6.702,93.73 -3.933,92.623M32.285,88.974C32.389,88.878 32.492,88.782 32.596,88.687C32.859,88.825 33.243,88.894 33.367,89.112C34.656,91.372 36.209,93.548 37.065,95.968C37.759,97.926 38.794,98.928 40.689,99.301C42.748,99.706 44.059,98.452 43.502,96.41C43.122,95.017 42.42,93.711 41.844,92.374C39.421,86.753 35.059,83.075 29.552,80.872C26.11,79.495 22.512,78.133 18.597,79.064C17.958,79.216 17.182,79.141 16.556,78.923C15.434,78.533 14.529,78.98 13.781,79.594C12.382,80.743 11.092,82.03 9.797,83.3C8.632,84.442 7.396,85.473 5.691,85.538C4.159,85.596 2.602,85.644 1.092,85.434C-1.338,85.096 -2.492,85.809 -2.87,88.192C-3.417,91.642 -1.102,93.668 2.244,92.648C2.826,92.47 3.42,92.26 3.937,91.947C5.993,90.699 8.14,89.885 10.795,90.533C10.495,90.025 10.332,89.769 10.189,89.502C9.901,88.962 9.469,88.314 10.282,87.966C10.571,87.842 11.242,88.204 11.522,88.53C12.846,90.068 13.826,91.744 13.74,93.915C13.692,95.133 13.914,96.366 14.069,97.585C14.298,99.383 15.819,100.797 17.594,100.915C18.512,100.976 19.208,100.655 19.723,99.842C20.684,98.325 20.983,96.687 20.535,94.987C20.128,93.446 19.499,91.964 19.023,90.439C18.907,90.065 19.007,89.624 19.007,88.997C19.446,89.317 19.78,89.439 19.911,89.674C21.336,92.221 22.601,94.83 22.188,97.88C22.092,98.591 21.902,99.243 22.691,99.69C24.261,100.58 26.429,99.991 27.197,98.341C27.506,97.677 27.705,96.842 27.604,96.134C27.4,94.702 26.988,93.295 26.604,91.894C26.31,90.826 25.77,89.802 26.115,88.502C26.43,88.712 26.695,88.789 26.768,88.952C28.077,91.914 29.306,94.893 28.956,98.256C28.778,99.967 29.523,100.867 31.187,100.935C31.943,100.966 32.728,100.855 33.467,100.674C35.25,100.238 35.649,99.718 35.498,97.921C35.331,95.942 35.147,93.967 33.987,92.217C33.315,91.206 32.846,90.059 32.285,88.974M-62.938,-39.58C-63.507,-38.679 -63.989,-38.001 -64.385,-37.276C-68.639,-29.463 -69.887,-20.931 -70.375,-12.213C-70.622,-7.812 -70.014,-3.469 -69.384,0.847C-68.911,4.081 -68.662,7.4 -67.222,10.449C-66.619,11.726 -66.332,12.997 -64.369,12.414C-63.585,12.181 -62.578,12.679 -61.677,12.867C-60.152,13.184 -58.631,13.518 -56.942,13.881C-57.031,13.161 -57.072,12.715 -57.144,12.273C-57.511,10.009 -58.159,7.751 -58.199,5.482C-58.276,1.116 -58.006,-3.256 -57.888,-7.625C-57.789,-11.274 -56.793,-14.725 -55.688,-18.17C-54.314,-22.458 -51.935,-26.22 -49.698,-30.064C-49.348,-30.667 -49.075,-31.315 -48.768,-31.942C-50.825,-31.523 -52.544,-30.885 -54.224,-30.158C-56.488,-29.177 -56.671,-29.207 -57.895,-31.236C-59.515,-33.921 -61.139,-36.603 -62.938,-39.58M39.51,-11.942C39.397,-11.533 39.193,-11.125 39.188,-10.716C39.158,-8.085 38.51,-5.581 37.912,-3.035C36.626,2.442 34.863,7.753 32.734,12.936C30.021,19.543 27.208,26.113 24.26,32.618C22.773,35.898 20.837,38.925 18.117,41.43C15.935,43.44 13.379,44.808 10.922,46.379C5.39,49.915 -0.553,51.821 -7.162,51.447C-8.057,51.396 -8.956,51.44 -10.354,51.44C-8.958,52.356 -7.927,52.879 -7.084,53.615C-4.905,55.519 -2.442,56.804 0.441,57.01C2.715,57.173 5.012,57.107 7.296,57.034C11.602,56.896 15.421,55.582 18.35,52.226C18.941,51.548 19.629,50.952 20.362,50.229C20.519,50.655 20.655,50.86 20.658,51.066C20.687,53.158 22.19,54.053 23.815,54.562C25.434,55.068 26.338,53.705 27.125,52.589C28.67,50.396 30.152,48.159 30.901,45.525C32.014,41.615 33.365,37.763 34.269,33.807C35.754,27.304 37.066,20.756 38.25,14.191C39.012,9.967 39.511,5.687 39.95,1.415C40.403,-3.004 40.623,-7.445 39.51,-11.942M51.465,109.464C51.533,110.003 51.528,110.221 51.592,110.417C52.15,112.123 52.174,112.154 50.649,113.134C49.557,113.838 48.366,114.392 47.277,115.101C38.653,120.71 29.937,126.158 20.82,130.947C18.444,132.196 16.159,133.616 13.828,134.952C10.501,136.859 7.127,138.689 3.859,140.693C2.222,141.697 0.793,143.085 -1.324,141.999C-5.204,142.022 -8.927,141.455 -12.505,139.764C-16.521,137.866 -20.728,136.37 -24.747,134.477C-27.868,133.008 -30.824,131.189 -33.861,129.538C-38.542,126.993 -43.5,125.202 -48.723,124.159C-50.521,123.801 -52.397,123.724 -54.134,123.184C-55.455,122.774 -56.669,122.583 -57.944,123.04C-58.774,123.338 -59.301,123.074 -59.975,122.541C-61.538,121.305 -63.147,120.078 -64.893,119.134C-68.364,117.255 -72.22,116.447 -76.048,115.658C-80.411,114.758 -84.831,114.286 -89.29,114.111C-93.655,113.94 -98.016,113.615 -102.378,113.363C-102.761,113.341 -103.15,113.395 -103.53,113.351C-104.845,113.199 -105.362,112.473 -105.101,111.143C-104.991,110.583 -104.821,110.035 -104.553,108.991C-106.112,110.179 -107.366,110.955 -108.396,111.961C-109.909,113.438 -109.734,114.65 -107.863,115.568C-106.787,116.095 -105.547,116.377 -104.35,116.552C-98.743,117.376 -93.112,118.04 -87.516,118.922C-82.142,119.768 -76.676,119.905 -71.351,121.173C-69.136,121.7 -67.354,122.542 -66.134,124.547C-63.281,129.238 -58.801,130.83 -53.597,130.791C-52.496,130.782 -51.41,130.216 -50.299,130.001C-49.352,129.817 -48.276,129.45 -47.434,129.718C-44.665,130.6 -41.972,131.72 -39.26,132.777C-38.26,133.166 -37.302,133.665 -36.303,134.061C-29.74,136.663 -23.079,139.042 -16.635,141.911C-11.915,144.012 -6.938,145.298 -2.178,147.22C-0.953,147.715 0.257,147.654 1.393,147.067C2.953,146.259 4.514,145.43 5.982,144.471C9.766,142.001 13.707,139.792 17.384,137.139C21.672,134.047 26.093,131.119 30.607,128.368C36.568,124.734 42.708,121.392 48.707,117.818C51.136,116.371 53.467,114.734 55.709,113.01C57.116,111.929 56.822,110.716 55.134,110.185C54.001,109.83 52.793,109.716 51.465,109.464M-37.931,-44.144C-37.359,-44.515 -36.868,-44.754 -36.473,-45.102C-32.773,-48.354 -28.433,-50.415 -23.762,-51.777C-20.449,-52.744 -17.056,-53.312 -13.573,-53.419C-8.86,-53.564 -4.231,-52.852 0.415,-52.314C4.066,-51.891 7.739,-51.476 11.215,-50.171C13.364,-49.365 15.438,-48.353 17.601,-47.587C22.565,-45.828 26.689,-42.78 30.489,-39.262C32.929,-37.002 35.046,-34.462 35.985,-31.155C36.026,-31.008 36.041,-30.824 36.138,-30.729C36.287,-30.583 36.572,-30.363 36.667,-30.415C36.896,-30.541 37.103,-30.782 37.211,-31.024C37.295,-31.214 37.251,-31.482 37.207,-31.704C36.167,-36.983 34.241,-41.877 30.729,-46.021C29,-48.061 27.144,-49.994 25.295,-51.929C21.225,-56.186 16.492,-59.283 10.581,-60.377C5.688,-61.282 0.83,-62.381 -4.072,-63.233C-7.308,-63.796 -10.583,-64.261 -13.858,-64.441C-20.722,-64.818 -27.485,-64.057 -34.123,-62.181C-40.199,-60.464 -46.131,-58.411 -51.596,-55.191C-52.476,-54.673 -53.245,-53.968 -54.237,-53.22C-52.587,-52.334 -51.715,-51.225 -51.37,-49.711C-51.119,-48.61 -50.551,-48.113 -49.388,-48.709C-49.064,-48.875 -48.633,-48.82 -48.255,-48.891C-43.327,-49.829 -40.605,-48.621 -37.931,-44.144M-62.843,82.804C-61.409,82.611 -60.423,81.675 -59.679,80.495C-57.247,76.639 -59.984,71.377 -62.916,70.297C-63.491,70.085 -64.114,69.968 -64.646,69.68C-68.947,67.353 -73.565,67.15 -78.198,67.982C-82.169,68.695 -85.801,67.925 -89.377,66.403C-91.364,65.556 -91.796,64.781 -91.598,62.561C-90.483,63.912 -89.301,64.853 -87.71,65.365C-84.596,66.366 -81.513,66.956 -78.237,66.266C-76.67,65.936 -76.207,65.599 -76.48,64.008C-76.728,62.574 -77.155,61.172 -77.487,59.752C-78.629,54.88 -81.79,51.959 -86.404,50.362C-87.152,50.103 -87.718,50.152 -88.354,50.491C-92.949,52.939 -97.929,54.699 -101.966,58.145C-102.31,58.439 -102.747,58.636 -103.162,58.834C-106.774,60.551 -108.359,63.739 -109.1,67.385C-109.595,69.828 -108.724,72.129 -107.349,74.138C-106.864,74.846 -105.963,75.562 -105.155,75.696C-103.059,76.045 -100.909,76.131 -98.777,76.2C-97.971,76.226 -96.868,75.524 -96.409,75.857C-95.796,76.301 -95.645,77.418 -95.354,78.266C-94.895,79.601 -94.401,80.97 -92.954,81.463C-90.58,82.271 -88.218,83.355 -85.585,82.388C-85.159,82.232 -84.218,82.346 -84.141,82.56C-83.639,83.955 -82.406,84.66 -81.514,85.682C-80.769,86.535 -81.13,87.325 -82.257,87.415C-83.328,87.5 -84.41,87.467 -85.487,87.445C-86.83,87.417 -87.809,88.118 -88.739,88.962C-89.456,89.612 -89.267,90.192 -88.575,90.649C-88.071,90.982 -87.508,91.32 -86.929,91.427C-85.349,91.722 -83.748,92.068 -82.151,92.087C-76.69,92.154 -72.829,86.175 -75.045,81.212C-75.157,80.962 -75.207,80.685 -75.349,80.209C-74.31,80.36 -73.673,80.803 -73.377,81.496C-72.181,84.301 -73.092,86.962 -74.389,89.8C-72.26,88.941 -70.899,87.683 -69.961,86.083C-68.59,83.743 -69.798,81.363 -70.422,78.763C-67.663,80.536 -68.116,83.183 -67.714,85.928C-66.596,84.68 -65.354,84.053 -64.846,82.674C-63.924,80.172 -64.698,77.943 -66.297,75.617C-64.582,76.061 -63.832,76.896 -63.61,78.23C-63.361,79.72 -63.11,81.211 -62.843,82.804M-66.11,67.269C-65.183,67.692 -64.4,68.241 -63.547,68.402C-60.934,68.893 -59.412,70.583 -58.258,72.788C-57.26,74.696 -57.197,74.826 -55.084,74.141C-52.25,73.223 -49.436,72.19 -46.73,70.949C-45.462,70.367 -44.406,69.248 -43.372,68.251C-42.379,67.294 -42.189,67.211 -41.087,68.085C-40.129,68.844 -39.263,69.835 -38.175,70.294C-32.601,72.648 -26.815,74.047 -20.696,73.572C-19.166,73.454 -18.82,73.2 -18.602,71.693C-18.382,70.173 -18.354,68.623 -18.113,67.106C-17.954,66.105 -17.567,65.14 -17.282,64.159C-17.053,64.19 -16.824,64.22 -16.595,64.25C-16.797,66.883 -16.486,69.532 -16.998,72.139C-17.21,73.223 -16.952,73.54 -15.965,73.614C-14.896,73.694 -13.826,73.795 -12.767,73.953C-9.581,74.429 -6.476,75.225 -3.479,76.413C-2.626,76.751 -1.895,76.826 -1.204,76.05C-0.238,74.967 0.833,73.975 1.764,72.863C1.955,72.633 1.871,71.946 1.662,71.644C-0.633,68.335 -1.887,64.512 -3.626,60.935C-6.237,55.563 -10.416,52.593 -16.321,51.966C-17.338,51.858 -17.62,52.339 -17.74,53.278C-17.924,54.717 -18.233,56.147 -18.594,57.553C-19.395,60.673 -21.45,62.546 -24.311,64.031C-28.428,66.171 -35.297,63.247 -36.531,58.911C-36.751,58.139 -37.11,57.407 -37.458,56.522C-38.473,57.182 -39.29,57.744 -40.136,58.258C-42.846,59.904 -45.799,59.719 -48.566,58.797C-51.495,57.819 -53.344,55.513 -54.034,52.435C-54.47,50.491 -54.664,48.48 -55.247,46.585C-55.643,45.302 -54.899,43.385 -56.261,42.829C-57.483,42.329 -59.161,42.625 -60.561,42.928C-67.004,44.324 -73.439,45.766 -79.83,47.38C-81.281,47.746 -83.016,47.853 -84.121,49.2C-83.962,49.42 -83.895,49.574 -83.778,49.659C-83.531,49.839 -83.272,50.017 -82.993,50.136C-80.301,51.288 -78.538,53.36 -77.338,55.94C-76.074,58.656 -74.809,61.388 -74.929,64.499C-74.962,65.352 -74.55,65.634 -73.725,65.826C-70.691,66.532 -67.789,66.158 -64.923,65.073C-63.172,64.411 -61.404,63.79 -59.351,63.043C-60.755,66.145 -64.103,65.387 -66.11,67.269M-38.835,94.551C-38.645,94.633 -38.465,94.655 -38.377,94.758C-37.731,95.503 -37.247,96.568 -36.437,96.947C-35.269,97.494 -34.659,96.086 -33.807,95.54C-33.012,95.031 -32.28,94.697 -31.587,95.568C-30.927,96.398 -30.211,96.088 -29.539,95.719C-28.802,95.314 -28.125,94.796 -27.434,94.312C-26.142,93.407 -24.778,92.843 -23.135,93.026C-21.29,93.231 -19.712,92.291 -18.107,91.585C-17.668,91.392 -17.315,90.883 -17.045,90.444C-15.996,88.745 -16.026,88.817 -13.99,89.119C-12.978,89.27 -11.724,89.379 -10.917,88.917C-10.015,88.4 -9.171,88.122 -8.181,87.944C-6.251,87.595 -4.335,87.442 -3.187,85.236C-2.063,83.079 -1.818,83.297 0.556,83.799C1.961,84.096 3.431,84.109 4.875,84.186C5.103,84.198 5.487,83.911 5.544,83.696C5.597,83.495 5.374,83.102 5.162,82.969C2.82,81.506 0.58,79.799 -1.924,78.694C-8.096,75.97 -14.568,74.428 -21.388,74.969C-27.371,75.443 -32.94,73.78 -38.429,71.739C-39.693,71.269 -40.873,69.825 -42,69.921C-43.276,70.029 -44.374,71.526 -45.683,72.133C-48.815,73.585 -51.955,75.093 -55.235,76.122C-56.776,76.605 -57.13,77.408 -57.248,78.617C-57.47,80.893 -58.732,82.376 -60.55,83.611C-61.681,84.379 -62.977,84.462 -64.153,84.921C-65.384,85.4 -66.268,86.772 -67.498,87.245C-68.62,87.676 -69.52,88.235 -70.372,89.019C-71.858,90.386 -73.438,91.572 -75.606,91.628C-76.017,91.638 -76.442,91.958 -76.82,92.198C-81.075,94.913 -85.329,93.826 -89.579,92.202C-89.857,92.096 -90.104,91.877 -90.328,91.67C-91.428,90.655 -91.487,89.326 -90.451,88.246C-89.321,87.068 -88.119,86.03 -86.33,85.988C-85.859,85.978 -85.396,85.628 -84.937,85.437C-85.345,84.304 -86.163,84.341 -87.049,84.275C-88.646,84.155 -90.231,83.868 -91.821,83.646C-92.578,83.541 -93.334,83.428 -94.09,83.313C-95.298,83.128 -96.512,82.974 -97.71,82.741C-98.836,82.522 -99.937,82.176 -101.063,81.97C-101.481,81.894 -101.943,82.058 -102.385,82.112C-102.29,82.6 -102.221,83.095 -102.09,83.573C-102.032,83.785 -101.849,83.961 -101.724,84.155C-100.02,86.798 -98.423,89.517 -96.581,92.059C-95.241,93.91 -93.691,95.646 -92.026,97.211C-90.643,98.513 -89.011,99.584 -87.383,100.584C-86.023,101.418 -84.574,102.241 -83.053,102.648C-78.916,103.752 -74.645,103.168 -70.482,102.931C-66.761,102.72 -63.224,102.474 -59.765,104.164C-58.035,105.009 -58.356,105.002 -57.145,103.556C-56.564,102.864 -56.092,101.658 -55.437,101.559C-54.611,101.433 -53.592,102.103 -52.76,102.603C-51.618,103.288 -50.796,103.144 -49.996,102.09C-49.502,101.438 -48.752,101.003 -48.019,101.696C-47.302,102.374 -47.023,101.927 -46.579,101.422C-45.94,100.696 -45.303,99.595 -44.139,100.247C-42.876,100.954 -42.279,100.321 -41.72,99.406C-40.767,97.848 -39.852,96.266 -38.835,94.551M49.296,102.577C48.205,101.925 47.288,101.417 46.413,100.844C45.468,100.224 44.646,99.795 43.522,100.686C43.017,101.088 42.047,101.089 41.326,100.99C40.276,100.846 39.25,100.481 38.235,100.145C37.667,99.956 37.281,99.928 36.843,100.468C35.138,102.567 30.881,103.056 28.844,101.712C27.983,101.144 27.253,100.992 26.306,101.326C24.966,101.799 23.586,101.779 22.249,101.299C21.448,101.011 20.834,100.984 20.266,101.776C19.688,102.58 18.81,102.967 17.822,102.678C16.579,102.314 15.277,101.992 14.17,101.358C12.926,100.646 12.22,99.432 12.295,97.884C12.336,97.039 12.271,96.19 12.302,95.345C12.411,92.382 11.08,91.582 8.46,92.042C6.911,92.313 5.396,92.997 3.977,93.713C2.513,94.449 0.949,94.757 -0.492,94.311C-2.14,93.8 -3.328,94.181 -4.77,94.932C-7.553,96.384 -10.527,97.464 -13.361,98.823C-18.34,101.211 -23.303,103.634 -28.216,106.152C-32.926,108.566 -37.578,111.095 -42.229,113.622C-44.289,114.741 -46.283,115.981 -48.307,117.166C-48.274,117.323 -48.241,117.481 -48.209,117.638C-44.099,117.124 -40.099,117.803 -36.087,118.43C-30.996,119.226 -26.192,121.046 -21.986,123.815C-16.512,127.418 -10.828,130.256 -4.423,131.572C-1.625,132.147 1.263,132.241 3.866,130.91C7.204,129.203 10.466,127.326 13.651,125.349C17.891,122.717 22.137,120.071 26.177,117.15C30.601,113.95 35.11,110.933 39.908,108.317C43.06,106.599 46.046,104.578 49.296,102.577M-42.372,-22.142C-42.069,-20.823 -41.884,-19.927 -41.655,-19.041C-41.135,-17.021 -39.777,-16.064 -37.714,-16.522C-36.155,-16.868 -34.55,-17.31 -33.163,-18.072C-26.603,-21.676 -20.598,-26.041 -15.482,-31.557C-14.201,-32.938 -12.908,-34.307 -11.506,-35.805C-10.995,-34.625 -11.253,-33.674 -11.689,-32.668C-12.518,-30.761 -13.22,-28.798 -13.13,-26.671C-13.063,-25.067 -12.363,-24.598 -10.916,-25.11C-5.578,-26.999 -1.206,-30.208 2.219,-34.718C2.375,-34.925 2.662,-35.033 2.889,-35.186C3.081,-34.882 3.442,-34.568 3.426,-34.275C3.402,-33.854 3.12,-33.441 2.921,-33.038C2.163,-31.508 1.575,-29.946 1.687,-28.185C1.803,-26.367 2.397,-25.76 4.168,-26.191C5.867,-26.606 7.545,-27.199 9.146,-27.907C12.563,-29.417 15.282,-31.915 17.969,-34.439C18.166,-34.624 18.471,-34.694 18.726,-34.818C18.856,-34.496 19.107,-34.168 19.092,-33.853C19.065,-33.325 18.858,-32.808 18.748,-32.283C18.545,-31.31 18.245,-30.341 18.187,-29.358C18.067,-27.382 18.766,-26.536 20.686,-26.149C21.281,-26.029 21.922,-25.9 22.507,-25.993C25.23,-26.423 27.963,-26.839 30.647,-27.454C31.637,-27.681 32.541,-28.387 33.416,-28.975C34.369,-29.616 34.505,-30.512 34.078,-31.595C33.278,-33.62 32.22,-35.466 30.745,-37.077C25.337,-42.989 18.352,-46.323 10.961,-48.816C7.727,-49.908 4.24,-50.285 0.847,-50.863C-4.228,-51.727 -9.331,-52.471 -14.496,-51.99C-18.621,-51.606 -22.69,-50.941 -26.576,-49.343C-29.744,-48.041 -32.489,-46.117 -35.188,-44.084C-36.546,-43.061 -37.675,-41.9 -38.59,-40.404C-39.904,-38.251 -41.54,-36.326 -43.768,-34.933C-44.902,-34.223 -45.946,-33.19 -46.695,-32.076C-50.394,-26.576 -53.611,-20.821 -55.381,-14.367C-55.481,-14 -55.547,-13.616 -55.577,-13.237C-55.636,-12.495 -55.258,-12.188 -54.603,-12.532C-52.971,-13.388 -51.297,-14.197 -49.779,-15.23C-47.117,-17.042 -44.662,-19.12 -42.372,-22.142M-48.712,34.636C-49.288,35.615 -49.694,36.449 -50.239,37.18C-50.591,37.652 -51.083,38.123 -51.616,38.339C-54.263,39.406 -58.132,38.315 -59.503,35.762C-60.623,33.678 -62.173,32.581 -64.344,32.146C-69.179,31.175 -71.734,27.223 -72.219,22.086C-72.311,21.114 -72.473,20.072 -72.229,19.162C-71.735,17.316 -71.074,15.432 -69.423,14.28C-68.17,13.405 -68.319,12.417 -68.777,11.303C-70.948,6.027 -71.209,0.398 -71.674,-5.161C-72.089,-10.135 -71.862,-15.118 -71.258,-20.099C-70.679,-24.871 -69.394,-29.416 -67.639,-33.854C-67.132,-35.136 -66.627,-36.454 -65.881,-37.598C-64.229,-40.129 -63.355,-42.678 -64.107,-45.792C-64.537,-47.569 -64.113,-49.561 -62.759,-50.948C-61.294,-52.447 -59.452,-53.521 -57.273,-53.579C-56.506,-53.599 -56.021,-53.831 -55.439,-54.262C-52.338,-56.556 -48.96,-58.422 -45.374,-59.791C-41.587,-61.238 -37.713,-62.513 -33.791,-63.535C-30.023,-64.516 -26.174,-65.449 -22.311,-65.738C-16.029,-66.208 -9.728,-65.804 -3.509,-64.631C0.689,-63.839 4.881,-63.016 9.075,-62.208C8.539,-62.834 7.917,-63.221 7.249,-63.492C6.327,-63.865 5.384,-64.197 4.426,-64.464C0.369,-65.599 -3.687,-66.744 -7.764,-67.805C-10.581,-68.539 -13.411,-69.267 -16.275,-69.768C-18.832,-70.215 -21.458,-70.257 -24.028,-70.639C-29.103,-71.396 -34.198,-71.137 -39.182,-70.367C-46.828,-69.185 -53.683,-66.041 -59.342,-60.564C-61.825,-58.16 -64.453,-55.908 -66.969,-53.536C-68.474,-52.118 -69.921,-50.634 -71.338,-49.126C-74.142,-46.145 -76.425,-42.768 -78.536,-39.285C-80.287,-36.398 -81.972,-33.462 -83.529,-30.466C-85.44,-26.789 -87.056,-22.955 -89.039,-19.321C-91.907,-14.068 -93.5,-8.397 -94.837,-2.644C-95.756,1.308 -96.564,5.305 -97.077,9.325C-97.502,12.66 -97.72,16.08 -97.479,19.423C-97.256,22.532 -96.472,25.636 -95.635,28.659C-94.53,32.648 -91.361,34.587 -88.493,34.417C-86.074,34.274 -84.621,32.756 -83.274,31.048C-82.535,30.111 -81.893,29.098 -81.047,27.891C-80.499,28.834 -80.126,29.486 -79.743,30.133C-78.494,32.24 -77.468,34.529 -75.942,36.415C-72.921,40.15 -69.057,42.514 -64.012,42.195C-62.486,42.098 -60.965,41.845 -59.457,41.578C-54.895,40.769 -50.333,40.409 -45.725,41.215C-44.816,41.374 -43.856,41.238 -42.516,41.238C-43.816,39.881 -44.774,38.899 -45.713,37.898C-46.7,36.844 -47.669,35.772 -48.712,34.636M0.517,-31.074C-0.033,-30.606 -0.512,-30.229 -0.956,-29.817C-3.81,-27.164 -7.109,-25.247 -10.735,-23.863C-12.839,-23.06 -14.156,-23.843 -14.377,-26.105C-14.442,-26.774 -14.292,-27.474 -14.175,-28.149C-14.013,-29.088 -13.789,-30.016 -13.485,-31.453C-15.712,-29.406 -17.507,-27.746 -19.312,-26.096C-23.59,-22.185 -28.454,-19.128 -33.543,-16.413C-35.261,-15.497 -37.145,-15.125 -39.086,-15.074C-40.698,-15.031 -41.883,-15.765 -42.668,-17.154C-42.923,-17.605 -43.136,-18.081 -43.432,-18.673C-43.992,-18.272 -44.481,-17.924 -44.969,-17.574C-47.395,-15.829 -49.801,-14.054 -52.256,-12.351C-53.544,-11.458 -55.397,-10.981 -56.125,-9.786C-56.883,-8.544 -56.718,-6.663 -56.729,-5.06C-56.751,-2.149 -56.592,0.764 -56.531,3.677C-56.445,7.852 -55.692,11.918 -54.586,15.929C-54.454,16.405 -54.365,16.891 -54.211,17.571C-55.18,17.207 -56.053,17.116 -56.576,16.64C-58.336,15.039 -60.587,14.749 -62.711,14.188C-65.774,13.38 -68.296,14.774 -69.793,17.522C-72.02,21.611 -69.65,28.859 -64.145,30.476C-62.081,31.082 -60.055,31.877 -58.602,29.421C-58.527,29.297 -58.367,29.225 -58.25,29.125C-57.002,28.05 -55.651,27.526 -54.009,28.221C-53.523,28.426 -52.974,28.489 -52.447,28.585C-50.547,28.932 -49.241,29.947 -48.611,31.822C-48.446,32.316 -48.127,32.795 -47.77,33.179C-45.679,35.427 -43.621,37.711 -41.415,39.842C-40.38,40.842 -39.108,41.656 -37.827,42.331C-31.734,45.54 -25.251,47.62 -18.454,48.673C-15.577,49.117 -12.654,49.264 -9.779,49.717C-5.1,50.455 -0.557,49.958 3.744,48.093C6.833,46.755 9.754,45.02 12.718,43.404C16.386,41.405 19.154,38.463 21.295,34.916C23.442,31.359 24.945,27.503 26.604,23.705C29.337,17.444 32.224,11.253 34.279,4.726C35.198,1.806 36.085,-1.143 36.686,-4.139C37.362,-7.516 37.591,-10.981 38.219,-14.37C38.746,-17.22 38.733,-20.033 38.21,-22.845C37.975,-24.114 37.589,-25.392 37.032,-26.552C36.398,-27.874 35.787,-27.929 34.44,-27.296C33.334,-26.776 32.231,-26.152 31.056,-25.891C28.291,-25.277 25.497,-24.735 22.687,-24.408C21.521,-24.273 20.193,-24.555 19.101,-25.022C17.49,-25.71 16.259,-26.871 16.492,-28.925C16.566,-29.586 16.504,-30.262 16.504,-31.232C15.818,-30.741 15.364,-30.473 14.977,-30.13C11.84,-27.354 8.094,-25.841 4.097,-24.84C1.793,-24.262 0.495,-25.164 0.379,-27.523C0.322,-28.652 0.46,-29.79 0.517,-31.074M-90.247,100.605C-91.781,99.427 -92.941,98.769 -93.797,97.832C-95.605,95.849 -97.368,93.804 -98.937,91.631C-100.502,89.459 -101.85,87.125 -103.207,84.811C-103.862,83.694 -104.403,82.488 -104.825,81.263C-104.993,80.777 -104.699,80.132 -104.616,79.558C-104.116,79.64 -103.544,79.592 -103.128,79.824C-100.921,81.053 -98.45,81.074 -96.102,81.613C-96.044,81.409 -95.991,81.33 -96.012,81.278C-96.451,80.134 -96.599,78.588 -97.433,77.971C-98.223,77.386 -99.738,77.826 -100.928,77.73C-102.456,77.606 -103.992,77.476 -105.497,77.202C-106.995,76.929 -108.215,76.159 -108.843,74.667C-109.38,73.391 -110.016,72.151 -110.459,70.844C-111.192,68.684 -110.592,66.568 -109.84,64.563C-108.527,61.064 -106.294,58.409 -102.809,56.714C-99.159,54.939 -95.703,52.768 -92.139,50.814C-88.425,48.779 -84.47,47.387 -80.353,46.384C-77.229,45.622 -74.151,44.66 -71.06,43.769C-70.721,43.671 -70.419,43.446 -70.054,43.258C-72.363,41.549 -74.834,40.188 -76.669,38.232C-78.519,36.261 -79.736,33.698 -81.318,31.26C-82.117,32.033 -82.975,32.882 -83.854,33.709C-87.678,37.304 -93.38,36.353 -95.923,31.781C-96.96,29.917 -97.369,27.92 -97.728,25.873C-98.375,22.17 -99.187,18.484 -98.967,14.691C-98.878,13.165 -98.682,11.644 -98.511,10.124C-97.712,3.009 -96.195,-3.954 -93.971,-10.758C-92.062,-16.595 -89.336,-22.079 -86.535,-27.52C-84.814,-30.861 -83.01,-34.162 -81.141,-37.423C-77.998,-42.904 -74.398,-48.092 -69.923,-52.556C-65.965,-56.506 -61.883,-60.372 -57.536,-63.879C-53.136,-67.429 -47.904,-69.604 -42.468,-71.129C-40.714,-71.62 -38.826,-71.794 -36.995,-71.822C-31.777,-71.902 -26.554,-71.951 -21.341,-71.768C-18.832,-71.681 -16.306,-71.204 -13.854,-70.623C-9.229,-69.527 -4.675,-68.135 -0.05,-67.039C5.295,-65.773 10.448,-63.849 15.177,-61.223C19.043,-59.075 22.901,-56.678 26.053,-53.342C28.587,-50.659 31.309,-48.159 33.413,-45.101C36.738,-40.268 38.884,-35.032 39.149,-29.072C39.255,-26.708 39.814,-24.366 40.116,-22.009C40.292,-20.641 40.368,-19.261 40.487,-17.887C40.652,-15.981 40.719,-14.06 40.998,-12.172C41.679,-7.577 41.612,-2.994 41.071,1.604C40.703,4.729 40.456,7.869 40.055,10.99C39.663,14.032 39.223,17.072 38.664,20.087C37.798,24.763 37.006,29.466 35.83,34.067C34.407,39.632 33.199,45.31 30.356,50.397C29.466,51.99 28.371,53.514 27.142,54.861C25.636,56.511 23.064,56.498 21.319,55.073C21.022,54.831 20.755,54.55 20.487,54.274C19.963,53.733 19.476,53.709 18.909,54.256C15.234,57.798 10.61,58.639 5.767,58.809C4.306,58.86 2.84,58.875 1.38,58.808C0.089,58.749 -1.196,58.554 -2.706,58.396C-2.189,59.645 -1.643,60.924 -1.131,62.217C0.684,66.805 2.792,71.246 6.155,74.918C7.378,76.253 8.948,77.28 10.411,78.38C11.247,79.008 12.141,78.713 13.031,78.324C16.876,76.648 20.853,77.074 24.768,77.87C26.925,78.308 29.021,79.137 31.079,79.958C36.034,81.935 39.795,85.387 42.437,89.952C43.843,92.385 45.36,94.863 45.541,97.808C45.611,98.946 46.517,99.348 47.26,99.801C48.305,100.437 49.468,100.878 50.581,101.401C51.618,101.888 52.091,102.621 51.742,103.802C51.504,104.609 51.338,105.439 51.185,106.267C51.024,107.134 51.234,107.758 52.262,107.917C53.168,108.056 54.057,108.309 54.948,108.532C55.319,108.626 55.686,108.753 56.042,108.896C58.733,109.976 59.137,112.07 57.028,114.071C56.696,114.387 56.306,114.649 55.915,114.892C51.874,117.402 47.847,119.935 43.776,122.398C40.425,124.426 36.97,126.284 33.652,128.364C28.126,131.829 22.666,135.4 17.192,138.947C12.552,141.954 7.93,144.989 3.302,148.015C1.229,149.371 -0.903,149.626 -3.268,148.706C-8.84,146.538 -14.506,144.644 -19.971,142.157C-25.544,139.62 -31.376,137.656 -37.078,135.398C-39.423,134.47 -41.719,133.422 -44.043,132.442C-46.516,131.399 -48.964,131.022 -51.652,131.925C-53.037,132.39 -54.682,132.169 -56.203,132.109C-57.11,132.072 -57.996,131.661 -58.907,131.565C-62.873,131.146 -65.367,128.621 -67.435,125.571C-68.554,123.919 -70.083,123.052 -71.927,122.619C-76.491,121.549 -81.148,121.127 -85.799,120.627C-88.848,120.299 -91.866,119.694 -94.905,119.268C-98.32,118.79 -101.74,118.342 -105.166,117.944C-107.302,117.696 -109.17,116.974 -110.644,115.359C-111.594,114.317 -111.579,113.797 -110.891,112.522C-109.748,110.406 -107.559,109.642 -105.756,108.381C-105.194,107.988 -104.551,107.703 -103.922,107.419C-102.838,106.926 -102.162,106.107 -102.21,104.926C-102.268,103.54 -101.437,103.35 -100.365,103.106C-97.167,102.379 -93.994,101.541 -90.247,100.605" style="fill:rgb(35,31,32);fill-rule:nonzero;"/>
            </g>
            <g transform="matrix(4.16667,0,0,4.16667,1859.43,1015.98)">
                <path d="M0,-18.881C0.004,-20.36 -0.61,-20.938 -1.628,-20.47C-3.155,-19.768 -4.284,-18.589 -4.532,-16.906C-4.624,-16.28 -4.184,-15.423 -3.714,-14.93C-3.47,-14.674 -2.593,-14.872 -2.07,-15.058C-0.171,-15.736 -0.308,-17.526 0,-18.881M26.739,-8.697C26.739,-9.571 26.825,-9.977 26.719,-10.324C26.574,-10.791 26.378,-11.44 26.026,-11.589C25.666,-11.741 25.009,-11.5 24.623,-11.229C23.218,-10.245 22.551,-8.832 22.642,-7.122C22.662,-6.733 22.895,-6.189 23.201,-6.009C24.296,-5.369 25.946,-5.984 26.422,-7.196C26.665,-7.814 26.703,-8.512 26.739,-8.697M-48.947,1.619C-50.479,1.58 -53.455,2.747 -53.946,3.6C-54.17,3.989 -54.076,4.56 -54.127,5.049C-53.749,4.92 -53.295,4.885 -53.007,4.647C-50.606,2.669 -45.716,2.864 -44.223,6.073C-44.13,6.272 -43.969,6.486 -43.782,6.585C-43.545,6.711 -43.184,6.852 -42.996,6.755C-42.782,6.645 -42.556,6.256 -42.593,6.029C-42.661,5.6 -42.859,5.165 -43.099,4.794C-44.528,2.578 -46.947,2.237 -48.947,1.619M36.273,-20.962C33.214,-20.752 30.542,-20.205 28.042,-18.887C26.286,-17.96 24.424,-17.236 22.631,-16.376C22.361,-16.246 22.212,-15.865 22.007,-15.6C22.323,-15.432 22.701,-15.058 22.944,-15.132C24.033,-15.463 25.136,-15.823 26.14,-16.351C29.282,-18.002 32.394,-19.663 36.131,-19.357C37.416,-19.252 38.541,-18.93 39.361,-17.874C39.548,-17.632 39.719,-17.245 39.949,-17.201C40.335,-17.127 40.813,-17.186 41.147,-17.375C41.283,-17.452 41.274,-18.1 41.112,-18.341C39.895,-20.148 38.038,-20.776 36.273,-20.962M-8.119,-33.203C-7.923,-33.016 -7.862,-32.914 -7.812,-32.919C-7.215,-32.981 -6.605,-33.004 -6.023,-33.14C-2.461,-33.971 0.327,-32.581 2.447,-29.894C3.612,-28.419 4.575,-26.678 5.194,-24.904C5.979,-22.656 7.345,-21.067 9.311,-19.89C9.584,-19.727 9.964,-19.743 10.295,-19.675C10.262,-20.144 10.403,-20.893 10.169,-21.039C7.774,-22.531 6.882,-24.985 5.886,-27.397C4.31,-31.211 1.344,-33.513 -2.497,-34.655C-4.543,-35.263 -6.469,-34.697 -8.119,-33.203M10.768,1.041C11.463,0.828 12.849,0.585 14.062,-0.009C15.894,-0.907 17.027,-4.259 16.298,-6.053C15.455,-8.128 11.7,-9.992 9.514,-9.393C8.934,-9.235 8.178,-9.013 8.486,-8.217C8.591,-7.948 9.361,-7.887 9.839,-7.832C10.124,-7.799 10.43,-8.018 10.73,-8.028C12.432,-8.089 14.61,-6.422 14.847,-4.907C15.09,-3.341 13.928,-1.443 12.39,-0.893C10.123,-0.082 8.104,-0.764 6.692,-2.819C6.605,-2.945 6.54,-3.17 6.437,-3.188C5.946,-3.274 5.445,-3.304 4.948,-3.354C4.917,-2.876 4.669,-2.224 4.891,-1.947C6.218,-0.288 7.825,0.979 10.768,1.041M-15.041,-1.301C-14.849,1.146 -14.585,3.334 -14.525,5.528C-14.424,9.32 -12.294,11.878 -9.386,13.802C-7.096,15.315 -4.569,16.481 -2.108,17.723C2.116,19.852 6.675,19.801 11.207,19.436C12.846,19.304 14.449,18.556 16.035,17.994C17.046,17.636 17.834,16.944 18.463,15.594C17.729,15.764 17.289,15.784 16.93,15.963C12.259,18.29 7.376,18.488 2.377,17.414C-1.827,16.511 -5.455,14.293 -9.038,12.082C-10.792,11 -12.404,9.417 -12.784,7.278C-13.211,4.869 -13.275,2.388 -13.373,-0.068C-13.417,-1.184 -12.974,-1.403 -11.893,-0.861C-11.152,-0.49 -10.534,0.118 -9.833,0.575C-9.627,0.709 -9.321,0.689 -9.061,0.739C-9.058,0.455 -8.943,0.104 -9.068,-0.103C-9.905,-1.487 -11.091,-2.394 -12.746,-2.58C-13.506,-2.666 -14.274,-2.867 -15.023,-2.81C-16.541,-2.695 -18.11,-2.645 -19.393,-1.649C-19.577,-1.505 -19.732,-1.101 -19.66,-0.908C-19.576,-0.686 -19.213,-0.411 -18.994,-0.43C-18.55,-0.468 -18.131,-0.731 -17.686,-0.824C-16.738,-1.022 -15.78,-1.171 -15.041,-1.301M11.264,-50.015C11.207,-48.732 11.069,-47.594 11.126,-46.465C11.242,-44.106 12.54,-43.204 14.844,-43.781C18.841,-44.782 22.587,-46.296 25.724,-49.072C26.111,-49.415 26.565,-49.683 27.251,-50.173C27.251,-49.204 27.313,-48.527 27.239,-47.867C27.006,-45.813 28.237,-44.652 29.848,-43.964C30.94,-43.497 32.269,-43.215 33.434,-43.35C36.244,-43.676 39.038,-44.219 41.803,-44.833C42.979,-45.094 44.081,-45.717 45.188,-46.238C46.534,-46.871 47.146,-46.816 47.779,-45.494C48.336,-44.334 48.722,-43.055 48.957,-41.787C49.48,-38.975 49.493,-36.162 48.966,-33.312C48.338,-29.923 48.109,-26.458 47.433,-23.081C46.832,-20.085 45.945,-17.135 45.026,-14.216C42.971,-7.689 40.084,-1.498 37.351,4.763C35.692,8.561 34.189,12.417 32.042,15.974C29.901,19.521 27.133,22.464 23.465,24.463C20.501,26.078 17.58,27.813 14.491,29.152C10.19,31.016 5.647,31.514 0.968,30.776C-1.907,30.323 -4.83,30.176 -7.707,29.731C-14.504,28.679 -20.987,26.598 -27.08,23.389C-28.361,22.714 -29.633,21.9 -30.668,20.9C-32.874,18.769 -34.932,16.485 -37.022,14.238C-37.38,13.853 -37.699,13.374 -37.864,12.881C-38.494,11.006 -39.8,9.991 -41.7,9.643C-42.227,9.548 -42.776,9.485 -43.262,9.28C-44.904,8.584 -46.255,9.108 -47.503,10.183C-47.62,10.284 -47.78,10.355 -47.854,10.479C-49.308,12.935 -51.334,12.14 -53.397,11.534C-58.903,9.917 -61.273,2.669 -59.046,-1.42C-57.549,-4.168 -55.027,-5.562 -51.964,-4.754C-49.84,-4.193 -47.589,-3.903 -45.829,-2.302C-45.306,-1.826 -44.433,-1.735 -43.464,-1.371C-43.618,-2.051 -43.707,-2.537 -43.839,-3.012C-44.945,-7.024 -45.698,-11.09 -45.784,-15.265C-45.845,-18.177 -46.004,-21.09 -45.982,-24.002C-45.971,-25.605 -46.136,-27.486 -45.378,-28.728C-44.65,-29.923 -42.797,-30.4 -41.509,-31.293C-39.054,-32.996 -36.648,-34.771 -34.222,-36.515C-33.734,-36.866 -33.245,-37.214 -32.685,-37.614C-32.389,-37.023 -32.176,-36.547 -31.921,-36.096C-31.136,-34.707 -29.951,-33.972 -28.339,-34.015C-26.398,-34.067 -24.514,-34.439 -22.796,-35.355C-17.707,-38.07 -12.843,-41.127 -8.565,-45.038C-6.76,-46.688 -4.965,-48.348 -2.738,-50.395C-3.042,-48.958 -3.266,-48.03 -3.428,-47.09C-3.545,-46.416 -3.695,-45.716 -3.63,-45.047C-3.409,-42.784 -2.092,-42.002 0.012,-42.805C3.638,-44.189 6.937,-46.106 9.791,-48.758C10.235,-49.171 10.714,-49.548 11.264,-50.015" style="fill:white;fill-rule:nonzero;"/>
            </g>
            <g transform="matrix(4.16667,0,0,4.16667,1701.24,672.396)">
                <path d="M0,98.155C1.043,99.291 2.012,100.363 2.999,101.417C3.938,102.418 4.896,103.4 6.196,104.757C4.855,104.757 3.896,104.892 2.987,104.734C-1.621,103.928 -6.184,104.288 -10.745,105.096C-12.253,105.363 -13.774,105.617 -15.3,105.714C-20.345,106.033 -24.209,103.668 -27.23,99.933C-28.756,98.048 -29.782,95.759 -31.031,93.651C-31.414,93.005 -31.787,92.353 -32.335,91.41C-33.181,92.617 -33.823,93.63 -34.563,94.567C-35.909,96.274 -37.362,97.792 -39.781,97.936C-42.649,98.106 -45.818,96.167 -46.923,92.178C-47.76,89.155 -48.544,86.051 -48.768,82.941C-49.008,79.598 -48.79,76.178 -48.365,72.844C-47.853,68.823 -47.044,64.826 -46.125,60.875C-44.788,55.122 -43.195,49.451 -40.327,44.198C-38.344,40.564 -36.729,36.729 -34.817,33.052C-33.26,30.056 -31.575,27.121 -29.824,24.233C-27.713,20.75 -25.43,17.373 -22.626,14.392C-21.209,12.885 -19.762,11.401 -18.257,9.982C-15.741,7.611 -13.113,5.358 -10.63,2.954C-4.971,-2.523 1.884,-5.667 9.53,-6.848C14.514,-7.618 19.609,-7.878 24.684,-7.121C27.254,-6.738 29.88,-6.697 32.437,-6.249C35.301,-5.748 38.131,-5.021 40.948,-4.287C45.025,-3.225 49.081,-2.08 53.138,-0.946C54.096,-0.678 55.039,-0.346 55.961,0.027C56.629,0.298 57.251,0.685 57.787,1.311C53.593,0.502 49.401,-0.32 45.203,-1.112C38.984,-2.285 32.683,-2.689 26.401,-2.219C22.538,-1.93 18.688,-0.998 14.921,-0.016C10.999,1.005 7.125,2.281 3.338,3.727C-0.248,5.096 -3.626,6.962 -6.728,9.257C-7.31,9.687 -7.794,9.92 -8.562,9.94C-10.74,9.997 -12.582,11.072 -14.047,12.571C-15.401,13.958 -15.825,15.949 -15.396,17.727C-14.644,20.841 -15.517,23.389 -17.169,25.921C-17.915,27.065 -18.42,28.383 -18.927,29.665C-20.682,34.102 -21.967,38.647 -22.546,43.42C-23.15,48.4 -23.377,53.384 -22.962,58.357C-22.497,63.917 -22.236,69.545 -20.065,74.822C-19.607,75.936 -19.458,76.924 -20.711,77.798C-22.362,78.951 -23.023,80.834 -23.517,82.681C-23.761,83.591 -23.599,84.633 -23.507,85.605C-23.022,90.741 -20.467,94.694 -15.632,95.664C-13.461,96.1 -11.911,97.197 -10.791,99.28C-9.42,101.833 -5.551,102.925 -2.904,101.857C-2.371,101.642 -1.879,101.171 -1.527,100.699C-0.982,99.967 -0.576,99.134 0,98.155" style="fill:white;fill-rule:nonzero;"/>
            </g>
            <g transform="matrix(4.16667,0,0,4.16667,1727.66,759.905)">
                <path d="M0,20.374C-2.29,23.396 -4.745,25.474 -7.407,27.286C-8.925,28.319 -10.599,29.128 -12.23,29.985C-12.886,30.329 -13.264,30.021 -13.205,29.28C-13.175,28.9 -13.109,28.517 -13.009,28.149C-11.239,21.696 -8.021,15.94 -4.323,10.44C-3.574,9.327 -2.53,8.293 -1.396,7.583C0.832,6.19 2.468,4.265 3.782,2.113C4.697,0.616 5.826,-0.545 7.184,-1.567C9.883,-3.601 12.628,-5.524 15.796,-6.827C19.682,-8.425 23.751,-9.09 27.876,-9.474C33.041,-9.955 38.145,-9.211 43.219,-8.347C46.612,-7.769 50.099,-7.391 53.333,-6.3C60.724,-3.807 67.709,-0.473 73.117,5.439C74.592,7.051 75.65,8.896 76.45,10.921C76.877,12.004 76.741,12.9 75.788,13.541C74.913,14.13 74.009,14.835 73.02,15.062C70.335,15.678 67.603,16.094 64.879,16.523C64.294,16.616 63.653,16.488 63.058,16.367C61.138,15.98 60.439,15.134 60.559,13.159C60.617,12.176 60.917,11.207 61.12,10.233C61.23,9.708 61.437,9.191 61.464,8.664C61.479,8.349 61.229,8.02 61.098,7.698C60.843,7.822 60.538,7.893 60.341,8.078C57.654,10.602 54.936,13.099 51.519,14.609C49.917,15.318 48.239,15.911 46.54,16.325C44.77,16.756 44.175,16.149 44.06,14.331C43.947,12.571 44.535,11.009 45.293,9.478C45.492,9.075 45.774,8.662 45.798,8.242C45.814,7.949 45.453,7.635 45.261,7.33C45.034,7.484 44.747,7.592 44.591,7.798C41.166,12.308 36.794,15.517 31.456,17.406C30.009,17.918 29.31,17.45 29.242,15.845C29.152,13.719 29.854,11.756 30.683,9.849C31.119,8.843 31.377,7.891 30.866,6.711C29.464,8.209 28.171,9.579 26.89,10.959C21.774,16.475 15.77,20.84 9.209,24.445C7.822,25.206 6.217,25.648 4.658,25.994C2.595,26.452 1.237,25.496 0.717,23.475C0.488,22.59 0.303,21.693 0,20.374" style="fill:white;fill-rule:nonzero;"/>
            </g>
            <g transform="matrix(4.16667,0,0,4.16667,2006.19,1409.85)">
                <path d="M0,-3.119C-0.778,-3.196 -1.264,-3.251 -1.75,-3.29C-4.891,-3.544 -7.977,-4.068 -10.846,-5.43C-14.867,-7.34 -18.802,-9.445 -22.883,-11.215C-25.178,-12.21 -27.687,-12.712 -30.111,-13.397C-30.345,-13.463 -30.654,-13.256 -30.93,-13.175C-30.729,-12.886 -30.59,-12.483 -30.314,-12.333C-29.925,-12.123 -29.437,-12.077 -28.985,-12C-26.305,-11.542 -23.853,-10.467 -21.458,-9.233C-19.068,-8.002 -16.65,-6.824 -14.291,-5.537C-10.796,-3.631 -6.979,-2.814 -3.127,-2.112C-2.099,-1.924 -1.03,-1.955 0,-3.119M-25.282,-15.771C-25.322,-15.536 -25.362,-15.301 -25.402,-15.066C-24.851,-14.871 -24.307,-14.648 -23.745,-14.485C-20.727,-13.608 -17.805,-12.564 -15.08,-10.912C-9.69,-7.643 -3.834,-5.76 2.514,-5.651C3.265,-5.638 4.638,-5.156 4.667,-6.198C4.704,-7.525 3.282,-6.987 2.47,-6.995C-3.421,-7.052 -8.85,-8.754 -13.854,-11.737C-16.65,-13.404 -19.651,-14.497 -22.688,-15.532C-23.487,-15.804 -24.414,-15.702 -25.282,-15.771M-5.121,1.005C-6.077,0.932 -6.723,0.93 -7.353,0.826C-9.086,0.54 -10.911,0.466 -12.522,-0.155C-15.996,-1.492 -19.472,-2.911 -22.736,-4.684C-26.255,-6.595 -29.894,-8.167 -33.616,-9.578C-34.757,-10.011 -35.973,-10.273 -37.176,-10.492C-37.514,-10.554 -37.93,-10.187 -38.31,-10.016C-38.013,-9.722 -37.75,-9.375 -37.407,-9.15C-37.168,-8.994 -36.812,-9.027 -36.521,-8.936C-34.258,-8.234 -31.905,-7.732 -29.758,-6.77C-25.215,-4.737 -20.75,-2.521 -16.311,-0.266C-13.65,1.086 -10.834,1.69 -7.918,1.876C-7.119,1.927 -6.099,2.126 -5.121,1.005M-20.266,9.377C-20.183,9.329 -19.893,9.164 -19.603,8.998C-19.877,8.741 -20.111,8.335 -20.432,8.249C-23.233,7.495 -26.078,6.894 -28.855,6.061C-32.776,4.885 -36.181,2.59 -39.782,0.728C-42.923,-0.895 -46.072,-2.477 -49.598,-3.1C-50.117,-3.192 -50.651,-3.24 -51.177,-3.225C-51.327,-3.221 -51.569,-2.935 -51.588,-2.759C-51.606,-2.589 -51.434,-2.297 -51.272,-2.228C-50.928,-2.083 -50.529,-2.074 -50.167,-1.963C-48.339,-1.4 -46.42,-1.021 -44.71,-0.206C-41.323,1.408 -38.058,3.276 -34.732,5.021C-30.28,7.356 -25.588,8.92 -20.266,9.377M-12.849,5.338C-12.842,5.12 -12.836,4.902 -12.829,4.685C-13.186,4.599 -13.547,4.528 -13.898,4.424C-17.19,3.442 -20.558,2.651 -23.748,1.407C-26.582,0.302 -29.229,-1.286 -31.939,-2.698C-35.354,-4.475 -38.859,-5.994 -42.664,-6.727C-43.113,-6.814 -43.561,-6.962 -44.012,-6.972C-44.258,-6.977 -44.509,-6.751 -44.758,-6.63C-44.604,-6.389 -44.501,-6.004 -44.289,-5.929C-43.137,-5.522 -41.979,-5.077 -40.784,-4.859C-38.49,-4.44 -36.383,-3.614 -34.356,-2.48C-31.22,-0.725 -28.032,0.935 -24.885,2.67C-21.872,4.329 -18.522,4.766 -15.224,5.372C-14.46,5.513 -13.642,5.357 -12.849,5.338M-26.291,14.145C-25.745,13.839 -25.386,13.638 -25.026,13.437C-25.296,13.166 -25.531,12.842 -25.845,12.641C-26.089,12.485 -26.432,12.484 -26.729,12.41C-29.183,11.801 -31.657,11.268 -34.081,10.561C-36.676,9.803 -39.052,8.6 -41.105,6.77C-42.071,5.909 -43.222,5.253 -44.303,4.524C-47.211,2.561 -50.534,1.529 -53.837,0.566C-55.717,0.018 -57.77,0.05 -59.751,-0.11C-59.985,-0.129 -60.255,0.286 -60.509,0.5C-60.302,0.708 -60.13,1.007 -59.881,1.101C-59.534,1.23 -59.13,1.214 -58.749,1.244C-53.195,1.684 -48.18,3.557 -43.653,6.81C-41.851,8.106 -40.092,9.631 -38.066,10.416C-34.229,11.903 -30.213,12.932 -26.291,14.145M24.819,-10.894C21.569,-8.892 18.583,-6.872 15.432,-5.154C10.634,-2.537 6.124,0.479 1.7,3.679C-2.34,6.601 -6.586,9.247 -10.825,11.878C-14.011,13.856 -17.272,15.733 -20.61,17.439C-23.214,18.77 -26.102,18.676 -28.899,18.102C-35.305,16.785 -40.988,13.947 -46.463,10.344C-50.669,7.575 -55.473,5.756 -60.563,4.96C-64.575,4.332 -68.575,3.653 -72.686,4.168C-72.718,4.01 -72.751,3.853 -72.783,3.695C-70.76,2.51 -68.766,1.271 -66.706,0.152C-62.055,-2.376 -57.402,-4.905 -52.692,-7.319C-47.779,-9.837 -42.816,-12.26 -37.838,-14.647C-35.004,-16.007 -32.029,-17.087 -29.246,-18.538C-27.805,-19.29 -26.616,-19.67 -24.969,-19.16C-23.527,-18.714 -21.964,-19.021 -20.5,-19.758C-19.08,-20.474 -17.565,-21.158 -16.017,-21.429C-13.396,-21.889 -12.065,-21.089 -12.175,-18.126C-12.206,-17.281 -12.141,-16.432 -12.182,-15.587C-12.257,-14.038 -11.551,-12.825 -10.307,-12.113C-9.199,-11.478 -7.897,-11.157 -6.654,-10.792C-5.667,-10.503 -4.788,-10.891 -4.211,-11.695C-3.643,-12.487 -3.028,-12.459 -2.228,-12.172C-0.891,-11.692 0.489,-11.672 1.829,-12.144C2.776,-12.479 3.507,-12.327 4.367,-11.759C6.404,-10.414 10.661,-10.904 12.366,-13.003C12.805,-13.542 13.19,-13.515 13.759,-13.326C14.773,-12.99 15.8,-12.625 16.85,-12.48C17.57,-12.382 18.54,-12.383 19.046,-12.785C20.17,-13.676 20.991,-13.246 21.937,-12.627C22.812,-12.054 23.729,-11.546 24.819,-10.894" style="fill:white;fill-rule:nonzero;"/>
            </g>
            <g transform="matrix(4.16667,0,0,4.16667,1689.61,1278.88)">
                <path d="M0,10.759C-0.19,10.459 -0.243,10.265 -0.342,10.237C-3.312,9.394 -6.141,8.26 -8.601,6.337C-8.778,6.198 -9.014,6.014 -9.202,6.034C-9.606,6.077 -9.997,6.24 -10.394,6.354C-10.241,6.665 -10.173,7.117 -9.924,7.267C-6.899,9.082 -3.675,10.331 0,10.759M-8.589,15.718C-9.898,15.337 -11.237,15.033 -12.514,14.559C-15.027,13.626 -17.502,12.588 -20.006,11.627C-20.243,11.536 -20.571,11.68 -20.857,11.716C-20.74,12.031 -20.712,12.523 -20.491,12.633C-19.33,13.215 -18.147,13.776 -16.924,14.204C-14.259,15.135 -11.579,16.054 -8.589,15.718M-3.565,14.785C-7.088,13.517 -10.172,11.576 -13.203,9.526C-13.698,9.191 -14.271,8.945 -14.843,8.767C-15.013,8.714 -15.36,8.993 -15.508,9.203C-15.589,9.319 -15.473,9.643 -15.355,9.808C-15.23,9.984 -15.011,10.106 -14.812,10.213C-12.723,11.336 -10.69,12.594 -8.518,13.522C-6.962,14.187 -5.424,15.193 -3.565,14.785M-1.134,0.983C-1.267,1.042 -1.491,1.077 -1.516,1.166C-1.588,1.436 -1.71,1.881 -1.586,1.984C-0.83,2.609 -0.059,3.244 0.795,3.717C3.265,5.087 5.776,6.382 8.271,7.705C8.475,7.812 8.686,8.004 8.885,7.993C9.224,7.976 9.556,7.83 9.891,7.738C9.74,7.446 9.667,7.017 9.428,6.88C6.057,4.958 2.663,3.075 -0.726,1.184C-0.857,1.111 -0.997,1.049 -1.134,0.983M6.139,10.468C5.58,10.011 5.031,9.302 4.313,9.02C1.3,7.834 -1.469,6.288 -3.85,4.072C-4.115,3.825 -4.489,3.636 -4.843,3.56C-5.153,3.494 -5.506,3.624 -5.84,3.668C-5.718,4.002 -5.613,4.345 -5.463,4.667C-5.404,4.794 -5.256,4.894 -5.126,4.97C-1.589,7.048 1.95,9.123 5.496,11.185C5.586,11.237 5.798,11.187 5.882,11.108C5.979,11.019 5.996,10.844 6.139,10.468M-13.24,19.064C-13.181,18.843 -13.121,18.623 -13.062,18.403C-14.361,18.094 -15.65,17.596 -16.965,17.514C-20.566,17.291 -23.902,16.348 -26.942,14.392C-27.2,14.226 -27.46,14.002 -27.744,13.953C-28.086,13.895 -28.455,13.995 -28.812,14.026C-28.702,14.349 -28.687,14.792 -28.461,14.972C-27.929,15.401 -27.312,15.734 -26.702,16.055C-22.474,18.285 -17.818,18.495 -13.24,19.064M12.671,-7.517C12.32,-7.433 11.776,-7.459 11.462,-7.203C8.653,-4.916 5.209,-4.434 1.848,-3.68C1.396,-3.578 0.791,-3.245 0.648,-2.87C0.381,-2.168 0.976,-1.786 1.592,-1.541C3.162,-0.917 4.715,-0.248 6.3,0.335C10.396,1.839 14.54,3.217 18.592,4.832C20.197,5.471 21.972,5.777 23.356,7.022C24.022,7.621 24.842,7.316 25.628,6.706C27.516,5.239 29.614,4.125 31.965,3.525C35.454,2.634 38.939,1.722 42.408,0.752C42.814,0.639 43.103,0.105 43.446,-0.235C43.051,-0.495 42.677,-0.937 42.258,-0.986C40.354,-1.206 38.437,-1.294 36.528,-1.469C31.013,-1.972 25.586,-2.873 20.379,-4.879C17.883,-5.84 15.315,-6.618 12.671,-7.517M12.668,12.513C11.651,14.229 10.736,15.81 9.783,17.369C9.224,18.284 8.627,18.917 7.364,18.209C6.2,17.557 5.562,18.659 4.924,19.384C4.479,19.889 4.201,20.336 3.484,19.658C2.751,18.966 2.001,19.401 1.507,20.052C0.707,21.106 -0.115,21.251 -1.257,20.565C-2.089,20.065 -3.108,19.396 -3.935,19.522C-4.589,19.621 -5.062,20.827 -5.642,21.519C-6.854,22.965 -6.532,22.971 -8.262,22.126C-11.721,20.437 -15.258,20.682 -18.979,20.894C-23.142,21.13 -27.413,21.715 -31.55,20.61C-33.071,20.203 -34.521,19.381 -35.88,18.547C-37.508,17.547 -39.14,16.475 -40.523,15.174C-42.188,13.609 -43.738,11.872 -45.078,10.022C-46.92,7.48 -48.518,4.76 -50.221,2.117C-50.346,1.924 -50.529,1.747 -50.587,1.535C-50.718,1.057 -50.787,0.563 -50.882,0.074C-50.44,0.02 -49.979,-0.144 -49.561,-0.068C-48.434,0.138 -47.333,0.484 -46.207,0.703C-45.009,0.937 -43.795,1.091 -42.587,1.275C-41.831,1.39 -41.075,1.503 -40.318,1.609C-38.729,1.83 -37.144,2.118 -35.546,2.237C-34.66,2.303 -33.842,2.266 -33.435,3.399C-33.894,3.59 -34.356,3.94 -34.827,3.951C-36.616,3.992 -37.818,5.03 -38.948,6.208C-39.984,7.288 -39.925,8.617 -38.825,9.633C-38.602,9.84 -38.354,10.058 -38.076,10.164C-33.826,11.789 -29.572,12.875 -25.317,10.161C-24.939,9.92 -24.514,9.601 -24.104,9.591C-21.936,9.535 -20.355,8.349 -18.869,6.981C-18.018,6.197 -17.117,5.639 -15.995,5.207C-14.765,4.734 -13.881,3.363 -12.65,2.883C-11.474,2.425 -10.178,2.341 -9.047,1.573C-7.229,0.339 -5.967,-1.145 -5.745,-3.421C-5.627,-4.63 -5.273,-5.432 -3.732,-5.916C-0.452,-6.945 2.688,-8.453 5.82,-9.905C7.129,-10.512 8.227,-12.009 9.503,-12.117C10.63,-12.212 11.81,-10.769 13.074,-10.299C18.562,-8.257 24.132,-6.595 30.115,-7.069C36.935,-7.61 43.407,-6.067 49.579,-3.344C52.083,-2.239 54.323,-0.532 56.665,0.932C56.877,1.064 57.1,1.458 57.047,1.658C56.99,1.874 56.605,2.16 56.378,2.148C54.934,2.071 53.464,2.058 52.059,1.761C49.685,1.259 49.439,1.042 48.316,3.198C47.168,5.404 45.252,5.557 43.322,5.906C42.332,6.085 41.488,6.362 40.586,6.879C39.779,7.342 38.525,7.233 37.513,7.082C35.477,6.779 35.507,6.708 34.458,8.406C34.187,8.845 33.835,9.354 33.395,9.548C31.791,10.254 30.213,11.193 28.368,10.988C26.725,10.806 25.361,11.37 24.069,12.274C23.378,12.759 22.701,13.277 21.964,13.681C21.292,14.05 20.576,14.36 19.916,13.53C19.223,12.659 18.491,12.993 17.696,13.503C16.844,14.049 16.234,15.457 15.065,14.909C14.256,14.53 13.771,13.465 13.126,12.72C13.038,12.618 12.858,12.595 12.668,12.513" style="fill:white;fill-rule:nonzero;"/>
            </g>
            <g transform="matrix(4.16667,0,0,4.16667,1628.75,1153.25)">
                <path d="M0,15.383C2.008,13.501 5.355,14.258 6.76,11.156C4.706,11.904 2.938,12.525 1.187,13.187C-1.679,14.272 -4.581,14.646 -7.614,13.94C-8.439,13.748 -8.852,13.466 -8.818,12.612C-8.698,9.502 -9.964,6.77 -11.228,4.054C-12.428,1.473 -14.19,-0.598 -16.883,-1.75C-17.162,-1.869 -17.421,-2.047 -17.668,-2.227C-17.785,-2.312 -17.852,-2.466 -18.011,-2.686C-16.905,-4.033 -15.171,-4.14 -13.72,-4.507C-7.329,-6.12 -0.894,-7.562 5.55,-8.958C6.949,-9.261 8.627,-9.557 9.85,-9.057C11.211,-8.501 10.468,-6.584 10.863,-5.301C11.446,-3.407 11.641,-1.395 12.076,0.549C12.767,3.627 14.615,5.933 17.544,6.91C20.312,7.833 23.265,8.018 25.975,6.372C26.82,5.858 27.638,5.296 28.652,4.635C29,5.521 29.359,6.253 29.579,7.025C30.813,11.361 37.683,14.284 41.8,12.145C44.66,10.659 46.716,8.786 47.517,5.667C47.877,4.26 48.187,2.83 48.37,1.392C48.49,0.453 48.772,-0.028 49.789,0.08C55.694,0.707 59.873,3.677 62.484,9.049C64.224,12.626 65.478,16.448 67.772,19.758C67.981,20.059 68.065,20.747 67.874,20.977C66.943,22.089 65.872,23.08 64.906,24.164C64.216,24.94 63.484,24.865 62.632,24.527C59.635,23.339 56.529,22.543 53.344,22.067C52.284,21.908 51.215,21.808 50.145,21.728C49.158,21.654 48.9,21.337 49.112,20.253C49.624,17.646 49.313,14.996 49.516,12.363C49.286,12.334 49.058,12.303 48.828,12.273C48.543,13.254 48.156,14.219 47.997,15.22C47.757,16.737 47.729,18.286 47.509,19.807C47.29,21.314 46.944,21.568 45.414,21.686C39.295,22.16 33.51,20.762 27.936,18.408C26.848,17.948 25.981,16.958 25.023,16.198C23.921,15.324 23.731,15.408 22.738,16.365C21.704,17.362 20.648,18.481 19.38,19.063C16.675,20.304 13.86,21.337 11.026,22.255C8.913,22.94 8.851,22.81 7.853,20.902C6.698,18.696 5.177,17.007 2.563,16.516C1.71,16.355 0.928,15.806 0,15.383" style="fill:white;fill-rule:nonzero;"/>
            </g>
            <g transform="matrix(4.16667,0,0,4.16667,1642.36,1184.78)">
                <path d="M0,23.351C-0.268,21.758 -0.519,20.268 -0.768,18.777C-0.989,17.443 -1.739,16.608 -3.454,16.164C-1.855,18.49 -1.081,20.719 -2.003,23.221C-2.511,24.601 -3.753,25.227 -4.871,26.475C-5.273,23.73 -4.82,21.083 -7.579,19.31C-6.955,21.91 -5.747,24.29 -7.118,26.63C-8.057,28.23 -9.417,29.488 -11.546,30.347C-10.249,27.509 -9.338,24.849 -10.534,22.043C-10.83,21.351 -11.467,20.907 -12.506,20.756C-12.364,21.232 -12.314,21.509 -12.202,21.759C-9.986,26.722 -13.848,32.701 -19.309,32.634C-20.905,32.615 -22.506,32.269 -24.086,31.975C-24.665,31.867 -25.229,31.529 -25.732,31.196C-26.424,30.739 -26.613,30.159 -25.896,29.509C-24.966,28.665 -23.987,27.964 -22.645,27.992C-21.567,28.014 -20.485,28.047 -19.414,27.962C-18.287,27.872 -17.926,27.082 -18.671,26.229C-19.563,25.207 -20.796,24.502 -21.298,23.107C-21.375,22.893 -22.316,22.779 -22.742,22.935C-25.375,23.902 -27.737,22.818 -30.111,22.01C-31.559,21.517 -32.053,20.148 -32.511,18.813C-32.802,17.965 -32.953,16.849 -33.566,16.404C-34.025,16.071 -35.128,16.773 -35.935,16.747C-38.066,16.678 -40.216,16.592 -42.313,16.243C-43.12,16.109 -44.021,15.393 -44.506,14.685C-45.881,12.676 -46.752,10.375 -46.257,7.933C-45.517,4.287 -43.932,1.099 -40.319,-0.619C-39.904,-0.817 -39.467,-1.014 -39.123,-1.308C-35.086,-4.753 -30.106,-6.514 -25.512,-8.962C-24.875,-9.301 -24.31,-9.35 -23.562,-9.091C-18.947,-7.494 -15.786,-4.573 -14.645,0.299C-14.313,1.719 -13.885,3.121 -13.638,4.555C-13.364,6.146 -13.827,6.483 -15.395,6.813C-18.67,7.503 -21.753,6.914 -24.867,5.912C-26.458,5.4 -27.641,4.459 -28.755,3.108C-28.953,5.329 -28.521,6.103 -26.534,6.95C-22.958,8.472 -19.326,9.242 -15.355,8.529C-10.723,7.697 -6.104,7.9 -1.804,10.227C-1.271,10.515 -0.648,10.632 -0.073,10.844C2.858,11.924 5.596,17.186 3.164,21.042C2.42,22.222 1.434,23.158 0,23.351" style="fill:white;fill-rule:nonzero;"/>
            </g>
            <g transform="matrix(4.16667,0,0,4.16667,1746.16,724.406)">
                <path d="M0,6.892C-2.675,2.415 -5.396,1.207 -10.324,2.145C-10.702,2.217 -11.134,2.161 -11.457,2.327C-12.62,2.924 -13.188,2.426 -13.439,1.326C-13.784,-0.189 -14.656,-1.297 -16.307,-2.184C-15.314,-2.932 -14.545,-3.636 -13.665,-4.155C-8.2,-7.375 -2.269,-9.427 3.808,-11.145C10.445,-13.021 17.209,-13.781 24.072,-13.404C27.348,-13.225 30.623,-12.76 33.858,-12.197C38.761,-11.345 43.619,-10.246 48.512,-9.34C54.423,-8.247 59.155,-5.15 63.226,-0.892C65.074,1.042 66.931,2.975 68.659,5.015C72.172,9.159 74.098,14.053 75.138,19.332C75.182,19.554 75.226,19.823 75.142,20.012C75.033,20.254 74.826,20.495 74.598,20.621C74.503,20.673 74.218,20.454 74.068,20.308C73.972,20.212 73.957,20.028 73.916,19.881C72.977,16.575 70.859,14.034 68.42,11.775C64.62,8.256 60.496,5.208 55.531,3.449C53.369,2.683 51.295,1.672 49.145,0.865C45.67,-0.44 41.997,-0.855 38.346,-1.278C33.699,-1.816 29.07,-2.528 24.357,-2.383C20.875,-2.276 17.481,-1.708 14.169,-0.741C9.498,0.621 5.157,2.682 1.458,5.934C1.062,6.282 0.571,6.521 0,6.892" style="fill:white;fill-rule:nonzero;"/>
            </g>
            <g transform="matrix(4.16667,0,0,4.16667,2118.64,1550.56)">
                <path d="M0,-37.777C1.328,-37.526 2.536,-37.411 3.669,-37.056C5.357,-36.525 5.651,-35.312 4.244,-34.231C2.002,-32.507 -0.329,-30.87 -2.758,-29.423C-8.757,-25.849 -14.896,-22.507 -20.857,-18.873C-25.372,-16.122 -29.793,-13.194 -34.081,-10.102C-37.758,-7.449 -41.699,-5.24 -45.482,-2.77C-46.951,-1.811 -48.512,-0.982 -50.072,-0.174C-51.208,0.413 -52.418,0.473 -53.643,-0.021C-58.403,-1.943 -63.38,-3.229 -68.1,-5.33C-74.544,-8.199 -81.205,-10.578 -87.768,-13.18C-88.767,-13.576 -89.725,-14.075 -90.725,-14.465C-93.437,-15.521 -96.13,-16.641 -98.898,-17.523C-99.741,-17.791 -100.816,-17.424 -101.764,-17.24C-102.875,-17.025 -103.961,-16.459 -105.062,-16.45C-110.266,-16.411 -114.746,-18.003 -117.599,-22.694C-118.818,-24.699 -120.601,-25.541 -122.815,-26.069C-128.141,-27.337 -133.606,-27.473 -138.98,-28.319C-144.577,-29.201 -150.208,-29.865 -155.814,-30.689C-157.012,-30.864 -158.252,-31.146 -159.328,-31.673C-161.199,-32.591 -161.374,-33.803 -159.861,-35.28C-158.831,-36.286 -157.577,-37.062 -156.018,-38.25C-156.286,-37.206 -156.456,-36.658 -156.565,-36.098C-156.827,-34.768 -156.31,-34.042 -154.995,-33.89C-154.615,-33.846 -154.226,-33.901 -153.843,-33.878C-149.48,-33.626 -145.12,-33.301 -140.755,-33.13C-136.296,-32.955 -131.876,-32.483 -127.513,-31.583C-123.685,-30.794 -119.829,-29.986 -116.357,-28.107C-114.612,-27.163 -113.003,-25.936 -111.439,-24.7C-110.766,-24.167 -110.239,-23.903 -109.409,-24.201C-108.134,-24.658 -106.92,-24.467 -105.599,-24.057C-103.862,-23.517 -101.986,-23.441 -100.187,-23.082C-94.965,-22.039 -90.007,-20.248 -85.326,-17.703C-82.289,-16.052 -79.333,-14.234 -76.212,-12.764C-72.192,-10.871 -67.986,-9.375 -63.97,-7.477C-60.392,-5.786 -56.669,-5.219 -52.789,-5.242C-50.672,-4.156 -49.243,-5.544 -47.605,-6.548C-44.338,-8.552 -40.964,-10.382 -37.637,-12.289C-35.306,-13.625 -33.021,-15.046 -30.645,-16.294C-21.528,-21.083 -12.812,-26.531 -4.187,-32.14C-3.099,-32.849 -1.908,-33.403 -0.815,-34.107C0.709,-35.088 0.686,-35.118 0.127,-36.824C0.063,-37.02 0.068,-37.238 0,-37.777" style="fill:white;fill-rule:nonzero;"/>
            </g>
            <g transform="matrix(4.16667,0,0,4.16667,2068.83,1175.28)">
                <path d="M0,-69.114C1.113,-64.617 0.894,-60.176 0.44,-55.758C0.001,-51.485 -0.498,-47.206 -1.26,-42.982C-2.443,-36.416 -3.756,-29.868 -5.241,-23.365C-6.145,-19.409 -7.496,-15.557 -8.608,-11.647C-9.357,-9.013 -10.84,-6.777 -12.385,-4.584C-13.172,-3.467 -14.076,-2.104 -15.694,-2.611C-17.319,-3.119 -18.822,-4.014 -18.852,-6.106C-18.854,-6.312 -18.991,-6.517 -19.147,-6.943C-19.881,-6.22 -20.568,-5.625 -21.16,-4.946C-24.089,-1.59 -27.908,-0.276 -32.214,-0.138C-34.498,-0.065 -36.795,0 -39.068,-0.162C-41.952,-0.368 -44.415,-1.653 -46.594,-3.557C-47.437,-4.294 -48.468,-4.816 -49.863,-5.732C-48.466,-5.732 -47.566,-5.776 -46.672,-5.725C-40.063,-5.352 -34.12,-7.258 -28.588,-10.794C-26.131,-12.365 -23.575,-13.733 -21.393,-15.742C-18.673,-18.247 -16.736,-21.275 -15.25,-24.554C-12.302,-31.06 -9.488,-37.63 -6.775,-44.237C-4.646,-49.419 -2.884,-54.731 -1.598,-60.207C-1,-62.754 -0.352,-65.257 -0.321,-67.888C-0.316,-68.298 -0.112,-68.705 0,-69.114" style="fill:white;fill-rule:nonzero;"/>
            </g>
            <g transform="matrix(4.16667,0,0,4.16667,1641.96,994.895)">
                <path d="M0,-53.461C1.8,-50.484 3.424,-47.802 5.044,-45.117C6.268,-43.088 6.45,-43.058 8.715,-44.039C10.395,-44.766 12.113,-45.404 14.171,-45.823C13.863,-45.196 13.591,-44.548 13.24,-43.945C11.004,-40.101 8.624,-36.339 7.25,-32.051C6.146,-28.607 5.149,-25.155 5.051,-21.506C4.933,-17.137 4.662,-12.765 4.739,-8.399C4.779,-6.13 5.428,-3.872 5.795,-1.608C5.866,-1.166 5.907,-0.72 5.996,0C4.308,-0.363 2.786,-0.697 1.262,-1.014C0.36,-1.202 -0.646,-1.7 -1.431,-1.467C-3.394,-0.884 -3.681,-2.155 -4.283,-3.432C-5.724,-6.482 -5.973,-9.8 -6.445,-13.034C-7.075,-17.35 -7.684,-21.693 -7.437,-26.094C-6.948,-34.813 -5.7,-43.344 -1.446,-51.157C-1.051,-51.882 -0.568,-52.56 0,-53.461" style="fill:white;fill-rule:nonzero;"/>
            </g>
            <g transform="matrix(4.16667,0,0,4.16667,2038.73,1312.62)">
                <path d="M0,-1.161C0.561,-0.076 1.03,1.071 1.702,2.083C2.862,3.832 3.046,5.807 3.213,7.786C3.364,9.584 2.965,10.103 1.182,10.539C0.442,10.72 -0.342,10.831 -1.099,10.8C-2.762,10.733 -3.507,9.832 -3.329,8.121C-2.979,4.758 -4.208,1.779 -5.518,-1.183C-5.59,-1.346 -5.855,-1.423 -6.17,-1.633C-6.516,-0.333 -5.976,0.691 -5.682,1.759C-5.297,3.16 -4.885,4.567 -4.681,5.999C-4.58,6.707 -4.779,7.543 -5.088,8.206C-5.856,9.857 -8.024,10.445 -9.594,9.555C-10.383,9.108 -10.193,8.456 -10.097,7.745C-9.685,4.695 -10.949,2.087 -12.374,-0.461C-12.505,-0.696 -12.839,-0.818 -13.278,-1.138C-13.278,-0.511 -13.378,-0.07 -13.262,0.304C-12.786,1.829 -12.157,3.311 -11.75,4.852C-11.302,6.552 -11.602,8.19 -12.563,9.707C-13.077,10.521 -13.773,10.841 -14.691,10.78C-16.466,10.662 -17.987,9.248 -18.216,7.45C-18.371,6.231 -18.593,4.998 -18.545,3.78C-18.459,1.609 -19.439,-0.067 -20.763,-1.605C-21.043,-1.931 -21.714,-2.293 -22.003,-2.169C-22.816,-1.821 -22.384,-1.173 -22.096,-0.633C-21.953,-0.366 -21.79,-0.11 -21.49,0.399C-24.146,-0.249 -26.292,0.565 -28.349,1.812C-28.865,2.126 -29.459,2.336 -30.041,2.513C-33.387,3.533 -35.702,1.507 -35.155,-1.943C-34.777,-4.326 -33.623,-5.038 -31.193,-4.701C-29.684,-4.491 -28.126,-4.539 -26.594,-4.597C-24.889,-4.662 -23.653,-5.693 -22.488,-6.835C-21.193,-8.105 -19.903,-9.391 -18.504,-10.541C-17.756,-11.155 -16.852,-11.602 -15.729,-11.212C-15.104,-10.994 -14.327,-10.919 -13.688,-11.071C-9.773,-12.002 -6.175,-10.64 -2.733,-9.263C2.773,-7.06 7.136,-3.382 9.559,2.239C10.135,3.576 10.837,4.882 11.217,6.275C11.773,8.317 10.463,9.571 8.404,9.166C6.509,8.793 5.474,7.791 4.78,5.833C3.924,3.413 2.371,1.237 1.082,-1.023C0.958,-1.241 0.574,-1.31 0.311,-1.448C0.207,-1.352 0.104,-1.257 0,-1.161" style="fill:white;fill-rule:nonzero;"/>
            </g>
            <g transform="matrix(4.16667,0,0,4.16667,1887.82,1409.28)">
                <path d="M0,-20.711C-2.77,-19.604 -5.461,-18.517 -8.164,-17.458C-8.581,-17.294 -9.222,-17.017 -9.46,-17.194C-10.797,-18.189 -11.952,-17.455 -13.078,-16.896C-14.75,-16.065 -16.36,-15.237 -18.343,-15.813C-18.733,-15.926 -19.325,-15.516 -19.768,-15.252C-21.205,-14.394 -22.631,-13.692 -24.33,-13.28C-26.035,-12.867 -27.568,-11.616 -29.088,-10.6C-30.892,-9.395 -30.854,-9.331 -32.279,-10.808C-32.703,-11.247 -33.104,-11.708 -33.61,-12.261C-34.233,-11.229 -34.792,-10.274 -35.38,-9.339C-35.988,-8.372 -36.514,-7.298 -38.04,-7.764C-38.298,-7.843 -38.866,-7.399 -39.075,-7.062C-39.904,-5.72 -40.869,-5.002 -42.498,-5.794C-43.257,-6.163 -43.84,-5.711 -44.216,-5.054C-45.435,-2.925 -47.246,-2.407 -49.508,-3.047C-49.654,-3.088 -49.809,-3.111 -49.961,-3.123C-51.468,-3.246 -51.729,-2.955 -51.449,-1.472C-51.049,0.656 -51.062,1.583 -51.588,3.722C-51.845,3.393 -52.068,3.213 -52.152,2.982C-52.873,1.003 -54.276,-0.367 -56.037,-1.419C-59.361,-3.406 -62.862,-4.809 -66.793,-5.1C-71.987,-5.483 -77.184,-5.907 -82.354,-6.529C-86.001,-6.968 -89.606,-7.752 -93.225,-8.414C-93.716,-8.504 -94.172,-8.781 -95.043,-9.132C-93.075,-9.693 -91.473,-10.164 -89.861,-10.606C-88.683,-10.93 -87.466,-11.136 -86.319,-11.547C-85.57,-11.816 -84.932,-11.76 -84.39,-11.298C-80.884,-8.309 -76.728,-8.216 -72.437,-8.429C-68.22,-8.638 -63.988,-8.791 -59.77,-8.678C-58.333,-8.64 -56.862,-7.837 -55.512,-7.172C-54.343,-6.598 -54.062,-6.498 -53.189,-7.429C-53.138,-7.485 -53.101,-7.555 -53.051,-7.613C-51.1,-9.871 -51.1,-9.87 -48.384,-8.853C-47.244,-8.426 -46.091,-7.761 -45.211,-9.332C-45.081,-9.563 -44.522,-9.668 -44.178,-9.642C-43.185,-9.566 -42.475,-9.957 -41.684,-10.547C-41.095,-10.986 -40.122,-11.098 -39.34,-11.047C-37.903,-10.955 -37.019,-11.455 -36.481,-12.794C-36.056,-13.855 -35.475,-14.853 -34.891,-16.023C-34.403,-15.729 -33.982,-15.467 -33.555,-15.216C-31.651,-14.104 -31.593,-14.089 -29.917,-15.676C-29.396,-16.169 -28.892,-16.339 -28.267,-16.029C-26.66,-15.231 -25.281,-15.744 -23.992,-16.749C-22.641,-17.801 -21.237,-18.499 -19.424,-18.648C-17.539,-18.803 -15.679,-19.458 -13.856,-20.046C-13.17,-20.268 -12.392,-20.786 -12.053,-21.392C-11.323,-22.696 -10.272,-22.732 -9.1,-22.476C-7.629,-22.155 -6.258,-21.907 -5.046,-23.217C-4.685,-23.608 -3.934,-23.667 -3.345,-23.817C-0.95,-24.433 -0.924,-24.407 -0.344,-21.953C-0.24,-21.515 -0.104,-21.084 0,-20.711" style="fill:white;fill-rule:nonzero;"/>
            </g>
            <g transform="matrix(4.16667,0,0,4.16667,2111.24,1521.99)">
                <path d="M0,-35.745C0.031,-35.059 0.145,-34.719 0.043,-34.464C-0.596,-32.862 -0.513,-31.305 0.13,-29.721C0.558,-28.665 -0.345,-28.089 -0.981,-27.694C-7.113,-23.885 -13.267,-20.108 -19.462,-16.402C-22.557,-14.551 -25.757,-12.876 -28.899,-11.103C-34.847,-7.748 -40.789,-4.382 -46.729,-1.014C-48.517,0 -49.118,-0.299 -49.345,-2.387C-49.411,-2.996 -49.389,-3.617 -49.382,-4.232C-49.354,-6.621 -49.309,-6.504 -47.046,-7.317C-45.248,-7.964 -43.511,-8.84 -41.848,-9.789C-34.364,-14.06 -27.271,-18.931 -20.2,-23.845C-16.927,-26.12 -13.515,-28.203 -10.111,-30.284C-7.562,-31.842 -4.934,-33.271 -2.322,-34.726C-1.662,-35.094 -0.935,-35.34 0,-35.745" style="fill:white;fill-rule:nonzero;"/>
            </g>
            <g transform="matrix(4.16667,0,0,4.16667,1681.32,1512.62)">
                <path d="M0,-16.991C2.108,-18.042 4.3,-19.052 6.672,-19.168C12.87,-19.473 18.788,-18.224 24.63,-16.057C29.167,-14.374 32.868,-11.351 37.121,-9.264C39.034,-8.324 41,-7.435 43.028,-6.799C45.719,-5.953 48.488,-5.357 51.235,-4.698C51.971,-4.522 52.169,-4.218 52.154,-3.435C52.13,-2.068 52.306,-0.695 52.441,0.672C52.615,2.405 52.605,2.482 50.828,2.412C49.604,2.363 48.366,2.253 47.173,1.992C44.741,1.46 42.308,1.02 40.028,-0.173C37.183,-1.66 34.105,-2.697 31.224,-4.122C27.382,-6.024 23.641,-8.128 19.84,-10.115C15.47,-12.4 10.874,-14.117 6.096,-15.314C4.618,-15.684 3.071,-15.768 1.562,-16.024C1.052,-16.111 0.562,-16.324 0.063,-16.478C0.043,-16.649 0.021,-16.82 0,-16.991" style="fill:white;fill-rule:nonzero;"/>
            </g>
            <g transform="matrix(4.16667,0,0,4.16667,1643.59,779.275)">
                <path d="M0,-8.758C-0.643,-12.443 4.148,-15.145 7.708,-13.994C8.885,-13.614 9.291,-12.596 9.704,-11.611C9.969,-10.981 10.099,-10.294 10.269,-9.628C10.631,-8.217 11.384,-7.765 12.562,-8.572C14.382,-9.82 16.354,-9.706 18.333,-9.523C21.337,-9.246 23.092,-6.918 22.726,-3.933C22.463,-1.801 21.393,-0.224 19.574,0.877C15.816,3.149 11.812,4.882 7.653,6.259C7.267,6.387 6.507,6.237 6.305,5.948C3.58,2.033 0.999,-1.969 0.109,-6.778C-0.002,-7.377 0.037,-8.003 0,-8.758" style="fill:white;fill-rule:nonzero;"/>
            </g>
            <g transform="matrix(4.16667,0,0,4.16667,1492.29,1419.56)">
                <path d="M0,-3.847C-1.076,-3.847 -2.152,-3.839 -3.229,-3.849C-4.165,-3.859 -4.521,-4.449 -4.23,-5.222C-3.693,-6.656 -3.018,-8.037 -2.376,-9.43C-2.045,-10.151 -1.455,-10.036 -0.808,-9.916C2.281,-9.345 5.367,-8.748 8.474,-8.287C12.485,-7.691 16.471,-6.975 20.575,-7.046C25.582,-7.133 30.53,-6.485 35.109,-4.255C37.663,-3.011 40.248,-1.713 41.179,1.329C41.38,1.985 41.662,2.653 41.677,3.32C41.694,4.111 41.74,5.229 41.277,5.628C40.493,6.304 39.813,5.328 39.154,4.83C35.039,1.72 30.335,0.03 25.341,-1.086C18.797,-2.55 12.154,-2.991 5.496,-3.404C3.664,-3.517 1.842,-3.784 0.015,-3.98L0,-3.847Z" style="fill:white;fill-rule:nonzero;"/>
            </g>
            <g transform="matrix(4.16667,0,0,4.16667,1693.94,1180.3)">
                <path d="M0,-16.3C2.06,-16.077 4.122,-15.877 6.179,-15.623C7.323,-15.482 7.783,-14.839 7.907,-13.618C8.219,-10.551 9.18,-7.782 12.121,-6.124C13.21,-5.509 13.261,-4.554 12.321,-3.43C11.104,-1.973 9.493,-0.946 7.692,-0.561C5.067,0 2.451,-0.199 0.358,-2.22C-0.295,-2.85 -1.024,-3.535 -1.352,-4.343C-2.564,-7.341 -3.479,-10.441 -3.706,-13.691C-3.874,-16.089 -3.774,-16.154 -1.396,-16.2C-0.935,-16.21 -0.473,-16.202 -0.011,-16.202C-0.007,-16.235 -0.004,-16.267 0,-16.3" style="fill:white;fill-rule:nonzero;"/>
            </g>
            <g transform="matrix(4.16667,0,0,4.16667,1788.52,1139.14)">
                <path d="M0,14.548C-4.596,14.512 -8.008,11.082 -7.837,6.714C-7.8,5.771 -7.45,5.368 -6.495,5.239C-5.292,5.076 -4.097,4.782 -2.933,4.432C-1.399,3.97 -0.29,2.983 0.433,1.517C1.181,0 1.228,0.016 2.884,0.43C3.701,0.634 4.517,0.851 5.324,1.09C6.253,1.366 7.46,1.419 8.011,2.042C8.488,2.583 8.296,3.787 8.263,4.694C8.181,6.929 7.833,9.084 6.545,11.029C4.968,13.411 2.779,14.498 0,14.548" style="fill:white;fill-rule:nonzero;"/>
            </g>
            <g transform="matrix(4.16667,0,0,4.16667,1846.23,1431.94)">
                <path d="M0,-20.971C-14.171,-14.66 -27.28,-7.138 -40.458,0.482C-40.354,-1.765 -40.252,-3.808 -40.174,-5.853C-40.148,-6.502 -39.868,-6.863 -39.21,-6.879C-38.596,-6.893 -37.973,-6.948 -37.367,-6.871C-35.812,-6.675 -34.519,-6.828 -33.753,-8.508C-33.339,-9.417 -32.368,-9.608 -31.371,-9.561C-30.28,-9.51 -29.2,-9.571 -28.56,-10.705C-28.458,-10.885 -28.193,-11.094 -28.012,-11.088C-25.602,-11.009 -24.637,-12.875 -23.542,-14.463C-23.303,-14.398 -23.121,-14.404 -23.029,-14.316C-21.047,-12.401 -20.75,-12.426 -18.717,-14.242C-17.691,-15.157 -16.544,-15.935 -15.446,-16.768C-15.264,-16.907 -15.062,-17.094 -14.854,-17.114C-12.673,-17.326 -10.723,-18.083 -9.011,-19.465C-8.859,-19.587 -8.54,-19.641 -8.361,-19.57C-6.261,-18.729 -4.665,-20.025 -2.96,-20.828C-1.675,-21.432 -1.685,-21.453 0,-20.971" style="fill:white;fill-rule:nonzero;"/>
            </g>
            <g transform="matrix(-1.97167,3.67064,3.67064,1.97167,1788.4,1122.45)">
                <path d="M4.643,-12.546C4.279,-8.16 3.929,-3.912 3.575,0.336C3.509,1.117 3.865,1.424 4.643,1.45C7.04,1.529 9.343,-0.651 10.02,-3.35C11.049,-7.448 7.887,-11.405 4.643,-12.546" style="fill:white;fill-rule:nonzero;"/>
            </g>
            <g transform="matrix(4.16667,0,0,4.16667,1693.99,1078.86)">
                <path d="M0,-0.876C0.024,1.065 -0.819,2.439 -2.336,2.926C-4.04,3.473 -6.302,2.797 -7.297,1.443C-8.887,-0.72 -8.717,-2.436 -6.588,-3.859C-5.969,-4.274 -5.038,-4.345 -4.25,-4.347C-3.586,-4.349 -2.917,-4.037 -2.258,-3.837C-0.467,-3.294 -0.024,-2.706 0,-0.876" style="fill:white;fill-rule:nonzero;"/>
            </g>
            <g transform="matrix(4.16667,0,0,4.16667,1904.21,1268.23)">
                <path d="M0,-1.806C2.598,-5.528 2.857,-5.533 5.869,-2.716C7.204,-1.469 8.686,-0.378 10.255,0.911C10.016,1.266 9.745,1.791 9.362,2.214C7.996,3.727 7.981,3.637 6.272,2.329C4.755,1.168 3.086,0.207 1.482,-0.842C1.039,-1.132 0.595,-1.42 0,-1.806" style="fill:white;fill-rule:nonzero;"/>
            </g>
            <g transform="matrix(4.16667,0,0,4.16667,1796.76,1092.18)">
                <path d="M0,-19.588C-0.739,-19.457 -1.697,-19.309 -2.645,-19.111C-3.09,-19.018 -3.509,-18.755 -3.953,-18.716C-4.172,-18.698 -4.535,-18.972 -4.619,-19.195C-4.691,-19.388 -4.536,-19.792 -4.352,-19.935C-3.069,-20.932 -1.5,-20.982 0.018,-21.096C0.767,-21.153 1.535,-20.952 2.295,-20.867C3.95,-20.68 5.136,-19.774 5.973,-18.39C6.098,-18.183 5.983,-17.832 5.98,-17.547C5.72,-17.598 5.414,-17.577 5.208,-17.712C4.507,-18.169 3.889,-18.777 3.148,-19.148C2.067,-19.69 1.624,-19.471 1.668,-18.354C1.766,-15.899 1.83,-13.418 2.257,-11.009C2.637,-8.87 4.249,-7.286 6.003,-6.204C9.586,-3.994 13.214,-1.776 17.418,-0.872C22.417,0.202 27.3,0.003 31.971,-2.324C32.33,-2.503 32.77,-2.522 33.504,-2.693C32.875,-1.343 32.087,-0.651 31.076,-0.293C29.49,0.269 27.887,1.017 26.248,1.15C21.716,1.515 17.157,1.565 12.933,-0.564C10.472,-1.805 7.945,-2.971 5.655,-4.485C2.747,-6.408 0.617,-8.966 0.516,-12.758C0.456,-14.952 0.192,-17.14 0,-19.588" style="fill:rgb(35,31,32);fill-rule:nonzero;"/>
            </g>
            <g transform="matrix(4.16667,0,0,4.16667,1904.29,974.345)">
                <path d="M0,11.034C-2.942,10.972 -4.55,9.705 -5.877,8.045C-6.099,7.768 -5.851,7.117 -5.819,6.638C-5.322,6.689 -4.821,6.719 -4.331,6.805C-4.228,6.823 -4.162,7.047 -4.075,7.174C-2.663,9.228 -0.645,9.91 1.622,9.1C3.16,8.55 4.322,6.651 4.079,5.085C3.843,3.571 1.664,1.904 -0.037,1.964C-0.338,1.974 -0.644,2.194 -0.929,2.161C-1.406,2.106 -2.177,2.045 -2.281,1.775C-2.59,0.98 -1.834,0.758 -1.254,0.599C0.933,0 4.687,1.865 5.53,3.939C6.26,5.733 5.126,9.085 3.294,9.984C2.081,10.578 0.695,10.821 0,11.034" style="fill:rgb(35,31,32);fill-rule:nonzero;"/>
            </g>
            <g transform="matrix(4.16667,0,0,4.16667,1825.6,925.411)">
                <path d="M0,-11.466C1.65,-12.96 3.576,-13.527 5.622,-12.918C9.463,-11.777 12.429,-9.474 14.005,-5.66C15.001,-3.249 15.894,-0.795 18.288,0.698C18.522,0.844 18.381,1.593 18.414,2.061C18.083,1.994 17.703,2.01 17.43,1.847C15.464,0.67 14.099,-0.92 13.313,-3.168C12.694,-4.941 11.731,-6.682 10.566,-8.157C8.446,-10.844 5.658,-12.234 2.096,-11.403C1.514,-11.267 0.904,-11.244 0.307,-11.182C0.257,-11.177 0.196,-11.279 0,-11.466" style="fill:rgb(35,31,32);fill-rule:nonzero;"/>
            </g>
            <g transform="matrix(4.16667,0,0,4.16667,2010.57,953.237)">
                <path d="M0,-5.903C1.765,-5.717 3.621,-5.09 4.839,-3.283C5.001,-3.042 5.01,-2.393 4.874,-2.316C4.54,-2.128 4.062,-2.069 3.676,-2.142C3.445,-2.186 3.274,-2.574 3.088,-2.815C2.268,-3.872 1.143,-4.194 -0.143,-4.299C-3.88,-4.604 -6.991,-2.943 -10.134,-1.292C-11.138,-0.765 -12.24,-0.404 -13.329,-0.073C-13.572,0 -13.95,-0.374 -14.267,-0.542C-14.062,-0.806 -13.912,-1.188 -13.643,-1.318C-11.85,-2.178 -9.987,-2.902 -8.231,-3.828C-5.731,-5.147 -3.06,-5.693 0,-5.903" style="fill:rgb(35,31,32);fill-rule:nonzero;"/>
            </g>
            <g transform="matrix(4.16667,0,0,4.16667,1655.48,1044.37)">
                <path d="M0,-5.194C2,-4.576 4.419,-4.235 5.849,-2.019C6.088,-1.648 6.286,-1.213 6.354,-0.784C6.392,-0.557 6.165,-0.168 5.951,-0.058C5.764,0.039 5.402,-0.102 5.165,-0.228C4.979,-0.327 4.817,-0.541 4.725,-0.74C3.231,-3.949 -1.659,-4.144 -4.06,-2.166C-4.348,-1.928 -4.802,-1.893 -5.18,-1.764C-5.129,-2.253 -5.223,-2.824 -4.999,-3.213C-4.508,-4.066 -1.532,-5.233 0,-5.194" style="fill:rgb(35,31,32);fill-rule:nonzero;"/>
            </g>
            <g transform="matrix(4.16667,0,0,4.16667,1970.84,980.927)">
                <path d="M0,-0.284C-0.036,-0.099 -0.074,0.599 -0.317,1.216C-0.793,2.429 -2.443,3.044 -3.538,2.404C-3.845,2.224 -4.077,1.68 -4.098,1.291C-4.188,-0.419 -3.521,-1.832 -2.116,-2.816C-1.73,-3.087 -1.073,-3.328 -0.713,-3.176C-0.361,-3.027 -0.165,-2.378 -0.021,-1.911C0.086,-1.564 0,-1.158 0,-0.284" style="fill:rgb(35,31,32);fill-rule:nonzero;"/>
            </g>
            <g transform="matrix(4.16667,0,0,4.16667,1859.43,946.268)">
                <path d="M0,-2.15C-0.308,-0.795 -0.171,0.995 -2.07,1.673C-2.593,1.859 -3.47,2.057 -3.714,1.801C-4.184,1.308 -4.624,0.451 -4.532,-0.175C-4.284,-1.858 -3.155,-3.037 -1.628,-3.739C-0.61,-4.207 0.004,-3.629 0,-2.15" style="fill:rgb(35,31,32);fill-rule:nonzero;"/>
            </g>
            <g transform="matrix(4.16667,0,0,4.16667,1896.65,1409.32)">
                <path d="M0,14.273C-3.922,13.06 -7.937,12.032 -11.775,10.544C-13.801,9.76 -15.56,8.234 -17.362,6.938C-21.889,3.686 -26.904,1.812 -32.458,1.373C-32.839,1.343 -33.243,1.358 -33.59,1.229C-33.839,1.136 -34.011,0.836 -34.218,0.628C-33.964,0.415 -33.694,0 -33.46,0.018C-31.479,0.179 -29.426,0.147 -27.546,0.694C-24.243,1.657 -20.92,2.69 -18.012,4.652C-16.931,5.381 -15.78,6.038 -14.814,6.898C-12.761,8.729 -10.385,9.932 -7.79,10.689C-5.366,11.397 -2.892,11.93 -0.438,12.539C-0.141,12.612 0.202,12.613 0.446,12.77C0.76,12.97 0.995,13.294 1.265,13.565C0.905,13.766 0.546,13.967 0,14.273" style="fill:rgb(35,31,32);fill-rule:nonzero;"/>
            </g>
            <g transform="matrix(4.16667,0,0,4.16667,1952.66,1381.51)">
                <path d="M0,12.139C-0.793,12.159 -1.611,12.314 -2.375,12.174C-5.674,11.567 -9.023,11.131 -12.036,9.471C-15.184,7.737 -18.371,6.076 -21.508,4.322C-23.534,3.187 -25.642,2.362 -27.936,1.943C-29.131,1.724 -30.288,1.279 -31.44,0.872C-31.652,0.797 -31.756,0.413 -31.909,0.172C-31.66,0.05 -31.409,-0.175 -31.163,-0.17C-30.712,-0.16 -30.265,-0.012 -29.815,0.074C-26.011,0.807 -22.505,2.326 -19.091,4.104C-16.38,5.515 -13.733,7.104 -10.899,8.208C-7.709,9.452 -4.342,10.243 -1.05,11.225C-0.698,11.33 -0.337,11.4 0.02,11.486C0.013,11.704 0.007,11.921 0,12.139" style="fill:rgb(35,31,32);fill-rule:nonzero;"/>
            </g>
            <g transform="matrix(4.16667,0,0,4.16667,1921.75,1396.35)">
                <path d="M0,12.617C-5.322,12.16 -10.015,10.596 -14.467,8.261C-17.792,6.516 -21.058,4.648 -24.444,3.034C-26.154,2.219 -28.073,1.841 -29.901,1.278C-30.264,1.166 -30.662,1.158 -31.007,1.012C-31.168,0.944 -31.341,0.651 -31.322,0.481C-31.304,0.305 -31.062,0.02 -30.911,0.015C-30.386,0 -29.852,0.048 -29.332,0.14C-25.807,0.763 -22.657,2.345 -19.517,3.969C-15.915,5.83 -12.511,8.125 -8.59,9.301C-5.812,10.134 -2.968,10.735 -0.166,11.489C0.154,11.575 0.389,11.981 0.663,12.239C0.373,12.404 0.083,12.57 0,12.617" style="fill:rgb(35,31,32);fill-rule:nonzero;"/>
            </g>
            <g transform="matrix(4.16667,0,0,4.16667,1984.85,1370.55)">
                <path d="M0,10.436C-0.978,11.558 -1.998,11.358 -2.797,11.308C-5.713,11.122 -8.529,10.517 -11.189,9.165C-15.629,6.91 -20.094,4.694 -24.637,2.661C-26.784,1.7 -29.137,1.197 -31.399,0.495C-31.69,0.405 -32.047,0.438 -32.286,0.281C-32.629,0.057 -32.892,-0.29 -33.188,-0.585C-32.809,-0.755 -32.393,-1.122 -32.055,-1.061C-30.852,-0.841 -29.636,-0.58 -28.495,-0.147C-24.772,1.264 -21.134,2.837 -17.615,4.748C-14.351,6.52 -10.875,7.939 -7.401,9.277C-5.79,9.897 -3.965,9.971 -2.231,10.257C-1.602,10.361 -0.956,10.363 0,10.436" style="fill:rgb(35,31,32);fill-rule:nonzero;"/>
            </g>
            <g transform="matrix(4.16667,0,0,4.16667,1900.85,1388.24)">
                <path d="M0,-10.584C0.868,-10.514 1.795,-10.616 2.594,-10.344C5.631,-9.31 8.632,-8.216 11.428,-6.55C16.433,-3.566 21.861,-1.865 27.752,-1.808C28.564,-1.8 29.986,-2.338 29.949,-1.01C29.92,0.032 28.547,-0.451 27.796,-0.463C21.448,-0.573 15.592,-2.456 10.202,-5.725C7.478,-7.377 4.556,-8.421 1.537,-9.297C0.976,-9.46 0.432,-9.684 -0.12,-9.879C-0.08,-10.114 -0.04,-10.349 0,-10.584" style="fill:rgb(35,31,32);fill-rule:nonzero;"/>
            </g>
            <g transform="matrix(4.16667,0,0,4.16667,2006.19,1358.74)">
                <path d="M0,9.149C-1.03,10.313 -2.099,10.344 -3.127,10.156C-6.979,9.454 -10.796,8.637 -14.291,6.731C-16.65,5.444 -19.068,4.266 -21.458,3.035C-23.853,1.801 -26.305,0.726 -28.985,0.268C-29.437,0.191 -29.925,0.145 -30.314,-0.065C-30.59,-0.215 -30.729,-0.618 -30.93,-0.907C-30.654,-0.988 -30.345,-1.195 -30.111,-1.129C-27.687,-0.444 -25.178,0.058 -22.883,1.053C-18.802,2.823 -14.867,4.928 -10.846,6.838C-7.977,8.2 -4.891,8.724 -1.75,8.978C-1.264,9.017 -0.778,9.072 0,9.149" style="fill:rgb(35,31,32);fill-rule:nonzero;"/>
            </g>
            <g transform="matrix(4.16667,0,0,4.16667,1703.55,1290.11)">
                <path d="M0,-5.284C1.858,-3.837 3.896,-3.418 5.842,-2.793C6.931,-2.444 8.052,-2.186 9.12,-1.785C12.781,-0.412 16.416,1.031 20.087,2.377C20.588,2.561 21.333,2.529 21.801,2.284C25.639,0.275 29.705,-1.045 33.923,-1.956C34.214,-2.019 34.457,-2.304 34.868,-2.585C33.113,-2.841 31.607,-3.099 30.092,-3.274C24.506,-3.919 19.118,-5.244 13.915,-7.445C12.064,-8.227 9.994,-8.8 7.879,-8.078C5.781,-7.361 3.666,-6.695 1.565,-5.985C1.092,-5.825 0.647,-5.577 0,-5.284M9.325,-10.211C11.97,-9.313 14.537,-8.534 17.033,-7.573C22.24,-5.567 27.667,-4.666 33.183,-4.163C35.091,-3.989 37.009,-3.9 38.912,-3.68C39.331,-3.631 39.705,-3.19 40.101,-2.929C39.757,-2.59 39.469,-2.055 39.062,-1.942C35.594,-0.972 32.108,-0.06 28.619,0.831C26.269,1.431 24.17,2.545 22.282,4.011C21.496,4.622 20.677,4.927 20.011,4.328C18.626,3.083 16.852,2.777 15.246,2.137C11.194,0.523 7.05,-0.855 2.954,-2.36C1.369,-2.942 -0.184,-3.612 -1.754,-4.235C-2.37,-4.48 -2.965,-4.862 -2.697,-5.565C-2.555,-5.94 -1.95,-6.273 -1.498,-6.374C1.863,-7.129 5.308,-7.61 8.116,-9.898C8.431,-10.153 8.975,-10.127 9.325,-10.211" style="fill:rgb(35,31,32);fill-rule:nonzero;"/>
            </g>
            <g transform="matrix(4.16667,0,0,4.16667,1634.44,1336.77)">
                <path d="M0,5.169C-4.578,4.6 -9.233,4.39 -13.462,2.161C-14.071,1.839 -14.688,1.506 -15.221,1.078C-15.446,0.897 -15.462,0.455 -15.572,0.131C-15.215,0.1 -14.846,0 -14.504,0.059C-14.22,0.107 -13.96,0.332 -13.702,0.497C-10.662,2.454 -7.326,3.397 -3.725,3.62C-2.41,3.701 -1.121,4.2 0.179,4.508C0.119,4.728 0.06,4.948 0,5.169" style="fill:rgb(35,31,32);fill-rule:nonzero;"/>
            </g>
            <g transform="matrix(4.16667,0,0,4.16667,1715.19,1296.64)">
                <path d="M0,6.205C-0.143,6.581 -0.16,6.756 -0.257,6.845C-0.341,6.924 -0.553,6.974 -0.643,6.922C-4.188,4.86 -7.728,2.785 -11.265,0.707C-11.395,0.631 -11.543,0.531 -11.602,0.404C-11.752,0.082 -11.856,-0.261 -11.979,-0.595C-11.645,-0.639 -11.292,-0.769 -10.981,-0.703C-10.628,-0.627 -10.254,-0.438 -9.988,-0.191C-7.607,2.025 -4.839,3.571 -1.825,4.757C-1.107,5.039 -0.559,5.748 0,6.205" style="fill:rgb(35,31,32);fill-rule:nonzero;"/>
            </g>
            <g transform="matrix(4.16667,0,0,4.16667,1684.89,1312.23)">
                <path d="M0,-7.022C0.137,-6.955 0.276,-6.893 0.408,-6.819C3.797,-4.928 7.19,-3.045 10.562,-1.124C10.801,-0.987 10.874,-0.558 11.024,-0.266C10.689,-0.173 10.357,-0.027 10.019,-0.01C9.819,0 9.608,-0.191 9.405,-0.299C6.91,-1.622 4.398,-2.917 1.929,-4.286C1.075,-4.76 0.304,-5.395 -0.452,-6.02C-0.576,-6.123 -0.454,-6.568 -0.382,-6.838C-0.357,-6.927 -0.133,-6.961 0,-7.022" style="fill:rgb(35,31,32);fill-rule:nonzero;"/>
            </g>
            <g transform="matrix(4.16667,0,0,4.16667,1674.76,1316.89)">
                <path d="M0,5.663C-1.858,6.071 -3.396,5.065 -4.952,4.4C-7.125,3.472 -9.157,2.214 -11.246,1.091C-11.445,0.984 -11.665,0.862 -11.79,0.686C-11.907,0.521 -12.023,0.197 -11.942,0.081C-11.795,-0.129 -11.447,-0.408 -11.277,-0.355C-10.706,-0.177 -10.133,0.069 -9.638,0.404C-6.606,2.454 -3.522,4.395 0,5.663" style="fill:rgb(35,31,32);fill-rule:nonzero;"/>
            </g>
            <g transform="matrix(4.16667,0,0,4.16667,1653.82,1328.34)">
                <path d="M0,3.848C-2.99,4.183 -5.67,3.265 -8.335,2.333C-9.559,1.906 -10.741,1.345 -11.902,0.763C-12.123,0.652 -12.151,0.16 -12.269,-0.155C-11.982,-0.19 -11.654,-0.335 -11.417,-0.244C-8.913,0.718 -6.438,1.755 -3.925,2.688C-2.648,3.162 -1.31,3.467 0,3.848" style="fill:rgb(35,31,32);fill-rule:nonzero;"/>
            </g>
            <g transform="matrix(4.16667,0,0,4.16667,1689.61,1303.94)">
                <path d="M0,4.745C-3.675,4.317 -6.899,3.068 -9.924,1.253C-10.173,1.103 -10.241,0.651 -10.394,0.34C-9.997,0.226 -9.606,0.063 -9.202,0.02C-9.014,0 -8.778,0.184 -8.601,0.323C-6.141,2.246 -3.312,3.38 -0.342,4.223C-0.243,4.251 -0.19,4.445 0,4.745" style="fill:rgb(35,31,32);fill-rule:nonzero;"/>
            </g>
            <g transform="matrix(4.16667,0,0,4.16667,1703.55,1286.13)">
                <path d="M0,-4.329C0.647,-4.622 1.092,-4.87 1.565,-5.03C3.666,-5.74 5.781,-6.406 7.879,-7.123C9.994,-7.845 12.064,-7.272 13.915,-6.49C19.118,-4.289 24.506,-2.964 30.092,-2.319C31.607,-2.144 33.113,-1.886 34.868,-1.63C34.457,-1.349 34.214,-1.064 33.923,-1.001C29.705,-0.09 25.639,1.23 21.801,3.239C21.333,3.484 20.588,3.516 20.087,3.332C16.416,1.986 12.781,0.543 9.12,-0.83C8.052,-1.231 6.931,-1.489 5.842,-1.838C3.896,-2.463 1.858,-2.882 0,-4.329" style="fill:white;fill-rule:nonzero;"/>
            </g>
        </g>
    </g>
</svg>
