<?xml version="1.0" encoding="UTF-8" standalone="no"?>
<!DOCTYPE svg PUBLIC "-//W3C//DTD SVG 1.1//EN" "http://www.w3.org/Graphics/SVG/1.1/DTD/svg11.dtd">
<svg width="100%" height="100%" viewBox="0 0 707 989" version="1.1" xmlns="http://www.w3.org/2000/svg" xmlns:xlink="http://www.w3.org/1999/xlink" xml:space="preserve" xmlns:serif="http://www.serif.com/" style="fill-rule:evenodd;clip-rule:evenodd;stroke-linejoin:round;stroke-miterlimit:2;">
    <g transform="matrix(1,0,0,1,-314,-1785)">
        <g>
            <g transform="matrix(4.16667,0,0,4.16667,380.661,2153.74)">
                <path d="M0,60.207C-1.347,60.276 -2.153,60.379 -2.953,60.346C-5.138,60.254 -6.274,61.517 -5.846,63.628C-5.426,65.694 -2.989,67.559 -0.797,67.544C0.222,67.537 0.8,67.115 0.695,66.071C0.506,64.186 0.253,62.31 0,60.207M36.574,76.006C30.992,78.226 25.897,77.39 20.726,74.27C20.821,75.457 20.604,76.454 20.983,76.805C22.306,78.03 22.587,80.012 24.568,80.832C28.81,82.587 32.621,80.978 36.574,80.012L36.574,76.006ZM114.928,82.665C115.346,84.52 115.557,86.065 116.057,87.51C116.635,89.18 118.006,90.053 119.359,89.934C123.21,89.593 126.793,86.083 127.148,82.192C127.203,81.578 126.813,80.922 126.592,80.151C122.979,82.366 119.352,83.109 114.928,82.665M1.48,44.522C-1.302,45.53 -3.918,45.145 -6.051,43.279C-7.404,42.097 -8.442,40.516 -9.47,39.01C-10.584,37.381 -11.715,37.277 -12.864,38.88C-14.498,41.159 -13.927,44.035 -11.258,45.806C-9.507,46.967 -7.577,47.871 -5.669,48.771C-3.583,49.757 -1.64,49.445 0.327,48.147C1.765,47.197 2.065,46.185 1.48,44.522M2.041,49.849C-2.717,51.642 -6.804,50.353 -10.686,48.534C-12.333,50.926 -12.474,52.076 -10.896,53.974C-8.417,56.96 -5.174,58.814 -1.226,58.325C2.118,57.911 3.46,56.265 2.917,53.077C2.753,52.102 2.402,51.157 2.041,49.849M-12.106,28.463C-11.975,29.27 -12.029,30.161 -11.683,30.849C-10.153,33.894 -8.657,36.977 -6.83,39.841C-6.042,41.075 -4.595,42.042 -3.241,42.725C-1.149,43.78 1.117,42.538 1.693,40.299C2.67,36.5 0.214,32.857 -3.736,32.246C-5.79,31.929 -6.093,31.612 -6.569,29.507C-6.767,28.625 -7.062,27.765 -7.293,26.962C-9.353,26.202 -10.514,27.64 -12.106,28.463M19.911,57.922C19.779,59.177 19.492,60.429 19.55,61.663C19.679,64.42 19.95,67.174 20.223,69.923C20.41,71.811 21.813,72.757 23.321,73.515C24.303,74.01 25.346,74.418 26.403,74.721C29.397,75.58 32.407,75.578 35.327,74.435C35.895,74.212 36.634,73.466 36.65,72.943C36.765,69.271 36.711,65.594 36.711,61.73C30.102,63.913 24.5,62.916 19.911,57.922M21.584,81.711C22.066,86.858 22.498,91.708 22.985,96.554C23.206,98.746 23.462,100.941 23.836,103.11C24.605,107.562 25.466,111.997 26.287,116.439C26.716,118.76 27.777,120.795 29.16,122.667C31.166,125.38 33.958,125.94 37.065,125.328C39.611,124.827 40.253,124.152 40.093,121.577C39.907,118.554 39.281,115.56 39.042,112.536C38.421,104.718 37.909,96.892 37.355,89.07C37.196,86.807 37.225,84.514 36.355,82.09C31.398,83.827 26.533,84.109 21.584,81.711M91.321,41.686C92.304,43.976 92.516,44.147 94.313,43.786C95.212,43.605 96.142,43.382 96.95,42.966C98.524,42.159 100.142,42.13 101.813,42.375C103.978,42.693 105.009,43.642 105.094,45.783C105.189,48.17 105.111,50.568 105.01,52.958C104.895,55.675 104.56,58.389 104.556,61.104C104.555,62.112 104.937,63.608 105.647,64.026C107.148,64.909 108.545,66.193 110.662,65.914C112.61,65.656 113.5,66.874 113.25,68.796C113.19,69.246 112.993,69.71 113.062,70.135C113.565,73.221 114.103,76.303 114.676,79.376C114.772,79.885 115.102,80.351 115.362,80.917C119.186,80.286 123.298,81.07 126.249,77.58C125.9,76.579 125.604,75.619 125.229,74.688C125.061,74.27 124.765,73.892 124.482,73.53C122.205,70.613 122.32,69.794 125.431,67.672C126.106,67.212 126.887,66.91 127.605,66.509C130.068,65.139 132.071,66.123 133.792,67.869C134.544,68.631 135.109,69.647 135.533,70.645C135.981,71.701 136.161,72.872 136.63,74.64C137.883,71.615 138.437,69.071 138.389,66.406C138.273,59.831 133.64,56.212 127.413,59.841C125.766,60.801 124.357,62.166 122.779,63.26C122.337,63.565 121.68,63.56 121.122,63.696C121.164,63.113 121.069,62.471 121.287,61.963C121.491,61.491 121.993,61.12 122.421,60.775C123.266,60.099 124.148,59.472 125.206,58.682C123.852,57.305 122.425,56.212 121.463,54.803C118.921,51.073 115.382,48.429 112.038,45.54C109.547,43.386 106.72,41.923 103.695,40.735C99.393,39.043 95.334,39.707 91.321,41.686M90.021,44.751C88.884,41.656 87.033,39.31 84.897,37.075C82.829,34.909 80.499,34.561 77.826,35.305C74.983,36.096 72.114,36.827 69.333,37.796C64.627,39.436 60.066,41.535 55.294,42.918C45.468,45.766 36.963,51.261 27.735,56.106C27.402,55.026 26.889,54.028 26.805,52.995C26.202,45.455 24.286,38.255 21.075,31.435C18.948,26.92 16.406,22.621 13,18.904C11.33,17.08 10.515,16.775 8.411,17.901C6,19.193 3.731,20.749 1.355,22.217C3.106,24.208 4.783,25.818 6.109,27.677C11.083,34.645 15.947,41.692 20.833,48.723C21.083,49.082 21.262,49.561 21.287,49.994C21.356,51.182 21.39,52.379 21.316,53.564C21.2,55.46 21.823,56.899 23.317,58.161C25.422,59.938 27.989,60.517 30.496,60.808C32.161,61.001 34.208,60.953 35.593,59.281C36.034,58.749 36.812,58.184 37.428,58.191C38.137,58.199 38.838,58.825 39.444,59.133C56.205,54.109 73.395,50.903 90.021,44.751M1.781,59.382C2.812,61.501 1.673,64.056 3.377,66.002C3.503,66.145 3.322,66.534 3.33,66.807C3.367,68.077 3.229,69.388 3.499,70.61C5.286,78.703 7.132,86.785 9.027,94.854C9.682,97.646 10.801,100.188 12.91,102.318C16.29,105.729 19.463,109.344 22.737,112.86C23.003,113.146 23.374,113.337 23.863,113.694C23.863,113.142 23.916,112.861 23.856,112.607C22.322,106.121 22.035,99.471 21.276,92.885C20.548,86.566 19.894,80.237 19.253,73.91C18.761,69.047 18.366,64.175 17.869,59.313C17.71,57.76 17.37,56.226 17.099,54.684C16.99,54.064 16.844,53.452 16.722,52.864C19.008,51.891 19.212,51.643 18.28,49.72C17.239,47.572 16.067,45.467 14.761,43.468C12.345,39.772 9.67,36.243 7.329,32.501C5.296,29.251 2.74,26.494 -0.013,23.909C-0.625,23.335 -1.053,22.845 -1.489,22.114C-2.323,20.711 -3.303,19.105 -5.693,19.096C-6.083,22.996 -5.068,26.613 -4.642,30.395C-3.979,30.478 -3.447,30.523 -2.921,30.614C0.78,31.263 4.161,34.987 3.833,38.604C3.589,41.308 3.097,43.939 3.333,46.712C3.442,47.976 3.456,49.121 3.993,50.316C5.678,54.061 5.101,56.464 1.781,59.382M95.398,90.292C95.576,90.54 96.077,90.972 96.225,91.502C96.604,92.849 97.608,92.867 98.638,92.762C99.166,92.709 99.65,92.3 100.181,92.209C100.836,92.098 101.699,91.886 102.154,92.191C102.934,92.713 102.678,93.502 102.247,94.371C101.259,96.361 101.835,98.313 103.377,99.861C105.047,101.534 107.054,101.817 109.254,101.664C111.456,101.509 113.625,100.094 115.886,101.475C116.042,101.569 116.395,101.303 116.665,101.255C117.755,101.065 118.847,100.773 119.944,100.738C123.287,100.631 126.29,99.421 128.945,97.593C131.366,95.927 133.256,93.804 134.136,90.691C135.372,86.325 135.497,81.988 134.935,77.593C134.646,75.328 134.086,73.066 133.357,70.901C133.044,69.969 132.135,68.931 131.241,68.565C129.287,67.765 127.418,68.6 125.817,69.783C125.477,70.034 125.358,70.994 125.544,71.466C125.982,72.574 126.728,73.554 127.24,74.637C129.718,79.869 129.959,84.348 126.011,88.749C123.618,91.416 120.469,91.871 117.246,92.144C116.266,92.228 115.219,91.739 114.85,90.593C114.343,89.013 113.704,87.448 113.435,85.823C112.788,81.917 112.156,77.994 111.836,74.05C111.523,70.188 109.666,67.754 106.147,66.333C103.071,65.093 100.04,63.739 97.024,62.359C95.521,61.674 94.155,60.675 92.626,60.07C90.051,59.05 88.562,60.121 88.445,62.92C88.415,63.653 88.451,64.406 88.579,65.127C88.915,67.028 89.798,68.237 91.984,68.475C95.178,68.821 98.334,69.519 101.512,70.022C102.735,70.215 103.804,70.578 104.477,71.611C104.115,72.907 103.434,72.834 102.534,72.421C99.471,71.016 96.329,70.086 92.882,70.74C92.198,70.87 91.435,70.55 90.703,70.487C88.88,70.331 87.054,70.088 85.229,70.096C83.281,70.103 81.745,71.109 80.471,72.569C79.686,73.471 79.533,74.428 80.241,75.328C80.789,76.024 81.507,76.683 82.289,77.081C85.267,78.591 88.367,77.905 91.446,77.413C94.625,76.907 97.802,76.375 100.994,75.968C101.565,75.895 102.206,76.369 102.816,76.59C102.793,76.829 102.771,77.067 102.749,77.307C101.906,77.456 101.069,77.633 100.223,77.747C98.398,77.995 96.527,78.043 94.749,78.478C92.157,79.112 89.574,79.874 87.088,80.844C84.691,81.78 82.281,82.829 80.131,84.22C77.179,86.13 77.601,89.967 80.72,91.388C85.05,84.504 96.736,79.014 100.99,82.052C100.546,82.297 100.163,82.698 99.809,82.674C96.938,82.478 94.333,83.474 91.768,84.49C88.733,85.693 86.255,87.775 83.976,90.071C83.608,90.44 83.34,90.995 83.221,91.509C82.655,93.915 83.525,95.08 85.982,94.934C87.23,94.859 88.557,94.499 89.66,93.915C91.568,92.903 93.332,91.618 95.398,90.292M96.808,94.869C94.97,99.666 93.11,104.474 91.289,109.295C90.471,111.462 89.317,113.176 86.858,113.777C82.475,114.849 78.165,116.26 73.748,117.15C66.344,118.641 58.878,119.827 51.441,121.165C50.649,121.308 49.886,121.607 49.371,121.758C47.86,126.165 46.779,130.323 46.394,134.679C46.167,137.243 46.493,139.257 48.933,140.523C49.667,140.902 50.356,141.373 51.109,141.71C59.131,145.305 67.555,146.996 76.334,147.211C83.025,147.376 89.611,146.56 96.155,145.406C100.996,144.553 105.66,143.048 109.774,140.191C111.916,138.704 113.076,136.75 112.84,134.083C112.728,132.797 112.369,131.481 112.531,130.232C113.12,125.674 112.405,121.214 111.693,116.764C111.113,113.128 110.28,109.532 109.567,105.917C109.243,104.272 108.482,103.297 106.58,103.403C104.59,103.515 103.112,102.411 101.805,100.98C100.351,99.391 99.92,97.43 99.511,95.432C99.459,95.179 99.308,94.945 99.183,94.659C98.431,94.726 97.71,94.79 96.808,94.869M102.371,63.118C102.721,58.404 103.058,54.025 103.363,49.645C103.426,48.724 103.431,47.791 103.361,46.87C103.229,45.175 102.649,44.52 100.933,44.511C99.377,44.504 97.759,44.574 96.275,44.992C88.286,47.242 80.356,49.704 72.356,51.912C65.429,53.823 58.422,55.448 51.476,57.294C47.91,58.241 44.384,59.347 40.869,60.473C38.933,61.092 38.605,61.59 38.59,63.432C38.542,69.346 38.395,75.263 38.533,81.173C38.658,86.431 39.267,91.679 39.384,96.936C39.537,103.789 40.06,110.573 41.605,117.267C41.907,118.576 41.925,119.95 42.072,121.278C42.613,121.325 42.894,121.412 43.149,121.365C48.849,120.301 54.536,119.164 60.247,118.163C67.698,116.857 75.106,115.356 82.374,113.26C85.455,112.371 88.621,111.452 89.834,107.807C91.261,103.52 92.867,99.29 94.347,95.02C94.494,94.594 94.311,94.052 94.276,93.504C91.779,94.534 89.515,95.547 87.192,96.401C85.045,97.192 83.134,96.656 81.792,94.774C81.124,93.839 80.35,93.218 79.344,92.662C77.089,91.414 76.379,89.162 76.341,86.777C76.305,84.59 77.701,83.282 79.625,82.406C81.192,81.69 82.691,80.825 84.247,80.013C82.492,78.972 80.802,78.213 79.411,77.084C77.545,75.57 77.458,74.308 78.588,72.2C79.808,69.923 81.588,68.498 84.277,68.411C85.333,68.376 86.388,68.268 87.229,68.207C87.063,65.767 86.708,63.653 86.827,61.567C87.009,58.407 89.917,56.708 92.772,58.038C94.69,58.93 96.441,60.175 98.309,61.185C99.641,61.904 101.045,62.493 102.371,63.118M89.255,39.379C91.493,38.946 93.004,38.673 94.507,38.358C96.216,37.999 98.053,37.888 99.597,37.164C103.405,35.378 107.348,33.864 110.862,31.44C112.865,30.06 114.772,28.731 116.126,26.642C117.227,24.943 118.288,25.066 118.955,27.025C120.013,30.134 122.623,31.506 125.31,31.608C131.23,31.834 134.909,29.746 135.074,23.124C135.095,22.293 135.103,21.457 135.049,20.628C134.839,17.379 132.97,14.789 130.201,13.862C126.871,12.748 123.33,13.709 121.165,16.246C120.75,16.732 120.13,17.043 119.218,17.722C119.132,14.966 117.273,14.199 115.776,13.333C110.531,10.301 106.436,6.044 103.164,1.105C97.774,-7.03 95.552,-16.008 97.183,-25.784C97.387,-27.013 97.363,-28.282 97.456,-29.71C93.96,-28.875 90.753,-28.043 87.514,-27.365C86.182,-27.086 84.768,-26.969 83.415,-27.082C81.706,-27.225 80.899,-28.065 80.74,-29.719C80.645,-30.699 80.695,-31.795 81.048,-32.694C81.683,-34.314 82.595,-35.825 83.387,-37.384C83.682,-37.965 83.965,-38.551 84.253,-39.135C84.114,-39.282 83.974,-39.429 83.835,-39.576C79.33,-37.719 74.825,-35.859 70.319,-34.001C64.245,-31.498 58.083,-29.244 51.617,-27.979C48.333,-27.336 45.737,-28.561 43.613,-31.19C42.193,-32.947 42.214,-34.855 42.496,-37.068C40.626,-36.035 39.007,-35.172 37.427,-34.244C37.058,-34.027 36.696,-33.634 36.54,-33.24C34.952,-29.212 33.029,-25.265 31.943,-21.103C30.645,-16.123 29.976,-10.968 29.212,-5.862C28.516,-1.208 27.922,3.458 28.983,8.18C30.02,12.79 30.95,17.483 33.646,21.41C35.772,24.507 38.46,27.229 40.995,30.031C44.903,34.347 49.843,36.915 55.496,38.096C56.726,38.352 58.288,37.723 59.278,38.266C61.065,39.247 62.483,38.536 64.024,38.03C66.83,37.112 69.609,36.108 72.425,35.222C75.231,34.339 78.088,33.608 80.888,32.704C82.104,32.311 82.917,32.472 83.786,33.482C85.59,35.581 87.543,37.549 89.255,39.379M47.284,-39.96C46.736,-39.3 46.037,-38.676 45.618,-37.898C45.019,-36.792 44.282,-35.589 44.228,-34.399C44.149,-32.648 46.82,-29.917 48.701,-29.668C50.224,-29.467 51.888,-29.332 53.334,-29.733C57.508,-30.889 61.674,-32.144 65.71,-33.703C72.332,-36.261 78.851,-39.085 85.407,-41.811C86.356,-42.204 87.271,-42.607 88.513,-41.635C87.782,-40.679 87.133,-39.717 86.372,-38.857C84.506,-36.746 82.987,-34.435 82.435,-31.645C81.969,-29.287 83.192,-28.083 85.554,-28.453C86.918,-28.665 88.291,-28.902 89.612,-29.291C92.354,-30.095 95.065,-31.006 97.788,-31.878C99.375,-32.388 100.159,-31.795 99.938,-30.212C99.889,-29.852 99.693,-29.514 99.623,-29.153C98.688,-24.336 97.867,-19.514 98.979,-14.607C100.248,-9.001 101.873,-3.554 105.42,1.134C108.987,5.849 113.391,9.511 118.563,12.372C120.022,13.18 121.073,13.601 122.569,12.641C123.385,12.118 124.463,11.817 125.439,11.769C127.416,11.676 129.404,11.823 131.598,11.874C135.258,8.293 137.921,3.628 140.782,-0.888C145.261,-7.957 148.657,-15.48 150.433,-23.71C151.631,-29.26 151.999,-34.85 151.701,-40.501C151.468,-44.943 150.001,-49.038 147.551,-52.658C146.021,-54.918 143.89,-56.778 141.979,-58.769C141.18,-59.602 140.386,-60.343 141.357,-61.66C141.745,-61.66 142.212,-61.586 142.648,-61.672C144.714,-62.08 146.875,-62.27 148.801,-63.041C150.609,-63.767 150.524,-65.516 148.667,-66.168C146.804,-66.826 144.771,-67.075 142.791,-67.301C141.72,-67.423 140.598,-67.023 139.502,-67.04C137.722,-67.067 137.257,-67.699 137.392,-69.461C137.501,-70.869 137.546,-72.281 137.618,-73.696C134.696,-73.791 134.03,-70.967 131.736,-69.954C131.499,-70.311 131.238,-70.688 130.993,-71.075C129.915,-72.781 128.988,-74.606 127.736,-76.172C124.604,-80.095 121.133,-83.615 116.152,-85.259C111.75,-86.712 107.248,-86.936 102.753,-86.296C94.496,-85.125 87.069,-81.601 79.779,-77.73C74.401,-74.873 69.12,-71.702 63.464,-69.535C55.988,-66.669 48.159,-64.732 40.538,-62.226C37.224,-61.136 34.014,-59.701 30.825,-58.273C28.205,-57.099 26.514,-54.881 25.01,-52.513C23.214,-49.688 23.139,-46.973 24.703,-43.895C27.046,-39.282 28.846,-34.438 29.093,-29.147C29.219,-26.449 29.565,-23.763 29.837,-20.801C30.886,-23.542 31.836,-26.012 32.778,-28.485C33.401,-30.125 34.256,-31.726 34.554,-33.424C34.823,-34.951 35.259,-36.159 36.711,-37.061C37.91,-36.445 39.088,-36.766 40.219,-37.561C41.575,-38.516 42.947,-39.454 44.345,-40.346C45.286,-40.943 46.295,-41.591 47.284,-39.96M-6.72,59.241C-7.401,58.781 -7.98,58.319 -8.621,57.97C-13.388,55.374 -14.643,52.228 -12.845,47.172C-13.542,46.05 -14.246,44.874 -14.993,43.727C-16.003,42.175 -16.091,40.624 -15.018,39.09C-14.073,37.741 -13.074,36.433 -11.93,34.878C-12.32,33.813 -12.801,32.429 -13.331,31.065C-14.766,27.38 -12.322,25.703 -9.628,25.039C-8.929,24.867 -8.187,24.869 -7.13,24.755C-7.258,23.05 -7.363,21.432 -7.506,19.818C-7.594,18.832 -8.076,17.741 -6.968,17.046C-5.744,16.28 -4.432,16.434 -3.316,17.232C-2.431,17.866 -1.709,18.732 -0.938,19.518C-0.556,19.908 -0.225,20.35 0.34,21.017C3.266,19.096 6.191,17.23 9.056,15.275C10.888,14.026 11.417,14.213 13.012,15.724C17.402,19.882 20.187,25.152 22.802,30.396C24.876,34.556 26.032,39.208 27.299,43.725C28.188,46.894 28.578,50.203 29.254,53.79C37.964,48.597 46.702,43.892 56.283,40.665C54.8,40.242 53.311,39.847 51.837,39.395C47.688,38.124 44.083,35.849 41.07,32.816C38.161,29.886 35.525,26.672 32.883,23.489C30.35,20.436 29.205,16.746 28.25,12.948C27.137,8.529 26.362,4.105 26.795,-0.463C26.96,-2.206 27.073,-3.96 27.381,-5.68C28.631,-12.636 27.908,-19.64 27.763,-26.604C27.639,-32.56 26.039,-38.364 22.702,-43.38C21.083,-45.815 21.273,-48.077 22.044,-50.415C23.331,-54.316 25.956,-57.2 29.431,-59.436C34.125,-62.457 39.581,-63.236 44.703,-65.008C52.538,-67.72 60.797,-69.212 68.206,-73.152C73.503,-75.97 78.78,-78.828 84.094,-81.614C88.932,-84.149 93.992,-86.167 99.333,-87.335C102.384,-88.003 105.485,-88.633 108.66,-87.995C109.47,-87.831 110.315,-87.752 111.14,-87.776C117.344,-87.957 122.155,-85.127 126.202,-80.752C128.328,-78.454 130.288,-76.003 132.382,-73.551C134.375,-74.525 136.414,-75.523 138.629,-76.606C140.666,-74.538 138.74,-71.87 139.975,-69.505C141.733,-69.292 143.727,-69.149 145.679,-68.783C147.304,-68.478 148.934,-68.051 150.461,-67.429C152.433,-66.626 152.779,-65.304 151.812,-63.395C150.81,-61.417 148.86,-61.023 146.996,-60.503C146.239,-60.291 145.452,-60.187 144.242,-59.948C145.599,-58.232 146.653,-56.88 147.726,-55.543C151.113,-51.328 153.053,-46.561 153.441,-41.135C154.203,-30.449 152.477,-20.182 148.012,-10.469C145.937,-5.955 143.402,-1.642 140.902,2.661C138.779,6.312 136.405,9.819 134.297,13.143C135.25,15.61 136.494,17.843 136.933,20.223C137.485,23.224 136.881,26.299 135.662,29.124C134.944,30.784 133.587,31.841 131.744,32.365C128.215,33.366 124.705,34.23 121.27,32.253C119.869,31.446 118.646,30.331 117.367,29.375C112.847,32.188 108.173,35.097 103.51,37.999C106.188,39.558 109.279,41.062 112.031,43.04C114.858,45.071 117.486,47.432 119.958,49.893C122.429,52.352 124.599,55.116 126.729,57.55C128.951,57.174 130.745,56.666 132.554,56.608C136.238,56.49 138.362,58.121 139.575,61.622C141.367,66.796 140.1,71.62 137.748,76.25C137.222,77.286 137.012,78.103 137.11,79.302C137.532,84.494 137.343,89.674 134.723,94.373C132.263,98.787 128.149,101.001 123.421,102.162C121.28,102.688 119.074,102.974 116.883,103.272C115.981,103.395 115.043,103.245 114.123,103.252C113.253,103.258 112.382,103.307 111.629,103.333C111.469,103.822 111.327,104.018 111.369,104.161C113.109,110.225 113.578,116.474 114.074,122.718C114.393,126.759 114.693,130.8 115.061,134.836C115.36,138.126 113.644,140.308 111.073,141.853C104.85,145.591 97.932,147.007 90.808,147.85C86.128,148.404 81.456,148.84 76.756,148.773C67.718,148.644 58.941,147.067 50.623,143.436C48.786,142.636 47.19,141.293 45.441,140.273C44.105,139.493 43.815,138.401 44.104,136.978C44.872,133.183 45.55,129.37 46.38,125.588C46.611,124.54 46.858,123.621 45.912,122.604C44.78,122.742 43.525,122.895 42.37,123.036C40.824,126.28 38.218,127.544 34.738,127.441C30.14,127.306 27.455,124.741 25.655,120.913C23.628,116.598 20.666,112.989 17.368,109.627C14.916,107.13 12.259,104.82 9.952,102.2C8.514,100.566 7.609,98.567 7.226,96.26C6.472,91.717 5.372,87.23 4.386,82.726C3.522,78.765 2.594,74.818 1.751,70.855C1.507,69.711 0.812,69.533 -0.201,69.332C-1.706,69.034 -3.263,68.617 -4.587,67.874C-7.548,66.217 -8.319,63.792 -7.2,60.58C-7.053,60.157 -6.898,59.737 -6.72,59.241" style="fill:rgb(35,31,32);"/>
            </g>
            <g transform="matrix(4.16667,0,0,4.16667,577.678,2014.68)">
                <path d="M0,-6.587C-0.989,-8.217 -1.999,-7.57 -2.939,-6.972C-4.337,-6.081 -5.709,-5.143 -7.065,-4.187C-8.196,-3.393 -9.375,-3.072 -10.573,-3.688C-12.025,-2.786 -12.461,-1.577 -12.73,-0.05C-13.028,1.648 -13.883,3.248 -14.506,4.888C-15.448,7.361 -16.398,9.831 -17.447,12.572C-17.719,9.611 -18.065,6.924 -18.191,4.227C-18.438,-1.064 -20.238,-5.909 -22.582,-10.521C-24.146,-13.6 -24.07,-16.314 -22.274,-19.14C-20.771,-21.508 -19.079,-23.726 -16.459,-24.9C-13.271,-26.328 -10.061,-27.763 -6.747,-28.852C0.875,-31.359 8.704,-33.296 16.18,-36.161C21.836,-38.328 27.117,-41.5 32.495,-44.356C39.785,-48.227 47.211,-51.751 55.469,-52.923C59.963,-53.562 64.466,-53.338 68.868,-51.885C73.849,-50.242 77.319,-46.722 80.452,-42.799C81.704,-41.233 82.631,-39.407 83.708,-37.701C83.954,-37.315 84.215,-36.938 84.452,-36.58C86.746,-37.594 87.412,-40.418 90.334,-40.322C90.262,-38.908 90.217,-37.496 90.108,-36.087C89.973,-34.325 90.438,-33.693 92.218,-33.667C93.313,-33.649 94.436,-34.049 95.507,-33.927C97.487,-33.701 99.52,-33.453 101.383,-32.795C103.24,-32.142 103.325,-30.393 101.517,-29.668C99.591,-28.896 97.43,-28.706 95.364,-28.298C94.928,-28.212 94.46,-28.286 94.073,-28.286C93.102,-26.97 93.896,-26.229 94.694,-25.396C96.606,-23.405 98.737,-21.545 100.267,-19.284C102.717,-15.664 104.184,-11.569 104.417,-7.128C104.715,-1.477 104.347,4.113 103.149,9.664C101.373,17.894 97.977,25.416 93.498,32.485C90.637,37.001 87.974,41.666 84.314,45.248C82.12,45.196 80.131,45.049 78.155,45.143C77.179,45.19 76.101,45.491 75.285,46.014C73.789,46.975 72.738,46.553 71.279,45.746C66.106,42.885 61.703,39.223 58.136,34.508C54.588,29.82 52.964,24.372 51.695,18.767C50.583,13.859 51.403,9.037 52.339,4.22C52.409,3.86 52.604,3.522 52.654,3.162C52.875,1.579 52.091,0.985 50.504,1.495C47.781,2.368 45.069,3.278 42.328,4.082C41.006,4.471 39.634,4.708 38.27,4.921C35.908,5.29 34.685,4.087 35.15,1.729C35.703,-1.062 37.222,-3.373 39.088,-5.484C39.849,-6.344 40.498,-7.305 41.229,-8.261C39.987,-9.234 39.072,-8.831 38.123,-8.438C31.566,-5.711 25.048,-2.888 18.426,-0.33C14.39,1.229 10.224,2.485 6.05,3.641C4.604,4.042 2.94,3.906 1.417,3.705C-0.464,3.456 -3.135,0.725 -3.056,-1.025C-3.002,-2.215 -2.266,-3.419 -1.667,-4.525C-1.248,-5.302 -0.548,-5.927 0,-6.587" style="fill:white;"/>
            </g>
            <g transform="matrix(4.16667,0,0,4.16667,737.389,2228.89)">
                <path d="M0,-36.269C0.139,-36.442 0.278,-36.615 0.417,-36.789C-0.135,-38.526 -2.693,-40.795 -4.412,-41.024C-5.315,-41.144 -6.239,-41.212 -6.55,-39.947C-5.317,-39.415 -4.114,-39.008 -3.024,-38.396C-1.956,-37.795 -1.003,-36.986 0,-36.269M-40.603,-40.648C-40.603,-40.87 -40.604,-41.094 -40.604,-41.316C-42.834,-42.589 -44.912,-41.507 -46.946,-40.594C-48.053,-40.097 -49.211,-39.455 -49.077,-37.457C-47.52,-38.302 -46.337,-39.124 -45.027,-39.603C-43.614,-40.12 -42.083,-40.314 -40.603,-40.648M44.924,5.322C46.352,3.897 46.428,2.989 45.36,2.095C43.722,0.722 39.392,0.265 37.55,1.409C36.787,1.882 35.253,2.254 35.876,3.499C36.645,5.039 37.547,3.593 38.311,3.168C40.98,1.687 43.708,2.477 44.924,5.322M-25.304,-8.018C-24.252,-9.07 -24.583,-9.964 -25.569,-10.313C-26.552,-10.663 -27.842,-10.909 -28.755,-10.563C-33.153,-8.898 -34.249,-6.383 -32.581,-2.096C-31.955,-0.484 -29.606,0.909 -27.9,0.754C-26.205,0.6 -25.077,-0.496 -24.762,-2.486C-26.674,-1.632 -28.576,0.063 -30.408,-2.313C-31.303,-3.476 -31.354,-5.936 -30.557,-7.053C-29.125,-9.063 -27.26,-9.068 -25.304,-8.018M7.804,4.269C7.24,4.094 6.984,3.939 6.74,3.954C3.367,4.165 2.913,3.918 1.6,1.07C1.33,0.483 1.117,-0.136 0.788,-0.686C0.395,-1.343 -0.204,-1.999 -0.976,-1.437C-1.312,-1.192 -1.447,-0.29 -1.288,0.185C-0.743,1.814 -1.296,2.953 -2.386,4.17C-6.468,8.718 -11.615,10.707 -17.608,10.853C-18.175,10.867 -18.737,11.072 -19.441,11.217C-18.894,12.609 -17.922,13.011 -16.921,12.837C-11.911,11.966 -6.891,11.026 -3.125,7.152C-2.036,6.032 -1.098,4.767 -0.169,3.658C4.039,6.408 5.348,6.503 7.804,4.269M3.641,21.343C1.929,19.513 -0.024,17.544 -1.829,15.446C-2.698,14.436 -3.51,14.274 -4.727,14.668C-7.527,15.572 -10.383,16.303 -13.19,17.186C-16.005,18.072 -18.785,19.076 -21.59,19.994C-23.132,20.5 -24.55,21.211 -26.337,20.23C-27.327,19.687 -28.889,20.316 -30.119,20.06C-35.771,18.879 -40.711,16.311 -44.62,11.995C-47.155,9.193 -49.843,6.471 -51.968,3.374C-54.665,-0.553 -55.595,-5.246 -56.631,-9.856C-57.693,-14.578 -57.099,-19.244 -56.403,-23.898C-55.639,-29.004 -54.97,-34.159 -53.672,-39.139C-52.586,-43.301 -50.663,-47.248 -49.075,-51.276C-48.918,-51.67 -48.557,-52.063 -48.188,-52.28C-46.608,-53.208 -44.989,-54.071 -43.119,-55.104C-43.4,-52.891 -43.422,-50.983 -42.001,-49.227C-39.877,-46.597 -37.282,-45.373 -33.998,-46.015C-27.532,-47.28 -21.37,-49.534 -15.296,-52.038C-10.79,-53.895 -6.285,-55.755 -1.779,-57.612C-1.641,-57.465 -1.5,-57.318 -1.361,-57.171C-1.649,-56.587 -1.933,-56.001 -2.228,-55.42C-3.02,-53.861 -3.932,-52.351 -4.567,-50.73C-4.919,-49.831 -4.97,-48.735 -4.875,-47.755C-4.716,-46.101 -3.909,-45.261 -2.2,-45.118C-0.847,-45.005 0.567,-45.123 1.899,-45.401C5.139,-46.079 8.345,-46.911 11.841,-47.746C11.749,-46.318 11.772,-45.049 11.568,-43.82C9.938,-34.044 12.16,-25.066 17.549,-16.931C20.821,-11.992 24.916,-7.735 30.161,-4.703C31.658,-3.837 33.518,-3.07 33.604,-0.314C34.516,-0.993 35.136,-1.304 35.55,-1.79C37.715,-4.327 41.256,-5.288 44.586,-4.174C47.355,-3.248 49.224,-0.657 49.434,2.592C49.488,3.421 49.48,4.257 49.459,5.087C49.294,11.71 45.615,13.798 39.695,13.572C37.008,13.47 34.398,12.098 33.34,8.989C32.673,7.03 31.612,6.907 30.511,8.606C29.158,10.695 27.25,12.024 25.247,13.404C21.733,15.828 17.79,17.342 13.982,19.127C12.438,19.852 10.602,19.962 8.892,20.322C7.39,20.637 5.878,20.91 3.641,21.343" style="fill:white;"/>
            </g>
            <g transform="matrix(4.16667,0,0,4.16667,807.207,2582.06)">
                <path d="M0,-39.681C-1.326,-40.306 -2.73,-40.894 -4.062,-41.614C-5.93,-42.623 -7.681,-43.868 -9.599,-44.761C-12.454,-46.091 -15.362,-44.391 -15.544,-41.231C-15.664,-39.145 -15.308,-37.032 -15.142,-34.591C-15.983,-34.531 -17.038,-34.423 -18.094,-34.388C-20.783,-34.301 -22.563,-32.876 -23.783,-30.599C-24.913,-28.491 -24.826,-27.229 -22.96,-25.715C-21.569,-24.586 -19.879,-23.827 -18.125,-22.786C-19.68,-21.973 -21.179,-21.108 -22.747,-20.393C-24.67,-19.516 -26.066,-18.209 -26.03,-16.022C-25.992,-13.637 -25.282,-11.385 -23.027,-10.137C-22.021,-9.58 -21.248,-8.96 -20.58,-8.024C-19.237,-6.143 -17.326,-5.606 -15.179,-6.397C-12.856,-7.251 -10.592,-8.265 -8.095,-9.294C-8.061,-8.746 -7.877,-8.205 -8.024,-7.779C-9.504,-3.508 -11.11,0.721 -12.537,5.008C-13.75,8.653 -16.917,9.572 -19.998,10.462C-27.265,12.557 -34.673,14.059 -42.124,15.364C-47.835,16.365 -53.522,17.503 -59.222,18.566C-59.478,18.613 -59.758,18.527 -60.299,18.479C-60.446,17.152 -60.464,15.777 -60.766,14.468C-62.312,7.775 -62.834,0.99 -62.987,-5.863C-63.104,-11.12 -63.713,-16.368 -63.838,-21.626C-63.977,-27.536 -63.829,-33.453 -63.781,-39.367C-63.766,-41.209 -63.438,-41.707 -61.502,-42.326C-57.987,-43.452 -54.461,-44.557 -50.895,-45.504C-43.949,-47.35 -36.942,-48.975 -30.015,-50.887C-22.015,-53.095 -14.085,-55.557 -6.096,-57.806C-4.612,-58.224 -2.994,-58.294 -1.438,-58.287C0.278,-58.279 0.858,-57.623 0.99,-55.929C1.06,-55.008 1.055,-54.075 0.992,-53.154C0.687,-48.773 0.35,-44.395 0,-39.681" style="fill:white;"/>
            </g>
            <g transform="matrix(4.16667,0,0,4.16667,784.026,2766.93)">
                <path d="M0,-52.297C0.903,-52.376 1.624,-52.441 2.375,-52.507C2.5,-52.221 2.651,-51.987 2.704,-51.734C3.113,-49.736 3.543,-47.775 4.997,-46.186C6.305,-44.755 7.782,-43.651 9.772,-43.763C11.675,-43.869 12.435,-42.894 12.759,-41.249C13.473,-37.634 14.305,-34.038 14.886,-30.402C15.598,-25.952 16.312,-21.492 15.723,-16.934C15.562,-15.685 15.92,-14.369 16.033,-13.083C16.269,-10.416 15.108,-8.463 12.966,-6.975C8.853,-4.118 4.188,-2.613 -0.652,-1.76C-7.196,-0.607 -13.782,0.21 -20.474,0.045C-29.252,-0.171 -37.677,-1.861 -45.699,-5.456C-46.451,-5.794 -47.141,-6.264 -47.875,-6.643C-50.314,-7.909 -50.641,-9.923 -50.414,-12.487C-50.028,-16.843 -48.947,-21.001 -47.437,-25.408C-46.921,-25.559 -46.159,-25.858 -45.367,-26.002C-37.93,-27.339 -30.464,-28.526 -23.06,-30.016C-18.643,-30.906 -14.333,-32.318 -9.95,-33.389C-7.49,-33.99 -6.336,-35.704 -5.519,-37.871C-3.697,-42.692 -1.837,-47.5 0,-52.297" style="fill:white;"/>
            </g>
            <g transform="matrix(4.16667,0,0,4.16667,778.155,2447.8)">
                <path d="M0,19.717C-2.066,21.043 -3.83,22.328 -5.739,23.34C-6.841,23.924 -8.168,24.284 -9.416,24.359C-11.874,24.505 -12.744,23.341 -12.178,20.934C-12.058,20.42 -11.79,19.865 -11.423,19.496C-9.143,17.2 -6.665,15.118 -3.63,13.915C-1.065,12.899 1.54,11.903 4.41,12.099C4.765,12.123 5.148,11.722 5.592,11.477C1.338,8.439 -10.349,13.929 -14.678,20.813C-17.798,19.392 -18.219,15.555 -15.268,13.645C-13.118,12.254 -10.708,11.205 -8.31,10.269C-5.824,9.3 -3.242,8.537 -0.649,7.903C1.129,7.468 3,7.42 4.825,7.172C5.671,7.058 6.508,6.881 7.35,6.732C7.373,6.492 7.395,6.254 7.417,6.015C6.808,5.794 6.167,5.321 5.595,5.393C2.403,5.8 -0.774,6.332 -3.952,6.838C-7.031,7.33 -10.131,8.016 -13.11,6.506C-13.892,6.108 -14.609,5.449 -15.157,4.753C-15.866,3.853 -15.713,2.896 -14.928,1.994C-13.653,0.534 -12.118,-0.472 -10.169,-0.479C-8.344,-0.487 -6.518,-0.244 -4.696,-0.088C-3.963,-0.025 -3.201,0.295 -2.516,0.165C0.93,-0.489 4.072,0.441 7.135,1.846C8.036,2.259 8.717,2.332 9.079,1.036C8.405,0.003 7.336,-0.36 6.114,-0.553C2.936,-1.056 -0.22,-1.754 -3.415,-2.1C-5.601,-2.338 -6.483,-3.547 -6.82,-5.448C-6.947,-6.169 -6.984,-6.922 -6.953,-7.655C-6.837,-10.454 -5.348,-11.525 -2.772,-10.505C-1.244,-9.9 0.123,-8.901 1.626,-8.216C4.642,-6.836 7.673,-5.482 10.749,-4.242C14.267,-2.821 16.125,-0.387 16.437,3.475C16.757,7.419 17.39,11.342 18.036,15.248C18.305,16.873 18.945,18.438 19.452,20.018C19.82,21.164 20.868,21.653 21.847,21.569C25.071,21.296 28.22,20.842 30.613,18.174C34.561,13.773 34.32,9.294 31.842,4.062C31.329,2.979 30.583,1.999 30.146,0.891C29.959,0.419 30.078,-0.541 30.418,-0.792C32.02,-1.975 33.888,-2.81 35.843,-2.01C36.737,-1.644 37.646,-0.606 37.959,0.326C38.688,2.491 39.247,4.753 39.537,7.018C40.098,11.413 39.974,15.75 38.738,20.116C37.857,23.229 35.967,25.352 33.547,27.018C30.892,28.846 27.889,30.056 24.545,30.163C23.448,30.198 22.357,30.49 21.267,30.68C20.997,30.728 20.644,30.994 20.488,30.9C18.226,29.519 16.058,30.934 13.855,31.089C11.656,31.242 9.649,30.959 7.979,29.286C6.437,27.738 5.861,25.786 6.848,23.796C7.28,22.927 7.535,22.138 6.755,21.616C6.3,21.311 5.438,21.523 4.783,21.634C4.252,21.725 3.767,22.134 3.239,22.187C2.21,22.292 1.206,22.274 0.826,20.927C0.678,20.397 0.177,19.966 0,19.717" style="fill:white;"/>
            </g>
            <g transform="matrix(4.16667,0,0,4.16667,388.081,2459.6)">
                <path d="M0,-14.025C3.32,-16.943 3.897,-19.347 2.212,-23.091C1.675,-24.286 1.661,-25.431 1.553,-26.695C1.316,-29.468 1.808,-32.1 2.052,-34.803C2.38,-38.42 -1.001,-42.144 -4.702,-42.794C-5.228,-42.884 -5.76,-42.929 -6.423,-43.013C-6.849,-46.795 -7.864,-50.411 -7.474,-54.312C-5.084,-54.302 -4.104,-52.696 -3.27,-51.294C-2.833,-50.563 -2.406,-50.072 -1.794,-49.499C0.959,-46.913 3.515,-44.156 5.548,-40.906C7.889,-37.165 10.564,-33.635 12.98,-29.939C14.286,-27.941 15.458,-25.836 16.5,-23.688C17.432,-21.765 17.228,-21.516 14.941,-20.543C15.063,-19.956 15.209,-19.343 15.318,-18.723C15.589,-17.182 15.929,-15.648 16.088,-14.094C16.585,-9.232 16.98,-4.36 17.473,0.503C18.113,6.83 18.767,13.159 19.495,19.478C20.254,26.064 20.541,32.713 22.076,39.2C22.135,39.454 22.083,39.734 22.083,40.287C21.593,39.93 21.223,39.739 20.956,39.453C17.683,35.936 14.509,32.322 11.129,28.911C9.02,26.781 7.901,24.239 7.246,21.447C5.351,13.378 3.505,5.296 1.718,-2.797C1.449,-4.019 1.586,-5.331 1.549,-6.601C1.542,-6.873 1.722,-7.262 1.597,-7.405C-0.107,-9.352 1.031,-11.906 0,-14.025" style="fill:white;"/>
            </g>
            <g transform="matrix(4.16667,0,0,4.16667,633.41,2276.29)">
                <path d="M0,18.951C-0.557,19.137 -1.114,19.322 -1.671,19.507C-2.925,19.423 -4.062,19.68 -4.952,20.646C-5.524,20.821 -6.096,20.996 -6.667,21.171C-8.363,21.524 -10.081,21.794 -11.751,22.243C-16.885,23.619 -22.001,25.066 -27.124,26.485C-27.642,26.629 -28.161,26.766 -29.149,27.034C-27.402,28.292 -26.111,27.908 -24.82,27.487C-19.843,25.871 -14.857,24.278 -9.896,22.617C-8.79,22.246 -7.767,21.628 -6.706,21.124C-6.134,20.948 -5.562,20.772 -4.991,20.597C-3.897,20.218 -2.806,19.837 -1.713,19.457C-1.154,19.273 -0.596,19.089 -0.038,18.906C0.349,18.869 0.735,18.835 1.121,18.8C1.079,18.672 1.036,18.544 0.995,18.415C0.663,18.594 0.331,18.773 0,18.951M29.362,15.339C12.735,21.49 -4.455,24.697 -21.216,29.72C-21.821,29.412 -22.523,28.786 -23.231,28.779C-23.848,28.771 -24.625,29.336 -25.066,29.868C-26.452,31.54 -28.499,31.589 -30.164,31.395C-32.67,31.104 -35.237,30.526 -37.342,28.748C-38.837,27.486 -39.459,26.048 -39.343,24.152C-39.27,22.967 -39.304,21.769 -39.373,20.581C-39.397,20.148 -39.577,19.67 -39.827,19.31C-44.712,12.279 -49.577,5.232 -54.55,-1.736C-55.876,-3.594 -57.553,-5.204 -59.305,-7.195C-56.929,-8.664 -54.66,-10.22 -52.249,-11.511C-50.145,-12.638 -49.33,-12.333 -47.659,-10.509C-44.254,-6.792 -41.711,-2.493 -39.585,2.022C-36.374,8.842 -34.458,16.042 -33.854,23.582C-33.771,24.615 -33.258,25.614 -32.924,26.693C-23.697,21.848 -15.191,16.353 -5.366,13.505C-0.593,12.122 3.968,10.023 8.673,8.384C11.455,7.414 14.323,6.683 17.166,5.892C19.839,5.149 22.169,5.496 24.238,7.662C26.374,9.897 28.224,12.243 29.362,15.339" style="fill:white;"/>
            </g>
            <g transform="matrix(4.16667,0,0,4.16667,761.164,2480.52)">
                <path d="M0,-36.741C4.013,-38.721 8.072,-39.384 12.375,-37.693C15.399,-36.504 18.226,-35.042 20.717,-32.887C24.062,-29.998 27.601,-27.354 30.143,-23.625C31.104,-22.216 32.531,-21.123 33.885,-19.746C32.827,-18.956 31.945,-18.329 31.101,-17.652C30.672,-17.307 30.17,-16.937 29.966,-16.465C29.748,-15.956 29.843,-15.314 29.801,-14.731C30.359,-14.868 31.016,-14.863 31.458,-15.167C33.036,-16.262 34.445,-17.626 36.092,-18.587C42.319,-22.216 46.953,-18.596 47.068,-12.022C47.116,-9.357 46.562,-6.812 45.309,-3.787C44.84,-5.555 44.66,-6.726 44.212,-7.783C43.788,-8.781 43.223,-9.796 42.472,-10.559C40.75,-12.304 38.748,-13.288 36.285,-11.918C35.566,-11.518 34.785,-11.215 34.11,-10.756C30.999,-8.634 30.884,-7.814 33.162,-4.897C33.444,-4.535 33.74,-4.158 33.909,-3.739C34.283,-2.809 34.58,-1.848 34.928,-0.847C31.978,2.643 27.865,1.859 24.042,2.49C23.781,1.923 23.452,1.457 23.355,0.949C22.782,-2.124 22.245,-5.207 21.741,-8.292C21.672,-8.717 21.87,-9.181 21.929,-9.631C22.179,-11.553 21.289,-12.771 19.341,-12.513C17.225,-12.234 15.827,-13.519 14.327,-14.402C13.616,-14.82 13.234,-16.315 13.235,-17.323C13.239,-20.038 13.574,-22.752 13.689,-25.47C13.79,-27.859 13.868,-30.257 13.773,-32.644C13.688,-34.785 12.657,-35.735 10.492,-36.052C8.821,-36.297 7.203,-36.269 5.629,-35.461C4.821,-35.045 3.891,-34.823 2.992,-34.642C1.195,-34.281 0.983,-34.452 0,-36.741" style="fill:white;"/>
            </g>
            <g transform="matrix(4.16667,0,0,4.16667,470.594,2678.49)">
                <path d="M0,-44.229C4.949,-41.831 9.814,-42.113 14.771,-43.85C15.641,-41.426 15.612,-39.133 15.771,-36.87C16.325,-29.048 16.837,-21.222 17.458,-13.404C17.697,-10.38 18.323,-7.386 18.509,-4.363C18.669,-1.788 18.027,-1.113 15.481,-0.612C12.374,0 9.582,-0.56 7.576,-3.272C6.193,-5.145 5.132,-7.18 4.703,-9.5C3.882,-13.943 3.021,-18.378 2.252,-22.83C1.878,-24.999 1.622,-27.194 1.401,-29.386C0.914,-34.232 0.482,-39.082 0,-44.229" style="fill:white;"/>
            </g>
            <g transform="matrix(4.16667,0,0,4.16667,463.622,2468.65)">
                <path d="M0,-17.658C4.59,-12.664 10.191,-11.667 16.8,-13.85C16.8,-9.986 16.854,-6.309 16.739,-2.637C16.723,-2.114 15.984,-1.368 15.416,-1.146C12.497,-0.003 9.487,0 6.493,-0.859C5.435,-1.162 4.392,-1.571 3.41,-2.066C1.903,-2.824 0.5,-3.769 0.312,-5.658C0.04,-8.407 -0.231,-11.16 -0.36,-13.918C-0.419,-15.152 -0.132,-16.404 0,-17.658" style="fill:white;"/>
            </g>
            <g transform="matrix(4.16667,0,0,4.16667,330.218,2326.73)">
                <path d="M0,-13.054C1.592,-13.878 2.754,-15.316 4.813,-14.555C5.045,-13.752 5.34,-12.892 5.538,-12.01C6.013,-9.905 6.316,-9.589 8.37,-9.271C12.32,-8.66 14.777,-5.017 13.799,-1.219C13.223,1.021 10.958,2.262 8.865,1.207C7.512,0.525 6.064,-0.442 5.277,-1.676C3.45,-4.54 1.954,-7.624 0.424,-10.669C0.077,-11.357 0.131,-12.247 0,-13.054" style="fill:white;"/>
            </g>
            <g transform="matrix(4.16667,0,0,4.16667,389.165,2393.32)">
                <path d="M0,-7.651C0.361,-6.343 0.712,-5.398 0.876,-4.423C1.419,-1.234 0.077,0.412 -3.267,0.825C-7.215,1.314 -10.458,-0.54 -12.937,-3.526C-14.515,-5.424 -14.375,-6.573 -12.727,-8.965C-8.845,-7.147 -4.758,-5.858 0,-7.651" style="fill:white;"/>
            </g>
            <g transform="matrix(4.16667,0,0,4.16667,386.83,2330.87)">
                <path d="M0,2.01C0.585,3.673 0.285,4.685 -1.154,5.635C-3.121,6.933 -5.064,7.245 -7.15,6.26C-9.057,5.359 -10.988,4.455 -12.738,3.294C-15.407,1.523 -15.979,-1.353 -14.345,-3.632C-13.196,-5.235 -12.065,-5.131 -10.951,-3.502C-9.922,-1.996 -8.884,-0.415 -7.532,0.767C-5.398,2.633 -2.783,3.018 0,2.01" style="fill:white;"/>
            </g>
            <g transform="matrix(4.16667,0,0,4.16667,533.053,2490.62)">
                <path d="M0,-4.845L0,-0.84C-3.954,0.127 -7.765,1.736 -12.006,-0.02C-13.987,-0.84 -14.268,-2.822 -15.591,-4.047C-15.971,-4.398 -15.753,-5.394 -15.849,-6.581C-10.677,-3.461 -5.583,-2.625 0,-4.845" style="fill:white;"/>
            </g>
            <g transform="matrix(4.16667,0,0,4.16667,380.661,2435.23)">
                <path d="M0,-7.352C0.253,-5.249 0.506,-3.373 0.695,-1.488C0.8,-0.444 0.222,-0.022 -0.797,-0.015C-2.989,0 -5.426,-1.865 -5.846,-3.931C-6.274,-6.042 -5.138,-7.305 -2.953,-7.213C-2.153,-7.18 -1.347,-7.283 0,-7.352" style="fill:white;"/>
            </g>
            <g transform="matrix(4.16667,0,0,4.16667,669.685,2154.55)">
                <path d="M0,-0.656C0.113,-0.415 0.236,-0.178 0.338,0.068C0.829,1.253 0.182,2.479 -0.419,2.648C-0.785,2.751 -1.189,2.575 -1.584,2.27C-2.276,1.734 -2.62,0.926 -2.906,0.066C-2.962,-0.101 -2.99,-0.275 -3.041,-0.445C-3.375,-1.571 -3.121,-2.368 -2.627,-3.007C-2.317,-3.407 -1.837,-3.334 -1.368,-2.877C-0.897,-2.418 -0.556,-1.825 -0.246,-1.205C-0.156,-1.027 -0.087,-0.837 -0.008,-0.652C-0.005,-0.653 -0.002,-0.655 0,-0.656" style="fill:rgb(35,31,32);"/>
            </g>
            <g transform="matrix(4.16667,0,0,4.16667,606.994,2161.66)">
                <path d="M0,-0.656C0.113,-0.415 0.236,-0.178 0.337,0.067C0.828,1.252 0.181,2.479 -0.42,2.648C-0.786,2.751 -1.19,2.575 -1.585,2.269C-2.277,1.734 -2.621,0.925 -2.907,0.066C-2.962,-0.102 -2.991,-0.276 -3.041,-0.445C-3.375,-1.571 -3.122,-2.368 -2.627,-3.007C-2.317,-3.407 -1.838,-3.334 -1.369,-2.877C-0.897,-2.419 -0.557,-1.825 -0.246,-1.206C-0.156,-1.028 -0.087,-0.837 -0.009,-0.652C-0.006,-0.654 -0.003,-0.655 0,-0.656" style="fill:rgb(35,31,32);"/>
            </g>
            <g transform="matrix(4.16667,0,0,4.16667,769.907,2256.99)">
                <path d="M0,-2.475C-2.456,-0.24 -3.766,-0.335 -7.974,-3.085C-8.902,-1.977 -9.84,-0.711 -10.929,0.408C-14.695,4.282 -19.715,5.223 -24.725,6.094C-25.726,6.268 -26.698,5.865 -27.246,4.474C-26.542,4.329 -25.979,4.123 -25.412,4.109C-19.419,3.963 -14.272,1.974 -10.19,-2.574C-9.1,-3.79 -8.547,-4.929 -9.092,-6.558C-9.251,-7.033 -9.117,-7.936 -8.78,-8.181C-8.008,-8.743 -7.41,-8.086 -7.017,-7.43C-6.687,-6.879 -6.474,-6.26 -6.204,-5.674C-4.891,-2.826 -4.437,-2.579 -1.064,-2.789C-0.82,-2.805 -0.564,-2.649 0,-2.475" style="fill:rgb(35,31,32);"/>
            </g>
            <g transform="matrix(4.16667,0,0,4.16667,631.955,2220.63)">
                <path d="M0,-6.035C-1.956,-7.086 -3.82,-7.08 -5.253,-5.07C-6.049,-3.953 -5.999,-1.493 -5.104,-0.33C-3.272,2.046 -1.37,0.351 0.542,-0.503C0.227,1.486 -0.9,2.582 -2.596,2.737C-4.302,2.892 -6.65,1.499 -7.276,-0.114C-8.944,-4.4 -7.849,-6.915 -3.451,-8.581C-2.538,-8.927 -1.248,-8.681 -0.265,-8.331C0.721,-7.982 1.052,-7.087 0,-6.035" style="fill:rgb(35,31,32);"/>
            </g>
            <g transform="matrix(4.16667,0,0,4.16667,924.572,2229.99)">
                <path d="M0,5.057C-1.216,2.211 -3.943,1.421 -6.613,2.903C-7.377,3.328 -8.279,4.774 -9.048,3.234C-9.67,1.989 -8.137,1.617 -7.374,1.143C-5.532,0 -1.202,0.456 0.436,1.829C1.504,2.724 1.428,3.631 0,5.057" style="fill:rgb(35,31,32);"/>
            </g>
            <g transform="matrix(4.16667,0,0,4.16667,568.21,2064.73)">
                <path d="M0,-1.25C-1.48,-0.916 -3.011,-0.721 -4.424,-0.205C-5.734,0.274 -6.917,1.097 -8.474,1.941C-8.608,-0.057 -7.45,-0.699 -6.343,-1.196C-4.309,-2.108 -2.231,-3.191 -0.001,-1.918C-0.001,-1.695 0,-1.472 0,-1.25" style="fill:rgb(35,31,32);"/>
            </g>
            <g transform="matrix(4.16667,0,0,4.16667,737.389,2057.17)">
                <path d="M0,4.943C-1.003,4.226 -1.956,3.417 -3.024,2.816C-4.114,2.204 -5.317,1.797 -6.55,1.265C-6.239,0 -5.315,0.068 -4.412,0.188C-2.693,0.417 -0.135,2.686 0.417,4.423C0.278,4.597 0.139,4.77 0,4.943" style="fill:rgb(35,31,32);"/>
            </g>
            <g transform="matrix(4.16667,0,0,4.16667,605.468,2394.17)">
                <path d="M0,-7.168C-1.061,-6.664 -2.083,-6.046 -3.189,-5.675C-8.151,-4.014 -13.137,-2.42 -18.114,-0.805C-19.405,-0.384 -20.696,0 -22.443,-1.258C-21.455,-1.525 -20.936,-1.663 -20.417,-1.807C-15.295,-3.226 -10.179,-4.672 -5.045,-6.049C-3.375,-6.498 -1.657,-6.768 0.039,-7.121L0,-7.168Z" style="fill:rgb(35,31,32);"/>
            </g>
            <g transform="matrix(1.43478,3.91184,3.91184,-1.43478,614.812,2354.3)">
                <path d="M1.637,-1.121C1.036,0.047 1.187,1.203 1.697,2.352L1.637,2.329C1.616,1.172 1.598,0.017 1.578,-1.141L1.637,-1.121Z" style="fill:rgb(35,31,32);"/>
            </g>
            <g transform="matrix(1.34931,3.94214,3.94214,-1.34931,606.858,2360.39)">
                <path d="M0.838,-0.599L0.838,1.174L0.838,-0.599Z" style="fill:rgb(35,31,32);"/>
            </g>
            <g transform="matrix(1.43833,3.91054,3.91054,-1.43833,627.493,2353.56)">
                <path d="M0.815,-0.568L0.815,1.173L0.815,-0.568Z" style="fill:rgb(35,31,32);"/>
            </g>
            <g transform="matrix(0.556231,4.12937,4.12937,-0.556231,634.258,2352.05)">
                <path d="M0.735,-0.304C0.603,0.047 0.47,0.4 0.336,0.753C0.47,0.777 0.602,0.802 0.735,0.827C0.718,0.439 0.7,0.052 0.685,-0.336L0.735,-0.304Z" style="fill:rgb(35,31,32);"/>
            </g>
        </g>
    </g>
</svg>
