<?xml version="1.0" encoding="UTF-8" standalone="no"?>
<!DOCTYPE svg PUBLIC "-//W3C//DTD SVG 1.1//EN" "http://www.w3.org/Graphics/SVG/1.1/DTD/svg11.dtd">
<svg width="100%" height="100%" viewBox="0 0 643 194" version="1.1" xmlns="http://www.w3.org/2000/svg" xmlns:xlink="http://www.w3.org/1999/xlink" xml:space="preserve" xmlns:serif="http://www.serif.com/" style="fill-rule:evenodd;clip-rule:evenodd;stroke-linejoin:round;stroke-miterlimit:2;">
    <g transform="matrix(1,0,0,1,-583,-949)">
        <g transform="matrix(1,0,0,1,0,-118.421)">
            <g transform="matrix(4.16667,0,0,4.16667,634.207,1083.73)">
                <path d="M0,40.438C-0.481,40.584 -0.727,40.693 -0.982,40.73C-1.731,40.837 -2.486,40.907 -3.236,41.009C-3.614,41.06 -4.175,41.016 -4.091,41.58C-4.023,42.035 -3.534,41.903 -3.182,41.854C-1.202,41.578 0.787,41.456 2.787,41.504C3.224,41.515 3.676,41.52 4.098,41.425C7.7,40.616 11.37,40.49 15.033,40.27C18.377,40.068 21.718,39.815 25.058,39.557C25.944,39.488 26.588,39.137 26.875,38.135C27.122,37.272 27.672,36.496 28.091,35.682C28.188,35.493 28.298,35.31 28.466,35.007C28.13,35.007 27.936,34.993 27.744,35.01C25.56,35.2 23.376,35.396 21.192,35.589C20.476,35.652 19.752,35.661 19.046,35.778C15.587,36.353 12.127,36.921 8.68,37.559C5.222,38.2 1.744,38.596 -1.771,38.695C-2.088,38.704 -2.41,38.737 -2.719,38.804C-3.189,38.905 -3.424,39.215 -3.499,39.759C-2.811,39.638 -2.227,39.527 -1.639,39.436C-1.009,39.337 -0.375,39.26 0.256,39.171C0.989,39.068 1.169,39.082 2.164,39.402C0.98,39.563 0.041,39.667 -0.891,39.823C-1.821,39.979 -2.785,40.013 -3.656,40.446C-2.514,40.536 -1.398,40.049 0,40.438M-5.095,41.784C-4.954,41.531 -4.899,41.467 -4.881,41.394C-4.583,40.195 -4.348,38.976 -3.35,38.091C-3.208,37.965 -3.154,37.644 -3.186,37.432C-3.35,36.332 -3.517,35.23 -3.753,34.143C-4.169,32.238 -4.697,30.356 -5.07,28.443C-5.75,24.965 -6.364,21.475 -6.979,17.985C-7.491,15.082 -8.022,12.181 -7.953,9.21C-7.937,8.54 -8.092,7.867 -8.146,7.193C-8.25,5.885 -8.343,4.576 -8.428,3.266C-8.449,2.949 -8.407,2.628 -8.417,2.309C-8.436,1.718 -8.694,1.518 -9.252,1.717C-10.013,1.988 -10.437,2.565 -10.746,3.314C-11.644,5.491 -11.388,7.785 -11.312,10.008C-11.226,12.502 -10.724,14.984 -10.379,17.468C-9.986,20.307 -9.632,23.153 -9.141,25.975C-8.69,28.561 -8.142,31.133 -7.523,33.685C-6.934,36.118 -6.203,38.518 -5.521,40.928C-5.45,41.18 -5.286,41.406 -5.095,41.784M-7.737,3.596C-7.762,3.599 -7.786,3.601 -7.811,3.604C-7.715,4.474 -7.621,5.344 -7.525,6.214C-7.408,7.283 -7.268,8.351 -7.177,9.423C-7.052,10.892 -7.039,12.375 -6.841,13.834C-6.562,15.886 -6.18,17.926 -5.802,19.963C-5.097,23.765 -4.385,27.564 -3.632,31.356C-3.338,32.84 -2.908,34.295 -2.577,35.772C-2.455,36.314 -2.446,36.88 -2.371,37.434C-2.314,37.851 -2.064,38.069 -1.637,38.063C-1.438,38.059 -1.239,38.044 -1.041,38.025C1.817,37.758 4.673,37.496 7.499,36.944C10.588,36.341 13.697,35.834 16.793,35.266C18.677,34.919 20.558,34.61 22.481,34.525C24.232,34.448 25.978,34.228 27.722,34.037C28.393,33.964 29.055,33.802 29.719,33.668C30.051,33.602 30.169,33.385 30.104,33.05C29.764,31.291 29.478,29.52 29.079,27.774C28.626,25.794 27.945,23.859 27.59,21.865C26.808,17.473 26.168,13.055 25.469,8.648C25.194,6.917 24.955,5.177 24.625,3.456C24.354,2.048 23.984,0.659 23.637,-0.733C23.506,-1.253 23.191,-1.521 22.59,-1.466C21.08,-1.326 19.564,-1.242 18.051,-1.125C15.346,-0.918 12.643,-0.691 9.937,-0.499C8.105,-0.369 6.27,-0.297 4.438,-0.175C3.722,-0.127 3.008,-0.025 2.297,0.077C-0.386,0.465 -3.068,0.859 -5.75,1.26C-6.375,1.354 -6.993,1.487 -7.615,1.603C-7.656,2.227 -7.697,2.852 -7.737,3.476C-7.74,3.516 -7.737,3.556 -7.737,3.596M-12.145,7.719C-12.075,6.1 -11.882,4.529 -11.314,3.007C-10.846,1.751 -9.958,1.083 -8.642,0.967C-7.016,0.824 -5.39,0.657 -3.774,0.428C-1.129,0.053 1.501,-0.422 4.148,-0.772C5.728,-0.981 7.329,-1.037 8.92,-1.154C12.063,-1.385 15.206,-1.611 18.349,-1.836C19.782,-1.939 21.218,-2.013 22.648,-2.147C23.414,-2.218 23.897,-1.91 24.102,-1.214C24.541,0.276 25.042,1.758 25.328,3.279C25.813,5.862 26.138,8.475 26.561,11.07C26.759,12.289 27.047,13.493 27.259,14.71C27.746,17.497 28.142,20.301 28.71,23.071C29.102,24.98 29.777,26.83 30.217,28.731C30.584,30.319 30.81,31.942 31.065,33.555C31.167,34.194 31.046,34.274 30.365,34.557C30.048,34.689 29.733,34.891 29.495,35.136C28.5,36.154 27.793,37.362 27.436,38.735C27.235,39.504 26.771,39.876 26.058,40.038C25.708,40.117 25.358,40.217 25.003,40.241C20.345,40.555 15.683,40.811 11.03,41.181C8.769,41.361 6.524,41.75 4.272,42.047C3.957,42.088 3.644,42.167 3.327,42.182C0.977,42.292 -1.375,42.39 -3.726,42.492C-3.925,42.501 -4.125,42.5 -4.323,42.522C-5.5,42.656 -5.929,42.423 -6.272,41.312C-6.742,39.79 -7.165,38.253 -7.596,36.72C-7.887,35.685 -8.197,34.652 -8.427,33.603C-8.932,31.307 -9.442,29.011 -9.854,26.699C-10.28,24.307 -10.637,21.901 -10.945,19.491C-11.273,16.921 -11.517,14.34 -11.782,11.763C-11.92,10.417 -12.024,9.067 -12.145,7.719" style="fill:rgb(35,31,32);fill-rule:nonzero;"/>
            </g>
            <g transform="matrix(4.16667,0,0,4.16667,601.969,1221.03)">
                <path d="M0,-29.357C0,-29.397 -0.002,-29.437 0,-29.477C0.041,-30.101 0.082,-30.726 0.123,-31.35C0.744,-31.465 1.363,-31.599 1.987,-31.692C4.669,-32.094 7.352,-32.488 10.035,-32.876C10.746,-32.978 11.459,-33.08 12.175,-33.128C14.007,-33.25 15.843,-33.321 17.674,-33.451C20.38,-33.644 23.083,-33.871 25.789,-34.078C27.301,-34.194 28.817,-34.278 30.328,-34.419C30.929,-34.474 31.244,-34.206 31.374,-33.686C31.722,-32.294 32.092,-30.905 32.362,-29.497C32.692,-27.775 32.932,-26.036 33.207,-24.304C33.906,-19.898 34.545,-15.48 35.327,-11.088C35.683,-9.093 36.363,-7.159 36.816,-5.179C37.215,-3.433 37.501,-1.662 37.841,0.097C37.906,0.433 37.789,0.649 37.456,0.716C36.792,0.85 36.13,1.011 35.459,1.084C33.715,1.275 31.969,1.495 30.218,1.572C28.295,1.657 26.415,1.967 24.531,2.313C21.434,2.882 18.326,3.389 15.236,3.992C12.411,4.543 9.555,4.805 6.697,5.073C6.498,5.091 6.299,5.106 6.1,5.11C5.673,5.117 5.423,4.898 5.367,4.481C5.292,3.928 5.282,3.361 5.161,2.819C4.829,1.343 4.399,-0.113 4.105,-1.596C3.352,-5.388 2.64,-9.188 1.936,-12.989C1.558,-15.027 1.175,-17.066 0.896,-19.119C0.698,-20.578 0.686,-22.061 0.56,-23.53C0.469,-24.602 0.329,-25.669 0.212,-26.739C0.116,-27.609 0.022,-28.479 -0.073,-29.349C-0.049,-29.352 -0.024,-29.354 0,-29.357" style="fill:rgb(12,147,68);fill-rule:nonzero;"/>
            </g>
            <g transform="matrix(4.16667,0,0,4.16667,612.98,1090.05)">
                <path d="M0,40.266C-0.191,39.888 -0.355,39.662 -0.426,39.411C-1.108,37 -1.839,34.6 -2.429,32.167C-3.047,29.616 -3.596,27.043 -4.046,24.457C-4.537,21.636 -4.891,18.789 -5.285,15.951C-5.629,13.467 -6.131,10.985 -6.217,8.49C-6.293,6.267 -6.549,3.974 -5.651,1.796C-5.342,1.047 -4.918,0.471 -4.158,0.199C-3.599,0 -3.341,0.201 -3.323,0.791C-3.313,1.11 -3.354,1.431 -3.333,1.748C-3.249,3.058 -3.155,4.368 -3.051,5.676C-2.998,6.349 -2.842,7.022 -2.858,7.692C-2.928,10.663 -2.396,13.564 -1.885,16.467C-1.27,19.957 -0.655,23.448 0.024,26.925C0.398,28.838 0.925,30.721 1.341,32.625C1.578,33.712 1.745,34.814 1.909,35.914C1.941,36.126 1.887,36.447 1.745,36.574C0.747,37.458 0.511,38.678 0.214,39.876C0.196,39.949 0.141,40.013 0,40.266" style="fill:rgb(237,28,36);fill-rule:nonzero;"/>
            </g>
            <g transform="matrix(4.16667,0,0,4.16667,634.207,1236.19)">
                <path d="M0,3.848C-1.398,3.459 -2.514,3.946 -3.656,3.856C-2.785,3.423 -1.821,3.389 -0.891,3.233C0.041,3.077 0.98,2.973 2.164,2.812C1.169,2.492 0.989,2.478 0.256,2.581C-0.375,2.67 -1.009,2.747 -1.639,2.846C-2.227,2.937 -2.811,3.048 -3.499,3.169C-3.424,2.625 -3.189,2.315 -2.719,2.214C-2.41,2.147 -2.088,2.114 -1.771,2.105C1.744,2.006 5.222,1.61 8.68,0.969C12.127,0.331 15.587,-0.237 19.046,-0.812C19.752,-0.929 20.476,-0.938 21.192,-1.001C23.376,-1.194 25.56,-1.39 27.744,-1.58C27.936,-1.597 28.13,-1.583 28.466,-1.583C28.298,-1.28 28.188,-1.097 28.091,-0.908C27.672,-0.094 27.122,0.682 26.875,1.545C26.588,2.547 25.944,2.898 25.058,2.967C21.718,3.225 18.377,3.478 15.033,3.68C11.37,3.9 7.7,4.026 4.098,4.835C3.676,4.93 3.224,4.925 2.787,4.914C0.787,4.866 -1.202,4.988 -3.182,5.264C-3.534,5.313 -4.023,5.445 -4.091,4.99C-4.175,4.426 -3.614,4.47 -3.236,4.419C-2.486,4.317 -1.731,4.247 -0.982,4.14C-0.727,4.103 -0.481,3.994 0,3.848" style="fill:rgb(255,252,217);fill-rule:nonzero;"/>
            </g>
            <g transform="matrix(4.16667,0,0,4.16667,0,0)">
                <g opacity="0.2">
                    <g transform="matrix(1,0,0,1,175.136,301.952)">
                        <path d="M0,-43.713C-4.977,-42.316 -9.953,-40.919 -14.93,-39.521C-16.667,-39.033 -18.452,-38.522 -19.877,-37.416C-21.177,-36.407 -22.079,-34.978 -22.864,-33.532C-26.419,-26.995 -28.135,-19.47 -27.767,-12.039C-27.635,-9.366 -26.987,-6.32 -24.641,-5.035C-23.098,-4.19 -21.166,-4.334 -19.608,-3.516C-20.934,-3.247 -22.26,-2.977 -23.586,-2.707C-23.903,-2.643 -24.235,-2.571 -24.482,-2.361C-24.721,-2.158 -24.846,-1.856 -25.01,-1.588C-25.702,-0.468 -27.278,0 -28.47,-0.559C-30.628,-8.692 -32.313,-16.65 -33.712,-24.947C-34.277,-28.296 -34.843,-31.673 -34.718,-35.067C-34.67,-36.369 -34.507,-37.708 -33.87,-38.844C-33.233,-39.981 -32.014,-40.618 -30.726,-40.813C-18.778,-42.628 -10.177,-42.933 0,-43.713" style="fill:rgb(59,35,20);fill-rule:nonzero;"/>
                    </g>
                </g>
            </g>
            <g transform="matrix(4.16667,0,0,4.16667,0,0)">
                <clipPath id="_clip1">
                    <path d="M174.801,258.63C173.29,258.769 171.773,258.855 170.26,258.971C167.557,259.178 164.852,259.405 162.147,259.596C160.315,259.728 158.479,259.799 156.648,259.92C155.932,259.969 155.218,260.071 154.507,260.172C151.825,260.56 149.142,260.954 146.46,261.356C145.834,261.449 145.217,261.583 144.595,261.699C144.554,262.322 144.512,262.948 144.472,263.572C144.471,263.61 144.472,263.652 144.472,263.69C144.447,263.695 144.424,263.697 144.4,263.699C144.494,264.57 144.589,265.44 144.685,266.308C144.802,267.379 144.942,268.447 145.033,269.519C145.158,270.988 145.171,272.471 145.369,273.93C145.648,275.983 146.03,278.022 146.408,280.06C147.112,283.859 147.824,287.659 148.577,291.453C148.872,292.936 149.302,294.39 149.632,295.867C149.755,296.41 149.764,296.976 149.839,297.53C149.896,297.945 150.145,298.165 150.573,298.159C150.772,298.155 150.97,298.14 151.169,298.122C154.028,297.853 156.883,297.592 159.709,297.04C162.798,296.437 165.907,295.929 169.004,295.361C170.887,295.016 172.768,294.705 174.691,294.621C176.442,294.542 178.187,294.324 179.932,294.133C180.602,294.06 181.265,293.898 181.929,293.765C182.262,293.696 182.379,293.48 182.314,293.146C181.974,291.387 181.688,289.616 181.289,287.87C180.835,285.89 180.156,283.956 179.8,281.959C179.016,277.568 178.378,273.15 177.679,268.745C177.404,267.011 177.164,265.273 176.835,263.552C176.565,262.143 176.195,260.755 175.846,259.362C175.728,258.886 175.453,258.622 174.949,258.622C174.901,258.622 174.853,258.624 174.801,258.63Z" clip-rule="nonzero"/>
                </clipPath>
                <g clip-path="url(#_clip1)">
                    <g transform="matrix(1,0,0,1,166.125,276.35)">
                        <path d="M0,16.084C-0.999,16.445 -1.902,16.778 -2.811,17.096C-3.424,17.311 -3.451,17.336 -3.403,17.936C-3.368,18.395 -3.163,18.963 -3.359,19.283C-3.558,19.605 -4.159,19.678 -4.582,19.862C-4.918,20.009 -5.264,20.139 -5.585,20.314C-5.92,20.496 -6.231,20.723 -6.553,20.93C-6.094,21.115 -5.699,21.157 -5.305,21.153C-3.974,21.14 -2.643,21.112 -1.312,21.086C-0.573,21.072 -0.552,21.069 -0.371,20.34C-0.023,18.941 0.045,17.518 0,16.084M8.967,-0.205C9.973,-1.281 11.031,-1.891 12.239,-2.227C12.551,-2.313 12.894,-2.296 13.223,-2.312C13.268,-2.314 13.356,-2.233 13.357,-2.188C13.358,-2.1 13.34,-1.958 13.284,-1.93C13.018,-1.797 12.729,-1.71 12.461,-1.58C11.745,-1.23 11.011,-0.907 10.333,-0.492C10.01,-0.294 9.737,0.053 9.549,0.393C9.207,1.01 9.416,1.49 10.095,1.7C12.255,2.37 14.032,1.552 15.15,-0.273C15.303,-0.521 15.421,-0.83 15.437,-1.117C15.477,-1.849 15.453,-2.584 15.448,-3.318C15.446,-3.637 15.284,-3.805 14.957,-3.819C13.331,-3.887 11.756,-3.738 10.34,-2.821C9.468,-2.256 8.968,-1.499 8.967,-0.205M8.259,-0.036C7.81,-1.574 7.13,-2.747 5.743,-3.373C4.862,-3.77 3.987,-4.193 3.075,-4.502C2.195,-4.801 1.265,-5.167 0.368,-5.138C-0.634,-5.106 -1.499,-5.583 -2.459,-5.569C-2.493,-5.569 -2.526,-5.568 -2.559,-5.571C-4.349,-5.722 -5.989,-5.146 -7.582,-4.455C-8.396,-4.102 -8.976,-3.427 -9.501,-2.503C-8.786,-2.603 -8.235,-2.702 -7.681,-2.75C-7.363,-2.779 -7.168,-2.909 -6.926,-3.128C-5.924,-4.033 -4.706,-4.362 -3.137,-4.344C-4.209,-3.686 -5.357,-3.796 -6.289,-2.967L-5.267,-2.967C-3.369,-2.964 -1.468,-3.013 0.428,-2.941C1.899,-2.885 3.326,-2.533 4.654,-1.853C5.802,-1.264 6.958,-0.691 8.259,-0.036M8.251,5.786C8.371,5.717 8.455,5.699 8.48,5.65C8.605,5.416 8.717,5.174 8.828,4.932C9.514,3.434 8.842,1.287 7.502,0.392C6.593,-0.216 5.575,-0.656 4.625,-1.207C3.321,-1.963 1.889,-2.221 0.42,-2.379C-1.917,-2.631 -4.25,-2.486 -6.582,-2.317C-7.444,-2.254 -8.322,-2.166 -9.15,-1.935C-10.856,-1.458 -11.623,-0.257 -11.794,1.337C-11.815,1.536 -11.699,1.751 -11.593,2.166C-11.423,1.801 -11.36,1.627 -11.266,1.474C-11.15,1.286 -11.046,1.039 -10.87,0.949C-9.916,0.464 -8.939,0.063 -7.833,0.035C-6.465,0.001 -5.092,-0.044 -3.734,-0.196C-2.228,-0.365 -0.738,-0.364 0.753,-0.133C2.014,0.063 3.245,0.348 4.292,1.15C4.527,1.331 4.808,1.454 5.07,1.6C6.309,2.289 7.4,3.134 8.159,4.366C8.369,4.706 8.496,5.004 8.294,5.385C8.242,5.484 8.266,5.623 8.251,5.786M-10.07,1.101C-10.354,1.358 -10.54,1.45 -10.598,1.593C-10.837,2.178 -11.083,2.768 -11.243,3.377C-11.609,4.762 -11.881,6.173 -12.273,7.549C-13.073,10.363 -13.361,13.245 -13.397,16.147C-13.414,17.433 -13.175,18.723 -13.049,20.01C-12.96,20.926 -12.728,21.06 -11.802,20.835C-11.499,20.762 -11.084,20.694 -10.857,20.839C-10.158,21.282 -9.475,21.229 -8.745,21.007C-8.496,20.932 -8.224,20.929 -7.963,20.891C-7.804,20.867 -7.597,20.896 -7.494,20.806C-6.566,20.006 -5.483,19.501 -4.343,19.104C-4.036,18.997 -3.932,18.792 -3.957,18.492C-3.973,18.293 -3.993,18.093 -4.006,17.894C-4.025,17.605 -4.183,17.488 -4.464,17.493C-4.898,17.5 -5.333,17.476 -5.766,17.499C-6.591,17.542 -7.334,17.287 -8.083,16.974C-8.99,16.594 -9.557,15.83 -10.195,15.165C-11.71,13.586 -12.524,11.773 -11.86,9.525C-11.596,8.631 -11.484,7.688 -11.168,6.816C-10.543,5.096 -9.832,3.406 -9.135,1.712C-8.994,1.371 -8.754,1.071 -8.528,0.7C-9.182,0.718 -9.483,1.023 -9.672,1.497C-9.968,2.24 -10.274,2.98 -10.591,3.715C-10.653,3.858 -10.784,3.972 -10.883,4.1C-10.933,4.072 -10.982,4.043 -11.031,4.015C-10.735,3.117 -10.438,2.218 -10.07,1.101M3.154,1.232C2.713,1.78 2.832,2.415 2.717,2.991C2.287,5.149 1.863,7.309 1.441,9.468C1.352,9.926 1.243,10.385 1.205,10.848C1.053,12.743 0.894,14.639 0.8,16.537C0.726,18.041 0.668,19.533 0.083,20.954C-0.121,21.448 0.056,21.628 0.606,21.515C1.38,21.357 2.144,21.151 2.943,20.959C2.44,19.27 2.249,17.577 2.448,15.697C2.793,16.134 2.754,16.507 2.794,16.863C2.921,17.99 3.057,19.115 3.194,20.241C3.24,20.62 3.342,20.984 3.769,21.092C4.277,21.221 4.794,21.363 5.342,21.152C4.813,19.454 4.372,17.776 4.964,16.02C5.316,17.693 5.272,19.438 5.924,21.019C6.634,20.97 7.305,20.922 8.014,20.873C7.946,20.674 7.934,20.567 7.88,20.49C7.232,19.561 6.836,18.567 7.02,17.403C7.056,17.177 7.008,16.937 7,16.703C6.939,15.135 6.886,13.567 6.819,12C6.729,9.913 7.031,7.867 7.539,5.857C7.736,5.076 7.594,4.481 7.06,3.942C6.935,3.816 6.743,3.757 6.582,3.667C6.522,3.812 6.433,3.952 6.409,4.102C6.129,5.813 5.863,7.527 5.581,9.238C5.545,9.46 5.44,9.672 5.368,9.888C5.253,9.651 5.23,9.449 5.256,9.253C5.49,7.501 5.733,5.751 5.971,4.001C6.002,3.77 6.034,3.536 6.039,3.304C6.046,2.948 5.821,2.723 5.508,2.673C5.174,2.619 5.19,2.954 5.14,3.16C4.883,4.196 4.645,5.236 4.389,6.272C4.351,6.426 4.249,6.564 4.176,6.709C4.078,5.599 4.256,4.552 4.508,3.517C4.827,2.21 4.832,2.209 3.675,1.491C3.511,1.39 3.329,1.318 3.154,1.232M-1.593,0.279C-3.4,0.39 -5.131,0.551 -6.864,0.577C-7.617,0.589 -8.057,0.856 -8.34,1.495C-8.76,2.44 -9.185,3.382 -9.59,4.334C-10.415,6.274 -11.003,8.288 -11.378,10.361C-11.542,11.272 -11.452,12.139 -10.966,12.967C-10.435,13.872 -9.729,14.614 -9.017,15.367C-8.242,16.186 -7.31,16.636 -6.211,16.755C-4.098,16.986 -2.216,16.322 -0.419,15.269C0.087,14.972 0.247,14.604 0.276,14.063C0.335,12.966 0.341,11.852 0.547,10.779C1.141,7.671 1.808,4.576 2.488,1.485C2.588,1.032 2.477,0.885 2.088,0.776C0.859,0.43 -0.397,0.302 -1.593,0.279M9.627,2.332C9.968,3.717 9.651,4.858 9.132,5.97C8.998,6.258 8.835,6.508 8.499,6.543C8.076,6.587 7.969,6.875 7.908,7.223C7.599,9.001 7.385,10.785 7.494,12.596C7.532,13.228 7.561,13.861 7.594,14.494C7.667,15.892 7.712,17.292 7.832,18.687C7.867,19.098 8.098,19.499 8.271,19.891C8.417,20.226 8.639,20.528 8.771,20.868C8.93,21.277 8.795,21.515 8.376,21.609C8.153,21.66 7.899,21.697 7.684,21.641C7.073,21.482 6.499,21.663 5.906,21.739C5.285,21.819 4.63,21.916 4.027,21.804C3.106,21.631 2.236,21.672 1.372,21.983C0.58,22.268 -0.162,22.335 -0.905,21.807C-1.117,21.656 -1.472,21.663 -1.76,21.67C-3.594,21.715 -5.424,21.785 -7.254,21.536C-7.763,21.466 -8.317,21.561 -8.824,21.686C-9.567,21.869 -10.272,21.936 -10.938,21.484C-11.188,21.315 -11.411,21.349 -11.688,21.437C-12.922,21.827 -13.491,21.436 -13.646,20.138C-13.831,18.587 -14.126,17.054 -14.047,15.474C-13.913,12.804 -13.671,10.159 -12.954,7.569C-12.527,6.028 -12.185,4.464 -11.797,2.912C-11.745,2.705 -11.728,2.565 -11.939,2.404C-12.1,2.281 -12.23,2.032 -12.25,1.826C-12.366,0.644 -12.08,-0.416 -11.241,-1.305C-10.879,-1.688 -10.54,-2.103 -10.25,-2.541C-9.302,-3.98 -8.124,-5.078 -6.398,-5.541C-5.169,-5.871 -3.962,-6.251 -2.668,-6.146C-2.635,-6.144 -2.601,-6.15 -2.568,-6.145C0.151,-5.697 2.935,-5.542 5.463,-4.252C7.007,-3.464 7.269,-3.301 8.429,-1.789C8.499,-1.846 8.587,-1.889 8.633,-1.959C9.692,-3.578 11.257,-4.264 13.121,-4.37C13.753,-4.406 14.39,-4.387 15.023,-4.364C15.75,-4.337 15.909,-4.204 16.04,-3.525C16.211,-2.636 16.276,-1.749 16.107,-0.843C15.773,0.952 13.332,3.15 10.717,2.583C10.396,2.513 10.078,2.436 9.627,2.332" style="fill:rgb(35,31,32);fill-rule:nonzero;"/>
                    </g>
                    <g transform="matrix(1,0,0,1,159.724,290.772)">
                        <path d="M0,-11.578C0.173,-11.344 0.266,-11.104 0.433,-11.03C0.547,-10.979 0.826,-11.113 0.921,-11.245C1.092,-11.481 1.21,-11.769 1.29,-12.053C1.326,-12.181 1.257,-12.435 1.162,-12.481C1.008,-12.556 0.71,-12.587 0.622,-12.495C0.384,-12.246 0.224,-11.923 0,-11.578M5.832,-10.942C5.784,-11.157 5.798,-11.367 5.701,-11.459C5.587,-11.566 5.341,-11.657 5.213,-11.604C4.843,-11.452 4.538,-10.705 4.634,-10.327C4.728,-9.961 5.167,-9.812 5.398,-10.104C5.596,-10.352 5.699,-10.676 5.832,-10.942M5.413,-3.698C5.085,-3.744 4.819,-3.757 4.567,-3.825C4.312,-3.893 4.076,-4.034 3.82,-4.105C3.714,-4.135 3.581,-4.069 3.459,-4.046C3.493,-3.929 3.495,-3.785 3.567,-3.701C3.672,-3.578 3.817,-3.479 3.963,-3.402C4.276,-3.236 4.252,-2.988 4.153,-2.719C3.957,-2.184 3.678,-2.011 2.975,-2.011C1.556,-2.012 0.194,-2.319 -1.111,-2.851C-1.7,-3.091 -2.114,-3.51 -2.072,-4.225C-2.061,-4.417 -2.094,-4.611 -2.118,-4.958C-2.697,-3.71 -2.519,-2.943 -1.53,-2.454C0.021,-1.687 1.689,-1.384 3.416,-1.439C3.949,-1.456 4.356,-1.719 4.604,-2.224C4.832,-2.69 5.102,-3.136 5.413,-3.698M3.778,-11.803C3.697,-11.873 3.615,-11.943 3.534,-12.013C3.025,-11.544 2.462,-11.121 2.018,-10.598C0.976,-9.371 0.154,-7.993 -0.526,-6.534C-0.741,-6.074 -0.89,-5.598 -0.608,-5.096C-0.183,-4.339 1.41,-3.716 2.223,-4.028C2.375,-4.086 2.561,-4.303 2.563,-4.449C2.568,-4.708 2.317,-4.712 2.109,-4.673C1.48,-4.556 0.916,-4.739 0.394,-5.062C-0.037,-5.33 -0.128,-5.612 0.034,-6.086C0.109,-6.306 0.227,-6.512 0.333,-6.72C1.104,-8.246 2.027,-9.673 3.141,-10.975C3.367,-11.239 3.566,-11.526 3.778,-11.803M4.808,-14.142C6.004,-14.12 7.26,-13.992 8.489,-13.646C8.877,-13.536 8.989,-13.39 8.889,-12.936C8.208,-9.846 7.542,-6.751 6.948,-3.643C6.742,-2.57 6.736,-1.455 6.677,-0.358C6.647,0.182 6.488,0.55 5.981,0.847C4.185,1.9 2.303,2.564 0.189,2.334C-0.909,2.214 -1.841,1.764 -2.616,0.945C-3.329,0.193 -4.034,-0.55 -4.565,-1.455C-5.051,-2.283 -5.142,-3.15 -4.977,-4.06C-4.602,-6.134 -4.014,-8.148 -3.189,-10.088C-2.784,-11.039 -2.359,-11.982 -1.939,-12.927C-1.656,-13.565 -1.216,-13.833 -0.463,-13.845C1.27,-13.871 3,-14.032 4.808,-14.142" style="fill:rgb(237,171,122);fill-rule:nonzero;"/>
                    </g>
                    <g transform="matrix(1,0,0,1,169.28,297.978)">
                        <path d="M0,-20.396C0.174,-20.31 0.357,-20.238 0.521,-20.137C1.678,-19.418 1.673,-19.417 1.354,-18.111C1.102,-17.076 0.924,-16.029 1.022,-14.918C1.094,-15.063 1.196,-15.202 1.234,-15.355C1.491,-16.392 1.729,-17.432 1.985,-18.468C2.036,-18.674 2.02,-19.009 2.354,-18.955C2.667,-18.905 2.892,-18.68 2.885,-18.324C2.88,-18.092 2.848,-17.858 2.817,-17.627C2.579,-15.876 2.336,-14.126 2.102,-12.375C2.076,-12.179 2.099,-11.977 2.213,-11.74C2.286,-11.956 2.391,-12.167 2.427,-12.39C2.708,-14.101 2.975,-15.814 3.254,-17.526C3.279,-17.676 3.368,-17.816 3.428,-17.961C3.589,-17.871 3.781,-17.812 3.906,-17.686C4.439,-17.147 4.582,-16.552 4.384,-15.771C3.876,-13.761 3.574,-11.715 3.665,-9.628C3.732,-8.061 3.785,-6.493 3.845,-4.925C3.854,-4.691 3.901,-4.451 3.866,-4.225C3.682,-3.061 4.078,-2.067 4.726,-1.138C4.78,-1.061 4.792,-0.954 4.859,-0.755C4.15,-0.706 3.48,-0.658 2.77,-0.609C2.118,-2.189 2.162,-3.935 1.81,-5.608C1.218,-3.852 1.659,-2.174 2.188,-0.476C1.64,-0.265 1.123,-0.407 0.614,-0.536C0.187,-0.644 0.085,-1.008 0.04,-1.387C-0.097,-2.513 -0.233,-3.638 -0.36,-4.765C-0.4,-5.121 -0.361,-5.494 -0.707,-5.931C-0.906,-4.051 -0.714,-2.358 -0.211,-0.669C-1.011,-0.477 -1.774,-0.271 -2.548,-0.113C-3.099,0 -3.275,-0.18 -3.072,-0.674C-2.486,-2.095 -2.428,-3.587 -2.354,-5.091C-2.261,-6.989 -2.101,-8.885 -1.949,-10.78C-1.912,-11.243 -1.803,-11.702 -1.713,-12.16C-1.291,-14.319 -0.868,-16.479 -0.437,-18.637C-0.322,-19.213 -0.441,-19.848 0,-20.396" style="fill:rgb(89,74,66);fill-rule:nonzero;"/>
                    </g>
                    <g transform="matrix(1,0,0,1,156.055,297.231)">
                        <path d="M0,-19.78C-0.369,-18.663 -0.665,-17.764 -0.961,-16.866C-0.912,-16.838 -0.863,-16.809 -0.813,-16.781C-0.714,-16.909 -0.583,-17.023 -0.521,-17.166C-0.204,-17.901 0.102,-18.641 0.398,-19.384C0.586,-19.858 0.888,-20.163 1.542,-20.181C1.315,-19.81 1.076,-19.51 0.935,-19.169C0.238,-17.475 -0.473,-15.785 -1.098,-14.065C-1.415,-13.193 -1.526,-12.25 -1.79,-11.356C-2.454,-9.108 -1.64,-7.295 -0.125,-5.716C0.513,-5.051 1.08,-4.287 1.987,-3.907C2.735,-3.594 3.479,-3.339 4.304,-3.383C4.737,-3.405 5.172,-3.382 5.606,-3.388C5.887,-3.393 6.044,-3.276 6.063,-2.988C6.077,-2.788 6.097,-2.588 6.113,-2.389C6.138,-2.089 6.034,-1.884 5.727,-1.778C4.586,-1.381 3.504,-0.875 2.576,-0.075C2.473,0.014 2.266,-0.014 2.106,0.01C1.846,0.048 1.574,0.051 1.325,0.126C0.595,0.347 -0.088,0.401 -0.787,-0.042C-1.015,-0.187 -1.429,-0.119 -1.732,-0.046C-2.658,0.179 -2.89,0.045 -2.979,-0.871C-3.105,-2.158 -3.344,-3.448 -3.328,-4.734C-3.291,-7.636 -3.003,-10.518 -2.203,-13.332C-1.812,-14.708 -1.539,-16.119 -1.173,-17.504C-1.013,-18.113 -0.768,-18.703 -0.528,-19.288C-0.47,-19.431 -0.284,-19.523 0,-19.78" style="fill:rgb(89,74,66);fill-rule:nonzero;"/>
                    </g>
                    <g transform="matrix(1,0,0,1,174.376,273.72)">
                        <path d="M0,8.417C0.015,8.254 -0.009,8.115 0.043,8.016C0.245,7.635 0.118,7.336 -0.092,6.997C-0.851,5.765 -1.942,4.919 -3.181,4.23C-3.443,4.085 -3.724,3.962 -3.959,3.781C-5.006,2.979 -6.237,2.694 -7.498,2.498C-8.989,2.267 -10.479,2.266 -11.985,2.435C-13.343,2.587 -14.716,2.632 -16.083,2.666C-17.19,2.694 -18.167,3.095 -19.121,3.58C-19.297,3.669 -19.401,3.917 -19.517,4.105C-19.611,4.258 -19.674,4.432 -19.844,4.797C-19.95,4.381 -20.066,4.167 -20.045,3.968C-19.874,2.374 -19.107,1.173 -17.401,0.696C-16.573,0.464 -15.695,0.376 -14.833,0.314C-12.501,0.145 -10.168,0 -7.831,0.251C-6.362,0.41 -4.93,0.668 -3.625,1.424C-2.676,1.975 -1.658,2.415 -0.749,3.022C0.591,3.918 1.263,6.065 0.577,7.563C0.466,7.805 0.354,8.046 0.229,8.281C0.204,8.33 0.12,8.348 0,8.417" style="fill:rgb(255,219,0);fill-rule:nonzero;"/>
                    </g>
                    <g transform="matrix(1,0,0,1,174.385,270.629)">
                        <path d="M0,5.686C-1.302,5.031 -2.457,4.457 -3.605,3.869C-4.934,3.188 -6.36,2.836 -7.832,2.78C-9.728,2.708 -11.628,2.758 -13.526,2.755C-13.812,2.754 -14.098,2.755 -14.548,2.755C-13.616,1.926 -12.468,2.036 -11.396,1.377C-12.965,1.359 -14.184,1.689 -15.185,2.594C-15.427,2.812 -15.622,2.943 -15.94,2.971C-16.495,3.02 -17.045,3.118 -17.76,3.219C-17.235,2.294 -16.655,1.62 -15.841,1.267C-14.248,0.575 -12.608,0 -10.818,0.15C-10.785,0.153 -10.752,0.153 -10.718,0.152C-9.758,0.138 -8.893,0.616 -7.892,0.583C-6.995,0.555 -6.064,0.921 -5.184,1.219C-4.272,1.528 -3.397,1.952 -2.517,2.349C-1.129,2.975 -0.45,4.148 0,5.686" style="fill:rgb(89,74,66);fill-rule:nonzero;"/>
                    </g>
                    <g transform="matrix(1,0,0,1,175.092,275.038)">
                        <path d="M0,1.108C0.001,-0.187 0.501,-0.944 1.373,-1.508C2.79,-2.425 4.364,-2.574 5.99,-2.506C6.317,-2.493 6.479,-2.324 6.481,-2.005C6.486,-1.271 6.51,-0.536 6.47,0.196C6.454,0.483 6.336,0.791 6.184,1.04C5.065,2.864 3.288,3.682 1.128,3.013C0.449,2.802 0.24,2.322 0.583,1.705C0.771,1.366 1.043,1.019 1.367,0.82C2.044,0.406 2.778,0.082 3.494,-0.267C3.762,-0.398 4.051,-0.485 4.317,-0.618C4.373,-0.645 4.392,-0.788 4.39,-0.876C4.389,-0.92 4.301,-1.002 4.256,-0.999C3.927,-0.983 3.584,-1.001 3.272,-0.914C2.064,-0.579 1.006,0.031 0,1.108" style="fill:rgb(0,174,239);fill-rule:nonzero;"/>
                    </g>
                    <g transform="matrix(1,0,0,1,166.125,297.507)">
                        <path d="M0,-5.073C0.045,-3.639 -0.023,-2.216 -0.371,-0.817C-0.552,-0.088 -0.573,-0.085 -1.312,-0.071C-2.643,-0.045 -3.974,-0.017 -5.305,-0.004C-5.699,0 -6.094,-0.042 -6.553,-0.227C-6.231,-0.434 -5.92,-0.661 -5.585,-0.843C-5.264,-1.018 -4.918,-1.148 -4.582,-1.295C-4.159,-1.479 -3.558,-1.552 -3.359,-1.874C-3.163,-2.194 -3.368,-2.762 -3.403,-3.221C-3.451,-3.821 -3.424,-3.846 -2.811,-4.061C-1.902,-4.379 -0.999,-4.712 0,-5.073" style="fill:rgb(237,171,122);fill-rule:nonzero;"/>
                    </g>
                    <g transform="matrix(1,0,0,1,163.502,286.847)">
                        <path d="M0,-7.878C-0.211,-7.601 -0.411,-7.314 -0.637,-7.05C-1.75,-5.748 -2.674,-4.321 -3.445,-2.795C-3.551,-2.586 -3.668,-2.38 -3.744,-2.161C-3.906,-1.687 -3.814,-1.405 -3.384,-1.137C-2.862,-0.814 -2.297,-0.63 -1.668,-0.748C-1.46,-0.787 -1.21,-0.783 -1.214,-0.524C-1.217,-0.378 -1.403,-0.161 -1.555,-0.103C-2.368,0.209 -3.961,-0.414 -4.386,-1.171C-4.668,-1.672 -4.519,-2.149 -4.304,-2.609C-3.624,-4.067 -2.802,-5.446 -1.76,-6.673C-1.315,-7.196 -0.752,-7.619 -0.244,-8.087C-0.163,-8.018 -0.081,-7.948 0,-7.878" style="fill:rgb(35,31,32);fill-rule:nonzero;"/>
                    </g>
                    <g transform="matrix(1,0,0,1,165.137,288.128)">
                        <path d="M0,-1.053C-0.311,-0.491 -0.581,-0.046 -0.809,0.42C-1.056,0.926 -1.464,1.188 -1.997,1.205C-3.724,1.261 -5.392,0.957 -6.943,0.19C-7.932,-0.298 -8.11,-1.065 -7.531,-2.314C-7.507,-1.967 -7.473,-1.772 -7.484,-1.58C-7.526,-0.865 -7.112,-0.446 -6.524,-0.206C-5.218,0.325 -3.856,0.633 -2.438,0.634C-1.735,0.634 -1.456,0.461 -1.259,-0.074C-1.161,-0.343 -1.136,-0.592 -1.45,-0.758C-1.595,-0.834 -1.741,-0.933 -1.846,-1.056C-1.918,-1.14 -1.92,-1.284 -1.953,-1.402C-1.832,-1.424 -1.699,-1.49 -1.592,-1.461C-1.337,-1.389 -1.101,-1.249 -0.845,-1.18C-0.593,-1.113 -0.327,-1.099 0,-1.053" style="fill:rgb(35,31,32);fill-rule:nonzero;"/>
                    </g>
                    <g transform="matrix(1,0,0,1,165.556,280.246)">
                        <path d="M0,-0.416C-0.133,-0.149 -0.236,0.174 -0.434,0.422C-0.665,0.714 -1.104,0.565 -1.198,0.199C-1.294,-0.179 -0.989,-0.926 -0.619,-1.078C-0.491,-1.13 -0.245,-1.04 -0.131,-0.933C-0.034,-0.841 -0.048,-0.63 0,-0.416" style="fill:rgb(35,31,32);fill-rule:nonzero;"/>
                    </g>
                    <g transform="matrix(1,0,0,1,159.724,278.784)">
                        <path d="M0,0.41C0.224,0.065 0.384,-0.258 0.622,-0.507C0.71,-0.599 1.008,-0.568 1.162,-0.493C1.257,-0.447 1.326,-0.193 1.29,-0.065C1.21,0.219 1.092,0.507 0.921,0.743C0.826,0.875 0.547,1.009 0.433,0.958C0.266,0.884 0.173,0.644 0,0.41" style="fill:rgb(35,31,32);fill-rule:nonzero;"/>
                    </g>
                </g>
            </g>
            <g transform="matrix(4.16667,0,0,4.16667,853.117,1085.71)">
                <path d="M0,36.721C-0.499,36.791 -0.757,36.86 -1.016,36.857C-1.772,36.847 -2.529,36.801 -3.286,36.784C-3.667,36.777 -4.215,36.646 -4.219,37.217C-4.222,37.677 -3.718,37.622 -3.362,37.628C-1.363,37.661 0.62,37.848 2.589,38.205C3.019,38.283 3.464,38.358 3.896,38.329C7.58,38.087 11.225,38.529 14.878,38.877C18.213,39.196 21.553,39.462 24.893,39.722C25.779,39.792 26.469,39.545 26.908,38.598C27.285,37.784 27.949,37.102 28.488,36.363C28.614,36.191 28.75,36.027 28.963,35.755C28.631,35.702 28.441,35.659 28.25,35.645C26.062,35.496 23.874,35.352 21.687,35.205C20.97,35.157 20.253,35.054 19.537,35.06C16.031,35.094 12.525,35.12 9.021,35.218C5.505,35.316 2.007,35.17 -1.48,34.725C-1.795,34.685 -2.118,34.668 -2.434,34.686C-2.914,34.714 -3.194,34.984 -3.352,35.509C-2.653,35.496 -2.059,35.476 -1.465,35.477C-0.827,35.478 -0.189,35.499 0.449,35.509C1.188,35.52 1.365,35.562 2.298,36.032C1.104,36.008 0.159,35.966 -0.785,35.975C-1.729,35.985 -2.686,35.871 -3.613,36.164C-2.499,36.429 -1.321,36.121 0,36.721M-5.241,37.263C-5.063,37.035 -4.999,36.98 -4.97,36.911C-4.491,35.772 -4.069,34.604 -2.947,33.885C-2.787,33.782 -2.684,33.473 -2.683,33.259C-2.675,32.146 -2.669,31.032 -2.736,29.922C-2.853,27.975 -3.083,26.034 -3.156,24.087C-3.29,20.546 -3.357,17.002 -3.426,13.459C-3.482,10.512 -3.56,7.564 -3.031,4.639C-2.912,3.979 -2.962,3.29 -2.911,2.617C-2.812,1.308 -2.701,0 -2.583,-1.307C-2.554,-1.624 -2.463,-1.934 -2.424,-2.251C-2.351,-2.838 -2.575,-3.075 -3.158,-2.965C-3.951,-2.814 -4.458,-2.31 -4.879,-1.618C-6.104,0.394 -6.206,2.7 -6.474,4.908C-6.774,7.386 -6.661,9.916 -6.705,12.423C-6.755,15.288 -6.845,18.155 -6.796,21.019C-6.751,23.643 -6.606,26.27 -6.39,28.886C-6.183,31.381 -5.832,33.865 -5.53,36.352C-5.499,36.612 -5.373,36.86 -5.241,37.263M-1.951,-0.875L-2.024,-0.878C-2.065,-0.004 -2.106,0.87 -2.146,1.745C-2.196,2.82 -2.223,3.896 -2.298,4.969C-2.401,6.44 -2.618,7.907 -2.648,9.379C-2.689,11.45 -2.626,13.524 -2.568,15.596C-2.459,19.46 -2.343,23.325 -2.186,27.187C-2.124,28.698 -1.924,30.202 -1.825,31.713C-1.788,32.267 -1.867,32.828 -1.878,33.387C-1.887,33.807 -1.673,34.062 -1.25,34.12C-1.054,34.148 -0.854,34.164 -0.656,34.177C2.209,34.354 5.072,34.536 7.948,34.428C11.094,34.309 14.244,34.289 17.391,34.206C19.305,34.155 21.211,34.14 23.125,34.353C24.866,34.547 26.625,34.6 28.378,34.681C29.052,34.712 29.731,34.655 30.408,34.625C30.747,34.61 30.896,34.415 30.884,34.074C30.819,32.283 30.811,30.489 30.687,28.703C30.545,26.677 30.171,24.66 30.128,22.634C30.035,18.174 30.086,13.711 30.076,9.249C30.072,7.495 30.104,5.74 30.043,3.988C29.994,2.555 29.843,1.126 29.715,-0.303C29.667,-0.837 29.397,-1.151 28.794,-1.189C27.28,-1.283 25.77,-1.435 24.257,-1.554C21.553,-1.767 18.847,-1.96 16.144,-2.189C14.314,-2.343 12.49,-2.556 10.661,-2.718C9.946,-2.782 9.225,-2.792 8.507,-2.8C5.796,-2.832 3.084,-2.857 0.374,-2.875C-0.258,-2.879 -0.89,-2.842 -1.522,-2.825C-1.659,-2.214 -1.796,-1.604 -1.932,-0.993C-1.941,-0.954 -1.945,-0.914 -1.951,-0.875M-6.942,2.518C-6.624,0.929 -6.19,-0.593 -5.394,-2.009C-4.738,-3.177 -3.757,-3.7 -2.438,-3.612C-0.81,-3.502 0.822,-3.416 2.454,-3.392C5.125,-3.354 7.797,-3.416 10.467,-3.353C12.06,-3.315 13.65,-3.124 15.241,-2.993C18.381,-2.736 21.521,-2.473 24.661,-2.21C26.093,-2.091 27.523,-1.942 28.957,-1.853C29.724,-1.805 30.154,-1.425 30.249,-0.706C30.452,0.834 30.718,2.376 30.766,3.923C30.846,6.55 30.764,9.181 30.78,11.81C30.788,13.045 30.886,14.279 30.908,15.514C30.958,18.343 30.916,21.175 31.049,23.999C31.141,25.946 31.522,27.877 31.663,29.824C31.78,31.45 31.752,33.088 31.755,34.721C31.757,35.368 31.625,35.429 30.909,35.603C30.575,35.684 30.233,35.835 29.959,36.04C28.82,36.893 27.935,37.977 27.369,39.278C27.052,40.007 26.536,40.303 25.807,40.352C25.449,40.377 25.087,40.421 24.733,40.39C20.083,39.98 15.437,39.513 10.782,39.159C8.521,38.988 6.242,39.026 3.972,38.971C3.654,38.963 3.333,38.992 3.018,38.958C0.678,38.703 -1.66,38.437 -3.999,38.175C-4.197,38.152 -4.395,38.12 -4.594,38.112C-5.776,38.063 -6.165,37.765 -6.332,36.615C-6.562,35.039 -6.742,33.455 -6.93,31.873C-7.058,30.805 -7.205,29.738 -7.27,28.665C-7.414,26.32 -7.562,23.972 -7.613,21.624C-7.665,19.195 -7.645,16.763 -7.577,14.334C-7.504,11.744 -7.346,9.157 -7.209,6.57C-7.138,5.218 -7.032,3.868 -6.942,2.518" style="fill:rgb(35,31,32);fill-rule:nonzero;"/>
            </g>
            <g transform="matrix(4.16667,0,0,4.16667,844.987,1222)">
                <path d="M0,-33.583C0.006,-33.623 0.01,-33.663 0.019,-33.701C0.155,-34.312 0.292,-34.922 0.429,-35.533C1.061,-35.551 1.693,-35.587 2.325,-35.583C5.036,-35.565 7.747,-35.54 10.458,-35.508C11.176,-35.5 11.897,-35.49 12.612,-35.427C14.441,-35.265 16.265,-35.052 18.095,-34.897C20.798,-34.668 23.504,-34.476 26.208,-34.262C27.721,-34.143 29.231,-33.992 30.746,-33.897C31.348,-33.859 31.618,-33.545 31.666,-33.011C31.794,-31.583 31.945,-30.153 31.995,-28.72C32.055,-26.968 32.023,-25.213 32.027,-23.459C32.037,-18.997 31.986,-14.534 32.08,-10.074C32.123,-8.048 32.497,-6.032 32.638,-4.005C32.762,-2.219 32.771,-0.425 32.835,1.365C32.848,1.707 32.698,1.902 32.359,1.917C31.683,1.947 31.003,2.004 30.329,1.973C28.576,1.892 26.817,1.839 25.076,1.645C23.163,1.432 21.256,1.446 19.342,1.498C16.195,1.581 13.045,1.601 9.899,1.72C7.023,1.828 4.161,1.646 1.295,1.468C1.097,1.456 0.897,1.44 0.701,1.412C0.278,1.354 0.064,1.099 0.073,0.678C0.084,0.12 0.163,-0.441 0.126,-0.996C0.027,-2.506 -0.172,-4.01 -0.234,-5.521C-0.392,-9.384 -0.508,-13.248 -0.617,-17.113C-0.675,-19.185 -0.738,-21.259 -0.697,-23.33C-0.667,-24.801 -0.45,-26.268 -0.347,-27.739C-0.271,-28.812 -0.245,-29.889 -0.195,-30.963C-0.155,-31.838 -0.114,-32.712 -0.073,-33.586L0,-33.583Z" style="fill:rgb(254,189,16);fill-rule:nonzero;"/>
            </g>
            <g transform="matrix(4.16667,0,0,4.16667,831.278,1072.9)">
                <path d="M0,40.338C-0.131,39.935 -0.258,39.687 -0.289,39.427C-0.591,36.94 -0.942,34.456 -1.148,31.961C-1.365,29.345 -1.51,26.718 -1.555,24.094C-1.604,21.23 -1.514,18.363 -1.464,15.498C-1.42,12.991 -1.533,10.461 -1.232,7.983C-0.964,5.775 -0.862,3.469 0.362,1.457C0.783,0.765 1.29,0.261 2.083,0.11C2.666,0 2.89,0.237 2.817,0.824C2.778,1.141 2.687,1.451 2.659,1.768C2.54,3.075 2.43,4.383 2.331,5.692C2.279,6.365 2.329,7.054 2.21,7.714C1.682,10.639 1.759,13.587 1.815,16.534C1.884,20.077 1.952,23.621 2.085,27.162C2.159,29.109 2.389,31.05 2.505,32.997C2.572,34.107 2.566,35.221 2.559,36.334C2.557,36.548 2.455,36.857 2.294,36.96C1.172,37.679 0.75,38.847 0.271,39.986C0.242,40.055 0.178,40.11 0,40.338" style="fill:rgb(43,182,115);fill-rule:nonzero;"/>
            </g>
            <g transform="matrix(4.16667,0,0,4.16667,853.117,1242.96)">
                <path d="M0,-1.018C-1.321,-1.618 -2.499,-1.31 -3.613,-1.575C-2.686,-1.868 -1.729,-1.754 -0.785,-1.764C0.159,-1.773 1.104,-1.731 2.298,-1.707C1.365,-2.177 1.188,-2.219 0.449,-2.23C-0.189,-2.24 -0.827,-2.261 -1.465,-2.262C-2.059,-2.263 -2.653,-2.243 -3.352,-2.23C-3.194,-2.755 -2.914,-3.025 -2.434,-3.053C-2.118,-3.071 -1.795,-3.054 -1.48,-3.014C2.007,-2.569 5.505,-2.423 9.021,-2.521C12.525,-2.619 16.031,-2.645 19.537,-2.679C20.253,-2.685 20.97,-2.582 21.687,-2.534C23.874,-2.387 26.062,-2.243 28.25,-2.094C28.441,-2.08 28.631,-2.037 28.963,-1.984C28.75,-1.712 28.614,-1.548 28.488,-1.376C27.949,-0.637 27.285,0.045 26.908,0.859C26.469,1.806 25.779,2.053 24.893,1.983C21.553,1.723 18.213,1.457 14.878,1.138C11.225,0.79 7.58,0.348 3.896,0.59C3.464,0.619 3.019,0.544 2.589,0.466C0.62,0.109 -1.363,-0.078 -3.362,-0.111C-3.718,-0.117 -4.222,-0.062 -4.219,-0.522C-4.215,-1.093 -3.667,-0.962 -3.286,-0.955C-2.529,-0.938 -1.772,-0.892 -1.016,-0.882C-0.757,-0.879 -0.499,-0.948 0,-1.018" style="fill:rgb(255,252,217);fill-rule:nonzero;"/>
            </g>
            <g transform="matrix(4.16667,0,0,4.16667,0,0)">
                <g opacity="0.2">
                    <g transform="matrix(1,0,0,1,233.934,296.132)">
                        <path d="M0,-37.084C-5.132,-36.472 -10.265,-35.861 -15.397,-35.25C-17.189,-35.036 -19.032,-34.807 -20.611,-33.934C-22.051,-33.138 -23.163,-31.865 -24.163,-30.559C-28.685,-24.649 -31.543,-17.48 -32.328,-10.081C-32.61,-7.42 -32.441,-4.311 -30.321,-2.678C-28.928,-1.605 -26.997,-1.449 -25.584,-0.4C-26.936,-0.339 -28.288,-0.277 -29.639,-0.215C-29.962,-0.201 -30.301,-0.181 -30.578,-0.013C-30.846,0.151 -31.015,0.431 -31.219,0.669C-32.076,1.669 -33.706,1.889 -34.796,1.152C-35.671,-7.216 -36.107,-15.339 -36.207,-23.753C-36.247,-27.149 -36.285,-30.573 -35.637,-33.908C-35.388,-35.187 -35.02,-36.483 -34.215,-37.508C-33.41,-38.532 -32.107,-38.973 -30.804,-38.967C-18.72,-38.914 -10.175,-37.886 0,-37.084" style="fill:rgb(59,35,20);fill-rule:nonzero;"/>
                    </g>
                </g>
            </g>
            <g transform="matrix(4.16667,0,0,4.16667,911.786,1177.88)">
                <path d="M0,-4.009C-0.315,-3.736 -0.73,-3.482 -0.719,-2.938C-0.705,-2.259 0.349,-1.372 1.048,-1.464C1.151,-1.477 1.332,-1.781 1.294,-1.849C0.894,-2.564 0.458,-3.259 0,-4.009M1.854,-5.477C1.166,-5.02 0.922,-4.466 1.018,-3.863C1.13,-3.157 1.478,-2.515 2.105,-2.103C2.599,-1.78 3.105,-1.963 3.5,-2.557C3.784,-2.982 3.763,-3.16 3.177,-3.615C2.571,-4.086 2.037,-4.586 1.854,-5.477M-13.589,9.098C-13.354,9.019 -13.04,8.977 -12.802,8.821C-12.038,8.317 -11.318,7.744 -10.551,7.247C-9.009,6.247 -7.583,5.12 -6.281,3.814C-5.132,2.66 -3.864,1.627 -2.661,0.527C-2.075,-0.009 -1.518,-0.578 -0.945,-1.129C-0.75,-1.317 -0.668,-1.501 -0.867,-1.746C-1.082,-2.011 -1.309,-2.053 -1.589,-1.861C-1.786,-1.726 -1.995,-1.608 -2.19,-1.47C-4.429,0.12 -6.667,1.713 -8.904,3.306C-9.746,3.906 -10.608,4.48 -11.421,5.116C-12.361,5.851 -13.277,6.62 -14.162,7.419C-14.665,7.873 -14.625,8.129 -14.137,8.609C-13.996,8.747 -13.842,8.873 -13.589,9.098M9.05,-10.6L9.288,-10.399C9.151,-10.173 9.054,-9.907 8.871,-9.728C7.192,-8.088 5.792,-6.155 3.775,-4.869C3.628,-4.775 3.425,-4.503 3.461,-4.441C3.571,-4.258 3.766,-4.081 3.967,-4.007C4.221,-3.912 4.513,-3.905 4.791,-3.886C5.746,-3.821 6.701,-3.742 7.658,-3.717C8.212,-3.702 8.771,-3.771 9.326,-3.819C10.179,-3.891 10.638,-4.298 10.833,-5.199C11.188,-6.832 11.693,-8.432 12.139,-10.045C12.402,-10.997 12.671,-11.947 12.986,-13.07C12.413,-12.996 11.991,-12.949 11.572,-12.886C9.223,-12.535 7.066,-11.543 4.827,-10.831C4.563,-10.747 4.285,-10.463 4.169,-10.203C3.653,-9.038 3.187,-7.851 2.714,-6.667C2.502,-6.134 2.453,-5.596 2.792,-5.022C2.939,-5.086 3.104,-5.116 3.212,-5.211C4.2,-6.077 5.198,-6.933 6.149,-7.838C6.754,-8.413 7.265,-9.087 7.859,-9.675C8.215,-10.025 8.651,-10.294 9.05,-10.6M-1.214,-3.318C-1.035,-3.934 -0.698,-4.387 -0.121,-4.683C0.247,-4.872 0.482,-5.311 0.845,-5.52C1.95,-6.158 2.249,-7.285 2.667,-8.346C2.9,-8.938 3.126,-9.533 3.346,-10.13C3.621,-10.876 4.009,-11.457 4.889,-11.617C5.47,-11.723 6.035,-11.961 6.584,-12.195C8.507,-13.014 10.524,-13.469 12.58,-13.785C13.72,-13.96 13.912,-13.776 13.616,-12.683C13.056,-10.609 12.459,-8.544 11.886,-6.472C11.706,-5.82 11.565,-5.157 11.388,-4.504C11.182,-3.748 10.753,-3.232 9.905,-3.177C8.995,-3.118 8.087,-3.007 7.177,-2.982C6.542,-2.966 5.903,-3.047 5.268,-3.104C4.838,-3.142 4.5,-3.08 4.296,-2.625C3.93,-1.802 3.308,-1.328 2.383,-1.197C1.883,-1.126 1.317,-0.624 0.939,-0.759C-0.125,-1.139 -0.551,-0.448 -1.142,0.125C-1.856,0.818 -2.658,1.419 -3.392,2.093C-4.419,3.035 -5.455,3.973 -6.423,4.975C-7.714,6.312 -9.312,7.222 -10.807,8.278C-11.36,8.668 -11.926,9.042 -12.494,9.411C-13.322,9.951 -13.636,9.924 -14.404,9.269C-14.555,9.139 -14.713,9.014 -14.844,8.866C-15.416,8.219 -15.446,7.694 -14.803,7.09C-13.904,6.245 -12.961,5.441 -11.985,4.686C-10.946,3.883 -9.848,3.156 -8.773,2.397C-6.495,0.789 -4.208,-0.808 -1.943,-2.436C-1.644,-2.651 -1.455,-3.02 -1.214,-3.318" style="fill:rgb(35,31,32);fill-rule:nonzero;"/>
            </g>
            <g transform="matrix(4.16667,0,0,4.16667,949.495,1152.16)">
                <path d="M0,-4.427C-0.399,-4.121 -0.835,-3.852 -1.191,-3.502C-1.786,-2.914 -2.296,-2.24 -2.901,-1.665C-3.853,-0.76 -4.851,0.095 -5.838,0.962C-5.946,1.057 -6.111,1.087 -6.258,1.151C-6.598,0.577 -6.548,0.038 -6.336,-0.494C-5.864,-1.678 -5.397,-2.865 -4.881,-4.03C-4.766,-4.29 -4.487,-4.574 -4.224,-4.658C-1.984,-5.37 0.172,-6.362 2.521,-6.714C2.941,-6.777 3.363,-6.823 3.936,-6.897C3.621,-5.774 3.352,-4.824 3.089,-3.872C2.643,-2.259 2.137,-0.659 1.783,0.973C1.588,1.875 1.128,2.281 0.276,2.354C-0.28,2.402 -0.838,2.47 -1.393,2.456C-2.349,2.43 -3.305,2.352 -4.26,2.287C-4.537,2.268 -4.829,2.261 -5.083,2.166C-5.284,2.092 -5.479,1.915 -5.589,1.732C-5.625,1.67 -5.422,1.398 -5.275,1.304C-3.258,0.018 -1.858,-1.915 -0.18,-3.555C0.003,-3.734 0.101,-4 0.237,-4.226L0,-4.427Z" style="fill:rgb(163,180,190);fill-rule:nonzero;"/>
            </g>
            <g transform="matrix(4.16667,0,0,4.16667,855.163,1169.33)">
                <path d="M0,11.152C-0.253,10.926 -0.407,10.801 -0.548,10.662C-1.035,10.182 -1.076,9.926 -0.573,9.472C0.312,8.673 1.229,7.905 2.168,7.17C2.981,6.533 3.843,5.959 4.685,5.36C6.922,3.767 9.16,2.174 11.399,0.584C11.594,0.445 11.803,0.328 12,0.193C12.281,0 12.508,0.042 12.722,0.307C12.921,0.553 12.839,0.736 12.644,0.924C12.071,1.475 11.515,2.044 10.928,2.58C9.725,3.68 8.457,4.714 7.308,5.867C6.006,7.174 4.581,8.301 3.039,9.3C2.271,9.798 1.552,10.371 0.788,10.874C0.55,11.031 0.236,11.072 0,11.152" style="fill:rgb(213,133,75);fill-rule:nonzero;"/>
            </g>
            <g transform="matrix(4.16667,0,0,4.16667,919.513,1170.47)">
                <path d="M0,-3.698C0.183,-2.807 0.717,-2.306 1.322,-1.836C1.908,-1.381 1.929,-1.203 1.646,-0.778C1.25,-0.183 0.745,0 0.251,-0.324C-0.377,-0.736 -0.724,-1.378 -0.836,-2.084C-0.932,-2.686 -0.689,-3.241 0,-3.698" style="fill:rgb(0,174,239);fill-rule:nonzero;"/>
            </g>
            <g transform="matrix(-3.85279,1.58653,1.58653,3.85279,916.292,1171.28)">
                <path d="M0.077,-2.652C-0.061,-1.784 -0.199,-0.976 -0.297,-0.162C-0.306,-0.085 -0.023,0.127 0.077,0.1C0.759,-0.081 1.396,-1.303 1.15,-1.936C0.953,-2.443 0.473,-2.52 0.077,-2.652" style="fill:rgb(0,172,122);fill-rule:nonzero;"/>
            </g>
            <g transform="matrix(4.16667,0,0,4.16667,1095.59,1076.3)">
                <path d="M0,40.039C-0.484,40.175 -0.732,40.278 -0.988,40.309C-1.74,40.4 -2.496,40.455 -3.248,40.539C-3.627,40.582 -4.187,40.526 -4.115,41.092C-4.057,41.548 -3.565,41.427 -3.212,41.386C-1.226,41.152 0.765,41.074 2.763,41.165C3.2,41.185 3.651,41.201 4.076,41.115C7.694,40.384 11.366,40.338 15.033,40.197C18.38,40.069 21.726,39.888 25.071,39.703C25.958,39.653 26.609,39.316 26.918,38.32C27.184,37.463 27.751,36.699 28.187,35.895C28.289,35.707 28.402,35.527 28.577,35.228C28.241,35.221 28.047,35.202 27.855,35.215C25.667,35.358 23.48,35.507 21.292,35.652C20.575,35.7 19.851,35.692 19.142,35.794C15.672,36.293 12.2,36.786 8.74,37.35C5.269,37.914 1.783,38.235 -1.733,38.258C-2.05,38.26 -2.372,38.286 -2.684,38.346C-3.155,38.437 -3.396,38.742 -3.483,39.284C-2.792,39.178 -2.206,39.08 -1.617,39.001C-0.985,38.917 -0.35,38.853 0.284,38.778C1.018,38.69 1.198,38.709 2.186,39.05C0.999,39.185 0.057,39.269 -0.877,39.405C-1.811,39.54 -2.775,39.554 -3.655,39.968C-2.516,40.082 -1.389,39.62 0,40.039M-5.123,41.274C-4.977,41.024 -4.92,40.961 -4.9,40.889C-4.577,39.697 -4.315,38.483 -3.298,37.62C-3.153,37.497 -3.092,37.177 -3.12,36.965C-3.26,35.861 -3.402,34.755 -3.616,33.664C-3.99,31.75 -4.477,29.857 -4.809,27.937C-5.412,24.445 -5.951,20.942 -6.49,17.44C-6.938,14.526 -7.407,11.615 -7.272,8.645C-7.242,7.976 -7.383,7.3 -7.422,6.625C-7.498,5.315 -7.562,4.004 -7.619,2.693C-7.632,2.375 -7.584,2.055 -7.587,1.736C-7.593,1.145 -7.846,0.939 -8.409,1.126C-9.175,1.381 -9.611,1.948 -9.937,2.69C-10.882,4.848 -10.676,7.146 -10.648,9.371C-10.616,11.866 -10.168,14.358 -9.878,16.85C-9.546,19.696 -9.254,22.549 -8.824,25.381C-8.431,27.976 -7.938,30.56 -7.375,33.124C-6.839,35.569 -6.16,37.984 -5.53,40.409C-5.465,40.663 -5.306,40.892 -5.123,41.274M-6.936,3.037C-6.959,3.039 -6.984,3.041 -7.008,3.044C-6.933,3.915 -6.857,4.788 -6.78,5.66C-6.686,6.731 -6.569,7.802 -6.501,8.875C-6.409,10.347 -6.428,11.83 -6.262,13.292C-6.027,15.35 -5.689,17.398 -5.356,19.443C-4.734,23.259 -4.104,27.074 -3.434,30.881C-3.172,32.37 -2.774,33.835 -2.475,35.318C-2.365,35.863 -2.368,36.429 -2.305,36.984C-2.257,37.402 -2.012,37.626 -1.585,37.628C-1.386,37.629 -1.187,37.619 -0.988,37.604C1.875,37.399 4.736,37.199 7.572,36.709C10.675,36.173 13.793,35.734 16.902,35.232C18.792,34.927 20.68,34.659 22.604,34.616C24.356,34.577 26.106,34.395 27.854,34.242C28.527,34.183 29.192,34.036 29.859,33.917C30.193,33.857 30.315,33.643 30.257,33.307C29.955,31.541 29.708,29.764 29.347,28.01C28.937,26.02 28.299,24.072 27.987,22.07C27.3,17.662 26.757,13.231 26.154,8.81C25.917,7.073 25.715,5.329 25.422,3.601C25.183,2.187 24.843,0.79 24.525,-0.609C24.407,-1.132 24.098,-1.407 23.495,-1.364C21.982,-1.257 20.465,-1.206 18.95,-1.123C16.241,-0.975 13.533,-0.805 10.824,-0.672C8.99,-0.582 7.153,-0.551 5.319,-0.468C4.603,-0.436 3.887,-0.35 3.174,-0.262C0.482,0.067 -2.208,0.402 -4.897,0.746C-5.524,0.826 -6.146,0.946 -6.769,1.047C-6.824,1.671 -6.878,2.294 -6.932,2.917C-6.936,2.957 -6.935,2.997 -6.936,3.037M-11.431,7.063C-11.326,5.446 -11.099,3.88 -10.499,2.371C-10.003,1.126 -9.101,0.476 -7.782,0.39C-6.154,0.282 -4.524,0.15 -2.904,-0.044C-0.252,-0.361 2.388,-0.778 5.042,-1.071C6.626,-1.246 8.228,-1.267 9.822,-1.35C12.969,-1.512 16.116,-1.669 19.262,-1.827C20.698,-1.899 22.135,-1.941 23.568,-2.044C24.334,-2.099 24.812,-1.78 25.001,-1.079C25.407,0.42 25.876,1.913 26.129,3.439C26.559,6.032 26.827,8.651 27.192,11.255C27.364,12.478 27.625,13.688 27.812,14.909C28.238,17.706 28.573,20.518 29.081,23.3C29.43,25.217 30.065,27.081 30.464,28.991C30.797,30.587 30.987,32.215 31.208,33.833C31.295,34.474 31.172,34.552 30.486,34.819C30.166,34.944 29.847,35.139 29.603,35.379C28.586,36.375 27.854,37.568 27.466,38.933C27.249,39.698 26.777,40.059 26.061,40.205C25.709,40.277 25.356,40.369 25.001,40.385C20.338,40.598 15.671,40.752 11.011,41.021C8.746,41.153 6.494,41.493 4.236,41.74C3.919,41.775 3.605,41.847 3.288,41.854C0.936,41.914 -1.417,41.96 -3.77,42.012C-3.969,42.016 -4.169,42.011 -4.368,42.029C-5.546,42.138 -5.971,41.894 -6.29,40.776C-6.727,39.245 -7.116,37.699 -7.514,36.157C-7.782,35.115 -8.069,34.076 -8.277,33.022C-8.731,30.716 -9.191,28.41 -9.553,26.089C-9.928,23.688 -10.232,21.275 -10.488,18.859C-10.76,16.283 -10.947,13.698 -11.156,11.115C-11.265,9.766 -11.34,8.414 -11.431,7.063" style="fill:rgb(35,31,32);fill-rule:nonzero;"/>
            </g>
            <g transform="matrix(4.16667,0,0,4.16667,1066.69,1214.57)">
                <path d="M0,-30.148C0.001,-30.188 0,-30.228 0.003,-30.268C0.057,-30.891 0.112,-31.514 0.167,-32.138C0.79,-32.239 1.412,-32.359 2.038,-32.44C4.728,-32.783 7.418,-33.118 10.109,-33.447C10.822,-33.535 11.538,-33.621 12.255,-33.653C14.089,-33.736 15.926,-33.767 17.759,-33.857C20.469,-33.99 23.177,-34.16 25.886,-34.308C27.4,-34.391 28.917,-34.442 30.431,-34.549C31.033,-34.592 31.342,-34.317 31.461,-33.794C31.778,-32.395 32.118,-30.998 32.357,-29.585C32.65,-27.856 32.852,-26.112 33.089,-24.375C33.693,-19.954 34.236,-15.523 34.922,-11.115C35.234,-9.113 35.873,-7.165 36.283,-5.175C36.644,-3.421 36.891,-1.644 37.193,0.122C37.25,0.458 37.128,0.672 36.794,0.732C36.128,0.851 35.462,0.998 34.79,1.057C33.042,1.21 31.292,1.392 29.54,1.431C27.615,1.474 25.728,1.742 23.837,2.047C20.729,2.549 17.61,2.988 14.508,3.524C11.671,4.014 8.811,4.214 5.947,4.419C5.749,4.434 5.549,4.444 5.35,4.443C4.923,4.441 4.678,4.217 4.63,3.799C4.567,3.244 4.571,2.678 4.461,2.133C4.161,0.65 3.763,-0.815 3.501,-2.304C2.831,-6.111 2.202,-9.926 1.58,-13.742C1.246,-15.787 0.908,-17.835 0.674,-19.893C0.507,-21.356 0.527,-22.838 0.434,-24.31C0.366,-25.383 0.25,-26.454 0.155,-27.525C0.079,-28.398 0.003,-29.27 -0.073,-30.141C-0.048,-30.144 -0.024,-30.146 0,-30.148" style="fill:rgb(138,215,248);fill-rule:nonzero;"/>
            </g>
            <g transform="matrix(4.16667,0,0,4.16667,1074.25,1080.21)">
                <path d="M0,40.334C-0.184,39.952 -0.342,39.723 -0.408,39.469C-1.038,37.044 -1.716,34.629 -2.253,32.184C-2.815,29.62 -3.308,27.036 -3.702,24.441C-4.131,21.609 -4.424,18.756 -4.755,15.91C-5.045,13.418 -5.494,10.926 -5.525,8.431C-5.554,6.206 -5.759,3.908 -4.814,1.75C-4.489,1.008 -4.053,0.441 -3.287,0.186C-2.724,0 -2.47,0.205 -2.464,0.796C-2.461,1.115 -2.51,1.436 -2.496,1.753C-2.439,3.064 -2.375,4.375 -2.299,5.685C-2.26,6.36 -2.12,7.036 -2.15,7.706C-2.284,10.675 -1.816,13.586 -1.367,16.5C-0.828,20.002 -0.29,23.505 0.314,26.997C0.646,28.917 1.132,30.811 1.506,32.724C1.72,33.815 1.863,34.921 2.003,36.025C2.03,36.237 1.97,36.557 1.825,36.68C0.808,37.543 0.545,38.757 0.222,39.949C0.203,40.022 0.146,40.084 0,40.334" style="fill:rgb(42,56,144);fill-rule:nonzero;"/>
            </g>
            <g transform="matrix(4.16667,0,0,4.16667,1095.59,1229.26)">
                <path d="M0,3.328C-1.389,2.909 -2.516,3.371 -3.655,3.257C-2.775,2.843 -1.811,2.829 -0.877,2.694C0.057,2.558 0.999,2.474 2.186,2.339C1.198,1.998 1.018,1.979 0.284,2.067C-0.35,2.142 -0.985,2.206 -1.617,2.29C-2.206,2.369 -2.792,2.467 -3.483,2.573C-3.396,2.031 -3.155,1.726 -2.684,1.635C-2.372,1.575 -2.05,1.549 -1.733,1.547C1.783,1.524 5.269,1.203 8.74,0.639C12.2,0.075 15.672,-0.418 19.142,-0.917C19.851,-1.019 20.575,-1.011 21.292,-1.059C23.48,-1.204 25.667,-1.353 27.855,-1.496C28.047,-1.509 28.241,-1.49 28.577,-1.483C28.402,-1.184 28.289,-1.004 28.187,-0.816C27.751,-0.012 27.184,0.752 26.918,1.609C26.609,2.605 25.958,2.942 25.071,2.992C21.726,3.177 18.38,3.358 15.033,3.486C11.366,3.627 7.694,3.673 4.076,4.404C3.651,4.49 3.2,4.474 2.763,4.454C0.765,4.363 -1.226,4.441 -3.212,4.675C-3.565,4.716 -4.057,4.837 -4.115,4.381C-4.187,3.815 -3.627,3.871 -3.248,3.828C-2.496,3.744 -1.74,3.689 -0.988,3.598C-0.732,3.567 -0.484,3.464 0,3.328" style="fill:rgb(255,252,217);fill-rule:nonzero;"/>
            </g>
            <g transform="matrix(4.16667,0,0,4.16667,0,0)">
                <g opacity="0.2">
                    <g transform="matrix(1,0,0,1,286.781,299.673)">
                        <path d="M0,-43.11C-5.005,-41.821 -10.011,-40.532 -15.017,-39.244C-16.764,-38.794 -18.56,-38.321 -20.009,-37.246C-21.33,-36.266 -22.263,-34.857 -23.08,-33.428C-26.776,-26.97 -28.655,-19.485 -28.449,-12.047C-28.375,-9.372 -27.793,-6.313 -25.475,-4.977C-23.951,-4.098 -22.016,-4.2 -20.477,-3.349C-21.808,-3.108 -23.14,-2.867 -24.471,-2.627C-24.79,-2.569 -25.123,-2.505 -25.374,-2.3C-25.618,-2.103 -25.749,-1.802 -25.919,-1.539C-26.635,-0.434 -28.221,0 -29.4,-0.585C-31.381,-8.762 -32.894,-16.755 -34.112,-25.081C-34.604,-28.442 -35.096,-31.83 -34.897,-35.221C-34.821,-36.522 -34.629,-37.856 -33.967,-38.979C-33.306,-40.101 -32.073,-40.711 -30.781,-40.879C-18.797,-42.433 -10.191,-42.551 0,-43.11" style="fill:rgb(59,35,20);fill-rule:nonzero;"/>
                    </g>
                </g>
            </g>
            <g transform="matrix(4.70756,-0.546882,0.12728,4.1799,-191.928,22.2965)">
                <text x="161.355px" y="283.315px" style="font-family:'ITCAvantGardeStd-Bk', 'ITC Avant Garde Gothic Std', sans-serif;font-weight:300;font-size:6.046px;fill:white;">Leyendas</text>
            </g>
            <g transform="matrix(4.73553,0.187166,-0.52022,4.14936,-237.868,-9.40148)">
                <text x="256.53px" y="256.152px" style="font-family:'ITCAvantGardeStd-Bk', 'ITC Avant Garde Gothic Std', sans-serif;font-weight:300;font-size:6.046px;fill:white;">Leyendas</text>
            </g>
            <g transform="matrix(4.71837,-0.444486,0.0364547,4.18168,-261.758,24.6585)">
                <text x="279.614px" y="288.881px" style="font-family:'ITCAvantGardeStd-Bk', 'ITC Avant Garde Gothic Std', sans-serif;font-weight:300;font-size:6.046px;fill:white;">Leyendas</text>
            </g>
            <g transform="matrix(4.16667,0,0,4.16667,1114.19,1126.28)">
                <path d="M0,17.217L0,17.2C-0.159,17.2 -0.318,17.19 -0.477,17.201C-1.028,17.24 -1.419,17.607 -1.34,18.002C-1.284,18.279 -0.69,18.567 -0.301,18.506C0.079,18.447 0.211,18.217 0.136,17.779C0.118,17.675 0.154,17.561 0.166,17.452C0.28,17.484 0.415,17.488 0.504,17.553C0.78,17.756 0.792,18.017 0.637,18.311C0.339,18.881 -0.279,19.098 -1.018,18.848C-1.415,18.715 -1.81,18.529 -1.854,18.037C-1.894,17.585 -1.661,17.224 -1.306,16.987C-1.109,16.856 -0.833,16.803 -0.588,16.791C0.037,16.758 0.665,16.77 1.291,16.759C1.675,16.753 2.043,16.516 2.106,16.219C2.187,15.841 1.868,15.733 1.63,15.599C0.801,15.133 -0.03,14.667 -0.879,14.24C-1.033,14.163 -1.316,14.205 -1.477,14.3C-2.377,14.834 -2.73,15.694 -2.819,16.694C-2.942,18.062 -2.224,19.332 -0.925,19.763C0.504,20.237 1.417,19.591 1.461,18.336C1.491,17.504 1.189,17.223 0.476,17.245C0.318,17.25 0.159,17.227 0,17.217M2.344,0.948C2.334,-0.401 1.485,-1.437 0.375,-1.47C-0.354,-1.492 -1.08,-1.359 -1.72,-0.939C-2.221,-0.61 -2.578,-0.154 -2.734,0.403C-2.82,0.71 -2.761,1.088 -2.671,1.406C-2.582,1.722 -2.284,1.862 -1.986,1.663C-1.472,1.321 -0.909,1.326 -0.334,1.331C-0.178,1.332 -0.014,1.315 0.133,1.265C0.462,1.154 0.547,0.834 0.31,0.593C-0.062,0.217 -0.657,-0.089 -1.166,0.543C-1.245,0.641 -1.297,0.766 -1.389,0.848C-1.442,0.896 -1.571,0.922 -1.626,0.889C-1.694,0.849 -1.761,0.736 -1.755,0.659C-1.746,0.538 -1.694,0.41 -1.627,0.306C-1.092,-0.519 -0.132,-0.536 0.642,0.259C1.187,0.82 1.041,1.49 0.301,1.738C0.064,1.816 -0.203,1.861 -0.449,1.84C-1.169,1.779 -1.658,2.155 -2.093,2.646C-2.523,3.133 -2.568,3.672 -2.245,4.224C-1.859,4.882 -1.35,4.936 -0.776,4.435C-0.108,3.852 0.543,3.218 1.299,2.772C2.097,2.301 2.343,1.658 2.344,0.948M6.293,-2.047C6.747,-1.552 7.141,-1.103 7.556,-0.676C7.708,-0.52 7.9,-0.396 8.092,-0.289C8.318,-0.163 8.524,-0.239 8.681,-0.434C8.875,-0.675 8.956,-0.953 8.802,-1.231C8.634,-1.534 8.359,-1.552 8.061,-1.412C7.946,-1.358 7.829,-1.305 7.708,-1.274C7.662,-1.262 7.56,-1.303 7.554,-1.332C7.539,-1.416 7.526,-1.536 7.573,-1.589C7.877,-1.938 8.483,-2.03 8.886,-1.806C9.248,-1.604 9.428,-1.194 9.353,-0.744C9.193,0.21 8.262,0.598 7.486,0.004C7.189,-0.223 6.963,-0.546 6.722,-0.84C6.405,-1.225 6.021,-1.364 5.538,-1.229C4.899,-1.051 4.454,-0.501 4.422,0.158C4.385,0.908 4.714,1.325 5.46,1.336C6.64,1.352 7.807,1.398 8.955,1.718C9.192,1.784 9.585,1.726 9.741,1.565C10.224,1.065 10.719,0.503 10.69,-0.242C10.667,-0.869 10.545,-1.508 10.358,-2.108C10.151,-2.774 9.606,-3.144 8.909,-3.156C7.881,-3.174 7.017,-2.768 6.293,-2.047M-7.635,9.016C-7.611,9.414 -7.625,9.642 -7.579,9.857C-7.477,10.345 -7.229,10.739 -6.75,10.949C-6.396,11.106 -6.056,11.055 -5.776,10.804C-5.54,10.593 -5.401,9.491 -5.602,9.259C-5.721,9.122 -5.978,9.032 -6.162,9.048C-6.268,9.056 -6.396,9.307 -6.434,9.468C-6.466,9.609 -6.338,9.787 -6.372,9.926C-6.392,10.004 -6.635,10.112 -6.708,10.073C-6.83,10.009 -6.937,9.852 -6.979,9.713C-7.153,9.12 -6.841,8.566 -6.293,8.453C-5.708,8.333 -5.043,8.702 -4.984,9.259C-4.941,9.658 -5.027,10.075 -5.084,10.481C-5.283,11.885 -4.429,12.701 -3.052,12.409C-2.388,12.268 -2.252,12.094 -2.457,11.417C-2.794,10.299 -2.956,9.183 -2.598,8.048C-2.48,7.676 -2.626,7.462 -2.884,7.225C-3.775,6.404 -4.831,6.376 -5.925,6.581C-6.748,6.736 -7.3,7.209 -7.459,8.068C-7.528,8.44 -7.597,8.811 -7.635,9.016M9.03,20.348C9.965,20.448 10.649,20.029 11.183,19.334C11.76,18.582 11.567,17.519 10.796,16.976C10.425,16.715 9.987,16.627 9.629,16.859C9.213,17.128 8.85,17.506 8.541,17.898C8.428,18.042 8.462,18.404 8.566,18.591C8.718,18.862 9.432,18.771 9.675,18.461C9.929,18.137 9.721,17.96 9.425,17.808C9.342,17.766 9.257,17.591 9.282,17.51C9.311,17.416 9.45,17.313 9.557,17.292C9.983,17.21 10.312,17.456 10.368,17.87C10.484,18.732 10.058,19.232 9.135,19.294C8.717,19.322 8.264,19.331 8.008,18.94C7.727,18.509 7.804,18.022 8.026,17.579C8.123,17.386 8.289,17.223 8.442,17.064C8.662,16.835 8.913,16.634 9.124,16.398C9.291,16.211 9.455,16.005 9.553,15.778C9.683,15.478 9.722,15.106 9.445,14.898C9.295,14.786 8.982,14.867 8.748,14.899C8.595,14.92 8.456,15.021 8.303,15.064C7.604,15.261 6.91,15.499 6.198,15.632C5.15,15.827 5.144,15.795 5.151,16.866C5.152,16.961 5.15,17.057 5.154,17.152C5.207,18.599 6.134,19.757 7.534,20.089C8.026,20.205 8.531,20.264 9.03,20.348M13.815,12.439L13.829,12.439C13.829,12.058 13.83,11.676 13.829,11.296C13.828,11.027 13.777,10.735 13.477,10.703C13.253,10.679 12.977,10.764 12.791,10.895C12.593,11.035 12.471,11.283 12.323,11.489C11.991,11.955 11.678,12.435 11.331,12.888C10.886,13.467 10.891,14.067 11.481,14.535C12.177,15.086 12.894,15.639 13.675,16.05C15.281,16.896 17.173,16.134 17.717,14.489C17.992,13.655 17.801,12.867 17.458,12.087C17.16,11.406 16.615,11.151 15.937,11.158C15.596,11.161 15.252,11.282 14.919,11.382C14.542,11.495 14.355,11.754 14.372,12.168C14.389,12.613 14.339,13.061 14.373,13.503C14.427,14.21 14.755,14.459 15.447,14.382C15.978,14.322 16.595,13.692 16.634,13.168C16.67,12.689 16.321,12.384 15.859,12.508C15.646,12.565 15.446,12.676 15.233,12.735C15.162,12.754 15.001,12.692 14.995,12.651C14.979,12.543 14.989,12.383 15.058,12.323C15.198,12.202 15.38,12.127 15.551,12.046C15.947,11.861 16.361,11.786 16.72,12.09C17.114,12.423 17.238,12.874 17.14,13.383C17.038,13.917 16.7,14.288 16.3,14.618C15.771,15.056 15.143,14.997 14.574,14.822C14.032,14.655 13.898,14.089 13.826,13.582C13.772,13.208 13.815,12.821 13.815,12.439M14.874,4.265L14.899,4.265C14.899,4.52 14.863,4.781 14.912,5.026C14.945,5.192 15.063,5.39 15.204,5.477C15.767,5.827 16.569,5.41 16.65,4.749C16.684,4.475 16.499,4.243 16.215,4.243C16.095,4.243 15.975,4.341 15.855,4.342C15.754,4.343 15.635,4.286 15.562,4.217C15.534,4.19 15.586,4.026 15.646,3.972C15.943,3.697 16.295,3.769 16.637,3.86C16.957,3.946 17.075,4.211 17.125,4.505C17.255,5.259 16.627,6.05 15.858,6.114C14.893,6.194 14.406,5.775 14.353,4.851C14.318,4.25 14.268,3.648 14.188,3.051C14.085,2.296 13.876,2.115 13.154,2.072C12.996,2.063 12.835,2.06 12.678,2.072C11.647,2.152 11.171,3.018 11.586,3.974C11.99,4.905 12.385,5.845 12.695,6.809C12.876,7.374 13.186,7.735 13.688,8C15.012,8.699 16.363,8.555 17.483,7.547C18.286,6.822 18.561,5.952 18.244,4.876C17.957,3.901 17.251,3.418 16.362,3.185C15.991,3.089 15.546,3.194 15.158,3.294C15.014,3.331 14.898,3.606 14.837,3.795C14.792,3.933 14.858,4.107 14.874,4.265M3.806,15.097C4.31,15.097 4.692,15.115 5.073,15.094C7.437,14.962 9.461,14.106 11.001,12.256C11.574,11.566 12.121,10.825 12.248,9.927C12.54,7.865 12.008,5.944 10.968,4.176C10.606,3.561 10.208,2.845 9.283,2.898C9.233,2.901 9.174,2.837 9.127,2.795C8.313,2.065 7.292,1.948 6.278,1.912C3.813,1.824 1.732,2.776 0.015,4.487C-2.068,6.56 -2.709,9.013 -1.661,11.82C-1.32,12.733 -0.8,13.575 0.06,14.043C1.251,14.691 2.452,15.44 3.806,15.097M-2.331,6.962C-2.073,6.39 -1.88,5.961 -1.664,5.483C-2.664,5.098 -3.155,4.382 -3.069,3.346C-3.038,2.979 -2.742,2.61 -2.783,2.267C-2.822,1.929 -3.208,1.643 -3.305,1.296C-3.393,0.981 -3.366,0.592 -3.269,0.274C-2.911,-0.901 -2.054,-1.58 -0.89,-1.834C-0.37,-1.947 0.194,-1.955 0.724,-1.896C1.925,-1.761 2.857,-0.498 2.841,0.898C2.837,1.181 2.786,1.465 2.749,1.828C3.235,1.832 3.662,1.677 4.149,1.495C4.058,1.282 3.955,1.098 3.9,0.901C3.602,-0.168 4.02,-1.172 5.02,-1.666C5.376,-1.843 5.612,-2.082 5.875,-2.37C6.817,-3.404 8.028,-3.84 9.411,-3.58C10.181,-3.435 10.691,-2.875 10.92,-2.128C11.078,-1.614 11.162,-1.075 11.246,-0.541C11.328,-0.019 11.203,0.475 10.92,0.92C10.649,1.348 10.361,1.767 10.033,2.262C10.275,2.488 10.527,2.725 10.83,3.009C10.946,2.854 11.051,2.747 11.118,2.62C11.597,1.702 12.378,1.423 13.356,1.539C13.895,1.603 14.374,1.793 14.537,2.352C14.677,2.832 14.931,2.799 15.326,2.711C16.288,2.495 17.125,2.762 17.901,3.385C19.141,4.381 19.465,6.868 17.702,8.123C16.427,9.031 15.059,9.361 13.583,8.579C13.498,8.534 13.412,8.492 13.323,8.457C13.106,8.368 12.934,8.416 12.916,8.669C12.887,9.05 12.87,9.434 12.896,9.813C12.903,9.922 13.057,10.077 13.174,10.114C14.002,10.38 14.005,10.372 14.417,10.938C15.023,10.855 15.608,10.723 16.196,10.709C16.999,10.69 17.577,11.084 17.922,11.832C18.426,12.922 18.626,14.019 18.037,15.134C17.298,16.529 15.456,17.716 13.298,16.532C12.494,16.092 11.766,15.505 11.039,14.938C10.805,14.756 10.705,14.409 10.506,14.169C10.435,14.083 10.223,14.024 10.131,14.068C10.029,14.116 9.902,14.35 9.939,14.413C10.216,14.881 10.243,15.376 10.172,15.892C10.138,16.143 10.297,16.205 10.5,16.264C11.15,16.454 11.591,16.875 11.868,17.497C12.211,18.268 12.145,18.998 11.656,19.663C10.99,20.57 10.099,21.057 8.943,20.946C8.563,20.91 8.184,20.858 7.809,20.789C5.822,20.425 4.548,18.998 4.505,16.957C4.478,15.684 4.479,15.865 3.241,15.826C2.831,15.813 2.556,15.9 2.53,16.367C2.525,16.456 2.485,16.585 2.419,16.623C1.645,17.073 1.823,17.73 1.969,18.422C2.169,19.375 1.133,20.491 0.086,20.476C-1.496,20.452 -2.48,19.658 -3.17,18.386C-3.367,18.023 -3.371,17.528 -3.375,17.092C-3.391,15.788 -3.043,14.635 -1.878,13.871C-1.616,13.698 -1.461,13.521 -1.685,13.173C-2.036,12.623 -2.069,12.578 -2.543,12.735C-2.724,12.795 -2.901,12.873 -3.085,12.918C-4.144,13.177 -4.896,12.9 -5.434,11.951C-5.643,11.582 -5.806,11.444 -6.237,11.545C-7,11.724 -7.953,11.05 -8.134,9.921C-8.282,8.99 -8.151,8.078 -7.739,7.221C-7.292,6.291 -6.417,6.07 -5.518,5.974C-4.374,5.853 -3.303,6.097 -2.331,6.962" style="fill:rgb(35,31,32);fill-rule:nonzero;"/>
            </g>
            <g transform="matrix(4.16667,0,0,4.16667,1143.36,1184.3)">
                <path d="M0,-10.586C-0.001,-10.524 -0.002,-10.463 -0.003,-10.402C0.253,-10.295 0.532,-10.223 0.761,-10.074C1.019,-9.905 1.226,-9.66 1.469,-9.465C1.522,-9.422 1.664,-9.419 1.709,-9.46C1.759,-9.504 1.784,-9.646 1.749,-9.701C1.473,-10.139 1.083,-10.455 0.59,-10.604C0.412,-10.658 0.198,-10.595 0,-10.586M-3.984,-6.203C-3.641,-6.227 -3.379,-6.623 -3.416,-6.945C-3.442,-7.173 -3.546,-7.382 -3.829,-7.359C-4.125,-7.335 -4.351,-7.003 -4.27,-6.647C-4.23,-6.468 -4.062,-6.319 -3.984,-6.203M0.622,-6.952C0.646,-7.308 0.371,-7.685 0.06,-7.733C-0.213,-7.775 -0.43,-7.547 -0.45,-7.194C-0.475,-6.782 -0.238,-6.496 0.128,-6.493C0.442,-6.492 0.559,-6.699 0.622,-6.952M-5.187,-8.128C-4.968,-8.862 -4.738,-9.503 -4.157,-9.925C-4.105,-9.962 -4.099,-10.167 -4.115,-10.173C-4.251,-10.223 -4.421,-10.307 -4.537,-10.263C-5.262,-9.989 -5.57,-9.066 -5.187,-8.128M1.142,-6.029C1.07,-5.806 0.967,-5.587 0.931,-5.357C0.733,-4.108 0.186,-3.466 -1.028,-3.258C-2.313,-3.04 -3.517,-3.161 -4.292,-4.425C-4.357,-4.533 -4.431,-4.649 -4.53,-4.719C-4.616,-4.779 -4.745,-4.778 -4.854,-4.804C-4.866,-4.689 -4.921,-4.554 -4.881,-4.46C-4.505,-3.568 -3.895,-2.925 -2.936,-2.649C-1.871,-2.341 -0.856,-2.496 0.115,-2.974C1.354,-3.584 1.748,-4.592 1.142,-6.029M-3.194,1.172C-4.548,1.515 -5.749,0.767 -6.939,0.119C-7.8,-0.35 -8.319,-1.192 -8.661,-2.105C-9.708,-4.911 -9.067,-7.364 -6.985,-9.438C-5.268,-11.148 -3.187,-12.101 -0.722,-12.012C0.292,-11.976 1.313,-11.86 2.127,-11.129C2.174,-11.087 2.233,-11.024 2.284,-11.026C3.208,-11.079 3.606,-10.363 3.969,-9.748C5.009,-7.981 5.54,-6.06 5.249,-3.997C5.122,-3.1 4.575,-2.358 4.001,-1.669C2.461,0.182 0.437,1.037 -1.926,1.169C-2.307,1.19 -2.69,1.172 -3.194,1.172" style="fill:rgb(255,221,24);fill-rule:nonzero;"/>
            </g>
            <g transform="matrix(4.16667,0,0,4.16667,1176.17,1153.33)">
                <path d="M0,-2.228C-0.016,-2.386 -0.082,-2.56 -0.037,-2.699C0.024,-2.887 0.14,-3.163 0.284,-3.2C0.672,-3.3 1.117,-3.405 1.488,-3.308C2.377,-3.076 3.083,-2.593 3.37,-1.617C3.687,-0.541 3.412,0.329 2.609,1.053C1.489,2.062 0.138,2.206 -1.186,1.507C-1.688,1.242 -1.998,0.88 -2.179,0.316C-2.489,-0.648 -2.884,-1.588 -3.288,-2.519C-3.703,-3.475 -3.227,-4.341 -2.196,-4.421C-2.039,-4.434 -1.878,-4.431 -1.72,-4.421C-0.998,-4.378 -0.789,-4.197 -0.687,-3.442C-0.606,-2.846 -0.556,-2.244 -0.521,-1.643C-0.468,-0.719 0.019,-0.3 0.984,-0.379C1.753,-0.443 2.381,-1.235 2.251,-1.988C2.201,-2.283 2.083,-2.547 1.763,-2.633C1.421,-2.725 1.069,-2.796 0.771,-2.521C0.712,-2.467 0.66,-2.303 0.687,-2.277C0.761,-2.207 0.88,-2.15 0.981,-2.151C1.101,-2.152 1.221,-2.25 1.341,-2.25C1.625,-2.25 1.81,-2.019 1.776,-1.744C1.695,-1.083 0.893,-0.666 0.33,-1.016C0.189,-1.103 0.071,-1.301 0.038,-1.468C-0.011,-1.712 0.025,-1.974 0.025,-2.228L0,-2.228Z" style="fill:rgb(254,192,34);fill-rule:nonzero;"/>
            </g>
            <g transform="matrix(4.16667,0,0,4.16667,1171.75,1189.35)">
                <path d="M0,-2.699C0,-2.317 -0.043,-1.929 0.011,-1.555C0.083,-1.049 0.217,-0.482 0.759,-0.316C1.328,-0.14 1.956,-0.081 2.485,-0.519C2.885,-0.849 3.223,-1.221 3.325,-1.755C3.423,-2.264 3.299,-2.715 2.905,-3.048C2.546,-3.352 2.132,-3.277 1.736,-3.092C1.565,-3.011 1.383,-2.935 1.243,-2.815C1.174,-2.755 1.165,-2.595 1.18,-2.487C1.186,-2.446 1.347,-2.384 1.418,-2.403C1.631,-2.461 1.831,-2.573 2.044,-2.63C2.506,-2.754 2.855,-2.449 2.819,-1.97C2.78,-1.446 2.163,-0.815 1.632,-0.756C0.94,-0.679 0.612,-0.928 0.558,-1.635C0.524,-2.077 0.574,-2.525 0.557,-2.97C0.541,-3.384 0.727,-3.643 1.104,-3.756C1.437,-3.856 1.781,-3.976 2.122,-3.98C2.8,-3.987 3.345,-3.732 3.644,-3.051C3.986,-2.27 4.177,-1.483 3.902,-0.649C3.358,0.996 1.466,1.759 -0.14,0.913C-0.921,0.501 -1.638,-0.052 -2.333,-0.603C-2.924,-1.071 -2.929,-1.67 -2.484,-2.25C-2.137,-2.703 -1.824,-3.183 -1.492,-3.648C-1.344,-3.854 -1.222,-4.103 -1.024,-4.242C-0.838,-4.374 -0.562,-4.458 -0.338,-4.435C-0.038,-4.403 0.013,-4.111 0.014,-3.842C0.015,-3.461 0.014,-3.08 0.014,-2.699L0,-2.699Z" style="fill:rgb(254,192,34);fill-rule:nonzero;"/>
            </g>
            <g transform="matrix(4.16667,0,0,4.16667,1151.82,1188.3)">
                <path d="M0,5.462C-0.499,5.378 -1.004,5.319 -1.496,5.202C-2.896,4.87 -3.823,3.712 -3.876,2.266C-3.88,2.17 -3.878,2.075 -3.879,1.98C-3.886,0.908 -3.88,0.941 -2.833,0.745C-2.12,0.612 -1.427,0.375 -0.727,0.178C-0.575,0.135 -0.435,0.034 -0.282,0.013C-0.048,-0.019 0.265,-0.1 0.415,0.012C0.692,0.219 0.653,0.592 0.523,0.891C0.425,1.118 0.26,1.325 0.093,1.512C-0.118,1.748 -0.369,1.948 -0.588,2.177C-0.742,2.337 -0.908,2.5 -1.004,2.693C-1.227,3.136 -1.304,3.623 -1.022,4.054C-0.767,4.444 -0.313,4.436 0.105,4.408C1.027,4.346 1.454,3.846 1.337,2.983C1.281,2.569 0.953,2.323 0.526,2.406C0.42,2.426 0.281,2.53 0.252,2.624C0.227,2.705 0.312,2.879 0.395,2.922C0.691,3.073 0.898,3.251 0.645,3.575C0.402,3.884 -0.312,3.975 -0.464,3.704C-0.568,3.518 -0.602,3.155 -0.489,3.012C-0.181,2.62 0.183,2.241 0.599,1.972C0.957,1.74 1.395,1.829 1.766,2.09C2.537,2.633 2.73,3.696 2.153,4.447C1.619,5.143 0.935,5.562 0,5.462" style="fill:rgb(254,192,34);fill-rule:nonzero;"/>
            </g>
            <g transform="matrix(4.16667,0,0,4.16667,1082.38,1168.2)">
                <path d="M0,-1.045C0.038,-1.25 0.107,-1.622 0.176,-1.993C0.335,-2.853 0.888,-3.326 1.71,-3.48C2.805,-3.685 3.86,-3.658 4.751,-2.837C5.009,-2.599 5.155,-2.385 5.038,-2.014C4.68,-0.878 4.841,0.238 5.178,1.355C5.383,2.033 5.248,2.207 4.583,2.348C3.207,2.64 2.353,1.824 2.551,0.419C2.608,0.014 2.694,-0.403 2.651,-0.803C2.592,-1.359 1.927,-1.729 1.342,-1.608C0.794,-1.496 0.482,-0.941 0.657,-0.349C0.698,-0.209 0.806,-0.052 0.928,0.012C1,0.05 1.244,-0.057 1.263,-0.135C1.297,-0.274 1.169,-0.453 1.201,-0.593C1.239,-0.754 1.368,-1.005 1.474,-1.014C1.658,-1.029 1.914,-0.94 2.034,-0.802C2.234,-0.57 2.095,0.532 1.859,0.743C1.579,0.994 1.24,1.044 0.885,0.888C0.406,0.678 0.159,0.284 0.056,-0.205C0.011,-0.42 0.024,-0.647 0,-1.045" style="fill:rgb(254,192,34);fill-rule:nonzero;"/>
            </g>
            <g transform="matrix(4.16667,0,0,4.16667,1140.42,1129.01)">
                <path d="M0,-2.704C0.724,-3.426 1.587,-3.831 2.615,-3.813C3.313,-3.801 3.857,-3.432 4.065,-2.765C4.252,-2.165 4.374,-1.526 4.397,-0.9C4.425,-0.155 3.93,0.407 3.447,0.907C3.292,1.068 2.898,1.127 2.662,1.061C1.513,0.741 0.347,0.695 -0.833,0.678C-1.58,0.668 -1.909,0.251 -1.872,-0.499C-1.839,-1.158 -1.394,-1.708 -0.756,-1.886C-0.272,-2.021 0.112,-1.882 0.429,-1.497C0.67,-1.204 0.896,-0.881 1.192,-0.654C1.968,-0.059 2.899,-0.447 3.06,-1.401C3.135,-1.851 2.955,-2.261 2.592,-2.463C2.19,-2.687 1.583,-2.595 1.279,-2.246C1.233,-2.193 1.246,-2.073 1.261,-1.99C1.266,-1.96 1.369,-1.919 1.414,-1.931C1.536,-1.963 1.653,-2.016 1.768,-2.069C2.066,-2.209 2.341,-2.192 2.509,-1.888C2.663,-1.61 2.581,-1.332 2.388,-1.092C2.23,-0.896 2.024,-0.82 1.798,-0.947C1.607,-1.054 1.414,-1.178 1.263,-1.333C0.847,-1.761 0.453,-2.209 0,-2.704" style="fill:rgb(254,192,34);fill-rule:nonzero;"/>
            </g>
            <g transform="matrix(4.16667,0,0,4.16667,1123.96,1136.67)">
                <path d="M0,-1.547C-0.001,-0.838 -0.248,-0.194 -1.045,0.276C-1.801,0.723 -2.452,1.356 -3.121,1.94C-3.694,2.44 -4.203,2.386 -4.589,1.728C-4.913,1.177 -4.867,0.637 -4.437,0.151C-4.002,-0.34 -3.514,-0.716 -2.793,-0.656C-2.547,-0.635 -2.28,-0.679 -2.043,-0.758C-1.303,-1.005 -1.157,-1.676 -1.703,-2.236C-2.477,-3.032 -3.437,-3.014 -3.972,-2.189C-4.039,-2.086 -4.09,-1.957 -4.099,-1.836C-4.105,-1.76 -4.039,-1.646 -3.971,-1.606C-3.916,-1.574 -3.787,-1.6 -3.733,-1.648C-3.642,-1.73 -3.589,-1.854 -3.51,-1.952C-3.001,-2.585 -2.406,-2.278 -2.034,-1.902C-1.797,-1.661 -1.882,-1.341 -2.211,-1.23C-2.358,-1.18 -2.522,-1.163 -2.678,-1.164C-3.253,-1.169 -3.816,-1.175 -4.33,-0.832C-4.628,-0.633 -4.926,-0.773 -5.015,-1.089C-5.105,-1.408 -5.165,-1.785 -5.079,-2.092C-4.922,-2.65 -4.565,-3.105 -4.064,-3.434C-3.424,-3.855 -2.699,-3.987 -1.969,-3.966C-0.859,-3.933 -0.01,-2.897 0,-1.547" style="fill:rgb(254,192,34);fill-rule:nonzero;"/>
            </g>
            <g transform="matrix(4.16667,0,0,4.16667,1114.19,1197.87)">
                <path d="M0,0.034C0.159,0.044 0.318,0.067 0.476,0.062C1.189,0.04 1.491,0.321 1.461,1.153C1.417,2.408 0.504,3.054 -0.925,2.58C-2.224,2.149 -2.942,0.879 -2.819,-0.489C-2.73,-1.489 -2.377,-2.349 -1.477,-2.883C-1.316,-2.978 -1.033,-3.02 -0.879,-2.943C-0.03,-2.516 0.801,-2.05 1.63,-1.584C1.868,-1.45 2.187,-1.342 2.106,-0.964C2.043,-0.667 1.675,-0.43 1.291,-0.424C0.665,-0.413 0.037,-0.425 -0.588,-0.392C-0.833,-0.38 -1.109,-0.327 -1.306,-0.196C-1.661,0.041 -1.894,0.402 -1.854,0.854C-1.81,1.346 -1.415,1.532 -1.018,1.665C-0.279,1.915 0.339,1.698 0.637,1.128C0.792,0.834 0.78,0.573 0.504,0.37C0.415,0.305 0.28,0.301 0.166,0.269C0.154,0.378 0.118,0.492 0.136,0.596C0.211,1.034 0.079,1.264 -0.301,1.323C-0.69,1.384 -1.284,1.096 -1.34,0.819C-1.419,0.424 -1.028,0.057 -0.477,0.018C-0.318,0.007 -0.159,0.017 0,0.017L0,0.034Z" style="fill:rgb(254,192,34);fill-rule:nonzero;"/>
            </g>
            <g transform="matrix(4.16667,0,0,4.16667,1148.12,1174.54)">
                <path d="M0,-3.688C0.606,-2.251 0.211,-1.243 -1.027,-0.633C-1.999,-0.155 -3.013,0 -4.078,-0.307C-5.037,-0.584 -5.647,-1.227 -6.023,-2.118C-6.063,-2.213 -6.008,-2.347 -5.997,-2.463C-5.887,-2.437 -5.758,-2.438 -5.672,-2.377C-5.573,-2.308 -5.5,-2.191 -5.434,-2.084C-4.659,-0.819 -3.455,-0.698 -2.17,-0.917C-0.956,-1.125 -0.409,-1.767 -0.211,-3.016C-0.175,-3.246 -0.072,-3.464 0,-3.688" style="fill:rgb(35,31,32);fill-rule:nonzero;"/>
            </g>
            <g transform="matrix(3.69111,1.93309,1.93309,-3.69111,1119.81,1149.23)">
                <path d="M0.546,-0.039C-0.229,0.614 -0.385,1.575 0.131,2.155C0.212,2.246 0.403,2.251 0.546,2.269C0.563,2.273 0.652,2.087 0.624,2.031C0.306,1.387 0.398,0.713 0.546,-0.039" style="fill:rgb(35,31,32);fill-rule:nonzero;"/>
            </g>
            <g transform="matrix(0.921127,-4.06357,-4.06357,-0.921127,1144.95,1152.56)">
                <path d="M-0.595,-0.381C-0.854,-0.376 -1.083,-0.308 -1.151,-0C-1.23,0.357 -1.002,0.651 -0.595,0.718C-0.246,0.776 0.024,0.616 0.042,0.34C0.064,0.026 -0.243,-0.326 -0.595,-0.381" style="fill:rgb(35,31,32);fill-rule:nonzero;"/>
            </g>
            <g transform="matrix(4.12971,0.553724,0.553724,-4.12971,1126.44,1158.36)">
                <path d="M0.079,-0.011C-0.014,0.094 -0.2,0.219 -0.263,0.39C-0.391,0.733 -0.212,1.093 0.079,1.156C0.357,1.216 0.488,1.023 0.544,0.8C0.623,0.485 0.416,0.059 0.079,-0.011" style="fill:rgb(35,31,32);fill-rule:nonzero;"/>
            </g>
            <g transform="matrix(4.16667,0,0,4.16667,1143.36,1144.75)">
                <path d="M0,-1.095C0.198,-1.104 0.412,-1.167 0.59,-1.113C1.083,-0.964 1.473,-0.648 1.749,-0.21C1.784,-0.155 1.759,-0.013 1.709,0.031C1.664,0.072 1.522,0.069 1.469,0.026C1.226,-0.169 1.019,-0.414 0.761,-0.583C0.532,-0.732 0.253,-0.804 -0.003,-0.911C-0.002,-0.972 -0.001,-1.033 0,-1.095" style="fill:rgb(35,31,32);fill-rule:nonzero;"/>
            </g>
        </g>
    </g>
</svg>
