<?xml version="1.0" encoding="UTF-8" standalone="no"?>
<!DOCTYPE svg PUBLIC "-//W3C//DTD SVG 1.1//EN" "http://www.w3.org/Graphics/SVG/1.1/DTD/svg11.dtd">
<svg width="100%" height="100%" viewBox="0 0 645 194" version="1.1" xmlns="http://www.w3.org/2000/svg" xmlns:xlink="http://www.w3.org/1999/xlink" xml:space="preserve" xmlns:serif="http://www.serif.com/" style="fill-rule:evenodd;clip-rule:evenodd;stroke-linejoin:round;stroke-miterlimit:2;">
    <g transform="matrix(1,0,0,1,-582,-1185)">
        <g transform="matrix(1,0,0,1,0,-122.749)">
            <g transform="matrix(4.16667,0,0,4.16667,633.261,1323.75)">
                <path d="M0,40.439C-0.481,40.585 -0.727,40.694 -0.982,40.731C-1.731,40.837 -2.486,40.908 -3.236,41.01C-3.614,41.061 -4.175,41.017 -4.091,41.581C-4.023,42.036 -3.534,41.904 -3.182,41.855C-1.202,41.579 0.787,41.457 2.787,41.505C3.224,41.516 3.676,41.521 4.098,41.426C7.7,40.617 11.37,40.491 15.033,40.271C18.377,40.069 21.718,39.816 25.058,39.558C25.944,39.489 26.588,39.138 26.875,38.136C27.122,37.273 27.672,36.497 28.091,35.683C28.188,35.494 28.297,35.311 28.466,35.008C28.13,35.008 27.936,34.994 27.744,35.011C25.56,35.201 23.376,35.397 21.192,35.59C20.476,35.653 19.752,35.662 19.045,35.779C15.587,36.354 12.127,36.921 8.68,37.56C5.222,38.201 1.743,38.597 -1.771,38.696C-2.088,38.705 -2.41,38.738 -2.72,38.805C-3.189,38.906 -3.424,39.216 -3.499,39.76C-2.811,39.639 -2.227,39.527 -1.639,39.437C-1.009,39.338 -0.375,39.261 0.256,39.172C0.989,39.068 1.169,39.083 2.164,39.403C0.98,39.564 0.041,39.668 -0.891,39.824C-1.821,39.979 -2.785,40.014 -3.656,40.447C-2.514,40.537 -1.398,40.05 0,40.439M-5.095,41.785C-4.954,41.532 -4.899,41.468 -4.881,41.395C-4.583,40.196 -4.348,38.977 -3.35,38.092C-3.208,37.966 -3.154,37.645 -3.186,37.433C-3.35,36.333 -3.517,35.231 -3.753,34.144C-4.169,32.239 -4.697,30.357 -5.07,28.444C-5.75,24.966 -6.364,21.476 -6.979,17.986C-7.491,15.083 -8.022,12.182 -7.953,9.211C-7.937,8.541 -8.092,7.868 -8.146,7.194C-8.25,5.886 -8.343,4.577 -8.428,3.267C-8.449,2.95 -8.408,2.629 -8.417,2.31C-8.436,1.719 -8.694,1.519 -9.252,1.718C-10.013,1.989 -10.437,2.566 -10.746,3.314C-11.644,5.492 -11.388,7.786 -11.312,10.009C-11.226,12.503 -10.724,14.985 -10.379,17.469C-9.986,20.308 -9.632,23.154 -9.141,25.976C-8.691,28.562 -8.142,31.134 -7.524,33.686C-6.934,36.119 -6.203,38.519 -5.521,40.929C-5.45,41.181 -5.287,41.406 -5.095,41.785M-7.738,3.597C-7.762,3.599 -7.786,3.602 -7.811,3.605C-7.716,4.475 -7.621,5.345 -7.525,6.215C-7.408,7.284 -7.268,8.352 -7.177,9.424C-7.052,10.893 -7.04,12.376 -6.841,13.834C-6.562,15.887 -6.18,17.926 -5.802,19.964C-5.097,23.766 -4.385,27.565 -3.632,31.357C-3.338,32.84 -2.908,34.296 -2.577,35.773C-2.455,36.315 -2.446,36.881 -2.371,37.435C-2.314,37.852 -2.064,38.07 -1.637,38.063C-1.438,38.06 -1.239,38.045 -1.041,38.026C1.817,37.759 4.673,37.497 7.499,36.945C10.588,36.342 13.697,35.835 16.793,35.267C18.677,34.92 20.558,34.611 22.48,34.526C24.231,34.449 25.978,34.229 27.722,34.038C28.393,33.964 29.055,33.803 29.719,33.669C30.051,33.602 30.169,33.386 30.104,33.051C29.764,31.292 29.478,29.521 29.079,27.775C28.626,25.795 27.945,23.86 27.59,21.866C26.808,17.474 26.168,13.056 25.469,8.649C25.194,6.918 24.955,5.178 24.625,3.457C24.354,2.049 23.984,0.66 23.637,-0.732C23.506,-1.252 23.191,-1.52 22.59,-1.465C21.08,-1.325 19.564,-1.241 18.051,-1.125C15.346,-0.918 12.643,-0.69 9.937,-0.498C8.105,-0.368 6.27,-0.297 4.438,-0.174C3.722,-0.126 3.008,-0.024 2.297,0.078C-0.386,0.466 -3.068,0.859 -5.75,1.261C-6.375,1.355 -6.993,1.488 -7.615,1.604C-7.656,2.228 -7.697,2.852 -7.737,3.477C-7.74,3.517 -7.738,3.557 -7.738,3.597M-12.145,7.72C-12.075,6.101 -11.882,4.53 -11.314,3.008C-10.846,1.752 -9.958,1.084 -8.642,0.968C-7.016,0.825 -5.39,0.657 -3.774,0.429C-1.13,0.054 1.501,-0.421 4.148,-0.771C5.728,-0.98 7.329,-1.037 8.92,-1.153C12.063,-1.384 15.206,-1.61 18.348,-1.835C19.782,-1.938 21.218,-2.013 22.648,-2.146C23.413,-2.218 23.897,-1.909 24.102,-1.213C24.541,0.277 25.042,1.759 25.328,3.28C25.813,5.863 26.138,8.476 26.561,11.071C26.759,12.29 27.047,13.494 27.259,14.711C27.746,17.498 28.142,20.302 28.71,23.072C29.102,24.981 29.777,26.831 30.217,28.732C30.584,30.32 30.81,31.943 31.065,33.556C31.167,34.195 31.046,34.275 30.365,34.558C30.048,34.69 29.733,34.892 29.495,35.137C28.5,36.155 27.793,37.363 27.436,38.736C27.235,39.505 26.771,39.877 26.058,40.039C25.708,40.118 25.358,40.218 25.003,40.242C20.345,40.556 15.683,40.811 11.03,41.182C8.769,41.362 6.524,41.751 4.271,42.048C3.956,42.089 3.644,42.168 3.327,42.183C0.977,42.293 -1.375,42.391 -3.726,42.493C-3.925,42.502 -4.125,42.501 -4.323,42.523C-5.5,42.657 -5.929,42.424 -6.272,41.313C-6.742,39.791 -7.166,38.254 -7.596,36.721C-7.887,35.685 -8.197,34.653 -8.427,33.603C-8.932,31.308 -9.442,29.012 -9.854,26.7C-10.281,24.308 -10.637,21.902 -10.945,19.492C-11.273,16.922 -11.517,14.341 -11.782,11.764C-11.92,10.418 -12.025,9.068 -12.145,7.72" style="fill:rgb(35,31,32);fill-rule:nonzero;"/>
            </g>
            <g transform="matrix(4.16667,0,0,4.16667,601.02,1461.06)">
                <path d="M0,-29.357C0,-29.397 -0.002,-29.437 0,-29.477C0.041,-30.102 0.082,-30.726 0.123,-31.35C0.745,-31.465 1.363,-31.599 1.988,-31.692C4.669,-32.094 7.352,-32.488 10.035,-32.876C10.746,-32.978 11.46,-33.08 12.176,-33.128C14.008,-33.251 15.843,-33.322 17.674,-33.452C20.38,-33.644 23.084,-33.872 25.789,-34.079C27.302,-34.194 28.817,-34.278 30.328,-34.419C30.929,-34.474 31.244,-34.206 31.375,-33.686C31.722,-32.294 32.092,-30.905 32.362,-29.497C32.692,-27.775 32.932,-26.036 33.207,-24.304C33.906,-19.898 34.545,-15.48 35.328,-11.088C35.683,-9.093 36.364,-7.159 36.817,-5.179C37.216,-3.433 37.501,-1.662 37.842,0.097C37.907,0.433 37.789,0.648 37.457,0.716C36.793,0.85 36.131,1.011 35.459,1.084C33.715,1.275 31.969,1.495 30.218,1.572C28.296,1.657 26.415,1.966 24.531,2.313C21.435,2.882 18.326,3.388 15.236,3.992C12.411,4.543 9.555,4.805 6.697,5.073C6.499,5.091 6.299,5.106 6.101,5.109C5.674,5.117 5.424,4.898 5.367,4.481C5.292,3.928 5.283,3.361 5.161,2.819C4.83,1.343 4.4,-0.113 4.105,-1.596C3.353,-5.388 2.641,-9.188 1.936,-12.989C1.558,-15.027 1.175,-17.067 0.896,-19.12C0.698,-20.578 0.686,-22.061 0.561,-23.53C0.47,-24.602 0.33,-25.669 0.212,-26.739L-0.073,-29.349C-0.048,-29.352 -0.024,-29.355 0,-29.357" style="fill:rgb(155,180,221);fill-rule:nonzero;"/>
            </g>
            <g transform="matrix(4.16667,0,0,4.16667,612.033,1330.08)">
                <path d="M0,40.266C-0.192,39.888 -0.355,39.662 -0.426,39.411C-1.108,37 -1.839,34.6 -2.429,32.167C-3.047,29.616 -3.596,27.043 -4.046,24.457C-4.537,21.635 -4.891,18.789 -5.285,15.951C-5.629,13.467 -6.131,10.985 -6.217,8.49C-6.293,6.267 -6.549,3.974 -5.651,1.796C-5.342,1.047 -4.918,0.471 -4.158,0.199C-3.599,0 -3.341,0.2 -3.323,0.791C-3.313,1.11 -3.354,1.431 -3.333,1.748C-3.249,3.058 -3.155,4.367 -3.051,5.676C-2.998,6.349 -2.842,7.022 -2.858,7.692C-2.928,10.663 -2.396,13.564 -1.885,16.467C-1.27,19.957 -0.655,23.448 0.024,26.925C0.398,28.838 0.925,30.72 1.341,32.625C1.578,33.712 1.745,34.814 1.909,35.914C1.941,36.126 1.887,36.447 1.745,36.573C0.747,37.458 0.511,38.677 0.214,39.876C0.196,39.949 0.141,40.013 0,40.266" style="fill:rgb(140,198,63);fill-rule:nonzero;"/>
            </g>
            <g transform="matrix(4.16667,0,0,4.16667,633.261,1476.22)">
                <path d="M0,3.848C-1.398,3.459 -2.514,3.946 -3.656,3.856C-2.785,3.423 -1.821,3.388 -0.891,3.233C0.041,3.077 0.98,2.973 2.164,2.812C1.169,2.492 0.989,2.477 0.256,2.581C-0.375,2.67 -1.009,2.747 -1.639,2.846C-2.227,2.936 -2.811,3.048 -3.499,3.169C-3.424,2.625 -3.189,2.315 -2.72,2.214C-2.41,2.147 -2.088,2.114 -1.771,2.105C1.743,2.006 5.222,1.61 8.68,0.969C12.127,0.33 15.587,-0.237 19.045,-0.812C19.752,-0.929 20.476,-0.938 21.192,-1.001C23.376,-1.194 25.56,-1.39 27.744,-1.58C27.936,-1.597 28.13,-1.583 28.466,-1.583C28.297,-1.28 28.188,-1.097 28.091,-0.908C27.672,-0.094 27.122,0.682 26.875,1.545C26.588,2.547 25.944,2.898 25.058,2.967C21.718,3.225 18.377,3.478 15.033,3.68C11.37,3.9 7.7,4.026 4.098,4.835C3.676,4.93 3.224,4.925 2.787,4.914C0.787,4.866 -1.202,4.988 -3.182,5.264C-3.534,5.313 -4.023,5.445 -4.091,4.99C-4.175,4.426 -3.614,4.47 -3.236,4.419C-2.486,4.317 -1.731,4.246 -0.982,4.14C-0.727,4.103 -0.481,3.994 0,3.848" style="fill:rgb(255,252,217);fill-rule:nonzero;"/>
            </g>
            <g transform="matrix(4.16667,0,0,4.16667,0,0)">
                <g opacity="0.2">
                    <g transform="matrix(1,0,0,1,174.909,359.558)">
                        <path d="M0,-43.713C-4.977,-42.316 -9.953,-40.919 -14.93,-39.521C-16.667,-39.033 -18.452,-38.522 -19.877,-37.416C-21.177,-36.407 -22.079,-34.978 -22.864,-33.532C-26.419,-26.995 -28.135,-19.471 -27.767,-12.039C-27.635,-9.366 -26.987,-6.32 -24.641,-5.035C-23.098,-4.19 -21.166,-4.334 -19.608,-3.516C-20.934,-3.247 -22.26,-2.977 -23.586,-2.707C-23.903,-2.643 -24.235,-2.571 -24.482,-2.362C-24.721,-2.159 -24.846,-1.856 -25.011,-1.588C-25.702,-0.469 -27.278,0 -28.47,-0.559C-30.628,-8.692 -32.313,-16.65 -33.712,-24.947C-34.277,-28.296 -34.843,-31.673 -34.718,-35.067C-34.67,-36.37 -34.507,-37.708 -33.87,-38.844C-33.233,-39.981 -32.014,-40.618 -30.726,-40.814C-18.778,-42.628 -10.177,-42.933 0,-43.713" style="fill:rgb(59,35,20);fill-rule:nonzero;"/>
                    </g>
                </g>
            </g>
            <g transform="matrix(4.16667,0,0,4.16667,658.861,1409.94)">
                <path d="M0,7.84C0,7.813 0.001,7.787 0.002,7.76C0.275,7.736 0.551,7.722 0.822,7.68C0.891,7.669 1.007,7.55 0.996,7.512C0.966,7.411 0.897,7.292 0.81,7.246C0.71,7.193 0.573,7.203 0.452,7.2C-0.618,7.18 -1.687,7.163 -2.757,7.148C-2.847,7.147 -2.942,7.157 -3.025,7.189C-3.07,7.205 -3.116,7.274 -3.122,7.323C-3.128,7.375 -3.1,7.465 -3.063,7.481C-2.869,7.563 -2.671,7.673 -2.468,7.689C-1.646,7.756 -0.823,7.792 0,7.84M-1.316,4.838C-1.318,4.814 -1.321,4.79 -1.323,4.765C-1.628,4.793 -1.935,4.817 -2.24,4.847C-2.576,4.881 -2.912,4.91 -3.245,4.962C-3.314,4.973 -3.407,5.068 -3.42,5.137C-3.43,5.192 -3.346,5.286 -3.282,5.326C-3.207,5.373 -3.106,5.4 -3.019,5.398C-1.824,5.367 -0.629,5.335 0.565,5.288C0.71,5.282 0.855,5.2 0.993,5.137C1.042,5.115 1.109,5.036 1.099,5.002C1.077,4.923 1.027,4.814 0.964,4.793C0.792,4.736 0.604,4.68 0.426,4.691C-0.156,4.724 -0.735,4.787 -1.316,4.838M0.832,3.419C0.888,3.381 1.005,3.302 1.122,3.223C1.035,3.115 0.959,2.929 0.858,2.914C0.227,2.822 -0.409,2.723 -1.044,2.715C-1.776,2.706 -2.51,2.786 -3.243,2.834C-3.498,2.851 -3.813,2.661 -3.982,2.998C-4.083,3.199 -3.739,3.402 -3.192,3.405C-2.305,3.41 -1.418,3.373 -0.532,3.369C-0.105,3.367 0.321,3.399 0.832,3.419M-1.581,0.874C-1.58,0.888 -1.579,0.903 -1.579,0.917C-2.156,0.968 -2.735,1.005 -3.31,1.078C-3.512,1.104 -3.708,1.209 -3.893,1.305C-3.918,1.319 -3.888,1.517 -3.831,1.585C-3.789,1.635 -3.659,1.623 -3.569,1.619C-2.167,1.557 -0.766,1.494 0.636,1.426C0.787,1.419 0.942,1.395 1.083,1.345C1.153,1.321 1.251,1.208 1.239,1.156C1.216,1.056 1.144,0.922 1.059,0.89C0.892,0.827 0.701,0.798 0.521,0.801C-0.18,0.816 -0.88,0.848 -1.581,0.874M12.541,-5.448C12.578,-5.035 12.606,-4.704 12.636,-4.373C13.054,0.244 13.441,4.864 13.913,9.476C14.011,10.432 13.645,10.992 12.935,11.45C12.654,11.631 12.341,11.778 12.022,11.881C11.089,12.181 10.15,12.443 9.162,12.542C7.79,12.679 6.43,12.931 5.059,13.085C3.317,13.281 1.568,13.288 -0.181,13.174C-1.118,13.113 -1.979,12.797 -2.782,12.325C-3.479,11.916 -3.74,11.277 -3.808,10.484C-4.133,6.722 -4.49,2.963 -4.835,-0.798C-4.899,-1.501 -4.966,-2.204 -5.023,-2.908C-5.04,-3.115 -5.024,-3.324 -5.023,-3.547C-4.89,-3.559 -4.798,-3.59 -4.718,-3.571C-2.187,-2.974 0.391,-3.037 2.964,-3.02C5.511,-3.003 7.958,-3.505 10.324,-4.414C11.035,-4.688 11.709,-5.057 12.541,-5.448" style="fill:white;fill-rule:nonzero;"/>
            </g>
            <g transform="matrix(4.16667,0,0,4.16667,696.589,1403.6)">
                <path d="M0,12.847L-8.085,13.564C-9.776,13.715 -11.283,12.454 -11.433,10.763L-12.287,1.13C-12.325,0.709 -12.011,0.333 -11.589,0.296L1.113,-0.831C1.534,-0.868 1.909,-0.554 1.947,-0.132L2.801,9.5C2.952,11.191 1.691,12.697 0,12.847" style="fill:rgb(215,223,34);fill-rule:nonzero;"/>
            </g>
            <g transform="matrix(4.16667,0,0,4.16667,668.619,1464.59)">
                <path d="M0,-24.076C-0.005,-24.11 -0.01,-24.144 -0.015,-24.178C-1.833,-23.915 -3.652,-23.649 -5.471,-23.392C-6.715,-23.216 -7.664,-22.493 -8.565,-21.702C-8.756,-21.534 -8.898,-21.245 -8.943,-20.991C-9.043,-20.422 -9.082,-19.84 -9.118,-19.261C-9.147,-18.797 -8.915,-18.477 -8.556,-18.173C-7.538,-17.313 -6.312,-17.086 -5.058,-16.942C-4.359,-16.862 -3.652,-16.832 -2.948,-16.825C-1.265,-16.806 0.421,-16.774 2.104,-16.828C2.893,-16.854 3.674,-17.078 4.462,-17.192C6.057,-17.422 7.571,-17.906 8.972,-18.693C9.55,-19.018 10.065,-19.472 10.566,-19.914C10.758,-20.083 10.881,-20.373 10.947,-20.63C11.125,-21.324 11.211,-22.094 10.858,-22.696C10.522,-23.266 9.83,-23.538 9.159,-23.703C8.921,-23.761 8.68,-23.815 8.438,-23.842C7.189,-23.981 5.94,-24.112 4.691,-24.244C4.6,-24.253 4.507,-24.247 4.415,-24.244C2.943,-24.188 1.472,-24.132 0,-24.076M10.199,-18.562C9.368,-18.171 8.693,-17.802 7.982,-17.529C5.616,-16.619 3.169,-16.117 0.622,-16.134C-1.951,-16.152 -4.528,-16.089 -7.06,-16.685C-7.14,-16.704 -7.232,-16.673 -7.365,-16.661C-7.366,-16.438 -7.381,-16.229 -7.365,-16.022C-7.308,-15.319 -7.241,-14.616 -7.177,-13.912C-6.832,-10.152 -6.475,-6.392 -6.15,-2.63C-6.082,-1.837 -5.821,-1.199 -5.124,-0.789C-4.321,-0.317 -3.459,-0.001 -2.522,0.06C-0.774,0.174 0.976,0.167 2.717,-0.029C4.088,-0.183 5.448,-0.435 6.82,-0.572C7.809,-0.671 8.747,-0.933 9.681,-1.233C9.999,-1.336 10.313,-1.483 10.593,-1.664C11.303,-2.122 11.669,-2.682 11.571,-3.639C11.1,-8.25 10.712,-12.87 10.294,-17.487C10.265,-17.818 10.236,-18.149 10.199,-18.562M-7.294,-9.153C-7.503,-11.508 -7.726,-13.863 -7.911,-16.22C-7.952,-16.752 -8.085,-17.18 -8.574,-17.431C-9.621,-17.97 -9.742,-18.921 -9.704,-19.942C-9.697,-20.125 -9.619,-20.308 -9.631,-20.488C-9.743,-22.104 -8.564,-22.784 -7.423,-23.419C-6.82,-23.754 -6.105,-23.935 -5.418,-24.065C-3.338,-24.459 -1.25,-24.82 0.885,-24.711C1.281,-24.691 1.681,-24.753 2.08,-24.776C3.489,-24.856 4.895,-24.89 6.299,-24.659C7.265,-24.499 8.242,-24.411 9.214,-24.289C9.979,-24.194 10.566,-23.727 11.174,-23.318C11.564,-23.055 11.666,-22.606 11.653,-22.173C11.626,-21.232 11.718,-20.267 11.059,-19.441C10.896,-19.236 10.883,-18.863 10.9,-18.573C10.968,-17.439 11.071,-16.307 11.17,-15.175C11.432,-12.177 11.707,-9.18 11.959,-6.18C12.047,-5.141 12.074,-4.097 12.153,-3.056C12.197,-2.492 12.002,-2.058 11.625,-1.645C10.854,-0.801 9.825,-0.467 8.779,-0.247C6.558,0.219 4.317,0.621 2.044,0.725C0.577,0.792 -0.9,0.814 -2.365,0.731C-3.834,0.648 -5.173,0.173 -6.24,-0.947C-6.553,-1.274 -6.659,-1.587 -6.693,-1.992C-6.88,-4.225 -7.075,-6.459 -7.268,-8.693C-7.281,-8.846 -7.295,-8.998 -7.308,-9.151C-7.304,-9.152 -7.299,-9.152 -7.294,-9.153" style="fill:rgb(35,31,32);fill-rule:nonzero;"/>
            </g>
            <g transform="matrix(4.16667,0,0,4.16667,648.245,1384.71)">
                <path d="M0,-2.689C-0.01,-2.72 -0.02,-2.751 -0.03,-2.783C-0.46,-2.646 -0.906,-2.546 -1.315,-2.363C-1.836,-2.13 -2.139,-1.518 -2.042,-0.996C-1.944,-0.463 -1.533,-0.25 -1.067,-0.139C0.553,0.248 2.208,0.362 3.863,0.343C5.242,0.327 6.618,0.137 7.998,0.072C9.37,0.007 10.652,-0.366 11.903,-0.898C12.634,-1.208 13.208,-1.705 13.645,-2.353C13.958,-2.82 13.782,-3.433 13.275,-3.676C13.164,-3.73 12.984,-3.689 12.857,-3.638C12.818,-3.622 12.801,-3.385 12.856,-3.326C13.267,-2.887 13.044,-2.534 12.706,-2.225C12.437,-1.979 12.15,-1.717 11.823,-1.576C10.698,-1.091 9.568,-0.607 8.313,-0.545C6.627,-0.463 4.942,-0.28 3.258,-0.292C1.917,-0.301 0.577,-0.528 -0.761,-0.682C-1.092,-0.72 -1.466,-0.809 -1.538,-1.215C-1.612,-1.634 -1.339,-1.908 -1.015,-2.111C-0.685,-2.318 -0.339,-2.498 0,-2.689M4.89,-4.906C6.361,-4.962 7.833,-5.019 9.305,-5.074C9.397,-5.078 9.49,-5.084 9.581,-5.074C10.83,-4.942 12.079,-4.812 13.327,-4.672C13.57,-4.645 13.811,-4.591 14.049,-4.533C14.719,-4.369 15.412,-4.096 15.748,-3.526C16.101,-2.924 16.014,-2.154 15.836,-1.46C15.771,-1.203 15.647,-0.913 15.456,-0.745C14.955,-0.302 14.44,0.152 13.861,0.477C12.461,1.264 10.946,1.748 9.352,1.978C8.563,2.091 7.782,2.315 6.993,2.341C5.311,2.395 3.625,2.364 1.941,2.345C1.238,2.337 0.531,2.308 -0.168,2.228C-1.422,2.084 -2.648,1.857 -3.666,0.997C-4.025,0.693 -4.257,0.373 -4.229,-0.091C-4.192,-0.67 -4.153,-1.252 -4.053,-1.821C-4.009,-2.076 -3.866,-2.365 -3.675,-2.532C-2.774,-3.323 -1.826,-4.046 -0.582,-4.222C1.238,-4.48 3.056,-4.746 4.875,-5.008C4.88,-4.974 4.885,-4.94 4.89,-4.906" style="fill:rgb(232,242,212);fill-rule:nonzero;"/>
            </g>
            <g transform="matrix(4.16667,0,0,4.16667,652.273,1416.44)">
                <path d="M0,-0.685C0.701,-0.71 1.401,-0.743 2.102,-0.758C2.282,-0.761 2.473,-0.732 2.64,-0.669C2.725,-0.637 2.797,-0.503 2.82,-0.402C2.833,-0.351 2.734,-0.237 2.665,-0.213C2.523,-0.164 2.368,-0.14 2.217,-0.133C0.815,-0.065 -0.586,-0.001 -1.988,0.06C-2.078,0.064 -2.208,0.076 -2.25,0.026C-2.307,-0.041 -2.337,-0.24 -2.312,-0.253C-2.127,-0.35 -1.931,-0.455 -1.729,-0.48C-1.154,-0.554 -0.575,-0.591 0.002,-0.642C0.002,-0.656 0.001,-0.67 0,-0.685" style="fill:rgb(35,31,32);fill-rule:nonzero;"/>
            </g>
            <g transform="matrix(4.16667,0,0,4.16667,662.328,1421.03)">
                <path d="M0,0.758C-0.511,0.738 -0.937,0.706 -1.364,0.708C-2.25,0.712 -3.137,0.749 -4.024,0.744C-4.571,0.741 -4.915,0.538 -4.814,0.337C-4.646,0 -4.33,0.19 -4.075,0.173C-3.342,0.125 -2.608,0.045 -1.876,0.054C-1.241,0.062 -0.605,0.161 0.026,0.253C0.127,0.268 0.203,0.454 0.29,0.562C0.173,0.641 0.056,0.72 0,0.758" style="fill:rgb(35,31,32);fill-rule:nonzero;"/>
            </g>
            <g transform="matrix(4.16667,0,0,4.16667,653.376,1431.78)">
                <path d="M0,-0.404C0.581,-0.455 1.161,-0.518 1.743,-0.551C1.92,-0.562 2.108,-0.507 2.28,-0.449C2.344,-0.428 2.394,-0.319 2.416,-0.24C2.425,-0.206 2.358,-0.127 2.31,-0.105C2.171,-0.042 2.026,0.04 1.882,0.046C0.687,0.093 -0.507,0.125 -1.702,0.156C-1.79,0.158 -1.891,0.131 -1.965,0.084C-2.03,0.044 -2.113,-0.05 -2.104,-0.105C-2.091,-0.174 -1.998,-0.269 -1.928,-0.28C-1.596,-0.332 -1.259,-0.362 -0.924,-0.395C-0.618,-0.425 -0.312,-0.449 -0.006,-0.477C-0.004,-0.452 -0.002,-0.428 0,-0.404" style="fill:rgb(35,31,32);fill-rule:nonzero;"/>
            </g>
            <g transform="matrix(4.16667,0,0,4.16667,658.861,1439.72)">
                <path d="M0,0.693C-0.823,0.645 -1.646,0.609 -2.468,0.542C-2.671,0.526 -2.869,0.416 -3.063,0.334C-3.1,0.318 -3.128,0.228 -3.122,0.176C-3.116,0.127 -3.07,0.058 -3.025,0.042C-2.942,0.01 -2.847,0 -2.757,0.001C-1.687,0.016 -0.618,0.033 0.452,0.053C0.573,0.056 0.71,0.046 0.81,0.099C0.897,0.145 0.966,0.264 0.996,0.365C1.007,0.403 0.891,0.522 0.822,0.533C0.551,0.575 0.275,0.589 0.002,0.613C0.001,0.64 0,0.666 0,0.693" style="fill:rgb(35,31,32);fill-rule:nonzero;"/>
            </g>
            <g transform="matrix(4.16667,0,0,4.16667,648.245,1381.88)">
                <path d="M0,-2.01C-0.339,-1.819 -0.685,-1.639 -1.015,-1.432C-1.339,-1.229 -1.612,-0.955 -1.538,-0.536C-1.466,-0.13 -1.092,-0.041 -0.761,-0.003C0.577,0.151 1.917,0.378 3.258,0.387C4.942,0.399 6.627,0.216 8.313,0.134C9.568,0.072 10.698,-0.412 11.823,-0.897C12.15,-1.038 12.437,-1.3 12.706,-1.546C13.044,-1.855 13.267,-2.208 12.856,-2.647C12.801,-2.706 12.818,-2.943 12.857,-2.959C12.984,-3.01 13.164,-3.051 13.275,-2.997C13.782,-2.754 13.958,-2.141 13.645,-1.674C13.208,-1.026 12.634,-0.529 11.903,-0.219C10.652,0.313 9.37,0.686 7.998,0.751C6.618,0.816 5.242,1.006 3.863,1.022C2.208,1.041 0.553,0.927 -1.067,0.54C-1.533,0.429 -1.944,0.216 -2.042,-0.317C-2.139,-0.839 -1.836,-1.451 -1.315,-1.684C-0.906,-1.867 -0.46,-1.967 -0.03,-2.104C-0.02,-2.072 -0.01,-2.041 0,-2.01" style="fill:rgb(35,31,32);fill-rule:nonzero;"/>
            </g>
            <g transform="matrix(4.16667,0,0,4.16667,881.115,1331.79)">
                <path d="M0,35.72C-0.501,35.767 -0.763,35.825 -1.021,35.81C-1.776,35.766 -2.53,35.685 -3.286,35.635C-3.666,35.61 -4.207,35.455 -4.237,36.025C-4.261,36.485 -3.755,36.452 -3.4,36.474C-1.404,36.598 0.569,36.874 2.519,37.32C2.945,37.417 3.387,37.512 3.819,37.503C7.51,37.427 11.131,38.033 14.766,38.547C18.083,39.015 21.407,39.431 24.732,39.843C25.614,39.952 26.314,39.737 26.795,38.811C27.209,38.015 27.903,37.364 28.475,36.65C28.608,36.484 28.752,36.325 28.977,36.063C28.648,35.996 28.46,35.944 28.269,35.922C26.091,35.674 23.912,35.431 21.733,35.186C21.019,35.105 20.308,34.969 19.592,34.944C16.088,34.819 12.584,34.686 9.079,34.626C5.562,34.566 2.075,34.262 -1.389,33.659C-1.702,33.605 -2.023,33.573 -2.34,33.577C-2.82,33.583 -3.112,33.84 -3.294,34.358C-2.595,34.377 -2,34.384 -1.407,34.411C-0.77,34.441 -0.134,34.491 0.503,34.53C1.242,34.574 1.416,34.624 2.327,35.136C1.135,35.057 0.193,34.973 -0.75,34.94C-1.693,34.907 -2.645,34.749 -3.584,35C-2.483,35.316 -1.293,35.061 0,35.72M-5.261,36.025C-5.072,35.805 -5.006,35.753 -4.974,35.685C-4.444,34.57 -3.97,33.422 -2.816,32.753C-2.651,32.658 -2.535,32.354 -2.523,32.14C-2.465,31.03 -2.41,29.916 -2.426,28.804C-2.455,26.854 -2.597,24.905 -2.582,22.956C-2.555,19.413 -2.463,15.869 -2.372,12.327C-2.295,9.381 -2.239,6.432 -1.579,3.534C-1.43,2.88 -1.449,2.19 -1.367,1.519C-1.209,0.217 -1.04,-1.085 -0.862,-2.385C-0.819,-2.7 -0.715,-3.007 -0.661,-3.321C-0.562,-3.905 -0.775,-4.152 -1.362,-4.068C-2.161,-3.953 -2.691,-3.472 -3.143,-2.8C-4.456,-0.845 -4.662,1.453 -5.03,3.647C-5.442,6.109 -5.443,8.641 -5.601,11.144C-5.78,14.004 -6,16.864 -6.08,19.727C-6.153,22.351 -6.127,24.981 -6.029,27.604C-5.936,30.107 -5.697,32.603 -5.508,35.102C-5.488,35.363 -5.374,35.616 -5.261,36.025M-0.251,-1.925C-0.275,-1.927 -0.3,-1.929 -0.324,-1.932C-0.404,-1.06 -0.485,-0.189 -0.564,0.683C-0.662,1.754 -0.737,2.828 -0.861,3.897C-1.031,5.362 -1.314,6.817 -1.41,8.286C-1.545,10.353 -1.576,12.428 -1.611,14.5C-1.677,18.366 -1.736,22.232 -1.752,26.097C-1.759,27.609 -1.628,29.121 -1.597,30.635C-1.585,31.19 -1.689,31.747 -1.726,32.304C-1.753,32.724 -1.551,32.988 -1.132,33.066C-0.937,33.102 -0.738,33.127 -0.54,33.149C2.314,33.455 5.165,33.767 8.043,33.788C11.191,33.812 14.339,33.934 17.487,33.993C19.401,34.029 21.307,34.1 23.208,34.399C24.939,34.672 26.693,34.804 28.441,34.964C29.113,35.026 29.794,34.999 30.471,35C30.811,35.001 30.969,34.812 30.972,34.47C30.988,32.679 31.061,30.887 31.018,29.096C30.968,27.066 30.686,25.034 30.734,23.009C30.842,18.549 31.094,14.093 31.286,9.635C31.361,7.883 31.473,6.131 31.492,4.378C31.507,2.945 31.421,1.51 31.357,0.076C31.333,-0.46 31.078,-0.785 30.478,-0.85C28.969,-1.013 27.467,-1.232 25.961,-1.42C23.27,-1.756 20.575,-2.07 17.885,-2.421C16.064,-2.657 14.251,-2.953 12.432,-3.197C11.72,-3.293 11.001,-3.335 10.284,-3.376C7.577,-3.53 4.869,-3.678 2.162,-3.818C1.531,-3.851 0.898,-3.843 0.266,-3.854C0.102,-3.25 -0.063,-2.647 -0.227,-2.043C-0.237,-2.004 -0.243,-1.965 -0.251,-1.925M-5.39,1.238C-5,-0.335 -4.498,-1.835 -3.639,-3.214C-2.931,-4.351 -1.927,-4.83 -0.614,-4.681C1.008,-4.498 2.635,-4.339 4.264,-4.241C6.93,-4.082 9.602,-4.024 12.266,-3.84C13.856,-3.73 15.436,-3.468 17.019,-3.265C20.145,-2.865 23.27,-2.462 26.394,-2.057C27.819,-1.873 29.241,-1.66 30.67,-1.506C31.434,-1.424 31.847,-1.025 31.909,-0.302C32.042,1.245 32.238,2.798 32.216,4.345C32.178,6.973 31.976,9.598 31.874,12.225C31.826,13.459 31.868,14.697 31.834,15.931C31.757,18.759 31.586,21.587 31.592,24.414C31.595,26.363 31.889,28.31 31.942,30.261C31.986,31.89 31.884,33.526 31.813,35.157C31.786,35.803 31.651,35.858 30.928,36C30.591,36.066 30.243,36.201 29.959,36.393C28.782,37.194 27.849,38.237 27.226,39.512C26.876,40.225 26.347,40.497 25.616,40.513C25.258,40.522 24.895,40.55 24.542,40.503C19.915,39.884 15.295,39.206 10.661,38.643C8.409,38.37 6.132,38.304 3.866,38.147C3.548,38.125 3.226,38.139 2.914,38.091C0.588,37.731 -1.736,37.359 -4.06,36.991C-4.257,36.96 -4.454,36.92 -4.652,36.903C-5.831,36.8 -6.205,36.485 -6.321,35.328C-6.479,33.743 -6.587,32.153 -6.705,30.564C-6.783,29.492 -6.881,28.418 -6.898,27.344C-6.936,24.994 -6.979,22.643 -6.923,20.295C-6.865,17.866 -6.736,15.437 -6.558,13.013C-6.368,10.43 -6.093,7.853 -5.84,5.274C-5.707,3.927 -5.541,2.583 -5.39,1.238" style="fill:rgb(35,31,32);fill-rule:nonzero;"/>
            </g>
            <g transform="matrix(4.16667,0,0,4.16667,880.069,1469.69)">
                <path d="M0,-35.022C0.008,-35.062 0.014,-35.101 0.024,-35.14C0.188,-35.744 0.353,-36.347 0.517,-36.951C1.149,-36.94 1.782,-36.948 2.413,-36.915C5.12,-36.775 7.828,-36.627 10.535,-36.473C11.252,-36.432 11.971,-36.39 12.683,-36.294C14.502,-36.05 16.315,-35.754 18.136,-35.518C20.826,-35.167 23.521,-34.853 26.212,-34.517C27.718,-34.329 29.22,-34.11 30.729,-33.947C31.329,-33.882 31.584,-33.557 31.608,-33.021C31.672,-31.587 31.758,-30.152 31.743,-28.719C31.724,-26.966 31.612,-25.214 31.537,-23.462C31.345,-19.004 31.093,-14.548 30.985,-10.088C30.937,-8.063 31.219,-6.031 31.269,-4.001C31.312,-2.21 31.239,-0.418 31.223,1.374C31.22,1.715 31.062,1.904 30.722,1.903C30.045,1.902 29.364,1.929 28.692,1.867C26.944,1.707 25.19,1.575 23.458,1.302C21.558,1.003 19.652,0.932 17.738,0.896C14.59,0.837 11.442,0.715 8.294,0.691C5.416,0.67 2.565,0.358 -0.289,0.052C-0.487,0.03 -0.686,0.005 -0.881,-0.031C-1.3,-0.109 -1.502,-0.373 -1.475,-0.793C-1.438,-1.35 -1.334,-1.907 -1.346,-2.462C-1.377,-3.976 -1.508,-5.488 -1.501,-7C-1.485,-10.865 -1.426,-14.731 -1.36,-18.597C-1.325,-20.669 -1.294,-22.744 -1.159,-24.811C-1.063,-26.28 -0.78,-27.735 -0.61,-29.2C-0.486,-30.269 -0.411,-31.343 -0.313,-32.414C-0.234,-33.286 -0.153,-34.157 -0.073,-35.029C-0.049,-35.026 -0.024,-35.024 0,-35.022" style="fill:rgb(248,237,47);fill-rule:nonzero;"/>
            </g>
            <g transform="matrix(4.16667,0,0,4.16667,859.195,1314.49)">
                <path d="M0,40.177C-0.113,39.768 -0.228,39.514 -0.248,39.254C-0.437,36.755 -0.675,34.259 -0.769,31.756C-0.867,29.133 -0.893,26.503 -0.819,23.879C-0.739,21.016 -0.52,18.156 -0.34,15.296C-0.183,12.793 -0.181,10.261 0.231,7.799C0.599,5.605 0.805,3.307 2.118,1.352C2.57,0.679 3.1,0.198 3.899,0.084C4.486,0 4.699,0.247 4.6,0.831C4.546,1.145 4.441,1.451 4.398,1.766C4.221,3.067 4.052,4.368 3.894,5.671C3.812,6.342 3.831,7.032 3.682,7.686C3.022,10.584 2.966,13.532 2.889,16.479C2.797,20.021 2.706,23.565 2.679,27.108C2.664,29.056 2.806,31.006 2.835,32.956C2.851,34.068 2.795,35.181 2.737,36.292C2.726,36.506 2.609,36.81 2.445,36.905C1.291,37.574 0.817,38.721 0.287,39.837C0.255,39.905 0.188,39.957 0,40.177" style="fill:rgb(0,174,239);fill-rule:nonzero;"/>
            </g>
            <g transform="matrix(4.16667,0,0,4.16667,881.115,1489.31)">
                <path d="M0,-2.085C-1.293,-2.744 -2.483,-2.489 -3.584,-2.805C-2.645,-3.056 -1.693,-2.898 -0.75,-2.865C0.193,-2.832 1.135,-2.748 2.327,-2.669C1.416,-3.181 1.242,-3.231 0.503,-3.275C-0.134,-3.314 -0.77,-3.364 -1.407,-3.394C-2,-3.421 -2.595,-3.428 -3.294,-3.447C-3.112,-3.965 -2.82,-4.222 -2.34,-4.228C-2.023,-4.232 -1.702,-4.2 -1.389,-4.146C2.075,-3.543 5.562,-3.239 9.079,-3.179C12.584,-3.119 16.088,-2.986 19.592,-2.861C20.308,-2.836 21.019,-2.7 21.733,-2.619C23.912,-2.374 26.091,-2.131 28.269,-1.883C28.46,-1.861 28.648,-1.809 28.977,-1.742C28.752,-1.48 28.608,-1.321 28.475,-1.155C27.903,-0.441 27.209,0.21 26.795,1.006C26.314,1.932 25.614,2.147 24.732,2.038C21.407,1.626 18.083,1.21 14.766,0.742C11.131,0.228 7.51,-0.378 3.819,-0.302C3.387,-0.293 2.945,-0.388 2.519,-0.485C0.569,-0.931 -1.404,-1.207 -3.4,-1.331C-3.755,-1.353 -4.261,-1.32 -4.237,-1.78C-4.207,-2.35 -3.666,-2.195 -3.286,-2.17C-2.53,-2.12 -1.776,-2.039 -1.021,-1.995C-0.763,-1.98 -0.501,-2.038 0,-2.085" style="fill:rgb(255,252,217);fill-rule:nonzero;"/>
            </g>
            <g transform="matrix(4.16667,0,0,4.16667,0,0)">
                <g opacity="0.2">
                    <g transform="matrix(1,0,0,1,242.352,352.536)">
                        <path d="M0,-34.073L-15.465,-32.936C-17.264,-32.804 -19.115,-32.658 -20.732,-31.858C-22.207,-31.128 -23.375,-29.906 -24.433,-28.646C-29.217,-22.947 -32.397,-15.915 -33.515,-8.558C-33.917,-5.913 -33.889,-2.8 -31.845,-1.073C-30.501,0.063 -28.579,0.306 -27.215,1.417L-31.274,1.419C-31.598,1.419 -31.937,1.423 -32.221,1.579C-32.496,1.73 -32.678,2.003 -32.893,2.231C-33.794,3.191 -35.432,3.338 -36.488,2.552C-36.984,-5.847 -37.053,-13.982 -36.772,-22.391C-36.659,-25.786 -36.542,-29.209 -35.744,-32.51C-35.438,-33.776 -35.012,-35.055 -34.161,-36.042C-33.311,-37.029 -31.989,-37.411 -30.687,-37.346C-18.618,-36.747 -10.128,-35.334 0,-34.073" style="fill:rgb(59,35,20);fill-rule:nonzero;"/>
                    </g>
                </g>
            </g>
            <g transform="matrix(4.16667,0,0,4.16667,928.338,1415.2)">
                <path d="M0,1.623C0.037,1.534 0.074,1.444 0.111,1.355C-0.142,1.243 -0.386,1.064 -0.65,1.029C-1.953,0.854 -3.212,0.38 -4.561,0.487C-3.106,1.155 -1.567,1.448 0,1.623M-6.712,2.548C-6.576,2.666 -6.514,2.764 -6.433,2.784C-5.322,3.063 -4.21,3.336 -3.096,3.598C-2.909,3.642 -2.707,3.642 -2.515,3.625C-2.439,3.619 -2.332,3.519 -2.313,3.443C-2.297,3.376 -2.371,3.227 -2.429,3.212C-3.699,2.903 -4.922,2.377 -6.255,2.369C-6.389,2.368 -6.523,2.471 -6.712,2.548M-7.633,4.936C-6.943,5.186 -6.43,5.369 -5.92,5.558C-5.059,5.877 -4.2,6.204 -3.337,6.518C-3.156,6.583 -2.958,6.639 -2.77,6.636C-2.674,6.634 -2.557,6.504 -2.498,6.404C-2.472,6.361 -2.551,6.223 -2.617,6.168C-2.716,6.086 -2.839,6.025 -2.962,5.981C-4.073,5.583 -5.186,5.186 -6.301,4.799C-6.676,4.669 -7.06,4.609 -7.633,4.936M3.636,9.546C1.86,9.496 0.083,9.473 -1.691,9.388C-3.406,9.306 -5.106,9.063 -6.751,8.557C-7.725,8.257 -8.671,7.87 -9.627,7.516C-9.812,7.448 -9.989,7.358 -10.167,7.273C-11.368,6.705 -11.508,5.745 -10.79,4.567C-10.655,4.347 -10.439,4.175 -10.256,3.985C-8.489,2.16 -6.635,0.434 -4.626,-1.128C-3.273,-2.18 -1.995,-3.325 -0.669,-4.411C-0.388,-4.641 -0.265,-4.904 -0.225,-5.25C-0.131,-6.068 -0.028,-6.886 0.088,-7.702C0.167,-8.245 0.26,-8.293 0.806,-8.194C1.841,-8.006 2.875,-7.81 3.915,-7.652C4.293,-7.595 4.425,-7.441 4.376,-7.071C4.291,-6.417 4.221,-5.761 4.153,-5.105C4.129,-4.877 4.1,-4.642 4.125,-4.417C4.148,-4.219 4.274,-3.979 4.51,-4.127C4.902,-4.373 5.066,-4.055 5.239,-3.866C6.15,-2.87 7.055,-1.867 7.931,-0.839C8.85,0.239 9.776,1.316 10.622,2.451C11.564,3.715 12.448,5.025 13.305,6.35C14.345,7.958 13.26,9.15 11.982,9.438C10.96,9.667 9.905,9.785 8.858,9.856C7.975,9.916 7.082,9.855 6.194,9.817C5.339,9.78 4.486,9.704 3.631,9.645C3.633,9.612 3.635,9.579 3.636,9.546" style="fill:white;fill-rule:nonzero;"/>
            </g>
            <g transform="matrix(4.16667,0,0,4.16667,928.35,1446.97)">
                <path d="M0,-9.832L-8.084,-2.649C-9.059,-1.783 -8.51,-0.171 -7.209,-0.079L9.938,1.132C11.22,1.222 11.995,-0.255 11.192,-1.258L4.641,-9.439C3.492,-10.874 1.375,-11.054 0,-9.832" style="fill:rgb(47,197,244);fill-rule:nonzero;"/>
            </g>
            <g transform="matrix(4.16667,0,0,4.16667,936.014,1435.35)">
                <path d="M0,-13.242C1.952,-12.887 3.36,-12.958 4.763,-13.164C5.298,-13.242 5.824,-13.478 6.079,-13.955C6.846,-15.389 6.964,-16.795 4.929,-17.307C4.04,-17.531 3.114,-17.628 2.246,-17.909C0.578,-18.45 -1.072,-18.101 -2.731,-17.946C-2.859,-17.934 -2.985,-17.879 -3.107,-17.832C-3.952,-17.51 -4.356,-16.882 -4.344,-15.914C-4.333,-15.055 -3.895,-14.404 -3.064,-14.142C-1.875,-13.766 -0.672,-13.438 0,-13.242M1.794,4.712C1.792,4.744 1.791,4.778 1.789,4.811C2.644,4.869 3.497,4.945 4.352,4.982C5.239,5.02 6.133,5.082 7.016,5.022C8.063,4.95 9.118,4.833 10.14,4.603C11.418,4.316 12.502,3.124 11.462,1.515C10.606,0.191 9.722,-1.119 8.78,-2.384C7.934,-3.519 7.008,-4.596 6.089,-5.674C5.213,-6.701 4.308,-7.704 3.396,-8.7C3.224,-8.889 3.06,-9.207 2.668,-8.962C2.432,-8.814 2.306,-9.054 2.283,-9.251C2.257,-9.477 2.287,-9.711 2.311,-9.94C2.379,-10.596 2.448,-11.252 2.534,-11.906C2.583,-12.276 2.451,-12.43 2.073,-12.487C1.033,-12.645 -0.001,-12.841 -1.037,-13.029C-1.582,-13.127 -1.676,-13.079 -1.754,-12.537C-1.871,-11.721 -1.974,-10.903 -2.067,-10.084C-2.107,-9.739 -2.23,-9.475 -2.511,-9.245C-3.837,-8.159 -5.116,-7.014 -6.468,-5.963C-8.478,-4.401 -10.332,-2.675 -12.099,-0.849C-12.282,-0.66 -12.498,-0.488 -12.632,-0.268C-13.35,0.91 -13.21,1.87 -12.01,2.439C-11.832,2.523 -11.654,2.613 -11.47,2.681C-10.513,3.035 -9.567,3.423 -8.593,3.722C-6.948,4.229 -5.249,4.471 -3.534,4.553C-1.759,4.638 0.018,4.661 1.794,4.712M2.733,5.436C0.794,5.362 -1.146,5.316 -3.083,5.207C-6.229,5.031 -9.303,4.519 -12.17,3.116C-13.957,2.242 -14.274,0.457 -12.889,-1.009C-10.939,-3.073 -8.845,-4.975 -6.579,-6.692C-5.371,-7.606 -4.198,-8.566 -3.022,-9.521C-2.859,-9.655 -2.701,-9.867 -2.66,-10.067C-2.482,-10.938 -2.354,-11.818 -2.197,-12.694C-2.121,-13.12 -2.249,-13.394 -2.697,-13.496C-2.888,-13.539 -3.066,-13.634 -3.252,-13.7C-4.314,-14.074 -4.858,-14.922 -4.748,-16.058C-4.67,-16.857 -4.505,-17.63 -3.777,-18.116C-3.486,-18.309 -3.169,-18.537 -2.839,-18.587C-1.009,-18.868 0.821,-19.001 2.643,-18.458C3.491,-18.205 4.37,-18.056 5.231,-17.845C5.788,-17.709 6.285,-17.448 6.651,-16.998C6.812,-16.799 6.962,-16.566 7.037,-16.324C7.533,-14.715 6.456,-12.94 4.803,-12.641C4.383,-12.565 3.953,-12.528 3.526,-12.516C3.178,-12.506 3.073,-12.343 3.061,-12.026C3.047,-11.631 3.032,-11.231 2.956,-10.845C2.837,-10.242 2.964,-9.871 3.543,-9.496C4.191,-9.076 4.712,-8.435 5.222,-7.833C6.605,-6.198 8.028,-4.586 9.292,-2.861C10.3,-1.485 11.438,-0.192 12.193,1.369C12.977,2.99 12.398,4.62 10.665,5.158C9.731,5.448 8.734,5.574 7.755,5.667C6.775,5.759 5.782,5.755 4.796,5.726C4.107,5.707 3.421,5.576 2.733,5.495L2.733,5.436" style="fill:rgb(35,31,32);fill-rule:nonzero;"/>
            </g>
            <g transform="matrix(4.16667,0,0,4.16667,931.564,1376.99)">
                <path d="M0,-3.327C-0.162,-3.354 -0.334,-3.44 -0.442,-3.389C-0.671,-3.28 -0.919,-3.14 -1.064,-2.942C-1.431,-2.443 -1.281,-1.914 -0.714,-1.515C-0.035,-1.036 2.375,-0.458 3.359,-0.553C3.718,-0.587 4.082,-0.634 4.428,-0.732C5.227,-0.957 5.658,-1.706 5.424,-2.497C5.358,-2.723 5.156,-2.933 4.966,-3.087C4.874,-3.162 4.663,-3.091 4.506,-3.086C4.526,-2.946 4.509,-2.785 4.572,-2.67C5.001,-1.885 4.864,-1.532 4.027,-1.321C3.899,-1.289 3.77,-1.244 3.641,-1.242C2.414,-1.226 1.204,-1.375 0.056,-1.809C-0.818,-2.14 -0.833,-2.44 -0.108,-3.095C-0.065,-3.133 -0.054,-3.206 0,-3.327M1.068,0.763C0.396,0.568 -0.808,0.239 -1.997,-0.137C-2.827,-0.398 -3.266,-1.05 -3.276,-1.909C-3.288,-2.876 -2.884,-3.505 -2.04,-3.827C-1.917,-3.874 -1.792,-3.929 -1.664,-3.941C-0.004,-4.096 1.646,-4.445 3.313,-3.904C4.182,-3.623 5.107,-3.525 5.997,-3.302C8.032,-2.789 7.914,-1.384 7.147,0.05C6.892,0.527 6.366,0.763 5.831,0.841C4.428,1.047 3.02,1.118 1.068,0.763" style="fill:rgb(186,227,229);fill-rule:nonzero;"/>
            </g>
            <g transform="matrix(4.16667,0,0,4.16667,896.533,1441.51)">
                <path d="M0,-1.378C0.573,-1.704 0.957,-1.644 1.332,-1.514C2.448,-1.128 3.56,-0.73 4.671,-0.332C4.794,-0.288 4.917,-0.227 5.017,-0.145C5.082,-0.091 5.161,0.048 5.136,0.09C5.077,0.191 4.959,0.321 4.864,0.322C4.675,0.326 4.478,0.27 4.296,0.204C3.433,-0.109 2.575,-0.437 1.713,-0.755C1.203,-0.944 0.69,-1.128 0,-1.378" style="fill:rgb(35,31,32);fill-rule:nonzero;"/>
            </g>
            <g transform="matrix(4.16667,0,0,4.16667,900.371,1429.63)">
                <path d="M0,-0.914C0.188,-0.991 0.323,-1.094 0.457,-1.093C1.79,-1.085 3.013,-0.56 4.283,-0.25C4.341,-0.235 4.415,-0.086 4.398,-0.019C4.38,0.056 4.273,0.156 4.197,0.163C4.005,0.18 3.803,0.179 3.616,0.136C2.501,-0.126 1.39,-0.399 0.279,-0.679C0.198,-0.699 0.136,-0.796 0,-0.914" style="fill:rgb(35,31,32);fill-rule:nonzero;"/>
            </g>
            <g transform="matrix(2.8108,-3.07579,-3.07579,-2.8108,927.233,1414.28)">
                <path d="M-1.183,-1.44C-2.111,-0.165 -2.933,1.168 -3.421,2.693C-2.432,1.769 -1.933,0.52 -1.183,-0.56C-1.031,-0.778 -0.998,-1.079 -0.91,-1.341C-1.001,-1.374 -1.092,-1.408 -1.183,-1.44" style="fill:rgb(35,31,32);fill-rule:nonzero;"/>
            </g>
            <g transform="matrix(4.16667,0,0,4.16667,931.564,1374.61)">
                <path d="M0,-2.756C-0.054,-2.635 -0.065,-2.562 -0.108,-2.524C-0.833,-1.869 -0.818,-1.569 0.056,-1.238C1.204,-0.804 2.414,-0.655 3.641,-0.671C3.77,-0.673 3.899,-0.718 4.027,-0.75C4.864,-0.961 5.001,-1.314 4.572,-2.099C4.509,-2.214 4.526,-2.375 4.506,-2.515C4.663,-2.52 4.874,-2.591 4.966,-2.516C5.156,-2.362 5.358,-2.152 5.424,-1.926C5.658,-1.135 5.227,-0.386 4.428,-0.161C4.082,-0.063 3.718,-0.016 3.359,0.018C2.375,0.113 -0.035,-0.465 -0.714,-0.944C-1.281,-1.343 -1.431,-1.872 -1.064,-2.371C-0.919,-2.569 -0.671,-2.709 -0.442,-2.818C-0.334,-2.869 -0.162,-2.783 0,-2.756" style="fill:rgb(35,31,32);fill-rule:nonzero;"/>
            </g>
            <g transform="matrix(4.16667,0,0,4.16667,1092.43,1327.99)">
                <path d="M0,35.72C-0.501,35.767 -0.763,35.825 -1.021,35.81C-1.776,35.766 -2.53,35.685 -3.286,35.635C-3.666,35.61 -4.207,35.455 -4.237,36.025C-4.261,36.485 -3.755,36.452 -3.4,36.474C-1.404,36.597 0.569,36.874 2.519,37.32C2.945,37.417 3.387,37.512 3.819,37.503C7.51,37.427 11.132,38.033 14.766,38.546C18.083,39.015 21.407,39.431 24.732,39.843C25.614,39.952 26.314,39.737 26.795,38.811C27.209,38.015 27.903,37.363 28.476,36.65C28.609,36.484 28.752,36.325 28.977,36.063C28.648,35.996 28.46,35.943 28.27,35.922C26.091,35.674 23.912,35.431 21.733,35.185C21.019,35.105 20.308,34.969 19.592,34.944C16.088,34.819 12.584,34.686 9.079,34.626C5.563,34.566 2.075,34.262 -1.389,33.659C-1.702,33.605 -2.023,33.573 -2.34,33.577C-2.82,33.583 -3.112,33.84 -3.294,34.358C-2.595,34.377 -2,34.384 -1.407,34.411C-0.77,34.441 -0.134,34.491 0.503,34.53C1.242,34.574 1.416,34.624 2.327,35.136C1.135,35.057 0.193,34.973 -0.75,34.94C-1.693,34.907 -2.645,34.749 -3.584,35C-2.483,35.316 -1.293,35.061 0,35.72M-5.261,36.025C-5.072,35.805 -5.006,35.753 -4.974,35.685C-4.444,34.57 -3.97,33.422 -2.816,32.753C-2.651,32.658 -2.535,32.354 -2.523,32.14C-2.465,31.029 -2.41,29.916 -2.426,28.804C-2.455,26.854 -2.596,24.905 -2.582,22.956C-2.555,19.412 -2.463,15.869 -2.372,12.327C-2.295,9.381 -2.239,6.432 -1.579,3.534C-1.43,2.88 -1.449,2.19 -1.367,1.519C-1.209,0.216 -1.04,-1.085 -0.862,-2.385C-0.819,-2.701 -0.715,-3.007 -0.661,-3.322C-0.562,-3.905 -0.775,-4.152 -1.362,-4.068C-2.161,-3.953 -2.691,-3.473 -3.143,-2.8C-4.456,-0.845 -4.662,1.453 -5.03,3.647C-5.442,6.109 -5.443,8.641 -5.601,11.144C-5.78,14.004 -6,16.864 -6.08,19.727C-6.153,22.351 -6.127,24.981 -6.029,27.604C-5.936,30.107 -5.697,32.603 -5.508,35.101C-5.488,35.363 -5.374,35.616 -5.261,36.025M-0.251,-1.926C-0.275,-1.927 -0.3,-1.93 -0.324,-1.932C-0.404,-1.06 -0.485,-0.189 -0.564,0.682C-0.662,1.754 -0.737,2.828 -0.861,3.897C-1.031,5.362 -1.314,6.817 -1.41,8.286C-1.545,10.353 -1.576,12.428 -1.611,14.5C-1.677,18.366 -1.735,22.231 -1.752,26.097C-1.759,27.609 -1.628,29.121 -1.597,30.634C-1.585,31.19 -1.689,31.747 -1.726,32.304C-1.753,32.724 -1.551,32.988 -1.132,33.066C-0.936,33.102 -0.738,33.127 -0.54,33.148C2.314,33.455 5.165,33.766 8.043,33.788C11.191,33.812 14.339,33.934 17.487,33.993C19.401,34.029 21.307,34.099 23.208,34.399C24.939,34.672 26.693,34.804 28.441,34.964C29.113,35.026 29.794,34.999 30.471,35C30.811,35 30.969,34.812 30.972,34.47C30.988,32.679 31.062,30.886 31.018,29.096C30.968,27.066 30.686,25.034 30.734,23.009C30.842,18.549 31.094,14.093 31.286,9.635C31.361,7.883 31.473,6.131 31.492,4.378C31.507,2.945 31.421,1.51 31.357,0.076C31.333,-0.46 31.078,-0.785 30.478,-0.85C28.969,-1.013 27.467,-1.233 25.962,-1.42C23.27,-1.756 20.575,-2.07 17.885,-2.421C16.064,-2.657 14.251,-2.953 12.432,-3.197C11.72,-3.293 11.001,-3.336 10.284,-3.376C7.577,-3.53 4.869,-3.678 2.162,-3.819C1.531,-3.851 0.898,-3.843 0.266,-3.854C0.102,-3.25 -0.063,-2.647 -0.227,-2.043C-0.237,-2.004 -0.243,-1.965 -0.251,-1.926M-5.39,1.238C-5,-0.335 -4.498,-1.835 -3.639,-3.214C-2.931,-4.351 -1.927,-4.83 -0.614,-4.681C1.008,-4.498 2.635,-4.339 4.264,-4.241C6.93,-4.082 9.602,-4.024 12.266,-3.84C13.856,-3.731 15.436,-3.468 17.019,-3.265C20.145,-2.866 23.27,-2.462 26.394,-2.057C27.819,-1.873 29.241,-1.66 30.67,-1.506C31.434,-1.424 31.847,-1.025 31.909,-0.302C32.042,1.245 32.238,2.798 32.216,4.345C32.178,6.973 31.976,9.598 31.874,12.225C31.826,13.459 31.868,14.697 31.834,15.931C31.757,18.759 31.586,21.586 31.592,24.414C31.595,26.363 31.889,28.309 31.942,30.26C31.986,31.89 31.884,33.526 31.813,35.157C31.786,35.803 31.651,35.858 30.928,36C30.591,36.066 30.243,36.201 29.959,36.393C28.782,37.194 27.849,38.237 27.226,39.511C26.876,40.225 26.347,40.497 25.616,40.513C25.258,40.521 24.895,40.55 24.542,40.503C19.915,39.883 15.295,39.206 10.661,38.643C8.409,38.37 6.132,38.304 3.866,38.147C3.548,38.125 3.226,38.139 2.914,38.091C0.588,37.731 -1.736,37.359 -4.06,36.991C-4.257,36.96 -4.454,36.92 -4.652,36.902C-5.831,36.8 -6.205,36.485 -6.321,35.328C-6.479,33.743 -6.587,32.153 -6.705,30.564C-6.783,29.491 -6.881,28.418 -6.898,27.344C-6.936,24.994 -6.979,22.643 -6.923,20.295C-6.865,17.866 -6.736,15.436 -6.558,13.013C-6.368,10.43 -6.093,7.852 -5.84,5.274C-5.707,3.927 -5.541,2.583 -5.39,1.238" style="fill:rgb(35,31,32);fill-rule:nonzero;"/>
            </g>
            <g transform="matrix(4.16667,0,0,4.16667,1091.38,1465.89)">
                <path d="M0,-35.022C0.008,-35.061 0.014,-35.101 0.024,-35.139C0.188,-35.743 0.353,-36.347 0.517,-36.951C1.149,-36.94 1.782,-36.947 2.413,-36.915C5.12,-36.775 7.828,-36.627 10.535,-36.473C11.252,-36.432 11.971,-36.39 12.683,-36.294C14.502,-36.049 16.315,-35.754 18.136,-35.517C20.826,-35.167 23.521,-34.852 26.213,-34.517C27.718,-34.329 29.22,-34.11 30.729,-33.947C31.329,-33.881 31.584,-33.556 31.608,-33.021C31.672,-31.587 31.758,-30.152 31.743,-28.719C31.724,-26.966 31.612,-25.214 31.537,-23.461C31.345,-19.004 31.093,-14.547 30.985,-10.088C30.937,-8.062 31.219,-6.031 31.269,-4C31.312,-2.21 31.239,-0.418 31.223,1.374C31.22,1.715 31.062,1.904 30.722,1.904C30.045,1.903 29.364,1.929 28.692,1.868C26.944,1.707 25.19,1.575 23.458,1.303C21.558,1.003 19.652,0.932 17.738,0.896C14.59,0.838 11.442,0.716 8.294,0.692C5.416,0.67 2.565,0.358 -0.289,0.052C-0.487,0.031 -0.685,0.006 -0.881,-0.031C-1.3,-0.108 -1.502,-0.373 -1.475,-0.793C-1.438,-1.35 -1.334,-1.907 -1.346,-2.462C-1.377,-3.975 -1.508,-5.487 -1.501,-7C-1.484,-10.865 -1.426,-14.731 -1.36,-18.596C-1.325,-20.668 -1.294,-22.744 -1.159,-24.811C-1.063,-26.279 -0.78,-27.735 -0.61,-29.2C-0.486,-30.268 -0.411,-31.342 -0.313,-32.414C-0.234,-33.285 -0.153,-34.157 -0.073,-35.028C-0.049,-35.026 -0.024,-35.024 0,-35.022" style="fill:rgb(242,120,151);fill-rule:nonzero;"/>
            </g>
            <g transform="matrix(4.16667,0,0,4.16667,1070.51,1310.69)">
                <path d="M0,40.177C-0.113,39.768 -0.228,39.515 -0.248,39.254C-0.437,36.756 -0.675,34.259 -0.769,31.757C-0.867,29.134 -0.893,26.503 -0.819,23.88C-0.739,21.016 -0.52,18.156 -0.34,15.297C-0.183,12.794 -0.181,10.261 0.231,7.8C0.599,5.606 0.805,3.307 2.118,1.352C2.57,0.679 3.1,0.199 3.899,0.084C4.486,0 4.699,0.248 4.6,0.831C4.546,1.145 4.441,1.451 4.398,1.767C4.221,3.067 4.052,4.368 3.894,5.671C3.812,6.342 3.831,7.032 3.682,7.686C3.022,10.584 2.966,13.533 2.889,16.479C2.797,20.022 2.706,23.565 2.679,27.108C2.665,29.057 2.806,31.007 2.835,32.956C2.851,34.068 2.795,35.181 2.737,36.293C2.726,36.507 2.609,36.81 2.445,36.906C1.291,37.574 0.817,38.722 0.287,39.838C0.255,39.906 0.188,39.957 0,40.177" style="fill:rgb(42,56,144);fill-rule:nonzero;"/>
            </g>
            <g transform="matrix(4.16667,0,0,4.16667,1092.43,1485.51)">
                <path d="M0,-2.085C-1.293,-2.744 -2.483,-2.489 -3.584,-2.805C-2.645,-3.056 -1.693,-2.898 -0.75,-2.865C0.193,-2.832 1.135,-2.748 2.327,-2.669C1.416,-3.181 1.242,-3.231 0.503,-3.275C-0.134,-3.314 -0.77,-3.364 -1.407,-3.394C-2,-3.421 -2.595,-3.428 -3.294,-3.447C-3.112,-3.965 -2.82,-4.222 -2.34,-4.228C-2.023,-4.232 -1.702,-4.2 -1.389,-4.146C2.075,-3.543 5.563,-3.239 9.079,-3.179C12.584,-3.119 16.088,-2.986 19.592,-2.861C20.308,-2.836 21.019,-2.7 21.733,-2.62C23.912,-2.374 26.091,-2.131 28.27,-1.883C28.46,-1.862 28.648,-1.809 28.977,-1.742C28.752,-1.48 28.609,-1.321 28.476,-1.155C27.903,-0.442 27.209,0.21 26.795,1.006C26.314,1.932 25.614,2.147 24.732,2.038C21.407,1.626 18.083,1.21 14.766,0.741C11.132,0.228 7.51,-0.378 3.819,-0.302C3.387,-0.293 2.945,-0.388 2.519,-0.485C0.569,-0.931 -1.404,-1.208 -3.4,-1.331C-3.755,-1.353 -4.261,-1.32 -4.237,-1.78C-4.207,-2.35 -3.666,-2.195 -3.286,-2.17C-2.53,-2.12 -1.776,-2.039 -1.021,-1.995C-0.763,-1.98 -0.501,-2.038 0,-2.085" style="fill:rgb(255,252,217);fill-rule:nonzero;"/>
            </g>
            <g transform="matrix(4.16667,0,0,4.16667,0,0)">
                <g opacity="0.2">
                    <g transform="matrix(1,0,0,1,293.068,351.623)">
                        <path d="M0,-34.072C-5.155,-33.693 -10.31,-33.314 -15.465,-32.935C-17.264,-32.803 -19.115,-32.657 -20.732,-31.857C-22.207,-31.127 -23.375,-29.905 -24.433,-28.645C-29.217,-22.946 -32.396,-15.914 -33.515,-8.557C-33.917,-5.912 -33.889,-2.799 -31.845,-1.072C-30.501,0.064 -28.579,0.307 -27.215,1.418L-31.274,1.42C-31.598,1.42 -31.937,1.424 -32.221,1.58C-32.496,1.731 -32.678,2.003 -32.893,2.232C-33.794,3.192 -35.432,3.338 -36.488,2.553C-36.984,-5.846 -37.053,-13.981 -36.772,-22.39C-36.659,-25.785 -36.542,-29.208 -35.744,-32.509C-35.438,-33.775 -35.012,-35.054 -34.161,-36.041C-33.311,-37.029 -31.989,-37.41 -30.687,-37.345C-18.618,-36.746 -10.128,-35.333 0,-34.072" style="fill:rgb(59,35,20);fill-rule:nonzero;"/>
                    </g>
                </g>
            </g>
            <g transform="matrix(4.16667,0,0,4.16667,1131.84,1398.66)">
                <path d="M0,1.3C0.03,1.228 0.06,1.157 0.089,1.085C-0.114,0.995 -0.31,0.852 -0.521,0.824C-1.564,0.684 -2.573,0.304 -3.655,0.389C-2.489,0.925 -1.255,1.159 0,1.3M-5.378,2.041C-5.269,2.136 -5.219,2.214 -5.154,2.23C-4.265,2.454 -3.374,2.673 -2.48,2.883C-2.331,2.917 -2.168,2.918 -2.015,2.904C-1.954,2.899 -1.868,2.819 -1.854,2.758C-1.841,2.705 -1.9,2.585 -1.947,2.573C-2.964,2.325 -3.944,1.904 -5.012,1.898C-5.119,1.897 -5.227,1.979 -5.378,2.041M-6.116,3.954C-5.563,4.155 -5.152,4.301 -4.744,4.453C-4.053,4.708 -3.366,4.97 -2.674,5.222C-2.529,5.275 -2.371,5.319 -2.219,5.317C-2.143,5.315 -2.048,5.211 -2.001,5.131C-1.981,5.096 -2.044,4.985 -2.097,4.942C-2.176,4.876 -2.275,4.827 -2.373,4.792C-3.264,4.473 -4.155,4.155 -5.049,3.845C-5.35,3.741 -5.657,3.693 -6.116,3.954M2.914,7.649C1.491,7.608 0.066,7.59 -1.355,7.522C-2.729,7.456 -4.091,7.261 -5.41,6.856C-6.189,6.616 -6.948,6.305 -7.714,6.022C-7.862,5.967 -8.004,5.895 -8.147,5.827C-9.108,5.372 -9.221,4.602 -8.646,3.659C-8.538,3.482 -8.365,3.344 -8.218,3.193C-6.802,1.73 -5.317,0.347 -3.707,-0.905C-2.623,-1.747 -1.599,-2.665 -0.536,-3.535C-0.311,-3.719 -0.212,-3.93 -0.18,-4.207C-0.105,-4.863 -0.022,-5.518 0.071,-6.172C0.133,-6.607 0.208,-6.645 0.646,-6.566C1.475,-6.416 2.304,-6.259 3.137,-6.133C3.44,-6.086 3.546,-5.963 3.507,-5.666C3.438,-5.142 3.382,-4.617 3.328,-4.092C3.309,-3.908 3.285,-3.721 3.306,-3.54C3.324,-3.382 3.424,-3.189 3.614,-3.308C3.928,-3.504 4.059,-3.25 4.198,-3.098C4.928,-2.3 5.653,-1.496 6.355,-0.673C7.091,0.191 7.833,1.054 8.511,1.963C9.266,2.976 9.975,4.026 10.661,5.087C11.494,6.376 10.625,7.331 9.601,7.562C8.782,7.746 7.937,7.84 7.098,7.897C6.39,7.945 5.674,7.896 4.963,7.865C4.278,7.836 3.594,7.775 2.91,7.728C2.911,7.701 2.912,7.675 2.914,7.649" style="fill:white;fill-rule:nonzero;"/>
            </g>
            <g transform="matrix(4.16667,0,0,4.16667,1131.85,1424.11)">
                <path d="M0,-7.879L-6.478,-2.123C-7.258,-1.429 -6.819,-0.138 -5.777,-0.064L7.963,0.906C8.99,0.979 9.611,-0.205 8.968,-1.008L3.719,-7.564C2.798,-8.714 1.101,-8.858 0,-7.879" style="fill:rgb(47,197,244);fill-rule:nonzero;"/>
            </g>
            <g transform="matrix(4.16667,0,0,4.16667,1137.99,1414.8)">
                <path d="M0,-10.611C1.564,-10.327 2.692,-10.384 3.817,-10.549C4.246,-10.611 4.667,-10.8 4.871,-11.182C5.486,-12.331 5.58,-13.458 3.949,-13.868C3.237,-14.048 2.495,-14.126 1.799,-14.351C0.463,-14.784 -0.859,-14.505 -2.188,-14.381C-2.291,-14.371 -2.392,-14.327 -2.49,-14.289C-3.167,-14.031 -3.49,-13.528 -3.48,-12.752C-3.472,-12.064 -3.121,-11.542 -2.456,-11.332C-1.503,-11.031 -0.538,-10.768 0,-10.611M1.437,3.775C1.436,3.801 1.435,3.827 1.434,3.854C2.118,3.901 2.802,3.962 3.487,3.992C4.198,4.022 4.914,4.071 5.622,4.023C6.46,3.966 7.306,3.872 8.125,3.688C9.149,3.457 10.018,2.502 9.185,1.213C8.499,0.152 7.79,-0.898 7.035,-1.911C6.357,-2.82 5.615,-3.683 4.879,-4.547C4.177,-5.37 3.452,-6.174 2.722,-6.972C2.583,-7.124 2.452,-7.378 2.138,-7.182C1.948,-7.063 1.848,-7.256 1.83,-7.414C1.809,-7.594 1.833,-7.782 1.852,-7.965C1.906,-8.491 1.962,-9.016 2.031,-9.54C2.07,-9.837 1.964,-9.96 1.661,-10.007C0.828,-10.133 -0.001,-10.29 -0.83,-10.44C-1.268,-10.519 -1.343,-10.481 -1.405,-10.046C-1.499,-9.392 -1.582,-8.737 -1.656,-8.081C-1.688,-7.804 -1.787,-7.593 -2.012,-7.409C-3.075,-6.539 -4.099,-5.621 -5.183,-4.779C-6.793,-3.527 -8.278,-2.144 -9.694,-0.681C-9.841,-0.529 -10.014,-0.392 -10.122,-0.215C-10.697,0.728 -10.584,1.498 -9.623,1.953C-9.48,2.021 -9.338,2.094 -9.19,2.148C-8.424,2.431 -7.666,2.742 -6.886,2.982C-5.567,3.388 -4.206,3.582 -2.831,3.648C-1.41,3.716 0.015,3.734 1.437,3.775M2.19,4.355C0.637,4.296 -0.918,4.259 -2.47,4.172C-4.991,4.031 -7.454,3.62 -9.752,2.496C-11.183,1.796 -11.438,0.366 -10.328,-0.809C-8.765,-2.463 -7.087,-3.987 -5.271,-5.362C-4.304,-6.095 -3.364,-6.864 -2.422,-7.63C-2.291,-7.736 -2.164,-7.907 -2.131,-8.067C-1.989,-8.765 -1.886,-9.47 -1.76,-10.172C-1.699,-10.514 -1.801,-10.734 -2.161,-10.815C-2.313,-10.849 -2.457,-10.925 -2.606,-10.978C-3.457,-11.278 -3.893,-11.957 -3.804,-12.868C-3.742,-13.508 -3.61,-14.127 -3.026,-14.516C-2.793,-14.672 -2.539,-14.854 -2.275,-14.894C-0.808,-15.12 0.658,-15.226 2.118,-14.791C2.797,-14.588 3.501,-14.468 4.192,-14.299C4.638,-14.191 5.036,-13.981 5.329,-13.621C5.459,-13.462 5.579,-13.275 5.638,-13.081C6.036,-11.791 5.173,-10.369 3.849,-10.13C3.512,-10.069 3.167,-10.039 2.825,-10.029C2.546,-10.021 2.462,-9.891 2.453,-9.637C2.441,-9.32 2.43,-9 2.369,-8.691C2.273,-8.207 2.375,-7.91 2.839,-7.61C3.358,-7.273 3.776,-6.759 4.184,-6.278C5.293,-4.966 6.433,-3.675 7.446,-2.293C8.253,-1.191 9.165,-0.155 9.77,1.097C10.398,2.395 9.935,3.702 8.546,4.133C7.798,4.365 6.999,4.466 6.214,4.54C5.429,4.615 4.633,4.61 3.843,4.588C3.291,4.572 2.741,4.468 2.19,4.403L2.19,4.355Z" style="fill:rgb(35,31,32);fill-rule:nonzero;"/>
            </g>
            <g transform="matrix(4.16667,0,0,4.16667,1134.43,1368.04)">
                <path d="M0,-2.666C-0.129,-2.688 -0.268,-2.757 -0.354,-2.716C-0.538,-2.629 -0.736,-2.516 -0.853,-2.358C-1.146,-1.958 -1.026,-1.535 -0.572,-1.215C-0.028,-0.831 1.902,-0.367 2.691,-0.443C2.979,-0.471 3.271,-0.508 3.548,-0.587C4.188,-0.768 4.534,-1.368 4.347,-2.001C4.293,-2.182 4.132,-2.351 3.979,-2.474C3.905,-2.534 3.736,-2.477 3.611,-2.473C3.627,-2.361 3.613,-2.232 3.664,-2.14C4.007,-1.51 3.897,-1.228 3.227,-1.059C3.125,-1.033 3.021,-0.997 2.917,-0.996C1.934,-0.983 0.964,-1.102 0.044,-1.45C-0.655,-1.715 -0.667,-1.956 -0.086,-2.48C-0.053,-2.511 -0.043,-2.569 0,-2.666M0.855,0.611C0.317,0.455 -0.647,0.191 -1.6,-0.11C-2.265,-0.32 -2.617,-0.841 -2.625,-1.53C-2.635,-2.305 -2.311,-2.809 -1.634,-3.067C-1.536,-3.104 -1.436,-3.148 -1.333,-3.158C-0.004,-3.282 1.318,-3.562 2.655,-3.129C3.351,-2.904 4.093,-2.825 4.805,-2.646C6.436,-2.235 6.341,-1.109 5.727,0.04C5.522,0.422 5.101,0.611 4.672,0.673C3.548,0.838 2.42,0.896 0.855,0.611" style="fill:rgb(186,227,229);fill-rule:nonzero;"/>
            </g>
            <g transform="matrix(4.16667,0,0,4.16667,1106.36,1419.74)">
                <path d="M0,-1.104C0.459,-1.365 0.767,-1.317 1.067,-1.213C1.961,-0.903 2.853,-0.585 3.743,-0.266C3.841,-0.23 3.94,-0.182 4.02,-0.116C4.072,-0.073 4.135,0.039 4.115,0.073C4.068,0.153 3.974,0.257 3.897,0.259C3.746,0.261 3.587,0.217 3.442,0.164C2.75,-0.087 2.063,-0.35 1.373,-0.605C0.964,-0.756 0.553,-0.903 0,-1.104" style="fill:rgb(35,31,32);fill-rule:nonzero;"/>
            </g>
            <g transform="matrix(4.16667,0,0,4.16667,1109.43,1410.21)">
                <path d="M0,-0.731C0.151,-0.793 0.259,-0.876 0.366,-0.875C1.434,-0.868 2.414,-0.447 3.431,-0.199C3.478,-0.188 3.537,-0.067 3.524,-0.014C3.51,0.047 3.424,0.126 3.363,0.132C3.209,0.145 3.047,0.145 2.897,0.11C2.004,-0.1 1.113,-0.318 0.224,-0.542C0.159,-0.559 0.109,-0.636 0,-0.731" style="fill:rgb(35,31,32);fill-rule:nonzero;"/>
            </g>
            <g transform="matrix(2.81044,-3.07613,-3.07613,-2.81044,1130.95,1397.92)">
                <path d="M-0.948,-1.154C-1.69,-0.133 -2.35,0.936 -2.741,2.159C-1.948,1.417 -1.548,0.416 -0.948,-0.449C-0.826,-0.623 -0.8,-0.864 -0.729,-1.075C-0.802,-1.102 -0.875,-1.128 -0.948,-1.154" style="fill:rgb(35,31,32);fill-rule:nonzero;"/>
            </g>
            <g transform="matrix(4.16667,0,0,4.16667,1134.43,1366.14)">
                <path d="M0,-2.208C-0.043,-2.111 -0.053,-2.053 -0.086,-2.022C-0.667,-1.498 -0.655,-1.257 0.044,-0.992C0.964,-0.644 1.934,-0.525 2.917,-0.538C3.021,-0.539 3.125,-0.575 3.227,-0.601C3.897,-0.77 4.007,-1.052 3.664,-1.682C3.613,-1.774 3.627,-1.903 3.611,-2.015C3.736,-2.019 3.905,-2.076 3.979,-2.016C4.132,-1.893 4.293,-1.724 4.347,-1.543C4.534,-0.91 4.188,-0.31 3.548,-0.129C3.271,-0.05 2.979,-0.013 2.691,0.015C1.902,0.091 -0.028,-0.373 -0.572,-0.757C-1.026,-1.077 -1.146,-1.5 -0.853,-1.9C-0.736,-2.058 -0.538,-2.171 -0.354,-2.258C-0.268,-2.299 -0.129,-2.23 0,-2.208" style="fill:rgb(35,31,32);fill-rule:nonzero;"/>
            </g>
            <g transform="matrix(4.16667,0,0,4.16667,1156.71,1422.29)">
                <path d="M0,4.605C0.006,4.583 0.012,4.561 0.019,4.539C0.254,4.577 0.488,4.624 0.726,4.647C0.786,4.652 0.908,4.578 0.907,4.543C0.904,4.452 0.872,4.337 0.808,4.279C0.735,4.213 0.618,4.192 0.517,4.164C-0.378,3.918 -1.274,3.674 -2.17,3.433C-2.245,3.413 -2.328,3.401 -2.404,3.41C-2.445,3.414 -2.499,3.462 -2.514,3.502C-2.53,3.544 -2.526,3.626 -2.498,3.647C-2.353,3.758 -2.21,3.892 -2.042,3.95C-1.366,4.182 -0.682,4.389 0,4.605M-0.464,1.8L-0.454,1.737C-0.717,1.694 -0.979,1.649 -1.243,1.609C-1.532,1.565 -1.821,1.519 -2.112,1.491C-2.172,1.485 -2.271,1.545 -2.296,1.601C-2.316,1.645 -2.267,1.742 -2.221,1.79C-2.168,1.844 -2.089,1.888 -2.015,1.905C-1.004,2.136 0.008,2.364 1.021,2.581C1.145,2.607 1.284,2.568 1.414,2.545C1.459,2.538 1.533,2.485 1.532,2.455C1.53,2.384 1.512,2.281 1.463,2.25C1.33,2.165 1.185,2.078 1.033,2.048C0.537,1.952 0.035,1.881 -0.464,1.8M1.646,1.067C1.702,1.047 1.816,1.005 1.932,0.964C1.881,0.855 1.858,0.682 1.776,0.648C1.266,0.436 0.752,0.216 0.22,0.073C-0.394,-0.091 -1.028,-0.181 -1.654,-0.298C-1.872,-0.338 -2.097,-0.565 -2.311,-0.319C-2.438,-0.171 -2.193,0.073 -1.733,0.193C-0.99,0.388 -0.236,0.546 0.51,0.732C0.869,0.822 1.221,0.94 1.646,1.067M0.163,-1.59C0.16,-1.578 0.158,-1.565 0.156,-1.553C-0.341,-1.634 -0.836,-1.727 -1.334,-1.789C-1.51,-1.81 -1.698,-1.764 -1.874,-1.722C-1.898,-1.716 -1.915,-1.543 -1.881,-1.474C-1.856,-1.423 -1.745,-1.405 -1.668,-1.39C-0.477,-1.141 0.715,-0.894 1.908,-0.651C2.037,-0.625 2.172,-0.611 2.302,-0.623C2.366,-0.628 2.472,-0.703 2.473,-0.748C2.475,-0.838 2.443,-0.966 2.378,-1.011C2.251,-1.1 2.097,-1.166 1.945,-1.201C1.353,-1.339 0.757,-1.461 0.163,-1.59M13.389,-3.881C13.332,-3.525 13.285,-3.241 13.239,-2.956C12.601,1.015 11.938,4.982 11.347,8.96C11.224,9.785 10.797,10.178 10.102,10.41C9.827,10.502 9.531,10.56 9.242,10.577C8.393,10.63 7.548,10.649 6.696,10.521C5.513,10.342 4.315,10.262 3.13,10.098C1.624,9.89 0.151,9.522 -1.294,9.051C-2.069,8.799 -2.726,8.349 -3.3,7.78C-3.798,7.287 -3.88,6.694 -3.768,6.013C-3.235,2.78 -2.73,-0.457 -2.215,-3.692C-2.119,-4.297 -2.024,-4.903 -1.921,-5.506C-1.891,-5.684 -1.833,-5.856 -1.785,-6.044C-1.67,-6.025 -1.586,-6.031 -1.523,-5.999C0.478,-4.955 2.658,-4.456 4.817,-3.89C6.955,-3.33 9.12,-3.229 11.304,-3.486C11.96,-3.564 12.606,-3.73 13.389,-3.881" style="fill:white;fill-rule:nonzero;"/>
            </g>
            <g transform="matrix(4.16667,0,0,4.16667,1185.32,1408.2)">
                <path d="M0,12.856L-6.952,11.728C-8.405,11.492 -9.401,10.109 -9.166,8.656L-7.821,0.374C-7.762,0.012 -7.418,-0.236 -7.056,-0.178L3.865,1.595C4.227,1.654 4.475,1.999 4.416,2.361L3.072,10.642C2.836,12.096 1.454,13.092 0,12.856" style="fill:rgb(215,223,34);fill-rule:nonzero;"/>
            </g>
            <g transform="matrix(4.16667,0,0,4.16667,1181.7,1464.22)">
                <path d="M0,-20.763C0.003,-20.792 0.006,-20.822 0.009,-20.852C-1.576,-21.021 -3.162,-21.186 -4.747,-21.36C-5.831,-21.478 -6.782,-21.073 -7.709,-20.601C-7.906,-20.502 -8.088,-20.289 -8.18,-20.085C-8.386,-19.627 -8.542,-19.146 -8.697,-18.668C-8.821,-18.284 -8.695,-17.965 -8.458,-17.633C-7.786,-16.692 -6.804,-16.238 -5.78,-15.848C-5.21,-15.632 -4.622,-15.455 -4.032,-15.298C-2.62,-14.922 -1.21,-14.534 0.216,-14.22C0.885,-14.072 1.59,-14.093 2.277,-14.02C3.667,-13.872 5.044,-13.954 6.389,-14.316C6.946,-14.465 7.476,-14.736 7.992,-15.001C8.188,-15.102 8.354,-15.32 8.465,-15.522C8.763,-16.067 9.001,-16.696 8.833,-17.277C8.673,-17.828 8.148,-18.206 7.62,-18.488C7.433,-18.588 7.241,-18.684 7.043,-18.76C6.023,-19.144 5.001,-19.521 3.979,-19.899C3.905,-19.927 3.826,-19.942 3.748,-19.959C2.499,-20.227 1.249,-20.495 0,-20.763M7.394,-13.944C6.61,-13.793 5.964,-13.627 5.308,-13.549C3.124,-13.292 0.959,-13.393 -1.178,-13.953C-3.338,-14.519 -5.518,-15.018 -7.519,-16.061C-7.582,-16.094 -7.666,-16.088 -7.781,-16.107C-7.829,-15.919 -7.886,-15.746 -7.917,-15.569C-8.02,-14.966 -8.114,-14.36 -8.21,-13.755C-8.726,-10.52 -9.23,-7.283 -9.764,-4.05C-9.876,-3.369 -9.793,-2.776 -9.295,-2.283C-8.721,-1.714 -8.065,-1.263 -7.29,-1.012C-5.844,-0.541 -4.372,-0.173 -2.866,0.035C-1.681,0.199 -0.483,0.279 0.7,0.458C1.552,0.586 2.397,0.567 3.246,0.514C3.536,0.497 3.831,0.44 4.106,0.347C4.801,0.115 5.229,-0.278 5.351,-1.103C5.942,-5.081 6.605,-9.048 7.243,-13.019C7.289,-13.304 7.336,-13.588 7.394,-13.944M-9.329,-9.779C-9,-11.804 -8.683,-13.831 -8.333,-15.852C-8.254,-16.308 -8.274,-16.697 -8.631,-17.013C-9.396,-17.69 -9.295,-18.515 -9.044,-19.366C-8.999,-19.518 -8.894,-19.656 -8.866,-19.809C-8.614,-21.192 -7.477,-21.511 -6.382,-21.8C-5.803,-21.953 -5.163,-21.952 -4.558,-21.914C-2.725,-21.8 -0.893,-21.657 0.879,-21.108C1.208,-21.006 1.558,-20.972 1.898,-20.906C3.1,-20.672 4.289,-20.4 5.42,-19.904C6.198,-19.563 7.001,-19.28 7.792,-18.969C8.415,-18.724 8.809,-18.207 9.231,-17.733C9.503,-17.428 9.493,-17.029 9.39,-16.667C9.165,-15.882 9.036,-15.051 8.305,-14.498C8.124,-14.361 8.033,-14.05 7.985,-13.802C7.8,-12.834 7.644,-11.86 7.484,-10.888C7.062,-8.311 6.651,-5.732 6.222,-3.157C6.073,-2.264 5.872,-1.38 5.716,-0.489C5.631,-0.005 5.375,0.318 4.97,0.584C4.141,1.13 3.204,1.19 2.277,1.15C0.31,1.067 -1.66,0.924 -3.593,0.526C-4.841,0.268 -6.087,-0.03 -7.302,-0.414C-8.519,-0.798 -9.542,-1.484 -10.2,-2.654C-10.393,-2.996 -10.415,-3.283 -10.356,-3.63C-10.036,-5.548 -9.721,-7.467 -9.405,-9.387C-9.383,-9.518 -9.362,-9.649 -9.341,-9.781C-9.337,-9.78 -9.333,-9.78 -9.329,-9.779" style="fill:rgb(35,31,32);fill-rule:nonzero;"/>
            </g>
            <g transform="matrix(4.16667,0,0,4.16667,1162.59,1400.03)">
                <path d="M0,-4.542C-0.002,-4.57 -0.003,-4.599 -0.005,-4.627C-0.396,-4.604 -0.792,-4.616 -1.176,-4.55C-1.663,-4.465 -2.049,-4.016 -2.08,-3.556C-2.111,-3.086 -1.811,-2.82 -1.443,-2.627C-0.164,-1.955 1.203,-1.504 2.598,-1.166C3.761,-0.884 4.958,-0.749 6.132,-0.508C7.3,-0.269 8.458,-0.308 9.624,-0.487C10.304,-0.591 10.893,-0.886 11.399,-1.337C11.763,-1.663 11.746,-2.216 11.372,-2.529C11.29,-2.598 11.13,-2.602 11.013,-2.586C10.976,-2.582 10.911,-2.385 10.945,-2.324C11.196,-1.868 10.934,-1.618 10.583,-1.431C10.304,-1.281 10.007,-1.123 9.701,-1.074C8.651,-0.908 7.598,-0.742 6.529,-0.959C5.095,-1.251 3.639,-1.458 2.226,-1.829C1.101,-2.124 0.022,-2.602 -1.07,-3.018C-1.34,-3.121 -1.635,-3.275 -1.608,-3.632C-1.581,-4 -1.293,-4.172 -0.977,-4.274C-0.656,-4.377 -0.326,-4.454 0,-4.542M4.586,-5.359C5.835,-5.091 7.084,-4.823 8.333,-4.555C8.412,-4.538 8.491,-4.523 8.565,-4.495C9.587,-4.117 10.609,-3.74 11.629,-3.355C11.827,-3.28 12.019,-3.184 12.206,-3.084C12.734,-2.802 13.259,-2.424 13.418,-1.873C13.587,-1.292 13.349,-0.663 13.051,-0.118C12.94,0.084 12.774,0.302 12.578,0.403C12.062,0.668 11.532,0.939 10.975,1.088C9.63,1.45 8.252,1.532 6.863,1.384C6.176,1.311 5.471,1.332 4.802,1.185C3.376,0.87 1.966,0.482 0.554,0.106C-0.036,-0.051 -0.624,-0.228 -1.194,-0.444C-2.218,-0.834 -3.2,-1.288 -3.872,-2.229C-4.109,-2.561 -4.235,-2.88 -4.111,-3.264C-3.957,-3.742 -3.8,-4.223 -3.594,-4.681C-3.502,-4.885 -3.32,-5.098 -3.124,-5.197C-2.196,-5.669 -1.245,-6.074 -0.161,-5.956C1.424,-5.782 3.01,-5.617 4.595,-5.448C4.592,-5.418 4.589,-5.388 4.586,-5.359" style="fill:rgb(232,242,212);fill-rule:nonzero;"/>
            </g>
            <g transform="matrix(4.16667,0,0,4.16667,1157.39,1418.83)">
                <path d="M0,-0.759C0.595,-0.631 1.19,-0.508 1.783,-0.37C1.935,-0.335 2.089,-0.269 2.216,-0.18C2.281,-0.135 2.313,-0.007 2.311,0.083C2.31,0.128 2.203,0.202 2.139,0.208C2.01,0.22 1.874,0.206 1.746,0.18C0.553,-0.063 -0.639,-0.31 -1.831,-0.559C-1.907,-0.574 -2.019,-0.592 -2.044,-0.643C-2.078,-0.712 -2.061,-0.885 -2.036,-0.891C-1.86,-0.933 -1.673,-0.979 -1.497,-0.958C-0.999,-0.896 -0.503,-0.803 -0.007,-0.722C-0.005,-0.735 -0.002,-0.747 0,-0.759" style="fill:rgb(35,31,32);fill-rule:nonzero;"/>
            </g>
            <g transform="matrix(4.16667,0,0,4.16667,1163.57,1419.93)">
                <path d="M0,1.632C-0.425,1.506 -0.777,1.387 -1.136,1.298C-1.882,1.111 -2.636,0.953 -3.379,0.758C-3.839,0.638 -4.084,0.394 -3.957,0.246C-3.743,0 -3.518,0.227 -3.3,0.267C-2.674,0.384 -2.04,0.474 -1.426,0.638C-0.894,0.781 -0.38,1.001 0.13,1.213C0.212,1.247 0.235,1.42 0.286,1.529C0.17,1.57 0.056,1.612 0,1.632" style="fill:rgb(35,31,32);fill-rule:nonzero;"/>
            </g>
            <g transform="matrix(4.16667,0,0,4.16667,1154.78,1431.84)">
                <path d="M0,-0.493C0.499,-0.412 1,-0.341 1.497,-0.244C1.648,-0.215 1.794,-0.128 1.927,-0.043C1.976,-0.012 1.994,0.091 1.996,0.162C1.997,0.192 1.923,0.245 1.877,0.253C1.748,0.276 1.608,0.314 1.485,0.288C0.472,0.071 -0.54,-0.157 -1.551,-0.388C-1.625,-0.405 -1.704,-0.449 -1.757,-0.503C-1.803,-0.551 -1.853,-0.648 -1.833,-0.692C-1.807,-0.748 -1.708,-0.807 -1.648,-0.802C-1.357,-0.774 -1.068,-0.727 -0.779,-0.683C-0.515,-0.643 -0.253,-0.598 0.01,-0.556L0,-0.493Z" style="fill:rgb(35,31,32);fill-rule:nonzero;"/>
            </g>
            <g transform="matrix(4.16667,0,0,4.16667,1156.71,1436.66)">
                <path d="M0,1.157C-0.682,0.941 -1.366,0.734 -2.042,0.502C-2.21,0.444 -2.353,0.31 -2.498,0.199C-2.526,0.178 -2.53,0.096 -2.514,0.054C-2.499,0.014 -2.445,-0.034 -2.404,-0.038C-2.328,-0.047 -2.245,-0.035 -2.17,-0.015C-1.274,0.226 -0.378,0.47 0.517,0.716C0.618,0.744 0.735,0.765 0.808,0.831C0.872,0.889 0.904,1.004 0.907,1.095C0.908,1.13 0.786,1.204 0.726,1.199C0.488,1.176 0.254,1.129 0.019,1.091C0.012,1.113 0.006,1.135 0,1.157" style="fill:rgb(35,31,32);fill-rule:nonzero;"/>
            </g>
            <g transform="matrix(4.16667,0,0,4.16667,1162.59,1398.56)">
                <path d="M0,-4.188C-0.326,-4.1 -0.656,-4.023 -0.977,-3.92C-1.293,-3.818 -1.581,-3.646 -1.608,-3.278C-1.635,-2.921 -1.34,-2.767 -1.07,-2.664C0.022,-2.248 1.101,-1.77 2.226,-1.475C3.639,-1.104 5.095,-0.897 6.529,-0.605C7.598,-0.388 8.651,-0.554 9.701,-0.72C10.007,-0.769 10.304,-0.927 10.583,-1.077C10.934,-1.264 11.196,-1.514 10.945,-1.97C10.911,-2.031 10.976,-2.228 11.013,-2.232C11.13,-2.248 11.29,-2.244 11.372,-2.175C11.746,-1.862 11.763,-1.309 11.399,-0.983C10.893,-0.532 10.304,-0.237 9.624,-0.133C8.458,0.046 7.3,0.085 6.132,-0.154C4.958,-0.395 3.761,-0.53 2.598,-0.812C1.203,-1.15 -0.164,-1.601 -1.443,-2.273C-1.811,-2.466 -2.111,-2.732 -2.08,-3.202C-2.049,-3.662 -1.663,-4.111 -1.176,-4.196C-0.792,-4.262 -0.396,-4.25 -0.005,-4.273C-0.003,-4.245 -0.002,-4.216 0,-4.188" style="fill:rgb(35,31,32);fill-rule:nonzero;"/>
            </g>
            <g transform="matrix(4.70756,-0.546882,0.12728,4.1799,-213.797,24.837)">
                <text x="164.253px" y="340.51px" style="font-family:'ITCAvantGardeStd-Bk', 'ITC Avant Garde Gothic Std', sans-serif;font-weight:300;font-size:6.046px;fill:white;">Qumica</text>
            </g>
            <g transform="matrix(4.72227,0.400875,-0.707129,4.12162,-272.569,-23.1385)">
                <text x="289.13px" y="303.396px" style="font-family:'ITCAvantGardeStd-Bk', 'ITC Avant Garde Gothic Std', sans-serif;font-weight:300;font-size:6.848px;fill:rgb(35,31,32);">Qumica</text>
            </g>
            <g transform="matrix(4.72226,0.400861,-0.707106,4.12163,-299.53,-25.4263)">
                <text x="339.678px" y="298.113px" style="font-family:'ITCAvantGardeStd-Bk', 'ITC Avant Garde Gothic Std', sans-serif;font-weight:300;font-size:6.046px;fill:white;">Qumica</text>
            </g>
        </g>
    </g>
</svg>
