<svg clip-rule="evenodd" fill-rule="evenodd" stroke-miterlimit="10" viewBox="0 0 172 50" xmlns="http://www.w3.org/2000/svg"><g fill-rule="nonzero"><path d="m14.116 5.037h145.173c3.105 0 5.855 1.595 7.474 4.004l-3.928.044-9 16 9.356 15.795 3.484-.039c-1.629 2.34-4.335 3.881-7.386 3.881h-145.173c-4.95 0-9-4.05-9-9v-21.685c0-4.95 4.05-9 9-9z" fill="#ffead6" stroke="#f68b1e"/><g fill="#f68b1e"><path d="m73.616 25.987c-.182.351-.962 1.703-2.678 1.703-1.833 0-3.094-1.547-3.094-3.302 0-1.703 1.209-3.276 3.081-3.276 1.534.013 2.392 1.092 2.691 1.755h2.041c-.377-1.404-1.95-3.445-4.719-3.458-3.042 0-5.031 2.418-5.031 4.979 0 2.678 2.106 5.005 5.044 5.005 2.249 0 4.121-1.417 4.706-3.406z"/><path d="m76.411 25.636c0 1.846 1.339 3.783 3.822 3.783s3.822-1.937 3.822-3.783c0-1.833-1.339-3.77-3.822-3.77s-3.822 1.937-3.822 3.757zm1.703 0c0-1.261.949-2.184 2.119-2.184s2.106.923 2.106 2.184-.936 2.184-2.106 2.184-2.119-.923-2.119-2.171z"/><path d="m85.238 29.211h1.703v-3.861c0-.416.065-.858.273-1.235.208-.364.598-.663 1.222-.663.611.013.962.286 1.17.663.182.364.221.767.221 1.183v3.913h1.703v-3.913c0-.429.026-.806.247-1.196s.637-.65 1.235-.65.936.234 1.118.585c.247.377.286.871.286 1.326v3.848h1.703v-3.913c0-1.469-.13-2.054-.78-2.73-.546-.559-1.3-.715-1.898-.715-.754 0-1.378.286-1.82.702-.234.221-.39.455-.52.676-.091-.182-.273-.481-.429-.65-.52-.559-1.17-.728-1.755-.728-1.235 0-1.924.793-2.08 1.118v-.897h-1.599z"/><path d="m104.998 22.074h-1.703v1.04c-.312-.572-1.105-1.261-2.405-1.261-2.002 0-3.627 1.534-3.627 3.783 0 2.015 1.339 3.796 3.627 3.796 1.001 0 1.95-.416 2.405-1.248v1.027h1.703zm-6.032 3.588c0-1.105.78-2.223 2.158-2.223 1.027 0 1.69.585 1.989 1.261.143.312.208.663.195 1.001-.026.351-.104.689-.273 1.001-.325.65-.949 1.144-1.898 1.144-1.534 0-2.171-1.287-2.171-2.171z"/></g></g></svg>