<svg clip-rule="evenodd" fill-rule="evenodd" stroke-miterlimit="10" viewBox="0 0 173 51" xmlns="http://www.w3.org/2000/svg"><g fill-rule="nonzero"><path d="m14.214 5.231h144.269c4.576 0 8.376 3.464 8.924 7.898l-6.712 3.988 6.788 3.408v5.84l-6.788 4.033 6.788 3.409v2.109c0 4.95-4.05 9-9 9h-144.269c-4.95 0-9-4.05-9-9v-21.685c0-4.95 4.05-9 9-9z" fill="#fff7dc" stroke="#ffd400"/><g fill="#f68b1e"><path d="m77.118 23.457c-.624-1.755-2.535-3.133-4.706-3.133-2.808 0-5.096 2.093-5.096 4.966 0 2.795 2.197 5.018 5.07 5.018 1.729 0 3.796-.884 4.693-2.886.364-.806.455-1.781.429-2.418h-5.824v1.56h3.588c-.143.572-.481 1.092-.988 1.456-.494.364-1.144.585-1.911.585-1.534 0-3.12-1.144-3.12-3.315 0-2.093 1.573-3.263 3.12-3.263.741 0 1.352.247 1.846.637.286.221.52.494.715.793z"/><path d="m85.23 22.989h-1.703v3.939c0 1.014-.416 1.82-1.638 1.82-1.209.013-1.56-.819-1.56-1.872v-3.887h-1.703v4.316c0 1.248.442 3.029 2.782 3.042 1.287.013 1.924-.611 2.223-1.17v.949h1.599z"/><path d="m86.79 22.027h1.703v-1.521h-1.703zm0 8.099h1.703v-7.137h-1.703z"/><path d="m89.663 26.551c0 1.846 1.339 3.783 3.822 3.783s3.822-1.937 3.822-3.783c0-1.833-1.339-3.77-3.822-3.77s-3.822 1.937-3.822 3.757zm1.703 0c0-1.261.949-2.184 2.119-2.184s2.106.923 2.106 2.184-.936 2.184-2.106 2.184-2.119-.923-2.119-2.171z"/><path d="m98.49 30.126h1.703v-3.939c0-1.001.416-1.807 1.625-1.82 1.196 0 1.547.819 1.547 1.885v3.874h1.703v-4.303c0-1.261-.442-3.042-2.769-3.055-1.274-.013-1.911.611-2.223 1.17.013-.338.013-.637.013-.949h-1.599z"/></g></g></svg>