<svg clip-rule="evenodd" fill-rule="evenodd" stroke-miterlimit="10" viewBox="0 0 173 50" xmlns="http://www.w3.org/2000/svg"><g fill-rule="nonzero"><path d="m14.051 5.106h144.481c4.102 0 7.578 2.784 8.651 6.553h-8.265v10h8.614v3.29h-8.614v10h8.614v.843c0 4.949-4.05 9-9 9h-144.481c-4.95 0-9-4.051-9-9v-21.686c0-4.95 4.05-9 9-9z" fill="#ddf1f3" stroke="#00b7c6"/><g fill="#008fd4"><path d="m39.925 21.64v9.62h1.937v-3.302h1.183c1.404 0 2.054-.234 2.704-.767.611-.494 1.014-1.482 1.014-2.431s-.39-1.885-1.092-2.457c-.559-.429-1.209-.663-2.834-.663zm1.937 1.703h1.066c.481 0 .923.039 1.313.247.377.182.663.585.663 1.196s-.286 1.04-.637 1.222c-.39.208-.819.247-1.261.247h-1.144z"/><path d="m54.212 24.123h-1.703v3.939c0 1.014-.416 1.82-1.638 1.82-1.209.013-1.56-.819-1.56-1.872v-3.887h-1.703v4.316c0 1.248.442 3.029 2.782 3.042 1.287.013 1.924-.611 2.223-1.17v.949h1.599z"/><path d="m55.772 31.26h1.703v-3.939c0-1.001.416-1.807 1.625-1.82 1.196 0 1.547.819 1.547 1.885v3.874h1.703v-4.303c0-1.261-.442-3.042-2.769-3.055-1.274-.013-1.911.611-2.223 1.17.013-.338.013-.637.013-.949h-1.599z"/><path d="m64.352 31.26h1.703v-5.824h1.222v-1.313h-1.222v-2.483h-1.703v2.483h-1.183v1.313h1.183z"/><path d="m67.446 27.685c0 1.846 1.339 3.783 3.822 3.783s3.822-1.937 3.822-3.783c0-1.833-1.339-3.77-3.822-3.77s-3.822 1.937-3.822 3.757zm1.703 0c0-1.261.949-2.184 2.119-2.184s2.106.923 2.106 2.184-.936 2.184-2.106 2.184-2.119-.923-2.119-2.171z"/><path d="m80.783 33.756h1.82l3.757-9.633h-1.82l-1.716 4.745-1.742-4.745h-1.82l2.691 6.864z"/><path d="m98.229 24.123h-1.703v1.04c-.312-.572-1.105-1.261-2.405-1.261-2.002 0-3.627 1.534-3.627 3.783 0 2.015 1.339 3.796 3.627 3.796 1.001 0 1.95-.416 2.405-1.248v1.027h1.703zm-6.032 3.588c0-1.105.78-2.223 2.158-2.223 1.027 0 1.69.585 1.989 1.261.143.312.208.663.195 1.001-.026.351-.104.689-.273 1.001-.325.65-.949 1.144-1.898 1.144-1.534 0-2.171-1.287-2.171-2.171z"/><path d="m99.789 33.756h1.703v-3.445c.286.455 1.04 1.17 2.431 1.17 2.093 0 3.536-1.703 3.536-3.731 0-1.729-1.053-3.848-3.549-3.848-1.183 0-2.015.546-2.522 1.261v-1.04h-1.599zm5.967-6.058c0 1.17-.871 2.197-2.171 2.197-.611 0-1.157-.247-1.547-.637s-.624-.936-.624-1.547c0-.624.234-1.183.611-1.573.39-.403.923-.65 1.547-.65 1.443 0 2.184 1.17 2.184 2.197z"/><path d="m116.013 24.123h-1.703v1.04c-.312-.572-1.105-1.261-2.405-1.261-2.002 0-3.627 1.534-3.627 3.783 0 2.015 1.339 3.796 3.627 3.796 1.001 0 1.95-.416 2.405-1.248v1.027h1.703zm-6.032 3.588c0-1.105.78-2.223 2.158-2.223 1.027 0 1.69.585 1.989 1.261.143.312.208.663.195 1.001-.026.351-.104.689-.273 1.001-.325.65-.949 1.144-1.898 1.144-1.534 0-2.171-1.287-2.171-2.171z"/><path d="m117.56 31.26h1.703v-3.848c0-1.235.611-1.794 1.807-1.794h.078v-1.716c-1.079.013-1.664.52-1.976 1.157v-.936h-1.612z"/><path d="m122.734 31.26h1.703v-5.824h1.222v-1.313h-1.222v-2.483h-1.703v2.483h-1.183v1.313h1.183z"/><path d="m133.212 28.257c.143-1.248-.182-2.366-1.053-3.263-.663-.689-1.599-1.092-2.665-1.092-2.158 0-3.744 1.781-3.744 3.809 0 1.989 1.573 3.77 3.77 3.77.741 0 1.443-.208 2.041-.624.598-.403 1.105-1.001 1.443-1.794h-1.755c-.325.585-.884.962-1.716.962-.975.013-1.989-.624-2.067-1.768zm-5.72-1.3c.065-.702.754-1.612 2.015-1.612 1.248-.013 1.963.936 2.028 1.612z"/></g></g></svg>