<svg clip-rule="evenodd" fill-rule="evenodd" stroke-miterlimit="10" viewBox="0 0 173 50" xmlns="http://www.w3.org/2000/svg"><g fill-rule="nonzero"><path d="m14.153 5.06h144.173c4.728 0 8.627 3.698 8.967 8.344-6.336.018-11.467 5.159-11.467 11.499s5.131 11.479 11.467 11.498c-.34 4.645-4.239 8.344-8.967 8.344h-144.173c-4.95 0-9-4.05-9-9v-21.685c0-4.95 4.05-9 9-9z" fill="#f0e0ee" stroke="#bd56a0"/><g fill="#bd56a0"><path d="m53.27 18.493v9.62h1.937v-3.302h1.183c1.404 0 2.054-.234 2.704-.767.611-.494 1.014-1.482 1.014-2.431s-.39-1.885-1.092-2.457c-.559-.429-1.209-.663-2.834-.663zm1.937 1.703h1.066c.481 0 .923.039 1.313.247.377.182.663.585.663 1.196s-.286 1.04-.637 1.222c-.39.208-.819.247-1.261.247h-1.144z"/><path d="m67.557 20.976h-1.703v3.939c0 1.014-.416 1.82-1.638 1.82-1.209.013-1.56-.819-1.56-1.872v-3.887h-1.703v4.316c0 1.248.442 3.029 2.782 3.042 1.287.013 1.924-.611 2.223-1.17v.949h1.599z"/><path d="m69.117 28.113h1.703v-3.939c0-1.001.416-1.807 1.625-1.82 1.196 0 1.547.819 1.547 1.885v3.874h1.703v-4.303c0-1.261-.442-3.042-2.769-3.055-1.274-.013-1.911.611-2.223 1.17.013-.338.013-.637.013-.949h-1.599z"/><path d="m77.697 28.113h1.703v-5.824h1.222v-1.313h-1.222v-2.483h-1.703v2.483h-1.183v1.313h1.183z"/><path d="m80.791 24.538c0 1.846 1.339 3.783 3.822 3.783s3.822-1.937 3.822-3.783c0-1.833-1.339-3.77-3.822-3.77s-3.822 1.937-3.822 3.757zm1.703 0c0-1.261.949-2.184 2.119-2.184s2.106.923 2.106 2.184-.936 2.184-2.106 2.184-2.119-.923-2.119-2.171z"/><path d="m97.145 22.289v5.824h1.703v-7.137h-3.64v-.351c0-1.001.702-1.001 1.131-1.001v-1.313c-1.222.013-2.834.143-2.834 2.262v.403h-.884v1.313h.884v5.824h1.703v-5.824zm1.703-2.275v-1.521h-1.703v1.521z"/><path d="m100.408 28.113h1.703v-3.939c0-1.001.416-1.807 1.625-1.82 1.196 0 1.547.819 1.547 1.885v3.874h1.703v-4.303c0-1.261-.442-3.042-2.769-3.055-1.274-.013-1.911.611-2.223 1.17.013-.338.013-.637.013-.949h-1.599z"/><path d="m115.878 20.976h-1.703v1.04c-.312-.572-1.105-1.261-2.405-1.261-2.002 0-3.627 1.534-3.627 3.783 0 2.015 1.339 3.796 3.627 3.796 1.001 0 1.95-.416 2.405-1.248v1.027h1.703zm-6.032 3.588c0-1.105.78-2.223 2.158-2.223 1.027 0 1.69.585 1.989 1.261.143.312.208.663.195 1.001-.026.351-.104.689-.273 1.001-.325.65-.949 1.144-1.898 1.144-1.534 0-2.171-1.287-2.171-2.171z"/><path d="m117.438 18.493h1.703v9.62h-1.703z"/></g></g></svg>