<svg clip-rule="evenodd" fill-rule="evenodd" stroke-miterlimit="10" viewBox="0 0 218 50" xmlns="http://www.w3.org/2000/svg"><g fill-rule="nonzero"><path d="m5.212 25.155 9-16 5.484-.062c1.621-2.4 4.366-3.987 7.463-3.987h176.174c4.949 0 9 4.05 9 9v21.686c0 4.949-4.051 9-9 9h-176.174c-3.059 0-5.771-1.55-7.4-3.902l-5.191.059-9.356-15.794z" fill="#ffead6" stroke="#f68b1e"/><g fill="#f68b1e"><path d="m39.818 12.228h1.937v9.62h-1.937z"/><path d="m43.367 21.848h1.703v-3.939c0-1.001.416-1.807 1.625-1.82 1.196 0 1.547.819 1.547 1.885v3.874h1.703v-4.303c0-1.261-.442-3.042-2.769-3.055-1.274-.013-1.911.611-2.223 1.17.013-.338.013-.637.013-.949h-1.599z"/><path d="m58.785 12.228h-1.703v3.406c-.26-.416-1.027-1.144-2.392-1.144-1.937 0-3.588 1.469-3.588 3.783 0 2.08 1.417 3.796 3.614 3.796 1.456 0 2.132-.715 2.444-1.248v1.027h1.625zm-5.98 6.032c0-1.118.806-2.184 2.197-2.184.611 0 1.157.234 1.547.624.39.377.637.91.637 1.534.026.624-.208 1.183-.611 1.586s-.962.65-1.586.65c-1.313 0-2.184-.988-2.184-2.197z"/><path d="m60.358 13.749h1.703v-1.521h-1.703zm0 8.099h1.703v-7.137h-1.703z"/><path d="m68.964 19.248c-.26.585-.858 1.222-1.924 1.222-1.209 0-2.106-.91-2.106-2.197 0-.624.221-1.196.585-1.586.416-.403.897-.624 1.521-.611.936 0 1.625.533 1.924 1.287h1.742c-.416-1.742-1.937-2.873-3.731-2.873-2.132 0-3.757 1.677-3.757 3.783 0 2.041 1.56 3.796 3.822 3.796 1.846 0 3.263-1.235 3.666-2.821z"/><path d="m79.208 14.711h-1.703v1.04c-.312-.572-1.105-1.261-2.405-1.261-2.002 0-3.627 1.534-3.627 3.783 0 2.015 1.339 3.796 3.627 3.796 1.001 0 1.95-.416 2.405-1.248v1.027h1.703zm-6.032 3.588c0-1.105.78-2.223 2.158-2.223 1.027 0 1.69.585 1.989 1.261.143.312.208.663.195 1.001-.026.351-.104.689-.273 1.001-.325.65-.949 1.144-1.898 1.144-1.534 0-2.171-1.287-2.171-2.171z"/><path d="m91.129 14.711h-1.703v3.939c0 1.014-.416 1.82-1.638 1.82-1.209.013-1.56-.819-1.56-1.872v-3.887h-1.703v4.316c0 1.248.442 3.029 2.782 3.042 1.287.013 1.924-.611 2.223-1.17v.949h1.599z"/><path d="m92.688 21.848h1.703v-3.939c0-1.001.416-1.807 1.625-1.82 1.196 0 1.547.819 1.547 1.885v3.874h1.703v-4.303c0-1.261-.442-3.042-2.769-3.055-1.274-.013-1.911.611-2.223 1.17.013-.338.013-.637.013-.949h-1.599z"/><path d="m108.158 14.711h-1.703v1.04c-.312-.572-1.105-1.261-2.405-1.261-2.002 0-3.627 1.534-3.627 3.783 0 2.015 1.339 3.796 3.627 3.796 1.001 0 1.95-.416 2.405-1.248v1.027h1.703zm-6.032 3.588c0-1.105.78-2.223 2.158-2.223 1.027 0 1.69.585 1.989 1.261.143.312.208.663.195 1.001-.026.351-.104.689-.273 1.001-.325.65-.949 1.144-1.898 1.144-1.534 0-2.171-1.287-2.171-2.171z"/><path d="m113.501 24.344h1.703v-3.445c.286.455 1.04 1.17 2.431 1.17 2.093 0 3.536-1.703 3.536-3.731 0-1.729-1.053-3.848-3.549-3.848-1.183 0-2.015.546-2.522 1.261v-1.04h-1.599zm5.967-6.058c0 1.17-.871 2.197-2.171 2.197-.611 0-1.157-.247-1.547-.637s-.624-.936-.624-1.547c0-.624.234-1.183.611-1.573.39-.403.923-.65 1.547-.65 1.443 0 2.184 1.17 2.184 2.197z"/><path d="m129.725 14.711h-1.703v1.04c-.312-.572-1.105-1.261-2.405-1.261-2.002 0-3.627 1.534-3.627 3.783 0 2.015 1.339 3.796 3.627 3.796 1.001 0 1.95-.416 2.405-1.248v1.027h1.703zm-6.032 3.588c0-1.105.78-2.223 2.158-2.223 1.027 0 1.69.585 1.989 1.261.143.312.208.663.195 1.001-.026.351-.104.689-.273 1.001-.325.65-.949 1.144-1.898 1.144-1.534 0-2.171-1.287-2.171-2.171z"/><path d="m137.863 14.711h-1.703v3.939c0 1.014-.416 1.82-1.638 1.82-1.209.013-1.56-.819-1.56-1.872v-3.887h-1.703v4.316c0 1.248.442 3.029 2.782 3.042 1.287.013 1.924-.611 2.223-1.17v.949h1.599z"/><path d="m144.194 16.635c-.143-1.716-1.573-2.145-2.535-2.145-1.378 0-2.561.871-2.561 2.275.013 1.027.793 1.56 1.755 1.859 1.313.455 1.846.624 1.846 1.235.013.481-.442.832-.975.832-.325 0-.988-.156-1.053-.923h-1.703c.13 1.729 1.625 2.301 2.73 2.301 1.495 0 2.73-.936 2.704-2.405-.013-1.534-1.248-1.872-2.392-2.184-.676-.195-1.196-.442-1.209-.897 0-.351.273-.715.845-.715.663 0 .858.39.871.767z"/><path d="m152.904 14.711h-1.703v1.04c-.312-.572-1.105-1.261-2.405-1.261-2.002 0-3.627 1.534-3.627 3.783 0 2.015 1.339 3.796 3.627 3.796 1.001 0 1.95-.416 2.405-1.248v1.027h1.703zm-6.032 3.588c0-1.105.78-2.223 2.158-2.223 1.027 0 1.69.585 1.989 1.261.143.312.208.663.195 1.001-.026.351-.104.689-.273 1.001-.325.65-.949 1.144-1.898 1.144-1.534 0-2.171-1.287-2.171-2.171z"/><path d="m163.603 19.248c-.26.585-.858 1.222-1.924 1.222-1.209 0-2.106-.91-2.106-2.197 0-.624.221-1.196.585-1.586.416-.403.897-.624 1.521-.611.936 0 1.625.533 1.924 1.287h1.742c-.416-1.742-1.937-2.873-3.731-2.873-2.132 0-3.757 1.677-3.757 3.783 0 2.041 1.56 3.796 3.822 3.796 1.846 0 3.263-1.235 3.666-2.821z"/><path d="m166.112 18.273c0 1.846 1.339 3.783 3.822 3.783s3.822-1.937 3.822-3.783c0-1.833-1.339-3.77-3.822-3.77s-3.822 1.937-3.822 3.757zm1.703 0c0-1.261.949-2.184 2.119-2.184s2.106.923 2.106 2.184-.936 2.184-2.106 2.184-2.119-.923-2.119-2.171z"/><path d="m174.926 21.848h1.703v-3.848c0-1.235.611-1.794 1.807-1.794h.078v-1.716c-1.079.013-1.664.52-1.976 1.157v-.936h-1.612z"/><path d="m180.1 21.848h1.703v-5.824h1.222v-1.313h-1.222v-2.483h-1.703v2.483h-1.183v1.313h1.183z"/><path d="m190.929 14.711h-1.703v1.04c-.312-.572-1.105-1.261-2.405-1.261-2.002 0-3.627 1.534-3.627 3.783 0 2.015 1.339 3.796 3.627 3.796 1.001 0 1.95-.416 2.405-1.248v1.027h1.703zm-6.032 3.588c0-1.105.78-2.223 2.158-2.223 1.027 0 1.69.585 1.989 1.261.143.312.208.663.195 1.001-.026.351-.104.689-.273 1.001-.325.65-.949 1.144-1.898 1.144-1.534 0-2.171-1.287-2.171-2.171z"/><path d="m79.338 34.848c.143-1.248-.182-2.366-1.053-3.263-.663-.689-1.599-1.092-2.665-1.092-2.158 0-3.744 1.781-3.744 3.809 0 1.989 1.573 3.77 3.77 3.77.741 0 1.443-.208 2.041-.624.598-.403 1.105-1.001 1.443-1.794h-1.755c-.325.585-.884.962-1.716.962-.975.013-1.989-.624-2.067-1.768zm-5.72-1.3c.065-.702.754-1.612 2.015-1.612 1.248-.013 1.963.936 2.028 1.612z"/><path d="m80.508 37.851h1.703v-3.939c0-1.001.416-1.807 1.625-1.82 1.196 0 1.547.819 1.547 1.885v3.874h1.703v-4.303c0-1.261-.442-3.042-2.769-3.055-1.274-.013-1.911.611-2.223 1.17.013-.338.013-.637.013-.949h-1.599z"/><path d="m92.403 28.231h1.703v9.62h-1.703z"/><path d="m103.011 30.714h-1.703v1.04c-.312-.572-1.105-1.261-2.405-1.261-2.002 0-3.627 1.534-3.627 3.783 0 2.015 1.339 3.796 3.627 3.796 1.001 0 1.95-.416 2.405-1.248v1.027h1.703zm-6.032 3.588c0-1.105.78-2.223 2.158-2.223 1.027 0 1.69.585 1.989 1.261.143.312.208.663.195 1.001-.026.351-.104.689-.273 1.001-.325.65-.949 1.144-1.898 1.144-1.534 0-2.171-1.287-2.171-2.171z"/><path d="m107.977 34.276c0 1.846 1.339 3.783 3.822 3.783s3.822-1.937 3.822-3.783c0-1.833-1.339-3.77-3.822-3.77s-3.822 1.937-3.822 3.757zm1.703 0c0-1.261.949-2.184 2.119-2.184s2.106.923 2.106 2.184-.936 2.184-2.106 2.184-2.119-.923-2.119-2.171z"/><path d="m116.791 37.851h1.703v-3.848c0-1.235.611-1.794 1.807-1.794h.078v-1.716c-1.079.013-1.664.52-1.976 1.157v-.936h-1.612z"/><path d="m128.231 30.714h-1.703v1.04c-.312-.572-1.105-1.261-2.405-1.261-2.002 0-3.627 1.534-3.627 3.783 0 2.015 1.339 3.796 3.627 3.796 1.001 0 1.95-.416 2.405-1.248v1.027h1.703zm-6.032 3.588c0-1.105.78-2.223 2.158-2.223 1.027 0 1.69.585 1.989 1.261.143.312.208.663.195 1.001-.026.351-.104.689-.273 1.001-.325.65-.949 1.144-1.898 1.144-1.534 0-2.171-1.287-2.171-2.171z"/><path d="m135.147 35.251c-.26.585-.858 1.222-1.924 1.222-1.209 0-2.106-.91-2.106-2.197 0-.624.221-1.196.585-1.586.416-.403.897-.624 1.521-.611.936 0 1.625.533 1.924 1.287h1.742c-.416-1.742-1.937-2.873-3.731-2.873-2.132 0-3.757 1.677-3.757 3.783 0 2.041 1.56 3.796 3.822 3.796 1.846 0 3.263-1.235 3.666-2.821z"/><path d="m138.033 29.752h1.703v-1.521h-1.703zm0 8.099h1.703v-7.137h-1.703z"/><path d="m140.906 34.276c0 1.846 1.339 3.783 3.822 3.783s3.822-1.937 3.822-3.783c0-1.833-1.339-3.77-3.822-3.77s-3.822 1.937-3.822 3.757zm1.703 0c0-1.261.949-2.184 2.119-2.184s2.106.923 2.106 2.184-.936 2.184-2.106 2.184-2.119-.923-2.119-2.171zm.494-5.421.494 1.027 3.172-1.508-.559-1.235z"/><path d="m149.733 37.851h1.703v-3.939c0-1.001.416-1.807 1.625-1.82 1.196 0 1.547.819 1.547 1.885v3.874h1.703v-4.303c0-1.261-.442-3.042-2.769-3.055-1.274-.013-1.911.611-2.223 1.17.013-.338.013-.637.013-.949h-1.599z"/><path d="m158.092 35.927h1.781v1.924h-1.781z"/></g></g></svg>