<svg clip-rule="evenodd" fill-rule="evenodd" stroke-miterlimit="10" viewBox="0 0 212 51" xmlns="http://www.w3.org/2000/svg"><g fill-rule="nonzero"><path d="m11.87 27.49v-6.029l-6.614-3.322 6.617-3.931c.024-4.929 4.062-8.954 8.997-8.954h176.173c4.95 0 9 4.049 9 9v21.684c0 4.95-4.05 9-9 9h-176.173c-4.95 0-9-4.05-9-9v-1.196l-6.614-3.321z" fill="#fff7dc" stroke="#ffd400"/><g fill="#f68b1e"><path d="m49.997 11.543h1.937v9.62h-1.937z"/><path d="m53.416 21.163h1.703v-3.939c0-1.001.416-1.807 1.625-1.82 1.196 0 1.547.819 1.547 1.885v3.874h1.703v-4.303c0-1.261-.442-3.042-2.769-3.055-1.274-.013-1.911.611-2.223 1.17.013-.338.013-.637.013-.949h-1.599z"/><path d="m68.704 11.543h-1.703v3.406c-.26-.416-1.027-1.144-2.392-1.144-1.937 0-3.588 1.469-3.588 3.783 0 2.08 1.417 3.796 3.614 3.796 1.456 0 2.132-.715 2.444-1.248v1.027h1.625zm-5.98 6.032c0-1.118.806-2.184 2.197-2.184.611 0 1.157.234 1.547.624.39.377.637.91.637 1.534.026.624-.208 1.183-.611 1.586s-.962.65-1.586.65c-1.313 0-2.184-.988-2.184-2.197z"/><path d="m70.147 13.064h1.703v-1.521h-1.703zm0 8.099h1.703v-7.137h-1.703z"/><path d="m78.623 18.563c-.26.585-.858 1.222-1.924 1.222-1.209 0-2.106-.91-2.106-2.197 0-.624.221-1.196.585-1.586.416-.403.897-.624 1.521-.611.936 0 1.625.533 1.924 1.287h1.742c-.416-1.742-1.937-2.873-3.731-2.873-2.132 0-3.757 1.677-3.757 3.783 0 2.041 1.56 3.796 3.822 3.796 1.846 0 3.263-1.235 3.666-2.821z"/><path d="m88.737 14.026h-1.703v1.04c-.312-.572-1.105-1.261-2.405-1.261-2.002 0-3.627 1.534-3.627 3.783 0 2.015 1.339 3.796 3.627 3.796 1.001 0 1.95-.416 2.405-1.248v1.027h1.703zm-6.032 3.588c0-1.105.78-2.223 2.158-2.223 1.027 0 1.69.585 1.989 1.261.143.312.208.663.195 1.001-.026.351-.104.689-.273 1.001-.325.65-.949 1.144-1.898 1.144-1.534 0-2.171-1.287-2.171-2.171z"/><path d="m100.827 18.16c.143-1.248-.182-2.366-1.053-3.263-.663-.689-1.599-1.092-2.665-1.092-2.158 0-3.744 1.781-3.744 3.809 0 1.989 1.573 3.77 3.77 3.77.741 0 1.443-.208 2.041-.624.598-.403 1.105-1.001 1.443-1.794h-1.755c-.325.585-.884.962-1.716.962-.975.013-1.989-.624-2.067-1.768zm-5.72-1.3c.065-.702.754-1.612 2.015-1.612 1.248-.013 1.963.936 2.028 1.612z"/><path d="m101.867 11.543h1.703v9.62h-1.703z"/><path d="m115.946 11.543h-1.703v3.406c-.26-.416-1.027-1.144-2.392-1.144-1.937 0-3.588 1.469-3.588 3.783 0 2.08 1.417 3.796 3.614 3.796 1.456 0 2.132-.715 2.444-1.248v1.027h1.625zm-5.98 6.032c0-1.118.806-2.184 2.197-2.184.611 0 1.157.234 1.547.624.39.377.637.91.637 1.534.026.624-.208 1.183-.611 1.586s-.962.65-1.586.65c-1.313 0-2.184-.988-2.184-2.197z"/><path d="m117.389 13.064h1.703v-1.521h-1.703zm0 8.099h1.703v-7.137h-1.703z"/><path d="m127.867 14.026h-1.703v1.04c-.312-.572-1.105-1.261-2.405-1.261-2.002 0-3.627 1.534-3.627 3.783 0 2.015 1.339 3.796 3.627 3.796 1.001 0 1.95-.416 2.405-1.248v1.027h1.703zm-6.032 3.588c0-1.105.78-2.223 2.158-2.223 1.027 0 1.69.585 1.989 1.261.143.312.208.663.195 1.001-.026.351-.104.689-.273 1.001-.325.65-.949 1.144-1.898 1.144-1.534 0-2.171-1.287-2.171-2.171zm.728-5.447.507 1.027 3.172-1.508-.572-1.235z"/><path d="m129.297 11.543h1.703v9.62h-1.703z"/><path d="m132.04 17.588c0 1.846 1.339 3.783 3.822 3.783s3.822-1.937 3.822-3.783c0-1.833-1.339-3.77-3.822-3.77s-3.822 1.937-3.822 3.757zm1.703 0c0-1.261.949-2.184 2.119-2.184s2.106.923 2.106 2.184-.936 2.184-2.106 2.184-2.119-.923-2.119-2.171z"/><path d="m148.03 14.026h-1.716v.962c-.403-.702-1.287-1.17-2.314-1.17-1.976 0-3.64 1.482-3.64 3.809 0 2.197 1.586 3.757 3.64 3.757 1.209 0 1.963-.637 2.314-1.274v.598c0 1.443-1.105 2.145-2.119 2.145-.208 0-.585-.052-.936-.247-.312-.156-.585-.403-.741-.728h-1.976c.26 1.105 1.326 2.431 3.549 2.431 1.469 0 2.665-.65 3.276-1.469.442-.598.663-1.352.663-2.522zm-5.967 3.549c0-1.274.975-2.171 2.132-2.171.741 0 1.274.286 1.612.715.351.416.52.988.52 1.534-.013.611-.234 1.144-.611 1.521-.377.39-.884.611-1.521.611-1.235 0-2.132-.949-2.132-2.197z"/><path d="m149.044 17.588c0 1.846 1.339 3.783 3.822 3.783s3.822-1.937 3.822-3.783c0-1.833-1.339-3.77-3.822-3.77s-3.822 1.937-3.822 3.757zm1.703 0c0-1.261.949-2.184 2.119-2.184s2.106.923 2.106 2.184-.936 2.184-2.106 2.184-2.119-.923-2.119-2.171z"/><path d="m161.017 17.588c0 1.846 1.339 3.783 3.822 3.783s3.822-1.937 3.822-3.783c0-1.833-1.339-3.77-3.822-3.77s-3.822 1.937-3.822 3.757zm1.703 0c0-1.261.949-2.184 2.119-2.184s2.106.923 2.106 2.184-.936 2.184-2.106 2.184-2.119-.923-2.119-2.171z"/><path d="m24.309 34.566c-.26.585-.858 1.222-1.924 1.222-1.209 0-2.106-.91-2.106-2.197 0-.624.221-1.196.585-1.586.416-.403.897-.624 1.521-.611.936 0 1.625.533 1.924 1.287h1.742c-.416-1.742-1.937-2.873-3.731-2.873-2.132 0-3.757 1.677-3.757 3.783 0 2.041 1.56 3.796 3.822 3.796 1.846 0 3.263-1.235 3.666-2.821z"/><path d="m26.688 33.591c0 1.846 1.339 3.783 3.822 3.783s3.822-1.937 3.822-3.783c0-1.833-1.339-3.77-3.822-3.77s-3.822 1.937-3.822 3.757zm1.703 0c0-1.261.949-2.184 2.119-2.184s2.106.923 2.106 2.184-.936 2.184-2.106 2.184-2.119-.923-2.119-2.171z"/><path d="m35.385 37.166h1.703v-3.861c0-.416.065-.858.273-1.235.208-.364.598-.663 1.222-.663.611.013.962.286 1.17.663.182.364.221.767.221 1.183v3.913h1.703v-3.913c0-.429.026-.806.247-1.196s.637-.65 1.235-.65.936.234 1.118.585c.247.377.286.871.286 1.326v3.848h1.703v-3.913c0-1.469-.13-2.054-.78-2.73-.546-.559-1.3-.715-1.898-.715-.754 0-1.378.286-1.82.702-.234.221-.39.455-.52.676-.091-.182-.273-.481-.429-.65-.52-.559-1.17-.728-1.755-.728-1.235 0-1.924.793-2.08 1.118v-.897h-1.599z"/><path d="m54.664 34.163c.143-1.248-.182-2.366-1.053-3.263-.663-.689-1.599-1.092-2.665-1.092-2.158 0-3.744 1.781-3.744 3.809 0 1.989 1.573 3.77 3.77 3.77.741 0 1.443-.208 2.041-.624.598-.403 1.105-1.001 1.443-1.794h-1.755c-.325.585-.884.962-1.716.962-.975.013-1.989-.624-2.067-1.768zm-5.72-1.3c.065-.702.754-1.612 2.015-1.612 1.248-.013 1.963.936 2.028 1.612z"/><path d="m55.704 37.166h1.703v-3.939c0-1.001.416-1.807 1.625-1.82 1.196 0 1.547.819 1.547 1.885v3.874h1.703v-4.303c0-1.261-.442-3.042-2.769-3.055-1.274-.013-1.911.611-2.223 1.17.013-.338.013-.637.013-.949h-1.599z"/><path d="m64.154 37.166h1.703v-5.824h1.222v-1.313h-1.222v-2.483h-1.703v2.483h-1.183v1.313h1.183z"/><path d="m74.853 30.029h-1.703v1.04c-.312-.572-1.105-1.261-2.405-1.261-2.002 0-3.627 1.534-3.627 3.783 0 2.015 1.339 3.796 3.627 3.796 1.001 0 1.95-.416 2.405-1.248v1.027h1.703zm-6.032 3.588c0-1.105.78-2.223 2.158-2.223 1.027 0 1.69.585 1.989 1.261.143.312.208.663.195 1.001-.026.351-.104.689-.273 1.001-.325.65-.949 1.144-1.898 1.144-1.534 0-2.171-1.287-2.171-2.171z"/><path d="m76.27 37.166h1.703v-3.848c0-1.235.611-1.794 1.807-1.794h.078v-1.716c-1.079.013-1.664.52-1.976 1.157v-.936h-1.612z"/><path d="m80.638 29.067h1.703v-1.521h-1.703zm0 8.099h1.703v-7.137h-1.703z"/><path d="m83.381 33.591c0 1.846 1.339 3.783 3.822 3.783s3.822-1.937 3.822-3.783c0-1.833-1.339-3.77-3.822-3.77s-3.822 1.937-3.822 3.757zm1.703 0c0-1.261.949-2.184 2.119-2.184s2.106.923 2.106 2.184-.936 2.184-2.106 2.184-2.119-.923-2.119-2.171z"/><path d="m103.037 27.546h-1.703v3.406c-.26-.416-1.027-1.144-2.392-1.144-1.937 0-3.588 1.469-3.588 3.783 0 2.08 1.417 3.796 3.614 3.796 1.456 0 2.132-.715 2.444-1.248v1.027h1.625zm-5.98 6.032c0-1.118.806-2.184 2.197-2.184.611 0 1.157.234 1.547.624.39.377.637.91.637 1.534.026.624-.208 1.183-.611 1.586s-.962.65-1.586.65c-1.313 0-2.184-.988-2.184-2.197z"/><path d="m111.487 34.163c.143-1.248-.182-2.366-1.053-3.263-.663-.689-1.599-1.092-2.665-1.092-2.158 0-3.744 1.781-3.744 3.809 0 1.989 1.573 3.77 3.77 3.77.741 0 1.443-.208 2.041-.624.598-.403 1.105-1.001 1.443-1.794h-1.755c-.325.585-.884.962-1.716.962-.975.013-1.989-.624-2.067-1.768zm-5.72-1.3c.065-.702.754-1.612 2.015-1.612 1.248-.013 1.963.936 2.028 1.612z"/><path d="m122.758 30.029h-1.703v3.939c0 1.014-.416 1.82-1.638 1.82-1.209.013-1.56-.819-1.56-1.872v-3.887h-1.703v4.316c0 1.248.442 3.029 2.782 3.042 1.287.013 1.924-.611 2.223-1.17v.949h1.599z"/><path d="m124.188 37.166h1.703v-3.939c0-1.001.416-1.807 1.625-1.82 1.196 0 1.547.819 1.547 1.885v3.874h1.703v-4.303c0-1.261-.442-3.042-2.769-3.055-1.274-.013-1.911.611-2.223 1.17.013-.338.013-.637.013-.949h-1.599z"/><path d="m135.199 39.662h1.703v-3.445c.286.455 1.04 1.17 2.431 1.17 2.093 0 3.536-1.703 3.536-3.731 0-1.729-1.053-3.848-3.549-3.848-1.183 0-2.015.546-2.522 1.261v-1.04h-1.599zm5.967-6.058c0 1.17-.871 2.197-2.171 2.197-.611 0-1.157-.247-1.547-.637s-.624-.936-.624-1.547c0-.624.234-1.183.611-1.573.39-.403.923-.65 1.547-.65 1.443 0 2.184 1.17 2.184 2.197z"/><path d="m150.942 34.163c.143-1.248-.182-2.366-1.053-3.263-.663-.689-1.599-1.092-2.665-1.092-2.158 0-3.744 1.781-3.744 3.809 0 1.989 1.573 3.77 3.77 3.77.741 0 1.443-.208 2.041-.624.598-.403 1.105-1.001 1.443-1.794h-1.755c-.325.585-.884.962-1.716.962-.975.013-1.989-.624-2.067-1.768zm-5.72-1.3c.065-.702.754-1.612 2.015-1.612 1.248-.013 1.963.936 2.028 1.612z"/><path d="m151.969 37.166h1.703v-3.848c0-1.235.611-1.794 1.807-1.794h.078v-1.716c-1.079.013-1.664.52-1.976 1.157v-.936h-1.612z"/><path d="m161.017 31.953c-.143-1.716-1.573-2.145-2.535-2.145-1.378 0-2.561.871-2.561 2.275.013 1.027.793 1.56 1.755 1.859 1.313.455 1.846.624 1.846 1.235.013.481-.442.832-.975.832-.325 0-.988-.156-1.053-.923h-1.703c.13 1.729 1.625 2.301 2.73 2.301 1.495 0 2.73-.936 2.704-2.405-.013-1.534-1.248-1.872-2.392-2.184-.676-.195-1.196-.442-1.209-.897 0-.351.273-.715.845-.715.663 0 .858.39.871.767z"/><path d="m161.862 33.591c0 1.846 1.339 3.783 3.822 3.783s3.822-1.937 3.822-3.783c0-1.833-1.339-3.77-3.822-3.77s-3.822 1.937-3.822 3.757zm1.703 0c0-1.261.949-2.184 2.119-2.184s2.106.923 2.106 2.184-.936 2.184-2.106 2.184-2.119-.923-2.119-2.171z"/><path d="m170.559 37.166h1.703v-3.939c0-1.001.416-1.807 1.625-1.82 1.196 0 1.547.819 1.547 1.885v3.874h1.703v-4.303c0-1.261-.442-3.042-2.769-3.055-1.274-.013-1.911.611-2.223 1.17.013-.338.013-.637.013-.949h-1.599z"/><path d="m185.899 30.029h-1.703v1.04c-.312-.572-1.105-1.261-2.405-1.261-2.002 0-3.627 1.534-3.627 3.783 0 2.015 1.339 3.796 3.627 3.796 1.001 0 1.95-.416 2.405-1.248v1.027h1.703zm-6.032 3.588c0-1.105.78-2.223 2.158-2.223 1.027 0 1.69.585 1.989 1.261.143.312.208.663.195 1.001-.026.351-.104.689-.273 1.001-.325.65-.949 1.144-1.898 1.144-1.534 0-2.171-1.287-2.171-2.171z"/><path d="m187.641 29.067h1.703v-1.521h-1.703zm1.703.962h-1.703v7.059c0 .715-.039 1.365-.897 1.43h-.247v1.326h.442c2.171-.078 2.405-1.3 2.405-2.808z"/><path d="m197.911 34.163c.143-1.248-.182-2.366-1.053-3.263-.663-.689-1.599-1.092-2.665-1.092-2.158 0-3.744 1.781-3.744 3.809 0 1.989 1.573 3.77 3.77 3.77.741 0 1.443-.208 2.041-.624.598-.403 1.105-1.001 1.443-1.794h-1.755c-.325.585-.884.962-1.716.962-.975.013-1.989-.624-2.067-1.768zm-5.72-1.3c.065-.702.754-1.612 2.015-1.612 1.248-.013 1.963.936 2.028 1.612z"/><path d="m199.003 35.242h1.781v1.924h-1.781z"/></g></g></svg>