<svg clip-rule="evenodd" fill-rule="evenodd" stroke-miterlimit="10" viewBox="0 0 214 51" xmlns="http://www.w3.org/2000/svg"><g fill-rule="nonzero"><path d="m5.176 15.117h8.614v-.886c0-4.95 4.05-9 9-9h176.386c4.95 0 9 4.05 9 9v21.685c0 4.95-4.05 9-9 9h-176.386c-4.95 0-9-4.05-9-9v-2.299h-8.614v-18.5z" fill="#e7f2de" stroke="#71bf44"/><g fill="#71bf44"><path d="m44.481 18.491c-.013 1.859 1.118 3.172 3.302 3.172 2.262 0 3.211-1.443 3.211-2.99 0-1.365-.819-2.067-2.288-2.704-1.625-.676-2.145-.858-2.132-1.573 0-.65.546-1.092 1.183-1.092.949 0 1.118.741 1.196 1.183h1.911c-.078-2.132-1.768-2.808-3.042-2.808-1.56 0-3.185 1.001-3.185 2.847 0 1.82 1.677 2.418 2.405 2.678 1.339.533 2.028.741 2.028 1.56 0 .676-.572 1.274-1.313 1.274-.416 0-1.287-.247-1.352-1.547z"/><path d="m59.08 18.478c.143-1.248-.182-2.366-1.053-3.263-.663-.689-1.599-1.092-2.665-1.092-2.158 0-3.744 1.781-3.744 3.809 0 1.989 1.573 3.77 3.77 3.77.741 0 1.443-.208 2.041-.624.598-.403 1.105-1.001 1.443-1.794h-1.755c-.325.585-.884.962-1.716.962-.975.013-1.989-.624-2.067-1.768zm-5.72-1.3c.065-.702.754-1.612 2.015-1.612 1.248-.013 1.963.936 2.028 1.612z"/><path d="m70.611 14.344h-1.703v3.939c0 1.014-.416 1.82-1.638 1.82-1.209.013-1.56-.819-1.56-1.872v-3.887h-1.703v4.316c0 1.248.442 3.029 2.782 3.042 1.287.013 1.924-.611 2.223-1.17v.949h1.599z"/><path d="m76.942 16.268c-.143-1.716-1.573-2.145-2.535-2.145-1.378 0-2.561.871-2.561 2.275.013 1.027.793 1.56 1.755 1.859 1.313.455 1.846.624 1.846 1.235.013.481-.442.832-.975.832-.325 0-.988-.156-1.053-.923h-1.703c.13 1.729 1.625 2.301 2.73 2.301 1.495 0 2.73-.936 2.704-2.405-.013-1.534-1.248-1.872-2.392-2.184-.676-.195-1.196-.442-1.209-.897 0-.351.273-.715.845-.715.663 0 .858.39.871.767z"/><path d="m85.652 14.344h-1.703v1.04c-.312-.572-1.105-1.261-2.405-1.261-2.002 0-3.627 1.534-3.627 3.783 0 2.015 1.339 3.796 3.627 3.796 1.001 0 1.95-.416 2.405-1.248v1.027h1.703zm-6.032 3.588c0-1.105.78-2.223 2.158-2.223 1.027 0 1.69.585 1.989 1.261.143.312.208.663.195 1.001-.026.351-.104.689-.273 1.001-.325.65-.949 1.144-1.898 1.144-1.534 0-2.171-1.287-2.171-2.171z"/><path d="m87.212 21.481h1.703v-3.939c0-1.001.416-1.807 1.625-1.82 1.196 0 1.547.819 1.547 1.885v3.874h1.703v-4.303c0-1.261-.442-3.042-2.769-3.055-1.274-.013-1.911.611-2.223 1.17.013-.338.013-.637.013-.949h-1.599z"/><path d="m99.107 23.977h1.703v-3.445c.286.455 1.04 1.17 2.431 1.17 2.093 0 3.536-1.703 3.536-3.731 0-1.729-1.053-3.848-3.549-3.848-1.183 0-2.015.546-2.522 1.261v-1.04h-1.599zm5.967-6.058c0 1.17-.871 2.197-2.171 2.197-.611 0-1.157-.247-1.547-.637s-.624-.936-.624-1.547c0-.624.234-1.183.611-1.573.39-.403.923-.65 1.547-.65 1.443 0 2.184 1.17 2.184 2.197z"/><path d="m115.331 14.344h-1.703v1.04c-.312-.572-1.105-1.261-2.405-1.261-2.002 0-3.627 1.534-3.627 3.783 0 2.015 1.339 3.796 3.627 3.796 1.001 0 1.95-.416 2.405-1.248v1.027h1.703zm-6.032 3.588c0-1.105.78-2.223 2.158-2.223 1.027 0 1.69.585 1.989 1.261.143.312.208.663.195 1.001-.026.351-.104.689-.273 1.001-.325.65-.949 1.144-1.898 1.144-1.534 0-2.171-1.287-2.171-2.171z"/><path d="m116.878 21.481h1.703v-3.848c0-1.235.611-1.794 1.807-1.794h.078v-1.716c-1.079.013-1.664.52-1.976 1.157v-.936h-1.612z"/><path d="m128.318 14.344h-1.703v1.04c-.312-.572-1.105-1.261-2.405-1.261-2.002 0-3.627 1.534-3.627 3.783 0 2.015 1.339 3.796 3.627 3.796 1.001 0 1.95-.416 2.405-1.248v1.027h1.703zm-6.032 3.588c0-1.105.78-2.223 2.158-2.223 1.027 0 1.69.585 1.989 1.261.143.312.208.663.195 1.001-.026.351-.104.689-.273 1.001-.325.65-.949 1.144-1.898 1.144-1.534 0-2.171-1.287-2.171-2.171z"/><path d="m133.661 13.382h1.703v-1.521h-1.703zm0 8.099h1.703v-7.137h-1.703z"/><path d="m136.911 21.481h1.703v-3.939c0-1.001.416-1.807 1.625-1.82 1.196 0 1.547.819 1.547 1.885v3.874h1.703v-4.303c0-1.261-.442-3.042-2.769-3.055-1.274-.013-1.911.611-2.223 1.17.013-.338.013-.637.013-.949h-1.599z"/><path d="m152.329 11.861h-1.703v3.406c-.26-.416-1.027-1.144-2.392-1.144-1.937 0-3.588 1.469-3.588 3.783 0 2.08 1.417 3.796 3.614 3.796 1.456 0 2.132-.715 2.444-1.248v1.027h1.625zm-5.98 6.032c0-1.118.806-2.184 2.197-2.184.611 0 1.157.234 1.547.624.39.377.637.91.637 1.534.026.624-.208 1.183-.611 1.586s-.962.65-1.586.65c-1.313 0-2.184-.988-2.184-2.197z"/><path d="m153.902 13.382h1.703v-1.521h-1.703zm0 8.099h1.703v-7.137h-1.703z"/><path d="m162.508 18.881c-.26.585-.858 1.222-1.924 1.222-1.209 0-2.106-.91-2.106-2.197 0-.624.221-1.196.585-1.586.416-.403.897-.624 1.521-.611.936 0 1.625.533 1.924 1.287h1.742c-.416-1.742-1.937-2.873-3.731-2.873-2.132 0-3.757 1.677-3.757 3.783 0 2.041 1.56 3.796 3.822 3.796 1.846 0 3.263-1.235 3.666-2.821z"/><path d="m172.752 14.344h-1.703v1.04c-.312-.572-1.105-1.261-2.405-1.261-2.002 0-3.627 1.534-3.627 3.783 0 2.015 1.339 3.796 3.627 3.796 1.001 0 1.95-.416 2.405-1.248v1.027h1.703zm-6.032 3.588c0-1.105.78-2.223 2.158-2.223 1.027 0 1.69.585 1.989 1.261.143.312.208.663.195 1.001-.026.351-.104.689-.273 1.001-.325.65-.949 1.144-1.898 1.144-1.534 0-2.171-1.287-2.171-2.171z"/><path d="m174.299 21.481h1.703v-3.848c0-1.235.611-1.794 1.807-1.794h.078v-1.716c-1.079.013-1.664.52-1.976 1.157v-.936h-1.612z"/><path d="m78.242 39.98h1.703v-3.445c.286.455 1.04 1.17 2.431 1.17 2.093 0 3.536-1.703 3.536-3.731 0-1.729-1.053-3.848-3.549-3.848-1.183 0-2.015.546-2.522 1.261v-1.04h-1.599zm5.967-6.058c0 1.17-.871 2.197-2.171 2.197-.611 0-1.157-.247-1.547-.637s-.624-.936-.624-1.547c0-.624.234-1.183.611-1.573.39-.403.923-.65 1.547-.65 1.443 0 2.184 1.17 2.184 2.197z"/><path d="m87.095 37.484h1.703v-3.848c0-1.235.611-1.794 1.807-1.794h.078v-1.716c-1.079.013-1.664.52-1.976 1.157v-.936h-1.612z"/><path d="m98.197 34.481c.143-1.248-.182-2.366-1.053-3.263-.663-.689-1.599-1.092-2.665-1.092-2.158 0-3.744 1.781-3.744 3.809 0 1.989 1.573 3.77 3.77 3.77.741 0 1.443-.208 2.041-.624.598-.403 1.105-1.001 1.443-1.794h-1.755c-.325.585-.884.962-1.716.962-.975.013-1.989-.624-2.067-1.768zm-5.72-1.3c.065-.702.754-1.612 2.015-1.612 1.248-.013 1.963.936 2.028 1.612z"/><path d="m106.66 30.347h-1.716v.962c-.403-.702-1.287-1.17-2.314-1.17-1.976 0-3.64 1.482-3.64 3.809 0 2.197 1.586 3.757 3.64 3.757 1.209 0 1.963-.637 2.314-1.274v.598c0 1.443-1.105 2.145-2.119 2.145-.208 0-.585-.052-.936-.247-.312-.156-.585-.403-.741-.728h-1.976c.26 1.105 1.326 2.431 3.549 2.431 1.469 0 2.665-.65 3.276-1.469.442-.598.663-1.352.663-2.522zm-5.967 3.549c0-1.274.975-2.171 2.132-2.171.741 0 1.274.286 1.612.715.351.416.52.988.52 1.534-.013.611-.234 1.144-.611 1.521-.377.39-.884.611-1.521.611-1.235 0-2.132-.949-2.132-2.197z"/><path d="m114.759 30.347h-1.703v3.939c0 1.014-.416 1.82-1.638 1.82-1.209.013-1.56-.819-1.56-1.872v-3.887h-1.703v4.316c0 1.248.442 3.029 2.782 3.042 1.287.013 1.924-.611 2.223-1.17v.949h1.599z"/><path d="m116.319 37.484h1.703v-3.939c0-1.001.416-1.807 1.625-1.82 1.196 0 1.547.819 1.547 1.885v3.874h1.703v-4.303c0-1.261-.442-3.042-2.769-3.055-1.274-.013-1.911.611-2.223 1.17.013-.338.013-.637.013-.949h-1.599z"/><path d="m124.899 37.484h1.703v-5.824h1.222v-1.313h-1.222v-2.483h-1.703v2.483h-1.183v1.313h1.183z"/><path d="m135.728 30.347h-1.703v1.04c-.312-.572-1.105-1.261-2.405-1.261-2.002 0-3.627 1.534-3.627 3.783 0 2.015 1.339 3.796 3.627 3.796 1.001 0 1.95-.416 2.405-1.248v1.027h1.703zm-6.032 3.588c0-1.105.78-2.223 2.158-2.223 1.027 0 1.69.585 1.989 1.261.143.312.208.663.195 1.001-.026.351-.104.689-.273 1.001-.325.65-.949 1.144-1.898 1.144-1.534 0-2.171-1.287-2.171-2.171z"/><path d="m142.059 32.271c-.143-1.716-1.573-2.145-2.535-2.145-1.378 0-2.561.871-2.561 2.275.013 1.027.793 1.56 1.755 1.859 1.313.455 1.846.624 1.846 1.235.013.481-.442.832-.975.832-.325 0-.988-.156-1.053-.923h-1.703c.13 1.729 1.625 2.301 2.73 2.301 1.495 0 2.73-.936 2.704-2.405-.013-1.534-1.248-1.872-2.392-2.184-.676-.195-1.196-.442-1.209-.897 0-.351.273-.715.845-.715.663 0 .858.39.871.767z"/><path d="m143.593 35.56h1.781v1.924h-1.781z"/></g></g></svg>