<svg clip-rule="evenodd" fill-rule="evenodd" stroke-miterlimit="10" viewBox="0 0 216 50" xmlns="http://www.w3.org/2000/svg"><path d="m5.052 24.926c0-6.176 4.872-11.2 10.979-11.474.329-4.657 4.232-8.369 8.968-8.369h176.174c4.949 0 9 4.05 9 9v21.686c0 4.949-4.051 9-9 9h-176.174c-4.736 0-8.639-3.712-8.968-8.369-6.107-.274-10.979-5.298-10.979-11.474" fill="#f0e0ee" fill-rule="nonzero"/><path d="m5.052 24.926c0-6.176 4.872-11.2 10.979-11.474.329-4.657 4.232-8.369 8.968-8.369h176.174c4.949 0 9 4.05 9 9v21.686c0 4.949-4.051 9-9 9h-176.174c-4.736 0-8.639-3.712-8.968-8.369-6.107-.274-10.979-5.298-10.979-11.474z" fill="none" stroke="#bd56a0"/><g fill="#bd56a0" fill-rule="nonzero"><path d="m31.522 19.787h1.937v9.62h-1.937z"/><path d="m35.071 29.407h1.703v-3.939c0-1.001.416-1.807 1.625-1.82 1.196 0 1.547.819 1.547 1.885v3.874h1.703v-4.303c0-1.261-.442-3.042-2.769-3.055-1.274-.013-1.911.611-2.223 1.17.013-.338.013-.637.013-.949h-1.599z"/><path d="m50.489 19.787h-1.703v3.406c-.26-.416-1.027-1.144-2.392-1.144-1.937 0-3.588 1.469-3.588 3.783 0 2.08 1.417 3.796 3.614 3.796 1.456 0 2.132-.715 2.444-1.248v1.027h1.625zm-5.98 6.032c0-1.118.806-2.184 2.197-2.184.611 0 1.157.234 1.547.624.39.377.637.91.637 1.534.026.624-.208 1.183-.611 1.586s-.962.65-1.586.65c-1.313 0-2.184-.988-2.184-2.197z"/><path d="m52.062 21.308h1.703v-1.521h-1.703zm0 8.099h1.703v-7.137h-1.703z"/><path d="m60.668 26.807c-.26.585-.858 1.222-1.924 1.222-1.209 0-2.106-.91-2.106-2.197 0-.624.221-1.196.585-1.586.416-.403.897-.624 1.521-.611.936 0 1.625.533 1.924 1.287h1.742c-.416-1.742-1.937-2.873-3.731-2.873-2.132 0-3.757 1.677-3.757 3.783 0 2.041 1.56 3.796 3.822 3.796 1.846 0 3.263-1.235 3.666-2.821z"/><path d="m70.912 22.27h-1.703v1.04c-.312-.572-1.105-1.261-2.405-1.261-2.002 0-3.627 1.534-3.627 3.783 0 2.015 1.339 3.796 3.627 3.796 1.001 0 1.95-.416 2.405-1.248v1.027h1.703zm-6.032 3.588c0-1.105.78-2.223 2.158-2.223 1.027 0 1.69.585 1.989 1.261.143.312.208.663.195 1.001-.026.351-.104.689-.273 1.001-.325.65-.949 1.144-1.898 1.144-1.534 0-2.171-1.287-2.171-2.171z"/><path d="m83.262 26.404c.143-1.248-.182-2.366-1.053-3.263-.663-.689-1.599-1.092-2.665-1.092-2.158 0-3.744 1.781-3.744 3.809 0 1.989 1.573 3.77 3.77 3.77.741 0 1.443-.208 2.041-.624.598-.403 1.105-1.001 1.443-1.794h-1.755c-.325.585-.884.962-1.716.962-.975.013-1.989-.624-2.067-1.768zm-5.72-1.3c.065-.702.754-1.612 2.015-1.612 1.248-.013 1.963.936 2.028 1.612z"/><path d="m84.432 19.787h1.703v9.62h-1.703z"/><path d="m95.208 23.583v5.824h1.703v-7.137h-3.64v-.351c0-1.001.702-1.001 1.131-1.001v-1.313c-1.222.013-2.834.143-2.834 2.262v.403h-.884v1.313h.884v5.824h1.703v-5.824zm1.703-2.275v-1.521h-1.703v1.521z"/><path d="m98.471 29.407h1.703v-3.939c0-1.001.416-1.807 1.625-1.82 1.196 0 1.547.819 1.547 1.885v3.874h1.703v-4.303c0-1.261-.442-3.042-2.769-3.055-1.274-.013-1.911.611-2.223 1.17.013-.338.013-.637.013-.949h-1.599z"/><path d="m113.941 22.27h-1.703v1.04c-.312-.572-1.105-1.261-2.405-1.261-2.002 0-3.627 1.534-3.627 3.783 0 2.015 1.339 3.796 3.627 3.796 1.001 0 1.95-.416 2.405-1.248v1.027h1.703zm-6.032 3.588c0-1.105.78-2.223 2.158-2.223 1.027 0 1.69.585 1.989 1.261.143.312.208.663.195 1.001-.026.351-.104.689-.273 1.001-.325.65-.949 1.144-1.898 1.144-1.534 0-2.171-1.287-2.171-2.171z"/><path d="m115.501 19.787h1.703v9.62h-1.703z"/><path d="m129.84 19.787h-1.703v3.406c-.26-.416-1.027-1.144-2.392-1.144-1.937 0-3.588 1.469-3.588 3.783 0 2.08 1.417 3.796 3.614 3.796 1.456 0 2.132-.715 2.444-1.248v1.027h1.625zm-5.98 6.032c0-1.118.806-2.184 2.197-2.184.611 0 1.157.234 1.547.624.39.377.637.91.637 1.534.026.624-.208 1.183-.611 1.586s-.962.65-1.586.65c-1.313 0-2.184-.988-2.184-2.197z"/><path d="m138.42 26.404c.143-1.248-.182-2.366-1.053-3.263-.663-.689-1.599-1.092-2.665-1.092-2.158 0-3.744 1.781-3.744 3.809 0 1.989 1.573 3.77 3.77 3.77.741 0 1.443-.208 2.041-.624.598-.403 1.105-1.001 1.443-1.794h-1.755c-.325.585-.884.962-1.716.962-.975.013-1.989-.624-2.067-1.768zm-5.72-1.3c.065-.702.754-1.612 2.015-1.612 1.248-.013 1.963.936 2.028 1.612z"/><path d="m149.951 22.27h-1.703v3.939c0 1.014-.416 1.82-1.638 1.82-1.209.013-1.56-.819-1.56-1.872v-3.887h-1.703v4.316c0 1.248.442 3.029 2.782 3.042 1.287.013 1.924-.611 2.223-1.17v.949h1.599z"/><path d="m151.511 29.407h1.703v-3.939c0-1.001.416-1.807 1.625-1.82 1.196 0 1.547.819 1.547 1.885v3.874h1.703v-4.303c0-1.261-.442-3.042-2.769-3.055-1.274-.013-1.911.611-2.223 1.17.013-.338.013-.637.013-.949h-1.599z"/><path d="m163.874 29.407h1.703v-5.824h1.222v-1.313h-1.222v-2.483h-1.703v2.483h-1.183v1.313h1.183z"/><path d="m174.352 26.404c.143-1.248-.182-2.366-1.053-3.263-.663-.689-1.599-1.092-2.665-1.092-2.158 0-3.744 1.781-3.744 3.809 0 1.989 1.573 3.77 3.77 3.77.741 0 1.443-.208 2.041-.624.598-.403 1.105-1.001 1.443-1.794h-1.755c-.325.585-.884.962-1.716.962-.975.013-1.989-.624-2.067-1.768zm-5.72-1.3c.065-.702.754-1.612 2.015-1.612 1.248-.013 1.963.936 2.028 1.612z"/><path d="m174.326 29.407h2.067l1.612-2.457 1.599 2.457h2.093l-2.665-3.757 2.392-3.38h-2.028l-1.391 2.197-1.391-2.197h-2.054l2.405 3.38z"/><path d="m182.932 29.407h1.703v-5.824h1.222v-1.313h-1.222v-2.483h-1.703v2.483h-1.183v1.313h1.183z"/><path d="m186.026 25.832c0 1.846 1.339 3.783 3.822 3.783s3.822-1.937 3.822-3.783c0-1.833-1.339-3.77-3.822-3.77s-3.822 1.937-3.822 3.757zm1.703 0c0-1.261.949-2.184 2.119-2.184s2.106.923 2.106 2.184-.936 2.184-2.106 2.184-2.119-.923-2.119-2.171z"/><path d="m194.801 27.483h1.781v1.924h-1.781z"/></g></svg>