<?xml version="1.0" encoding="UTF-8" standalone="no"?>
<!DOCTYPE svg PUBLIC "-//W3C//DTD SVG 1.1//EN" "http://www.w3.org/Graphics/SVG/1.1/DTD/svg11.dtd">
<svg width="100%" height="100%" viewBox="0 0 307 163" version="1.1" xmlns="http://www.w3.org/2000/svg" xmlns:xlink="http://www.w3.org/1999/xlink" xml:space="preserve" xmlns:serif="http://www.serif.com/" style="fill-rule:evenodd;clip-rule:evenodd;stroke-linejoin:round;stroke-miterlimit:2;">
    <g transform="matrix(1,0,0,1,-1062,-2454)">
        <g>
            <g transform="matrix(4.16667,0,0,4.16667,1103.5,2503.15)">
                <path d="M0,15.442C-0.651,13.275 -0.616,11.188 0.191,9C-1.976,10.383 -1.322,12.364 -1.267,14.144C-1.249,14.712 -1.028,15.439 0,15.442M2.094,15.313C1.352,13.056 2.009,10.932 2.47,8.822C1.099,9.455 0.438,10.52 0.538,11.962C0.628,13.257 0.468,14.715 2.094,15.313M5,8.806C4.89,8.723 4.779,8.639 4.667,8.555C4.352,8.825 4.002,9.063 3.73,9.37C2.804,10.412 2.875,11.692 2.912,12.966C2.959,14.64 3.062,14.789 4.904,15.465C4.313,13.198 3.834,10.984 5,8.806M49.122,-0.822C49.298,-1.24 49.422,-1.501 49.519,-1.771C49.952,-2.989 49.89,-3.147 48.89,-3.942C47.672,-4.911 46.233,-5.172 44.76,-5.1C43.163,-5.022 42.583,-4.409 42.251,-2.697C44.776,-3.035 47.027,-2.319 49.122,-0.822M51.378,-3.055C53.214,-3.557 54.829,-2.967 56.43,-2.626C58.152,-2.26 58.929,-0.637 59.941,0.771C60.187,0.17 60.363,-0.247 60.529,-0.668C60.946,-1.724 60.778,-2.598 59.86,-3.363C57.941,-4.961 55.738,-5.454 53.331,-5.103C52.217,-4.941 51.528,-4.174 51.378,-3.055M61.462,-3.879C62.137,-5.248 62.303,-6.554 61.33,-7.677C59.732,-9.52 55.646,-10.135 53.999,-7.58C53.711,-7.135 53.234,-6.813 52.726,-6.319C56.027,-6.757 58.969,-6.228 61.462,-3.879M-1.544,8.6C-2.638,8.6 -3.45,8.463 -4.195,8.627C-6.084,9.043 -6.703,10.13 -6.331,12.06C-6.273,12.356 -6.224,12.661 -6.229,12.961C-6.243,13.818 -5.732,14.349 -5.134,14.846C-4.283,15.554 -3.294,15.349 -2.173,15.412C-2.583,13.137 -2.678,10.997 -1.544,8.6M43.3,-6.287C46.021,-6.505 48.328,-6.04 50.307,-4.654C50.604,-5.179 50.858,-5.602 51.085,-6.041C51.775,-7.373 51.629,-8.051 50.405,-8.859C49.387,-9.531 48.309,-10.105 47.052,-10.158C46.287,-10.19 45.421,-10.164 44.973,-9.497C44.344,-8.556 43.911,-7.486 43.3,-6.287M15.97,15.331L15.97,15.202C16.727,15.202 17.487,15.25 18.239,15.189C19.171,15.114 19.307,14.055 19.992,13.654C20.036,13.629 20.074,13.592 20.107,13.555C20.908,12.676 20.506,9.932 19.481,9.339C19.312,9.241 19.106,9.173 18.912,9.16C17.607,9.072 16.3,8.977 14.992,8.933C12.628,8.855 10.261,8.859 7.9,8.736C6.489,8.662 5.633,9.063 5.445,10.464C5.295,11.585 5.349,12.793 5.606,13.894C5.968,15.447 6.251,15.525 7.857,15.363C8.105,15.339 8.357,15.332 8.607,15.332C11.062,15.33 13.516,15.331 15.97,15.331M23.336,11.144C23.336,11.529 23.341,11.729 23.335,11.927C23.24,15.609 23.136,19.29 23.052,22.973C23.04,23.525 23.117,24.079 23.152,24.633C23.194,25.283 23.656,25.517 24.187,25.505C26.442,25.455 28.696,25.344 30.95,25.284C31.645,25.266 31.974,24.861 32.08,24.282C32.232,23.441 32.371,22.584 32.379,21.733C32.402,19.558 32.582,17.408 32.91,15.254C33.145,13.711 33.121,12.129 33.203,10.73C31.51,11.217 29.937,11.976 28.333,12.044C26.726,12.112 25.091,11.49 23.336,11.144M44.387,-1.627C42.806,-1.506 41.607,-1.576 41.074,-0.305C39.963,2.348 38.867,5.009 37.817,7.687C36.953,9.89 36.148,12.116 35.351,14.344C34.742,16.046 34.157,17.758 33.611,19.481C33.09,21.126 33.939,22.278 35.269,22.956C36.27,23.467 37.452,23.695 38.58,23.851C39.03,23.914 39.719,23.575 40.009,23.197C40.728,22.261 41.474,21.265 41.866,20.17C43.48,15.665 44.957,11.109 46.508,6.58C47.06,4.966 47.71,3.386 48.261,1.771C48.708,0.463 48.598,0.066 47.35,-0.548C46.284,-1.072 45.108,-1.372 44.387,-1.627M33.61,-5.963C33.91,-8.28 33.313,-9.299 30.518,-9.44C29.161,-9.508 27.788,-9.542 26.44,-9.403C24.187,-9.171 22.786,-8.25 22.97,-5.417C23.048,-4.207 23.217,-2.999 23.213,-1.79C23.202,1.435 23.622,4.652 23.338,7.884C23.219,9.238 23.765,9.907 25.012,10.376C27.444,11.292 29.752,11.112 32.004,9.771C32.918,9.226 33.465,8.498 33.541,7.481C33.699,5.364 33.873,3.242 33.877,1.122C33.883,-1.24 33.707,-3.601 33.61,-5.963M47.612,24.351C48.802,24.673 49.622,23.858 50.221,22.457C52.067,18.138 53.977,13.846 55.887,9.554C56.831,7.429 57.841,5.333 58.79,3.211C58.941,2.873 59.069,2.413 58.962,2.091C58.144,-0.36 56.474,-1.751 53.827,-1.838C53.524,-1.848 53.221,-1.863 52.918,-1.884C51.316,-1.995 50.567,-1.537 50.016,-0.066C49.273,1.917 48.513,3.895 47.818,5.895C46.51,9.658 45.245,13.437 43.957,17.208C43.483,18.594 43.009,19.98 42.506,21.356C42.287,21.956 42.419,22.385 42.874,22.836C44.085,24.036 45.595,24.295 47.612,24.351M15.233,25.838C15.235,25.859 15.237,25.879 15.238,25.901C16.7,25.798 18.161,25.659 19.624,25.608C20.517,25.577 21.096,25.088 21.395,24.383C22.28,22.298 22.5,20.136 21.35,18.095C20.756,17.041 19.867,16.317 18.408,16.382C14.322,16.564 10.229,16.636 6.138,16.669C2.524,16.699 -1.099,16.745 -4.701,16.528C-6.31,16.431 -7.199,16.647 -8.069,18.183C-9.528,20.757 -8.67,22.873 -7.481,24.479C-7.296,24.729 -6.911,24.92 -6.592,24.966C-4.652,25.254 -2.707,25.537 -0.755,25.729C0.389,25.841 1.551,25.761 2.704,25.803C5.276,25.898 7.847,26.074 10.42,26.103C12.023,26.122 13.629,25.933 15.233,25.838M33.278,23.333C33.375,24.008 33.46,24.685 33.573,25.357C33.7,26.105 33.56,26.407 32.779,26.482C31.792,26.576 30.791,26.532 29.796,26.557C27.832,26.605 25.867,26.707 23.903,26.688C23.193,26.681 22.486,26.392 21.619,26.195C21.123,26.796 20.287,26.835 19.33,26.816C17.571,26.78 15.808,26.987 14.046,27.022C11.565,27.07 9.081,27.133 6.603,27.048C3.026,26.926 -0.545,26.674 -4.119,26.487C-4.726,26.455 -5.336,26.427 -5.942,26.462C-7.139,26.531 -7.962,25.979 -8.596,25.018C-9.98,22.917 -10.215,20.718 -9.233,18.389C-8.683,17.08 -8.092,15.804 -6.931,15.017C-7.177,13.555 -7.444,12.172 -7.622,10.777C-7.675,10.354 -7.618,9.784 -7.369,9.481C-6.439,8.35 -5.346,7.315 -3.767,7.331C1.992,7.391 7.751,7.517 13.512,7.615C15.164,7.644 16.817,7.678 18.469,7.684C19.762,7.688 20.727,8.133 21.112,9.471C21.292,10.099 21.509,10.716 21.687,11.346C22.048,12.624 21.24,13.558 20.594,14.698C21.907,14.915 21.88,16.104 22.485,16.955C22.536,15.971 22.641,14.987 22.627,14.004C22.592,11.489 22.506,8.974 22.439,6.459C22.375,4.089 22.27,1.719 22.256,-0.651C22.242,-3.005 21.658,-5.328 21.979,-7.708C22.097,-8.582 22.445,-9.066 23.163,-9.473C25.701,-10.911 28.42,-11.112 31.232,-10.721C31.579,-10.673 31.914,-10.444 32.253,-10.449C33.978,-10.473 34.516,-9.355 34.681,-7.932C34.772,-7.135 34.729,-6.321 34.724,-5.516C34.714,-4.002 34.699,-2.488 34.664,-0.973C34.601,1.803 34.533,4.58 34.442,7.356C34.413,8.263 34.299,9.166 34.243,10.072C34.145,11.662 34.062,13.253 34.241,14.907C35.303,11.975 36.317,9.026 37.437,6.117C38.741,2.73 40.181,-0.603 41.472,-3.994C42.116,-5.687 42.561,-7.454 43.088,-9.19C43.552,-10.721 44.439,-11.403 46.032,-11.54C47.786,-11.691 49.326,-11.163 50.739,-10.178C51.194,-9.86 51.613,-9.492 52.06,-9.161C52.614,-8.749 53.134,-8.698 53.685,-9.227C54.119,-9.645 54.609,-10.021 55.122,-10.34C56.509,-11.205 57.903,-11.211 59.423,-10.54C61.283,-9.72 62.586,-8.412 63.435,-6.62C63.583,-6.306 63.613,-5.81 63.468,-5.507C62.88,-4.277 62.3,-3.09 62.142,-1.678C62.048,-0.83 61.42,-0.043 61.039,0.774C59.016,5.125 56.945,9.454 54.989,13.834C53.508,17.152 52.119,20.515 50.804,23.901C50.339,25.099 49.531,25.574 48.409,25.605C47.309,25.635 46.19,25.583 45.108,25.399C44.114,25.23 43.165,24.841 42.507,23.969C42.335,23.74 42.047,23.599 41.857,23.454C41.721,23.496 41.668,23.5 41.629,23.527C40.917,24.029 40.555,24.954 39.424,24.959C37.834,24.965 36.289,24.96 34.905,24.043C34.488,23.768 34.07,23.497 33.653,23.224C33.527,23.26 33.403,23.297 33.278,23.333" style="fill:rgb(35,31,32);fill-rule:nonzero;"/>
            </g>
            <g transform="matrix(4.16667,0,0,4.16667,1083.74,2603.88)">
                <path d="M0,-5.914C-0.604,-4.681 -0.518,-3.443 0.168,-2.227C0.49,-1.659 0.874,-1.298 1.634,-1.508C2.208,-1.668 2.835,-1.718 3.434,-1.695C7.914,-1.525 12.394,-1.322 16.874,-1.136C17.53,-1.109 18.191,-1.065 18.842,-1.12C19.814,-1.202 20.073,-1.482 20.123,-2.45C20.16,-3.155 20.132,-3.864 20.111,-4.57C20.074,-5.825 19.79,-6.138 18.543,-5.886C15.881,-5.348 13.223,-5.734 10.563,-5.768C7.688,-5.805 4.813,-5.866 1.938,-5.913C1.353,-5.922 0.766,-5.914 0,-5.914M19.976,1.663C18.371,1.758 16.765,1.945 15.163,1.927C12.59,1.898 10.019,1.722 7.446,1.628C6.293,1.585 5.132,1.665 3.988,1.552C2.035,1.361 0.091,1.078 -1.85,0.791C-2.168,0.744 -2.554,0.552 -2.738,0.302C-3.927,-1.303 -4.786,-3.418 -3.326,-5.993C-2.456,-7.53 -1.567,-7.745 0.042,-7.648C3.644,-7.43 7.266,-7.477 10.88,-7.506C14.971,-7.54 19.064,-7.612 23.151,-7.794C24.61,-7.859 25.498,-7.134 26.092,-6.081C27.242,-4.04 27.023,-1.877 26.138,0.207C25.839,0.911 25.26,1.401 24.367,1.433C22.903,1.484 21.443,1.622 19.981,1.724C19.979,1.704 19.978,1.682 19.976,1.663" style="fill:rgb(113,82,39);fill-rule:nonzero;"/>
            </g>
            <g transform="matrix(4.16667,0,0,4.16667,1309.22,2519.98)">
                <path d="M0,14.595C0.09,14.499 0.139,14.468 0.157,14.425C1.673,10.584 3.187,6.74 4.702,2.898C4.721,2.851 4.745,2.807 4.761,2.759C5.062,1.872 4.938,1.553 3.967,1.395C3.191,1.269 2.369,1.291 1.585,1.39C0.915,1.474 0.316,1.754 0.56,2.698C0.636,2.987 0.444,3.371 0.311,3.685C-0.935,6.604 -2.193,9.517 -3.451,12.432C-3.877,13.418 -3.629,13.946 -2.596,14.15C-1.761,14.314 -0.92,14.439 0,14.595M-1.759,20.311C-3.777,20.254 -5.286,19.996 -6.497,18.796C-6.953,18.345 -7.085,17.915 -6.865,17.315C-6.363,15.939 -5.888,14.553 -5.415,13.168C-4.126,9.397 -2.862,5.618 -1.554,1.854C-0.859,-0.146 -0.099,-2.124 0.644,-4.106C1.196,-5.578 1.944,-6.036 3.547,-5.924C3.849,-5.904 4.152,-5.888 4.456,-5.879C7.103,-5.791 8.773,-4.401 9.59,-1.949C9.697,-1.627 9.57,-1.167 9.418,-0.829C8.47,1.293 7.46,3.389 6.515,5.513C4.606,9.805 2.696,14.097 0.849,18.417C0.25,19.817 -0.57,20.631 -1.759,20.311" style="fill:rgb(213,181,133);fill-rule:nonzero;"/>
            </g>
            <g transform="matrix(4.16667,0,0,4.16667,1213.42,2540.37)">
                <path d="M0,-16.118C0.085,-15.045 0.211,-14.273 0.194,-13.505C0.163,-12.096 0.007,-10.69 -0.018,-9.281C-0.037,-8.207 0.248,-7.989 1.364,-8.02C2.009,-8.037 2.657,-8.147 3.296,-8.102C4.545,-8.014 4.838,-8.243 4.802,-9.502C4.792,-9.851 4.665,-10.197 4.661,-10.545C4.647,-12.001 4.588,-13.461 4.686,-14.909C4.753,-15.917 4.576,-16.428 3.567,-16.679C2.24,-17.009 0.988,-16.785 0,-16.118M7.23,-14.897C7.327,-12.535 7.503,-10.174 7.497,-7.813C7.492,-5.692 7.319,-3.57 7.161,-1.453C7.086,-0.436 6.539,0.292 5.625,0.836C3.373,2.178 1.065,2.358 -1.368,1.442C-2.614,0.973 -3.161,0.304 -3.041,-1.05C-2.757,-4.282 -3.178,-7.499 -3.167,-10.724C-3.162,-11.933 -3.332,-13.142 -3.41,-14.351C-3.594,-17.184 -2.192,-18.105 0.061,-18.337C1.408,-18.476 2.782,-18.442 4.138,-18.373C6.933,-18.233 7.53,-17.214 7.23,-14.897" style="fill:rgb(213,181,133);fill-rule:nonzero;"/>
            </g>
            <g transform="matrix(4.16667,0,0,4.16667,1275.36,2577.23)">
                <path d="M0,-13.271C-0.273,-12.803 -0.563,-12.394 -0.768,-11.945C-1.454,-10.441 -1.999,-8.86 -2.811,-7.428C-3.551,-6.122 -3.839,-4.706 -4.252,-3.313C-4.438,-2.689 -4.222,-2.176 -3.57,-2.014C-2.417,-1.726 -1.265,-1.354 0.079,-1.541C0.746,-5.392 2.5,-8.842 4.076,-12.614C2.613,-12.85 1.402,-13.045 0,-13.271M3.141,-19.406C3.863,-19.151 5.038,-18.851 6.104,-18.327C7.352,-17.713 7.462,-17.316 7.016,-16.008C6.464,-14.393 5.814,-12.813 5.262,-11.199C3.711,-6.67 2.235,-2.114 0.62,2.392C0.229,3.486 -0.518,4.482 -1.237,5.419C-1.527,5.797 -2.216,6.135 -2.665,6.073C-3.793,5.916 -4.975,5.689 -5.977,5.178C-7.307,4.499 -8.155,3.347 -7.634,1.703C-7.089,-0.02 -6.503,-1.732 -5.894,-3.434C-5.097,-5.662 -4.293,-7.889 -3.428,-10.092C-2.379,-12.77 -1.283,-15.43 -0.171,-18.083C0.362,-19.355 1.56,-19.285 3.141,-19.406" style="fill:rgb(113,82,39);fill-rule:nonzero;"/>
            </g>
            <g transform="matrix(4.16667,0,0,4.16667,1200.74,2607.74)">
                <path d="M0,-13.959C1.755,-13.614 3.39,-12.991 4.997,-13.059C6.601,-13.127 8.174,-13.886 9.867,-14.373C9.785,-12.974 9.809,-11.391 9.574,-9.849C9.246,-7.695 9.066,-5.545 9.043,-3.37C9.034,-2.518 8.896,-1.662 8.744,-0.821C8.637,-0.242 8.309,0.163 7.614,0.181C5.36,0.241 3.107,0.352 0.851,0.403C0.32,0.414 -0.142,0.18 -0.184,-0.47C-0.219,-1.023 -0.297,-1.578 -0.284,-2.13C-0.2,-5.813 -0.097,-9.494 -0.001,-13.175C0.005,-13.374 0,-13.573 0,-13.959" style="fill:rgb(170,172,148);fill-rule:nonzero;"/>
            </g>
            <g transform="matrix(4.16667,0,0,4.16667,1170.05,2540.05)">
                <path d="M0,6.475C-2.455,6.475 -4.908,6.474 -7.363,6.476C-7.613,6.476 -7.865,6.483 -8.114,6.507C-9.72,6.669 -10.002,6.591 -10.365,5.037C-10.622,3.937 -10.675,2.729 -10.525,1.608C-10.338,0.207 -9.482,-0.194 -8.07,-0.12C-5.71,0.003 -3.342,-0.001 -0.979,0.077C0.329,0.121 1.637,0.216 2.942,0.304C3.136,0.317 3.342,0.385 3.511,0.482C4.536,1.076 4.938,3.82 4.137,4.699C4.103,4.736 4.065,4.772 4.022,4.798C3.337,5.199 3.2,6.258 2.269,6.333C1.517,6.394 0.756,6.346 0,6.346L0,6.475Z" style="fill:rgb(218,165,86);fill-rule:nonzero;"/>
            </g>
            <g transform="matrix(4.16667,0,0,4.16667,1283.92,2467.49)">
                <path d="M0,2.271C0.611,1.073 1.044,0.002 1.673,-0.938C2.121,-1.607 2.987,-1.633 3.752,-1.6C5.008,-1.547 6.088,-0.973 7.105,-0.301C8.329,0.508 8.474,1.184 7.785,2.517C7.558,2.956 7.303,3.379 7.007,3.904C5.028,2.518 2.721,2.053 0,2.271" style="fill:rgb(113,82,39);fill-rule:nonzero;"/>
            </g>
            <g transform="matrix(4.16667,0,0,4.16667,1097.07,2567.38)">
                <path d="M0,-6.815C-1.133,-4.418 -1.04,-2.278 -0.629,-0.003C-1.749,-0.066 -2.739,0.138 -3.59,-0.569C-4.187,-1.066 -4.699,-1.598 -4.685,-2.454C-4.68,-2.754 -4.729,-3.059 -4.786,-3.355C-5.159,-5.286 -4.539,-6.372 -2.65,-6.788C-1.905,-6.953 -1.094,-6.815 0,-6.815" style="fill:rgb(218,165,86);fill-rule:nonzero;"/>
            </g>
            <g transform="matrix(1.85138,-3.73276,-3.73276,-1.85138,1362.13,2465.01)">
                <path d="M-4.996,-1.798C-4,1.48 -4.833,4.35 -6.691,7.113C-6.024,6.877 -5.523,6.592 -4.996,6.533C-1.975,6.192 -0.71,2.258 -1.652,0.008C-2.225,-1.363 -3.47,-1.794 -4.996,-1.798" style="fill:rgb(213,181,133);fill-rule:nonzero;"/>
            </g>
            <g transform="matrix(4.16667,0,0,4.16667,1317.58,2496.37)">
                <path d="M0,-1.428C0.151,-2.546 0.84,-3.313 1.954,-3.476C4.36,-3.826 6.563,-3.333 8.482,-1.735C9.4,-0.971 9.569,-0.097 9.151,0.959C8.985,1.381 8.809,1.797 8.564,2.398C7.551,0.991 6.774,-0.632 5.052,-0.999C3.451,-1.34 1.836,-1.929 0,-1.428" style="fill:rgb(255,216,0);fill-rule:nonzero;"/>
            </g>
            <g transform="matrix(4.16667,0,0,4.16667,1308.18,2481.6)">
                <path d="M0,4.35C-2.096,2.853 -4.346,2.138 -6.871,2.476C-6.539,0.763 -5.959,0.15 -4.361,0.072C-2.889,0 -1.45,0.261 -0.232,1.23C0.768,2.025 0.83,2.183 0.397,3.401C0.3,3.671 0.176,3.932 0,4.35" style="fill:rgb(243,110,76);fill-rule:nonzero;"/>
            </g>
            <g transform="matrix(4.16667,0,0,4.16667,1124.34,2566.54)">
                <path d="M0,-6.408C-1.166,-4.23 -0.688,-2.017 -0.097,0.251C-1.938,-0.425 -2.04,-0.574 -2.088,-2.248C-2.125,-3.522 -2.196,-4.802 -1.27,-5.844C-0.998,-6.151 -0.647,-6.389 -0.332,-6.659C-0.221,-6.576 -0.11,-6.492 0,-6.408" style="fill:rgb(255,216,0);fill-rule:nonzero;"/>
            </g>
            <g transform="matrix(4.16667,0,0,4.16667,1112.22,2539.91)">
                <path d="M0,6.49C-1.626,5.891 -1.466,4.435 -1.555,3.139C-1.655,1.697 -0.995,0.632 0.377,0C-0.084,2.109 -0.742,4.233 0,6.49" style="fill:rgb(218,165,86);fill-rule:nonzero;"/>
            </g>
            <g transform="matrix(4.16667,0,0,4.16667,1103.5,2540.65)">
                <path d="M0,6.442C-1.028,6.439 -1.249,5.712 -1.267,5.144C-1.322,3.364 -1.976,1.383 0.191,0C-0.616,2.188 -0.651,4.275 0,6.442" style="fill:rgb(255,216,0);fill-rule:nonzero;"/>
            </g>
            <g transform="matrix(4.16667,0,0,4.16667,1162.92,2593.5)">
                <path d="M0,-2.218C-0.731,-2.218 -1.381,-2.216 -2.03,-2.218C-4.206,-2.226 -6.382,-2.213 -8.557,-2.251C-10.471,-2.284 -12.388,-2.46 -14.299,-2.412C-15.628,-2.378 -16.95,-2.071 -18.276,-1.885C-17.982,-0.21 -17.812,-0.107 -16.435,-0.241C-15.382,-0.343 -14.318,-0.387 -13.26,-0.364C-11.752,-0.332 -10.246,-0.217 -8.739,-0.131C-6.522,-0.005 -4.308,0.169 -2.09,0.243C-0.118,0.308 -0.049,0.2 0.051,-1.69C0.055,-1.787 0.033,-1.887 0,-2.218M-19.004,-3.422C-18.239,-3.422 -17.652,-3.43 -17.066,-3.421C-14.191,-3.373 -11.316,-3.313 -8.441,-3.275C-5.781,-3.242 -3.123,-2.856 -0.461,-3.394C0.785,-3.645 1.07,-3.332 1.107,-2.078C1.127,-1.372 1.155,-0.663 1.119,0.042C1.069,1.01 0.81,1.291 -0.162,1.372C-0.814,1.427 -1.474,1.383 -2.131,1.356C-6.61,1.17 -11.09,0.967 -15.57,0.797C-16.169,0.775 -16.796,0.824 -17.37,0.984C-18.13,1.194 -18.515,0.833 -18.836,0.265C-19.523,-0.95 -19.608,-2.189 -19.004,-3.422" style="fill:rgb(35,31,32);fill-rule:nonzero;"/>
            </g>
            <g transform="matrix(4.16667,0,0,4.16667,1306.97,2530.46)">
                <path d="M0,10.838C1.469,7.117 2.85,3.618 4.239,0.1C3.459,-0.283 2.905,-0.217 2.553,0.438C1.576,2.255 0.606,4.077 -0.328,5.917C-0.983,7.208 -1.594,8.526 -1.764,10.059C-1.21,10.304 -0.716,10.522 0,10.838M0.539,12.082C-0.381,11.926 -1.223,11.801 -2.057,11.637C-3.09,11.434 -3.338,10.905 -2.912,9.918C-1.654,7.005 -0.396,4.091 0.85,1.172C0.984,0.859 1.175,0.475 1.099,0.185C0.855,-0.759 1.454,-1.038 2.125,-1.123C2.908,-1.222 3.73,-1.244 4.506,-1.118C5.477,-0.961 5.601,-0.642 5.3,0.246C5.284,0.294 5.26,0.338 5.241,0.385C3.726,4.228 2.212,8.071 0.696,11.912C0.678,11.956 0.629,11.986 0.539,12.082" style="fill:rgb(35,31,32);fill-rule:nonzero;"/>
            </g>
            <g transform="matrix(4.16667,0,0,4.16667,1228.24,2474.99)">
                <path d="M0,6.388C0,4.451 0.065,2.647 -0.056,0.854C-0.079,0.506 -0.796,0.01 -1.25,-0.063C-1.809,-0.154 -2.285,0.292 -2.355,0.947C-2.47,2.051 -2.597,3.156 -2.655,4.264C-2.689,4.946 -2.604,5.635 -2.57,6.388L0,6.388ZM-3.557,-0.425C-2.569,-1.091 -1.318,-1.316 0.01,-0.986C1.018,-0.735 1.196,-0.224 1.129,0.784C1.031,2.233 1.09,3.692 1.104,5.148C1.107,5.496 1.235,5.842 1.245,6.191C1.281,7.45 0.988,7.68 -0.261,7.591C-0.899,7.546 -1.548,7.656 -2.192,7.673C-3.309,7.704 -3.593,7.487 -3.575,6.412C-3.55,5.004 -3.393,3.597 -3.363,2.189C-3.346,1.42 -3.472,0.648 -3.557,-0.425" style="fill:rgb(35,31,32);fill-rule:nonzero;"/>
            </g>
            <g transform="matrix(4.16667,0,0,4.16667,1277.85,2566.4)">
                <path d="M0,-9.427C-0.251,-8.838 -0.403,-8.415 -0.606,-8.02C-1.392,-6.493 -2.225,-4.99 -2.977,-3.446C-3.281,-2.822 -3.471,-2.128 -3.624,-1.446C-3.763,-0.82 -3.435,-0.389 -2.841,-0.147C-1.993,0.198 -1.508,0.032 -1.176,-0.839C-0.188,-3.428 0.773,-6.026 1.73,-8.626C1.773,-8.742 1.675,-8.911 1.612,-9.196C1.11,-9.268 0.58,-9.344 0,-9.427M-0.597,-10.672C0.805,-10.446 2.016,-10.251 3.478,-10.015C1.903,-6.243 0.149,-2.793 -0.518,1.059C-1.862,1.245 -3.014,0.873 -4.167,0.585C-4.819,0.423 -5.036,-0.09 -4.85,-0.714C-4.437,-2.107 -4.148,-3.522 -3.408,-4.83C-2.596,-6.261 -2.051,-7.842 -1.365,-9.346C-1.16,-9.795 -0.87,-10.204 -0.597,-10.672" style="fill:rgb(35,31,32);fill-rule:nonzero;"/>
            </g>
            <g transform="matrix(4.16667,0,0,4.16667,1162.92,2593.77)">
                <path d="M0,-2.284C0.033,-1.953 0.055,-1.853 0.051,-1.756C-0.049,0.134 -0.118,0.242 -2.09,0.177C-4.308,0.103 -6.522,-0.071 -8.739,-0.197C-10.246,-0.283 -11.752,-0.398 -13.26,-0.43C-14.318,-0.453 -15.382,-0.409 -16.435,-0.307C-17.812,-0.173 -17.982,-0.276 -18.276,-1.951C-16.95,-2.137 -15.628,-2.444 -14.299,-2.478C-12.388,-2.526 -10.471,-2.35 -8.557,-2.317C-6.382,-2.279 -4.206,-2.292 -2.03,-2.284C-1.381,-2.282 -0.731,-2.284 0,-2.284" style="fill:rgb(243,110,76);fill-rule:nonzero;"/>
            </g>
            <g transform="matrix(4.16667,0,0,4.16667,1306.97,2529.28)">
                <path d="M0,11.121C-0.716,10.805 -1.21,10.587 -1.764,10.342C-1.594,8.809 -0.983,7.491 -0.328,6.2C0.606,4.36 1.576,2.538 2.553,0.721C2.905,0.066 3.459,0 4.239,0.383C2.85,3.901 1.469,7.4 0,11.121" style="fill:rgb(189,174,47);fill-rule:nonzero;"/>
            </g>
            <g transform="matrix(4.16667,0,0,4.16667,1228.24,2474.34)">
                <path d="M0,6.542L-2.57,6.542C-2.604,5.789 -2.689,5.1 -2.655,4.418C-2.597,3.31 -2.47,2.205 -2.355,1.101C-2.285,0.446 -1.809,0 -1.25,0.091C-0.796,0.164 -0.079,0.66 -0.056,1.008C0.065,2.801 0,4.605 0,6.542" style="fill:rgb(189,174,47);fill-rule:nonzero;"/>
            </g>
            <g transform="matrix(4.16667,0,0,4.16667,1277.85,2567.22)">
                <path d="M0,-9.625C0.58,-9.542 1.11,-9.466 1.612,-9.394C1.675,-9.109 1.773,-8.94 1.73,-8.824C0.773,-6.224 -0.188,-3.626 -1.176,-1.037C-1.508,-0.166 -1.993,0 -2.841,-0.345C-3.435,-0.587 -3.763,-1.018 -3.624,-1.644C-3.471,-2.326 -3.281,-3.02 -2.977,-3.644C-2.225,-5.188 -1.392,-6.691 -0.606,-8.218C-0.403,-8.613 -0.251,-9.036 0,-9.625" style="fill:rgb(178,214,128);fill-rule:nonzero;"/>
            </g>
            <g transform="matrix(4.16667,0,0,4.16667,0,0)">
                <g opacity="0.44">
                    <g transform="matrix(1,0,0,1,293.667,592.136)">
                        <path d="M0,32.662C-0.801,32.224 -1.274,31.37 -1.643,30.535C-4.089,25 -3.722,18.659 -2.902,12.663C-2.246,7.86 -1.163,2.767 2.305,-0.621C0.503,-0.665 -1.304,-0.397 -3.015,0.168C-3.337,0.275 -3.676,0.406 -3.876,0.682C-4.124,1.024 -4.087,1.486 -4.05,1.908C-3.152,12.107 -7.784,22.634 -4.752,32.413C-4.671,32.675 -4.574,32.95 -4.359,33.12C-4.107,33.321 -3.757,33.327 -3.435,33.324C-2.104,33.312 -0.77,33.312 0.561,33.3L0,32.662Z" style="fill:white;fill-rule:nonzero;"/>
                    </g>
                </g>
            </g>
            <g transform="matrix(4.16667,0,0,4.16667,0,0)">
                <g opacity="0.44">
                    <g transform="matrix(1,0,0,1,302.938,591.541)">
                        <path d="M0,31.758C-1.997,29.138 -0.873,25.396 0.39,22.355C2.865,16.397 5.582,10.541 8.533,4.805C9.2,3.51 9.976,2.127 11.316,1.555C10.424,0.85 9.394,0.319 8.302,0C3.533,9.13 -0.429,18.682 -3.521,28.507C-3.628,28.849 -3.736,29.203 -3.711,29.561C-3.614,30.967 -1.757,31.551 -0.35,31.615L0,31.758Z" style="fill:white;fill-rule:nonzero;"/>
                    </g>
                </g>
            </g>
            <g transform="matrix(4.16667,0,0,4.16667,0,0)">
                <g opacity="0.44">
                    <g transform="matrix(1,0,0,1,311.741,592.606)">
                        <path d="M0,31.758C-1.997,29.139 -0.873,25.396 0.39,22.355C2.865,16.397 5.582,10.541 8.534,4.805C9.2,3.51 9.976,2.128 11.316,1.555C10.424,0.85 9.394,0.319 8.302,0C3.533,9.13 -0.428,18.682 -3.52,28.507C-3.628,28.849 -3.736,29.203 -3.711,29.561C-3.613,30.967 -1.757,31.551 -0.35,31.615L0,31.758Z" style="fill:white;fill-rule:nonzero;"/>
                    </g>
                </g>
            </g>
            <g transform="matrix(4.16667,0,0,4.16667,0,0)">
                <g opacity="0.44">
                    <g transform="matrix(1,0,0,1,283.68,609.383)">
                        <path d="M0,3.383L-21.343,3.383C-22.273,3.383 -23.035,2.622 -23.035,1.691C-23.035,0.761 -22.273,0 -21.343,0L0,0C0.93,0 1.692,0.761 1.692,1.691C1.692,2.622 0.93,3.383 0,3.383" style="fill:white;fill-rule:nonzero;"/>
                    </g>
                </g>
            </g>
            <g transform="matrix(4.16667,0,0,4.16667,0,0)">
                <g opacity="0.44">
                    <g transform="matrix(1,0,0,1,283.618,617.894)">
                        <path d="M0,3.508L-24.28,3.508C-25.245,3.508 -26.034,2.719 -26.034,1.754C-26.034,0.79 -25.245,0 -24.28,0L0,0C0.964,0 1.754,0.79 1.754,1.754C1.754,2.719 0.964,3.508 0,3.508" style="fill:white;fill-rule:nonzero;"/>
                    </g>
                </g>
            </g>
        </g>
    </g>
</svg>
