<?xml version="1.0" encoding="UTF-8" standalone="no"?>
<!DOCTYPE svg PUBLIC "-//W3C//DTD SVG 1.1//EN" "http://www.w3.org/Graphics/SVG/1.1/DTD/svg11.dtd">
<svg width="100%" height="100%" viewBox="0 0 369 152" version="1.1" xmlns="http://www.w3.org/2000/svg" xmlns:xlink="http://www.w3.org/1999/xlink" xml:space="preserve" xmlns:serif="http://www.serif.com/" style="fill-rule:evenodd;clip-rule:evenodd;">
    <g transform="matrix(1,0,0,1,-24104.1,-6458.98)">
        <g transform="matrix(5.55556,0,0,5.55556,21791.3,4783.46)">
            <g transform="matrix(1,0,0,1,426.864,326.775)">
                <path d="M0,-23.12C-4.697,-23.12 -8.504,-19.313 -8.504,-14.616L-8.504,-8.504C-8.504,-3.807 -4.697,0 0,0L53.65,0L53.65,-23.12L0,-23.12Z" style="fill:rgb(212,230,247);fill-rule:nonzero;"/>
            </g>
        </g>
        <g transform="matrix(5.55556,0,0,5.55556,21791.3,4783.46)">
            <text x="436.589px" y="319.34px" style="font-family:'MyriadPro-Semibold', 'Myriad Pro', sans-serif;font-weight:600;font-size:11px;fill:rgb(0,143,212);">Llev<tspan x="455.927px " y="319.34px ">รณ</tspan></text>
        </g>
        <g transform="matrix(5.55556,0,0,5.55556,21791.3,4783.46)">
            <g transform="matrix(1,0,0,1,426.864,326.775)">
                <path d="M0,-23.12C-4.697,-23.12 -8.504,-19.313 -8.504,-14.616L-8.504,-8.504C-8.504,-3.807 -4.697,0 0,0L53.65,0L53.65,-23.12L0,-23.12Z" style="fill:none;fill-rule:nonzero;stroke:rgb(118,186,230);stroke-width:1px;"/>
            </g>
        </g>
    </g>
</svg>
