<?xml version="1.0" encoding="UTF-8" standalone="no"?>
<!DOCTYPE svg PUBLIC "-//W3C//DTD SVG 1.1//EN" "http://www.w3.org/Graphics/SVG/1.1/DTD/svg11.dtd">
<svg width="100%" height="100%" viewBox="0 0 369 152" version="1.1" xmlns="http://www.w3.org/2000/svg" xmlns:xlink="http://www.w3.org/1999/xlink" xml:space="preserve" xmlns:serif="http://www.serif.com/" style="fill-rule:evenodd;clip-rule:evenodd;">
    <g transform="matrix(1,0,0,1,-24464.7,-5819.25)">
        <g transform="matrix(5.55556,0,0,5.55556,21791.3,4783.46)">
            <g transform="matrix(1,0,0,1,483.265,211.624)">
                <path d="M0,-23.12L0,0L53.65,0C58.347,0 62.154,-3.807 62.154,-8.504L62.154,-14.616C62.154,-19.313 58.347,-23.12 53.65,-23.12L0,-23.12Z" style="fill:rgb(231,242,222);fill-rule:nonzero;"/>
            </g>
        </g>
        <g transform="matrix(5.55556,0,0,5.55556,21791.3,4783.46)">
            <text x="502.732px" y="204.189px" style="font-family:'MyriadPro-Semibold', 'Myriad Pro', sans-serif;font-weight:600;font-size:11px;fill:rgb(113,191,68);">P<tspan x="508.749px " y="204.189px ">u</tspan>so</text>
        </g>
        <g transform="matrix(5.55556,0,0,5.55556,21791.3,4783.46)">
            <g transform="matrix(1,0,0,1,483.265,211.624)">
                <path d="M0,-23.12L0,0L53.65,0C58.347,0 62.154,-3.807 62.154,-8.504L62.154,-14.616C62.154,-19.313 58.347,-23.12 53.65,-23.12L0,-23.12Z" style="fill:none;fill-rule:nonzero;stroke:rgb(183,218,155);stroke-width:1px;"/>
            </g>
        </g>
    </g>
</svg>
