<?xml version="1.0" encoding="UTF-8" standalone="no"?>
<!DOCTYPE svg PUBLIC "-//W3C//DTD SVG 1.1//EN" "http://www.w3.org/Graphics/SVG/1.1/DTD/svg11.dtd">
<svg width="100%" height="100%" viewBox="0 0 660 470" version="1.1" xmlns="http://www.w3.org/2000/svg" xmlns:xlink="http://www.w3.org/1999/xlink" xml:space="preserve" xmlns:serif="http://www.serif.com/" style="fill-rule:evenodd;clip-rule:evenodd;stroke-linejoin:round;stroke-miterlimit:2;">
    <g transform="matrix(1,0,0,1,-22062.2,-853.126)">
        <g transform="matrix(5.55556,0,0,5.55556,21791.3,0)">
            <g transform="matrix(1,0,0,1,57.2598,238)">
                <path d="M0,-84.437C-4.697,-84.437 -8.504,-80.63 -8.504,-75.933L-8.504,-8.504C-8.504,-3.807 -4.697,0 0,0L101.698,0C106.395,0 110.202,-3.807 110.202,-8.504L110.202,-75.933C110.202,-80.63 106.395,-84.437 101.698,-84.437L0,-84.437Z" style="fill:rgb(231,242,222);fill-rule:nonzero;"/>
            </g>
        </g>
        <g transform="matrix(5.55556,0,0,5.55556,21791.3,0)">
            <text x="72.26px" y="164.851px" style="font-family:'ITCAvantGardeStd-Bk', 'ITC Avant Garde Gothic Std', sans-serif;font-weight:300;font-size:11px;fill:rgb(35,31,32);">Semejanza o</text>
            <text x="74.251px" y="178.851px" style="font-family:'ITCAvantGardeStd-Bk', 'ITC Avant Garde Gothic Std', sans-serif;font-weight:300;font-size:11px;fill:rgb(35,31,32);">igualdad de</text>
            <text x="60.512px" y="192.851px" style="font-family:'ITCAvantGardeStd-Bk', 'ITC Avant Garde Gothic Std', sans-serif;font-weight:300;font-size:11px;fill:rgb(35,31,32);">sonidos entr<tspan x="125.301px " y="192.851px ">e</tspan> dos</text>
            <text x="60.171px" y="206.851px" style="font-family:'ITCAvantGardeStd-Bk', 'ITC Avant Garde Gothic Std', sans-serif;font-weight:300;font-size:11px;fill:rgb(35,31,32);">o más palabr<tspan x="132.154px " y="206.851px ">a</tspan>s a</text>
            <text x="60.028px" y="220.851px" style="font-family:'ITCAvantGardeStd-Bk', 'ITC Avant Garde Gothic Std', sans-serif;font-weight:300;font-size:11px;fill:rgb(35,31,32);">par<tspan x="78.915px " y="220.851px ">t</tspan>ir de la última</text>
            <text x="90.168px" y="234.851px" style="font-family:'ITCAvantGardeStd-Bk', 'ITC Avant Garde Gothic Std', sans-serif;font-weight:300;font-size:11px;fill:rgb(35,31,32);">sílaba.</text>
        </g>
    </g>
</svg>
