<?xml version="1.0" encoding="UTF-8" standalone="no"?>
<!DOCTYPE svg PUBLIC "-//W3C//DTD SVG 1.1//EN" "http://www.w3.org/Graphics/SVG/1.1/DTD/svg11.dtd">
<svg width="100%" height="100%" viewBox="0 0 660 470" version="1.1" xmlns="http://www.w3.org/2000/svg" xmlns:xlink="http://www.w3.org/1999/xlink" xml:space="preserve" xmlns:serif="http://www.serif.com/" style="fill-rule:evenodd;clip-rule:evenodd;stroke-linejoin:round;stroke-miterlimit:2;">
    <g transform="matrix(1,0,0,1,-22763.1,-853.126)">
        <g transform="matrix(5.55556,0,0,5.55556,21791.3,0)">
            <g transform="matrix(1,0,0,1,183.421,238)">
                <path d="M0,-84.437C-4.697,-84.437 -8.504,-80.63 -8.504,-75.933L-8.504,-8.504C-8.504,-3.807 -4.697,0 0,0L101.698,0C106.395,0 110.202,-3.807 110.202,-8.504L110.202,-75.933C110.202,-80.63 106.395,-84.437 101.698,-84.437L0,-84.437Z" style="fill:rgb(212,230,247);fill-rule:nonzero;"/>
            </g>
        </g>
        <g transform="matrix(5.55556,0,0,5.55556,21791.3,0)">
            <text x="189.956px" y="171.851px" style="font-family:'ITCAvantGardeStd-Bk', 'ITC Avant Garde Gothic Std', sans-serif;font-weight:300;font-size:11px;fill:rgb(35,31,32);">Consist<tspan x="228.345px " y="171.851px ">e</tspan> en des-</text>
            <text x="193.3px" y="185.851px" style="font-family:'ITCAvantGardeStd-Bk', 'ITC Avant Garde Gothic Std', sans-serif;font-weight:300;font-size:11px;fill:rgb(35,31,32);">cribir un objet<tspan x="267.406px " y="185.851px ">o</tspan></text>
            <text x="195.126px" y="199.851px" style="font-family:'ITCAvantGardeStd-Bk', 'ITC Avant Garde Gothic Std', sans-serif;font-weight:300;font-size:11px;fill:rgb(35,31,32);">a tr<tspan x="212.352px 219.799px 225.222px " y="199.851px 199.851px 199.851px ">avé</tspan>s de las</text>
            <text x="194.84px" y="213.851px" style="font-family:'ITCAvantGardeStd-Bk', 'ITC Avant Garde Gothic Std', sans-serif;font-weight:300;font-size:11px;fill:rgb(35,31,32);">car<tspan x="212.374px " y="213.851px ">a</tspan>ct<tspan x="229.952px " y="213.851px ">e</tspan>rísticas</text>
            <text x="213.914px" y="227.851px" style="font-family:'ITCAvantGardeStd-Bk', 'ITC Avant Garde Gothic Std', sans-serif;font-weight:300;font-size:11px;fill:rgb(35,31,32);">de otr<tspan x="245.187px 252.029px " y="227.851px 227.851px ">o.</tspan></text>
        </g>
    </g>
</svg>
