<?xml version="1.0" encoding="UTF-8" standalone="no"?>
<!DOCTYPE svg PUBLIC "-//W3C//DTD SVG 1.1//EN" "http://www.w3.org/Graphics/SVG/1.1/DTD/svg11.dtd">
<svg width="100%" height="100%" viewBox="0 0 660 465" version="1.1" xmlns="http://www.w3.org/2000/svg" xmlns:xlink="http://www.w3.org/1999/xlink" xml:space="preserve" xmlns:serif="http://www.serif.com/" style="fill-rule:evenodd;clip-rule:evenodd;stroke-linejoin:round;stroke-miterlimit:2;">
    <g transform="matrix(1,0,0,1,-23464,-857.461)">
        <g transform="matrix(5.55556,0,0,5.55556,21791.3,0)">
            <g transform="matrix(1,0,0,1,309.582,238)">
                <path d="M0,-83.657C-4.697,-83.657 -8.504,-79.85 -8.504,-75.153L-8.504,-8.504C-8.504,-3.808 -4.697,0 0,0L101.698,0C106.395,0 110.202,-3.808 110.202,-8.504L110.202,-75.153C110.202,-79.85 106.395,-83.657 101.698,-83.657L0,-83.657Z" style="fill:rgb(240,224,238);fill-rule:nonzero;"/>
            </g>
        </g>
        <g transform="matrix(5.55556,0,0,5.55556,21791.3,0)">
            <text x="324.598px" y="179.241px" style="font-family:'ITCAvantGardeStd-Bk', 'ITC Avant Garde Gothic Std', sans-serif;font-weight:300;font-size:11px;fill:rgb(35,31,32);">P<tspan x="330.483px " y="179.241px ">a</tspan>labr<tspan x="358.478px " y="179.241px ">a</tspan>s que</text>
            <text x="321.089px" y="193.241px" style="font-family:'ITCAvantGardeStd-Bk', 'ITC Avant Garde Gothic Std', sans-serif;font-weight:300;font-size:11px;fill:rgb(35,31,32);">tienen sonidos</text>
            <text x="317.591px" y="207.241px" style="font-family:'ITCAvantGardeStd-Bk', 'ITC Avant Garde Gothic Std', sans-serif;font-weight:300;font-size:11px;fill:rgb(35,31,32);">semejant<tspan x="367.321px " y="207.241px ">e</tspan>s a lo</text>
            <text x="321.43px" y="221.241px" style="font-family:'ITCAvantGardeStd-Bk', 'ITC Avant Garde Gothic Std', sans-serif;font-weight:300;font-size:11px;fill:rgb(35,31,32);">que signi</text>
            <text x="370.292px" y="221.241px" style="font-family:'ITCAvantGardeStd-Bk', 'ITC Avant Garde Gothic Std', sans-serif;font-weight:300;font-size:11px;fill:rgb(35,31,32);">f</text>
            <text x="373.149px" y="221.241px" style="font-family:'ITCAvantGardeStd-Bk', 'ITC Avant Garde Gothic Std', sans-serif;font-weight:300;font-size:11px;fill:rgb(35,31,32);">i</text>
            <text x="375.374px" y="221.241px" style="font-family:'ITCAvantGardeStd-Bk', 'ITC Avant Garde Gothic Std', sans-serif;font-weight:300;font-size:11px;fill:rgb(35,31,32);">can.</text>
        </g>
    </g>
</svg>
