<?xml version="1.0" encoding="UTF-8" standalone="no"?>
<!DOCTYPE svg PUBLIC "-//W3C//DTD SVG 1.1//EN" "http://www.w3.org/Graphics/SVG/1.1/DTD/svg11.dtd">
<svg width="100%" height="100%" viewBox="0 0 660 265" version="1.1" xmlns="http://www.w3.org/2000/svg" xmlns:xlink="http://www.w3.org/1999/xlink" xml:space="preserve" xmlns:serif="http://www.serif.com/" style="fill-rule:evenodd;clip-rule:evenodd;stroke-linecap:round;stroke-linejoin:round;">
    <g transform="matrix(1,0,0,1,-23464,-1707.68)">
        <g transform="matrix(5.55556,0,0,5.55556,21791.3,0)">
            <g transform="matrix(1,0,0,1,309.582,355.039)">
                <path d="M0,-46.848C-4.697,-46.848 -8.504,-43.041 -8.504,-38.344L-8.504,-8.503C-8.504,-3.807 -4.697,0 0,0L101.698,0C106.395,0 110.202,-3.807 110.202,-8.503L110.202,-38.344C110.202,-43.041 106.395,-46.848 101.698,-46.848L0,-46.848Z" style="fill:rgb(240,224,238);fill-rule:nonzero;"/>
            </g>
        </g>
        <g transform="matrix(5.55556,0,0,5.55556,21791.3,0)">
            <text x="308.973px" y="328.685px" style="font-family:'ITCAvantGardeStd-Bk', 'ITC Avant Garde Gothic Std', sans-serif;font-weight:300;font-size:11px;fill:rgb(35,31,32);">&quot;T<tspan x="317.277px " y="328.685px ">o</tspan>c,<tspan x="333.183px 336.351px 339.475px " y="328.685px 328.685px 328.685px "> to</tspan>c,<tspan x="355.381px 358.549px 361.673px " y="328.685px 328.685px 328.685px "> to</tspan>c&quot;,<tspan x="381.77px " y="328.685px "> </tspan>sonó</text>
            <text x="326.067px" y="342.685px" style="font-family:'ITCAvantGardeStd-Bk', 'ITC Avant Garde Gothic Std', sans-serif;font-weight:300;font-size:11px;fill:rgb(35,31,32);">en la puer<tspan x="381.539px 384.663px " y="342.685px 342.685px ">ta</tspan>.</text>
        </g>
        <g transform="matrix(5.55556,0,0,5.55556,21791.3,0)">
            <g transform="matrix(1,0,0,1,234.428,335.062)">
                <path d="M126.553,-26.68L126.553,-26.68" style="fill:none;fill-rule:nonzero;stroke:rgb(236,0,140);stroke-width:2px;"/>
            </g>
        </g>
    </g>
</svg>
