<?xml version="1.0" encoding="UTF-8" standalone="no"?>
<!DOCTYPE svg PUBLIC "-//W3C//DTD SVG 1.1//EN" "http://www.w3.org/Graphics/SVG/1.1/DTD/svg11.dtd">
<svg width="100%" height="100%" viewBox="0 0 640 121" version="1.1" xmlns="http://www.w3.org/2000/svg" xmlns:xlink="http://www.w3.org/1999/xlink" xml:space="preserve" xmlns:serif="http://www.serif.com/" style="fill-rule:evenodd;clip-rule:evenodd;">
    <g transform="matrix(1,0,0,1,-23477.1,-1461.6)">
        <g transform="matrix(5.55556,0,0,5.55556,21791.3,0)">
            <g transform="matrix(1,0,0,1,314.004,282.681)">
                <path d="M0,-17.532C-4.697,-17.532 -8.504,-13.725 -8.504,-9.028L-8.504,-8.504C-8.504,-3.808 -4.697,0 0,0L93.954,0C98.651,0 102.458,-3.808 102.458,-8.504L102.458,-9.028C102.458,-13.725 98.651,-17.532 93.954,-17.532L0,-17.532Z" style="fill:white;fill-rule:nonzero;"/>
            </g>
        </g>
        <g transform="matrix(5.55556,0,0,5.55556,21791.3,0)">
            <text x="331.637px" y="277.985px" style="font-family:'ITCAvantGardeStd-Bk', 'ITC Avant Garde Gothic Std', sans-serif;font-weight:300;font-size:11px;fill:rgb(35,31,32);">Alit<tspan x="347.367px 354.275px 357.355px " y="277.985px 277.985px 277.985px ">era</tspan>ción</text>
        </g>
        <g transform="matrix(5.55556,0,0,5.55556,21791.3,0)">
            <g transform="matrix(1,0,0,1,314.004,282.681)">
                <path d="M0,-17.532C-4.697,-17.532 -8.504,-13.725 -8.504,-9.028L-8.504,-8.504C-8.504,-3.808 -4.697,0 0,0L93.954,0C98.651,0 102.458,-3.808 102.458,-8.504L102.458,-9.028C102.458,-13.725 98.651,-17.532 93.954,-17.532L0,-17.532Z" style="fill:none;fill-rule:nonzero;stroke:rgb(146,124,69);stroke-width:1px;"/>
            </g>
        </g>
    </g>
</svg>
