<?xml version="1.0" encoding="UTF-8" standalone="no"?>
<!DOCTYPE svg PUBLIC "-//W3C//DTD SVG 1.1//EN" "http://www.w3.org/Graphics/SVG/1.1/DTD/svg11.dtd">
<svg width="100%" height="100%" viewBox="0 0 648 199" version="1.1" xmlns="http://www.w3.org/2000/svg" xmlns:xlink="http://www.w3.org/1999/xlink" xml:space="preserve" xmlns:serif="http://www.serif.com/" style="fill-rule:evenodd;clip-rule:evenodd;stroke-linejoin:round;stroke-miterlimit:2;">
    <g transform="matrix(1,0,0,1,-581,-645)">
        <g transform="matrix(1,0,0,1,0,-179.604)">
            <g transform="matrix(4.16667,0,0,4.16667,631.913,845.319)">
                <path d="M0,40.437C-0.481,40.583 -0.727,40.692 -0.982,40.729C-1.732,40.836 -2.486,40.907 -3.237,41.008C-3.614,41.059 -4.176,41.015 -4.091,41.579C-4.023,42.035 -3.534,41.902 -3.182,41.853C-1.202,41.577 0.787,41.455 2.787,41.503C3.224,41.514 3.676,41.519 4.098,41.424C7.7,40.615 11.369,40.489 15.033,40.269C18.377,40.068 21.718,39.814 25.058,39.556C25.944,39.488 26.587,39.137 26.875,38.134C27.122,37.271 27.672,36.495 28.091,35.682C28.188,35.492 28.297,35.309 28.466,35.007C28.13,35.007 27.936,34.992 27.744,35.009C25.56,35.2 23.376,35.396 21.192,35.588C20.476,35.652 19.752,35.66 19.045,35.777C15.587,36.352 12.127,36.92 8.68,37.559C5.222,38.199 1.743,38.595 -1.771,38.694C-2.088,38.703 -2.41,38.736 -2.72,38.803C-3.189,38.904 -3.424,39.214 -3.499,39.758C-2.811,39.637 -2.227,39.526 -1.639,39.435C-1.009,39.337 -0.375,39.26 0.256,39.17C0.989,39.067 1.169,39.082 2.164,39.401C0.98,39.562 0.041,39.667 -0.891,39.822C-1.821,39.978 -2.785,40.013 -3.656,40.445C-2.514,40.535 -1.398,40.048 0,40.437M-5.095,41.783C-4.954,41.53 -4.899,41.466 -4.881,41.393C-4.583,40.194 -4.348,38.975 -3.35,38.09C-3.208,37.964 -3.154,37.644 -3.186,37.432C-3.35,36.331 -3.517,35.229 -3.754,34.143C-4.169,32.237 -4.697,30.355 -5.07,28.442C-5.75,24.965 -6.364,21.474 -6.979,17.984C-7.491,15.082 -8.022,12.181 -7.953,9.209C-7.937,8.539 -8.093,7.866 -8.146,7.192C-8.25,5.884 -8.343,4.575 -8.428,3.266C-8.449,2.948 -8.408,2.627 -8.417,2.309C-8.436,1.717 -8.694,1.517 -9.252,1.716C-10.013,1.988 -10.437,2.564 -10.746,3.313C-11.644,5.49 -11.388,7.784 -11.312,10.007C-11.226,12.502 -10.724,14.983 -10.379,17.468C-9.986,20.306 -9.632,23.152 -9.141,25.974C-8.691,28.56 -8.142,31.133 -7.524,33.684C-6.934,36.117 -6.204,38.517 -5.521,40.927C-5.45,41.179 -5.287,41.405 -5.095,41.783M-7.738,3.595C-7.762,3.598 -7.786,3.601 -7.811,3.603L-7.526,6.213C-7.408,7.283 -7.269,8.35 -7.177,9.422C-7.052,10.892 -7.04,12.374 -6.841,13.833C-6.562,15.885 -6.18,17.925 -5.802,19.963C-5.097,23.764 -4.385,27.564 -3.632,31.356C-3.338,32.839 -2.908,34.295 -2.577,35.771C-2.455,36.313 -2.446,36.88 -2.371,37.433C-2.314,37.85 -2.064,38.069 -1.638,38.062C-1.438,38.058 -1.239,38.043 -1.041,38.024C1.817,37.757 4.673,37.495 7.499,36.943C10.588,36.34 13.697,35.834 16.793,35.265C18.677,34.918 20.558,34.609 22.48,34.524C24.231,34.447 25.978,34.228 27.722,34.037C28.393,33.963 29.055,33.802 29.719,33.667C30.051,33.601 30.169,33.384 30.104,33.049C29.764,31.29 29.478,29.519 29.079,27.773C28.626,25.793 27.945,23.859 27.59,21.864C26.808,17.472 26.168,13.055 25.469,8.648C25.194,6.916 24.955,5.177 24.625,3.455C24.354,2.047 23.984,0.658 23.637,-0.734C23.506,-1.254 23.191,-1.522 22.59,-1.467C21.08,-1.326 19.564,-1.242 18.051,-1.126C15.346,-0.919 12.643,-0.691 9.937,-0.5C8.105,-0.37 6.27,-0.298 4.438,-0.176C3.722,-0.128 3.008,-0.026 2.297,0.077C-0.386,0.464 -3.068,0.858 -5.75,1.26C-6.375,1.353 -6.993,1.487 -7.615,1.602C-7.656,2.226 -7.697,2.851 -7.737,3.475C-7.74,3.515 -7.738,3.555 -7.738,3.595M-12.145,7.718C-12.075,6.099 -11.882,4.528 -11.314,3.006C-10.847,1.751 -9.958,1.082 -8.642,0.966C-7.016,0.823 -5.39,0.656 -3.774,0.427C-1.13,0.052 1.501,-0.422 4.148,-0.772C5.728,-0.981 7.329,-1.038 8.92,-1.155C12.063,-1.386 15.206,-1.611 18.348,-1.837C19.782,-1.94 21.218,-2.014 22.648,-2.148C23.413,-2.219 23.897,-1.911 24.102,-1.214C24.541,0.275 25.042,1.758 25.328,3.279C25.813,5.861 26.138,8.474 26.561,11.069C26.759,12.288 27.046,13.492 27.259,14.709C27.746,17.496 28.142,20.3 28.71,23.07C29.101,24.979 29.777,26.829 30.217,28.73C30.584,30.319 30.81,31.941 31.065,33.554C31.167,34.194 31.046,34.274 30.365,34.557C30.048,34.688 29.733,34.89 29.494,35.135C28.5,36.153 27.793,37.361 27.436,38.734C27.235,39.504 26.771,39.875 26.058,40.037C25.708,40.116 25.357,40.216 25.003,40.24C20.345,40.554 15.683,40.81 11.03,41.18C8.769,41.36 6.523,41.75 4.271,42.046C3.956,42.087 3.643,42.166 3.327,42.181C0.977,42.291 -1.375,42.389 -3.726,42.491C-3.925,42.5 -4.125,42.499 -4.323,42.522C-5.5,42.656 -5.929,42.422 -6.272,41.311C-6.743,39.789 -7.166,38.252 -7.596,36.719C-7.887,35.684 -8.197,34.651 -8.428,33.602C-8.932,31.307 -9.442,29.011 -9.854,26.698C-10.281,24.306 -10.637,21.9 -10.945,19.49C-11.273,16.92 -11.517,14.34 -11.782,11.762C-11.92,10.416 -12.025,9.066 -12.145,7.718" style="fill:rgb(35,31,32);fill-rule:nonzero;"/>
            </g>
            <g transform="matrix(4.16667,0,0,4.16667,599.672,982.617)">
                <path d="M0,-29.357C0,-29.397 -0.002,-29.437 0,-29.477C0.041,-30.101 0.082,-30.726 0.123,-31.35C0.745,-31.465 1.363,-31.599 1.988,-31.692C4.669,-32.094 7.352,-32.487 10.035,-32.875C10.746,-32.978 11.46,-33.08 12.176,-33.128C14.008,-33.25 15.843,-33.321 17.674,-33.451C20.38,-33.643 23.084,-33.871 25.789,-34.078C27.302,-34.194 28.817,-34.278 30.328,-34.419C30.929,-34.474 31.244,-34.206 31.375,-33.686C31.722,-32.294 32.092,-30.904 32.362,-29.497C32.692,-27.775 32.932,-26.036 33.207,-24.304C33.906,-19.897 34.545,-15.48 35.328,-11.088C35.683,-9.093 36.364,-7.159 36.817,-5.178C37.216,-3.433 37.501,-1.662 37.842,0.097C37.907,0.433 37.789,0.649 37.457,0.716C36.793,0.85 36.131,1.011 35.459,1.085C33.715,1.276 31.969,1.495 30.218,1.573C28.296,1.658 26.415,1.967 24.531,2.313C21.435,2.882 18.326,3.389 15.236,3.992C12.411,4.543 9.555,4.805 6.697,5.073C6.499,5.091 6.299,5.106 6.1,5.11C5.674,5.117 5.424,4.898 5.367,4.481C5.292,3.928 5.283,3.361 5.161,2.819C4.83,1.343 4.4,-0.113 4.105,-1.596C3.353,-5.388 2.641,-9.188 1.936,-12.989C1.558,-15.027 1.175,-17.066 0.896,-19.119C0.698,-20.578 0.686,-22.06 0.561,-23.53C0.469,-24.602 0.33,-25.669 0.212,-26.739C0.117,-27.608 0.022,-28.479 -0.073,-29.349C-0.048,-29.351 -0.024,-29.354 0,-29.357" style="fill:rgb(246,160,173);fill-rule:nonzero;"/>
            </g>
            <g transform="matrix(4.16667,0,0,4.16667,610.685,851.64)">
                <path d="M0,40.266C-0.192,39.888 -0.355,39.662 -0.426,39.41C-1.109,37 -1.839,34.6 -2.429,32.167C-3.047,29.616 -3.596,27.043 -4.046,24.457C-4.537,21.635 -4.891,18.789 -5.285,15.951C-5.629,13.466 -6.131,10.985 -6.217,8.49C-6.293,6.267 -6.549,3.973 -5.651,1.796C-5.342,1.047 -4.918,0.471 -4.158,0.199C-3.599,0 -3.341,0.2 -3.323,0.791C-3.313,1.11 -3.354,1.431 -3.333,1.748C-3.249,3.058 -3.155,4.367 -3.051,5.675C-2.998,6.349 -2.842,7.022 -2.858,7.692C-2.928,10.663 -2.396,13.564 -1.885,16.467C-1.27,19.957 -0.655,23.448 0.024,26.925C0.398,28.838 0.925,30.72 1.341,32.625C1.578,33.711 1.745,34.814 1.909,35.914C1.941,36.126 1.887,36.447 1.745,36.573C0.747,37.458 0.511,38.677 0.214,39.876C0.196,39.949 0.141,40.013 0,40.266" style="fill:rgb(237,28,36);fill-rule:nonzero;"/>
            </g>
            <g transform="matrix(4.16667,0,0,4.16667,631.913,997.777)">
                <path d="M0,3.847C-1.398,3.458 -2.514,3.945 -3.656,3.855C-2.785,3.423 -1.821,3.388 -0.891,3.232C0.041,3.077 0.98,2.972 2.164,2.811C1.169,2.492 0.989,2.477 0.256,2.58C-0.375,2.67 -1.009,2.747 -1.639,2.845C-2.227,2.936 -2.811,3.047 -3.499,3.168C-3.424,2.624 -3.189,2.314 -2.72,2.213C-2.41,2.146 -2.088,2.113 -1.771,2.104C1.743,2.005 5.222,1.609 8.68,0.969C12.127,0.33 15.587,-0.238 19.045,-0.813C19.752,-0.93 20.476,-0.938 21.192,-1.002C23.376,-1.194 25.56,-1.39 27.744,-1.581C27.936,-1.598 28.13,-1.583 28.466,-1.583C28.297,-1.281 28.188,-1.098 28.091,-0.908C27.672,-0.095 27.122,0.681 26.875,1.544C26.587,2.547 25.944,2.898 25.058,2.966C21.718,3.224 18.377,3.478 15.033,3.679C11.369,3.899 7.7,4.025 4.098,4.834C3.676,4.929 3.224,4.924 2.787,4.913C0.787,4.865 -1.202,4.987 -3.182,5.263C-3.534,5.312 -4.023,5.445 -4.091,4.989C-4.176,4.425 -3.614,4.469 -3.237,4.418C-2.486,4.317 -1.732,4.246 -0.982,4.139C-0.727,4.102 -0.481,3.993 0,3.847" style="fill:rgb(255,252,217);fill-rule:nonzero;"/>
            </g>
            <g transform="matrix(4.16667,0,0,4.16667,0,0)">
                <g opacity="0.2">
                    <g transform="matrix(1,0,0,1,174.585,244.732)">
                        <path d="M0,-43.713C-4.977,-42.316 -9.953,-40.919 -14.93,-39.522C-16.667,-39.034 -18.452,-38.522 -19.877,-37.416C-21.177,-36.407 -22.079,-34.978 -22.865,-33.532C-26.419,-26.995 -28.135,-19.471 -27.768,-12.039C-27.635,-9.366 -26.987,-6.321 -24.641,-5.035C-23.098,-4.19 -21.166,-4.334 -19.608,-3.517C-20.934,-3.247 -22.26,-2.977 -23.586,-2.707C-23.903,-2.643 -24.235,-2.571 -24.482,-2.362C-24.721,-2.159 -24.846,-1.856 -25.011,-1.589C-25.702,-0.469 -27.278,0 -28.47,-0.559C-30.628,-8.692 -32.314,-16.65 -33.712,-24.947C-34.277,-28.296 -34.844,-31.673 -34.718,-35.068C-34.67,-36.37 -34.507,-37.708 -33.87,-38.844C-33.233,-39.981 -32.014,-40.618 -30.726,-40.814C-18.778,-42.628 -10.177,-42.933 0,-43.713" style="fill:rgb(59,35,20);fill-rule:nonzero;"/>
                    </g>
                </g>
            </g>
            <g transform="matrix(4.16667,0,0,4.16667,0,0)">
                <clipPath id="_clip1">
                    <path d="M174.249,201.41C172.739,201.55 171.223,201.634 169.71,201.75C167.006,201.957 164.301,202.185 161.597,202.377C159.764,202.507 157.929,202.578 156.098,202.701C155.381,202.748 154.668,202.85 153.957,202.954C151.274,203.34 148.592,203.735 145.91,204.136C145.284,204.23 144.666,204.364 144.044,204.478C144.004,205.103 143.962,205.727 143.922,206.352C143.919,206.392 143.922,206.432 143.922,206.472C143.897,206.474 143.873,206.476 143.849,206.48C143.943,207.35 144.039,208.219 144.133,209.09C144.251,210.159 144.391,211.226 144.481,212.298C144.607,213.768 144.619,215.25 144.818,216.709C145.096,218.762 145.48,220.801 145.857,222.84C146.561,226.641 147.273,230.44 148.027,234.232C148.322,235.715 148.751,237.172 149.082,238.648C149.205,239.189 149.213,239.756 149.288,240.31C149.345,240.726 149.595,240.945 150.021,240.937C150.222,240.934 150.42,240.919 150.618,240.901C153.476,240.634 156.333,240.372 159.159,239.82C162.247,239.217 165.356,238.711 168.452,238.141C170.336,237.795 172.218,237.486 174.139,237.401C175.891,237.324 177.637,237.104 179.382,236.913C180.052,236.839 180.714,236.678 181.379,236.544C181.71,236.478 181.829,236.261 181.763,235.924C181.424,234.166 181.137,232.395 180.738,230.65C180.285,228.669 179.604,226.735 179.248,224.741C178.466,220.349 177.827,215.931 177.128,211.524C176.854,209.792 176.613,208.053 176.285,206.332C176.015,204.924 175.643,203.535 175.296,202.143C175.176,201.668 174.903,201.403 174.399,201.403C174.352,201.403 174.301,201.405 174.249,201.41Z" clip-rule="nonzero"/>
                </clipPath>
                <g clip-path="url(#_clip1)">
                    <g transform="matrix(1,0,0,1,165.852,237.621)">
                        <path d="M0,-22.013C-0.671,-22.708 -1.652,-22.783 -2.307,-22.175C-2.491,-22.004 -2.551,-21.7 -2.668,-21.456C-2.402,-21.363 -2.138,-21.262 -1.867,-21.18C-1.812,-21.164 -1.731,-21.216 -1.667,-21.245C-1.115,-21.498 -0.565,-21.752 0,-22.013M8.1,-2.946L8.393,-3.006C8.874,-3.896 8.467,-4.709 8.063,-5.52C7.909,-5.829 7.68,-5.943 7.344,-5.793C6.957,-5.619 6.895,-5.325 7.062,-4.981C7.396,-4.297 7.753,-3.623 8.1,-2.946M7.728,0.872C8.663,0.31 9.405,-0.328 9.5,-0.748C9.549,-0.963 9.45,-1.211 9.417,-1.443C8.608,-1.234 7.888,-1.047 7.16,-0.858C7.37,-0.219 7.547,0.321 7.728,0.872M-7.712,0.434C-7.426,-0.171 -7.148,-0.753 -6.874,-1.337C-6.827,-1.436 -6.772,-1.537 -6.754,-1.643C-6.713,-1.891 -6.652,-2.147 -6.673,-2.393C-6.703,-2.745 -6.974,-2.912 -7.3,-2.771C-7.523,-2.674 -7.752,-2.514 -7.893,-2.321C-8.445,-1.566 -8.371,-0.488 -7.712,0.434M-5.77,1.373C-6.442,1.372 -7.06,1.36 -7.676,1.385C-7.766,1.389 -7.912,1.571 -7.919,1.678C-7.934,1.894 -7.888,2.119 -7.836,2.332C-7.668,3.024 -7.266,3.227 -6.276,3.135C-5.803,3.091 -5.802,3.091 -5.777,2.161C-5.771,1.912 -5.772,1.662 -5.77,1.373M4.309,-5.265C4.398,-5.13 4.44,-5.019 4.52,-4.953C5.298,-4.297 5.869,-3.508 6.187,-2.529C6.288,-2.221 6.488,-1.938 6.679,-1.671C6.919,-1.336 7.265,-1.401 7.579,-1.538C7.91,-1.684 7.945,-2.007 7.852,-2.293C7.75,-2.604 7.543,-2.878 7.407,-3.18C7.104,-3.848 6.767,-4.506 6.542,-5.201C6.378,-5.706 6.602,-6.014 7.095,-6.259C7.562,-6.489 8.011,-6.469 8.292,-6.064C8.95,-5.116 9.516,-4.119 9.091,-2.882C9.008,-2.638 8.984,-2.372 8.909,-1.993C9.856,-2.57 10.134,-3.263 9.929,-4.161C9.838,-4.556 9.767,-4.956 9.66,-5.346C9.433,-6.182 8.891,-6.757 8.123,-7.128C7.254,-7.547 7.268,-7.526 6.546,-6.863C6.143,-6.492 5.682,-6.18 5.234,-5.858C4.942,-5.647 4.628,-5.468 4.309,-5.265M-3.285,-22.194C-3.14,-22.324 -3.006,-22.447 -2.869,-22.566C-2.181,-23.159 -2.111,-23.464 -2.534,-24.235C-2.861,-24.833 -3.307,-25.317 -4.007,-25.458C-4.284,-25.514 -4.641,-25.583 -4.856,-25.46C-5.633,-25.016 -6.399,-24.41 -6.464,-23.496C-6.523,-22.648 -6.228,-21.774 -6.063,-20.916C-6.046,-20.828 -5.829,-20.698 -5.738,-20.72C-5.135,-20.869 -4.535,-21.039 -3.949,-21.245C-3.862,-21.275 -3.769,-21.6 -3.824,-21.664C-4.059,-21.939 -4.361,-22.154 -4.61,-22.417C-4.719,-22.532 -4.76,-22.711 -4.832,-22.862C-4.639,-22.884 -4.399,-22.989 -4.261,-22.911C-3.917,-22.721 -3.619,-22.448 -3.285,-22.194M1.297,-22.374C2.427,-22.061 3.343,-21.807 4.26,-21.555C4.437,-21.507 4.628,-21.413 4.792,-21.445C4.979,-21.481 5.259,-21.602 5.299,-21.742C5.554,-22.657 5.853,-23.58 5.622,-24.548C5.451,-25.263 4.846,-25.739 4.212,-25.675C2.573,-25.511 1.301,-24.738 0.396,-23.358C0.23,-23.105 0.214,-22.894 0.475,-22.694C0.74,-22.491 0.862,-22.727 1.027,-22.85C1.409,-23.133 1.787,-23.423 2.183,-23.686C2.329,-23.784 2.519,-23.855 2.691,-23.861C2.803,-23.866 2.939,-23.748 3.024,-23.651C3.05,-23.621 2.968,-23.439 2.893,-23.389C2.412,-23.069 1.92,-22.766 1.297,-22.374M-4.206,-4.288C-5.01,-4.682 -5.693,-5.039 -6.396,-5.348C-6.649,-5.458 -6.956,-5.506 -7.233,-5.491C-8.162,-5.438 -8.802,-4.917 -9.234,-4.127C-9.698,-3.28 -9.747,-2.36 -9.542,-1.446C-9.458,-1.069 -9.17,-0.739 -8.966,-0.371C-8.819,-1.075 -8.768,-1.708 -8.542,-2.271C-8.391,-2.649 -8.048,-3.021 -7.693,-3.234C-6.861,-3.735 -5.999,-3.177 -6.085,-2.209C-6.124,-1.78 -6.306,-1.36 -6.447,-0.945C-6.566,-0.597 -6.755,-0.272 -6.851,0.079C-6.965,0.496 -6.746,0.716 -6.333,0.67C-5.927,0.624 -5.638,0.458 -5.58,0.011C-5.383,-1.497 -4.892,-2.915 -4.206,-4.288M1.325,3.283C1.688,3.216 1.906,3.174 2.123,3.135C3.506,2.887 4.842,2.486 6.079,1.814C7.02,1.302 7.112,1.007 6.681,0.032C6.235,-0.976 5.786,-1.986 5.267,-2.956C5.012,-3.433 4.603,-3.829 4.248,-4.248C3.719,-4.872 3.088,-5.015 2.271,-4.821C0.694,-4.445 -0.911,-4.198 -2.546,-4.328C-3.216,-4.381 -3.635,-4.101 -3.926,-3.479C-4.787,-1.637 -5.05,0.322 -5.132,2.318C-5.159,2.965 -5.034,3.079 -4.435,3.269C-4.189,3.346 -3.934,3.431 -3.682,3.437C-1.961,3.479 -0.228,3.842 1.325,3.283M-1.259,-18.457C-1.333,-18.395 -1.414,-18.359 -1.44,-18.3C-2.609,-15.631 -4.563,-13.704 -7.068,-12.281C-7.303,-12.147 -7.53,-11.892 -7.629,-11.641C-8.015,-10.659 -8.003,-9.643 -7.853,-8.601C-7.733,-7.777 -7.364,-7.155 -6.724,-6.659C-6.609,-6.57 -6.521,-6.447 -6.423,-6.336C-5.697,-5.515 -4.717,-5.163 -3.689,-5.059C-1.549,-4.842 0.571,-5.107 2.664,-5.569C3.829,-5.826 4.912,-6.289 5.795,-7.112C7.112,-8.338 7.854,-9.787 7.412,-11.65C7.293,-12.151 7.084,-12.507 6.487,-12.576C4.366,-12.823 2.7,-13.908 1.322,-15.486C0.459,-16.474 -0.399,-17.467 -1.259,-18.457M-10.741,-10.745C-10.618,-10.993 -10.447,-11.229 -10.387,-11.491C-10.343,-11.681 -10.384,-11.947 -10.493,-12.107C-10.821,-12.591 -11.869,-12.753 -12.372,-12.438C-13.801,-11.546 -13.978,-9.31 -12.606,-8.25C-11.591,-7.466 -10.446,-6.838 -9.087,-6.803C-8.326,-6.783 -8.159,-6.939 -8.332,-7.679C-8.648,-9.031 -8.764,-10.37 -8.275,-11.708C-8.254,-11.763 -8.296,-11.842 -8.31,-11.914C-8.552,-12.008 -8.803,-12.076 -9.022,-12.202C-9.122,-12.259 -9.175,-12.424 -9.208,-12.55C-9.215,-12.578 -9.045,-12.698 -8.956,-12.697C-7.821,-12.695 -6.907,-13.253 -6.039,-13.882C-4.34,-15.11 -2.952,-16.614 -2.059,-18.537C-1.95,-18.771 -1.844,-19.007 -1.714,-19.229C-1.445,-19.686 -1.229,-19.681 -0.924,-19.217C-0.702,-18.88 -0.541,-18.49 -0.27,-18.2C0.738,-17.125 1.741,-16.039 2.819,-15.037C3.958,-13.978 5.353,-13.413 6.915,-13.294C7.098,-13.281 7.283,-13.279 7.464,-13.249C7.789,-13.194 8.013,-13.052 7.95,-12.658C7.928,-12.52 7.944,-12.366 7.98,-12.229C8.28,-11.102 8.342,-9.991 7.886,-8.878C7.703,-8.432 7.821,-8.185 8.287,-8.035C8.626,-7.927 9.008,-7.885 9.365,-7.909C9.877,-7.945 10.387,-8.055 10.892,-8.158C12.27,-8.437 13.162,-9.863 12.839,-11.248C12.697,-11.856 12.112,-12.138 11.598,-11.761C11.312,-11.551 11.092,-11.388 10.722,-11.436C10.602,-11.451 10.349,-11.277 10.345,-11.181C10.335,-10.947 10.393,-10.683 10.511,-10.482C10.555,-10.407 10.854,-10.431 11.01,-10.487C11.131,-10.53 11.196,-10.708 11.311,-10.795C11.41,-10.87 11.543,-10.9 11.661,-10.95C11.708,-10.819 11.804,-10.684 11.794,-10.558C11.763,-10.155 11.544,-9.885 11.145,-9.758C10.28,-9.485 9.658,-9.907 9.656,-10.813C9.655,-11.325 9.818,-11.851 9.741,-12.345C9.534,-13.655 9.285,-14.962 8.964,-16.249C8.374,-18.62 6.917,-20.196 4.519,-20.84C4.198,-20.927 3.871,-21.001 3.567,-21.13C2.31,-21.663 1.012,-21.662 -0.208,-21.164C-1.204,-20.757 -2.153,-20.439 -3.232,-20.67C-3.402,-20.706 -3.596,-20.631 -3.778,-20.604C-7.041,-20.125 -9.958,-17.028 -10.34,-14.215C-10.43,-13.555 -10.593,-12.999 -10.067,-12.38C-9.548,-11.768 -9.947,-10.975 -10.741,-10.745M9.216,-7.211C10.13,-6.235 10.375,-5.205 10.555,-4.138C10.659,-3.527 10.617,-2.957 10.265,-2.445C10.041,-2.118 9.97,-1.845 10.146,-1.444C10.415,-0.839 10.234,-0.26 9.695,0.124C8.468,0.996 7.24,1.874 5.96,2.666C5.411,3.007 4.749,3.216 4.11,3.354C2.182,3.774 0.31,4.51 -1.74,4.236C-3.486,4.003 -5.25,3.906 -7.005,3.737C-7.963,3.645 -8.438,3.259 -8.451,2.266C-8.462,1.381 -8.754,0.759 -9.399,0.183C-11.104,-1.337 -10.578,-5.223 -7.893,-5.982C-7.822,-6.002 -7.73,-6 -7.685,-6.046C-7.599,-6.13 -7.54,-6.242 -7.469,-6.342C-7.595,-6.381 -7.772,-6.494 -7.838,-6.448C-8.481,-6.002 -9.173,-6.133 -9.87,-6.221C-11.088,-6.377 -12.105,-7.012 -13.017,-7.735C-14.341,-8.786 -14.489,-10.921 -13.473,-12.229C-13.072,-12.744 -12.587,-13.142 -11.922,-13.188C-11.294,-13.231 -11.012,-13.52 -10.954,-14.14C-10.754,-16.299 -9.512,-17.876 -8.006,-19.292C-7.767,-19.517 -7.482,-19.697 -7.213,-19.89C-6.642,-20.3 -6.643,-20.298 -6.88,-20.937C-7.178,-21.741 -7.342,-22.567 -7.246,-23.427C-7.105,-24.684 -6.298,-25.522 -5.272,-26.049C-4.348,-26.523 -3.388,-26.263 -2.641,-25.497C-2.172,-25.017 -1.817,-24.461 -1.689,-23.783C-1.642,-23.532 -1.606,-23.209 -1.26,-23.255C-0.887,-23.305 -0.439,-22.997 -0.141,-23.459C-0.021,-23.645 0.107,-23.826 0.232,-24.008C1.179,-25.381 2.563,-26.003 4.148,-26.241C5.029,-26.373 5.985,-25.615 6.262,-24.656C6.54,-23.691 6.246,-22.758 6.131,-21.815C6.123,-21.742 6.107,-21.665 6.073,-21.603C5.849,-21.195 5.936,-20.952 6.389,-20.758C7.187,-20.416 7.762,-19.783 8.301,-19.121C9.017,-18.243 9.397,-17.208 9.652,-16.128C9.88,-15.16 10.032,-14.175 10.24,-13.201C10.397,-12.46 10.425,-12.454 11.199,-12.49C11.383,-12.498 11.567,-12.522 11.75,-12.513C13.359,-12.425 13.409,-12.218 13.531,-10.739C13.651,-9.291 12.447,-7.834 11.015,-7.548C10.48,-7.441 9.942,-7.346 9.216,-7.211" style="fill:rgb(35,31,32);fill-rule:nonzero;"/>
                    </g>
                    <g transform="matrix(1,0,0,1,155.111,219.921)">
                        <path d="M0,6.955C0.794,6.726 1.193,5.932 0.674,5.321C0.148,4.701 0.311,4.146 0.401,3.486C0.784,0.672 3.7,-2.425 6.963,-2.903C7.146,-2.93 7.339,-3.006 7.509,-2.969C8.588,-2.739 9.537,-3.056 10.534,-3.463C11.753,-3.962 13.051,-3.962 14.308,-3.429C14.612,-3.301 14.939,-3.226 15.26,-3.14C17.658,-2.495 19.115,-0.92 19.706,1.452C20.026,2.738 20.275,4.046 20.482,5.355C20.56,5.849 20.396,6.376 20.397,6.887C20.399,7.794 21.021,8.216 21.886,7.942C22.286,7.816 22.504,7.545 22.535,7.142C22.545,7.016 22.45,6.882 22.402,6.751C22.284,6.801 22.151,6.83 22.052,6.906C21.937,6.992 21.872,7.171 21.751,7.214C21.596,7.269 21.296,7.293 21.252,7.218C21.134,7.017 21.076,6.754 21.086,6.519C21.09,6.424 21.343,6.249 21.463,6.265C21.833,6.312 22.053,6.149 22.339,5.94C22.853,5.562 23.438,5.844 23.58,6.452C23.903,7.838 23.011,9.263 21.633,9.543C21.128,9.646 20.619,9.755 20.106,9.791C19.75,9.816 19.368,9.773 19.028,9.665C18.562,9.516 18.444,9.268 18.627,8.822C19.083,7.71 19.021,6.598 18.721,5.471C18.685,5.334 18.669,5.181 18.691,5.042C18.754,4.649 18.53,4.506 18.205,4.452C18.024,4.421 17.839,4.42 17.656,4.406C16.094,4.288 14.7,3.723 13.56,2.663C12.482,1.661 11.479,0.576 10.472,-0.5C10.201,-0.789 10.04,-1.179 9.817,-1.517C9.512,-1.981 9.296,-1.985 9.027,-1.529C8.897,-1.307 8.791,-1.07 8.682,-0.837C7.79,1.086 6.401,2.591 4.702,3.819C3.834,4.447 2.92,5.005 1.785,5.003C1.696,5.003 1.526,5.122 1.533,5.15C1.566,5.277 1.62,5.441 1.719,5.498C1.938,5.624 2.189,5.693 2.432,5.787C2.445,5.858 2.487,5.937 2.466,5.993C1.978,7.33 2.093,8.67 2.409,10.021C2.582,10.761 2.415,10.917 1.654,10.898C0.295,10.863 -0.85,10.234 -1.865,9.45C-3.236,8.39 -3.06,6.155 -1.631,5.262C-1.127,4.948 -0.08,5.11 0.249,5.593C0.357,5.753 0.398,6.019 0.354,6.209C0.294,6.471 0.124,6.707 0,6.955" style="fill:rgb(35,31,32);fill-rule:nonzero;"/>
                    </g>
                    <g transform="matrix(1,0,0,1,163.596,228.596)">
                        <path d="M0,-5.249C-0.217,-5.443 -0.396,-5.726 -0.558,-5.716C-0.728,-5.707 -1,-5.428 -1.017,-5.248C-1.043,-4.953 -0.915,-4.636 -0.808,-4.344C-0.791,-4.296 -0.467,-4.275 -0.433,-4.332C-0.271,-4.596 -0.162,-4.891 0,-5.249M2.279,-4.923C2.198,-5.221 2.2,-5.355 2.134,-5.426C2,-5.569 1.807,-5.796 1.679,-5.772C1.527,-5.744 1.397,-5.499 1.298,-5.325C1.254,-5.246 1.299,-5.111 1.316,-5.004C1.41,-4.425 1.782,-3.963 1.938,-4.144C2.148,-4.386 2.211,-4.754 2.279,-4.923M1.188,-3.616C0.542,-3.864 0.106,-3.846 -0.233,-3.417C-0.537,-3.034 -0.533,-2.154 -0.263,-1.736C0.028,-1.286 0.704,-1.076 1.31,-1.272C1.431,-1.311 1.522,-1.444 1.627,-1.534C1.502,-1.633 1.389,-1.762 1.248,-1.823C1.12,-1.877 0.957,-1.844 0.815,-1.874C0.513,-1.937 0.248,-2.065 0.206,-2.414C0.162,-2.792 0.185,-3.152 0.605,-3.336C0.752,-3.4 0.895,-3.475 1.188,-3.616M4.537,-2.116C4.24,-1.797 4.12,-1.662 3.993,-1.533C3.556,-1.088 3.155,-0.596 2.669,-0.212C1.696,0.557 0.808,0.471 -0.08,-0.4C-0.237,-0.554 -0.367,-0.742 -0.543,-0.869C-0.637,-0.937 -0.802,-0.906 -0.935,-0.919C-0.948,-0.78 -1.011,-0.623 -0.968,-0.505C-0.607,0.473 0.431,1.11 1.472,1.014C2.852,0.887 4.127,-0.14 4.546,-1.476C4.584,-1.599 4.545,-1.746 4.537,-2.116M0.998,-9.432C1.857,-8.441 2.716,-7.449 3.579,-6.461C4.957,-4.883 6.623,-3.798 8.744,-3.551C9.341,-3.481 9.55,-3.126 9.668,-2.624C10.11,-0.762 9.369,0.688 8.052,1.914C7.169,2.736 6.086,3.2 4.92,3.457C2.828,3.918 0.708,4.183 -1.432,3.966C-2.46,3.862 -3.44,3.51 -4.167,2.689C-4.264,2.579 -4.353,2.455 -4.467,2.366C-5.107,1.87 -5.476,1.248 -5.596,0.424C-5.747,-0.618 -5.758,-1.633 -5.372,-2.616C-5.273,-2.867 -5.046,-3.122 -4.811,-3.255C-2.306,-4.679 -0.353,-6.606 0.816,-9.274C0.843,-9.334 0.924,-9.37 0.998,-9.432" style="fill:rgb(254,220,196);fill-rule:nonzero;"/>
                    </g>
                    <g transform="matrix(1,0,0,1,167.178,233.166)">
                        <path d="M0,7.739C-1.553,8.298 -3.286,7.934 -5.007,7.893C-5.259,7.886 -5.515,7.802 -5.76,7.724C-6.359,7.534 -6.484,7.421 -6.457,6.774C-6.375,4.778 -6.112,2.819 -5.251,0.976C-4.96,0.355 -4.541,0.074 -3.871,0.128C-2.236,0.258 -0.631,0.01 0.946,-0.365C1.763,-0.559 2.394,-0.416 2.922,0.207C3.278,0.626 3.687,1.023 3.942,1.499C4.461,2.469 4.91,3.48 5.355,4.488C5.787,5.462 5.695,5.758 4.753,6.269C3.517,6.942 2.181,7.343 0.798,7.591C0.581,7.63 0.363,7.672 0,7.739" style="fill:rgb(0,174,239);fill-rule:nonzero;"/>
                    </g>
                    <g transform="matrix(1,0,0,1,161.646,237.119)">
                        <path d="M0,-3.786C-0.686,-2.413 -1.177,-0.995 -1.374,0.513C-1.432,0.961 -1.721,1.127 -2.127,1.172C-2.54,1.218 -2.759,0.999 -2.645,0.582C-2.549,0.23 -2.36,-0.095 -2.241,-0.442C-2.1,-0.858 -1.918,-1.278 -1.879,-1.707C-1.792,-2.674 -2.655,-3.233 -3.487,-2.732C-3.842,-2.518 -4.185,-2.147 -4.336,-1.768C-4.562,-1.205 -4.613,-0.573 -4.76,0.131C-4.964,-0.236 -5.252,-0.567 -5.336,-0.943C-5.541,-1.857 -5.492,-2.777 -5.028,-3.625C-4.596,-4.414 -3.956,-4.936 -3.027,-4.988C-2.75,-5.004 -2.443,-4.956 -2.19,-4.846C-1.487,-4.536 -0.804,-4.18 0,-3.786" style="fill:rgb(0,174,239);fill-rule:nonzero;"/>
                    </g>
                    <g transform="matrix(1,0,0,1,167.15,212.843)">
                        <path d="M0,2.405C0.623,2.012 1.115,1.71 1.596,1.39C1.67,1.34 1.753,1.157 1.727,1.128C1.642,1.03 1.506,0.913 1.394,0.918C1.221,0.924 1.032,0.995 0.885,1.093C0.49,1.356 0.112,1.646 -0.27,1.928C-0.436,2.051 -0.558,2.288 -0.822,2.085C-1.083,1.884 -1.067,1.674 -0.902,1.421C0.003,0.041 1.275,-0.732 2.915,-0.896C3.549,-0.96 4.154,-0.484 4.324,0.231C4.556,1.199 4.257,2.122 4.001,3.036C3.962,3.176 3.682,3.298 3.495,3.334C3.331,3.365 3.139,3.272 2.962,3.223C2.046,2.972 1.13,2.717 0,2.405" style="fill:rgb(237,28,36);fill-rule:nonzero;"/>
                    </g>
                    <g transform="matrix(1,0,0,1,162.567,213.535)">
                        <path d="M0,1.892C-0.333,1.639 -0.631,1.365 -0.976,1.175C-1.114,1.098 -1.354,1.203 -1.547,1.225C-1.475,1.375 -1.434,1.554 -1.325,1.669C-1.076,1.933 -0.773,2.147 -0.539,2.422C-0.484,2.486 -0.577,2.811 -0.664,2.841C-1.25,3.047 -1.85,3.217 -2.453,3.366C-2.544,3.389 -2.761,3.258 -2.778,3.17C-2.943,2.312 -3.238,1.438 -3.179,0.59C-3.114,-0.324 -2.348,-0.93 -1.571,-1.374C-1.356,-1.497 -0.999,-1.428 -0.722,-1.372C-0.022,-1.231 0.424,-0.747 0.751,-0.149C1.174,0.622 1.104,0.927 0.417,1.52C0.279,1.639 0.146,1.762 0,1.892" style="fill:rgb(237,28,36);fill-rule:nonzero;"/>
                    </g>
                    <g transform="matrix(1,0,0,1,170.161,234.005)">
                        <path d="M0,-1.649C0.319,-1.852 0.634,-2.031 0.926,-2.241C1.373,-2.563 1.834,-2.875 2.238,-3.247C2.959,-3.91 2.945,-3.93 3.814,-3.511C4.582,-3.141 5.125,-2.566 5.352,-1.73C5.458,-1.339 5.53,-0.94 5.62,-0.545C5.826,0.354 5.548,1.046 4.6,1.623C4.676,1.244 4.699,0.979 4.783,0.734C5.208,-0.503 4.642,-1.499 3.983,-2.448C3.703,-2.853 3.253,-2.873 2.787,-2.642C2.293,-2.398 2.07,-2.09 2.233,-1.585C2.458,-0.89 2.796,-0.232 3.098,0.437C3.235,0.738 3.441,1.013 3.543,1.323C3.637,1.609 3.601,1.933 3.27,2.078C2.957,2.216 2.61,2.281 2.371,1.945C2.179,1.678 1.979,1.395 1.879,1.087C1.56,0.109 0.99,-0.68 0.211,-1.337C0.132,-1.403 0.09,-1.513 0,-1.649" style="fill:rgb(0,174,239);fill-rule:nonzero;"/>
                    </g>
                    <g transform="matrix(1,0,0,1,160.082,240.835)">
                        <path d="M0,-1.841C-0.002,-1.551 -0.001,-1.302 -0.007,-1.052C-0.032,-0.122 -0.033,-0.122 -0.506,-0.078C-1.496,0.013 -1.898,-0.19 -2.066,-0.882C-2.118,-1.095 -2.164,-1.32 -2.149,-1.535C-2.142,-1.643 -1.996,-1.825 -1.906,-1.829C-1.29,-1.854 -0.672,-1.841 0,-1.841" style="fill:rgb(254,220,196);fill-rule:nonzero;"/>
                    </g>
                    <g transform="matrix(1,0,0,1,158.14,234.709)">
                        <path d="M0,3.346C-0.658,2.424 -0.732,1.346 -0.181,0.592C-0.04,0.398 0.189,0.238 0.413,0.141C0.738,0 1.01,0.167 1.04,0.519C1.061,0.765 1,1.021 0.958,1.269C0.94,1.375 0.885,1.476 0.838,1.575C0.564,2.159 0.287,2.742 0,3.346" style="fill:rgb(237,28,36);fill-rule:nonzero;"/>
                    </g>
                    <g transform="matrix(0.807845,0.589395,0.589395,-0.807845,173.019,237.902)">
                        <path d="M0.803,-0.147C0.332,0.192 -0.13,0.524 -0.676,0.916C-0.199,1.498 0.272,2.073 0.803,2.719C0.966,2.551 1.192,2.409 1.279,2.207C1.45,1.812 1.227,0.858 0.803,-0.147" style="fill:rgb(254,220,196);fill-rule:nonzero;"/>
                    </g>
                    <g transform="matrix(1,0,0,1,173.953,231.678)">
                        <path d="M0,2.998C-0.347,2.32 -0.704,1.647 -1.038,0.962C-1.205,0.619 -1.144,0.324 -0.756,0.151C-0.42,0 -0.191,0.115 -0.037,0.424C0.367,1.235 0.773,2.047 0.293,2.938L0,2.998Z" style="fill:rgb(237,28,36);fill-rule:nonzero;"/>
                    </g>
                    <g transform="matrix(1,0,0,1,165.852,215.687)">
                        <path d="M0,-0.079C-0.565,0.182 -1.115,0.436 -1.667,0.689C-1.731,0.718 -1.812,0.77 -1.867,0.754C-2.138,0.672 -2.402,0.571 -2.668,0.478C-2.551,0.234 -2.491,-0.07 -2.307,-0.241C-1.652,-0.849 -0.671,-0.774 0,-0.079" style="fill:rgb(237,28,36);fill-rule:nonzero;"/>
                    </g>
                    <g transform="matrix(1,0,0,1,168.133,229.707)">
                        <path d="M0,-3.227C0.008,-2.856 0.047,-2.709 0.009,-2.587C-0.41,-1.251 -1.686,-0.224 -3.065,-0.097C-4.106,0 -5.144,-0.638 -5.505,-1.616C-5.548,-1.734 -5.485,-1.891 -5.472,-2.03C-5.339,-2.017 -5.174,-2.047 -5.08,-1.98C-4.904,-1.853 -4.774,-1.665 -4.617,-1.511C-3.729,-0.64 -2.841,-0.554 -1.868,-1.323C-1.382,-1.707 -0.981,-2.199 -0.544,-2.644C-0.417,-2.773 -0.297,-2.908 0,-3.227" style="fill:rgb(35,31,32);fill-rule:nonzero;"/>
                    </g>
                    <g transform="matrix(1,0,0,1,164.784,227.272)">
                        <path d="M0,-2.292C-0.293,-2.151 -0.436,-2.077 -0.583,-2.013C-1.003,-1.829 -1.026,-1.468 -0.982,-1.09C-0.94,-0.742 -0.675,-0.613 -0.373,-0.55C-0.231,-0.52 -0.068,-0.554 0.06,-0.499C0.201,-0.438 0.314,-0.309 0.439,-0.21C0.334,-0.12 0.243,0.013 0.122,0.052C-0.484,0.248 -1.16,0.038 -1.451,-0.412C-1.721,-0.83 -1.725,-1.71 -1.421,-2.093C-1.082,-2.522 -0.646,-2.54 0,-2.292" style="fill:rgb(35,31,32);fill-rule:nonzero;"/>
                    </g>
                    <g transform="matrix(1,0,0,1,165.875,223.76)">
                        <path d="M0,-0.087C-0.068,0.082 -0.131,0.451 -0.341,0.693C-0.497,0.873 -0.869,0.411 -0.963,-0.168C-0.98,-0.275 -1.025,-0.41 -0.981,-0.488C-0.882,-0.662 -0.752,-0.907 -0.6,-0.936C-0.473,-0.96 -0.279,-0.733 -0.146,-0.589C-0.08,-0.519 -0.082,-0.384 0,-0.087" style="fill:rgb(35,31,32);fill-rule:nonzero;"/>
                    </g>
                    <g transform="matrix(1,0,0,1,163.596,223.844)">
                        <path d="M0,-0.497C-0.162,-0.139 -0.271,0.156 -0.433,0.42C-0.467,0.477 -0.791,0.456 -0.808,0.408C-0.915,0.116 -1.043,-0.201 -1.017,-0.496C-1,-0.676 -0.728,-0.955 -0.558,-0.964C-0.396,-0.974 -0.217,-0.691 0,-0.497" style="fill:rgb(35,31,32);fill-rule:nonzero;"/>
                    </g>
                </g>
            </g>
            <g transform="matrix(4.16667,0,0,4.16667,854.671,849.197)">
                <path d="M0,34.759C-0.502,34.786 -0.767,34.833 -1.023,34.808C-1.777,34.733 -2.526,34.622 -3.279,34.542C-3.658,34.501 -4.193,34.325 -4.246,34.892C-4.288,35.351 -3.781,35.339 -3.428,35.376C-1.438,35.579 0.521,35.935 2.453,36.459C2.874,36.573 3.312,36.686 3.745,36.695C7.435,36.767 11.029,37.519 14.64,38.179C17.935,38.781 21.24,39.331 24.545,39.877C25.422,40.021 26.131,39.834 26.649,38.929C27.095,38.15 27.814,37.527 28.415,36.837C28.555,36.676 28.704,36.524 28.94,36.271C28.613,36.191 28.428,36.131 28.238,36.101C26.071,35.765 23.904,35.435 21.737,35.102C21.027,34.992 20.321,34.828 19.607,34.774C16.111,34.508 12.616,34.234 9.116,34.032C5.605,33.83 2.132,33.385 -1.304,32.644C-1.615,32.577 -1.935,32.532 -2.251,32.523C-2.731,32.51 -3.034,32.755 -3.236,33.265C-2.539,33.312 -1.945,33.343 -1.353,33.394C-0.718,33.449 -0.084,33.526 0.551,33.59C1.287,33.664 1.459,33.721 2.349,34.269C1.161,34.142 0.223,34.02 -0.718,33.949C-1.659,33.878 -2.604,33.682 -3.552,33.895C-2.465,34.255 -1.265,34.048 0,34.759M-5.269,34.851C-5.072,34.639 -5.003,34.59 -4.968,34.524C-4.394,33.43 -3.874,32.302 -2.694,31.681C-2.525,31.592 -2.397,31.294 -2.377,31.08C-2.274,29.973 -2.173,28.862 -2.145,27.751C-2.095,25.801 -2.158,23.848 -2.065,21.901C-1.896,18.362 -1.661,14.825 -1.426,11.289C-1.23,8.348 -1.056,5.405 -0.279,2.535C-0.104,1.888 -0.095,1.197 0.014,0.53C0.225,-0.764 0.446,-2.058 0.676,-3.35C0.731,-3.663 0.848,-3.966 0.915,-4.277C1.038,-4.856 0.834,-5.112 0.245,-5.052C-0.559,-4.97 -1.107,-4.51 -1.586,-3.857C-2.978,-1.956 -3.276,0.332 -3.731,2.509C-4.243,4.953 -4.347,7.483 -4.604,9.977C-4.899,12.828 -5.234,15.676 -5.43,18.534C-5.609,21.153 -5.689,23.782 -5.697,26.406C-5.705,28.91 -5.567,31.415 -5.479,33.919C-5.47,34.18 -5.365,34.438 -5.269,34.851M1.268,-2.866C1.244,-2.869 1.22,-2.872 1.195,-2.875C1.08,-2.008 0.964,-1.14 0.85,-0.273C0.709,0.794 0.59,1.864 0.423,2.927C0.194,4.384 -0.146,5.827 -0.302,7.29C-0.521,9.35 -0.635,11.423 -0.754,13.491C-0.976,17.351 -1.19,21.211 -1.363,25.073C-1.431,26.584 -1.36,28.1 -1.39,29.613C-1.401,30.168 -1.527,30.721 -1.586,31.276C-1.631,31.695 -1.44,31.967 -1.024,32.061C-0.83,32.106 -0.633,32.138 -0.436,32.168C2.404,32.589 5.24,33.015 8.115,33.154C11.259,33.304 14.399,33.553 17.542,33.739C19.454,33.852 21.354,34 23.242,34.375C24.961,34.717 26.709,34.921 28.448,35.151C29.118,35.239 29.799,35.241 30.476,35.269C30.814,35.283 30.98,35.101 30.997,34.76C31.086,32.97 31.231,31.182 31.259,29.392C31.292,27.361 31.092,25.32 31.222,23.298C31.509,18.846 31.942,14.404 32.313,9.957C32.459,8.21 32.641,6.464 32.73,4.713C32.804,3.281 32.775,1.844 32.77,0.409C32.768,-0.127 32.525,-0.463 31.928,-0.552C30.428,-0.776 28.936,-1.055 27.439,-1.304C24.763,-1.747 22.083,-2.17 19.409,-2.629C17.6,-2.939 15.8,-3.307 13.992,-3.625C13.285,-3.749 12.567,-3.821 11.853,-3.89C9.154,-4.154 6.455,-4.411 3.755,-4.66C3.126,-4.718 2.494,-4.736 1.863,-4.772C1.674,-4.176 1.485,-3.579 1.297,-2.982C1.285,-2.944 1.278,-2.905 1.268,-2.866M-3.995,0.088C-3.542,-1.468 -2.979,-2.947 -2.065,-4.29C-1.312,-5.398 -0.29,-5.836 1.017,-5.634C2.629,-5.386 4.249,-5.16 5.873,-4.998C8.53,-4.731 11.198,-4.565 13.853,-4.274C15.437,-4.1 17.004,-3.774 18.578,-3.508C21.685,-2.983 24.791,-2.453 27.897,-1.923C29.313,-1.681 30.726,-1.41 32.147,-1.199C32.907,-1.087 33.303,-0.671 33.336,0.053C33.407,1.605 33.54,3.164 33.456,4.709C33.312,7.333 33.004,9.948 32.796,12.569C32.698,13.8 32.69,15.038 32.606,16.271C32.415,19.093 32.131,21.911 32.022,24.737C31.947,26.684 32.163,28.641 32.136,30.592C32.114,32.223 31.947,33.853 31.81,35.48C31.756,36.125 31.62,36.174 30.892,36.286C30.552,36.339 30.199,36.46 29.908,36.64C28.7,37.392 27.725,38.397 27.05,39.646C26.672,40.345 26.133,40.595 25.402,40.582C25.044,40.575 24.679,40.59 24.329,40.528C19.731,39.722 15.142,38.859 10.535,38.11C8.295,37.746 6.022,37.589 3.765,37.34C3.449,37.305 3.126,37.306 2.815,37.245C0.506,36.792 -1.8,36.327 -4.108,35.865C-4.304,35.826 -4.498,35.778 -4.696,35.753C-5.87,35.602 -6.231,35.273 -6.3,34.112C-6.394,32.522 -6.438,30.929 -6.491,29.337C-6.526,28.262 -6.582,27.185 -6.555,26.112C-6.498,23.762 -6.446,21.411 -6.295,19.067C-6.139,16.642 -5.912,14.22 -5.636,11.806C-5.343,9.233 -4.964,6.668 -4.606,4.102C-4.42,2.761 -4.2,1.426 -3.995,0.088" style="fill:rgb(35,31,32);fill-rule:nonzero;"/>
            </g>
            <g transform="matrix(4.16667,0,0,4.16667,859.954,988.268)">
                <path d="M0,-36.243C0.01,-36.282 0.017,-36.321 0.029,-36.359C0.217,-36.956 0.406,-37.553 0.595,-38.149C1.226,-38.113 1.858,-38.095 2.487,-38.037C5.187,-37.788 7.886,-37.531 10.584,-37.267C11.299,-37.198 12.017,-37.126 12.724,-37.002C14.532,-36.684 16.332,-36.316 18.141,-36.006C20.814,-35.547 23.495,-35.124 26.171,-34.681C27.667,-34.432 29.16,-34.153 30.66,-33.929C31.257,-33.84 31.5,-33.504 31.501,-32.968C31.507,-31.533 31.536,-30.096 31.462,-28.664C31.373,-26.913 31.191,-25.167 31.045,-23.42C30.674,-18.973 30.241,-14.531 29.954,-10.079C29.824,-8.057 30.023,-6.016 29.991,-3.985C29.963,-2.195 29.818,-0.407 29.729,1.383C29.712,1.724 29.546,1.906 29.208,1.892C28.531,1.864 27.85,1.862 27.18,1.774C25.441,1.544 23.693,1.34 21.974,0.998C20.086,0.623 18.186,0.475 16.274,0.362C13.131,0.176 9.991,-0.073 6.847,-0.223C3.972,-0.362 1.136,-0.788 -1.704,-1.209C-1.901,-1.239 -2.098,-1.271 -2.292,-1.316C-2.708,-1.41 -2.899,-1.682 -2.854,-2.101C-2.795,-2.656 -2.669,-3.209 -2.658,-3.764C-2.628,-5.277 -2.699,-6.793 -2.631,-8.304C-2.458,-12.166 -2.244,-16.026 -2.022,-19.886C-1.903,-21.954 -1.789,-24.027 -1.57,-26.087C-1.415,-27.55 -1.074,-28.993 -0.845,-30.45C-0.678,-31.513 -0.559,-32.583 -0.418,-33.65C-0.304,-34.517 -0.188,-35.385 -0.073,-36.252C-0.048,-36.249 -0.024,-36.246 0,-36.243" style="fill:rgb(205,220,40);fill-rule:nonzero;"/>
            </g>
            <g transform="matrix(4.16667,0,0,4.16667,832.718,827.899)">
                <path d="M0,39.963C-0.096,39.55 -0.201,39.292 -0.21,39.03C-0.298,36.527 -0.436,34.022 -0.428,31.518C-0.42,28.894 -0.34,26.264 -0.161,23.646C0.035,20.788 0.369,17.94 0.664,15.089C0.922,12.594 1.025,10.065 1.537,7.621C1.993,5.444 2.291,3.155 3.683,1.255C4.161,0.602 4.71,0.142 5.513,0.06C6.103,0 6.306,0.256 6.183,0.835C6.117,1.146 6,1.448 5.944,1.761C5.715,3.053 5.493,4.347 5.282,5.642C5.174,6.309 5.165,7 4.989,7.647C4.213,10.516 4.038,13.46 3.843,16.401C3.608,19.937 3.373,23.473 3.204,27.013C3.111,28.96 3.174,30.913 3.124,32.862C3.095,33.974 2.995,35.085 2.892,36.192C2.872,36.405 2.743,36.704 2.575,36.793C1.395,37.414 0.875,38.542 0.301,39.635C0.266,39.702 0.197,39.751 0,39.963" style="fill:rgb(57,181,74);fill-rule:nonzero;"/>
            </g>
            <g transform="matrix(4.16667,0,0,4.16667,854.671,1006.58)">
                <path d="M0,-3.013C-1.265,-3.724 -2.465,-3.517 -3.552,-3.877C-2.604,-4.09 -1.659,-3.894 -0.718,-3.823C0.223,-3.752 1.161,-3.63 2.349,-3.503C1.459,-4.051 1.287,-4.108 0.551,-4.182C-0.084,-4.246 -0.718,-4.323 -1.353,-4.378C-1.945,-4.429 -2.539,-4.46 -3.236,-4.507C-3.034,-5.017 -2.731,-5.262 -2.251,-5.249C-1.935,-5.24 -1.615,-5.195 -1.304,-5.128C2.132,-4.387 5.605,-3.942 9.116,-3.74C12.616,-3.538 16.111,-3.264 19.607,-2.998C20.321,-2.944 21.027,-2.78 21.737,-2.67C23.904,-2.337 26.071,-2.007 28.238,-1.671C28.428,-1.641 28.613,-1.581 28.94,-1.501C28.704,-1.248 28.555,-1.096 28.415,-0.935C27.814,-0.245 27.095,0.378 26.649,1.157C26.131,2.062 25.422,2.249 24.545,2.105C21.24,1.559 17.935,1.009 14.64,0.407C11.029,-0.253 7.435,-1.005 3.745,-1.077C3.312,-1.086 2.874,-1.199 2.453,-1.313C0.521,-1.837 -1.438,-2.193 -3.428,-2.396C-3.781,-2.433 -4.288,-2.421 -4.246,-2.88C-4.193,-3.447 -3.658,-3.271 -3.279,-3.23C-2.526,-3.15 -1.777,-3.039 -1.023,-2.964C-0.767,-2.939 -0.502,-2.986 0,-3.013" style="fill:rgb(255,252,217);fill-rule:nonzero;"/>
            </g>
            <g transform="matrix(4.16667,0,0,4.16667,0,0)">
                <g opacity="0.2">
                    <g transform="matrix(1,0,0,1,237.469,234.282)">
                        <path d="M0,-31.326C-5.166,-31.155 -10.333,-30.985 -15.499,-30.814C-17.302,-30.754 -19.157,-30.683 -20.805,-29.949C-22.308,-29.279 -23.524,-28.106 -24.632,-26.889C-29.643,-21.388 -33.103,-14.49 -34.518,-7.184C-35.026,-4.557 -35.123,-1.445 -33.15,0.363C-31.854,1.551 -29.943,1.872 -28.625,3.037C-29.977,2.984 -31.329,2.929 -32.681,2.875C-33.004,2.862 -33.344,2.853 -33.634,2.997C-33.915,3.137 -34.107,3.402 -34.331,3.622C-35.27,4.545 -36.912,4.625 -37.936,3.797C-38.093,-4.616 -37.833,-12.746 -37.214,-21.138C-36.964,-24.525 -36.709,-27.94 -35.778,-31.206C-35.421,-32.459 -34.944,-33.72 -34.054,-34.672C-33.165,-35.624 -31.829,-35.951 -30.531,-35.835C-18.495,-34.749 -10.069,-32.994 0,-31.326" style="fill:rgb(59,35,20);fill-rule:nonzero;"/>
                    </g>
                </g>
            </g>
            <g transform="matrix(4.16667,0,0,4.16667,890.918,949.492)">
                <path d="M0,-6.219C0.627,-6.656 1.082,-6.992 1.556,-7.296C1.802,-7.454 1.778,-7.616 1.643,-7.81C1.202,-8.442 0.76,-9.074 0.309,-9.698C0.219,-9.823 0.083,-9.913 -0.09,-10.073C-0.575,-8.742 -0.319,-7.55 0,-6.219M9.145,0.331C9.39,-0.543 9.262,-0.964 8.468,-1.359C7.947,-1.618 7.366,-1.79 6.792,-1.899C6.182,-2.015 5.67,-1.716 5.375,-1.185C5.212,-0.891 5.109,-0.51 5.129,-0.177C5.196,0.974 6.241,1.615 7.333,1.802C8.2,1.949 8.85,1.381 9.145,0.331M3.614,-8.335C2.891,-9.912 1.653,-11.001 0.506,-12.163C0.424,-12.247 0.318,-12.311 0.213,-12.365C-0.435,-12.703 -0.822,-12.586 -1.167,-11.927C-1.305,-11.665 -1.413,-11.386 -1.512,-11.107C-2.261,-9.007 -1.736,-6.968 -1.262,-4.886C-0.344,-5.64 -0.33,-5.645 -0.652,-6.603C-0.983,-7.586 -1.025,-8.588 -0.903,-9.602C-0.865,-9.924 -0.789,-10.255 -0.659,-10.55C-0.451,-11.023 0.023,-11.092 0.337,-10.703C0.859,-10.054 1.357,-9.386 1.857,-8.72C2.067,-8.44 2.217,-7.95 2.462,-7.903C2.783,-7.84 3.171,-8.119 3.529,-8.254C3.554,-8.264 3.572,-8.294 3.614,-8.335M6.287,3.619C7.66,3.966 8.006,3.942 9.425,3.721C10.864,3.497 11.945,2.723 12.841,1.633C12.972,1.474 13.081,1.29 13.165,1.102C13.407,0.558 13.338,0.303 12.781,0.155C11.979,-0.059 11.154,-0.182 10.338,-0.337C10.083,-0.385 9.978,-0.238 9.904,-0.007C9.761,0.445 9.622,0.904 9.414,1.327C8.964,2.243 8.12,2.698 7.133,2.48C5.909,2.21 4.558,1.49 4.447,-0.096C4.428,-0.362 4.335,-0.479 4.062,-0.431C3.369,-0.312 2.771,0.01 2.218,0.424C1.961,0.615 2.034,0.844 2.232,1.03C3.528,2.241 4.988,3.184 6.287,3.619M3.625,6.028C3.637,5.986 3.649,5.943 3.661,5.901C4.527,6.114 5.383,6.438 6.261,6.514C7.861,6.654 9.475,6.613 11.059,6.294C12.894,5.925 14.423,4.996 15.709,3.642C16.001,3.334 16.091,2.994 15.838,2.684C15.372,2.112 14.866,1.567 14.33,1.059C14.074,0.815 13.873,0.902 13.709,1.225C12.951,2.725 11.71,3.64 10.13,4.093C8.036,4.692 6.08,4.354 4.249,3.16C3.375,2.59 2.493,2.04 1.788,1.259C1.599,1.05 1.444,1.084 1.268,1.265C0.526,2.026 -0.028,2.883 -0.234,3.949C-0.308,4.331 -0.233,4.585 0.115,4.756C0.301,4.848 0.473,4.977 0.667,5.044C1.65,5.38 2.638,5.701 3.625,6.028M-3.27,3.815C-2.662,4.184 -2.011,4.194 -1.359,4.202C-0.728,4.209 -0.685,4.219 -0.566,3.633C-0.35,2.567 0.182,1.693 0.953,0.958C1.268,0.658 1.326,0.383 1.062,0.035C0.946,-0.116 0.849,-0.283 0.667,-0.559C0.472,-0.159 0.346,0.132 0.187,0.403C0.14,0.482 -0.002,0.504 -0.101,0.552C-0.146,0.454 -0.237,0.352 -0.229,0.259C-0.123,-0.959 1.079,-1.721 2.243,-1.696C2.33,-1.694 2.46,-1.573 2.484,-1.484C2.502,-1.419 2.398,-1.27 2.317,-1.238C2.097,-1.151 1.854,-1.123 1.632,-1.039C1.235,-0.889 1.187,-0.752 1.388,-0.358C1.666,0.191 1.744,0.147 2.183,-0.095C2.722,-0.394 3.309,-0.641 3.906,-0.79C4.324,-0.894 4.597,-1.046 4.782,-1.434C5.028,-1.948 5.487,-2.212 6.017,-2.39C7.083,-2.75 8.095,-2.49 8.875,-1.828C9.644,-1.175 10.438,-0.864 11.408,-0.78C11.966,-0.732 12.51,-0.526 13.06,-0.389C13.175,-0.36 13.296,-0.279 13.4,-0.298C13.524,-0.32 13.686,-0.397 13.739,-0.498C14.041,-1.075 13.904,-1.28 13.243,-1.273C13.125,-1.272 13.004,-1.234 12.889,-1.248C12.817,-1.256 12.708,-1.322 12.698,-1.378C12.685,-1.448 12.732,-1.565 12.792,-1.607C13.292,-1.959 14.676,-1.829 15.159,-1.375C15.248,-1.291 15.26,-1.127 15.308,-1C15.179,-0.969 15.047,-0.903 14.923,-0.916C14.766,-0.932 14.572,-1.164 14.472,-0.913C14.343,-0.588 14.234,-0.227 14.248,0.114C14.254,0.276 14.563,0.426 14.735,0.58C14.935,0.757 15.145,0.924 15.333,1.112C15.683,1.464 16.021,1.829 16.329,2.151C16.715,1.898 17.078,1.699 17.396,1.445C18.114,0.87 18.822,0.281 19.507,-0.332C19.697,-0.502 19.827,-0.766 19.917,-1.011C19.98,-1.182 19.928,-1.395 19.928,-1.59C19.758,-1.568 19.576,-1.577 19.42,-1.518C19.144,-1.412 18.89,-1.247 18.613,-1.144C18.532,-1.113 18.364,-1.177 18.309,-1.251C18.255,-1.324 18.25,-1.498 18.301,-1.572C18.418,-1.74 18.595,-1.865 18.729,-2.023C19.205,-2.592 19.679,-3.163 20.14,-3.745C20.248,-3.88 20.326,-4.053 20.369,-4.221C20.415,-4.399 20.292,-4.541 20.123,-4.453C19.73,-4.25 19.354,-4.011 18.986,-3.766C18.765,-3.619 18.583,-3.407 18.354,-3.277C18.257,-3.221 18.035,-3.25 17.96,-3.328C17.893,-3.398 17.894,-3.626 17.959,-3.716C18.113,-3.931 18.322,-4.107 18.51,-4.298C19.17,-4.967 19.805,-6.28 19.866,-7.183C19.518,-6.99 19.196,-6.841 18.906,-6.645C18.016,-6.047 17.134,-5.437 16.26,-4.816C15.979,-4.616 15.659,-4.425 15.363,-4.593C15.034,-4.78 15.264,-5.129 15.331,-5.402C15.675,-6.821 16.061,-8.232 16.365,-9.659C16.493,-10.26 16.518,-10.9 16.479,-11.515C16.439,-12.148 16.164,-12.337 15.582,-12.133C14.829,-11.868 14.04,-11.603 13.395,-11.154C12.347,-10.425 11.356,-9.591 10.595,-8.543C10.288,-8.12 9.94,-8.005 9.44,-8.097C9.066,-8.167 8.67,-8.167 8.29,-8.132C8.005,-8.106 7.667,-7.621 7.465,-8.06C7.295,-8.429 7.855,-8.49 8.06,-8.716C8.476,-9.177 8.897,-9.634 9.29,-10.114C9.353,-10.191 9.303,-10.389 9.255,-10.511C9.242,-10.544 9.015,-10.543 8.931,-10.489C8.484,-10.198 8.059,-9.873 7.607,-9.591C7.481,-9.512 7.29,-9.539 7.129,-9.518C7.126,-9.682 7.072,-9.87 7.133,-10.005C7.216,-10.187 7.389,-10.329 7.521,-10.49C7.883,-10.926 8.258,-11.352 8.597,-11.804C8.727,-11.979 8.775,-12.215 8.86,-12.423C8.644,-12.39 8.399,-12.411 8.216,-12.315C7.441,-11.907 6.746,-11.375 6.308,-10.608C5.867,-9.837 5.504,-9.021 5.129,-8.215C5.034,-8.01 4.975,-7.829 4.7,-7.88C3.909,-8.027 3.246,-7.686 2.589,-7.323C0.328,-6.073 -1.23,-4.216 -2.101,-1.795C-2.272,-1.32 -2.517,-1.18 -3,-1.13C-3.854,-1.041 -4.704,-0.865 -5.543,-0.675C-5.925,-0.589 -6.312,-0.429 -6.615,-0.03C-6.375,0.077 -6.225,0.177 -6.06,0.211C-5.45,0.339 -4.833,0.436 -4.223,0.564C-4.062,0.597 -3.817,0.663 -3.779,0.773C-3.688,1.034 -3.963,1.095 -4.14,1.191C-4.297,1.276 -4.47,1.337 -4.613,1.44C-4.767,1.551 -4.895,1.698 -5.053,1.847C-4.205,2.271 -3.436,2.467 -2.518,2.541C-2.366,2.554 -2.223,2.671 -2.076,2.739C-2.167,2.87 -2.229,3.052 -2.354,3.12C-2.687,3.3 -3.075,3.393 -3.27,3.815M19.913,-2.361C20.719,-1.87 20.706,-1.873 20.517,-1.042C20.414,-0.592 20.242,-0.178 19.897,0.121C19.158,0.763 18.416,1.406 17.627,1.985C17.331,2.202 17.07,2.397 16.904,2.731C15.634,5.283 13.373,6.415 10.731,6.929C8.938,7.278 7.117,7.239 5.308,7.015C4.778,6.949 4.251,6.815 3.741,6.656C2.578,6.294 1.372,6.01 0.287,5.481C-0.613,5.042 -1.466,4.649 -2.48,4.709C-2.597,4.715 -2.717,4.685 -2.833,4.659C-3.91,4.417 -4.093,4.012 -3.511,2.961C-3.887,2.847 -4.246,2.74 -4.604,2.63C-4.774,2.577 -4.949,2.533 -5.112,2.461C-5.729,2.186 -5.792,1.937 -5.392,1.369C-5.327,1.277 -5.245,1.197 -5.089,1.017C-5.51,0.914 -5.851,0.831 -6.191,0.746C-6.307,0.717 -6.424,0.694 -6.536,0.652C-6.872,0.525 -7.253,0.404 -7.288,-0.017C-7.319,-0.396 -6.993,-0.611 -6.708,-0.742C-6.117,-1.012 -5.508,-1.258 -4.884,-1.435C-4.373,-1.58 -3.831,-1.631 -3.298,-1.687C-2.91,-1.728 -2.599,-1.814 -2.538,-2.267C-2.526,-2.353 -2.485,-2.443 -2.433,-2.512C-1.602,-3.599 -1.729,-4.789 -2.063,-5.996C-2.319,-6.922 -2.401,-7.864 -2.428,-8.821C-2.461,-9.986 -2.165,-11.06 -1.668,-12.092C-1.124,-13.222 -0.134,-13.497 0.785,-12.633C1.709,-11.764 2.743,-10.978 3.389,-9.834C3.676,-9.326 3.968,-8.802 4.488,-8.345C4.602,-8.54 4.686,-8.677 4.764,-8.817C5.223,-9.648 5.635,-10.509 6.151,-11.302C6.649,-12.067 7.409,-12.562 8.245,-12.919C8.461,-13.011 8.7,-13.075 8.932,-13.094C9.328,-13.126 9.582,-12.877 9.49,-12.49C9.388,-12.067 9.183,-11.669 8.998,-11.196C9.137,-11.182 9.307,-11.191 9.46,-11.145C9.863,-11.024 10.021,-10.821 9.922,-10.416C9.834,-10.05 9.666,-9.696 9.484,-9.363C9.359,-9.134 9.151,-8.951 8.979,-8.744C9.621,-8.351 9.75,-8.356 10.144,-8.87C10.931,-9.897 11.927,-10.703 12.923,-11.507C13.679,-12.117 14.585,-12.436 15.509,-12.681C16.268,-12.884 16.834,-12.562 16.979,-11.802C17.083,-11.258 17.125,-10.67 17.039,-10.127C16.848,-8.923 16.56,-7.734 16.309,-6.54C16.245,-6.231 16.171,-5.925 16.055,-5.408C16.654,-5.807 17.063,-6.094 17.487,-6.358C18.144,-6.767 18.805,-7.168 19.475,-7.554C19.65,-7.656 19.86,-7.722 20.062,-7.749C20.37,-7.789 20.597,-7.574 20.538,-7.266C20.46,-6.861 20.316,-6.467 20.189,-6.071C20.125,-5.874 20.026,-5.688 19.958,-5.492C19.889,-5.298 19.926,-5.146 20.161,-5.096C20.472,-5.031 20.919,-5.082 20.98,-4.703C21.033,-4.381 20.884,-4.01 20.766,-3.681C20.677,-3.434 20.5,-3.218 20.354,-2.993C20.226,-2.796 20.085,-2.607 19.913,-2.361" style="fill:rgb(35,31,32);fill-rule:nonzero;"/>
            </g>
            <g transform="matrix(4.16667,0,0,4.16667,925.96,944.372)">
                <path d="M0,-5.747C-0.019,-5.675 -0.037,-5.603 -0.056,-5.531C0.275,-5.418 0.61,-5.311 0.937,-5.189C1.272,-5.064 1.595,-4.907 1.934,-4.8C2.053,-4.763 2.205,-4.833 2.342,-4.855C2.285,-4.974 2.259,-5.153 2.165,-5.202C1.486,-5.557 0.768,-5.774 0,-5.747M-2.914,-5.705C-2.95,-5.781 -2.968,-5.88 -3.027,-5.924C-3.086,-5.969 -3.204,-5.997 -3.266,-5.968C-3.849,-5.705 -4.277,-5.278 -4.523,-4.688C-4.557,-4.608 -4.508,-4.436 -4.44,-4.391C-4.377,-4.349 -4.206,-4.38 -4.14,-4.442C-3.777,-4.779 -3.432,-5.135 -3.083,-5.487C-3.023,-5.549 -2.977,-5.624 -2.914,-5.705M-1.626,-3.173C-1.565,-3.423 -1.494,-3.548 -1.518,-3.65C-1.562,-3.833 -1.621,-4.094 -1.751,-4.154C-1.884,-4.215 -2.165,-4.13 -2.285,-4.013C-2.619,-3.686 -2.75,-3.263 -2.626,-2.796C-2.529,-2.432 -2.203,-2.339 -1.97,-2.619C-1.804,-2.819 -1.692,-3.063 -1.626,-3.173M0.53,-3.01C0.503,-3.21 0.511,-3.515 0.411,-3.778C0.35,-3.937 0.139,-4.098 -0.035,-4.142C-0.309,-4.211 -0.469,-3.996 -0.545,-3.751C-0.607,-3.554 -0.666,-3.349 -0.678,-3.143C-0.7,-2.757 -0.479,-2.448 -0.173,-2.407C0.21,-2.355 0.328,-2.654 0.53,-3.01M6.759,-6.624C6.763,-6.623 6.767,-6.622 6.771,-6.622C6.863,-6.996 6.972,-7.367 7.042,-7.745C7.112,-8.122 7.186,-8.507 7.18,-8.888C7.169,-9.563 6.753,-9.838 6.105,-9.628C5.912,-9.565 5.709,-9.473 5.562,-9.339C4.645,-8.5 3.734,-7.654 2.841,-6.79C2.59,-6.549 2.663,-6.324 3.009,-6.197C4.012,-5.831 5.013,-5.467 5.886,-4.828C6.098,-4.672 6.282,-4.71 6.354,-4.985C6.495,-5.53 6.625,-6.078 6.759,-6.624M-11.68,5.044C-11.485,4.622 -11.097,4.528 -10.765,4.349C-10.64,4.281 -10.577,4.099 -10.486,3.968C-10.633,3.899 -10.776,3.783 -10.928,3.77C-11.846,3.695 -12.615,3.5 -13.463,3.076C-13.305,2.927 -13.177,2.779 -13.023,2.669C-12.88,2.566 -12.707,2.504 -12.55,2.42C-12.374,2.324 -12.099,2.263 -12.189,2.002C-12.228,1.892 -12.472,1.826 -12.633,1.793C-13.244,1.665 -13.86,1.567 -14.47,1.44C-14.635,1.406 -14.786,1.306 -15.025,1.199C-14.722,0.799 -14.335,0.64 -13.954,0.554C-13.114,0.363 -12.265,0.188 -11.41,0.099C-10.927,0.049 -10.683,-0.091 -10.511,-0.566C-9.64,-2.987 -8.082,-4.844 -5.821,-6.094C-5.165,-6.457 -4.501,-6.798 -3.71,-6.651C-3.435,-6.6 -3.376,-6.781 -3.281,-6.986C-2.906,-7.792 -2.543,-8.608 -2.103,-9.379C-1.665,-10.146 -0.969,-10.678 -0.194,-11.086C-0.011,-11.183 0.234,-11.162 0.45,-11.194C0.365,-10.986 0.317,-10.75 0.187,-10.576C-0.152,-10.123 -0.527,-9.697 -0.889,-9.261C-1.021,-9.101 -1.194,-8.958 -1.277,-8.776C-1.338,-8.641 -1.284,-8.454 -1.281,-8.289C-1.12,-8.31 -0.929,-8.283 -0.803,-8.362C-0.351,-8.644 0.074,-8.97 0.521,-9.26C0.605,-9.314 0.832,-9.315 0.845,-9.283C0.893,-9.16 0.943,-8.962 0.879,-8.885C0.487,-8.405 0.065,-7.948 -0.351,-7.487C-0.555,-7.261 -1.115,-7.201 -0.945,-6.831C-0.744,-6.392 -0.405,-6.877 -0.121,-6.903C0.26,-6.938 0.656,-6.938 1.03,-6.869C1.53,-6.776 1.877,-6.892 2.185,-7.314C2.946,-8.362 3.937,-9.196 4.984,-9.925C5.63,-10.374 6.418,-10.639 7.172,-10.904C7.753,-11.108 8.029,-10.919 8.069,-10.286C8.108,-9.671 8.083,-9.031 7.955,-8.43C7.65,-7.003 7.265,-5.592 6.92,-4.173C6.854,-3.9 6.624,-3.551 6.953,-3.364C7.249,-3.196 7.569,-3.388 7.85,-3.587C8.724,-4.208 9.606,-4.818 10.496,-5.416C10.786,-5.612 11.108,-5.761 11.456,-5.954C11.395,-5.051 10.76,-3.738 10.1,-3.069C9.912,-2.878 9.703,-2.703 9.549,-2.487C9.484,-2.397 9.482,-2.169 9.55,-2.099C9.625,-2.021 9.847,-1.992 9.944,-2.048C10.173,-2.179 10.354,-2.391 10.576,-2.538C10.944,-2.783 11.32,-3.021 11.712,-3.225C11.881,-3.312 12.004,-3.17 11.958,-2.993C11.916,-2.825 11.837,-2.651 11.73,-2.516C11.269,-1.934 10.795,-1.363 10.318,-0.794C10.185,-0.636 10.008,-0.511 9.891,-0.343C9.839,-0.269 9.845,-0.096 9.899,-0.022C9.954,0.052 10.122,0.116 10.203,0.085C10.48,-0.018 10.734,-0.183 11.01,-0.289C11.166,-0.349 11.348,-0.339 11.518,-0.361C11.518,-0.166 11.57,0.046 11.507,0.217C11.417,0.463 11.287,0.727 11.097,0.897C10.412,1.51 9.704,2.099 8.985,2.673C8.667,2.928 8.305,3.127 7.918,3.38C7.611,3.058 7.273,2.693 6.922,2.341C6.734,2.152 6.524,1.986 6.325,1.809C6.152,1.654 5.844,1.504 5.837,1.343C5.824,1.002 5.933,0.641 6.062,0.315C6.162,0.065 6.356,0.297 6.513,0.313C6.637,0.326 6.769,0.26 6.897,0.229C6.85,0.102 6.837,-0.062 6.749,-0.146C6.266,-0.6 4.881,-0.73 4.382,-0.378C4.322,-0.336 4.274,-0.219 4.288,-0.149C4.298,-0.093 4.407,-0.027 4.479,-0.019C4.594,-0.005 4.714,-0.043 4.833,-0.044C5.494,-0.051 5.631,0.153 5.329,0.731C5.275,0.832 5.114,0.909 4.99,0.931C4.886,0.95 4.765,0.869 4.649,0.84C4.1,0.703 3.556,0.497 2.998,0.449C2.028,0.365 1.234,0.054 0.465,-0.599C-0.315,-1.261 -1.327,-1.521 -2.394,-1.162C-2.923,-0.983 -3.382,-0.719 -3.628,-0.205C-3.813,0.183 -4.086,0.335 -4.504,0.439C-5.101,0.588 -5.688,0.835 -6.228,1.133C-6.667,1.376 -6.744,1.42 -7.022,0.871C-7.223,0.477 -7.175,0.34 -6.778,0.19C-6.557,0.106 -6.313,0.078 -6.093,-0.009C-6.012,-0.041 -5.908,-0.19 -5.926,-0.255C-5.95,-0.344 -6.08,-0.465 -6.167,-0.467C-7.331,-0.492 -8.533,0.27 -8.639,1.487C-8.647,1.581 -8.556,1.683 -8.511,1.78C-8.413,1.732 -8.27,1.711 -8.224,1.631C-8.064,1.36 -7.938,1.069 -7.743,0.67C-7.561,0.946 -7.464,1.112 -7.349,1.264C-7.084,1.611 -7.143,1.887 -7.457,2.187C-8.229,2.922 -8.76,3.796 -8.977,4.862C-9.095,5.447 -9.138,5.438 -9.77,5.431C-10.421,5.422 -11.072,5.413 -11.68,5.044" style="fill:rgb(248,156,62);fill-rule:nonzero;"/>
            </g>
            <g transform="matrix(4.16667,0,0,4.16667,906.022,955.499)">
                <path d="M0,4.586C-0.987,4.26 -1.975,3.939 -2.958,3.602C-3.152,3.536 -3.324,3.406 -3.51,3.315C-3.858,3.143 -3.933,2.889 -3.859,2.507C-3.653,1.441 -3.099,0.584 -2.357,-0.176C-2.181,-0.357 -2.026,-0.392 -1.837,-0.183C-1.132,0.599 -0.25,1.148 0.624,1.718C2.455,2.912 4.411,3.251 6.505,2.651C8.085,2.198 9.326,1.283 10.084,-0.217C10.248,-0.54 10.449,-0.626 10.705,-0.383C11.241,0.126 11.747,0.67 12.213,1.243C12.466,1.552 12.376,1.892 12.084,2.201C10.798,3.554 9.269,4.483 7.434,4.853C5.85,5.171 4.236,5.212 2.636,5.073C1.758,4.996 0.902,4.672 0.036,4.46L0,4.586" style="fill:rgb(255,225,158);fill-rule:nonzero;"/>
            </g>
            <g transform="matrix(4.16667,0,0,4.16667,917.112,948.94)">
                <path d="M0,3.752C-1.298,3.316 -2.759,2.374 -4.055,1.162C-4.252,0.977 -4.325,0.748 -4.069,0.556C-3.516,0.143 -2.917,-0.18 -2.225,-0.299C-1.952,-0.346 -1.858,-0.229 -1.84,0.036C-1.729,1.623 -0.377,2.343 0.846,2.612C1.833,2.83 2.678,2.376 3.127,1.46C3.335,1.037 3.474,0.578 3.617,0.126C3.691,-0.105 3.796,-0.252 4.051,-0.204C4.868,-0.05 5.693,0.074 6.494,0.288C7.051,0.436 7.121,0.691 6.878,1.235C6.794,1.423 6.685,1.607 6.555,1.766C5.659,2.856 4.577,3.63 3.139,3.854C1.719,4.074 1.373,4.098 0,3.752" style="fill:rgb(255,225,158);fill-rule:nonzero;"/>
            </g>
            <g transform="matrix(4.16667,0,0,4.16667,905.975,910.931)">
                <path d="M0,0.92C-0.042,0.961 -0.06,0.991 -0.085,1.001C-0.443,1.135 -0.831,1.415 -1.151,1.352C-1.396,1.304 -1.546,0.815 -1.756,0.535C-2.256,-0.132 -2.755,-0.799 -3.277,-1.448C-3.591,-1.837 -4.064,-1.768 -4.273,-1.295C-4.403,-1 -4.479,-0.669 -4.517,-0.348C-4.639,0.667 -4.597,1.669 -4.266,2.651C-3.944,3.609 -3.958,3.614 -4.876,4.369C-5.35,2.287 -5.875,0.248 -5.126,-1.852C-5.026,-2.131 -4.918,-2.411 -4.781,-2.672C-4.436,-3.331 -4.049,-3.449 -3.4,-3.111C-3.296,-3.056 -3.189,-2.992 -3.107,-2.909C-1.961,-1.746 -0.723,-0.658 0,0.92" style="fill:rgb(248,156,62);fill-rule:nonzero;"/>
            </g>
            <g transform="matrix(4.16667,0,0,4.16667,929.02,947.84)">
                <path d="M0,0.728C-0.295,1.777 -0.944,2.346 -1.812,2.198C-2.904,2.012 -3.949,1.371 -4.016,0.22C-4.035,-0.113 -3.933,-0.494 -3.77,-0.788C-3.474,-1.319 -2.963,-1.618 -2.353,-1.502C-1.779,-1.394 -1.197,-1.222 -0.677,-0.962C0.118,-0.567 0.245,-0.146 0,0.728" style="fill:rgb(117,76,40);fill-rule:nonzero;"/>
            </g>
            <g transform="matrix(4.16667,0,0,4.16667,890.918,907.522)">
                <path d="M0,3.854C-0.319,2.523 -0.575,1.331 -0.09,0C0.083,0.16 0.219,0.25 0.309,0.375C0.76,0.999 1.202,1.631 1.643,2.263C1.778,2.457 1.802,2.619 1.556,2.777C1.082,3.081 0.627,3.417 0,3.854" style="fill:rgb(249,185,172);fill-rule:nonzero;"/>
            </g>
            <g transform="matrix(4.16667,0,0,4.16667,939.784,911.42)">
                <path d="M0,1.306C0.753,1.602 1.381,1.856 2.015,2.097C2.585,2.313 2.646,2.293 2.793,1.669C2.957,0.978 3.092,0.28 3.204,-0.422C3.246,-0.688 3.494,-1.069 3.158,-1.211C2.973,-1.289 2.591,-1.08 2.386,-0.9C1.587,-0.2 0.823,0.539 0,1.306M3.441,1.284C3.307,1.831 3.177,2.379 3.036,2.924C2.964,3.199 2.78,3.236 2.568,3.08C1.695,2.441 0.694,2.077 -0.309,1.711C-0.655,1.585 -0.728,1.36 -0.477,1.118C0.416,0.254 1.327,-0.591 2.245,-1.43C2.392,-1.565 2.594,-1.657 2.787,-1.719C3.436,-1.93 3.852,-1.655 3.862,-0.979C3.868,-0.599 3.794,-0.214 3.724,0.163C3.654,0.542 3.545,0.913 3.454,1.287C3.449,1.286 3.445,1.285 3.441,1.284" style="fill:rgb(35,31,32);fill-rule:nonzero;"/>
            </g>
            <g transform="matrix(4.16667,0,0,4.16667,928.167,929.555)">
                <path d="M0,0.546C-0.202,0.902 -0.32,1.201 -0.703,1.15C-1.009,1.108 -1.23,0.799 -1.208,0.413C-1.195,0.208 -1.137,0.002 -1.075,-0.195C-0.999,-0.439 -0.838,-0.655 -0.564,-0.586C-0.391,-0.542 -0.18,-0.381 -0.119,-0.222C-0.019,0.042 -0.026,0.346 0,0.546" style="fill:rgb(35,31,32);fill-rule:nonzero;"/>
            </g>
            <g transform="matrix(4.16667,0,0,4.16667,919.183,930.286)">
                <path d="M0,0.208C-0.066,0.317 -0.178,0.562 -0.343,0.762C-0.576,1.042 -0.902,0.949 -1,0.584C-1.124,0.118 -0.992,-0.305 -0.659,-0.632C-0.538,-0.75 -0.257,-0.834 -0.125,-0.773C0.006,-0.713 0.065,-0.453 0.108,-0.269C0.133,-0.167 0.062,-0.042 0,0.208" style="fill:rgb(35,31,32);fill-rule:nonzero;"/>
            </g>
            <g transform="matrix(4.16667,0,0,4.16667,913.818,925.041)">
                <path d="M0,-1.066C-0.062,-0.985 -0.109,-0.909 -0.169,-0.848C-0.518,-0.495 -0.863,-0.14 -1.226,0.198C-1.292,0.259 -1.463,0.291 -1.526,0.248C-1.594,0.203 -1.643,0.031 -1.609,-0.048C-1.363,-0.639 -0.935,-1.065 -0.352,-1.328C-0.29,-1.357 -0.172,-1.33 -0.113,-1.285C-0.054,-1.24 -0.036,-1.142 0,-1.066" style="fill:rgb(35,31,32);fill-rule:nonzero;"/>
            </g>
            <g transform="matrix(4.16667,0,0,4.16667,925.96,924.414)">
                <path d="M0,-0.957C0.768,-0.984 1.486,-0.767 2.165,-0.412C2.259,-0.363 2.285,-0.184 2.342,-0.065C2.205,-0.043 2.053,0.027 1.934,-0.01C1.595,-0.117 1.272,-0.274 0.937,-0.399C0.61,-0.521 0.275,-0.628 -0.056,-0.741C-0.037,-0.813 -0.019,-0.885 0,-0.957" style="fill:rgb(35,31,32);fill-rule:nonzero;"/>
            </g>
            <g transform="matrix(4.16667,0,0,4.16667,939.784,910.245)">
                <path d="M0,1.588C0.823,0.821 1.587,0.082 2.386,-0.618C2.591,-0.798 2.973,-1.007 3.158,-0.929C3.494,-0.787 3.246,-0.406 3.204,-0.14C3.092,0.562 2.957,1.26 2.793,1.951C2.646,2.575 2.585,2.595 2.015,2.379C1.381,2.138 0.753,1.884 0,1.588" style="fill:rgb(249,185,172);fill-rule:nonzero;"/>
            </g>
            <g transform="matrix(4.16667,0,0,4.16667,1095.84,836.507)">
                <path d="M0,40.439C-0.481,40.585 -0.727,40.693 -0.982,40.731C-1.732,40.837 -2.486,40.908 -3.237,41.01C-3.614,41.061 -4.176,41.017 -4.091,41.581C-4.023,42.036 -3.534,41.904 -3.182,41.855C-1.202,41.579 0.787,41.457 2.787,41.505C3.224,41.516 3.676,41.521 4.098,41.426C7.699,40.617 11.369,40.49 15.033,40.271C18.376,40.069 21.718,39.816 25.058,39.558C25.944,39.489 26.587,39.138 26.875,38.136C27.122,37.273 27.672,36.497 28.091,35.683C28.188,35.494 28.297,35.311 28.466,35.008C28.129,35.008 27.936,34.994 27.744,35.011C25.56,35.201 23.376,35.397 21.191,35.59C20.476,35.653 19.752,35.662 19.045,35.779C15.587,36.354 12.127,36.921 8.68,37.56C5.222,38.201 1.743,38.597 -1.771,38.696C-2.088,38.705 -2.41,38.737 -2.72,38.804C-3.189,38.906 -3.424,39.216 -3.499,39.76C-2.811,39.639 -2.227,39.527 -1.64,39.437C-1.009,39.338 -0.375,39.261 0.256,39.172C0.988,39.068 1.169,39.083 2.164,39.403C0.98,39.564 0.041,39.668 -0.891,39.824C-1.821,39.979 -2.785,40.014 -3.656,40.447C-2.514,40.537 -1.398,40.05 0,40.439M-5.095,41.785C-4.954,41.532 -4.899,41.468 -4.881,41.395C-4.584,40.196 -4.348,38.977 -3.35,38.092C-3.208,37.966 -3.154,37.645 -3.186,37.433C-3.35,36.333 -3.517,35.23 -3.754,34.144C-4.17,32.239 -4.697,30.356 -5.07,28.444C-5.75,24.966 -6.365,21.476 -6.979,17.986C-7.491,15.083 -8.023,12.182 -7.953,9.211C-7.937,8.541 -8.093,7.868 -8.146,7.194C-8.25,5.886 -8.343,4.577 -8.428,3.267C-8.449,2.95 -8.408,2.629 -8.417,2.31C-8.436,1.719 -8.694,1.519 -9.252,1.718C-10.013,1.989 -10.437,2.566 -10.746,3.314C-11.644,5.492 -11.388,7.786 -11.312,10.009C-11.226,12.503 -10.724,14.985 -10.379,17.469C-9.986,20.308 -9.632,23.154 -9.141,25.976C-8.691,28.562 -8.142,31.134 -7.524,33.686C-6.934,36.119 -6.204,38.519 -5.521,40.929C-5.45,41.181 -5.287,41.406 -5.095,41.785M-7.738,3.597C-7.762,3.599 -7.786,3.602 -7.811,3.605L-7.526,6.215C-7.408,7.284 -7.269,8.352 -7.177,9.423C-7.052,10.893 -7.04,12.376 -6.841,13.834C-6.562,15.887 -6.18,17.926 -5.802,19.964C-5.098,23.766 -4.385,27.565 -3.632,31.357C-3.338,32.84 -2.909,34.296 -2.577,35.773C-2.455,36.315 -2.446,36.881 -2.371,37.435C-2.314,37.852 -2.064,38.07 -1.638,38.063C-1.438,38.06 -1.239,38.045 -1.041,38.026C1.817,37.759 4.673,37.497 7.498,36.945C10.588,36.342 13.696,35.835 16.793,35.266C18.677,34.92 20.558,34.611 22.48,34.526C24.231,34.449 25.977,34.229 27.722,34.038C28.393,33.964 29.055,33.803 29.719,33.669C30.051,33.602 30.168,33.386 30.104,33.051C29.763,31.292 29.478,29.521 29.079,27.775C28.626,25.795 27.945,23.86 27.59,21.866C26.808,17.474 26.168,13.056 25.469,8.649C25.194,6.918 24.955,5.178 24.624,3.457C24.354,2.049 23.984,0.66 23.636,-0.732C23.506,-1.253 23.191,-1.521 22.59,-1.465C21.08,-1.325 19.564,-1.241 18.051,-1.125C15.346,-0.918 12.643,-0.69 9.937,-0.498C8.105,-0.368 6.27,-0.297 4.438,-0.174C3.722,-0.126 3.008,-0.024 2.297,0.078C-0.386,0.466 -3.069,0.859 -5.75,1.261C-6.375,1.355 -6.993,1.488 -7.615,1.604C-7.656,2.228 -7.697,2.852 -7.737,3.477C-7.74,3.517 -7.738,3.557 -7.738,3.597M-12.145,7.719C-12.075,6.101 -11.882,4.53 -11.314,3.008C-10.847,1.752 -9.958,1.084 -8.642,0.968C-7.016,0.825 -5.39,0.657 -3.774,0.429C-1.13,0.054 1.5,-0.421 4.148,-0.771C5.728,-0.98 7.329,-1.037 8.92,-1.153C12.063,-1.384 15.206,-1.61 18.348,-1.835C19.782,-1.938 21.217,-2.013 22.648,-2.146C23.413,-2.218 23.897,-1.909 24.102,-1.213C24.541,0.277 25.042,1.759 25.327,3.28C25.813,5.863 26.138,8.476 26.561,11.071C26.759,12.29 27.046,13.494 27.259,14.71C27.746,17.498 28.142,20.302 28.71,23.072C29.101,24.981 29.777,26.831 30.216,28.731C30.584,30.32 30.81,31.943 31.065,33.556C31.167,34.195 31.046,34.275 30.365,34.558C30.048,34.69 29.733,34.892 29.494,35.136C28.5,36.155 27.793,37.363 27.435,38.736C27.235,39.505 26.771,39.877 26.058,40.039C25.708,40.118 25.357,40.218 25.003,40.242C20.345,40.556 15.683,40.811 11.03,41.182C8.768,41.362 6.523,41.751 4.271,42.048C3.956,42.089 3.643,42.168 3.327,42.183C0.976,42.293 -1.375,42.391 -3.726,42.493C-3.925,42.502 -4.125,42.501 -4.324,42.523C-5.5,42.657 -5.929,42.423 -6.272,41.313C-6.743,39.791 -7.166,38.254 -7.596,36.721C-7.887,35.685 -8.197,34.653 -8.428,33.603C-8.932,31.308 -9.442,29.012 -9.854,26.7C-10.281,24.308 -10.638,21.901 -10.945,19.492C-11.274,16.922 -11.517,14.341 -11.782,11.764C-11.92,10.418 -12.025,9.068 -12.145,7.719" style="fill:rgb(35,31,32);fill-rule:nonzero;"/>
            </g>
            <g transform="matrix(4.16667,0,0,4.16667,1063.6,973.81)">
                <path d="M0,-29.356C0,-29.396 -0.002,-29.436 0,-29.476C0.041,-30.101 0.082,-30.725 0.123,-31.349C0.745,-31.464 1.363,-31.598 1.988,-31.691C4.669,-32.093 7.352,-32.487 10.035,-32.875C10.746,-32.977 11.459,-33.079 12.176,-33.127C14.008,-33.25 15.843,-33.321 17.674,-33.451C20.38,-33.643 23.084,-33.871 25.789,-34.078C27.302,-34.193 28.817,-34.277 30.328,-34.418C30.929,-34.474 31.244,-34.206 31.374,-33.685C31.722,-32.293 32.092,-30.904 32.362,-29.496C32.692,-27.774 32.932,-26.035 33.207,-24.303C33.906,-19.897 34.545,-15.479 35.328,-11.087C35.683,-9.092 36.364,-7.158 36.816,-5.178C37.216,-3.432 37.501,-1.661 37.842,0.098C37.906,0.434 37.789,0.649 37.457,0.717C36.792,0.851 36.13,1.012 35.459,1.085C33.715,1.276 31.969,1.496 30.218,1.573C28.295,1.658 26.415,1.967 24.531,2.313C21.434,2.883 18.326,3.389 15.236,3.993C12.411,4.544 9.555,4.806 6.697,5.074C6.499,5.092 6.299,5.107 6.1,5.11C5.674,5.118 5.423,4.899 5.367,4.482C5.292,3.929 5.283,3.362 5.161,2.82C4.829,1.344 4.4,-0.112 4.105,-1.595C3.353,-5.387 2.64,-9.187 1.936,-12.988C1.558,-15.026 1.175,-17.066 0.896,-19.119C0.698,-20.577 0.686,-22.06 0.561,-23.529C0.469,-24.601 0.33,-25.668 0.212,-26.738L-0.073,-29.348C-0.048,-29.351 -0.024,-29.354 0,-29.356" style="fill:rgb(0,193,243);fill-rule:nonzero;"/>
            </g>
            <g transform="matrix(4.16667,0,0,4.16667,1074.61,842.835)">
                <path d="M0,40.266C-0.192,39.888 -0.355,39.662 -0.426,39.411C-1.109,37 -1.839,34.6 -2.429,32.167C-3.047,29.616 -3.596,27.043 -4.046,24.457C-4.537,21.635 -4.892,18.789 -5.285,15.951C-5.629,13.466 -6.131,10.985 -6.217,8.49C-6.293,6.267 -6.549,3.974 -5.651,1.796C-5.342,1.047 -4.918,0.471 -4.158,0.199C-3.6,0 -3.341,0.2 -3.323,0.791C-3.313,1.11 -3.354,1.431 -3.333,1.748C-3.249,3.058 -3.156,4.367 -3.052,5.675C-2.998,6.349 -2.842,7.022 -2.858,7.692C-2.928,10.663 -2.396,13.564 -1.885,16.467C-1.27,19.957 -0.655,23.448 0.024,26.925C0.398,28.838 0.925,30.72 1.341,32.625C1.578,33.711 1.745,34.814 1.909,35.914C1.941,36.126 1.887,36.447 1.745,36.573C0.747,37.458 0.511,38.677 0.214,39.876C0.196,39.949 0.141,40.013 0,40.266" style="fill:rgb(241,90,41);fill-rule:nonzero;"/>
            </g>
            <g transform="matrix(4.16667,0,0,4.16667,1095.84,988.97)">
                <path d="M0,3.848C-1.398,3.459 -2.514,3.946 -3.656,3.856C-2.785,3.423 -1.821,3.388 -0.891,3.233C0.041,3.077 0.98,2.973 2.164,2.812C1.169,2.492 0.988,2.477 0.256,2.581C-0.375,2.67 -1.009,2.747 -1.64,2.846C-2.227,2.936 -2.811,3.048 -3.499,3.169C-3.424,2.625 -3.189,2.315 -2.72,2.213C-2.41,2.146 -2.088,2.114 -1.771,2.105C1.743,2.006 5.222,1.61 8.68,0.969C12.127,0.33 15.587,-0.237 19.045,-0.812C19.752,-0.929 20.476,-0.938 21.191,-1.001C23.376,-1.194 25.56,-1.39 27.744,-1.58C27.936,-1.597 28.129,-1.583 28.466,-1.583C28.297,-1.28 28.188,-1.097 28.091,-0.908C27.672,-0.094 27.122,0.682 26.875,1.545C26.587,2.547 25.944,2.898 25.058,2.967C21.718,3.225 18.376,3.478 15.033,3.68C11.369,3.899 7.699,4.026 4.098,4.835C3.676,4.93 3.224,4.925 2.787,4.914C0.787,4.866 -1.202,4.988 -3.182,5.264C-3.534,5.313 -4.023,5.445 -4.091,4.99C-4.176,4.426 -3.614,4.47 -3.237,4.419C-2.486,4.317 -1.732,4.246 -0.982,4.14C-0.727,4.102 -0.481,3.994 0,3.848" style="fill:rgb(255,252,217);fill-rule:nonzero;"/>
            </g>
            <g transform="matrix(4.16667,0,0,4.16667,0,0)">
                <g opacity="0.2">
                    <g transform="matrix(1,0,0,1,285.928,242.619)">
                        <path d="M0,-43.713C-4.976,-42.316 -9.953,-40.919 -14.929,-39.521C-16.667,-39.033 -18.452,-38.522 -19.877,-37.416C-21.177,-36.407 -22.078,-34.978 -22.864,-33.532C-26.419,-26.995 -28.135,-19.471 -27.767,-12.039C-27.635,-9.366 -26.987,-6.321 -24.64,-5.035C-23.098,-4.19 -21.166,-4.334 -19.608,-3.516C-20.934,-3.247 -22.26,-2.977 -23.585,-2.707C-23.903,-2.643 -24.235,-2.571 -24.481,-2.362C-24.721,-2.159 -24.845,-1.856 -25.01,-1.588C-25.702,-0.469 -27.278,0 -28.469,-0.559C-30.627,-8.692 -32.313,-16.65 -33.712,-24.947C-34.276,-28.296 -34.843,-31.673 -34.718,-35.067C-34.669,-36.37 -34.507,-37.708 -33.87,-38.844C-33.233,-39.981 -32.013,-40.618 -30.725,-40.814C-18.778,-42.628 -10.176,-42.933 0,-43.713" style="fill:rgb(59,35,20);fill-rule:nonzero;"/>
                    </g>
                </g>
            </g>
            <g transform="matrix(4.16667,0,0,4.16667,0,0)">
                <clipPath id="_clip2">
                    <path d="M285.592,199.297C284.081,199.437 282.566,199.521 281.054,199.637C278.348,199.844 275.645,200.072 272.938,200.263C271.107,200.394 269.273,200.465 267.439,200.587C266.723,200.635 266.01,200.738 265.299,200.84C262.615,201.227 259.933,201.622 257.251,202.023C256.628,202.116 256.009,202.25 255.387,202.366C255.346,202.989 255.305,203.614 255.264,204.239C255.262,204.278 255.264,204.319 255.264,204.358C255.239,204.361 255.216,204.364 255.191,204.366C255.287,205.237 255.38,206.106 255.476,206.976C255.594,208.046 255.733,209.114 255.824,210.185C255.949,211.655 255.963,213.138 256.161,214.596C256.439,216.649 256.821,218.688 257.199,220.726C257.904,224.527 258.618,228.327 259.369,232.119C259.663,233.602 260.093,235.058 260.426,236.535C260.546,237.077 260.555,237.643 260.631,238.197C260.688,238.613 260.939,238.832 261.364,238.825C261.563,238.822 261.762,238.807 261.96,238.788C264.819,238.521 267.674,238.259 270.499,237.707C273.589,237.104 276.698,236.597 279.795,236.028C281.678,235.682 283.559,235.372 285.482,235.288C287.233,235.21 288.979,234.991 290.723,234.799C291.395,234.726 292.056,234.565 292.72,234.431C293.053,234.364 293.171,234.148 293.106,233.813C292.765,232.053 292.48,230.281 292.081,228.537C291.629,226.557 290.947,224.622 290.592,222.627C289.809,218.236 289.17,213.818 288.471,209.411C288.196,207.679 287.957,205.94 287.626,204.218C287.356,202.81 286.986,201.422 286.638,200.029C286.52,199.554 286.247,199.29 285.743,199.29C285.694,199.29 285.645,199.292 285.592,199.297Z" clip-rule="nonzero"/>
                </clipPath>
                <g clip-path="url(#_clip2)">
                    <g transform="matrix(1,0,0,1,288.792,226.726)">
                        <path d="M0,-6.336C0.498,-5.99 0.779,-5.4 1.393,-5.172C1.392,-6.262 1.385,-6.271 0.469,-6.312C0.312,-6.319 0.156,-6.328 0,-6.336M-10.502,-12.583C-10.217,-12.568 -9.932,-12.558 -9.648,-12.539C-8.862,-12.486 -8.062,-12.511 -7.295,-12.359C-5.545,-12.014 -3.761,-11.744 -2.2,-10.777C-2.109,-10.721 -1.998,-10.698 -1.901,-10.65C-1.282,-10.342 -0.711,-10.39 -0.19,-10.857C-0.729,-12.161 -1.892,-13.205 -2.801,-13.825C-3.43,-14.253 -4.13,-14.473 -4.883,-14.375C-5.822,-14.254 -6.767,-14.124 -7.682,-13.892C-8.676,-13.64 -9.633,-13.253 -10.502,-12.583M-1.814,-7.887C-1.806,-7.819 -1.798,-7.752 -1.79,-7.685C-1.6,-7.587 -1.401,-7.504 -1.222,-7.391C-0.116,-6.686 1.107,-6.679 2.318,-6.905C3.624,-7.149 4.547,-7.947 5.126,-9.16C5.638,-10.23 5.466,-10.59 4.299,-10.698C3.378,-10.784 2.46,-10.779 1.539,-10.65C0.156,-10.458 -1.066,-9.927 -2.126,-9.024C-2.332,-8.849 -2.521,-8.651 -2.699,-8.448C-2.759,-8.379 -2.762,-8.26 -2.791,-8.164C-2.668,-8.146 -2.546,-8.126 -2.423,-8.112C-2.399,-8.109 -2.372,-8.128 -2.347,-8.14C-0.928,-8.824 0.622,-8.969 2.145,-9.227C2.273,-9.248 2.413,-9.242 2.54,-9.212C2.596,-9.199 2.646,-9.1 2.668,-9.03C2.68,-8.996 2.633,-8.912 2.596,-8.898C2.394,-8.825 2.19,-8.749 1.981,-8.71C1.421,-8.604 0.854,-8.537 0.297,-8.416C-0.411,-8.26 -1.111,-8.065 -1.814,-7.887M-14.634,-10.175C-14.604,-10.098 -14.574,-10.022 -14.543,-9.945C-13.955,-9.969 -13.356,-9.933 -12.78,-10.03C-11.487,-10.247 -10.199,-10.307 -8.89,-10.226C-7.144,-10.119 -5.543,-9.593 -4.04,-8.726C-3.899,-8.645 -3.765,-8.527 -3.613,-8.497C-3.479,-8.469 -3.275,-8.489 -3.188,-8.575C-2.715,-9.044 -2.268,-9.541 -1.772,-10.071C-2.873,-10.499 -3.85,-11.128 -5.041,-11.416C-6.691,-11.814 -8.337,-12.058 -10.023,-12.106C-11.955,-12.16 -11.403,-12.32 -13.056,-11.29C-13.601,-10.95 -14.109,-10.548 -14.634,-10.175M-22.844,2.967L-22.843,2.933C-21.813,2.986 -20.783,3.076 -19.753,3.081C-18.615,3.088 -17.477,3.033 -16.34,2.975C-15.475,2.931 -14.609,2.861 -13.749,2.76C-13.404,2.72 -13.063,2.589 -12.741,2.452C-12.476,2.338 -12.343,2.093 -12.341,1.793C-12.338,1.475 -12.521,1.284 -12.796,1.187C-13.023,1.107 -13.264,1.03 -13.501,1.023C-14.123,1.004 -14.746,1.02 -15.369,1.029C-16.319,1.042 -17.271,1.11 -18.219,1.064C-19.179,1.018 -20.149,1.167 -21.101,0.934C-21.178,0.914 -21.263,0.927 -21.345,0.926C-22.619,0.907 -23.894,0.892 -25.168,0.867C-25.629,0.857 -26.09,0.808 -26.552,0.805C-26.976,0.803 -27.212,0.968 -27.318,1.281C-27.464,1.713 -27.276,2.275 -26.851,2.458C-26.458,2.628 -26.032,2.771 -25.61,2.812C-24.692,2.902 -23.767,2.92 -22.844,2.967M-20.637,-4.941C-19.834,-5.496 -19.098,-6.056 -18.31,-6.53C-17.83,-6.818 -17.287,-7.051 -16.742,-7.172C-14.506,-7.666 -12.244,-7.815 -9.949,-7.678C-8.626,-7.599 -7.378,-7.424 -6.214,-6.736C-5.093,-6.074 -3.874,-5.567 -2.788,-4.855C-0.841,-3.577 0.323,-1.851 -0.115,0.623C-0.161,0.881 0.13,1.435 0.388,1.556C0.464,1.591 0.615,1.573 0.674,1.518C0.99,1.224 1.332,0.94 1.582,0.593C1.864,0.2 2.035,-0.271 2.296,-0.682C2.876,-1.596 2.807,-2.476 2.219,-3.349C2.083,-3.551 1.934,-3.746 1.819,-3.96C1.506,-4.537 0.929,-4.831 0.447,-5.213C-0.422,-5.903 -1.332,-6.546 -2.251,-7.17C-2.787,-7.534 -3.389,-7.797 -3.935,-8.147C-6.289,-9.658 -8.878,-10.002 -11.596,-9.729C-12.244,-9.664 -12.889,-9.51 -13.535,-9.509C-14.873,-9.508 -16.18,-9.312 -17.479,-9.037C-18.723,-8.773 -19.858,-8.276 -20.796,-7.395C-20.949,-7.251 -21.17,-7.054 -21.164,-6.89C-21.137,-6.229 -21.223,-5.52 -20.637,-4.941M-9.965,-2.747C-10.063,-2.808 -10.167,-2.851 -10.243,-2.924C-11.013,-3.671 -10.909,-4.332 -9.935,-4.734C-8.951,-5.141 -7.975,-5.071 -7.021,-4.598C-6.422,-4.301 -6.02,-3.843 -5.905,-3.184C-5.795,-2.556 -5.929,-1.993 -6.512,-1.617C-6.75,-1.464 -6.721,-1.271 -6.599,-1.055C-6.292,-0.512 -5.9,-0.352 -5.15,-0.473C-4.703,-0.545 -4.629,-0.491 -4.588,-0.047C-4.573,0.115 -4.609,0.292 -4.552,0.435C-4.499,0.571 -4.369,0.75 -4.248,0.77C-3.719,0.861 -3.212,1.184 -2.636,0.888C-2.409,0.77 -2.108,0.789 -1.839,0.761C-1.542,0.73 -1.24,0.735 -0.947,0.685C-0.843,0.667 -0.687,0.54 -0.676,0.449C-0.595,-0.251 -0.435,-0.983 -0.752,-1.641C-1.298,-2.774 -1.974,-3.826 -3.14,-4.446C-4.362,-5.096 -5.596,-5.728 -6.8,-6.41C-7.704,-6.921 -8.669,-7.099 -9.685,-7.145C-11.615,-7.232 -13.529,-7.11 -15.451,-6.898C-17.259,-6.698 -18.643,-5.756 -19.981,-4.674C-21.112,-3.76 -20.345,-2.54 -19.458,-2.13C-19.376,-2.093 -19.194,-2.101 -19.164,-2.15C-18.983,-2.451 -18.797,-2.758 -18.692,-3.087C-18.659,-3.194 -18.878,-3.371 -18.959,-3.527C-19.002,-3.609 -19.042,-3.759 -19.002,-3.802C-18.946,-3.863 -18.814,-3.862 -18.713,-3.872C-18.663,-3.877 -18.607,-3.85 -18.557,-3.831C-17.523,-3.427 -16.566,-3.686 -15.687,-4.242C-15.071,-4.631 -14.529,-5.135 -13.932,-5.558C-13.515,-5.853 -13.073,-6.12 -12.618,-6.354C-12.356,-6.489 -12.051,-6.517 -11.783,-6.173C-12.007,-6.107 -12.183,-6.054 -12.358,-6.003C-13.073,-5.792 -13.604,-5.344 -13.956,-4.7C-14.298,-4.074 -14.219,-3.713 -13.658,-3.288C-12.998,-2.788 -12.246,-2.482 -11.43,-2.345C-10.932,-2.261 -10.455,-2.316 -9.965,-2.747M-19.815,0.466C-19.502,0.499 -19.317,0.538 -19.132,0.535C-18.02,0.521 -16.909,0.484 -15.797,0.482C-14.847,0.48 -13.896,0.489 -12.948,0.543C-12.402,0.575 -11.907,1.156 -11.865,1.7C-11.819,2.307 -12.096,2.758 -12.671,2.96C-12.978,3.068 -13.295,3.181 -13.615,3.209C-15.019,3.332 -16.425,3.435 -17.832,3.525C-18.562,3.572 -19.295,3.569 -20.026,3.607C-20.406,3.627 -20.484,3.712 -20.475,4.127C-20.455,4.997 -20.078,5.735 -19.388,6.22C-18.82,6.62 -18.164,6.945 -17.5,7.147C-15.966,7.612 -14.4,7.959 -12.779,7.914C-12.183,7.897 -11.587,7.822 -10.992,7.834C-9.778,7.857 -8.621,7.569 -7.475,7.23C-6.632,6.981 -5.881,6.537 -5.232,5.945C-5.018,5.749 -4.822,5.499 -4.708,5.235C-4.473,4.689 -4.267,4.125 -4.11,3.552C-4.024,3.233 -3.854,3.024 -3.607,2.845C-3.163,2.523 -2.653,2.473 -2.129,2.508C-1.709,2.537 -1.451,2.71 -1.533,2.899C-1.651,3.173 -1.906,3.018 -2.104,3.038C-2.158,3.044 -2.213,3.031 -2.267,3.031C-3.084,3.034 -3.316,3.199 -3.567,3.956C-3.735,4.467 -3.514,4.892 -2.975,4.949C-2.579,4.99 -2.152,4.976 -1.773,4.868C-1.012,4.652 -0.493,4.073 0.009,3.496C0.458,2.98 -0.05,2.53 -0.128,2.06C-0.171,1.808 -0.443,1.588 -0.628,1.368C-0.671,1.316 -0.778,1.31 -0.857,1.3C-1.566,1.212 -2.271,1.233 -2.954,1.452C-3.182,1.525 -3.39,1.77 -3.599,1.761C-3.815,1.751 -4.006,1.474 -4.236,1.408C-4.692,1.278 -5.027,1.058 -5.14,0.576C-5.198,0.332 -5.342,0.227 -5.598,0.204C-6.375,0.134 -6.882,-0.303 -7.214,-0.996C-7.496,-1.585 -7.513,-1.577 -6.998,-1.966C-6.28,-2.508 -6.203,-3.22 -6.875,-3.803C-7.74,-4.553 -8.805,-4.673 -9.836,-4.137C-10.196,-3.95 -10.195,-3.583 -9.836,-3.379C-9.687,-3.294 -9.48,-3.314 -9.302,-3.276C-9.158,-3.247 -8.954,-3.25 -8.887,-3.157C-8.741,-2.958 -8.934,-2.823 -9.073,-2.69C-9.783,-2.014 -10.598,-1.645 -11.594,-1.854C-12.965,-2.141 -14.27,-2.538 -14.795,-4.124C-15.687,-3.473 -16.652,-3.065 -17.747,-3.044C-18.046,-3.038 -18.164,-2.845 -18.28,-2.619C-18.663,-1.869 -19.057,-1.125 -19.439,-0.376C-19.561,-0.138 -19.658,0.112 -19.815,0.466M-19.489,-1.511C-19.675,-1.628 -19.834,-1.725 -19.991,-1.824C-20.772,-2.319 -21.194,-3.002 -21.03,-3.948C-20.962,-4.344 -20.987,-4.666 -21.24,-5.012C-21.666,-5.594 -21.569,-6.316 -21.593,-6.984C-21.601,-7.202 -21.36,-7.464 -21.176,-7.647C-20.157,-8.655 -18.894,-9.195 -17.513,-9.491C-17.061,-9.588 -16.608,-9.694 -16.151,-9.743C-15.741,-9.786 -15.464,-9.987 -15.178,-10.264C-14.73,-10.696 -14.226,-11.069 -13.746,-11.467C-13.497,-11.674 -13.251,-11.884 -12.999,-12.086C-12.873,-12.187 -12.747,-12.296 -12.604,-12.363C-11.496,-12.878 -10.395,-13.41 -9.271,-13.888C-7.731,-14.544 -6.127,-14.914 -4.438,-14.885C-3.671,-14.872 -2.996,-14.63 -2.389,-14.189C-1.415,-13.48 -0.55,-12.665 0.051,-11.597C0.417,-10.949 0.438,-10.939 1.138,-11.077C2.189,-11.284 3.244,-11.279 4.303,-11.182C4.545,-11.16 4.79,-11.121 5.023,-11.054C5.833,-10.82 6.082,-10.467 5.849,-9.685C5.574,-8.765 5.134,-7.918 4.336,-7.321C3.721,-6.86 3.061,-6.5 2.284,-6.376C1.792,-6.298 1.783,-6.26 1.851,-5.801C1.963,-5.051 2.113,-4.333 2.585,-3.687C3.345,-2.647 3.345,-1.541 2.768,-0.381C2.327,0.507 1.866,1.358 1.044,1.952C0.771,2.149 0.666,2.393 0.713,2.723C0.812,3.409 0.535,3.94 0.012,4.364C-0.305,4.62 -0.592,4.924 -0.94,5.126C-1.773,5.608 -2.659,5.825 -3.574,5.347C-3.871,5.193 -4.042,5.295 -4.178,5.529C-4.913,6.793 -6.138,7.369 -7.437,7.808C-8.705,8.236 -10.028,8.388 -11.363,8.435C-11.959,8.456 -12.555,8.48 -13.151,8.507C-14.729,8.578 -16.21,8.075 -17.703,7.688C-18.346,7.521 -18.978,7.189 -19.526,6.805C-20.406,6.186 -20.93,5.31 -20.965,4.193C-20.981,3.672 -20.985,3.662 -21.519,3.634C-22.36,3.589 -23.205,3.583 -24.045,3.519C-24.802,3.462 -25.556,3.364 -26.307,3.255C-26.571,3.217 -26.834,3.117 -27.079,3.004C-27.802,2.672 -28.152,1.733 -27.831,1C-27.626,0.532 -27.261,0.278 -26.742,0.291C-26.117,0.307 -25.493,0.348 -24.868,0.363C-23.538,0.395 -22.208,0.413 -20.877,0.449C-20.6,0.456 -20.416,0.375 -20.293,0.116C-20.039,-0.421 -19.767,-0.951 -19.489,-1.511" style="fill:rgb(35,31,32);fill-rule:nonzero;"/>
                    </g>
                    <g transform="matrix(1,0,0,1,276.134,230.834)">
                        <path d="M0,-4.931C0.016,-5.433 -0.092,-5.619 -0.325,-5.676C-0.577,-5.738 -0.863,-5.576 -0.933,-5.27C-0.992,-5.012 -0.997,-4.733 -0.976,-4.468C-0.968,-4.361 -0.838,-4.196 -0.742,-4.179C-0.606,-4.156 -0.384,-4.199 -0.317,-4.295C-0.153,-4.529 -0.056,-4.811 0,-4.931M1.895,-4.902C1.782,-5.096 1.723,-5.337 1.575,-5.422C1.333,-5.561 1.122,-5.394 0.974,-5.175C0.766,-4.866 0.731,-4.52 0.808,-4.173C0.882,-3.84 1.286,-3.73 1.487,-4.006C1.667,-4.254 1.75,-4.572 1.895,-4.902M-0.081,2.211C0.337,2.115 0.774,2.068 1.169,1.914C2.112,1.548 2.825,0.878 3.358,0.033C3.533,-0.244 3.645,-0.548 3.983,-0.674C4.056,-0.701 4.136,-0.762 4.168,-0.828C4.234,-0.967 4.269,-1.119 4.317,-1.267C4.171,-1.276 3.996,-1.342 3.886,-1.284C3.44,-1.047 3.001,-1.076 2.547,-1.228C2.419,-1.271 2.286,-1.306 2.153,-1.314C2.089,-1.318 1.984,-1.264 1.964,-1.21C1.941,-1.153 1.98,-1.055 2.021,-0.994C2.065,-0.929 2.143,-0.888 2.206,-0.836C2.404,-0.672 2.786,-0.475 2.764,-0.35C2.717,-0.087 2.48,0.158 2.281,0.374C2.081,0.591 1.834,0.768 1.604,0.958C0.809,1.61 -0.092,1.635 -1.018,1.351C-1.43,1.225 -1.809,0.996 -2.212,0.835C-2.315,0.794 -2.45,0.834 -2.57,0.837C-2.542,0.961 -2.548,1.112 -2.478,1.204C-2.382,1.329 -2.236,1.421 -2.099,1.507C-1.488,1.89 -0.822,2.104 -0.081,2.211M-7.157,-3.643C-7,-3.996 -6.902,-4.246 -6.781,-4.484C-6.399,-5.234 -6.004,-5.978 -5.622,-6.727C-5.506,-6.954 -5.388,-7.147 -5.089,-7.153C-3.994,-7.174 -3.028,-7.581 -2.137,-8.232C-1.611,-6.647 -0.307,-6.25 1.064,-5.962C2.061,-5.753 2.875,-6.123 3.585,-6.799C3.725,-6.931 3.917,-7.066 3.771,-7.266C3.704,-7.358 3.5,-7.356 3.356,-7.385C3.178,-7.422 2.972,-7.403 2.822,-7.488C2.463,-7.692 2.462,-8.058 2.822,-8.246C3.854,-8.782 4.918,-8.661 5.783,-7.911C6.456,-7.328 6.378,-6.617 5.661,-6.075C5.146,-5.685 5.162,-5.693 5.444,-5.104C5.776,-4.412 6.284,-3.975 7.06,-3.905C7.316,-3.882 7.46,-3.777 7.518,-3.533C7.631,-3.051 7.966,-2.831 8.422,-2.701C8.652,-2.635 8.843,-2.358 9.059,-2.348C9.268,-2.338 9.477,-2.583 9.705,-2.657C10.388,-2.876 11.092,-2.896 11.801,-2.808C11.88,-2.799 11.987,-2.792 12.03,-2.741C12.215,-2.52 12.487,-2.301 12.53,-2.048C12.608,-1.578 13.116,-1.129 12.667,-0.613C12.165,-0.035 11.646,0.543 10.885,0.759C10.506,0.867 10.079,0.881 9.684,0.84C9.145,0.783 8.923,0.359 9.091,-0.152C9.342,-0.91 9.574,-1.075 10.391,-1.077C10.445,-1.077 10.5,-1.065 10.554,-1.071C10.752,-1.091 11.007,-0.935 11.125,-1.209C11.208,-1.399 10.949,-1.572 10.529,-1.6C10.005,-1.636 9.495,-1.586 9.051,-1.264C8.804,-1.085 8.634,-0.875 8.548,-0.557C8.392,0.016 8.186,0.58 7.95,1.126C7.836,1.39 7.641,1.641 7.426,1.836C6.777,2.428 6.026,2.873 5.184,3.122C4.038,3.461 2.88,3.749 1.666,3.725C1.071,3.714 0.476,3.789 -0.121,3.805C-1.742,3.851 -3.308,3.503 -4.841,3.038C-5.506,2.837 -6.162,2.511 -6.73,2.111C-7.419,1.626 -7.796,0.888 -7.816,0.018C-7.826,-0.397 -7.748,-0.482 -7.368,-0.502C-6.637,-0.54 -5.904,-0.537 -5.174,-0.584C-3.767,-0.674 -2.361,-0.777 -0.957,-0.899C-0.637,-0.928 -0.32,-1.04 -0.013,-1.148C0.562,-1.35 0.839,-1.802 0.793,-2.409C0.751,-2.953 0.256,-3.534 -0.29,-3.566C-1.237,-3.62 -2.189,-3.629 -3.139,-3.627C-4.25,-3.624 -5.362,-3.587 -6.474,-3.574C-6.659,-3.571 -6.844,-3.61 -7.157,-3.643" style="fill:rgb(254,220,196);fill-rule:nonzero;"/>
                    </g>
                    <g transform="matrix(1,0,0,1,278.826,223.424)">
                        <path d="M0,0.555C-0.489,0.986 -0.967,1.041 -1.465,0.957C-2.28,0.82 -3.033,0.514 -3.693,0.013C-4.253,-0.411 -4.333,-0.772 -3.99,-1.399C-3.639,-2.042 -3.107,-2.49 -2.393,-2.701C-2.217,-2.753 -2.042,-2.805 -1.818,-2.871C-2.085,-3.215 -2.391,-3.188 -2.653,-3.052C-3.107,-2.818 -3.549,-2.551 -3.966,-2.256C-4.563,-1.834 -5.105,-1.33 -5.722,-0.941C-6.601,-0.384 -7.558,-0.125 -8.591,-0.529C-8.642,-0.549 -8.697,-0.575 -8.748,-0.57C-8.849,-0.561 -8.98,-0.562 -9.037,-0.501C-9.077,-0.457 -9.037,-0.308 -8.994,-0.225C-8.913,-0.069 -8.693,0.108 -8.727,0.214C-8.832,0.544 -9.018,0.851 -9.199,1.151C-9.229,1.201 -9.411,1.209 -9.492,1.171C-10.38,0.762 -11.146,-0.458 -10.016,-1.372C-8.678,-2.454 -7.294,-3.397 -5.485,-3.596C-3.564,-3.808 -1.65,-3.93 0.28,-3.843C1.296,-3.798 2.261,-3.62 3.165,-3.108C4.37,-2.426 5.603,-1.795 6.826,-1.145C7.992,-0.524 8.667,0.528 9.213,1.661C9.531,2.319 9.371,3.051 9.289,3.75C9.278,3.842 9.123,3.969 9.018,3.987C8.725,4.037 8.423,4.032 8.126,4.063C7.857,4.091 7.557,4.072 7.329,4.189C6.753,4.485 6.246,4.163 5.717,4.072C5.597,4.052 5.466,3.872 5.413,3.737C5.356,3.594 5.392,3.416 5.377,3.255C5.336,2.81 5.263,2.757 4.815,2.829C4.065,2.95 3.674,2.79 3.366,2.246C3.244,2.031 3.216,1.837 3.453,1.684C4.037,1.309 4.17,0.745 4.061,0.118C3.946,-0.541 3.543,-0.999 2.944,-1.297C1.99,-1.769 1.015,-1.84 0.03,-1.433C-0.944,-1.03 -1.048,-0.369 -0.277,0.378C-0.202,0.451 -0.097,0.494 0,0.555" style="fill:rgb(35,31,32);fill-rule:nonzero;"/>
                    </g>
                    <g transform="matrix(1,0,0,1,268.155,223.257)">
                        <path d="M0,-1.473C-0.586,-2.052 -0.5,-2.761 -0.526,-3.422C-0.533,-3.586 -0.312,-3.783 -0.159,-3.926C0.779,-4.807 1.915,-5.304 3.158,-5.568C4.458,-5.844 5.765,-6.039 7.102,-6.041C7.749,-6.041 8.394,-6.195 9.041,-6.26C11.759,-6.533 14.349,-6.189 16.702,-4.679C17.248,-4.328 17.851,-4.065 18.386,-3.702C19.306,-3.078 20.215,-2.435 21.084,-1.745C21.566,-1.363 22.143,-1.069 22.456,-0.491C22.571,-0.278 22.721,-0.082 22.856,0.119C23.444,0.992 23.514,1.872 22.933,2.786C22.672,3.197 22.501,3.669 22.219,4.062C21.969,4.409 21.627,4.692 21.311,4.987C21.252,5.042 21.101,5.06 21.025,5.024C20.767,4.903 20.477,4.35 20.522,4.092C20.96,1.618 19.796,-0.109 17.849,-1.387C16.763,-2.099 15.544,-2.605 14.423,-3.268C13.259,-3.955 12.011,-4.13 10.688,-4.209C8.393,-4.346 6.131,-4.197 3.895,-3.703C3.35,-3.583 2.808,-3.349 2.328,-3.061C1.539,-2.588 0.803,-2.028 0,-1.473" style="fill:rgb(255,223,96);fill-rule:nonzero;"/>
                    </g>
                    <g transform="matrix(1,0,0,1,265.948,227.649)">
                        <path d="M0,2.043C-0.922,1.996 -1.848,1.978 -2.766,1.888C-3.188,1.847 -3.614,1.704 -4.006,1.535C-4.432,1.352 -4.62,0.789 -4.474,0.357C-4.368,0.044 -4.132,-0.121 -3.708,-0.119C-3.246,-0.116 -2.785,-0.066 -2.324,-0.057C-1.049,-0.032 0.225,-0.017 1.5,0.002C1.581,0.003 1.666,-0.009 1.743,0.01C2.695,0.243 3.665,0.094 4.625,0.141C5.573,0.186 6.525,0.119 7.476,0.105C8.098,0.096 8.721,0.08 9.343,0.099C9.58,0.106 9.821,0.184 10.048,0.263C10.323,0.36 10.506,0.551 10.503,0.869C10.501,1.169 10.368,1.415 10.104,1.528C9.781,1.666 9.44,1.796 9.096,1.836C8.235,1.938 7.37,2.007 6.504,2.051C5.368,2.109 4.229,2.164 3.091,2.158C2.061,2.152 1.031,2.062 0.001,2.009L0,2.043Z" style="fill:rgb(248,170,151);fill-rule:nonzero;"/>
                    </g>
                    <g transform="matrix(1,0,0,1,274.158,216.111)">
                        <path d="M0,0.44C0.525,0.066 1.033,-0.335 1.578,-0.675C3.231,-1.706 2.679,-1.545 4.61,-1.491C6.296,-1.443 7.942,-1.199 9.593,-0.801C10.784,-0.514 11.761,0.116 12.862,0.544C12.366,1.074 11.919,1.57 11.446,2.04C11.359,2.126 11.155,2.146 11.021,2.118C10.869,2.087 10.735,1.97 10.594,1.889C9.091,1.022 7.49,0.496 5.744,0.389C4.435,0.308 3.146,0.368 1.854,0.585C1.277,0.682 0.679,0.646 0.09,0.67C0.06,0.593 0.03,0.517 0,0.44" style="fill:rgb(241,90,41);fill-rule:nonzero;"/>
                    </g>
                    <g transform="matrix(1,0,0,1,286.978,217.15)">
                        <path d="M0,1.688C0.703,1.51 1.403,1.315 2.111,1.16C2.667,1.038 3.235,0.972 3.795,0.866C4.004,0.826 4.208,0.75 4.41,0.677C4.447,0.664 4.494,0.579 4.482,0.545C4.459,0.475 4.41,0.376 4.354,0.363C4.227,0.334 4.087,0.327 3.958,0.349C2.436,0.606 0.886,0.751 -0.533,1.436C-0.558,1.447 -0.585,1.466 -0.609,1.463C-0.732,1.449 -0.854,1.429 -0.977,1.411C-0.948,1.315 -0.945,1.196 -0.885,1.127C-0.707,0.924 -0.518,0.727 -0.312,0.551C0.748,-0.352 1.97,-0.883 3.353,-1.075C4.274,-1.204 5.192,-1.208 6.113,-1.123C7.28,-1.015 7.452,-0.655 6.94,0.416C6.361,1.628 5.437,2.426 4.132,2.67C2.921,2.896 1.698,2.889 0.592,2.185C0.413,2.071 0.214,1.988 0.024,1.891C0.016,1.823 0.008,1.756 0,1.688" style="fill:rgb(237,28,36);fill-rule:nonzero;"/>
                    </g>
                    <g transform="matrix(1,0,0,1,278.29,214.494)">
                        <path d="M0,-0.351C0.869,-1.021 1.826,-1.408 2.82,-1.66C3.735,-1.892 4.68,-2.022 5.619,-2.143C6.372,-2.241 7.072,-2.021 7.701,-1.593C8.61,-0.973 9.772,0.071 10.312,1.375C9.791,1.842 9.22,1.89 8.601,1.582C8.504,1.534 8.393,1.511 8.302,1.455C6.741,0.488 4.957,0.218 3.207,-0.127C2.44,-0.279 1.64,-0.254 0.854,-0.307C0.57,-0.326 0.285,-0.336 0,-0.351" style="fill:rgb(255,223,96);fill-rule:nonzero;"/>
                    </g>
                    <g transform="matrix(1,0,0,1,288.792,221.554)">
                        <path d="M0,-1.164C0.156,-1.156 0.312,-1.147 0.469,-1.14C1.385,-1.099 1.392,-1.09 1.393,0C0.779,-0.228 0.498,-0.818 0,-1.164" style="fill:rgb(241,90,41);fill-rule:nonzero;"/>
                    </g>
                    <g transform="matrix(1,0,0,1,276.053,229.492)">
                        <path d="M0,3.553C-0.741,3.446 -1.407,3.232 -2.018,2.849C-2.155,2.762 -2.301,2.671 -2.396,2.546C-2.467,2.454 -2.461,2.303 -2.489,2.178C-2.369,2.176 -2.234,2.136 -2.131,2.177C-1.728,2.338 -1.349,2.567 -0.937,2.693C-0.011,2.977 0.89,2.951 1.685,2.3C1.916,2.11 2.162,1.933 2.362,1.716C2.561,1.5 2.798,1.255 2.845,0.992C2.867,0.867 2.485,0.67 2.287,0.506C2.224,0.454 2.146,0.413 2.103,0.348C2.062,0.287 2.022,0.189 2.045,0.132C2.065,0.078 2.17,0.024 2.234,0.028C2.367,0.035 2.5,0.071 2.628,0.114C3.083,0.266 3.521,0.295 3.967,0.058C4.077,0 4.252,0.066 4.398,0.075C4.35,0.222 4.315,0.375 4.249,0.514C4.217,0.58 4.137,0.641 4.064,0.668C3.726,0.794 3.614,1.097 3.439,1.375C2.906,2.22 2.193,2.89 1.25,3.256C0.855,3.41 0.418,3.457 0,3.553" style="fill:rgb(35,31,32);fill-rule:nonzero;"/>
                    </g>
                    <g transform="matrix(1,0,0,1,278.028,226.446)">
                        <path d="M0,-0.513C-0.145,-0.183 -0.228,0.135 -0.408,0.383C-0.608,0.659 -1.013,0.549 -1.086,0.216C-1.163,-0.132 -1.129,-0.477 -0.92,-0.786C-0.772,-1.005 -0.562,-1.172 -0.32,-1.034C-0.171,-0.948 -0.113,-0.707 0,-0.513" style="fill:rgb(35,31,32);fill-rule:nonzero;"/>
                    </g>
                    <g transform="matrix(1,0,0,1,276.134,225.871)">
                        <path d="M0,0.032C-0.056,0.152 -0.153,0.434 -0.317,0.668C-0.384,0.764 -0.606,0.807 -0.742,0.784C-0.838,0.767 -0.968,0.602 -0.976,0.495C-0.997,0.23 -0.992,-0.049 -0.933,-0.307C-0.863,-0.613 -0.577,-0.775 -0.325,-0.713C-0.092,-0.656 0.016,-0.47 0,0.032" style="fill:rgb(35,31,32);fill-rule:nonzero;"/>
                    </g>
                </g>
            </g>
            <g transform="matrix(4.13883,-0.480835,-0.226364,4.22099,0,0)">
                <g transform="matrix(1.13742,0,0.0854347,1,-41.1975,0)">
                    <text x="159.299px" y="225.978px" style="font-family:'ITCAvantGardeStd-Bk', 'ITC Avant Garde Gothic Std', sans-serif;font-weight:300;font-size:6.848px;fill:rgb(35,31,32);">Blanca</text>
                </g>
                <g transform="matrix(1.13742,0,0.0854347,1,-41.7965,0)">
                    <text x="160.538px" y="230.997px" style="font-family:'ITCAvantGardeStd-Bk', 'ITC Avant Garde Gothic Std', sans-serif;font-weight:300;font-size:6.848px;fill:white;">Nieves</text>
                </g>
            </g>
            <g transform="matrix(4.70225,0.59109,-0.872822,4.08974,-212.205,-26.675)">
                <text x="262.036px" y="179.354px" style="font-family:'ITCAvantGardeStd-Bk', 'ITC Avant Garde Gothic Std', sans-serif;font-weight:300;font-size:6.848px;fill:rgb(35,31,32);">Cuento</text>
            </g>
            <g transform="matrix(4.70224,0.591071,-0.872828,4.08974,-214.157,-26.9195)">
                <text x="262.305px" y="184.446px" style="font-family:'ITCAvantGardeStd-Bk', 'ITC Avant Garde Gothic Std', sans-serif;font-weight:300;font-size:6.457px;fill:rgb(35,31,32);">del zorro</text>
            </g>
            <g transform="matrix(4.70759,-0.546912,0.127236,4.17991,-238.408,27.6974)">
                <text x="271.938px" y="236.819px" style="font-family:'ITCAvantGardeStd-Bk', 'ITC Avant Garde Gothic Std', sans-serif;font-weight:300;font-size:6.848px;fill:rgb(35,31,32);">Cuento</text>
            </g>
            <g transform="matrix(4.70753,-0.546923,0.12726,4.17991,-240.342,27.923)">
                <text x="272.205px" y="241.91px" style="font-family:'ITCAvantGardeStd-Bk', 'ITC Avant Garde Gothic Std', sans-serif;font-weight:300;font-size:6.457px;fill:white;">Pinocho</text>
            </g>
        </g>
    </g>
</svg>
