<?xml version="1.0" encoding="UTF-8" standalone="no"?>
<!DOCTYPE svg PUBLIC "-//W3C//DTD SVG 1.1//EN" "http://www.w3.org/Graphics/SVG/1.1/DTD/svg11.dtd">
<svg width="100%" height="100%" viewBox="0 0 630 197" version="1.1" xmlns="http://www.w3.org/2000/svg" xmlns:xlink="http://www.w3.org/1999/xlink" xml:space="preserve" xmlns:serif="http://www.serif.com/" style="fill-rule:evenodd;clip-rule:evenodd;stroke-linejoin:round;stroke-miterlimit:2;">
    <g transform="matrix(1,0,0,1,-590,-1787)">
        <g>
            <g transform="matrix(4.16667,0,0,4.16667,640.903,1804.09)">
                <path d="M0,40.437C-0.482,40.583 -0.727,40.692 -0.982,40.728C-1.732,40.835 -2.486,40.907 -3.237,41.007C-3.614,41.059 -4.176,41.015 -4.092,41.579C-4.023,42.035 -3.534,41.902 -3.182,41.853C-1.202,41.577 0.787,41.455 2.787,41.503C3.224,41.514 3.676,41.519 4.098,41.424C7.699,40.615 11.369,40.489 15.033,40.268C18.376,40.068 21.718,39.814 25.058,39.556C25.943,39.488 26.587,39.136 26.875,38.134C27.122,37.271 27.672,36.495 28.091,35.681C28.188,35.492 28.297,35.308 28.466,35.006C28.129,35.006 27.935,34.992 27.744,35.009C25.56,35.2 23.376,35.396 21.191,35.588C20.476,35.652 19.751,35.66 19.045,35.777C15.587,36.352 12.126,36.919 8.68,37.558C5.222,38.199 1.743,38.595 -1.771,38.694C-2.088,38.703 -2.41,38.736 -2.72,38.802C-3.189,38.904 -3.424,39.214 -3.499,39.757C-2.811,39.637 -2.227,39.526 -1.64,39.434C-1.009,39.336 -0.376,39.259 0.256,39.17C0.988,39.067 1.169,39.082 2.164,39.401C0.98,39.562 0.041,39.666 -0.891,39.822C-1.822,39.977 -2.786,40.012 -3.656,40.445C-2.514,40.535 -1.398,40.048 0,40.437M-5.095,41.783C-4.954,41.53 -4.899,41.466 -4.881,41.393C-4.584,40.194 -4.348,38.975 -3.35,38.09C-3.208,37.964 -3.154,37.643 -3.186,37.431C-3.35,36.331 -3.517,35.228 -3.754,34.142C-4.17,32.237 -4.697,30.355 -5.071,28.442C-5.75,24.964 -6.365,21.474 -6.979,17.984C-7.491,15.082 -8.023,12.18 -7.953,9.208C-7.937,8.539 -8.093,7.866 -8.146,7.192C-8.25,5.884 -8.343,4.575 -8.429,3.265C-8.449,2.948 -8.408,2.626 -8.418,2.308C-8.436,1.717 -8.694,1.517 -9.253,1.716C-10.014,1.988 -10.437,2.564 -10.746,3.313C-11.644,5.49 -11.389,7.784 -11.312,10.007C-11.226,12.501 -10.724,14.983 -10.379,17.467C-9.986,20.306 -9.632,23.152 -9.141,25.974C-8.691,28.56 -8.142,31.132 -7.524,33.684C-6.935,36.117 -6.204,38.517 -5.521,40.927C-5.45,41.179 -5.287,41.405 -5.095,41.783M-7.738,3.594L-7.811,3.603C-7.716,4.473 -7.622,5.343 -7.526,6.212C-7.409,7.283 -7.269,8.35 -7.177,9.421C-7.052,10.891 -7.04,12.374 -6.841,13.833C-6.562,15.885 -6.18,17.924 -5.802,19.962C-5.098,23.763 -4.385,27.564 -3.633,31.356C-3.338,32.838 -2.909,34.294 -2.577,35.771C-2.455,36.313 -2.446,36.879 -2.371,37.433C-2.314,37.85 -2.064,38.069 -1.638,38.061C-1.438,38.058 -1.239,38.042 -1.041,38.024C1.817,37.756 4.673,37.495 7.498,36.943C10.588,36.34 13.696,35.833 16.793,35.264C18.677,34.918 20.558,34.609 22.48,34.524C24.231,34.447 25.977,34.227 27.721,34.037C28.393,33.962 29.055,33.801 29.718,33.667C30.051,33.6 30.168,33.384 30.104,33.049C29.763,31.29 29.478,29.519 29.079,27.773C28.626,25.793 27.945,23.859 27.59,21.864C26.807,17.472 26.168,13.054 25.469,8.648C25.194,6.916 24.954,5.176 24.624,3.455C24.354,2.047 23.984,0.658 23.636,-0.734C23.506,-1.254 23.191,-1.523 22.59,-1.466C21.079,-1.327 19.564,-1.243 18.051,-1.126C15.346,-0.919 12.643,-0.692 9.937,-0.5C8.105,-0.37 6.27,-0.298 4.438,-0.176C3.722,-0.128 3.008,-0.027 2.297,0.077C-0.386,0.464 -3.069,0.858 -5.75,1.259C-6.375,1.353 -6.994,1.487 -7.615,1.601C-7.656,2.226 -7.697,2.85 -7.737,3.475C-7.74,3.515 -7.738,3.555 -7.738,3.594M-12.145,7.717C-12.075,6.099 -11.882,4.528 -11.314,3.006C-10.847,1.75 -9.958,1.082 -8.642,0.966C-7.016,0.823 -5.39,0.656 -3.774,0.426C-1.13,0.052 1.5,-0.422 4.148,-0.773C5.728,-0.982 7.328,-1.039 8.92,-1.155C12.063,-1.386 15.205,-1.612 18.348,-1.837C19.781,-1.941 21.217,-2.014 22.648,-2.148C23.413,-2.219 23.896,-1.911 24.102,-1.214C24.541,0.275 25.041,1.757 25.327,3.279C25.813,5.861 26.138,8.474 26.561,11.069C26.759,12.288 27.046,13.492 27.259,14.708C27.746,17.496 28.142,20.3 28.709,23.07C29.101,24.979 29.776,26.829 30.216,28.73C30.584,30.319 30.809,31.941 31.065,33.554C31.166,34.194 31.046,34.274 30.365,34.556C30.048,34.688 29.733,34.89 29.494,35.134C28.5,36.153 27.793,37.361 27.435,38.734C27.235,39.503 26.771,39.875 26.058,40.037C25.708,40.116 25.357,40.216 25.003,40.24C20.345,40.554 15.683,40.809 11.029,41.18C8.768,41.36 6.523,41.749 4.271,42.045C3.956,42.087 3.643,42.166 3.327,42.181C0.976,42.291 -1.375,42.389 -3.726,42.491C-3.925,42.5 -4.126,42.5 -4.324,42.522C-5.5,42.656 -5.929,42.421 -6.272,41.311C-6.743,39.789 -7.166,38.252 -7.597,36.719C-7.887,35.683 -8.197,34.651 -8.428,33.601C-8.932,31.306 -9.442,29.01 -9.854,26.698C-10.281,24.306 -10.638,21.9 -10.946,19.49C-11.274,16.92 -11.517,14.339 -11.782,11.762C-11.92,10.416 -12.025,9.066 -12.145,7.717" style="fill:rgb(35,31,32);fill-rule:nonzero;"/>
            </g>
            <g transform="matrix(4.16667,0,0,4.16667,608.662,1941.39)">
                <path d="M0,-29.358C0,-29.397 -0.002,-29.437 0,-29.477C0.041,-30.102 0.082,-30.726 0.123,-31.351C0.744,-31.465 1.363,-31.599 1.988,-31.693C4.669,-32.094 7.352,-32.488 10.035,-32.876C10.746,-32.979 11.459,-33.081 12.176,-33.129C14.007,-33.251 15.843,-33.322 17.674,-33.452C20.38,-33.644 23.084,-33.872 25.789,-34.079C27.302,-34.195 28.817,-34.279 30.328,-34.419C30.929,-34.475 31.244,-34.207 31.374,-33.686C31.722,-32.295 32.092,-30.905 32.362,-29.498C32.692,-27.776 32.932,-26.037 33.207,-24.304C33.906,-19.898 34.545,-15.48 35.328,-11.088C35.683,-9.093 36.364,-7.159 36.816,-5.179C37.216,-3.433 37.501,-1.663 37.841,0.097C37.906,0.432 37.789,0.648 37.456,0.715C36.792,0.849 36.13,1.01 35.459,1.084C33.715,1.275 31.969,1.495 30.218,1.572C28.295,1.657 26.415,1.966 24.531,2.312C21.434,2.881 18.326,3.388 15.236,3.991C12.411,4.542 9.555,4.804 6.697,5.072C6.499,5.09 6.299,5.106 6.1,5.109C5.673,5.117 5.423,4.898 5.367,4.481C5.292,3.927 5.283,3.361 5.161,2.819C4.829,1.342 4.399,-0.114 4.105,-1.596C3.353,-5.388 2.64,-9.189 1.936,-12.99C1.558,-15.028 1.175,-17.067 0.896,-19.12C0.698,-20.579 0.686,-22.061 0.561,-23.531C0.469,-24.602 0.329,-25.67 0.212,-26.74C0.116,-27.609 0.022,-28.479 -0.073,-29.349L0,-29.358Z" style="fill:rgb(248,237,47);fill-rule:nonzero;"/>
            </g>
            <g transform="matrix(4.16667,0,0,4.16667,619.675,1810.4)">
                <path d="M0,40.266C-0.192,39.888 -0.355,39.662 -0.427,39.411C-1.109,37 -1.84,34.6 -2.429,32.167C-3.047,29.616 -3.596,27.043 -4.046,24.457C-4.538,21.635 -4.892,18.789 -5.285,15.951C-5.629,13.466 -6.131,10.985 -6.217,8.491C-6.294,6.267 -6.549,3.973 -5.651,1.796C-5.342,1.047 -4.919,0.471 -4.158,0.2C-3.6,0 -3.341,0.201 -3.323,0.791C-3.313,1.11 -3.354,1.431 -3.334,1.748C-3.249,3.058 -3.156,4.368 -3.052,5.675C-2.998,6.349 -2.842,7.022 -2.858,7.692C-2.928,10.663 -2.396,13.565 -1.885,16.467C-1.27,19.957 -0.655,23.448 0.024,26.925C0.397,28.838 0.925,30.72 1.341,32.625C1.578,33.711 1.745,34.814 1.909,35.914C1.94,36.126 1.887,36.448 1.745,36.574C0.747,37.458 0.511,38.677 0.214,39.876C0.196,39.95 0.141,40.013 0,40.266" style="fill:rgb(237,28,36);fill-rule:nonzero;"/>
            </g>
            <g transform="matrix(4.16667,0,0,4.16667,640.903,1956.54)">
                <path d="M0,3.847C-1.398,3.458 -2.514,3.945 -3.656,3.855C-2.786,3.422 -1.822,3.387 -0.891,3.232C0.041,3.076 0.98,2.972 2.164,2.811C1.169,2.492 0.988,2.477 0.256,2.58C-0.376,2.669 -1.009,2.746 -1.64,2.844C-2.227,2.936 -2.811,3.047 -3.499,3.167C-3.424,2.624 -3.189,2.314 -2.72,2.212C-2.41,2.146 -2.088,2.113 -1.771,2.104C1.743,2.005 5.222,1.609 8.68,0.968C12.126,0.329 15.587,-0.238 19.045,-0.813C19.751,-0.93 20.476,-0.938 21.191,-1.002C23.376,-1.194 25.56,-1.39 27.744,-1.581C27.935,-1.598 28.129,-1.584 28.466,-1.584C28.297,-1.282 28.188,-1.098 28.091,-0.909C27.672,-0.095 27.122,0.681 26.875,1.544C26.587,2.546 25.943,2.898 25.058,2.966C21.718,3.224 18.376,3.478 15.033,3.678C11.369,3.899 7.699,4.025 4.098,4.834C3.676,4.929 3.224,4.924 2.787,4.913C0.787,4.865 -1.202,4.987 -3.182,5.263C-3.534,5.312 -4.023,5.445 -4.092,4.989C-4.176,4.425 -3.614,4.469 -3.237,4.417C-2.486,4.317 -1.732,4.245 -0.982,4.138C-0.727,4.102 -0.482,3.993 0,3.847" style="fill:rgb(255,252,217);fill-rule:nonzero;"/>
            </g>
            <g transform="matrix(4.16667,0,0,4.16667,0,0)">
                <g opacity="0.2">
                    <g transform="matrix(1,0,0,1,176.742,474.837)">
                        <path d="M0,-43.714C-4.977,-42.317 -9.953,-40.919 -14.929,-39.523C-16.667,-39.034 -18.452,-38.523 -19.877,-37.417C-21.177,-36.408 -22.078,-34.979 -22.864,-33.533C-26.419,-26.996 -28.135,-19.472 -27.767,-12.039C-27.635,-9.367 -26.987,-6.321 -24.641,-5.036C-23.098,-4.191 -21.166,-4.334 -19.608,-3.518C-20.934,-3.247 -22.26,-2.978 -23.585,-2.708C-23.903,-2.644 -24.235,-2.572 -24.482,-2.362C-24.721,-2.159 -24.845,-1.857 -25.01,-1.59C-25.702,-0.47 -27.278,0 -28.47,-0.56C-30.627,-8.693 -32.313,-16.651 -33.712,-24.947C-34.277,-28.297 -34.843,-31.674 -34.718,-35.068C-34.669,-36.37 -34.507,-37.709 -33.87,-38.845C-33.233,-39.982 -32.013,-40.618 -30.726,-40.815C-18.778,-42.629 -10.177,-42.934 0,-43.714" style="fill:rgb(59,35,20);fill-rule:nonzero;"/>
                    </g>
                </g>
            </g>
            <g transform="matrix(4.16667,0,0,4.16667,1086.77,1801.88)">
                <path d="M0,36.852C-0.498,36.924 -0.756,36.996 -1.015,36.994C-1.771,36.989 -2.528,36.947 -3.286,36.936C-3.667,36.93 -4.215,36.803 -4.215,37.373C-4.216,37.834 -3.712,37.776 -3.357,37.78C-1.357,37.8 0.627,37.975 2.598,38.32C3.028,38.395 3.475,38.467 3.906,38.436C7.588,38.17 11.236,38.59 14.891,38.916C18.228,39.214 21.57,39.459 24.911,39.7C25.797,39.763 26.486,39.512 26.919,38.563C27.292,37.747 27.951,37.06 28.486,36.318C28.61,36.145 28.745,35.98 28.957,35.706C28.624,35.657 28.434,35.614 28.243,35.602C26.054,35.466 23.865,35.335 21.677,35.203C20.959,35.159 20.242,35.059 19.526,35.071C16.021,35.125 12.515,35.173 9.011,35.293C5.496,35.414 1.998,35.289 -1.493,34.865C-1.808,34.827 -2.13,34.811 -2.447,34.831C-2.926,34.863 -3.205,35.134 -3.359,35.661C-2.661,35.643 -2.066,35.62 -1.472,35.617C-0.834,35.614 -0.196,35.631 0.441,35.637C1.181,35.643 1.357,35.684 2.294,36.148C1.099,36.131 0.154,36.096 -0.79,36.111C-1.733,36.126 -2.691,36.018 -3.616,36.317C-2.5,36.576 -1.325,36.259 0,36.852M-5.238,37.426C-5.061,37.197 -4.997,37.142 -4.969,37.073C-4.497,35.931 -4.083,34.76 -2.964,34.034C-2.805,33.93 -2.704,33.621 -2.704,33.407C-2.703,32.293 -2.705,31.179 -2.778,30.07C-2.906,28.123 -3.148,26.184 -3.234,24.237C-3.389,20.697 -3.479,17.154 -3.569,13.612C-3.645,10.665 -3.74,7.717 -3.229,4.789C-3.114,4.128 -3.168,3.44 -3.121,2.766C-3.03,1.456 -2.928,0.148 -2.817,-1.16C-2.791,-1.476 -2.702,-1.788 -2.665,-2.104C-2.595,-2.692 -2.821,-2.928 -3.402,-2.814C-4.195,-2.659 -4.7,-2.151 -5.116,-1.457C-6.328,0.564 -6.415,2.87 -6.669,5.08C-6.955,7.559 -6.827,10.088 -6.855,12.596C-6.887,15.461 -6.959,18.329 -6.893,21.192C-6.832,23.816 -6.67,26.442 -6.438,29.056C-6.216,31.55 -5.85,34.032 -5.533,36.517C-5.5,36.777 -5.372,37.024 -5.238,37.426M-2.183,-0.731L-2.256,-0.734C-2.292,0.141 -2.328,1.015 -2.362,1.889C-2.405,2.964 -2.425,4.041 -2.494,5.115C-2.588,6.586 -2.796,8.054 -2.816,9.526C-2.845,11.597 -2.77,13.671 -2.699,15.743C-2.566,19.606 -2.426,23.47 -2.244,27.331C-2.173,28.842 -1.964,30.345 -1.855,31.855C-1.815,32.409 -1.891,32.97 -1.898,33.529C-1.904,33.95 -1.689,34.203 -1.267,34.259C-1.069,34.286 -0.87,34.3 -0.671,34.311C2.195,34.471 5.058,34.635 7.934,34.509C11.079,34.372 14.228,34.332 17.375,34.229C19.289,34.166 21.195,34.139 23.109,34.341C24.853,34.525 26.611,34.567 28.365,34.636C29.04,34.664 29.718,34.602 30.395,34.569C30.733,34.551 30.881,34.355 30.867,34.014C30.792,32.224 30.772,30.43 30.637,28.644C30.483,26.619 30.097,24.605 30.041,22.58C29.919,18.12 29.943,13.657 29.906,9.195C29.891,7.441 29.912,5.686 29.841,3.934C29.783,2.502 29.623,1.073 29.486,-0.355C29.435,-0.889 29.163,-1.201 28.56,-1.235C27.045,-1.321 25.534,-1.462 24.021,-1.572C21.315,-1.769 18.607,-1.945 15.903,-2.157C14.073,-2.3 12.247,-2.502 10.417,-2.653C9.702,-2.711 8.981,-2.717 8.263,-2.721C5.552,-2.736 2.84,-2.745 0.129,-2.746C-0.502,-2.746 -1.134,-2.706 -1.766,-2.684C-1.899,-2.073 -2.032,-1.461 -2.165,-0.849C-2.173,-0.81 -2.177,-0.771 -2.183,-0.731M-7.153,2.692C-6.844,1.101 -6.42,-0.423 -5.633,-1.844C-4.984,-3.016 -4.006,-3.545 -2.688,-3.464C-1.058,-3.365 0.575,-3.29 2.207,-3.276C4.877,-3.253 7.549,-3.333 10.219,-3.286C11.813,-3.258 13.404,-3.077 14.995,-2.956C18.137,-2.717 21.278,-2.474 24.42,-2.231C25.853,-2.12 27.284,-1.98 28.718,-1.9C29.485,-1.857 29.918,-1.48 30.018,-0.761C30.23,0.777 30.505,2.318 30.562,3.864C30.66,6.491 30.593,9.123 30.625,11.751C30.641,12.986 30.747,14.22 30.776,15.455C30.844,18.283 30.819,21.115 30.97,23.938C31.073,25.884 31.467,27.814 31.62,29.759C31.747,31.385 31.729,33.023 31.743,34.656C31.748,35.303 31.617,35.365 30.902,35.543C30.568,35.626 30.228,35.78 29.955,35.986C28.82,36.845 27.942,37.935 27.384,39.24C27.072,39.971 26.558,40.269 25.829,40.324C25.471,40.35 25.109,40.397 24.755,40.369C20.103,39.987 15.454,39.547 10.797,39.224C8.534,39.066 6.257,39.118 3.985,39.077C3.667,39.071 3.346,39.102 3.031,39.07C0.69,38.83 -1.649,38.578 -3.989,38.33C-4.187,38.309 -4.386,38.279 -4.585,38.271C-5.768,38.229 -6.158,37.934 -6.333,36.785C-6.571,35.21 -6.762,33.627 -6.96,32.047C-7.094,30.98 -7.247,29.913 -7.319,28.841C-7.478,26.497 -7.641,24.15 -7.706,21.802C-7.772,19.373 -7.768,16.941 -7.715,14.511C-7.658,11.922 -7.516,9.333 -7.395,6.746C-7.332,5.394 -7.235,4.043 -7.153,2.692" style="fill:rgb(35,31,32);fill-rule:nonzero;"/>
            </g>
            <g transform="matrix(4.16667,0,0,4.16667,1077.67,1937.92)">
                <path d="M0,-33.38C0.006,-33.42 0.01,-33.459 0.018,-33.498C0.151,-34.11 0.284,-34.722 0.417,-35.333C1.049,-35.355 1.681,-35.395 2.312,-35.395C5.023,-35.394 7.735,-35.385 10.446,-35.37C11.165,-35.366 11.885,-35.36 12.601,-35.302C14.43,-35.151 16.256,-34.949 18.086,-34.806C20.791,-34.594 23.498,-34.418 26.204,-34.221C27.717,-34.111 29.229,-33.97 30.743,-33.884C31.346,-33.85 31.618,-33.538 31.669,-33.004C31.806,-31.576 31.966,-30.147 32.024,-28.715C32.095,-26.963 32.074,-25.208 32.089,-23.454C32.126,-18.992 32.103,-14.529 32.224,-10.069C32.28,-8.044 32.666,-6.03 32.82,-4.005C32.956,-2.219 32.975,-0.425 33.05,1.365C33.064,1.706 32.916,1.902 32.578,1.92C31.901,1.953 31.223,2.015 30.548,1.987C28.794,1.918 27.036,1.876 25.292,1.692C23.378,1.49 21.472,1.517 19.558,1.58C16.411,1.683 13.262,1.723 10.117,1.86C7.241,1.986 4.378,1.822 1.512,1.662C1.313,1.651 1.114,1.637 0.917,1.61C0.494,1.554 0.279,1.301 0.285,0.88C0.292,0.321 0.368,-0.24 0.328,-0.794C0.219,-2.304 0.01,-3.807 -0.061,-5.318C-0.243,-9.179 -0.383,-13.043 -0.516,-16.906C-0.586,-18.978 -0.662,-21.052 -0.633,-23.123C-0.613,-24.595 -0.405,-26.063 -0.311,-27.534C-0.242,-28.608 -0.222,-29.685 -0.179,-30.76C-0.145,-31.634 -0.109,-32.508 -0.073,-33.383L0,-33.38Z" style="fill:rgb(247,174,183);fill-rule:nonzero;"/>
            </g>
            <g transform="matrix(4.16667,0,0,4.16667,1122.3,1807.15)">
                <path d="M0,29.363C-1.429,27.217 -1.739,24.567 -1.957,22.058C-2.298,18.106 -2.19,14.083 -1.604,10.159C-1.009,6.164 0.086,1.961 2.571,-1.306C3.246,-2.195 4.047,-2.979 4.94,-3.638C3.924,-3.735 2.907,-3.832 1.89,-3.916C1.175,-3.975 0.454,-3.981 -0.265,-3.985C-2.976,-3.999 -5.687,-4.008 -8.398,-4.009C-9.03,-4.009 -9.662,-3.969 -10.293,-3.948C-10.426,-3.336 -10.56,-2.725 -10.692,-2.113C-10.701,-2.074 -10.705,-2.034 -10.71,-1.994C-10.735,-1.995 -10.759,-1.996 -10.784,-1.997C-10.819,-1.122 -10.855,-0.248 -10.89,0.626C-10.932,1.701 -10.952,2.778 -11.021,3.851C-11.116,5.323 -11.323,6.791 -11.344,8.262C-11.373,10.334 -11.297,12.408 -11.226,14.479C-11.093,18.342 -10.953,22.207 -10.771,26.068C-10.701,27.579 -10.492,29.082 -10.383,30.592C-10.343,31.145 -10.418,31.707 -10.426,32.265C-10.432,32.686 -10.217,32.939 -9.794,32.996C-9.597,33.022 -9.397,33.037 -9.198,33.048C-6.333,33.208 -3.469,33.372 -0.593,33.246C1.069,33.174 2.733,33.128 4.397,33.086C2.685,32.154 1.081,30.985 0,29.363" style="fill:white;fill-rule:nonzero;"/>
            </g>
            <g transform="matrix(4.16667,0,0,4.16667,1064.94,1789.68)">
                <path d="M0,40.354C-0.134,39.952 -0.262,39.705 -0.295,39.445C-0.612,36.959 -0.979,34.478 -1.2,31.984C-1.433,29.37 -1.594,26.744 -1.655,24.12C-1.722,21.256 -1.649,18.389 -1.617,15.524C-1.589,13.016 -1.717,10.487 -1.432,8.007C-1.177,5.797 -1.09,3.492 0.122,1.471C0.538,0.777 1.042,0.269 1.835,0.114C2.417,0 2.643,0.236 2.573,0.824C2.536,1.14 2.447,1.452 2.42,1.768C2.31,3.076 2.208,4.384 2.117,5.694C2.069,6.368 2.124,7.056 2.008,7.717C1.498,10.645 1.593,13.592 1.668,16.54C1.759,20.082 1.849,23.625 2.004,27.165C2.09,29.112 2.332,31.051 2.46,32.998C2.533,34.107 2.535,35.221 2.534,36.334C2.534,36.548 2.433,36.858 2.273,36.961C1.155,37.688 0.741,38.859 0.269,40C0.241,40.07 0.177,40.125 0,40.354" style="fill:rgb(215,223,34);fill-rule:nonzero;"/>
            </g>
            <g transform="matrix(4.16667,0,0,4.16667,1086.77,1959.06)">
                <path d="M0,-0.87C-1.325,-1.463 -2.5,-1.146 -3.616,-1.405C-2.691,-1.704 -1.733,-1.596 -0.79,-1.611C0.154,-1.626 1.099,-1.591 2.294,-1.574C1.357,-2.038 1.181,-2.079 0.441,-2.085C-0.196,-2.091 -0.834,-2.108 -1.472,-2.105C-2.066,-2.102 -2.661,-2.079 -3.359,-2.061C-3.205,-2.588 -2.926,-2.859 -2.447,-2.891C-2.13,-2.911 -1.808,-2.895 -1.493,-2.857C1.998,-2.433 5.496,-2.308 9.011,-2.429C12.515,-2.549 16.021,-2.597 19.526,-2.651C20.242,-2.663 20.959,-2.563 21.677,-2.519C23.865,-2.387 26.054,-2.256 28.243,-2.12C28.434,-2.108 28.624,-2.065 28.957,-2.016C28.745,-1.742 28.61,-1.577 28.486,-1.404C27.951,-0.662 27.292,0.025 26.919,0.841C26.486,1.79 25.797,2.041 24.911,1.978C21.57,1.737 18.228,1.492 14.891,1.194C11.236,0.868 7.588,0.448 3.906,0.714C3.475,0.745 3.028,0.673 2.598,0.598C0.627,0.253 -1.357,0.078 -3.357,0.058C-3.712,0.054 -4.216,0.112 -4.215,-0.349C-4.215,-0.919 -3.667,-0.792 -3.286,-0.786C-2.528,-0.775 -1.771,-0.733 -1.015,-0.728C-0.756,-0.726 -0.498,-0.798 0,-0.87" style="fill:rgb(255,252,217);fill-rule:nonzero;"/>
            </g>
            <g transform="matrix(4.16667,0,0,4.16667,0,0)">
                <g opacity="0.2">
                    <g transform="matrix(1,0,0,1,289.775,468.347)">
                        <path d="M0,-37.467C-5.129,-36.823 -10.258,-36.181 -15.386,-35.537C-17.177,-35.313 -19.018,-35.072 -20.592,-34.19C-22.027,-33.385 -23.13,-32.106 -24.123,-30.792C-28.608,-24.856 -31.422,-17.669 -32.161,-10.265C-32.427,-7.603 -32.239,-4.494 -30.109,-2.875C-28.708,-1.81 -26.777,-1.665 -25.357,-0.626C-26.709,-0.556 -28.06,-0.487 -29.411,-0.416C-29.734,-0.4 -30.073,-0.378 -30.349,-0.207C-30.615,-0.042 -30.783,0.239 -30.986,0.478C-31.836,1.483 -33.464,1.714 -34.56,0.983C-35.487,-7.38 -35.973,-15.499 -36.124,-23.912C-36.186,-27.309 -36.245,-30.733 -35.617,-34.071C-35.375,-35.351 -35.016,-36.651 -34.217,-37.68C-33.419,-38.709 -32.118,-39.157 -30.815,-39.16C-18.731,-39.181 -10.18,-38.206 0,-37.467" style="fill:rgb(59,35,20);fill-rule:nonzero;"/>
                    </g>
                </g>
            </g>
            <g transform="matrix(4.16667,0,0,4.16667,1189.6,1809.54)">
                <path d="M0,30.383C0.246,29.867 0.465,29.455 0.641,29.026C0.785,28.677 0.591,28.498 0.25,28.483C0.056,28.473 -0.145,28.497 -0.335,28.54C-1.109,28.713 -1.168,28.88 -0.685,29.556C-0.504,29.809 -0.29,30.036 0,30.383M-3.227,26.083C-2.797,26.74 -2.438,27.3 -2.068,27.853C-1.835,28.2 -1.563,28.223 -1.148,28.089C-0.556,27.898 0.081,27.825 0.705,27.755C1.404,27.676 1.656,27.443 1.706,26.702C1.753,26.013 1.596,25.785 0.853,25.685C-0.454,25.508 -1.758,25.479 -3.227,26.083M1.642,25.059C1.797,22.978 2.009,21 2.076,19.017C2.155,16.67 1.978,14.309 2.149,11.971C2.415,8.352 2.33,4.732 2.421,1.112C2.447,0.066 2.113,-0.33 1.08,-0.206C0.099,-0.088 -0.869,0.183 -1.826,0.447C-2.503,0.635 -2.884,1.137 -2.934,1.854C-3.012,2.965 -3.122,4.075 -3.145,5.189C-3.176,6.741 -3.148,8.296 -3.13,9.849C-3.075,14.469 -3.013,19.089 -2.952,23.708C-2.948,23.987 -2.917,24.266 -2.918,24.544C-2.919,24.988 -2.669,25.109 -2.294,25.012C-1.028,24.688 0.236,24.891 1.642,25.059M2.366,27.606C1.718,28.733 1.094,29.874 0.41,30.98C0.119,31.448 -0.111,31.464 -0.411,31.08C-1.389,29.828 -2.354,28.566 -3.266,27.266C-3.499,26.934 -3.608,26.448 -3.612,26.032C-3.646,22.647 -3.642,19.26 -3.65,15.874C-3.65,15.675 -3.659,15.476 -3.664,15.277C-3.741,12.051 -3.848,8.826 -3.882,5.6C-3.896,4.249 -3.763,2.897 -3.679,1.547C-3.641,0.95 -3.341,0.46 -2.83,0.177C-2.277,-0.128 -1.69,-0.41 -1.083,-0.572C-0.316,-0.775 0.483,-0.877 1.274,-0.969C2.252,-1.081 2.882,-0.62 3.072,0.359C3.162,0.821 3.146,1.309 3.146,1.785C3.145,3.737 3.272,5.701 3.095,7.637C2.714,11.815 3.016,16 2.793,20.176C2.679,22.321 2.571,24.467 2.448,26.612C2.43,26.927 2.341,27.238 2.285,27.551C2.312,27.57 2.339,27.587 2.366,27.606" style="fill:rgb(35,31,32);fill-rule:nonzero;"/>
            </g>
            <g transform="matrix(4.16667,0,0,4.16667,1196.44,1808.37)">
                <path d="M0,25.339C-1.406,25.171 -2.67,24.968 -3.936,25.292C-4.311,25.389 -4.561,25.269 -4.56,24.824C-4.56,24.546 -4.59,24.268 -4.594,23.988C-4.655,19.369 -4.717,14.749 -4.772,10.129C-4.791,8.576 -4.818,7.022 -4.787,5.469C-4.764,4.356 -4.654,3.245 -4.576,2.134C-4.526,1.417 -4.146,0.915 -3.468,0.728C-2.511,0.463 -1.543,0.193 -0.562,0.074C0.471,-0.05 0.805,0.346 0.779,1.393C0.688,5.012 0.773,8.632 0.507,12.251C0.335,14.589 0.513,16.95 0.434,19.297C0.367,21.28 0.155,23.258 0,25.339" style="fill:rgb(140,198,63);fill-rule:nonzero;"/>
            </g>
            <g transform="matrix(4.16667,0,0,4.16667,1176.16,1924.62)">
                <path d="M0,-1.536C1.469,-2.14 2.772,-2.111 4.08,-1.934C4.822,-1.834 4.979,-1.606 4.933,-0.917C4.883,-0.177 4.631,0.057 3.931,0.136C3.307,0.206 2.67,0.278 2.078,0.47C1.663,0.604 1.391,0.581 1.158,0.234C0.789,-0.319 0.429,-0.879 0,-1.536" style="fill:rgb(255,229,166);fill-rule:nonzero;"/>
            </g>
            <g transform="matrix(4.16667,0,0,4.16667,1189.6,1928.18)">
                <path d="M0,1.91C-0.29,1.563 -0.504,1.336 -0.685,1.083C-1.168,0.407 -1.109,0.24 -0.335,0.067C-0.145,0.024 0.056,0 0.25,0.01C0.591,0.025 0.785,0.204 0.641,0.553C0.465,0.982 0.246,1.394 0,1.91" style="fill:rgb(140,198,63);fill-rule:nonzero;"/>
            </g>
            <g transform="matrix(4.16667,0,0,4.16667,1198.37,1852.13)">
                <path d="M0,-9.638C-0.148,-6.374 -0.665,-3.126 -1.536,0.023C-1.385,-0.397 -1.45,-0.859 -1.517,-1.299C-1.821,-3.315 -2.101,-5.336 -2.432,-7.349C-2.545,-8.036 -2.866,-8.672 -2.337,-9.225C-2.126,-9.445 0.001,-9.661 0,-9.638" style="fill:white;fill-rule:nonzero;"/>
            </g>
            <g transform="matrix(4.16667,0,0,4.16667,847.883,1814.23)">
                <path d="M0,34.843C-0.502,34.871 -0.767,34.919 -1.023,34.895C-1.777,34.822 -2.527,34.714 -3.28,34.636C-3.659,34.597 -4.195,34.422 -4.246,34.989C-4.287,35.448 -3.779,35.435 -3.426,35.47C-1.436,35.667 0.525,36.017 2.458,36.534C2.88,36.648 3.318,36.759 3.75,36.766C7.441,36.827 11.038,37.568 14.65,38.215C17.948,38.806 21.254,39.346 24.562,39.88C25.439,40.023 26.147,39.832 26.662,38.926C27.105,38.146 27.822,37.52 28.421,36.828C28.561,36.667 28.709,36.515 28.944,36.261C28.618,36.182 28.432,36.121 28.242,36.093C26.074,35.764 23.906,35.442 21.737,35.114C21.027,35.008 20.321,34.846 19.607,34.793C16.11,34.538 12.614,34.277 9.113,34.086C5.602,33.896 2.127,33.462 -1.312,32.732C-1.622,32.666 -1.942,32.622 -2.259,32.614C-2.739,32.603 -3.041,32.849 -3.241,33.36C-2.544,33.404 -1.95,33.433 -1.358,33.483C-0.722,33.535 -0.088,33.61 0.547,33.671C1.283,33.743 1.455,33.8 2.347,34.345C1.158,34.223 0.22,34.104 -0.721,34.035C-1.663,33.967 -2.607,33.775 -3.555,33.99C-2.467,34.347 -1.268,34.136 0,34.843M-5.269,34.952C-5.072,34.739 -5.004,34.69 -4.969,34.623C-4.398,33.529 -3.882,32.399 -2.704,31.774C-2.536,31.685 -2.409,31.385 -2.389,31.172C-2.29,30.064 -2.193,28.953 -2.168,27.841C-2.124,25.892 -2.194,23.939 -2.107,21.991C-1.949,18.451 -1.726,14.914 -1.502,11.378C-1.316,8.436 -1.151,5.491 -0.384,2.62C-0.211,1.972 -0.204,1.281 -0.098,0.614C0.109,-0.681 0.327,-1.975 0.552,-3.268C0.606,-3.582 0.722,-3.885 0.788,-4.196C0.909,-4.775 0.705,-5.031 0.115,-4.969C-0.688,-4.884 -1.235,-4.423 -1.711,-3.767C-3.097,-1.863 -3.388,0.427 -3.836,2.606C-4.34,5.05 -4.436,7.58 -4.685,10.076C-4.971,12.927 -5.296,15.777 -5.482,18.635C-5.653,21.254 -5.725,23.884 -5.725,26.509C-5.724,29.013 -5.578,31.517 -5.482,34.021C-5.472,34.281 -5.366,34.539 -5.269,34.952M1.146,-2.786C1.122,-2.789 1.097,-2.792 1.073,-2.796C0.96,-1.928 0.848,-1.059 0.736,-0.191C0.598,0.875 0.483,1.947 0.32,3.009C0.096,4.467 -0.241,5.911 -0.391,7.375C-0.603,9.436 -0.711,11.508 -0.823,13.577C-1.033,17.438 -1.234,21.299 -1.395,25.161C-1.457,26.672 -1.382,28.189 -1.407,29.701C-1.417,30.257 -1.541,30.81 -1.598,31.365C-1.641,31.783 -1.449,32.055 -1.033,32.149C-0.839,32.192 -0.642,32.224 -0.444,32.253C2.396,32.665 5.234,33.082 8.109,33.211C11.254,33.352 14.395,33.59 17.539,33.766C19.451,33.872 21.352,34.014 23.24,34.384C24.96,34.72 26.709,34.917 28.449,35.143C29.119,35.229 29.8,35.228 30.477,35.254C30.816,35.267 30.981,35.084 30.997,34.743C31.08,32.953 31.219,31.164 31.242,29.374C31.267,27.343 31.061,25.303 31.185,23.28C31.457,18.827 31.875,14.384 32.232,9.937C32.373,8.188 32.548,6.442 32.632,4.691C32.701,3.259 32.668,1.822 32.658,0.387C32.654,-0.149 32.411,-0.484 31.813,-0.571C30.312,-0.791 28.819,-1.065 27.321,-1.308C24.644,-1.744 21.962,-2.158 19.287,-2.608C17.477,-2.913 15.676,-3.275 13.867,-3.587C13.16,-3.709 12.442,-3.778 11.727,-3.845C9.027,-4.099 6.328,-4.347 3.627,-4.589C2.998,-4.644 2.365,-4.66 1.734,-4.694C1.547,-4.097 1.36,-3.5 1.174,-2.902C1.162,-2.864 1.155,-2.825 1.146,-2.786M-4.107,0.185C-3.659,-1.373 -3.102,-2.853 -2.192,-4.2C-1.442,-5.309 -0.422,-5.751 0.885,-5.553C2.499,-5.31 4.119,-5.091 5.743,-4.932C8.401,-4.675 11.07,-4.517 13.725,-4.235C15.31,-4.066 16.879,-3.745 18.454,-3.484C21.562,-2.97 24.67,-2.45 27.777,-1.929C29.195,-1.692 30.608,-1.427 32.03,-1.22C32.79,-1.109 33.188,-0.696 33.223,0.03C33.299,1.58 33.437,3.139 33.357,4.685C33.222,7.309 32.923,9.925 32.723,12.546C32.629,13.778 32.625,15.016 32.546,16.248C32.364,19.072 32.089,21.891 31.989,24.716C31.92,26.664 32.142,28.62 32.122,30.572C32.105,32.202 31.943,33.832 31.812,35.46C31.76,36.106 31.625,36.155 30.896,36.27C30.557,36.323 30.204,36.446 29.914,36.627C28.708,37.383 27.736,38.391 27.066,39.641C26.69,40.342 26.152,40.594 25.42,40.583C25.062,40.578 24.698,40.593 24.347,40.532C19.747,39.741 15.155,38.894 10.545,38.159C8.305,37.803 6.032,37.653 3.773,37.411C3.457,37.377 3.134,37.38 2.823,37.32C0.513,36.874 -1.795,36.416 -4.104,35.962C-4.3,35.924 -4.495,35.876 -4.693,35.852C-5.868,35.705 -6.229,35.377 -6.302,34.216C-6.401,32.627 -6.451,31.033 -6.509,29.442C-6.548,28.367 -6.606,27.29 -6.583,26.216C-6.534,23.867 -6.489,21.516 -6.346,19.171C-6.198,16.746 -5.979,14.323 -5.711,11.908C-5.426,9.333 -5.055,6.768 -4.706,4.201C-4.524,2.86 -4.308,1.524 -4.107,0.185" style="fill:rgb(35,31,32);fill-rule:nonzero;"/>
            </g>
            <g transform="matrix(4.16667,0,0,4.16667,852.656,1953.23)">
                <path d="M0,-36.145C0.01,-36.184 0.017,-36.223 0.029,-36.261C0.215,-36.859 0.402,-37.457 0.588,-38.053C1.22,-38.019 1.852,-38.003 2.481,-37.948C5.182,-37.707 7.882,-37.458 10.581,-37.205C11.296,-37.137 12.014,-37.068 12.721,-36.946C14.53,-36.634 16.331,-36.272 18.142,-35.967C20.817,-35.517 23.498,-35.103 26.176,-34.667C27.673,-34.424 29.167,-34.15 30.667,-33.93C31.265,-33.843 31.508,-33.508 31.512,-32.972C31.523,-31.538 31.556,-30.1 31.487,-28.668C31.403,-26.917 31.227,-25.171 31.086,-23.422C30.729,-18.975 30.312,-14.532 30.039,-10.079C29.915,-8.056 30.122,-6.016 30.096,-3.985C30.073,-2.195 29.934,-0.406 29.851,1.384C29.835,1.725 29.67,1.908 29.332,1.895C28.655,1.869 27.973,1.87 27.304,1.784C25.563,1.558 23.815,1.361 22.095,1.025C20.206,0.655 18.305,0.513 16.393,0.407C13.25,0.231 10.109,-0.007 6.964,-0.148C4.088,-0.277 1.251,-0.694 -1.59,-1.106C-1.787,-1.135 -1.984,-1.167 -2.179,-1.21C-2.595,-1.304 -2.787,-1.576 -2.744,-1.994C-2.687,-2.549 -2.562,-3.102 -2.553,-3.658C-2.528,-5.17 -2.603,-6.687 -2.54,-8.198C-2.38,-12.06 -2.178,-15.921 -1.969,-19.782C-1.856,-21.851 -1.749,-23.923 -1.537,-25.984C-1.386,-27.448 -1.05,-28.892 -0.826,-30.35C-0.662,-31.413 -0.547,-32.484 -0.41,-33.55C-0.298,-34.418 -0.185,-35.287 -0.073,-36.155C-0.048,-36.151 -0.024,-36.148 0,-36.145" style="fill:rgb(47,197,244);fill-rule:nonzero;"/>
            </g>
            <g transform="matrix(4.16667,0,0,4.16667,983.957,1944.05)">
                <path d="M0,-30.769C-0.004,-31.305 -0.247,-31.64 -0.845,-31.727C-2.346,-31.947 -3.839,-32.221 -5.336,-32.464C-8.014,-32.9 -10.695,-33.314 -13.371,-33.764C-15.181,-34.069 -16.981,-34.431 -18.791,-34.743C-19.116,-34.798 -19.443,-34.841 -19.771,-34.88C-19.879,-34.375 -19.96,-33.861 -19.99,-33.329C-20.114,-31.173 -19.568,-29.044 -18.983,-26.987C-18.348,-24.751 -17.553,-22.567 -16.754,-20.386C-15.964,-18.229 -15.169,-16.071 -14.523,-13.865C-13.971,-11.977 -13.5,-10.057 -13.333,-8.093C-13.182,-6.321 -13.281,-4.506 -13.836,-2.807C-14.402,-1.077 -15.45,0.444 -16.84,1.617C-17.204,1.923 -17.601,2.19 -18.016,2.431C-17.05,2.493 -16.085,2.556 -15.119,2.61C-13.207,2.716 -11.306,2.858 -9.417,3.228C-7.697,3.564 -5.949,3.761 -4.208,3.987C-3.539,4.073 -2.857,4.072 -2.181,4.098C-1.842,4.111 -1.677,3.928 -1.661,3.587C-1.578,1.797 -1.438,0.008 -1.416,-1.782C-1.391,-3.813 -1.597,-5.853 -1.473,-7.875C-1.201,-12.329 -0.783,-16.772 -0.426,-21.219C-0.285,-22.968 -0.109,-24.714 -0.025,-26.465C0.043,-27.897 0.011,-29.334 0,-30.769" style="fill:rgb(238,40,124);fill-rule:nonzero;"/>
            </g>
            <g transform="matrix(4.16667,0,0,4.16667,825.93,1793.27)">
                <path d="M0,39.983C-0.098,39.57 -0.203,39.312 -0.213,39.051C-0.309,36.547 -0.455,34.044 -0.456,31.54C-0.457,28.915 -0.385,26.285 -0.214,23.666C-0.027,20.807 0.298,17.958 0.583,15.107C0.833,12.611 0.929,10.081 1.432,7.636C1.88,5.458 2.172,3.168 3.557,1.263C4.033,0.608 4.581,0.147 5.384,0.062C5.974,0 6.177,0.255 6.056,0.835C5.991,1.146 5.875,1.449 5.82,1.762C5.595,3.055 5.377,4.349 5.171,5.645C5.064,6.312 5.058,7.003 4.885,7.651C4.118,10.522 3.952,13.466 3.766,16.409C3.543,19.945 3.32,23.482 3.162,27.022C3.075,28.969 3.145,30.922 3.101,32.872C3.076,33.984 2.979,35.094 2.879,36.203C2.86,36.416 2.732,36.715 2.564,36.804C1.387,37.429 0.87,38.559 0.3,39.654C0.265,39.72 0.196,39.77 0,39.983" style="fill:rgb(251,176,64);fill-rule:nonzero;"/>
            </g>
            <g transform="matrix(4.16667,0,0,4.16667,847.883,1971.66)">
                <path d="M0,-2.94C-1.268,-3.647 -2.467,-3.436 -3.555,-3.793C-2.607,-4.008 -1.663,-3.816 -0.721,-3.748C0.22,-3.679 1.158,-3.56 2.347,-3.438C1.455,-3.983 1.283,-4.04 0.547,-4.112C-0.088,-4.173 -0.722,-4.248 -1.358,-4.3C-1.95,-4.35 -2.544,-4.379 -3.241,-4.423C-3.041,-4.934 -2.739,-5.18 -2.259,-5.169C-1.942,-5.161 -1.622,-5.117 -1.312,-5.051C2.127,-4.321 5.602,-3.887 9.113,-3.697C12.614,-3.506 16.11,-3.245 19.607,-2.99C20.321,-2.937 21.027,-2.775 21.737,-2.669C23.906,-2.341 26.074,-2.019 28.242,-1.69C28.432,-1.662 28.618,-1.601 28.944,-1.522C28.709,-1.268 28.561,-1.116 28.421,-0.955C27.822,-0.263 27.105,0.363 26.662,1.143C26.147,2.049 25.439,2.24 24.562,2.097C21.254,1.563 17.948,1.023 14.65,0.432C11.038,-0.215 7.441,-0.956 3.75,-1.017C3.318,-1.024 2.88,-1.135 2.458,-1.249C0.525,-1.766 -1.436,-2.116 -3.426,-2.313C-3.779,-2.348 -4.287,-2.335 -4.246,-2.794C-4.195,-3.361 -3.659,-3.186 -3.28,-3.147C-2.527,-3.069 -1.777,-2.961 -1.023,-2.888C-0.767,-2.864 -0.502,-2.912 0,-2.94" style="fill:rgb(255,252,217);fill-rule:nonzero;"/>
            </g>
            <g transform="matrix(4.16667,0,0,4.16667,0,0)">
                <g opacity="0.2">
                    <g transform="matrix(1,0,0,1,235.723,466.092)">
                        <path d="M0,-31.549L-15.497,-30.987C-17.299,-30.921 -19.155,-30.844 -20.8,-30.104C-22.301,-29.429 -23.514,-28.252 -24.618,-27.032C-29.61,-21.514 -33.048,-14.605 -34.439,-7.295C-34.939,-4.666 -35.026,-1.554 -33.047,0.248C-31.747,1.432 -29.835,1.747 -28.513,2.908C-29.866,2.858 -31.218,2.808 -32.57,2.759C-32.893,2.747 -33.232,2.738 -33.522,2.884C-33.802,3.024 -33.994,3.29 -34.217,3.511C-35.153,4.436 -36.795,4.521 -37.822,3.697C-38.006,-4.715 -37.773,-12.846 -37.181,-21.239C-36.941,-24.627 -36.698,-28.043 -35.777,-31.313C-35.424,-32.567 -34.951,-33.829 -34.065,-34.784C-33.178,-35.738 -31.843,-36.07 -30.545,-35.958C-18.506,-34.911 -10.075,-33.185 0,-31.549" style="fill:rgb(59,35,20);fill-rule:nonzero;"/>
                    </g>
                </g>
            </g>
            <g transform="matrix(4.13883,-0.480842,-0.226346,4.22099,0,0)">
                <g transform="matrix(1.13742,0,0.0854335,1,-64.6569,0)">
                    <text x="179.851px" y="467.521px" style="font-family:'ITCAvantGardeStd-Bold', 'ITC Avant Garde Gothic Std', sans-serif;font-weight:700;font-size:13.985px;fill:rgb(0,174,239);">A</text>
                </g>
                <g transform="matrix(1.13742,0,0.0854335,1,-68.4831,0)">
                    <text x="199.522px" y="480.667px" style="font-family:'ITCAvantGardeStd-Bold', 'ITC Avant Garde Gothic Std', sans-serif;font-weight:700;font-size:13.985px;fill:rgb(0,174,239);">Z</text>
                </g>
            </g>
            <g transform="matrix(4.68157,-0.616465,0.543954,4.13101,-49.6945,6.54374)">
                <text x="90.25px" y="456.708px" style="font-family:'ITCAvantGardeStd-Bold', 'ITC Avant Garde Gothic Std', sans-serif;font-weight:700;font-size:6.873px;fill:rgb(42,56,144);">De la</text>
            </g>
            <g transform="matrix(4.68157,-0.616465,0.543954,4.13101,-51.8346,6.82553)">
                <text x="94.137px" y="475.002px" style="font-family:'ITCAvantGardeStd-Bold', 'ITC Avant Garde Gothic Std', sans-serif;font-weight:700;font-size:6.873px;fill:rgb(42,56,144);">a la</text>
            </g>
            <g transform="matrix(0.360456,-4.72555,4.12752,0.671848,8.32956,-109.2)">
                <text x="-385.346px" y="312.2px" style="font-family:'ITCAvantGardeStd-Bold', 'ITC Avant Garde Gothic Std', sans-serif;font-weight:700;font-size:6.395px;fill:rgb(35,31,32);">Escribe</text>
            </g>
            <g transform="matrix(0.323873,-4.72819,4.1326,0.639934,10.17,-148.471)">
                <text x="-409.933px" y="241.309px" style="font-family:'ITCAvantGardeStd-Demi', 'ITC Avant Garde Gothic Std', sans-serif;font-weight:600;font-size:5.761px;fill:white;">Ortografía</text>
            </g>
        </g>
    </g>
</svg>
