<?xml version="1.0" encoding="UTF-8" standalone="no"?>
<!DOCTYPE svg PUBLIC "-//W3C//DTD SVG 1.1//EN" "http://www.w3.org/Graphics/SVG/1.1/DTD/svg11.dtd">
<svg width="100%" height="100%" viewBox="0 0 305 306" version="1.1" xmlns="http://www.w3.org/2000/svg" xmlns:xlink="http://www.w3.org/1999/xlink" xml:space="preserve" xmlns:serif="http://www.serif.com/" style="fill-rule:evenodd;clip-rule:evenodd;">
    <g transform="matrix(1,0,0,1,-338,-1790)">
        <g>
            <g transform="matrix(0,4.16667,4.16667,0,490.53,1799.33)">
                <path d="M34.5,-34.5C53.301,-34.5 68.542,-19.054 68.542,0C68.542,19.054 53.301,34.5 34.5,34.5C15.699,34.5 0.458,19.054 0.458,0C0.458,-19.054 15.699,-34.5 34.5,-34.5" style="fill:white;fill-rule:nonzero;"/>
            </g>
            <g transform="matrix(0,4.16667,4.16667,0,490.53,1799.33)">
                <ellipse cx="34.5" cy="0" rx="34.042" ry="34.5" style="fill:none;stroke:rgb(113,191,68);stroke-width:1px;"/>
            </g>
            <g transform="matrix(3.66837,-1.9759,-1.9759,-3.66837,649.39,1958.69)">
                <path d="M-15.647,-8.954C-9.788,-5.935 -4.763,-1.195 -1.416,5.019C7.499,21.571 1.128,42.314 -15.647,51.35C-26.047,56.952 -38.005,56.739 -47.716,51.822L-15.647,-8.954Z" style="fill:rgb(183,218,155);fill-rule:nonzero;stroke:rgb(113,191,68);stroke-width:1px;"/>
            </g>
            <g transform="matrix(0,4.16667,4.16667,0,634.455,1943.08)">
                <path d="M-34.542,-34.542L34.542,-34.542" style="fill:none;fill-rule:nonzero;stroke:rgb(113,191,68);stroke-width:1px;"/>
            </g>
            <g transform="matrix(-3.4682,2.30926,2.30926,3.4682,435.461,2074.81)">
                <path d="M-62.791,-18.992L5.744,-18.992" style="fill:none;fill-rule:nonzero;stroke:rgb(113,191,68);stroke-width:1px;"/>
            </g>
            <g transform="matrix(-3.4682,-2.30926,-2.30926,3.4682,435.461,1811.34)">
                <path d="M-62.791,18.992L5.744,18.992" style="fill:none;fill-rule:nonzero;stroke:rgb(113,191,68);stroke-width:1px;"/>
            </g>
        </g>
    </g>
</svg>
