<?xml version="1.0" encoding="UTF-8" standalone="no"?>
<!DOCTYPE svg PUBLIC "-//W3C//DTD SVG 1.1//EN" "http://www.w3.org/Graphics/SVG/1.1/DTD/svg11.dtd">
<svg width="100%" height="100%" viewBox="0 0 306 306" version="1.1" xmlns="http://www.w3.org/2000/svg" xmlns:xlink="http://www.w3.org/1999/xlink" xml:space="preserve" xmlns:serif="http://www.serif.com/" style="fill-rule:evenodd;clip-rule:evenodd;">
    <g transform="matrix(1,0,0,1,-861,-1790)">
        <g>
            <g transform="matrix(0,4.16667,4.16667,0,1013.56,1799.33)">
                <path d="M34.5,-34.5C53.301,-34.5 68.542,-19.054 68.542,0C68.542,19.054 53.301,34.5 34.5,34.5C15.699,34.5 0.458,19.054 0.458,0C0.458,-19.054 15.699,-34.5 34.5,-34.5" style="fill:white;fill-rule:nonzero;"/>
            </g>
            <g transform="matrix(0,4.16667,4.16667,0,1013.56,1799.33)">
                <ellipse cx="34.5" cy="0" rx="34.042" ry="34.5" style="fill:none;stroke:rgb(246,139,30);stroke-width:1px;"/>
            </g>
            <g transform="matrix(3.85285,-1.58639,-1.58639,-3.85285,1154.27,2005.77)">
                <path d="M-12.539,-4.947C-4.23,-1.681 2.759,4.791 6.401,13.637C13.56,31.022 5.08,50.997 -12.539,58.252C-21.128,61.788 -30.305,61.649 -38.284,58.562L-12.539,-4.947Z" style="fill:rgb(252,193,136);fill-rule:nonzero;stroke:rgb(246,139,30);stroke-width:1px;"/>
            </g>
            <g transform="matrix(0,4.16667,4.16667,0,1157.48,1943.08)">
                <path d="M-34.542,-34.542L34.542,-34.542" style="fill:none;fill-rule:nonzero;stroke:rgb(246,139,30);stroke-width:1px;"/>
            </g>
            <g transform="matrix(4.16667,0,0,4.16667,869.628,1943.08)">
                <path d="M0,0L69.085,0" style="fill:none;fill-rule:nonzero;stroke:rgb(246,139,30);stroke-width:1px;"/>
            </g>
            <g transform="matrix(-2.94625,2.94631,2.94631,2.94625,1013.56,2085.89)">
                <path d="M-58.511,-24.237L10.039,-24.237" style="fill:none;fill-rule:nonzero;stroke:rgb(246,139,30);stroke-width:1px;"/>
            </g>
        </g>
    </g>
</svg>
