<?xml version="1.0" encoding="UTF-8" standalone="no"?>
<!DOCTYPE svg PUBLIC "-//W3C//DTD SVG 1.1//EN" "http://www.w3.org/Graphics/SVG/1.1/DTD/svg11.dtd">
<svg width="100%" height="100%" viewBox="0 0 671 376" version="1.1" xmlns="http://www.w3.org/2000/svg" xmlns:xlink="http://www.w3.org/1999/xlink" xml:space="preserve" xmlns:serif="http://www.serif.com/" style="fill-rule:evenodd;clip-rule:evenodd;">
    <g transform="matrix(1,0,0,1,-1335,-1288)">
        <g>
            <g transform="matrix(-9.50526,637.057,637.057,9.50526,1692.18,1340.61)">
                <path d="M0.5,-0.499C0.504,-0.499 0.51,-0.498 0.515,-0.498L0.5,0.498C0.496,0.498 0.49,0.498 0.485,0.499L0.5,-0.499Z" style="fill:url(#_Linear1);fill-rule:nonzero;"/>
            </g>
            <g transform="matrix(549.571,-376.158,-376.158,-549.571,1411.25,1702.27)">
                <path d="M0.234,0.095L0.691,-0.217C0.736,-0.099 0.695,0.04 0.584,0.116C0.473,0.192 0.328,0.18 0.234,0.095ZM0.577,0.109C0.678,0.039 0.716,-0.088 0.675,-0.196L0.258,0.09C0.343,0.167 0.476,0.178 0.577,0.109Z" style="fill:url(#_Linear2);fill-rule:nonzero;"/>
            </g>
            <g transform="matrix(571.588,-391.228,-391.228,-571.588,1397.56,1707.73)">
                <path d="M0.027,0.112C0.019,0.101 0.012,0.09 0.006,0.079L0.762,-0.438C0.77,-0.429 0.778,-0.418 0.786,-0.407C0.929,-0.198 0.876,0.089 0.666,0.232C0.456,0.375 0.17,0.322 0.027,0.112ZM0.579,0.104C0.68,0.035 0.716,-0.093 0.674,-0.203L0.258,0.082C0.344,0.161 0.477,0.174 0.579,0.104ZM0.401,-0.144C0.403,-0.141 0.407,-0.14 0.41,-0.142C0.413,-0.144 0.413,-0.148 0.411,-0.151C0.409,-0.154 0.405,-0.155 0.403,-0.153C0.4,-0.151 0.399,-0.147 0.401,-0.144Z" style="fill:url(#_Linear3);fill-rule:nonzero;"/>
            </g>
            <g transform="matrix(571.588,-391.228,-391.228,-571.588,1397.56,1707.73)">
                <path d="M0.027,0.112C0.019,0.101 0.012,0.09 0.006,0.079L0.762,-0.438C0.77,-0.429 0.778,-0.418 0.786,-0.407C0.929,-0.198 0.876,0.089 0.666,0.232C0.456,0.375 0.17,0.322 0.027,0.112ZM0.579,0.104C0.68,0.035 0.716,-0.093 0.674,-0.203L0.258,0.082C0.344,0.161 0.477,0.174 0.579,0.104ZM0.401,-0.144C0.403,-0.141 0.407,-0.14 0.41,-0.142C0.413,-0.144 0.413,-0.148 0.411,-0.151C0.409,-0.154 0.405,-0.155 0.403,-0.153C0.4,-0.151 0.399,-0.147 0.401,-0.144Z" style="fill:url(#_Linear4);fill-rule:nonzero;"/>
            </g>
            <g transform="matrix(571.592,-391.231,-391.231,-571.592,1376.71,1677.27)">
                <path d="M0.209,0.215L0.281,-0.162L0.467,-0.29L0.498,-0.136L0.258,0.029C0.334,0.098 0.445,0.116 0.54,0.073L0.571,0.228C0.452,0.274 0.321,0.268 0.209,0.215ZM0.401,-0.197C0.403,-0.194 0.407,-0.194 0.41,-0.196C0.413,-0.198 0.413,-0.202 0.411,-0.205C0.409,-0.207 0.405,-0.208 0.403,-0.206C0.4,-0.204 0.399,-0.2 0.401,-0.197Z" style="fill:url(#_Linear5);fill-rule:nonzero;"/>
            </g>
            <g transform="matrix(571.71,-391.311,-391.311,-571.71,1455.27,1792.16)">
                <path d="M0.398,0.006C0.394,0.001 0.395,-0.005 0.4,-0.009C0.405,-0.012 0.411,-0.011 0.415,-0.006C0.418,-0.001 0.417,0.005 0.412,0.009C0.407,0.012 0.401,0.011 0.398,0.006ZM0.401,0.004C0.403,0.007 0.407,0.007 0.41,0.005C0.413,0.003 0.413,-0.001 0.411,-0.004C0.409,-0.007 0.405,-0.007 0.403,-0.005C0.4,-0.003 0.399,0.001 0.401,0.004Z" style="fill:url(#_Linear6);fill-rule:nonzero;"/>
            </g>
            <g transform="matrix(4.16667,0,0,4.16667,1687.47,1630.74)">
                <path d="M0,1.194C-0.333,1.194 -0.598,0.929 -0.598,0.596C-0.598,0.265 -0.333,0 0,0C0.332,0 0.597,0.265 0.597,0.596C0.597,0.929 0.332,1.194 0,1.194" style="fill:rgb(35,31,32);fill-rule:nonzero;"/>
            </g>
            <g transform="matrix(318.648,0,0,-318.648,1687.43,1318.17)">
                <path d="M-1,-0.994L-0.938,-0.994C-0.938,-0.992 -0.938,-0.99 -0.938,-0.989C-0.938,-0.471 -0.518,-0.051 -0,-0.051C0.518,-0.051 0.938,-0.471 0.938,-0.989C0.938,-0.99 0.938,-0.992 0.938,-0.994L1,-0.994C1,-0.442 0.552,0.005 -0,0.005C-0.552,0.005 -1,-0.442 -1,-0.994Z" style="fill:url(#_Radial7);fill-rule:nonzero;"/>
            </g>
            <g transform="matrix(4.16667,0,0,4.16667,0,77.4)">
                <rect x="406.736" y="373.335" width="54.955" height="0.108" style="fill:rgb(1,4,6);"/>
            </g>
            <g transform="matrix(4.16667,0,0,4.16667,0,77.4)">
                <rect x="350.062" y="373.335" width="53.202" height="0.108" style="fill:rgb(1,4,6);"/>
            </g>
            <g transform="matrix(4.16667,0,0,4.16667,0,102.208)">
                <rect x="404.962" y="369.155" width="0.107" height="2.514" style="fill:rgb(1,4,6);"/>
            </g>
            <g transform="matrix(4.16667,0,0,4.16667,0,-3.1875)">
                <rect x="404.962" y="375.124" width="0.107" height="15.871" style="fill:rgb(1,4,6);"/>
            </g>
            <g transform="matrix(4.16667,0,0,4.16667,0,-372.508)">
                <rect x="404.962" y="424.136" width="0.107" height="6.484" style="fill:rgb(1,4,6);"/>
            </g>
            <g transform="matrix(4.16667,0,0,4.16667,1441.77,1634.17)">
                <path d="M0,0.009C0,-0.346 -0.418,-0.517 -1.079,-0.517C-1.716,-0.517 -2.135,-0.359 -2.135,0.009C-2.135,0.327 -1.729,0.534 -1.079,0.534C-0.406,0.542 0,0.335 0,0.013L0,0.009ZM0.272,0.025C0.272,0.531 -0.203,0.878 -1.06,0.885C-1.932,0.885 -2.406,0.507 -2.406,-0.019C-2.406,-0.562 -1.92,-0.876 -1.094,-0.876C-0.216,-0.876 0.272,-0.545 0.272,0.021L0.272,0.025Z" style="fill:rgb(1,4,6);fill-rule:nonzero;"/>
            </g>
            <g transform="matrix(4.16667,0,0,4.16667,1436.43,1594.69)">
                <path d="M0,-0.122L-0.001,-0.114L0.16,0.372L-0.115,0.391L-0.314,-0.218L-0.262,-0.513L2.288,-0.062L2.23,0.271L0,-0.122Z" style="fill:rgb(1,4,6);fill-rule:nonzero;"/>
            </g>
            <g transform="matrix(4.16667,0,0,4.16667,1446.19,1586.1)">
                <path d="M0,0.385C0.061,0.036 -0.322,-0.206 -0.973,-0.32C-1.6,-0.432 -2.04,-0.346 -2.104,0.014C-2.16,0.328 -1.795,0.603 -1.155,0.716C-0.493,0.84 -0.057,0.706 -0.002,0.39L0,0.385ZM0.263,0.447C0.175,0.946 -0.352,1.205 -1.197,1.065C-2.056,0.913 -2.458,0.457 -2.365,-0.061C-2.272,-0.595 -1.739,-0.82 -0.926,-0.676C-0.058,-0.524 0.362,-0.114 0.265,0.444L0.263,0.447Z" style="fill:rgb(1,4,6);fill-rule:nonzero;"/>
            </g>
            <g transform="matrix(4.16667,0,0,4.16667,1454.89,1548.22)">
                <path d="M0,2.263L-0.203,2.19L-0.358,1.841C-0.723,1.004 -0.935,0.603 -1.302,0.47C-1.549,0.381 -1.819,0.413 -1.951,0.777C-2.031,0.998 -1.986,1.221 -1.934,1.369L-2.204,1.388C-2.284,1.174 -2.302,0.891 -2.2,0.61C-2.011,0.089 -1.57,0 -1.223,0.126C-0.775,0.29 -0.529,0.748 -0.222,1.44L-0.111,1.697L-0.103,1.699L0.292,0.61L0.567,0.709L0,2.263Z" style="fill:rgb(1,4,6);fill-rule:nonzero;"/>
            </g>
            <g transform="matrix(4.16667,0,0,4.16667,1458.04,1543.13)">
                <path d="M0,0.742C0.122,0.408 -0.213,0.105 -0.834,-0.121C-1.433,-0.341 -1.881,-0.334 -2.006,0.012C-2.115,0.31 -1.805,0.644 -1.195,0.866C-0.565,1.104 -0.113,1.049 -0.002,0.746L0,0.742ZM0.25,0.85C0.076,1.325 -0.487,1.489 -1.296,1.203C-2.115,0.903 -2.431,0.386 -2.251,-0.109C-2.066,-0.617 -1.501,-0.747 -0.727,-0.464C0.1,-0.164 0.444,0.314 0.251,0.846L0.25,0.85Z" style="fill:rgb(1,4,6);fill-rule:nonzero;"/>
            </g>
            <g transform="matrix(4.16667,0,0,4.16667,1470.44,1509.06)">
                <path d="M0,1.981C0.102,1.926 0.302,1.778 0.426,1.564C0.649,1.178 0.476,0.912 0.283,0.806C-0.033,0.628 -0.33,0.833 -0.499,1.126L-0.598,1.296L-0.825,1.164L-0.727,0.994C-0.601,0.774 -0.552,0.429 -0.818,0.276C-0.997,0.172 -1.222,0.193 -1.383,0.474C-1.488,0.652 -1.506,0.87 -1.493,1.008L-1.763,0.963C-1.779,0.793 -1.734,0.515 -1.594,0.273C-1.34,-0.169 -0.961,-0.217 -0.689,-0.06C-0.455,0.076 -0.338,0.331 -0.396,0.662L-0.39,0.666C-0.179,0.419 0.158,0.314 0.472,0.496C0.831,0.703 0.982,1.168 0.673,1.703C0.527,1.955 0.321,2.128 0.183,2.198L0,1.981Z" style="fill:rgb(1,4,6);fill-rule:nonzero;"/>
            </g>
            <g transform="matrix(4.16667,0,0,4.16667,1476.85,1503.17)">
                <path d="M0,1.076C0.179,0.769 -0.098,0.412 -0.671,0.08C-1.223,-0.238 -1.665,-0.31 -1.848,0.007C-2.008,0.283 -1.76,0.666 -1.197,0.991C-0.619,1.335 -0.163,1.359 -0.001,1.079L0,1.076ZM0.227,1.225C-0.026,1.664 -0.61,1.727 -1.356,1.304C-2.111,0.868 -2.333,0.304 -2.069,-0.153C-1.798,-0.622 -1.221,-0.651 -0.505,-0.237C0.256,0.202 0.512,0.733 0.229,1.221L0.227,1.225Z" style="fill:rgb(1,4,6);fill-rule:nonzero;"/>
            </g>
            <g transform="matrix(4.16667,0,0,4.16667,1494.79,1475.96)">
                <path d="M0,0.195L-0.666,-0.364C-0.769,-0.45 -0.869,-0.54 -0.969,-0.634L-0.976,-0.625C-0.912,-0.466 -0.868,-0.345 -0.818,-0.211L-0.552,0.84L-0.546,0.845L0,0.195ZM0.747,0.824L0.208,0.37L-0.566,1.291L-0.741,1.145L-1.267,-0.806L-1.024,-1.096L0.213,-0.059L0.446,-0.336L0.654,-0.161L0.42,0.117L0.961,0.569L0.747,0.824Z" style="fill:rgb(1,4,6);fill-rule:nonzero;"/>
            </g>
            <g transform="matrix(4.16667,0,0,4.16667,1502.15,1466.99)">
                <path d="M0,1.411C0.227,1.139 0.017,0.739 -0.488,0.313C-0.977,-0.096 -1.4,-0.244 -1.635,0.037C-1.841,0.282 -1.662,0.702 -1.165,1.118C-0.655,1.558 -0.21,1.66 -0.004,1.413L0,1.411ZM0.196,1.597C-0.128,1.985 -0.715,1.944 -1.375,1.399C-2.043,0.839 -2.164,0.244 -1.826,-0.158C-1.477,-0.574 -0.902,-0.502 -0.272,0.029C0.404,0.594 0.564,1.161 0.199,1.594L0.196,1.597Z" style="fill:rgb(1,4,6);fill-rule:nonzero;"/>
            </g>
            <g transform="matrix(4.16667,0,0,4.16667,1523.16,1450.31)">
                <path d="M0,-2.445L-0.758,-1.81L-0.411,-1.243C-0.37,-1.286 -0.333,-1.329 -0.259,-1.39C-0.103,-1.521 0.074,-1.612 0.258,-1.641C0.485,-1.686 0.759,-1.62 0.973,-1.364C1.299,-0.976 1.233,-0.427 0.803,-0.066C0.586,0.115 0.355,0.206 0.206,0.226L0.102,-0.035C0.225,-0.055 0.438,-0.129 0.621,-0.282C0.872,-0.493 0.954,-0.842 0.724,-1.108C0.505,-1.371 0.18,-1.406 -0.213,-1.075C-0.33,-0.977 -0.411,-0.893 -0.474,-0.82L-1.139,-1.874L-0.189,-2.671L0,-2.445Z" style="fill:rgb(1,4,6);fill-rule:nonzero;"/>
            </g>
            <g transform="matrix(4.16667,0,0,4.16667,1532.86,1436.29)">
                <path d="M0,1.667C0.272,1.44 0.134,1.009 -0.291,0.502C-0.7,0.014 -1.091,-0.205 -1.372,0.031C-1.617,0.236 -1.514,0.68 -1.097,1.178C-0.671,1.699 -0.251,1.877 -0.003,1.67L0,1.667ZM0.161,1.886C-0.227,2.21 -0.797,2.07 -1.353,1.418C-1.914,0.75 -1.928,0.143 -1.524,-0.195C-1.11,-0.543 -0.556,-0.373 -0.026,0.26C0.539,0.934 0.598,1.519 0.165,1.883L0.161,1.886Z" style="fill:rgb(1,4,6);fill-rule:nonzero;"/>
            </g>
            <g transform="matrix(4.16667,0,0,4.16667,1561.16,1415.65)">
                <path d="M0,1.872C0.258,1.723 0.309,1.403 0.124,1.083C-0.061,0.761 -0.355,0.674 -0.634,0.835C-0.818,0.94 -0.926,1.15 -0.914,1.364C-0.911,1.409 -0.901,1.458 -0.87,1.513C-0.654,1.88 -0.321,2.057 -0.003,1.874L0,1.872ZM-0.538,-0.265C-0.602,-0.233 -0.678,-0.181 -0.755,-0.117C-1.191,0.237 -1.239,0.728 -1.077,1.131L-1.069,1.127C-1.046,0.92 -0.923,0.693 -0.675,0.549C-0.278,0.32 0.168,0.449 0.419,0.885C0.658,1.299 0.598,1.839 0.127,2.11C-0.349,2.386 -0.878,2.193 -1.212,1.61C-1.469,1.168 -1.515,0.73 -1.419,0.376C-1.338,0.086 -1.156,-0.171 -0.892,-0.368C-0.81,-0.434 -0.737,-0.482 -0.681,-0.514L-0.538,-0.265Z" style="fill:rgb(1,4,6);fill-rule:nonzero;"/>
            </g>
            <g transform="matrix(4.16667,0,0,4.16667,1568.52,1411.39)">
                <path d="M0,1.875C0.307,1.698 0.246,1.25 -0.084,0.677C-0.403,0.125 -0.749,-0.158 -1.067,0.025C-1.342,0.184 -1.32,0.64 -0.995,1.203C-0.665,1.79 -0.283,2.038 -0.004,1.877L0,1.875ZM0.121,2.117C-0.317,2.37 -0.855,2.133 -1.289,1.395C-1.726,0.639 -1.634,0.039 -1.178,-0.224C-0.709,-0.495 -0.193,-0.23 0.219,0.484C0.658,1.246 0.615,1.834 0.125,2.116L0.121,2.117Z" style="fill:rgb(1,4,6);fill-rule:nonzero;"/>
            </g>
            <g transform="matrix(4.16667,0,0,4.16667,1599.74,1406.48)">
                <path d="M0,-2.942L0.08,-2.725L-0.176,-0.123L-0.512,0L-0.243,-2.536L-0.245,-2.543L-1.436,-2.111L-1.535,-2.385L0,-2.942Z" style="fill:rgb(1,4,6);fill-rule:nonzero;"/>
            </g>
            <g transform="matrix(4.16667,0,0,4.16667,1607.43,1393.48)">
                <path d="M0,2.022C0.333,1.901 0.352,1.449 0.126,0.827C-0.092,0.228 -0.386,-0.111 -0.73,0.015C-1.029,0.123 -1.085,0.577 -0.863,1.187C-0.64,1.823 -0.307,2.134 -0.005,2.024L0,2.022ZM0.077,2.283C-0.398,2.456 -0.887,2.128 -1.186,1.326C-1.484,0.505 -1.29,-0.07 -0.796,-0.249C-0.286,-0.434 0.175,-0.085 0.457,0.69C0.757,1.519 0.612,2.088 0.081,2.281L0.077,2.283Z" style="fill:rgb(1,4,6);fill-rule:nonzero;"/>
            </g>
            <g transform="matrix(4.16667,0,0,4.16667,1640.81,1384.17)">
                <path d="M0,2.127C0.31,2.073 0.476,1.846 0.431,1.582C0.377,1.277 0.133,1.161 -0.228,1.124C-0.512,1.262 -0.637,1.491 -0.595,1.734C-0.562,1.991 -0.326,2.184 -0.003,2.128L0,2.127ZM-0.367,-0.013C-0.654,0.037 -0.777,0.253 -0.739,0.473C-0.699,0.729 -0.477,0.832 -0.171,0.859C0.036,0.745 0.179,0.559 0.137,0.328C0.102,0.123 -0.057,-0.067 -0.363,-0.014L-0.367,-0.013ZM-0.399,-0.262C0.096,-0.348 0.4,-0.087 0.456,0.235C0.495,0.451 0.426,0.705 0.137,0.905L0.14,0.918C0.48,0.988 0.716,1.181 0.77,1.487C0.849,1.934 0.518,2.295 0.033,2.381C-0.501,2.475 -0.879,2.217 -0.943,1.844C-1,1.522 -0.848,1.257 -0.562,1.069L-0.564,1.057C-0.873,0.974 -1.034,0.776 -1.073,0.556C-1.143,0.152 -0.851,-0.183 -0.403,-0.261L-0.399,-0.262Z" style="fill:rgb(1,4,6);fill-rule:nonzero;"/>
            </g>
            <g transform="matrix(4.16667,0,0,4.16667,1649.28,1382.68)">
                <path d="M0,2.112C0.349,2.051 0.446,1.61 0.331,0.958C0.221,0.33 -0.008,-0.054 -0.369,0.009C-0.683,0.064 -0.817,0.5 -0.706,1.14C-0.597,1.805 -0.321,2.169 -0.005,2.113L0,2.112ZM0.031,2.382C-0.467,2.469 -0.891,2.062 -1.046,1.22C-1.197,0.361 -0.906,-0.172 -0.388,-0.263C0.145,-0.357 0.539,0.068 0.682,0.88C0.834,1.747 0.593,2.284 0.034,2.381L0.031,2.382Z" style="fill:rgb(1,4,6);fill-rule:nonzero;"/>
            </g>
            <g transform="matrix(4.16667,0,0,4.16667,1683.36,1388.56)">
                <path d="M0,-2.147C-0.296,-2.147 -0.507,-1.885 -0.508,-1.518C-0.508,-1.195 -0.312,-0.967 -0.01,-0.967C0.226,-0.967 0.408,-1.082 0.505,-1.238C0.52,-1.27 0.533,-1.309 0.533,-1.365C0.538,-1.812 0.369,-2.147 0.004,-2.147L0,-2.147ZM-0.636,-0.023C-0.56,-0.019 -0.472,-0.023 -0.353,-0.04C-0.15,-0.063 0.042,-0.146 0.189,-0.289C0.361,-0.445 0.485,-0.672 0.532,-0.979L0.52,-0.979C0.376,-0.803 0.169,-0.7 -0.094,-0.7C-0.56,-0.701 -0.858,-1.053 -0.857,-1.499C-0.857,-1.984 -0.498,-2.414 0.033,-2.414C0.562,-2.413 0.888,-1.987 0.887,-1.322C0.886,-0.751 0.695,-0.353 0.439,-0.102C0.241,0.089 -0.034,0.213 -0.313,0.244C-0.441,0.259 -0.557,0.267 -0.637,0.263L-0.636,-0.023Z" style="fill:rgb(1,4,6);fill-rule:nonzero;"/>
            </g>
            <g transform="matrix(4.16667,0,0,4.16667,1692.07,1379.64)">
                <path d="M0,2.136C0.355,2.136 0.525,1.718 0.526,1.056C0.528,0.42 0.369,0.001 0.002,0.001C-0.317,0 -0.525,0.406 -0.525,1.056C-0.534,1.729 -0.327,2.135 -0.005,2.136L0,2.136ZM-0.016,2.408C-0.522,2.407 -0.869,1.932 -0.876,1.076C-0.875,0.203 -0.496,-0.272 0.031,-0.27C0.572,-0.27 0.886,0.216 0.885,1.041C0.885,1.922 0.553,2.408 -0.013,2.408L-0.016,2.408Z" style="fill:rgb(1,4,6);fill-rule:nonzero;"/>
            </g>
            <g transform="matrix(4.16667,0,0,4.16667,1723.41,1390.69)">
                <path d="M0,-1.974L-0.009,-1.975L-0.494,-1.815L-0.514,-2.089L0.095,-2.288L0.39,-2.236L-0.061,0.314L-0.396,0.255L0,-1.974Z" style="fill:rgb(1,4,6);fill-rule:nonzero;"/>
            </g>
            <g transform="matrix(4.16667,0,0,4.16667,1729.87,1383.5)">
                <path d="M0,2.093C0.349,2.155 0.59,1.773 0.706,1.122C0.817,0.494 0.734,0.055 0.373,-0.009C0.059,-0.065 -0.217,0.298 -0.329,0.938C-0.454,1.6 -0.322,2.036 -0.003,2.092L0,2.093ZM-0.063,2.358C-0.561,2.269 -0.82,1.741 -0.678,0.896C-0.526,0.038 -0.07,-0.364 0.449,-0.271C0.981,-0.177 1.206,0.357 1.062,1.169C0.907,2.036 0.498,2.457 -0.06,2.358L-0.063,2.358Z" style="fill:rgb(1,4,6);fill-rule:nonzero;"/>
            </g>
            <g transform="matrix(4.16667,0,0,4.16667,1738.55,1385.04)">
                <path d="M0,2.093C0.349,2.155 0.591,1.773 0.707,1.122C0.817,0.494 0.734,0.055 0.373,-0.009C0.06,-0.065 -0.216,0.298 -0.328,0.938C-0.454,1.6 -0.322,2.036 -0.004,2.092L0,2.093ZM-0.063,2.358C-0.561,2.269 -0.82,1.741 -0.678,0.896C-0.525,0.038 -0.07,-0.364 0.448,-0.271C0.982,-0.177 1.206,0.357 1.062,1.169C0.909,2.036 0.498,2.457 -0.058,2.358L-0.063,2.358Z" style="fill:rgb(1,4,6);fill-rule:nonzero;"/>
            </g>
            <g transform="matrix(4.16667,0,0,4.16667,1767.52,1400.99)">
                <path d="M0,-1.949L-0.007,-1.951L-0.514,-1.878L-0.485,-2.152L0.15,-2.242L0.43,-2.14L-0.458,0.293L-0.776,0.177L0,-1.949Z" style="fill:rgb(1,4,6);fill-rule:nonzero;"/>
            </g>
            <g transform="matrix(4.16667,0,0,4.16667,1773.96,1403.34)">
                <path d="M0,-1.949L-0.008,-1.951L-0.514,-1.878L-0.486,-2.152L0.15,-2.242L0.43,-2.141L-0.458,0.293L-0.777,0.177L0,-1.949Z" style="fill:rgb(1,4,6);fill-rule:nonzero;"/>
            </g>
            <g transform="matrix(4.16667,0,0,4.16667,1778.64,1397.69)">
                <path d="M0,1.986C0.333,2.107 0.637,1.773 0.865,1.152C1.084,0.554 1.077,0.106 0.732,-0.02C0.433,-0.129 0.099,0.181 -0.123,0.791C-0.363,1.421 -0.307,1.874 -0.005,1.984L0,1.986ZM-0.109,2.235C-0.583,2.062 -0.746,1.497 -0.46,0.69C-0.161,-0.13 0.358,-0.445 0.852,-0.265C1.36,-0.079 1.49,0.486 1.205,1.26C0.905,2.088 0.427,2.431 -0.105,2.237L-0.109,2.235Z" style="fill:rgb(1,4,6);fill-rule:nonzero;"/>
            </g>
            <g transform="matrix(4.16667,0,0,4.16667,1807.78,1417.87)">
                <path d="M0,-1.844L-0.006,-1.848L-0.518,-1.863L-0.443,-2.128L0.197,-2.106L0.457,-1.957L-0.841,0.284L-1.134,0.115L0,-1.844Z" style="fill:rgb(1,4,6);fill-rule:nonzero;"/>
            </g>
            <g transform="matrix(4.16667,0,0,4.16667,1806.66,1415.31)">
                <path d="M0,1.229L0.107,1.043L0.48,0.95C1.367,0.736 1.797,0.599 1.993,0.26C2.125,0.033 2.139,-0.24 1.805,-0.434C1.601,-0.551 1.374,-0.545 1.219,-0.519L1.247,-0.789C1.472,-0.829 1.754,-0.798 2.013,-0.649C2.492,-0.372 2.504,0.077 2.319,0.398C2.079,0.812 1.584,0.973 0.85,1.155L0.578,1.218L0.574,1.225L1.577,1.806L1.431,2.058L0,1.229Z" style="fill:rgb(1,4,6);fill-rule:nonzero;"/>
            </g>
            <g transform="matrix(4.16667,0,0,4.16667,1817.36,1417.95)">
                <path d="M0,1.821C0.307,1.999 0.664,1.722 0.997,1.15C1.316,0.598 1.387,0.156 1.07,-0.026C0.795,-0.186 0.411,0.061 0.085,0.623C-0.258,1.202 -0.282,1.658 -0.003,1.819L0,1.821ZM-0.149,2.048C-0.587,1.795 -0.649,1.21 -0.228,0.464C0.21,-0.291 0.775,-0.512 1.229,-0.248C1.7,0.024 1.727,0.602 1.315,1.316C0.873,2.078 0.344,2.333 -0.146,2.049L-0.149,2.048Z" style="fill:rgb(1,4,6);fill-rule:nonzero;"/>
            </g>
            <g transform="matrix(4.16667,0,0,4.16667,1844.82,1441.09)">
                <path d="M0,-1.594L-0.006,-1.599L-0.506,-1.703L-0.387,-1.95L0.241,-1.819L0.47,-1.626L-1.198,0.356L-1.457,0.138L0,-1.594Z" style="fill:rgb(1,4,6);fill-rule:nonzero;"/>
            </g>
            <g transform="matrix(4.16667,0,0,4.16667,1843.32,1441.46)">
                <path d="M0,0.451C0.037,0.561 0.147,0.783 0.337,0.942C0.678,1.23 0.969,1.105 1.108,0.935C1.338,0.655 1.188,0.325 0.929,0.108L0.78,-0.018L0.949,-0.22L1.099,-0.094C1.294,0.071 1.625,0.178 1.823,-0.057C1.955,-0.216 1.973,-0.44 1.727,-0.649C1.569,-0.782 1.357,-0.84 1.219,-0.851L1.311,-1.108C1.483,-1.094 1.747,-1.001 1.96,-0.821C2.35,-0.493 2.333,-0.113 2.129,0.129C1.955,0.336 1.684,0.404 1.369,0.29L1.364,0.297C1.569,0.548 1.614,0.897 1.379,1.174C1.114,1.492 0.63,1.559 0.157,1.161C-0.066,0.974 -0.203,0.74 -0.245,0.593L0,0.451Z" style="fill:rgb(1,4,6);fill-rule:nonzero;"/>
            </g>
            <g transform="matrix(4.16667,0,0,4.16667,1851.71,1444.67)">
                <path d="M0,1.599C0.272,1.826 0.672,1.617 1.098,1.111C1.508,0.623 1.655,0.2 1.375,-0.035C1.131,-0.241 0.711,-0.063 0.293,0.434C-0.147,0.944 -0.249,1.389 -0.003,1.596L0,1.599ZM-0.186,1.795C-0.574,1.47 -0.533,0.884 0.012,0.224C0.574,-0.444 1.169,-0.564 1.57,-0.225C1.986,0.124 1.913,0.699 1.382,1.33C0.816,2.003 0.249,2.163 -0.184,1.798L-0.186,1.795Z" style="fill:rgb(1,4,6);fill-rule:nonzero;"/>
            </g>
            <g transform="matrix(4.16667,0,0,4.16667,1876.98,1470.02)">
                <path d="M0,-1.293L-0.005,-1.299L-0.48,-1.489L-0.318,-1.712L0.277,-1.472L0.468,-1.244L-1.518,0.419L-1.735,0.159L0,-1.293Z" style="fill:rgb(1,4,6);fill-rule:nonzero;"/>
            </g>
            <g transform="matrix(4.16667,0,0,4.16667,1878.59,1474.12)">
                <path d="M0,0.191L0.666,-0.366C0.77,-0.452 0.876,-0.536 0.986,-0.618L0.978,-0.627C0.81,-0.591 0.685,-0.569 0.543,-0.543L-0.538,-0.466L-0.544,-0.459L0,0.191ZM-0.749,0.818L-0.208,0.366L-0.98,-0.558L-0.806,-0.703L1.207,-0.881L1.451,-0.591L0.212,0.445L0.445,0.723L0.237,0.897L0.005,0.619L-0.536,1.072L-0.749,0.818Z" style="fill:rgb(1,4,6);fill-rule:nonzero;"/>
            </g>
            <g transform="matrix(4.16667,0,0,4.16667,1881.15,1477.31)">
                <path d="M0,1.328C0.227,1.6 0.657,1.463 1.166,1.038C1.654,0.629 1.874,0.239 1.638,-0.043C1.434,-0.287 0.99,-0.185 0.491,0.231C-0.032,0.658 -0.21,1.077 -0.002,1.325L0,1.328ZM-0.218,1.489C-0.543,1.102 -0.402,0.532 0.25,-0.025C0.92,-0.585 1.526,-0.598 1.864,-0.195C2.212,0.22 2.041,0.774 1.407,1.303C0.733,1.867 0.147,1.926 -0.216,1.493L-0.218,1.489Z" style="fill:rgb(1,4,6);fill-rule:nonzero;"/>
            </g>
            <g transform="matrix(4.16667,0,0,4.16667,1903.69,1504.34)">
                <path d="M0,-0.954L-0.004,-0.961L-0.439,-1.23L-0.241,-1.422L0.303,-1.083L0.453,-0.824L-1.792,0.468L-1.962,0.174L0,-0.954Z" style="fill:rgb(1,4,6);fill-rule:nonzero;"/>
            </g>
            <g transform="matrix(4.16667,0,0,4.16667,1909.14,1508.75)">
                <path d="M0,0.199L-0.494,-0.658L-1.112,-0.417C-1.077,-0.368 -1.041,-0.324 -0.993,-0.241C-0.892,-0.066 -0.832,0.125 -0.836,0.312C-0.831,0.544 -0.945,0.801 -1.236,0.969C-1.674,1.221 -2.203,1.061 -2.482,0.574C-2.624,0.329 -2.672,0.086 -2.667,-0.065L-2.391,-0.122C-2.393,0.003 -2.356,0.225 -2.237,0.433C-2.074,0.716 -1.745,0.857 -1.442,0.679C-1.146,0.508 -1.056,0.194 -1.311,-0.251C-1.388,-0.383 -1.455,-0.477 -1.517,-0.552L-0.363,-1.022L0.255,0.052L0,0.199Z" style="fill:rgb(1,4,6);fill-rule:nonzero;"/>
            </g>
            <g transform="matrix(4.16667,0,0,4.16667,1904.38,1514.14)">
                <path d="M0,1.065C0.177,1.372 0.625,1.311 1.198,0.982C1.751,0.664 2.034,0.317 1.851,-0.001C1.693,-0.277 1.236,-0.254 0.674,0.07C0.086,0.4 -0.162,0.782 -0.002,1.061L0,1.065ZM-0.242,1.186C-0.495,0.748 -0.256,0.21 0.482,-0.224C1.238,-0.659 1.839,-0.568 2.1,-0.112C2.371,0.358 2.106,0.873 1.391,1.285C0.629,1.724 0.04,1.68 -0.241,1.189L-0.242,1.186Z" style="fill:rgb(1,4,6);fill-rule:nonzero;"/>
            </g>
            <g transform="matrix(4.16667,0,0,4.16667,1923.57,1542.16)">
                <path d="M0,-0.587L-0.003,-0.595L-0.385,-0.935L-0.158,-1.089L0.321,-0.661L0.422,-0.38L-2.013,0.502L-2.128,0.183L0,-0.587Z" style="fill:rgb(1,4,6);fill-rule:nonzero;"/>
            </g>
            <g transform="matrix(4.16667,0,0,4.16667,1918.37,1547.9)">
                <path d="M0,0.574C0.102,0.855 0.406,0.961 0.756,0.835C1.104,0.709 1.242,0.433 1.132,0.131C1.061,-0.069 0.872,-0.212 0.661,-0.237C0.615,-0.242 0.564,-0.241 0.505,-0.219C0.106,-0.069 -0.127,0.226 -0.001,0.57L0,0.574ZM2.198,0.419C2.177,0.35 2.138,0.267 2.09,0.177C1.819,-0.313 1.343,-0.445 0.918,-0.355L0.921,-0.348C1.119,-0.289 1.322,-0.129 1.42,0.141C1.576,0.572 1.371,0.988 0.898,1.16C0.449,1.322 -0.073,1.169 -0.258,0.659C-0.446,0.142 -0.164,-0.346 0.469,-0.575C0.949,-0.748 1.389,-0.717 1.72,-0.562C1.992,-0.431 2.214,-0.206 2.361,0.087C2.412,0.179 2.447,0.26 2.468,0.321L2.198,0.419Z" style="fill:rgb(1,4,6);fill-rule:nonzero;"/>
            </g>
            <g transform="matrix(4.16667,0,0,4.16667,1921.27,1555.26)">
                <path d="M0,0.724C0.12,1.058 0.572,1.076 1.193,0.851C1.793,0.634 2.132,0.342 2.007,-0.003C1.899,-0.303 1.446,-0.36 0.835,-0.138C0.199,0.084 -0.113,0.417 -0.002,0.72L0,0.724ZM-0.261,0.802C-0.433,0.326 -0.105,-0.162 0.697,-0.46C1.518,-0.758 2.093,-0.563 2.271,-0.069C2.457,0.441 2.106,0.902 1.332,1.183C0.503,1.482 -0.066,1.337 -0.259,0.806L-0.261,0.802Z" style="fill:rgb(1,4,6);fill-rule:nonzero;"/>
            </g>
            <g transform="matrix(4.16667,0,0,4.16667,1936.48,1583.5)">
                <path d="M0,-0.201L-0.002,-0.209L-0.317,-0.61L-0.067,-0.723L0.329,-0.217L0.38,0.076L-2.171,0.522L-2.229,0.189L0,-0.201Z" style="fill:rgb(1,4,6);fill-rule:nonzero;"/>
            </g>
            <g transform="matrix(4.16667,0,0,4.16667,1939.73,1586.8)">
                <path d="M0,1.57L-0.227,1.61L-2.745,0.905L-2.808,0.552L-0.357,1.26L-0.349,1.26L-0.567,0.011L-0.28,-0.04L0,1.57Z" style="fill:rgb(1,4,6);fill-rule:nonzero;"/>
            </g>
            <g transform="matrix(4.16667,0,0,4.16667,1930.82,1598.05)">
                <path d="M0,0.362C0.062,0.711 0.502,0.808 1.155,0.694C1.783,0.584 2.167,0.356 2.104,-0.006C2.049,-0.319 1.614,-0.454 0.974,-0.341C0.309,-0.234 -0.055,0.04 -0.001,0.358L0,0.362ZM-0.269,0.393C-0.356,-0.106 0.051,-0.528 0.894,-0.684C1.753,-0.834 2.285,-0.542 2.377,-0.025C2.47,0.509 2.044,0.903 1.232,1.045C0.365,1.196 -0.171,0.954 -0.269,0.397L-0.269,0.393Z" style="fill:rgb(1,4,6);fill-rule:nonzero;"/>
            </g>
            <g transform="matrix(4.16667,0,0,4.16667,1941.65,1625.44)">
                <path d="M0,0.187L0,0.179L-0.242,-0.272L0.025,-0.339L0.328,0.227L0.326,0.526L-2.263,0.522L-2.263,0.182L0,0.187Z" style="fill:rgb(1,4,6);fill-rule:nonzero;"/>
            </g>
            <g transform="matrix(4.16667,0,0,4.16667,1942.14,1634.16)">
                <path d="M0,0.033C0,-0.257 -0.192,-0.417 -0.414,-0.417C-0.674,-0.422 -0.812,-0.223 -0.893,0.076C-0.818,0.299 -0.659,0.471 -0.423,0.471C-0.217,0.471 -0.001,0.348 0,0.038L0,0.033ZM-2.173,0.022C-2.173,0.336 -1.979,0.541 -1.711,0.541C-1.4,0.541 -1.244,0.322 -1.143,-0.028C-1.231,-0.331 -1.434,-0.495 -1.681,-0.496C-1.94,-0.508 -2.172,-0.309 -2.173,0.017L-2.173,0.022ZM0.251,0.046C0.249,0.548 -0.061,0.802 -0.388,0.801C-0.607,0.801 -0.846,0.69 -0.993,0.371L-1.005,0.371C-1.133,0.693 -1.365,0.891 -1.676,0.891C-2.129,0.89 -2.429,0.503 -2.426,0.009C-2.426,-0.533 -2.107,-0.858 -1.728,-0.858C-1.403,-0.857 -1.167,-0.662 -1.032,-0.347L-1.02,-0.347C-0.884,-0.637 -0.661,-0.76 -0.438,-0.76C-0.027,-0.76 0.252,-0.413 0.251,0.042L0.251,0.046Z" style="fill:rgb(1,4,6);fill-rule:nonzero;"/>
            </g>
            <g transform="matrix(4.16667,0,0,4.16667,1933.14,1642.92)">
                <path d="M0,-0.013C0,0.342 0.418,0.514 1.079,0.516C1.716,0.516 2.135,0.358 2.136,-0.009C2.136,-0.327 1.73,-0.536 1.081,-0.537C0.407,-0.546 0.002,-0.34 0,-0.017L0,-0.013ZM-0.272,-0.029C-0.271,-0.535 0.206,-0.882 1.063,-0.888C1.934,-0.886 2.408,-0.507 2.407,0.02C2.406,0.561 1.92,0.875 1.094,0.874C0.213,0.873 -0.272,0.54 -0.272,-0.025L-0.272,-0.029Z" style="fill:rgb(1,4,6);fill-rule:nonzero;"/>
            </g>
            <g transform="matrix(4.16667,0,0,4.16667,1409.21,1643.45)">
                <path d="M0,-0.205L0,-0.196L0.265,0.296L-0.026,0.371L-0.357,-0.248L-0.357,-0.576L2.478,-0.576L2.478,-0.205L0,-0.205Z" style="fill:rgb(1,4,6);fill-rule:nonzero;"/>
            </g>
            <g transform="matrix(4.16667,0,0,4.16667,1418.58,1633.76)">
                <path d="M0,-0.01C0,-0.355 -0.214,-0.578 -0.508,-0.578C-0.848,-0.578 -1.017,-0.338 -1.126,0.045C-1.03,0.377 -0.808,0.557 -0.537,0.557C-0.253,0.569 0,0.352 0,-0.007L0,-0.01ZM-2.378,-0.02C-2.378,0.298 -2.17,0.474 -1.926,0.474C-1.642,0.477 -1.489,0.26 -1.402,-0.068C-1.485,-0.313 -1.659,-0.501 -1.916,-0.501C-2.144,-0.501 -2.378,-0.364 -2.378,-0.024L-2.378,-0.02ZM-2.654,-0.033C-2.654,-0.583 -2.314,-0.862 -1.957,-0.862C-1.715,-0.862 -1.454,-0.74 -1.292,-0.39L-1.28,-0.39C-1.14,-0.744 -0.887,-0.963 -0.547,-0.963C-0.049,-0.963 0.278,-0.54 0.278,0.003C0.278,0.595 -0.07,0.953 -0.485,0.953C-0.843,0.953 -1.1,0.74 -1.248,0.394L-1.261,0.394C-1.41,0.713 -1.655,0.848 -1.899,0.848C-2.349,0.848 -2.654,0.469 -2.654,-0.028L-2.654,-0.033Z" style="fill:rgb(1,4,6);fill-rule:nonzero;"/>
            </g>
            <g transform="matrix(4.16667,0,0,4.16667,1418.51,1624.18)">
                <path d="M0,0.01C0,-0.379 -0.46,-0.567 -1.182,-0.567C-1.882,-0.567 -2.34,-0.392 -2.34,0.01C-2.34,0.359 -1.894,0.585 -1.182,0.585C-0.446,0.594 0,0.367 0,0.013L0,0.01ZM0.296,0.026C0.296,0.581 -0.223,0.961 -1.162,0.969C-2.116,0.969 -2.636,0.555 -2.636,-0.021C-2.636,-0.615 -2.104,-0.959 -1.2,-0.959C-0.235,-0.959 0.296,-0.596 0.296,0.022L0.296,0.026Z" style="fill:rgb(1,4,6);fill-rule:nonzero;"/>
            </g>
            <g transform="matrix(4.16667,0,0,4.16667,1411.92,1594.12)">
                <path d="M0,-0.135L-0.002,-0.126L0.175,0.405L-0.127,0.428L-0.345,-0.241L-0.289,-0.563L2.505,-0.07L2.441,0.296L0,-0.135Z" style="fill:rgb(1,4,6);fill-rule:nonzero;"/>
            </g>
            <g transform="matrix(4.16667,0,0,4.16667,1412.58,1590.01)">
                <path d="M0,-2.096L0.248,-2.052L2.579,-0.387L2.51,0L0.251,-1.644L0.244,-1.645L0.002,-0.278L-0.311,-0.333L0,-2.096Z" style="fill:rgb(1,4,6);fill-rule:nonzero;"/>
            </g>
            <g transform="matrix(4.16667,0,0,4.16667,1424.08,1576.37)">
                <path d="M0,0.422C0.068,0.039 -0.352,-0.226 -1.066,-0.351C-1.753,-0.472 -2.233,-0.38 -2.304,0.015C-2.364,0.359 -1.966,0.66 -1.264,0.783C-0.541,0.92 -0.061,0.774 -0.001,0.426L0,0.422ZM0.29,0.49C0.193,1.036 -0.385,1.32 -1.31,1.165C-2.251,1 -2.69,0.501 -2.591,-0.066C-2.487,-0.651 -1.904,-0.898 -1.013,-0.741C-0.064,-0.574 0.398,-0.124 0.29,0.486L0.29,0.49Z" style="fill:rgb(1,4,6);fill-rule:nonzero;"/>
            </g>
            <g transform="matrix(4.16667,0,0,4.16667,1422.82,1548.34)">
                <path d="M0,-0.379L-0.002,-0.37L0.079,0.185L-0.221,0.154L-0.321,-0.542L-0.21,-0.849L2.457,0.121L2.329,0.47L0,-0.379Z" style="fill:rgb(1,4,6);fill-rule:nonzero;"/>
            </g>
            <g transform="matrix(4.16667,0,0,4.16667,1434.65,1538.82)">
                <path d="M0,0.632C0.111,0.325 -0.07,0.022 -0.453,-0.118C-0.834,-0.257 -1.143,-0.122 -1.264,0.21C-1.343,0.427 -1.286,0.68 -1.125,0.849C-1.091,0.885 -1.049,0.92 -0.982,0.944C-0.543,1.1 -0.14,1.014 -0.002,0.637L0,0.632ZM-1.956,-0.781C-1.988,-0.709 -2.014,-0.612 -2.034,-0.503C-2.152,0.1 -1.846,0.546 -1.424,0.769L-1.422,0.761C-1.548,0.571 -1.605,0.294 -1.498,-0.001C-1.326,-0.473 -0.86,-0.679 -0.344,-0.491C0.149,-0.313 0.478,0.185 0.276,0.742C0.068,1.308 -0.51,1.521 -1.202,1.268C-1.728,1.077 -2.074,0.741 -2.243,0.377C-2.381,0.076 -2.409,-0.268 -2.327,-0.619C-2.305,-0.732 -2.277,-0.823 -2.252,-0.889L-1.956,-0.781Z" style="fill:rgb(1,4,6);fill-rule:nonzero;"/>
            </g>
            <g transform="matrix(4.16667,0,0,4.16667,1437.85,1529.26)">
                <path d="M0,0.814C0.133,0.449 -0.234,0.116 -0.914,-0.132C-1.57,-0.37 -2.06,-0.364 -2.198,0.014C-2.318,0.342 -1.977,0.707 -1.309,0.951C-0.618,1.211 -0.122,1.15 -0.001,0.819L0,0.814ZM0.272,0.931C0.084,1.453 -0.535,1.631 -1.419,1.319C-2.318,0.992 -2.663,0.424 -2.466,-0.117C-2.263,-0.675 -1.646,-0.817 -0.796,-0.508C0.11,-0.176 0.486,0.345 0.274,0.927L0.272,0.931Z" style="fill:rgb(1,4,6);fill-rule:nonzero;"/>
            </g>
            <g transform="matrix(4.16667,0,0,4.16667,1442.02,1504.9)">
                <path d="M0,-0.739L-0.004,-0.731L-0.02,-0.172L-0.31,-0.253L-0.287,-0.956L-0.123,-1.24L2.332,0.18L2.147,0.501L0,-0.739Z" style="fill:rgb(1,4,6);fill-rule:nonzero;"/>
            </g>
            <g transform="matrix(4.16667,0,0,4.16667,1447.8,1501.99)">
                <path d="M0,-2.511L-0.542,-1.574L0.027,-1.119C0.052,-1.181 0.075,-1.237 0.127,-1.329C0.238,-1.521 0.387,-1.683 0.566,-1.781C0.782,-1.913 1.089,-1.947 1.406,-1.764C1.887,-1.486 2.026,-0.896 1.717,-0.364C1.562,-0.095 1.358,0.084 1.212,0.161L1.008,-0.069C1.127,-0.135 1.319,-0.293 1.45,-0.519C1.628,-0.829 1.582,-1.219 1.247,-1.407C0.922,-1.594 0.575,-1.508 0.293,-1.021C0.21,-0.878 0.158,-0.761 0.12,-0.661L-0.959,-1.497L-0.28,-2.672L0,-2.511Z" style="fill:rgb(1,4,6);fill-rule:nonzero;"/>
            </g>
            <g transform="matrix(4.16667,0,0,4.16667,1458.98,1486.13)">
                <path d="M0,1.179C0.194,0.842 -0.107,0.452 -0.734,0.088C-1.34,-0.261 -1.824,-0.339 -2.025,0.008C-2.201,0.311 -1.929,0.73 -1.312,1.086C-0.678,1.462 -0.179,1.488 -0.002,1.182L0,1.179ZM0.248,1.342C-0.028,1.822 -0.668,1.892 -1.485,1.429C-2.312,0.952 -2.555,0.333 -2.265,-0.166C-1.97,-0.681 -1.337,-0.713 -0.553,-0.26C0.28,0.222 0.562,0.803 0.251,1.339L0.248,1.342Z" style="fill:rgb(1,4,6);fill-rule:nonzero;"/>
            </g>
            <g transform="matrix(4.16667,0,0,4.16667,1468.42,1465.85)">
                <path d="M0,-1.08L-0.006,-1.073L-0.119,-0.524L-0.391,-0.655L-0.246,-1.343L-0.036,-1.594L2.138,0.23L1.899,0.514L0,-1.08Z" style="fill:rgb(1,4,6);fill-rule:nonzero;"/>
            </g>
            <g transform="matrix(4.16667,0,0,4.16667,1479.24,1456.7)">
                <path d="M0,0.214L-0.727,-0.398C-0.841,-0.494 -0.952,-0.592 -1.06,-0.694L-1.068,-0.684C-0.997,-0.511 -0.949,-0.379 -0.896,-0.231L-0.603,0.92L-0.598,0.926L0,0.214ZM0.82,0.902L0.227,0.405L-0.619,1.414L-0.81,1.253L-1.387,-0.883L-1.12,-1.2L0.234,-0.064L0.489,-0.368L0.716,-0.176L0.461,0.128L1.052,0.624L0.82,0.902Z" style="fill:rgb(1,4,6);fill-rule:nonzero;"/>
            </g>
            <g transform="matrix(4.16667,0,0,4.16667,1487.34,1446.84)">
                <path d="M0,1.544C0.25,1.247 0.02,0.808 -0.536,0.342C-1.07,-0.107 -1.535,-0.268 -1.792,0.04C-2.015,0.307 -1.821,0.767 -1.277,1.225C-0.717,1.705 -0.231,1.818 -0.003,1.547L0,1.544ZM0.216,1.748C-0.141,2.173 -0.782,2.129 -1.506,1.532C-2.238,0.918 -2.37,0.266 -1.998,-0.175C-1.617,-0.629 -0.987,-0.551 -0.296,0.03C0.442,0.651 0.616,1.27 0.219,1.745L0.216,1.748Z" style="fill:rgb(1,4,6);fill-rule:nonzero;"/>
            </g>
            <g transform="matrix(4.16667,0,0,4.16667,1501.82,1431.49)">
                <path d="M0,-1.388L-0.006,-1.382L-0.213,-0.862L-0.459,-1.037L-0.196,-1.689L0.055,-1.9L1.876,0.275L1.593,0.512L0,-1.388Z" style="fill:rgb(1,4,6);fill-rule:nonzero;"/>
            </g>
            <g transform="matrix(4.16667,0,0,4.16667,1511.19,1418.87)">
                <path d="M0,2.424C0.127,2.404 0.387,2.328 0.594,2.154C0.969,1.84 0.89,1.502 0.732,1.32C0.474,1.019 0.091,1.118 -0.195,1.357L-0.357,1.494L-0.543,1.274L-0.379,1.135C-0.165,0.956 0.013,0.619 -0.203,0.361C-0.348,0.188 -0.587,0.126 -0.858,0.354C-1.032,0.499 -1.134,0.716 -1.172,0.862L-1.433,0.715C-1.386,0.533 -1.234,0.264 -1.001,0.068C-0.573,-0.291 -0.165,-0.199 0.056,0.064C0.247,0.293 0.269,0.598 0.087,0.917L0.092,0.923C0.402,0.749 0.787,0.768 1.043,1.071C1.334,1.42 1.316,1.954 0.796,2.388C0.552,2.593 0.274,2.696 0.108,2.715L0,2.424Z" style="fill:rgb(1,4,6);fill-rule:nonzero;"/>
            </g>
            <g transform="matrix(4.16667,0,0,4.16667,1521.46,1413.77)">
                <path d="M0,1.827C0.298,1.577 0.147,1.105 -0.319,0.55C-0.767,0.015 -1.196,-0.225 -1.503,0.034C-1.771,0.258 -1.658,0.745 -1.202,1.291C-0.734,1.86 -0.275,2.057 -0.003,1.829L0,1.827ZM0.178,2.065C-0.247,2.422 -0.871,2.268 -1.482,1.553C-2.095,0.822 -2.112,0.157 -1.67,-0.213C-1.215,-0.595 -0.609,-0.408 -0.028,0.285C0.591,1.024 0.656,1.664 0.181,2.062L0.178,2.065Z" style="fill:rgb(1,4,6);fill-rule:nonzero;"/>
            </g>
            <g transform="matrix(4.16667,0,0,4.16667,1540.79,1403.43)">
                <path d="M0,-1.653L-0.008,-1.648L-0.302,-1.172L-0.512,-1.388L-0.141,-1.984L0.143,-2.148L1.559,0.309L1.239,0.495L0,-1.653Z" style="fill:rgb(1,4,6);fill-rule:nonzero;"/>
            </g>
            <g transform="matrix(4.16667,0,0,4.16667,1549.96,1389.67)">
                <path d="M0,3.24L-0.118,3.036L-0.003,2.632C0.28,1.673 0.385,1.19 0.171,0.819C0.026,0.57 -0.223,0.408 -0.59,0.619C-0.813,0.748 -0.933,0.967 -0.991,1.126L-1.233,0.953C-1.147,0.718 -0.964,0.467 -0.681,0.303C-0.154,0 0.277,0.234 0.48,0.585C0.741,1.039 0.625,1.596 0.394,2.393L0.306,2.687L0.31,2.694L1.41,2.059L1.57,2.336L0,3.24Z" style="fill:rgb(1,4,6);fill-rule:nonzero;"/>
            </g>
            <g transform="matrix(4.16667,0,0,4.16667,1560.72,1387.22)">
                <path d="M0,2.052C0.336,1.859 0.271,1.368 -0.091,0.74C-0.441,0.135 -0.82,-0.175 -1.169,0.025C-1.471,0.2 -1.445,0.7 -1.09,1.316C-0.728,1.959 -0.31,2.231 -0.003,2.054L0,2.052ZM0.133,2.318C-0.347,2.595 -0.935,2.335 -1.412,1.527C-1.89,0.698 -1.79,0.042 -1.291,-0.246C-0.775,-0.543 -0.211,-0.254 0.241,0.529C0.721,1.364 0.674,2.006 0.137,2.316L0.133,2.318Z" style="fill:rgb(1,4,6);fill-rule:nonzero;"/>
            </g>
            <g transform="matrix(4.16667,0,0,4.16667,1584.68,1382.21)">
                <path d="M0,-1.866L-0.009,-1.863L-0.381,-1.445L-0.55,-1.694L-0.081,-2.217L0.227,-2.329L1.195,0.338L0.845,0.463L0,-1.866Z" style="fill:rgb(1,4,6);fill-rule:nonzero;"/>
            </g>
            <g transform="matrix(4.16667,0,0,4.16667,1591.82,1379.62)">
                <path d="M0,-1.867L-0.009,-1.865L-0.38,-1.445L-0.55,-1.695L-0.081,-2.218L0.227,-2.33L1.195,0.337L0.847,0.463L0,-1.867Z" style="fill:rgb(1,4,6);fill-rule:nonzero;"/>
            </g>
            <g transform="matrix(4.16667,0,0,4.16667,1603.37,1368.29)">
                <path d="M0,2.218C0.365,2.085 0.385,1.59 0.136,0.909C-0.1,0.253 -0.421,-0.118 -0.799,0.019C-1.128,0.138 -1.188,0.635 -0.945,1.303C-0.702,1.999 -0.337,2.34 -0.005,2.219L0,2.218ZM0.085,2.502C-0.437,2.691 -0.971,2.333 -1.299,1.454C-1.626,0.557 -1.413,-0.073 -0.872,-0.27C-0.314,-0.473 0.193,-0.09 0.501,0.76C0.83,1.666 0.671,2.289 0.088,2.501L0.085,2.502Z" style="fill:rgb(1,4,6);fill-rule:nonzero;"/>
            </g>
            <g transform="matrix(4.16667,0,0,4.16667,1630.17,1369.1)">
                <path d="M0,-2.025L-0.007,-2.023L-0.449,-1.676L-0.572,-1.951L-0.018,-2.385L0.303,-2.442L0.794,0.353L0.429,0.417L0,-2.025Z" style="fill:rgb(1,4,6);fill-rule:nonzero;"/>
            </g>
            <g transform="matrix(4.16667,0,0,4.16667,1640.55,1358.63)">
                <path d="M0,2.314C0.384,2.246 0.489,1.763 0.362,1.05C0.243,0.361 -0.008,-0.06 -0.404,0.009C-0.747,0.07 -0.893,0.548 -0.772,1.248C-0.652,1.976 -0.352,2.376 -0.003,2.315L0,2.314ZM0.035,2.609C-0.512,2.704 -0.976,2.259 -1.145,1.336C-1.312,0.395 -0.992,-0.188 -0.425,-0.289C0.161,-0.39 0.591,0.075 0.747,0.965C0.914,1.914 0.65,2.502 0.04,2.608L0.035,2.609Z" style="fill:rgb(1,4,6);fill-rule:nonzero;"/>
            </g>
            <g transform="matrix(4.16667,0,0,4.16667,1650.12,1356.96)">
                <path d="M0,2.313C0.383,2.245 0.49,1.762 0.364,1.049C0.243,0.36 -0.008,-0.061 -0.404,0.009C-0.747,0.069 -0.894,0.547 -0.771,1.247C-0.652,1.975 -0.352,2.375 -0.004,2.314L0,2.313ZM0.035,2.608C-0.512,2.704 -0.975,2.258 -1.146,1.336C-1.31,0.394 -0.991,-0.19 -0.425,-0.289C0.161,-0.391 0.591,0.074 0.748,0.963C0.915,1.913 0.65,2.501 0.039,2.608L0.035,2.608Z" style="fill:rgb(1,4,6);fill-rule:nonzero;"/>
            </g>
            <g transform="matrix(4.16667,0,0,4.16667,1683.16,1364.22)">
                <path d="M0,-2.352C-0.324,-2.352 -0.555,-2.065 -0.556,-1.663C-0.556,-1.31 -0.342,-1.06 -0.01,-1.06C0.248,-1.06 0.449,-1.187 0.552,-1.357C0.57,-1.391 0.583,-1.435 0.583,-1.497C0.588,-1.985 0.405,-2.352 0.004,-2.352L0,-2.352ZM-0.695,-0.027C-0.615,-0.023 -0.519,-0.026 -0.387,-0.044C-0.165,-0.07 0.046,-0.162 0.206,-0.318C0.394,-0.489 0.529,-0.737 0.583,-1.074L0.57,-1.074C0.413,-0.88 0.186,-0.768 -0.103,-0.769C-0.614,-0.769 -0.939,-1.153 -0.939,-1.643C-0.938,-2.174 -0.545,-2.645 0.036,-2.645C0.615,-2.644 0.973,-2.177 0.972,-1.448C0.972,-0.824 0.761,-0.387 0.481,-0.113C0.264,0.096 -0.038,0.231 -0.344,0.266C-0.483,0.284 -0.609,0.293 -0.695,0.287L-0.695,-0.027Z" style="fill:rgb(1,4,6);fill-rule:nonzero;"/>
            </g>
            <g transform="matrix(4.16667,0,0,4.16667,1692.76,1354.45)">
                <path d="M0,2.339C0.388,2.339 0.578,1.881 0.578,1.157C0.578,0.458 0.404,0 0.003,-0.001C-0.346,-0.001 -0.574,0.445 -0.574,1.156C-0.584,1.893 -0.358,2.339 -0.003,2.339L0,2.339ZM-0.016,2.635C-0.572,2.635 -0.952,2.115 -0.959,1.177C-0.958,0.221 -0.543,-0.297 0.033,-0.297C0.627,-0.297 0.971,0.237 0.971,1.14C0.97,2.104 0.607,2.636 -0.013,2.635L-0.016,2.635Z" style="fill:rgb(1,4,6);fill-rule:nonzero;"/>
            </g>
            <g transform="matrix(4.16667,0,0,4.16667,1731.75,1367.56)">
                <path d="M0,-2.351C-0.314,-2.407 -0.523,-2.231 -0.566,-1.991C-0.619,-1.712 -0.432,-1.524 -0.125,-1.381C0.13,-1.42 0.346,-1.558 0.39,-1.812C0.43,-2.035 0.34,-2.291 0.004,-2.35L0,-2.351ZM-0.424,-0.011C-0.084,0.05 0.172,-0.122 0.223,-0.41C0.283,-0.746 0.075,-0.955 -0.283,-1.129C-0.627,-1.093 -0.842,-0.905 -0.89,-0.639C-0.952,-0.362 -0.782,-0.074 -0.429,-0.011L-0.424,-0.011ZM0.06,-2.62C0.601,-2.524 0.817,-2.141 0.756,-1.787C0.713,-1.552 0.547,-1.315 0.175,-1.217L0.173,-1.203C0.497,-1.004 0.667,-0.717 0.608,-0.382C0.52,0.108 0.048,0.356 -0.486,0.263C-1.07,0.158 -1.361,-0.248 -1.289,-0.657C-1.226,-1.009 -0.972,-1.225 -0.605,-1.311L-0.604,-1.323C-0.891,-1.525 -0.982,-1.79 -0.94,-2.03C-0.862,-2.473 -0.434,-2.707 0.056,-2.621L0.06,-2.62Z" style="fill:rgb(1,4,6);fill-rule:nonzero;"/>
            </g>
            <g transform="matrix(4.16667,0,0,4.16667,1739.35,1359.55)">
                <path d="M0,2.294C0.383,2.361 0.647,1.943 0.773,1.23C0.897,0.542 0.803,0.061 0.409,-0.01C0.065,-0.071 -0.237,0.328 -0.361,1.029C-0.498,1.754 -0.351,2.231 -0.003,2.293L0,2.294ZM-0.069,2.584C-0.615,2.486 -0.897,1.908 -0.743,0.983C-0.575,0.042 -0.078,-0.397 0.491,-0.296C1.075,-0.193 1.322,0.391 1.164,1.281C0.997,2.23 0.546,2.691 -0.064,2.584L-0.069,2.584Z" style="fill:rgb(1,4,6);fill-rule:nonzero;"/>
            </g>
            <g transform="matrix(4.16667,0,0,4.16667,1783.08,1376.91)">
                <path d="M0,-1.628L-0.086,-1.39L-2.133,0.614L-2.503,0.478L-0.49,-1.457L-0.486,-1.467L-1.791,-1.942L-1.681,-2.242L0,-1.628Z" style="fill:rgb(1,4,6);fill-rule:nonzero;"/>
            </g>
            <g transform="matrix(4.16667,0,0,4.16667,1784.18,1372.94)">
                <path d="M0,2.176C0.364,2.31 0.698,1.943 0.946,1.262C1.187,0.607 1.18,0.117 0.802,-0.021C0.474,-0.141 0.109,0.2 -0.135,0.867C-0.397,1.557 -0.337,2.053 -0.003,2.175L0,2.176ZM-0.118,2.449C-0.64,2.259 -0.817,1.64 -0.504,0.756C-0.175,-0.142 0.391,-0.487 0.934,-0.29C1.49,-0.086 1.632,0.533 1.322,1.381C0.99,2.287 0.467,2.663 -0.114,2.45L-0.118,2.449Z" style="fill:rgb(1,4,6);fill-rule:nonzero;"/>
            </g>
            <g transform="matrix(4.16667,0,0,4.16667,1818.51,1390.99)">
                <path d="M0,1.697C0.283,1.861 0.615,1.734 0.816,1.383C1.019,1.033 0.942,0.704 0.638,0.528C0.436,0.412 0.179,0.423 -0.018,0.552C-0.058,0.578 -0.099,0.615 -0.134,0.676C-0.366,1.082 -0.352,1.494 -0.003,1.695L0,1.697ZM1.733,0.018C1.668,-0.025 1.576,-0.068 1.474,-0.108C0.9,-0.328 0.408,-0.105 0.116,0.27L0.122,0.275C0.331,0.184 0.615,0.176 0.885,0.333C1.32,0.585 1.442,1.08 1.167,1.556C0.904,2.008 0.356,2.247 -0.156,1.949C-0.677,1.648 -0.786,1.04 -0.415,0.403C-0.136,-0.081 0.255,-0.364 0.643,-0.468C0.962,-0.55 1.308,-0.517 1.639,-0.375C1.746,-0.334 1.83,-0.289 1.892,-0.254L1.733,0.018Z" style="fill:rgb(1,4,6);fill-rule:nonzero;"/>
            </g>
            <g transform="matrix(4.16667,0,0,4.16667,1826.61,1394.44)">
                <path d="M0,1.995C0.337,2.189 0.727,1.886 1.091,1.26C1.441,0.655 1.52,0.172 1.173,-0.03C0.871,-0.205 0.451,0.067 0.095,0.682C-0.283,1.316 -0.309,1.816 -0.003,1.993L0,1.995ZM-0.163,2.243C-0.643,1.965 -0.712,1.325 -0.249,0.509C0.23,-0.318 0.849,-0.56 1.347,-0.271C1.861,0.025 1.892,0.659 1.44,1.442C0.957,2.276 0.376,2.555 -0.159,2.245L-0.163,2.243Z" style="fill:rgb(1,4,6);fill-rule:nonzero;"/>
            </g>
            <g transform="matrix(4.16667,0,0,4.16667,1865.91,1421.68)">
                <path d="M0,-0.592L-0.828,-1.288L-1.375,-0.808C-1.32,-0.772 -1.267,-0.739 -1.186,-0.673C-1.016,-0.529 -0.883,-0.354 -0.818,-0.162C-0.725,0.075 -0.746,0.383 -0.982,0.664C-1.339,1.087 -1.944,1.121 -2.414,0.725C-2.651,0.525 -2.793,0.294 -2.843,0.136L-2.582,-0.025C-2.536,0.103 -2.415,0.319 -2.214,0.488C-1.941,0.718 -1.549,0.74 -1.305,0.443C-1.063,0.156 -1.087,-0.201 -1.518,-0.563C-1.645,-0.67 -1.75,-0.741 -1.842,-0.796L-0.831,-1.713L0.208,-0.84L0,-0.592Z" style="fill:rgb(1,4,6);fill-rule:nonzero;"/>
            </g>
            <g transform="matrix(4.16667,0,0,4.16667,1864.43,1423.01)">
                <path d="M0,1.752C0.297,2.002 0.737,1.772 1.203,1.217C1.652,0.683 1.813,0.221 1.505,-0.039C1.24,-0.263 0.779,-0.069 0.322,0.475C-0.161,1.035 -0.273,1.521 -0.004,1.75L0,1.752ZM-0.204,1.968C-0.629,1.611 -0.584,0.969 0.012,0.245C0.628,-0.486 1.279,-0.617 1.72,-0.246C2.174,0.137 2.096,0.766 1.514,1.458C0.893,2.195 0.273,2.369 -0.2,1.97L-0.204,1.968Z" style="fill:rgb(1,4,6);fill-rule:nonzero;"/>
            </g>
            <g transform="matrix(4.16667,0,0,4.16667,1894.3,1454.67)">
                <path d="M0,0.21L0.729,-0.401C0.841,-0.496 0.959,-0.588 1.079,-0.676L1.07,-0.687C0.887,-0.647 0.748,-0.622 0.594,-0.596L-0.591,-0.509L-0.597,-0.503L0,0.21ZM-0.821,0.895L-0.229,0.4L-1.074,-0.61L-0.883,-0.77L1.321,-0.964L1.587,-0.647L0.231,0.488L0.487,0.792L0.258,0.982L0.004,0.679L-0.588,1.174L-0.821,0.895Z" style="fill:rgb(1,4,6);fill-rule:nonzero;"/>
            </g>
            <g transform="matrix(4.16667,0,0,4.16667,1897.14,1458.21)">
                <path d="M0,1.455C0.249,1.753 0.721,1.602 1.277,1.138C1.812,0.69 2.052,0.262 1.795,-0.045C1.569,-0.314 1.084,-0.202 0.537,0.255C-0.033,0.721 -0.229,1.18 -0.002,1.452L0,1.455ZM-0.238,1.633C-0.595,1.207 -0.439,0.583 0.275,-0.026C1.008,-0.639 1.671,-0.655 2.041,-0.213C2.423,0.243 2.236,0.848 1.542,1.429C0.803,2.047 0.161,2.11 -0.235,1.635L-0.238,1.633Z" style="fill:rgb(1,4,6);fill-rule:nonzero;"/>
            </g>
            <g transform="matrix(4.16667,0,0,4.16667,1917.55,1493.22)">
                <path d="M0,-0.376C-0.002,-0.249 0.027,0.021 0.163,0.255C0.406,0.68 0.754,0.662 0.959,0.538C1.301,0.337 1.271,-0.06 1.084,-0.381L0.978,-0.566L1.228,-0.71L1.335,-0.524C1.474,-0.282 1.775,-0.048 2.066,-0.215C2.263,-0.328 2.365,-0.553 2.188,-0.86C2.076,-1.057 1.88,-1.196 1.743,-1.259L1.934,-1.489C2.103,-1.411 2.343,-1.215 2.494,-0.95C2.774,-0.465 2.612,-0.08 2.312,0.091C2.055,0.24 1.75,0.208 1.469,-0.028L1.462,-0.024C1.579,0.313 1.493,0.688 1.149,0.887C0.756,1.113 0.233,1.001 -0.104,0.415C-0.262,0.138 -0.316,-0.154 -0.306,-0.321L0,-0.376Z" style="fill:rgb(1,4,6);fill-rule:nonzero;"/>
            </g>
            <g transform="matrix(4.16667,0,0,4.16667,1923.22,1498.24)">
                <path d="M0,1.165C0.194,1.502 0.685,1.437 1.313,1.075C1.918,0.727 2.229,0.346 2.028,-0.002C1.854,-0.304 1.355,-0.279 0.739,0.076C0.094,0.436 -0.178,0.855 -0.002,1.161L0,1.165ZM-0.266,1.298C-0.542,0.818 -0.28,0.23 0.529,-0.245C1.357,-0.723 2.014,-0.623 2.301,-0.123C2.597,0.391 2.307,0.955 1.524,1.406C0.689,1.888 0.045,1.839 -0.262,1.302L-0.266,1.298Z" style="fill:rgb(1,4,6);fill-rule:nonzero;"/>
            </g>
            <g transform="matrix(4.16667,0,0,4.16667,1936.83,1537.78)">
                <path d="M0,-0.889L0.221,-0.97L0.598,-0.786C1.494,-0.339 1.953,-0.152 2.354,-0.298C2.625,-0.395 2.83,-0.614 2.685,-1.012C2.598,-1.254 2.402,-1.411 2.256,-1.496L2.468,-1.703C2.684,-1.578 2.899,-1.355 3.012,-1.047C3.218,-0.476 2.912,-0.092 2.53,0.047C2.038,0.226 1.51,0.012 0.765,-0.354L0.494,-0.492L0.485,-0.488L0.916,0.706L0.617,0.814L0,-0.889Z" style="fill:rgb(1,4,6);fill-rule:nonzero;"/>
            </g>
            <g transform="matrix(4.16667,0,0,4.16667,1942.24,1542.66)">
                <path d="M0,0.793C0.132,1.159 0.627,1.179 1.307,0.933C1.965,0.694 2.336,0.374 2.199,-0.003C2.08,-0.332 1.584,-0.393 0.916,-0.152C0.219,0.093 -0.123,0.457 -0.002,0.789L0,0.793ZM-0.285,0.877C-0.473,0.357 -0.116,-0.177 0.764,-0.505C1.663,-0.831 2.292,-0.617 2.489,-0.076C2.69,0.483 2.308,0.989 1.458,1.295C0.551,1.624 -0.072,1.464 -0.284,0.882L-0.285,0.877Z" style="fill:rgb(1,4,6);fill-rule:nonzero;"/>
            </g>
            <g transform="matrix(4.16667,0,0,4.16667,1961.1,1581.75)">
                <path d="M0,-0.22L-0.002,-0.229L-0.349,-0.669L-0.075,-0.792L0.36,-0.239L0.417,0.084L-2.378,0.572L-2.442,0.206L0,-0.22Z" style="fill:rgb(1,4,6);fill-rule:nonzero;"/>
            </g>
            <g transform="matrix(4.16667,0,0,4.16667,1953.48,1589.57)">
                <path d="M0,0.395C0.067,0.778 0.55,0.884 1.264,0.76C1.952,0.639 2.374,0.389 2.304,-0.007C2.246,-0.351 1.766,-0.498 1.066,-0.376C0.339,-0.257 -0.061,0.043 -0.002,0.391L0,0.395ZM-0.296,0.429C-0.39,-0.117 0.056,-0.581 0.978,-0.751C1.92,-0.914 2.504,-0.595 2.603,-0.028C2.704,0.557 2.239,0.989 1.349,1.143C0.4,1.309 -0.188,1.044 -0.294,0.434L-0.296,0.429Z" style="fill:rgb(1,4,6);fill-rule:nonzero;"/>
            </g>
            <g transform="matrix(4.16667,0,0,4.16667,1956.74,1633.83)">
                <path d="M0,-0.016C0,0.373 0.458,0.562 1.181,0.562C1.881,0.564 2.339,0.39 2.34,-0.011C2.341,-0.361 1.896,-0.587 1.185,-0.59C0.447,-0.6 0.001,-0.373 0,-0.02L0,-0.016ZM-0.296,-0.033C-0.294,-0.587 0.225,-0.967 1.164,-0.973C2.119,-0.972 2.637,-0.556 2.636,0.02C2.636,0.614 2.102,0.957 1.198,0.956C0.234,0.954 -0.297,0.59 -0.296,-0.028L-0.296,-0.033Z" style="fill:rgb(1,4,6);fill-rule:nonzero;"/>
            </g>
            <g transform="matrix(0.0581339,4.16626,4.16626,-0.0581339,1999.07,1620.63)">
                <rect x="1.607" y="-1.785" width="0.203" height="3.415" style="fill:rgb(1,4,6);"/>
            </g>
            <g transform="matrix(0.154932,4.16379,4.16379,-0.154932,1998.64,1615.19)">
                <rect x="1.598" y="-1.755" width="0.223" height="3.413" style="fill:rgb(1,4,6);"/>
            </g>
            <g transform="matrix(0.2129,4.16122,4.16122,-0.2129,1998.18,1609.76)">
                <rect x="1.605" y="-1.725" width="0.211" height="3.415" style="fill:rgb(1,4,6);"/>
            </g>
            <g transform="matrix(0.289993,4.15656,4.15656,-0.289993,1997.59,1604.35)">
                <rect x="1.603" y="-1.696" width="0.215" height="3.414" style="fill:rgb(1,4,6);"/>
            </g>
            <g transform="matrix(0.447321,4.14259,4.14259,-0.447321,1996.13,1593.58)">
                <rect x="1.598" y="-1.635" width="0.224" height="3.415" style="fill:rgb(1,4,6);"/>
            </g>
            <g transform="matrix(0.521566,4.13389,4.13389,-0.521566,1995.27,1588.22)">
                <rect x="1.593" y="-1.606" width="0.227" height="3.413" style="fill:rgb(1,4,6);"/>
            </g>
            <g transform="matrix(0.581119,4.12594,4.12594,-0.581119,1994.34,1582.88)">
                <rect x="1.597" y="-1.577" width="0.216" height="3.414" style="fill:rgb(1,4,6);"/>
            </g>
            <g transform="matrix(0.637929,4.11754,4.11754,-0.637929,1993.32,1577.55)">
                <rect x="1.6" y="-1.547" width="0.204" height="3.415" style="fill:rgb(1,4,6);"/>
            </g>
            <g transform="matrix(0.772533,4.09442,4.09442,-0.772533,1990.96,1566.98)">
                <rect x="1.597" y="-1.488" width="0.198" height="3.415" style="fill:rgb(1,4,6);"/>
            </g>
            <g transform="matrix(0.887526,4.07105,4.07105,-0.887526,1989.57,1561.76)">
                <rect x="1.576" y="-1.458" width="0.235" height="3.414" style="fill:rgb(1,4,6);"/>
            </g>
            <g transform="matrix(0.910026,4.06607,4.06607,-0.910026,1988.24,1556.51)">
                <rect x="1.592" y="-1.429" width="0.193" height="3.416" style="fill:rgb(1,4,6);"/>
            </g>
            <g transform="matrix(1.0015,4.04452,4.04452,-1.0015,1986.71,1551.34)">
                <rect x="1.577" y="-1.4" width="0.21" height="3.415" style="fill:rgb(1,4,6);"/>
            </g>
            <g transform="matrix(1.14211,4.00708,4.00708,-1.14211,1983.45,1541.06)">
                <rect x="1.566" y="-1.341" width="0.21" height="3.415" style="fill:rgb(1,4,6);"/>
            </g>
            <g transform="matrix(1.23621,3.97906,3.97906,-1.23621,1981.66,1535.99)">
                <rect x="1.548" y="-1.311" width="0.231" height="3.413" style="fill:rgb(1,4,6);"/>
            </g>
            <g transform="matrix(1.29441,3.96051,3.96051,-1.29441,1979.83,1530.93)">
                <rect x="1.546" y="-1.282" width="0.221" height="3.414" style="fill:rgb(1,4,6);"/>
            </g>
            <g transform="matrix(1.35829,3.93905,3.93905,-1.35829,1977.9,1525.9)">
                <rect x="1.541" y="-1.253" width="0.217" height="3.414" style="fill:rgb(1,4,6);"/>
            </g>
            <g transform="matrix(1.48412,3.89339,3.89339,-1.48412,1973.8,1515.97)">
                <rect x="1.528" y="-1.197" width="0.208" height="3.415" style="fill:rgb(1,4,6);"/>
            </g>
            <g transform="matrix(1.57084,3.85922,3.85922,-1.57084,1971.58,1511.09)">
                <rect x="1.511" y="-1.168" width="0.225" height="3.414" style="fill:rgb(1,4,6);"/>
            </g>
            <g transform="matrix(1.6507,3.82574,3.82574,-1.6507,1969.29,1506.25)">
                <rect x="1.497" y="-1.138" width="0.236" height="3.414" style="fill:rgb(1,4,6);"/>
            </g>
            <g transform="matrix(1.68326,3.81153,3.81153,-1.68326,1967,1501.39)">
                <rect x="1.501" y="-1.112" width="0.206" height="3.415" style="fill:rgb(1,4,6);"/>
            </g>
            <g transform="matrix(1.83246,3.74208,3.74208,-1.83246,1962.04,1491.93)">
                <rect x="1.471" y="-1.055" width="0.221" height="3.414" style="fill:rgb(1,4,6);"/>
            </g>
            <g transform="matrix(1.88645,3.71516,3.71516,-1.88645,1959.47,1487.23)">
                <rect x="1.464" y="-1.029" width="0.212" height="3.415" style="fill:rgb(1,4,6);"/>
            </g>
            <g transform="matrix(1.95576,3.67915,3.67915,-1.95576,1956.79,1482.61)">
                <rect x="1.45" y="-1.001" width="0.216" height="3.414" style="fill:rgb(1,4,6);"/>
            </g>
            <g transform="matrix(2.04642,3.6295,3.6295,-2.04642,1954.02,1478.07)">
                <rect x="1.426" y="-0.973" width="0.24" height="3.414" style="fill:rgb(1,4,6);"/>
            </g>
            <g transform="matrix(2.15228,3.56774,3.56774,-2.15228,1948.33,1469.05)">
                <rect x="1.409" y="-0.92" width="0.222" height="3.414" style="fill:rgb(1,4,6);"/>
            </g>
            <g transform="matrix(2.19783,3.53987,3.53987,-2.19783,1945.38,1464.6)">
                <rect x="1.402" y="-0.894" width="0.206" height="3.414" style="fill:rgb(1,4,6);"/>
            </g>
            <g transform="matrix(2.27078,3.49352,3.49352,-2.27078,1942.33,1460.25)">
                <rect x="1.382" y="-0.867" width="0.216" height="3.415" style="fill:rgb(1,4,6);"/>
            </g>
            <g transform="matrix(2.33345,3.45197,3.45197,-2.33345,1939.22,1455.95)">
                <rect x="1.366" y="-0.842" width="0.219" height="3.415" style="fill:rgb(1,4,6);"/>
            </g>
            <g transform="matrix(2.45646,3.36555,3.36555,-2.45646,1932.78,1447.51)">
                <rect x="1.333" y="-0.79" width="0.222" height="3.413" style="fill:rgb(1,4,6);"/>
            </g>
            <g transform="matrix(2.5,3.33333,3.33333,-2.5,1929.47,1443.33)">
                <rect x="1.324" y="-0.766" width="0.209" height="3.415" style="fill:rgb(1,4,6);"/>
            </g>
            <g transform="matrix(2.54328,3.30043,3.30043,-2.54328,1926.09,1439.23)">
                <rect x="1.315" y="-0.741" width="0.191" height="3.415" style="fill:rgb(1,4,6);"/>
            </g>
            <g transform="matrix(2.61943,3.24033,3.24033,-2.61943,1922.62,1435.26)">
                <rect x="1.288" y="-0.716" width="0.211" height="3.414" style="fill:rgb(1,4,6);"/>
            </g>
            <g transform="matrix(2.73552,3.14294,3.14294,-2.73552,1915.51,1427.42)">
                <rect x="1.251" y="-0.668" width="0.217" height="3.414" style="fill:rgb(1,4,6);"/>
            </g>
            <g transform="matrix(2.78735,3.09706,3.09706,-2.78735,1911.87,1423.59)">
                <rect x="1.233" y="-0.645" width="0.216" height="3.414" style="fill:rgb(1,4,6);"/>
            </g>
            <g transform="matrix(2.82778,3.0602,3.0602,-2.82778,1908.17,1419.79)">
                <rect x="1.222" y="-0.622" width="0.201" height="3.415" style="fill:rgb(1,4,6);"/>
            </g>
            <g transform="matrix(2.91716,2.97511,2.97511,-2.91716,1904.38,1416.18)">
                <rect x="1.183" y="-0.598" width="0.241" height="3.414" style="fill:rgb(1,4,6);"/>
            </g>
            <g transform="matrix(2.98479,2.90726,2.90726,-2.98479,1896.67,1408.91)">
                <rect x="1.163" y="-0.554" width="0.201" height="3.416" style="fill:rgb(1,4,6);"/>
            </g>
            <g transform="matrix(3.05055,2.83817,2.83817,-3.05055,1892.73,1405.45)">
                <rect x="1.133" y="-0.532" width="0.22" height="3.413" style="fill:rgb(1,4,6);"/>
            </g>
            <g transform="matrix(3.08835,2.797,2.797,-3.08835,1888.72,1402)">
                <rect x="1.119" y="-0.511" width="0.205" height="3.414" style="fill:rgb(1,4,6);"/>
            </g>
            <g transform="matrix(3.13453,2.74515,2.74515,-3.13453,1884.66,1398.65)">
                <rect x="1.1" y="-0.489" width="0.201" height="3.416" style="fill:rgb(1,4,6);"/>
            </g>
            <g transform="matrix(3.24033,2.61943,2.61943,-3.24033,1876.39,1392.18)">
                <rect x="1.049" y="-0.448" width="0.217" height="3.414" style="fill:rgb(1,4,6);"/>
            </g>
            <g transform="matrix(3.28897,2.55809,2.55809,-3.28897,1872.18,1389.05)">
                <rect x="1.024" y="-0.428" width="0.224" height="3.413" style="fill:rgb(1,4,6);"/>
            </g>
            <g transform="matrix(3.31697,2.52167,2.52167,-3.31697,1867.91,1385.95)">
                <rect x="1.013" y="-0.409" width="0.2" height="3.415" style="fill:rgb(1,4,6);"/>
            </g>
            <g transform="matrix(3.37223,2.44728,2.44728,-3.37223,1863.6,1382.98)">
                <rect x="0.982" y="-0.389" width="0.218" height="3.415" style="fill:rgb(1,4,6);"/>
            </g>
            <g transform="matrix(3.46092,2.32017,2.32017,-3.46092,1854.84,1377.24)">
                <rect x="0.932" y="-0.352" width="0.225" height="3.414" style="fill:rgb(1,4,6);"/>
            </g>
            <g transform="matrix(3.49352,2.27078,2.27078,-3.49352,1850.39,1374.45)">
                <rect x="0.913" y="-0.334" width="0.214" height="3.413" style="fill:rgb(1,4,6);"/>
            </g>
            <g transform="matrix(3.53114,2.21182,2.21182,-3.53114,1845.89,1371.76)">
                <rect x="0.89" y="-0.317" width="0.212" height="3.414" style="fill:rgb(1,4,6);"/>
            </g>
            <g transform="matrix(3.57797,2.13524,2.13524,-3.57797,1841.36,1369.18)">
                <rect x="0.859" y="-0.299" width="0.226" height="3.415" style="fill:rgb(1,4,6);"/>
            </g>
            <g transform="matrix(3.64598,2.01692,2.01692,-3.64598,1832.16,1364.17)">
                <rect x="0.813" y="-0.266" width="0.218" height="3.416" style="fill:rgb(1,4,6);"/>
            </g>
            <g transform="matrix(3.68339,1.94776,1.94776,-3.68339,1827.51,1361.8)">
                <rect x="0.785" y="-0.251" width="0.226" height="3.413" style="fill:rgb(1,4,6);"/>
            </g>
            <g transform="matrix(3.719,1.87887,1.87887,-3.719,1822.83,1359.51)">
                <rect x="0.758" y="-0.235" width="0.228" height="3.414" style="fill:rgb(1,4,6);"/>
            </g>
            <g transform="matrix(3.74208,1.83246,1.83246,-3.74208,1818.08,1357.26)">
                <rect x="0.74" y="-0.22" width="0.21" height="3.416" style="fill:rgb(1,4,6);"/>
            </g>
            <g transform="matrix(3.81466,1.67614,1.67614,-3.81466,1808.55,1353.11)">
                <rect x="0.677" y="-0.191" width="0.233" height="3.415" style="fill:rgb(1,4,6);"/>
            </g>
            <g transform="matrix(3.83278,1.63428,1.63428,-3.83278,1803.7,1351.09)">
                <rect x="0.661" y="-0.178" width="0.21" height="3.414" style="fill:rgb(1,4,6);"/>
            </g>
            <g transform="matrix(3.85922,1.57084,1.57084,-3.85922,1798.83,1349.2)">
                <rect x="0.636" y="-0.165" width="0.207" height="3.415" style="fill:rgb(1,4,6);"/>
            </g>
            <g transform="matrix(3.89339,1.48412,1.48412,-3.89339,1793.97,1347.41)">
                <rect x="0.601" y="-0.152" width="0.223" height="3.415" style="fill:rgb(1,4,6);"/>
            </g>
            <g transform="matrix(3.93905,1.35829,1.35829,-3.93905,1784.1,1344.03)">
                <rect x="0.551" y="-0.128" width="0.212" height="3.415" style="fill:rgb(1,4,6);"/>
            </g>
            <g transform="matrix(3.96236,1.28873,1.28873,-3.96236,1779.13,1342.45)">
                <rect x="0.523" y="-0.117" width="0.216" height="3.413" style="fill:rgb(1,4,6);"/>
            </g>
            <g transform="matrix(3.98075,1.23076,1.23076,-3.98075,1774.13,1340.97)">
                <rect x="0.5" y="-0.106" width="0.205" height="3.414" style="fill:rgb(1,4,6);"/>
            </g>
            <g transform="matrix(4.00043,1.16518,1.16518,-4.00043,1769.11,1339.57)">
                <rect x="0.474" y="-0.096" width="0.201" height="3.416" style="fill:rgb(1,4,6);"/>
            </g>
            <g transform="matrix(4.04897,0.983322,0.983322,-4.04897,1759.09,1337.07)">
                <rect x="0.4" y="-0.076" width="0.236" height="3.414" style="fill:rgb(1,4,6);"/>
            </g>
            <g transform="matrix(4.06191,0.928437,0.928437,-4.06191,1753.99,1335.91)">
                <rect x="0.377" y="-0.068" width="0.225" height="3.413" style="fill:rgb(1,4,6);"/>
            </g>
            <g transform="matrix(4.07811,0.854462,0.854462,-4.07811,1748.91,1334.86)">
                <rect x="0.348" y="-0.059" width="0.226" height="3.413" style="fill:rgb(1,4,6);"/>
            </g>
            <g transform="matrix(4.09016,0.794771,0.794771,-4.09016,1743.78,1333.87)">
                <rect x="0.324" y="-0.052" width="0.216" height="3.415" style="fill:rgb(1,4,6);"/>
            </g>
            <g transform="matrix(4.11709,0.640867,0.640867,-4.11709,1733.55,1332.2)">
                <rect x="0.261" y="-0.037" width="0.222" height="3.415" style="fill:rgb(1,4,6);"/>
            </g>
            <g transform="matrix(4.12858,0.562107,0.562107,-4.12858,1728.42,1331.48)">
                <rect x="0.229" y="-0.031" width="0.231" height="3.412" style="fill:rgb(1,4,6);"/>
            </g>
            <g transform="matrix(4.13625,0.502535,0.502535,-4.13625,1723.24,1330.84)">
                <rect x="0.205" y="-0.026" width="0.22" height="3.414" style="fill:rgb(1,4,6);"/>
            </g>
            <g transform="matrix(4.14281,0.445255,0.445255,-4.14281,1718.05,1330.29)">
                <rect x="0.182" y="-0.021" width="0.207" height="3.416" style="fill:rgb(1,4,6);"/>
            </g>
            <g transform="matrix(4.15656,0.289993,0.289993,-4.15656,1707.73,1329.47)">
                <rect x="0.119" y="-0.012" width="0.216" height="3.416" style="fill:rgb(1,4,6);"/>
            </g>
            <g transform="matrix(4.16127,0.211917,0.211917,-4.16127,1702.55,1329.18)">
                <rect x="0.087" y="-0.008" width="0.222" height="3.413" style="fill:rgb(1,4,6);"/>
            </g>
            <g transform="matrix(4.16448,0.13496,0.13496,-4.16448,1697.38,1328.98)">
                <rect x="0.055" y="-0.005" width="0.225" height="3.413" style="fill:rgb(1,4,6);"/>
            </g>
            <g transform="matrix(4.16595,0.0771473,0.0771473,-4.16595,1692.17,1328.86)">
                <rect x="0.032" y="-0.002" width="0.212" height="3.416" style="fill:rgb(1,4,6);"/>
            </g>
            <g transform="matrix(0.0731951,4.16602,4.16602,-0.0731951,1689.09,1321.07)">
                <rect x="-1.57" y="-1.814" width="3.415" height="0.216" style="fill:rgb(1,4,6);"/>
            </g>
            <g transform="matrix(0.142836,4.16422,4.16422,-0.142836,1683.63,1320.97)">
                <rect x="-1.54" y="-1.81" width="3.413" height="0.216" style="fill:rgb(1,4,6);"/>
            </g>
            <g transform="matrix(0.218419,4.16094,4.16094,-0.218419,1678.16,1320.96)">
                <rect x="-1.51" y="-1.807" width="3.414" height="0.215" style="fill:rgb(1,4,6);"/>
            </g>
            <g transform="matrix(0.291574,4.15645,4.15645,-0.291574,1672.68,1321.05)">
                <rect x="-1.481" y="-1.803" width="3.415" height="0.215" style="fill:rgb(1,4,6);"/>
            </g>
            <g transform="matrix(0.435488,4.14385,4.14385,-0.435488,1661.74,1321.51)">
                <rect x="-1.422" y="-1.796" width="3.415" height="0.216" style="fill:rgb(1,4,6);"/>
            </g>
            <g transform="matrix(0.505244,4.13592,4.13592,-0.505244,1656.27,1321.89)">
                <rect x="-1.392" y="-1.79" width="3.415" height="0.218" style="fill:rgb(1,4,6);"/>
            </g>
            <g transform="matrix(0.578657,4.12629,4.12629,-0.578657,1650.8,1322.37)">
                <rect x="-1.363" y="-1.784" width="3.414" height="0.217" style="fill:rgb(1,4,6);"/>
            </g>
            <g transform="matrix(0.652726,4.11522,4.11522,-0.652726,1645.34,1322.93)">
                <rect x="-1.334" y="-1.777" width="3.416" height="0.215" style="fill:rgb(1,4,6);"/>
            </g>
            <g transform="matrix(0.795552,4.09001,4.09001,-0.795552,1634.43,1324.36)">
                <rect x="-1.275" y="-1.763" width="3.415" height="0.216" style="fill:rgb(1,4,6);"/>
            </g>
            <g transform="matrix(0.86545,4.0758,4.0758,-0.86545,1628.99,1325.23)">
                <rect x="-1.247" y="-1.755" width="3.414" height="0.216" style="fill:rgb(1,4,6);"/>
            </g>
            <g transform="matrix(0.937182,4.0599,4.0599,-0.937182,1623.57,1326.19)">
                <rect x="-1.218" y="-1.747" width="3.414" height="0.216" style="fill:rgb(1,4,6);"/>
            </g>
            <g transform="matrix(1.00769,4.04298,4.04298,-1.00769,1618.16,1327.24)">
                <rect x="-1.191" y="-1.739" width="3.415" height="0.215" style="fill:rgb(1,4,6);"/>
            </g>
            <g transform="matrix(1.14918,4.00506,4.00506,-1.14918,1607.38,1329.64)">
                <rect x="-1.134" y="-1.719" width="3.416" height="0.214" style="fill:rgb(1,4,6);"/>
            </g>
            <g transform="matrix(1.21652,3.98512,3.98512,-1.21652,1602.02,1330.99)">
                <rect x="-1.105" y="-1.71" width="3.415" height="0.216" style="fill:rgb(1,4,6);"/>
            </g>
            <g transform="matrix(1.28756,3.96274,3.96274,-1.28756,1596.68,1332.43)">
                <rect x="-1.077" y="-1.697" width="3.413" height="0.215" style="fill:rgb(1,4,6);"/>
            </g>
            <g transform="matrix(1.35672,3.9396,3.9396,-1.35672,1591.36,1333.96)">
                <rect x="-1.05" y="-1.687" width="3.415" height="0.215" style="fill:rgb(1,4,6);"/>
            </g>
            <g transform="matrix(1.49411,3.88957,3.88957,-1.49411,1580.8,1337.31)">
                <rect x="-0.995" y="-1.663" width="3.415" height="0.216" style="fill:rgb(1,4,6);"/>
            </g>
            <g transform="matrix(1.55966,3.86375,3.86375,-1.55966,1575.56,1339.14)">
                <rect x="-0.968" y="-1.65" width="3.414" height="0.215" style="fill:rgb(1,4,6);"/>
            </g>
            <g transform="matrix(1.62792,3.83549,3.83549,-1.62792,1570.36,1341.06)">
                <rect x="-0.941" y="-1.637" width="3.414" height="0.215" style="fill:rgb(1,4,6);"/>
            </g>
            <g transform="matrix(1.69462,3.80649,3.80649,-1.69462,1565.18,1343.07)">
                <rect x="-0.915" y="-1.624" width="3.415" height="0.214" style="fill:rgb(1,4,6);"/>
            </g>
            <g transform="matrix(1.82621,3.74514,3.74514,-1.82621,1554.93,1347.36)">
                <rect x="-0.863" y="-1.596" width="3.416" height="0.216" style="fill:rgb(1,4,6);"/>
            </g>
            <g transform="matrix(1.89068,3.71301,3.71301,-1.89068,1549.86,1349.65)">
                <rect x="-0.836" y="-1.58" width="3.414" height="0.215" style="fill:rgb(1,4,6);"/>
            </g>
            <g transform="matrix(1.95603,3.679,3.679,-1.95603,1544.82,1352.04)">
                <rect x="-0.811" y="-1.565" width="3.414" height="0.216" style="fill:rgb(1,4,6);"/>
            </g>
            <g transform="matrix(2.0203,3.6441,3.6441,-2.0203,1539.82,1354.5)">
                <rect x="-0.786" y="-1.549" width="3.416" height="0.216" style="fill:rgb(1,4,6);"/>
            </g>
            <g transform="matrix(2.1466,3.57116,3.57116,-2.1466,1529.96,1359.72)">
                <rect x="-0.736" y="-1.516" width="3.416" height="0.215" style="fill:rgb(1,4,6);"/>
            </g>
            <g transform="matrix(2.20745,3.53387,3.53387,-2.20745,1525.1,1362.46)">
                <rect x="-0.712" y="-1.498" width="3.414" height="0.214" style="fill:rgb(1,4,6);"/>
            </g>
            <g transform="matrix(2.26825,3.49516,3.49516,-2.26825,1520.29,1365.3)">
                <rect x="-0.688" y="-1.481" width="3.413" height="0.216" style="fill:rgb(1,4,6);"/>
            </g>
            <g transform="matrix(2.32952,3.45463,3.45463,-2.32952,1515.52,1368.21)">
                <rect x="-0.664" y="-1.463" width="3.415" height="0.216" style="fill:rgb(1,4,6);"/>
            </g>
            <g transform="matrix(2.44876,3.37116,3.37116,-2.44876,1506.13,1374.3)">
                <rect x="-0.617" y="-1.426" width="3.415" height="0.216" style="fill:rgb(1,4,6);"/>
            </g>
            <g transform="matrix(2.50624,3.32864,3.32864,-2.50624,1501.52,1377.48)">
                <rect x="-0.594" y="-1.407" width="3.414" height="0.216" style="fill:rgb(1,4,6);"/>
            </g>
            <g transform="matrix(2.56476,3.28377,3.28377,-2.56476,1496.97,1380.74)">
                <rect x="-0.571" y="-1.387" width="3.414" height="0.216" style="fill:rgb(1,4,6);"/>
            </g>
            <g transform="matrix(2.62338,3.23713,3.23713,-2.62338,1492.46,1384.08)">
                <rect x="-0.548" y="-1.367" width="3.416" height="0.215" style="fill:rgb(1,4,6);"/>
            </g>
            <g transform="matrix(2.73356,3.14464,3.14464,-2.73356,1483.64,1391.02)">
                <rect x="-0.506" y="-1.326" width="3.416" height="0.215" style="fill:rgb(1,4,6);"/>
            </g>
            <g transform="matrix(2.78722,3.09718,3.09718,-2.78722,1479.32,1394.6)">
                <rect x="-0.485" y="-1.305" width="3.414" height="0.215" style="fill:rgb(1,4,6);"/>
            </g>
            <g transform="matrix(2.8426,3.04643,3.04643,-2.8426,1475.06,1398.27)">
                <rect x="-0.464" y="-1.282" width="3.414" height="0.214" style="fill:rgb(1,4,6);"/>
            </g>
            <g transform="matrix(2.8946,2.99706,2.99706,-2.8946,1470.87,1402.02)">
                <rect x="-0.444" y="-1.261" width="3.414" height="0.216" style="fill:rgb(1,4,6);"/>
            </g>
            <g transform="matrix(2.99648,2.89521,2.89521,-2.99648,1462.7,1409.73)">
                <rect x="-0.405" y="-1.217" width="3.415" height="0.216" style="fill:rgb(1,4,6);"/>
            </g>
            <g transform="matrix(3.04643,2.8426,2.8426,-3.04643,1458.7,1413.7)">
                <rect x="-0.385" y="-1.193" width="3.414" height="0.216" style="fill:rgb(1,4,6);"/>
            </g>
            <g transform="matrix(3.09663,2.78783,2.78783,-3.09663,1454.79,1417.76)">
                <rect x="-0.366" y="-1.169" width="3.413" height="0.215" style="fill:rgb(1,4,6);"/>
            </g>
            <g transform="matrix(3.14576,2.73227,2.73227,-3.14576,1450.93,1421.87)">
                <rect x="-0.348" y="-1.146" width="3.415" height="0.215" style="fill:rgb(1,4,6);"/>
            </g>
            <g transform="matrix(3.23821,2.62205,2.62205,-3.23821,1443.46,1430.31)">
                <rect x="-0.312" y="-1.099" width="3.416" height="0.215" style="fill:rgb(1,4,6);"/>
            </g>
            <g transform="matrix(3.28199,2.56703,2.56703,-3.28199,1439.85,1434.63)">
                <rect x="-0.296" y="-1.075" width="3.415" height="0.216" style="fill:rgb(1,4,6);"/>
            </g>
            <g transform="matrix(3.32717,2.50819,2.50819,-3.32717,1436.3,1439.03)">
                <rect x="-0.279" y="-1.049" width="3.414" height="0.216" style="fill:rgb(1,4,6);"/>
            </g>
            <g transform="matrix(3.37116,2.44876,2.44876,-3.37116,1432.83,1443.49)">
                <rect x="-0.262" y="-1.024" width="3.416" height="0.216" style="fill:rgb(1,4,6);"/>
            </g>
            <g transform="matrix(3.45501,2.32896,2.32896,-3.45501,1426.13,1452.59)">
                <rect x="-0.231" y="-0.973" width="3.416" height="0.215" style="fill:rgb(1,4,6);"/>
            </g>
            <g transform="matrix(3.49349,2.27083,2.27083,-3.49349,1422.92,1457.23)">
                <rect x="-0.217" y="-0.948" width="3.415" height="0.215" style="fill:rgb(1,4,6);"/>
            </g>
            <g transform="matrix(3.53319,2.20855,2.20855,-3.53319,1419.79,1461.94)">
                <rect x="-0.203" y="-0.921" width="3.413" height="0.215" style="fill:rgb(1,4,6);"/>
            </g>
            <g transform="matrix(3.57159,2.14589,2.14589,-3.57159,1416.72,1466.7)">
                <rect x="-0.188" y="-0.895" width="3.415" height="0.217" style="fill:rgb(1,4,6);"/>
            </g>
            <g transform="matrix(3.64439,2.01978,2.01978,-3.64439,1410.87,1476.39)">
                <rect x="-0.162" y="-0.841" width="3.416" height="0.216" style="fill:rgb(1,4,6);"/>
            </g>
            <g transform="matrix(3.67769,1.9585,1.9585,-3.67769,1408.08,1481.31)">
                <rect x="-0.15" y="-0.815" width="3.414" height="0.216" style="fill:rgb(1,4,6);"/>
            </g>
            <g transform="matrix(3.71276,1.89117,1.89117,-3.71276,1405.38,1486.3)">
                <rect x="-0.137" y="-0.786" width="3.413" height="0.215" style="fill:rgb(1,4,6);"/>
            </g>
            <g transform="matrix(3.7449,1.82669,1.82669,-3.7449,1402.76,1491.32)">
                <rect x="-0.126" y="-0.759" width="3.414" height="0.216" style="fill:rgb(1,4,6);"/>
            </g>
            <g transform="matrix(3.80694,1.6936,1.6936,-3.80694,1397.8,1501.52)">
                <rect x="-0.104" y="-0.703" width="3.414" height="0.215" style="fill:rgb(1,4,6);"/>
            </g>
            <g transform="matrix(3.83461,1.62999,1.62999,-3.83461,1395.47,1506.68)">
                <rect x="-0.094" y="-0.677" width="3.415" height="0.215" style="fill:rgb(1,4,6);"/>
            </g>
            <g transform="matrix(3.86316,1.56113,1.56113,-3.86316,1393.23,1511.89)">
                <rect x="-0.084" y="-0.648" width="3.415" height="0.215" style="fill:rgb(1,4,6);"/>
            </g>
            <g transform="matrix(3.89038,1.49199,1.49199,-3.89038,1391.07,1517.14)">
                <rect x="-0.075" y="-0.619" width="3.415" height="0.215" style="fill:rgb(1,4,6);"/>
            </g>
            <g transform="matrix(3.9396,1.35672,1.35672,-3.9396,1387.06,1527.76)">
                <rect x="-0.058" y="-0.562" width="3.415" height="0.215" style="fill:rgb(1,4,6);"/>
            </g>
            <g transform="matrix(3.9625,1.2883,1.2883,-3.9625,1385.2,1533.12)">
                <rect x="-0.05" y="-0.533" width="3.415" height="0.214" style="fill:rgb(1,4,6);"/>
            </g>
            <g transform="matrix(3.98457,1.21832,1.21832,-3.98457,1383.44,1538.52)">
                <rect x="-0.043" y="-0.504" width="3.414" height="0.215" style="fill:rgb(1,4,6);"/>
            </g>
            <g transform="matrix(4.0057,1.14693,1.14693,-4.0057,1381.76,1543.95)">
                <rect x="-0.036" y="-0.474" width="3.415" height="0.215" style="fill:rgb(1,4,6);"/>
            </g>
            <g transform="matrix(4.04298,1.00769,1.00769,-4.04298,1378.73,1554.89)">
                <rect x="-0.025" y="-0.416" width="3.416" height="0.216" style="fill:rgb(1,4,6);"/>
            </g>
            <g transform="matrix(4.05951,0.938876,0.938876,-4.05951,1377.37,1560.4)">
                <rect x="-0.02" y="-0.387" width="3.413" height="0.215" style="fill:rgb(1,4,6);"/>
            </g>
            <g transform="matrix(4.07555,0.866618,0.866618,-4.07555,1376.1,1565.95)">
                <rect x="-0.015" y="-0.357" width="3.415" height="0.215" style="fill:rgb(1,4,6);"/>
            </g>
            <g transform="matrix(4.09051,0.792972,0.792972,-4.09051,1374.92,1571.52)">
                <rect x="-0.011" y="-0.327" width="3.416" height="0.215" style="fill:rgb(1,4,6);"/>
            </g>
            <g transform="matrix(4.11544,0.651347,0.651347,-4.11544,1372.9,1582.69)">
                <rect x="-0.004" y="-0.268" width="3.416" height="0.216" style="fill:rgb(1,4,6);"/>
            </g>
            <g transform="matrix(4.12578,0.582248,0.582248,-4.12578,1372.04,1588.3)">
                <rect x="-0.002" y="-0.24" width="3.414" height="0.215" style="fill:rgb(1,4,6);"/>
            </g>
            <g transform="matrix(4.13546,0.508999,0.508999,-4.13546,1371.29,1593.94)">
                <rect x="0" y="-0.209" width="3.412" height="0.215" style="fill:rgb(1,4,6);"/>
            </g>
            <g transform="matrix(4.14397,0.434282,0.434282,-4.14397,1370.62,1599.59)">
                <rect x="0.002" y="-0.179" width="3.415" height="0.215" style="fill:rgb(1,4,6);"/>
            </g>
            <g transform="matrix(4.15654,0.290275,0.290275,-4.15654,1369.62,1610.92)">
                <rect x="0.003" y="-0.119" width="3.415" height="0.215" style="fill:rgb(1,4,6);"/>
            </g>
            <g transform="matrix(4.16087,0.2197,0.2197,-4.16087,1369.28,1616.58)">
                <rect x="0.003" y="-0.09" width="3.413" height="0.215" style="fill:rgb(1,4,6);"/>
            </g>
            <g transform="matrix(4.16409,0.146537,0.146537,-4.16409,1369.04,1622.27)">
                <rect x="0.003" y="-0.06" width="3.413" height="0.216" style="fill:rgb(1,4,6);"/>
            </g>
            <g transform="matrix(4.16604,0.0719756,0.0719756,-4.16604,1368.89,1627.96)">
                <rect x="0.002" y="-0.03" width="3.415" height="0.215" style="fill:rgb(1,4,6);"/>
            </g>
            <g transform="matrix(0.368488,4.15034,4.15034,-0.368488,1992.11,1595.34)">
                <rect x="2.564" y="-2.55" width="0.223" height="5.351" style="fill:rgb(1,4,6);"/>
            </g>
            <g transform="matrix(1.06515,4.02822,4.02822,-1.06515,1979.15,1543.73)">
                <rect x="2.514" y="-2.087" width="0.197" height="5.353" style="fill:rgb(1,4,6);"/>
            </g>
            <g transform="matrix(1.75463,3.7792,3.7792,-1.75463,1957.74,1495.76)">
                <rect x="2.367" y="-1.643" width="0.206" height="5.352" style="fill:rgb(1,4,6);"/>
            </g>
            <g transform="matrix(2.39981,3.40618,3.40618,-2.39981,1928.85,1452.67)">
                <rect x="2.139" y="-1.229" width="0.23" height="5.353" style="fill:rgb(1,4,6);"/>
            </g>
            <g transform="matrix(2.9366,2.95592,2.95592,-2.9366,1893.61,1415.35)">
                <rect x="1.869" y="-0.861" width="0.198" height="5.353" style="fill:rgb(1,4,6);"/>
            </g>
            <g transform="matrix(3.40618,2.39981,2.39981,-3.40618,1853.07,1384.75)">
                <rect x="1.523" y="-0.546" width="0.2" height="5.353" style="fill:rgb(1,4,6);"/>
            </g>
            <g transform="matrix(3.77576,1.76202,1.76202,-3.77576,1808.47,1361.42)">
                <rect x="1.122" y="-0.296" width="0.214" height="5.354" style="fill:rgb(1,4,6);"/>
            </g>
            <g transform="matrix(4.02948,1.06039,1.06039,-4.02948,1761.03,1345.73)">
                <rect x="0.677" y="-0.118" width="0.239" height="5.351" style="fill:rgb(1,4,6);"/>
            </g>
            <g transform="matrix(4.15034,0.368488,0.368488,-4.15034,1711.8,1337.87)">
                <rect x="0.236" y="-0.02" width="0.206" height="5.352" style="fill:rgb(1,4,6);"/>
            </g>
            <g transform="matrix(0.363543,4.15078,4.15078,-0.363543,1671.51,1324.59)">
                <rect x="-2.335" y="-2.764" width="5.352" height="0.216" style="fill:rgb(1,4,6);"/>
            </g>
            <g transform="matrix(1.07892,4.02455,4.02455,-1.07892,1617.27,1330.31)">
                <rect x="-1.879" y="-2.666" width="5.353" height="0.216" style="fill:rgb(1,4,6);"/>
            </g>
            <g transform="matrix(1.76151,3.776,3.776,-1.76151,1564.31,1345.77)">
                <rect x="-1.448" y="-2.487" width="5.352" height="0.214" style="fill:rgb(1,4,6);"/>
            </g>
            <g transform="matrix(2.38953,3.41339,3.41339,-2.38953,1514.48,1370.76)">
                <rect x="-1.053" y="-2.238" width="5.351" height="0.216" style="fill:rgb(1,4,6);"/>
            </g>
            <g transform="matrix(2.94667,2.94589,2.94589,-2.94667,1469.59,1404.68)">
                <rect x="-0.707" y="-1.923" width="5.351" height="0.215" style="fill:rgb(1,4,6);"/>
            </g>
            <g transform="matrix(3.41303,2.39005,2.39005,-3.41303,1431.37,1446.55)">
                <rect x="-0.422" y="-1.555" width="5.353" height="0.215" style="fill:rgb(1,4,6);"/>
            </g>
            <g transform="matrix(3.77616,1.76117,1.76117,-3.77616,1401.3,1495.03)">
                <rect x="-0.205" y="-1.141" width="5.351" height="0.216" style="fill:rgb(1,4,6);"/>
            </g>
            <g transform="matrix(4.02475,1.0782,1.0782,-4.02475,1380.61,1548.44)">
                <rect x="-0.063" y="-0.696" width="5.352" height="0.214" style="fill:rgb(1,4,6);"/>
            </g>
            <g transform="matrix(4.15077,0.363611,0.363611,-4.15077,1370.13,1604.9)">
                <rect x="-0.001" y="-0.234" width="5.351" height="0.217" style="fill:rgb(1,4,6);"/>
            </g>
            <g transform="matrix(4.16667,0,0,4.16667,0,77.3958)">
                <rect x="328.527" y="373.282" width="8.474" height="0.215" style="fill:rgb(1,4,6);"/>
            </g>
            <g transform="matrix(4.16667,0,0,4.16667,0,77.3958)">
                <rect x="472.949" y="373.282" width="8.474" height="0.215" style="fill:rgb(1,4,6);"/>
            </g>
            <g transform="matrix(0.716373,4.10462,4.10462,-0.716373,1978.12,1564.19)">
                <rect x="4.091" y="-3.607" width="0.2" height="8.474" style="fill:rgb(1,4,6);"/>
            </g>
            <g transform="matrix(1.42703,3.91468,3.91468,-1.42703,1959.12,1516.47)">
                <rect x="3.908" y="-2.889" width="0.219" height="8.475" style="fill:rgb(1,4,6);"/>
            </g>
            <g transform="matrix(2.09827,3.59978,3.59978,-2.09827,1932.86,1473.59)">
                <rect x="3.598" y="-2.212" width="0.251" height="8.475" style="fill:rgb(1,4,6);"/>
            </g>
            <g transform="matrix(2.68449,3.18663,3.18663,-2.68449,1900.56,1436.31)">
                <rect x="3.199" y="-1.596" width="0.233" height="8.474" style="fill:rgb(1,4,6);"/>
            </g>
            <g transform="matrix(3.17857,2.69403,2.69403,-3.17857,1863.32,1405.24)">
                <rect x="2.719" y="-1.061" width="0.174" height="8.476" style="fill:rgb(1,4,6);"/>
            </g>
            <g transform="matrix(3.60814,2.08385,2.08385,-3.60814,1822.32,1381.06)">
                <rect x="2.105" y="-0.622" width="0.215" height="8.474" style="fill:rgb(1,4,6);"/>
            </g>
            <g transform="matrix(3.9124,1.43326,1.43326,-3.9124,1778.58,1363.67)">
                <rect x="1.452" y="-0.293" width="0.198" height="8.475" style="fill:rgb(1,4,6);"/>
            </g>
            <g transform="matrix(4.1007,0.738514,0.738514,-4.1007,1733.13,1353.29)">
                <rect x="0.75" y="-0.083" width="0.184" height="8.475" style="fill:rgb(1,4,6);"/>
            </g>
            <g transform="matrix(4.16667,0,0,4.16667,1686.95,1314.65)">
                <rect x="0" y="0" width="0.217" height="8.475" style="fill:rgb(1,4,6);"/>
            </g>
            <g transform="matrix(0.723713,4.10333,4.10333,-0.723713,1651.59,1330.42)">
                <rect x="-3.396" y="-4.262" width="8.475" height="0.214" style="fill:rgb(1,4,6);"/>
            </g>
            <g transform="matrix(1.4248,3.91549,3.91549,-1.4248,1597.73,1338.76)">
                <rect x="-2.687" y="-4.052" width="8.474" height="0.215" style="fill:rgb(1,4,6);"/>
            </g>
            <g transform="matrix(2.08284,3.60872,3.60872,-2.08284,1545.4,1357.11)">
                <rect x="-2.026" y="-3.724" width="8.475" height="0.216" style="fill:rgb(1,4,6);"/>
            </g>
            <g transform="matrix(2.67816,3.19196,3.19196,-2.67816,1496.62,1385.24)">
                <rect x="-1.431" y="-3.285" width="8.475" height="0.217" style="fill:rgb(1,4,6);"/>
            </g>
            <g transform="matrix(3.19172,2.67844,2.67844,-3.19172,1453.4,1422.48)">
                <rect x="-0.922" y="-2.749" width="8.475" height="0.215" style="fill:rgb(1,4,6);"/>
            </g>
            <g transform="matrix(3.60839,2.08343,2.08343,-3.60839,1417.62,1467.68)">
                <rect x="-0.514" y="-2.133" width="8.475" height="0.215" style="fill:rgb(1,4,6);"/>
            </g>
            <g transform="matrix(3.91533,1.42523,1.42523,-3.91533,1390.85,1519.27)">
                <rect x="-0.219" y="-1.456" width="8.475" height="0.215" style="fill:rgb(1,4,6);"/>
            </g>
            <g transform="matrix(4.10335,0.723629,0.723629,-4.10335,1374.35,1575.32)">
                <rect x="-0.046" y="-0.738" width="8.475" height="0.215" style="fill:rgb(1,4,6);"/>
            </g>
            <g transform="matrix(4.16667,0,0,4.16667,1351.42,1303.85)">
                <path d="M0,78.839L80.778,78.839L80.878,0" style="fill:none;fill-rule:nonzero;stroke:rgb(237,28,36);stroke-width:1px;"/>
            </g>
            <g transform="matrix(4.16667,0,0,4.16667,1335.86,1632.34)">
                <path d="M0,0L4.2,-3.904L4.2,3.904L0,0Z" style="fill:rgb(237,28,36);fill-rule:nonzero;"/>
            </g>
            <g transform="matrix(4.16667,0,0,4.16667,1688.43,1305.81)">
                <path d="M0,-4.205L3.899,0L-3.91,-0.011L0,-4.205Z" style="fill:rgb(237,28,36);fill-rule:nonzero;"/>
            </g>
        </g>
    </g>
    <defs>
        <linearGradient id="_Linear1" x1="0" y1="0" x2="1" y2="0" gradientUnits="userSpaceOnUse" gradientTransform="matrix(-0.0149189,0.999889,0.999889,0.0149189,0.507453,-0.499938)"><stop offset="0" style="stop-color:rgb(200,210,219);stop-opacity:1"/><stop offset="0.38" style="stop-color:rgb(224,235,244);stop-opacity:1"/><stop offset="1" style="stop-color:rgb(191,201,209);stop-opacity:1"/></linearGradient>
        <linearGradient id="_Linear2" x1="0" y1="0" x2="1" y2="0" gradientUnits="userSpaceOnUse" gradientTransform="matrix(1,0,0,-1,0,-0.0254138)"><stop offset="0" style="stop-color:rgb(200,210,219);stop-opacity:1"/><stop offset="0.38" style="stop-color:rgb(224,235,244);stop-opacity:1"/><stop offset="1" style="stop-color:rgb(191,201,209);stop-opacity:1"/></linearGradient>
        <linearGradient id="_Linear3" x1="0" y1="0" x2="1" y2="0" gradientUnits="userSpaceOnUse" gradientTransform="matrix(1,0,0,-1,0,-0.0630383)"><stop offset="0" style="stop-color:rgb(212,230,246);stop-opacity:1"/><stop offset="0.37" style="stop-color:rgb(244,251,253);stop-opacity:1"/><stop offset="0.65" style="stop-color:rgb(210,230,244);stop-opacity:1"/><stop offset="1" style="stop-color:rgb(224,235,244);stop-opacity:1"/></linearGradient>
        <linearGradient id="_Linear4" x1="0" y1="0" x2="1" y2="0" gradientUnits="userSpaceOnUse" gradientTransform="matrix(1,0,0,-1,0,-0.0630383)"><stop offset="0" style="stop-color:rgb(212,230,246);stop-opacity:1"/><stop offset="0.37" style="stop-color:rgb(244,251,253);stop-opacity:1"/><stop offset="0.65" style="stop-color:rgb(217,236,250);stop-opacity:1"/><stop offset="1" style="stop-color:rgb(230,241,249);stop-opacity:1"/></linearGradient>
        <linearGradient id="_Linear5" x1="0" y1="0" x2="1" y2="0" gradientUnits="userSpaceOnUse" gradientTransform="matrix(1,0,0,-1,0,-0.0152781)"><stop offset="0" style="stop-color:rgb(212,230,246);stop-opacity:1"/><stop offset="0.37" style="stop-color:rgb(244,251,253);stop-opacity:1"/><stop offset="0.71" style="stop-color:rgb(210,230,244);stop-opacity:1"/><stop offset="1" style="stop-color:rgb(224,235,244);stop-opacity:1"/></linearGradient>
        <linearGradient id="_Linear6" x1="0" y1="0" x2="1" y2="0" gradientUnits="userSpaceOnUse" gradientTransform="matrix(1,5.55112e-17,5.55112e-17,-1,0,-1.24449e-06)"><stop offset="0" style="stop-color:rgb(200,210,219);stop-opacity:1"/><stop offset="0.38" style="stop-color:rgb(224,235,244);stop-opacity:1"/><stop offset="1" style="stop-color:rgb(191,201,209);stop-opacity:1"/></linearGradient>
        <radialGradient id="_Radial7" cx="0" cy="0" r="1" gradientUnits="userSpaceOnUse" gradientTransform="matrix(1,0,0,-1,0,-0.988737)"><stop offset="0" style="stop-color:rgb(224,235,244);stop-opacity:1"/><stop offset="0.93" style="stop-color:rgb(224,235,244);stop-opacity:1"/><stop offset="0.95" style="stop-color:white;stop-opacity:1"/><stop offset="1" style="stop-color:rgb(208,224,237);stop-opacity:1"/></radialGradient>
    </defs>
</svg>
