<?xml version="1.0" encoding="UTF-8" standalone="no"?>
<!DOCTYPE svg PUBLIC "-//W3C//DTD SVG 1.1//EN" "http://www.w3.org/Graphics/SVG/1.1/DTD/svg11.dtd">
<svg width="100%" height="100%" viewBox="0 0 941 379" version="1.1" xmlns="http://www.w3.org/2000/svg" xmlns:xlink="http://www.w3.org/1999/xlink" xml:space="preserve" xmlns:serif="http://www.serif.com/" style="fill-rule:evenodd;clip-rule:evenodd;">
    <g transform="matrix(1,0,0,1,-861,-934)">
        <g transform="matrix(1,0,0,1,-461.277,0)">
            <g transform="matrix(4.16667,0,0,4.16667,1366.7,1304.19)">
                <path d="M0,-86.55C-4.697,-86.55 -8.504,-82.743 -8.504,-78.046L-8.504,-8.504C-8.504,-3.807 -4.697,0 0,0L204.406,0C209.102,0 212.909,-3.807 212.909,-8.504L212.909,-78.046C212.909,-82.743 209.102,-86.55 204.406,-86.55L0,-86.55Z" style="fill:white;fill-rule:nonzero;stroke:rgb(170,225,250);stroke-width:1px;"/>
            </g>
            <g transform="matrix(-2.30534,3.47081,3.47081,2.30534,1967.16,1085.13)">
                <path d="M23.252,-71.998L94.715,-71.998L38.611,12.469L-32.852,12.47L23.252,-71.998Z" style="fill:none;fill-rule:nonzero;stroke:rgb(236,0,140);stroke-width:1px;"/>
            </g>
        </g>
    </g>
</svg>
