<svg clip-rule="evenodd" fill-rule="evenodd" viewBox="0 0 76 70" xmlns="http://www.w3.org/2000/svg"><path d="m56.201 21.949c8.18 0 14.811-3.94 14.811-8.8s-6.631-8.8-14.811-8.8-14.811 3.94-14.811 8.8 6.631 8.8 14.811 8.8" fill="#41c3d0" fill-rule="nonzero"/><path d="m56.201 21.949c8.18 0 14.811-3.94 14.811-8.8s-6.631-8.8-14.811-8.8-14.811 3.94-14.811 8.8 6.631 8.8 14.811 8.8z" fill="none" stroke="#a9dde5" stroke-width="2"/><path d="m37.084 43.402c8.18 0 14.811-3.94 14.811-8.8s-6.631-8.8-14.811-8.8-14.811 3.94-14.811 8.8 6.631 8.8 14.811 8.8" fill="#41c3d0" fill-rule="nonzero"/><path d="m37.084 43.402c8.18 0 14.811-3.94 14.811-8.8s-6.631-8.8-14.811-8.8-14.811 3.94-14.811 8.8 6.631 8.8 14.811 8.8z" fill="none" stroke="#a9dde5" stroke-width="2"/><path d="m53.844 64.855c8.18 0 14.811-3.94 14.811-8.8s-6.631-8.8-14.811-8.8-14.811 3.94-14.811 8.8 6.631 8.8 14.811 8.8" fill="#41c3d0" fill-rule="nonzero"/><path d="m53.844 64.855c8.18 0 14.811-3.94 14.811-8.8s-6.631-8.8-14.811-8.8-14.811 3.94-14.811 8.8 6.631 8.8 14.811 8.8z" fill="none" stroke="#a9dde5" stroke-width="2"/><path d="m18.941 21.949c8.18 0 14.811-3.94 14.811-8.8s-6.631-8.8-14.811-8.8-14.811 3.94-14.811 8.8 6.631 8.8 14.811 8.8" fill="#41c3d0" fill-rule="nonzero"/><path d="m18.941 21.949c8.18 0 14.811-3.94 14.811-8.8s-6.631-8.8-14.811-8.8-14.811 3.94-14.811 8.8 6.631 8.8 14.811 8.8z" fill="none" stroke="#a9dde5" stroke-width="2"/><path d="m20.325 64.855c8.18 0 14.811-3.94 14.811-8.8s-6.631-8.8-14.811-8.8-14.811 3.94-14.811 8.8 6.631 8.8 14.811 8.8" fill="#41c3d0" fill-rule="nonzero"/><path d="m20.325 64.855c8.18 0 14.811-3.94 14.811-8.8s-6.631-8.8-14.811-8.8-14.811 3.94-14.811 8.8 6.631 8.8 14.811 8.8z" fill="none" stroke="#a9dde5" stroke-width="2"/></svg>