<svg clip-rule="evenodd" fill-rule="evenodd" viewBox="0 0 73 70" xmlns="http://www.w3.org/2000/svg"><path d="m35.37 43.807c8.18 0 14.811-3.94 14.811-8.8s-6.631-8.8-14.811-8.8-14.811 3.94-14.811 8.8 6.631 8.8 14.811 8.8" fill="#ffdb4f" fill-rule="nonzero"/><path d="m35.37 43.807c8.18 0 14.811-3.94 14.811-8.8s-6.631-8.8-14.811-8.8-14.811 3.94-14.811 8.8 6.631 8.8 14.811 8.8z" fill="none" stroke="#ffeba9" stroke-width="2"/><path d="m52.514 21.949c8.18 0 14.811-3.94 14.811-8.8s-6.631-8.8-14.811-8.8-14.811 3.94-14.811 8.8 6.631 8.8 14.811 8.8" fill="#ffdb4f" fill-rule="nonzero"/><path d="m52.514 21.949c8.18 0 14.811-3.94 14.811-8.8s-6.631-8.8-14.811-8.8-14.811 3.94-14.811 8.8 6.631 8.8 14.811 8.8z" fill="none" stroke="#ffeba9" stroke-width="2"/><path d="m53.797 65.564c8.18 0 14.811-3.94 14.811-8.8s-6.631-8.8-14.811-8.8-14.811 3.94-14.811 8.8 6.631 8.8 14.811 8.8" fill="#ffdb4f" fill-rule="nonzero"/><path d="m53.797 65.564c8.18 0 14.811-3.94 14.811-8.8s-6.631-8.8-14.811-8.8-14.811 3.94-14.811 8.8 6.631 8.8 14.811 8.8z" fill="none" stroke="#ffeba9" stroke-width="2"/><path d="m18.994 21.949c8.18 0 14.811-3.94 14.811-8.8s-6.631-8.8-14.811-8.8-14.811 3.94-14.811 8.8 6.631 8.8 14.811 8.8" fill="#ffdb4f" fill-rule="nonzero"/><path d="m18.994 21.949c8.18 0 14.811-3.94 14.811-8.8s-6.631-8.8-14.811-8.8-14.811 3.94-14.811 8.8 6.631 8.8 14.811 8.8z" fill="none" stroke="#ffeba9" stroke-width="2"/><path d="m18.994 65.564c8.18 0 14.811-3.94 14.811-8.8s-6.631-8.8-14.811-8.8-14.811 3.94-14.811 8.8 6.631 8.8 14.811 8.8" fill="#ffdb4f" fill-rule="nonzero"/><path d="m18.994 65.564c8.18 0 14.811-3.94 14.811-8.8s-6.631-8.8-14.811-8.8-14.811 3.94-14.811 8.8 6.631 8.8 14.811 8.8z" fill="none" stroke="#ffeba9" stroke-width="2"/></svg>