<?xml version="1.0" encoding="UTF-8" standalone="no"?>
<!DOCTYPE svg PUBLIC "-//W3C//DTD SVG 1.1//EN" "http://www.w3.org/Graphics/SVG/1.1/DTD/svg11.dtd">
<svg width="100%" height="100%" viewBox="0 0 200 200" version="1.1" xmlns="http://www.w3.org/2000/svg" xmlns:xlink="http://www.w3.org/1999/xlink" xml:space="preserve" xmlns:serif="http://www.serif.com/" style="fill-rule:evenodd;clip-rule:evenodd;stroke-linejoin:round;stroke-miterlimit:2;">
    <g transform="matrix(1.13412,0,0,1.13412,-23.3677,-1.67869)">
        <path d="M168.091,34.47L141.942,34.47L106.974,122.304L80.994,94.235L60.027,106.539L93.878,144.567L124.26,144.567L168.091,34.47Z" style="fill:white;"/>
        <path d="M105.765,115.806L138.666,33.165C139.2,31.823 140.498,30.943 141.942,30.943L168.091,30.943C169.261,30.943 170.354,31.522 171.01,32.49C171.667,33.458 171.801,34.688 171.368,35.774L127.536,145.872C127.002,147.214 125.704,148.094 124.26,148.094L93.878,148.094C92.872,148.094 91.913,147.664 91.244,146.912L57.393,108.884C56.69,108.095 56.379,107.033 56.543,105.99C56.708,104.946 57.331,104.032 58.242,103.497L79.209,91.194C80.637,90.355 82.457,90.624 83.582,91.84L105.765,115.806ZM168.091,34.47L141.942,34.47L106.974,122.304L80.994,94.235L60.027,106.539L93.878,144.567L124.26,144.567L168.091,34.47Z"/>
    </g>
</svg>
