<?xml version="1.0" encoding="UTF-8" standalone="no"?>
<!DOCTYPE svg PUBLIC "-//W3C//DTD SVG 1.1//EN" "http://www.w3.org/Graphics/SVG/1.1/DTD/svg11.dtd">
<svg width="100%" height="100%" viewBox="0 0 73 88" version="1.1" xmlns="http://www.w3.org/2000/svg" xmlns:xlink="http://www.w3.org/1999/xlink" xml:space="preserve" xmlns:serif="http://www.serif.com/" style="fill-rule:evenodd;clip-rule:evenodd;stroke-linejoin:round;stroke-miterlimit:2;">
    <g transform="matrix(1,0,0,1,-15121,-1799)">
        <g transform="matrix(5.55556,0,0,5.55556,14527.5,0)">
            <g transform="matrix(1,0,0,1,110.802,323.903)">
                <path d="M0,15.64C0,15.64 0.673,12.882 2.586,9.067C2.742,8.755 7.855,13.369 7.855,13.369C7.855,13.369 9.195,11.477 9.073,11.416C8.404,10.195 3.696,6.867 3.897,6.532C5.082,4.562 6.855,2.078 8.696,0C6.736,0.96 3.593,3.479 2.192,5.067C1.869,5.432 -2.43,1.415 -2.74,1.77C-2.618,1.77 -3.958,4.09 -3.958,4.09C-3.958,4.09 0.365,6.837 0.609,7.264C-0.744,9.55 -2.132,12.74 -2.131,12.734C-2.129,12.721 0,15.64 0,15.64" style="fill:rgb(237,28,36);fill-rule:nonzero;"/>
            </g>
        </g>
    </g>
</svg>
