<?xml version="1.0" encoding="UTF-8" standalone="no"?>
<!DOCTYPE svg PUBLIC "-//W3C//DTD SVG 1.1//EN" "http://www.w3.org/Graphics/SVG/1.1/DTD/svg11.dtd">
<svg width="100%" height="100%" viewBox="0 0 398 698" version="1.1" xmlns="http://www.w3.org/2000/svg" xmlns:xlink="http://www.w3.org/1999/xlink" xml:space="preserve" xmlns:serif="http://www.serif.com/" style="fill-rule:evenodd;clip-rule:evenodd;stroke-miterlimit:10;">
    <g transform="matrix(1,0,0,1,-165,-627)">
        <g transform="matrix(1,0,0,1,-15.4725,-0.00125)">
            <g transform="matrix(0.109045,4.16524,4.16524,-0.109045,700.982,790.612)">
                <path d="M-37.006,-118.659L119.694,-118.659L121.701,-42.005L-34.787,-33.888L-37.006,-118.659Z" style="fill:rgb(4,115,187);fill-rule:nonzero;"/>
            </g>
            <g transform="matrix(0.109045,4.16524,4.16524,-0.109045,700.983,790.615)">
                <path d="M-37.006,-118.659L119.694,-118.659L121.701,-42.004L-34.787,-33.888L-37.006,-118.659Z" style="fill:none;fill-rule:nonzero;stroke:rgb(1,88,144);stroke-width:1.06px;"/>
            </g>
            <g transform="matrix(0.257537,4.1587,4.1587,-0.257537,550.829,1116.65)">
                <path d="M-7.946,-41.428L42.031,-41.428L43.934,-10.688L-5.713,-5.37L-7.946,-41.428Z" style="fill:rgb(3,96,157);fill-rule:nonzero;"/>
            </g>
            <g transform="matrix(4.15191,-0.350393,-0.350393,-4.15191,253.744,721.767)">
                <path d="M0.822,0.773L20.074,0.773L17.025,-19.593L0.865,-19.659L0.822,0.773Z" style="fill:rgb(3,96,157);fill-rule:nonzero;"/>
            </g>
            <g transform="matrix(4.15308,-0.336221,-0.336221,-4.15308,248.137,714.746)">
                <path d="M0.76,0.744L20.006,0.744L17.094,-18.898L0.94,-18.96L0.76,0.744Z" style="fill:rgb(255,244,83);fill-rule:nonzero;stroke:rgb(1,88,144);stroke-width:1.06px;"/>
            </g>
            <g transform="matrix(4.16667,0,0,4.16667,265.354,763.254)">
                <path d="M0,-9.952C-0.148,-9.916 -0.304,-9.875 -0.408,-9.762C-0.522,-9.639 -0.545,-9.46 -0.561,-9.292C-0.9,-5.705 -0.278,-2.03 1.222,1.247C1.778,1.092 1.866,0.356 1.875,-0.22C1.939,-4.277 3.712,-7.32 5.847,-10.583C4.328,-11.199 1.642,-10.351 0,-9.952" style="fill:white;fill-rule:nonzero;"/>
            </g>
            <g transform="matrix(4.15189,-0.350608,-0.350608,-4.15189,428.138,716.815)">
                <path d="M0.822,0.774L20.075,0.774L17.025,-19.594L0.864,-19.658L0.822,0.774Z" style="fill:rgb(3,96,157);fill-rule:nonzero;"/>
            </g>
            <g transform="matrix(4.15306,-0.336436,-0.336436,-4.15306,422.532,709.794)">
                <path d="M0.761,0.745L20.007,0.745L17.093,-18.898L0.939,-18.96L0.761,0.745Z" style="fill:rgb(255,244,83);fill-rule:nonzero;stroke:rgb(1,88,144);stroke-width:1.06px;"/>
            </g>
            <g transform="matrix(4.16667,0,0,4.16667,439.75,758.298)">
                <path d="M0,-9.952C-0.148,-9.916 -0.304,-9.875 -0.408,-9.762C-0.522,-9.639 -0.545,-9.459 -0.561,-9.292C-0.9,-5.703 -0.278,-2.03 1.222,1.247C1.779,1.092 1.866,0.357 1.875,-0.22C1.939,-4.277 3.712,-7.32 5.847,-10.583C4.328,-11.199 1.642,-10.349 0,-9.952" style="fill:white;fill-rule:nonzero;"/>
            </g>
            <g transform="matrix(4.15191,-0.350393,-0.350393,-4.15191,251.984,849.352)">
                <path d="M0.822,0.773L20.074,0.773L17.025,-19.593L0.865,-19.659L0.822,0.773Z" style="fill:rgb(3,96,157);fill-rule:nonzero;"/>
            </g>
            <g transform="matrix(4.15306,-0.336419,-0.336419,-4.15306,246.376,842.334)">
                <path d="M0.761,0.745L20.008,0.745L17.093,-18.898L0.939,-18.96L0.761,0.745Z" style="fill:rgb(255,244,83);fill-rule:nonzero;stroke:rgb(1,88,144);stroke-width:1.06px;"/>
            </g>
            <g transform="matrix(4.16667,0,0,4.16667,263.595,890.835)">
                <path d="M0,-9.951C-0.148,-9.915 -0.304,-9.874 -0.407,-9.762C-0.522,-9.638 -0.545,-9.459 -0.561,-9.292C-0.9,-5.704 -0.278,-2.029 1.222,1.248C1.779,1.093 1.866,0.358 1.875,-0.219C1.939,-4.276 3.712,-7.319 5.848,-10.582C4.328,-11.199 1.642,-10.35 0,-9.951" style="fill:white;fill-rule:nonzero;"/>
            </g>
            <g transform="matrix(4.15191,-0.350393,-0.350393,-4.15191,426.38,844.396)">
                <path d="M0.822,0.773L20.074,0.773L17.025,-19.593L0.865,-19.659L0.822,0.773Z" style="fill:rgb(3,96,157);fill-rule:nonzero;"/>
            </g>
            <g transform="matrix(4.15308,-0.336204,-0.336204,-4.15308,420.774,837.376)">
                <path d="M0.76,0.745L20.007,0.745L17.094,-18.897L0.94,-18.961L0.76,0.745Z" style="fill:rgb(255,244,83);fill-rule:nonzero;stroke:rgb(1,88,144);stroke-width:1.06px;"/>
            </g>
            <g transform="matrix(4.16667,0,0,4.16667,437.99,885.883)">
                <path d="M0,-9.952C-0.148,-9.916 -0.304,-9.875 -0.407,-9.762C-0.522,-9.639 -0.545,-9.46 -0.561,-9.292C-0.9,-5.705 -0.278,-2.03 1.222,1.247C1.779,1.092 1.867,0.356 1.875,-0.22C1.939,-4.277 3.712,-7.32 5.848,-10.583C4.328,-11.199 1.642,-10.351 0,-9.952" style="fill:white;fill-rule:nonzero;"/>
            </g>
            <g transform="matrix(4.15191,-0.350393,-0.350393,-4.15191,250.225,976.935)">
                <path d="M0.822,0.773L20.074,0.773L17.025,-19.593L0.866,-19.659L0.822,0.773Z" style="fill:rgb(3,96,157);fill-rule:nonzero;"/>
            </g>
            <g transform="matrix(4.15308,-0.336204,-0.336204,-4.15308,244.618,969.914)">
                <path d="M0.76,0.745L20.007,0.745L17.095,-18.898L0.94,-18.961L0.76,0.745Z" style="fill:rgb(255,244,83);fill-rule:nonzero;stroke:rgb(1,88,144);stroke-width:1.06px;"/>
            </g>
            <g transform="matrix(4.16667,0,0,4.16667,261.835,1018.42)">
                <path d="M0,-9.952C-0.148,-9.916 -0.304,-9.875 -0.407,-9.762C-0.522,-9.639 -0.545,-9.459 -0.561,-9.292C-0.9,-5.705 -0.278,-2.03 1.222,1.247C1.779,1.092 1.867,0.356 1.875,-0.22C1.939,-4.277 3.713,-7.32 5.848,-10.583C4.328,-11.199 1.642,-10.351 0,-9.952" style="fill:white;fill-rule:nonzero;"/>
            </g>
            <g transform="matrix(4.15191,-0.350393,-0.350393,-4.15191,424.621,971.981)">
                <path d="M0.822,0.773L20.074,0.773L17.025,-19.593L0.866,-19.659L0.822,0.773Z" style="fill:rgb(3,96,157);fill-rule:nonzero;"/>
            </g>
            <g transform="matrix(4.15306,-0.336419,-0.336419,-4.15306,419.012,964.963)">
                <path d="M0.761,0.745L20.008,0.745L17.094,-18.898L0.939,-18.96L0.761,0.745Z" style="fill:rgb(255,244,83);fill-rule:nonzero;stroke:rgb(1,88,144);stroke-width:1.06px;"/>
            </g>
            <g transform="matrix(4.16667,0,0,4.16667,436.23,1013.46)">
                <path d="M0,-9.951C-0.148,-9.915 -0.304,-9.874 -0.407,-9.762C-0.522,-9.638 -0.545,-9.459 -0.561,-9.292C-0.9,-5.704 -0.278,-2.029 1.222,1.248C1.779,1.093 1.867,0.357 1.875,-0.219C1.939,-4.276 3.713,-7.319 5.848,-10.582C4.328,-11.199 1.642,-10.35 0,-9.951" style="fill:white;fill-rule:nonzero;"/>
            </g>
            <g transform="matrix(4.15191,-0.350393,-0.350393,-4.15191,248.465,1104.52)">
                <path d="M0.822,0.773L20.074,0.773L17.025,-19.593L0.866,-19.659L0.822,0.773Z" style="fill:rgb(3,96,157);fill-rule:nonzero;"/>
            </g>
            <g transform="matrix(4.15308,-0.336204,-0.336204,-4.15308,242.858,1097.5)">
                <path d="M0.76,0.745L20.007,0.745L17.095,-18.898L0.94,-18.96L0.76,0.745Z" style="fill:rgb(255,244,83);fill-rule:nonzero;stroke:rgb(1,88,144);stroke-width:1.06px;"/>
            </g>
            <g transform="matrix(4.16667,0,0,4.16667,260.075,1146.01)">
                <path d="M0,-9.952C-0.147,-9.916 -0.304,-9.875 -0.407,-9.763C-0.522,-9.639 -0.545,-9.46 -0.561,-9.292C-0.9,-5.705 -0.278,-2.03 1.222,1.247C1.779,1.092 1.867,0.357 1.875,-0.22C1.939,-4.277 3.713,-7.32 5.848,-10.583C4.328,-11.199 1.642,-10.351 0,-9.952" style="fill:white;fill-rule:nonzero;"/>
            </g>
            <g transform="matrix(-0.257543,-4.1587,-4.1587,0.257543,549.339,1254.04)">
                <path d="M-8.992,41.427L40.983,41.427L38.75,5.369L-10.896,10.688L-8.992,41.427Z" style="fill:rgb(179,226,237);fill-rule:nonzero;stroke:rgb(1,88,144);stroke-width:1.06px;"/>
            </g>
            <g transform="matrix(0,4.16667,4.16667,0,545.681,1198.19)">
                <path d="M-24.94,-24.94L24.94,-24.94" style="fill:none;fill-rule:nonzero;stroke:rgb(1,88,144);stroke-width:1.06px;"/>
            </g>
            <g transform="matrix(4.16667,0,0,4.16667,385.016,1174.54)">
                <path d="M0,-16.535C-0.277,-16.535 -0.596,-16.516 -0.764,-16.297C-0.88,-16.147 -0.89,-15.945 -0.896,-15.756C-1.062,-10.211 -0.957,-4.521 1.004,0.669C0.019,-1.938 1.807,-8.005 2.564,-10.611C2.836,-11.546 4.84,-14.9 4.638,-15.622C4.193,-17.204 1.478,-16.534 0,-16.535" style="fill:white;fill-rule:nonzero;"/>
            </g>
        </g>
    </g>
</svg>
