<?xml version="1.0" encoding="UTF-8" standalone="no"?>
<!DOCTYPE svg PUBLIC "-//W3C//DTD SVG 1.1//EN" "http://www.w3.org/Graphics/SVG/1.1/DTD/svg11.dtd">
<svg width="100%" height="100%" viewBox="0 0 398 481" version="1.1" xmlns="http://www.w3.org/2000/svg" xmlns:xlink="http://www.w3.org/1999/xlink" xml:space="preserve" xmlns:serif="http://www.serif.com/" style="fill-rule:evenodd;clip-rule:evenodd;stroke-miterlimit:10;">
    <g transform="matrix(1,0,0,1,-1447,-840)">
        <g>
            <g transform="matrix(0.163068,4.16347,4.16347,-0.163068,1857.09,895.324)">
                <path d="M-11.573,-92.672L93.215,-92.672L96.216,-16.049L-8.254,-7.937L-11.573,-92.672Z" style="fill:rgb(135,197,64);fill-rule:nonzero;stroke:rgb(12,147,68);stroke-width:1.06px;"/>
            </g>
            <g transform="matrix(-0.257543,-4.1587,-4.1587,0.257543,1764.17,1250.47)">
                <path d="M-8.992,41.427L40.983,41.427L38.75,5.369L-10.896,10.688L-8.992,41.427Z" style="fill:rgb(84,185,71);fill-rule:nonzero;"/>
            </g>
            <g transform="matrix(4.15191,-0.350375,-0.350375,-4.15191,1521.31,942.44)">
                <path d="M0.822,0.773L20.075,0.773L17.026,-19.593L0.865,-19.659L0.822,0.773Z" style="fill:rgb(84,185,71);fill-rule:nonzero;"/>
            </g>
            <g transform="matrix(4.15308,-0.336204,-0.336204,-4.15308,1515.7,935.42)">
                <path d="M0.76,0.745L20.007,0.745L17.094,-18.897L0.94,-18.96L0.76,0.745Z" style="fill:rgb(179,226,237);fill-rule:nonzero;stroke:rgb(12,147,68);stroke-width:1.06px;"/>
            </g>
            <g transform="matrix(4.16667,0,0,4.16667,1532.91,983.927)">
                <path d="M0,-9.952C-0.147,-9.916 -0.303,-9.875 -0.407,-9.763C-0.52,-9.639 -0.545,-9.46 -0.56,-9.292C-0.899,-5.705 -0.278,-2.03 1.222,1.247C1.779,1.092 1.867,0.357 1.876,-0.22C1.94,-4.277 3.713,-7.32 5.848,-10.583C4.328,-11.199 1.643,-10.351 0,-9.952" style="fill:white;fill-rule:nonzero;"/>
            </g>
            <g transform="matrix(4.15191,-0.350393,-0.350393,-4.15191,1695.7,937.485)">
                <path d="M0.822,0.773L20.074,0.773L17.025,-19.593L0.865,-19.659L0.822,0.773Z" style="fill:rgb(84,185,71);fill-rule:nonzero;"/>
            </g>
            <g transform="matrix(4.15308,-0.336221,-0.336221,-4.15308,1690.1,930.464)">
                <path d="M0.761,0.744L20.006,0.744L17.094,-18.898L0.94,-18.961L0.761,0.744Z" style="fill:rgb(255,217,84);fill-rule:nonzero;stroke:rgb(12,147,68);stroke-width:1.06px;"/>
            </g>
            <g transform="matrix(4.16667,0,0,4.16667,1707.31,978.972)">
                <path d="M0,-9.952C-0.148,-9.916 -0.304,-9.875 -0.408,-9.762C-0.522,-9.639 -0.545,-9.459 -0.561,-9.292C-0.9,-5.705 -0.278,-2.03 1.222,1.247C1.779,1.092 1.867,0.357 1.876,-0.22C1.939,-4.277 3.713,-7.32 5.848,-10.583C4.328,-11.199 1.643,-10.351 0,-9.952" style="fill:white;fill-rule:nonzero;"/>
            </g>
            <g transform="matrix(-0.257543,-4.1587,-4.1587,0.257543,1754.17,1250.47)">
                <path d="M-8.992,41.427L40.983,41.427L38.75,5.369L-10.896,10.688L-8.992,41.427Z" style="fill:rgb(179,226,237);fill-rule:nonzero;stroke:rgb(12,147,68);stroke-width:1.06px;"/>
            </g>
            <g transform="matrix(0,4.16667,4.16667,0,1750.51,1194.61)">
                <path d="M-24.94,-24.94L24.94,-24.94" style="fill:none;fill-rule:nonzero;stroke:rgb(12,147,68);stroke-width:1.06px;"/>
            </g>
            <g transform="matrix(4.16667,0,0,4.16667,1589.85,1170.96)">
                <path d="M0,-16.535C-0.278,-16.535 -0.596,-16.516 -0.765,-16.297C-0.88,-16.147 -0.89,-15.945 -0.896,-15.756C-1.062,-10.21 -0.957,-4.521 1.004,0.669C0.019,-1.938 1.807,-8.005 2.564,-10.611C2.835,-11.545 4.84,-14.899 4.638,-15.621C4.193,-17.204 1.479,-16.534 0,-16.535" style="fill:white;fill-rule:nonzero;"/>
            </g>
        </g>
    </g>
</svg>
