<?xml version="1.0" encoding="UTF-8" standalone="no"?>
<!DOCTYPE svg PUBLIC "-//W3C//DTD SVG 1.1//EN" "http://www.w3.org/Graphics/SVG/1.1/DTD/svg11.dtd">
<svg width="100%" height="100%" viewBox="0 0 399 875" version="1.1" xmlns="http://www.w3.org/2000/svg" xmlns:xlink="http://www.w3.org/1999/xlink" xml:space="preserve" xmlns:serif="http://www.serif.com/" style="fill-rule:evenodd;clip-rule:evenodd;stroke-miterlimit:10;">
    <g transform="matrix(1,0,0,1,-1886,-450)">
        <g>
            <g transform="matrix(0.0858074,4.16578,4.16578,-0.0858074,2496.46,702.258)">
                <path d="M-57.976,-139.865L141.114,-139.865L142.693,-63.198L-56.229,-55.083L-57.976,-139.865Z" style="fill:rgb(140,197,236);fill-rule:nonzero;"/>
            </g>
            <g transform="matrix(4.16667,0,0,4.16667,1912.44,501.76)">
                <path d="M0,5.917C1.531,9.498 6.025,11.026 9.869,10.398C13.712,9.768 17.055,7.494 20.259,5.279C25.905,12.715 38.261,13.673 44.986,7.198C52.629,12.492 63.959,11.586 70.663,5.143C73.625,8.538 78.377,10.277 82.833,9.592L83.573,-7.756L-1.184,-7.033C0.459,-2.074 -2.053,1.113 0,5.917" style="fill:rgb(19,117,188);fill-rule:nonzero;"/>
            </g>
            <g transform="matrix(0.0858074,4.16578,4.16578,-0.0858074,2496.46,702.258)">
                <path d="M-57.976,-139.865L141.114,-139.865L142.693,-63.198L-56.229,-55.083L-57.976,-139.865Z" style="fill:none;fill-rule:nonzero;stroke:rgb(19,117,188);stroke-width:1.06px;"/>
            </g>
            <g transform="matrix(-0.257626,-4.15869,-4.15869,0.257626,2211.44,1254.04)">
                <path d="M-8.992,41.427L40.983,41.427L38.749,5.369L-10.897,10.688L-8.992,41.427Z" style="fill:rgb(90,166,220);fill-rule:nonzero;"/>
            </g>
            <g transform="matrix(4.15191,-0.350393,-0.350393,-4.15191,1959.88,721.767)">
                <path d="M0.822,0.773L20.074,0.773L17.025,-19.593L0.865,-19.659L0.822,0.773Z" style="fill:rgb(90,166,220);fill-rule:nonzero;"/>
            </g>
            <g transform="matrix(4.15308,-0.336204,-0.336204,-4.15308,1954.27,714.746)">
                <path d="M0.76,0.745L20.007,0.745L17.094,-18.897L0.94,-18.96L0.76,0.745Z" style="fill:rgb(255,232,117);fill-rule:nonzero;stroke:rgb(19,117,188);stroke-width:1.06px;"/>
            </g>
            <g transform="matrix(4.16667,0,0,4.16667,1971.49,763.254)">
                <path d="M0,-9.952C-0.148,-9.916 -0.304,-9.875 -0.407,-9.762C-0.522,-9.639 -0.545,-9.46 -0.561,-9.292C-0.9,-5.705 -0.278,-2.03 1.222,1.247C1.779,1.092 1.867,0.356 1.876,-0.22C1.939,-4.277 3.713,-7.32 5.848,-10.583C4.328,-11.199 1.643,-10.351 0,-9.952" style="fill:white;fill-rule:nonzero;"/>
            </g>
            <g transform="matrix(4.15189,-0.35059,-0.35059,-4.15189,2134.27,716.815)">
                <path d="M0.822,0.774L20.076,0.774L17.025,-19.594L0.865,-19.658L0.822,0.774Z" style="fill:rgb(90,166,220);fill-rule:nonzero;"/>
            </g>
            <g transform="matrix(4.15306,-0.336419,-0.336419,-4.15306,2128.67,709.794)">
                <path d="M0.761,0.745L20.008,0.745L17.094,-18.898L0.939,-18.96L0.761,0.745Z" style="fill:rgb(255,232,117);fill-rule:nonzero;stroke:rgb(19,117,188);stroke-width:1.06px;"/>
            </g>
            <g transform="matrix(4.16667,0,0,4.16667,2145.89,758.298)">
                <path d="M0,-9.952C-0.148,-9.916 -0.304,-9.875 -0.408,-9.762C-0.521,-9.639 -0.546,-9.459 -0.561,-9.292C-0.9,-5.703 -0.279,-2.03 1.222,1.247C1.779,1.092 1.867,0.357 1.875,-0.22C1.939,-4.277 3.713,-7.32 5.848,-10.583C4.327,-11.199 1.642,-10.349 0,-9.952" style="fill:white;fill-rule:nonzero;"/>
            </g>
            <g transform="matrix(4.15191,-0.350393,-0.350393,-4.15191,1958.12,587.757)">
                <path d="M0.822,0.773L20.074,0.773L17.025,-19.593L0.865,-19.659L0.822,0.773Z" style="fill:rgb(90,166,220);fill-rule:nonzero;"/>
            </g>
            <g transform="matrix(4.15308,-0.336204,-0.336204,-4.15308,1952.51,580.737)">
                <path d="M0.76,0.745L20.007,0.745L17.094,-18.897L0.94,-18.961L0.76,0.745Z" style="fill:rgb(255,232,117);fill-rule:nonzero;stroke:rgb(19,117,188);stroke-width:1.06px;"/>
            </g>
            <g transform="matrix(4.16667,0,0,4.16667,1969.73,629.244)">
                <path d="M0,-9.952C-0.147,-9.916 -0.303,-9.875 -0.407,-9.762C-0.522,-9.639 -0.545,-9.459 -0.56,-9.292C-0.9,-5.705 -0.278,-2.03 1.222,1.247C1.779,1.092 1.867,0.356 1.876,-0.22C1.939,-4.277 3.713,-7.32 5.848,-10.583C4.328,-11.199 1.643,-10.351 0,-9.952" style="fill:white;fill-rule:nonzero;"/>
            </g>
            <g transform="matrix(4.15189,-0.35059,-0.35059,-4.15189,2132.51,582.806)">
                <path d="M0.822,0.774L20.076,0.774L17.026,-19.594L0.865,-19.658L0.822,0.774Z" style="fill:rgb(90,166,220);fill-rule:nonzero;"/>
            </g>
            <g transform="matrix(4.15306,-0.336419,-0.336419,-4.15306,2126.91,575.785)">
                <path d="M0.761,0.745L20.008,0.745L17.094,-18.898L0.939,-18.96L0.761,0.745Z" style="fill:rgb(255,232,117);fill-rule:nonzero;stroke:rgb(19,117,188);stroke-width:1.06px;"/>
            </g>
            <g transform="matrix(4.16667,0,0,4.16667,2144.13,624.288)">
                <path d="M0,-9.952C-0.148,-9.916 -0.304,-9.874 -0.408,-9.762C-0.522,-9.639 -0.546,-9.459 -0.561,-9.292C-0.9,-5.704 -0.279,-2.03 1.222,1.247C1.779,1.093 1.867,0.357 1.875,-0.22C1.939,-4.277 3.713,-7.32 5.848,-10.583C4.327,-11.199 1.642,-10.35 0,-9.952" style="fill:white;fill-rule:nonzero;"/>
            </g>
            <g transform="matrix(4.15191,-0.350393,-0.350393,-4.15191,1958.12,849.352)">
                <path d="M0.822,0.773L20.074,0.773L17.025,-19.593L0.865,-19.659L0.822,0.773Z" style="fill:rgb(90,166,220);fill-rule:nonzero;"/>
            </g>
            <g transform="matrix(4.15306,-0.336419,-0.336419,-4.15306,1952.51,842.334)">
                <path d="M0.761,0.745L20.008,0.745L17.093,-18.898L0.939,-18.96L0.761,0.745Z" style="fill:rgb(255,232,117);fill-rule:nonzero;stroke:rgb(19,117,188);stroke-width:1.06px;"/>
            </g>
            <g transform="matrix(4.16667,0,0,4.16667,1969.73,890.835)">
                <path d="M0,-9.951C-0.147,-9.915 -0.303,-9.874 -0.407,-9.762C-0.522,-9.638 -0.545,-9.459 -0.56,-9.292C-0.9,-5.704 -0.278,-2.029 1.222,1.248C1.779,1.093 1.867,0.358 1.876,-0.219C1.939,-4.276 3.713,-7.319 5.848,-10.582C4.328,-11.199 1.643,-10.35 0,-9.951" style="fill:white;fill-rule:nonzero;"/>
            </g>
            <g transform="matrix(4.15191,-0.350375,-0.350375,-4.15191,2132.51,844.396)">
                <path d="M0.822,0.773L20.075,0.773L17.027,-19.593L0.866,-19.659L0.822,0.773Z" style="fill:rgb(90,166,220);fill-rule:nonzero;"/>
            </g>
            <g transform="matrix(4.15308,-0.336204,-0.336204,-4.15308,2126.91,837.376)">
                <path d="M0.76,0.745L20.007,0.745L17.095,-18.898L0.94,-18.961L0.76,0.745Z" style="fill:rgb(255,232,117);fill-rule:nonzero;stroke:rgb(19,117,188);stroke-width:1.06px;"/>
            </g>
            <g transform="matrix(4.16667,0,0,4.16667,2144.13,885.883)">
                <path d="M0,-9.952C-0.148,-9.916 -0.304,-9.875 -0.408,-9.762C-0.522,-9.639 -0.546,-9.46 -0.561,-9.292C-0.9,-5.705 -0.279,-2.03 1.222,1.247C1.779,1.092 1.867,0.356 1.875,-0.22C1.939,-4.277 3.713,-7.32 5.848,-10.583C4.327,-11.199 1.642,-10.351 0,-9.952" style="fill:white;fill-rule:nonzero;"/>
            </g>
            <g transform="matrix(4.15191,-0.350393,-0.350393,-4.15191,1956.36,976.935)">
                <path d="M0.822,0.773L20.074,0.773L17.025,-19.593L0.865,-19.659L0.822,0.773Z" style="fill:rgb(90,166,220);fill-rule:nonzero;"/>
            </g>
            <g transform="matrix(4.15308,-0.336204,-0.336204,-4.15308,1950.75,969.914)">
                <path d="M0.76,0.745L20.007,0.745L17.094,-18.897L0.94,-18.961L0.76,0.745Z" style="fill:rgb(255,232,117);fill-rule:nonzero;stroke:rgb(19,117,188);stroke-width:1.06px;"/>
            </g>
            <g transform="matrix(4.16667,0,0,4.16667,1967.97,1018.42)">
                <path d="M0,-9.952C-0.147,-9.916 -0.303,-9.875 -0.407,-9.762C-0.522,-9.639 -0.545,-9.459 -0.56,-9.292C-0.9,-5.705 -0.278,-2.03 1.222,1.247C1.779,1.092 1.867,0.356 1.876,-0.22C1.939,-4.277 3.713,-7.32 5.848,-10.583C4.328,-11.199 1.643,-10.351 0,-9.952" style="fill:white;fill-rule:nonzero;"/>
            </g>
            <g transform="matrix(4.15191,-0.350393,-0.350393,-4.15191,2130.76,971.981)">
                <path d="M0.822,0.773L20.074,0.773L17.025,-19.593L0.865,-19.659L0.822,0.773Z" style="fill:rgb(90,166,220);fill-rule:nonzero;"/>
            </g>
            <g transform="matrix(4.15306,-0.336436,-0.336436,-4.15306,2125.15,964.963)">
                <path d="M0.761,0.745L20.007,0.745L17.093,-18.898L0.938,-18.96L0.761,0.745Z" style="fill:rgb(255,232,117);fill-rule:nonzero;stroke:rgb(19,117,188);stroke-width:1.06px;"/>
            </g>
            <g transform="matrix(4.16667,0,0,4.16667,2142.37,1013.46)">
                <path d="M0,-9.951C-0.148,-9.915 -0.304,-9.874 -0.408,-9.762C-0.522,-9.638 -0.546,-9.459 -0.561,-9.292C-0.9,-5.704 -0.278,-2.029 1.222,1.248C1.779,1.093 1.867,0.357 1.875,-0.219C1.939,-4.276 3.713,-7.319 5.848,-10.582C4.328,-11.199 1.642,-10.35 0,-9.951" style="fill:white;fill-rule:nonzero;"/>
            </g>
            <g transform="matrix(-0.257626,-4.15869,-4.15869,0.257626,2201.44,1254.04)">
                <path d="M-8.992,41.427L40.983,41.427L38.749,5.369L-10.897,10.688L-8.992,41.427Z" style="fill:rgb(255,232,117);fill-rule:nonzero;stroke:rgb(19,117,188);stroke-width:1.06px;"/>
            </g>
            <g transform="matrix(0,4.16667,4.16667,0,2197.78,1198.19)">
                <path d="M-24.94,-24.94L24.94,-24.94" style="fill:none;fill-rule:nonzero;stroke:rgb(19,117,188);stroke-width:1.06px;"/>
            </g>
            <g transform="matrix(4.16667,0,0,4.16667,2037.12,1174.54)">
                <path d="M0,-16.535C-0.278,-16.535 -0.596,-16.516 -0.765,-16.297C-0.88,-16.147 -0.89,-15.945 -0.897,-15.756C-1.063,-10.211 -0.957,-4.521 1.003,0.669C0.018,-1.938 1.807,-8.005 2.564,-10.611C2.835,-11.546 4.839,-14.9 4.636,-15.622C4.192,-17.204 1.478,-16.534 0,-16.535" style="fill:white;fill-rule:nonzero;"/>
            </g>
        </g>
    </g>
</svg>
