<?xml version="1.0" encoding="UTF-8" standalone="no"?>
<!DOCTYPE svg PUBLIC "-//W3C//DTD SVG 1.1//EN" "http://www.w3.org/Graphics/SVG/1.1/DTD/svg11.dtd">
<svg width="100%" height="100%" viewBox="0 0 243 91" version="1.1" xmlns="http://www.w3.org/2000/svg" xmlns:xlink="http://www.w3.org/1999/xlink" xml:space="preserve" xmlns:serif="http://www.serif.com/" style="fill-rule:evenodd;clip-rule:evenodd;stroke-linejoin:round;stroke-miterlimit:2;">
    <g transform="matrix(1,0,0,1,-1271,-1428)">
        <g>
            <g transform="matrix(4.16667,0,0,4.16667,1340.79,1455.44)">
                <path d="M0,3.791C-1.355,8.262 -6.631,10.233 -10.93,9.094C-15.673,7.836 -16.859,3.859 -14.829,-0.14C-14.809,-0.162 -14.787,-0.179 -14.771,-0.208C-12.737,-3.771 -8.971,-6.442 -4.716,-5.353C-0.582,-4.294 1.192,-0.143 0,3.791" style="fill:rgb(87,170,70);fill-rule:nonzero;"/>
            </g>
            <g transform="matrix(4.16667,0,0,4.16667,0,0)">
                <g opacity="0.2">
                    <g transform="matrix(1,0,0,1,307.755,346.925)">
                        <path d="M0,1.418C0.059,2.095 0.334,2.737 0.745,3.274C1.632,4.432 3.082,5.107 4.509,5.272C5.271,5.359 6.064,5.32 6.797,5.081C7.62,4.812 8.39,4.352 9.058,3.806C9.617,3.35 10.076,2.817 10.473,2.218C10.79,1.739 11.044,1.215 11.278,0.691C11.55,0.08 11.793,-0.551 11.957,-1.2C11.989,-1.326 12.018,-1.453 12.041,-1.581C11.297,-2.213 10.389,-2.697 9.318,-2.972C5.532,-3.941 2.136,-1.932 0,1.034C-0.003,1.162 -0.011,1.289 0,1.418" style="fill:white;fill-rule:nonzero;"/>
                    </g>
                </g>
            </g>
            <g transform="matrix(4.16667,0,0,4.16667,1278.36,1488.31)">
                <path d="M0,-8.941C-7.238,1.373 11.05,6.929 15.402,-2.498C17.337,-6.687 16.128,-11.886 11.683,-13.775C6.752,-15.87 1.812,-12.922 -0.44,-8.477C-0.662,-8.039 -0.024,-7.657 0.223,-8.089C2.254,-11.649 6.014,-14.316 10.263,-13.228C14.391,-12.171 16.16,-8.028 14.97,-4.101C13.617,0.364 8.348,2.331 4.055,1.195C-0.931,-0.127 -1.98,-4.451 0.499,-8.649C0.69,-8.974 0.21,-9.241 0,-8.941" style="fill:rgb(35,31,32);fill-rule:nonzero;"/>
            </g>
            <g transform="matrix(4.16667,0,0,4.16667,1330.28,1449.93)">
                <path d="M0,-1.753C-0.274,-2.06 -0.706,-2.417 -1.126,-2.148C-1.462,-1.933 -1.466,-1.479 -1.402,-1.131C-1.254,-0.321 -0.44,0.664 0.469,0.252C0.775,0.113 0.621,-0.396 0.298,-0.378C0.037,-0.363 -0.118,-0.349 -0.317,-0.531C-0.502,-0.701 -0.624,-0.94 -0.691,-1.176C-0.728,-1.305 -0.735,-1.35 -0.739,-1.47C-0.741,-1.563 -0.736,-1.521 -0.733,-1.556C-0.726,-1.631 -0.703,-1.593 -0.742,-1.571C-0.707,-1.59 -0.776,-1.579 -0.792,-1.556C-0.805,-1.538 -0.713,-1.554 -0.743,-1.559C-0.581,-1.531 -0.44,-1.447 -0.302,-1.361C-0.053,-1.207 0.184,-1.548 0,-1.753" style="fill:rgb(35,31,32);fill-rule:nonzero;"/>
            </g>
            <g transform="matrix(4.16667,0,0,4.16667,1286.78,1475.63)">
                <path d="M0,0.079C-0.007,0.102 -0.024,0.121 -0.039,0.14C-0.016,0.114 -0.012,0.08 0.004,0.051C0.002,0.06 0.001,0.07 0,0.079M-0.002,0.092C-0.003,0.094 -0.005,0.097 -0.007,0.099C-0.004,0.094 -0.003,0.09 -0.001,0.086C-0.001,0.088 -0.001,0.09 -0.002,0.092M0.058,-0.062C0.122,-0.558 -0.622,-0.58 -0.704,-0.129C-0.881,0.384 -0.054,0.659 0.008,0.079C0.009,0.079 0.009,0.078 0.01,0.077C0.009,0.077 0.009,0.078 0.008,0.079C0.009,0.073 0.012,0.068 0.011,0.062C0.008,0.069 0.005,0.076 0.002,0.084C0.007,0.028 0.045,-0.008 0.058,-0.062" style="fill:rgb(35,31,32);fill-rule:nonzero;"/>
            </g>
            <g transform="matrix(4.16667,0,0,4.16667,1286.91,1475.89)">
                <path d="M0,-0.044C-0.005,-0.028 -0.015,-0.016 -0.019,0C-0.012,-0.015 -0.006,-0.029 0,-0.044" style="fill:rgb(35,31,32);fill-rule:nonzero;"/>
            </g>
            <g transform="matrix(4.16667,0,0,4.16667,1305.84,1490.7)">
                <path d="M0,-0.527C-0.327,-0.854 -0.852,-0.337 -0.518,-0.009C-0.192,0.327 0.329,-0.203 0,-0.527" style="fill:rgb(35,31,32);fill-rule:nonzero;"/>
            </g>
            <g transform="matrix(4.16667,0,0,4.16667,1297.57,1479.67)">
                <path d="M0,-0.512C-0.229,-0.899 -0.791,-0.572 -0.671,-0.175C-0.496,0.387 0.328,-0.025 0,-0.512" style="fill:rgb(35,31,32);fill-rule:nonzero;"/>
            </g>
            <g transform="matrix(4.16667,0,0,4.16667,1312.65,1463.89)">
                <path d="M0,-0.471C-0.313,-0.788 -0.788,-0.289 -0.49,0.019C-0.181,0.317 0.318,-0.159 0,-0.471" style="fill:rgb(35,31,32);fill-rule:nonzero;"/>
            </g>
            <g transform="matrix(4.16667,0,0,4.16667,1323.29,1479.1)">
                <path d="M0,-0.274C-0.175,-0.453 -0.454,-0.174 -0.273,-0.001C-0.098,0.179 0.18,-0.099 0,-0.274" style="fill:rgb(35,31,32);fill-rule:nonzero;"/>
            </g>
            <g transform="matrix(4.16667,0,0,4.16667,1399.09,1471.28)">
                <path d="M0,2.519C-1.229,6.652 -5.137,10.215 -9.573,10.172C-20.663,10.066 -15.292,-7.696 -5.503,-6.378C-1.114,-5.256 1.402,-2.197 0,2.519" style="fill:rgb(166,206,66);fill-rule:nonzero;"/>
            </g>
            <g transform="matrix(4.16667,0,0,4.16667,0,0)">
                <g opacity="0.3">
                    <g transform="matrix(1,0,0,1,323.051,352.962)">
                        <path d="M0,-3.091C-0.554,-2.145 -0.823,-1.028 -0.686,0.065C-0.565,1.029 -0.096,1.922 0.667,2.528C1.544,3.223 2.71,3.486 3.812,3.447C4.93,3.407 5.979,2.993 6.831,2.27C7.614,1.606 8.212,0.757 8.745,-0.113C8.874,-0.324 8.994,-0.542 9.124,-0.752C9.24,-0.94 9.455,-1.045 9.647,-1.138C9.885,-1.252 10.136,-1.347 10.355,-1.496C10.544,-1.625 10.604,-1.798 10.642,-2.017C10.724,-2.506 10.654,-3.016 10.771,-3.499C10.827,-3.737 10.981,-3.968 11.117,-4.168C11.135,-4.195 11.158,-4.218 11.176,-4.244C10.173,-5.154 8.827,-5.824 7.227,-6.233C4.67,-6.577 2.42,-5.613 0.68,-4.008C0.429,-3.722 0.194,-3.422 0,-3.091" style="fill:white;fill-rule:nonzero;"/>
                    </g>
                </g>
            </g>
            <g transform="matrix(4.16667,0,0,4.16667,1378.46,1509.79)">
                <path d="M0,-16.085C-10.513,-19.179 -17.366,0.409 -5.598,1.814C5.108,3.094 11.881,-15.489 -0.896,-16.377C-1.271,-16.403 -1.353,-15.802 -0.985,-15.72C3.661,-14.682 6.388,-11.598 4.939,-6.726C3.712,-2.6 -0.193,0.961 -4.623,0.918C-15.849,0.811 -10.178,-17.424 -0.145,-15.56C0.195,-15.496 0.341,-15.984 0,-16.085" style="fill:rgb(35,31,32);fill-rule:nonzero;"/>
            </g>
            <g transform="matrix(4.16667,0,0,4.16667,1350.19,1499.36)">
                <path d="M0,-0.318C-0.31,-0.844 -1.091,-0.252 -0.659,0.184C-0.333,0.526 0.246,0.089 0,-0.318" style="fill:rgb(35,31,32);fill-rule:nonzero;"/>
            </g>
            <g transform="matrix(4.16667,0,0,4.16667,1343.31,1485.33)">
                <path d="M0,-0.345C-0.231,-0.574 -0.652,-0.258 -0.405,0.004C-0.178,0.229 0.245,-0.086 0,-0.345" style="fill:rgb(35,31,32);fill-rule:nonzero;"/>
            </g>
            <g transform="matrix(4.16667,0,0,4.16667,1359,1472.7)">
                <path d="M0,0.049C0.008,0.033 0.011,0.017 0.013,0C0.01,0.016 0.006,0.033 0,0.049" style="fill:rgb(35,31,32);fill-rule:nonzero;"/>
            </g>
            <g transform="matrix(4.16667,0,0,4.16667,1361.4,1473.73)">
                <path d="M0,-0.232C-0.053,-0.544 -0.538,-0.549 -0.565,-0.225C-0.565,-0.226 -0.565,-0.227 -0.564,-0.227C-0.565,-0.219 -0.569,-0.212 -0.569,-0.205C-0.569,-0.209 -0.569,-0.211 -0.568,-0.215C-0.761,0.317 0.133,0.29 0,-0.232" style="fill:rgb(35,31,32);fill-rule:nonzero;"/>
            </g>
            <g transform="matrix(4.16667,0,0,4.16667,1359.04,1472.81)">
                <path d="M0,0C0,0.002 0,0.003 -0.001,0.005C0,0.002 0,-0.002 0.002,-0.005C0.001,-0.003 0,-0.002 0,0" style="fill:rgb(35,31,32);fill-rule:nonzero;"/>
            </g>
            <g transform="matrix(4.16667,0,0,4.16667,1477.69,1440.18)">
                <path d="M0,14.845C-2.801,14.103 -5.822,10.573 -6.602,7.824C-7.761,3.741 -3.453,-1.166 0.495,-1.302C0.533,-1.278 0.576,-1.259 0.629,-1.254C4.517,-0.81 7.016,3.532 7.676,7.069C8.536,11.674 4.915,16.147 0,14.845" style="fill:rgb(167,189,56);fill-rule:nonzero;"/>
            </g>
            <g transform="matrix(4.16667,0,0,4.16667,0,0)">
                <g opacity="0.3">
                    <g transform="matrix(1,0,0,1,353.061,352.969)">
                        <path d="M0,-7.519C-0.276,-6.592 -0.85,-5.8 -1.257,-4.932C-1.458,-4.503 -1.617,-4.046 -1.662,-3.572C-1.713,-3.042 -1.62,-2.522 -1.438,-2.026C-1.14,-2 -0.837,-1.885 -0.546,-2.021C-0.48,-2.051 -0.4,-2.016 -0.4,-1.937C-0.399,-1.784 -0.396,-1.63 -0.385,-1.477C-0.349,-0.994 -0.23,-0.5 0.1,-0.13C0.265,0.055 0.466,0.201 0.681,0.322C0.915,0.454 1.164,0.59 1.438,0.581C2.003,0.559 2.501,0.211 3.06,0.148C3.185,0.134 3.299,0.151 3.423,0.164C3.564,0.177 3.693,0.199 3.825,0.254C4.086,0.364 4.299,0.553 4.526,0.717C4.646,0.802 4.77,0.883 4.904,0.943C5.049,1.006 5.197,1.026 5.353,1.044C5.629,1.078 5.906,1.097 6.185,1.101C6.687,1.109 7.192,1.062 7.679,0.933C8.296,0.768 8.854,0.456 9.296,0.01C9.283,-0.079 9.279,-0.167 9.262,-0.257C8.602,-3.794 6.103,-8.136 2.215,-8.58C2.162,-8.585 2.119,-8.604 2.081,-8.628C1.427,-8.606 0.766,-8.442 0.118,-8.184C0.094,-7.96 0.065,-7.738 0,-7.519" style="fill:white;fill-rule:nonzero;"/>
                    </g>
                </g>
            </g>
            <g transform="matrix(4.16667,0,0,4.16667,1483.99,1504.51)">
                <path d="M0,-17.112C-4.126,-18.718 -8.305,-13.711 -8.952,-10.003C-9.706,-5.681 -4.861,-0.096 -0.625,0.364C10.814,1.606 8.396,-16.548 -0.883,-17.295C-1.279,-17.327 -1.266,-16.728 -0.883,-16.684C2.999,-16.239 5.492,-11.901 6.151,-8.37C7.009,-3.773 3.399,0.692 -1.508,-0.608C-4.305,-1.348 -7.322,-4.876 -8.102,-7.619C-9.35,-12.015 -4.262,-17.35 -0.117,-16.688C0.163,-16.643 0.266,-17.008 0,-17.112" style="fill:rgb(35,31,32);fill-rule:nonzero;"/>
            </g>
            <g transform="matrix(4.16667,0,0,4.16667,1460.93,1443.06)">
                <path d="M0,1.15C-0.175,1.32 -0.118,1.595 0.107,1.699C0.391,1.828 0.721,1.587 0.938,1.429C1.435,1.071 2.109,0.141 1.65,-0.47C1.495,-0.678 1.107,-0.637 1.118,-0.327C1.132,0.059 1.27,0.323 1.027,0.683C0.938,0.815 0.823,0.931 0.701,1.033C0.637,1.086 0.323,1.239 0.308,1.329C0.338,1.155 0.141,1.014 0,1.15" style="fill:rgb(35,31,32);fill-rule:nonzero;"/>
            </g>
            <g transform="matrix(4.16667,0,0,4.16667,1467.69,1491.51)">
                <path d="M0,-0.705C-0.409,-0.713 -0.401,0.008 0,0.005C0.402,0.008 0.408,-0.713 0,-0.705" style="fill:rgb(35,31,32);fill-rule:nonzero;"/>
            </g>
            <g transform="matrix(4.16667,0,0,4.16667,1503.38,1487.37)">
                <path d="M0,-0.595C-0.484,-0.779 -0.754,-0.022 -0.216,0.071C0.214,0.184 0.446,-0.46 0,-0.595" style="fill:rgb(35,31,32);fill-rule:nonzero;"/>
            </g>
            <g transform="matrix(4.16667,0,0,4.16667,1504.99,1467.16)">
                <path d="M0,-0.177C-0.092,-0.491 -0.599,-0.437 -0.6,-0.104C-0.595,0.314 0.105,0.233 0,-0.177" style="fill:rgb(35,31,32);fill-rule:nonzero;"/>
            </g>
            <g transform="matrix(4.16667,0,0,4.16667,1489.41,1445.08)">
                <path d="M0,-0.338C-0.24,-0.205 -0.367,0.219 -0.008,0.273C0.453,0.325 0.535,-0.663 0,-0.338" style="fill:rgb(35,31,32);fill-rule:nonzero;"/>
            </g>
            <g transform="matrix(4.16667,0,0,4.16667,1433.52,1454.09)">
                <path d="M0,14.249C-10.937,18.431 -12.314,-4.182 -0.739,-2.54C6.954,-1.109 7.204,11.495 0,14.249" style="fill:rgb(87,170,70);fill-rule:nonzero;"/>
            </g>
            <g transform="matrix(4.16667,0,0,4.16667,0,0)">
                <g opacity="0.2">
                    <g transform="matrix(1,0,0,1,336.821,353.409)">
                        <path d="M0,-4.172C0.008,-4.052 0.034,-3.932 0.099,-3.818C0.336,-3.404 0.822,-3.167 1.242,-2.989C1.302,-2.964 1.3,-2.877 1.262,-2.837C1.082,-2.65 0.913,-2.452 0.762,-2.241C0.306,-1.603 0.013,-0.821 0.179,-0.032C0.332,0.691 0.815,1.289 1.381,1.743C2.044,2.275 2.843,2.637 3.656,2.87C4.523,3.118 5.436,3.226 6.335,3.159C7.268,3.089 8.127,2.8 8.913,2.295C9.303,2.044 9.688,1.734 9.895,1.308C10.046,0.996 10.061,0.643 10.015,0.304C9.96,-0.091 9.844,-0.477 9.751,-0.863C9.642,-1.322 9.56,-1.789 9.547,-2.262C9.528,-2.909 9.723,-3.54 9.829,-4.174C9.89,-4.528 9.918,-4.881 9.905,-5.233C9.004,-6.088 7.866,-6.71 6.484,-6.967C3.451,-7.398 1.315,-6.154 0,-4.172" style="fill:white;fill-rule:nonzero;"/>
                    </g>
                </g>
            </g>
            <g transform="matrix(4.16667,0,0,4.16667,1431.24,1518.7)">
                <path d="M0,-18.378C-11.372,-21.291 -12.59,1.592 -0.819,-0.039C8.85,-1.379 9.294,-18.612 -1.285,-18.772C-1.675,-18.777 -1.672,-18.185 -1.285,-18.168C7.452,-17.779 8.065,-4.141 0.542,-1.267C-10.4,2.913 -11.764,-19.798 -0.096,-18.03C0.128,-17.996 0.231,-18.319 0,-18.378" style="fill:rgb(35,31,32);fill-rule:nonzero;"/>
            </g>
            <g transform="matrix(4.16667,0,0,4.16667,1408.79,1503.13)">
                <path d="M0,-0.485C-0.35,-0.69 -0.665,-0.103 -0.277,0.051C0.043,0.205 0.313,-0.309 0,-0.485" style="fill:rgb(35,31,32);fill-rule:nonzero;"/>
            </g>
            <g transform="matrix(4.16667,0,0,4.16667,1425.43,1492.39)">
                <path d="M0,-0.168C-0.197,-0.507 -0.747,-0.112 -0.422,0.154C-0.204,0.339 0.15,0.099 0,-0.168" style="fill:rgb(35,31,32);fill-rule:nonzero;"/>
            </g>
            <g transform="matrix(4.16667,0,0,4.16667,1406.61,1460.06)">
                <path d="M0,-0.203C0.005,-0.209 0.01,-0.216 0.016,-0.223C0.01,-0.216 0.005,-0.21 0,-0.203M-0.043,-0.016C-0.045,-0.035 -0.049,-0.055 -0.05,-0.074C-0.046,-0.034 -0.04,0.005 -0.02,0.04L-0.043,-0.016ZM0.362,0.236C0.761,0.015 0.403,-0.654 0.027,-0.32C-0.226,-0.062 -0.02,0.451 0.362,0.236" style="fill:rgb(35,31,32);fill-rule:nonzero;"/>
            </g>
        </g>
    </g>
</svg>
