<?xml version="1.0" encoding="UTF-8" standalone="no"?>
<!DOCTYPE svg PUBLIC "-//W3C//DTD SVG 1.1//EN" "http://www.w3.org/Graphics/SVG/1.1/DTD/svg11.dtd">
<svg width="100%" height="100%" viewBox="0 0 282 117" version="1.1" xmlns="http://www.w3.org/2000/svg" xmlns:xlink="http://www.w3.org/1999/xlink" xml:space="preserve" xmlns:serif="http://www.serif.com/" style="fill-rule:evenodd;clip-rule:evenodd;stroke-linejoin:round;stroke-miterlimit:2;">
    <g transform="matrix(1,0,0,1,-1601,-1415)">
        <g>
            <g transform="matrix(4.16667,0,0,4.16667,1804.06,1447.83)">
                <path d="M0,-5.645C4.658,-9.884 12.543,-2.485 6.092,1.414C1.256,4.239 -2.898,-1.621 0,-5.645" style="fill:rgb(183,75,113);fill-rule:nonzero;"/>
            </g>
            <g transform="matrix(4.16667,0,0,4.16667,1804.54,1458.26)">
                <path d="M0,-7.998C2.187,-9.263 4.717,-9.45 6.675,-7.645C8.808,-5.682 8.208,-2.853 5.83,-1.384C4.092,-0.31 1.869,-0.61 0.452,-2.082C-1.253,-3.853 -0.745,-5.869 0.173,-7.871C0.356,-8.271 -0.147,-8.767 -0.486,-8.38C-4.528,-3.766 1.923,2.689 6.721,-0.844C9.163,-2.642 9.816,-5.785 7.61,-8.064C5.548,-10.194 1.796,-10.687 -0.263,-8.338C-0.42,-8.158 -0.222,-7.869 0,-7.998" style="fill:rgb(35,31,32);fill-rule:nonzero;"/>
            </g>
            <g transform="matrix(4.16667,0,0,4.16667,1808.12,1432.92)">
                <path d="M0,3.43C-3.115,10.034 -14.839,5.594 -9.651,-1.437C-5.721,-6.604 1.324,-2.164 0,3.43" style="fill:rgb(183,75,113);fill-rule:nonzero;"/>
            </g>
            <g transform="matrix(4.16667,0,0,4.16667,1807.38,1433.81)">
                <path d="M0,3.149C-1.829,5.671 -4.857,6.969 -7.833,5.552C-10.797,4.14 -11.019,0.758 -9.071,-1.663C-7.578,-3.52 -5.013,-4.052 -2.875,-3.004C-0.346,-1.765 -0.057,0.597 -0.192,3.114C-0.219,3.604 0.491,3.661 0.633,3.226C2.844,-3.573 -7.063,-7.367 -10.443,-1.329C-14.648,6.184 -2.252,10.516 0.396,3.316C0.486,3.069 0.133,2.965 0,3.149" style="fill:rgb(35,31,32);fill-rule:nonzero;"/>
            </g>
            <g transform="matrix(4.16667,0,0,4.16667,1725.87,1446.11)">
                <path d="M0,-2.013C1.304,-8.244 15.408,-5.673 11.992,1.181C9.353,6.231 0.321,3.112 0,-2.013" style="fill:rgb(183,75,113);fill-rule:nonzero;"/>
            </g>
            <g transform="matrix(4.16667,0,0,4.16667,1726.65,1446.09)">
                <path d="M0,-1.985C2.548,-8.057 15.08,-4.544 11.378,1.387C10.115,3.41 7.271,3.647 5.166,3.121C2.392,2.428 0.913,0.657 0.197,-2.021C0.074,-2.481 -0.623,-2.383 -0.628,-1.91C-0.695,4.246 10.615,7.104 12.654,0.877C15.092,-6.567 0.644,-9.089 -0.417,-2.1C-0.46,-1.822 -0.107,-1.727 0,-1.985" style="fill:rgb(35,31,32);fill-rule:nonzero;"/>
            </g>
            <g transform="matrix(4.16667,0,0,4.16667,1645.84,1478.58)">
                <path d="M0,2.863C-2.679,-3.944 10.143,-5.023 10.867,1.053C10.141,5.965 2.09,7.886 0,2.863" style="fill:rgb(183,75,113);fill-rule:nonzero;"/>
            </g>
            <g transform="matrix(4.16667,0,0,4.16667,1692.12,1486.69)">
                <path d="M0,-0.925C-0.293,-7.675 -13.204,-6.864 -11.977,0.389C-10.901,6.75 -0.182,5.245 0.192,-0.797C0.223,-1.297 -0.479,-1.329 -0.633,-0.908C-1.474,1.401 -2.795,3.056 -5.346,3.483C-7.489,3.842 -10.109,3.118 -10.883,0.865C-13.036,-5.402 -2.247,-6.436 -0.425,-0.867C-0.353,-0.645 0.012,-0.67 0,-0.925" style="fill:rgb(35,31,32);fill-rule:nonzero;"/>
            </g>
            <g transform="matrix(4.16667,0,0,4.16667,1739.16,1443.21)">
                <path d="M0,3.48C-2.16,9.468 -15.769,4.957 -11.43,-1.354C-8.112,-5.988 0.396,-1.639 0,3.48" style="fill:rgb(183,75,113);fill-rule:nonzero;"/>
            </g>
            <g transform="matrix(4.16667,0,0,4.16667,1738.45,1442.4)">
                <path d="M0,3.603C-3.207,8.974 -14.97,4.578 -11,-1.051C-9.614,-3.016 -6.803,-3 -4.751,-2.278C-1.97,-1.3 -0.56,0.732 -0.216,3.581C-0.165,4 0.531,4.206 0.609,3.692C1.543,-2.488 -9.392,-6.918 -12.206,-0.844C-15.44,6.136 -1.617,10.521 0.396,3.77C0.466,3.533 0.125,3.394 0,3.603" style="fill:rgb(35,31,32);fill-rule:nonzero;"/>
            </g>
            <g transform="matrix(4.16667,0,0,4.16667,1719.36,1471.57)">
                <path d="M0,-0.807C0.07,4.951 -12.886,5.445 -11.214,-1.276C-9.873,-6.252 -1.288,-5.268 0,-0.807" style="fill:rgb(183,75,113);fill-rule:nonzero;"/>
            </g>
            <g transform="matrix(4.16667,0,0,4.16667,1718.59,1473.44)">
                <path d="M0,-1.285C-1.029,4.151 -12.226,4.345 -10.741,-1.661C-10.189,-3.892 -7.571,-4.745 -5.525,-4.687C-2.961,-4.615 -1.353,-3.31 -0.18,-1.133C0.057,-0.693 0.675,-1.009 0.588,-1.457C-0.512,-7.074 -11.461,-7.152 -11.784,-1.083C-12.153,5.867 0.929,5.111 0.426,-1.227C0.408,-1.454 0.049,-1.542 0,-1.285" style="fill:rgb(35,31,32);fill-rule:nonzero;"/>
            </g>
            <g transform="matrix(4.16667,0,0,4.16667,1828.51,1455.66)">
                <path d="M0,4.344C-1.047,-1.935 13.029,-4.659 12.334,2.967C11.707,8.632 2.159,9.003 0,4.344" style="fill:rgb(183,75,113);fill-rule:nonzero;"/>
            </g>
            <g transform="matrix(4.16667,0,0,4.16667,1829.27,1458.48)">
                <path d="M0,3.641C0.135,-2.55 12.461,-4.581 11.861,2.26C11.648,4.689 9.187,6.078 7.009,6.453C4.121,6.949 1.886,5.862 0.195,3.552C-0.061,3.203 -0.755,3.393 -0.572,3.876C1.646,9.752 13.432,8.186 12.813,1.479C12.112,-6.111 -1.954,-3.154 -0.425,3.699C-0.371,3.942 -0.005,3.88 0,3.641" style="fill:rgb(35,31,32);fill-rule:nonzero;"/>
            </g>
            <g transform="matrix(4.16667,0,0,4.16667,1816.45,1464.2)">
                <path d="M0,-6.159C5.083,-10.785 13.688,-2.711 6.648,1.543C1.371,4.626 -3.162,-1.768 0,-6.159" style="fill:rgb(183,75,113);fill-rule:nonzero;"/>
            </g>
            <g transform="matrix(4.16667,0,0,4.16667,1816.94,1475.69)">
                <path d="M0,-8.768C2.383,-10.191 5.181,-10.372 7.325,-8.398C9.673,-6.236 9.013,-3.114 6.394,-1.497C4.48,-0.315 2.033,-0.646 0.474,-2.265C-1.393,-4.203 -0.869,-6.444 0.166,-8.632C0.355,-9.033 -0.161,-9.531 -0.493,-9.141C-4.795,-4.107 2.099,2.855 7.313,-0.975C9.963,-2.921 10.674,-6.323 8.284,-8.793C6.038,-11.116 2.002,-11.623 -0.262,-9.109C-0.422,-8.931 -0.219,-8.637 0,-8.768" style="fill:rgb(35,31,32);fill-rule:nonzero;"/>
            </g>
            <g transform="matrix(4.16667,0,0,4.16667,1770.61,1452.06)">
                <path d="M0,4.385C-3.825,10.604 -14.986,4.899 -9.056,-1.517C-4.578,-6.219 1.933,-1.029 0,4.385" style="fill:rgb(183,75,113);fill-rule:nonzero;"/>
            </g>
            <g transform="matrix(4.16667,0,0,4.16667,1769.99,1440.4)">
                <path d="M0,7.075C-1.997,9.251 -4.815,10.273 -7.603,8.882C-10.697,7.335 -10.905,3.826 -8.609,1.414C-6.995,-0.283 -4.463,-0.62 -2.433,0.529C0.093,1.958 0.237,4.412 -0.194,6.977C-0.267,7.405 0.362,7.771 0.573,7.301C3.427,0.93 -5.554,-4.146 -9.739,1.27C-11.864,4.02 -11.604,7.683 -8.457,9.504C-5.489,11.221 -1.251,10.543 0.341,7.337C0.444,7.128 0.176,6.884 0,7.075" style="fill:rgb(35,31,32);fill-rule:nonzero;"/>
            </g>
            <g transform="matrix(4.16667,0,0,4.16667,1675.37,1481.7)">
                <path d="M0,9.925C-6.146,5.355 5.274,-3.313 9.254,1.656C11.284,6.372 4.637,13.238 0,9.925" style="fill:rgb(183,75,113);fill-rule:nonzero;"/>
            </g>
            <g transform="matrix(4.16667,0,0,4.16667,1714.73,1520.31)">
                <path d="M0,-7.763C-4.045,-13.415 -15.485,-5.166 -10.601,0.48C-6.127,5.652 3.17,-2.108 0.235,-7.747C0.006,-8.187 -0.627,-7.871 -0.532,-7.423C0.037,-4.726 -0.508,-2.454 -2.664,-0.604C-4.404,0.891 -7.199,1.942 -9.25,0.438C-14.797,-3.629 -5.057,-11.547 -0.34,-7.501C-0.167,-7.352 0.152,-7.55 0,-7.763" style="fill:rgb(35,31,32);fill-rule:nonzero;"/>
            </g>
            <g transform="matrix(4.16667,0,0,4.16667,1720.34,1494.51)">
                <path d="M0,6.252C-4.369,-0.037 9.216,-4.617 11.406,1.361C11.828,6.479 3.341,10.869 0,6.252" style="fill:rgb(183,75,113);fill-rule:nonzero;"/>
            </g>
            <g transform="matrix(4.16667,0,0,4.16667,1768.8,1516.42)">
                <path d="M0,-3.993C-2.046,-10.734 -15.847,-6.282 -12.58,0.681C-9.736,6.741 1.18,2.259 0.214,-3.916C0.135,-4.424 -0.562,-4.231 -0.61,-3.804C-0.941,-0.951 -2.324,1.076 -5.115,2.078C-7.159,2.813 -9.974,2.843 -11.371,0.886C-15.365,-4.711 -3.635,-9.191 -0.396,-3.826C-0.271,-3.62 0.072,-3.753 0,-3.993" style="fill:rgb(35,31,32);fill-rule:nonzero;"/>
            </g>
            <g transform="matrix(4.16667,0,0,4.16667,1605.99,1499.76)">
                <path d="M0,3.218C-2.816,-3.904 11.456,-5.258 12.222,1.063C11.463,6.141 2.197,8.476 0,3.218" style="fill:rgb(183,75,113);fill-rule:nonzero;"/>
            </g>
            <g transform="matrix(4.16667,0,0,4.16667,1657.92,1509.27)">
                <path d="M0,-1.255C-0.46,-8.192 -14.56,-7.191 -13.349,0.193C-12.242,6.937 -0.285,5.213 0.191,-1.122C0.229,-1.622 -0.482,-1.653 -0.634,-1.234C-1.571,1.362 -3.25,3.007 -6.053,3.438C-8.321,3.788 -11.251,3.197 -12.189,0.834C-14.725,-5.552 -2.302,-7.108 -0.425,-1.197C-0.354,-0.975 0.018,-1 0,-1.255" style="fill:rgb(35,31,32);fill-rule:nonzero;"/>
            </g>
            <g transform="matrix(4.16667,0,0,4.16667,1795.84,1489.98)">
                <path d="M0,-3.645C2.243,-8.875 14.148,-4.133 9.945,1.27C6.741,5.23 -0.623,0.902 0,-3.645" style="fill:rgb(183,75,113);fill-rule:nonzero;"/>
            </g>
            <g transform="matrix(4.16667,0,0,4.16667,1796.57,1490.77)">
                <path d="M0,-3.762C3.313,-8.488 13.555,-3.401 9.342,1.126C7.904,2.669 5.397,2.385 3.659,1.571C1.352,0.491 0.401,-1.305 0.21,-3.754C0.175,-4.2 -0.503,-4.356 -0.615,-3.866C-1.885,1.658 7.888,6.168 10.688,0.851C13.925,-5.292 1.687,-9.93 -0.396,-3.928C-0.481,-3.683 -0.133,-3.573 0,-3.762" style="fill:rgb(35,31,32);fill-rule:nonzero;"/>
            </g>
            <g transform="matrix(4.16667,0,0,4.16667,1771.55,1511.52)">
                <path d="M0,-6.053C4.478,-10.597 12.058,-2.664 5.856,1.514C1.208,4.544 -2.785,-1.739 0,-6.053" style="fill:rgb(183,75,113);fill-rule:nonzero;"/>
            </g>
            <g transform="matrix(4.16667,0,0,4.16667,1772.04,1524.35)">
                <path d="M0,-8.983C2.071,-10.374 4.516,-10.538 6.366,-8.654C8.397,-6.587 7.961,-3.54 5.626,-1.887C3.86,-0.636 1.635,-1.09 0.321,-2.764C-1.238,-4.752 -0.633,-6.832 0.219,-8.95C0.372,-9.331 -0.228,-9.679 -0.483,-9.358C-4.119,-4.783 1.572,2.798 6.543,-1.384C8.915,-3.38 9.412,-6.695 7.276,-9.067C5.295,-11.268 1.702,-11.781 -0.262,-9.323C-0.402,-9.147 -0.222,-8.834 0,-8.983" style="fill:rgb(35,31,32);fill-rule:nonzero;"/>
            </g>
            <g transform="matrix(4.16667,0,0,4.16667,1776.16,1430.89)">
                <path d="M0,9.369C-3.171,3.848 9.07,-3.613 11.079,3.777C12.467,9.305 3.647,12.982 0,9.369" style="fill:rgb(183,75,113);fill-rule:nonzero;"/>
            </g>
            <g transform="matrix(4.16667,0,0,4.16667,1776.86,1436.84)">
                <path d="M0,7.871C-2.112,2.244 8.332,-4.159 10.57,2.191C11.421,4.605 9.483,6.91 7.523,8.053C4.923,9.567 2.514,9.221 0.092,7.665C-0.333,7.392 -0.708,7.978 -0.417,8.324C3.683,13.206 14.41,7.139 11.15,1.161C7.607,-5.335 -4.094,2.205 -0.396,8.038C-0.271,8.235 0.09,8.111 0,7.871" style="fill:rgb(35,31,32);fill-rule:nonzero;"/>
            </g>
            <g transform="matrix(4.16667,0,0,4.16667,1745.2,1482.1)">
                <path d="M0,-3.183C1.987,-9.231 15.72,-5.112 11.564,1.321C8.381,6.048 -0.249,1.946 0,-3.183" style="fill:rgb(183,75,113);fill-rule:nonzero;"/>
            </g>
            <g transform="matrix(4.16667,0,0,4.16667,1745.91,1482.67)">
                <path d="M0,-3.249C3.213,-9.001 15.293,-4.186 10.943,1.317C9.448,3.209 6.592,3.132 4.531,2.353C1.874,1.347 0.613,-0.611 0.204,-3.338C0.127,-3.848 -0.569,-3.65 -0.621,-3.227C-1.375,2.959 9.814,6.939 12.349,0.795C15.266,-6.276 1.412,-10.188 -0.396,-3.416C-0.459,-3.182 -0.122,-3.031 0,-3.249" style="fill:rgb(35,31,32);fill-rule:nonzero;"/>
            </g>
            <g transform="matrix(4.16667,0,0,4.16667,1717.17,1464.4)">
                <path d="M0,9.822C-7.479,5.302 1.662,-3.275 7.062,1.639C10.422,6.304 5.606,13.097 0,9.822" style="fill:rgb(183,75,113);fill-rule:nonzero;"/>
            </g>
            <g transform="matrix(4.16667,0,0,4.16667,1747.2,1512.21)">
                <path d="M0,-10.031C-2.417,-12.669 -6.666,-12.151 -9.049,-9.684C-11.577,-7.067 -10.817,-3.48 -8.018,-1.422C-2.494,2.638 4.73,-4.714 0.237,-10.057C-0.088,-10.443 -0.617,-9.952 -0.423,-9.549C0.701,-7.218 1.233,-4.809 -0.751,-2.75C-2.417,-1.02 -5.03,-0.665 -7.076,-1.927C-9.862,-3.648 -10.581,-6.996 -8.071,-9.306C-5.788,-11.409 -2.79,-11.23 -0.263,-9.691C-0.047,-9.559 0.163,-9.853 0,-10.031" style="fill:rgb(35,31,32);fill-rule:nonzero;"/>
            </g>
            <g transform="matrix(4.16667,0,0,4.16667,0,0)">
                <g opacity="0.35">
                    <g transform="matrix(0.103132,-0.994668,-0.994668,-0.103132,416.385,352.164)">
                        <path d="M-2.483,-2.753C-3.655,-2.875 -4.714,-1.921 -4.849,-0.624C-4.983,0.674 -3.654,2.691 -2.483,2.812C-1.31,2.934 -0.738,1.114 -0.604,-0.184C-0.469,-1.481 -1.31,-2.632 -2.483,-2.753" style="fill:white;fill-rule:nonzero;"/>
                    </g>
                </g>
            </g>
            <g transform="matrix(4.16667,0,0,4.16667,0,0)">
                <g opacity="0.35">
                    <g transform="matrix(0.635195,-0.772352,-0.772352,-0.635195,407.737,359.536)">
                        <path d="M-1.825,-0.862C-3.523,-0.862 -4.901,0.196 -4.9,1.5C-4.9,2.805 -3.524,3.864 -1.825,3.863C-0.125,3.862 1.252,2.805 1.252,1.5C1.252,0.196 -0.126,-0.862 -1.825,-0.862" style="fill:white;fill-rule:nonzero;"/>
                    </g>
                </g>
            </g>
            <g transform="matrix(4.16667,0,0,4.16667,0,0)">
                <g opacity="0.35">
                    <g transform="matrix(-0.232983,-0.972481,-0.972481,0.232983,396.98,352.938)">
                        <path d="M-1.924,-2.862C-3.102,-2.843 -3.443,-2.015 -3.797,-0.624C-4.118,0.641 -3.071,1.976 -1.924,1.701C-0.779,1.427 -0.299,0.438 -0.206,-0.864C-0.113,-2.195 -0.69,-2.882 -1.924,-2.862" style="fill:white;fill-rule:nonzero;"/>
                    </g>
                </g>
            </g>
            <g transform="matrix(4.16667,0,0,4.16667,0,0)">
                <g opacity="0.35">
                    <g transform="matrix(-0.00990929,-0.999951,-0.999951,0.00990929,406.984,347.466)">
                        <path d="M-3.761,-3.029C-4.94,-3.018 -4.811,-0.843 -4.798,0.461C-4.785,1.766 -4.94,3.744 -3.761,3.732C-2.584,3.72 -1.775,1.575 -1.788,0.27C-1.801,-1.034 -2.584,-3.041 -3.761,-3.029" style="fill:white;fill-rule:nonzero;"/>
                    </g>
                </g>
            </g>
            <g transform="matrix(4.16667,0,0,4.16667,0,0)">
                <g opacity="0.35">
                    <g transform="matrix(-0.0470627,-0.998892,-0.998892,0.0470627,410.12,342.448)">
                        <path d="M-3.058,-2.735C-3.971,-2.692 -4.196,-1.27 -4.13,0.131C-4.064,1.531 -3.97,2.982 -3.058,2.939C-2.145,2.896 -1.459,1.725 -1.525,0.325C-1.591,-1.076 -2.145,-2.778 -3.058,-2.735" style="fill:white;fill-rule:nonzero;"/>
                    </g>
                </g>
            </g>
            <g transform="matrix(4.16667,0,0,4.16667,0,0)">
                <g opacity="0.35">
                    <g transform="matrix(-0.102266,-0.994757,-0.994757,0.102266,419.381,345.207)">
                        <path d="M-2.868,-2.707C-4.04,-2.586 -3.277,-1.453 -3.534,-0.014C-3.761,1.271 -4.04,2.753 -2.868,2.632C-1.696,2.512 -0.891,0.825 -1.024,-0.473C-1.158,-1.772 -1.696,-2.827 -2.868,-2.707" style="fill:white;fill-rule:nonzero;"/>
                    </g>
                </g>
            </g>
            <g transform="matrix(4.16667,0,0,4.16667,0,0)">
                <g opacity="0.35">
                    <g transform="matrix(-0.143791,-0.989608,-0.989608,0.143791,420.662,360.027)">
                        <path d="M-3.135,-0.592C-4.127,0.37 -4.61,0.901 -4.368,2.564C-4.126,4.228 -3.109,4.781 -3.135,3.602C-3.198,0.712 0.777,-0.063 -0.212,-1.421C-1.057,-2.584 -2.289,-1.411 -3.135,-0.592" style="fill:white;fill-rule:nonzero;"/>
                    </g>
                </g>
            </g>
            <g transform="matrix(4.16667,0,0,4.16667,0,0)">
                <g opacity="0.35">
                    <g transform="matrix(-0.193631,-0.981075,-0.981075,0.193631,428.21,358.404)">
                        <path d="M-2.544,-3.095C-3.7,-2.866 -3.957,-1.962 -3.704,-0.682C-3.452,0.597 -3.7,2.319 -2.544,2.091C-1.388,1.862 -2.552,0.336 -2.182,-0.914C-1.732,-2.436 -1.387,-3.323 -2.544,-3.095" style="fill:white;fill-rule:nonzero;"/>
                    </g>
                </g>
            </g>
            <g transform="matrix(4.16667,0,0,4.16667,0,0)">
                <g opacity="0.35">
                    <g transform="matrix(0.544141,-0.838994,-0.838994,-0.544141,440.462,354.119)">
                        <path d="M-1.81,-0.908C-2.57,-0.932 -3.221,0.105 -3.263,1.409C-3.304,2.713 -2.571,3.216 -1.81,3.24C-1.05,3.266 -0.552,2.802 -0.51,1.498C-0.467,0.194 -1.049,-0.884 -1.81,-0.908" style="fill:white;fill-rule:nonzero;"/>
                    </g>
                </g>
            </g>
            <g transform="matrix(4.16667,0,0,4.16667,0,0)">
                <g opacity="0.35">
                    <g transform="matrix(-0.579551,-0.814936,-0.814936,0.579551,428.781,346.845)">
                        <path d="M-2.445,-4.741C-3.624,-4.741 -4.579,-3.398 -4.579,-1.74C-4.579,-0.082 -3.624,1.261 -2.445,1.262C-1.268,1.262 -0.312,-0.082 -0.311,-1.739C-0.312,-3.397 -1.266,-4.74 -2.445,-4.741" style="fill:white;fill-rule:nonzero;"/>
                    </g>
                </g>
            </g>
            <g transform="matrix(4.16667,0,0,4.16667,0,0)">
                <g opacity="0.35">
                    <g transform="matrix(0.0473738,-0.998877,-0.998877,-0.0473738,437.056,339.974)">
                        <path d="M-2.374,-1.757C-2.827,-1.779 -2.877,-0.733 -2.924,0.243C-2.97,1.22 -2.826,2.443 -2.374,2.464C-1.922,2.486 -1.332,1.297 -1.285,0.32C-1.239,-0.655 -1.922,-1.736 -2.374,-1.757" style="fill:white;fill-rule:nonzero;"/>
                    </g>
                </g>
            </g>
            <g transform="matrix(4.16667,0,0,4.16667,0,0)">
                <g opacity="0.35">
                    <g transform="matrix(0,-1,-1,0,429.059,339.418)">
                        <path d="M-2.609,-2.144C-3.062,-2.144 -3.197,-0.561 -3.197,0.417C-3.197,1.394 -3.062,2.609 -2.609,2.609C-2.156,2.609 -1.556,1.394 -1.556,0.417C-1.556,-0.561 -2.156,-2.144 -2.609,-2.144" style="fill:white;fill-rule:nonzero;"/>
                    </g>
                </g>
            </g>
            <g transform="matrix(4.16667,0,0,4.16667,0,0)">
                <g opacity="0.35">
                    <g transform="matrix(0.0786326,-0.996904,-0.996904,-0.0786326,421.084,339.941)">
                        <path d="M-3.352,-2.76C-3.804,-2.796 -3.843,-0.606 -3.959,0.866C-4.076,2.34 -3.804,3.563 -3.352,3.598C-2.901,3.634 -2.441,2.469 -2.325,0.995C-2.208,-0.477 -2.901,-2.725 -3.352,-2.76" style="fill:white;fill-rule:nonzero;"/>
                    </g>
                </g>
            </g>
            <g transform="matrix(4.16667,0,0,4.16667,0,0)">
                <g opacity="0.35">
                    <g transform="matrix(0.240286,-0.970702,-0.970702,-0.240286,441.416,345.025)">
                        <path d="M-1.983,-2.398C-3.128,-2.681 -4.015,-2.504 -4.328,-1.238C-4.642,0.028 -2.895,1.047 -1.983,2.101C-1.212,2.992 -0.793,1.674 -0.479,0.408C-0.166,-0.858 -0.839,-2.115 -1.983,-2.398" style="fill:white;fill-rule:nonzero;"/>
                    </g>
                </g>
            </g>
            <g transform="matrix(4.16667,0,0,4.16667,0,0)">
                <g opacity="0.35">
                    <g transform="matrix(-0.03209,-0.999485,-0.999485,0.03209,447.565,349.218)">
                        <path d="M-2.262,-2.19C-3.439,-2.153 -4.361,-1.064 -4.319,0.239C-4.277,1.543 -3.286,2.228 -2.262,1.643C-1.144,1.004 -0.011,1.406 -0.053,0.102C-0.095,-1.201 -1.083,-2.228 -2.262,-2.19" style="fill:white;fill-rule:nonzero;"/>
                    </g>
                </g>
            </g>
            <g transform="matrix(4.16667,0,0,4.16667,0,0)">
                <g opacity="0.35">
                    <g transform="matrix(0.216286,-0.97633,-0.97633,-0.216286,426.047,349.208)">
                        <path d="M-3.158,-2.618C-4.126,-2.618 -4.912,-1.147 -4.912,0.669C-4.911,2.484 -4.126,3.957 -3.158,3.956C-2.189,3.957 -1.382,1.895 -1.383,0.08C-1.382,-1.735 -2.19,-2.618 -3.158,-2.618" style="fill:white;fill-rule:nonzero;"/>
                    </g>
                </g>
            </g>
            <g transform="matrix(4.16667,0,0,4.16667,0,0)">
                <g opacity="0.35">
                    <g transform="matrix(-0.0277939,-0.999614,-0.999614,0.0277939,390.941,355.614)">
                        <path d="M-3.782,-3.544C-4.651,-3.52 -5.08,-2.039 -5.029,-0.228C-4.979,1.583 -4.65,3.712 -3.782,3.688C-2.913,3.663 -2.162,1.706 -2.213,-0.106C-2.263,-1.916 -2.913,-3.568 -3.782,-3.544" style="fill:white;fill-rule:nonzero;"/>
                    </g>
                </g>
            </g>
        </g>
    </g>
</svg>
