<?xml version="1.0" encoding="UTF-8" standalone="no"?>
<!DOCTYPE svg PUBLIC "-//W3C//DTD SVG 1.1//EN" "http://www.w3.org/Graphics/SVG/1.1/DTD/svg11.dtd">
<svg width="100%" height="100%" viewBox="0 0 1537 498" version="1.1" xmlns="http://www.w3.org/2000/svg" xmlns:xlink="http://www.w3.org/1999/xlink" xml:space="preserve" xmlns:serif="http://www.serif.com/" style="fill-rule:evenodd;clip-rule:evenodd;stroke-miterlimit:10;">
    <g transform="matrix(1,0,0,1,-442,-663)">
        <g>
            <g transform="matrix(4.16667,0,0,4.16667,1907.48,663.972)">
                <path d="M0,119.055L-334.488,119.055C-343.882,119.055 -351.497,111.441 -351.497,102.047L-351.497,17.008C-351.497,7.615 -343.882,0 -334.488,0L0,0C9.393,0 17.008,7.615 17.008,17.008L17.008,102.047C17.008,111.441 9.393,119.055 0,119.055" style="fill:rgb(102,185,255);fill-rule:nonzero;"/>
            </g>
            <g transform="matrix(4.16667,0,0,4.16667,605.583,837.843)">
                <path d="M0,-35.25L-27.649,-35.25C-29.749,-35.25 -31.458,-33.541 -31.458,-31.44L-31.458,-3.808C-31.458,-1.708 -29.749,0 -27.649,0C-25.548,0 -23.84,-1.708 -23.84,-3.808L-23.84,-27.632L0,-27.632C2.1,-27.632 3.809,-29.34 3.809,-31.44C3.809,-33.541 2.1,-35.25 0,-35.25" style="fill:white;fill-rule:nonzero;"/>
            </g>
            <g transform="matrix(4.16667,0,0,4.16667,1934.7,837.843)">
                <path d="M0,-35.25L-27.617,-35.25C-29.718,-35.25 -31.427,-33.541 -31.427,-31.44C-31.427,-29.34 -29.718,-27.632 -27.617,-27.632L-3.809,-27.632L-3.809,-3.808C-3.809,-1.708 -2.101,0 0,0C2.136,0 3.808,-1.672 3.808,-3.808L3.808,-31.44C3.808,-33.541 2.1,-35.25 0,-35.25" style="fill:white;fill-rule:nonzero;"/>
            </g>
            <g transform="matrix(4.16667,0,0,4.16667,605.583,1022.46)">
                <path d="M0,20.014L-23.84,20.014L-23.84,-3.811C-23.84,-5.91 -25.548,-7.618 -27.649,-7.618C-29.749,-7.618 -31.458,-5.91 -31.458,-3.811L-31.458,23.823C-31.458,25.922 -29.749,27.632 -27.649,27.632L0,27.632C2.1,27.632 3.809,25.922 3.809,23.823C3.809,21.722 2.1,20.014 0,20.014" style="fill:white;fill-rule:nonzero;"/>
            </g>
            <g transform="matrix(4.16667,0,0,4.16667,1934.7,1137.6)">
                <path d="M0,-35.25C-2.101,-35.25 -3.809,-33.542 -3.809,-31.443L-3.809,-7.618L-27.617,-7.618C-29.718,-7.618 -31.427,-5.91 -31.427,-3.81C-31.427,-1.71 -29.718,0 -27.617,0L0,0C2.1,0 3.808,-1.71 3.808,-3.81L3.808,-31.443C3.808,-33.578 2.136,-35.25 0,-35.25" style="fill:white;fill-rule:nonzero;"/>
            </g>
            <g transform="matrix(4.16667,0,0,4.16667,635.391,796.743)">
                <path d="M0,0L56.693,0" style="fill:none;fill-rule:nonzero;stroke:white;stroke-width:1px;"/>
            </g>
            <g transform="matrix(4.16667,0,0,4.16667,871.612,796.743)">
                <path d="M0,0L8.504,0" style="fill:none;fill-rule:nonzero;stroke:white;stroke-width:1px;"/>
            </g>
            <g transform="matrix(4.16667,0,0,4.16667,907.045,796.743)">
                <path d="M0,0L70.225,0" style="fill:none;fill-rule:nonzero;stroke:white;stroke-width:1px;"/>
            </g>
            <g transform="matrix(4.16667,0,0,4.16667,635.391,879.421)">
                <path d="M0,0L56.693,0" style="fill:none;fill-rule:nonzero;stroke:white;stroke-width:1px;"/>
            </g>
            <g transform="matrix(4.16667,0,0,4.16667,871.612,879.421)">
                <path d="M0,0L8.504,0" style="fill:none;fill-rule:nonzero;stroke:white;stroke-width:1px;"/>
            </g>
            <g transform="matrix(4.16667,0,0,4.16667,907.045,879.421)">
                <path d="M0,0L70.225,0" style="fill:none;fill-rule:nonzero;stroke:white;stroke-width:1px;"/>
            </g>
            <g transform="matrix(4.16667,0,0,4.16667,635.391,962.098)">
                <path d="M0,0L56.693,0" style="fill:none;fill-rule:nonzero;stroke:white;stroke-width:1px;"/>
            </g>
            <g transform="matrix(4.16667,0,0,4.16667,871.612,962.098)">
                <path d="M0,0L8.504,0" style="fill:none;fill-rule:nonzero;stroke:white;stroke-width:1px;"/>
            </g>
            <g transform="matrix(4.16667,0,0,4.16667,907.045,962.098)">
                <path d="M0,0L70.225,0" style="fill:none;fill-rule:nonzero;stroke:white;stroke-width:1px;"/>
            </g>
            <g transform="matrix(4.16667,0,0,4.16667,635.391,1044.77)">
                <path d="M0,0L56.693,0" style="fill:none;fill-rule:nonzero;stroke:white;stroke-width:1px;"/>
            </g>
            <g transform="matrix(4.16667,0,0,4.16667,871.612,1044.77)">
                <path d="M0,0L8.504,0" style="fill:none;fill-rule:nonzero;stroke:white;stroke-width:1px;"/>
            </g>
            <g transform="matrix(4.16667,0,0,4.16667,907.045,1044.77)">
                <path d="M0,0L70.225,0" style="fill:none;fill-rule:nonzero;stroke:white;stroke-width:1px;"/>
            </g>
            <g transform="matrix(4.16667,0,0,4.16667,1258.7,796.743)">
                <path d="M0,0L56.693,0" style="fill:none;fill-rule:nonzero;stroke:white;stroke-width:1px;"/>
            </g>
            <g transform="matrix(4.16667,0,0,4.16667,1494.92,796.743)">
                <path d="M0,0L8.504,0" style="fill:none;fill-rule:nonzero;stroke:white;stroke-width:1px;"/>
            </g>
            <g transform="matrix(4.16667,0,0,4.16667,1530.36,796.743)">
                <path d="M0,0L61.323,0" style="fill:none;fill-rule:nonzero;stroke:white;stroke-width:1px;"/>
            </g>
            <g transform="matrix(4.16667,0,0,4.16667,1258.7,879.421)">
                <path d="M0,0L56.693,0" style="fill:none;fill-rule:nonzero;stroke:white;stroke-width:1px;"/>
            </g>
            <g transform="matrix(4.16667,0,0,4.16667,1494.92,879.421)">
                <path d="M0,0L8.504,0" style="fill:none;fill-rule:nonzero;stroke:white;stroke-width:1px;"/>
            </g>
            <g transform="matrix(4.16667,0,0,4.16667,1530.36,879.421)">
                <path d="M0,0L61.323,0" style="fill:none;fill-rule:nonzero;stroke:white;stroke-width:1px;"/>
            </g>
            <g transform="matrix(4.16667,0,0,4.16667,1258.7,962.098)">
                <path d="M0,0L56.693,0" style="fill:none;fill-rule:nonzero;stroke:white;stroke-width:1px;"/>
            </g>
            <g transform="matrix(4.16667,0,0,4.16667,1494.92,962.098)">
                <path d="M0,0L8.504,0" style="fill:none;fill-rule:nonzero;stroke:white;stroke-width:1px;"/>
            </g>
            <g transform="matrix(4.16667,0,0,4.16667,1530.36,962.098)">
                <path d="M0,0L61.323,0" style="fill:none;fill-rule:nonzero;stroke:white;stroke-width:1px;"/>
            </g>
            <g transform="matrix(4.16667,0,0,4.16667,1258.7,1044.77)">
                <path d="M0,0L56.693,0" style="fill:none;fill-rule:nonzero;stroke:white;stroke-width:1px;"/>
            </g>
            <g transform="matrix(4.16667,0,0,4.16667,1494.92,1044.77)">
                <path d="M0,0L8.504,0" style="fill:none;fill-rule:nonzero;stroke:white;stroke-width:1px;"/>
            </g>
            <g transform="matrix(4.16667,0,0,4.16667,1530.36,1044.77)">
                <path d="M0,0L61.323,0" style="fill:none;fill-rule:nonzero;stroke:white;stroke-width:1px;"/>
            </g>
            <g transform="matrix(4.16667,0,0,4.16667,0,0)">
                <g transform="matrix(11,0,0,11,160.998,185.172)">
                    <path d="M0.236,-0L0.355,-0L0.355,-0.65L0.253,-0.65L0.094,-0.572L0.115,-0.479L0.234,-0.539L0.236,-0.539L0.236,-0Z" style="fill:white;fill-rule:nonzero;"/>
                </g>
                <g transform="matrix(11,0,0,11,169.171,185.172)">
                    <path d="M0.066,-0L0.186,-0L0.186,-0.288C0.186,-0.302 0.188,-0.316 0.192,-0.329C0.204,-0.362 0.235,-0.398 0.281,-0.398C0.338,-0.398 0.365,-0.35 0.365,-0.282L0.365,-0L0.485,-0L0.485,-0.292C0.485,-0.306 0.487,-0.322 0.491,-0.333C0.504,-0.368 0.535,-0.398 0.577,-0.398C0.636,-0.398 0.664,-0.35 0.664,-0.269L0.664,-0L0.784,-0L0.784,-0.287C0.784,-0.443 0.702,-0.498 0.622,-0.498C0.581,-0.498 0.55,-0.488 0.522,-0.469C0.5,-0.455 0.48,-0.435 0.463,-0.408L0.461,-0.408C0.44,-0.462 0.39,-0.498 0.326,-0.498C0.243,-0.498 0.199,-0.453 0.176,-0.415L0.173,-0.415L0.167,-0.487L0.062,-0.487C0.064,-0.445 0.066,-0.398 0.066,-0.342L0.066,-0Z" style="fill:white;fill-rule:nonzero;"/>
                </g>
                <g transform="matrix(11,0,0,11,178.499,185.172)">
                    <path d="M0.189,-0L0.189,-0.487L0.066,-0.487L0.066,-0L0.189,-0ZM0.128,-0.69C0.087,-0.69 0.059,-0.661 0.059,-0.623C0.059,-0.587 0.086,-0.557 0.127,-0.557C0.17,-0.557 0.197,-0.587 0.197,-0.623C0.196,-0.661 0.17,-0.69 0.128,-0.69Z" style="fill:white;fill-rule:nonzero;"/>
                </g>
                <g transform="matrix(11,0,0,11,181.315,185.172)">
                    <path d="M0.066,-0L0.189,-0L0.189,-0.287C0.189,-0.301 0.191,-0.316 0.195,-0.326C0.208,-0.363 0.242,-0.398 0.291,-0.398C0.358,-0.398 0.384,-0.345 0.384,-0.275L0.384,-0L0.507,-0L0.507,-0.289C0.507,-0.443 0.419,-0.498 0.334,-0.498C0.253,-0.498 0.2,-0.452 0.178,-0.414L0.175,-0.414L0.169,-0.487L0.062,-0.487C0.064,-0.445 0.066,-0.398 0.066,-0.342L0.066,-0Z" style="fill:white;fill-rule:nonzero;"/>
                </g>
                <g transform="matrix(11,0,0,11,187.607,185.172)">
                    <path d="M0.502,-0.487L0.379,-0.487L0.379,-0.193C0.379,-0.179 0.377,-0.165 0.372,-0.155C0.36,-0.123 0.328,-0.089 0.278,-0.089C0.213,-0.089 0.187,-0.141 0.187,-0.222L0.187,-0.487L0.064,-0.487L0.064,-0.201C0.064,-0.042 0.145,0.011 0.233,0.011C0.321,0.011 0.369,-0.039 0.39,-0.073L0.393,-0.073L0.399,-0L0.506,-0C0.504,-0.04 0.502,-0.088 0.502,-0.146L0.502,-0.487Z" style="fill:white;fill-rule:nonzero;"/>
                </g>
                <g transform="matrix(11,0,0,11,193.866,185.172)">
                    <path d="M0.086,-0.578L0.086,-0.487L0.017,-0.487L0.017,-0.395L0.086,-0.395L0.086,-0.166C0.086,-0.102 0.098,-0.057 0.125,-0.029C0.148,-0.004 0.185,0.011 0.231,0.011C0.269,0.011 0.302,0.005 0.32,-0.002L0.318,-0.095C0.304,-0.091 0.292,-0.09 0.27,-0.09C0.223,-0.09 0.207,-0.12 0.207,-0.18L0.207,-0.395L0.324,-0.395L0.324,-0.487L0.207,-0.487L0.207,-0.612L0.086,-0.578Z" style="fill:white;fill-rule:nonzero;"/>
                </g>
                <g transform="matrix(11,0,0,11,197.661,185.172)">
                    <path d="M0.287,-0.498C0.14,-0.498 0.035,-0.4 0.035,-0.24C0.035,-0.083 0.142,0.011 0.279,0.011C0.403,0.011 0.529,-0.069 0.529,-0.248C0.529,-0.396 0.432,-0.498 0.287,-0.498ZM0.284,-0.409C0.368,-0.409 0.402,-0.321 0.402,-0.245C0.402,-0.146 0.353,-0.078 0.283,-0.078C0.209,-0.078 0.162,-0.149 0.162,-0.243C0.162,-0.324 0.197,-0.409 0.284,-0.409Z" style="fill:white;fill-rule:nonzero;"/>
                </g>
                <g transform="matrix(11,0,0,11,210.158,185.172)">
                    <path d="M0.556,-0.33L0.556,-0.408L0.04,-0.408L0.04,-0.33L0.556,-0.33ZM0.556,-0.128L0.556,-0.206L0.04,-0.206L0.04,-0.128L0.556,-0.128Z" style="fill:white;fill-rule:nonzero;"/>
                </g>
                <g transform="matrix(11,0,0,11,226.195,185.172)">
                    <path d="M0.438,-0.659C0.423,-0.66 0.403,-0.66 0.376,-0.656C0.283,-0.649 0.204,-0.617 0.145,-0.56C0.077,-0.496 0.032,-0.395 0.032,-0.27C0.032,-0.109 0.119,0.011 0.277,0.011C0.415,0.011 0.506,-0.097 0.506,-0.221C0.506,-0.353 0.419,-0.433 0.307,-0.433C0.242,-0.433 0.193,-0.407 0.161,-0.37L0.158,-0.37C0.174,-0.46 0.239,-0.543 0.376,-0.559C0.4,-0.562 0.42,-0.563 0.438,-0.562L0.438,-0.659ZM0.277,-0.081C0.196,-0.081 0.156,-0.151 0.154,-0.237C0.154,-0.254 0.157,-0.266 0.162,-0.276C0.181,-0.315 0.222,-0.343 0.268,-0.343C0.34,-0.343 0.381,-0.29 0.381,-0.214C0.381,-0.136 0.34,-0.081 0.277,-0.081Z" style="fill:white;fill-rule:nonzero;"/>
                </g>
                <g transform="matrix(11,0,0,11,232.091,185.172)">
                    <path d="M0.272,-0.661C0.12,-0.661 0.034,-0.526 0.034,-0.323C0.035,-0.125 0.115,0.011 0.264,0.011C0.42,0.011 0.502,-0.12 0.502,-0.33C0.502,-0.521 0.429,-0.661 0.272,-0.661ZM0.269,-0.567C0.343,-0.567 0.378,-0.478 0.378,-0.327C0.378,-0.171 0.341,-0.083 0.268,-0.083C0.201,-0.083 0.158,-0.165 0.158,-0.324C0.158,-0.486 0.204,-0.567 0.269,-0.567Z" style="fill:white;fill-rule:nonzero;"/>
                </g>
                <g transform="matrix(11,0,0,11,240.264,185.172)">
                    <path d="M0.036,-0.024C0.072,-0.004 0.125,0.01 0.184,0.01C0.313,0.01 0.382,-0.054 0.382,-0.143C0.381,-0.215 0.341,-0.26 0.252,-0.291C0.19,-0.314 0.167,-0.328 0.167,-0.359C0.167,-0.389 0.191,-0.411 0.235,-0.411C0.278,-0.411 0.318,-0.395 0.338,-0.383L0.363,-0.469C0.334,-0.485 0.287,-0.498 0.233,-0.498C0.12,-0.498 0.049,-0.432 0.049,-0.346C0.049,-0.288 0.088,-0.236 0.183,-0.204C0.243,-0.182 0.263,-0.166 0.263,-0.133C0.263,-0.101 0.239,-0.078 0.185,-0.078C0.141,-0.078 0.088,-0.097 0.061,-0.114L0.036,-0.024Z" style="fill:white;fill-rule:nonzero;"/>
                </g>
                <g transform="matrix(11,0,0,11,244.851,185.172)">
                    <path d="M0.479,-0.209C0.481,-0.22 0.483,-0.238 0.483,-0.261C0.483,-0.368 0.431,-0.498 0.273,-0.498C0.117,-0.498 0.035,-0.371 0.035,-0.236C0.035,-0.087 0.128,0.01 0.286,0.01C0.356,0.01 0.414,-0.003 0.456,-0.021L0.438,-0.105C0.4,-0.092 0.36,-0.083 0.303,-0.083C0.224,-0.083 0.156,-0.121 0.153,-0.209L0.479,-0.209ZM0.153,-0.295C0.158,-0.345 0.19,-0.414 0.266,-0.414C0.348,-0.414 0.368,-0.34 0.367,-0.295L0.153,-0.295Z" style="fill:white;fill-rule:nonzero;"/>
                </g>
                <g transform="matrix(11,0,0,11,250.527,185.172)">
                    <path d="M0.507,-0.347C0.507,-0.414 0.509,-0.454 0.511,-0.487L0.404,-0.487L0.399,-0.422L0.397,-0.422C0.374,-0.462 0.331,-0.498 0.256,-0.498C0.139,-0.498 0.035,-0.401 0.035,-0.241C0.035,-0.103 0.121,-0.003 0.242,-0.003C0.307,-0.003 0.356,-0.032 0.384,-0.075L0.386,-0.075L0.386,-0.033C0.386,0.072 0.326,0.114 0.246,0.114C0.187,0.114 0.135,0.095 0.104,0.077L0.077,0.17C0.119,0.195 0.185,0.209 0.247,0.209C0.314,0.209 0.385,0.195 0.435,0.15C0.486,0.104 0.507,0.031 0.507,-0.071L0.507,-0.347ZM0.384,-0.213C0.384,-0.199 0.383,-0.182 0.379,-0.17C0.365,-0.125 0.325,-0.095 0.279,-0.095C0.202,-0.095 0.16,-0.162 0.16,-0.245C0.16,-0.344 0.211,-0.404 0.28,-0.404C0.332,-0.404 0.367,-0.37 0.38,-0.325C0.383,-0.315 0.384,-0.304 0.384,-0.292L0.384,-0.213Z" style="fill:white;fill-rule:nonzero;"/>
                </g>
                <g transform="matrix(11,0,0,11,256.83,185.172)">
                    <path d="M0.502,-0.487L0.379,-0.487L0.379,-0.193C0.379,-0.179 0.377,-0.165 0.372,-0.155C0.36,-0.123 0.328,-0.089 0.278,-0.089C0.213,-0.089 0.187,-0.141 0.187,-0.222L0.187,-0.487L0.064,-0.487L0.064,-0.201C0.064,-0.042 0.145,0.011 0.233,0.011C0.321,0.011 0.369,-0.039 0.39,-0.073L0.393,-0.073L0.399,-0L0.506,-0C0.504,-0.04 0.502,-0.088 0.502,-0.146L0.502,-0.487Z" style="fill:white;fill-rule:nonzero;"/>
                </g>
                <g transform="matrix(11,0,0,11,263.089,185.172)">
                    <path d="M0.066,-0L0.189,-0L0.189,-0.287C0.189,-0.301 0.191,-0.316 0.195,-0.326C0.208,-0.363 0.242,-0.398 0.291,-0.398C0.358,-0.398 0.384,-0.345 0.384,-0.275L0.384,-0L0.507,-0L0.507,-0.289C0.507,-0.443 0.419,-0.498 0.334,-0.498C0.253,-0.498 0.2,-0.452 0.178,-0.414L0.175,-0.414L0.169,-0.487L0.062,-0.487C0.064,-0.445 0.066,-0.398 0.066,-0.342L0.066,-0Z" style="fill:white;fill-rule:nonzero;"/>
                </g>
                <g transform="matrix(11,0,0,11,269.381,185.172)">
                    <path d="M0.392,-0.71L0.392,-0.435L0.39,-0.435C0.368,-0.471 0.32,-0.498 0.253,-0.498C0.136,-0.498 0.034,-0.401 0.035,-0.238C0.035,-0.088 0.127,0.011 0.244,0.011C0.314,0.011 0.373,-0.023 0.402,-0.077L0.404,-0.077L0.41,-0L0.519,-0C0.517,-0.033 0.515,-0.087 0.515,-0.137L0.515,-0.71L0.392,-0.71ZM0.392,-0.211C0.392,-0.198 0.391,-0.186 0.388,-0.175C0.376,-0.122 0.332,-0.088 0.282,-0.088C0.204,-0.088 0.16,-0.153 0.16,-0.243C0.16,-0.333 0.204,-0.403 0.283,-0.403C0.339,-0.403 0.378,-0.364 0.389,-0.317C0.391,-0.307 0.392,-0.294 0.392,-0.284L0.392,-0.211Z" style="fill:white;fill-rule:nonzero;"/>
                </g>
                <g transform="matrix(11,0,0,11,275.772,185.172)">
                    <path d="M0.287,-0.498C0.14,-0.498 0.035,-0.4 0.035,-0.24C0.035,-0.083 0.142,0.011 0.279,0.011C0.403,0.011 0.529,-0.069 0.529,-0.248C0.529,-0.396 0.432,-0.498 0.287,-0.498ZM0.284,-0.409C0.368,-0.409 0.402,-0.321 0.402,-0.245C0.402,-0.146 0.353,-0.078 0.283,-0.078C0.209,-0.078 0.162,-0.149 0.162,-0.243C0.162,-0.324 0.197,-0.409 0.284,-0.409Z" style="fill:white;fill-rule:nonzero;"/>
                </g>
                <g transform="matrix(11,0,0,11,281.976,185.172)">
                    <path d="M0.036,-0.024C0.072,-0.004 0.125,0.01 0.184,0.01C0.313,0.01 0.382,-0.054 0.382,-0.143C0.381,-0.215 0.341,-0.26 0.252,-0.291C0.19,-0.314 0.167,-0.328 0.167,-0.359C0.167,-0.389 0.191,-0.411 0.235,-0.411C0.278,-0.411 0.318,-0.395 0.338,-0.383L0.363,-0.469C0.334,-0.485 0.287,-0.498 0.233,-0.498C0.12,-0.498 0.049,-0.432 0.049,-0.346C0.049,-0.288 0.088,-0.236 0.183,-0.204C0.243,-0.182 0.263,-0.166 0.263,-0.133C0.263,-0.101 0.239,-0.078 0.185,-0.078C0.141,-0.078 0.088,-0.097 0.061,-0.114L0.036,-0.024Z" style="fill:white;fill-rule:nonzero;"/>
                </g>
            </g>
            <g transform="matrix(4.16667,0,0,4.16667,0,0)">
                <g transform="matrix(11,0,0,11,310.598,185.172)">
                    <path d="M0.236,-0L0.355,-0L0.355,-0.65L0.253,-0.65L0.094,-0.572L0.115,-0.479L0.234,-0.539L0.236,-0.539L0.236,-0Z" style="fill:white;fill-rule:nonzero;"/>
                </g>
                <g transform="matrix(11,0,0,11,318.771,185.172)">
                    <path d="M0.444,-0.292C0.444,-0.399 0.399,-0.498 0.243,-0.498C0.166,-0.498 0.103,-0.477 0.067,-0.455L0.091,-0.375C0.124,-0.396 0.174,-0.411 0.222,-0.411C0.308,-0.411 0.321,-0.358 0.321,-0.326L0.321,-0.318C0.141,-0.319 0.032,-0.256 0.032,-0.134C0.032,-0.06 0.087,0.011 0.185,0.011C0.249,0.011 0.3,-0.016 0.329,-0.054L0.332,-0.054L0.341,-0L0.452,-0C0.446,-0.03 0.444,-0.073 0.444,-0.117L0.444,-0.292ZM0.324,-0.171C0.324,-0.162 0.324,-0.153 0.321,-0.144C0.309,-0.109 0.274,-0.077 0.224,-0.077C0.185,-0.077 0.154,-0.099 0.154,-0.147C0.154,-0.221 0.237,-0.239 0.324,-0.238L0.324,-0.171Z" style="fill:white;fill-rule:nonzero;"/>
                </g>
                <g transform="matrix(11,0,0,11,324.359,185.172)">
                    <path d="M0.066,-0L0.189,-0L0.189,-0.287C0.189,-0.301 0.191,-0.316 0.195,-0.326C0.208,-0.363 0.242,-0.398 0.291,-0.398C0.358,-0.398 0.384,-0.345 0.384,-0.275L0.384,-0L0.507,-0L0.507,-0.289C0.507,-0.443 0.419,-0.498 0.334,-0.498C0.253,-0.498 0.2,-0.452 0.178,-0.414L0.175,-0.414L0.169,-0.487L0.062,-0.487C0.064,-0.445 0.066,-0.398 0.066,-0.342L0.066,-0ZM0.214,-0.562C0.216,-0.591 0.224,-0.607 0.239,-0.607C0.252,-0.607 0.261,-0.601 0.28,-0.59C0.3,-0.579 0.32,-0.569 0.345,-0.569C0.395,-0.569 0.423,-0.605 0.421,-0.685L0.361,-0.685C0.359,-0.651 0.35,-0.642 0.334,-0.642C0.322,-0.642 0.308,-0.651 0.292,-0.66C0.271,-0.671 0.252,-0.681 0.229,-0.681C0.181,-0.681 0.15,-0.638 0.153,-0.562L0.214,-0.562Z" style="fill:white;fill-rule:nonzero;"/>
                </g>
                <g transform="matrix(11,0,0,11,330.651,185.172)">
                    <path d="M0.287,-0.498C0.14,-0.498 0.035,-0.4 0.035,-0.24C0.035,-0.083 0.142,0.011 0.279,0.011C0.403,0.011 0.529,-0.069 0.529,-0.248C0.529,-0.396 0.432,-0.498 0.287,-0.498ZM0.284,-0.409C0.368,-0.409 0.402,-0.321 0.402,-0.245C0.402,-0.146 0.353,-0.078 0.283,-0.078C0.209,-0.078 0.162,-0.149 0.162,-0.243C0.162,-0.324 0.197,-0.409 0.284,-0.409Z" style="fill:white;fill-rule:nonzero;"/>
                </g>
            </g>
            <g transform="matrix(4.16667,0,0,4.16667,0,0)">
                <g transform="matrix(11,0,0,11,359.757,185.172)">
                    <path d="M0.556,-0.33L0.556,-0.408L0.04,-0.408L0.04,-0.33L0.556,-0.33ZM0.556,-0.128L0.556,-0.206L0.04,-0.206L0.04,-0.128L0.556,-0.128Z" style="fill:white;fill-rule:nonzero;"/>
                </g>
                <g transform="matrix(11,0,0,11,375.794,185.172)">
                    <path d="M0.236,-0L0.355,-0L0.355,-0.65L0.253,-0.65L0.094,-0.572L0.115,-0.479L0.234,-0.539L0.236,-0.539L0.236,-0Z" style="fill:white;fill-rule:nonzero;"/>
                </g>
                <g transform="matrix(11,0,0,11,381.69,185.172)">
                    <path d="M0.483,-0L0.483,-0.102L0.217,-0.102L0.217,-0.104L0.273,-0.153C0.387,-0.258 0.469,-0.35 0.469,-0.464C0.469,-0.57 0.399,-0.661 0.255,-0.661C0.173,-0.661 0.102,-0.632 0.055,-0.594L0.091,-0.507C0.124,-0.532 0.172,-0.561 0.23,-0.561C0.315,-0.561 0.346,-0.51 0.346,-0.452C0.345,-0.366 0.273,-0.288 0.12,-0.146L0.043,-0.075L0.043,-0L0.483,-0Z" style="fill:white;fill-rule:nonzero;"/>
                </g>
                <g transform="matrix(11,0,0,11,389.863,185.172)">
                    <path d="M0.066,-0L0.186,-0L0.186,-0.288C0.186,-0.302 0.188,-0.316 0.192,-0.329C0.204,-0.362 0.235,-0.398 0.281,-0.398C0.338,-0.398 0.365,-0.35 0.365,-0.282L0.365,-0L0.485,-0L0.485,-0.292C0.485,-0.306 0.487,-0.322 0.491,-0.333C0.504,-0.368 0.535,-0.398 0.577,-0.398C0.636,-0.398 0.664,-0.35 0.664,-0.269L0.664,-0L0.784,-0L0.784,-0.287C0.784,-0.443 0.702,-0.498 0.622,-0.498C0.581,-0.498 0.55,-0.488 0.522,-0.469C0.5,-0.455 0.48,-0.435 0.463,-0.408L0.461,-0.408C0.44,-0.462 0.39,-0.498 0.326,-0.498C0.243,-0.498 0.199,-0.453 0.176,-0.415L0.173,-0.415L0.167,-0.487L0.062,-0.487C0.064,-0.445 0.066,-0.398 0.066,-0.342L0.066,-0Z" style="fill:white;fill-rule:nonzero;"/>
                </g>
                <g transform="matrix(11,0,0,11,399.191,185.172)">
                    <path d="M0.479,-0.209C0.481,-0.22 0.483,-0.238 0.483,-0.261C0.483,-0.368 0.431,-0.498 0.273,-0.498C0.117,-0.498 0.035,-0.371 0.035,-0.236C0.035,-0.087 0.128,0.01 0.286,0.01C0.356,0.01 0.414,-0.003 0.456,-0.021L0.438,-0.105C0.4,-0.092 0.36,-0.083 0.303,-0.083C0.224,-0.083 0.156,-0.121 0.153,-0.209L0.479,-0.209ZM0.153,-0.295C0.158,-0.345 0.19,-0.414 0.266,-0.414C0.348,-0.414 0.368,-0.34 0.367,-0.295L0.153,-0.295Z" style="fill:white;fill-rule:nonzero;"/>
                </g>
                <g transform="matrix(11,0,0,11,404.867,185.172)">
                    <path d="M0.036,-0.024C0.072,-0.004 0.125,0.01 0.184,0.01C0.313,0.01 0.382,-0.054 0.382,-0.143C0.381,-0.215 0.341,-0.26 0.252,-0.291C0.19,-0.314 0.167,-0.328 0.167,-0.359C0.167,-0.389 0.191,-0.411 0.235,-0.411C0.278,-0.411 0.318,-0.395 0.338,-0.383L0.363,-0.469C0.334,-0.485 0.287,-0.498 0.233,-0.498C0.12,-0.498 0.049,-0.432 0.049,-0.346C0.049,-0.288 0.088,-0.236 0.183,-0.204C0.243,-0.182 0.263,-0.166 0.263,-0.133C0.263,-0.101 0.239,-0.078 0.185,-0.078C0.141,-0.078 0.088,-0.097 0.061,-0.114L0.036,-0.024Z" style="fill:white;fill-rule:nonzero;"/>
                </g>
                <g transform="matrix(11,0,0,11,409.454,185.172)">
                    <path d="M0.479,-0.209C0.481,-0.22 0.483,-0.238 0.483,-0.261C0.483,-0.368 0.431,-0.498 0.273,-0.498C0.117,-0.498 0.035,-0.371 0.035,-0.236C0.035,-0.087 0.128,0.01 0.286,0.01C0.356,0.01 0.414,-0.003 0.456,-0.021L0.438,-0.105C0.4,-0.092 0.36,-0.083 0.303,-0.083C0.224,-0.083 0.156,-0.121 0.153,-0.209L0.479,-0.209ZM0.153,-0.295C0.158,-0.345 0.19,-0.414 0.266,-0.414C0.348,-0.414 0.368,-0.34 0.367,-0.295L0.153,-0.295Z" style="fill:white;fill-rule:nonzero;"/>
                </g>
                <g transform="matrix(11,0,0,11,415.13,185.172)">
                    <path d="M0.036,-0.024C0.072,-0.004 0.125,0.01 0.184,0.01C0.313,0.01 0.382,-0.054 0.382,-0.143C0.381,-0.215 0.341,-0.26 0.252,-0.291C0.19,-0.314 0.167,-0.328 0.167,-0.359C0.167,-0.389 0.191,-0.411 0.235,-0.411C0.278,-0.411 0.318,-0.395 0.338,-0.383L0.363,-0.469C0.334,-0.485 0.287,-0.498 0.233,-0.498C0.12,-0.498 0.049,-0.432 0.049,-0.346C0.049,-0.288 0.088,-0.236 0.183,-0.204C0.243,-0.182 0.263,-0.166 0.263,-0.133C0.263,-0.101 0.239,-0.078 0.185,-0.078C0.141,-0.078 0.088,-0.097 0.061,-0.114L0.036,-0.024Z" style="fill:white;fill-rule:nonzero;"/>
                </g>
            </g>
            <g transform="matrix(4.16667,0,0,4.16667,0,0)">
                <g transform="matrix(11,0,0,11,160.998,205.269)">
                    <path d="M0.236,-0L0.355,-0L0.355,-0.65L0.253,-0.65L0.094,-0.572L0.115,-0.479L0.234,-0.539L0.236,-0.539L0.236,-0Z" style="fill:white;fill-rule:nonzero;"/>
                </g>
                <g transform="matrix(11,0,0,11,169.171,205.269)">
                    <path d="M0.066,-0L0.189,-0L0.189,-0.292C0.189,-0.305 0.19,-0.318 0.194,-0.329C0.208,-0.366 0.242,-0.398 0.29,-0.398C0.358,-0.398 0.384,-0.344 0.384,-0.274L0.384,-0L0.507,-0L0.507,-0.287C0.507,-0.443 0.42,-0.498 0.337,-0.498C0.306,-0.498 0.277,-0.49 0.252,-0.476C0.227,-0.463 0.206,-0.444 0.191,-0.421L0.189,-0.421L0.189,-0.71L0.066,-0.71L0.066,-0Z" style="fill:white;fill-rule:nonzero;"/>
                </g>
                <g transform="matrix(11,0,0,11,175.463,205.269)">
                    <path d="M0.287,-0.498C0.14,-0.498 0.035,-0.4 0.035,-0.24C0.035,-0.083 0.142,0.011 0.279,0.011C0.403,0.011 0.529,-0.069 0.529,-0.248C0.529,-0.396 0.432,-0.498 0.287,-0.498ZM0.284,-0.409C0.368,-0.409 0.402,-0.321 0.402,-0.245C0.402,-0.146 0.353,-0.078 0.283,-0.078C0.209,-0.078 0.162,-0.149 0.162,-0.243C0.162,-0.324 0.197,-0.409 0.284,-0.409Z" style="fill:white;fill-rule:nonzero;"/>
                </g>
                <g transform="matrix(11,0,0,11,181.667,205.269)">
                    <path d="M0.066,-0L0.189,-0L0.189,-0.253C0.189,-0.266 0.19,-0.279 0.192,-0.29C0.203,-0.346 0.244,-0.383 0.302,-0.383C0.317,-0.383 0.328,-0.382 0.339,-0.38L0.339,-0.495C0.329,-0.497 0.322,-0.498 0.31,-0.498C0.257,-0.498 0.2,-0.463 0.176,-0.395L0.173,-0.395L0.168,-0.487L0.062,-0.487C0.065,-0.444 0.066,-0.396 0.066,-0.33L0.066,-0Z" style="fill:white;fill-rule:nonzero;"/>
                </g>
                <g transform="matrix(11,0,0,11,185.484,205.269)">
                    <path d="M0.444,-0.292C0.444,-0.399 0.399,-0.498 0.243,-0.498C0.166,-0.498 0.103,-0.477 0.067,-0.455L0.091,-0.375C0.124,-0.396 0.174,-0.411 0.222,-0.411C0.308,-0.411 0.321,-0.358 0.321,-0.326L0.321,-0.318C0.141,-0.319 0.032,-0.256 0.032,-0.134C0.032,-0.06 0.087,0.011 0.185,0.011C0.249,0.011 0.3,-0.016 0.329,-0.054L0.332,-0.054L0.341,-0L0.452,-0C0.446,-0.03 0.444,-0.073 0.444,-0.117L0.444,-0.292ZM0.324,-0.171C0.324,-0.162 0.324,-0.153 0.321,-0.144C0.309,-0.109 0.274,-0.077 0.224,-0.077C0.185,-0.077 0.154,-0.099 0.154,-0.147C0.154,-0.221 0.237,-0.239 0.324,-0.238L0.324,-0.171Z" style="fill:white;fill-rule:nonzero;"/>
                </g>
                <g transform="matrix(11,0,0,11,210.158,205.269)">
                    <path d="M0.556,-0.33L0.556,-0.408L0.04,-0.408L0.04,-0.33L0.556,-0.33ZM0.556,-0.128L0.556,-0.206L0.04,-0.206L0.04,-0.128L0.556,-0.128Z" style="fill:white;fill-rule:nonzero;"/>
                </g>
                <g transform="matrix(11,0,0,11,226.195,205.269)">
                    <path d="M0.438,-0.659C0.423,-0.66 0.403,-0.66 0.376,-0.656C0.283,-0.649 0.204,-0.617 0.145,-0.56C0.077,-0.496 0.032,-0.395 0.032,-0.27C0.032,-0.109 0.119,0.011 0.277,0.011C0.415,0.011 0.506,-0.097 0.506,-0.221C0.506,-0.353 0.419,-0.433 0.307,-0.433C0.242,-0.433 0.193,-0.407 0.161,-0.37L0.158,-0.37C0.174,-0.46 0.239,-0.543 0.376,-0.559C0.4,-0.562 0.42,-0.563 0.438,-0.562L0.438,-0.659ZM0.277,-0.081C0.196,-0.081 0.156,-0.151 0.154,-0.237C0.154,-0.254 0.157,-0.266 0.162,-0.276C0.181,-0.315 0.222,-0.343 0.268,-0.343C0.34,-0.343 0.381,-0.29 0.381,-0.214C0.381,-0.136 0.34,-0.081 0.277,-0.081Z" style="fill:white;fill-rule:nonzero;"/>
                </g>
                <g transform="matrix(11,0,0,11,232.091,205.269)">
                    <path d="M0.272,-0.661C0.12,-0.661 0.034,-0.526 0.034,-0.323C0.035,-0.125 0.115,0.011 0.264,0.011C0.42,0.011 0.502,-0.12 0.502,-0.33C0.502,-0.521 0.429,-0.661 0.272,-0.661ZM0.269,-0.567C0.343,-0.567 0.378,-0.478 0.378,-0.327C0.378,-0.171 0.341,-0.083 0.268,-0.083C0.201,-0.083 0.158,-0.165 0.158,-0.324C0.158,-0.486 0.204,-0.567 0.269,-0.567Z" style="fill:white;fill-rule:nonzero;"/>
                </g>
                <g transform="matrix(11,0,0,11,240.264,205.269)">
                    <path d="M0.066,-0L0.186,-0L0.186,-0.288C0.186,-0.302 0.188,-0.316 0.192,-0.329C0.204,-0.362 0.235,-0.398 0.281,-0.398C0.338,-0.398 0.365,-0.35 0.365,-0.282L0.365,-0L0.485,-0L0.485,-0.292C0.485,-0.306 0.487,-0.322 0.491,-0.333C0.504,-0.368 0.535,-0.398 0.577,-0.398C0.636,-0.398 0.664,-0.35 0.664,-0.269L0.664,-0L0.784,-0L0.784,-0.287C0.784,-0.443 0.702,-0.498 0.622,-0.498C0.581,-0.498 0.55,-0.488 0.522,-0.469C0.5,-0.455 0.48,-0.435 0.463,-0.408L0.461,-0.408C0.44,-0.462 0.39,-0.498 0.326,-0.498C0.243,-0.498 0.199,-0.453 0.176,-0.415L0.173,-0.415L0.167,-0.487L0.062,-0.487C0.064,-0.445 0.066,-0.398 0.066,-0.342L0.066,-0Z" style="fill:white;fill-rule:nonzero;"/>
                </g>
                <g transform="matrix(11,0,0,11,249.592,205.269)">
                    <path d="M0.189,-0L0.189,-0.487L0.066,-0.487L0.066,-0L0.189,-0ZM0.128,-0.69C0.087,-0.69 0.059,-0.661 0.059,-0.623C0.059,-0.587 0.086,-0.557 0.127,-0.557C0.17,-0.557 0.197,-0.587 0.197,-0.623C0.196,-0.661 0.17,-0.69 0.128,-0.69Z" style="fill:white;fill-rule:nonzero;"/>
                </g>
                <g transform="matrix(11,0,0,11,252.408,205.269)">
                    <path d="M0.066,-0L0.189,-0L0.189,-0.287C0.189,-0.301 0.191,-0.316 0.195,-0.326C0.208,-0.363 0.242,-0.398 0.291,-0.398C0.358,-0.398 0.384,-0.345 0.384,-0.275L0.384,-0L0.507,-0L0.507,-0.289C0.507,-0.443 0.419,-0.498 0.334,-0.498C0.253,-0.498 0.2,-0.452 0.178,-0.414L0.175,-0.414L0.169,-0.487L0.062,-0.487C0.064,-0.445 0.066,-0.398 0.066,-0.342L0.066,-0Z" style="fill:white;fill-rule:nonzero;"/>
                </g>
                <g transform="matrix(11,0,0,11,258.7,205.269)">
                    <path d="M0.502,-0.487L0.379,-0.487L0.379,-0.193C0.379,-0.179 0.377,-0.165 0.372,-0.155C0.36,-0.123 0.328,-0.089 0.278,-0.089C0.213,-0.089 0.187,-0.141 0.187,-0.222L0.187,-0.487L0.064,-0.487L0.064,-0.201C0.064,-0.042 0.145,0.011 0.233,0.011C0.321,0.011 0.369,-0.039 0.39,-0.073L0.393,-0.073L0.399,-0L0.506,-0C0.504,-0.04 0.502,-0.088 0.502,-0.146L0.502,-0.487Z" style="fill:white;fill-rule:nonzero;"/>
                </g>
                <g transform="matrix(11,0,0,11,264.959,205.269)">
                    <path d="M0.086,-0.578L0.086,-0.487L0.017,-0.487L0.017,-0.395L0.086,-0.395L0.086,-0.166C0.086,-0.102 0.098,-0.057 0.125,-0.029C0.148,-0.004 0.185,0.011 0.231,0.011C0.269,0.011 0.302,0.005 0.32,-0.002L0.318,-0.095C0.304,-0.091 0.292,-0.09 0.27,-0.09C0.223,-0.09 0.207,-0.12 0.207,-0.18L0.207,-0.395L0.324,-0.395L0.324,-0.487L0.207,-0.487L0.207,-0.612L0.086,-0.578Z" style="fill:white;fill-rule:nonzero;"/>
                </g>
                <g transform="matrix(11,0,0,11,268.754,205.269)">
                    <path d="M0.287,-0.498C0.14,-0.498 0.035,-0.4 0.035,-0.24C0.035,-0.083 0.142,0.011 0.279,0.011C0.403,0.011 0.529,-0.069 0.529,-0.248C0.529,-0.396 0.432,-0.498 0.287,-0.498ZM0.284,-0.409C0.368,-0.409 0.402,-0.321 0.402,-0.245C0.402,-0.146 0.353,-0.078 0.283,-0.078C0.209,-0.078 0.162,-0.149 0.162,-0.243C0.162,-0.324 0.197,-0.409 0.284,-0.409Z" style="fill:white;fill-rule:nonzero;"/>
                </g>
                <g transform="matrix(11,0,0,11,274.958,205.269)">
                    <path d="M0.036,-0.024C0.072,-0.004 0.125,0.01 0.184,0.01C0.313,0.01 0.382,-0.054 0.382,-0.143C0.381,-0.215 0.341,-0.26 0.252,-0.291C0.19,-0.314 0.167,-0.328 0.167,-0.359C0.167,-0.389 0.191,-0.411 0.235,-0.411C0.278,-0.411 0.318,-0.395 0.338,-0.383L0.363,-0.469C0.334,-0.485 0.287,-0.498 0.233,-0.498C0.12,-0.498 0.049,-0.432 0.049,-0.346C0.049,-0.288 0.088,-0.236 0.183,-0.204C0.243,-0.182 0.263,-0.166 0.263,-0.133C0.263,-0.101 0.239,-0.078 0.185,-0.078C0.141,-0.078 0.088,-0.097 0.061,-0.114L0.036,-0.024Z" style="fill:white;fill-rule:nonzero;"/>
                </g>
            </g>
            <g transform="matrix(4.16667,0,0,4.16667,0,0)">
                <g transform="matrix(11,0,0,11,310.598,205.269)">
                    <path d="M0.236,-0L0.355,-0L0.355,-0.65L0.253,-0.65L0.094,-0.572L0.115,-0.479L0.234,-0.539L0.236,-0.539L0.236,-0Z" style="fill:white;fill-rule:nonzero;"/>
                </g>
                <g transform="matrix(11,0,0,11,318.771,205.269)">
                    <rect x="0.066" y="-0.71" width="0.123" height="0.71" style="fill:white;fill-rule:nonzero;"/>
                </g>
                <g transform="matrix(11,0,0,11,321.598,205.269)">
                    <path d="M0.502,-0.487L0.379,-0.487L0.379,-0.193C0.379,-0.179 0.377,-0.165 0.372,-0.155C0.36,-0.123 0.328,-0.089 0.278,-0.089C0.213,-0.089 0.187,-0.141 0.187,-0.222L0.187,-0.487L0.064,-0.487L0.064,-0.201C0.064,-0.042 0.145,0.011 0.233,0.011C0.321,0.011 0.369,-0.039 0.39,-0.073L0.393,-0.073L0.399,-0L0.506,-0C0.504,-0.04 0.502,-0.088 0.502,-0.146L0.502,-0.487Z" style="fill:white;fill-rule:nonzero;"/>
                </g>
                <g transform="matrix(11,0,0,11,327.857,205.269)">
                    <path d="M0.036,-0.024C0.072,-0.004 0.125,0.01 0.184,0.01C0.313,0.01 0.382,-0.054 0.382,-0.143C0.381,-0.215 0.341,-0.26 0.252,-0.291C0.19,-0.314 0.167,-0.328 0.167,-0.359C0.167,-0.389 0.191,-0.411 0.235,-0.411C0.278,-0.411 0.318,-0.395 0.338,-0.383L0.363,-0.469C0.334,-0.485 0.287,-0.498 0.233,-0.498C0.12,-0.498 0.049,-0.432 0.049,-0.346C0.049,-0.288 0.088,-0.236 0.183,-0.204C0.243,-0.182 0.263,-0.166 0.263,-0.133C0.263,-0.101 0.239,-0.078 0.185,-0.078C0.141,-0.078 0.088,-0.097 0.061,-0.114L0.036,-0.024Z" style="fill:white;fill-rule:nonzero;"/>
                </g>
                <g transform="matrix(11,0,0,11,332.444,205.269)">
                    <path d="M0.086,-0.578L0.086,-0.487L0.017,-0.487L0.017,-0.395L0.086,-0.395L0.086,-0.166C0.086,-0.102 0.098,-0.057 0.125,-0.029C0.148,-0.004 0.185,0.011 0.231,0.011C0.269,0.011 0.302,0.005 0.32,-0.002L0.318,-0.095C0.304,-0.091 0.292,-0.09 0.27,-0.09C0.223,-0.09 0.207,-0.12 0.207,-0.18L0.207,-0.395L0.324,-0.395L0.324,-0.487L0.207,-0.487L0.207,-0.612L0.086,-0.578Z" style="fill:white;fill-rule:nonzero;"/>
                </g>
                <g transform="matrix(11,0,0,11,336.304,205.269)">
                    <path d="M0.066,-0L0.189,-0L0.189,-0.253C0.189,-0.266 0.19,-0.279 0.192,-0.29C0.203,-0.346 0.244,-0.383 0.302,-0.383C0.317,-0.383 0.328,-0.382 0.339,-0.38L0.339,-0.495C0.329,-0.497 0.322,-0.498 0.31,-0.498C0.257,-0.498 0.2,-0.463 0.176,-0.395L0.173,-0.395L0.168,-0.487L0.062,-0.487C0.065,-0.444 0.066,-0.396 0.066,-0.33L0.066,-0Z" style="fill:white;fill-rule:nonzero;"/>
                </g>
                <g transform="matrix(11,0,0,11,340.121,205.269)">
                    <path d="M0.287,-0.498C0.14,-0.498 0.035,-0.4 0.035,-0.24C0.035,-0.083 0.142,0.011 0.279,0.011C0.403,0.011 0.529,-0.069 0.529,-0.248C0.529,-0.396 0.432,-0.498 0.287,-0.498ZM0.284,-0.409C0.368,-0.409 0.402,-0.321 0.402,-0.245C0.402,-0.146 0.353,-0.078 0.283,-0.078C0.209,-0.078 0.162,-0.149 0.162,-0.243C0.162,-0.324 0.197,-0.409 0.284,-0.409Z" style="fill:white;fill-rule:nonzero;"/>
                </g>
                <g transform="matrix(11,0,0,11,359.758,205.269)">
                    <path d="M0.556,-0.33L0.556,-0.408L0.04,-0.408L0.04,-0.33L0.556,-0.33ZM0.556,-0.128L0.556,-0.206L0.04,-0.206L0.04,-0.128L0.556,-0.128Z" style="fill:white;fill-rule:nonzero;"/>
                </g>
                <g transform="matrix(11,0,0,11,375.795,205.269)">
                    <path d="M0.457,-0.65L0.12,-0.65L0.078,-0.322C0.103,-0.325 0.13,-0.328 0.167,-0.328C0.296,-0.328 0.351,-0.279 0.351,-0.204C0.351,-0.127 0.282,-0.086 0.21,-0.086C0.151,-0.086 0.095,-0.105 0.067,-0.12L0.042,-0.027C0.076,-0.008 0.139,0.011 0.215,0.011C0.374,0.011 0.477,-0.09 0.477,-0.214C0.477,-0.293 0.441,-0.348 0.392,-0.379C0.349,-0.408 0.291,-0.421 0.234,-0.421C0.215,-0.421 0.202,-0.42 0.188,-0.418L0.207,-0.548L0.457,-0.548L0.457,-0.65Z" style="fill:white;fill-rule:nonzero;"/>
                </g>
                <g transform="matrix(11,0,0,11,383.968,205.269)">
                    <path d="M0.444,-0.292C0.444,-0.399 0.399,-0.498 0.243,-0.498C0.166,-0.498 0.103,-0.477 0.067,-0.455L0.091,-0.375C0.124,-0.396 0.174,-0.411 0.222,-0.411C0.308,-0.411 0.321,-0.358 0.321,-0.326L0.321,-0.318C0.141,-0.319 0.032,-0.256 0.032,-0.134C0.032,-0.06 0.087,0.011 0.185,0.011C0.249,0.011 0.3,-0.016 0.329,-0.054L0.332,-0.054L0.341,-0L0.452,-0C0.446,-0.03 0.444,-0.073 0.444,-0.117L0.444,-0.292ZM0.324,-0.171C0.324,-0.162 0.324,-0.153 0.321,-0.144C0.309,-0.109 0.274,-0.077 0.224,-0.077C0.185,-0.077 0.154,-0.099 0.154,-0.147C0.154,-0.221 0.237,-0.239 0.324,-0.238L0.324,-0.171Z" style="fill:white;fill-rule:nonzero;"/>
                </g>
                <g transform="matrix(11,0,0,11,389.556,205.269)">
                    <path d="M0.066,-0L0.189,-0L0.189,-0.287C0.189,-0.301 0.191,-0.316 0.195,-0.326C0.208,-0.363 0.242,-0.398 0.291,-0.398C0.358,-0.398 0.384,-0.345 0.384,-0.275L0.384,-0L0.507,-0L0.507,-0.289C0.507,-0.443 0.419,-0.498 0.334,-0.498C0.253,-0.498 0.2,-0.452 0.178,-0.414L0.175,-0.414L0.169,-0.487L0.062,-0.487C0.064,-0.445 0.066,-0.398 0.066,-0.342L0.066,-0ZM0.214,-0.562C0.216,-0.591 0.224,-0.607 0.239,-0.607C0.252,-0.607 0.261,-0.601 0.28,-0.59C0.3,-0.579 0.32,-0.569 0.345,-0.569C0.395,-0.569 0.423,-0.605 0.421,-0.685L0.361,-0.685C0.359,-0.651 0.35,-0.642 0.334,-0.642C0.322,-0.642 0.308,-0.651 0.292,-0.66C0.271,-0.671 0.252,-0.681 0.229,-0.681C0.181,-0.681 0.15,-0.638 0.153,-0.562L0.214,-0.562Z" style="fill:white;fill-rule:nonzero;"/>
                </g>
                <g transform="matrix(11,0,0,11,395.848,205.269)">
                    <path d="M0.287,-0.498C0.14,-0.498 0.035,-0.4 0.035,-0.24C0.035,-0.083 0.142,0.011 0.279,0.011C0.403,0.011 0.529,-0.069 0.529,-0.248C0.529,-0.396 0.432,-0.498 0.287,-0.498ZM0.284,-0.409C0.368,-0.409 0.402,-0.321 0.402,-0.245C0.402,-0.146 0.353,-0.078 0.283,-0.078C0.209,-0.078 0.162,-0.149 0.162,-0.243C0.162,-0.324 0.197,-0.409 0.284,-0.409Z" style="fill:white;fill-rule:nonzero;"/>
                </g>
                <g transform="matrix(11,0,0,11,402.052,205.269)">
                    <path d="M0.036,-0.024C0.072,-0.004 0.125,0.01 0.184,0.01C0.313,0.01 0.382,-0.054 0.382,-0.143C0.381,-0.215 0.341,-0.26 0.252,-0.291C0.19,-0.314 0.167,-0.328 0.167,-0.359C0.167,-0.389 0.191,-0.411 0.235,-0.411C0.278,-0.411 0.318,-0.395 0.338,-0.383L0.363,-0.469C0.334,-0.485 0.287,-0.498 0.233,-0.498C0.12,-0.498 0.049,-0.432 0.049,-0.346C0.049,-0.288 0.088,-0.236 0.183,-0.204C0.243,-0.182 0.263,-0.166 0.263,-0.133C0.263,-0.101 0.239,-0.078 0.185,-0.078C0.141,-0.078 0.088,-0.097 0.061,-0.114L0.036,-0.024Z" style="fill:white;fill-rule:nonzero;"/>
                </g>
            </g>
            <g transform="matrix(4.16667,0,0,4.16667,0,0)">
                <g transform="matrix(11,0,0,11,160.998,225.113)">
                    <path d="M0.236,-0L0.355,-0L0.355,-0.65L0.253,-0.65L0.094,-0.572L0.115,-0.479L0.234,-0.539L0.236,-0.539L0.236,-0Z" style="fill:white;fill-rule:nonzero;"/>
                </g>
                <g transform="matrix(11,0,0,11,169.171,225.113)">
                    <path d="M0.392,-0.71L0.392,-0.435L0.39,-0.435C0.368,-0.471 0.32,-0.498 0.253,-0.498C0.136,-0.498 0.034,-0.401 0.035,-0.238C0.035,-0.088 0.127,0.011 0.244,0.011C0.314,0.011 0.373,-0.023 0.402,-0.077L0.404,-0.077L0.41,-0L0.519,-0C0.517,-0.033 0.515,-0.087 0.515,-0.137L0.515,-0.71L0.392,-0.71ZM0.392,-0.211C0.392,-0.198 0.391,-0.186 0.388,-0.175C0.376,-0.122 0.332,-0.088 0.282,-0.088C0.204,-0.088 0.16,-0.153 0.16,-0.243C0.16,-0.333 0.204,-0.403 0.283,-0.403C0.339,-0.403 0.378,-0.364 0.389,-0.317C0.391,-0.307 0.392,-0.294 0.392,-0.284L0.392,-0.211Z" style="fill:white;fill-rule:nonzero;"/>
                </g>
                <g transform="matrix(11,0,0,11,175.562,225.113)">
                    <path d="M0.189,-0L0.189,-0.487L0.066,-0.487L0.066,-0L0.189,-0ZM0.157,-0.698L0.071,-0.55L0.156,-0.55L0.278,-0.698L0.157,-0.698Z" style="fill:white;fill-rule:nonzero;"/>
                </g>
                <g transform="matrix(11,0,0,11,178.378,225.113)">
                    <path d="M0.444,-0.292C0.444,-0.399 0.399,-0.498 0.243,-0.498C0.166,-0.498 0.103,-0.477 0.067,-0.455L0.091,-0.375C0.124,-0.396 0.174,-0.411 0.222,-0.411C0.308,-0.411 0.321,-0.358 0.321,-0.326L0.321,-0.318C0.141,-0.319 0.032,-0.256 0.032,-0.134C0.032,-0.06 0.087,0.011 0.185,0.011C0.249,0.011 0.3,-0.016 0.329,-0.054L0.332,-0.054L0.341,-0L0.452,-0C0.446,-0.03 0.444,-0.073 0.444,-0.117L0.444,-0.292ZM0.324,-0.171C0.324,-0.162 0.324,-0.153 0.321,-0.144C0.309,-0.109 0.274,-0.077 0.224,-0.077C0.185,-0.077 0.154,-0.099 0.154,-0.147C0.154,-0.221 0.237,-0.239 0.324,-0.238L0.324,-0.171Z" style="fill:white;fill-rule:nonzero;"/>
                </g>
            </g>
            <g transform="matrix(4.16667,0,0,4.16667,0,0)">
                <g transform="matrix(11,0,0,11,210.157,225.113)">
                    <path d="M0.556,-0.33L0.556,-0.408L0.04,-0.408L0.04,-0.33L0.556,-0.33ZM0.556,-0.128L0.556,-0.206L0.04,-0.206L0.04,-0.128L0.556,-0.128Z" style="fill:white;fill-rule:nonzero;"/>
                </g>
                <g transform="matrix(11,0,0,11,226.194,225.113)">
                    <path d="M0.483,-0L0.483,-0.102L0.217,-0.102L0.217,-0.104L0.273,-0.153C0.387,-0.258 0.469,-0.35 0.469,-0.464C0.469,-0.57 0.399,-0.661 0.255,-0.661C0.173,-0.661 0.102,-0.632 0.055,-0.594L0.091,-0.507C0.124,-0.532 0.172,-0.561 0.23,-0.561C0.315,-0.561 0.346,-0.51 0.346,-0.452C0.345,-0.366 0.273,-0.288 0.12,-0.146L0.043,-0.075L0.043,-0L0.483,-0Z" style="fill:white;fill-rule:nonzero;"/>
                </g>
                <g transform="matrix(11,0,0,11,232.09,225.113)">
                    <path d="M0.43,-0L0.43,-0.165L0.514,-0.165L0.514,-0.258L0.43,-0.258L0.43,-0.65L0.285,-0.65L0.019,-0.245L0.019,-0.165L0.314,-0.165L0.314,-0L0.43,-0ZM0.137,-0.258L0.137,-0.26L0.257,-0.438C0.277,-0.474 0.294,-0.507 0.314,-0.548L0.318,-0.548C0.316,-0.509 0.314,-0.472 0.314,-0.435L0.314,-0.258L0.137,-0.258Z" style="fill:white;fill-rule:nonzero;"/>
                </g>
                <g transform="matrix(11,0,0,11,240.263,225.113)">
                    <path d="M0.066,-0L0.189,-0L0.189,-0.292C0.189,-0.305 0.19,-0.318 0.194,-0.329C0.208,-0.366 0.242,-0.398 0.29,-0.398C0.358,-0.398 0.384,-0.344 0.384,-0.274L0.384,-0L0.507,-0L0.507,-0.287C0.507,-0.443 0.42,-0.498 0.337,-0.498C0.306,-0.498 0.277,-0.49 0.252,-0.476C0.227,-0.463 0.206,-0.444 0.191,-0.421L0.189,-0.421L0.189,-0.71L0.066,-0.71L0.066,-0Z" style="fill:white;fill-rule:nonzero;"/>
                </g>
                <g transform="matrix(11,0,0,11,246.555,225.113)">
                    <path d="M0.287,-0.498C0.14,-0.498 0.035,-0.4 0.035,-0.24C0.035,-0.083 0.142,0.011 0.279,0.011C0.403,0.011 0.529,-0.069 0.529,-0.248C0.529,-0.396 0.432,-0.498 0.287,-0.498ZM0.284,-0.409C0.368,-0.409 0.402,-0.321 0.402,-0.245C0.402,-0.146 0.353,-0.078 0.283,-0.078C0.209,-0.078 0.162,-0.149 0.162,-0.243C0.162,-0.324 0.197,-0.409 0.284,-0.409Z" style="fill:white;fill-rule:nonzero;"/>
                </g>
                <g transform="matrix(11,0,0,11,252.759,225.113)">
                    <path d="M0.066,-0L0.189,-0L0.189,-0.253C0.189,-0.266 0.19,-0.279 0.192,-0.29C0.203,-0.346 0.244,-0.383 0.302,-0.383C0.317,-0.383 0.328,-0.382 0.339,-0.38L0.339,-0.495C0.329,-0.497 0.322,-0.498 0.31,-0.498C0.257,-0.498 0.2,-0.463 0.176,-0.395L0.173,-0.395L0.168,-0.487L0.062,-0.487C0.065,-0.444 0.066,-0.396 0.066,-0.33L0.066,-0Z" style="fill:white;fill-rule:nonzero;"/>
                </g>
                <g transform="matrix(11,0,0,11,256.576,225.113)">
                    <path d="M0.444,-0.292C0.444,-0.399 0.399,-0.498 0.243,-0.498C0.166,-0.498 0.103,-0.477 0.067,-0.455L0.091,-0.375C0.124,-0.396 0.174,-0.411 0.222,-0.411C0.308,-0.411 0.321,-0.358 0.321,-0.326L0.321,-0.318C0.141,-0.319 0.032,-0.256 0.032,-0.134C0.032,-0.06 0.087,0.011 0.185,0.011C0.249,0.011 0.3,-0.016 0.329,-0.054L0.332,-0.054L0.341,-0L0.452,-0C0.446,-0.03 0.444,-0.073 0.444,-0.117L0.444,-0.292ZM0.324,-0.171C0.324,-0.162 0.324,-0.153 0.321,-0.144C0.309,-0.109 0.274,-0.077 0.224,-0.077C0.185,-0.077 0.154,-0.099 0.154,-0.147C0.154,-0.221 0.237,-0.239 0.324,-0.238L0.324,-0.171Z" style="fill:white;fill-rule:nonzero;"/>
                </g>
                <g transform="matrix(11,0,0,11,262.164,225.113)">
                    <path d="M0.036,-0.024C0.072,-0.004 0.125,0.01 0.184,0.01C0.313,0.01 0.382,-0.054 0.382,-0.143C0.381,-0.215 0.341,-0.26 0.252,-0.291C0.19,-0.314 0.167,-0.328 0.167,-0.359C0.167,-0.389 0.191,-0.411 0.235,-0.411C0.278,-0.411 0.318,-0.395 0.338,-0.383L0.363,-0.469C0.334,-0.485 0.287,-0.498 0.233,-0.498C0.12,-0.498 0.049,-0.432 0.049,-0.346C0.049,-0.288 0.088,-0.236 0.183,-0.204C0.243,-0.182 0.263,-0.166 0.263,-0.133C0.263,-0.101 0.239,-0.078 0.185,-0.078C0.141,-0.078 0.088,-0.097 0.061,-0.114L0.036,-0.024Z" style="fill:white;fill-rule:nonzero;"/>
                </g>
            </g>
            <g transform="matrix(4.16667,0,0,4.16667,0,0)">
                <g transform="matrix(11,0,0,11,310.598,225.113)">
                    <path d="M0.236,-0L0.355,-0L0.355,-0.65L0.253,-0.65L0.094,-0.572L0.115,-0.479L0.234,-0.539L0.236,-0.539L0.236,-0Z" style="fill:white;fill-rule:nonzero;"/>
                </g>
                <g transform="matrix(11,0,0,11,318.771,225.113)">
                    <path d="M0.392,-0.71L0.392,-0.435L0.39,-0.435C0.368,-0.471 0.32,-0.498 0.253,-0.498C0.136,-0.498 0.034,-0.401 0.035,-0.238C0.035,-0.088 0.127,0.011 0.244,0.011C0.314,0.011 0.373,-0.023 0.402,-0.077L0.404,-0.077L0.41,-0L0.519,-0C0.517,-0.033 0.515,-0.087 0.515,-0.137L0.515,-0.71L0.392,-0.71ZM0.392,-0.211C0.392,-0.198 0.391,-0.186 0.388,-0.175C0.376,-0.122 0.332,-0.088 0.282,-0.088C0.204,-0.088 0.16,-0.153 0.16,-0.243C0.16,-0.333 0.204,-0.403 0.283,-0.403C0.339,-0.403 0.378,-0.364 0.389,-0.317C0.391,-0.307 0.392,-0.294 0.392,-0.284L0.392,-0.211Z" style="fill:white;fill-rule:nonzero;"/>
                </g>
                <g transform="matrix(11,0,0,11,325.162,225.113)">
                    <path d="M0.479,-0.209C0.481,-0.22 0.483,-0.238 0.483,-0.261C0.483,-0.368 0.431,-0.498 0.273,-0.498C0.117,-0.498 0.035,-0.371 0.035,-0.236C0.035,-0.087 0.128,0.01 0.286,0.01C0.356,0.01 0.414,-0.003 0.456,-0.021L0.438,-0.105C0.4,-0.092 0.36,-0.083 0.303,-0.083C0.224,-0.083 0.156,-0.121 0.153,-0.209L0.479,-0.209ZM0.153,-0.295C0.158,-0.345 0.19,-0.414 0.266,-0.414C0.348,-0.414 0.368,-0.34 0.367,-0.295L0.153,-0.295ZM0.302,-0.698L0.215,-0.55L0.3,-0.55L0.422,-0.698L0.302,-0.698Z" style="fill:white;fill-rule:nonzero;"/>
                </g>
                <g transform="matrix(11,0,0,11,330.838,225.113)">
                    <path d="M0.407,-0.106C0.383,-0.096 0.352,-0.087 0.31,-0.087C0.226,-0.087 0.161,-0.144 0.161,-0.244C0.16,-0.333 0.216,-0.402 0.31,-0.402C0.354,-0.402 0.383,-0.393 0.403,-0.383L0.425,-0.476C0.397,-0.488 0.351,-0.498 0.306,-0.498C0.135,-0.498 0.035,-0.385 0.035,-0.239C0.035,-0.088 0.134,0.01 0.286,0.01C0.347,0.01 0.398,-0.003 0.424,-0.015L0.407,-0.106Z" style="fill:white;fill-rule:nonzero;"/>
                </g>
                <g transform="matrix(11,0,0,11,335.777,225.113)">
                    <path d="M0.444,-0.292C0.444,-0.399 0.399,-0.498 0.243,-0.498C0.166,-0.498 0.103,-0.477 0.067,-0.455L0.091,-0.375C0.124,-0.396 0.174,-0.411 0.222,-0.411C0.308,-0.411 0.321,-0.358 0.321,-0.326L0.321,-0.318C0.141,-0.319 0.032,-0.256 0.032,-0.134C0.032,-0.06 0.087,0.011 0.185,0.011C0.249,0.011 0.3,-0.016 0.329,-0.054L0.332,-0.054L0.341,-0L0.452,-0C0.446,-0.03 0.444,-0.073 0.444,-0.117L0.444,-0.292ZM0.324,-0.171C0.324,-0.162 0.324,-0.153 0.321,-0.144C0.309,-0.109 0.274,-0.077 0.224,-0.077C0.185,-0.077 0.154,-0.099 0.154,-0.147C0.154,-0.221 0.237,-0.239 0.324,-0.238L0.324,-0.171Z" style="fill:white;fill-rule:nonzero;"/>
                </g>
                <g transform="matrix(11,0,0,11,341.365,225.113)">
                    <path d="M0.392,-0.71L0.392,-0.435L0.39,-0.435C0.368,-0.471 0.32,-0.498 0.253,-0.498C0.136,-0.498 0.034,-0.401 0.035,-0.238C0.035,-0.088 0.127,0.011 0.244,0.011C0.314,0.011 0.373,-0.023 0.402,-0.077L0.404,-0.077L0.41,-0L0.519,-0C0.517,-0.033 0.515,-0.087 0.515,-0.137L0.515,-0.71L0.392,-0.71ZM0.392,-0.211C0.392,-0.198 0.391,-0.186 0.388,-0.175C0.376,-0.122 0.332,-0.088 0.282,-0.088C0.204,-0.088 0.16,-0.153 0.16,-0.243C0.16,-0.333 0.204,-0.403 0.283,-0.403C0.339,-0.403 0.378,-0.364 0.389,-0.317C0.391,-0.307 0.392,-0.294 0.392,-0.284L0.392,-0.211Z" style="fill:white;fill-rule:nonzero;"/>
                </g>
                <g transform="matrix(11,0,0,11,347.756,225.113)">
                    <path d="M0.444,-0.292C0.444,-0.399 0.399,-0.498 0.243,-0.498C0.166,-0.498 0.103,-0.477 0.067,-0.455L0.091,-0.375C0.124,-0.396 0.174,-0.411 0.222,-0.411C0.308,-0.411 0.321,-0.358 0.321,-0.326L0.321,-0.318C0.141,-0.319 0.032,-0.256 0.032,-0.134C0.032,-0.06 0.087,0.011 0.185,0.011C0.249,0.011 0.3,-0.016 0.329,-0.054L0.332,-0.054L0.341,-0L0.452,-0C0.446,-0.03 0.444,-0.073 0.444,-0.117L0.444,-0.292ZM0.324,-0.171C0.324,-0.162 0.324,-0.153 0.321,-0.144C0.309,-0.109 0.274,-0.077 0.224,-0.077C0.185,-0.077 0.154,-0.099 0.154,-0.147C0.154,-0.221 0.237,-0.239 0.324,-0.238L0.324,-0.171Z" style="fill:white;fill-rule:nonzero;"/>
                </g>
                <g transform="matrix(11,0,0,11,359.758,225.113)">
                    <path d="M0.556,-0.33L0.556,-0.408L0.04,-0.408L0.04,-0.33L0.556,-0.33ZM0.556,-0.128L0.556,-0.206L0.04,-0.206L0.04,-0.128L0.556,-0.128Z" style="fill:white;fill-rule:nonzero;"/>
                </g>
                <g transform="matrix(11,0,0,11,375.795,225.113)">
                    <path d="M0.236,-0L0.355,-0L0.355,-0.65L0.253,-0.65L0.094,-0.572L0.115,-0.479L0.234,-0.539L0.236,-0.539L0.236,-0Z" style="fill:white;fill-rule:nonzero;"/>
                </g>
                <g transform="matrix(11,0,0,11,381.691,225.113)">
                    <path d="M0.272,-0.661C0.12,-0.661 0.034,-0.526 0.034,-0.323C0.035,-0.125 0.115,0.011 0.264,0.011C0.42,0.011 0.502,-0.12 0.502,-0.33C0.502,-0.521 0.429,-0.661 0.272,-0.661ZM0.269,-0.567C0.343,-0.567 0.378,-0.478 0.378,-0.327C0.378,-0.171 0.341,-0.083 0.268,-0.083C0.201,-0.083 0.158,-0.165 0.158,-0.324C0.158,-0.486 0.204,-0.567 0.269,-0.567Z" style="fill:white;fill-rule:nonzero;"/>
                </g>
                <g transform="matrix(11,0,0,11,389.864,225.113)">
                    <path d="M0.444,-0.292C0.444,-0.399 0.399,-0.498 0.243,-0.498C0.166,-0.498 0.103,-0.477 0.067,-0.455L0.091,-0.375C0.124,-0.396 0.174,-0.411 0.222,-0.411C0.308,-0.411 0.321,-0.358 0.321,-0.326L0.321,-0.318C0.141,-0.319 0.032,-0.256 0.032,-0.134C0.032,-0.06 0.087,0.011 0.185,0.011C0.249,0.011 0.3,-0.016 0.329,-0.054L0.332,-0.054L0.341,-0L0.452,-0C0.446,-0.03 0.444,-0.073 0.444,-0.117L0.444,-0.292ZM0.324,-0.171C0.324,-0.162 0.324,-0.153 0.321,-0.144C0.309,-0.109 0.274,-0.077 0.224,-0.077C0.185,-0.077 0.154,-0.099 0.154,-0.147C0.154,-0.221 0.237,-0.239 0.324,-0.238L0.324,-0.171Z" style="fill:white;fill-rule:nonzero;"/>
                </g>
                <g transform="matrix(11,0,0,11,395.452,225.113)">
                    <path d="M0.066,-0L0.189,-0L0.189,-0.287C0.189,-0.301 0.191,-0.316 0.195,-0.326C0.208,-0.363 0.242,-0.398 0.291,-0.398C0.358,-0.398 0.384,-0.345 0.384,-0.275L0.384,-0L0.507,-0L0.507,-0.289C0.507,-0.443 0.419,-0.498 0.334,-0.498C0.253,-0.498 0.2,-0.452 0.178,-0.414L0.175,-0.414L0.169,-0.487L0.062,-0.487C0.064,-0.445 0.066,-0.398 0.066,-0.342L0.066,-0ZM0.214,-0.562C0.216,-0.591 0.224,-0.607 0.239,-0.607C0.252,-0.607 0.261,-0.601 0.28,-0.59C0.3,-0.579 0.32,-0.569 0.345,-0.569C0.395,-0.569 0.423,-0.605 0.421,-0.685L0.361,-0.685C0.359,-0.651 0.35,-0.642 0.334,-0.642C0.322,-0.642 0.308,-0.651 0.292,-0.66C0.271,-0.671 0.252,-0.681 0.229,-0.681C0.181,-0.681 0.15,-0.638 0.153,-0.562L0.214,-0.562Z" style="fill:white;fill-rule:nonzero;"/>
                </g>
                <g transform="matrix(11,0,0,11,401.744,225.113)">
                    <path d="M0.287,-0.498C0.14,-0.498 0.035,-0.4 0.035,-0.24C0.035,-0.083 0.142,0.011 0.279,0.011C0.403,0.011 0.529,-0.069 0.529,-0.248C0.529,-0.396 0.432,-0.498 0.287,-0.498ZM0.284,-0.409C0.368,-0.409 0.402,-0.321 0.402,-0.245C0.402,-0.146 0.353,-0.078 0.283,-0.078C0.209,-0.078 0.162,-0.149 0.162,-0.243C0.162,-0.324 0.197,-0.409 0.284,-0.409Z" style="fill:white;fill-rule:nonzero;"/>
                </g>
                <g transform="matrix(11,0,0,11,407.948,225.113)">
                    <path d="M0.036,-0.024C0.072,-0.004 0.125,0.01 0.184,0.01C0.313,0.01 0.382,-0.054 0.382,-0.143C0.381,-0.215 0.341,-0.26 0.252,-0.291C0.19,-0.314 0.167,-0.328 0.167,-0.359C0.167,-0.389 0.191,-0.411 0.235,-0.411C0.278,-0.411 0.318,-0.395 0.338,-0.383L0.363,-0.469C0.334,-0.485 0.287,-0.498 0.233,-0.498C0.12,-0.498 0.049,-0.432 0.049,-0.346C0.049,-0.288 0.088,-0.236 0.183,-0.204C0.243,-0.182 0.263,-0.166 0.263,-0.133C0.263,-0.101 0.239,-0.078 0.185,-0.078C0.141,-0.078 0.088,-0.097 0.061,-0.114L0.036,-0.024Z" style="fill:white;fill-rule:nonzero;"/>
                </g>
            </g>
            <g transform="matrix(4.16667,0,0,4.16667,0,0)">
                <g transform="matrix(11,0,0,11,160.998,244.957)">
                    <path d="M0.236,-0L0.355,-0L0.355,-0.65L0.253,-0.65L0.094,-0.572L0.115,-0.479L0.234,-0.539L0.236,-0.539L0.236,-0Z" style="fill:white;fill-rule:nonzero;"/>
                </g>
                <g transform="matrix(11,0,0,11,169.171,244.957)">
                    <path d="M0.036,-0.024C0.072,-0.004 0.125,0.01 0.184,0.01C0.313,0.01 0.382,-0.054 0.382,-0.143C0.381,-0.215 0.341,-0.26 0.252,-0.291C0.19,-0.314 0.167,-0.328 0.167,-0.359C0.167,-0.389 0.191,-0.411 0.235,-0.411C0.278,-0.411 0.318,-0.395 0.338,-0.383L0.363,-0.469C0.334,-0.485 0.287,-0.498 0.233,-0.498C0.12,-0.498 0.049,-0.432 0.049,-0.346C0.049,-0.288 0.088,-0.236 0.183,-0.204C0.243,-0.182 0.263,-0.166 0.263,-0.133C0.263,-0.101 0.239,-0.078 0.185,-0.078C0.141,-0.078 0.088,-0.097 0.061,-0.114L0.036,-0.024Z" style="fill:white;fill-rule:nonzero;"/>
                </g>
                <g transform="matrix(11,0,0,11,173.758,244.957)">
                    <path d="M0.479,-0.209C0.481,-0.22 0.483,-0.238 0.483,-0.261C0.483,-0.368 0.431,-0.498 0.273,-0.498C0.117,-0.498 0.035,-0.371 0.035,-0.236C0.035,-0.087 0.128,0.01 0.286,0.01C0.356,0.01 0.414,-0.003 0.456,-0.021L0.438,-0.105C0.4,-0.092 0.36,-0.083 0.303,-0.083C0.224,-0.083 0.156,-0.121 0.153,-0.209L0.479,-0.209ZM0.153,-0.295C0.158,-0.345 0.19,-0.414 0.266,-0.414C0.348,-0.414 0.368,-0.34 0.367,-0.295L0.153,-0.295Z" style="fill:white;fill-rule:nonzero;"/>
                </g>
                <g transform="matrix(11,0,0,11,179.434,244.957)">
                    <path d="M0.066,-0L0.186,-0L0.186,-0.288C0.186,-0.302 0.188,-0.316 0.192,-0.329C0.204,-0.362 0.235,-0.398 0.281,-0.398C0.338,-0.398 0.365,-0.35 0.365,-0.282L0.365,-0L0.485,-0L0.485,-0.292C0.485,-0.306 0.487,-0.322 0.491,-0.333C0.504,-0.368 0.535,-0.398 0.577,-0.398C0.636,-0.398 0.664,-0.35 0.664,-0.269L0.664,-0L0.784,-0L0.784,-0.287C0.784,-0.443 0.702,-0.498 0.622,-0.498C0.581,-0.498 0.55,-0.488 0.522,-0.469C0.5,-0.455 0.48,-0.435 0.463,-0.408L0.461,-0.408C0.44,-0.462 0.39,-0.498 0.326,-0.498C0.243,-0.498 0.199,-0.453 0.176,-0.415L0.173,-0.415L0.167,-0.487L0.062,-0.487C0.064,-0.445 0.066,-0.398 0.066,-0.342L0.066,-0Z" style="fill:white;fill-rule:nonzero;"/>
                </g>
                <g transform="matrix(11,0,0,11,188.762,244.957)">
                    <path d="M0.444,-0.292C0.444,-0.399 0.399,-0.498 0.243,-0.498C0.166,-0.498 0.103,-0.477 0.067,-0.455L0.091,-0.375C0.124,-0.396 0.174,-0.411 0.222,-0.411C0.308,-0.411 0.321,-0.358 0.321,-0.326L0.321,-0.318C0.141,-0.319 0.032,-0.256 0.032,-0.134C0.032,-0.06 0.087,0.011 0.185,0.011C0.249,0.011 0.3,-0.016 0.329,-0.054L0.332,-0.054L0.341,-0L0.452,-0C0.446,-0.03 0.444,-0.073 0.444,-0.117L0.444,-0.292ZM0.324,-0.171C0.324,-0.162 0.324,-0.153 0.321,-0.144C0.309,-0.109 0.274,-0.077 0.224,-0.077C0.185,-0.077 0.154,-0.099 0.154,-0.147C0.154,-0.221 0.237,-0.239 0.324,-0.238L0.324,-0.171Z" style="fill:white;fill-rule:nonzero;"/>
                </g>
                <g transform="matrix(11,0,0,11,194.35,244.957)">
                    <path d="M0.066,-0L0.189,-0L0.189,-0.287C0.189,-0.301 0.191,-0.316 0.195,-0.326C0.208,-0.363 0.242,-0.398 0.291,-0.398C0.358,-0.398 0.384,-0.345 0.384,-0.275L0.384,-0L0.507,-0L0.507,-0.289C0.507,-0.443 0.419,-0.498 0.334,-0.498C0.253,-0.498 0.2,-0.452 0.178,-0.414L0.175,-0.414L0.169,-0.487L0.062,-0.487C0.064,-0.445 0.066,-0.398 0.066,-0.342L0.066,-0Z" style="fill:white;fill-rule:nonzero;"/>
                </g>
                <g transform="matrix(11,0,0,11,200.642,244.957)">
                    <path d="M0.444,-0.292C0.444,-0.399 0.399,-0.498 0.243,-0.498C0.166,-0.498 0.103,-0.477 0.067,-0.455L0.091,-0.375C0.124,-0.396 0.174,-0.411 0.222,-0.411C0.308,-0.411 0.321,-0.358 0.321,-0.326L0.321,-0.318C0.141,-0.319 0.032,-0.256 0.032,-0.134C0.032,-0.06 0.087,0.011 0.185,0.011C0.249,0.011 0.3,-0.016 0.329,-0.054L0.332,-0.054L0.341,-0L0.452,-0C0.446,-0.03 0.444,-0.073 0.444,-0.117L0.444,-0.292ZM0.324,-0.171C0.324,-0.162 0.324,-0.153 0.321,-0.144C0.309,-0.109 0.274,-0.077 0.224,-0.077C0.185,-0.077 0.154,-0.099 0.154,-0.147C0.154,-0.221 0.237,-0.239 0.324,-0.238L0.324,-0.171Z" style="fill:white;fill-rule:nonzero;"/>
                </g>
                <g transform="matrix(11,0,0,11,210.158,244.957)">
                    <path d="M0.556,-0.33L0.556,-0.408L0.04,-0.408L0.04,-0.33L0.556,-0.33ZM0.556,-0.128L0.556,-0.206L0.04,-0.206L0.04,-0.128L0.556,-0.128Z" style="fill:white;fill-rule:nonzero;"/>
                </g>
                <g transform="matrix(11,0,0,11,226.195,244.957)">
                    <path d="M0.053,-0.65L0.053,-0.548L0.36,-0.548L0.36,-0.546L0.086,-0L0.215,-0L0.49,-0.571L0.49,-0.65L0.053,-0.65Z" style="fill:white;fill-rule:nonzero;"/>
                </g>
                <g transform="matrix(11,0,0,11,234.368,244.957)">
                    <path d="M0.392,-0.71L0.392,-0.435L0.39,-0.435C0.368,-0.471 0.32,-0.498 0.253,-0.498C0.136,-0.498 0.034,-0.401 0.035,-0.238C0.035,-0.088 0.127,0.011 0.244,0.011C0.314,0.011 0.373,-0.023 0.402,-0.077L0.404,-0.077L0.41,-0L0.519,-0C0.517,-0.033 0.515,-0.087 0.515,-0.137L0.515,-0.71L0.392,-0.71ZM0.392,-0.211C0.392,-0.198 0.391,-0.186 0.388,-0.175C0.376,-0.122 0.332,-0.088 0.282,-0.088C0.204,-0.088 0.16,-0.153 0.16,-0.243C0.16,-0.333 0.204,-0.403 0.283,-0.403C0.339,-0.403 0.378,-0.364 0.389,-0.317C0.391,-0.307 0.392,-0.294 0.392,-0.284L0.392,-0.211Z" style="fill:white;fill-rule:nonzero;"/>
                </g>
                <g transform="matrix(11,0,0,11,240.759,244.957)">
                    <path d="M0.189,-0L0.189,-0.487L0.066,-0.487L0.066,-0L0.189,-0ZM0.157,-0.698L0.071,-0.55L0.156,-0.55L0.278,-0.698L0.157,-0.698Z" style="fill:white;fill-rule:nonzero;"/>
                </g>
                <g transform="matrix(11,0,0,11,243.575,244.957)">
                    <path d="M0.444,-0.292C0.444,-0.399 0.399,-0.498 0.243,-0.498C0.166,-0.498 0.103,-0.477 0.067,-0.455L0.091,-0.375C0.124,-0.396 0.174,-0.411 0.222,-0.411C0.308,-0.411 0.321,-0.358 0.321,-0.326L0.321,-0.318C0.141,-0.319 0.032,-0.256 0.032,-0.134C0.032,-0.06 0.087,0.011 0.185,0.011C0.249,0.011 0.3,-0.016 0.329,-0.054L0.332,-0.054L0.341,-0L0.452,-0C0.446,-0.03 0.444,-0.073 0.444,-0.117L0.444,-0.292ZM0.324,-0.171C0.324,-0.162 0.324,-0.153 0.321,-0.144C0.309,-0.109 0.274,-0.077 0.224,-0.077C0.185,-0.077 0.154,-0.099 0.154,-0.147C0.154,-0.221 0.237,-0.239 0.324,-0.238L0.324,-0.171Z" style="fill:white;fill-rule:nonzero;"/>
                </g>
                <g transform="matrix(11,0,0,11,249.163,244.957)">
                    <path d="M0.036,-0.024C0.072,-0.004 0.125,0.01 0.184,0.01C0.313,0.01 0.382,-0.054 0.382,-0.143C0.381,-0.215 0.341,-0.26 0.252,-0.291C0.19,-0.314 0.167,-0.328 0.167,-0.359C0.167,-0.389 0.191,-0.411 0.235,-0.411C0.278,-0.411 0.318,-0.395 0.338,-0.383L0.363,-0.469C0.334,-0.485 0.287,-0.498 0.233,-0.498C0.12,-0.498 0.049,-0.432 0.049,-0.346C0.049,-0.288 0.088,-0.236 0.183,-0.204C0.243,-0.182 0.263,-0.166 0.263,-0.133C0.263,-0.101 0.239,-0.078 0.185,-0.078C0.141,-0.078 0.088,-0.097 0.061,-0.114L0.036,-0.024Z" style="fill:white;fill-rule:nonzero;"/>
                </g>
            </g>
            <g transform="matrix(4.16667,0,0,4.16667,0,0)">
                <g transform="matrix(11,0,0,11,310.598,244.957)">
                    <path d="M0.236,-0L0.355,-0L0.355,-0.65L0.253,-0.65L0.094,-0.572L0.115,-0.479L0.234,-0.539L0.236,-0.539L0.236,-0Z" style="fill:white;fill-rule:nonzero;"/>
                </g>
                <g transform="matrix(11,0,0,11,318.771,244.957)">
                    <path d="M0.036,-0.024C0.072,-0.004 0.125,0.01 0.184,0.01C0.313,0.01 0.382,-0.054 0.382,-0.143C0.381,-0.215 0.341,-0.26 0.252,-0.291C0.19,-0.314 0.167,-0.328 0.167,-0.359C0.167,-0.389 0.191,-0.411 0.235,-0.411C0.278,-0.411 0.318,-0.395 0.338,-0.383L0.363,-0.469C0.334,-0.485 0.287,-0.498 0.233,-0.498C0.12,-0.498 0.049,-0.432 0.049,-0.346C0.049,-0.288 0.088,-0.236 0.183,-0.204C0.243,-0.182 0.263,-0.166 0.263,-0.133C0.263,-0.101 0.239,-0.078 0.185,-0.078C0.141,-0.078 0.088,-0.097 0.061,-0.114L0.036,-0.024Z" style="fill:white;fill-rule:nonzero;"/>
                </g>
                <g transform="matrix(11,0,0,11,323.358,244.957)">
                    <path d="M0.189,-0L0.189,-0.487L0.066,-0.487L0.066,-0L0.189,-0ZM0.128,-0.69C0.087,-0.69 0.059,-0.661 0.059,-0.623C0.059,-0.587 0.086,-0.557 0.127,-0.557C0.17,-0.557 0.197,-0.587 0.197,-0.623C0.196,-0.661 0.17,-0.69 0.128,-0.69Z" style="fill:white;fill-rule:nonzero;"/>
                </g>
                <g transform="matrix(11,0,0,11,326.174,244.957)">
                    <path d="M0.507,-0.347C0.507,-0.414 0.509,-0.454 0.511,-0.487L0.404,-0.487L0.399,-0.422L0.397,-0.422C0.374,-0.462 0.331,-0.498 0.256,-0.498C0.139,-0.498 0.035,-0.401 0.035,-0.241C0.035,-0.103 0.121,-0.003 0.242,-0.003C0.307,-0.003 0.356,-0.032 0.384,-0.075L0.386,-0.075L0.386,-0.033C0.386,0.072 0.326,0.114 0.246,0.114C0.187,0.114 0.135,0.095 0.104,0.077L0.077,0.17C0.119,0.195 0.185,0.209 0.247,0.209C0.314,0.209 0.385,0.195 0.435,0.15C0.486,0.104 0.507,0.031 0.507,-0.071L0.507,-0.347ZM0.384,-0.213C0.384,-0.199 0.383,-0.182 0.379,-0.17C0.365,-0.125 0.325,-0.095 0.279,-0.095C0.202,-0.095 0.16,-0.162 0.16,-0.245C0.16,-0.344 0.211,-0.404 0.28,-0.404C0.332,-0.404 0.367,-0.37 0.38,-0.325C0.383,-0.315 0.384,-0.304 0.384,-0.292L0.384,-0.213Z" style="fill:white;fill-rule:nonzero;"/>
                </g>
                <g transform="matrix(11,0,0,11,332.477,244.957)">
                    <rect x="0.066" y="-0.71" width="0.123" height="0.71" style="fill:white;fill-rule:nonzero;"/>
                </g>
                <g transform="matrix(11,0,0,11,335.304,244.957)">
                    <path d="M0.287,-0.498C0.14,-0.498 0.035,-0.4 0.035,-0.24C0.035,-0.083 0.142,0.011 0.279,0.011C0.403,0.011 0.529,-0.069 0.529,-0.248C0.529,-0.396 0.432,-0.498 0.287,-0.498ZM0.284,-0.409C0.368,-0.409 0.402,-0.321 0.402,-0.245C0.402,-0.146 0.353,-0.078 0.283,-0.078C0.209,-0.078 0.162,-0.149 0.162,-0.243C0.162,-0.324 0.197,-0.409 0.284,-0.409Z" style="fill:white;fill-rule:nonzero;"/>
                </g>
                <g transform="matrix(11,0,0,11,359.758,244.957)">
                    <path d="M0.556,-0.33L0.556,-0.408L0.04,-0.408L0.04,-0.33L0.556,-0.33ZM0.556,-0.128L0.556,-0.206L0.04,-0.206L0.04,-0.128L0.556,-0.128Z" style="fill:white;fill-rule:nonzero;"/>
                </g>
                <g transform="matrix(11,0,0,11,375.795,244.957)">
                    <path d="M0.236,-0L0.355,-0L0.355,-0.65L0.253,-0.65L0.094,-0.572L0.115,-0.479L0.234,-0.539L0.236,-0.539L0.236,-0Z" style="fill:white;fill-rule:nonzero;"/>
                </g>
                <g transform="matrix(11,0,0,11,381.691,244.957)">
                    <path d="M0.272,-0.661C0.12,-0.661 0.034,-0.526 0.034,-0.323C0.035,-0.125 0.115,0.011 0.264,0.011C0.42,0.011 0.502,-0.12 0.502,-0.33C0.502,-0.521 0.429,-0.661 0.272,-0.661ZM0.269,-0.567C0.343,-0.567 0.378,-0.478 0.378,-0.327C0.378,-0.171 0.341,-0.083 0.268,-0.083C0.201,-0.083 0.158,-0.165 0.158,-0.324C0.158,-0.486 0.204,-0.567 0.269,-0.567Z" style="fill:white;fill-rule:nonzero;"/>
                </g>
                <g transform="matrix(11,0,0,11,387.587,244.957)">
                    <path d="M0.272,-0.661C0.12,-0.661 0.034,-0.526 0.034,-0.323C0.035,-0.125 0.115,0.011 0.264,0.011C0.42,0.011 0.502,-0.12 0.502,-0.33C0.502,-0.521 0.429,-0.661 0.272,-0.661ZM0.269,-0.567C0.343,-0.567 0.378,-0.478 0.378,-0.327C0.378,-0.171 0.341,-0.083 0.268,-0.083C0.201,-0.083 0.158,-0.165 0.158,-0.324C0.158,-0.486 0.204,-0.567 0.269,-0.567Z" style="fill:white;fill-rule:nonzero;"/>
                </g>
                <g transform="matrix(11,0,0,11,395.76,244.957)">
                    <path d="M0.444,-0.292C0.444,-0.399 0.399,-0.498 0.243,-0.498C0.166,-0.498 0.103,-0.477 0.067,-0.455L0.091,-0.375C0.124,-0.396 0.174,-0.411 0.222,-0.411C0.308,-0.411 0.321,-0.358 0.321,-0.326L0.321,-0.318C0.141,-0.319 0.032,-0.256 0.032,-0.134C0.032,-0.06 0.087,0.011 0.185,0.011C0.249,0.011 0.3,-0.016 0.329,-0.054L0.332,-0.054L0.341,-0L0.452,-0C0.446,-0.03 0.444,-0.073 0.444,-0.117L0.444,-0.292ZM0.324,-0.171C0.324,-0.162 0.324,-0.153 0.321,-0.144C0.309,-0.109 0.274,-0.077 0.224,-0.077C0.185,-0.077 0.154,-0.099 0.154,-0.147C0.154,-0.221 0.237,-0.239 0.324,-0.238L0.324,-0.171Z" style="fill:white;fill-rule:nonzero;"/>
                </g>
                <g transform="matrix(11,0,0,11,401.348,244.957)">
                    <path d="M0.066,-0L0.189,-0L0.189,-0.287C0.189,-0.301 0.191,-0.316 0.195,-0.326C0.208,-0.363 0.242,-0.398 0.291,-0.398C0.358,-0.398 0.384,-0.345 0.384,-0.275L0.384,-0L0.507,-0L0.507,-0.289C0.507,-0.443 0.419,-0.498 0.334,-0.498C0.253,-0.498 0.2,-0.452 0.178,-0.414L0.175,-0.414L0.169,-0.487L0.062,-0.487C0.064,-0.445 0.066,-0.398 0.066,-0.342L0.066,-0ZM0.214,-0.562C0.216,-0.591 0.224,-0.607 0.239,-0.607C0.252,-0.607 0.261,-0.601 0.28,-0.59C0.3,-0.579 0.32,-0.569 0.345,-0.569C0.395,-0.569 0.423,-0.605 0.421,-0.685L0.361,-0.685C0.359,-0.651 0.35,-0.642 0.334,-0.642C0.322,-0.642 0.308,-0.651 0.292,-0.66C0.271,-0.671 0.252,-0.681 0.229,-0.681C0.181,-0.681 0.15,-0.638 0.153,-0.562L0.214,-0.562Z" style="fill:white;fill-rule:nonzero;"/>
                </g>
                <g transform="matrix(11,0,0,11,407.64,244.957)">
                    <path d="M0.287,-0.498C0.14,-0.498 0.035,-0.4 0.035,-0.24C0.035,-0.083 0.142,0.011 0.279,0.011C0.403,0.011 0.529,-0.069 0.529,-0.248C0.529,-0.396 0.432,-0.498 0.287,-0.498ZM0.284,-0.409C0.368,-0.409 0.402,-0.321 0.402,-0.245C0.402,-0.146 0.353,-0.078 0.283,-0.078C0.209,-0.078 0.162,-0.149 0.162,-0.243C0.162,-0.324 0.197,-0.409 0.284,-0.409Z" style="fill:white;fill-rule:nonzero;"/>
                </g>
                <g transform="matrix(11,0,0,11,413.844,244.957)">
                    <path d="M0.036,-0.024C0.072,-0.004 0.125,0.01 0.184,0.01C0.313,0.01 0.382,-0.054 0.382,-0.143C0.381,-0.215 0.341,-0.26 0.252,-0.291C0.19,-0.314 0.167,-0.328 0.167,-0.359C0.167,-0.389 0.191,-0.411 0.235,-0.411C0.278,-0.411 0.318,-0.395 0.338,-0.383L0.363,-0.469C0.334,-0.485 0.287,-0.498 0.233,-0.498C0.12,-0.498 0.049,-0.432 0.049,-0.346C0.049,-0.288 0.088,-0.236 0.183,-0.204C0.243,-0.182 0.263,-0.166 0.263,-0.133C0.263,-0.101 0.239,-0.078 0.185,-0.078C0.141,-0.078 0.088,-0.097 0.061,-0.114L0.036,-0.024Z" style="fill:white;fill-rule:nonzero;"/>
                </g>
            </g>
            <g transform="matrix(4.16667,0,0,4.16667,0,0)">
                <g transform="matrix(11,0,0,11,160.998,265.054)">
                    <path d="M0.236,-0L0.355,-0L0.355,-0.65L0.253,-0.65L0.094,-0.572L0.115,-0.479L0.234,-0.539L0.236,-0.539L0.236,-0Z" style="fill:white;fill-rule:nonzero;"/>
                </g>
                <g transform="matrix(11,0,0,11,169.171,265.054)">
                    <path d="M0.066,-0L0.186,-0L0.186,-0.288C0.186,-0.302 0.188,-0.316 0.192,-0.329C0.204,-0.362 0.235,-0.398 0.281,-0.398C0.338,-0.398 0.365,-0.35 0.365,-0.282L0.365,-0L0.485,-0L0.485,-0.292C0.485,-0.306 0.487,-0.322 0.491,-0.333C0.504,-0.368 0.535,-0.398 0.577,-0.398C0.636,-0.398 0.664,-0.35 0.664,-0.269L0.664,-0L0.784,-0L0.784,-0.287C0.784,-0.443 0.702,-0.498 0.622,-0.498C0.581,-0.498 0.55,-0.488 0.522,-0.469C0.5,-0.455 0.48,-0.435 0.463,-0.408L0.461,-0.408C0.44,-0.462 0.39,-0.498 0.326,-0.498C0.243,-0.498 0.199,-0.453 0.176,-0.415L0.173,-0.415L0.167,-0.487L0.062,-0.487C0.064,-0.445 0.066,-0.398 0.066,-0.342L0.066,-0Z" style="fill:white;fill-rule:nonzero;"/>
                </g>
                <g transform="matrix(11,0,0,11,178.499,265.054)">
                    <path d="M0.479,-0.209C0.481,-0.22 0.483,-0.238 0.483,-0.261C0.483,-0.368 0.431,-0.498 0.273,-0.498C0.117,-0.498 0.035,-0.371 0.035,-0.236C0.035,-0.087 0.128,0.01 0.286,0.01C0.356,0.01 0.414,-0.003 0.456,-0.021L0.438,-0.105C0.4,-0.092 0.36,-0.083 0.303,-0.083C0.224,-0.083 0.156,-0.121 0.153,-0.209L0.479,-0.209ZM0.153,-0.295C0.158,-0.345 0.19,-0.414 0.266,-0.414C0.348,-0.414 0.368,-0.34 0.367,-0.295L0.153,-0.295Z" style="fill:white;fill-rule:nonzero;"/>
                </g>
                <g transform="matrix(11,0,0,11,184.175,265.054)">
                    <path d="M0.036,-0.024C0.072,-0.004 0.125,0.01 0.184,0.01C0.313,0.01 0.382,-0.054 0.382,-0.143C0.381,-0.215 0.341,-0.26 0.252,-0.291C0.19,-0.314 0.167,-0.328 0.167,-0.359C0.167,-0.389 0.191,-0.411 0.235,-0.411C0.278,-0.411 0.318,-0.395 0.338,-0.383L0.363,-0.469C0.334,-0.485 0.287,-0.498 0.233,-0.498C0.12,-0.498 0.049,-0.432 0.049,-0.346C0.049,-0.288 0.088,-0.236 0.183,-0.204C0.243,-0.182 0.263,-0.166 0.263,-0.133C0.263,-0.101 0.239,-0.078 0.185,-0.078C0.141,-0.078 0.088,-0.097 0.061,-0.114L0.036,-0.024Z" style="fill:white;fill-rule:nonzero;"/>
                </g>
            </g>
            <g transform="matrix(4.16667,0,0,4.16667,0,0)">
                <g transform="matrix(11,0,0,11,210.157,265.054)">
                    <path d="M0.556,-0.33L0.556,-0.408L0.04,-0.408L0.04,-0.33L0.556,-0.33ZM0.556,-0.128L0.556,-0.206L0.04,-0.206L0.04,-0.128L0.556,-0.128Z" style="fill:white;fill-rule:nonzero;"/>
                </g>
                <g transform="matrix(11,0,0,11,226.194,265.054)">
                    <path d="M0.04,-0.034C0.075,-0.011 0.143,0.011 0.222,0.011C0.383,0.011 0.475,-0.076 0.475,-0.186C0.474,-0.274 0.411,-0.333 0.332,-0.348L0.332,-0.35C0.412,-0.378 0.452,-0.434 0.452,-0.502C0.452,-0.587 0.384,-0.661 0.249,-0.661C0.172,-0.661 0.099,-0.636 0.062,-0.611L0.09,-0.522C0.117,-0.54 0.17,-0.563 0.223,-0.563C0.295,-0.563 0.327,-0.526 0.327,-0.481C0.327,-0.417 0.255,-0.391 0.199,-0.391L0.143,-0.391L0.143,-0.301L0.199,-0.301C0.274,-0.301 0.347,-0.268 0.347,-0.191C0.347,-0.14 0.31,-0.087 0.216,-0.087C0.154,-0.087 0.093,-0.112 0.068,-0.127L0.04,-0.034Z" style="fill:white;fill-rule:nonzero;"/>
                </g>
                <g transform="matrix(11,0,0,11,232.09,265.054)">
                    <path d="M0.272,-0.661C0.12,-0.661 0.034,-0.526 0.034,-0.323C0.035,-0.125 0.115,0.011 0.264,0.011C0.42,0.011 0.502,-0.12 0.502,-0.33C0.502,-0.521 0.429,-0.661 0.272,-0.661ZM0.269,-0.567C0.343,-0.567 0.378,-0.478 0.378,-0.327C0.378,-0.171 0.341,-0.083 0.268,-0.083C0.201,-0.083 0.158,-0.165 0.158,-0.324C0.158,-0.486 0.204,-0.567 0.269,-0.567Z" style="fill:white;fill-rule:nonzero;"/>
                </g>
                <g transform="matrix(11,0,0,11,240.263,265.054)">
                    <path d="M0.392,-0.71L0.392,-0.435L0.39,-0.435C0.368,-0.471 0.32,-0.498 0.253,-0.498C0.136,-0.498 0.034,-0.401 0.035,-0.238C0.035,-0.088 0.127,0.011 0.244,0.011C0.314,0.011 0.373,-0.023 0.402,-0.077L0.404,-0.077L0.41,-0L0.519,-0C0.517,-0.033 0.515,-0.087 0.515,-0.137L0.515,-0.71L0.392,-0.71ZM0.392,-0.211C0.392,-0.198 0.391,-0.186 0.388,-0.175C0.376,-0.122 0.332,-0.088 0.282,-0.088C0.204,-0.088 0.16,-0.153 0.16,-0.243C0.16,-0.333 0.204,-0.403 0.283,-0.403C0.339,-0.403 0.378,-0.364 0.389,-0.317C0.391,-0.307 0.392,-0.294 0.392,-0.284L0.392,-0.211Z" style="fill:white;fill-rule:nonzero;"/>
                </g>
                <g transform="matrix(11,0,0,11,246.654,265.054)">
                    <path d="M0.189,-0L0.189,-0.487L0.066,-0.487L0.066,-0L0.189,-0ZM0.157,-0.698L0.071,-0.55L0.156,-0.55L0.278,-0.698L0.157,-0.698Z" style="fill:white;fill-rule:nonzero;"/>
                </g>
                <g transform="matrix(11,0,0,11,249.47,265.054)">
                    <path d="M0.444,-0.292C0.444,-0.399 0.399,-0.498 0.243,-0.498C0.166,-0.498 0.103,-0.477 0.067,-0.455L0.091,-0.375C0.124,-0.396 0.174,-0.411 0.222,-0.411C0.308,-0.411 0.321,-0.358 0.321,-0.326L0.321,-0.318C0.141,-0.319 0.032,-0.256 0.032,-0.134C0.032,-0.06 0.087,0.011 0.185,0.011C0.249,0.011 0.3,-0.016 0.329,-0.054L0.332,-0.054L0.341,-0L0.452,-0C0.446,-0.03 0.444,-0.073 0.444,-0.117L0.444,-0.292ZM0.324,-0.171C0.324,-0.162 0.324,-0.153 0.321,-0.144C0.309,-0.109 0.274,-0.077 0.224,-0.077C0.185,-0.077 0.154,-0.099 0.154,-0.147C0.154,-0.221 0.237,-0.239 0.324,-0.238L0.324,-0.171Z" style="fill:white;fill-rule:nonzero;"/>
                </g>
                <g transform="matrix(11,0,0,11,255.058,265.054)">
                    <path d="M0.036,-0.024C0.072,-0.004 0.125,0.01 0.184,0.01C0.313,0.01 0.382,-0.054 0.382,-0.143C0.381,-0.215 0.341,-0.26 0.252,-0.291C0.19,-0.314 0.167,-0.328 0.167,-0.359C0.167,-0.389 0.191,-0.411 0.235,-0.411C0.278,-0.411 0.318,-0.395 0.338,-0.383L0.363,-0.469C0.334,-0.485 0.287,-0.498 0.233,-0.498C0.12,-0.498 0.049,-0.432 0.049,-0.346C0.049,-0.288 0.088,-0.236 0.183,-0.204C0.243,-0.182 0.263,-0.166 0.263,-0.133C0.263,-0.101 0.239,-0.078 0.185,-0.078C0.141,-0.078 0.088,-0.097 0.061,-0.114L0.036,-0.024Z" style="fill:white;fill-rule:nonzero;"/>
                </g>
            </g>
            <g transform="matrix(4.16667,0,0,4.16667,0,0)">
                <g transform="matrix(11,0,0,11,310.598,265.054)">
                    <path d="M0.236,-0L0.355,-0L0.355,-0.65L0.253,-0.65L0.094,-0.572L0.115,-0.479L0.234,-0.539L0.236,-0.539L0.236,-0Z" style="fill:white;fill-rule:nonzero;"/>
                </g>
                <g transform="matrix(11,0,0,11,318.771,265.054)">
                    <path d="M0.066,-0L0.186,-0L0.186,-0.288C0.186,-0.302 0.188,-0.316 0.192,-0.329C0.204,-0.362 0.235,-0.398 0.281,-0.398C0.338,-0.398 0.365,-0.35 0.365,-0.282L0.365,-0L0.485,-0L0.485,-0.292C0.485,-0.306 0.487,-0.322 0.491,-0.333C0.504,-0.368 0.535,-0.398 0.577,-0.398C0.636,-0.398 0.664,-0.35 0.664,-0.269L0.664,-0L0.784,-0L0.784,-0.287C0.784,-0.443 0.702,-0.498 0.622,-0.498C0.581,-0.498 0.55,-0.488 0.522,-0.469C0.5,-0.455 0.48,-0.435 0.463,-0.408L0.461,-0.408C0.44,-0.462 0.39,-0.498 0.326,-0.498C0.243,-0.498 0.199,-0.453 0.176,-0.415L0.173,-0.415L0.167,-0.487L0.062,-0.487C0.064,-0.445 0.066,-0.398 0.066,-0.342L0.066,-0Z" style="fill:white;fill-rule:nonzero;"/>
                </g>
                <g transform="matrix(11,0,0,11,328.099,265.054)">
                    <path d="M0.189,-0L0.189,-0.487L0.066,-0.487L0.066,-0L0.189,-0ZM0.128,-0.69C0.087,-0.69 0.059,-0.661 0.059,-0.623C0.059,-0.587 0.086,-0.557 0.127,-0.557C0.17,-0.557 0.197,-0.587 0.197,-0.623C0.196,-0.661 0.17,-0.69 0.128,-0.69Z" style="fill:white;fill-rule:nonzero;"/>
                </g>
                <g transform="matrix(11,0,0,11,330.915,265.054)">
                    <rect x="0.066" y="-0.71" width="0.123" height="0.71" style="fill:white;fill-rule:nonzero;"/>
                </g>
                <g transform="matrix(11,0,0,11,333.742,265.054)">
                    <path d="M0.479,-0.209C0.481,-0.22 0.483,-0.238 0.483,-0.261C0.483,-0.368 0.431,-0.498 0.273,-0.498C0.117,-0.498 0.035,-0.371 0.035,-0.236C0.035,-0.087 0.128,0.01 0.286,0.01C0.356,0.01 0.414,-0.003 0.456,-0.021L0.438,-0.105C0.4,-0.092 0.36,-0.083 0.303,-0.083C0.224,-0.083 0.156,-0.121 0.153,-0.209L0.479,-0.209ZM0.153,-0.295C0.158,-0.345 0.19,-0.414 0.266,-0.414C0.348,-0.414 0.368,-0.34 0.367,-0.295L0.153,-0.295Z" style="fill:white;fill-rule:nonzero;"/>
                </g>
                <g transform="matrix(11,0,0,11,339.418,265.054)">
                    <path d="M0.066,-0L0.189,-0L0.189,-0.287C0.189,-0.301 0.191,-0.316 0.195,-0.326C0.208,-0.363 0.242,-0.398 0.291,-0.398C0.358,-0.398 0.384,-0.345 0.384,-0.275L0.384,-0L0.507,-0L0.507,-0.289C0.507,-0.443 0.419,-0.498 0.334,-0.498C0.253,-0.498 0.2,-0.452 0.178,-0.414L0.175,-0.414L0.169,-0.487L0.062,-0.487C0.064,-0.445 0.066,-0.398 0.066,-0.342L0.066,-0Z" style="fill:white;fill-rule:nonzero;"/>
                </g>
                <g transform="matrix(11,0,0,11,345.71,265.054)">
                    <path d="M0.189,-0L0.189,-0.487L0.066,-0.487L0.066,-0L0.189,-0ZM0.128,-0.69C0.087,-0.69 0.059,-0.661 0.059,-0.623C0.059,-0.587 0.086,-0.557 0.127,-0.557C0.17,-0.557 0.197,-0.587 0.197,-0.623C0.196,-0.661 0.17,-0.69 0.128,-0.69Z" style="fill:white;fill-rule:nonzero;"/>
                </g>
                <g transform="matrix(11,0,0,11,348.526,265.054)">
                    <path d="M0.287,-0.498C0.14,-0.498 0.035,-0.4 0.035,-0.24C0.035,-0.083 0.142,0.011 0.279,0.011C0.403,0.011 0.529,-0.069 0.529,-0.248C0.529,-0.396 0.432,-0.498 0.287,-0.498ZM0.284,-0.409C0.368,-0.409 0.402,-0.321 0.402,-0.245C0.402,-0.146 0.353,-0.078 0.283,-0.078C0.209,-0.078 0.162,-0.149 0.162,-0.243C0.162,-0.324 0.197,-0.409 0.284,-0.409Z" style="fill:white;fill-rule:nonzero;"/>
                </g>
                <g transform="matrix(11,0,0,11,359.758,265.054)">
                    <path d="M0.556,-0.33L0.556,-0.408L0.04,-0.408L0.04,-0.33L0.556,-0.33ZM0.556,-0.128L0.556,-0.206L0.04,-0.206L0.04,-0.128L0.556,-0.128Z" style="fill:white;fill-rule:nonzero;"/>
                </g>
                <g transform="matrix(11,0,0,11,375.795,265.054)">
                    <path d="M0.236,-0L0.355,-0L0.355,-0.65L0.253,-0.65L0.094,-0.572L0.115,-0.479L0.234,-0.539L0.236,-0.539L0.236,-0Z" style="fill:white;fill-rule:nonzero;"/>
                </g>
                <g transform="matrix(11,0,0,11,383.968,265.054)">
                    <path d="M0.272,-0.661C0.12,-0.661 0.034,-0.526 0.034,-0.323C0.035,-0.125 0.115,0.011 0.264,0.011C0.42,0.011 0.502,-0.12 0.502,-0.33C0.502,-0.521 0.429,-0.661 0.272,-0.661ZM0.269,-0.567C0.343,-0.567 0.378,-0.478 0.378,-0.327C0.378,-0.171 0.341,-0.083 0.268,-0.083C0.201,-0.083 0.158,-0.165 0.158,-0.324C0.158,-0.486 0.204,-0.567 0.269,-0.567Z" style="fill:white;fill-rule:nonzero;"/>
                </g>
                <g transform="matrix(11,0,0,11,389.864,265.054)">
                    <path d="M0.272,-0.661C0.12,-0.661 0.034,-0.526 0.034,-0.323C0.035,-0.125 0.115,0.011 0.264,0.011C0.42,0.011 0.502,-0.12 0.502,-0.33C0.502,-0.521 0.429,-0.661 0.272,-0.661ZM0.269,-0.567C0.343,-0.567 0.378,-0.478 0.378,-0.327C0.378,-0.171 0.341,-0.083 0.268,-0.083C0.201,-0.083 0.158,-0.165 0.158,-0.324C0.158,-0.486 0.204,-0.567 0.269,-0.567Z" style="fill:white;fill-rule:nonzero;"/>
                </g>
                <g transform="matrix(11,0,0,11,395.76,265.054)">
                    <path d="M0.272,-0.661C0.12,-0.661 0.034,-0.526 0.034,-0.323C0.035,-0.125 0.115,0.011 0.264,0.011C0.42,0.011 0.502,-0.12 0.502,-0.33C0.502,-0.521 0.429,-0.661 0.272,-0.661ZM0.269,-0.567C0.343,-0.567 0.378,-0.478 0.378,-0.327C0.378,-0.171 0.341,-0.083 0.268,-0.083C0.201,-0.083 0.158,-0.165 0.158,-0.324C0.158,-0.486 0.204,-0.567 0.269,-0.567Z" style="fill:white;fill-rule:nonzero;"/>
                </g>
                <g transform="matrix(11,0,0,11,403.933,265.054)">
                    <path d="M0.444,-0.292C0.444,-0.399 0.399,-0.498 0.243,-0.498C0.166,-0.498 0.103,-0.477 0.067,-0.455L0.091,-0.375C0.124,-0.396 0.174,-0.411 0.222,-0.411C0.308,-0.411 0.321,-0.358 0.321,-0.326L0.321,-0.318C0.141,-0.319 0.032,-0.256 0.032,-0.134C0.032,-0.06 0.087,0.011 0.185,0.011C0.249,0.011 0.3,-0.016 0.329,-0.054L0.332,-0.054L0.341,-0L0.452,-0C0.446,-0.03 0.444,-0.073 0.444,-0.117L0.444,-0.292ZM0.324,-0.171C0.324,-0.162 0.324,-0.153 0.321,-0.144C0.309,-0.109 0.274,-0.077 0.224,-0.077C0.185,-0.077 0.154,-0.099 0.154,-0.147C0.154,-0.221 0.237,-0.239 0.324,-0.238L0.324,-0.171Z" style="fill:white;fill-rule:nonzero;"/>
                </g>
                <g transform="matrix(11,0,0,11,409.521,265.054)">
                    <path d="M0.066,-0L0.189,-0L0.189,-0.287C0.189,-0.301 0.191,-0.316 0.195,-0.326C0.208,-0.363 0.242,-0.398 0.291,-0.398C0.358,-0.398 0.384,-0.345 0.384,-0.275L0.384,-0L0.507,-0L0.507,-0.289C0.507,-0.443 0.419,-0.498 0.334,-0.498C0.253,-0.498 0.2,-0.452 0.178,-0.414L0.175,-0.414L0.169,-0.487L0.062,-0.487C0.064,-0.445 0.066,-0.398 0.066,-0.342L0.066,-0ZM0.214,-0.562C0.216,-0.591 0.224,-0.607 0.239,-0.607C0.252,-0.607 0.261,-0.601 0.28,-0.59C0.3,-0.579 0.32,-0.569 0.345,-0.569C0.395,-0.569 0.423,-0.605 0.421,-0.685L0.361,-0.685C0.359,-0.651 0.35,-0.642 0.334,-0.642C0.322,-0.642 0.308,-0.651 0.292,-0.66C0.271,-0.671 0.252,-0.681 0.229,-0.681C0.181,-0.681 0.15,-0.638 0.153,-0.562L0.214,-0.562Z" style="fill:white;fill-rule:nonzero;"/>
                </g>
                <g transform="matrix(11,0,0,11,415.813,265.054)">
                    <path d="M0.287,-0.498C0.14,-0.498 0.035,-0.4 0.035,-0.24C0.035,-0.083 0.142,0.011 0.279,0.011C0.403,0.011 0.529,-0.069 0.529,-0.248C0.529,-0.396 0.432,-0.498 0.287,-0.498ZM0.284,-0.409C0.368,-0.409 0.402,-0.321 0.402,-0.245C0.402,-0.146 0.353,-0.078 0.283,-0.078C0.209,-0.078 0.162,-0.149 0.162,-0.243C0.162,-0.324 0.197,-0.409 0.284,-0.409Z" style="fill:white;fill-rule:nonzero;"/>
                </g>
                <g transform="matrix(11,0,0,11,422.017,265.054)">
                    <path d="M0.036,-0.024C0.072,-0.004 0.125,0.01 0.184,0.01C0.313,0.01 0.382,-0.054 0.382,-0.143C0.381,-0.215 0.341,-0.26 0.252,-0.291C0.19,-0.314 0.167,-0.328 0.167,-0.359C0.167,-0.389 0.191,-0.411 0.235,-0.411C0.278,-0.411 0.318,-0.395 0.338,-0.383L0.363,-0.469C0.334,-0.485 0.287,-0.498 0.233,-0.498C0.12,-0.498 0.049,-0.432 0.049,-0.346C0.049,-0.288 0.088,-0.236 0.183,-0.204C0.243,-0.182 0.263,-0.166 0.263,-0.133C0.263,-0.101 0.239,-0.078 0.185,-0.078C0.141,-0.078 0.088,-0.097 0.061,-0.114L0.036,-0.024Z" style="fill:white;fill-rule:nonzero;"/>
                </g>
            </g>
        </g>
    </g>
</svg>
