<svg clip-rule="evenodd" fill-rule="evenodd" stroke-miterlimit="10" viewBox="0 0 163 161" xmlns="http://www.w3.org/2000/svg"><path d="m10.417 11.052h141.488v138.976h-141.488z" fill="#c0a7d0" stroke="#fff" stroke-width="2"/><g fill-rule="nonzero"><path d="m37.874 58.893c.779-.434 1.583-.74 1.704-1.695-.759-.462-1.375-.201-1.874.309-.409.418-.529.913.17 1.386m-1.321 3.618c.12-.945.239-1.889.355-2.812-.937-.34-1.294.211-1.59.742-.633 1.138.76 1.383 1.235 2.07m84.46-5.704h1.438c.373-.757.242-1.459-.329-1.864-.674-.477-1.492-.246-2.389.105.466.64.874 1.201 1.28 1.759m3.449 3.59c.245-1.848-.415-2.695-2.77-2.132.024.428.05.879.077 1.363.474.081.923.119 1.344.241.447.128.867.336 1.349.528m-91 32.777c-.353-.299-.6-.526-.866-.729-.716-.548-1.53-.562-2.29-.054-.647.432-.665.954.034 1.282.601.283 1.273.429 2.128.704.127-.179.282-.42.462-.643.147-.182.323-.343.532-.56m1.938-29.829c-.702 1.288-.221 2.158 1.183 2.374 1.567.24 2.478-.051 3.738-1.104-.656-.039-1.506.034-2.274-.17-.922-.245-1.774-.726-2.647-1.1m83.562-.793c2.031-.835 3.919-.077 6.033.296-.274-.496-.378-.882-.637-1.116-1.16-1.052-3.425-1.299-4.905-.638-.673.301-.881.692-.491 1.458m-71.95 48.113c1.465.873 2.768.991 3.608.216.984-.907.777-1.999.304-3.112-2.219-.143-2.867 1.543-3.912 2.896m-6.345-44.8c-.141.024-.303.013-.419.077-1.32.726-2.683 1.162-4.246.784-.264-.063-.803.098-.876.278-.145.355-.184.848-.033 1.192.38.862 1.492 1.371 2.484 1.156.618-.134 1.225-.377 1.788-.658 1.521-.757 1.677-1.135 1.302-2.829m3.622 59.837c.383.028.562.043.742.056 1.635.114 3.178.932 4.885.567.128-.028.433.167.458.292.207 1.068 1.284.994 1.833 1.386 1.038-.487 1.948-.914 2.861-1.343-.039-.899-.592-1.383-1.479-1.701-1.093-.392-2.194-.557-3.354-.475-1.973.14-3.943.287-5.946 1.218m54.468-18.029c-2.088-1.412-3.229-3.28-3.606-5.794-.725 3.014-3.138 4.206-5.788 5.408 3.269.406 6.27.718 9.394.386m-64.548 15.341c0-.744.008-1.494-.002-2.243-.009-.561-.296-.825-.923-.872-1.319-.1-2.632-.266-4.055-.417 0 1.535-.037 3.082.016 4.627.026.804.38.935 1.179.578 1.209-.54 2.424-1.072 3.785-1.673m39.342-52.745c-1.695 1.467-2.091 3.426-1.214 5.246.219.456.571.889.962 1.232 2.218 1.941 7.043 1.717 9.073-.371 1.157-1.189 1.778-2.588 1.53-4.245-.094-.632-.382-1.115-1.013-1.302-.275.965-.5 1.879-.806 2.768-.116.339-.353.699-.646.916-1.431 1.059-3.12 1.351-4.806.892-1.314-.357-2.373-1.153-2.484-2.682-.055-.766-.359-1.516-.596-2.454m-9.534 17.151c.732-3.631 2.184-7.032 2.761-10.632-1.916-.374-3.671-.695-5.415-1.063-.83-.176-1.742-.397-1.876-1.362-.149-1.077-.929-1.483-1.837-1.818-3.663-1.352-7.331-2.694-10.992-4.052-.909-.338-1.716-.428-2.606.18-.622.425-1.454.576-2.298.889 2.451.381 4.591 1.144 6.651 2.102 1.382.642 2.734 1.077 4.249.413.306-.134.682-.122 1.022-.193.944-.196 1.665.15 2.22.837.721.889 1.189 1.861.862 3.017-.297 1.052.091 1.959.696 2.788.47.645.942 1.285 1.396 1.941 1.606 2.316 3.357 4.542 5.167 6.953m-30.953 49.119c.116-.813.091-1.378.284-1.867.645-1.637 1.651-3.085 2.866-4.398 1.008-1.09 2.047-2.154 3.108-3.267-.098-.297-.207-.65-.338-.996-.029-.078-.137-.129-.209-.192-1.836-1.62-4.031-1.969-6.335-1.02-1.33.548-2.454 1.44-3.703 2.071-2.743 1.385-4.482 3.48-5.793 6.003.795 1.314 1.67 2.436 3.287 2.76.876.176 1.754.361 2.64.472 1.421.178 2.85.298 4.193.434m12.23-76.359c-.532-1.631-1.808-2.528-3.506-3.167-.308.234-.795.429-.959.764-.523 1.074-1.591 1.641-2.391 2.45-.88.89-1.036 1.531-.377 2.629.587.978 1.659 1.122 2.438.277.282-.305.406-.74.606-1.113.145-.271.297-.539.484-.877.692.568 1.225 1.11 1.862 1.502.823.509 1.589-.065 2.342-.364.417 1.578-.5 1.871-3.524 1.187-.141.68-.488 1.392-.374 2.031.169.944.141 1.818-.361 2.928.899-.273 1.596-.38 2.172-.689.606-.325 1.096-.843 1.45-1.127.718.435 1.181.802 1.713 1.017.958.39 1.948.716 2.942 1.019 3.092.946 5.97 2.512 9.237 2.907.55-1.541 1.081-3.034 1.666-4.674-2.722-.862-5.459-1.562-8.044-2.597-2.629-1.052-5.439-1.745-7.958-3.213.236-.361.41-.628.582-.89m54.051 11.507c.368-.12.654-.19.919-.303 1.679-.718 3.298-1.617 5.044-2.126 2.485-.724 4.861-1.677 7.123-2.827 1.15-.585 2.021-.467 3.04-.014 1.146.51 2.37.71 3.621.643 1.895-.101 3.526-.955 5.148-1.773.687-.346.685-.998-.001-1.299-1.639-.718-3.323-1.241-5.002-.071-.183.128-.448.384-.41.511.068.231.329.575.519.581.625.018 1.282-.01 1.874-.181.567-.165 1.07-.425 1.664-.067-1.052 1.163-2.612 1.609-3.868 1.143-1.101-.407-1.623-1.123-1.212-2.074.344-.796.066-1.309-.268-1.833-.737.417-1.381.859-2.093 1.161-.725.307-1.354.102-1.692-.457-.097-.16-.074-.44.009-.617.043-.091.352-.133.519-.1 1.15.231 1.524.162 2.047-.687.288-.467.384-1.044.541-1.577.219-.744.524-.868 1.307-.614.499.162 1.041.324 1.554.302.584-.026.889-.523.672-1.029-.427-.997-.855-1.989-1.8-2.711-1.609-1.227-3.942-.691-4.62 1.126-.23.618-.451 1.25-.561 1.892-.158.922-.648 1.551-1.541 1.924-1.457.608-2.888 1.28-4.374 1.813-2.084.747-3.874 1.796-5.249 3.507-.584.726-1.429 1.319-2.269 1.794-.692.39-1.551.516-2.33.758.569 1.079 1.118 2.122 1.689 3.205m-14.461 36.79c-.681 4.416-.051 8.471.595 12.564 1.885.149 3.642.518 5.35.373 2.809-.239 5.582.256 8.373.089.146-.009.297.028.444.053 1.396.235 1.64.106 1.887-1.203.27-1.43.397-2.888.73-4.305.505-2.146-.089-4.102-.999-6.009-.182-.382-.639-.845-1.032-.906-1.265-.194-2.559-.227-3.843-.304-.996-.06-1.993-.106-2.99-.134-2.781-.078-5.564-.143-8.515-.218m-24.995 22.108c.102.132.204.263.306.395-1.045 1.238-2.336 2.159-4.086 2.392-.261.036-.646-.201-.85-.416-1.062-1.119-2.021-2.329-3.137-3.394-1.089-1.037-2.342-1.922-3.916-2.238-1.074-.215-2.155-.413-3.243-.546-1.401-.171-2.786-.156-4.04.621-1.506.935-2.787 2.073-3.925 3.404-1.049 1.227-1.807 2.585-2.51 3.986-.242.483-.356 1.054.136 1.433.691.531 1.434 1.021 2.213 1.427 1.833.953 3.937.975 5.923 1.367 1.858.366 3.78.283 5.618-.257 1.037-.305 2.037-.734 3.035-1.149 3.294-1.368 6.536-2.835 9.151-5.239.817-.751 1.565-1.6 2.182-2.502.797-1.167.086-2.442-1.34-2.666-2.234-.351-4.374.101-6.49.673-.581.158-1.091.544-1.671.844.773.959 1.435 1.776 2.092 2.596.93 1.163 1.211 1.204 2.577.398.652-.385 1.316-.753 1.975-1.129m11.326 11.885c-.22-1.393.669-2.083 1.816-2.613.369-.171.766-.427 1.003.075.193.41-.202.515-.537.665-.339.151-.655.393-.911.655-.402.412-.58.949-.192 1.416.423.509 1.101.672 1.759.574.636-.094.558-.601.607-1.097.114-1.156.695-1.478 1.964-1.171-.099.213-.151.444-.29.611-.657.791-.709 1.288-.165 1.976.479.604 1.342.736 2.157.349.619-.294 1.01-.748 1.184-1.378.317-1.147.978-1.9 2.204-2.438 1.603-.703 3.192-1.551 4.01-3.232.426-.875.528-1.675.143-2.568-.337-.78-.67-1.575-.869-2.393-.278-1.138-.891-2.062-1.693-2.958-.678.043-1.325.066-1.968.128-2.334.226-4.673.421-6.959-.259-.774-.23-1.35-.03-1.931.399-.825.609-1.716 1.146-2.487 1.808-1.62 1.39-3.335 2.707-4.515 4.488-.665 1.003-.64.995-1.861.719-1.61-.364-3.164-.339-4.533.71-.803.616-.933 1.242-.223 1.898 1.028.951 2.257 1.5 3.71 1.275 1.32-2.238 2.585-2.772 4.181-1.626-.431.176-.752.402-1.091.428-1.129.086-1.665.701-1.908 1.631 1.204 1.303 1.767 1.397 3.352.599.219-1.562.762-2.502 1.707-2.753.57-.151 1.155-.088 1.605.554-1.221.601-2.727 1.016-2.022 2.724.361.873 1.21 1.123 2.753.804m-27.878-50.458c.371-.417.602-.71.87-.969.627-.607 1.324-1.156 1.895-1.806.656-.745.412-2.46-.46-2.885-1.209-.589-2.522-.94-3.883-.381-1.447.593-1.909 1.7-1.396 3.228.073.217.158.471.101.675-.054.195-.259.443-.447.489-.169.04-.506-.114-.589-.267-.198-.369-.293-.787-.424-1.187-.357-1.095-1.16-1.534-2.3-1.252-.77.189-1.03.719-.627 1.387.244.406.633.739.841 1.157.084.167-.084.529-.255.693-.101.098-.505.061-.646-.054-.255-.209-.43-.512-.611-.792-.361-.555-.899-.585-1.441-.376-.62.239-1.112.629-1.099 1.38.536.421 1.069.838 1.601 1.257 2.634-1.372 2.768-1.41 3.85-.992-1.119.605-2.244 1.079-3.195 1.765-.976.705-1.782 1.618-2.656 2.433-.516-.095-1-.216-1.491-.265-.713-.072-1.405.024-1.971.489-.379.312-.79.66-.494 1.195.303.546.862.64 1.427.452.562-.186 1.082-.481 1.635-.692.251-.096.539-.106.963-.182-.08.482-.136.822-.223 1.349.957.734 1.956 1.589 3.051 2.315.879.582 1.417 1.317 1.624 2.273.138.636.166 1.294.278 1.937.261 1.494.348 3.03 1.141 4.402.821 1.418 2.077 2.204 3.793 2.354 2.092.182 3.611-.78 4.69-2.298.581-.818 1.112-1.511 2.145-1.819.595-.178 1.138-.514 1.768-.808-.862-2.761-1.448-5.583-3.611-7.821-1.097 2.372-1.097 2.372-2.197 2.643 1.192-3.264 1.819-6.421-1.657-9.027m25.289 15.508c-1.751.256-3.31.326-4.765.728-3.534.98-7.022 2.106-10.522 3.192-.907.282-1.678 1.071-2.769.625-1.647.536-3.116.112-4.498-.812-1.869 1.178-3.825 1.37-5.869.594-2.175-.827-2.933-2.684-3.601-4.561-.819.288-1.545.589-2.302.792-.405.108-.869.101-1.295.052-2.024-.234-3.467-1.1-3.746-3.176-.006-.046-.024-.091-.04-.135-.448-1.239-1.172-1.423-2.191-.514-.273.243-.539.593-.6.928-.202 1.104-.458 2.229-.42 3.338.068 2.014.295 4.027.528 6.033.113.972.33 2.046 1.178 2.637 1.238.861 2.654 1.608 4.235 1.634 3.031.05 6.011.743 9.084.43 1.657-.169 3.372.201 5.063.272 1.643.069 3.289.052 4.934.097 5.186.142 10.373.297 15.559.44.285.008.572-.038.996-.07-.074-4.189-.057-8.303 1.041-12.524m3.81-37.726c-.371-.132-.594-.215-.82-.292-2.48-.844-4.989-1.624-7.433-2.553-1.726-.657-1.687-.747-2.547.769-.047.083-.109.159-.149.245-.719 1.547-1.488 3.073-1.312 4.847.077.778.343 1.34 1.163 1.62 1.879.64 3.808 1.007 5.878 1.109.146-.452.27-.848.403-1.241.166-.488.29-.998.536-1.448.091-.166.477-.189.729-.277.072.202.178.401.204.607.015.124-.119.257-.149.393-.182.828-.904 1.595-.288 2.524.071.107-.115.493-.284.589-.604.342-.645.916-.79 1.455-.452 1.681-.913 3.359-1.347 5.044-.362 1.412-.706 2.828-1.028 4.248-.286 1.261-.523 2.533-.797 3.796-.227 1.046.081 1.866 1.11 2.372 2.122 1.044 4.281 2.009 6.663 2.412 3.41.576 6.85.747 10.304.539 2.636-.159 5.303-.236 7.723-1.423.779-.382 1.509-.855 2.363-1.344-.819-5.038-1.644-10.114-2.468-15.188-.515-.037-1.086.206-1.169-.451-.071-.568.407-.685.848-.799.144-.038.306-.02.444-.069 2.377-.831 4.772-1.625 7.12-2.523 1.305-.5 1.493-.961.958-2.22-.535-1.26-1.206-2.471-1.867-3.679-.143-.263-.467-.556-.755-.611-1.29-.247-2.225-.973-3.099-2.002-2.816 2.236-6.403 2.286-9.743 3.314 1.144.409 1.951 1.065 2.178 2.096.576 2.607-.568 5.348-3.3 6.615-2.108.977-4.287 1.095-6.563.62-1.687-.352-3.007-1.285-3.639-2.657-.988-2.144-1.165-4.388.923-6.437m-3.967 36.81c.737-1.513 1.106-2.917 1.993-3.912.895-1.005 2.242-1.708 3.498-2.359 2.827-1.463 2.899-1.427 4.04-.91-.507.271-.915.515-1.346.714-1.03.476-2.085.902-3.103 1.398-2.269 1.102-3.449 2.909-3.751 5.268-.041.324-.145.64-.198.963-.335 1.995-.852 3.983-.952 5.989-.164 3.296-.02 6.604-.083 9.906-.028 1.424.622 2.361 1.951 2.871 1.986.764 4.047 1.357 6.191 1.49 1.79.113 3.599.048 5.395-.025 1.374-.055 2.669-.375 3.445-1.748-1.46-4.46-1.781-9.147-2.072-13.838-.083-1.353.209-2.722-.27-4.064-.151-.422.122-.935.637-.962 1.161-.062 1.225-.739 1.18-1.564-.017-.315.058-.634.091-.961 1.484-.235.822 1.024 1.391 1.589.47 0 1.098.127 1.638-.025 1.534-.43 2.961-1.1 4.153-2.141.776-.678 1.431-1.415 1.76-2.411.79-2.392-.051-4.41-1.432-6.346-6.169 2.982-20.588 3.479-28.668-1.354-.43.16-.953.255-1.337.525-.409.287-.685.74-1.072 1.182-1.268-.337-2.571-.611-3.92-.331-.582.121-1.169.224-1.759.299-1.533.193-3.072.345-4.602.556-1.213.167-2.364.525-3.385 1.103 2.793 4.082 4.284 8.424 4.28 13.146 5.552-1.405 10.747-3.698 16.307-4.048m-36.818-15.538c.348-1.323 1.258-2.051 2.444-2.558.284-.121.638-.309.744-.551.542-1.228 1.526-1.533 2.8-1.308.529.094 1.05.228 1.636.358.483-1.298 1.625-2.016 2.985-2.213.943-.136 1.968.128 2.938.304 1.116.201 1.8.883 2.195 1.902.54 1.395.051 2.475-.986 3.445-.485.452-.956.917-1.531 1.47 1.168 1.331 2.077 2.669 2.169 4.458.58-.086 1.06-.14 1.533-.232.632-.124 1.254-.309 1.89-.413 2.302-.374 4.603-.752 6.913-1.074 1.158-.162 2.333-.208 3.696-.322.143-.152.381-.629.749-.747.943-.303 1.046-1.032 1.229-1.745.14-.544.309-1.095.338-1.648.022-.446-.038-.953-.249-1.342-1.691-3.113-3.649-6.058-6.345-8.505-1.234-1.12-2.172-2.395-2.612-4.113.468.317.817.554 1.312.889.04-.809.122-1.453.092-2.094-.068-1.507-1.193-2.243-2.756-1.846-.24.061-.499.101-.711.213-1.037.553-2.005.34-2.99-.146-.881-.434-1.781-.836-2.693-1.21-1.645-.676-3.303-1.325-5.095-1.592-.241-.036-.566-.081-.687-.236-.39-.5-.897-.398-1.356-.264-1.879.547-3.803.632-5.751.697-3.098.106-5.999.846-8.432 2.796-.212.171-.531.33-.792.32-.891-.036-1.828-.006-2.655-.264-1.501-.47-2.602-.007-3.633.953-.48.447-.592.873-.39 1.511.502 1.585 1.672 2.756 2.601 4.068.278-.367.538-.709.836-1.103.15.22.257.304.245.37-.404 2.306-1.029 4.567-.983 6.951.019 1.001.064 1.974.373 2.897 1.113 3.322 2.663 6.463 4.501 9.488.864 1.421 1.973 2.635 3.338 3.581 1.045.724 1.651 1.549 1.87 2.738.258 1.412 1.489 2.212 2.999 2.177 1.064-.024 1.889-.516 2.703-.946 0-.712-.006-1.361.001-2.01.015-1.581-.588-2.775-2.104-3.634-1.112-.63-2.174-1.423-2.693-2.636-1.726.782-2.798.724-3.417-.155-.719-1.024-.337-1.962 1.39-3.413-1.044-1.727-.471-2.551 2.341-3.266m32.842-49.302c-.381-.145-.734-.29-1.094-.416-1.737-.605-4.782.082-5.6 1.443-1.446 2.408-2.892 4.843-3.314 7.65-.132.877-.294 1.782-.199 2.65.122 1.11.475 2.198.753 3.29.77 3.031 2.658 5.297 5.357 7.041 1.288.832 2.867 1.214 3.965 2.328.095.097.261.138.401.186.928.321 1.854.645 2.788.951 1.69.554 3.369 1.149 5.085 1.625 1.06.295 1.762.807 2.046 1.829.238.862.546 1.706.782 2.568.182.664.627 1.14 1.291 1.233.875.122 1.792.146 2.67.045.769-.089 1.333-.568 1.579-1.331.365-1.127.725-2.241.405-3.443-.066-.244.028-.526.045-.743 2.334-.471 4.584-.88 6.809-1.391 1.58-.363 2.973-1.081 3.991-2.347.154-.192.462-.273.774-.447.227.413.435.729.58 1.07.323.756.931 1.193 1.71 1.476 2.242.814 4.15.202 5.724-1.337 1.733-1.694 1.933-3.322 1.165-5.303-.509-1.314-1.69-1.946-3.095-2.165-.344-.054-.886.058-1.082.287-.68.794-1.248.509-1.771-.11-.435.358-.731.726-1.123.888-.416.171-1.028.335-1.368.166-.648-.319-.834-1.006-.781-1.705.032-.401.074-.801.115-1.244-3.711.751-5.768.009-6.224-1.901.489-.735 1.397-.605 2.127-.76 1.189-.252 2.03-.85 2.655-1.699-.768-.81-1.608-1.462-2.131-2.29-1.529-2.426-2.176-5.144-2.36-7.922-.176-2.675.649-5.2 1.829-7.62.195-.401.368-.811.654-1.445-.55.177-.82.253-1.082.351-2.827 1.055-5.652 2.12-8.482 3.171-1.255.466-1.912.069-1.963-1.194-.014-.32.034-.669.164-.962.351-.795.762-1.568 1.203-2.457-.382.141-.707.226-.996.374-2.589 1.323-5.2 2.612-7.745 4.007-1.504.824-2.873 1.865-4.356 2.726-1.102.639-1.996.184-2.073-1.018-.042-.66.099-1.33.165-2.081-2.154 1.328-4.087 2.736-5.703 4.893.48-.12.685-.125.831-.215 1.302-.805 2.674-.578 4.04-.235.79.198.947.52.839 1.533m17.21-27.022c-.628 1.058-.679 1.475-.172 2.226.318.471.742.883 1.151 1.293.277.278.436.581.107.845-.169.136-.526.134-.779.092-.582-.096-1.148-.348-1.728-.373-4.012-.173-7.827.525-11.461 2.202-2.572 1.187-4.961 2.631-7.238 4.241-2.077 1.47-4.257 1.654-6.62.79-.29-.106-.626-.1-1.07-.165.142 1.309.189 2.483.8 3.53.431.736.947 1.429 1.466 2.115.404.535.571.993-.186 1.378-.527-.159-1.04-.36-1.575-.463-.56-.109-1.14-.123-1.724-.18.073 1.626.673 2.634 1.968 3.382.382.221.839.351 1.163.626.215.183.389.578.333.828-.057.252-.382.549-.659.642-1.643.555-2.479 1.63-2.158 3.185.311 1.511.797 2.996 1.856 4.27.126-.192.241-.346.334-.512 1.354-2.406 2.693-4.819 4.068-7.214.202-.353.533-.84.864-.886.668-.093 1.03-.508 1.519-.814 1.495-.934 3.019-1.826 4.553-2.701.294-.168.683-.186 1.189-.313-.708 1.856-2.625 3.02-2.328 5.007.674.388 1.068-.011 1.468-.245.846-.496 1.635-1.084 2.498-1.549 2.122-1.144 4.261-2.261 6.415-3.348 1.803-.91 3.623-1.79 5.467-2.621.617-.279 1.254-.821 2.026-.386.171.818-.523 1.008-.977 1.318-1.141.783-2.236 1.604-2.851 2.837-.183.367-.272.806-.276 1.213-.004.432.28.694.794.55.286-.079.57-.167.846-.273 3.405-1.306 6.808-2.616 10.312-3.964.612.355.295.826-.07 1.333-1.184 1.641-2.121 3.41-2.587 5.343-.667 2.764-.38 5.495.462 8.213.705 2.272 1.538 4.391 4.256 5.313-.159.428-.181.87-.427 1.092-1.26 1.133-2.668 2.065-4.528 2.348 1.446 1.353 3.438 1.202 6.027.029.395.326.176.633.03.999-.241.603-.44 1.235-.521 1.871-.031.244.252.618.503.766.164.096.585-.038.791-.19.621-.457 1.194-.973 1.663-1.364.548.06.969.172 1.378.139 2.302-.186 3.938.764 5.089 2.577.171.27.325.549.528.894.328-.199.623-.303.804-.501 1.574-1.721 2.906-3.575 3.48-5.83.256-1.007.806-1.221 1.469-.472.523.592 1.121.623 1.742.483 1.675-.379 3.009-1.178 3.524-2.913-.922-.563-1.728-1.208-1.979-2.238-.176-.729-.334-1.472-.387-2.217-.135-1.89.062-3.757.497-5.613.428-1.83.034-3.461-1.556-4.73-.248-.197-.426-.472-.785-.88.637-.253 1.097-.498 1.592-.62.964-.237 1.953-.38 2.919-.612.349-.084.66-.308.962-.456-1.009-2.921-3.368-3.662-6.071-3.771-.34-.986-.276-.966.033-1.813.357-.982.909-1.971.444-3.136-.887.262-1.352.841-1.79 1.481-.171.25-.498.403-.754.601-.233-.277-.603-.524-.679-.836-.608-2.475-1.97-4.373-4.098-6.018-1.93-1.492-3.957-2.309-6.366-2.381-1.795-.054-3.594.056-5.389.015-1.24-.028-2.53-.012-3.701-.332-2.146-.587-4.296-1.276-5.9-3.137m24.927 81.297c1.113 2.259 2.329 4.071 3.645 5.826.847 1.128 1.781 2.166 3.323 2.483.081.016.118.222.173.336-.115.066-.191.131-.281.157-.093.027-.198.025-.297.019-1.243-.08-2.199-.707-2.873-1.606-1.436-1.915-2.831-3.862-4.13-5.862-1.056-1.626-2.252-3.161-3.862-4.266-1.769-1.212-3.719-2.209-5.661-3.172-1.095-.544-2.368-.574-3.76-.55.285 1.301.562 2.483.796 3.672.089.452.267 1.007.079 1.363-.319.6-.005.971.215 1.431.448.94 1.043 1.858 1.257 2.847.198.912.44 1.82.618 2.73.483 2.478 1.811 4.303 4.066 5.633.74.437 1.472 1.054 1.903 1.755 1.038 1.685 1.721 3.574 1.55 5.518-.221 2.52-.547 5.073-1.25 7.503-.591 2.039-1.279 4.087-2.266 6.037-.824 1.629-1.306 3.424-1.824 5.175-.293.989.129 1.503 1.162 1.676.436.073.898.034 1.346.017 2.04-.077 4.08-.163 6.12-.253.477-.021.953-.067 1.459-.103-.111-.62-.266-1.121-.28-1.625-.082-3.091.374-6.101 1.566-9 .556-1.354.984-2.757 1.588-4.091 1.237-2.73 1.204-5.576 1.036-8.448-.056-.964-.517-1.725-1.308-2.287-.755-.538-1.594-.97-2.347-1.509-1.149-.823-2.26-1.694-3.375-2.557-.082-.064-.071-.234-.146-.515.34.094.592.106.77.22 2.023 1.296 4.081 2.55 6.018 3.952.572.414.952 1.221 1.145 1.915.526 1.898.343 3.846.109 5.766-.294 2.401-1.193 4.653-2.269 6.824-1.074 2.165-1.749 4.386-1.638 6.764 1.766.627 3.576.748 5.547.638.642-4.726 1.15-9.423 2.662-13.976.143.267.242.555.198.822-.388 2.321-.828 4.634-1.201 6.957-.484 3.012-1.151 6.017-.454 9.09.136.6.205 1.098 1.023 1.131 2.005.081 3.999.047 5.977-.313.959-.176 1.653-.623 1.919-1.564.194-.686.66-1.147 1.4-1.34.849-.222 1.697-.443 2.648-.691 1.407-6.359 3.294-12.632 3.717-19.241.327.17.667.399.652.603-.139 1.78-.24 3.572-.552 5.33-.434 2.452-1.009 4.884-1.579 7.314-.613 2.61-1.301 5.205-1.932 7.811-.39 1.616.05 2.279 1.715 2.671 1.74.409 3.473.852 5.229 1.192.815.158 1.735.309 2.503.108 1.575-.411 3.113-.992 4.601-1.637 1.109-.481 1.335-1.239 1.015-2.35-.522-1.813-1.039-3.628-1.541-5.447-.151-.545-.289-1.099-.36-1.658-.36-2.843-.722-5.686-1.033-8.534-.229-2.103-.407-4.212-.555-6.322-.091-1.296-.586-2.38-1.652-3.195-.893-.682-1.785-1.382-2.759-1.949-3.185-1.852-6.443-3.595-9.602-5.484-2.185-1.307-4.524-1.929-7.078-1.994-2.097-.054-4.192-.155-6.287-.226-.562-.019-1.125-.002-1.878-.002.562.534.972.877 1.326 1.267 1.866 2.056 4.171 3.479 6.898 4.308.188.057.36.159.497.221-.537.87-1.105.722-1.68.475-2.147-.925-4.157-2.024-5.844-3.634-1.189-1.135-2.505-2.157-3.825-3.158-.512-.388-1.192-.579-2.092-.998m7.303-41.605c.932-.456 1.928-.429 2.933-.349.896.071 1.752.03 2.647-.238.88-.264 1.861-.254 2.802-.305.694-.037 1.103.366 1.285.974.107.361.269.729.267 1.094-.004.835.371 1.412 1.086 1.884.838.552.947 1.432.84 2.285-.137 1.099-.048 2.121.355 3.182.518 1.365-.033 2.598-1.371 3.305-2.012 1.062-4.089 2.022-6.491 1.82-.987-.083-1.978-.273-2.927-.542-1.148-.325-2.184-.262-3.281.212-1.583.684-3.234 1.23-4.84 1.873-2.25.901-4.488 1.83-6.724 2.763-.308.129-.575.345-.897.543.187.337.398.605.489.906.259.848-.08 1.306-.958 1.598-2.343.78-4.661 1.626-7.011 2.39-.74.24-.897.684-.824 1.3.134 1.121.273 2.241.444 3.357.257 1.674.581 3.338.802 5.015.107.821.535 1.081 1.358 1.176 4.515.517 8.124 2.639 11.184 5.71.231.231.523.45.834.564 3.733 1.362 7.626 1.699 11.597 1.654 1.93-.022 3.893-.028 5.762.545 1.083.331 2.191.682 3.167 1.218 3.32 1.825 6.614 3.694 9.858 5.636 1.258.753 2.387 1.711 3.518 2.637.92.752 1.451 1.652 1.539 2.909.292 4.128.606 8.263 1.19 12.36.515 3.618 1.119 7.255 2.627 10.67.347.784.325 1.479-.308 2.084-.52.499-1.022 1.109-1.669 1.375-2.056.844-4.169 1.582-6.483 1.448-.299-.018-.61-.011-.895-.086-2.104-.557-4.214-1.1-6.3-1.712-1.446-.423-1.609-.713-1.591-2.148.006-.419.001-.839.001-1.255-1.413-.254-1.952.005-2.31 1.174-.211.69-.58 1.064-1.375 1.291-1.717.491-3.455.471-5.202.495-1.051.014-2.104.005-3.154-.02-.973-.022-1.329-.355-1.414-1.262-.013-.141.001-.283-.005-.425-.075-1.791-.069-1.826-1.973-2.161-.776-.136-1.605-.186-2.379-.079-.46.063-.861.509-1.418.866.391.863.724 1.625 1.08 2.376.342.722.023 1.307-.805 1.179-3.144-.485-6.283.204-9.419-.049-.346-.028-.7-.03-1.035-.105-1.483-.331-1.887-.868-1.475-2.226.561-1.848 1.207-3.676 1.868-5.495.501-1.378 1.09-2.726 1.621-4.094.099-.256.107-.545.157-.817-4.968-1.005-9.964-.052-15.085-.77.377 1.21.597 2.228 1.015 3.167.445 1.001.189 1.72-.63 2.37-.419.332-.819.685-1.16.972.792 1.987 1.59 3.937 2.343 5.903.377.982.143 1.936-.347 2.838-.955 1.757-2.51 2.947-4.382 3.676-.997.388-1.598.919-1.836 1.845-.232.905-.817 1.466-1.689 1.851-1.043.461-2.022.463-2.962-.202-.278-.196-.548-.402-.868-.637-1.305.469-2.517.342-3.561-.711-.303.088-.633.172-.955.277-.96.313-1.811.101-2.453-.594-.577-.625-1.194-.748-1.988-.493-1.159.373-2.199.153-2.967-.759-.355-.421-.73-.519-1.264-.564-1.755-.146-3.327-.644-4.241-2.247-.556-.975-.526-1.715.353-2.39 1.392-1.07 2.998-1.646 4.829-1.453.804.084 1.459-.079 1.998-.685 1.833-2.06 3.903-3.884 6.219-5.455.245-.167.518-.296.797-.453-1.14-.55-2.007-.992-2.898-1.39-.968-.433-1.408-1.145-1.405-2.135.004-1.212.001-2.425.001-3.821-2.256-.112-4.378-.256-6.503-.313-5.046-.134-10.093-.208-15.138-.342-3.493-.093-6.984-.246-10.688-.38 0 .583.007 1.036-.001 1.489-.02 1.038.303 1.735 1.523 2.082.971.276 1.846.899 2.708 1.446.47.298.824.758 1.312 1.223.176-.06.515-.084.705-.255 1.602-1.45 3.751-1.652 5.727-2.167 1.975-.514 4.02-.554 6.084-.222 1.52.245 2.389 1.021 2.883 2.308.067.175.142.347.23.562.929-.092 1.854-.236 2.782-.261 1.042-.03 2.102-.037 3.125.117.467.071 1.03.465 1.26.862.68 1.171.755 2.289-.187 3.529-1.703 2.245-3.938 3.837-6.374 5.25-.636.369-1.248.785-1.916 1.094-1.606.744-3.224 1.468-4.863 2.144-1.904.785-3.926 1.055-5.991 1.07-.25.002-.506.011-.749-.035-2.198-.408-4.4-.808-6.587-1.261-.417-.086-.816-.356-1.161-.615-.993-.746-2.126-.982-3.355-.898-2.43.166-4.785-.304-7.079-.923-1.583-.427-2.676-1.629-3.296-3.049-.208-.477-.048-1.28.264-1.741.799-1.182 1.699-2.324 2.708-3.352.941-.959 2.075-1.75 3.019-2.528.054-.882.122-1.697.148-2.513.035-1.084.152-2.183.008-3.249-.087-.643-.431-1.52-.955-1.797-1.646-.873-1.976-2.289-1.805-3.738.219-1.87-.334-3.655-.303-5.483.025-1.407.069-2.818.22-4.216.117-1.087 1.022-1.643 2.151-2.004-.627-.65-1.183-1.125-1.612-1.688-2.61-3.421-4.582-7.134-5.766-11.216-.697-2.403-.771-4.813-.361-7.255.162-.966-.005-1.8-.643-2.647-.89-1.18-1.61-2.478-2.348-3.754-.546-.945-.361-2.023.546-2.663 1.378-.973 2.814-1.787 4.685-1.003.93.388 1.92.33 2.862-.231.878-.523 1.823-.957 2.768-1.371 2.204-.965 4.55-1.354 7.09-1.383-.112-.216-.155-.386-.265-.497-.78-.786-.866-1.701-.436-2.626.244-.523.296-.935.01-1.449-.148-.267-.207-.69-.089-.956.629-1.422-.268-2.977.474-4.373.09-.168.14-.423.284-.486 1.135-.503 1.456-1.579 2.066-2.468.846-1.232 2.193-1.365 3.85-.466.702-.629 1.439-.498 2.308-.154 1.695.67 2.747 1.855 3.368 3.402.35.871.666 1.5 1.835 1.735 1.281.258 2.429 1.049 3.686 1.468 3.097 1.032 6.222 1.986 9.338 2.962.155.048.342.006.578-.093-3.463-2.116-6.352-4.581-7.688-8.438-1.333-3.848-.867-7.49.586-10.919-.71-1.461-1.393-2.754-1.972-4.087-.861-1.984-.238-3.675 1.324-5.122.134-.125.339-.183.6-.318-1.613-1.133-2.58-2.409-2.921-4.058-.229-1.113.245-1.581 1.43-1.425.395.052.79.105 1.186.142.091.008.188-.045.337-.084-.297-.738-.677-1.452-.866-2.209-.272-1.091-.478-2.207-.573-3.324-.073-.852.498-1.165 1.364-.88.139.045.255.149.392.204 2.404.958 4.562.718 6.745-.768 2.176-1.482 4.554-2.713 6.904-3.95 3.405-1.792 7.142-2.323 10.99-2.325.492-.001.983 0 1.588 0-.26-.486-.462-.852-.654-1.221-.586-1.129.042-2.11.499-3.074.172-.361.717-.374 1.023-.011 1.655 1.96 3.958 2.812 6.44 3.286 1.062.203 2.182.22 3.271.197 2.702-.059 5.393-.115 8.046.52 1.08.259 2.071.599 2.911 1.345.685.608 1.5 1.089 2.262 1.619.923.642 1.431 1.539 1.838 2.524.353.856.799 1.677 1.227 2.559.773-.516 1.353-.965 1.994-1.314.726-.396 1.018-.229 1.339.511.397.918-.065 1.757-.215 2.621-.087.501-.305.983-.52 1.642.528.159.977.292 1.425.43 2.226.687 4.109 1.716 4.734 4.071.289 1.085.123 1.283-1.063 1.401-1.217.12-2.423.347-3.717.54.453.593.852 1.024 1.142 1.512.619 1.04.943 2.118.654 3.359-.374 1.6-.873 3.209-.684 4.871.121 1.069.358 2.133.64 3.176.217.807.766 1.38 1.654 1.689.786.274.957.629.561 1.288-.582.971-1.308 1.865-1.973 2.793-1.636.445-3.138 1.488-5.007.858-.527.96-.961 1.856-1.496 2.695-.564.883-1.328 1.662-1.812 2.577-.45.849-1.689 1.1-1.883 2.249.283-.044.433-.038.553-.09 2.215-.956 4.424-1.922 6.639-2.877.788-.34 1.2-.894 1.391-1.703.312-1.319.61-2.663 1.58-3.744" fill="#231f20"/><path d="m106.63 96.039c.9.419 1.58.61 2.092.998 1.32 1.001 2.637 2.023 3.825 3.157 1.687 1.611 3.697 2.709 5.844 3.634.575.248 1.143.396 1.68-.474-.137-.062-.309-.165-.497-.222-2.727-.828-5.032-2.251-6.898-4.307-.354-.39-.764-.734-1.326-1.268.754 0 1.316-.016 1.878.003 2.095.07 4.191.171 6.287.225 2.554.065 4.893.687 7.078 1.994 3.16 1.89 6.417 3.632 9.602 5.485.974.567 1.866 1.267 2.759 1.949 1.066.814 1.561 1.899 1.652 3.194.148 2.11.326 4.219.555 6.323.311 2.848.673 5.691 1.033 8.534.071.558.209 1.112.36 1.657.502 1.819 1.019 3.634 1.541 5.448.32 1.111.094 1.868-1.015 2.349-1.488.645-3.026 1.226-4.6 1.637-.769.201-1.689.05-2.504-.108-1.756-.339-3.489-.783-5.229-1.191-1.665-.392-2.105-1.055-1.715-2.671.631-2.607 1.319-5.201 1.932-7.812.57-2.43 1.145-4.861 1.58-7.314.311-1.757.412-3.549.551-5.329.015-.204-.324-.433-.652-.603-.423 6.608-2.31 12.882-3.717 19.24-.95.248-1.799.47-2.648.691-.74.194-1.206.655-1.4 1.341-.266.94-.96 1.388-1.919 1.563-1.978.361-3.972.395-5.977.314-.818-.033-.886-.532-1.023-1.131-.697-3.074-.029-6.078.454-9.091.373-2.322.813-4.636 1.201-6.957.045-.266-.055-.555-.198-.822-1.512 4.554-2.02 9.251-2.662 13.976-1.97.111-3.78-.01-5.547-.637-.111-2.378.564-4.599 1.638-6.765 1.076-2.171 1.975-4.422 2.269-6.824.235-1.919.417-3.868-.109-5.765-.193-.694-.572-1.501-1.145-1.916-1.937-1.401-3.995-2.655-6.018-3.952-.178-.114-.429-.126-.77-.219.075.28.064.451.146.514 1.115.864 2.226 1.735 3.375 2.558.753.539 1.592.971 2.347 1.509.791.562 1.252 1.323 1.308 2.286.168 2.873.202 5.719-1.036 8.449-.604 1.333-1.031 2.736-1.588 4.09-1.191 2.9-1.648 5.909-1.565 9 .013.505.168 1.006.279 1.626-.506.036-.982.082-1.459.103-2.04.089-4.08.175-6.12.253-.448.017-.909.056-1.346-.017-1.033-.174-1.455-.687-1.162-1.676.518-1.752 1-3.546 1.824-5.175.987-1.95 1.675-3.998 2.266-6.037.703-2.43 1.029-4.983 1.25-7.504.171-1.944-.512-3.832-1.55-5.518-.431-.7-1.163-1.318-1.903-1.754-2.255-1.33-3.582-3.155-4.066-5.634-.178-.909-.42-1.817-.617-2.73-.215-.989-.81-1.906-1.258-2.846-.22-.46-.534-.831-.215-1.432.188-.355.011-.911-.079-1.363-.234-1.189-.511-2.37-.796-3.672 1.392-.024 2.665.007 3.76.55 1.942.963 3.892 1.96 5.661 3.173 1.61 1.104 2.806 2.639 3.863 4.266 1.298 1.999 2.693 3.947 4.129 5.862.674.898 1.63 1.526 2.873 1.605.099.007.205.009.297-.018.09-.026.166-.091.282-.157-.056-.115-.093-.32-.174-.337-1.542-.317-2.476-1.355-3.322-2.482-1.316-1.755-2.533-3.568-3.646-5.826" fill="#ffd463"/><path d="m81.703 14.742c1.604 1.861 3.754 2.55 5.9 3.137 1.171.32 2.461.304 3.701.332 1.795.041 3.594-.07 5.389-.015 2.408.072 4.436.889 6.365 2.381 2.128 1.645 3.491 3.543 4.099 6.018.076.312.445.559.679.835.256-.197.583-.351.754-.6.438-.64.903-1.219 1.79-1.481.465 1.164-.087 2.154-.445 3.136-.308.847-.372.827-.032 1.813 2.703.109 5.062.85 6.071 3.771-.302.148-.613.372-.962.456-.966.232-1.955.375-2.919.612-.495.122-.955.367-1.592.62.359.408.537.683.785.88 1.59 1.269 1.984 2.899 1.556 4.73-.435 1.855-.632 3.723-.497 5.613.053.744.211 1.488.387 2.217.251 1.03 1.056 1.674 1.979 2.237-.515 1.736-1.849 2.535-3.525 2.914-.62.14-1.218.109-1.741-.483-.663-.749-1.213-.536-1.469.472-.574 2.255-1.906 4.109-3.481 5.83-.18.198-.475.302-.803.501-.203-.345-.357-.624-.529-.894-1.15-1.813-2.786-2.763-5.088-2.577-.409.033-.83-.08-1.378-.139-.469.391-1.042.907-1.663 1.364-.206.152-.627.286-.791.19-.251-.148-.534-.522-.503-.766.081-.636.28-1.269.521-1.871.146-.366.365-.673-.03-.999-2.589 1.173-4.581 1.324-6.028-.029 1.861-.283 3.269-1.215 4.529-2.349.246-.221.268-.663.427-1.091-2.718-.922-3.551-3.041-4.256-5.313-.843-2.718-1.129-5.45-.462-8.213.466-1.933 1.403-3.702 2.587-5.343.364-.507.682-.979.07-1.333-3.504 1.348-6.907 2.658-10.312 3.964-.276.106-.561.194-.846.273-.514.144-.799-.118-.794-.55.004-.407.093-.846.276-1.213.614-1.233 1.71-2.055 2.851-2.837.454-.31 1.148-.5.977-1.318-.773-.435-1.409.107-2.026.386-1.844.831-3.664 1.711-5.467 2.621-2.155 1.087-4.293 2.204-6.415 3.348-.863.465-1.652 1.053-2.498 1.549-.4.234-.794.632-1.468.245-.297-1.988 1.62-3.151 2.327-5.008-.505.128-.895.146-1.188.313-1.534.876-3.059 1.768-4.553 2.702-.489.306-.851.721-1.519.814-.331.046-.662.533-.865.886-1.374 2.395-2.713 4.808-4.067 7.214-.093.166-.208.32-.334.512-1.059-1.275-1.545-2.759-1.856-4.27-.321-1.555.515-2.63 2.158-3.185.277-.093.601-.39.659-.642.056-.25-.119-.645-.333-.828-.324-.275-.781-.405-1.163-.626-1.295-.748-1.895-1.756-1.968-3.382.584.057 1.164.071 1.724.179.534.104 1.048.305 1.575.464.757-.385.59-.843.186-1.378-.519-.686-1.036-1.379-1.466-2.115-.612-1.047-.658-2.221-.801-3.53.445.065.781.059 1.071.165 2.363.864 4.543.68 6.62-.79 2.277-1.61 4.665-3.054 7.238-4.241 3.633-1.678 7.449-2.375 11.461-2.202.58.024 1.146.277 1.728.373.253.042.61.044.778-.092.33-.264.171-.567-.106-.845-.409-.41-.833-.822-1.151-1.293-.507-.751-.456-1.168.172-2.226" fill="#c48e53"/><path d="m94.996 62.959c.212-.151.382-.248.52-.375.899-.827 1.296-.866 2.37-.46.948.358.753.968.544 1.624-.015.044-.061.103-.045.131.089.156.173.41.297.431.202.034.516-.018.638-.151.726-.796.486-2.141-.489-2.704-.832-.481-1.77-.713-2.727-.519-.509.103-1.028.383-1.42.713-.5.42-.467.911.312 1.31m-13.002-18.101c.038-.605.194-1.016.051-1.158-.989-.978-2.041-1.901-3.075-2.838-.032-.028-.095-.035-.143-.036-1.818-.01-3.682-.464-5.406.468-.25.135-.536.274-.69.486-.104.143-.068.445.024.621.056.108.341.164.514.149.186-.016.365-.137.543-.22 2.617-1.235 4.755-.448 6.421 1.046.491.439 1.011.852 1.761 1.482m-14.454 3.069c-.25 0-.401-.024-.541.004-1.449.287-2.749-.271-3.281-1.498-.13-.3-.146-.802.037-1.036.721-.925 1.601-1.647 2.945-1.696.886-.033 1.564.091 1.892.983.075.204.396.329.619.502.595-.527.393-.989.131-1.466-.308-.559-.675-1.039-1.383-1.188-1.882-.395-4.593.935-5.32 2.643-.108.252-.15.554-.128.826.153 1.916 2.339 3.472 4.372 3.134.673-.112.941-.445.657-1.208m-1.167 8.704c.688.819.694.926 1.446.889 1.538-.075 2.171.795 2.453 1.977.283 1.183.471 2.393.597 3.601.138 1.337.812 2.153 2.327 2.586 1.239.354 2.119.013 3.011-.999 3.017-3.423 2.168-7.755.37-10.81-.152-.256-.496-.556-.772-.577-.942-.071-1.989-.269-2.825.019-2.316.799-4.739 1.478-6.607 3.314m-1.88-14.867c.108-1.013-.049-1.335-.839-1.533-1.366-.343-2.738-.57-4.04.235-.145.09-.35.095-.83.215 1.616-2.157 3.548-3.565 5.703-4.893-.066.751-.208 1.421-.165 2.081.076 1.202.971 1.657 2.072 1.018 1.484-.861 2.852-1.902 4.357-2.726 2.545-1.395 5.156-2.683 7.745-4.007.289-.148.614-.233.995-.374-.441.889-.851 1.662-1.203 2.457-.129.293-.177.642-.164.962.051 1.263.708 1.66 1.964 1.194 2.83-1.051 5.654-2.116 8.482-3.171.261-.098.531-.174 1.081-.351-.286.634-.459 1.045-.654 1.445-1.179 2.42-2.005 4.945-1.828 7.62.183 2.778.83 5.496 2.36 7.922.523.829 1.362 1.48 2.131 2.29-.625.85-1.467 1.447-2.656 1.699-.73.155-1.638.025-2.127.76.457 1.91 2.513 2.652 6.224 1.901-.041.443-.083.843-.114 1.244-.054.699.132 1.386.78 1.706.34.168.953.004 1.369-.167.391-.162.687-.53 1.123-.888.523.619 1.091.904 1.77.11.196-.229.738-.341 1.083-.287 1.404.219 2.585.851 3.094 2.165.768 1.981.568 3.609-1.165 5.303-1.573 1.539-3.482 2.151-5.723 1.337-.78-.282-1.388-.72-1.711-1.476-.145-.341-.352-.657-.579-1.07-.313.174-.621.255-.775.447-1.017 1.266-2.41 1.985-3.991 2.347-2.224.511-4.475.92-6.809 1.391-.017.217-.11.499-.045.743.32 1.202-.04 2.317-.404 3.443-.246.763-.811 1.242-1.58 1.331-.877.101-1.794.077-2.67-.045-.664-.093-1.109-.569-1.291-1.233-.236-.862-.544-1.706-.782-2.568-.283-1.022-.985-1.534-2.046-1.829-1.715-.476-3.394-1.071-5.085-1.625-.933-.306-1.86-.63-2.788-.95-.14-.049-.306-.09-.4-.186-1.098-1.115-2.678-1.497-3.966-2.329-2.699-1.744-4.587-4.01-5.357-7.041-.277-1.092-.631-2.18-.752-3.29-.095-.868.066-1.773.198-2.65.423-2.807 1.868-5.242 3.315-7.649.818-1.362 3.863-2.049 5.6-1.444.36.126.712.271 1.093.416" fill="#fdd8bd"/><path d="m53.933 88.643c.306-1.451-.355-2.359-1.031-3.329-3.293-4.726-8.079-6.92-13.895-7.413-.354-.03-.72.054-1.08.086-.024.101-.047.202-.07.304.427.172.839.396 1.284.504.575.139 1.175.189 1.766.27 4.951.678 8.655 3.144 11.358 7.039.539.778 1.039 1.579 1.668 2.539m-22.282 2.423c-2.812.715-3.385 1.539-2.341 3.265-1.727 1.451-2.109 2.389-1.39 3.413.618.879 1.691.938 3.417.155.519 1.213 1.581 2.006 2.693 2.637 1.516.859 2.119 2.053 2.104 3.633-.007.649-.001 1.298-.001 2.011-.814.429-1.639.922-2.703.946-1.51.034-2.741-.766-2.999-2.178-.219-1.188-.825-2.013-1.87-2.738-1.365-.945-2.474-2.159-3.338-3.58-1.838-3.025-3.388-6.167-4.501-9.488-.309-.924-.354-1.896-.373-2.898-.046-2.383.579-4.645.983-6.95.012-.066-.095-.151-.245-.37-.298.394-.558.736-.836 1.103-.929-1.312-2.099-2.483-2.601-4.068-.202-.639-.091-1.065.389-1.511 1.032-.961 2.133-1.424 3.634-.954.827.258 1.764.229 2.655.264.261.01.58-.149.792-.319 2.433-1.951 5.334-2.691 8.432-2.796 1.948-.066 3.872-.151 5.751-.698.459-.134.966-.235 1.356.264.121.156.446.2.687.236 1.792.268 3.45.917 5.095 1.592.911.375 1.812.777 2.693 1.211.985.485 1.953.698 2.989.146.213-.113.472-.153.712-.214 1.563-.397 2.688.34 2.756 1.847.029.64-.053 1.285-.093 2.094-.494-.336-.843-.572-1.311-.89.44 1.718 1.378 2.993 2.612 4.114 2.696 2.447 4.654 5.392 6.345 8.504.211.389.271.897.248 1.342-.028.554-.197 1.104-.337 1.649-.184.713-.287 1.442-1.229 1.744-.368.119-.606.596-.749.747-1.363.115-2.539.161-3.696.322-2.31.323-4.612.7-6.913 1.075-.637.103-1.258.288-1.89.412-.473.092-.953.147-1.533.233-.092-1.79-1.001-3.128-2.169-4.458.575-.553 1.046-1.018 1.531-1.471 1.037-.97 1.526-2.049.985-3.445-.394-1.019-1.078-1.7-2.194-1.902-.97-.176-1.995-.439-2.938-.303-1.36.196-2.502.914-2.985 2.213-.586-.13-1.107-.265-1.636-.359-1.274-.225-2.258.08-2.8 1.309-.106.241-.46.429-.744.551-1.186.507-2.096 1.235-2.444 2.558" fill="#fff"/><path d="m68.469 106.604c-5.56.35-10.755 2.643-16.307 4.047.005-4.722-1.487-9.064-4.28-13.145 1.021-.579 2.172-.936 3.385-1.103 1.53-.211 3.07-.363 4.602-.557.59-.075 1.178-.178 1.759-.298 1.349-.281 2.653-.007 3.92.33.387-.441.664-.895 1.072-1.182.384-.27.907-.364 1.337-.524 8.08 4.833 22.499 4.336 28.669 1.354 1.38 1.936 2.221 3.954 1.431 6.346-.328.996-.984 1.733-1.759 2.411-1.192 1.041-2.62 1.71-4.154 2.141-.54.151-1.168.024-1.637.024-.57-.565.092-1.823-1.392-1.589-.033.328-.107.646-.091.961.045.826-.018 1.503-1.18 1.564-.515.028-.788.54-.637.962.479 1.343.187 2.712.27 4.065.291 4.691.612 9.378 2.073 13.838-.776 1.373-2.072 1.693-3.446 1.748-1.796.072-3.604.137-5.395.025-2.143-.134-4.204-.727-6.191-1.49-1.328-.511-1.979-1.448-1.951-2.871.064-3.302-.081-6.611.084-9.906.1-2.006.616-3.994.951-5.989.054-.323.157-.64.199-.964.301-2.358 1.481-4.165 3.75-5.268 1.019-.495 2.074-.922 3.104-1.397.431-.199.838-.444 1.345-.715-1.141-.517-1.213-.552-4.039.911-1.257.65-2.604 1.354-3.499 2.359-.887.995-1.256 2.399-1.993 3.912" fill="#9ed8d7"/><path d="m72.436 69.794c-2.087 2.049-1.91 4.293-.922 6.437.632 1.373 1.952 2.305 3.639 2.657 2.275.475 4.454.357 6.563-.62 2.732-1.266 3.875-4.008 3.3-6.615-.228-1.031-1.035-1.687-2.178-2.096 3.339-1.028 6.926-1.077 9.742-3.314.874 1.03 1.809 1.755 3.099 2.002.289.055.612.348.756.611.66 1.209 1.331 2.419 1.867 3.679.534 1.259.347 1.72-.958 2.22-2.349.898-4.743 1.692-7.121 2.523-.138.049-.3.031-.443.069-.442.114-.92.231-.848.8.082.656.653.414 1.168.45.825 5.074 1.65 10.151 2.469 15.188-.855.489-1.584.962-2.363 1.344-2.421 1.187-5.088 1.265-7.723 1.423-3.454.208-6.894.037-10.304-.539-2.382-.403-4.541-1.367-6.663-2.411-1.029-.507-1.338-1.327-1.111-2.372.275-1.264.511-2.536.798-3.797.322-1.42.665-2.836 1.028-4.247.433-1.685.895-3.364 1.347-5.045.145-.539.185-1.113.789-1.455.17-.096.355-.482.284-.589-.615-.929.107-1.696.288-2.524.03-.136.164-.269.149-.393-.025-.206-.131-.405-.204-.607-.251.088-.637.111-.728.277-.246.45-.371.96-.536 1.448-.134.393-.257.789-.403 1.241-2.071-.101-4-.469-5.879-1.109-.82-.28-1.086-.842-1.163-1.619-.176-1.775.594-3.301 1.312-4.848.04-.086.102-.162.15-.245.86-1.516.821-1.425 2.547-.769 2.444.929 4.952 1.709 7.433 2.553.225.077.448.16.819.292" fill="#f6f4b0"/><path d="m68.626 107.52c-1.098 4.221-1.115 8.335-1.041 12.524-.424.032-.711.078-.996.07-5.186-.143-10.373-.298-15.559-.44-1.645-.045-3.291-.028-4.934-.097-1.691-.071-3.406-.441-5.063-.272-3.073.313-6.053-.38-9.084-.43-1.581-.026-2.997-.773-4.235-1.634-.848-.591-1.065-1.665-1.178-2.637-.233-2.006-.46-4.019-.528-6.033-.038-1.109.218-2.234.42-3.338.061-.335.327-.685.6-.928 1.019-.909 1.744-.725 2.191.514.016.044.034.089.04.135.279 2.076 1.722 2.942 3.746 3.176.426.049.89.056 1.295-.052.757-.203 1.483-.504 2.302-.792.668 1.877 1.426 3.734 3.601 4.561 2.044.776 4 .584 5.869-.594 1.382.924 2.851 1.348 4.498.812 1.091.446 1.862-.343 2.769-.625 3.5-1.086 6.988-2.212 10.522-3.191 1.455-.403 3.015-.473 4.765-.729" fill="#d7e8b4"/><path d="m43.338 92.012c3.476 2.605 2.849 5.763 1.657 9.027 1.099-.271 1.099-.271 2.197-2.643 2.163 2.238 2.749 5.06 3.61 7.821-.63.294-1.172.63-1.768.808-1.032.308-1.564 1.001-2.145 1.819-1.079 1.518-2.597 2.48-4.689 2.298-1.716-.15-2.972-.936-3.793-2.355-.794-1.371-.881-2.907-1.141-4.401-.113-.643-.14-1.301-.278-1.937-.208-.957-.745-1.691-1.624-2.273-1.096-.726-2.095-1.581-3.051-2.315.087-.527.143-.867.222-1.349-.424.076-.711.085-.962.182-.554.211-1.074.506-1.635.692-.566.188-1.124.094-1.427-.453-.297-.534.115-.882.494-1.194.566-.465 1.258-.561 1.971-.489.491.049.974.17 1.491.264.873-.814 1.68-1.727 2.656-2.432.951-.686 2.075-1.16 3.194-1.765-1.081-.418-1.216-.38-3.85.991-.532-.418-1.064-.836-1.6-1.256-.013-.751.479-1.142 1.098-1.38.542-.209 1.081-.18 1.441.376.182.279.357.583.612.792.14.115.544.152.646.054.171-.164.339-.527.255-.694-.208-.417-.597-.751-.842-1.156-.403-.668-.143-1.198.627-1.387 1.141-.282 1.944.157 2.301 1.252.13.4.226.818.423 1.186.083.154.421.308.589.268.188-.046.393-.294.448-.489.057-.204-.028-.458-.101-.675-.513-1.528-.051-2.635 1.396-3.229 1.361-.558 2.673-.207 3.882.382.873.425 1.116 2.14.461 2.885-.571.65-1.268 1.199-1.895 1.806-.268.259-.499.552-.87.969" fill="#fdd8bd"/><path d="m82.076 134.705c1.181-.487 1.226-1.21 1.252-1.958.03-.824-.167-1.576-.811-2.158-.257-.233-.759-.013-.771.329-.007.215.048.478.182.642.578.711.556 1.451.244 2.242-.075.19-.049.416-.096.903m-10.861 7.765c-1.543.319-2.392.068-2.753-.804-.705-1.708.801-2.123 2.022-2.724-.45-.642-1.035-.705-1.605-.554-.946.251-1.488 1.191-1.707 2.753-1.585.798-2.148.704-3.352-.599.243-.93.778-1.545 1.908-1.631.339-.026.66-.252 1.091-.428-1.597-1.146-2.861-.612-4.181 1.626-1.454.225-2.682-.324-3.71-1.275-.71-.656-.58-1.282.223-1.898 1.369-1.049 2.923-1.074 4.533-.71 1.221.276 1.196.284 1.861-.719 1.18-1.781 2.895-3.098 4.514-4.488.772-.662 1.663-1.199 2.488-1.808.581-.429 1.157-.629 1.931-.399 2.286.68 4.625.485 6.959.259.643-.062 1.289-.085 1.968-.128.802.896 1.415 1.82 1.693 2.958.199.818.532 1.613.869 2.393.385.893.283 1.693-.143 2.568-.818 1.681-2.407 2.529-4.01 3.232-1.226.538-1.887 1.291-2.204 2.438-.174.63-.565 1.084-1.184 1.378-.815.387-1.679.255-2.157-.349-.545-.688-.492-1.185.165-1.976.139-.167.191-.398.289-.611-1.269-.307-1.849.015-1.963 1.171-.049.496.029 1.003-.607 1.097-.658.098-1.336-.065-1.759-.574-.388-.467-.21-1.004.192-1.416.256-.262.572-.504.91-.655.335-.15.731-.255.538-.665-.237-.502-.634-.246-1.003-.075-1.147.53-2.036 1.22-1.816 2.613" fill="#fdd8bd"/><path d="m59.889 130.585c-.659.376-1.323.744-1.975 1.129-1.365.807-1.647.765-2.577-.398-.656-.82-1.319-1.637-2.092-2.596.58-.3 1.091-.686 1.671-.843 2.116-.573 4.257-1.025 6.49-.674 1.427.224 2.137 1.499 1.34 2.666-.616.903-1.365 1.751-2.181 2.502-2.616 2.404-5.858 3.871-9.152 5.239-.998.415-1.998.844-3.035 1.149-1.838.54-3.76.623-5.617.257-1.987-.391-4.09-.413-5.923-1.367-.78-.406-1.522-.896-2.213-1.427-.493-.379-.379-.95-.137-1.433.703-1.401 1.461-2.759 2.51-3.986 1.138-1.331 2.419-2.468 3.926-3.404 1.253-.777 2.638-.792 4.04-.621 1.088.133 2.169.331 3.242.546 1.574.316 2.827 1.201 3.916 2.239 1.117 1.064 2.076 2.274 3.138 3.393.204.215.588.452.85.417 1.75-.234 3.04-1.155 4.085-2.393-.102-.132-.204-.263-.306-.395" fill="#6abfeb"/><path d="m84.885 108.477c2.951.074 5.733.139 8.515.217.997.028 1.994.075 2.989.135 1.285.077 2.579.109 3.844.304.393.06.849.523 1.032.906.91 1.907 1.504 3.862.998 6.009-.333 1.416-.459 2.874-.729 4.305-.247 1.308-.491 1.438-1.887 1.203-.147-.025-.298-.063-.445-.054-2.79.168-5.563-.328-8.372-.089-1.708.146-3.465-.223-5.35-.373-.646-4.093-1.276-8.147-.595-12.563" fill="#d7e8b4"/><path d="m99.345 71.687c-.571-1.083-1.121-2.126-1.689-3.205.778-.242 1.638-.368 2.33-.758.84-.475 1.685-1.068 2.269-1.794 1.375-1.711 3.165-2.76 5.249-3.507 1.486-.533 2.917-1.205 4.374-1.813.893-.373 1.383-1.002 1.541-1.923.11-.643.331-1.275.561-1.893.678-1.816 3.011-2.353 4.62-1.126.945.722 1.373 1.714 1.8 2.711.216.506-.089 1.003-.672 1.029-.513.022-1.055-.14-1.554-.302-.784-.254-1.088-.129-1.307.614-.157.533-.253 1.11-.541 1.577-.523.849-.897.918-2.047.687-.167-.033-.476.009-.519.1-.083.177-.106.457-.009.617.338.559.967.764 1.692.457.712-.302 1.356-.744 2.093-1.16.333.523.612 1.036.268 1.832-.411.951.111 1.667 1.211 2.074 1.257.466 2.817.02 3.869-1.143-.594-.358-1.098-.098-1.664.067-.592.171-1.25.199-1.875.181-.189-.006-.451-.35-.519-.581-.037-.127.227-.383.411-.511 1.679-1.17 3.363-.647 5.002.071.686.301.688.953.001 1.299-1.622.818-3.253 1.672-5.148 1.773-1.251.067-2.475-.133-3.621-.643-1.02-.453-1.891-.571-3.041.014-2.261 1.15-4.637 2.103-7.122 2.827-1.747.509-3.365 1.408-5.044 2.126-.265.113-.551.183-.919.303" fill="#fdd8bd"/><path d="m45.294 60.179c-.172.263-.346.529-.582.89 2.519 1.468 5.329 2.161 7.958 3.214 2.585 1.034 5.322 1.734 8.044 2.597-.585 1.639-1.116 3.132-1.666 4.673-3.267-.395-6.145-1.961-9.237-2.906-.994-.304-1.984-.63-2.942-1.019-.532-.216-.994-.583-1.713-1.018-.354.284-.844.802-1.45 1.127-.576.309-1.273.416-2.172.69.502-1.11.531-1.985.361-2.929-.114-.638.233-1.351.374-2.03 3.025.683 3.941.39 3.525-1.188-.754.299-1.52.874-2.343.365-.637-.393-1.17-.935-1.862-1.503-.187.339-.338.606-.483.877-.201.374-.325.808-.607 1.114-.779.844-1.851.7-2.438-.277-.659-1.098-.503-1.74.377-2.63.8-.808 1.868-1.376 2.391-2.45.164-.335.651-.529.959-.764 1.698.639 2.974 1.536 3.506 3.167" fill="#fdd8bd"/><path d="m33.065 136.539c-1.343-.136-2.772-.256-4.193-.435-.887-.111-1.764-.296-2.64-.472-1.617-.324-2.492-1.446-3.287-2.76 1.31-2.522 3.05-4.617 5.793-6.002 1.249-.631 2.372-1.524 3.702-2.072 2.305-.949 4.5-.6 6.336 1.02.072.063.179.115.209.192.13.346.239.699.338.997-1.062 1.113-2.101 2.177-3.109 3.266-1.214 1.313-2.22 2.762-2.866 4.398-.192.489-.168 1.054-.283 1.868" fill="#6abfeb"/><path d="m73.551 70.269c.237.938.541 1.688.597 2.454.11 1.529 1.17 2.325 2.483 2.682 1.687.459 3.376.167 4.806-.892.293-.217.53-.577.647-.916.305-.889.53-1.803.805-2.768.632.187.919.67 1.014 1.302.247 1.657-.374 3.056-1.531 4.245-2.03 2.088-6.855 2.312-9.072.371-.392-.343-.744-.776-.963-1.232-.877-1.82-.481-3.779 1.214-5.246" fill="#9ed8d7"/><path d="m34.209 123.013c-1.361.602-2.576 1.133-3.785 1.674-.798.356-1.152.225-1.179-.578-.053-1.545-.015-3.093-.015-4.627 1.422.15 2.735.317 4.054.416.627.048.914.311.923.872.01.75.002 1.5.002 2.243" fill="#b28254"/><path d="m98.757 107.673c-3.124.332-6.125.02-9.394-.386 2.65-1.201 5.063-2.394 5.789-5.408.376 2.514 1.518 4.382 3.605 5.794" fill="#a7d48e"/><path d="m44.289 125.701c2.003-.93 3.973-1.078 5.947-1.218 1.159-.082 2.26.084 3.354.476.886.318 1.44.801 1.478 1.7-.912.429-1.822.856-2.86 1.344-.549-.392-1.627-.319-1.834-1.386-.024-.126-.329-.32-.458-.293-1.706.366-3.249-.453-4.885-.567-.18-.013-.359-.027-.742-.056" fill="#6abfeb"/><path d="m40.668 65.865c.375 1.694.219 2.072-1.302 2.829-.564.281-1.171.524-1.789.658-.991.215-2.104-.294-2.483-1.156-.152-.344-.112-.837.032-1.192.074-.181.612-.342.877-.278 1.562.378 2.925-.058 4.245-.784.116-.064.279-.053.42-.077" fill="#fdd8bd"/><path d="m47.012 110.665c1.045-1.353 1.693-3.039 3.913-2.896.472 1.113.679 2.205-.305 3.112-.84.775-2.143.657-3.608-.216" fill="#9ed8d7"/><path d="m118.963 62.552c-.39-.767-.182-1.157.49-1.458 1.48-.662 3.745-.415 4.906.638.259.234.362.62.636 1.116-2.113-.374-4.001-1.131-6.032-.296" fill="#fdd8bd"/><path d="m35.4 63.344c.874.375 1.726.855 2.647 1.1.768.204 1.618.131 2.274.171-1.259 1.052-2.171 1.343-3.738 1.103-1.404-.215-1.885-1.086-1.183-2.374" fill="#fdd8bd"/><path d="m33.462 93.174c-.208.217-.385.378-.532.561-.18.223-.335.463-.462.643-.855-.276-1.527-.422-2.128-.704-.699-.329-.681-.851-.034-1.283.76-.508 1.574-.493 2.29.054.266.204.513.431.866.729" fill="#fdd8bd"/><path d="m124.462 60.397c-.481-.192-.902-.4-1.349-.528-.421-.121-.87-.159-1.344-.241-.027-.483-.053-.935-.077-1.363 2.355-.563 3.015.284 2.77 2.132" fill="#fdd8bd"/><path d="m121.013 56.806c-.406-.558-.814-1.119-1.28-1.758.897-.351 1.715-.583 2.389-.105.571.405.702 1.106.329 1.863z" fill="#fdd8bd"/><path d="m36.553 62.51c-.475-.687-1.869-.932-1.235-2.07.296-.531.652-1.082 1.59-.742-.116.924-.235 1.868-.355 2.812" fill="#fdd8bd"/><path d="m37.874 58.893c-.699-.473-.579-.968-.17-1.386.499-.51 1.115-.771 1.874-.309-.121.955-.925 1.261-1.704 1.695" fill="#fdd8bd"/><path d="m72.886 64.412c1.596.261 2.31-.016 3.052-1.203.706-1.129 1.104-2.352 1.19-3.683-2.515.326-4.299 2.376-4.242 4.886m-.896-1.942c1.078-2.09 2.634-3.579 5.018-4.278-.418-1.44-.578-2.835-1.497-3.927-2.733-.383-4.758 1.054-7.207 2.051 1.923.326 2.634 1.486 3.022 2.849.294 1.033.429 2.104.664 3.305m-5.617-5.839c1.868-1.837 4.292-2.516 6.608-3.315.836-.288 1.882-.09 2.824-.018.277.021.621.32.772.576 1.799 3.056 2.647 7.388-.37 10.81-.892 1.012-1.772 1.353-3.011.999-1.515-.432-2.188-1.249-2.327-2.585-.126-1.208-.314-2.418-.597-3.602-.282-1.182-.915-2.051-2.453-1.977-.751.037-.757-.07-1.446-.888" fill="#231f20"/><path d="m67.54 47.927c.284.763.016 1.096-.658 1.208-2.032.338-4.218-1.219-4.371-3.134-.022-.272.02-.574.127-.826.728-1.708 3.438-3.039 5.32-2.644.708.149 1.075.63 1.383 1.188.263.478.465.94-.13 1.467-.224-.174-.544-.298-.619-.502-.328-.892-1.006-1.016-1.892-.984-1.345.05-2.224.771-2.946 1.696-.182.235-.166.737-.036 1.036.532 1.227 1.831 1.786 3.28 1.498.141-.027.292-.003.542-.003" fill="#231f20"/><path d="m81.994 44.858c-.75-.63-1.27-1.042-1.761-1.482-1.666-1.494-3.804-2.281-6.421-1.046-.178.083-.357.204-.543.22-.173.015-.458-.041-.514-.149-.092-.176-.128-.478-.024-.621.154-.212.44-.351.69-.486 1.724-.932 3.588-.478 5.406-.468.048.001.111.008.143.036 1.034.937 2.086 1.86 3.075 2.838.143.142-.013.553-.051 1.158" fill="#231f20"/><path d="m94.996 62.959c-.779-.399-.812-.89-.312-1.31.392-.33.911-.61 1.42-.713.957-.194 1.895.038 2.727.519.975.563 1.215 1.908.489 2.704-.122.133-.436.185-.638.151-.124-.021-.208-.275-.297-.431-.016-.028.03-.087.045-.131.209-.656.404-1.266-.544-1.624-1.074-.406-1.471-.367-2.37.46-.138.127-.308.224-.52.375" fill="#231f20"/><path d="m53.933 88.643c-.629-.96-1.129-1.761-1.668-2.539-2.703-3.895-6.407-6.361-11.358-7.039-.591-.081-1.191-.131-1.766-.27-.445-.108-.857-.332-1.284-.504.023-.102.046-.203.07-.304.36-.032.726-.116 1.08-.086 5.816.493 10.602 2.687 13.895 7.413.676.97 1.337 1.878 1.031 3.329" fill="#231f20"/><path d="m82.076 134.705c.047-.487.021-.713.096-.903.312-.791.334-1.531-.244-2.242-.134-.164-.189-.427-.182-.642.012-.342.514-.562.771-.329.644.582.841 1.334.811 2.158-.026.748-.071 1.471-1.252 1.958" fill="#231f20"/><path d="m71.989 62.47c-.234-1.2-.369-2.272-.663-3.304-.388-1.363-1.099-2.524-3.022-2.849 2.448-.998 4.474-2.434 7.207-2.052.919 1.092 1.078 2.488 1.497 3.928-2.385.699-3.94 2.187-5.019 4.277" fill="#db3e24"/><path d="m72.886 64.412c-.057-2.51 1.727-4.56 4.242-4.886-.086 1.331-.484 2.554-1.19 3.683-.742 1.187-1.456 1.464-3.052 1.203" fill="#f7a197"/><path d="m66.791 28.497c2.866-1.234 5.488-2.947 8.417-4.042 4.435-1.656 9.315-1.807 14.082-1.936-1.693.717-3.159 1.903-4.167 3.372 6.948-2.399 15.167-1.189 21.008 3.091.503-2.952-1.648-5.853-4.403-7.337-2.754-1.483-6.006-1.854-9.159-2.184-3.153-.329-6.403-.675-9.181-2.119.32.873.641 1.746.962 2.62-5.69-.845-11.714.517-16.377 3.704-1.956 1.337-3.69 2.984-5.828 4.046-1.801.895-3.706.607-5.429 1.148 2.312 2.293 7.464.762 10.075-.363" fill="#ddab75"/><path d="m37.636 132.471c-.437.654-.893 1.381-.784 2.147.166 1.159 1.496 1.799 2.682 2.142 1.77.511 3.61.804 5.46.87-1.246-.131-1.717-1.581-1.898-2.751-.156-1.004-.312-2.007-.467-3.01-.074-.48-.148-.975-.014-1.442.277-.963 1.319-1.516 2.267-1.962.363-.171.685-.288.999-.524-4.538-1.725-6.158 1.408-8.245 4.53" fill="#bdd2ed"/><path d="m31.72 128.094c.932-.926 1.863-1.853 2.794-2.779-1.893-.081-3.741.677-5.249 1.759s-2.726 2.476-3.93 3.856c-.637.731-1.314 1.675-.925 2.548.292.652 1.066.964 1.769 1.213 1.53.542 3.15 1.301 4.738 1.552-1.26-3.69-2.494-4.653.803-8.149" fill="#bdd2ed"/><path d="m105.501 104.697c3.264 2.61 7.424 4.207 11.694 4.488-2.018-.51-3.888-1.531-5.362-2.927 7.882 2.34 16.343 2.932 24.505 1.714-5.63-6.497-14.651-10.25-23.539-9.792 3.033 2.1 6.065 4.201 9.097 6.302-4.326 1.103-8.488-1.952-11.804-4.793 1.328 1.733 2.656 3.465 3.984 5.197-2.07.422-3.732-1.518-4.912-3.174-4.066-5.705-9.762-11.232-17.031-11.777.873 1.243.979 2.833 1.916 4.003.902 1.127 2.572 1.899 3.662 2.888 2.746 2.493 4.871 5.537 7.79 7.871" fill="#fff097"/></g></svg>