<svg clip-rule="evenodd" fill-rule="evenodd" stroke-miterlimit="10" viewBox="0 0 163 161" xmlns="http://www.w3.org/2000/svg"><path d="m10.211 11.052h141.488v138.976h-141.488z" fill="#c0a7d0" stroke="#fff" stroke-width="2"/><g fill-rule="nonzero"><path d="m59.897 73.292c.177 1.027.272 1.79.45 2.534.135.567.548.702.978.322.729-.644 1.284-1.402 1.334-2.492-.861-.114-1.676-.221-2.762-.364m19.599-4.777c-.891-1.232-1.806-2.566-2.795-3.846-1.011-1.307-1.354-2.869-1.832-4.483-1.652 1.147-3.194 2.192-4.706 3.275-.967.693-1.043 1.686-.089 2.373 1.904 1.368 3.874 2.653 5.838 3.943.27.177.657.208.999.26 1.137.174 1.986-.224 2.585-1.522m8.323 49.847c-.847 1.728-1.485 3.158-2.238 4.527-.613 1.112-1.39 2.14-2.048 3.232-.361.597-.701 1.225-.916 1.881-.229.699-.092 1.318.616 1.833.705.513 1.271 1.206 1.962 1.883 1.813-2.5 4.273-4.071 7.294-5.077-1.778-2.839-.726-5.758-.149-8.682-1.667.149-3.217.287-4.521.403m-11.503.729c-1.944 3.57-1.719 6.453.663 8.651 1.529-.32 2.953.195 4.501.744.272-1.686 1.293-2.97 2.164-4.331.568-.887 1.153-1.765 1.69-2.671.557-.94.978-1.937 1.147-3.03-1.268-.457-2.461-.888-3.846-1.387-.047.55-.063.966-.122 1.376-.06.419-.262.776-.758.773-1.472-.01-2.941.49-4.42.008-.327-.107-.695-.094-1.019-.133m-5.967 18.271c.785-3.718 2.488-6.878 5.594-9.214-2.479-2.904-2.103-5.976-.788-9.156-1.551-.371-3.002-.718-4.556-1.089.062 1.65-.531 3.034-1.392 4.334-.193.291-.375.596-.511.914-.69 1.622-1.804 2.987-2.801 4.427-.721 1.041-1.424 2.112-1.974 3.243-.988 2.034.384 3.958 1.68 4.745.797.484 1.618.932 2.441 1.376.671.362 1.36.69 2.307.42m14.304-37.791c1.45.143 2.873.297 4.299.42 1.226.106 2.424-.03 3.553-.538 1.038-.467 1.397-1.099 1.207-2.201-.419-2.434-.851-4.866-1.308-7.293-.093-.499-.29-.922-.813-1.266-1.821-1.195-3.564-2.502-5.359-3.736-.89-.612-1.829-1.161-2.763-1.749-1.337 2.795-1.177 12.772 1.184 16.363m28.343 3.453c-2.082-1.621-4.024-3.238-6.079-4.708-3.411-2.441-6.839-4.847-9.34-8.24-.47-.638-.912-.573-1.596-.029 1.261 1.999 2.471 4.031 3.806 5.982.533.779 1.345 1.379 2.027 2.063.152.152.291.317.437.476-.496.039-.921-.026-1.186-.262-.789-.702-1.657-1.381-2.239-2.232-1.359-1.988-2.568-4.072-3.906-6.226-.47-.088-1.109-.207-1.828-.342.832 4.289 1.745 8.46 1.906 12.697.625.239 1.114.456 1.623.617 1.799.572 3.66.837 5.522 1.149 2.191.368 4.376.486 6.575.418 1.431-.044 2.881-.187 4.278-1.363m-24.172 36.549c2.965 1.039 5.993.932 8.995 1.088 1.487.077 2.678-.572 3.916-1.158.723-.342 1.001-.956 1.033-1.705.05-1.157-.275-2.22-.794-3.252-.88-1.751-2.102-3.252-3.596-4.53-2.106-1.803-4.536-2.806-7.31-1.774-2.305.857-4.179 2.35-5.315 4.642 1.122 2.196 2.694 4.211 3.071 6.689m-26.054-67.222c.247-.983.358-2.933.094-3.603-.325-.828-.845-1.701-1.784-1.791-2.233-.216-4.481-.422-6.732-.04-1.455.247-2.921.59-4.407.145-.084-.026-.179-.025-.268-.021-3.325.156-6.664.176-9.943.807-1.006.194-1.985.543-2.956.877-.769.265-1.206.829-1.334 1.612.689.259.693.265.994.09.653-.383 1.3-.776 1.956-1.155.483-.278.978-.413 1.793.119-1.035.649-2.178.897-2.943 1.61-.776.724-1.93 1.182-2.135 2.38 1.252 1.036 1.448.957 2.498-.078.937-.924 2.041-1.692 3.087-2.51.34-.266.732-.314 1.115-.025.131.668-.396.801-.85.972-1.179.443-2.039 1.279-2.808 2.195-.297.353-.52.831-.593 1.28-.128.788.423 1.221 1.234 1.052.343-.073.675-.2.982-.293.38-1.524 2.274-3.86 3.585-4.465.393-.181.692-.147.839.37-1.287 1.403-3.47 2.262-3.394 4.683 1.142.123 2.001-.157 2.727-.949.474-.515 1.065-.934 1.628-1.366.644-.495 1.301-.488 1.973-.004.885.636 1.666 1.316 1.865 2.456.073.413.294.825.534 1.183.279.414.706.735 1.255.571.512-.153.708-.567.814-1.089.127-.625.32-1.27.644-1.819.448-.761.527-1.459.086-2.222-.107-.185-.245-.42-.208-.602.054-.264.204-.562.413-.723.091-.069.565.114.637.277.326.736.921.687 1.577.662 2.644-.102 5.254-.687 7.916-.521.034.002.072-.042.109-.065m.024 58.635c-.447.127-.706.19-.957.273-2.493.83-2.556 2.881-1.12 4.409 1.008 1.072 2.387 1.83 3.644 2.665 1.108.736 2.274 1.393 3.421 2.072.916.544 1.797 1.174 2.775 1.582 2.236.935 4.612 1.43 7.01 1.788 1.243.185 2.504.345 3.758.348 1.067.001 2.17-.115 3.193-.397 2.507-.692 3.903-3.208 2.901-5.529-.928-2.151-2.201-4.162-3.338-6.227-.123-.224-.322-.436-.537-.583-1.132-.774-2.293-1.508-3.422-2.286-1.371-.945-2.654-.099-3.97.136-2.222 1.656-3.562 3.894-4.438 6.413-.297.852-.428 1.76-.625 2.604-1.637.199-3.014-.143-4.28-.989-.591-.394-1.253-.687-1.861-1.06-.336-.207-.649-.461-.934-.731-1.263-1.197-1.606-2.664-1.22-4.488m33.013-48.685c-.049.111-.099.222-.148.332-.206.02-.45.118-.611.045-.814-.367-1.616-.759-2.401-1.18-.629-.338-1.229-.727-1.838-1.098-1.787-1.09-3.589-2.161-5.349-3.293-.431-.277-.811-.712-1.06-1.156-.513-.916-1.095-1.849-1.33-2.846-.303-1.293-1.16-2.021-2.175-2.694-.6-.397-.75-.371-1.054.32-.235.533-.501.644-1.127.572-.86-.099-1.758.037-2.632.139-.208.025-.555.324-.544.479.048.758-.508 1.031-.995 1.421-.599.479-1.177 1.093-.895 1.902.271.779.209 1.419-.213 2.108-.141.23-.14.616-.055.887.408 1.3 1.121 2.391 2.549 2.813 1.016.301 2.012.431 3.142.324 1.622-.153 3.328-.305 4.813.973 1.298 1.116 2.909 1.888 4.357 2.846.928.615 1.781 1.337 2.727 1.921.491.303 1.11.412 1.584.579.485.351.886.863 1.37.951 1.148.209 2.34.173 3.454-.26.76-.295 1.264-.853 1.312-1.677.027-.475.032-.973-.083-1.43-.406-1.601-.874-3.188-1.307-4.784-.805-2.966-2.235-5.681-3.698-8.37-.786-1.445-1.902-2.721-3.649-3.11-1.609-.359-3.265-.396-4.792-.186-.531.571-.575 1.344-1.345 1.574-.6-.677-.16-1.197.177-1.677.501-.715 1.01-1.411 1.054-2.161-1.297-.624-2.535-1.128-3.676-1.788-1.692-.978-3.315-2.066-4.968-3.106-.068.059-.136.118-.204.177.521.851 1.059 1.693 1.559 2.555.748 1.288 1.5 2.575 2.184 3.894.213.41.476.608.871.847 1.207.727 2.49 1.4 3.023 2.849.42 1.143.956 2.247 1.474 3.355.145.31.349.644.624.839 1.233.872 2.494 1.707 3.762 2.532.22.143.52.17.908.289-.308-.948-.567-1.727-.812-2.51-.248-.792-.635-1.569-.401-2.631.227.259.381.361.425.497.204.621.358 1.258.563 1.878.383 1.156.536 2.493 1.258 3.403.658.827 1.955 1.171 2.95 1.761.434.257.816.594 1.222.895m-26.532 17.71c-1.646 4.59-3.231 9.01-4.861 13.557.62.478 1.198 1.04 1.881 1.43 2.614 1.489 5.435 2.473 8.415 3.011.793.143 1.604.201 2.407.291 1.196.133 2.363.514 3.606.096.563-.188.811-.431.911-.959.161-.851.344-1.699.565-2.537.429-1.622.892-3.235 1.384-5.006-.756.19-1.307.333-1.86.466-.363.088-.681-.015-.671-.398.005-.155.312-.385.522-.441 2.553-.682 5.114-1.34 7.676-1.995.169-.044.362-.005.544-.005-.189.321-.425.494-.69.588-.463.166-1.053.163-1.396.448-.668.555-1.424.662-2.227.78-.731.107-1.171.515-1.337 1.272-.315 1.442-.722 2.866-1.088 4.297-.075.294-.141.59-.207.867 1.266.944 4.187 1.673 5.78 1.479 1.472-.178 2.945-.338 4.418-.503 1.16-.131 1.832-.813 1.872-1.944.018-.522.014-1.05-.042-1.569-.239-2.204-.537-4.402-.745-6.608-.163-1.737-.218-3.482-.339-5.223-.027-.38-.129-.754-.205-1.172-.307.045-.531.05-.734.113-1.517.469-3.027.642-4.634.354-1.017-.182-2.105-.392-3.32.028.773 1.482 1.49 2.928 2.28 4.335.325.578.326.959-.126 1.183-1.375-.338-2.594-.592-3.783-.94-2.097-.613-4.211-1.193-6.249-1.96-1.416-.534-2.687-1.416-4.075-2.032-1.127-.5-2.331-.835-3.672-1.303m-7.467-22.778c.729.066 1.212.121 1.696.151 2.02.126 4.039.248 6.06.362.788.045 1.314.37 1.497 1.148h-2.16c-1.129 2.425-3.194 17.339-2.744 19.968.325.045.672.114 1.023.138 2.727.188 5.288.834 7.683 2.194 2.45 1.392 5.112 2.359 7.864 3.051.954.239 1.917.615 3.072.363-3.812-6.981-5.221-14.224-3.409-22.005-.574-.142-1.071-.266-1.689-.418-2.08 4.153-4.116 8.219-6.152 12.285l-.283-.097c.101-.355.158-.728.31-1.062 1.477-3.263 2.973-6.519 4.454-9.781.15-.328.24-.681.357-1.023-1.101.335-1.374 1.34-2.051 1.985-.703.671-1.25 1.494-1.957 2.159-.706.664-1.477 1.29-2.309 1.795-.778.472-1.478 1.179-2.801 1.263 1.269-1.515 3.024-2.011 4.143-3.24 1.15-1.262 2.284-2.537 3.494-3.885-.757-.195-1.322-.334-1.882-.489-1.649-.455-2.928-1.25-3.323-3.04-.172-.778-.432-1.496-.05-2.279.107-.22.113-.521.071-.77-.219-1.314.267-2.374 1.166-3.321.197-.208.295-.51.42-.777.208-.446.402-.898.646-1.448-.112-.094-.327-.313-.578-.48-1.15-.763-2.334-1.481-3.46-2.276-1.082-.763-2.151-1.558-2.752-2.838-.538.08-1.032.114-1.503.233-1.139.288-2.268.498-3.463.357-.495-.059-1.019.114-1.772.214.468.408.731.629.985.86.889.809 1.422 1.777 1.419 2.986-.002.743 0 1.486.02 2.229.056 1.989-.485 3.781-2.042 5.488m19.433-44.282c-.198.839-.358 1.74-.625 2.61-.658 2.143-1.698 4.125-2.884 6.032-.507.817-1.048 1.629-1.681 2.356-.927 1.065-2.171 1.929-2.871 3.107-.698 1.174-.891 2.63-1.307 3.962-.013.042-.04.078-.058.118-.199.45-.085 1.102-.829 1.201-.719.095-.702-.544-.966-.903-1.426-1.947-4.178-1.839-5.211.439-.6 1.325-.221 2.529.637 3.64.752.973 1.88 1.311 2.988 1.679 1.347.449 2.39.148 3.35-.9.219-.239.517-.409.805-.632.195.466.263.886.505 1.165 1.183 1.366 2.286 2.812 3.822 3.856 1.212.824 2.385 1.704 3.619 2.498 1.047.674 2.085 1.47 3.252 1.836 1.737.544 3.584.764 5.388 1.104.482.09.981.18 1.467.156 2.252-.11 4.507-.194 6.749-.412 2.903-.282 5.461-1.382 7.623-3.319 1.57-1.407 2.853-3.035 4.006-4.761.85-1.273 1.355-2.651 1.082-4.21-.113-.642-.174-1.293-.282-1.935-.273-1.627-.505-3.263-.854-4.874-.386-1.781-.979-3.523-1.302-5.312-.219-1.216-.77-2.226-1.499-3.156-1.059-1.35-2.181-2.592-3.935-3.258-1.352-.513-2.671-.914-4.111-1.121-1.905-.273-3.774-.774-5.657-1.186-.523-.114-1.045-.238-1.556-.395-1.039-.318-2.069-.662-3.3-1.058.425.584.724.967.992 1.37.472.708.799 1.462.735 2.333-.113 1.551-1.163 2.158-2.51 1.373-1.883-1.097-3.722-2.265-5.582-3.403m29.594 10.361c-1.35-.464-1.4-.746-.464-1.862.365-.436.678-.927.93-1.432.375-.751.199-1.417-.395-1.822-.755-.515-.769-.921-.03-1.473.427-.32.879-.611 1.315-.921 1.229-.876 1.788-2.177 2.197-3.51.322-1.05-.258-1.676-1.383-1.731-.269-.014-.549.064-.81.021-.616-.102-1.286-.137-1.823-.406-1.035-.519-2.042-1.118-2.974-1.797-1.991-1.45-3.604-3.282-5.195-5.118-2.029-2.342-4.395-4.255-7.385-5.289-2.829-.98-5.777-1.574-8.729-2.103-1.229-.221-2.512-.152-3.75-.344-2.084-.322-4.136-.125-6.16.293-2.638.545-4.885 1.928-7.052 3.412-.931.638-1.706 1.424-1.521 2.689.008.05-.112.117-.208.21-.698-.025-1.01-.337-.915-1.072.12-.932.044-1.856-.228-2.846-1.716 1.045-2.923 2.202-2.724 4.266.097 1.005-.244 1.259-1.393 1.226-1.907-.055-3.219.841-4.237 2.279.58.656.578.667 1.254.585.882-.108 1.752-.119 2.505.276-.593.807-1.264 1.516-1.695 2.343-2.073 3.98-2.254 8.19-1.393 12.481.407 2.021 1.329 3.879 2.369 5.655.787 1.341 1.681 2.641 2.923 3.782.851-1.109 1.877-1.869 3.231-2.017 1.41-.153 2.548.616 3.684 1.272.623-.943 1.037-2.042 1.084-3.097.032-.705.226-1.31.867-1.672 1.644-.927 2.79-2.352 3.762-3.838 1.127-1.72 2.096-3.566 2.882-5.456.606-1.459 1.149-3.033.533-4.682-.187-.5.056-.876.477-1.173 2.727 2.88 5.801 4.891 7.577 4.971.514-.507.558-1.041.142-1.64-.8-1.155-1.553-2.343-2.383-3.477-.269-.367-.452-.724-.162-1.053.326-.37.694-.114 1.076.093 1.015.551 2.032 1.135 3.117 1.528 2.874 1.042 5.889 1.568 8.913 1.983 2.008.275 3.838.978 5.539 1.955 1.704.979 2.836 2.569 3.636 4.264.626 1.325.841 2.83 1.259 4.249.297 1.011.357 2.097.955 3.139.803-1.017.981-2.038.782-3.141m-50.744-15.932c-.776.178-1.421.326-2.093.479-.752-.435-.912-1.227-1.215-1.925.569-1.075 1.394-1.921 2.447-2.419 1.023-.483 2.18-.702 3.425-1.081-.231-1.37.303-2.584 1.364-3.565.833-.77 1.741-1.458 3.008-1.954.135.966.245 1.756.376 2.7 1.5-1.611 3.392-2.487 5.223-3.456 3.173-1.681 6.574-1.844 10.098-1.597 2.703.188 5.322.78 7.966 1.23 2.611.444 5.217 1.142 7.436 2.606 1.587 1.048 3.065 2.299 4.404 3.636 1.846 1.842 3.422 3.935 5.572 5.492 1.415 1.026 2.814 1.981 4.733 1.937 1.17-.026 2.263.381 2.566 1.688.103.445.13.949.023 1.388-.359 1.481-1.137 2.74-2.339 3.74-.34.283-.669.577-1.051.907.092.212.142.422.259.588.45.639.502 1.318.164 1.991-.673 1.339-.915 2.675-.711 4.203.168 1.261-.205 2.554-1.322 3.519-.233.201-.177.802-.131 1.204.212 1.816.446 3.629.717 5.437.229 1.534-.424 2.861-1.175 4.071-.851 1.37-1.932 2.617-3.003 3.843-1.597 1.83-3.631 3.112-5.924 3.972-.917.343-1.902.614-2.876.697-2.822.24-5.652.415-8.483.509-.877.03-1.765-.286-2.649-.436-.218-.037-.441-.045-.722-.072-.138.273-.27.532-.397.784.127.081.197.163.269.166.584.024 1.17.064 1.753.041 2.753-.109 4.804 1.086 6.169 3.301 1.007 1.635 1.948 3.338 2.646 5.112 1.084 2.756 1.958 5.59 2.867 8.408.224.693.346 1.453.319 2.176-.04 1.056-.644 1.884-1.593 2.503.896 1.709 2.253 2.994 3.708 4.151 2.121 1.684 4.338 3.253 6.511 4.876.891.665 1.793 1.318 2.657 2.016 1.1.886 2.082 1.935 3.663 2.118-1.218 2.21-3.193 2.824-5.385 2.921-3.253.143-6.476-.116-9.636-.942-1.511-.395-3.032-.754-4.557-1.131.126 2.714.204 5.485.405 8.247.112 1.558.421 3.104.655 4.653.117.769.078.754-.761.911-.685.129-1.336.43-2.152.706-.277 1.486-.673 2.965-.8 4.465-.12 1.418-.099 2.899 1.018 4.057.261.271.597.571.948.65 4.07.918 6.617 3.526 8.364 7.012.72 1.437.999 2.989.802 4.574-.057.464-.358 1.049-.743 1.301-1.576 1.032-3.283 1.662-5.268 1.662-2.964 0-5.882-.323-8.764-.806-.399.595-.808 1.118-1.122 1.689-.977 1.773-2.644 2.302-4.551 2.615-3.17.52-6.178-.23-9.204-.888-1.667-.362-3.333-.761-4.824-1.627-.502-.291-1.006-.58-1.5-.883-1.596-.975-3.199-1.942-4.779-2.941-.792-.501-1.554-1.049-2.304-1.608-.807-.602-1.321-1.375-1.579-2.361-.478-1.824.085-3.154 1.861-3.958.649-.294 1.369-.44 2.023-.723.343-.147.698-.392.905-.686 1.033-1.471 2.06-2.951 3.012-4.472 1.094-1.744 2.179-3.506 2.709-5.509.143-.538.152-1.107.228-1.708-.974-.419-1.903-.748-2.757-1.207-1.015-.547-2.009-1.151-2.93-1.835-.784-.582-.888-1.095-.422-1.961 1.507-2.796 2.118-5.904 3.34-8.797.508-1.202 1.016-2.404 1.604-3.797-.939 0-1.782-.027-2.623.007-1.002.039-1.172-.104-1.133-1.103.007-.174-.01-.361.048-.52.412-1.126.484-2.29.515-3.474.039-1.525.066-3.061.279-4.568.291-2.065.691-4.12 1.161-6.154.413-1.79.655-3.584.748-5.542-1.558-.11-3.026-.275-4.497-.302-2.837-.054-3.108-.229-3.702-2.87-.132-.59-.256-1.183-.407-1.881-1.681.136-3.363.273-5.094.413-.177 1.226-.893 2.197-.987 3.424-.072.932-.73 1.774-1.833 2.044-1.674.411-2.091-.009-2.558-1.13-.335-.805-.717-1.605-1.197-2.334-.763-1.155-1.307-1.203-2.382-.348-.486.387-.943.809-1.439 1.182-.35.263-.722.524-1.125.694-1.194.504-1.971.34-2.876-.537-2.163.606-2.683.632-2.957-2.027-1.254-.089-2.261-.529-2.514-1.998.33-.428.702-.912 1.111-1.443-.129-.175-.273-.335-.374-.517-.474-.846-.367-1.555.337-2.255.852-.848 1.956-1.239 3.099-1.517 2.103-.51 4.262-.625 6.409-.857 2.304-.249 4.579-.181 6.873-.013.705.052 1.428-.152 2.145-.206 1.839-.136 3.68-.253 5.659-.387.213-.435.64-.786 1.357-.812.529-.019 1.045-.247 1.576-.33.395-.061.838-.147 1.2-.038 1.726.52 3.257-.359 4.878-.567.084-.011.191-.046.238-.106 1.39-1.76 3.43-2.763 5.14-4.15.065-.053.097-.144.188-.286-.163-.813-.825-1.343-1.348-1.919-.858.275-1.639.661-2.457.763-2.854.357-6.691-1.793-6.611-5.535.008-.355-.121-.803-.359-1.058-1.791-1.929-3.188-4.083-4.223-6.475-1.46-3.372-1.838-6.841-1.456-10.479.28-2.665 1.205-5.029 2.696-7.396" fill="#231f20"/><path d="m110.835 43.312c.199 1.103.021 2.124-.783 3.141-.598-1.042-.657-2.128-.955-3.139-.418-1.419-.632-2.924-1.258-4.249-.801-1.695-1.932-3.285-3.637-4.264-1.7-.977-3.531-1.68-5.538-1.955-3.025-.415-6.04-.941-8.913-1.983-1.085-.393-2.102-.977-3.118-1.528-.381-.207-.75-.463-1.076-.093-.289.329-.107.686.162 1.053.831 1.134 1.583 2.322 2.384 3.477.415.599.372 1.133-.142 1.64-1.777-.08-4.851-2.091-7.578-4.971-.421.297-.663.673-.476 1.173.616 1.649.073 3.223-.534 4.682-.786 1.89-1.755 3.736-2.881 5.456-.973 1.486-2.119 2.911-3.762 3.838-.642.362-.835.967-.867 1.672-.047 1.055-.461 2.154-1.085 3.097-1.135-.656-2.274-1.425-3.684-1.272-1.353.148-2.38.908-3.231 2.017-1.242-1.141-2.136-2.441-2.922-3.782-1.04-1.776-1.963-3.634-2.369-5.656-.862-4.29-.68-8.5 1.393-12.48.431-.827 1.102-1.536 1.694-2.343-.752-.395-1.623-.384-2.505-.276-.675.082-.673.071-1.254-.585 1.019-1.438 2.331-2.334 4.238-2.279 1.149.033 1.49-.221 1.393-1.226-.199-2.064 1.007-3.221 2.723-4.266.273.99.349 1.914.228 2.846-.094.734.218 1.047.915 1.072.096-.093.216-.16.209-.21-.185-1.265.589-2.051 1.521-2.689 2.167-1.484 4.414-2.867 7.052-3.412 2.023-.418 4.075-.615 6.159-.293 1.238.192 2.521.123 3.751.344 2.951.529 5.9 1.123 8.729 2.103 2.989 1.034 5.355 2.947 7.385 5.289 1.59 1.836 3.203 3.668 5.194 5.118.932.679 1.939 1.278 2.975 1.797.537.269 1.206.304 1.823.406.261.043.54-.035.809-.021 1.126.055 1.706.681 1.383 1.731-.408 1.332-.967 2.634-2.197 3.51-.436.31-.887.601-1.315.921-.738.552-.725.958.03 1.473.594.405.771 1.071.396 1.822-.252.505-.566.996-.93 1.432-.937 1.116-.887 1.398.464 1.862" fill="#c48e53"/><path d="m85.039 40.214c.596-.931 1.16-1.814 1.722-2.691-.382-.368-.732-.236-.933.084-.485.773-1.329 1.461-.789 2.607m15.725-2.841c-.595-1.258-1.631-1.712-2.788-1.968-.169-.038-.403.197-.607.306.134.198.224.501.412.577.924.374 1.873.689 2.983 1.085m-31.177 17.659c.836-.461.795-1.01.447-1.499-.413-.579-.753-1.36-1.699-1.259-.971.103-1.568.838-1.768 2.114.975.169.796-1.132 1.95-1.118.633.07.773.9 1.07 1.762m19.81-8.314c.696-1.049.581-3.112-.177-3.836-.335-.32-.72-.208-.923.11-.474.744-.467 1.532-.218 2.387.201.694.438 1.222 1.318 1.339m12.37-1.016c.804-.261.97-.914.782-1.566-.215-.738-.566-1.461-.983-2.115-.418-.655-.922-.565-1.274.133-.661 1.313-.084 2.711 1.475 3.548m-6.677 2.446c.451-.239.841-.444 1.23-.65.805-.428 1.61-.465 2.435-.035.78.406 1.383 1.37 1.226 2.005-.207.838-1.141 1.454-2.173 1.411-.263-.012-.522-.098-.786-.139-.384-.06-.769-.109-1.219-.172.049 1.11.907 1.072 1.534 1.235 2.019.527 3.993-1.159 3.594-3.123-.111-.544-.561-1.069-.97-1.502-1.25-1.325-3.312-1.368-4.675-.153-.308.274-.615.545-.196 1.123m-9.823 4.689c.664.862.937 1.815 1.309 2.731.728 1.791 1.925 3.334 3.642 4.227 2.869 1.493 5.939 1.548 8.982.382.568-.217 1.097-.59 1.561-.984.36-.305.66-.739.29-1.34-.245.208-.458.421-.703.589-.472.324-.922.758-1.453.907-1.851.518-3.716.99-5.683.483-2.063-.531-3.904-1.37-4.975-3.263-.687-1.214-1.266-2.487-1.853-3.751-.092-.197.056-.488.052-.735-.003-.27-.053-.54-.083-.809-.283.08-.615.096-.838.254-.541.385-1.06.81-1.525 1.278-.133.135-.049.471-.078.938.59-.395.946-.634 1.355-.907m-4.026-19.886c1.86 1.138 3.699 2.306 5.582 3.404 1.347.784 2.397.177 2.51-1.373.063-.872-.263-1.626-.735-2.334-.268-.403-.567-.786-.992-1.37 1.231.396 2.261.74 3.3 1.058.51.157 1.033.281 1.556.396 1.883.411 3.752.912 5.657 1.185 1.44.207 2.759.609 4.11 1.121 1.755.666 2.877 1.908 3.935 3.259.729.929 1.281 1.939 1.5 3.155.323 1.789.916 3.531 1.302 5.312.349 1.612.581 3.247.854 4.874.108.642.169 1.293.282 1.935.273 1.559-.232 2.937-1.083 4.21-1.152 1.726-2.435 3.354-4.005 4.761-2.162 1.937-4.72 3.037-7.623 3.319-2.242.218-4.498.302-6.749.412-.486.024-.985-.065-1.467-.156-1.804-.34-3.651-.56-5.388-1.104-1.167-.366-2.206-1.162-3.252-1.836-1.234-.794-2.407-1.674-3.62-2.498-1.535-1.044-2.638-2.489-3.821-3.856-.242-.279-.31-.699-.505-1.165-.288.223-.586.393-.805.632-.96 1.048-2.003 1.349-3.35.901-1.108-.369-2.236-.707-2.988-1.68-.858-1.111-1.237-2.315-.637-3.64 1.033-2.278 3.785-2.386 5.211-.439.264.359.247.998.966.903.744-.099.63-.75.829-1.201.017-.04.045-.076.057-.118.417-1.332.61-2.787 1.308-3.962.7-1.178 1.944-2.042 2.871-3.107.633-.727 1.174-1.539 1.681-2.356 1.186-1.907 2.226-3.889 2.884-6.032.267-.87.427-1.771.625-2.61" fill="#fdd8bd"/><path d="m61.808 77.233c1.558-1.707 2.098-3.499 2.042-5.488-.02-.743-.021-1.486-.02-2.229.003-1.209-.53-2.177-1.418-2.986-.254-.231-.518-.452-.985-.86.752-.1 1.276-.272 1.771-.214 1.195.141 2.325-.069 3.464-.357.47-.119.964-.153 1.502-.233.602 1.28 1.67 2.075 2.752 2.838 1.126.795 2.31 1.513 3.46 2.277.252.167.466.385.578.479-.244.55-.438 1.002-.646 1.448-.125.267-.222.569-.42.777-.899.947-1.385 2.007-1.165 3.321.042.249.036.55-.072.77-.382.783-.121 1.501.05 2.279.396 1.79 1.674 2.585 3.324 3.04.56.155 1.125.294 1.881.49-1.21 1.347-2.344 2.622-3.494 3.884-1.119 1.229-2.874 1.725-4.143 3.241 1.323-.084 2.023-.791 2.802-1.264.831-.505 1.603-1.13 2.309-1.795s1.254-1.488 1.956-2.159c.678-.645.951-1.65 2.052-1.985-.118.342-.208.695-.357 1.023-1.482 3.262-2.978 6.518-4.455 9.781-.151.334-.208.707-.31 1.062l.283.097c2.036-4.066 4.072-8.132 6.153-12.285.617.152 1.115.276 1.688.418-1.812 7.781-.402 15.025 3.409 22.005-1.155.252-2.117-.124-3.072-.363-2.752-.692-5.414-1.659-7.863-3.051-2.395-1.36-4.956-2.006-7.684-2.193-.351-.025-.698-.094-1.023-.139-.45-2.629 1.615-17.543 2.745-19.968h2.159c-.182-.778-.709-1.103-1.497-1.148-2.02-.114-4.04-.236-6.059-.362-.485-.03-.968-.085-1.697-.151" fill="#fff"/><path d="m69.275 100.011c1.34.468 2.544.804 3.671 1.303 1.389.616 2.66 1.498 4.076 2.032 2.037.767 4.152 1.347 6.248 1.96 1.19.348 2.408.602 3.784.94.451-.224.45-.605.126-1.182-.791-1.407-1.507-2.854-2.28-4.336 1.214-.42 2.303-.21 3.32-.028 1.606.289 3.117.116 4.633-.354.204-.063.427-.067.735-.113.075.418.178.793.205 1.172.121 1.741.175 3.486.339 5.223.207 2.206.505 4.404.745 6.608.056.519.06 1.047.042 1.569-.04 1.131-.713 1.813-1.872 1.944-1.473.165-2.947.325-4.418.504-1.594.194-4.514-.536-5.781-1.479.067-.278.133-.574.208-.867.366-1.432.772-2.855 1.088-4.297.166-.758.606-1.166 1.337-1.273.802-.118 1.559-.225 2.227-.78.343-.285.932-.281 1.396-.447.265-.095.501-.267.69-.589-.183 0-.375-.038-.545.005-2.561.655-5.122 1.313-7.676 1.995-.209.056-.517.286-.521.441-.01.383.308.487.671.399.552-.134 1.104-.277 1.86-.467-.492 1.771-.955 3.385-1.384 5.007-.222.837-.404 1.686-.566 2.536-.1.528-.348.771-.911.96-1.243.418-2.409.036-3.605-.097-.804-.09-1.614-.147-2.407-.291-2.981-.538-5.801-1.522-8.415-3.011-.683-.39-1.262-.952-1.881-1.43 1.63-4.546 3.215-8.967 4.861-13.557" fill="#3f71a5"/><path d="m95.807 82.301c-.406-.301-.789-.639-1.223-.896-.994-.589-2.291-.933-2.949-1.761-.722-.909-.875-2.246-1.258-3.402-.205-.621-.36-1.257-.563-1.878-.044-.136-.198-.238-.425-.497-.234 1.061.152 1.838.4 2.631.246.783.505 1.562.813 2.51-.388-.119-.688-.146-.908-.29-1.268-.824-2.53-1.66-3.762-2.532-.275-.194-.479-.529-.625-.839-.517-1.107-1.053-2.211-1.473-3.354-.533-1.449-1.816-2.123-3.023-2.85-.395-.238-.658-.436-.871-.846-.684-1.319-1.436-2.606-2.184-3.894-.5-.862-1.038-1.705-1.559-2.555.068-.059.136-.118.204-.177 1.653 1.04 3.276 2.128 4.968 3.106 1.141.659 2.378 1.164 3.676 1.788-.044.75-.553 1.446-1.054 2.161-.337.48-.777 1-.177 1.677.77-.23.814-1.003 1.345-1.574 1.527-.21 3.183-.174 4.792.185 1.747.39 2.863 1.666 3.649 3.111 1.462 2.689 2.893 5.404 3.698 8.37.433 1.596.901 3.182 1.306 4.784.116.457.111.955.084 1.429-.048.824-.552 1.383-1.312 1.678-1.114.433-2.306.468-3.454.259-.484-.088-.886-.599-1.37-.95-.474-.167-1.093-.276-1.584-.579-.946-.585-1.799-1.307-2.727-1.921-1.448-.958-3.059-1.73-4.357-2.847-1.485-1.277-3.191-1.125-4.813-.972-1.13.107-2.126-.023-3.142-.324-1.428-.422-2.141-1.513-2.549-2.813-.085-.271-.086-.658.054-.887.423-.69.485-1.329.214-2.108-.282-.809.296-1.423.894-1.902.488-.39 1.044-.664.995-1.421-.01-.155.337-.454.545-.479.874-.102 1.771-.239 2.632-.139.626.072.892-.039 1.127-.572.304-.692.454-.718 1.054-.32 1.015.673 1.871 1.4 2.175 2.693.235.997.817 1.93 1.33 2.847.249.444.629.879 1.06 1.156 1.76 1.132 3.561 2.202 5.349 3.293.609.371 1.209.76 1.837 1.097.786.422 1.588.814 2.402 1.181.161.073.405-.025.611-.045.049-.11.099-.221.148-.332" fill="#fdd8bd"/><path d="m62.794 130.987c-.386 1.824-.044 3.291 1.22 4.487.285.271.597.525.934.731.608.373 1.27.666 1.861 1.061 1.265.846 2.642 1.187 4.279.989.198-.844.328-1.752.625-2.604.877-2.519 2.216-4.757 4.439-6.413 1.315-.235 2.599-1.082 3.969-.137 1.129.779 2.29 1.513 3.423 2.286.215.147.413.359.537.584 1.136 2.064 2.409 4.076 3.338 6.226 1.001 2.322-.395 4.837-2.901 5.529-1.023.282-2.127.399-3.194.397-1.253-.002-2.514-.162-3.757-.347-2.398-.358-4.775-.853-7.01-1.788-.978-.409-1.859-1.039-2.775-1.582-1.148-.68-2.314-1.336-3.422-2.072-1.257-.835-2.636-1.593-3.643-2.665-1.437-1.528-1.374-3.579 1.119-4.409.252-.084.511-.146.958-.273" fill="#6abfeb"/><path d="m62.77 72.351c-.036.022-.074.067-.109.064-2.662-.166-5.272.42-7.916.522-.655.025-1.251.074-1.576-.662-.072-.163-.547-.346-.637-.277-.21.161-.36.458-.414.723-.036.182.101.417.208.602.441.763.362 1.461-.086 2.222-.324.549-.516 1.194-.644 1.819-.106.522-.301.936-.813 1.089-.549.164-.976-.157-1.255-.571-.241-.358-.462-.77-.534-1.183-.2-1.14-.981-1.82-1.866-2.456-.671-.484-1.329-.491-1.973.004-.562.432-1.154.851-1.627 1.366-.726.792-1.585 1.072-2.727.949-.077-2.421 2.107-3.28 3.393-4.683-.146-.517-.445-.551-.839-.37-1.311.605-3.204 2.941-3.585 4.465-.307.093-.638.22-.982.293-.81.169-1.362-.264-1.233-1.052.073-.449.295-.927.592-1.281.769-.916 1.63-1.751 2.809-2.194.454-.171.98-.304.85-.972-.384-.29-.776-.241-1.116.025-1.045.818-2.149 1.586-3.087 2.51-1.05 1.035-1.245 1.114-2.498.078.205-1.198 1.359-1.656 2.136-2.38.765-.713 1.908-.962 2.943-1.61-.815-.532-1.311-.397-1.793-.119-.656.379-1.303.772-1.957 1.155-.301.175-.304.169-.993-.09.127-.783.564-1.347 1.333-1.612.972-.334 1.951-.684 2.956-.877 3.28-.631 6.619-.651 9.943-.807.089-.004.185-.005.269.02 1.486.446 2.952.103 4.407-.144 2.251-.382 4.499-.176 6.732.039.939.091 1.459.964 1.784 1.791.263.671.153 2.621-.095 3.604" fill="#fdd8bd"/><path d="m88.824 139.573c-.377-2.478-1.95-4.493-3.071-6.689 1.136-2.291 3.01-3.785 5.315-4.642 2.774-1.031 5.203-.029 7.31 1.774 1.493 1.279 2.716 2.78 3.596 4.53.518 1.032.844 2.095.794 3.253-.032.749-.311 1.362-1.033 1.704-1.239.587-2.429 1.235-3.916 1.158-3.002-.156-6.03-.048-8.995-1.088" fill="#6abfeb"/><path d="m112.996 103.024c-1.397 1.176-2.847 1.319-4.278 1.363-2.199.068-4.385-.05-6.575-.418-1.862-.312-3.723-.577-5.522-1.149-.509-.161-.999-.378-1.623-.617-.161-4.237-1.074-8.408-1.906-12.697.719.135 1.358.254 1.828.342 1.338 2.154 2.547 4.238 3.906 6.226.582.851 1.45 1.53 2.239 2.232.265.236.69.301 1.185.262-.145-.159-.284-.324-.436-.476-.682-.684-1.494-1.284-2.027-2.063-1.335-1.951-2.545-3.983-3.806-5.982.684-.544 1.126-.609 1.596.029 2.501 3.393 5.929 5.8 9.34 8.24 2.055 1.47 3.997 3.087 6.079 4.708" fill="#fff"/><path d="m85.558 97.179c.48-.735.71-1.376.56-1.884-.069-.235-.314-.42-.503-.658-.885 1.133-.872 1.996-.057 2.542m-.905 2.392c-2.361-3.591-2.521-13.568-1.184-16.363.934.589 1.873 1.137 2.763 1.749 1.795 1.235 3.537 2.541 5.359 3.737.523.343.719.767.813 1.265.457 2.428.889 4.86 1.308 7.293.19 1.102-.17 1.734-1.207 2.201-1.129.509-2.327.644-3.553.538-1.426-.123-2.849-.277-4.299-.42" fill="#fdd8bd"/><path d="m69.107 132.354c-.156-.112-.275-.244-.425-.298-1.465-.53-1.704-1.314-.76-2.515.26-.33.675-.613.4-1.12-.761.004-1.473.609-1.813 1.524-.281.76.04 1.698.798 2.324.566.467 1.067.502 1.8.085m1.242 5.009c-.947.27-1.637-.058-2.308-.421-.822-.443-1.643-.891-2.44-1.375-1.296-.787-2.668-2.711-1.68-4.746.55-1.131 1.252-2.201 1.974-3.242.997-1.44 2.111-2.805 2.801-4.427.136-.319.317-.624.51-.915.861-1.3 1.454-2.683 1.392-4.334 1.555.372 3.006.719 4.557 1.089-1.316 3.18-1.691 6.252.788 9.156-3.106 2.337-4.809 5.496-5.594 9.215" fill="#fdd8bd"/><path d="m85.758 126.533c-.769-.158-1.054.13-1.14.7-.144.951.139 1.757.762 2.074.432.221.767.143.986-.428-1.198-.465-.506-1.472-.608-2.346m2.061-8.171c1.303-.116 2.854-.254 4.521-.402-.577 2.923-1.629 5.843.148 8.681-3.02 1.006-5.48 2.577-7.293 5.077-.691-.677-1.257-1.37-1.962-1.883-.708-.515-.846-1.134-.617-1.833.216-.656.556-1.283.917-1.881.658-1.091 1.434-2.119 2.047-3.232.754-1.369 1.391-2.798 2.239-4.527" fill="#fdd8bd"/><path d="m79.496 68.515c-.598 1.298-1.448 1.696-2.585 1.522-.341-.052-.729-.083-.999-.26-1.964-1.29-3.934-2.575-5.838-3.944-.954-.686-.877-1.679.089-2.372 1.513-1.083 3.054-2.129 4.706-3.275.478 1.614.821 3.176 1.832 4.483.989 1.28 1.904 2.614 2.795 3.846" fill="#fff"/><path d="m59.897 73.292c1.086.143 1.901.25 2.762.364-.05 1.09-.605 1.848-1.334 2.492-.43.38-.843.245-.978-.322-.178-.744-.273-1.507-.45-2.534" fill="#fff"/><path d="m85.267 52.837c-.408.273-.764.512-1.355.907.03-.467-.055-.803.079-.937.464-.469.983-.893 1.525-1.278.223-.159.555-.174.837-.255.03.27.081.539.084.809.003.247-.144.538-.053.735.587 1.265 1.167 2.537 1.854 3.752 1.07 1.892 2.911 2.731 4.974 3.263 1.967.506 3.832.034 5.684-.484.531-.148.98-.583 1.453-.907.245-.168.457-.381.702-.589.371.602.07 1.035-.29 1.341-.463.393-.993.766-1.56.984-3.043 1.166-6.114 1.11-8.983-.383-1.717-.892-2.914-2.436-3.641-4.226-.373-.917-.646-1.869-1.31-2.732" fill="#231f20"/><path d="m95.09 48.148c-.419-.577-.111-.849.196-1.123 1.363-1.215 3.425-1.172 4.676.154.408.433.858.957.969 1.501.399 1.965-1.574 3.65-3.594 3.124-.627-.164-1.484-.126-1.534-1.236.45.063.835.113 1.22.172.263.041.522.128.785.139 1.032.044 1.966-.572 2.173-1.41.157-.636-.446-1.599-1.226-2.006-.825-.429-1.629-.393-2.435.035-.389.206-.778.411-1.23.65" fill="#231f20"/><path d="m101.767 45.702c-1.559-.837-2.136-2.235-1.475-3.548.352-.699.856-.788 1.274-.134.417.655.768 1.378.983 2.116.188.652.022 1.304-.782 1.566" fill="#231f20"/><path d="m89.397 46.718c-.881-.117-1.117-.645-1.319-1.339-.248-.855-.255-1.642.219-2.387.203-.318.587-.43.923-.11.758.724.873 2.787.177 3.836" fill="#231f20"/><path d="m69.587 55.032c-.297-.863-.437-1.692-1.07-1.763-1.154-.013-.974 1.288-1.95 1.119.2-1.276.797-2.011 1.769-2.115.945-.1 1.285.681 1.698 1.259.348.489.389 1.039-.447 1.5" fill="#231f20"/><path d="m100.764 37.373c-1.11-.396-2.06-.71-2.983-1.085-.188-.076-.278-.379-.413-.577.205-.109.438-.343.608-.306 1.157.256 2.193.711 2.788 1.968" fill="#231f20"/><path d="m85.039 40.214c-.54-1.146.304-1.834.789-2.607.201-.32.551-.452.933-.084-.562.877-1.126 1.76-1.722 2.691" fill="#231f20"/><path d="m85.558 97.179c-.815-.546-.828-1.409.057-2.542.189.238.434.423.503.658.15.508-.08 1.149-.56 1.884" fill="#231f20"/><path d="m69.107 132.354c-.733.417-1.234.382-1.8-.085-.758-.626-1.079-1.564-.798-2.324.34-.915 1.052-1.52 1.813-1.524.275.507-.14.79-.4 1.12-.944 1.201-.705 1.985.76 2.515.15.054.269.186.425.298" fill="#231f20"/><path d="m85.758 126.533c.102.874-.59 1.881.608 2.346-.219.571-.554.649-.986.428-.623-.317-.906-1.123-.762-2.074.086-.57.371-.858 1.14-.7" fill="#231f20"/><path d="m74.008 27.1c-.232-1.704-.632-3.387-1.192-5.018 4.497 1.685 9.154 2.967 13.894 3.823-.444-1.025-.888-2.05-1.332-3.075 4.969-1.102 9.822 1.887 14.012 4.697 4.19 2.811 9.128 5.723 14.056 4.461-5.795-1.061-9.622-6.267-14.482-9.502-3.465-2.306-7.533-3.629-11.637-4.519-3.378-.733-6.882-1.192-10.301-.66-3.376.524-6.655 2.111-8.689 4.832.142-.047.332-.189.486-.246.576 1.136 1.055 2.34 1.993 3.3.311.319 3.19 1.893 3.192 1.907" fill="#ddab75"/><path d="m81.211 136.744c.073 1.076-.035 2.192-.547 3.149-.513.957-1.486 1.728-2.597 1.808.611.824 1.82.934 2.868.894 1.031-.039 2.08-.153 3.026-.555.945-.402 1.785-1.128 2.104-2.078.411-1.219-.081-2.538-.626-3.707-.716-1.537-1.548-3.047-2.727-4.288-.815-.859-5.877-4.054-5.348-1.398.103.517 2.16 1.748 2.57 2.343.769 1.118 1.187 2.5 1.277 3.832" fill="#bdd2ed"/><path d="m96.466 133.014c.688 1.109 1.104 2.536.483 3.682-.577 1.066-1.871 1.578-2.625 2.535 1.313.516 2.8.164 4.169-.194 1.15-.301 2.513-.82 2.689-1.961.063-.405-.049-.815-.178-1.205-.822-2.461-2.461-4.662-4.616-6.194-1.135-.807-4.975-2.365-5.217-.061 2.261-.146 4.176 1.595 5.295 3.398" fill="#bdd2ed"/></g></svg>