<svg clip-rule="evenodd" fill-rule="evenodd" stroke-miterlimit="10" viewBox="0 0 163 161" xmlns="http://www.w3.org/2000/svg"><path d="m10.472 11.168h141.488v138.977h-141.488z" fill="#c0a7d0" stroke="#fff" stroke-width="2"/><g fill-rule="nonzero"><path d="m29.505 82.686c.105-.055.211-.111.317-.166-.248-.73-.477-1.466-.751-2.188-.132-.35-.383-.535-.846-.103.417.8.848 1.629 1.28 2.457m3.771 18.345c-.193 1.18-.371 2.275-.559 3.434.451.103.803.183 1.303.297.127-1.011.227-1.912.357-2.81.09-.628-.339-.778-1.101-.921m5.155-18.943c1.667-.149 3.104-.276 4.584-.408 0-1.346.157-2.555-.039-3.712-.263-1.553-.24-1.56-1.803-1.575-.345-.003-.689-.022-1.032-.015-1.168.024-1.602.265-1.683 1.299-.11 1.403-.027 2.819-.027 4.411m26.29 18.383c-.282-2.271-.64-4.389-1.307-6.458-1.18-3.658-2.111-7.368-2.672-11.154-.08-.537-.149-1.075-.24-1.73-.542.046-1.001.084-1.551.13 1.097 6.617 3.254 12.925 3.614 19.626.766-.147 1.419-.273 2.156-.414m-25.905 10.638c.181.012.363.024.543.036.149 5.471-.19 10.961.472 16.588.299-.684.517-1.19.742-1.693.203-.451-.125-1.149.775-1.378.926 1.604 1.254 3.443 2.471 5.178.267-.933.66-1.632.613-2.302-.071-.987-.462-1.954-.701-2.932-.075-.302-.13-.613-.143-.921-.104-2.617-.168-5.235-.304-7.851-.149-2.889-.399-5.773-.534-8.663-.077-1.648-.015-3.302-.015-5.035-1.588-.378-3.05-.609-4.699-.506 0 .813.103 1.514-.017 2.18-.518 2.863-.301 5.749-.359 8.623-.049 2.481.093 4.964.117 7.446.024 2.382.005 4.764.005 7.111.297.352.648.768 1.111 1.317 0-.757.009-1.306-.001-1.855-.092-4.693-.194-9.385-.273-14.078-.007-.421.128-.843.197-1.265m10.379 21.457c-1.263-4.046.443-7.621 1.183-11.325-1.324.322-2.087 1.168-2.733 2.092-.482.688-.916 1.426-1.225 2.192-.584 1.454-1.048 2.95-1.592 4.418-.231.628-.362 1.332-1.201 1.798-.992-1.512-1.71-3.077-2.42-4.951-.399 1.582-.681 2.855-.234 4.17.192.564-.086.951-.664 1.342-1.433-1.558-2.092-3.62-4.164-4.989.171 1.07.34 1.875.41 2.687.028.327-.052.778-.279.979-.351.31-.688-.035-1.013-.266-1.962-1.393-4.143-2.295-6.641-2.416-.443-.021-.892.052-1.37.083 1.144 1.328 2.174 2.556 3.242 3.755.552.619.698 1.292.491 2.045-.025.093-.198.152-.388.288-.219-.397-.406-.74-.629-1.144-1.447.322-2.955.345-4.03 1.459.126.195.189.323.281.428.092.106.212.19.321.283 1.247 1.055 2.807 1.346 4.395 1.381 2.511.056 5.029.043 7.539-.052 2.01-.076 4.01-.416 6.019-.461 3.077-.07 6.093-.538 9.109-1.008 1.034-.161 2.023-.569 3.033-.865-.554-.36-1.109-.392-1.563-.609-.715-.341-.995.286-1.51.555-1.311-1.569.027-3.121-.11-4.626-1.427.222-1.437.228-4.257 2.757m-17.084-32.523c.444 0 .834-.047 1.207.009 1.355.203 2.695.59 4.076.129.114-.038.313.005.411.081.679.523 1.501.418 2.275.425 1.778.019 3.558-.061 5.334-.024 3.554.071 7.106.21 10.658.286 1.433.03 2.869-.002 4.299-.069.957-.044 1.067-.197 1.13-1.095.02-.274.039-.559-.017-.825-.248-1.151-.706-2.291-.749-3.445-.089-2.414-1.034-4.664-1.34-7.032-.218-1.676-.586-3.343-1.02-4.985-.178-.67-.023-1.523-.676-1.884-.842 0-1.508-.011-2.173.003-2.27.046-4.514.29-6.764.581-3.076.397-6.185.571-9.276.864-1.618.154-3.239.551-4.843.491-1.655-.063-3.117.591-4.712.681-1.149.065-1.111.169-1.477-.867-.324-.919-.559-1.892-1.396-2.763-3.806 4.509-7.154 9.162-10.596 13.658 4.755 3.702 10.074 6.293 15.184 9.365.161-1.242.301-2.325.465-3.584m12.67 26.246c1.074-1.564 1.975-2.983 2.992-4.327.874-1.156 2.258-1.603 3.681-1.884.261-.052.586.172.995.306-2.217 3.11-2.313 6.569-2.882 10.009 1.478-.642 2.806-1.204 4.12-1.795.466-.21.889-.427 1.33.026.408.42.1.755-.12 1.114-.598.973-.801 2.043-.948 3.319.994.154 1.948.307 2.904.448.193.029.395.019.593.018.654-.003 1.288.205 1.348.827.065.679-.617.813-1.226.94-1.775.37-3.528.85-5.317 1.141-2.134.347-4.289.604-6.446.784-2.061.172-4.137.18-6.204.288-1.628.086-3.257.177-4.878.329-2.132.202-4.229.042-6.323-.325-1.16-.203-2.13-.729-2.984-1.443-.953-.796-.848-1.918.289-2.489.768-.387 1.642-.596 2.477-.862.363-.115.747-.175 1.292-.298-.911-1.543-2.129-2.646-3.466-3.64-.351-.26-.814-.399-.664-.92.155-.542.613-.621 1.156-.645 3.084-.134 5.958.472 8.747 2.126v-3.746c.385-.058.613-.103.846-.124.188-.016.381-.003.615-.003.348-7.822-.414-15.633.306-23.426.018-.201-.163-.418-.268-.667h-1.476c-.106.801-.19 1.609-.323 2.411-.305 1.835-1.496 2.387-3.222 1.462-.806-.432-1.548-.967-2.318-1.458-1.136-.726-2.209-1.566-3.422-2.159-2.55-1.247-4.794-2.894-7.127-4.432-.881-.581-1.788-1.141-2.734-1.623-1.327-.676-1.458-1.177-.507-2.218 1.92-2.099 3.735-4.269 5.284-6.626.461-.703 1.063-1.326 1.599-1.986 1.337-1.645 2.667-3.295 4.012-4.934.532-.648 2.131-.971 2.784-.51.278.197.419.596.555.927.333.81.627 1.633.991 2.594 2.095-.148 4.099-.288 6.227-.438.099-.401.275-.785.274-1.17-.004-.817-.028-1.647-.175-2.45-.18-.98.269-1.809.588-2.664.205-.55.688-.858 1.372-.879.787-.024 1.57-.118 2.356-.172 1.345-.092 2.286.728 2.483 2.21.184 1.375.322 2.756.498 4.283 1.306-.091 2.66-.17 4.012-.285 1.574-.132 3.142-.379 4.718-.423 1.418-.039 2.774-.492 4.209-.4 1.019.065 2.053-.08 3.073-.024.293.016.665.356.817.634.219.401.347.875.381 1.328.245 3.197 1.431 6.201 2.175 9.295.615 2.557 1.175 5.124 1.745 7.69.069.312.071.64.072.961.002.578-.301.992-.911 1.103-.967.177-1.948.421-2.922.413-5.194-.041-10.389-.158-15.583-.233-.78-.012-1.562.057-2.311.088-.482 2.452-.233 4.791-.178 7.115.066 2.793.391 5.581.523 8.375.087 1.838-.02 3.684.058 5.524.05 1.175.279 2.343.438 3.59" fill="#231f20"/><path d="m41.65 84.814c-.026-.5-.317-.78-.849-.732-.526.047-.75.404-.744.871.006.47.356.637.789.633.519-.004.834-.245.804-.772m-1.416 12.583c-.379-.004-.613.338-.678.761-.067.438.492.941 1.019.959.472.016.895-.078.912-.633.017-.545-.501-1.051-1.253-1.087m-8.123 2.646c-.164 1.258-.305 2.341-.466 3.584-5.109-3.073-10.429-5.664-15.183-9.366 3.441-4.496 6.79-9.149 10.595-13.657.837.87 1.072 1.843 1.397 2.762.366 1.036.328.933 1.476.868 1.596-.09 3.058-.744 4.712-.682 1.605.061 3.226-.336 4.844-.49 3.091-.294 6.199-.467 9.275-.865 2.25-.291 4.494-.534 6.764-.581.665-.013 1.331-.002 2.174-.002.652.36.498 1.214.676 1.884.433 1.641.801 3.308 1.019 4.984.307 2.369 1.251 4.619 1.341 7.032.043 1.155.501 2.295.748 3.446.057.266.037.551.018.825-.064.898-.173 1.05-1.13 1.095-1.431.067-2.867.099-4.299.068-3.553-.075-7.105-.215-10.658-.286-1.777-.036-3.557.044-5.334.025-.775-.008-1.596.097-2.276-.426-.097-.075-.297-.119-.411-.081-1.381.462-2.721.075-4.075-.129-.373-.055-.764-.008-1.207-.008" fill="#eabf80"/><path d="m49.195 132.566c2.819-2.529 2.829-2.536 4.257-2.757.137 1.505-1.201 3.057.109 4.625.516-.268.795-.895 1.511-.554.454.216 1.009.248 1.562.608-1.009.296-1.999.704-3.033.866-3.015.47-6.031.938-9.108 1.007-2.009.046-4.01.386-6.02.462-2.509.095-5.027.108-7.539.052-1.588-.035-3.147-.327-4.394-1.382-.11-.092-.23-.177-.322-.282-.091-.105-.155-.233-.281-.428 1.075-1.114 2.583-1.137 4.03-1.459.223.404.411.746.629 1.144.191-.136.364-.195.389-.288.207-.754.061-1.427-.491-2.045-1.069-1.199-2.099-2.427-3.242-3.755.477-.031.926-.105 1.37-.083 2.498.121 4.678 1.022 6.64 2.416.326.231.662.575 1.013.266.228-.201.308-.653.279-.979-.069-.812-.239-1.618-.41-2.687 2.072 1.369 2.732 3.431 4.164 4.989.578-.391.857-.778.664-1.342-.447-1.315-.165-2.589.235-4.17.71 1.873 1.427 3.439 2.42 4.95.839-.465.969-1.17 1.201-1.797.544-1.469 1.008-2.964 1.592-4.418.308-.767.743-1.504 1.224-2.192.647-.924 1.409-1.77 2.734-2.093-.741 3.704-2.447 7.28-1.183 11.326" fill="#62bc46"/><path d="m38.815 111.109c-.068.422-.203.844-.196 1.265.079 4.693.18 9.385.272 14.078.011.549.001 1.098.001 1.855-.463-.549-.813-.965-1.11-1.317 0-2.347.018-4.729-.005-7.11-.024-2.483-.166-4.966-.117-7.447.057-2.874-.159-5.76.358-8.623.12-.666.018-1.367.018-2.18 1.648-.103 3.11.128 4.699.506 0 1.733-.063 3.387.015 5.035.134 2.89.384 5.774.534 8.664.135 2.615.199 5.233.303 7.85.013.308.069.619.143.921.239.979.631 1.945.701 2.932.047.671-.345 1.369-.612 2.302-1.218-1.734-1.546-3.574-2.472-5.178-.899.229-.571.927-.774 1.379-.226.502-.444 1.008-.742 1.692-.662-5.626-.324-11.117-.472-16.588-.181-.012-.362-.024-.544-.036" fill="#f15d72"/><path d="m64.721 100.471c-.736.141-1.39.267-2.156.414-.36-6.701-2.517-13.009-3.614-19.626.55-.046 1.009-.084 1.551-.13.091.655.16 1.193.24 1.73.561 3.786 1.492 7.496 2.672 11.154.667 2.068 1.025 4.187 1.307 6.458" fill="#bf8153"/><path d="m38.431 82.088c0-1.592-.083-3.008.027-4.411.081-1.034.515-1.275 1.683-1.298.344-.008.687.011 1.032.014 1.564.015 1.54.023 1.803 1.575.196 1.158.039 2.367.039 3.712-1.48.132-2.917.26-4.584.408" fill="#f15d72"/><path d="m33.275 101.031c.763.143 1.191.293 1.102.92-.13.898-.231 1.8-.358 2.811-.5-.114-.851-.194-1.303-.297.189-1.159.367-2.254.559-3.434" fill="#bf8153"/><path d="m29.505 82.686c-.432-.828-.863-1.657-1.28-2.457.463-.432.714-.247.846.103.274.722.503 1.458.751 2.188-.106.055-.212.111-.317.166" fill="#bf8153"/><path d="m40.234 97.397c.752.036 1.27.542 1.253 1.087-.017.555-.44.649-.912.633-.527-.018-1.086-.521-1.019-.959.065-.423.299-.765.678-.761" fill="#231f20"/><path d="m41.65 84.814c.03.527-.285.768-.804.772-.433.004-.783-.163-.789-.633-.006-.467.218-.824.744-.871.532-.048.823.232.849.732" fill="#231f20"/><path d="m26.473 92.045-2.132.161.11 1.243 2.385-.18.13 1.484-3.978.301-.592-6.757 3.856-.292.13 1.484-2.263.171.095 1.083 2.131-.161z" fill="#231f20"/><path d="m27.793 92.873c.379.183.979.35 1.577.305.546-.042.792-.272.762-.613-.028-.331-.31-.502-1.002-.712-1.038-.325-1.763-.906-1.851-1.908-.104-1.193.704-2.182 2.201-2.296.704-.053 1.229.059 1.632.23l-.208 1.469c-.265-.111-.722-.268-1.312-.224-.485.037-.731.257-.705.558.03.341.359.457 1.135.712 1.105.37 1.636.985 1.719 1.928.102 1.163-.603 2.215-2.338 2.346-.713.055-1.426-.104-1.779-.278z" fill="#231f20"/><path d="m37.205 93.806c-.209.147-.759.34-1.464.394-2.219.167-3.333-1.333-3.49-3.137-.209-2.386 1.216-3.715 2.985-3.849.678-.051 1.246.057 1.507.189l-.184 1.447c-.266-.101-.646-.193-1.123-.157-.906.068-1.645.739-1.523 2.123.107 1.233.816 1.946 1.908 1.864.379-.029.804-.142 1.04-.27z" fill="#231f20"/><path d="m39.075 87.035.336 3.839c.089 1.023.448 1.571 1.073 1.524.633-.049.896-.593.802-1.666l-.336-3.839 1.594-.121.326 3.729c.183 2.086-.642 3.208-2.305 3.334-1.62.122-2.571-.825-2.761-2.99l-.323-3.689z" fill="#231f20"/><path d="m47.702 90.438-2.131.161.109 1.243 2.385-.18.13 1.484-3.979.301-.591-6.757 3.856-.292.13 1.484-2.263.171.095 1.083 2.131-.161z" fill="#231f20"/><path d="m48.483 86.323 1.593-.12.459 5.243 2.28-.173.133 1.514-3.874.293z" fill="#231f20"/><path d="m56.399 89.609-.379-1.192c-.121-.374-.284-.927-.416-1.311l-.017.002c-.053.397-.093.965-.139 1.353l-.15 1.231zm-1.194 1.433-.199 1.588-1.646.125 1.126-6.886 2.121-.161 2.361 6.623-1.716.13-.515-1.535z" fill="#231f20"/><path d="m89.643 60.578c-.062-.059-.123-.117-.185-.175-.65.337-1.3.675-2.012 1.045.251.318.438.555.701.887.549-.644 1.022-1.2 1.496-1.757m6.388 25.373c1.466 1.015 2.665 2.585 5.006 2.187-.03-.536-.055-1.001-.088-1.616-1.892.733-3.374.016-4.918-.571m-36.798-26.535c-.546-.865-1.017-1.561-1.433-2.283-.43-.746-.807-1.519-1.237-2.336-1.067.615-1.102 1.458-.856 2.331.355 1.258 1.747 2.186 3.526 2.288m21.896 4.264c-1.205.26-2.19.525-3.196.676-.994.149-2.008.184-3.045.272.855 1.27 2.91 2.449 3.852 2.122 1.403-.486 2.132-1.519 2.389-3.07m-15.684 4.316c1.254.694 2.424 1.341 3.622 2.004.995-1.635 1.044-3.493 1.195-5.375-.444-.125-.855-.283-1.282-.343-.266-.037-.65-.015-.82.137-1.169 1.04-2.283 2.13-2.715 3.577m35.706-10.451c-.377.112-.843.128-1.116.349-1.839 1.488-3.638 3.019-5.446 4.541-.056.049-.058.154-.042.107 1.564 1.408 3.083 2.775 4.682 4.213.012-1.651-.752-3.214-.273-4.801.462-1.538 1.123-2.999 2.195-4.409m-37.62 34.968c.635-1.55.797-3.135 1.044-4.717.253-1.614.74-3.197 1.158-4.934-1.754.34-2.319-.892-2.971-2.095-1.588 3.794-.321 9.644.769 11.746m23.001-30.707c-1.05.42-2.064.871-3.113 1.233-.721.249-1.106.659-1.305 1.35-.412 1.425-1.187 2.62-2.754 3.203-.731.272-.938.819-.768 1.458.281 1.053.797 1.987 1.842 2.616.261-1.73 1.087-3.057 2.647-3.859 1.147-.59 1.87-1.455 2.459-2.48.374-.649.76-1.291 1.161-1.926.342-.543.272-1.033-.169-1.595m22.326.462c-.052.042-.103.084-.154.125.58 1.141 1.251 2.25 1.713 3.431.469 1.191.732 2.452 1.083 3.683.21.739.417 1.479.633 2.243 3.259-1.339 4.909-3.564 4.543-6.119-.709 0-1.441.011-2.174-.002-1.39-.024-2.59-.427-3.546-1.433-.649-.684-1.395-1.288-2.098-1.928m-20.831 5.412c3.285-3.581 6.314-7.268 10.466-10.008-1.801.261-3.557.618-5.299 1.023-.302.07-.591.306-.815.528-.605.599-1.141 1.26-1.76 1.846-1.429 1.354-2.55 2.898-3.487 4.577-.292.524-.756.965-1.123 1.421.613.185 1.301.394 2.018.613m-16.447-2.849c-.164.911-.248 1.819-.499 2.686-.405 1.397.058 2.727.332 4.044.265 1.275 1.378 1.604 2.429.805 1.405-1.068 2.372-2.433 2.809-4.1.122-.469.04-.813-.451-1.025-1.263-.544-2.111-1.458-2.617-2.592-.619.056-1.156.105-2.003.182m6.21 58.076c1.325.109 2.701.303 4.034-.19 1.235-.457 1.669-1.365 1.281-2.523-.264-.788-.523-1.578-.778-2.368-.238-.729-.468-1.459-.682-2.127-1.988.436-3.837.84-5.832 1.278.653 1.959 1.304 3.908 1.977 5.93m-1.901-1.989c-.639.284-.6.801-.555 1.305.074.823.106 1.655.272 2.462.183.896.451 1.783.779 2.643.111.29.471.583.792.704 1.703.636 3.465.628 5.236.276 1.114-.221 2.207-.481 3.09-1.227.469-.396.693-.83.721-1.433.068-1.424-.574-2.563-1.533-3.691-.287.159-.691.253-.839.487-.602.949-1.623 1.228-2.632 1.35-1.214.147-2.469.151-3.691.054-1.157-.092-1.489-.582-1.316-1.711.074-.479.149-.883-.324-1.219m31.286-1.525c-.163.748-.338 1.273-.383 1.809-.126 1.495-.969 2.453-2.435 2.988-.276.1-.582.153-.826.298-.627.371-1.228.291-1.814-.04-1.042-.587-2.07-1.195-3.158-1.826-.626.473-.928 1.108-.411 1.858.713 1.035 1.414 2.095 2.283 3.012.488.516 1.288 1.046 1.975 1.08 1.92.093 3.802-.163 5.492-1.227 1.126-.709 1.913-1.57 2.24-2.783.199-.737.317-1.494.519-2.232.242-.891.046-1.546-.824-1.961-.775-.372-1.627-.605-2.658-.976m-12.867-5.549c.476.637.979 1.076 1.172 1.611.766 2.121 2.147 3.908 3.482 5.713.491.664 1.167 1.261 1.887 1.715 1.114.704 3.155.561 4.03-.268.378-.358.496-.957.726-1.449.329-.706.006-1.267-.311-1.922-.241-.499-.53-.839-.963-1.137-1.169-.802-2.114-1.79-2.811-2.976-.609-1.036-1.206-2.078-1.869-3.222-1.792.414-3.497 1.098-5.343 1.935m6.852-24.23c-1.181-.352-2.295-.577-3.307-1.008-2.123-.905-3.688-2.426-4.897-4.258-1.118-1.697-2.192-3.42-3.325-5.192-.596.462-1.119.759-1.481 1.177-.349.405-.457.99-.805 1.395-.554.645-.534 1.222-.073 1.876 1.268 1.804 2.518 3.618 3.78 5.425.08.113.208.197.29.31.946 1.303 2.505 1.905 3.75 2.864 1.14.877 2.464 1.201 3.858 1.166 1.043-.027 2.172-.089 2.914-.905-.257-1.038-.496-2.01-.704-2.85m1.984-13.28c-.716-2.472-2.225-4.325-3.266-6.388-.853-1.691-1.964-3.192-3.462-4.419-.971-.797-1.811-1.824-3.35-2.033-1.142 1.693-3.001 2.881-3.86 4.869.68.392 1.269.723 1.848 1.067 1.185.705 2.393 1.552 2.812 2.754.545 1.563 1.746 2.624 2.666 3.9.418.58 1.037.812 1.796.733 1.564-.164 3.129-.314 4.816-.483m-37.935 5.424c.348-.218.732-.423 1.074-.679 1.132-.847 1.292-1.512.718-2.838-.284-.659-.177-.937.518-1.355.188-.113.377-.224.564-.336-.249-1.013-.35-1.858.861-2.37.606-.257.676-.85.247-1.415-.283-.374-.569-.76-.762-1.178-1.33-2.889-5.76-2.676-7.37-.82-.741.854-1.409 1.766-2.075 2.674-2.2 3.005-3.413 6.262-3.017 9.962.238 2.228 2.383 3.855 4.843 3.542.189-1.978.38-3.965.572-5.967-1.423-.398-1.637-.594-1.594-1.505.501.152 1.002.305 1.568.477.623-1.425 1.873-.632 2.841-.934.161 2.193.161 2.193 1.012 2.742m-.595 11.78c3.529 2.408 7.483 2.127 11.479 2.264-2.57-7.882-2.158-15.634-.315-23.531-1.589 1.06-2.862 2.751-4.915 1.177-.741 1.068-1.667 1.941-1.644 3.228.001.081-.075.168-.127.245-.43.637-.576 1.316-.62 2.08-.04.703-.396 1.398-.656 2.082-.21.553-.565 1.066-.712 1.629-.643 2.443-1.255 4.894-1.832 7.351-.281 1.201-.462 2.421-.658 3.475m33.213-15.587c.31.478.598.739.633 1.026.037.307-.166.638-.263.958-.293-.117-.626-.188-.866-.367-.171-.128-.209-.405-.321-.608-.317-.57-.59-1.17-.974-1.699-1.273-1.749-2.609-3.458-3.876-5.21-.854-1.18-1.95-2.062-3.322-2.668-.444-.197-.877-.415-1.31-.63-1.796-.891-3.585-.583-4.931.854-1.058 1.13-1.063 1.567-.033 2.837.462.569.438 1.029-.102 1.593-.196.206-.452.366-.627.584-.759.948-.681 1.752.31 2.442.514.358.59.763.573 1.307-.043 1.39 1.043 2.742 2.434 3.088.377.095.792.166.97-.27-.371-.452-.727-.885-1.245-1.516.516.035.719.01.891.067 1.062.354 1.819-.081 2.478-.794.225-.244.418-.522.677-.727.352-.279.754-.501 1.186-.78.436.738.729 1.362 1.143 1.907.913 1.2 1.837 2.399 2.849 3.526 1.228 1.366 2.765 2.35 4.673 2.725.686.134 1.365.116 1.937-.401 1.712-1.55 2.941-5.485 1.331-7.7-1.294.14-2.64.286-4.215.456m-3.409 15.235c-.607-.4-.945-.588-1.24-.824-.858-.687-1.872-1.279-2.514-2.114-1.573-2.046-3.016-4.184-4.416-6.339-.428-.661-.884-1.115-1.639-1.457-1.765-.8-3.041-2.005-3.224-3.961-.023-.245-.177-.54-.374-.699-1.033-.829-1.039-1.791-.546-2.867.282-.614.504-1.252.779-1.944-2.178.063-2.417-1.821-3.545-2.773-2.355 5.327-3.719 16.802-.44 25.521 5.761.107 11.4-.585 17.159-2.543m17.039 30.443c-.173.453-.326.745-.397 1.054-.559 2.42-2.377 3.698-4.709 4.506-1.459.505-2.936.68-4.49.327-.521-.119-1.26-.1-1.668.165-2.085 1.349-3.874 3.025-5.091 5.096-.67 1.14-.976 2.478-1.339 3.753-.25.873.238 1.535 1.109 1.863.816.306 1.668.531 2.516.755 5.712 1.514 10.662.366 14.903-3.562 2.683-2.484 3.79-5.601 4.566-8.902.2-.85-.04-1.555-.688-2.13-1.357-1.207-2.829-2.267-4.712-2.925m-25.085 4.07c-2.655 1.685-5.535 1.979-8.557 1.623-1.076-.709-2.051-.185-3.048.2-.726.282-1.466.535-2.205.785-1.109.377-2.25.683-3.331 1.12-2.831 1.145-5.155 2.856-6.693 5.402-.651 1.077-.433 2.024.678 2.731.323.206.668.393 1.025.545 2.574 1.1 5.363 1.153 8.106 1.381 2.14.178 4.236-.271 6.306-.667 2.357-.451 4.657-1.095 6.651-2.495.607-.427 1.258-1.242 2.311-.757.091.043.332-.162.486-.272.771-.552.758-1.328.702-2.123-.187-2.652-1.08-5.106-2.431-7.473m16.726-69.656c-2.25 1.502-3.36 3.253-3.138 5.653.152 1.631.212 3.27.338 4.903.017.214.159.427.275.624 1.295 2.212 2.605 4.416 3.889 6.633.423.73.332.932-.45 1.287-.246.111-.515.176-.736.248 0 .197-.027.297.004.379.934 2.548.598 4.945-.923 7.23-.217.327-.282.772-.312 1.169-.156 2.046.347 4.018.848 5.986.306 1.199.69 1.493 1.994 1.205 1.767-.389 3.506-.897 5.235-1.419 2.083-.629 2.917-2.085 2.839-4.037-.075-1.926-.154-3.854-.323-5.775-.184-2.1-.387-4.206-.742-6.285-.379-2.211-.908-4.402-1.441-6.587-.601-2.471-1.429-4.864-3.271-6.827-.936-.998-1.885-1.986-2.82-2.984-.409-.436-.801-.887-1.266-1.403m-28.246 44.693c.324-.828.866-.776 1.346-.741 1.718.127 3.432.31 5.152.426.981.067 1.512.427 1.687 1.248.085.399.134.837.352 1.172 1.812 2.781 3.946 5.381 5.398 8.364.228.47.644.704 1.185.673.536-.031 1.105-.034 1.597-.203 2.405-.827 4.81-1.662 7.177-2.581 1.765-.686 3.505-1.45 5.072-2.669-.362-1.41-.901-2.657-2.097-3.693-1.737-1.504-3.331-3.137-4.273-5.236-.685-1.526-1.489-3.008-2.254-4.502-.161-.315-.391-.599-.601-.916-4.52 1.732-9.165 2.644-13.917 2.703-4.745.06-9.56.629-14.426-.962.239 2.385.519 4.612.672 6.845.244 3.534 1.2 6.965 1.655 10.465.138 1.065.738 1.646 1.837 1.878 2.573.544 5.174.895 7.788.432 1.629-.288 3.261-.707 4.804-1.743-.831-3.457-1.666-6.929-2.515-10.464-1.952-.172-3.738-.329-5.639-.496m25.824-55.43c1.473-1.962 1.559-4.269 1.784-6.445.477-4.582-.985-8.679-4.445-12.131.32-.233.518-.458.772-.548 1.289-.456 1.677-1.49 1.93-2.586.21-.908-.424-1.575-1.413-1.418-.594.094-1.184.399-1.694.722-.775.491-1.144.411-1.323-.381-.192-.845-.453-1.677-.637-2.523-.23-1.059-.954-1.511-1.816-1.588-1.344.653-.004 2.251-1.509 2.765-.495-.574-.871-1.296-1.491-1.67-1.692-1.023-3.397-2.113-5.259-2.791-4.006-1.456-8.192-1.517-12.4-.78-2.344.41-4.562 1.15-6.707 2.109-4.732 2.116-9.352 4.369-12.808 8.217-.873.973-1.955 1.698-3.476 1.431-.285-.05-.595-.014-.888.019-.7.079-1.278.412-1.398 1.057-.121.651-.224 1.402.006 1.995.527 1.36 1.386 2.516 2.992 3.04.952.31.959.868.134 1.487-.38.285-.778.576-1.067.934-.934 1.154-.692 1.926.742 2.44.502.18 1.038.283 1.554.434 1.109.322 1.208.587.408 1.38-1.466 1.457-.729 4.625.883 5.505.374.205.726.295.907.091.082-1.626.201-3.076.221-4.529.054-3.942 1.271-7.584 3.22-11.041 1.182-2.098 2.988-3.45 5.483-4.067 1.853-.457 3.68-1.026 5.478-1.648.774-.267 1.445-.793 2.372-1.321-.35.994-.567 1.773-1.201 2.4-.474.468-.905.978-.501 1.841 3.21-1.176 6.659-1.705 9.372-3.777.644.14.946.441.747 1.007-.476 1.352.07 2.569.75 3.664.958 1.545 2.153 2.961 3.194 4.464 1.265 1.826 3.074 3.096 4.948 4.302.354.228.809.403 1.232.437.787.062 1.034.455 1.259 1.105.661 1.915 1.757 3.593 3.601 4.735.427.265.985.509 1.473.495 1.634-.046 3.093.413 4.571 1.168m-32.155-19.309c-2.073.589-4.01 1.121-5.934 1.691-1.679.498-2.958 1.546-3.779 2.935-.851 1.44-1.489 2.993-2.138 4.527-.32.761-.547 1.579-.651 2.39-.251 1.958-.412 3.926-.592 5.891-.038.411-.038.832.011 1.241.397 3.348 1.389 6.548 2.988 9.564.739 1.396 1.581 2.758 2.84 3.84 1.955 1.68 4.352 2.484 6.896 2.929 2.334.407 4.693.438 7.074.328 2.841-.131 5.567-.622 8.197-1.623 1.359-.517 2.614-1.284 4.113-1.484.28-.037.544-.21.802-.343 2.472-1.284 4.441-3.025 5.73-5.402.474-.876.581-.862 1.615-.482.54.199 1.115.458 1.672.453 2.777-.025 4.321-2.114 3.587-4.578-.696-2.33-3.218-2.981-4.989-2.266-.306.124-.64.187-.841.243-.409-.432-.711-.825-1.089-1.139-1.518-1.262-3.004-2.537-3.68-4.406-.304-.841-1.032-1.287-1.812-1.728-1.003-.569-1.972-1.201-2.902-1.872-1.375-.99-2.394-2.269-3.367-3.607-1.703-2.342-3.631-4.562-3.929-7.515-2.721.96-5.385 1.894-8.044 2.841-1.178.42-1.947-.021-1.979-1.2-.01-.351.11-.705.201-1.228m33.043 20.471c.245.851.517 1.636.691 2.441.327 1.499-.526 3.04-2.025 3.627-1.419.554-2.868.991-4.408.326-.488-.21-.88-.016-1.137.378-.504.771-.98 1.558-1.548 2.468 1.93-.337 3.652-.697 5.393-.923 1.712-.223 3.455-.366 5.086.403.519.245 1.039.515 1.494.849 1.508 1.109 2.995 2.242 4.47 3.387.758.589 1.517 1.186 2.201 1.846 1.327 1.279 2.946 1.549 4.751 1.369 1.468-.147 1.674.024 1.551 1.37-.258 2.851-1.957 4.828-4.511 6.259-.294.165-.602.31-.893.48-.076.044-.113.146-.16.21.355 2.364.782 4.71 1.044 7.072.298 2.689.523 5.39.637 8.091.092 2.203-1.145 3.732-3.37 4.476-1.392.465-2.784.943-4.204 1.321-1.18.313-2.403.489-3.607.723-.096.018-.219.044-.294.006-1.152-.576-2.308.056-3.455-.021-1.011-.068-2.013-.244-3.104-.383.343 1.275.836 2.501 1.546 3.651.737 1.196 1.434 2.415 2.241 3.567.421.602.982 1.155 1.587 1.605 1.955 1.452 2.919 3.417 3.596 5.774-1.339.737-2.722 1.497-4.18 2.3.073.375.095.738.215 1.07.9 2.49 2.524 4.449 4.98 5.781.211.114.442.207.676.274.422.121.856.211 1.284.32 3.462.88 3.656 1.606 3.803 4.154 2.091.689 3.756 2.057 5.465 3.371.487.375.814.75.705 1.399-.371 2.226-.997 4.376-1.97 6.444-.579 1.23-1.193 2.419-2.293 3.334-.218.182-.396.413-.563.64-2.041 2.781-5.238 3.825-8.472 4.67-1.885.493-3.882.539-5.842-.051-1.54-.464-3.164-.691-4.691-1.187-1.528-.496-1.858-1.306-1.614-2.784.622-3.757 2.958-6.53 5.857-8.994.328-.278.678-.535 1.011-.81.071-.057.109-.148.181-.25-.62-.746-1.277-1.478-1.866-2.255-1.458-1.924-1.467-2.924-.053-4.956-1.169-1.741-2.37-3.516-3.55-5.304-.171-.26-.235-.581-.349-.874-.331-.844-.602-.926-1.556-.742-1.009.195-2.038.311-3.064.402-.52.047-.883-.195-1.17-.67-1.159-1.918-2.388-3.797-3.577-5.7-.442-.71-.839-1.446-1.265-2.165-.154-.259-.335-.503-.719-.678.212 1.151.412 2.304.639 3.453.288 1.455.706 2.882 1.214 4.282.213.586.056.969-.514 1.258-.428.216-.834.469-1.319.746.446 1.45.875 2.902 1.348 4.34.093.281.339.72.542.734.896.061 1.06.737 1.416 1.261.86 1.262 1.371 2.597 1.383 4.136.01 1.326.518 2.59 1.095 3.808.951 2.008 1.361 4.092 1.323 6.302-.021 1.153-.563 1.801-1.515 2.304-1.066.563-2.145 1.106-3.229 1.64-2.516 1.236-5.21 1.95-8.018 2.296-1.22.151-2.453.231-3.683.306-3.099.189-6.068-.516-9.027-1.217-1.006-.238-1.854-.777-2.569-1.534-.838-.89-.917-1.78-.35-2.784 1.373-2.432 3.356-4.343 5.968-5.583 1.79-.85 3.725-1.436 5.596-2.138.859-.322 1.72-.641 2.74-1.021-.893-1.792-.789-3.643-1.135-5.424-.255-1.313-.259-2.388 1.335-2.922-.308-1.029-.599-1.994-.905-3.009-.995-.119-1.984-.17-2.94-.367-1.246-.259-2.474-.608-3.692-.97-.507-.15-.809-.559-.761-1.073.217-2.329-.579-4.531-.925-6.79-.375-2.452-.593-4.924-.851-7.39-.139-1.324-.237-2.652-.313-3.979-.056-.99-.158-1.374-1.118-1.499-1.446-.188-1.836-1.124-2.123-2.151-.384-1.375-.653-2.778-.98-4.205-.571-.075-1.16-.11-1.728-.232-3.017-.648-4.518-2.522-4.668-5.586-.162-3.324 1.092-6.291 2.882-9.091.454-.709.98-1.379 1.486-2.058 1.035-1.384 2.222-2.584 4.098-2.972.655-.136 1.033-.483 1.335-1.112.535-1.119 1.309-2.14 2.029-3.277-.368-.178-.725-.415-1.125-.535-1.861-.561-3.492-1.49-5.003-2.624-.149-.111-.403-.318-.462-.281-.752.474-1.331-.127-1.948-.283-2.322-.584-3.72-2.662-3.351-4.85.139-.829.684-1.384 1.431-1.765-.218-.744-.43-1.444-.63-2.147-.316-1.105-1.023-1.975-1.98-2.644-2.213-1.548-2.987-3.688-2.17-6.16.085-.256.158-.516.245-.803-.631-.256-1.233-.462-1.796-.737-1.262-.619-1.611-1.567-.991-2.74.324-.615.741-1.186 1.148-1.825-.576-.574-1.243-1.112-1.736-1.765-.526-.696-.917-1.487-1.317-2.258-.474-.913-.252-1.762.291-2.613.627-.983 1.289-1.7 2.712-1.321 1.15.307 2.245-.095 2.926-.932 1.739-2.139 4.136-3.496 6.417-5.017 4.11-2.742 8.649-4.584 13.566-5.57 2.595-.52 5.224-.823 7.93-.396 1.606.254 3.194.427 4.747.96 2.393.821 4.428 2.189 6.716 3.423.158-.397.358-.835.506-1.288.185-.561.557-.732 1.13-.533 1.339.466 2.497 1.08 2.758 2.575.106.611.383 1.197.593 1.829.922-.185 1.671-.389 2.435-.475 1.165-.132 1.701.369 1.829 1.463.194 1.653-.543 2.938-1.792 4.058.491.781.951 1.53 1.428 2.27 1.321 2.041 1.928 4.251 2.251 6.62.483 3.527-.645 6.807-1.351 10.161-.051.241-.308.445-.428.61" fill="#231f20"/><path d="m58.215 35.376c1.016-.566 1.838-1.061 2.699-1.489.386-.192.551-.454.349-.75-.103-.15-.611-.255-.758-.155-.883.604-1.851 1.162-2.29 2.394m14.58-1.972c.276-1.091-.702-1.299-1.321-1.658-.448-.26-1.061-.713-1.697.165 1.036.512 1.991.985 3.018 1.493m22.098 18.424c1.185-1.524 1.416-1.585 3.079-.93.161.064.462.087.542.001.139-.147.279-.459.2-.586-.183-.297-.445-.633-.765-.763-.915-.37-3.044.371-3.54 1.162-.311.495-.207.852.484 1.116m-34.239-12.388c-1.242.972-1.242 2.196-1.215 3.423.014.694.256 1.251 1.068 1.421 1.165-1.067 1.306-3.598.147-4.844m11.579-2.45c-.358.106-.622.107-.705.221-.941 1.304-.986 2.778-.662 4.225.193.857 1.057.885 1.653.188.513-.603.512-1.285.384-1.963-.159-.847-.416-1.678-.67-2.671m-4.262 7.761c-.351-.943-1.015-1.478-1.926-1.321-1.308.226-2.546.696-3.367 1.755-.249.321-.469.73-.505 1.114-.137 1.452.894 2.886 2.402 3.463 1.178.451 3.194.031 4.129-.845.424-.397.572-.804.189-1.368-.602.414-1.092.86-1.675 1.134-1.794.842-3.888-.303-3.806-2.038.048-1.019.951-1.892 2.23-2.005.718-.064 1.454.062 2.329.111m-3.886 10.968c-.516.906-.026 1.355.5 1.662 1.31.764 2.709 1.274 4.322 1.105 2.014-.21 3.835-.941 5.495-1.927 2.068-1.23 3.708-2.848 4.267-5.207.12-.508.378-1.032.723-1.436.514-.603.573-.693-.031-1.138-.231-.17-.457-.372-.723-.47-.243-.09-.627-.164-.786-.05-.165.119-.266.536-.167.713.381.679.236 1.335.059 2.009-.631 2.398-2.275 4.019-4.569 5.13-.568.276-1.156.519-1.751.741-1.393.521-2.781.777-4.327.477-1.182-.23-2.051-.812-3.012-1.609m4.437-27.721c-.091.523-.211.877-.202 1.228.033 1.178.801 1.619 1.98 1.199 2.659-.947 5.323-1.881 8.044-2.841.298 2.953 2.225 5.173 3.929 7.516.972 1.338 1.992 2.616 3.367 3.607.929.67 1.898 1.302 2.902 1.871.779.441 1.508.887 1.812 1.728.675 1.869 2.162 3.144 3.679 4.406.378.314.681.707 1.09 1.14.2-.057.534-.12.841-.244 1.771-.715 4.293-.064 4.988 2.266.735 2.464-.809 4.553-3.587 4.578-.556.005-1.131-.254-1.671-.453-1.035-.38-1.141-.394-1.616.482-1.289 2.377-3.258 4.118-5.729 5.402-.258.134-.523.306-.802.343-1.499.2-2.754.967-4.113 1.484-2.63 1.001-5.357 1.492-8.198 1.624-2.38.109-4.74.079-7.074-.329-2.544-.444-4.94-1.249-6.895-2.929-1.259-1.082-2.101-2.444-2.84-3.84-1.6-3.016-2.591-6.215-2.988-9.564-.049-.409-.049-.83-.011-1.241.18-1.965.341-3.933.592-5.89.104-.811.331-1.63.651-2.391.648-1.534 1.287-3.087 2.138-4.526.821-1.39 2.099-2.437 3.779-2.936 1.924-.57 3.86-1.102 5.934-1.69" fill="#fdd8bd"/><path d="m100.677 47.306c-1.479-.754-2.938-1.214-4.571-1.167-.489.014-1.046-.23-1.473-.495-1.845-1.142-2.94-2.821-3.602-4.735-.224-.651-.471-1.043-1.258-1.105-.423-.034-.878-.21-1.232-.438-1.874-1.206-3.683-2.476-4.948-4.302-1.041-1.503-2.236-2.919-3.194-4.464-.68-1.094-1.226-2.312-.75-3.663.199-.566-.103-.867-.747-1.007-2.713 2.072-6.162 2.6-9.372 3.776-.404-.862.027-1.372.501-1.841.633-.626.851-1.405 1.201-2.399-.927.527-1.598 1.053-2.372 1.321-1.798.622-3.625 1.19-5.478 1.648-2.495.617-4.302 1.969-5.483 4.066-1.95 3.457-3.166 7.1-3.22 11.042-.021 1.452-.139 2.903-.221 4.529-.181.203-.533.113-.907-.091-1.612-.88-2.35-4.048-.883-5.505.8-.794.7-1.059-.408-1.381-.517-.15-1.052-.254-1.555-.434-1.433-.514-1.675-1.286-.741-2.44.289-.358.687-.649 1.067-.934.825-.619.818-1.176-.134-1.486-1.606-.524-2.465-1.68-2.992-3.04-.23-.594-.127-1.344-.006-1.996.12-.645.698-.978 1.398-1.057.293-.033.603-.069.888-.018 1.52.266 2.602-.459 3.475-1.431 3.456-3.849 8.077-6.101 12.809-8.217 2.145-.959 4.363-1.7 6.707-2.11 4.208-.736 8.394-.676 12.399.781 1.863.677 3.568 1.767 5.26 2.79.619.375.995 1.097 1.49 1.671 1.506-.515.165-2.112 1.51-2.765.862.077 1.586.529 1.816 1.587.184.847.445 1.679.636 2.524.18.791.549.871 1.324.38.509-.323 1.1-.628 1.694-.722.989-.157 1.623.511 1.413 1.419-.253 1.095-.642 2.13-1.931 2.585-.254.09-.451.315-.771.548 3.46 3.452 4.922 7.55 4.445 12.131-.225 2.176-.311 4.483-1.784 6.445" fill="#c48e53"/><path d="m74.852 102.736c1.901.167 3.687.325 5.639.496.849 3.536 1.684 7.007 2.515 10.464-1.543 1.037-3.175 1.455-4.804 1.744-2.614.463-5.215.111-7.787-.433-1.1-.231-1.7-.813-1.838-1.877-.454-3.501-1.411-6.932-1.655-10.465-.153-2.234-.433-4.461-.672-6.846 4.866 1.591 9.681 1.022 14.426.962 4.752-.059 9.397-.971 13.917-2.703.21.317.44.601.601.916.765 1.494 1.569 2.976 2.254 4.503.942 2.098 2.536 3.731 4.273 5.236 1.196 1.036 1.735 2.282 2.097 3.692-1.567 1.22-3.307 1.983-5.072 2.669-2.367.919-4.772 1.754-7.177 2.581-.492.169-1.061.172-1.597.203-.541.031-.957-.203-1.185-.672-1.452-2.984-3.586-5.583-5.398-8.365-.218-.334-.267-.773-.352-1.171-.175-.822-.706-1.182-1.687-1.248-1.72-.117-3.434-.3-5.152-.427-.48-.035-1.022-.087-1.346.741" fill="#3f71a5"/><path d="m103.098 58.043c.465.516.856.966 1.266 1.402.935.998 1.884 1.986 2.82 2.984 1.842 1.964 2.67 4.357 3.271 6.828.533 2.185 1.062 4.376 1.441 6.587.355 2.079.557 4.185.742 6.285.169 1.92.248 3.849.323 5.774.077 1.953-.757 3.409-2.84 4.038-1.728.521-3.467 1.03-5.234 1.419-1.304.287-1.688-.006-1.994-1.205-.501-1.968-1.004-3.941-.848-5.987.03-.396.095-.842.312-1.168 1.521-2.285 1.857-4.682.923-7.23-.031-.082-.004-.182-.004-.379.22-.073.49-.137.736-.248.782-.355.873-.557.45-1.287-1.284-2.217-2.594-4.421-3.889-6.633-.116-.198-.258-.41-.275-.624-.126-1.634-.186-3.272-.338-4.904-.222-2.399.888-4.15 3.138-5.652" fill="#90b15c"/><path d="m86.373 127.699c1.351 2.367 2.243 4.821 2.431 7.473.055.795.069 1.571-.702 2.123-.155.11-.395.315-.487.272-1.053-.485-1.704.33-2.31.757-1.995 1.4-4.294 2.043-6.652 2.495-2.069.396-4.166.845-6.305.667-2.744-.228-5.533-.281-8.107-1.381-.356-.153-.701-.339-1.024-.545-1.112-.707-1.329-1.654-.679-2.731 1.538-2.546 3.862-4.257 6.693-5.402 1.081-.437 2.222-.743 3.331-1.12.74-.25 1.48-.503 2.206-.785.997-.386 1.971-.909 3.047-.2 3.023.356 5.903.062 8.558-1.623" fill="#4a4b4c"/><path d="m111.458 123.629c1.883.658 3.354 1.718 4.712 2.924.647.576.888 1.281.687 2.131-.775 3.3-1.882 6.418-4.565 8.902-4.241 3.927-9.191 5.076-14.903 3.562-.848-.225-1.701-.449-2.516-.755-.871-.328-1.359-.991-1.109-1.863.363-1.275.669-2.613 1.339-3.753 1.216-2.071 3.005-3.748 5.09-5.097.409-.264 1.148-.283 1.668-.165 1.555.353 3.032.179 4.491-.326 2.332-.808 4.15-2.086 4.709-4.506.071-.309.223-.601.397-1.054" fill="#4a4b4c"/><path d="m94.419 93.186c-5.76 1.958-11.398 2.65-17.159 2.543-3.279-8.719-1.915-20.194.439-25.521 1.128.952 1.367 2.836 3.545 2.773-.274.692-.497 1.33-.778 1.944-.493 1.076-.487 2.038.546 2.867.197.159.35.454.374.699.182 1.956 1.459 3.161 3.223 3.961.755.342 1.211.796 1.64 1.457 1.399 2.155 2.843 4.293 4.416 6.339.642.835 1.655 1.427 2.514 2.114.295.236.633.424 1.24.824" fill="#fff"/><path d="m97.827 77.951c1.575-.17 2.922-.316 4.216-.457 1.609 2.216.381 6.151-1.331 7.701-.572.517-1.251.535-1.938.401-1.908-.375-3.445-1.359-4.673-2.725-1.011-1.127-1.935-2.326-2.848-3.526-.414-.545-.707-1.169-1.144-1.907-.431.279-.834.501-1.185.78-.26.205-.452.483-.678.727-.658.713-1.416 1.148-2.478.794-.171-.057-.375-.032-.89-.067.517.631.874 1.064 1.245 1.516-.179.436-.594.365-.971.27-1.39-.346-2.476-1.698-2.433-3.088.016-.544-.06-.949-.574-1.307-.991-.69-1.069-1.494-.309-2.442.175-.218.43-.378.627-.584.54-.565.563-1.024.101-1.593-1.03-1.27-1.025-1.707.034-2.837 1.345-1.437 3.134-1.745 4.93-.854.434.215.866.433 1.311.63 1.372.606 2.467 1.488 3.321 2.668 1.268 1.752 2.604 3.461 3.876 5.21.385.529.657 1.128.975 1.699.112.203.149.48.321.608.239.179.572.25.865.367.098-.32.301-.651.264-.958-.035-.287-.323-.548-.634-1.026" fill="#fdd8bd"/><path d="m64.614 93.538c.196-1.054.377-2.274.658-3.475.577-2.457 1.19-4.908 1.832-7.351.148-.563.502-1.076.712-1.629.26-.684.616-1.378.656-2.082.044-.764.19-1.442.621-2.08.051-.077.127-.164.126-.245-.023-1.287.903-2.16 1.644-3.228 2.054 1.574 3.326-.117 4.915-1.177-1.843 7.897-2.255 15.649.315 23.531-3.996-.137-7.95.144-11.479-2.264" fill="#fff"/><path d="m65.21 81.758c-.852-.549-.852-.549-1.013-2.742-.967.302-2.217-.491-2.841.933-.565-.171-1.066-.324-1.568-.477-.043.912.172 1.108 1.595 1.506-.193 2.002-.383 3.988-.572 5.967-2.46.313-4.605-1.314-4.843-3.542-.397-3.7.816-6.957 3.016-9.962.666-.908 1.334-1.82 2.076-2.674 1.61-1.856 6.04-2.069 7.37.82.192.418.478.804.761 1.178.429.565.36 1.158-.247 1.414-1.211.513-1.109 1.358-.86 2.371-.187.112-.376.223-.564.336-.696.417-.802.696-.518 1.354.573 1.327.414 1.992-.719 2.839-.342.256-.725.461-1.073.679" fill="#fdd8bd"/><path d="m103.144 76.334c-1.687.168-3.252.319-4.816.482-.759.08-1.378-.152-1.796-.732-.92-1.276-2.121-2.337-2.666-3.9-.419-1.203-1.627-2.05-2.812-2.754-.579-.344-1.168-.675-1.848-1.068.859-1.987 2.718-3.175 3.86-4.868 1.539.209 2.379 1.236 3.35 2.032 1.498 1.228 2.609 2.728 3.462 4.419 1.041 2.063 2.55 3.917 3.266 6.389" fill="#fff"/><path d="m101.16 89.614c.208.84.447 1.812.704 2.85-.741.816-1.871.878-2.914.905-1.394.036-2.718-.288-3.857-1.166-1.245-.959-2.805-1.561-3.75-2.863-.082-.113-.21-.197-.29-.311-1.262-1.807-2.512-3.621-3.781-5.424-.461-.655-.48-1.232.074-1.876.347-.406.456-.99.804-1.395.363-.418.885-.716 1.482-1.178 1.132 1.772 2.207 3.495 3.325 5.192 1.209 1.832 2.773 3.353 4.896 4.259 1.012.431 2.126.655 3.307 1.007" fill="#90b15c"/><path d="m94.308 113.844c1.846-.837 3.551-1.521 5.343-1.935.663 1.143 1.26 2.186 1.869 3.222.697 1.186 1.642 2.173 2.81 2.976.434.298.723.637.964 1.136.317.656.64 1.217.311 1.923-.23.492-.348 1.091-.726 1.449-.875.829-2.916.972-4.03.268-.72-.454-1.396-1.051-1.887-1.715-1.335-1.805-2.717-3.592-3.482-5.713-.193-.535-.696-.974-1.172-1.611" fill="#fdd8bd"/><path d="m107.176 119.393c1.031.371 1.883.604 2.658.976.869.415 1.066 1.07.823 1.962-.201.737-.319 1.494-.518 2.231-.327 1.213-1.114 2.074-2.24 2.783-1.69 1.064-3.573 1.32-5.493 1.227-.686-.033-1.486-.564-1.974-1.08-.869-.917-1.57-1.977-2.283-3.012-.517-.75-.215-1.385.411-1.858 1.088.631 2.116 1.239 3.158 1.826.586.331 1.187.411 1.813.04.245-.145.551-.198.827-.298 1.465-.535 2.309-1.493 2.435-2.988.045-.536.22-1.061.383-1.809" fill="#fff"/><path d="m75.889 120.918c.473.335.397.739.324 1.219-.173 1.129.159 1.618 1.316 1.711 1.222.097 2.477.092 3.691-.055 1.009-.121 2.03-.4 2.632-1.35.148-.233.552-.327.839-.486.959 1.128 1.601 2.266 1.533 3.69-.028.604-.252 1.038-.721 1.434-.884.745-1.976 1.006-3.091 1.227-1.77.351-3.532.36-5.235-.277-.321-.12-.682-.414-.792-.704-.328-.859-.596-1.746-.779-2.642-.166-.808-.198-1.64-.272-2.462-.045-.504-.084-1.022.555-1.305" fill="#fff"/><path d="m77.791 122.907c-.674-2.022-1.324-3.971-1.978-5.93 1.996-.437 3.844-.842 5.832-1.278.214.668.445 1.398.682 2.127.256.79.515 1.58.778 2.368.388 1.159-.045 2.067-1.281 2.524-1.333.492-2.709.298-4.033.189" fill="#fdd8bd"/><path d="m71.58 64.831c.848-.077 1.385-.126 2.004-.182.506 1.134 1.353 2.048 2.616 2.592.491.212.573.556.451 1.025-.436 1.668-1.403 3.032-2.808 4.1-1.051.799-2.164.47-2.43-.805-.273-1.317-.736-2.647-.331-4.044.251-.867.335-1.775.498-2.686" fill="#fff"/><path d="m88.027 67.68c-.717-.218-1.405-.427-2.018-.613.368-.456.831-.897 1.123-1.421.937-1.679 2.058-3.222 3.487-4.576.619-.586 1.155-1.247 1.761-1.847.223-.221.512-.458.814-.528 1.742-.404 3.498-.761 5.299-1.023-4.152 2.74-7.181 6.427-10.466 10.008" fill="#90b15c"/><path d="m108.858 62.268c.703.639 1.449 1.243 2.099 1.927.955 1.007 2.155 1.409 3.546 1.434.732.013 1.464.002 2.173.002.367 2.555-1.284 4.78-4.543 6.119-.215-.765-.422-1.504-.632-2.244-.352-1.231-.615-2.491-1.083-3.683-.463-1.18-1.134-2.289-1.714-3.43.051-.042.102-.083.154-.125" fill="#90b15c"/><path d="m86.532 61.806c.441.562.512 1.052.169 1.596-.4.634-.787 1.277-1.16 1.925-.59 1.026-1.313 1.891-2.46 2.48-1.56.802-2.386 2.13-2.647 3.859-1.045-.628-1.56-1.563-1.841-2.616-.17-.639.037-1.185.767-1.457 1.568-.584 2.342-1.779 2.754-3.204.199-.69.584-1.1 1.306-1.35 1.049-.361 2.062-.812 3.112-1.233" fill="#fff"/><path d="m63.531 92.513c-1.09-2.102-2.356-7.952-.769-11.746.653 1.203 1.217 2.434 2.971 2.095-.418 1.736-.905 3.319-1.158 4.934-.247 1.582-.408 3.167-1.044 4.717" fill="#90b15c"/><path d="m101.151 57.545c-1.072 1.41-1.732 2.871-2.195 4.409-.479 1.587.285 3.15.273 4.801-1.599-1.439-3.118-2.806-4.682-4.213-.016.047-.014-.059.042-.107 1.808-1.522 3.607-3.053 5.446-4.541.273-.222.739-.238 1.116-.349" fill="#90b15c"/><path d="m65.445 67.997c.433-1.448 1.546-2.537 2.715-3.577.17-.152.555-.174.82-.137.427.059.838.218 1.282.342-.151 1.883-.2 3.741-1.195 5.376-1.198-.663-2.368-1.31-3.622-2.004" fill="#90b15c"/><path d="m81.13 63.68c-.258 1.551-.986 2.583-2.39 3.07-.941.327-2.997-.852-3.851-2.122 1.037-.088 2.051-.123 3.045-.272 1.006-.151 1.991-.416 3.196-.676" fill="#fdd8bd"/><path d="m59.233 59.416c-1.779-.102-3.171-1.03-3.525-2.288-.246-.873-.212-1.716.855-2.331.43.817.807 1.59 1.237 2.336.416.722.887 1.418 1.433 2.283" fill="#fdd8bd"/><path d="m96.031 85.951c1.544.587 3.026 1.305 4.918.571.033.615.059 1.081.088 1.617-2.341.397-3.539-1.172-5.006-2.188" fill="#90b15c"/><path d="m89.643 60.578c-.474.557-.947 1.113-1.496 1.757-.263-.332-.45-.569-.701-.887.712-.37 1.362-.708 2.012-1.045.062.058.123.116.185.175" fill="#fff"/><path d="m64.085 55.719c.961.797 1.83 1.379 3.012 1.609 1.546.301 2.934.044 4.327-.477.595-.222 1.182-.465 1.751-.74 2.294-1.112 3.938-2.732 4.569-5.13.177-.675.321-1.331-.059-2.01-.099-.176.002-.594.167-.712.159-.115.543-.04.786.049.266.098.492.3.723.471.604.444.545.534.031 1.137-.345.405-.603.928-.723 1.436-.56 2.36-2.199 3.977-4.268 5.207-1.659.987-3.48 1.717-5.494 1.928-1.613.168-3.012-.342-4.322-1.106-.526-.307-1.016-.756-.5-1.662" fill="#231f20"/><path d="m67.971 44.751c-.875-.049-1.611-.175-2.329-.111-1.278.113-2.182.986-2.23 2.005-.082 1.735 2.012 2.88 3.806 2.038.583-.274 1.073-.72 1.675-1.134.383.564.235.971-.189 1.368-.935.876-2.951 1.296-4.129.845-1.508-.577-2.539-2.011-2.402-3.463.036-.384.256-.793.505-1.114.821-1.059 2.06-1.529 3.367-1.755.911-.157 1.575.378 1.926 1.321" fill="#231f20"/><path d="m72.232 36.99c.255.994.512 1.824.671 2.671.128.678.129 1.36-.385 1.963-.596.698-1.46.669-1.652-.188-.324-1.446-.28-2.921.661-4.225.083-.114.348-.115.705-.221" fill="#231f20"/><path d="m60.654 39.44c1.158 1.246 1.018 3.777-.147 4.844-.812-.17-1.054-.727-1.069-1.421-.026-1.227-.026-2.451 1.216-3.423" fill="#231f20"/><path d="m94.892 51.828c-.69-.264-.795-.621-.483-1.115.496-.791 2.625-1.533 3.54-1.162.319.13.582.465.764.762.079.127-.061.439-.2.587-.08.085-.381.062-.542-.001-1.663-.655-1.893-.595-3.079.929" fill="#231f20"/><path d="m72.795 33.404c-1.027-.508-1.982-.981-3.019-1.494.637-.877 1.249-.424 1.698-.164.619.358 1.597.567 1.321 1.658" fill="#231f20"/><path d="m58.215 35.376c.439-1.232 1.407-1.79 2.29-2.394.147-.1.655.005.758.155.202.296.037.558-.349.75-.861.428-1.683.923-2.699 1.489" fill="#231f20"/><path d="m52.413 33.369c1.604-.137 2.965-1.098 4.259-1.989 4.778-3.288 10.014-6.142 15.776-7.501 5.762-1.36 12.119-1.11 17.342 1.529-.328-3.622-4.039-6.38-7.898-6.954-3.858-.573-7.771.585-11.34 2.065-3.804 1.577-7.423 3.537-10.775 5.836-3.371 2.313-6.845 5.021-11.276 4.894 1.191.986 2.067 2.278 3.912 2.12" fill="#ddab75"/></g></svg>