<svg clip-rule="evenodd" fill-rule="evenodd" stroke-miterlimit="10" viewBox="0 0 163 161" xmlns="http://www.w3.org/2000/svg"><path d="m10.418 10.199h141.488v138.977h-141.488z" fill="#fdcd9d" stroke="#fff" stroke-width="2"/><g fill-rule="nonzero"><path d="m109.312 151.531c.018-.033.033-.093.052-.094.052-.003.104.019.156.031-.018.033-.033.093-.052.094-.052.003-.104-.019-.156-.031" fill="#fff"/><path d="m78.647 29.046c-.062-.597-.122-1.711-.319-2.8-.087-.478-.348-1.15-.714-1.31-1.272-.554-2.649-.759-3.958-.09-1.173.6-1.225 1.791-1.237 2.9-.011 1.1.147 2.202.203 3.304.227 4.44.439 8.88.668 13.32.034.653.118 1.303.201 1.952.121.942.614 1.523 1.577 1.76 1.236.304 2.64-.337 3.069-1.739.317-1.032.391-2.174.38-3.265-.024-2.223-.267-4.445-.253-6.666.014-2.284.228-4.567.383-7.366m3.937 22.305c-3.302.651-6.306.547-9.306.573-1.301.011-2.601.171-3.902.213-4.555.146-9.11.786-13.798-.031-.049-.415-.123-.845-.145-1.277-.133-2.54-.248-5.081-.381-7.62-.118-2.266-.158-4.541-.416-6.791-.155-1.345-.62-2.663-1.026-3.968-.35-1.125-1.346-1.69-2.37-1.819-1.271-.161-2.589-.228-3.852.385-.932.451-2.013.59-2.955 1.026-2.249 1.039-4.467 2.148-6.675 3.274-2.036 1.038-4.022 2.175-6.071 3.186-1.04.514-2.176.834-3.258 1.268-.483.193-.971.404-1.403.689-2.625 1.726-5.234 3.477-7.85 5.217-.364.243-.735.474-1.242.801-.091-.423-.178-.656-.188-.892-.189-4.308-.667-8.598-.208-12.932.26-2.456.148-4.962.061-7.44-.079-2.278 1.495-3.589 2.864-4.885.64-.605 1.974-.601 3.002-.646 4.116-.177 8.235-.293 12.353-.375 3.672-.074 7.344-.083 11.016-.098 2.621-.012 5.243.055 7.863.015 6.023-.094 12.044-.248 18.067-.335 1.106-.015 2.217.151 3.321.271 2.923.316 4.642 2.109 5.253 4.812.502 2.218.752 4.523.833 6.799.218 6.095.287 12.196.411 18.295.014.706.002 1.412.002 2.285" fill="#8dd2ce"/><path d="m74.011 27.681h-50.143c-1.889 0-3.434-1.545-3.434-3.435 0-1.888 1.545-3.434 3.434-3.434h50.143c1.889 0 3.435 1.546 3.435 3.434 0 1.89-1.546 3.435-3.435 3.435" fill="#fff" opacity=".5"/><path d="m61.2 66.308c.142-1.69.142-1.69-1.649-1.578-.083 1.441-.083 1.441 1.649 1.578m1.507 26.728c.359-2.02-.568-2.784-2.892-2.234 1.043.805 1.942 1.5 2.892 2.234m6.846-9.415c1.726.831 3.21 1.142 4.913.45-1.072-1.173-3.058-1.351-4.913-.45m-3.538-14.558c-3.232-1.499-6.396-2.213-9.775-.154.037.732.074 1.465.11 2.194h9.259c.143-.718.266-1.339.406-2.04m-.482 7.984c.062-1.078.168-1.982.151-2.884-.021-1.07-.353-1.454-1.396-1.473-2.657-.049-5.316-.016-8.046-.016v4.082c.478.114.851.276 1.225.28 2.613.022 5.225.011 8.066.011m14.154 24.896c-.99.067-1.716.157-2.442.157-3.6-.002-7.2-.075-10.8-.03-2.679.033-5.356.204-8.033.325-.179.008-.355.106-.612.188.046.51.091.996.142 1.538 6.679.497 13.184-.488 19.708-.388.687.011 1.38-.308 2.149-.493-.04-.47-.078-.903-.112-1.297m-1.09-24.488c-7.536.26-14.867.513-22.32.77.024.447.05.934.09 1.669 1.517.018 2.918.051 4.32.048 2.87-.007 5.743.022 8.612-.067 2.607-.08 5.212-.283 7.815-.464.493-.034.976-.216 1.483-.334zm-2.053 23.252c.062-.403.124-.653.134-.904.098-2.48.356-4.969.232-7.437-.124-2.486-.711-4.902-2.857-6.597-1.643-1.297-3.453-.874-4.227 1.056-.17.424-.302.863-.44 1.299-.343 1.08-.288 2.044.875 2.598-.223.708-.414 1.314-.551 1.751.605.713 1.191 1.235 1.566 1.879.891 1.528 1.222 3.126.506 4.879-.391.957-.067 1.413.877 1.461 1.234.062 2.474.015 3.885.015m-26.756 30.83c.006-.07.012-.141.018-.21-4.357-1.063-8.699-2.2-13.077-3.168-4.437-.982-8.461-2.969-12.672-4.997 0 .536-.045.917.008 1.282.197 1.356.447 2.704.637 4.061.312 2.238.764 2.599 3.067 2.586 2.014-.012 4.069-.184 6.035.145 3.764.631 7.543.421 11.314.558 1.552.056 3.113-.163 4.67-.257m7.608-31.801c1.102.8 1.85 1.623 3.137 1.516 2.601-.215 5.209-.393 7.817-.471 1.233-.036 1.741-.75 2.085-1.711.888-2.474.024-4.495-2.55-6.033-.151.104-.326.195-.464.325-2.356 2.213-4.242 2.253-6.633.051-.646-.594-1.243-.538-1.971-.286-.817.282-1.404.73-1.415 1.652-.02 1.696-.006 3.391-.006 4.957m9.567-38.622v15.819c1.438-.089 2.738-.129 4.029-.262 1.273-.132 2.537-.359 3.951-.566 0-1.205.085-2.247-.016-3.27-.296-2.984-.654-5.962-1.015-8.939-.078-.645-.191-1.311-.443-1.9-.154-.36-.595-.828-.925-.843-1.811-.082-3.627-.039-5.581-.039m-8.601 65.39c-.578 3.945-.675 4.068-3.644 4.933 4.578-.07 9.151-.258 13.726-.403 4.552-.144 9.119.323 13.729-.129v-5.724c-3.178.216-6.109.408-9.039.618-1.761.127-3.54.524-5.274.373-3.167-.276-6.258.259-9.498.332m-.184-59.834c-.157-.658-.336-1.158-.383-1.67-.074-.793.274-1.412 1.042-1.691 2.009-.73 3.826.442 4.005 2.549.022.252.112.498.2.872.914.19 1.828.38 2.82.586v-6.824c.845-.684 1.775-.77 2.796-.757 1.428.018 2.862-.098 4.287-.234 1.217-.116 1.658.194 1.803 1.422.444 3.76.874 7.521 1.358 11.275.163 1.266.471 2.512.72 3.802.654-.073 1.1-.123 1.712-.191.054-6.11-.583-12.128-.757-18.234-7.58-.186-14.897.19-22.202.826-.25 3.21.156 6.139.464 9.232.8-.361 1.385-.625 2.135-.963m20.351 14.051c-7.466.19-14.827.378-22.275.567.276 3.92.535 7.608.809 11.515.755-.494 1.279-.837 1.697-1.111-.163-.805-.288-1.422-.468-2.31.859-.052 1.54-.17 2.204-.111.698.061 1.38.291 1.915.412.669-.606 1.158-1.272 1.816-1.604 1.754-.882 2.472-.351 2.44 1.652-.002.105.097.211.196.413.316-.022.672-.046.894-.062.504-1.721.957-3.271 1.426-4.874-.751-.435-1.301-.985-.971-1.918.315-.889 1.053-1.042 1.89-1.082.975-.046 1.946-.175 2.92-.261 2.173-.194 2.244-.114 2.488 2.11.068.626.109 1.362.456 1.831 1.556 2.103 2.159 4.428 2.011 7.008-.143 2.482-.078 4.955.527 7.526.349-.164.759-.226.849-.43.149-.336.127-.765.114-1.152-.204-5.802-.415-11.604-.638-17.406-.006-.182-.147-.36-.3-.713m-25.094 48.919c2.62.216 3.332-.393 3.514-2.713.01-.131.02-.262.021-.393.044-3.737.169-7.476.11-11.211-.066-4.188-.25-8.375-.471-12.557-.235-4.445-.61-8.881-.857-13.325-.277-4.97-.504-9.944-.701-14.919-.071-1.765.076-3.54.003-5.305-.223-5.366-.52-10.728-.748-16.094-.044-1.034.176-2.08.123-3.112-.161-3.128-.499-6.25-.569-9.378-.051-2.252-.551-4.386-1.011-6.558-.251-1.183-.973-1.641-1.951-1.873-.527-.126-1.108-.023-1.802-.023 1.637 2.831 2.557 5.706 2.345 8.886-.138 2.082-.166 4.172-.25 6.258-.171 4.265.102 8.49.64 12.737.534 4.21.57 8.484.806 12.73.076 1.376.053 2.757.14 4.131.228 3.593.492 7.183.738 10.774.032.458.029.918.061 1.376.327 4.701.781 9.398.945 14.105.121 3.466-.193 6.945-.207 10.419-.016 3.792.002 7.589.184 11.376.079 1.629-.045 3.118-1.063 4.669m4.722-8.956c7.528-.514 14.75-.748 22.078-1.451-.299-4.821.292-9.434-.439-13.974-5.594-.481-20.087-.019-21.639.62zm.434 4.571c.586 0 1.228.033 1.866-.005 5.89-.36 11.78-.727 17.669-1.105 1.44-.092 2.885-.171 4.312-.371 1.492-.21 2.239-1.293 2.092-2.761-.091-.912-.174-1.826-.199-2.74-.151-5.573-.294-11.146-.423-16.719-.324-13.966-.628-27.933-.968-41.898-.052-2.143-.249-4.283-.386-6.531-.953 0-1.728-.019-2.502.004-4.319.127-8.638.354-12.957.371-3.658.014-7.315.749-10.978.06-.166-.031-.359.091-.78.208.057 1.112.114 2.236.179 3.508.86-.086 1.499-.143 2.137-.215 1.039-.117 2.074-.298 3.116-.357 5.145-.293 10.29-.585 15.438-.8.927-.039 1.869.282 2.713.422.16 3.35.339 6.419.445 9.49.091 2.619.046 5.243.152 7.862.228 5.625.534 11.246.772 16.87.167 3.928.256 7.859.415 11.788.219 5.419.494 10.837.695 16.257.053 1.43-.852 2.225-2.275 2.291-2.023.093-4.046.217-6.067.358-1.364.095-2.723.295-4.088.351-3.134.128-6.269.189-9.403.299-.432.015-.86.154-1.311.239 0 .899-.015 1.677.012 2.453.006.175.161.345.324.671m23.993-73.904c0-.873.012-1.579-.002-2.285-.124-6.098-.193-12.199-.411-18.295-.081-2.276-.331-4.581-.833-6.799-.611-2.703-2.33-4.496-5.253-4.812-1.104-.12-2.215-.286-3.321-.27-6.023.086-12.044.241-18.067.334-2.621.041-5.242-.026-7.863-.015-3.672.015-7.344.025-11.016.098-4.118.082-8.237.199-12.353.376-1.029.044-2.363.041-3.002.645-1.369 1.296-2.943 2.607-2.864 4.885.086 2.478.199 4.985-.062 7.441-.459 4.334.02 8.624.209 12.931.01.236.097.47.188.892.507-.326.878-.558 1.242-.8 2.616-1.741 5.225-3.492 7.85-5.218.432-.284.92-.495 1.403-.689 1.082-.434 2.217-.754 3.258-1.268 2.049-1.011 4.035-2.148 6.071-3.186 2.208-1.126 4.425-2.235 6.674-3.274.942-.436 2.024-.574 2.955-1.026 1.264-.613 2.582-.545 3.853-.385 1.023.13 2.02.695 2.37 1.819.405 1.305.871 2.623 1.026 3.968.258 2.25.297 4.526.416 6.791.133 2.539.248 5.08.38 7.62.023.432.097.862.145 1.277 4.688.817 9.244.177 13.798.031 1.302-.041 2.602-.202 3.903-.213 3-.026 6.004.078 9.306-.573m-31.162 78.768c1.531-1.63 2.039-3.541 2.012-5.75-.067-5.444-.102-10.893.074-16.332.215-6.629-.574-13.198-.903-19.793-.234-4.701-.754-9.387-1.069-14.084-.226-3.384-.278-6.779-.493-10.163-.186-2.937-.641-5.863-.713-8.801-.117-4.782-.12-9.573.032-14.354.076-2.39-.532-4.516-1.514-6.605-.525-1.12-1.842-1.812-2.881-1.442-1.908.678-3.837 1.331-5.668 2.184-3.02 1.407-5.969 2.966-8.95 4.458-.409.205-.814.438-1.246.579-2.594.842-4.851 2.27-6.978 3.937-.979.767-1.992 1.488-2.974 2.251-2.362 1.834-4.546 3.792-4.728 7.085-.036.653-.14 1.307-.12 1.957.086 2.879.204 5.757.317 8.635.16 4.056.27 8.115.501 12.167.309 5.418.88 10.826 1.029 16.247.157 5.709.678 11.375 1.289 17.041.224 2.081.453 4.17.844 6.224.483 2.537 1.692 4.633 4.061 5.952 6.471 3.602 13.502 5.588 20.661 7.197 2.408.541 4.851.927 7.417 1.41m13.01-37.571c.376-1.054.751-2.108 1.131-3.173-.798-.387-1.282-.135-1.47.511-.264.906-.668 1.888.393 2.618-.036.279-.073.557-.165 1.263 1.289-1.19 3.005-.77 4.02-2.299-1.669-.163-2.758.564-3.909 1.08m19.739 39.241c-.854.221-1.514.495-2.192.545-1.431.108-2.872.144-4.308.129-3.405-.038-6.811-.213-10.214-.169-5.542.072-11.082.275-16.622.419-3.649.095-7.297.23-10.945.249-1.696.01-3.392-.244-5.09-.321-2.877-.131-5.757-.22-8.635-.322-2.273-.081-2.512-.337-2.676-2.66-.133-1.896-.316-3.788-.476-5.682-.074-.877-.322-1.604-1.158-2.123-2.715-1.688-3.475-4.46-3.857-7.372-.408-3.108-.772-6.225-1.06-9.346s-.47-6.252-.676-9.38c-.177-2.666-.336-5.333-.476-8.001-.065-1.242-.029-2.489-.102-3.73-.366-6.268-.805-12.531-1.111-18.801-.195-3.981-.631-7.974-.11-11.958.242-1.852.235-3.832 1.887-5.205.223-.185.427-.546.423-.823-.023-1.366-.122-2.731-.189-4.097-.086-1.755-.18-3.511-.249-5.268-.089-2.281-.235-4.565-.214-6.846.022-2.394.154-4.792.369-7.176.059-.66.487-1.356.919-1.897.686-.859 1.442-1.702 2.314-2.358.588-.442 1.417-.734 2.157-.776 3.581-.207 7.169-.334 10.755-.438 4.31-.125 8.621-.226 12.932-.281 1.629-.02 3.261.181 4.891.17 1.825-.011 3.648-.167 5.472-.227 3.656-.119 7.312-.251 10.969-.309 2.734-.044 5.469.031 8.204.03 4.312-.001 7.291 2.881 7.952 6.909.436 2.657.577 5.298.45 7.985-.105 2.223-.002 4.458.038 6.688.087 4.721.172 9.443.295 14.164.216 8.195.488 16.389.684 24.585.199 8.327.287 16.657.514 24.983.146 5.373.459 10.741.685 16.111.041.982.001 1.968.041 2.95.034.848-.211 1.632-.879 2.09-1.799 1.23-1.488 3.026-1.362 4.749.061.829.369 1.641.65 2.81" fill="#231f20"/><path d="m45.124 61.374c.539.083 1.035.208 1.535.23 2.31.101 3.637-1.018 3.171-3.454-.123-.639-.195-1.288-.331-1.924-.284-1.33-1.224-2.383-2.345-2.278-1.478.138-2.957.461-4.386.877-1.044.303-1.799 1.147-2.121 2.181-.363 1.164-.703 2.381-.752 3.587-.078 1.945.095 3.899.153 5.849.093 3.072.157 6.145.274 9.216.169 4.422.33 8.844.579 13.262.184 3.262.409 6.528.812 9.768.156 1.256.756 2.494 1.338 3.647.405.805 1.101 1.511 2.131 1.563 1.045.053 2.1.115 3.139.027 1.315-.111 2.177-1.127 2.434-2.426.3-1.515-.202-2.61-1.593-3.174-1.335-.542-1.872-1.517-2.014-2.857-.102-.973-.305-1.935-.408-2.908-.523-4.938-1.059-9.875-1.521-14.819-.189-2.016-.246-4.047-.286-6.072-.062-3.143-.064-6.287-.073-9.431-.001-.241.143-.483.264-.864m6.298 68.744c-2.566-.483-5.009-.869-7.417-1.41-7.159-1.608-14.19-3.595-20.661-7.197-2.369-1.319-3.578-3.414-4.061-5.951-.391-2.055-.62-4.143-.844-6.225-.611-5.665-1.132-11.332-1.289-17.041-.149-5.42-.72-10.828-1.028-16.247-.231-4.051-.342-8.11-.501-12.166-.114-2.878-.231-5.756-.318-8.635-.02-.65.084-1.304.12-1.957.182-3.293 2.367-5.251 4.728-7.086.982-.763 1.995-1.484 2.974-2.25 2.127-1.667 4.384-3.096 6.978-3.938.433-.141.837-.373 1.247-.578 2.98-1.492 5.929-3.051 8.949-4.459 1.831-.853 3.76-1.505 5.668-2.184 1.039-.369 2.356.323 2.882 1.442.981 2.089 1.589 4.216 1.513 6.606-.152 4.781-.149 9.572-.032 14.354.072 2.937.527 5.864.713 8.801.215 3.384.267 6.779.494 10.162.314 4.697.834 9.383 1.068 14.084.33 6.595 1.118 13.164.903 19.793-.176 5.44-.14 10.889-.073 16.332.026 2.209-.482 4.12-2.013 5.75" fill="#8dd2ce"/><path d="m58.591 125.255c-.164-.326-.318-.496-.324-.671-.028-.776-.012-1.554-.012-2.453.451-.085.878-.224 1.311-.239 3.133-.11 6.269-.171 9.402-.299 1.366-.056 2.725-.256 4.089-.351 2.021-.14 4.044-.264 6.067-.358 1.423-.066 2.328-.861 2.275-2.291-.202-5.42-.476-10.838-.695-16.257-.159-3.929-.248-7.86-.415-11.788-.239-5.624-.544-11.245-.772-16.87-.106-2.618-.061-5.243-.152-7.862-.106-3.071-.285-6.14-.445-9.49-.844-.14-1.786-.461-2.713-.422-5.148.215-10.293.507-15.438.8-1.042.059-2.077.24-3.116.357-.638.072-1.277.13-2.137.215-.065-1.272-.122-2.396-.179-3.507.421-.118.614-.24.78-.209 3.662.689 7.32-.046 10.978-.06 4.319-.017 8.638-.244 12.957-.371.774-.023 1.549-.003 2.502-.003.137 2.247.334 4.387.386 6.53.339 13.966.644 27.932.967 41.898.13 5.574.273 11.146.424 16.719.025.915.108 1.829.199 2.74.147 1.468-.601 2.552-2.092 2.761-1.427.2-2.872.279-4.312.371-5.889.379-11.779.745-17.669 1.105-.638.039-1.28.005-1.866.005" fill="#fff"/><path d="m75.451 106.741c-.781-.072-1.54-.203-2.299-.202-2.816.005-5.631.065-8.446.082-3.057.018-3.305.439-2.977 3.476.092.854.466 1.331 1.365 1.313.786-.015 1.577-.079 2.357-.013 2.87.24 5.726-.555 8.598-.089.803.131 1.303-.388 1.373-1.08.109-1.084.029-2.188.029-3.487m-17.294 13.942v-14.805c1.552-.639 16.045-1.1 21.639-.619.731 4.54.14 9.152.439 13.974-7.328.703-14.55.937-22.078 1.45" fill="#fff"/><path d="m53.436 129.64c1.018-1.551 1.142-3.041 1.063-4.669-.183-3.787-.2-7.584-.185-11.376.015-3.474.329-6.953.208-10.419-.165-4.707-.619-9.404-.945-14.105-.032-.458-.03-.918-.061-1.376-.246-3.591-.511-7.181-.738-10.774-.087-1.374-.065-2.755-.141-4.131-.235-4.246-.272-8.52-.805-12.73-.538-4.247-.812-8.472-.641-12.737.084-2.086.113-4.176.251-6.258.211-3.18-.709-6.055-2.346-8.886.694 0 1.276-.103 1.802.023.978.232 1.701.69 1.952 1.873.46 2.172.96 4.306 1.011 6.558.07 3.128.408 6.25.569 9.378.053 1.032-.167 2.078-.123 3.112.228 5.366.525 10.728.747 16.094.073 1.765-.073 3.54-.003 5.305.198 4.975.425 9.949.701 14.919.248 4.444.623 8.88.858 13.324.221 4.183.405 8.37.471 12.558.059 3.735-.066 7.474-.11 11.211-.002.131-.012.262-.022.393-.181 2.32-.893 2.929-3.513 2.713" fill="#d1d3d4"/><path d="m78.529 80.72c.153.354.294.531.301.713.222 5.802.433 11.604.637 17.407.013.387.035.816-.113 1.151-.09.204-.5.266-.849.431-.605-2.571-.67-5.045-.528-7.527.148-2.58-.455-4.904-2.011-7.008-.346-.469-.388-1.205-.456-1.831-.243-2.223-.314-2.303-2.488-2.11-.973.086-1.945.215-2.92.262-.837.04-1.575.192-1.89 1.082-.33.932.22 1.482.972 1.918-.469 1.602-.923 3.153-1.427 4.874-.222.015-.578.039-.894.061-.099-.202-.197-.308-.195-.412.031-2.003-.687-2.535-2.441-1.652-.658.331-1.147.997-1.815 1.604-.535-.122-1.218-.352-1.915-.413-.665-.058-1.345.059-2.204.111.18.889.304 1.506.467 2.311-.418.273-.942.617-1.696 1.111-.275-3.908-.534-7.596-.809-11.515 7.448-.19 14.808-.378 22.274-.568" fill="#a5c7e9"/><path d="m58.178 66.67c-.75.338-1.335.602-2.135.963-.308-3.092-.714-6.022-.464-9.232 7.305-.636 14.622-1.012 22.202-.826.174 6.106.811 12.124.757 18.234-.612.069-1.058.118-1.712.192-.249-1.29-.557-2.537-.72-3.803-.484-3.754-.914-7.515-1.358-11.275-.145-1.228-.586-1.538-1.803-1.421-1.425.135-2.859.251-4.288.233-1.02-.013-1.95.073-2.795.757v6.824c-.992-.206-1.906-.396-2.82-.585-.088-.374-.178-.621-.2-.873-.179-2.107-1.996-3.279-4.005-2.549-.768.279-1.116.898-1.042 1.691.047.512.226 1.012.383 1.67" fill="#a5c7e9"/><path d="m58.362 126.504c3.24-.073 6.331-.607 9.498-.332 1.734.151 3.513-.246 5.274-.373 2.93-.21 5.861-.402 9.039-.618v5.724c-4.61.452-9.177-.015-13.729.129-4.575.145-9.148.333-13.726.404 2.969-.866 3.066-.989 3.644-4.934" fill="#656668"/><path d="m66.964 61.113c1.954 0 3.77-.043 5.581.039.33.015.771.483.924.843.253.59.366 1.255.444 1.9.361 2.977.719 5.955 1.014 8.939.101 1.024.016 2.065.016 3.271-1.414.206-2.677.433-3.951.565-1.29.133-2.59.173-4.028.262z" fill="#5dc4b6"/><path d="m57.396 99.736c0-1.565-.014-3.261.006-4.957.011-.922.598-1.37 1.415-1.652.728-.251 1.325-.308 1.972.287 2.391 2.201 4.276 2.161 6.632-.052.139-.13.313-.221.464-.325 2.574 1.538 3.438 3.559 2.551 6.033-.345.961-.853 1.675-2.085 1.711-2.609.078-5.217.256-7.818.472-1.286.106-2.034-.717-3.137-1.517" fill="#ed1c24"/><path d="m49.788 131.537c-1.557.094-3.118.313-4.67.257-3.771-.137-7.55.073-11.314-.558-1.966-.329-4.021-.157-6.035-.145-2.303.013-2.754-.348-3.067-2.586-.189-1.357-.44-2.705-.637-4.061-.052-.365-.007-.746-.007-1.282 4.21 2.028 8.234 4.015 12.671 4.997 4.378.968 8.72 2.105 13.078 3.168-.007.069-.013.14-.019.21" fill="#656668"/><path d="m76.545 100.707c-1.411 0-2.651.047-3.885-.015-.944-.048-1.268-.505-.877-1.462.716-1.752.385-3.35-.506-4.878-.376-.645-.961-1.166-1.566-1.879.137-.438.328-1.043.55-1.751-1.162-.554-1.217-1.518-.874-2.598.138-.436.27-.875.44-1.299.774-1.93 2.584-2.353 4.226-1.056 2.147 1.694 2.734 4.11 2.858 6.596.124 2.469-.134 4.957-.232 7.437-.01.252-.072.501-.134.905" fill="#fff"/><path d="m78.598 77.455v1.622c-.508.118-.991.299-1.483.334-2.604.18-5.208.383-7.816.464-2.868.088-5.741.06-8.612.066-1.401.003-2.802-.029-4.319-.048-.04-.734-.066-1.221-.091-1.668 7.454-.257 14.785-.51 22.321-.77" fill="#d5d7d8"/><path d="m79.688 101.943c.034.394.071.827.112 1.297-.77.185-1.462.504-2.15.493-6.523-.101-13.028.885-19.708.388-.05-.543-.095-1.028-.142-1.538.258-.082.433-.18.613-.188 2.677-.121 5.354-.292 8.033-.326 3.599-.044 7.2.029 10.8.031.726 0 1.452-.091 2.442-.157" fill="#d5d7d8"/><path d="m65.533 77.047c-2.841 0-5.453.011-8.066-.012-.374-.003-.747-.166-1.225-.28v-4.082c2.73 0 5.389-.032 8.046.017 1.043.019 1.375.403 1.396 1.473.017.902-.089 1.806-.151 2.884" fill="#c7b2d6"/><path d="m66.015 69.063c-.14.7-.263 1.322-.406 2.04h-9.259c-.036-.729-.073-1.463-.11-2.195 3.379-2.059 6.544-1.345 9.775.155" fill="#c7b2d6"/><path d="m69.553 83.621c1.855-.902 3.841-.724 4.913.449-1.703.692-3.187.382-4.913-.449" fill="#f04b41"/><path d="m62.708 93.036c-.951-.734-1.85-1.429-2.892-2.234 2.324-.55 3.25.213 2.892 2.234" fill="#00ae4d"/><path d="m64.433 92.548c1.15-.516 2.239-1.243 3.909-1.08-1.015 1.53-2.731 1.109-4.02 2.3.091-.706.128-.985.164-1.264z" fill="#00ae4d"/><path d="m64.486 92.504c-1.061-.73-.657-1.711-.393-2.618.188-.646.673-.898 1.471-.51-.38 1.065-.756 2.118-1.131 3.172z" fill="#00a94f"/><path d="m61.2 66.308c-1.732-.137-1.732-.137-1.649-1.578 1.791-.112 1.791-.112 1.649 1.578" fill="#808285"/><path d="m41.749 83.349c-.094.007-.188.015-.282.022.384 4.224.745 8.449 1.162 12.668.153 1.551.269 3.123 1.014 4.553 1.023 1.965 3.193 2.687 4.927 1.516.42-.283.724-.926.807-1.447.043-.273-.461-.864-.794-.931-1.943-.389-2.42-1.868-2.611-3.47-.447-3.762-.832-7.531-1.179-11.303-.215-2.342-.33-4.693-.461-7.041-.23-4.17-.442-8.34-.655-12.51-.057-1.112-.163-2.227-.121-3.336.071-1.859.818-2.405 2.628-2.056.257.049.514.106.773.128 1.517.126 1.931-.332 1.637-1.794-.09-.447-.196-.891-.271-1.34-.244-1.459-.742-1.892-2.208-1.903-2.424-.017-4.411 1.581-4.886 3.966-.152.767-.317 1.551-.309 2.325.042 4.122.082 8.245.232 12.365.117 3.199.392 6.392.597 9.588m3.375-21.975c-.121.382-.265.623-.264.865.009 3.143.011 6.287.073 9.43.04 2.026.097 4.056.286 6.072.462 4.944.998 9.881 1.521 14.819.103.974.306 1.935.408 2.909.142 1.339.679 2.315 2.014 2.856 1.391.565 1.893 1.659 1.593 3.175-.257 1.299-1.119 2.315-2.434 2.426-1.039.087-2.094.026-3.139-.027-1.03-.052-1.726-.758-2.131-1.563-.582-1.154-1.182-2.391-1.338-3.648-.403-3.239-.628-6.506-.812-9.768-.249-4.417-.41-8.84-.579-13.262-.117-3.071-.181-6.144-.274-9.216-.058-1.95-.231-3.904-.153-5.848.049-1.206.389-2.423.752-3.587.322-1.035 1.077-1.879 2.121-2.182 1.429-.415 2.908-.738 4.386-.877 1.121-.105 2.061.948 2.345 2.278.136.636.208 1.285.331 1.925.466 2.435-.861 3.554-3.171 3.453-.5-.022-.996-.146-1.535-.23" fill="#231f20"/><path d="m73.811 25.984c-.057 1.636-.162 2.99-.136 4.341.029 1.435.197 2.866.278 4.301.177 3.132.327 6.266.515 9.398.035.583.129 1.184.325 1.729.138.383.498.966.755.964.423-.004.929-.327 1.245-.661 1.039-1.096.579-2.468.566-3.751-.028-2.866-.09-5.733-.081-8.599.006-1.895.167-3.791.139-5.685-.008-.611-.249-1.374-.666-1.769-.295-.279-1.066-.04-1.624-.063-.305-.014-.608-.091-1.316-.205m4.836 3.062c-.154 2.799-.368 5.082-.383 7.366-.014 2.221.23 4.443.253 6.666.012 1.091-.062 2.233-.379 3.265-.43 1.402-1.834 2.043-3.07 1.739-.963-.237-1.455-.818-1.576-1.76-.083-.649-.168-1.299-.202-1.952-.229-4.44-.44-8.88-.667-13.32-.057-1.102-.214-2.204-.203-3.304.011-1.109.064-2.3 1.236-2.9 1.309-.669 2.687-.464 3.958.09.367.16.628.832.715 1.31.197 1.089.256 2.203.318 2.8" fill="#231f20"/><path d="m74.135 108.432c-3.796-.663-7.409-.712-11.024-.231-.02 1.71-.02 1.715 1.138 1.852 3.2.378 6.377.171 9.561-.374.075-.178.168-.348.218-.53.05-.183.059-.377.107-.717m1.316-1.69c0 1.299.08 2.402-.029 3.487-.07.691-.57 1.21-1.373 1.08-2.872-.466-5.728.329-8.599.088-.779-.065-1.57-.002-2.356.014-.899.018-1.273-.459-1.365-1.313-.328-3.038-.08-3.458 2.977-3.476 2.815-.017 5.63-.078 8.446-.083.759-.001 1.518.13 2.299.203" fill="#231f20"/><path d="m41.749 83.349c-.205-3.196-.48-6.389-.597-9.588-.15-4.12-.19-8.243-.232-12.365-.008-.774.157-1.558.309-2.325.475-2.385 2.462-3.983 4.886-3.966 1.466.011 1.964.444 2.208 1.903.075.449.181.893.271 1.34.294 1.462-.12 1.92-1.637 1.794-.259-.022-.516-.079-.773-.128-1.81-.349-2.557.197-2.628 2.056-.042 1.109.064 2.224.121 3.336.213 4.17.425 8.34.655 12.51.131 2.348.246 4.699.461 7.041.347 3.772.732 7.541 1.179 11.303.191 1.602.668 3.081 2.611 3.47.333.067.837.658.794.931-.083.521-.387 1.164-.807 1.447-1.734 1.171-3.904.449-4.927-1.516-.745-1.43-.861-3.002-1.014-4.553-.417-4.219-.778-8.444-1.162-12.668.094-.007.188-.015.282-.022" fill="#c2c4c6"/><path d="m73.811 25.984c.708.114 1.011.191 1.316.205.558.023 1.329-.216 1.624.063.417.395.658 1.158.666 1.769.028 1.894-.133 3.79-.139 5.685-.009 2.866.053 5.733.081 8.599.013 1.283.473 2.655-.566 3.751-.316.334-.822.657-1.245.661-.257.002-.617-.581-.755-.964-.196-.545-.29-1.146-.325-1.729-.188-3.132-.338-6.266-.515-9.398-.081-1.435-.249-2.866-.278-4.301-.026-1.351.079-2.705.136-4.341" fill="#c2c4c6"/><path d="m74.135 108.432c-.048.34-.057.534-.107.717-.05.182-.143.352-.218.53-3.184.545-6.361.752-9.561.374-1.158-.137-1.158-.142-1.138-1.852 3.615-.481 7.228-.432 11.024.231" fill="#c9cacc"/><path d="m24.4 58.405c3.989-6.763 10.76-11.313 17.172-15.844 2.454-1.735 5.033-3.695 5.934-6.562-1.183-.704-2.689-.286-3.99.166-6.429 2.237-12.71 4.902-18.787 7.971-2.775 1.402-5.704 3.097-6.909 5.963-.719 1.713-.721 3.63-.711 5.488.043 7.997.085 15.994.128 23.991.01 1.863.036 3.797.846 5.474-.381-.788.819-5.793 1.005-6.997.292-1.897.686-3.773.943-5.693.651-4.855 1.862-9.705 4.369-13.957" fill="#fff" opacity=".5"/><path d="m88.611 75.291c-.001-.043-.003-.087-.004-.131l-.594.035c.002.032.003.064.004.096zm2.792-1.057c-.027-.055-.054-.11-.081-.164-.264.121-.528.242-.793.364.038.075.076.151.113.227zm-46.642 13.603c-1.199.425-2.15.761-3.099 1.097 1.352.535 2.034.323 3.099-1.097m-5.233-1.559c-.09.147-.181.294-.272.44.418.308.802.804 1.261.886 1.015.182 2.103.338 3.233-.631-1.572-.259-2.896-.477-4.222-.695m52.427.933c-.186-.979-.261-1.925-1.242-2.609-.925.585-1.513 1.312-1.427 2.479.897.044 1.713.084 2.669.13m-52.971-4.816c-.543 1.113-.394 2.016.4 2.498 1.297.786 2.801 1.04 4.321.907.256-.022.476-.441.975-.936-2.499.052-4.074-1.111-5.696-2.469m48.191-6.941c-1.178.38-2.142.691-3.32 1.071.239.746.407 1.451.688 2.108.681 1.595 1.103 1.696 2.733.758-.542-2.805-.542-2.805-.101-3.937m-41.991 6.313c-1.003.226-1.844.613-2.65.547-.995-.08-1.375-1.06-1.473-1.924-.091-.801.112-1.635.185-2.455-1.72-.249-2.057-.138-2.485.824-.515 1.159-.398 1.817.727 2.736.846.692 1.807 1.247 2.727 1.847.78.509 1.614.582 2.641.194.097-.522.206-1.111.328-1.769m49.828-5.028c-.068-.301-.091-.468-.145-.625-.57-1.679-.918-1.858-2.481-1.175-1.364.596-2.708 1.238-4.229 1.937-.021.645-.317 1.462.553 2.023.753.485 1.411.112 2.091-.26.602-.329 1.261-.553 1.89-.835.778-.349 1.55-.71 2.321-1.065m16.427-22.308c.284-3.082 1.109-4.022 4.173-4.931.762-.225 1.486-.575 2.194-.854-.101-2.062-1.112-2.792-2.865-2.169-3.385 1.201-4.909 3.279-4.76 6.342.044.906.476 1.328 1.258 1.612m-12.835 70.421c-.271-1.517-.498-2.748-.707-3.982-.129-.764-.56-1.09-1.325-1.009-1.477.155-2.955.302-4.525.461-.07 1.478.501 2.643.989 3.743.245.553 1.153 1.081 1.797 1.129 1.172.087 2.372-.193 3.771-.342m-.342 5.827c-.245-.738-.544-1.404-.677-2.103-.137-.718-.112-1.467-.156-2.16-1.202 0-2.37.235-3.376-.068-.954-.288-1.737-1.141-2.589-1.743-.834 1.66-.224 4.767 1.241 5.913.261.204.594.407.91.435 1.49.13 2.986.225 4.647-.274m15.945-85.332c-.84-.728-1.392-1.608-1.965-1.621-1.2-.028-2.636-.501-3.565.875-.353.524-.882.927-1.274 1.43-1.625 2.084-1.346 4.666.816 6.403.294-.456.752-.875.843-1.362.307-1.653 1.215-2.839 2.542-3.783.792-.563 1.558-1.161 2.603-1.942m-15.105 81.324c-.65 1.551.244 4.629 1.498 5.262.351.178.783.295 1.172.279 1.381-.055 2.768-.116 4.133-.314.451-.065.884-.506 1.248-.857.431-.415.778-.918 1.211-1.443-.488-1.027-.987-2.08-1.487-3.133-.553 1.629-1.73 1.937-3.071 2.005-.289.014-.577.05-.864.089-1.675.227-3.095-.096-3.84-1.888m-3.005-51.322-.161.401c.341.224.657.58 1.027.649 4.056.763 6.666 3.281 8.354 6.879.425.906.981 1.524 1.942 1.77 1.498-1.172 2.075-1.81 2.523-2.787.605-1.32.191-2.531-1.165-3.044-2.869-1.085-5.745-2.159-8.657-3.117-1.236-.406-2.572-.51-3.863-.751m8.019 43.359c-1.929.358-3.661.68-5.632 1.046.61 2.285 1.113 4.402 1.757 6.475.277.893 1.263 1.116 2.037 1.042 1.017-.096 2.276.39 2.989-.852.613-1.065.743-2.159.272-3.321-.277-.683-.503-1.389-.73-2.091-.229-.706-.43-1.422-.693-2.299m-7.538-32.305c.143.515.207.923.367 1.289 1.306 2.983.503 2.488 3.698 2.279 1.493-.098 2.751-.826 3.937-1.656.984-.69 1.146-1.095.739-2.202-.413-1.12-.993-2.178-1.411-3.075-3.198-.196-5.188 1.586-7.33 3.365m13.613 14.399c-.693-1.983-1.299-3.717-1.951-5.584-1.395.413-2.636.862-3.916 1.136-1.322.285-2.737.182-4.141 1.062 1.255 1.883 1.456 4.18 3.054 5.985 2.306-.862 4.562-1.705 6.954-2.599m4.736-56.544c2.318-2.719 4.303-5.49 6.08-8.407.604-.993.318-1.541-.823-1.625-1.321-.096-2.668.031-3.969-.168-1.055-.162-1.425.359-1.893 1.094-1.199 1.884-1.311 4.034-1.654 6.134-.139.853.158 1.425.931 1.844.445.242.793.663 1.328 1.128m-3.573-1.913c.611-3.909-.674-7.498-.973-11.475-2.573 1.508-4.872 2.856-7.11 4.169 2.137 2.712 4.13 5.242 6.091 7.731.667-.142 1.226-.262 1.992-.425m-32.814 98.125c.348.331.597.778.915.834 1.527.268 3.069.461 4.612.615.625.063 1.041-.351 1.405-.86 1.811-2.527 4.262-4.372 6.746-6.161 1.157-.833 2.406-1.536 3.915-2.489-1.952.047-3.524.096-4.677-.953-5.324 1.67-9.494 4.708-12.916 9.014m24.06-59.044c-1.017-1.517-2.376-2.164-3.696-2.894-1.253-.692-2.497-.856-3.834-.34-1.667.644-3.302 1.422-5.021 1.876-2.046.541-3.115 1.904-3.74 3.736-.276.811-.402 1.691-.477 2.549-.148 1.703-.214 3.413.073 5.369.956-.477 1.655-.825 2.277-1.135.388-1.77.388-1.77.062-3.564-.276-1.512.563-2.918 2.016-3.38.979-.312 1.374-.207 1.842.708.367.715.61 1.498.877 2.261.633 1.815 2.108 2.689 3.905 3.741-.528-1.324-.967-2.275-1.288-3.265-.384-1.185-.223-1.572.831-2.31.614-.43 1.253-.832 1.915-1.183 1.362-.722 2.748-1.403 4.258-2.169m7.971 20.4c-2.03.74-3.926 1.441-5.829 2.123-2.438.876-2.433.867-3.343-1.618-.601-1.64-1.2-3.283-2.174-4.587-1.24 1.549-2.245 3.227-3.65 4.443-1.5 1.298-3.588 1.254-5.466 1.233.63 1.584 1.218 3.091 1.83 4.588.879 2.152 2.239 2.859 4.42 2.101 2.898-1.007 5.773-2.091 8.614-3.253 1.707-.698 3.369-1.535 4.975-2.444 1.076-.609 1.061-.874.623-2.586m-1.452-24.246c.443-1.895.84-3.699 1.288-5.49.809-3.233 2.291-6.174 3.958-9.037.833-1.432 1.267-2.986 1.023-4.668-.137-.94-.406-1.8-1.501-2.186-.288.326-.651.582-.799.929-1.31 3.081-3.62 5.388-5.986 7.616-.866.816-1.504 1.619-1.858 2.761-.695 2.239-2.645 3.176-4.615 3.899-1.553.569-3.08.219-4.223-1.003-1.433 1.099-2.776 2.128-4.151 3.182.213 0 .392.034.554-.004 1.037-.245 2.115-.83 2.856.577.088.167.649.113.99.115 1.457.01 2.875.18 4.263.681 2.339.844 4.7 1.625 7.059 2.41.418.139.872.168 1.142.218m-39.416 4.045c-.817.077-1.565.104-2.299.223-3.638.589-7.273.657-10.946.271-1.713-.18-3.352-.829-5.159-.563-1.198.176-1.736-.529-2.185-1.82-.264-.758-.514-1.581-1.004-2.186-.604-.747-1.387-1.461-2.539-1.104-1.578.489-2.695 1.546-3.534 2.927-.351.577-.199 1.12.205 1.606.37.447.813.336 1.268.141.425-.182.879-.304 1.282-.525.525-.288 1.011-.646 1.624-1.045.157.802.232 1.38.387 1.935.588 2.095 1.61 2.817 3.416 2.469.08-.016.187.107.371.22-.046.644-.416.983-1.075 1.037-.731.06-1.379-.098-1.866-.714-.405-.511-.846-.992-1.321-1.544-.592 1.182-.912 2.197-.546 3.447.189.642-.172 1.456-.327 2.183-.074.344-.247.665-.431 1.141 1.212-.377 2.321-.507 3.169-1.046.867-.552 1.478-1.506 2.097-2.172 6.867 1.311 13.633 1.367 20.549.335-.393-1.803-.733-3.368-1.136-5.216m19.775 9.921c-.397.143-.785.228-1.117.413-.85.474-1.748.904-2.488 1.518-.684.567-.665 1.222.031 1.753.718.548.703 1.024.376 1.775-.479 1.099-.366 1.267.7 1.942.24.152.493.283.707.405.391 2.062.639 2.303 2.636 2.656 2.726.481 4.912-.331 6.449-2.691.819-1.257 1.626-2.523 2.279-3.539 1.223-.171 2.183-.279 3.132-.446.971-.171 1.929-.419 2.9-.602 2.423-.456 4.466-1.627 6.137-3.397.491-.519 1.047-1.333.984-1.95-.187-1.804-.99-3.391-2.586-4.663-.696.656-1.275 1.3-1.957 1.802-.334.245-.643.347-.669.85-.079 1.556-1.188 2.365-2.429 2.906-2.41 1.05-4.975 1.507-7.593 1.655-.79.044-1.537-.125-2.016-.809-.892-1.274-2.178-1.843-3.624-2.201-1.616-.4-2.222.083-2.022 1.686.035.276.098.548.17.937m33.76-11.289c-2.181-3.486-2.375-7.016-1.209-10.682.315-.99.682-1.965 1.064-2.931.888-2.237 1.09-4.631.555-6.868-.964-4.026-3.568-6.964-7.176-8.99-.194-.108-.488-.249-.643-.176-.825.387-1.697.741-2.4 1.3-.425.339-.571 1.027-.815 1.503.816.542 1.411.993 2.057 1.356 1.862 1.043 2.27 2.847 1.979 4.64-.272 1.682-.934 3.373-1.759 4.876-1.404 2.557-2.596 5.187-3.535 7.938-.604 1.77-.981 3.565-.834 5.473.094 1.214.648 2.037 1.702 2.382 1.038.34 2.165.409 3.271.599-.282-5.117 2.115-11.625 4.678-12.75-.067.173-.09.358-.192.477-1.756 2.054-1.897 4.515-1.812 7.042.028.813-.051 1.631.015 2.439.063.782.249 1.554.387 2.372zm-14.692 51.919c-.178-.012-.246-.038-.289-.016-.258.133-.511.277-.764.42-2.491 1.395-5.154 1.049-7.811.774-.935-.922-1.764-.309-2.687.101-3.67 1.628-6.733 4.107-9.597 6.839-.675.644-1.137 1.599-1.464 2.496-.485 1.332-.134 1.907 1.22 2.071 1.783.215 3.583.365 5.377.389 2.143.029 4.288-.12 6.432-.159.922-.017 1.865.185 2.765.054 2.98-.437 5.943-.993 8.917-1.472.838-.134 1.43-.534 1.643-1.34.173-.659.355-1.364.295-2.027-.296-3.254-1.777-5.933-4.037-8.13m3.52-75.995c-1.79-.589-2.689-2.506-4.625-2.94-.417-.094-.782-.68-1.053-1.114-1.315-2.105-1.102-4.929.503-6.986.457-.585.964-1.132 1.522-1.782-1.354-1.813-2.653-3.592-3.999-5.336-.525-.679-1.062-1.366-1.968-1.648-.268-.084-.609-.489-.618-.757-.057-1.63-1.317-2.14-2.486-2.532-1.639-.549-3.359-.861-5.051-1.251-1.522-.35-3.053-.665-4.579-1.001-1.517-.335-3.034-.638-4.909-.287.99 1.093 1.836 2.02 2.673 2.956.343.383.724.748.987 1.183 2.794 4.635 3.917 9.748 4.249 15.08.021.347-.003.697-.012 1.046-.022.872-.487 1.4-1.3 1.64-.323.095-.656.155-.958.225-.291 2.394.253 3.925 1.943 5.285.902.726 1.886 1.349 2.821 2.034.955.699 1.843.837 2.792-.069.351-.336.894-.561 1.383-.646 2.836-.497 5.188.787 6.33 3.42.182.418.268.878.471 1.569 2.011-2.739 4.889-4.623 5.884-8.089m-20.782-4.954c.071-.564.202-1.108.192-1.65-.015-.81-.135-1.618-.204-2.427-.316-3.748-1.267-7.337-3.229-10.544-1.049-1.714-2.444-3.242-3.825-4.721-1.138-1.218-2.599-1.929-4.371-1.735-.395.043-.831.023-1.204-.101-1.246-.417-2.342-.127-3.422.53-2.84 1.728-5.046 4.055-6.689 6.935-.552.966-1.137 1.913-1.707 2.869.769-3.886 3.35-6.646 5.813-9.479-6.323 2.779-13.527 12.398-13.334 18.283 2.041.853 15.681 2.302 17.84 1.896.396-2.2 1.601-5.461 2.505-6.67.21 1.308-.594 2.243-.85 3.313-.271 1.132-1.1 2.2-.606 3.435h2.453c.345-1.41.618-2.715.986-3.994.83-2.886.849-2.88 1.589-3.455-.583 2.5-1.141 4.896-1.735 7.447.697.057 1.204.135 1.71.133 2.583-.009 5.167-.04 8.088-.065m17.747 54.942c-1.032.483-1.817.855-2.607 1.219-1.369.631-2.712 1.332-4.118 1.866-1.622.617-3.325 1.016-4.944 1.638-1.236.475-2.449.576-3.754.481-.957-.069-1.465-.427-1.805-1.305-.771-1.993-1.665-3.939-2.421-5.937-.283-.746-.586-1.267-1.395-1.576-.463-.178-.91-.769-1.074-1.269-.248-.756-.539-1.374-1.265-1.765-.24-.129-.502-.38-.575-.628-.377-1.289.095-2.741-.779-3.955-.137-.19-.059-.577 0-.855.071-.334.263-.64.342-.973.13-.548.405-1.156.279-1.652-.643-2.517-.223-4.95.408-7.377.252-.971.572-1.925.897-3.008-.974.064-1.804-.034-2.22-.893-.348-.718-.611-1.476-.897-2.181-.28-.041-.459-.114-.617-.082-3.459.717-6.92 1.425-10.37 2.186-1.159.255-1.473.789-1.23 2.052.371 1.929.804 3.847 1.25 5.761.229.981.67 1.308 1.634 1.048 2.108-.568 4.188-1.24 6.196-1.845.191-.924.349-1.601.466-2.285.109-.641-.176-1.415.834-1.934.126.394.337.725.313 1.037-.095 1.268-.25 2.532-.406 3.794-.348 2.814-.658 5.634-1.076 8.437-.744 4.985-1.559 9.959-2.339 14.938-.269 1.72-.568 3.436-.766 5.164-.137 1.204.013 1.362 1.177 1.77.489.171 1.006.272 1.518.365 1.083.195 2.177.33 3.256.549 3.049.618 6.14.673 9.207.408 3.226-.28 6.422-.901 9.641-1.29 2.948-.355 5.797-1.074 8.56-2.127.665-.253 1.242-.737 1.825-1.094-1.086-2.999-2.088-5.765-3.145-8.682m-47.102-55.035c-.518 1.773-1.036 3.528-1.545 5.284-.974 3.369-.616 6.686.58 9.906.434 1.166 1.078 2.353 1.925 3.248 2.347 2.48 5.215 4.167 8.552 5.05 3.305.875 6.578 1.815 10.062 1.078 2.826-.597 5.628-1.207 8.308-2.366 2.165-.936 3.915-2.447 5.826-3.736.298-.202.439-.638.647-.969.343-.548.706-1.054 1.634-.808-.13.638-.25 1.226-.367 1.797 1.088.802 1.368.896 2.205.748 2.922-.518 4.72-2.436 5.06-5.396.231-2.006-1.443-4.05-3.443-4.26-1.378-.145-2.519.101-3.254 1.44-.315.575-.8 1.044-1.558.506-1.413-1.005-2.814-2.029-4.26-2.984-1.823-1.203-2.711-2.952-3.127-5.016-.136-.674-.292-1.344-.45-2.067-8.917.221-17.685-.404-26.795-1.455m17.458 26.03c-3.426.075-6.61-.977-9.847-1.94-3.154-.938-5.428-3.051-7.818-5.067-.264-.223-.592-.459-.705-.76-1.142-3.022-2.433-5.965-2.114-9.379.222-2.381.616-4.695 1.225-6.99.171-.646.35-1.29.524-1.931-.915-.306-1.844-.615-2.787-.929-.592-1.257.188-2.325.527-3.355.944-2.867 2.216-5.637 3.973-8.087 1.343-1.872 3.047-3.489 4.628-5.184.591-.633 1.32-1.134 1.933-1.749 2.118-2.121 4.804-2.737 7.645-2.871 1.906-.09 3.819-.102 5.725-.044 4.054.123 8.065.596 12.004 1.618 1.165.303 2.381.403 3.554.681 1.891.449 3.557 1.376 5.079 2.756 2.616-1.508 5.165-2.977 7.912-4.56.159.436.38.816.43 1.217.24 1.953.432 3.911.648 5.867.029.258.101.51.463.818.433-1.163.898-2.316 1.289-3.493.388-1.165.354-1.159 1.546-1.06 1.735.144 3.473.262 5.209.39.233.017.468.011.697.045 1.728.259 2.172 1.22 1.16 2.68-1.721 2.482-3.498 4.926-5.253 7.385-.302.424-.611.844-.986 1.361.323.271.609.524.908.761.319.252.675.463.972.738 1.383 1.275 1.431 2.36.177 4.077 1.761 1.435 3.291 3.087 4.55 4.988 2.218 3.35 2.822 6.931 1.647 10.799-.588 1.94-1.297 3.866-1.644 5.851-.485 2.787-.451 5.557 1.763 7.807.268.273.478 1.011.315 1.214-.318.396-.938.822-1.397.785-1.506-.123-2.983-.277-4.493.052-.762.165-1.255-.363-1.339-1.197-.182-1.785-.353-3.571-.531-5.395-.772 2.202-.436 4.483-.476 6.917-1.698.096-3.187-.869-4.974-.602-.291.668-.63 1.447-.906 2.081.792 1.134 1.578 2.127 2.221 3.206 1.291 2.166.799 4.627-1.18 6.205-.811.647-1.656 1.251-2.539 1.913.504 1.564.94 3.122 1.515 4.627.334.875.872 1.628 1.114 2.599.356 1.433.161 2.484-.997 3.368-.18.137-.34.299-.568.502.687 2.712 1.648 5.313 2.896 7.796.846 1.686.543 2.481-1.282 3.01-2.157.626-4.301 1.297-6.508 1.966.391 1.856.875 3.601 1.837 5.247.899 1.539 1.506 3.25 2.229 4.891.09.207.19.483.127.673-.497 1.485.477 2.363 1.283 3.349 1.852 2.262 2.927 4.889 3.152 7.78.145 1.855-.517 4.175-3.196 4.373-3.407.252-6.654 1.684-10.119 1.413-3.185-.25-6.362.141-9.541.019-1.217-.047-2.431-.193-3.646-.284-1.737-.131-3.021-.811-3.237-2.713-1.286-.199-2.505-.306-3.678-.597-.884-.22-1.776-.569-2.544-1.053-1.112-.702-1.137-1.742-.192-2.612 1.58-1.455 3.043-3.084 4.792-4.3 2.026-1.408 3.981-2.995 6.414-3.768 1.712-.543 1.706-.66 1.35-2.37-.153-.739-.278-1.483-.385-2.229-.145-1.011.049-1.969.538-2.863.754-1.378.757-1.377.335-2.954-.24-.052-.518-.178-.789-.163-2.515.143-4.975-.338-7.459-.555-1.935-.169-3.794-.49-5.604-1.158-.327-.12-.67-.219-.968-.392-.506-.295-.626-.702-.487-1.321.781-3.499 1.684-6.985 2.207-10.525.871-5.909 1.486-11.856 2.205-17.788.006-.046-.046-.1-.121-.252-.659-.307-1.28.184-1.914.337-1.404.338-2.777.805-4.179 1.152-1.678.415-1.902.261-2.525-1.422-.059-.158-.155-.303-.289-.558-1.799.23-3.634.409-5.448.709-2.964.49-5.888.291-8.829-.212-1.709-.293-3.458-.358-5.183-.569-.677-.082-1.045.299-1.501.683-1.999 1.684-4.278 2.401-6.889 1.835-.567-.123-1.152-.182-1.701-.356-1.744-.553-2.88-2.158-2.949-4.039-.012-.33-.057-.754-.261-.964-.611-.63-.53-1.37-.496-2.117.046-.964.062-1.907-.047-2.888-.269-2.441.928-3.509 3.412-3.314.174.014.352-.002.523.027.726.125 1.389.056 1.903-.554.073-.087.175-.157.276-.21 2.406-1.278 3.655-.952 5.103.74.371.432.731.951.871 1.489.438 1.695 1.448 2.419 3.181 2.156.226-.034.495-.053.692.036 2.74 1.247 5.605.611 8.412.492 2.133-.091 4.309.096 6.397-.572.276-.088.636-.046.84-.209 1.583-1.273 3.547-1.183 5.377-1.607 1.618-.374 3.187-.956 4.778-1.446h1.499c-.011-.1-.022-.2-.032-.3-.476.116-.953.23-1.429.346" fill="#231f20"/><path d="m30.67 85.025v1.465c-.007 0-.013 0-.02.001v-1.465c.007 0 .013-.001.02-.001" fill="#231f20"/><path d="m30.682 83.682c.011.05.036.102.03.148s-.045.088-.069.131c-.01-.05-.034-.102-.028-.149.006-.046.043-.087.067-.13" fill="#231f20"/><path d="m63.149 52.832c-.864.859-1.359 1.979-1.2 2.877.043.241.259.606.436.633.286.042.695-.061.896-.26.718-.711.62-2.332-.132-3.25m9.918-.042c-.773 1.232-1.126 2.43-1.017 3.734.072.854.726 1.221 1.281.75.725-.615.859-1.479.867-2.371.007-.822-.038-1.624-1.131-2.113m29.674 13.863c.682-1.615.538-2.418-.369-3.246-.715-.653-1.61-.674-2.554-.061-1.239.804-1.633 1.692-1.264 3.132.575-.66 1.042-1.291 1.606-1.819.664-.622 1.441-.492 1.886.284.249.434.386.934.695 1.71m-25.361 1.105c-.158.251-.248.339-.272.441-.626 2.659-1.304 3.206-4.042 3.276-.739.018-1.477.074-2.332.119 2.211 1.982 6.068 1.08 7.061-1.497.321-.83.297-1.571-.415-2.339m-9.355-6.095c-1.584.828-2.814 1.409-4.041.276-.664-.612-.937-1.474-.6-2.217.61-1.347 1.831-1.925 3.376-1.812-.832-1.406-1.001-1.442-2.687-.673-1.301.594-2.115 1.924-1.921 3.536.143 1.179.765 2.233 1.917 2.707 1.357.558 2.615.2 3.657-.827.125-.123.122-.378.299-.99m-6.096-10.529c9.11 1.051 17.878 1.675 26.795 1.455.158.722.314 1.392.45 2.067.416 2.063 1.304 3.813 3.127 5.015 1.446.955 2.847 1.98 4.26 2.984.758.539 1.243.069 1.558-.505.735-1.339 1.876-1.585 3.254-1.44 2 .21 3.673 2.254 3.443 4.26-.34 2.96-2.138 4.877-5.061 5.395-.836.149-1.116.055-2.204-.748.117-.571.237-1.158.367-1.797-.928-.245-1.291.261-1.634.808-.208.331-.349.768-.647.969-1.911 1.289-3.661 2.801-5.826 3.737-2.68 1.158-5.482 1.769-8.308 2.366-3.484.736-6.757-.204-10.062-1.078-3.337-.883-6.205-2.57-8.552-5.05-.847-.895-1.491-2.082-1.925-3.249-1.196-3.22-1.554-6.536-.58-9.905.509-1.757 1.027-3.511 1.545-5.284" fill="#fdd8bd"/><path d="m109.031 106.169c1.057 2.917 2.059 5.682 3.145 8.681-.583.357-1.16.842-1.825 1.095-2.763 1.053-5.612 1.771-8.56 2.127-3.219.389-6.415 1.01-9.641 1.289-3.067.266-6.158.211-9.207-.407-1.079-.219-2.173-.354-3.256-.55-.511-.092-1.029-.193-1.518-.364-1.164-.408-1.314-.567-1.177-1.771.198-1.727.497-3.444.767-5.163.779-4.979 1.594-9.954 2.338-14.938.418-2.804.728-5.624 1.076-8.437.156-1.263.311-2.526.406-3.794.024-.312-.187-.643-.313-1.037-1.01.519-.725 1.293-.834 1.934-.117.684-.275 1.36-.465 2.284-2.009.605-4.089 1.278-6.197 1.846-.964.26-1.405-.067-1.634-1.048-.446-1.914-.879-3.832-1.25-5.762-.243-1.262.071-1.796 1.23-2.052 3.45-.761 6.911-1.468 10.37-2.185.158-.033.337.041.617.082.286.704.549 1.463.897 2.18.416.859 1.246.958 2.22.894-.325 1.082-.645 2.036-.897 3.008-.631 2.427-1.051 4.859-.408 7.376.126.496-.149 1.105-.279 1.652-.079.333-.271.64-.342.974-.059.278-.137.665 0 .855.874 1.213.402 2.666.779 3.955.073.248.335.499.575.628.726.391 1.017 1.008 1.265 1.765.164.5.611 1.091 1.074 1.268.809.31 1.112.83 1.395 1.577.756 1.998 1.65 3.944 2.421 5.937.34.877.848 1.235 1.805 1.305 1.305.094 2.518-.006 3.754-.481 1.619-.622 3.322-1.022 4.944-1.638 1.406-.535 2.749-1.235 4.119-1.866.789-.365 1.574-.736 2.606-1.219" fill="#f38596"/><path d="m91.284 51.226c-2.921.026-5.504.056-8.088.065-.506.002-1.013-.076-1.71-.133.594-2.551 1.152-4.946 1.735-7.446-.74.574-.759.569-1.589 3.455-.368 1.278-.641 2.584-.986 3.994h-2.453c-.494-1.236.335-2.303.606-3.435.256-1.07 1.06-2.006.85-3.313-.904 1.209-2.109 4.469-2.505 6.669-2.158.406-15.799-1.043-17.84-1.895-.193-5.886 7.011-15.505 13.334-18.284-2.463 2.834-5.044 5.594-5.813 9.48.57-.956 1.155-1.903 1.707-2.87 1.643-2.88 3.849-5.207 6.689-6.935 1.08-.657 2.176-.946 3.422-.53.373.125.809.144 1.204.101 1.772-.194 3.233.517 4.372 1.736 1.38 1.479 2.775 3.007 3.824 4.721 1.962 3.207 2.913 6.795 3.229 10.543.069.81.189 1.618.204 2.428.011.541-.121 1.086-.192 1.649" fill="#775a30"/><path d="m112.066 56.18c-.995 3.467-3.873 5.351-5.884 8.089-.203-.691-.289-1.151-.471-1.569-1.142-2.632-3.494-3.917-6.33-3.42-.489.086-1.032.311-1.383.646-.949.906-1.837.768-2.792.069-.935-.685-1.919-1.307-2.821-2.033-1.69-1.361-2.235-2.892-1.944-5.285.303-.071.636-.131.959-.226.813-.24 1.278-.768 1.3-1.64.009-.348.033-.698.012-1.046-.332-5.332-1.455-10.444-4.25-15.08-.262-.435-.644-.799-.986-1.182-.837-.936-1.683-1.864-2.673-2.956 1.875-.351 3.392-.048 4.909.286 1.526.337 3.057.651 4.579 1.001 1.692.39 3.412.702 5.051 1.252 1.169.392 2.429.902 2.486 2.532.009.268.35.673.618.756.906.283 1.443.969 1.968 1.649 1.346 1.743 2.645 3.523 3.999 5.336-.558.65-1.065 1.196-1.522 1.781-1.605 2.058-1.818 4.881-.503 6.986.271.434.636 1.02 1.053 1.114 1.936.435 2.835 2.351 4.625 2.94" fill="#775a30"/><path d="m108.546 132.176c2.26 2.196 3.741 4.875 4.037 8.13.06.663-.122 1.368-.295 2.026-.213.807-.805 1.206-1.643 1.341-2.974.479-5.937 1.035-8.917 1.471-.9.132-1.843-.071-2.765-.053-2.145.039-4.289.188-6.432.159-1.794-.024-3.594-.175-5.377-.389-1.354-.164-1.705-.74-1.22-2.071.327-.897.789-1.852 1.464-2.496 2.864-2.732 5.927-5.212 9.597-6.84.923-.409 1.752-1.023 2.687-.1 2.656.275 5.32.621 7.811-.775.253-.142.506-.286.763-.419.044-.023.112.004.29.016" fill="#515153"/><path d="m123.238 80.257h-4.667c-.138-.817-.324-1.59-.387-2.372-.066-.808.013-1.626-.015-2.439-.085-2.527.056-4.988 1.812-7.042.102-.119.125-.304.192-.477-2.563 1.125-4.96 7.633-4.678 12.75-1.106-.19-2.233-.258-3.271-.599-1.054-.345-1.608-1.168-1.702-2.382-.147-1.908.23-3.703.834-5.473.939-2.751 2.132-5.381 3.535-7.938.825-1.503 1.487-3.194 1.759-4.876.291-1.793-.117-3.596-1.979-4.64-.646-.363-1.241-.814-2.057-1.356.244-.476.39-1.164.815-1.503.703-.559 1.575-.913 2.4-1.3.155-.073.45.068.643.176 3.608 2.026 6.212 4.965 7.176 8.991.535 2.236.333 4.63-.555 6.867-.382.966-.749 1.942-1.063 2.931-1.167 3.666-.973 7.197 1.208 10.682" fill="#775a30"/><path d="m89.478 91.546c-.071-.389-.135-.662-.169-.937-.201-1.604.405-2.086 2.022-1.686 1.445.358 2.731.926 3.624 2.201.478.683 1.226.853 2.016.808 2.617-.147 5.182-.605 7.592-1.654 1.242-.541 2.351-1.351 2.43-2.906.026-.503.335-.606.668-.85.683-.502 1.261-1.146 1.957-1.803 1.596 1.273 2.399 2.86 2.586 4.664.064.617-.493 1.431-.983 1.95-1.672 1.77-3.715 2.941-6.138 3.397-.97.182-1.928.431-2.9.602-.949.167-1.909.275-3.131.446-.654 1.016-1.461 2.282-2.28 3.539-1.537 2.359-3.723 3.172-6.449 2.69-1.997-.353-2.244-.594-2.636-2.655-.213-.122-.466-.253-.707-.406-1.065-.674-1.178-.842-.7-1.942.327-.75.342-1.227-.375-1.774-.697-.531-.716-1.186-.032-1.753.74-.615 1.638-1.045 2.488-1.518.332-.185.72-.27 1.117-.413" fill="#fdd8bd"/><path d="m69.703 81.625c.402 1.848.743 3.413 1.135 5.216-6.916 1.032-13.681.976-20.549-.335-.618.666-1.229 1.62-2.096 2.172-.848.539-1.957.669-3.169 1.046.184-.476.357-.797.43-1.141.156-.727.517-1.541.328-2.183-.367-1.25-.046-2.265.546-3.447.475.552.916 1.033 1.32 1.544.488.616 1.136.774 1.867.714.659-.054 1.028-.393 1.075-1.037-.184-.113-.291-.236-.371-.22-1.806.348-2.828-.374-3.416-2.469-.156-.555-.23-1.133-.388-1.935-.612.399-1.098.757-1.624 1.045-.402.221-.857.343-1.281.525-.455.195-.898.306-1.268-.141-.404-.486-.557-1.029-.206-1.606.839-1.381 1.957-2.438 3.535-2.927 1.152-.357 1.935.357 2.539 1.104.489.605.74 1.428 1.004 2.186.449 1.291.986 1.996 2.185 1.82 1.807-.266 3.446.383 5.158.563 3.674.386 7.309.318 10.947-.271.734-.119 1.482-.146 2.299-.223" fill="#fdd8bd"/><path d="m110.571 101.825c.438 1.712.453 1.977-.623 2.586-1.606.909-3.268 1.746-4.975 2.444-2.84 1.162-5.715 2.246-8.614 3.253-2.181.758-3.541.051-4.42-2.101-.612-1.496-1.2-3.003-1.83-4.587 1.879.02 3.966.064 5.466-1.234 1.405-1.215 2.41-2.893 3.65-4.443.974 1.304 1.573 2.948 2.174 4.587.91 2.485.905 2.494 3.343 1.619 1.903-.683 3.799-1.383 5.829-2.124" fill="#fff"/><path d="m102.6 81.426c-1.51.766-2.896 1.446-4.258 2.169-.661.351-1.301.753-1.915 1.183-1.054.738-1.215 1.125-.831 2.31.321.99.76 1.941 1.288 3.264-1.797-1.051-3.272-1.925-3.905-3.74-.267-.764-.51-1.546-.877-2.262-.467-.914-.862-1.02-1.842-.708-1.453.463-2.291 1.869-2.016 3.381.327 1.794.327 1.794-.061 3.564-.623.31-1.322.658-2.277 1.134-.287-1.956-.222-3.666-.074-5.368.076-.859.201-1.738.477-2.549.625-1.832 1.694-3.195 3.741-3.736 1.718-.454 3.353-1.232 5.021-1.876 1.337-.516 2.58-.352 3.833.34 1.321.729 2.679 1.376 3.696 2.894" fill="#fff"/><path d="m78.54 140.469c3.422-4.306 7.592-7.344 12.916-9.014 1.153 1.05 2.725 1 4.677.953-1.509.953-2.759 1.657-3.915 2.489-2.485 1.789-4.935 3.635-6.746 6.161-.365.509-.78.924-1.406.861-1.543-.155-3.085-.348-4.611-.616-.318-.056-.567-.503-.915-.834" fill="#515153"/><path d="m111.354 42.344c-.766.164-1.325.283-1.991.426-1.962-2.49-3.955-5.019-6.092-7.732 2.239-1.313 4.538-2.66 7.11-4.169.299 3.977 1.584 7.566.973 11.475" fill="#f38596"/><path d="m114.927 44.258c-.535-.465-.883-.886-1.328-1.128-.773-.419-1.07-.992-.931-1.844.343-2.1.455-4.251 1.654-6.134.468-.735.838-1.256 1.893-1.095 1.301.2 2.649.073 3.969.169 1.141.083 1.428.632.823 1.624-1.777 2.918-3.762 5.688-6.08 8.408" fill="#f38596"/><path d="m110.191 100.802c-2.392.894-4.647 1.737-6.953 2.599-1.599-1.806-1.799-4.102-3.054-5.986 1.403-.879 2.819-.777 4.141-1.061 1.279-.274 2.521-.723 3.915-1.136.652 1.867 1.258 3.601 1.951 5.584" fill="#00bcf2"/><path d="m96.578 86.403c2.143-1.778 4.132-3.561 7.33-3.365.419.897.999 1.955 1.411 3.075.407 1.107.245 1.512-.739 2.202-1.186.831-2.444 1.558-3.937 1.656-3.195.209-2.392.704-3.698-2.279-.16-.366-.223-.774-.367-1.289" fill="#00bcf2"/><path d="m104.116 118.708c.263.877.464 1.593.693 2.299.227.702.453 1.408.73 2.091.472 1.162.341 2.256-.272 3.321-.713 1.242-1.972.756-2.989.852-.774.074-1.76-.149-2.037-1.042-.644-2.073-1.147-4.19-1.757-6.475 1.971-.366 3.703-.688 5.632-1.046" fill="#fdd8bd"/><path d="m96.097 75.349c1.291.241 2.626.345 3.862.751 2.913.958 5.789 2.032 8.658 3.117 1.356.513 1.77 1.724 1.165 3.044-.448.977-1.026 1.615-2.523 2.787-.962-.246-1.517-.864-1.942-1.77-1.689-3.598-4.298-6.117-8.355-6.879-.369-.07-.685-.425-1.026-.649z" fill="#f38596"/><path d="m99.102 126.671c.745 1.792 2.165 2.115 3.84 1.888.287-.038.575-.075.864-.089 1.341-.068 2.518-.376 3.07-2.005.5 1.053 1 2.106 1.488 3.133-.433.525-.781 1.028-1.212 1.444-.363.35-.796.791-1.247.856-1.365.198-2.752.259-4.133.315-.389.015-.821-.102-1.172-.28-1.254-.633-2.148-3.711-1.498-5.262" fill="#fff"/><path d="m114.207 45.346c-1.044.782-1.811 1.379-2.603 1.942-1.327.944-2.235 2.131-2.542 3.783-.09.487-.549.906-.842 1.362-2.162-1.736-2.442-4.318-.817-6.403.392-.503.921-.905 1.275-1.43.928-1.376 2.364-.903 3.565-.875.572.013 1.125.893 1.964 1.621" fill="#f38596"/><path d="m98.262 130.679c-1.661.499-3.158.404-4.647.273-.316-.027-.649-.23-.91-.434-1.465-1.146-2.075-4.254-1.242-5.913.853.601 1.636 1.454 2.59 1.742 1.005.304 2.174.069 3.376.069.043.693.019 1.442.156 2.16.133.699.432 1.365.677 2.103" fill="#fff"/><path d="m98.604 124.851c-1.399.149-2.599.43-3.771.343-.644-.048-1.552-.576-1.797-1.129-.488-1.101-1.058-2.265-.989-3.743 1.57-.16 3.048-.306 4.525-.462.765-.08 1.197.246 1.325 1.009.209 1.234.436 2.465.707 3.982" fill="#fdd8bd"/><path d="m111.439 54.431c-.781-.284-1.214-.707-1.258-1.612-.149-3.063 1.376-5.141 4.76-6.343 1.753-.622 2.765.108 2.866 2.17-.708.279-1.433.629-2.194.854-3.065.909-3.889 1.849-4.174 4.931" fill="#f38596"/><path d="m95.012 76.739c-.771.354-1.543.715-2.321 1.064-.629.283-1.288.506-1.89.836-.68.371-1.339.745-2.091.26-.87-.561-.574-1.378-.553-2.023 1.521-.699 2.865-1.342 4.229-1.937 1.563-.683 1.91-.505 2.481 1.175.053.157.077.324.145.625" fill="#ed1c24"/><path d="m45.184 81.766c-.122.659-.231 1.248-.328 1.769-1.027.388-1.861.315-2.642-.194-.92-.6-1.88-1.154-2.726-1.846-1.125-.92-1.242-1.577-.727-2.736.427-.962.764-1.074 2.485-.825-.074.82-.276 1.655-.185 2.456.098.864.478 1.843 1.473 1.924.805.065 1.647-.321 2.65-.548" fill="#fdd8bd"/><path d="m87.175 75.453c-.441 1.133-.441 1.133.101 3.937-1.63.938-2.052.837-2.733-.758-.281-.657-.449-1.361-.688-2.107 1.178-.381 2.142-.692 3.32-1.072" fill="#fdd8bd"/><path d="m38.984 82.395c1.623 1.358 3.197 2.521 5.696 2.469-.498.495-.719.914-.974.936-1.521.133-3.025-.121-4.322-.907-.794-.482-.943-1.385-.4-2.498" fill="#fdd8bd"/><path d="m91.955 87.211c-.957-.047-1.772-.086-2.669-.13-.086-1.168.502-1.895 1.427-2.479.981.684 1.055 1.63 1.242 2.609" fill="#f38596"/><path d="m39.528 86.278c1.325.218 2.65.436 4.222.694-1.131.97-2.218.814-3.234.632-.458-.082-.842-.578-1.26-.886.09-.147.181-.293.272-.44" fill="#fdd8bd"/><path d="m44.761 87.837c-1.065 1.419-1.748 1.631-3.1 1.097.95-.336 1.9-.672 3.1-1.097" fill="#fdd8bd"/><path d="m91.403 74.234-.76.426c-.038-.075-.075-.151-.113-.226.264-.122.528-.243.792-.365z" fill="#fff"/><path d="m88.611 75.291h-.594c-.001-.032-.002-.064-.004-.096l.594-.035c.001.044.003.088.004.131" fill="#fff"/><path d="m68.025 61.663c-.177.612-.174.867-.299.99-1.042 1.027-2.3 1.385-3.657.827-1.152-.474-1.774-1.528-1.917-2.707-.194-1.612.62-2.942 1.921-3.536 1.686-.769 1.855-.733 2.687.673-1.545-.113-2.766.465-3.376 1.812-.337.743-.064 1.605.6 2.217 1.227 1.133 2.457.552 4.041-.276" fill="#231f20"/><path d="m77.381 67.759c.712.768.736 1.508.415 2.339-.994 2.577-4.851 3.478-7.061 1.496.854-.044 1.593-.1 2.332-.119 2.737-.07 3.416-.616 4.042-3.275.024-.103.114-.19.272-.441" fill="#231f20"/><path d="m102.741 66.653c-.31-.776-.446-1.275-.695-1.71-.445-.775-1.222-.906-1.887-.284-.564.528-1.031 1.16-1.605 1.819-.369-1.44.024-2.328 1.264-3.132.944-.613 1.839-.591 2.554.061.907.829 1.051 1.631.369 3.246" fill="#231f20"/><path d="m73.068 52.79c1.092.49 1.138 1.292 1.13 2.113-.007.892-.142 1.756-.867 2.371-.554.471-1.209.105-1.281-.749-.109-1.305.244-2.502 1.018-3.735" fill="#231f20"/><path d="m63.149 52.832c.752.918.85 2.539.132 3.25-.201.199-.61.302-.896.26-.177-.027-.393-.392-.436-.633-.159-.898.336-2.018 1.2-2.877" fill="#231f20"/><path d="m66.691 35.772c-3.392 3.618-5.364 8.306-7.254 12.891 2.219.258 4.439.517 6.658.776.311.037.651.066.913-.104.284-.186.386-.544.482-.869.554-1.854 1.635-3.547 3.082-4.83-.615 2.016-.993 4.104-1.123 6.207.322.067.643.134.964.2.752-2.171 1.504-4.341 2.256-6.512.921-2.658 1.877-5.381 3.678-7.542 1.821-2.186 4.469-3.478 7.323-3.156-3.562-5.688-13.733-.522-16.979 2.939" fill="#967549"/><path d="m117.292 58.259c.042 2.084-.895 4.043-1.736 5.95-2.05 4.646-3.646 9.49-4.759 14.444l2.481.24c.406-3.471 1.244-6.893 2.488-10.16.799-2.099 1.768-4.143 2.332-6.318s.696-4.545-.167-6.618c-.672-1.616-2.433-3.625-4.292-3.548 1.143 2.218 3.596 3.117 3.653 6.01" fill="#967549"/></g></svg>