<svg clip-rule="evenodd" fill-rule="evenodd" stroke-miterlimit="10" viewBox="0 0 163 161" xmlns="http://www.w3.org/2000/svg"><path d="m10.268 10.199h141.488v138.977h-141.488z" fill="#fdcd9d" stroke="#fff" stroke-width="2"/><path d="m11.854 119.103h137.674v28.279h-137.674z" fill="#c591c1"/><g fill-rule="nonzero"><path d="m33.763 90.159c-.898.049-1.748.119-2.6.138-2.008.045-4.017.047-6.025.104-1.24.035-1.547.415-1.292 1.614.21.992.514 1.964.774 2.935 3.316-.267 6.625.231 9.989-.315-.119-1.646.047-3.138-.846-4.476m10.355 41.68c0-2.99.015-5.772-.003-8.555-.023-3.611-.034-7.224-.13-10.833-.035-1.351-.295-2.696-.462-4.127-3.694-.05-7.218-.207-10.946.105.168 1.494.375 2.788.447 4.089.143 2.567.167 5.141.322 7.707.212 3.489.487 6.975.77 10.459.044.546.269 1.078.424 1.672 3.246.118 6.337-.105 9.578-.517m.217 1.552c-3.188.123-6.161.19-9.127.375-1.349.083-1.739-.019-1.836-1.127-.373-4.282-.902-8.562-1.018-12.852-.107-3.964-.296-7.894-1.064-11.787-.041-.207.033-.438.066-.796 3.97-.85 7.959.127 12.028-.112-1.229-5.076-4.189-8.565-8.222-11.058-1.235.083-2.369.161-3.503.237-2.627.176-5.238-.355-7.896-.018-1.192.151-2.129.47-2.82 1.276-1.04 1.213-2.019 2.511-2.817 3.892-1.759 3.044-2.61 6.336-2.217 9.884.056.512.155 1.023.17 1.536.116 3.785.252 7.569.31 11.355.076 4.996.156 9.987.69 14.964.244 2.267 1.142 3.23 3.462 3.313.743.027 1.485.081 2.225.144 3.563.304 7.124.14 10.663-.243 3.064-.33 6.098-.944 9.16-1.313.984-.118 1.405-.5 1.62-1.411.47-1.996.138-3.98.126-6.259m-21.302-43.988c4.048-.122 8.089-.244 12.279-.369.06 1.074.055 1.984.176 2.877.153 1.125.348 2.254.658 3.343.105.366.575.685.948.909 4.574 2.742 6.93 6.867 7.386 12.081.284 3.251.374 6.522.475 9.786.1 3.212.038 6.43.165 9.641.146 3.719.409 7.434.646 11.149.101 1.568-1.67 3.552-3.23 3.641-1.134.064-2.266.218-3.392.378-2.085.298-4.155.727-6.249.92-2.146.196-4.313.227-6.471.234-2.121.007-4.244-.087-6.364-.175-2.236-.093-3.942-2.004-4.009-4.203-.103-3.374-.363-6.744-.502-10.117-.091-2.233-.064-4.471-.132-6.706-.133-4.409-.323-8.816-.437-13.225-.089-3.423.976-6.554 2.669-9.477 1.071-1.848 2.341-3.572 4.196-4.708 1.136-.696 1.37-1.568 1.005-2.756-.327-1.066-.383-2.134.183-3.223" fill="#231f20"/><path d="m26.174 104.886c-.16-1.139-.379-3.066-.737-4.968-.071-.38-.619-.843-1.03-.949-.845-.22-1.729-.144-2.316.679-.495.691-1.092 1.344-1.424 2.11-1.527 3.521-2.695 7.132-2.522 11.055.058 1.322.33 2.528 1.472 3.305.378.257 1.016.449 1.402.307.671-.247 1.448-.642 1.815-1.21 1.868-2.898 3.414-5.943 3.34-10.329m18.162 28.505c.011 2.279.343 4.263-.127 6.259-.215.911-.636 1.293-1.619 1.411-3.062.369-6.096.983-9.161 1.313-3.539.383-7.099.547-10.662.243-.741-.063-1.483-.117-2.226-.144-2.32-.083-3.218-1.046-3.461-3.313-.535-4.977-.615-9.968-.691-14.964-.057-3.786-.194-7.57-.309-11.355-.016-.513-.114-1.024-.171-1.536-.393-3.548.459-6.84 2.218-9.884.797-1.381 1.776-2.679 2.816-3.892.691-.806 1.628-1.125 2.82-1.276 2.658-.337 5.269.194 7.896.018 1.134-.076 2.268-.154 3.504-.237 4.032 2.493 6.992 5.982 8.221 11.058-4.068.239-8.057-.738-12.027.112-.034.358-.107.589-.066.796.768 3.893.956 7.823 1.064 11.787.115 4.29.644 8.57 1.018 12.852.096 1.108.486 1.21 1.835 1.127 2.966-.185 5.939-.252 9.128-.375" fill="#fff"/><path d="m44.118 131.839c-3.241.412-6.332.636-9.578.517-.155-.594-.38-1.125-.424-1.672-.283-3.484-.558-6.97-.769-10.459-.156-2.566-.18-5.14-.323-7.707-.072-1.301-.279-2.595-.447-4.089 3.728-.312 7.252-.154 10.946-.105.167 1.431.427 2.776.462 4.127.096 3.61.107 7.222.13 10.833.018 2.783.003 5.565.003 8.555" fill="#00bcf2"/><path d="m33.763 90.159c.893 1.338.727 2.83.846 4.476-3.364.546-6.673.048-9.989.315-.26-.971-.564-1.943-.774-2.935-.255-1.199.052-1.579 1.292-1.614 2.008-.057 4.017-.059 6.025-.104.852-.019 1.702-.089 2.6-.138" fill="#ed1c24"/><path d="m19.252 111.262c0 .517-.021 1.035.004 1.55.061 1.254.5 1.978 1.299 2.195.693.188 1.637-.356 2.237-1.29.061-.097.112-.2.162-.303.37-.775.789-1.531 1.095-2.331.386-1.01.697-2.05 1.008-3.086.674-2.255-.011-4.433-.455-6.611-.09-.442-.443-1.05-.808-1.166-.583-.186-1.117.135-1.483.782-1.802 3.193-2.939 6.567-3.059 10.26m6.922-6.376c.074 4.386-1.472 7.431-3.34 10.329-.367.568-1.144.963-1.815 1.21-.386.142-1.024-.05-1.402-.307-1.142-.777-1.414-1.983-1.472-3.305-.173-3.923.995-7.534 2.522-11.055.332-.766.929-1.419 1.423-2.11.588-.823 1.472-.899 2.317-.679.411.106.959.569 1.03.949.357 1.902.577 3.829.737 4.968" fill="#231f20"/><path d="m109.197 132.741c0 2.825-11.63 5.115-25.976 5.115s-25.977-2.29-25.977-5.115 11.631-5.115 25.977-5.115 25.976 2.29 25.976 5.115" fill="#b8c17b"/><path d="m83.221 128.165c-15.76 0-25.437 2.666-25.437 4.576 0 1.911 9.677 4.576 25.437 4.576s25.437-2.665 25.437-4.576c0-1.91-9.677-4.576-25.437-4.576m0 10.23c-12.854 0-26.516-1.981-26.516-5.654s13.662-5.654 26.516-5.654 26.516 1.981 26.516 5.654-13.662 5.654-26.516 5.654" fill="#231f20"/><path d="m89.416 48.927c-1.631-.353-2.835-.657-4.057-.867-1.523-.262-3.063-.424-4.589-.67-1.74-.28-2.338-.128-2.532-2.304-.113-1.255-.175-2.514-.288-3.768-.169-1.868-.364-3.732-.548-5.599l-.419.031c.1 1.825.237 3.649.286 5.475.05 1.834.011 3.67.011 5.547-1.467.686-2.817-.094-4.317-.143-.506-3.175.564-6.304 0-9.462-.569-.002-.62.289-.636.761-.078 2.345-.192 4.688-.33 7.031-.026.447-.221.886-.353 1.387-1.122.421-2.251.004-3.371-.011-2.966-.041-5.916-.506-8.906-.046-1.687.26-3.444.034-5.164.123-2.228.115-4.451.329-6.677.493-1.018.074-2.037.131-3.072.198.197-3.783 6.699-14.405 10.832-17.656-.917 2.193-2.229 3.919-2.962 6.265 1.073-.438 1.252-1.113 1.54-1.684 1.4-2.771 2.927-5.466 4.943-7.842.465-.548 1.127-.931 1.704-1.383.173-.135.491-.211.533-.371.454-1.712 2.189-1.56 3.317-2.298-1.266 1.999-2.685 3.919-3.757 6.018-1.077 2.111-1.978 4.341-2.316 6.743.932-1.081 1.281-2.433 1.799-3.703 1.426-3.498 3.341-6.656 6.247-9.147.984-.844 2.076-1.133 3.323-.847 4.036.922 7.701 2.611 10.842 5.344 1.73 1.504 2.811 3.439 3.64 5.554.666 1.7 1.335 3.417 2.211 5.012 1.016 1.851 1.38 3.879 1.908 5.858.484 1.814.729 3.692 1.158 5.961" fill="#775a30"/><path d="m60.466 24.156c-7.101 5.458-12.411 13.208-14.937 21.8 3.802.128 7.61.052 11.403-.226.912-3.282 2.302-6.431 4.111-9.318-.739 2.912-1.104 5.918-1.083 8.922 1.622.044 3.244.088 4.867.132-.598-3.585-.801-7.236-.604-10.866.146-2.682.536-5.432 1.88-7.758 1.721-2.98 4.141-3.509 7.123-4.228-3.843-2.81-9.397-1.043-12.76 1.542" fill="#967549"/><path d="m71.402 113.482-.009.076.156-.025zm27.854 18.339c.052.013.105.035.156.032.019-.002.035-.061.052-.094-.052-.012-.104-.035-.155-.031-.02.001-.035.061-.053.093m-31.048-53.478c.272.67.43 1.062.631 1.555.514-.441.931-.799 1.483-1.273-.729-.098-1.266-.169-2.114-.282m10.864.803c-.661-1.007-.889-1.03-2.943-.4.314.478.617.941.947 1.444.668-.349 1.264-.661 1.996-1.044m-24.201 29.074-.348.305c.484 1.507.968 3.013 1.565 4.867.599-1.294 1.025-2.214 1.474-3.182-.917-.678-1.804-1.333-2.691-1.99m3.081 9.197c1.469-1.725 2.006-3.78 2.61-5.889-.751-.301-1.41-.566-2.136-.858-.593 1.603-1.196 3.077-1.676 4.59-.286.899-.047 1.702 1.202 2.157m22.082-39.052c.593.923 1.176 1.698 1.616 2.546.722 1.39 1.897 1.557 3.221 1.297 1.205-.236 2.258-.819 3.15-1.673.527-.504.84-1.112.7-1.851-.169-.889.185-1.964-.906-2.688-2.259 1.714-5.125 1.417-7.781 2.369m35.207-47.967c2.093-2.28 3.93-4.568 4.973-7.668-1.182-.388-2.23-.772-3.301-1.074-1.771-.499-1.833-.444-2.423 1.282-.11.323-.276.628-.382.953-.562 1.719-.998 3.466-1.242 5.227.841.452 1.538.828 2.375 1.28m-.431 1.621c-3.098-2.476-7.157-2.144-9.224.567-.85 1.114-1.519 2.451-1.933 3.791-.746 2.417.482 4.365 3.063 5.14-.414-2.446.518-4.541 1.708-6.51 1.334-2.207 3.582-2.861 6.386-2.988m-59.494 84.969c0-1.034.152-1.902-.034-2.691-.312-1.33-.999-2.581-1.238-3.917-.388-2.169-1.482-3.259-3.726-3.26-.853-.001-1.706-.289-2.684-.469.152.641.346 1.035.318 1.413-.133 1.848.738 3.448 1.212 5.143.328 1.17 1.094 1.991 2.265 2.402 1.289.453 2.575.913 3.887 1.379m55.847-88.361c-.074-3.266.096-6.587-.444-9.886-.14-.85-.471-1.075-1.325-.803-1.254.398-2.5.838-3.714 1.346-1.083.453-1.243.775-.885 1.869.77 2.348 1.769 4.605 3.149 6.662.802 1.196 1.646 1.375 3.219.812m6.794 6.658c-.209-.325-.307-.61-.506-.768-2.554-2.043-6.708-1.26-8.408 1.529-1.192 1.957-1.695 3.91-.721 6.159.58 1.339 1.887 2.389 3.591 2.349.184-1.893.041-3.859 1.432-5.491 1.3-1.524 2.475-3.138 4.612-3.778m-51.203 60.906c.613-1.225 1.068-2.147 1.536-3.063.314-.615.798-.965 1.52-.882 1.157.134 1.973-.422 2.663-1.274.541-.669 1.163-1.278 1.658-1.979 1.742-2.471 2.357-5.302 1.683-8.17-.588-2.499-2.911-3.056-4.468-1.638-2.302 2.096-4.373 4.334-5.103 7.518-.229.996-.284 1.827.262 2.779.698 1.215.702 2.477-.312 3.677-.487.577-.691 1.394-1.101 2.268.64.295 1.114.513 1.662.764m-20.511-18.459c-2.376 2.2-4.486 4.352-6.178 6.89-.428.642-.231 1.192.199 1.715 1.22 1.486 1.86 3.26 2.583 5.007.934 2.261 1.987 4.473 2.929 6.574 2.107.17 3.962.319 5.815.469.151-2.04-3.203-14.988-5.348-20.655m30.97 32.213c-1.561-5.809-3.088-11.49-4.623-17.201-.629.328-1.124.804-1.617.804-1.971-.001-2.363 1.411-2.962 2.954.912.342 1.709.629 2.497.938 2.526.989 3.01 3.854.958 5.559-.343.285-.812.636-.871 1.011-.283 1.808-1.449 3.204-2.107 4.831-.956 2.365-2.103 3.147-4.684 3.185-2.066.03-2.233.16-2.808 2.209-.119.425-.222.855-.386 1.488 2.023-.655 3.853-1.243 5.68-1.839 1.895-.619 3.814-1.177 5.673-1.888 1.778-.681 3.795-.806 5.25-2.051m-33.114-12.796c-.707 1.166-1.69 2.288-1.161 3.75.63 1.743 1.602 3.427 3.469 4.016 1.891.595 3.898.82 5.855 1.202 1.638.319 3.14.773 4.507 1.914 1.813 1.512 4.058 2.334 6.383 2.831 1.354.289 2.729-.16 3.445-1.106.988-1.304 1.771-2.919 2.108-4.514.298-1.407.734-2.463 1.931-3.218.282-.177.508-.443.761-.669-.115-1.281-.234-2.4-1.79-2.785-1.544-.382-3.034-.991-4.54-1.518-1.066-.373-1.366-.861-1.313-2.05.048-1.106-.266-1.421-1.308-.986-.983.41-2.014.926-2.743 1.671-.981 1.001-1.68 2.274-2.525 3.411-.224.301-.536.752-.817.759-1.598.042-3.201-.001-4.799-.075-.849-.039-1.69-.254-2.539-.29-.965-.04-2.08.337-2.863-.032-.825-.391-1.334-1.448-2.061-2.311m11.831 1.296c1.222-1.403 2.32-2.634 3.383-3.896 1.477-1.754 3.334-2.259 5.521-1.762.657-1.643.856-1.598.277-3.235-.255-.72-.333-1.625-.143-2.355.446-1.706.847-3.476 2.077-4.851.568-.636.66-1.311.388-2.07-.463-1.291-.904-2.592-1.425-3.859-.566-1.378-.601-1.36-2.159-1.064-.224.043-.456.053-.684.063-2.802.119-5.604.221-8.404.356-2.115.102-4.229.238-6.341.381-.264.018-.518.172-.912.309.124.883.154 1.744.374 2.554 1.438 5.291 2.916 10.57 4.382 15.854.332 1.197.67 2.393 1.001 3.575zm47.082-1.849c.945 2.12 1.338 4.195 1.229 6.344-.11 2.176-.213 4.357-.477 6.517-.186 1.526-.53 3.054-1.002 4.517-.401 1.247-.853 1.496-2.084 1.184-1.852-.469-3.611-.168-5.415.194-.6.12-.997.338-1.458.731-1.389 1.184-2.499 2.928-4.781 2.539-.378-.064-1.041.334-1.239.698-.32.59-.015 1.209.495 1.686.607.566 1.329.686 2.085.51 2.002-.467 3.996-.958 5.812-1.989.936-.531 1.943.059 1.833 1.118-.062.596-.345 1.201-.647 1.734-1.004 1.772-2.449 3.137-4.038 4.398-.881.7-1.648 1.584-2.322 2.492-.45.606-.158 1.176.588 1.213.711.036 1.565.017 2.125-.34 1.194-.762 2.272-1.721 3.334-2.67.954-.852 1.822-1.799 2.728-2.703.175 2.133-1.855 2.783-2.706 4.457 1.339-.943 2.516-1.77 3.693-2.598.079.094.159.188.239.282-.871 1.875-3.031 2.584-4.386 4.513 2.58-.638 4.493-1.922 6.471-3.127.072.266.159.437.122.471-.974.893-1.961 1.771-2.997 2.697 2.089-.189 3.711-1.093 5.027-2.647 1.046-1.233 1.835-2.598 2.606-4.018 1.038-1.913 1.34-3.869 1.093-5.968-.1-.853-.173-1.717-.37-2.549-.199-.844-.01-1.492.415-2.255.604-1.085 1.154-2.29 1.337-3.502.305-2.024.384-4.095.405-6.147.025-2.467-.259-4.92-1.02-7.282-.343-1.063-.647-2.177-1.504-2.93-1.744.816-3.401 1.592-5.191 2.43m24.594-18.676c-.349-.818-.599-1.312-.773-1.831-.327-.969-.792-1.937-.877-2.933-.263-3.066.205-6.026 1.371-8.918 1.28-3.173 1.594-6.537 1.45-9.953-.108-2.565-.975-4.935-1.715-7.343-1.18-3.838-3.507-6.777-6.928-8.861-.867-.528-1.738-1.051-2.782-1.682-.415.391-.913.859-1.569 1.477 2.828 1.239 4.275 3.4 5.511 5.786 1.889 3.646 2.496 5.95 1.718 7.84-.232-.98-.358-1.68-.565-2.355-1.315-4.277-2.947-8.333-7.475-10.419-.381.518-.743 1.009-1.083 1.471 1.388 1.738 2.554 3.961 3.084 6.035.339 1.327.819 2.686.799 4.023-.07 4.556-1.189 8.847-3.791 12.671-.678.997-1.358 1.996-1.977 3.03-1.424 2.373-2.644 4.836-2.966 7.637-.135 1.173.017 1.47 1.169 1.671 2.355.412 4.728.725 7.228 1.098.113-1.323.114-2.522.342-3.676.243-1.228.682-2.42 1.067-3.617.369-1.145.745-2.289 1.179-3.41.454-1.173.941-2.337 1.486-3.47.477-.994.562-2.255 1.82-2.788-.192.953-.457 1.875-.898 2.704-1.034 1.941-1.746 3.904-1.595 6.183.136 2.057-.071 4.134-.034 6.201.031 1.677.677 2.659 1.941 2.881 1.506.263 3.042.352 4.863.548m-38.189-28.993c-.43-2.269-.674-4.147-1.158-5.961-.528-1.979-.893-4.007-1.909-5.858-.876-1.595-1.544-3.312-2.211-5.012-.829-2.115-1.909-4.05-3.639-5.554-3.141-2.732-6.806-4.422-10.842-5.344-1.247-.285-2.339.004-3.323.847-2.907 2.491-4.822 5.649-6.247 9.147-.518 1.27-.867 2.623-1.799 3.704.338-2.402 1.239-4.633 2.316-6.744 1.071-2.098 2.49-4.019 3.757-6.018-1.128.738-2.863.586-3.317 2.298-.042.16-.36.236-.534.372-.577.451-1.238.835-1.703 1.383-2.017 2.375-3.544 5.07-4.944 7.841-.288.571-.466 1.246-1.54 1.684.734-2.346 2.046-4.071 2.962-6.265-4.133 3.251-10.634 13.873-10.832 17.656 1.035-.066 2.054-.123 3.073-.198 2.226-.164 4.449-.378 6.677-.492 1.72-.089 3.476.136 5.163-.123 2.991-.461 5.94.004 8.907.045 1.119.016 2.249.432 3.37.011.133-.501.327-.939.354-1.387.138-2.342.251-4.686.33-7.031.015-.472.067-.763.636-.76.563 3.158-.506 6.287 0 9.461 1.5.05 2.85.829 4.317.144 0-1.877.038-3.713-.011-5.547-.049-1.827-.187-3.65-.286-5.475l.419-.031c.184 1.866.378 3.731.547 5.598.114 1.254.176 2.514.288 3.768.195 2.177.793 2.024 2.533 2.304 1.526.246 3.066.408 4.589.67 1.221.21 2.426.514 4.057.867m23.162-2.492c-1.63-.698-3.362-1.207-4.594-2.562-.486-.533-.984-.796-1.666-1.028-1.994-.674-3.493-1.921-3.861-4.164-.414-2.513.566-4.625 2.038-6.504.854-1.091 1.995-1.956 3.009-2.925-.717-1.317-1.439-2.684-2.204-4.025-.182-.32-.468-.618-.775-.823-.65-.434-1.357-.779-2.019-1.197-.966-.612-1.844-1.417-2.88-1.856-3.489-1.479-7.124-2.627-10.865-3.138-4.834-.66-9.715-.611-14.537.35-1.413.281-2.803.679-4.257 1.037 2.193.895 4.286 1.64 6.284 2.588 3.563 1.69 6.467 4.151 8.143 7.813 1.238 2.705 2.592 5.389 3.478 8.214 1.185 3.78 1.986 7.683 2.913 11.542.425 1.767.406 3.668 1.622 5.18.754.937 1.465 1.924 2.325 2.756 1.576 1.526 3.417 1.822 5.525 1.092 2.409-.834 5.328-.585 6.759 1.756.109.178.277.321.332.383.448-.385.811-.765 1.238-1.052 1.579-1.065 2.556-2.607 3.427-4.238.269-.504.455-1.061.771-1.532 1.867-2.79 2.255-5.961 2.262-9.183.002-1.067-.465-2.166-1.743-2.668-.664 1.383.62 2.978-.725 4.184m-19.983 40.403c.922.204 1.056.903 1.256 1.543.613 1.968 1.209 3.94 1.842 5.902.207.641.343 1.489.81 1.808.433.297 1.263-.014 1.918-.005 2.529.038 4.875-.746 7.086-1.821 1.311-.638 2.497-1.613 3.582-2.607.807-.738.75-1.227.101-2.126-.397-.55-.963-.974-1.417-1.487-2.273-2.574-4.539-5.155-6.799-7.741-.942-1.077-1.849-2.185-2.794-3.26-.923-1.047-2.066-1.663-3.495-1.462-1.441.202-2.767.744-3.941 1.619-.583.434-.963.927-.724 1.748.208.719-.098 1.348-.608 1.879-1.802 1.875-3.878 2.934-6.599 2.608-1.202-.144-1.87-.611-2.289-1.704-.661-1.725-1.023-1.818-2.654-.858-.24.142-.453.331-.519.38-.189 1.6-.137 3.084-.574 4.409-.638 1.939-1.367 3.897-2.85 5.437-.235.244-.407.741-.335 1.06.435 1.923.949 3.827 1.437 5.738.485-.792.712-1.596.841-2.416.276-1.75.498-3.508.747-5.263.076-.541.093-1.128 1.01-1.384 0 .689.071 1.257-.013 1.8-.372 2.433-.86 4.849-1.162 7.29-.18 1.457-.36 3.005-.061 4.411.474 2.227 1.37 4.362 2.04 6.552.175.569.17 1.193.263 1.906-2.18.794-4.21 1.534-6.24 2.273l.093.365c2.278-.203 4.554-.441 6.834-.604 4.94-.354 9.852-.3 14.767.56 2.335.408 4.773.228 7.05.311 2.152-3.356 2.6-12.806.821-16.893-1.568.301-3.192.569-4.793.934-1.474.337-2.055.016-2.29-1.453-.108-.678-.114-1.38-.288-2.039-.641-2.418-1.331-4.823-2.053-7.41m3.828-19.475c.475.37.926.549 1.072.867.453.994 1.282 1.235 2.228 1.314.963.08 1.989.38 2.878.154 2.087-.531 4.507-4.283 4.235-6.391-.226-1.753-1.331-2.929-2.936-3.513-1.469-.534-2.949-.415-4.23.62-.444.358-.833.784-1.277 1.143-.101.082-.325.012-.555.012-.137-.439-.268-.857-.374-1.196-1.482-.562-2.994-.893-3.969-2.138-.917-1.17-1.912-2.326-2.559-3.643-.641-1.302-.89-2.798-1.359-4.372-2.309-.466-4.641-1.056-7.01-1.383-2.834-.39-5.697-.581-8.551-.813-5.366-.435-10.716-1.195-16.13-.575-1.815.207-3.671.036-5.505.113-1.607.066-1.944.394-1.962 1.955-.034 2.93-.151 5.873.067 8.788.125 1.671.542 3.466 1.353 4.909 1.889 3.361 4.336 6.312 7.431 8.714 1.747 1.356 3.526 2.293 5.799 2.059.826-.086 1.534.297 1.719 1.126.538 2.402 3.333 2.804 5.337 2.11.309-.107.642-.193.966-.197 2.399-.034 4.814.117 7.192-.115 1.912-.187 3.857-.355 5.702-1.128 2.722-1.141 5.191-2.676 7.499-4.471 1.05-.819 2.299-1.586 2.277-3.23-.002-.196.354-.397.662-.719m-29.138 48.713c.216.239.43.477.716.793-.49.323-.881.547-1.232.823-.379.298-.72.646-1.081.976 3.315 3.335 16.859 4.382 20.817 2.329-.057-.569-.217-1.143-.151-1.689.18-1.505 1.351-2.45 3.215-2.479.869-.014 1.578-.199 2.178-.787.483-.475.929-.988 1.583-1.689-2.481-.22-4.793-.5-7.113-.615-4.301-.212-8.577.266-12.846.687-2.096.207-4.157.682-6.045 1.698-.239.12-.478.241-.717.362-.439.106-.879.205-1.315.32-1.713.452-2.481 1.405-2.54 3.12-.047 1.357.208 2.68 1.001 3.761 1.642 2.237 2.895 4.825 5.525 6.212 2.37 1.249 4.581 2.737 7.216 3.538 2.487.756 5.026 1.039 7.547 1.444 3.691.594 7.227-.185 10.632-1.771-.412-.272-.828-.457-1.121-.759-.441-.456-.9-.62-1.535-.548-.9.101-1.787-.09-2.189-.998-.425-.959-.285-1.929.471-2.717.71-.739 1.456-1.445 2.193-2.158.988-.955 2.005-1.881 2.965-2.863.419-.429.852-.916.697-1.818-.663.188-1.248.351-1.832.52-1.265.365-2.532.721-3.792 1.104-.747.226-1.427.195-2.166-.134-.897-.4-1.846-.475-2.83-.106-.632.238-1.336.384-2.01.389-2.579.018-5.167.079-7.737-.094-3.09-.209-6.137-.78-9.038-1.931-.58-.231-1.162-.515-1.66-.888-.952-.714-1.052-1.253-.3-2.165.485-.589 1.177-1.008 1.777-1.504.239-.121.479-.242.717-.363m52.459-46.511c-1.132 2.607-1.358 5.338-.906 8.121-.36.069-.55.171-.687.123-2.797-.994-5.759-.907-8.642-1.335-.397-.059-.808-.028-1.201-.098-.683-.124-1.012-.597-.842-1.246.961-3.667 2.004-7.304 4.193-10.483 1.856-2.695 3.731-5.39 4.371-8.689.338-1.741.637-3.495.844-5.255.111-.947-.164-1.878-.808-3.115-.238 4.567-2.768 7.726-4.72 11.118-.582 1.013-1.612 1.785-2.502 2.598-.589.539-.816 1.089-.881 1.915-.226 2.883-1.447 5.25-3.917 6.923-1.355.918-2.756 1.043-4.269.638-1.047-.28-2.089-.576-2.937-.81-2.524 1.876-4.902 3.643-7.353 5.464.095.249.21.551.351.922 1.812-1.12 3.617-1.937 5.655-2.193.87-.11 1.481.111 2.18.651 2.083 1.605 3.375 3.895 5.173 5.741.995 1.021 1.919 2.112 2.859 3.185.756.863 1.475 1.757 2.231 2.619.791.902 1.571 1.818 2.419 2.665 1.139 1.136 1.178 1.273.238 2.559-.203.277-.369.581-.565.864-.162.235-.342.457-.582.775 1.567 2.656 2.139 5.648 2.293 8.681.184 3.601.417 7.236-.649 10.775-.116.384-.166.809-.366 1.144-.915 1.535-.93 3.204-.586 4.844.248 1.177.177 2.307-.116 3.393-.912 3.386-2.544 6.423-5.173 8.764-.985.877-2.341 1.44-3.622 1.849-1.394.446-2.917.47-4.347.827-.983.245-1.883.812-2.857 1.113-1.456.451-2.931.867-4.426 1.157-1.113.216-2.267.242-3.406.295-2.245.103-4.447-.216-6.622-.759-1.216-.302-2.433-.605-3.657-.875-2.856-.629-5.231-2.32-7.758-3.633-1.55-.805-2.812-2.164-3.699-3.766-.361-.651-.707-1.347-1.214-1.873-1.589-1.652-1.785-3.681-1.589-5.767.087-.934.568-1.83.877-2.763-1.261-.088-2.279.841-3.207 1.501-1.481 1.053-2.836.63-4.221.231-1.751-.504-3.433-1.245-5.171-1.8-1.383-.441-1.344-.457-1.657-1.794-.496-2.113-1.158-4.186-1.717-6.284-.183-.687-.266-1.4-.436-2.331-2.204-.429-3.251-2.396-4.111-4.41-.976-2.288.363-4.064 1.73-5.883-1.043-2.28-2.042-4.651-3.21-6.935-.538-1.051-1.366-1.968-2.14-2.879-.582-.686-.56-1.288.135-1.747 1.184-.783 1.93-1.931 2.804-2.991.985-1.194 2.113-2.268 3.177-3.396.316-.333.775-.617.917-1.014.574-1.606 1.959-1.864 3.323-1.991 2.441-.228 4.897-.303 7.346-.448.338-.02.677-.06 1.011-.118.82-.143 1.638-.301 2.576-.476-.73-.595-1.507-1.152-2.192-1.805-1.154-1.101-2.308-2.214-3.353-3.416-.975-1.121-1.878-2.32-2.689-3.566-1.345-2.067-1.973-4.416-2.053-6.846-.111-3.376-.028-6.758-.028-10.245-1.151.07-2.438.161-3.727.22-.685.031-1.377.057-2.057-.007-.875-.082-1.178-.637-.828-1.42 1.965-4.404 4.192-8.64 7.058-12.561 3.065-4.194 6.45-8.068 10.536-11.248 1.639-1.277 3.669-2.083 5.588-2.955.972-.442 1.99-.76 2.968-1.245 1.309-.652 2.801-.987 4.25-1.296 1.623-.346 3.278-.593 4.933-.734 1.638-.141 3.294-.153 4.939-.119 1.892.038 3.782.187 5.672.292 2.665.149 5.146 1.065 7.639 1.895 1.734.577 3.437 1.262 5.114 1.99.766.333 1.437.887 2.34 1.459-.203-.734-.361-1.319-.528-1.901-.221-.771-.069-1.35.762-1.646.536-.191 1.047-.454 1.579-.657 1.122-.427 2.261-.811 3.375-1.259 1.752-.705 2.851.019 2.924 1.965.084 2.235.162 4.47.247 6.705.008.227.042.453.259.731.468-1.452.94-2.903 1.403-4.357.723-2.268.753-2.273 2.982-1.532 1.197.397 2.422.711 3.621 1.101 1.337.436 1.59 1.081.822 2.292-1.044 1.647-2.155 3.251-3.249 4.865-.789 1.164-1.598 2.315-2.484 3.595.617.209.991.325 1.358.462 1.315.487 2.327 1.304 2.563 2.753.128.79.606 1.131 1.205 1.535 2.956 1.995 5.41 4.48 6.648 7.886.937 2.582 1.821 5.216 2.345 7.902.367 1.882.072 3.89.102 5.841.02 1.224-.353 2.361-.695 3.505-.361 1.206-.747 2.406-1.159 3.596-.835 2.412-1.217 4.872-.933 7.427.144 1.293.653 2.409 1.365 3.481.394.592.628 1.291.973 2.025-1.277.468-2.359.358-3.416.228-1.425-.174-2.834-.466-4.256-.671-.694-.1-1.193-.348-1.326-1.106-.178-1.008-.488-2.005-.553-3.018-.095-1.488-.024-2.987-.024-4.481.081-.089.162-.179.093-.102.032-.1-.008.022-.047.144" fill="#231f20"/><path d="m98.352 65.481c.266-.356.447-.569.594-.803.989-1.583 1.733-1.827 3.337-1.073.206.096.395.291.602.305.302.022.613-.079.921-.127-.144-.326-.206-.848-.445-.947-2.068-.856-2.955-1.75-4.813.455-.143.17-.383.255-.539.418-.601.625-.526 1.174.343 1.772m-32.705-9.446c1.515-1.346 1.689-3.166.471-4.545-.35-.397-.846-.452-1.177-.014-.67.886-.472 1.945-.453 2.96.014.748.318 1.302 1.159 1.599m-10.817-3.142c-.105-.189-.298-.725-.647-1.126-.438-.505-1.219-.377-1.591.162-.511.74-.536 3.049-.023 3.767.319.445.767.574 1.136.131.615-.74 1.195-1.526 1.125-2.934m5.337 2.908c-.341-.345-.54-.725-.752-.732-2.469-.084-4.455 1.318-3.715 4.317.121.491.364.971.634 1.403.568.907 1.306 1.689 2.48 1.521 1.276-.182 2.498-.579 3.102-1.977-.778.101-1.485.37-2.2.616-1.36.468-2.162.112-2.739-1.197-.607-1.378-.266-2.695.914-3.24.609-.282 1.29-.41 2.276-.711m13.885 9.667c-.922.162-.934.738-1.043 1.216-.538 2.383-2.187 3.512-4.448 3.896-1.506.256-3.034.566-4.448-.437-.167-.118-.734.023-.836.202-.115.204-.008.662.168.871.203.241.574.426.893.466 1.119.141 2.266.388 3.369.272 4.081-.431 5.325-2.23 6.422-5.429.096-.278-.04-.637-.077-1.057m22.371 1.895c-.307.322-.664.523-.661.719.022 1.644-1.227 2.411-2.278 3.23-2.307 1.795-4.777 3.33-7.499 4.471-1.844.773-3.79.941-5.702 1.128-2.378.232-4.793.081-7.192.115-.323.004-.657.09-.966.197-2.003.694-4.799.292-5.336-2.11-.186-.829-.894-1.212-1.719-1.126-2.274.234-4.052-.703-5.8-2.059-3.095-2.402-5.542-5.353-7.43-8.714-.812-1.443-1.229-3.238-1.354-4.909-.218-2.915-.101-5.858-.067-8.788.018-1.561.355-1.889 1.963-1.955 1.834-.077 3.689.094 5.504-.113 5.415-.62 10.764.14 16.131.575 2.854.232 5.716.423 8.55.813 2.369.327 4.701.917 7.01 1.383.469 1.574.718 3.07 1.359 4.372.647 1.317 1.643 2.473 2.559 3.643.976 1.245 2.487 1.576 3.969 2.138.106.339.237.757.374 1.196.23 0 .454.07.555-.012.444-.359.833-.785 1.277-1.143 1.282-1.035 2.762-1.154 4.23-.62 1.606.584 2.71 1.76 2.936 3.513.272 2.108-2.148 5.86-4.235 6.391-.889.226-1.915-.074-2.877-.154-.947-.079-1.776-.32-2.229-1.314-.145-.318-.597-.497-1.072-.867" fill="#fdd8bd"/><path d="m92.596 86.838c.721 2.587 1.412 4.992 2.052 7.41.175.659.181 1.361.289 2.039.234 1.469.815 1.79 2.289 1.453 1.601-.365 3.225-.632 4.794-.934 1.779 4.087 1.331 13.537-.821 16.893-2.277-.083-4.715.097-7.05-.311-4.916-.86-9.827-.914-14.767-.56-2.281.163-4.556.401-6.834.604l-.094-.365c2.031-.739 4.061-1.479 6.241-2.273-.093-.713-.089-1.337-.263-1.906-.67-2.19-1.566-4.325-2.041-6.552-.298-1.406-.118-2.954.062-4.411.301-2.441.789-4.857 1.162-7.29.084-.543.012-1.11.012-1.8-.917.256-.933.843-1.01 1.384-.248 1.755-.471 3.514-.747 5.264-.128.819-.356 1.623-.84 2.415-.488-1.911-1.002-3.815-1.437-5.738-.072-.319.1-.816.335-1.06 1.482-1.54 2.211-3.498 2.85-5.437.437-1.325.385-2.809.573-4.409.067-.049.28-.238.52-.38 1.63-.96 1.993-.867 2.654.859.418 1.092 1.087 1.559 2.289 1.703 2.721.326 4.797-.733 6.598-2.608.51-.531.816-1.16.608-1.879-.238-.821.142-1.314.724-1.748 1.175-.875 2.5-1.417 3.942-1.619 1.429-.201 2.572.415 3.494 1.463.946 1.074 1.853 2.182 2.795 3.259 2.259 2.586 4.525 5.167 6.799 7.741.453.513 1.02.938 1.417 1.487.649.899.706 1.388-.101 2.126-1.086.994-2.271 1.969-3.582 2.607-2.211 1.075-4.557 1.859-7.087 1.822-.654-.01-1.484.301-1.918.004-.466-.319-.603-1.167-.81-1.808-.633-1.962-1.228-3.934-1.842-5.902-.199-.64-.333-1.339-1.255-1.543" fill="#f38596"/><path d="m112.578 46.435c1.345-1.206.061-2.801.725-4.185 1.278.502 1.746 1.602 1.744 2.669-.008 3.222-.395 6.393-2.263 9.183-.316.471-.501 1.028-.771 1.532-.871 1.631-1.848 3.173-3.427 4.238-.426.287-.79.667-1.238 1.052-.055-.062-.223-.205-.332-.383-1.431-2.341-4.35-2.59-6.758-1.756-2.109.73-3.95.434-5.526-1.092-.86-.832-1.571-1.82-2.325-2.756-1.216-1.512-1.197-3.414-1.621-5.18-.928-3.86-1.729-7.762-2.914-11.542-.886-2.825-2.24-5.509-3.478-8.215-1.675-3.661-4.58-6.122-8.143-7.813-1.998-.947-4.091-1.692-6.284-2.587 1.454-.358 2.844-.756 4.257-1.038 4.822-.96 9.703-1.009 14.538-.349 3.74.511 7.375 1.659 10.864 3.138 1.036.439 1.914 1.244 2.881 1.855.661.418 1.368.764 2.018 1.198.307.205.593.503.776.823.764 1.341 1.486 2.708 2.203 4.025-1.014.969-2.155 1.834-3.009 2.925-1.472 1.879-2.452 3.991-2.038 6.504.369 2.243 1.868 3.49 3.861 4.164.682.232 1.18.495 1.666 1.028 1.232 1.355 2.965 1.864 4.594 2.562" fill="#775a30"/><path d="m127.606 77.92c-1.821-.196-3.357-.285-4.863-.548-1.264-.222-1.91-1.204-1.941-2.881-.037-2.067.17-4.144.033-6.201-.15-2.279.562-4.242 1.596-6.183.441-.829.706-1.751.898-2.704-1.258.533-1.343 1.794-1.82 2.788-.545 1.133-1.032 2.297-1.486 3.47-.434 1.121-.811 2.265-1.179 3.41-.385 1.197-.824 2.389-1.067 3.617-.228 1.154-.229 2.353-.342 3.676-2.5-.373-4.873-.686-7.228-1.098-1.152-.201-1.304-.498-1.169-1.671.322-2.801 1.542-5.264 2.965-7.637.62-1.034 1.3-2.033 1.978-3.03 2.602-3.824 3.721-8.115 3.791-12.671.02-1.337-.46-2.696-.799-4.023-.531-2.074-1.696-4.297-3.084-6.035.34-.462.702-.953 1.083-1.471 4.528 2.086 6.16 6.142 7.475 10.419.207.675.333 1.375.565 2.355.778-1.89.171-4.194-1.718-7.84-1.236-2.386-2.683-4.547-5.511-5.786.656-.618 1.154-1.086 1.569-1.477 1.044.631 1.915 1.154 2.782 1.682 3.421 2.084 5.748 5.023 6.928 8.861.74 2.408 1.607 4.778 1.715 7.343.143 3.416-.17 6.78-1.45 9.953-1.166 2.892-1.634 5.852-1.371 8.918.085.996.55 1.964.877 2.933.174.519.424 1.013.773 1.831" fill="#775a30"/><path d="m103.011 96.596c1.79-.838 3.447-1.614 5.191-2.43.857.752 1.162 1.867 1.504 2.93.762 2.362 1.045 4.814 1.02 7.281-.021 2.053-.1 4.123-.405 6.148-.183 1.212-.732 2.417-1.337 3.502-.425.762-.614 1.41-.414 2.255.196.832.269 1.695.369 2.548.247 2.099-.055 4.056-1.093 5.969-.771 1.42-1.56 2.785-2.606 4.018-1.315 1.554-2.937 2.458-5.026 2.647 1.035-.927 2.022-1.805 2.996-2.697.037-.034-.05-.206-.122-.471-1.978 1.204-3.891 2.489-6.471 3.127 1.355-1.93 3.515-2.638 4.386-4.513-.08-.094-.159-.188-.239-.282-1.177.827-2.354 1.655-3.693 2.597.851-1.673 2.881-2.323 2.706-4.457-.906.905-1.774 1.852-2.727 2.703-1.062.95-2.141 1.909-3.335 2.67-.56.358-1.414.377-2.124.341-.747-.037-1.038-.607-.589-1.213.674-.908 1.441-1.793 2.322-2.492 1.589-1.262 3.034-2.626 4.038-4.398.302-.533.586-1.138.648-1.735.109-1.058-.897-1.649-1.834-1.117-1.815 1.03-3.81 1.522-5.811 1.988-.757.177-1.479.057-2.085-.509-.511-.477-.815-1.096-.496-1.686.198-.365.861-.763 1.239-.698 2.282.389 3.392-1.355 4.781-2.539.461-.393.858-.612 1.458-.732 1.804-.361 3.563-.663 5.416-.193 1.23.312 1.682.063 2.083-1.184.472-1.463.816-2.991 1.002-4.517.265-2.16.368-4.341.477-6.517.109-2.149-.284-4.224-1.229-6.344" fill="#fdd8bd"/><path d="m55.93 98.446h-2.665c-.331-1.182-.669-2.378-1.001-3.576-1.466-5.283-2.944-10.563-4.382-15.854-.22-.809-.25-1.67-.374-2.553.393-.138.648-.291.912-.309 2.112-.143 4.226-.279 6.341-.381 2.8-.136 5.602-.238 8.403-.356.229-.01.46-.021.684-.063 1.559-.297 1.594-.314 2.16 1.063.521 1.268.962 2.569 1.425 3.86.272.758.18 1.434-.389 2.069-1.23 1.375-1.631 3.145-2.076 4.851-.19.73-.112 1.636.143 2.355.579 1.637.38 1.593-.278 3.236-2.186-.497-4.043.008-5.521 1.762-1.062 1.261-2.161 2.492-3.382 3.896" fill="#fff200"/><path d="m66.569 116.439c-.6.496-1.292.915-1.777 1.504-.752.912-.652 1.451.3 2.165.498.373 1.08.657 1.66.888 2.901 1.151 5.948 1.722 9.038 1.931 2.57.173 5.158.112 7.737.094.674-.005 1.378-.151 2.01-.389.984-.369 1.933-.294 2.83.106.739.329 1.419.36 2.166.134 1.26-.383 2.527-.739 3.792-1.104.584-.169 1.169-.332 1.832-.52.155.902-.278 1.389-.697 1.818-.96.982-1.977 1.908-2.965 2.863-.737.713-1.483 1.419-2.193 2.158-.756.788-.896 1.758-.471 2.717.402.908 1.289 1.099 2.189.998.635-.072 1.094.092 1.535.548.293.302.709.487 1.121.759-3.405 1.586-6.941 2.365-10.632 1.771-2.521-.405-5.06-.688-7.547-1.444-2.635-.801-4.846-2.289-7.216-3.539-2.63-1.386-3.883-3.974-5.525-6.211-.793-1.081-1.048-2.404-1.001-3.761.059-1.715.827-2.668 2.54-3.12.436-.116.876-.214 1.315-.32z" fill="#52c0a5"/><path d="m44.098 97.15c.728.862 1.236 1.92 2.061 2.31.783.37 1.898-.008 2.863.033.849.036 1.69.25 2.539.289 1.599.075 3.201.118 4.799.076.281-.007.593-.458.817-.759.845-1.137 1.545-2.41 2.525-3.411.729-.745 1.76-1.262 2.744-1.672 1.042-.434 1.356-.119 1.307.986-.052 1.19.247 1.678 1.313 2.051 1.507.527 2.996 1.136 4.54 1.518 1.556.385 1.676 1.503 1.79 2.784-.253.227-.479.492-.761.67-1.197.754-1.633 1.811-1.931 3.218-.336 1.595-1.12 3.21-2.107 4.514-.716.945-2.091 1.395-3.446 1.105-2.325-.497-4.57-1.319-6.383-2.831-1.367-1.141-2.869-1.595-4.507-1.914-1.957-.381-3.964-.606-5.855-1.202-1.867-.588-2.839-2.272-3.469-4.015-.528-1.462.454-2.584 1.161-3.75" fill="#fdd8bd"/><path d="m67.327 116.123c1.888-1.015 3.948-1.49 6.044-1.697 4.27-.421 8.546-.899 12.847-.687 2.319.114 4.632.394 7.113.614-.654.702-1.1 1.214-1.584 1.689-.599.589-1.309.774-2.177.788-1.865.029-3.035.973-3.216 2.478-.066.546.095 1.12.152 1.69-3.958 2.053-17.502 1.005-20.818-2.33.362-.33.703-.677 1.082-.976.35-.276.742-.5 1.231-.823-.285-.316-.5-.554-.715-.792z" fill="#659f95"/><path d="m77.212 109.945c-1.454 1.245-3.472 1.37-5.25 2.051-1.859.711-3.778 1.269-5.673 1.888-1.827.596-3.656 1.185-5.679 1.839.164-.632.267-1.063.386-1.488.575-2.049.741-2.179 2.808-2.209 2.58-.038 3.727-.82 4.683-3.185.658-1.626 1.825-3.022 2.108-4.831.058-.375.527-.726.87-1.011 2.053-1.704 1.569-4.57-.958-5.559-.788-.308-1.584-.596-2.496-.938.599-1.543.99-2.955 2.961-2.953.494 0 .988-.477 1.617-.805 1.536 5.711 3.062 11.392 4.623 17.201" fill="#fff200"/><path d="m45.06 80.914c-1.221 1.105-2.368 2.12-3.486 3.166-.45.421-.399 1.528.147 2.014.967.861 2.002 1.647 3.036 2.487.534-1.159 1.099-5.716.847-6.866-.062-.283-.344-.518-.544-.801m1.183-3.182c2.145 5.667 5.499 18.616 5.348 20.655-1.853-.149-3.708-.299-5.815-.469-.942-2.1-1.995-4.313-2.929-6.574-.723-1.747-1.364-3.52-2.583-5.006-.43-.524-.627-1.073-.199-1.716 1.692-2.538 3.802-4.69 6.178-6.89" fill="#fff8aa"/><path d="m70.767 82.373c-2.255.774-4.016 4.375-3.471 7.32.08.434.508 1.019.895 1.138.88.268 1.852.425 3.006-.396-.561-.23-.861-.432-1.18-.47-1.499-.178-1.748-.412-1.675-1.913.024-.5.137-1.029.347-1.481.641-1.385 1.349-2.738 2.078-4.198m-4.013 13.818c-.548-.252-1.022-.469-1.662-.764.41-.874.613-1.691 1.101-2.268 1.014-1.2 1.01-2.462.312-3.677-.547-.952-.491-1.783-.262-2.779.73-3.184 2.801-5.422 5.103-7.518 1.557-1.418 3.879-.861 4.467 1.638.675 2.868.06 5.698-1.683 8.17-.494.701-1.116 1.31-1.657 1.979-.69.852-1.506 1.408-2.664 1.274-.721-.083-1.205.267-1.519.882-.468.915-.923 1.838-1.536 3.063" fill="#c6c8ca"/><path d="m117.956 35.285c-2.137.64-3.312 2.253-4.611 3.778-1.392 1.632-1.249 3.597-1.432 5.491-1.705.04-3.011-1.01-3.591-2.35-.974-2.248-.471-4.202.72-6.158 1.7-2.789 5.854-3.573 8.408-1.53.199.159.297.443.506.769" fill="#f38596"/><path d="m111.163 28.627c-1.573.563-2.417.384-3.219-.812-1.38-2.057-2.379-4.314-3.149-6.662-.359-1.094-.198-1.416.885-1.869 1.213-.508 2.46-.949 3.714-1.346.854-.272 1.185-.047 1.325.803.54 3.299.37 6.62.444 9.886" fill="#f38596"/><path d="m55.316 116.988c-1.312-.466-2.598-.926-3.887-1.379-1.171-.411-1.937-1.232-2.265-2.402-.474-1.695-1.345-3.295-1.212-5.143.028-.378-.166-.772-.318-1.413.978.18 1.831.468 2.684.469 2.244.001 3.338 1.092 3.726 3.26.239 1.337.926 2.587 1.238 3.917.186.789.034 1.657.034 2.691" fill="#fff8aa"/><path d="m114.809 32.019c-2.803.127-5.052.782-6.385 2.988-1.191 1.97-2.122 4.064-1.708 6.51-2.582-.775-3.81-2.722-3.064-5.14.414-1.339 1.084-2.676 1.933-3.79 2.068-2.712 6.126-3.044 9.224-.568" fill="#f38596"/><path d="m115.241 30.398c-.837-.451-1.535-.827-2.375-1.28.244-1.761.679-3.508 1.241-5.227.106-.325.272-.629.383-.952.589-1.727.651-1.782 2.423-1.283 1.071.302 2.119.686 3.301 1.075-1.044 3.099-2.881 5.388-4.973 7.667" fill="#f38596"/><path d="m80.034 78.365c2.656-.953 5.522-.655 7.781-2.37 1.091.725.737 1.8.906 2.689.14.739-.173 1.347-.7 1.851-.892.853-1.945 1.437-3.15 1.673-1.325.26-2.5.093-3.221-1.297-.441-.849-1.023-1.623-1.616-2.546" fill="#fdd8bd"/><path d="m57.951 117.417c-1.249-.455-1.487-1.258-1.202-2.157.48-1.513 1.083-2.988 1.676-4.59.727.292 1.385.557 2.136.858-.604 2.109-1.141 4.164-2.61 5.889" fill="#c6c8ca"/><path d="m54.871 108.22c.887.656 1.774 1.312 2.69 1.99-.448.968-.874 1.887-1.474 3.181-.596-1.853-1.08-3.359-1.565-4.866z" fill="#fff200"/></g><path d="m66.582 116.433.704-.357.027.053-.704.356z" fill="#fff"/><path d="m71.402 113.482.147.051-.156.025z" fill="#fff" fill-rule="nonzero"/><path d="m119.744 69.565c.04-.122.079-.244.047-.144.069-.077-.012.013-.093.102z" fill="#fff" fill-rule="nonzero"/><path d="m74.052 65.468c.037.42.173.778.077 1.057-1.097 3.198-2.341 4.998-6.422 5.428-1.102.117-2.249-.131-3.368-.271-.319-.04-.69-.226-.893-.466-.176-.209-.284-.667-.168-.872.101-.179.669-.319.835-.202 1.414 1.003 2.942.694 4.449.438 2.261-.384 3.909-1.513 4.448-3.897.108-.478.121-1.053 1.042-1.215" fill="#231f20" fill-rule="nonzero"/><path d="m60.167 55.801c-.986.301-1.667.429-2.276.711-1.18.545-1.521 1.862-.914 3.24.577 1.309 1.379 1.665 2.739 1.197.715-.246 1.422-.515 2.201-.616-.604 1.398-1.827 1.795-3.103 1.977-1.174.168-1.912-.614-2.48-1.521-.27-.432-.513-.911-.634-1.403-.74-2.999 1.246-4.401 3.716-4.317.211.007.41.387.751.732" fill="#231f20" fill-rule="nonzero"/><path d="m54.83 52.893c.07 1.408-.51 2.194-1.125 2.934-.369.443-.817.314-1.136-.131-.513-.718-.488-3.027.024-3.767.372-.539 1.152-.667 1.591-.162.348.401.542.937.646 1.126" fill="#231f20" fill-rule="nonzero"/><path d="m65.648 56.035c-.842-.297-1.146-.851-1.159-1.599-.019-1.014-.217-2.073.453-2.96.331-.438.826-.383 1.177.015 1.217 1.378 1.043 3.199-.471 4.544" fill="#231f20" fill-rule="nonzero"/><path d="m98.352 65.481c-.869-.598-.944-1.147-.343-1.772.156-.163.396-.248.539-.418 1.858-2.205 2.745-1.311 4.813-.455.239.099.301.621.445.947-.308.048-.619.149-.921.127-.207-.014-.396-.209-.602-.305-1.604-.754-2.348-.51-3.337 1.073-.147.234-.328.447-.594.803" fill="#231f20" fill-rule="nonzero"/><path d="m42.463 84.912c.684.684 1.212 1.211 1.934 1.933v-3.704c-.719.658-1.237 1.133-1.934 1.771m2.597-3.998c.2.283.483.518.545.801.251 1.15-.314 5.707-.848 6.866-1.034-.84-2.068-1.627-3.036-2.487-.546-.486-.597-1.593-.147-2.015 1.118-1.045 2.265-2.06 3.486-3.165" fill="#231f20" fill-rule="nonzero"/><path d="m70.767 82.373c-.729 1.46-1.437 2.813-2.078 4.198-.21.452-.323.981-.347 1.481-.073 1.501.176 1.735 1.675 1.913.319.038.619.24 1.18.47-1.154.821-2.126.664-3.006.396-.387-.119-.815-.704-.895-1.138-.545-2.945 1.216-6.546 3.471-7.32" fill="#231f20" fill-rule="nonzero"/><path d="m42.463 84.912c.697-.638 1.215-1.113 1.934-1.771v3.704c-.722-.722-1.25-1.249-1.934-1.933" fill="#fff" fill-rule="nonzero"/><path d="m117.628 44.419c.521 3.228.707 6.553.048 9.755-1.452 7.058-6.851 12.93-7.744 20.08 1.604-.13 3.233.069 4.758.582.136-4.103 1.478-8.057 2.814-11.938 1.336-3.88 2.695-7.826 2.867-11.927.157-3.753-.803-8.34-3.786-10.897-.531 1.153.83 3.021 1.043 4.345" fill="#967549" fill-rule="nonzero"/></svg>