<svg clip-rule="evenodd" fill-rule="evenodd" stroke-miterlimit="10" viewBox="0 0 163 161" xmlns="http://www.w3.org/2000/svg"><path d="m10.26 10.316h141.489v138.977h-141.489z" fill="#fdcd9d" stroke="#fff" stroke-width="2"/><path d="m12.125 119.5h137.674v28.279h-137.674z" fill="#c591c1"/><g fill-rule="nonzero"><path d="m81.208 119.347c-1.574.6-2.92 1.113-4.284 1.633.924.375 1.873.76 2.95 1.196.419-.888.844-1.789 1.334-2.829m-50.586-50.295c-.478-.382-.819-.817-1.252-.971-1.693-.605-3.399-1.192-5.134-1.645-1.154-.3-2.363-.382-3.552-.521-.634-.073-1.26.06-1.425.82-.151.688.386 1.049.873 1.285.686.333 1.409.621 2.144.802 2.369.579 4.859.619 7.115 1.718.078.038.207-.036.397-.076.224-.379.478-.809.834-1.412m37.786 7.032c-1.861.959-3.559 1.833-5.177 2.666.343.956.915 1.852.915 2.748 0 .867-.59 1.733-.913 2.578 2.224 1.534 4.857.044 5.139-3.082.142-1.569.031-3.163.036-4.91m50.447-16.139c-1.135.347-2.272.688-3.406 1.042-1.752.547-2.588 2.014-3.197 3.621-.505 1.334-1.221 2.737.037 4.092.087.094.019.331.048.496.3 1.669 1.024 2.097 2.801 1.661-.903-4.132.466-8.446 3.717-10.912m-68.38 17.6c.111.794.639 1.3 1.26 1.644 1.046.58 2.128 1.1 3.22 1.583 1.522.672 3.135.913 4.774.789.958-.073 1.871-.378 2.444-1.309-3.319-3.039-9.204-4.412-11.698-2.707m69.502-18.805c-.899-1.295-1.713-2.4-3.354-2.234-2.065.209-3.954.894-5.582 2.22-1.686 1.372-1.911 3.353-1.77 5.384.064.904.485 1.707 1.449 2.317 1.028-5.263 4.416-7.355 9.257-7.687m-3.223-3.823c.833-1.694 1.088-8.264.84-9.764-1.711.156-3.44.283-5.16.488-.566.067-.861.502-.622 1.122.952 2.464 1.873 4.943 2.9 7.374.437 1.034.638 1.021 2.042.78m1.467.416c.759.662 1.378 1.201 2.11 1.84 2.362-3.024 5.405-5.378 6.651-9.303-.706-.309-1.339-.606-1.988-.866-1.693-.678-1.831-.718-2.783.916-1.401 2.403-2.649 4.902-3.99 7.413m-75.187 17.762c.167 1.328.735 2.023 1.744 2.441.81.337 1.493.886 1.942 1.748.569 1.095 1.326 2.088 1.864 3.197.732 1.509 1.919 2.408 3.32 3.113 2.192 1.1 4.418 1.896 6.924 1.433 1.78-.328 2.901-1.141 3.388-2.586-.85.102-1.758.26-2.671.313-3.239.19-6.081-1.125-8.846-2.647-.896-.493-1.451-1.338-1.694-2.401-.095-.416-.247-.934-.546-1.164-1.66-1.275-3.323-2.56-5.425-3.447m-.541 47.852c10.814 1.591 21.394 1.005 32.245-.783-4.426-1.898-26.138-1.315-32.245.783m37.335-2.363c-.016-.128-.032-.257-.049-.385-.297-.125-.585-.31-.894-.365-1.341-.243-2.687-.452-4.032-.667-1.727-.275-3.447-.68-5.183-.783-2.455-.146-4.926-.171-7.383-.064-5.678.246-11.353.565-17.025.933-2.282.148-4.568.396-6.817.809-1.047.193-2.279-.031-3.304.991.917.313 1.69.577 2.463.839 1.328.448 2.651 1.062 3.933-.159.171-.163.525-.1.78-.188 1.893-.646 3.893-.479 5.81-.831 3.909-.718 7.856-.564 11.778-.729 4.139-.174 8.305.072 12.445.347 1.498.099 3.145.038 4.473 1.112.105.085.312.12.438.077.861-.297 1.713-.621 2.567-.937m-9.421 19.092c-.759-1.895-1.111-1.981-2.406-1.818-.311.039-.587.306-.899.401-1.461.444-2.907 1.045-4.401 1.258-3.302.471-6.624.648-9.972.376-3.221-.261-6.255-1.078-9.007-2.828-1.535-.976-2.956-2.146-4.424-3.235-.619-.459-1.211-1.117-2.047-.825-1.393.488-2.783 1.009-4.106 1.664-.753.372-.736 1.018-.127 1.682.185.203.402.414.645.516 1.926.796 3.838 1.644 5.804 2.32 1.235.425 2.552.605 3.84.852.965.184 1.938.366 2.915.43 1.686.11 3.379.111 5.067.188 6.359.288 12.693.044 19.118-.981m-7.709-43.464c.002-.809.003-1.528.005-2.204-.156-.099-.245-.202-.341-.21-3.254-.271-5.79-2.062-7.87-4.443-1.026-1.175-2.126-2.015-3.432-2.733-1.466-.804-2.662-1.959-3.521-3.48-.637-1.127-1.369-2.196-2.064-3.288-.421-.659-.904-1.22-1.579-1.228-.275 1.392-.298 2.746-.825 3.835-.567 1.172-1.606 2.096-2.504 3.207.279.783.516 1.663.894 2.472 1.728 3.71 4.06 7.008 6.604 10.142.346.426 1.009.708 1.562.793 2.404.37 4.817.123 7.129-.53 2.039-.575 3.976-1.545 5.942-2.333m-28.536 26.441c1.187 2.422 2.352 4.856 3.574 7.257.302.592.72 1.162 1.202 1.602 2.003 1.828 4.04 3.554 6.507 4.773 2.859 1.412 5.826 2.172 8.914 2.384 3.718.257 7.431.011 11.065-.968.445-.121.88-.283 1.395-.45-.517-.699-.985-1.257-1.373-1.87-.861-1.362-.581-2.301.854-2.994.196-.095.408-.17.62-.214 1.6-.334 3.196-.708 4.809-.972 1.797-.295 3.611-.487 5.597-.747-3.497-3.49-3.929-4.851-2.388-7.164-.987.1-1.953.189-2.918.298-3.577.405-7.146 1.04-10.732 1.166-3.971.139-7.938.45-11.94.099-5.051-.443-10.103-.687-15.186-2.2m43.358 19.666c2.778.396 5.472.084 8.034-1.018 2.325-.999 4.611-2.124 5.9-4.588.336-.642.538-1.37.929-1.97.347-.534.813-1.032 1.325-1.394 1.247-.879 2.663-1.533 3.805-2.533 1.534-1.345 2.875-2.93 4.298-4.414 1.084-1.13 2.154-2.272 3.25-3.389 1.608-1.642 2.139-3.776 1.94-5.932-.215-2.313-1.209-4.476-2.343-6.494-.511-.911-1.254-1.681-1.91-2.541-1.807 1.353-3.508 2.628-5.302 3.971 1.476 1.3 2.495 2.761 2.82 4.742.37 2.258-.548 4.974-2.498 6.031-2.95 1.6-5.981 3.039-8.996 4.506-.345.168-.837.184-1.213.08-1.75-.485-3.528-.607-5.298-.325-1.361.217-2.35-.218-3.132-1.328-.642-.909-1.546-1.222-2.582-1.236-.957-.013-1.281.339-1.218 1.347.08 1.269.804 2.077 1.82 2.637.899.495 1.822.941 2.781 1.433-.434 1.411-1.546 1.604-2.609 1.739-2.276.292-4.568.453-6.844.75-1.558.204-3.136.436-4.41 1.503.277 1.463.782 2.098 2.006 2.41 2.332.593 4.699.858 7.105.757.52-.022 1.093-.19 1.759.241-2.011.874-3.994.454-5.933.828.759.877.758.899 1.518.929 1.478.06 2.957.071 4.434.147.558.029 1.185-.014 1.82.926-1.977.251-3.737.03-5.708.181 1.381.964 2.714.636 3.977.795 1.275.16 2.476-.75 3.884-.26-.885 1.483-2.32.978-3.409 1.469m-42.674-70.865c.436-.32.814-.645 1.235-.89.326-.19.703-.287 1.062-.413.944-.333 1.292-1.091.971-2.135-.241-.784-.642-.917-1.734-.502-.51.193-1.022.416-1.484.709-2.628 1.674-4.2 4.316-5.084 7.191-.966 3.141-.643 6.443.829 9.455 1.158 2.371 2.485 4.652 3.722 6.981 1.132 2.13 2.193 4.303 3.377 6.399 2.006 3.547 4.604 6.482 8.312 8.162.643.292 1.344.446 2.019.666 2.865.935 5.771 1.124 8.736.62 2.172-.369 4.23-1.088 6.237-1.997.78-.353 1.561-.704 2.415-1.088-.808-2.406-1.554-4.628-2.356-7.02-1.335.442-2.577.697-3.68 1.248-2.902 1.447-5.965 1.774-9.103 1.616-1.387-.069-2.691-.506-3.569-1.778-1.368-1.981-2.839-3.894-4.079-5.958-1.23-2.046-2.226-4.242-3.318-6.361-.98.777-.98.777-1.707.044.21-.244.4-.516.638-.73.908-.817 1.851-1.595 2.747-2.426 1.676-1.555 2.221-4.695 1.184-6.701-.102-.196-.237-.413-.413-.52-1.22-.739-1.557-1.931-1.697-3.285-.085-.825-.583-1.215-1.444-1.313-.953-.108-1.715.26-2.494.665-.584.304-1.038.352-1.322-.639m90.602 35.477c-2.07-3.695-2.607-7.554-3.061-11.507-.589 1.751-1.178 3.502-1.767 5.253-.314-.601-.583-1.291-.423-1.85.511-1.788 1.135-3.547 1.803-5.281.607-1.578 1.379-3.087 1.993-4.662 1.703-4.367 2.52-8.897 2.386-13.632-.055-1.959-.134-3.905-1.001-5.643-1.195-2.399-2.441-4.791-4.372-6.743-.54.189-1.099.384-1.643.575.904 1.105 1.801 2.156 2.65 3.249 1.747 2.245 2.426 4.921 2.767 7.714.049.401.174.954-.55 1.112-.066-.263-.162-.517-.192-.779-.368-3.188-1.445-6.017-3.597-8.405-.737-.817-1.416-1.534-2.651-1.611-1.329 1.645-1.775 3.651-1.812 5.789-.007.377.153.777.307 1.133 1.023 2.359.946 4.825.199 7.157-1.155 3.605-2.844 6.989-4.541 10.36-.857 1.703-1.756 3.396-2.067 5.351-.41 2.57-.887 5.129-1.384 7.684-.4 2.056.139 4.037.159 6.152 2.109.054 3.971.877 6.086.611.005-2.024-.039-3.955.034-5.881.039-1.002.245-2.006.464-2.987.054-.238.47-.544.707-.533.199.009.405.419.555.685.073.13.001.34.036.505.448 2.095.582 4.262 1.506 6.249.372.802.816 1.182 1.631 1.034 1.828-.333 3.651-.692 5.778-1.099m-40.772-73.996c6.896 1.982 10.856 7.252 13.962 13.425 2.574 5.12 2.041 16.216-.484 20.125-.764-.394-1.556-.802-2.478-1.276-.564 1.555-1.232 3.014-1.47 4.661-.478 3.317.725 6.107 2.424 8.751.166.259.511.48.808.545 1.222.269 1.94 1.216 2.703 2.093 1.605 1.843 1.491 4.059 1.129 6.284-.065.408-.407.805-.7 1.13-2.165 2.398-6.836 3.873-9.93 1.973-.265-.162-.617-.326-.896-.281-1.372.221-1.988 1.308-1.649 2.911.62-.223 1.233-.438 1.843-.665 1.197-.445 2.382-.835 3.635-.139.264.147.648.131.966.094 1.621-.19 3.238-.416 4.858-.623 2.766-.353 5.314-1.415 7.531-3.085 1.284-.969 2.6-1.849 3.929-2.735.807-.538 1.69-1.147 2.179-1.959.805-1.336 1.409-2.827 1.929-4.317.571-1.638 1.221-3.31.659-5.254-.366-.083-.782-.263-1.194-.256-1.512.026-2.401-.777-3.063-2.125-.665-1.353-1.474-2.632-2.264-3.915-1.071-1.741-.985-5.987.203-7.64.161-.224.374-.414.589-.583 1.292-1.009 2.59-2.007 3.888-3.01-.679-1.938-1.304-3.937-2.078-5.871-1.101-2.748-2.182-5.512-4.522-7.485-1.143-.964-2.073-2.197-3.198-3.186-1.12-.985-2.33-1.875-3.566-2.7-1.191-.796-2.45-1.49-3.709-2.168-3.744-2.019-7.673-3.227-12.034-2.719m-3.985 92.661c.924.064 1.552.127 2.18.147 1.04.033 2.144-.186 3.104.111 1.212.375 2.228.216 3.298-.318.439-.219.927-.331 1.39-.501 2.495-.911 4.75-2.301 6.87-3.907 1.278-.968 1.794-2.296 1.45-4.037-.392-1.988-1.575-3.3-2.923-4.516-.957.127-1.863.248-2.682.357-1.684-2.077-3.04-6.087-2.688-7.826.134.115.31.194.37.328.705 1.595 1.373 3.206 2.09 4.795.485 1.071 1.175 1.394 2.275 1.066.52-.156 1.017-.417 1.502-.677 2.021-1.081 3.707-2.601 5.184-4.38 1.023-1.231 1.037-1.408.1-2.784-.408-.598-.854-1.177-1.342-1.705-1.773-1.922-3.641-3.708-5.039-6.025-1.675-2.776-5.108-2.957-7.47-.758.028.66.158 1.29.058 1.879-.339 2.002-1.575 3.221-3.421 3.684-1.366.343-2.727.454-4.185.087-2.21-.556-2.702-.703-2.81-2.988-.094-1.993-.894-3.151-2.62-3.835-.537-.213-.94-.329-1.525-.113-2.235.824-4.519 1.123-6.912.754-.944-.146-2.022-.759-2.982.12-.027.179-.109.36-.07.507.594 2.223 1.18 4.448 1.821 6.656.353 1.221.953 2.338 1.245 3.606.536 2.332 1.053 2.614 3.331 2.33.095-.012.189-.041.279-.061.743-1.964.557-4.176 1.513-6.497.546 1.269.42 2.222.257 3.118-.696 3.845-1.463 7.676-2.173 11.518-.098.53-.016 1.096-.017 1.65 2.246.305 4.353.56 6.449.89 1.13.178 2.261.412 3.356.75 2.357.727 2.715 1.535 1.826 3.862-.3.786-.626 1.562-1.089 2.713m14.66-47.155c-3.24-4.882-2.545-9.553-.438-14.295-2.099-1.257-4.073-2.449-6.057-3.624-2.999-1.775-6.288-2.821-9.472-4.143-3.945-1.638-8.026-2.537-12.197-3.111-2.003-.275-4.021-.433-6.034-.633-1.896-.188-3.794-.363-5.618-.537-.865 1.513-1.692 2.91-2.473 4.333-.623 1.134.006 2.21 1.253 2.114.531-.041 1.039-.331 1.57-.455.267-.063.56-.01.943-.009-1.102 1.823-2.718 2.033-4.987.741-.564 1.423-1.079 2.857-1.694 4.243-1.265 2.859-1.991 5.883-2.551 8.948-.181.991-.091 2.049-.03 3.07.041.682.385 1.225.879 1.755 1.042 1.116 2.3.921 3.527.814 2.845-.247 5.552.061 8.013 1.722.945.637 1.92.649 2.946.108 1.215-.642 2.558-1.061 3.69-1.826 1.893-1.28 3.84-2.574 4.762-4.905 1.068.475 1.205.871 1.04 3.193-.345-.222-.636-.41-.978-.629-.588.602-1.531.898-1.603 1.979-.104 1.533-.278 3.068-.264 4.601.014 1.534-.393 2.905-1.058 4.228-.951 1.892-2.734 2.581-4.674 1.798-.607-.245-1.2-.527-1.814-.798-1.895 1.189-3.985 1.532-6.299 1.459 2.45 2.322 2.516 2.256 5.113 3.285 1.518.601 3.085.679 4.636.929 2.539.408 5.043.682 7.615-.198 2.126-.727 2.193-.523 4.083.679.983.626 1.576 1.546 1.83 2.709.107.495.284.986.31 1.485.07 1.293.889 1.794 1.93 1.925.904.115 1.839.095 2.749.006 2.28-.221 3.455-1.727 3.11-4.046-.128-.865-.452-1.721-.804-2.525-.455-1.037-.369-1.729.501-2.354.892-.641 1.8-1.259 2.705-1.883.526-.364.959-.403 1.385.229.267.395.67.795 1.094.953 1.911.71 3.758.371 5.53-.565.143-.075.371-.172.383-.281.086-.751.538-.921 1.159-.856.542.056.758-.276.94-.745.451-1.166.316-2.331.138-3.526-.416-2.795-5.049-5.808-7.919-3.018-.58.564-1.207 1.077-1.848 1.645-.359-.994-.376-1.012.148-1.527 1.272-1.249 2.536-2.526 4.83-2.462m-23.173-40.629.031.029c1.239-1.821 3.033-2.661 5.05-3.139 1.276-.301 2.539-.664 4.163-1.094-.951-.13-1.506-.148-2.03-.289-1.719-.463-3.336-.184-4.946.525-2.872 1.266-5.301 3.135-7.332 5.587-.309.374-.651.72-.978 1.079-.124-.096-.249-.191-.374-.287.733-1.309 1.705-2.477 2.724-3.558 1.064-1.129 2.284-2.097 3.696-3.37-5.717 1.448-10.778 3.589-15.268 7.05-2.056 1.584-6.412 7.377-6.962 9.139 1.133.663 2.277 1.26 3.63 1.389 4.08.391 8.157.808 12.232 1.256 5.006.55 9.955 1.365 14.608 3.523.678.315 1.431.455 2.154.677 1.459-2.278 2.388-4.789 4.522-6.409-1.158 2.24-2.379 4.425-3.381 6.841.859.309 1.497.538 2.116.76 2.152-4.542 3.783-6.231 6.077-5.998-2.657 1.567-4.353 3.63-4.859 6.577.202.159.322.276.462.36 2.081 1.243 4.145 2.522 6.258 3.708 1.308.735 2.809 1.116 3.848 2.758.458-1.02.908-1.692 1.066-2.433.576-2.724.915-5.489.716-8.285-.172-2.432-.375-4.85-1.424-7.124-1.031-2.229-2.539-4.096-3.849-6.117-1.89-2.914-4.753-4.443-7.478-6.204-.18-.117-.404-.19-.615-.22-1.843-.259-3.676-.404-5.492.235-.823.289-1.677.567-2.534.647-1.985.186-3.684.989-5.227 2.25-.145.119-.4.095-.604.137m-17.948 14.32c-1.539-.367-2.944-.607-4.287-1.05-1.248-.412-1.508-1.188-.934-2.371.342-.706.745-1.397 1.216-2.015 1.285-1.688 2.615-3.339 3.943-4.992.312-.388.649-.775 1.04-1.072.959-.729 2.04-1.306 2.92-2.121 2.692-2.495 6.022-3.614 9.295-4.878 3.897-1.505 7.895-2.02 12.046-1.601 1.125.114 2.298-.45 3.456-.491 3.492-.125 7.002-.173 10.318 1.242 4.009 1.711 7.903 3.667 11.174 6.696 1.67 1.547 3.217 3.239 4.81 4.875.35.36.644.78.996 1.139.729.744 1.525 1.184 2.641 1.011 1.509-.234 3.042-.332 4.568-.404 1.469-.068 1.689.228 1.564 1.787-.162 2.037-.326 4.074-.513 6.393.374-.298.571-.38.651-.53 1.028-1.933 2.053-3.869 3.049-5.82.435-.856.833-1.038 1.715-.663 1.406.597 2.817 1.18 4.216 1.789.132.058.205.259.438.568-2.256 3.48-4.696 6.877-7.57 10.092.612.941 1.224 1.859 1.811 2.795.47.747.911 1.512 1.358 2.273.54.92 1.116 1.821 1.601 2.771.954 1.866 1.622 3.819 1.699 5.976.151 4.181-.074 8.31-1.344 12.317-.408 1.289-.74 2.625-1.316 3.831-.917 1.918-.979 3.981-.944 5.986.041 2.366.161 4.786.96 7.054.468 1.328 1.087 2.602 1.661 3.889.586 1.311.303 1.746-1.062 1.702-.7-.022-1.417.037-2.106.168-1.762.334-3.512.729-5.5 1.149-.944-1.661-1.371-3.681-2.002-5.966-.468 1.911-.227 3.483.093 5.052.056.277.201.538.228.815.061.621-.278.999-.881.859-2.211-.515-4.448-.541-6.695-.573-1.059-.015-1.505-.56-1.388-1.658.502-4.729.494-9.53 1.75-14.154.295-1.086.741-2.13 1.152-3.178.344-.88.738-1.74 1.274-2.992-4.759 3.621-9.689 5.624-15.306 5.705 1.475 2.76 3.509 4.961 5.635 7.079.86.857 1.776 1.653 2.65 2.496.577.557.489 1.235.177 1.879-.266.552-.613 1.062-.998 1.714.479.69.926 1.383 1.42 2.038 2.341 3.1 3.702 6.534 3.313 10.553-.172 1.772-.996 3.278-2.184 4.478-1.957 1.978-4.035 3.825-6.061 5.729-.285.267-.596.512-.839.816-1.489 1.865-3.383 3.206-5.291 4.542-.335.235-.618.628-.798 1.012-2.207 4.73-6.219 6.644-10.867 7.516-1.232.231-2.504.262-3.761.312-1.128.046-2.128-.379-3.054-1.055-.386-.281-.855-.445-1.299-.633-.349-.147-.816-.142-1.06-.389-.999-1.011-2.147-.836-3.357-.661-7.236 1.043-14.517 1.17-21.791.803-4.865-.246-9.656-1.169-14.108-3.406-.631-.317-1.252-.724-1.765-1.217-1.282-1.232-1.11-2.544.457-3.424 1.056-.594 2.179-1.059 3.27-1.584.342-.165.678-.341 1.146-.578-.793-1.726-1.561-3.403-2.333-5.079-.469-1.022-.968-2.031-1.399-3.072-.143-.345-.178-.773-.152-1.155.139-2.043.607-2.585 2.63-3.064.636-.151 1.284-.273 1.933-.337 2.499-.247 4.998-.519 7.503-.682 4.748-.309 9.497-.613 14.25-.794 3.052-.116 6.11-.008 9.345 0 1.075-2.507.92-5.351 1.707-8.165-.54-.045-1.003-.163-1.447-.107-1.519.195-2.369-.58-2.841-1.983-.125-.372-.286-.731-.504-1.285-1.499.609-2.95 1.198-4.402 1.788-3.686 1.501-7.458 2.058-11.385 1.235-1.171-.246-2.298-.573-3.443-.943-4.35-1.406-6.972-4.706-9.169-8.54-.67-1.168-1.223-2.407-1.87-3.59-.97-1.779-1.994-3.525-2.958-5.308-1.016-1.881-2.057-3.754-2.96-5.696-1.001-2.155-.969-4.536-.997-6.858-.016-1.334.26-2.673.418-4.138-1.037-.623-2.321-.837-3.598-1.096-1.659-.337-3.331-.642-4.957-1.111-1.063-.307-1.98-.926-2.268-2.223-.323-1.453.63-2.921 2.029-2.789 2.321.218 4.681.243 6.87 1.328.875.434 1.87.608 2.813.893.674.205 1.35.399 2.072.611.688-.678 1.356-1.523 2.192-2.108.848-.592 1.833-1.022 2.811-1.351 1.221-.412 2.447.544 2.538 1.886.05.733.006 1.473.004 2.315 1.161.198 1.7 1.067 1.916 2.08.259 1.213 1.102 1.48 2.041 1.63 1.09.174 2.151.372 2.941 1.354.182-1.652.214-3.225.544-4.727 1.262-5.733 3.205-11.194 6.276-16.176.438-.711.823-1.458 1.22-2.168" fill="#231f20"/><path d="m97.684 83.946c1.037-1.074 1.004-2.228.076-2.739-1.54-.848-4.204-.539-5.561.628-.446.382-.576.775-.121 1.363 1.514-.885 3.082-1.632 4.925-.893.194.466.401.966.681 1.641m-21.696-23.911c-3.179 2.109-5.985 1.689-8.262-.966-.036 2.028.255 2.618 1.931 3.232.861.316 1.813.515 2.721.505 1.995-.022 2.97-.797 3.61-2.771m-15.355 4.672c-.705-.459-.705-.459-1.426-.13-1.004.459-1.964.351-2.578-.291-.659-.69-.737-1.527-.25-2.673.658-1.542 2.445-2.209 3.99-1.476.472.224.927.486 1.449.761.043-1.251-.197-1.676-1.075-2.093-1.445-.685-3.588-.278-4.718.885-1.484 1.527-1.772 4.899.433 6.002 1.432.716 2.437.592 4.175-.985m34.718 11.735c-2.294-.064-3.558 1.212-4.829 2.462-.525.515-.508.533-.149 1.527.641-.568 1.268-1.081 1.848-1.645 2.87-2.79 7.503.223 7.919 3.017.179 1.196.314 2.361-.138 3.527-.181.469-.398.801-.94.744-.62-.064-1.072.105-1.158.857-.013.109-.241.206-.383.281-1.773.936-3.619 1.275-5.53.565-.424-.158-.828-.558-1.094-.953-.427-.632-.859-.593-1.386-.23-.904.625-1.812 1.243-2.705 1.884-.87.625-.956 1.317-.501 2.354.353.804.677 1.659.805 2.525.345 2.319-.83 3.825-3.111 4.046-.91.088-1.844.108-2.749-.006-1.041-.131-1.86-.632-1.929-1.925-.027-.5-.203-.99-.311-1.485-.254-1.164-.847-2.083-1.83-2.709-1.89-1.202-1.957-1.406-4.083-.679-2.571.88-5.075.606-7.614.198-1.552-.25-3.118-.328-4.637-.93-2.597-1.028-2.663-.962-5.112-3.284 2.313.072 4.403-.27 6.299-1.459.613.271 1.207.553 1.813.798 1.941.783 3.724.094 4.674-1.798.665-1.324 1.072-2.694 1.059-4.228-.014-1.533.16-3.068.263-4.601.072-1.081 1.016-1.377 1.604-1.979.342.219.633.407.977.629.165-2.322.029-2.718-1.04-3.193-.922 2.331-2.869 3.625-4.761 4.905-1.132.765-2.475 1.184-3.691 1.826-1.025.541-2.001.529-2.945-.108-2.461-1.661-5.168-1.97-8.014-1.722-1.226.106-2.484.302-3.526-.814-.494-.53-.838-1.073-.879-1.755-.062-1.021-.152-2.079.029-3.07.561-3.066 1.286-6.089 2.552-8.948.614-1.386 1.13-2.82 1.693-4.243 2.27 1.291 3.885 1.081 4.988-.741-.383-.001-.676-.054-.944.009-.53.124-1.039.414-1.569.455-1.247.096-1.876-.98-1.253-2.114.78-1.423 1.607-2.82 2.473-4.333 1.824.174 3.721.348 5.618.537 2.012.2 4.03.358 6.033.633 4.172.573 8.253 1.473 12.197 3.111 3.185 1.322 6.474 2.368 9.473 4.143 1.983 1.175 3.958 2.367 6.056 3.624-2.107 4.741-2.801 9.413.438 14.295" fill="#fdd8bd"/><path d="m72.178 35.813c.204-.042.459-.019.604-.138 1.543-1.26 3.243-2.064 5.227-2.249.857-.08 1.711-.358 2.534-.648 1.817-.639 3.65-.494 5.492-.235.211.03.435.104.616.221 2.724 1.76 5.588 3.29 7.477 6.203 1.311 2.022 2.819 3.888 3.849 6.118 1.05 2.274 1.252 4.691 1.425 7.124.198 2.796-.141 5.561-.717 8.285-.157.74-.608 1.413-1.066 2.432-1.039-1.641-2.54-2.022-3.848-2.757-2.113-1.186-4.177-2.465-6.258-3.709-.14-.083-.26-.201-.462-.359.506-2.947 2.202-5.01 4.859-6.577-2.294-.233-3.924 1.456-6.077 5.997-.619-.222-1.257-.451-2.116-.759 1.002-2.416 2.224-4.601 3.381-6.842-2.134 1.621-3.063 4.132-4.522 6.41-.723-.223-1.476-.363-2.154-.677-4.653-2.158-9.601-2.973-14.607-3.524-4.075-.447-8.153-.865-12.233-1.255-1.352-.129-2.497-.726-3.63-1.389.55-1.763 4.907-7.556 6.962-9.14 4.491-3.46 9.551-5.601 15.268-7.049-1.411 1.272-2.632 2.241-3.695 3.37-1.02 1.081-1.992 2.249-2.725 3.558.125.095.25.191.374.286.327-.359.669-.704.979-1.078 2.03-2.452 4.459-4.321 7.332-5.587 1.609-.71 3.226-.989 4.945-.525.524.141 1.079.159 2.03.289-1.624.43-2.887.793-4.163 1.094-2.017.477-3.81 1.318-5.05 3.139-.411.36-.823.721-1.235 1.082.621-.156 1.214-.354 1.204-1.111" fill="#775a30"/><path d="m80.692 123.597c.463-1.151.789-1.927 1.089-2.713.889-2.327.53-3.135-1.826-3.862-1.095-.338-2.227-.572-3.357-.75-2.095-.33-4.203-.585-6.448-.89.001-.554-.081-1.12.017-1.65.71-3.843 1.476-7.673 2.172-11.518.164-.896.29-1.849-.256-3.118-.956 2.321-.77 4.533-1.513 6.497-.091.02-.185.049-.279.061-2.279.284-2.795.002-3.331-2.33-.292-1.268-.892-2.385-1.246-3.606-.64-2.208-1.226-4.433-1.821-6.656-.039-.147.043-.328.07-.507.96-.879 2.039-.266 2.983-.12 2.392.369 4.677.07 6.912-.755.585-.215.987-.099 1.524.114 1.727.684 2.527 1.842 2.621 3.835.108 2.285.599 2.432 2.809 2.988 1.458.367 2.819.256 4.186-.087 1.845-.463 3.082-1.682 3.421-3.684.099-.589-.031-1.219-.058-1.879 2.361-2.199 5.795-2.018 7.47.758 1.397 2.317 3.265 4.103 5.039 6.025.488.528.933 1.107 1.342 1.705.937 1.376.922 1.553-.1 2.784-1.478 1.779-3.163 3.299-5.185 4.38-.484.26-.981.521-1.502.677-1.099.328-1.79.005-2.274-1.066-.718-1.589-1.386-3.2-2.091-4.795-.059-.134-.235-.213-.369-.328-.353 1.739 1.004 5.749 2.688 7.826.819-.109 1.724-.23 2.681-.357 1.349 1.216 2.531 2.528 2.924 4.516.344 1.741-.173 3.069-1.45 4.037-2.12 1.606-4.375 2.996-6.87 3.907-.463.17-.951.282-1.39.501-1.07.534-2.086.693-3.299.318-.96-.297-2.063-.078-3.103-.111-.628-.02-1.256-.083-2.18-.147" fill="#f38596"/><path d="m84.676 30.936c4.361-.508 8.29.699 12.034 2.718 1.259.679 2.518 1.373 3.709 2.168 1.236.825 2.446 1.716 3.567 2.701 1.125.989 2.054 2.222 3.197 3.185 2.341 1.974 3.422 4.738 4.522 7.486.775 1.934 1.399 3.933 2.078 5.87-1.297 1.004-2.596 2.001-3.887 3.01-.216.169-.429.36-.59.583-1.188 1.654-1.274 5.9-.203 7.64.79 1.284 1.599 2.563 2.264 3.916.663 1.348 1.551 2.15 3.063 2.124.412-.006.828.174 1.194.257.562 1.944-.088 3.616-.659 5.253-.519 1.49-1.124 2.982-1.929 4.318-.489.812-1.372 1.421-2.178 1.959-1.329.885-2.646 1.766-3.93 2.734-2.217 1.671-4.765 2.732-7.53 3.086-1.62.207-3.238.432-4.859.623-.318.037-.702.053-.966-.094-1.252-.696-2.438-.306-3.634.139-.611.227-1.224.442-1.844.664-.339-1.603.277-2.689 1.649-2.911.28-.045.631.12.896.282 3.095 1.899 7.765.424 9.931-1.974.292-.324.634-.721.7-1.129.361-2.226.475-4.441-1.13-6.285-.763-.876-1.481-1.823-2.702-2.092-.298-.065-.643-.287-.809-.545-1.699-2.644-2.902-5.435-2.424-8.751.239-1.647.907-3.106 1.47-4.661.922.474 1.714.882 2.479 1.275 2.524-3.908 3.057-15.004.483-20.124-3.106-6.174-7.066-11.443-13.962-13.425" fill="#775a30"/><path d="m125.448 104.932c-2.127.406-3.95.766-5.778 1.098-.815.148-1.259-.231-1.631-1.033-.924-1.987-1.058-4.154-1.506-6.25-.035-.164.037-.374-.036-.504-.151-.266-.357-.676-.555-.686-.237-.011-.653.295-.707.533-.22.982-.426 1.985-.464 2.988-.073 1.926-.029 3.857-.034 5.881-2.115.266-3.977-.558-6.086-.611-.02-2.116-.559-4.096-.159-6.153.497-2.554.974-5.114 1.384-7.684.311-1.954 1.21-3.647 2.067-5.35 1.696-3.371 3.386-6.756 4.541-10.361.747-2.331.823-4.797-.199-7.157-.154-.356-.315-.756-.308-1.132.037-2.138.484-4.144 1.813-5.789 1.235.076 1.914.793 2.651 1.611 2.152 2.387 3.229 5.217 3.597 8.404.03.262.126.517.192.779.724-.157.599-.711.55-1.111-.341-2.793-1.02-5.469-2.768-7.715-.848-1.092-1.746-2.144-2.649-3.249.544-.191 1.103-.386 1.643-.575 1.93 1.952 3.176 4.345 4.372 6.743.867 1.739.946 3.685 1.001 5.644.133 4.734-.683 9.264-2.386 13.632-.614 1.575-1.386 3.084-1.993 4.661-.668 1.734-1.292 3.493-1.803 5.282-.16.558.108 1.249.423 1.85.589-1.751 1.178-3.503 1.766-5.254.455 3.954.992 7.812 3.062 11.508" fill="#775a30"/><path d="m34.846 69.455c.284.99.738.942 1.322.639.78-.406 1.541-.774 2.494-.665.862.097 1.36.487 1.445 1.312.139 1.355.476 2.547 1.696 3.285.176.107.312.325.413.521 1.037 2.006.492 5.146-1.183 6.7-.897.832-1.839 1.609-2.748 2.427-.238.214-.427.486-.637.729.726.733.726.733 1.706-.043 1.093 2.118 2.089 4.315 3.318 6.361 1.24 2.064 2.711 3.977 4.079 5.958.878 1.271 2.182 1.708 3.57 1.778 3.137.158 6.2-.169 9.102-1.617 1.104-.551 2.345-.805 3.68-1.247.803 2.391 1.549 4.614 2.356 7.019-.853.385-1.634.735-2.415 1.088-2.007.909-4.064 1.629-6.237 1.998-2.965.504-5.871.314-8.735-.62-.675-.221-1.376-.374-2.02-.666-3.708-1.681-6.306-4.616-8.311-8.163-1.185-2.096-2.246-4.268-3.377-6.398-1.238-2.329-2.565-4.61-3.723-6.981-1.472-3.013-1.795-6.314-.829-9.455.885-2.875 2.456-5.517 5.085-7.191.462-.294.973-.517 1.483-.71 1.092-.414 1.493-.281 1.735.503.32 1.043-.028 1.801-.972 2.134-.359.127-.735.224-1.062.414-.421.245-.798.57-1.235.89" fill="#fdd8bd"/><path d="m77.521 140.32c1.089-.491 2.523.014 3.408-1.469-1.408-.49-2.608.42-3.884.26-1.262-.159-2.595.169-3.976-.795 1.971-.151 3.73.069 5.708-.182-.636-.939-1.263-.896-1.82-.925-1.477-.077-2.957-.087-4.434-.147-.761-.031-.76-.052-1.519-.929 1.94-.374 3.922.045 5.934-.828-.667-.431-1.239-.263-1.76-.241-2.405.101-4.772-.164-7.104-.757-1.225-.312-1.73-.947-2.006-2.41 1.273-1.067 2.851-1.299 4.409-1.503 2.276-.298 4.568-.458 6.845-.75 1.062-.136 2.175-.328 2.608-1.739-.959-.492-1.882-.939-2.78-1.433-1.017-.56-1.74-1.368-1.82-2.637-.064-1.008.26-1.36 1.217-1.348 1.036.015 1.941.328 2.582 1.237.783 1.11 1.772 1.545 3.132 1.328 1.771-.282 3.548-.16 5.298.325.376.104.868.088 1.214-.08 3.015-1.467 6.046-2.906 8.995-4.506 1.95-1.057 2.868-3.773 2.498-6.032-.324-1.981-1.344-3.441-2.819-4.741 1.794-1.344 3.495-2.618 5.302-3.971.656.859 1.399 1.63 1.91 2.541 1.133 2.018 2.128 4.181 2.342 6.494.2 2.155-.332 4.29-1.94 5.932-1.096 1.117-2.166 2.259-3.25 3.389-1.423 1.483-2.764 3.068-4.298 4.414-1.141 1-2.557 1.653-3.805 2.533-.511.362-.977.86-1.325 1.394-.39.599-.592 1.327-.928 1.97-1.289 2.463-3.576 3.588-5.901 4.588-2.561 1.101-5.256 1.414-8.033 1.018" fill="#fdd8bd"/><path d="m34.162 120.654c5.083 1.513 10.135 1.757 15.186 2.2 4.001.351 7.969.04 11.94-.099 3.586-.126 7.155-.761 10.732-1.166.965-.109 1.931-.198 2.918-.298-1.541 2.313-1.109 3.674 2.388 7.164-1.986.26-3.8.452-5.598.746-1.612.265-3.208.639-4.808.973-.212.044-.424.119-.62.213-1.435.694-1.715 1.633-.854 2.995.388.613.856 1.171 1.373 1.87-.515.167-.95.329-1.395.449-3.634.98-7.347 1.225-11.065.969-3.089-.212-6.055-.972-8.914-2.384-2.468-1.219-4.504-2.945-6.507-4.773-.482-.441-.9-1.01-1.202-1.602-1.222-2.402-2.387-4.835-3.574-7.257" fill="#52c0a5"/><path d="m70.407 137.677c-6.425 1.025-12.759 1.269-19.118.98-1.689-.076-3.381-.077-5.068-.187-.976-.064-1.949-.246-2.915-.43-1.288-.247-2.604-.427-3.839-.852-1.966-.677-3.878-1.524-5.804-2.321-.243-.101-.46-.313-.646-.515-.608-.664-.626-1.31.127-1.682 1.324-.655 2.714-1.177 4.107-1.664.836-.292 1.427.366 2.047.825 1.467 1.089 2.889 2.259 4.423 3.235 2.752 1.75 5.787 2.567 9.008 2.828 3.348.272 6.67.095 9.972-.376 1.494-.214 2.939-.814 4.4-1.258.313-.095.589-.362.9-.401 1.295-.163 1.647-.078 2.406 1.818" fill="#b8c17b"/><path d="m79.828 118.585c-.854.315-1.706.64-2.567.937-.126.043-.333.008-.438-.078-1.328-1.073-2.975-1.012-4.474-1.111-4.139-.275-8.305-.521-12.444-.347-3.922.165-7.869.011-11.778.728-1.917.353-3.917.186-5.81.832-.255.087-.609.024-.78.187-1.282 1.222-2.605.607-3.933.16-.773-.262-1.547-.527-2.464-.839 1.026-1.022 2.258-.799 3.305-.991 2.249-.414 4.535-.662 6.817-.81 5.671-.368 11.347-.686 17.025-.933 2.457-.106 4.928-.082 7.383.064 1.736.104 3.456.509 5.182.784 1.346.214 2.692.423 4.033.667.309.055.597.24.894.365.017.128.033.257.049.385" fill="#659f95"/><path d="m42.493 120.947c6.106-2.098 27.818-2.68 32.245-.782-10.851 1.787-21.432 2.374-32.245.782" fill="#fff"/><path d="m43.034 73.095c2.102.887 3.765 2.172 5.425 3.448.299.23.451.748.546 1.164.243 1.063.798 1.908 1.694 2.401 2.765 1.522 5.606 2.836 8.846 2.646.913-.053 1.821-.21 2.671-.313-.488 1.445-1.608 2.258-3.388 2.587-2.506.462-4.732-.334-6.924-1.434-1.401-.704-2.588-1.604-3.32-3.112-.538-1.11-1.295-2.103-1.864-3.198-.449-.861-1.132-1.411-1.942-1.747-1.01-.419-1.577-1.113-1.744-2.442" fill="#c6c8ca"/><path d="m118.221 55.334c1.341-2.511 2.589-5.01 3.99-7.414.952-1.633 1.09-1.593 2.783-.915.649.259 1.283.557 1.989.866-1.246 3.925-4.289 6.279-6.652 9.303-.732-.639-1.35-1.178-2.11-1.84" fill="#f38596"/><path d="m116.754 54.917c-1.404.241-1.604.254-2.042-.78-1.027-2.43-1.948-4.909-2.899-7.374-.24-.619.055-1.054.621-1.122 1.72-.204 3.449-.332 5.16-.488.248 1.5-.007 8.07-.84 9.764" fill="#f38596"/><path d="m119.977 58.74c-4.841.332-8.229 2.425-9.257 7.687-.964-.61-1.385-1.413-1.448-2.316-.142-2.032.084-4.012 1.769-5.384 1.628-1.326 3.517-2.011 5.582-2.221 1.641-.166 2.456.939 3.354 2.234" fill="#f38596"/><path d="m50.475 77.546c2.494-1.705 8.379-.333 11.698 2.707-.573.931-1.485 1.236-2.444 1.309-1.639.124-3.252-.117-4.774-.789-1.091-.483-2.173-1.003-3.219-1.583-.621-.345-1.15-.851-1.261-1.644" fill="#fff"/><path d="m118.856 59.945c-3.252 2.467-4.62 6.781-3.718 10.913-1.776.435-2.501.007-2.801-1.662-.029-.165.04-.402-.047-.496-1.258-1.355-.542-2.757-.038-4.091.61-1.607 1.446-3.074 3.198-3.622 1.134-.354 2.27-.695 3.406-1.042" fill="#f38596"/><path d="m68.408 76.084c-.005 1.748.105 3.341-.036 4.911-.282 3.126-2.915 4.615-5.139 3.081.322-.845.912-1.711.913-2.578 0-.895-.572-1.791-.915-2.747 1.617-.834 3.316-1.708 5.177-2.667" fill="#c2673e"/><path d="m30.622 69.052c-.356.604-.61 1.034-.834 1.412-.19.04-.319.115-.397.077-2.256-1.099-4.746-1.139-7.115-1.719-.735-.18-1.458-.469-2.144-.801-.487-.236-1.024-.597-.873-1.286.165-.76.791-.893 1.425-.819 1.189.138 2.398.22 3.552.521 1.735.452 3.441 1.04 5.134 1.644.433.155.773.589 1.252.971" fill="#c6c8ca"/><path d="m81.208 119.347c-.49 1.04-.915 1.941-1.334 2.829-1.077-.436-2.026-.821-2.95-1.196 1.364-.52 2.71-1.033 4.284-1.633" fill="#52c0a5"/><path d="m60.633 64.706c-1.738 1.577-2.743 1.702-4.175.985-2.205-1.103-1.917-4.474-.433-6.002 1.129-1.163 3.273-1.569 4.717-.884.879.417 1.119.841 1.076 2.092-.522-.275-.977-.537-1.45-.761-1.545-.733-3.332-.066-3.989 1.476-.487 1.146-.409 1.984.25 2.673.613.642 1.573.751 2.578.292.721-.33.721-.33 1.426.129" fill="#231f20"/><path d="m75.987 60.035c-.64 1.974-1.614 2.75-3.609 2.771-.909.01-1.861-.189-2.722-.504-1.676-.615-1.967-1.205-1.931-3.233 2.278 2.655 5.083 3.075 8.262.966" fill="#231f20"/><path d="m97.684 83.946c-.28-.675-.487-1.175-.681-1.641-1.843-.739-3.411.008-4.925.893-.455-.588-.325-.981.121-1.363 1.357-1.167 4.021-1.476 5.561-.628.928.511.961 1.665-.076 2.739" fill="#231f20"/><path d="m72.178 35.813c.01.757-.583.955-1.204 1.111.412-.361.824-.722 1.235-1.082z" fill="#231f20"/><path d="m64.697 48.296c.322.043.66.085.967-.032.328-.125.569-.414.796-.692 1.724-2.114 3.449-4.228 5.174-6.342-.585 3.046-1.169 6.093-1.754 9.14 3.378-7.697 9.893-13.837 17.588-16.575-6.509-2.248-13.723-2.22-20.216.078-5.716 2.022-12.771 6.453-15.595 12.243 2.532 2.12 9.712 1.735 13.04 2.18" fill="#967549"/><path d="m116.638 77.74c-1.095 4.201-3.566 7.871-4.97 11.971-1.622 4.742-1.759 9.874-1.88 14.906.685.019 1.371.039 2.056.059 1.021-2.197 1.138-4.707 1.538-7.111.96-5.758 3.6-11.054 5.164-16.666 1.478-5.279 2.086-12.11-1.346-16.752-.469 4.523.601 9.134-.562 13.593" fill="#967549"/><path d="m52.078 118.575c-1.154 0-1.833.394-1.909.551.075.067.755.461 1.909.461 1.056 0 1.714-.33 1.877-.506-.163-.176-.821-.506-1.877-.506m0 2.512c-1.971 0-3.401-.844-3.401-2.006s1.43-2.006 3.401-2.006 3.401.844 3.401 2.006-1.43 2.006-3.401 2.006" fill="#e8bd6f"/><path d="m57.799 119.552c-1.154 0-1.833.394-1.909.551.075.067.755.461 1.909.461 1.056 0 1.714-.33 1.877-.506-.163-.176-.821-.506-1.877-.506m0 2.512c-1.971 0-3.401-.844-3.401-2.006s1.43-2.006 3.401-2.006 3.401.844 3.401 2.006-1.43 2.006-3.401 2.006" fill="#e8bd6f"/><path d="m68.753 118.296c-1.154 0-1.833.394-1.909.551.075.067.755.461 1.909.461 1.056 0 1.714-.33 1.877-.506-.163-.176-.821-.506-1.877-.506m0 2.512c-1.971 0-3.401-.844-3.401-2.006s1.43-2.006 3.401-2.006 3.401.844 3.401 2.006-1.43 2.006-3.401 2.006" fill="#e8bd6f"/><path d="m54.964 76.81c-1.154 0-1.833.394-1.909.551.075.067.755.461 1.909.461 1.056 0 1.714-.33 1.877-.506-.163-.176-.821-.506-1.877-.506m0 2.512c-1.971 0-3.401-.844-3.401-2.006s1.43-2.006 3.401-2.006 3.401.844 3.401 2.006-1.43 2.006-3.401 2.006" fill="#e8bd6f"/><path d="m42.381 119.552c-1.154 0-1.833.394-1.909.551.075.067.755.461 1.909.461 1.056 0 1.714-.33 1.877-.506-.163-.176-.821-.506-1.877-.506m0 2.512c-1.971 0-3.401-.844-3.401-2.006s1.43-2.006 3.401-2.006 3.401.844 3.401 2.006-1.43 2.006-3.401 2.006" fill="#e8bd6f"/><path d="m50.52 121.867c.115.251-.061.558-.307.685-.245.127-.535.12-.811.11-3.93-.145-7.857-.501-11.724-1.215-1.395-.257-2.795-.565-4.087-1.152.236-.584.47-1.168.705-1.751 1.076.346 2.047.897 3.109 1.236 1.382.44 2.841.724 4.261 1.005 2.919.579 5.881.941 8.854 1.082" fill="#231f20"/></g></svg>