<svg clip-rule="evenodd" fill-rule="evenodd" stroke-miterlimit="10" viewBox="0 0 163 161" xmlns="http://www.w3.org/2000/svg"><path d="m10.268 10.785h141.488v138.977h-141.488z" fill="#b1d187" stroke="#fff" stroke-width="2"/><g fill-rule="nonzero"><path d="m48.585 98.483c-3.146.97-6.418 1.421-9.38 3.202 1.024.499 1.685.421 2.559-.02 1.149-.58 2.524-.727 3.805-1.051 1.219-.309 2.442-.607 3.922-.973-.452-.578-.671-.857-.906-1.158m37.112-29.463c1.485-1.372 3.078-2.502 5.405-2.791-1.172-1.055-2.146-1.932-3.239-2.914-.983 1.426-2.003 2.905-3.036 4.406.258.385.52.777.87 1.299m-40.077 27.63c-2.461.636-4.933 1.227-7.384 1.898-.51.14-.945.547-1.717 1.014.938.404 1.535.662 2.174.938 1.938-1.294 4.33-1.226 6.461-1.993.832-.298 1.688-.536 2.54-.803-.396-1.138-1.123-1.3-2.074-1.054m20.961 41.12c1.092.205 2.209.318 3.32.381 1.955.109 3.923.046 5.867.241 3.442.346 6.792.01 10.095-.956.916-.268 1.864-.449 2.754-.781.918-.344 1.901-.716 1.945-2.019-1.343.468-2.614.952-3.912 1.354-2.366.731-4.829.7-7.272.786-1.85.064-3.703.039-5.552.115-2.244.093-4.426-.245-6.592-.763-.61-.147-1.225-.276-1.955-.439-.108 1.424.155 1.865 1.302 2.081m44.035-26.281c2.827-.86 5.565-.299 8.289.474.401.113.812.268 1.151.5 3.146 2.145 6.256 4.35 8.588 7.394.95 1.24 1.774 2.6 2.46 3.999.282.575.046 1.398.046 2.216.942-.713 1.106-1.601.963-2.613-.314-2.239-1.533-4.009-3.102-5.535-2.889-2.809-6.095-5.239-9.644-7.187-1.102-.606-2.326-1.096-3.556-1.35-2.308-.477-4.323.281-6.025 2.015.278.034.586.161.83.087m-35.799-22.811c.243.628.776 1.103 1.633.943 2.739-.511 5.38-1.241 7.489-3.173.282-.258.595-.663.601-1.005.047-2.929.027-5.859.027-8.988-.512.475-.906.811-1.265 1.181-1.089 1.12-2.461 1.719-3.889 2.329-2.168.926-4.222 2.113-6.473 3.264.649 1.914 1.202 3.704 1.877 5.449m-4.837 46.895c2.262.238 4.55.321 6.828.322 2.438.001 4.887-.059 7.312-.294 2.185-.212 4.155-1.196 6.086-2.193.326-.168.629-.38 1.035-.629.04-1.929.248-3.906-.826-5.794-2.107.551-4.141 1.107-6.189 1.603-.7.169-1.437.237-2.161.257-1.924.054-3.799-.231-5.632-.845-.419-.141-.957-.092-1.402.019-3.347.836-6.92 3.452-8.945 6.55 1.211.939 2.612.868 3.894 1.004m59.977-10.275c.018-.552-.05-1.155-.265-1.659-.897-2.111-2.29-3.92-4-5.426-1.897-1.669-3.865-3.291-5.962-4.704-2.603-1.753-5.569-1.824-8.574-1.182-.089.018-.158.131-.331.283.741 1.807 1.451 3.651 2.255 5.455.672 1.51 1.128 3.053 1.025 4.704-.053.846.281 1.358.983 1.798 3.493 2.187 7.199 3.523 11.422 2.943 1.037-.142 2.079-.256 3.054-.376.167-.733.375-1.281.393-1.836m-82.791-32.553c-.131.614-.503.905-.957 1.025-2.041.543-4.075 1.122-6.144 1.535-.99.199-1.742.732-2.547 1.211-.167.1-.18.448-.281.731 1.098.51 2.058-.047 3.02-.149 1.206-.128 2.39-.443 3.59-.638.957-.157 1.768-.43 1.755-1.706 1.388.472 2.32 1.386 3.23 2.299.631.633 1.175 1.355 1.727 2.06.509.65.391 1.083-.364 1.288-2.046.558-4.105 1.072-6.151 1.632-.537.146-1.046.392-1.824.691 1.45.989 2.875 1.038 4.169.993 3.102-.106 6.113-.82 8.852-2.314 1.363-.744 2.359-1.913 2.946-3.402-.512-.097-.95-.181-1.388-.265 5.967-2.426 11.436-5.629 16.958-8.743-.515-1.406-.961-2.622-1.422-3.88-4.135 2.431-8.413 4.375-12.929 5.791-1.112.349-2.249.632-3.389.878-.318.068-.705-.059-1.032-.173-.5-.175-.966-.439-1.461-.628-1.642-.628-3.287-.7-4.932.009-.95.409-1.846.326-2.722-.262-.435-.292-.943-.49-1.44-.676-.667-.251-1.249-.068-1.736.447-.467.493-.255.977.027 1.439.327.535.695 1.045 1.015 1.522 1.232.116 2.127-.993 3.43-.715m40.395-3.655c.111.907.256 1.671.286 2.441.048 1.228-.414 1.885-1.594 1.894-3.019.026-6.039-.099-9.06-.138-1.59-.021-3.189-.082-4.77.047-1.943.158-3.31 1.37-4.371 2.865-1.613 2.274-3.239 4.528-5.3 6.442-.15.14-.243.34-.471.669.388.395.785.797 1.303 1.321 1.197-2.015 1.87-4.129 3.834-5.277.558.488.183.845-.094 1.111-1.298 1.251-1.973 2.843-2.582 4.47-.162.435-.281.905-.303 1.365-.048.953.152 1.08 1.316 1.034.493-1.499.943-2.994 1.484-4.455.27-.731.345-.705 1.268-.625-1.863 4.811-1.926 5.444-.723 7.357.55.073.716-.211.75-.716.147-2.178.318-4.353.484-6.529.004-.043.065-.081.109-.132.75.024.812.577.792 1.107-.034.93-.147 1.856-.201 2.786-.051.885-.133 1.777-.081 2.66.041.674.249 1.35 1.112 1.631.884-.607.953-1.547 1.014-2.483.102-1.571.202-3.142.28-4.714.03-.626.16-1.209.878-1.304 1.223-.163 1.605-1.097 2.023-2.003.345-.748.639-1.52.899-2.146 1.028.132 1.885.304 2.749.341 2.919.125 5.841.18 8.76.313.676.032 1.337.334 2.016.394.988.087 1.994.162 2.974.063.942-.093 1.454-.702 1.533-1.711.073-.935.407-1.85.48-2.784.14-1.791-.082-3.547-.872-5.294zm7.54 23.189c-.028-.272-.021-.589-.096-.887-.417-1.649-.422-1.613-2.117-1.554-2.337.08-4.677.097-7.014.149-.458.011-.914.055-1.501.091 1.177 2.718 2.908 4.897 4.443 7.202 1.541 2.314 2.911 4.739 4.447 7.266-.459.511-.926 1.031-1.409 1.57.625.691 1.486.488 2.223.469 3.81-.102 7.618-.272 11.425-.433 1.739-.074 3.474-.221 5.213-.264 1.412-.036 2.009-.54 2.273-2.284.198-1.297.162-2.607-.346-3.86-.708-1.746-1.384-3.505-2.124-5.238-.89-2.083-2.385-2.37-4.077-2.154-2.466.314-4.91.79-7.366 1.189-.776.126-1.534.362-2.335-.027-.766-.371-1.277.3-1.849.627-.702.402-1.378.847-2.232 1.376.264-1.226.569-1.608 2.442-3.238m1.603-25.141c.058-2.843-.382-5.585-.746-8.313-.362-2.712-1.029-5.385-1.588-8.208.262.152.616.233.7.428.411.951.82 1.914 1.093 2.909.234.851.278 1.753.416 2.631.291 1.861.604 3.718.877 5.581.242 1.654.424 3.316.667 4.969.142.967-.029 1.24-1 1.345-.894.098-1.789.186-2.749.284 1.553 3.732.813 7.343-.143 11.016 1.472.443 2.917.258 4.287.074 2.486-.334 4.935-.7 7.455-.281 1.489.248 2.17-.463 1.911-1.872-.824-4.471-1.593-8.945-3.024-13.293-.98-2.98-2.453-5.676-4.143-8.27-1.29-1.978-2.688-3.907-4.215-5.712-1.399-1.653-3.296-2.665-5.526-2.748-.679-.025-1.386.396-2.061.658-1.61.622-2.646 1.7-2.79 3.479-.101 1.243-.293 2.481-.336 3.726-.079 2.29-.087 4.582-.108 6.873-.015 1.668-.003 3.336-.003 5.212 3.776.28 7.354.176 11.026-.488m-22.318 15.694c-1.114.638-1.281 1.486-1.294 2.587-.013 1.096-.113 2.205-.308 3.285-.241 1.333-.535 2.694-2.131 3.242.551 2.551 1.344 5.016 2.378 7.418.744 1.729 1.412 3.499 1.971 5.294.426 1.369 1.385 2.123 2.63 2.492 2.207.653 4.465.966 6.753.296 1.424-.417 2.857-.805 4.283-1.214.304-.088.608-.19.896-.32 2.314-1.051 2.458-1.36 1.18-3.432-1.573-2.548-3.243-5.038-4.859-7.56-.652-1.017-1.257-2.062-1.911-3.077-.308-.476-.683-.911-1.09-1.447-.405.432-.691.808-1.05 1.095-.339.272-.755.451-1.3.764-.116-1.077.749-1.331.956-1.939-.729-.654-2.097-.068-2.596-1.389.473-.072.92-.196 1.367-.2 3.19-.029 6.382.027 9.57-.064 2.433-.07 4.891-.137 7.28-.535 1.972-.33 3.813-1.197 5.485-2.396 1.682-1.207 2.702-2.735 3.089-4.848-1.403-.364-2.822-.243-4.217-.203-2.654.076-5.306.241-7.96.367-.694.034-1.301-.178-1.966-.407-1.537-.527-3.151-.981-4.764-1.114-3.072-.255-6.166-.265-9.251-.373-.262-.01-.525-.002-.939-.002-.481 1.483-.902 2.936-2.202 3.68m11.63-47.723c-.256-1.022-1.125-.93-1.876-1.087-1.815-.379-3.663-.66-5.431-1.197-4.152-1.262-7.652-3.59-10.622-6.704-1.305-1.369-2.606-2.742-3.882-4.085-.379 1.341-1.353 2.322-2.729 2.942-1.205.542-1.596.348-1.855-.961-.141-.715-.223-1.442-.338-2.201-3.422 2.451-6.703 5.006-10.781 6.512 0 .533-.085 1.063.015 1.557.344 1.689.858 3.35 1.114 5.05.443 2.946 1.815 5.54 2.929 8.244 1.88 4.57 5.015 7.989 9.463 10.185 3.431 1.694 6.964 1.842 10.604.468 3.351-1.264 6.445-2.962 9.356-4.988 2.084-1.449 3.469-3.521 4.719-5.674.37-.637.726-1.282 1.085-1.925.333-.597 1.185-1.056.027-2.051l.532.018c.225.056.477.068.669.179 1.452.839 3.013.841 4.436.176 1.957-.914 3.562-3.058 2.88-5.381-.358-1.222-.999-2.53-2.449-3.092-1.309-.507-2.569-.579-3.818.133-.093.052-.172.135-.27.168-1.821.624-2.962 1.787-2.978 3.882-.356-.069-.776-.071-.8-.168m9.151-4.793c-.045-.937.013-1.803-.147-2.628-.391-2.005-.743-4.036-1.378-5.971-.518-1.576-1.338-3.076-2.176-4.524-1.819-3.145-3.778-6.195-6.496-8.705-2.496-2.307-5.141-4.406-8.178-5.977-1.568-.81-3.238-1.268-5.04-1.349-1.461-.067-2.729.303-3.928 1.053-3.824 2.39-7.403 5.084-10.823 8.023-3.277 2.815-6.866 5.241-10.938 6.88-1.986.8-4.076 1.139-6.176 1.447-.204.03-.402.1-.678.17.199 1.318.897 2.24 1.973 2.904.9.557 1.828 1.071 2.733 1.62.429.26 1.128.352 1.028 1.036-.107.738-.78.542-1.286.584-.212.018-.435.015-.632.081-.82.271-1.087 1.078-.521 1.731 1.261 1.455 2.718 2.61 4.803 2.745.317-1.099-.85-.418-1.084-1.027.103-.506.648-.673 1.123-.783 2.915-.678 5.36-2.23 7.728-3.941.386-.278.805-.512 1.215-.756 1.298-.773 2.432-1.681 2.997-3.15.101-.264.507-.414.773-.616.127.301.357.602.362.907.017.891-.106 1.784-.074 2.673.017.479.238.95.369 1.43 2.082-.667 2.612-1.309 2.773-3.144.052-.591-.092-1.272.706-1.72.217.332.517.601.572.91.19 1.083.767 1.94 1.455 2.756 3.462 4.107 7.497 7.464 12.752 9.086 2.218.686 4.532 1.071 6.81 1.242 2.716-3.707 5.752-4.7 9.383-2.987m-53.517-7.055c-1.241-.888-2.607-1.631-3.302-3.111-1.036-2.205-.713-2.754 1.744-2.983 2.173-.205 4.365-.47 6.329-1.468 4.418-2.246 8.459-5.05 12.128-8.357 2.883-2.597 6.04-4.805 9.447-6.672 1.24-.68 2.571-1.025 3.994-.786 2.638.444 5.106 1.258 7.363 2.78 3.501 2.361 6.686 5.074 9.217 8.397 1.806 2.372 3.183 5.064 4.723 7.629 1.88 3.135 2.507 6.62 2.94 10.173.199 1.63.054 3.3.857 4.874.656 1.285.393 2.689-.381 3.907-.478.751-1.085 1.428-1.677 2.102-.695.791-1.599 1.207-2.667 1.222-1.054.015-2.109.003-3.256.003-.225.44-.455.886-.663 1.292 1.586 1.91 3.228 3.596 5.337 4.629 2.831 1.388 4.433 3.914 6.176 6.243 1.522 2.035 2.454 4.487 3.835 6.638 2.12 3.303 2.824 7.087 3.864 10.731.815 2.853 1.064 5.866 1.547 8.81.103.634-.313.969-.867 1.13-.599.176-1.211.306-1.808.453-.121 2.629-1.368 4.505-3.416 5.995-1.715 1.248-3.647 1.893-5.672 2.367-.542.127-1.082.259-1.646.395.231.889.412 1.584.545 2.097 1.135.814 2.259.655 3.366.518.524-.064 1.031-.25 1.548-.374 2.329-.557 4.692-.744 7.15-.621 1.337-2.254 3.644-2.775 6.059-3.061.469-.054 1.003-.085 1.424.079 1.527.594 3.06 1.198 4.515 1.942 3.183 1.63 5.898 3.93 8.578 6.232 1.592 1.369 3.019 2.952 3.774 4.985.425 1.142.824 2.312.459 3.52-.557 1.849-2.088 2.806-3.818 3.174-3.369.717-6.76.546-10.112-.317-1.137-.292-2.194-.633-3.097-1.45-.611-.554-1.416-.898-2.221-1.388-.638 1.952-2.196 2.135-3.846 2.133-.53 0-1.061-.061-1.59-.042-4.469.155-8.939.31-13.407.494-.986.04-1.967.191-2.845.28-.105 2.395.593 4.55-.151 6.856-.633 1.964-1.847 2.827-3.632 3.232-1.758.397-3.56.607-5.315 1.017-2.362.55-4.716.635-7.123.368-2.054-.23-4.129-.272-6.194-.408-1.323-.087-2.653-.139-3.966-.307-1.575-.203-2.31-1.46-1.596-2.825.58-1.108 1.28-2.183 2.086-3.143 2.18-2.597 5.092-4.225 8.193-5.68-.957-2.758-1.907-5.474-2.839-8.196-.944-2.756-1.869-5.517-2.802-8.278-1.912.128-2.495-1.135-2.935-2.264-.87-.276-1.778-.311-2.211-.775-.422-.455-.36-1.348-.522-2.102-.094-.035-.237-.094-.384-.144-1.699-.579-2.193-2.089-1.079-3.441.397-.482.911-.875 1.389-1.288 1.032-.89 2.016-1.775 2.701-3.01.681-1.223 1.55-2.383 2.519-3.404 1.226-1.292 2.831-2.012 4.662-2.023 1.624-.01 3.249.073 4.874.13 2.233.077 4.465.196 6.699.244 2.211.048 2.538-.4 1.954-2.509-.068-.245-.148-.487-.226-.742-.54-.072-1.059-.031-1.461-.225-.365-.177-.604-.609-.921-.954-1.532 1.156-3.219 1.867-5.069 2.234-.558.111-1.073.433-1.631.548-.759.156-1.546.3-2.311.257-.298-.017-.567-.557-.986-1.006-.681.426-1.423.893-2.17 1.354-.359.221-.712.457-1.091.64-3.468 1.681-6.945 3.345-10.406 5.039-.252.124-.481.421-.588.689-.859 2.155-2.371 3.762-4.453 4.727-3.246 1.508-6.671 2.49-10.304 2.271-1.189-.071-2.472-.371-3.481-.955-.634-.367-1.201-.763-1.936-.895-.703-.127-1.464-.365-1.656-1.061-.193-.7-.652-.838-1.188-1.067-1.198-.509-1.308-.831-.842-2.048.092-.241.318-.569.232-.716-.559-.975.079-1.578.613-2.239.598-.738 1.344-1.07 2.319-1.173 1.241-.131 2.457-.482 3.718-.745-.454-.78-.931-1.413-1.195-2.123-.161-.432-.152-1.058.053-1.466.693-1.384 2.051-1.78 3.452-1.107.333.16.648.361.963.554 1.022.627 2.055.811 3.155.171.985-.572 1.995-.54 3.059-.152 1.091.399 2.219.702 3.339 1.013.235.065.522.025.766-.038 1.281-.327 2.582-.603 3.827-1.033 4.173-1.447 7.969-3.666 11.825-5.711.054-.661.104-1.276.15-1.842.624-.176 1.177-.24 1.637-.478 3.036-1.574 6.323-2.687 8.894-5.107 1.135-1.069 2.077-2.038 1.962-3.689-.032-.454.047-.967.242-1.377.585-1.234.016-2.069-.83-2.919-3.007 2.195-6.004 4.227-9.423 5.646-4.224 1.752-8.353 2.077-12.641.244-3.222-1.377-5.78-3.476-7.86-6.214-3.063-4.035-4.458-8.759-5.73-13.524-.348-1.3-.479-2.656-.705-3.966-.804-.281-1.508-.511-2.2-.775-1.456-.554-2.819-1.269-3.824-2.482-1.413-1.706-1.175-2.53.906-3.337.049-.02.094-.05.306-.165-.52-.289-.909-.458-1.246-.7" fill="#231f20"/><path d="m26.15 126.739 6.441 3.249c-.038.091-.076.183-.114.274-1.098-.185-2.194-.385-3.295-.55-1.142-.171-2.307-.501-3.43-.406-1.073.091-2.227-.503-3.272.398.268.091.532.244.806.261.956.059 1.917.13 2.872.087 1.39-.064 2.615.383 3.789 1.026.318.174.644.4.856.682.749.999.731 1.011 1.968 1.312-.878.473-1.632.878-2.387 1.284.035.133.07.265.104.398.308 0 .618.03.921-.005 1.522-.179 3.04-.398 4.566-.544.329-.031.681.18 1.086.298-1.008.817-1.008.817-.513 1.597.225-.112.477-.197.681-.346 2.824-2.075 6.151-3.041 9.427-4.08 2.189-.695 4.485-.83 6.788-.674 1.002.068 1.998.049 3.127-.412-.32-.247-.492-.495-.688-.515-3.824-.374-7.627-.529-11.267 1.067-.543.238-1.176.276-1.722.396-1.603-2.988-2.819-6.013-5.878-7.744-.344.633.28.865.55 1.093 1.843 1.557 2.819 3.657 3.82 5.747.184.385.168.393-.066 1.128-2.073-3.449-4.048-6.942-7.813-8.891.475 1.132 1.675 1.587 2.396 2.49.753.943 1.565 1.854 2.215 2.863.636.989 1.465 1.914 1.621 3.161-.808.379-1.086-.206-1.457-.628-.661-.749-1.311-1.513-2.023-2.212-.264-.26-.693-.357-1.047-.528-.077.099-.154.197-.23.294.709.692 1.419 1.383 2.177 2.122-.814.406-1.115-.184-1.507-.543-1.052-.963-2.068-1.969-3.163-2.884-.768-.642-1.621-1.193-2.476-1.721-.367-.226-.835-.291-1.349-.262 2.061 1.564 4.261 2.905 5.827 5.034-2.749-1.167-5.172-3.136-8.341-3.316" fill="#231f20"/><path d="m23.231 134.213c1.254.928 2.337.996 3.908.245-1.844-.736-2.063-.75-3.908-.245m-2.165-2.504c-1.135-.097-1.958.217-2.661 1.039-.554.649-.4 1.207.467 1.308 1.198.137 2.436.327 3.448-.644.18-.173.47-.234.772-.378-.594-.578-1.032-1.241-2.026-1.325m5.521 4.1c-.531.013-1.07.109-1.591.05-2.257-.257-4.514-.526-6.761-.854-1.293-.188-1.758-1.228-1.044-2.341.8-1.245 1.826-2.161 3.518-1.85.57.105 1.167.074 1.752.105 1.232.065 1.229.067 1.659 1.265.069.192.178.37.223.463 1.389.717 3.103.204 4.237 1.484-.252 1.069-.875 1.648-1.993 1.678" fill="#231f20"/><path d="m46.91 135.421c1.234 1.203 3.558 1.147 6.365-.203-1.911-1.496-4.814-1.362-6.365.203m-.878 1.104c-.853-.819-.741-1.71.29-2.291.275-.155.571-.272.85-.422 2.233-1.205 4.394-.549 6.53.277.32.124.57.469.807.749.645.762.493 1.4-.488 1.621-1.702.383-3.432.65-5.151.967-1.07-.003-2.045-.139-2.838-.901" fill="#231f20"/><path d="m41.351 117.27c-.422 1.588.254 3.198 1.74 4.141.275-2.031-.35-3.518-1.74-4.141m2.665 2.611c-.009 1.056.605 2.1.128 3.182-1.711-.398-3.102-1.699-3.691-3.556-.395-1.245-.678-2.531.437-3.691 1.774.851 3.143 1.926 3.126 4.065" fill="#231f20"/><path d="m38.185 109.314c-.592-.287-1.36.017-1.483.505-.15.591.118 1.04.68 1.251.878.33 1.753.737 2.771.523-.158-1.213-1.014-1.817-1.968-2.279m-.754 3.004c-.956-.299-1.653-.969-1.842-1.996-.185-1.007.53-1.529 1.24-2.021.251-.174.55-.281.79-.399 2.63 1.628 2.587 1.648 3.523 3.544.35.711.23 1.169-.325 1.667-1.139-.26-2.287-.45-3.386-.795" fill="#231f20"/><path d="m33.926 105.949c1.252-.36 1.433-1.526 2.168-2.688-2.668 1.049-2.668 1.049-2.168 2.688m1.761-.103c-.47.523-1.15.947-1.819 1.194-.942.347-1.49-.223-1.315-1.213.428-2.425 1.802-3.602 4.755-3.898-.132 1.588-.673 2.864-1.621 3.917" fill="#231f20"/><path d="m85.784 53.303c2.716-3.707 5.752-4.7 9.383-2.987-.045-.937.013-1.803-.147-2.628-.391-2.005-.742-4.036-1.378-5.971-.518-1.576-1.337-3.076-2.176-4.524-1.819-3.145-3.778-6.196-6.495-8.705-2.497-2.307-5.142-4.407-8.179-5.977-1.568-.811-3.237-1.269-5.04-1.35-1.461-.066-2.728.304-3.927 1.054-3.825 2.39-7.403 5.084-10.824 8.023-3.277 2.815-6.865 5.241-10.938 6.879-1.986.8-4.075 1.14-6.176 1.448-.204.03-.401.099-.678.17.199 1.318.898 2.24 1.973 2.904.9.557 1.828 1.07 2.733 1.62.43.26 1.129.352 1.029 1.036-.108.737-.781.542-1.287.584-.212.018-.435.015-.632.08-.82.272-1.087 1.078-.521 1.732 1.261 1.455 2.718 2.61 4.803 2.745.317-1.099-.85-.418-1.084-1.028.103-.505.648-.672 1.123-.783 2.915-.677 5.36-2.229 7.728-3.94.386-.278.805-.512 1.215-.756 1.298-.773 2.432-1.682 2.997-3.15.102-.264.508-.414.773-.617.127.302.357.603.362.908.017.89-.106 1.784-.074 2.672.018.48.239.951.369 1.431 2.083-.667 2.612-1.309 2.774-3.144.051-.591-.093-1.272.705-1.72.217.332.517.6.572.91.19 1.083.767 1.939 1.455 2.756 3.462 4.106 7.497 7.464 12.752 9.086 2.219.685 4.532 1.071 6.81 1.242" fill="#5d5040"/><path d="m56.69 47.929c.525.148 1.028.377 1.585.587-.433-1.511-2.036-1.976-3.427-.966.73.146 1.297.224 1.842.379m-6.551 4.881c.274-1.136.53-2.201.853-3.543-1.581 1.399-1.83 2.475-.853 3.543m1.744 4.509c.207.914.78 1.519 1.888 1.845.239-1.743-.298-3.033-1.276-4.266-1.176.675-.801 1.589-.612 2.421m7.731-5.423c-.131-.163-.532-.116-.781-.161-.617 1.423-.006 2.528.687 3.555.193.287.778.317 1.364.53.189-1.773-.444-2.894-1.27-3.924m33.867 2.189c-.643-.216-1.302-.425-1.972-.509-2.146-.268-2.827.277-2.951 2.36-.017.284.289.587.445.882.253-.215.618-.382.732-.654.19-.447-.115-1.163.562-1.329.596-.146 1.248-.12 1.871-.087.544.031 1.083.176 1.624.271.058-.138.117-.275.175-.412-.16-.18-.287-.455-.486-.522m-25.218 13.417c.066.794-.256 1.436-.734 2.021-.937 1.147-1.794 1.318-3.222.607-.424-.211-.851-.664-1.188-.019-.299.573.195.879.659 1.044 1.42.506 2.854.995 4.185-.224 1.304-1.195 1.529-2.701 1.229-4.329-.047-.258-.33-.474-.504-.709-.144.029-.289.058-.433.089 0 .507-.034 1.016.008 1.52m-8.236-9.158c-2.043-.395-3.841.685-4.579 2.698-.577 1.574.146 3.819 1.617 4.692.457.271 1.207.499 1.622.312.889-.4 1.69-1.037 2.433-1.682.204-.178.078-.726.125-1.414-.838.658-1.422 1.097-1.984 1.563-.649.538-1.259.405-1.871-.052-.974-.728-1.291-1.761-.891-2.902.679-1.933 1.647-2.503 3.73-2.221.192.026.399-.053.6-.082.057-.127.114-.254.172-.38-.324-.182-.627-.465-.974-.532m29.767-6.949c.098-.033.177-.116.27-.168 1.249-.712 2.509-.641 3.818-.133 1.45.562 2.091 1.87 2.449 3.092.682 2.323-.923 4.467-2.88 5.381-1.423.665-2.984.663-4.436-.176-.192-.111-.444-.123-.669-.18l-.531-.017c1.157.995.305 1.454-.028 2.05-.359.644-.715 1.289-1.085 1.925-1.25 2.154-2.635 4.226-4.719 5.675-2.911 2.025-6.005 3.724-9.356 4.987-3.64 1.374-7.173 1.227-10.604-.467-4.448-2.197-7.583-5.616-9.463-10.185-1.114-2.704-2.486-5.298-2.929-8.244-.256-1.7-.77-3.361-1.114-5.05-.1-.494-.015-1.024-.015-1.558 4.078-1.505 7.359-4.06 10.781-6.511.115.759.197 1.486.338 2.201.259 1.308.65 1.503 1.855.961 1.376-.62 2.35-1.602 2.729-2.943 1.276 1.343 2.577 2.716 3.882 4.085 2.97 3.115 6.47 5.443 10.622 6.705 1.768.537 3.616.818 5.431 1.197.751.157 1.62.064 1.876 1.087.024.096.445.098.8.168.016-2.095 1.157-3.258 2.978-3.882" fill="#fdd8bd"/><path d="m76.589 99.152c-.481 1.483-.903 2.936-2.202 3.68-1.115.638-1.282 1.486-1.295 2.587-.012 1.096-.113 2.205-.308 3.285-.24 1.333-.535 2.694-2.131 3.242.552 2.551 1.344 5.016 2.378 7.418.745 1.729 1.413 3.499 1.972 5.294.426 1.369 1.385 2.123 2.63 2.492 2.207.653 4.465.966 6.752.296 1.424-.417 2.857-.805 4.284-1.214.304-.088.608-.19.895-.32 2.315-1.051 2.459-1.36 1.18-3.432-1.572-2.548-3.243-5.038-4.859-7.56-.651-1.017-1.256-2.062-1.911-3.077-.307-.476-.682-.911-1.09-1.447-.405.432-.691.808-1.049 1.095-.339.272-.755.451-1.3.765-.116-1.078.748-1.332.956-1.94-.729-.654-2.097-.068-2.596-1.389.472-.072.919-.196 1.367-.2 3.19-.029 6.382.027 9.57-.064 2.432-.07 4.89-.137 7.28-.535 1.971-.33 3.812-1.197 5.485-2.396 1.681-1.207 2.701-2.735 3.088-4.848-1.402-.364-2.821-.243-4.216-.203-2.655.076-5.307.242-7.961.367-.693.034-1.301-.178-1.965-.407-1.537-.527-3.152-.981-4.765-1.114-3.072-.255-6.165-.265-9.25-.373-.262-.01-.525-.002-.939-.002" fill="#87aedc"/><path d="m85.679 87.625c3.776.28 7.354.177 11.025-.487.058-2.843-.381-5.585-.746-8.314-.362-2.712-1.028-5.385-1.587-8.208.262.153.616.234.7.428.41.951.819 1.914 1.093 2.909.234.852.278 1.753.415 2.631.291 1.861.605 3.719.878 5.581.242 1.654.424 3.316.667 4.97.141.967-.029 1.239-1.001 1.344-.893.098-1.788.186-2.749.285 1.554 3.731.813 7.342-.142 11.015 1.471.444 2.916.258 4.287.075 2.486-.334 4.935-.701 7.455-.282 1.489.248 2.17-.463 1.911-1.872-.824-4.471-1.594-8.944-3.024-13.293-.98-2.979-2.453-5.676-4.143-8.269-1.29-1.979-2.688-3.908-4.216-5.712-1.399-1.654-3.295-2.665-5.526-2.748-.678-.026-1.385.395-2.061.657-1.609.622-2.645 1.7-2.79 3.479-.1 1.244-.292 2.482-.335 3.726-.079 2.29-.087 4.582-.108 6.873-.015 1.668-.003 3.336-.003 5.212" fill="#876db0"/><path d="m92.66 115.517c.264-1.227.568-1.608 2.441-3.238-.027-.272-.02-.589-.095-.887-.417-1.649-.423-1.613-2.117-1.555-2.337.08-4.677.098-7.015.15-.457.01-.913.054-1.501.091 1.178 2.717 2.909 4.897 4.444 7.202 1.541 2.314 2.91 4.739 4.447 7.265-.459.512-.926 1.032-1.41 1.571.626.691 1.487.488 2.224.468 3.81-.101 7.618-.271 11.425-.432 1.739-.074 3.474-.221 5.213-.264 1.412-.036 2.008-.54 2.273-2.284.197-1.297.162-2.608-.347-3.86-.708-1.747-1.383-3.505-2.123-5.238-.89-2.083-2.385-2.37-4.077-2.154-2.466.313-4.91.79-7.366 1.188-.776.126-1.534.363-2.335-.026-.767-.371-1.277.3-1.849.627-.702.401-1.378.847-2.232 1.376" fill="#87aedc"/><path d="m93.483 89.09h-5.922c.111.906.256 1.671.286 2.44.048 1.229-.414 1.885-1.593 1.895-3.02.025-6.04-.1-9.061-.139-1.59-.02-3.189-.082-4.77.047-1.943.158-3.31 1.37-4.371 2.865-1.613 2.275-3.239 4.529-5.3 6.443-.15.139-.243.34-.471.669.389.394.785.797 1.303 1.321 1.197-2.016 1.87-4.13 3.835-5.277.557.488.182.844-.095 1.111-1.298 1.251-1.973 2.843-2.582 4.47-.162.434-.28.905-.303 1.365-.048.952.152 1.08 1.316 1.033.493-1.499.943-2.993 1.484-4.455.27-.73.345-.704 1.268-.625-1.863 4.812-1.926 5.444-.723 7.358.55.073.716-.211.75-.716.147-2.178.318-4.354.484-6.53.004-.043.065-.081.109-.131.751.024.812.577.792 1.107-.034.93-.147 1.855-.201 2.785-.051.886-.133 1.777-.081 2.66.041.674.249 1.351 1.112 1.631.884-.606.953-1.547 1.014-2.482.102-1.572.202-3.143.28-4.714.03-.626.16-1.209.878-1.305 1.223-.163 1.605-1.096 2.023-2.003.345-.748.639-1.519.899-2.145 1.028.132 1.885.303 2.749.341 2.919.125 5.841.179 8.76.313.676.031 1.338.334 2.016.394.988.087 1.994.162 2.974.063.942-.094 1.454-.702 1.533-1.712.073-.934.407-1.849.48-2.783.14-1.791-.082-3.547-.872-5.294" fill="#fdd8bd"/><path d="m50.413 96.941c.479.915 1.268 1.573 2.301 1.771.869.166 1.772.154 2.647.219.293-1.723-.305-2.9-1.698-3.284-.903-.249-1.844-.365-2.718-.531-.501.63-.864 1.192-.532 1.825m-.567-2.316c1.231.288 3.234-.498 3.913-1.525.354-.535.203-1.317-.388-1.618-.36-.184-.844-.377-1.194-.284-1.01.267-2.014.608-2.954 1.055-.791.376-1.107 1.074-.722 2.001.443.124.89.263 1.345.371m-7.124-2.687c-.283-.462-.495-.946-.028-1.439.487-.515 1.069-.698 1.737-.447.496.186 1.004.384 1.44.676.875.588 1.771.671 2.721.262 1.646-.709 3.29-.637 4.932-.009.495.189.962.453 1.461.628.327.114.714.241 1.032.173 1.141-.246 2.277-.529 3.39-.878 4.515-1.416 8.794-3.36 12.928-5.791.461 1.258.908 2.474 1.422 3.88-5.521 3.114-10.99 6.317-16.958 8.743.438.084.877.168 1.388.265-.587 1.489-1.583 2.658-2.945 3.402-2.739 1.494-5.751 2.208-8.853 2.314-1.294.045-2.719-.004-4.168-.993.777-.299 1.286-.545 1.823-.691 2.047-.56 4.105-1.074 6.152-1.632.755-.205.873-.638.363-1.288-.552-.705-1.096-1.427-1.727-2.06-.909-.913-1.842-1.827-3.23-2.3.014 1.277-.798 1.55-1.755 1.707-1.2.195-2.384.51-3.589.638-.962.102-1.922.659-3.021.149.101-.283.114-.631.281-.731.806-.479 1.557-1.012 2.548-1.211 2.068-.413 4.103-.992 6.143-1.535.454-.12.826-.411.957-1.025-1.302-.278-2.198.831-3.429.715-.321-.477-.688-.987-1.015-1.522" fill="#fdd8bd"/><path d="m129.565 127.134c.167-.733.375-1.281.393-1.836.017-.553-.051-1.155-.265-1.659-.897-2.111-2.29-3.92-4-5.426-1.897-1.67-3.866-3.291-5.963-4.704-2.602-1.753-5.568-1.824-8.574-1.183-.089.019-.157.131-.331.284.742 1.806 1.451 3.651 2.255 5.455.673 1.509 1.129 3.052 1.026 4.704-.053.845.28 1.357.983 1.798 3.493 2.186 7.198 3.523 11.421 2.943 1.038-.143 2.079-.257 3.055-.376" fill="#f37048"/><path d="m66.087 134.569c1.211.939 2.611.868 3.893 1.004 2.263.238 4.551.321 6.828.322 2.439.001 4.888-.059 7.313-.294 2.184-.212 4.155-1.196 6.085-2.193.326-.168.629-.38 1.036-.629.039-1.929.247-3.906-.827-5.794-2.107.551-4.14 1.107-6.188 1.603-.701.169-1.438.237-2.161.257-1.925.054-3.799-.231-5.632-.845-.42-.141-.958-.092-1.403.019-3.347.836-6.92 3.452-8.944 6.55" fill="#f37048"/><path d="m72.94 83.229c.649 1.914 1.202 3.704 1.877 5.449.243.628.776 1.103 1.633.943 2.739-.511 5.38-1.241 7.489-3.173.282-.258.595-.663.601-1.005.047-2.929.027-5.86.027-8.988-.512.475-.906.811-1.265 1.181-1.089 1.12-2.461 1.719-3.889 2.329-2.168.926-4.222 2.113-6.473 3.264" fill="#876db0"/><path d="m109.786 111.402c.278.034.586.161.831.087 2.827-.86 5.565-.299 8.289.474.4.113.811.268 1.151.5 3.145 2.145 6.255 4.35 8.587 7.394.951 1.24 1.775 2.6 2.46 3.999.282.575.047 1.398.047 2.216.942-.713 1.105-1.601.963-2.613-.314-2.239-1.534-4.009-3.102-5.535-2.89-2.809-6.096-5.239-9.645-7.187-1.102-.606-2.326-1.096-3.556-1.35-2.308-.477-4.323.281-6.025 2.015" fill="#afb1b4"/><path d="m65.28 135.689c-.108 1.424.154 1.865 1.301 2.081 1.093.205 2.21.318 3.321.381 1.954.109 3.923.046 5.866.241 3.443.346 6.793.01 10.096-.956.916-.268 1.863-.449 2.753-.781.919-.344 1.901-.716 1.946-2.019-1.343.468-2.615.952-3.912 1.354-2.367.731-4.829.7-7.272.786-1.85.064-3.703.039-5.553.115-2.243.093-4.425-.245-6.591-.764-.611-.146-1.225-.275-1.955-.438" fill="#b3b5b8"/><path d="m47.694 97.704c-.396-1.138-1.123-1.3-2.074-1.054-2.461.636-4.933 1.227-7.384 1.899-.51.139-.945.547-1.717 1.013.938.405 1.535.663 2.175.938 1.938-1.294 4.329-1.226 6.46-1.992.832-.299 1.688-.536 2.54-.804" fill="#fdd8bd"/><path d="m84.827 67.721c.258.385.52.776.87 1.299 1.485-1.372 3.079-2.502 5.405-2.791-1.171-1.055-2.146-1.932-3.239-2.914-.982 1.426-2.002 2.905-3.036 4.406" fill="#fdd8bd"/><path d="m49.492 99.641c-.452-.578-.671-.857-.906-1.158-3.147.97-6.418 1.421-9.38 3.202 1.023.499 1.684.421 2.558-.021 1.149-.58 2.525-.726 3.806-1.05 1.219-.309 2.442-.607 3.922-.973" fill="#fdd8bd"/><path d="m23.092 133.035c-.594-.578-1.032-1.241-2.025-1.325-1.136-.097-1.958.217-2.662 1.039-.554.648-.4 1.207.467 1.307 1.198.138 2.436.328 3.448-.643.18-.173.47-.234.772-.378" fill="#d8b98d"/><path d="m27.139 134.458c-1.844-.736-2.063-.75-3.908-.245 1.254.928 2.337.996 3.908.245" fill="#d8b98d"/><path d="m53.275 135.218c-1.911-1.496-4.813-1.362-6.365.203 1.235 1.203 3.558 1.148 6.365-.203" fill="#d8b98d"/><path d="m43.091 121.411c.274-2.03-.351-3.518-1.74-4.141-.422 1.588.254 3.199 1.74 4.141" fill="#ffcf01"/><path d="m40.152 111.593c-.158-1.213-1.014-1.817-1.968-2.279-.592-.287-1.36.016-1.483.505-.15.59.118 1.04.68 1.251.878.33 1.753.737 2.771.523" fill="#ffcb03"/><path d="m36.094 103.26c-2.669 1.05-2.669 1.05-2.168 2.688 1.251-.36 1.433-1.526 2.168-2.688" fill="#ffcf01"/><path d="m61.001 58.877c-.324-.183-.627-.465-.974-.532-2.043-.396-3.841.684-4.579 2.698-.577 1.573.146 3.818 1.617 4.691.457.272 1.207.499 1.622.313.889-.4 1.689-1.037 2.433-1.683.204-.177.078-.725.125-1.413-.838.657-1.422 1.097-1.984 1.563-.649.538-1.26.405-1.871-.052-.974-.729-1.291-1.762-.891-2.902.679-1.933 1.647-2.503 3.73-2.221.192.025.399-.053.6-.082.057-.127.114-.254.172-.38" fill="#231f20"/><path d="m68.255 65.982c0 .507-.034 1.017.008 1.521.066.793-.256 1.435-.734 2.02-.937 1.147-1.794 1.318-3.222.607-.424-.21-.851-.664-1.188-.019-.299.573.195.879.659 1.044 1.42.507 2.854.995 4.185-.224 1.304-1.195 1.529-2.701 1.229-4.329-.047-.258-.33-.474-.504-.709-.144.029-.289.059-.433.089" fill="#231f20"/><path d="m93.968 54.607c-.16-.18-.288-.455-.487-.521-.642-.216-1.302-.425-1.971-.509-2.146-.269-2.827.276-2.952 2.359-.017.284.289.587.446.882.253-.215.617-.382.732-.653.19-.448-.115-1.163.562-1.329.595-.147 1.248-.121 1.87-.087.545.03 1.083.175 1.624.27.059-.138.117-.274.176-.412" fill="#231f20"/><path d="m60.884 55.82c.189-1.772-.444-2.894-1.27-3.924-.13-.163-.532-.116-.781-.161-.616 1.424-.006 2.528.687 3.556.193.287.779.316 1.364.529" fill="#231f20"/><path d="m52.496 54.898c-1.176.675-.801 1.589-.612 2.421.207.914.78 1.519 1.887 1.846.24-1.744-.297-3.034-1.275-4.267" fill="#231f20"/><path d="m50.992 49.267c-1.581 1.399-1.83 2.476-.853 3.543.274-1.136.53-2.201.853-3.543" fill="#231f20"/><path d="m54.848 47.55c.73.146 1.297.224 1.842.379.526.148 1.029.377 1.586.587-.433-1.511-2.036-1.976-3.428-.966" fill="#231f20"/><path d="m49.543 93.493c1.764.316 2.052.199 2.965-1.196-1.314-.359-2.178.237-2.965 1.196m-.32-1.24c.94-.447 1.944-.787 2.953-1.055.351-.093.834.101 1.194.284.592.301.742 1.083.388 1.618-.679 1.027-2.681 1.813-3.913 1.525-.454-.108-.901-.247-1.344-.37-.385-.928-.07-1.626.722-2.002" fill="#231f20"/><path d="m51.517 96.388c.472 1.224.819 1.4 2.777 1.341-.724-1.421-.959-1.529-2.777-1.341m2.146-.741c1.393.384 1.991 1.56 1.698 3.284-.875-.065-1.778-.053-2.647-.22-1.033-.197-1.822-.855-2.301-1.77-.332-.633.031-1.196.532-1.825.874.166 1.815.282 2.718.531" fill="#231f20"/><path d="m52.508 92.296c-1.314-.358-2.178.237-2.965 1.196 1.764.317 2.052.2 2.965-1.196" fill="#ffd201"/><path d="m54.294 97.729c-.724-1.421-.959-1.529-2.777-1.341.472 1.224.819 1.401 2.777 1.341" fill="#ffd101"/><path d="m72.336 27.203c-2.553 1.066-4.724 2.835-6.952 4.462-4.16 3.036-8.643 5.642-13.351 7.762-1.926.867-3.937 1.664-6.051 1.781-2.115.117-4.375-.548-5.709-2.169 5.469-.054 10.4-3.148 14.705-6.473 4.304-3.326 8.468-7.073 13.632-8.846 4.758-1.623 11.809-1.217 14.721 3.463-3.535-.771-7.558-1.415-10.995.02" fill="#80725e"/></g></svg>