<svg width="58" height="56" viewBox="0 0 58 56" fill="none" xmlns="http://www.w3.org/2000/svg">
<path d="M18.5791 15.5949C18.7321 15.4155 18.8929 15.2016 18.942 14.9792C19.1504 14.0295 19.6373 13.2163 20.1282 12.4008C20.5715 11.6634 21.0179 10.9275 21.4346 10.1752C22.6824 7.92297 23.917 5.66376 25.1859 3.35381C24.9292 2.99795 24.4929 2.87932 24.0138 2.67564C23.8772 2.90897 23.7461 3.10719 23.6384 3.3179C22.538 5.47254 21.4213 7.61629 20.534 9.87629C19.9862 11.2708 19.2807 12.6029 18.6502 13.9647C18.4199 14.4618 18.1999 14.9621 17.9673 15.4787C18.1679 15.6886 18.3482 15.8673 18.5791 15.5949ZM19.9003 15.6488C20.1524 15.8134 20.1735 16.1264 19.9292 16.2357C19.2846 16.5252 18.6751 16.7413 17.9143 16.3941C17.279 16.1038 16.9005 15.6753 16.5915 15.1158C16.4822 14.9184 16.4955 14.9106 16.7101 14.4095C16.9419 14.6171 17.1557 14.8083 17.3984 15.0261C17.9299 14.607 17.9517 13.9538 18.2803 13.4044C17.0894 12.4266 15.9399 11.4792 14.2972 11.3762C14.3003 12.1745 13.9257 12.6092 13.1617 12.8339C12.7918 12.9424 12.4297 13.2983 12.2073 13.6362C11.8015 14.2511 12.2549 14.9613 12.9924 14.9582C13.2686 14.9558 13.5449 14.9184 13.8203 14.923C15.1158 14.9402 15.8329 15.9477 15.4381 17.1807C15.1821 17.9759 15.3038 18.2537 16.0093 18.6517C16.3441 18.8398 16.6383 18.8523 16.9497 18.6268C17.297 18.3739 17.6396 18.1117 18.0056 17.8877C18.7243 17.4468 19.3985 17.5592 19.9799 18.1843C20.0002 18.2069 20.0221 18.2288 20.0439 18.2498C20.2539 18.4551 20.3538 18.814 20.7471 18.7571C21.1287 18.7017 21.5235 18.5589 21.6585 18.2069C22.0394 17.2166 22.677 16.9965 23.6111 17.3984C23.7141 17.4421 23.853 17.4156 23.974 17.4054C24.0302 17.4 24.084 17.3563 24.1386 17.3298C23.9474 15.9797 21.9402 14.5282 19.9011 14.3058C19.77 14.6881 19.6358 15.0846 19.4719 15.563C19.667 15.5989 19.8067 15.5879 19.9003 15.6488ZM22.7292 18.0625C22.5966 18.2498 22.4608 18.4129 22.357 18.594C22.037 19.1535 21.5002 19.3736 20.9195 19.4938C20.4739 19.5858 20.0627 19.4797 19.7693 19.0895C19.6772 18.9655 19.5913 18.8367 19.4906 18.722C19.0879 18.2592 18.8039 18.1983 18.2904 18.5105C18.0032 18.6853 17.7504 18.9147 17.478 19.1145C16.9068 19.532 16.3277 19.6889 15.7128 19.1886C15.5716 19.0739 15.3928 19.0045 15.243 18.8983C14.5999 18.4457 14.4618 17.9907 14.7116 17.2369C14.7787 17.0348 14.8497 16.8233 14.8559 16.6141C14.8793 15.9687 14.5196 15.5786 13.875 15.5442C13.569 15.5278 13.2623 15.5739 12.9549 15.577C11.8007 15.5864 11.0859 14.3666 11.6587 13.3568C11.9552 12.8332 12.3649 12.4313 12.958 12.251C13.0751 12.2151 13.196 12.187 13.3115 12.1456C13.5394 12.0653 13.7134 11.8912 13.6112 11.6641C13.537 11.4995 13.3295 11.3192 13.1578 11.2903C12.8956 11.2474 12.5897 11.27 12.343 11.3676C11.5182 11.6954 10.6683 11.9958 9.90825 12.4422C8.94135 13.0088 8.37636 13.939 8.13366 15.0268C7.81916 16.4393 7.67559 17.8682 7.75284 19.3236C7.83635 20.9273 8.49654 22.2205 9.6921 23.2506C10.6933 24.1121 11.732 24.919 12.8784 25.5933C14.4119 26.4931 15.9727 26.504 17.5623 25.8516C18.299 25.5488 18.9982 25.1531 19.7029 24.777C20.9515 24.1098 21.8544 23.0609 22.666 21.9442C23.1702 21.2496 23.5627 20.4747 24.002 19.7341C24.2424 19.3299 24.4032 18.9077 24.2526 18.3817C23.7609 18.2787 23.2607 18.1741 22.7292 18.0625ZM19.578 10.6489C20.0634 9.5251 20.5223 8.38809 21.021 7.26901C21.4572 6.28962 21.9169 5.32037 22.3953 4.36049C22.7378 3.67375 23.1257 3.0081 23.4964 2.33462C23.6712 2.01623 23.9193 1.91477 24.2651 2.07475C24.571 2.216 24.8894 2.32916 25.1937 2.47509C26.1239 2.92225 26.1926 3.1345 25.6885 4.02414C25.3708 4.5868 25.0361 5.13933 24.713 5.69809C23.3294 8.09466 21.9442 10.4904 20.5652 12.8894C20.4193 13.1422 20.1555 13.3841 20.2811 13.5644C21.0467 13.8875 21.6687 14.1294 22.2727 14.4088C22.6059 14.5633 22.9142 14.7732 23.2271 14.9683C24.4531 15.7307 25.228 16.7031 25.04 18.2826C24.9432 19.0942 24.798 19.8551 24.361 20.5418C23.9178 21.2395 23.4893 21.9535 22.9829 22.6052C22.1541 23.6688 21.2793 24.7013 20.047 25.3334C19.2815 25.7252 18.5198 26.1325 17.7254 26.4579C16.1779 27.0916 14.6093 27.1291 13.0907 26.3643C11.6056 25.6167 10.2212 24.7145 9.00535 23.5604C7.96744 22.5763 7.27054 21.4432 7.09339 19.9924C6.8585 18.0703 7.08636 16.1966 7.55694 14.3393C7.60844 14.1341 7.71226 13.9405 7.80591 13.7493C8.51762 12.3033 9.76311 11.5026 11.2162 10.9766C13.4348 10.1752 15.4935 10.4834 17.3672 11.9334C17.7473 12.2268 18.1226 12.5241 18.5799 12.8823C18.9373 12.0848 19.2666 11.3707 19.578 10.6489Z" fill="#111111"/>
<path d="M24.2527 18.3818C23.761 18.2788 23.2607 18.1734 22.7301 18.0626C22.5974 18.2499 22.4609 18.413 22.3571 18.5933C22.0371 19.1528 21.501 19.3737 20.9196 19.4938C20.474 19.5859 20.0635 19.479 19.7701 19.0888C19.678 18.9655 19.5914 18.8367 19.4907 18.722C19.0888 18.2593 18.8048 18.1984 18.2905 18.5105C18.0033 18.6854 17.7504 18.9148 17.4781 19.1138C16.9076 19.5321 16.3286 19.6889 15.7136 19.1887C15.5716 19.074 15.3929 19.0045 15.2431 18.8984C14.6008 18.4458 14.4619 17.9908 14.7116 17.2362C14.7787 17.0341 14.8497 16.8234 14.8568 16.6134C14.8794 15.9688 14.5196 15.5779 13.875 15.5435C13.5699 15.5279 13.2624 15.5732 12.955 15.5763C11.8015 15.5864 11.0867 14.3659 11.6588 13.3569C11.9553 12.8332 12.3658 12.4313 12.9581 12.2511C13.0759 12.2152 13.1961 12.1871 13.3116 12.1457C13.5395 12.0645 13.7135 11.8913 13.6113 11.6642C13.5379 11.4995 13.3303 11.3193 13.1579 11.2904C12.8957 11.2467 12.5905 11.2701 12.3431 11.3677C11.519 11.6954 10.6692 11.9951 9.90833 12.4423C8.94221 13.008 8.37642 13.939 8.1345 15.0269C7.81922 16.4394 7.67645 17.8683 7.75293 19.3237C7.83721 20.9274 8.49739 22.2205 9.69294 23.2498C10.6934 24.1122 11.7321 24.9191 12.8793 25.5925C14.4127 26.4931 15.9735 26.5033 17.5632 25.8509C18.2991 25.5489 18.9991 25.1532 19.7038 24.7763C20.9524 24.1098 21.8553 23.061 22.6669 21.9435C23.1702 21.2497 23.5628 20.4748 24.0029 19.7334C24.2425 19.3299 24.4033 18.9078 24.2527 18.3818Z" fill="#D81F26"/>
<path d="M19.472 15.563C19.6671 15.5989 19.8075 15.588 19.9012 15.6488C20.1524 15.8135 20.1736 16.1264 19.9301 16.2357C19.2855 16.5252 18.6752 16.7414 17.9151 16.3941C17.2791 16.1038 16.9006 15.6754 16.5923 15.1158C16.4831 14.9184 16.4964 14.9106 16.711 14.4096C16.9427 14.6172 17.1558 14.8084 17.3992 15.0269C17.9299 14.607 17.9525 13.9538 18.2811 13.4044C17.0894 12.4266 15.9407 11.4792 14.2972 11.3762C14.3003 12.1746 13.9265 12.6092 13.1617 12.834C12.7918 12.9424 12.4305 13.2983 12.2074 13.6362C11.8023 14.2512 12.2549 14.9613 12.9924 14.9582C13.2695 14.9559 13.5449 14.9184 13.8212 14.9231C15.1159 14.9402 15.8338 15.9477 15.4381 17.1807C15.1829 17.9759 15.3039 18.2538 16.0094 18.6518C16.3442 18.8398 16.6384 18.8523 16.9506 18.6268C17.2978 18.3739 17.6396 18.1117 18.0056 17.8878C18.7244 17.4468 19.3986 17.5592 19.98 18.1843C20.0011 18.2069 20.0222 18.2288 20.044 18.2499C20.2539 18.4551 20.3546 18.8141 20.7479 18.7571C21.1287 18.7017 21.5244 18.5589 21.6594 18.2069C22.0395 17.2166 22.677 16.9966 23.6119 17.3985C23.7149 17.4422 23.8531 17.4156 23.9748 17.4055C24.031 17.4 24.0841 17.3563 24.1387 17.3298C23.9475 15.9797 21.9403 14.5282 19.902 14.3058C19.7709 14.6882 19.6358 15.0846 19.472 15.563Z" fill="#82BE40"/>
<path d="M17.9674 15.4783C18.168 15.6883 18.3482 15.8662 18.5792 15.5938C18.7322 15.4143 18.8937 15.2013 18.9421 14.9781C19.1513 14.0292 19.6382 13.216 20.1291 12.4005C20.5716 11.6622 21.0179 10.9263 21.4347 10.174C22.6825 7.92184 23.9171 5.66341 25.186 3.35346C24.9292 2.99761 24.493 2.87819 24.0138 2.67529C23.8773 2.90863 23.7462 3.10608 23.6393 3.31679C22.5381 5.47222 21.4214 7.61593 20.5341 9.87516C19.9863 11.2697 19.2816 12.6018 18.6502 13.9644C18.42 14.4607 18.2 14.9617 17.9674 15.4783Z" fill="#B69267"/>
<path d="M10.6278 23.3376C10.6278 23.3376 7.02014 20.6227 8.4943 17.1133C9.96767 13.6031 10.8323 19.9086 12.6225 22.0266C14.412 24.1438 12.0333 24.8235 10.6278 23.3376Z" fill="white"/>
<path d="M15.7863 26.2931C15.7863 26.2931 23.3888 20.1234 22.0957 17.5075C20.8026 14.8924 19.0896 14.4601 19.0896 14.4601L20.2812 13.5642C20.2812 13.5642 27.4265 15.3716 24.3611 20.5417C21.2973 25.7117 15.7863 26.2931 15.7863 26.2931Z" fill="#271B10" fill-opacity="0.1"/>
<path d="M44.5791 15.5949C44.7321 15.4155 44.8929 15.2016 44.942 14.9792C45.1504 14.0295 45.6373 13.2163 46.1282 12.4008C46.5715 11.6634 47.0179 10.9275 47.4346 10.1752C48.6824 7.92297 49.917 5.66376 51.1859 3.35381C50.9292 2.99795 50.4929 2.87932 50.0138 2.67564C49.8772 2.90897 49.7461 3.10719 49.6384 3.3179C48.538 5.47254 47.4213 7.61629 46.534 9.87629C45.9862 11.2708 45.2807 12.6029 44.6502 13.9647C44.4199 14.4618 44.1999 14.9621 43.9673 15.4787C44.1679 15.6886 44.3482 15.8673 44.5791 15.5949ZM45.9003 15.6488C46.1524 15.8134 46.1735 16.1264 45.9292 16.2357C45.2846 16.5252 44.6751 16.7413 43.9143 16.3941C43.279 16.1038 42.9005 15.6753 42.5915 15.1158C42.4822 14.9184 42.4955 14.9106 42.7101 14.4095C42.9419 14.6171 43.1557 14.8083 43.3984 15.0261C43.9299 14.607 43.9517 13.9538 44.2803 13.4044C43.0894 12.4266 41.9399 11.4792 40.2972 11.3762C40.3003 12.1745 39.9257 12.6092 39.1617 12.8339C38.7918 12.9424 38.4297 13.2983 38.2073 13.6362C37.8015 14.2511 38.2549 14.9613 38.9924 14.9582C39.2686 14.9558 39.5449 14.9184 39.8203 14.923C41.1158 14.9402 41.8329 15.9477 41.4381 17.1807C41.1821 17.9759 41.3038 18.2537 42.0093 18.6517C42.3441 18.8398 42.6383 18.8523 42.9497 18.6268C43.297 18.3739 43.6396 18.1117 44.0056 17.8877C44.7243 17.4468 45.3985 17.5592 45.9799 18.1843C46.0002 18.2069 46.0221 18.2288 46.0439 18.2498C46.2539 18.4551 46.3538 18.814 46.7471 18.7571C47.1287 18.7017 47.5235 18.5589 47.6585 18.2069C48.0394 17.2166 48.677 16.9965 49.6111 17.3984C49.7141 17.4421 49.853 17.4156 49.974 17.4054C50.0302 17.4 50.084 17.3563 50.1386 17.3298C49.9474 15.9797 47.9402 14.5282 45.9011 14.3058C45.77 14.6881 45.6358 15.0846 45.4719 15.563C45.667 15.5989 45.8067 15.5879 45.9003 15.6488ZM48.7292 18.0625C48.5966 18.2498 48.4608 18.4129 48.357 18.594C48.037 19.1535 47.5002 19.3736 46.9195 19.4938C46.4739 19.5858 46.0627 19.4797 45.7693 19.0895C45.6772 18.9655 45.5913 18.8367 45.4906 18.722C45.0879 18.2592 44.8039 18.1983 44.2904 18.5105C44.0032 18.6853 43.7504 18.9147 43.478 19.1145C42.9068 19.532 42.3277 19.6889 41.7128 19.1886C41.5716 19.0739 41.3928 19.0045 41.243 18.8983C40.5999 18.4457 40.4618 17.9907 40.7116 17.2369C40.7787 17.0348 40.8497 16.8233 40.8559 16.6141C40.8793 15.9687 40.5196 15.5786 39.875 15.5442C39.569 15.5278 39.2623 15.5739 38.9549 15.577C37.8007 15.5864 37.0859 14.3666 37.6587 13.3568C37.9552 12.8332 38.3649 12.4313 38.958 12.251C39.0751 12.2151 39.196 12.187 39.3115 12.1456C39.5394 12.0653 39.7134 11.8912 39.6112 11.6641C39.537 11.4995 39.3295 11.3192 39.1578 11.2903C38.8956 11.2474 38.5897 11.27 38.343 11.3676C37.5182 11.6954 36.6683 11.9958 35.9082 12.4422C34.9413 13.0088 34.3764 13.939 34.1337 15.0268C33.8192 16.4393 33.6756 17.8682 33.7528 19.3236C33.8363 20.9273 34.4965 22.2205 35.6921 23.2506C36.6933 24.1121 37.732 24.919 38.8784 25.5933C40.4119 26.4931 41.9727 26.504 43.5623 25.8516C44.299 25.5488 44.9982 25.1531 45.7029 24.777C46.9515 24.1098 47.8544 23.0609 48.666 21.9442C49.1702 21.2496 49.5627 20.4747 50.002 19.7341C50.2424 19.3299 50.4032 18.9077 50.2526 18.3817C49.7609 18.2787 49.2607 18.1741 48.7292 18.0625ZM45.578 10.6489C46.0634 9.5251 46.5223 8.38809 47.021 7.26901C47.4572 6.28962 47.9169 5.32037 48.3953 4.36049C48.7378 3.67375 49.1257 3.0081 49.4964 2.33462C49.6712 2.01623 49.9193 1.91477 50.2651 2.07475C50.571 2.216 50.8894 2.32916 51.1937 2.47509C52.1239 2.92225 52.1926 3.1345 51.6885 4.02414C51.3708 4.5868 51.0361 5.13933 50.713 5.69809C49.3294 8.09466 47.9442 10.4904 46.5652 12.8894C46.4193 13.1422 46.1555 13.3841 46.2811 13.5644C47.0467 13.8875 47.6687 14.1294 48.2727 14.4088C48.6059 14.5633 48.9142 14.7732 49.2271 14.9683C50.4531 15.7307 51.228 16.7031 51.04 18.2826C50.9432 19.0942 50.798 19.8551 50.361 20.5418C49.9178 21.2395 49.4893 21.9535 48.9829 22.6052C48.1541 23.6688 47.2793 24.7013 46.047 25.3334C45.2815 25.7252 44.5198 26.1325 43.7254 26.4579C42.1779 27.0916 40.6093 27.1291 39.0907 26.3643C37.6056 25.6167 36.2212 24.7145 35.0054 23.5604C33.9674 22.5763 33.2705 21.4432 33.0934 19.9924C32.8585 18.0703 33.0864 16.1966 33.5569 14.3393C33.6084 14.1341 33.7123 13.9405 33.8059 13.7493C34.5176 12.3033 35.7631 11.5026 37.2162 10.9766C39.4348 10.1752 41.4935 10.4834 43.3672 11.9334C43.7473 12.2268 44.1226 12.5241 44.5799 12.8823C44.9373 12.0848 45.2666 11.3707 45.578 10.6489Z" fill="#111111"/>
<path d="M50.2527 18.3818C49.761 18.2788 49.2607 18.1734 48.7301 18.0626C48.5974 18.2499 48.4609 18.413 48.3571 18.5933C48.0371 19.1528 47.501 19.3737 46.9196 19.4938C46.474 19.5859 46.0635 19.479 45.7701 19.0888C45.678 18.9655 45.5914 18.8367 45.4907 18.722C45.0888 18.2593 44.8048 18.1984 44.2905 18.5105C44.0033 18.6854 43.7504 18.9148 43.4781 19.1138C42.9076 19.5321 42.3286 19.6889 41.7136 19.1887C41.5716 19.074 41.3929 19.0045 41.2431 18.8984C40.6008 18.4458 40.4619 17.9908 40.7116 17.2362C40.7787 17.0341 40.8497 16.8234 40.8568 16.6134C40.8794 15.9688 40.5196 15.5779 39.875 15.5435C39.5699 15.5279 39.2624 15.5732 38.955 15.5763C37.8015 15.5864 37.0867 14.3659 37.6588 13.3569C37.9553 12.8332 38.3658 12.4313 38.9581 12.2511C39.0759 12.2152 39.1961 12.1871 39.3116 12.1457C39.5395 12.0645 39.7135 11.8913 39.6113 11.6642C39.5379 11.4995 39.3303 11.3193 39.1579 11.2904C38.8957 11.2467 38.5905 11.2701 38.3431 11.3677C37.519 11.6954 36.6692 11.9951 35.9083 12.4423C34.9422 13.008 34.3764 13.939 34.1345 15.0269C33.8192 16.4394 33.6765 17.8683 33.7529 19.3237C33.8372 20.9274 34.4974 22.2205 35.6929 23.2498C36.6934 24.1122 37.7321 24.9191 38.8793 25.5925C40.4127 26.4931 41.9735 26.5033 43.5632 25.8509C44.2991 25.5489 44.9991 25.1532 45.7038 24.7763C46.9524 24.1098 47.8553 23.061 48.6669 21.9435C49.1702 21.2497 49.5628 20.4748 50.0029 19.7334C50.2425 19.3299 50.4033 18.9078 50.2527 18.3818Z" fill="#D81F26"/>
<path d="M45.472 15.563C45.6671 15.5989 45.8075 15.588 45.9012 15.6488C46.1524 15.8135 46.1736 16.1264 45.9301 16.2357C45.2855 16.5252 44.6752 16.7414 43.9151 16.3941C43.2791 16.1038 42.9006 15.6754 42.5923 15.1158C42.4831 14.9184 42.4964 14.9106 42.711 14.4096C42.9427 14.6172 43.1558 14.8084 43.3992 15.0269C43.9299 14.607 43.9525 13.9538 44.2811 13.4044C43.0894 12.4266 41.9407 11.4792 40.2972 11.3762C40.3003 12.1746 39.9265 12.6092 39.1617 12.834C38.7918 12.9424 38.4305 13.2983 38.2074 13.6362C37.8023 14.2512 38.2549 14.9613 38.9924 14.9582C39.2695 14.9559 39.5449 14.9184 39.8212 14.9231C41.1159 14.9402 41.8338 15.9477 41.4381 17.1807C41.1829 17.9759 41.3039 18.2538 42.0094 18.6518C42.3442 18.8398 42.6384 18.8523 42.9506 18.6268C43.2978 18.3739 43.6396 18.1117 44.0056 17.8878C44.7244 17.4468 45.3986 17.5592 45.98 18.1843C46.0011 18.2069 46.0222 18.2288 46.044 18.2499C46.2539 18.4551 46.3546 18.8141 46.7479 18.7571C47.1287 18.7017 47.5244 18.5589 47.6594 18.2069C48.0395 17.2166 48.677 16.9966 49.6119 17.3985C49.7149 17.4422 49.8531 17.4156 49.9748 17.4055C50.031 17.4 50.0841 17.3563 50.1387 17.3298C49.9475 15.9797 47.9403 14.5282 45.902 14.3058C45.7709 14.6882 45.6358 15.0846 45.472 15.563Z" fill="#82BE40"/>
<path d="M43.9674 15.4783C44.168 15.6883 44.3482 15.8662 44.5792 15.5938C44.7322 15.4143 44.8937 15.2013 44.9421 14.9781C45.1513 14.0292 45.6382 13.216 46.1291 12.4005C46.5716 11.6622 47.0179 10.9263 47.4347 10.174C48.6825 7.92184 49.9171 5.66341 51.186 3.35346C50.9292 2.99761 50.493 2.87819 50.0138 2.67529C49.8773 2.90863 49.7462 3.10608 49.6393 3.31679C48.5381 5.47222 47.4214 7.61593 46.5341 9.87516C45.9863 11.2697 45.2816 12.6018 44.6502 13.9644C44.42 14.4607 44.2 14.9617 43.9674 15.4783Z" fill="#B69267"/>
<path d="M36.6278 23.3376C36.6278 23.3376 33.0201 20.6227 34.4943 17.1133C35.9677 13.6031 36.8323 19.9086 38.6225 22.0266C40.412 24.1438 38.0333 24.8235 36.6278 23.3376Z" fill="white"/>
<path d="M41.7863 26.2931C41.7863 26.2931 49.3888 20.1234 48.0957 17.5075C46.8026 14.8924 45.0896 14.4601 45.0896 14.4601L46.2812 13.5642C46.2812 13.5642 53.4265 15.3716 50.3611 20.5417C47.2973 25.7117 41.7863 26.2931 41.7863 26.2931Z" fill="#271B10" fill-opacity="0.1"/>
<path d="M44.5791 39.5949C44.7321 39.4155 44.8929 39.2016 44.942 38.9792C45.1504 38.0295 45.6373 37.2163 46.1282 36.4008C46.5715 35.6634 47.0179 34.9275 47.4346 34.1752C48.6824 31.923 49.917 29.6638 51.1859 27.3538C50.9292 26.998 50.4929 26.8793 50.0138 26.6756C49.8772 26.909 49.7461 27.1072 49.6384 27.3179C48.538 29.4725 47.4213 31.6163 46.534 33.8763C45.9862 35.2708 45.2807 36.6029 44.6502 37.9647C44.4199 38.4618 44.1999 38.9621 43.9673 39.4787C44.1679 39.6886 44.3482 39.8673 44.5791 39.5949ZM45.9003 39.6488C46.1524 39.8134 46.1735 40.1264 45.9292 40.2357C45.2846 40.5252 44.6751 40.7413 43.9143 40.3941C43.279 40.1038 42.9005 39.6753 42.5915 39.1158C42.4822 38.9184 42.4955 38.9106 42.7101 38.4095C42.9419 38.6171 43.1557 38.8083 43.3984 39.0261C43.9299 38.607 43.9517 37.9538 44.2803 37.4044C43.0894 36.4266 41.9399 35.4792 40.2972 35.3762C40.3003 36.1745 39.9257 36.6092 39.1617 36.8339C38.7918 36.9424 38.4297 37.2983 38.2073 37.6362C37.8015 38.2511 38.2549 38.9613 38.9924 38.9582C39.2686 38.9558 39.5449 38.9184 39.8203 38.923C41.1158 38.9402 41.8329 39.9477 41.4381 41.1807C41.1821 41.9759 41.3038 42.2537 42.0093 42.6517C42.3441 42.8398 42.6383 42.8523 42.9497 42.6268C43.297 42.3739 43.6396 42.1117 44.0056 41.8877C44.7243 41.4468 45.3985 41.5592 45.9799 42.1843C46.0002 42.2069 46.0221 42.2288 46.0439 42.2498C46.2539 42.4551 46.3538 42.814 46.7471 42.7571C47.1287 42.7017 47.5235 42.5589 47.6585 42.2069C48.0394 41.2166 48.677 40.9965 49.6111 41.3984C49.7141 41.4421 49.853 41.4156 49.974 41.4054C50.0302 41.4 50.084 41.3563 50.1386 41.3298C49.9474 39.9797 47.9402 38.5282 45.9011 38.3058C45.77 38.6881 45.6358 39.0846 45.4719 39.563C45.667 39.5989 45.8067 39.5879 45.9003 39.6488ZM48.7292 42.0625C48.5966 42.2498 48.4608 42.4129 48.357 42.594C48.037 43.1535 47.5002 43.3736 46.9195 43.4938C46.4739 43.5858 46.0627 43.4797 45.7693 43.0895C45.6772 42.9655 45.5913 42.8367 45.4906 42.722C45.0879 42.2592 44.8039 42.1983 44.2904 42.5105C44.0032 42.6853 43.7504 42.9147 43.478 43.1145C42.9068 43.532 42.3277 43.6889 41.7128 43.1886C41.5716 43.0739 41.3928 43.0045 41.243 42.8983C40.5999 42.4457 40.4618 41.9907 40.7116 41.2369C40.7787 41.0348 40.8497 40.8233 40.8559 40.6141C40.8793 39.9687 40.5196 39.5786 39.875 39.5442C39.569 39.5278 39.2623 39.5739 38.9549 39.577C37.8007 39.5864 37.0859 38.3666 37.6587 37.3568C37.9552 36.8332 38.3649 36.4313 38.958 36.251C39.0751 36.2151 39.196 36.187 39.3115 36.1456C39.5394 36.0653 39.7134 35.8912 39.6112 35.6641C39.537 35.4995 39.3295 35.3192 39.1578 35.2903C38.8956 35.2474 38.5897 35.27 38.343 35.3676C37.5182 35.6954 36.6683 35.9958 35.9082 36.4422C34.9413 37.0088 34.3764 37.939 34.1337 39.0268C33.8192 40.4393 33.6756 41.8682 33.7528 43.3236C33.8363 44.9273 34.4965 46.2205 35.6921 47.2506C36.6933 48.1121 37.732 48.919 38.8784 49.5933C40.4119 50.4931 41.9727 50.504 43.5623 49.8516C44.299 49.5488 44.9982 49.1531 45.7029 48.777C46.9515 48.1098 47.8544 47.0609 48.666 45.9442C49.1702 45.2496 49.5627 44.4747 50.002 43.7341C50.2424 43.3299 50.4032 42.9077 50.2526 42.3817C49.7609 42.2787 49.2607 42.1741 48.7292 42.0625ZM45.578 34.6489C46.0634 33.5251 46.5223 32.3881 47.021 31.269C47.4572 30.2896 47.9169 29.3204 48.3953 28.3605C48.7378 27.6738 49.1257 27.0081 49.4964 26.3346C49.6712 26.0162 49.9193 25.9148 50.2651 26.0747C50.571 26.216 50.8894 26.3292 51.1937 26.4751C52.1239 26.9222 52.1926 27.1345 51.6885 28.0241C51.3708 28.5868 51.0361 29.1393 50.713 29.6981C49.3294 32.0947 47.9442 34.4904 46.5652 36.8894C46.4193 37.1422 46.1555 37.3841 46.2811 37.5644C47.0467 37.8875 47.6687 38.1294 48.2727 38.4088C48.6059 38.5633 48.9142 38.7732 49.2271 38.9683C50.4531 39.7307 51.228 40.7031 51.04 42.2826C50.9432 43.0942 50.798 43.8551 50.361 44.5418C49.9178 45.2395 49.4893 45.9535 48.9829 46.6052C48.1541 47.6688 47.2793 48.7013 46.047 49.3334C45.2815 49.7252 44.5198 50.1325 43.7254 50.4579C42.1779 51.0916 40.6093 51.1291 39.0907 50.3643C37.6056 49.6167 36.2212 48.7145 35.0054 47.5604C33.9674 46.5763 33.2705 45.4432 33.0934 43.9924C32.8585 42.0703 33.0864 40.1966 33.5569 38.3393C33.6084 38.1341 33.7123 37.9405 33.8059 37.7493C34.5176 36.3033 35.7631 35.5026 37.2162 34.9766C39.4348 34.1752 41.4935 34.4834 43.3672 35.9334C43.7473 36.2268 44.1226 36.5241 44.5799 36.8823C44.9373 36.0848 45.2666 35.3707 45.578 34.6489Z" fill="#111111"/>
<path d="M50.2527 42.3818C49.761 42.2788 49.2607 42.1734 48.7301 42.0626C48.5974 42.2499 48.4609 42.413 48.3571 42.5933C48.0371 43.1528 47.501 43.3737 46.9196 43.4938C46.474 43.5859 46.0635 43.479 45.7701 43.0888C45.678 42.9655 45.5914 42.8367 45.4907 42.722C45.0888 42.2593 44.8048 42.1984 44.2905 42.5105C44.0033 42.6854 43.7504 42.9148 43.4781 43.1138C42.9076 43.5321 42.3286 43.6889 41.7136 43.1887C41.5716 43.074 41.3929 43.0045 41.2431 42.8984C40.6008 42.4458 40.4619 41.9908 40.7116 41.2362C40.7787 41.0341 40.8497 40.8234 40.8568 40.6134C40.8794 39.9688 40.5196 39.5779 39.875 39.5435C39.5699 39.5279 39.2624 39.5732 38.955 39.5763C37.8015 39.5864 37.0867 38.3659 37.6588 37.3569C37.9553 36.8332 38.3658 36.4313 38.9581 36.2511C39.0759 36.2152 39.1961 36.1871 39.3116 36.1457C39.5395 36.0645 39.7135 35.8913 39.6113 35.6642C39.5379 35.4995 39.3303 35.3193 39.1579 35.2904C38.8957 35.2467 38.5905 35.2701 38.3431 35.3677C37.519 35.6954 36.6692 35.9951 35.9083 36.4423C34.9422 37.008 34.3764 37.939 34.1345 39.0269C33.8192 40.4394 33.6765 41.8683 33.7529 43.3237C33.8372 44.9274 34.4974 46.2205 35.6929 47.2498C36.6934 48.1122 37.7321 48.9191 38.8793 49.5925C40.4127 50.4931 41.9735 50.5033 43.5632 49.8509C44.2991 49.5489 44.9991 49.1532 45.7038 48.7763C46.9524 48.1098 47.8553 47.061 48.6669 45.9435C49.1702 45.2497 49.5628 44.4748 50.0029 43.7334C50.2425 43.3299 50.4033 42.9078 50.2527 42.3818Z" fill="#D81F26"/>
<path d="M45.472 39.563C45.6671 39.5989 45.8075 39.588 45.9012 39.6488C46.1524 39.8135 46.1736 40.1264 45.9301 40.2357C45.2855 40.5252 44.6752 40.7414 43.9151 40.3941C43.2791 40.1038 42.9006 39.6754 42.5923 39.1158C42.4831 38.9184 42.4964 38.9106 42.711 38.4096C42.9427 38.6172 43.1558 38.8084 43.3992 39.0269C43.9299 38.607 43.9525 37.9538 44.2811 37.4044C43.0894 36.4266 41.9407 35.4792 40.2972 35.3762C40.3003 36.1746 39.9265 36.6092 39.1617 36.834C38.7918 36.9424 38.4305 37.2983 38.2074 37.6362C37.8023 38.2512 38.2549 38.9613 38.9924 38.9582C39.2695 38.9559 39.5449 38.9184 39.8212 38.9231C41.1159 38.9402 41.8338 39.9477 41.4381 41.1807C41.1829 41.9759 41.3039 42.2538 42.0094 42.6518C42.3442 42.8398 42.6384 42.8523 42.9506 42.6268C43.2978 42.3739 43.6396 42.1117 44.0056 41.8878C44.7244 41.4468 45.3986 41.5592 45.98 42.1843C46.0011 42.2069 46.0222 42.2288 46.044 42.2499C46.2539 42.4551 46.3546 42.8141 46.7479 42.7571C47.1287 42.7017 47.5244 42.5589 47.6594 42.2069C48.0395 41.2166 48.677 40.9966 49.6119 41.3985C49.7149 41.4422 49.8531 41.4156 49.9748 41.4055C50.031 41.4 50.0841 41.3563 50.1387 41.3298C49.9475 39.9797 47.9403 38.5282 45.902 38.3058C45.7709 38.6882 45.6358 39.0846 45.472 39.563Z" fill="#82BE40"/>
<path d="M43.9674 39.4783C44.168 39.6883 44.3482 39.8662 44.5792 39.5938C44.7322 39.4143 44.8937 39.2013 44.9421 38.9781C45.1513 38.0292 45.6382 37.216 46.1291 36.4005C46.5716 35.6622 47.0179 34.9263 47.4347 34.174C48.6825 31.9218 49.9171 29.6634 51.186 27.3535C50.9292 26.9976 50.493 26.8782 50.0138 26.6753C49.8773 26.9086 49.7462 27.1061 49.6393 27.3168C48.5381 29.4722 47.4214 31.6159 46.5341 33.8752C45.9863 35.2697 45.2816 36.6018 44.6502 37.9644C44.42 38.4607 44.2 38.9617 43.9674 39.4783Z" fill="#B69267"/>
<path d="M36.6278 47.3376C36.6278 47.3376 33.0201 44.6227 34.4943 41.1133C35.9677 37.6031 36.8323 43.9086 38.6225 46.0266C40.412 48.1438 38.0333 48.8235 36.6278 47.3376Z" fill="white"/>
<path d="M41.7863 50.2931C41.7863 50.2931 49.3888 44.1234 48.0957 41.5075C46.8026 38.8924 45.0896 38.4601 45.0896 38.4601L46.2812 37.5642C46.2812 37.5642 53.4265 39.3716 50.3611 44.5417C47.2973 49.7117 41.7863 50.2931 41.7863 50.2931Z" fill="#271B10" fill-opacity="0.1"/>
<path d="M18.5791 39.5949C18.7321 39.4155 18.8929 39.2016 18.942 38.9792C19.1504 38.0295 19.6373 37.2163 20.1282 36.4008C20.5715 35.6634 21.0179 34.9275 21.4346 34.1752C22.6824 31.923 23.917 29.6638 25.1859 27.3538C24.9292 26.998 24.4929 26.8793 24.0138 26.6756C23.8772 26.909 23.7461 27.1072 23.6384 27.3179C22.538 29.4725 21.4213 31.6163 20.534 33.8763C19.9862 35.2708 19.2807 36.6029 18.6502 37.9647C18.4199 38.4618 18.1999 38.9621 17.9673 39.4787C18.1679 39.6886 18.3482 39.8673 18.5791 39.5949ZM19.9003 39.6488C20.1524 39.8134 20.1735 40.1264 19.9292 40.2357C19.2846 40.5252 18.6751 40.7413 17.9143 40.3941C17.279 40.1038 16.9005 39.6753 16.5915 39.1158C16.4822 38.9184 16.4955 38.9106 16.7101 38.4095C16.9419 38.6171 17.1557 38.8083 17.3984 39.0261C17.9299 38.607 17.9517 37.9538 18.2803 37.4044C17.0894 36.4266 15.9399 35.4792 14.2972 35.3762C14.3003 36.1745 13.9257 36.6092 13.1617 36.8339C12.7918 36.9424 12.4297 37.2983 12.2073 37.6362C11.8015 38.2511 12.2549 38.9613 12.9924 38.9582C13.2686 38.9558 13.5449 38.9184 13.8203 38.923C15.1158 38.9402 15.8329 39.9477 15.4381 41.1807C15.1821 41.9759 15.3038 42.2537 16.0093 42.6517C16.3441 42.8398 16.6383 42.8523 16.9497 42.6268C17.297 42.3739 17.6396 42.1117 18.0056 41.8877C18.7243 41.4468 19.3985 41.5592 19.9799 42.1843C20.0002 42.2069 20.0221 42.2288 20.0439 42.2498C20.2539 42.4551 20.3538 42.814 20.7471 42.7571C21.1287 42.7017 21.5235 42.5589 21.6585 42.2069C22.0394 41.2166 22.677 40.9965 23.6111 41.3984C23.7141 41.4421 23.853 41.4156 23.974 41.4054C24.0302 41.4 24.084 41.3563 24.1386 41.3298C23.9474 39.9797 21.9402 38.5282 19.9011 38.3058C19.77 38.6881 19.6358 39.0846 19.4719 39.563C19.667 39.5989 19.8067 39.5879 19.9003 39.6488ZM22.7292 42.0625C22.5966 42.2498 22.4608 42.4129 22.357 42.594C22.037 43.1535 21.5002 43.3736 20.9195 43.4938C20.4739 43.5858 20.0627 43.4797 19.7693 43.0895C19.6772 42.9655 19.5913 42.8367 19.4906 42.722C19.0879 42.2592 18.8039 42.1983 18.2904 42.5105C18.0032 42.6853 17.7504 42.9147 17.478 43.1145C16.9068 43.532 16.3277 43.6889 15.7128 43.1886C15.5716 43.0739 15.3928 43.0045 15.243 42.8983C14.5999 42.4457 14.4618 41.9907 14.7116 41.2369C14.7787 41.0348 14.8497 40.8233 14.8559 40.6141C14.8793 39.9687 14.5196 39.5786 13.875 39.5442C13.569 39.5278 13.2623 39.5739 12.9549 39.577C11.8007 39.5864 11.0859 38.3666 11.6587 37.3568C11.9552 36.8332 12.3649 36.4313 12.958 36.251C13.0751 36.2151 13.196 36.187 13.3115 36.1456C13.5394 36.0653 13.7134 35.8912 13.6112 35.6641C13.537 35.4995 13.3295 35.3192 13.1578 35.2903C12.8956 35.2474 12.5897 35.27 12.343 35.3676C11.5182 35.6954 10.6683 35.9958 9.90825 36.4422C8.94135 37.0088 8.37636 37.939 8.13366 39.0268C7.81916 40.4393 7.67559 41.8682 7.75284 43.3236C7.83635 44.9273 8.49654 46.2205 9.6921 47.2506C10.6933 48.1121 11.732 48.919 12.8784 49.5933C14.4119 50.4931 15.9727 50.504 17.5623 49.8516C18.299 49.5488 18.9982 49.1531 19.7029 48.777C20.9515 48.1098 21.8544 47.0609 22.666 45.9442C23.1702 45.2496 23.5627 44.4747 24.002 43.7341C24.2424 43.3299 24.4032 42.9077 24.2526 42.3817C23.7609 42.2787 23.2607 42.1741 22.7292 42.0625ZM19.578 34.6489C20.0634 33.5251 20.5223 32.3881 21.021 31.269C21.4572 30.2896 21.9169 29.3204 22.3953 28.3605C22.7378 27.6738 23.1257 27.0081 23.4964 26.3346C23.6712 26.0162 23.9193 25.9148 24.2651 26.0747C24.571 26.216 24.8894 26.3292 25.1937 26.4751C26.1239 26.9222 26.1926 27.1345 25.6885 28.0241C25.3708 28.5868 25.0361 29.1393 24.713 29.6981C23.3294 32.0947 21.9442 34.4904 20.5652 36.8894C20.4193 37.1422 20.1555 37.3841 20.2811 37.5644C21.0467 37.8875 21.6687 38.1294 22.2727 38.4088C22.6059 38.5633 22.9142 38.7732 23.2271 38.9683C24.4531 39.7307 25.228 40.7031 25.04 42.2826C24.9432 43.0942 24.798 43.8551 24.361 44.5418C23.9178 45.2395 23.4893 45.9535 22.9829 46.6052C22.1541 47.6688 21.2793 48.7013 20.047 49.3334C19.2815 49.7252 18.5198 50.1325 17.7254 50.4579C16.1779 51.0916 14.6093 51.1291 13.0907 50.3643C11.6056 49.6167 10.2212 48.7145 9.00535 47.5604C7.96744 46.5763 7.27054 45.4432 7.09339 43.9924C6.8585 42.0703 7.08636 40.1966 7.55694 38.3393C7.60844 38.1341 7.71226 37.9405 7.80591 37.7493C8.51762 36.3033 9.76311 35.5026 11.2162 34.9766C13.4348 34.1752 15.4935 34.4834 17.3672 35.9334C17.7473 36.2268 18.1226 36.5241 18.5799 36.8823C18.9373 36.0848 19.2666 35.3707 19.578 34.6489Z" fill="#111111"/>
<path d="M24.2527 42.3818C23.761 42.2788 23.2607 42.1734 22.7301 42.0626C22.5974 42.2499 22.4609 42.413 22.3571 42.5933C22.0371 43.1528 21.501 43.3737 20.9196 43.4938C20.474 43.5859 20.0635 43.479 19.7701 43.0888C19.678 42.9655 19.5914 42.8367 19.4907 42.722C19.0888 42.2593 18.8048 42.1984 18.2905 42.5105C18.0033 42.6854 17.7504 42.9148 17.4781 43.1138C16.9076 43.5321 16.3286 43.6889 15.7136 43.1887C15.5716 43.074 15.3929 43.0045 15.2431 42.8984C14.6008 42.4458 14.4619 41.9908 14.7116 41.2362C14.7787 41.0341 14.8497 40.8234 14.8568 40.6134C14.8794 39.9688 14.5196 39.5779 13.875 39.5435C13.5699 39.5279 13.2624 39.5732 12.955 39.5763C11.8015 39.5864 11.0867 38.3659 11.6588 37.3569C11.9553 36.8332 12.3658 36.4313 12.9581 36.2511C13.0759 36.2152 13.1961 36.1871 13.3116 36.1457C13.5395 36.0645 13.7135 35.8913 13.6113 35.6642C13.5379 35.4995 13.3303 35.3193 13.1579 35.2904C12.8957 35.2467 12.5905 35.2701 12.3431 35.3677C11.519 35.6954 10.6692 35.9951 9.90833 36.4423C8.94221 37.008 8.37642 37.939 8.1345 39.0269C7.81922 40.4394 7.67645 41.8683 7.75293 43.3237C7.83721 44.9274 8.49739 46.2205 9.69294 47.2498C10.6934 48.1122 11.7321 48.9191 12.8793 49.5925C14.4127 50.4931 15.9735 50.5033 17.5632 49.8509C18.2991 49.5489 18.9991 49.1532 19.7038 48.7763C20.9524 48.1098 21.8553 47.061 22.6669 45.9435C23.1702 45.2497 23.5628 44.4748 24.0029 43.7334C24.2425 43.3299 24.4033 42.9078 24.2527 42.3818Z" fill="#D81F26"/>
<path d="M19.472 39.563C19.6671 39.5989 19.8075 39.588 19.9012 39.6488C20.1524 39.8135 20.1736 40.1264 19.9301 40.2357C19.2855 40.5252 18.6752 40.7414 17.9151 40.3941C17.2791 40.1038 16.9006 39.6754 16.5923 39.1158C16.4831 38.9184 16.4964 38.9106 16.711 38.4096C16.9427 38.6172 17.1558 38.8084 17.3992 39.0269C17.9299 38.607 17.9525 37.9538 18.2811 37.4044C17.0894 36.4266 15.9407 35.4792 14.2972 35.3762C14.3003 36.1746 13.9265 36.6092 13.1617 36.834C12.7918 36.9424 12.4305 37.2983 12.2074 37.6362C11.8023 38.2512 12.2549 38.9613 12.9924 38.9582C13.2695 38.9559 13.5449 38.9184 13.8212 38.9231C15.1159 38.9402 15.8338 39.9477 15.4381 41.1807C15.1829 41.9759 15.3039 42.2538 16.0094 42.6518C16.3442 42.8398 16.6384 42.8523 16.9506 42.6268C17.2978 42.3739 17.6396 42.1117 18.0056 41.8878C18.7244 41.4468 19.3986 41.5592 19.98 42.1843C20.0011 42.2069 20.0222 42.2288 20.044 42.2499C20.2539 42.4551 20.3546 42.8141 20.7479 42.7571C21.1287 42.7017 21.5244 42.5589 21.6594 42.2069C22.0395 41.2166 22.677 40.9966 23.6119 41.3985C23.7149 41.4422 23.8531 41.4156 23.9748 41.4055C24.031 41.4 24.0841 41.3563 24.1387 41.3298C23.9475 39.9797 21.9403 38.5282 19.902 38.3058C19.7709 38.6882 19.6358 39.0846 19.472 39.563Z" fill="#82BE40"/>
<path d="M17.9674 39.4783C18.168 39.6883 18.3482 39.8662 18.5792 39.5938C18.7322 39.4143 18.8937 39.2013 18.9421 38.9781C19.1513 38.0292 19.6382 37.216 20.1291 36.4005C20.5716 35.6622 21.0179 34.9263 21.4347 34.174C22.6825 31.9218 23.9171 29.6634 25.186 27.3535C24.9292 26.9976 24.493 26.8782 24.0138 26.6753C23.8773 26.9086 23.7462 27.1061 23.6393 27.3168C22.5381 29.4722 21.4214 31.6159 20.5341 33.8752C19.9863 35.2697 19.2816 36.6018 18.6502 37.9644C18.42 38.4607 18.2 38.9617 17.9674 39.4783Z" fill="#B69267"/>
<path d="M10.6278 47.3376C10.6278 47.3376 7.02014 44.6227 8.4943 41.1133C9.96767 37.6031 10.8323 43.9086 12.6225 46.0266C14.412 48.1438 12.0333 48.8235 10.6278 47.3376Z" fill="white"/>
<path d="M15.7863 50.2931C15.7863 50.2931 23.3888 44.1234 22.0957 41.5075C20.8026 38.8924 19.0896 38.4601 19.0896 38.4601L20.2812 37.5642C20.2812 37.5642 27.4265 39.3716 24.3611 44.5417C21.2973 49.7117 15.7863 50.2931 15.7863 50.2931Z" fill="#271B10" fill-opacity="0.1"/>
</svg>
