<svg width="50" height="50" viewBox="0 0 50 50" fill="none" xmlns="http://www.w3.org/2000/svg">
<path d="M29.2736 12.888C29.3961 12.7442 29.5248 12.573 29.5642 12.3949C29.7311 11.6342 30.121 10.983 30.5142 10.3299C30.8692 9.73924 31.2267 9.14987 31.5604 8.54737C32.5598 6.74362 33.5486 4.93424 34.5648 3.08424C34.3592 2.79924 34.0098 2.70423 33.6261 2.54111C33.5167 2.72798 33.4117 2.88673 33.3254 3.05548C32.4442 4.78111 31.5498 6.498 30.8392 8.308C30.4004 9.42487 29.8354 10.4917 29.3304 11.5824C29.1461 11.9805 28.9698 12.3811 28.7836 12.7949C28.9442 12.963 29.0886 13.1061 29.2736 12.888ZM30.3317 12.9311C30.5336 13.063 30.5504 13.3136 30.3548 13.4011C29.8385 13.633 29.3504 13.8061 28.7411 13.528C28.2323 13.2955 27.9292 12.9524 27.6817 12.5042C27.5942 12.3461 27.6048 12.3399 27.7767 11.9386C27.9623 12.1049 28.1336 12.258 28.3279 12.4324C28.7536 12.0967 28.7711 11.5736 29.0342 11.1336C28.0804 10.3505 27.1598 9.59174 25.8442 9.50924C25.8467 10.1486 25.5467 10.4967 24.9348 10.6767C24.6385 10.7636 24.3486 11.0486 24.1704 11.3192C23.8454 11.8117 24.2086 12.3805 24.7992 12.378C25.0204 12.3761 25.2417 12.3461 25.4623 12.3499C26.4998 12.3636 27.0742 13.1705 26.7579 14.158C26.5529 14.7949 26.6504 15.0174 27.2154 15.3361C27.4835 15.4867 27.7192 15.4967 27.9686 15.3161C28.2467 15.1136 28.5211 14.9036 28.8142 14.7242C29.3898 14.3711 29.9298 14.4611 30.3954 14.9617C30.4117 14.9799 30.4292 14.9974 30.4467 15.0142C30.6148 15.1786 30.6948 15.4661 31.0098 15.4205C31.3154 15.3761 31.6317 15.2617 31.7398 14.9799C32.0448 14.1867 32.5554 14.0105 33.3036 14.3324C33.3861 14.3674 33.4973 14.3461 33.5942 14.338C33.6392 14.3336 33.6823 14.2986 33.7261 14.2774C33.5729 13.1961 31.9654 12.0336 30.3323 11.8555C30.2273 12.1617 30.1198 12.4792 29.9885 12.8624C30.1448 12.8911 30.2567 12.8824 30.3317 12.9311ZM32.5973 14.8642C32.4911 15.0142 32.3823 15.1449 32.2992 15.2899C32.0429 15.738 31.6129 15.9142 31.1479 16.0105C30.7911 16.0842 30.4617 15.9992 30.2267 15.6867C30.1529 15.5874 30.0842 15.4842 30.0035 15.3924C29.681 15.0217 29.4536 14.973 29.0423 15.223C28.8123 15.363 28.6098 15.5467 28.3917 15.7067C27.9342 16.0411 27.4704 16.1667 26.9779 15.7661C26.8648 15.6742 26.7217 15.6186 26.6017 15.5336C26.0867 15.1711 25.9761 14.8067 26.1761 14.203C26.2298 14.0411 26.2867 13.8717 26.2917 13.7042C26.3104 13.1874 26.0223 12.8749 25.506 12.8474C25.261 12.8342 25.0154 12.8711 24.7692 12.8736C23.8448 12.8811 23.2723 11.9042 23.7311 11.0955C23.9686 10.6761 24.2967 10.3542 24.7717 10.2099C24.8654 10.1811 24.9623 10.1586 25.0548 10.1255C25.2373 10.0611 25.3767 9.92174 25.2948 9.73986C25.2354 9.60799 25.0692 9.46361 24.9317 9.44048C24.7217 9.40611 24.4767 9.42423 24.2792 9.50236C23.6185 9.76486 22.9379 10.0055 22.3292 10.363C21.5548 10.8167 21.1023 11.5617 20.9079 12.433C20.6561 13.5642 20.5411 14.7086 20.6029 15.8742C20.6698 17.1586 21.1986 18.1942 22.1561 19.0192C22.9579 19.7092 23.7898 20.3555 24.7079 20.8955C25.9361 21.6161 27.1861 21.6249 28.4592 21.1024C29.0492 20.8599 29.6092 20.543 30.1736 20.2417C31.1736 19.7074 31.8967 18.8674 32.5467 17.973C32.9504 17.4167 33.2648 16.7961 33.6167 16.203C33.8092 15.8792 33.9379 15.5411 33.8173 15.1199C33.4236 15.0374 33.0229 14.9536 32.5973 14.8642ZM30.0735 8.92674C30.4623 8.02674 30.8298 7.11612 31.2292 6.21987C31.5785 5.43549 31.9467 4.65923 32.3298 3.89048C32.6042 3.34048 32.9148 2.80737 33.2117 2.26799C33.3517 2.01299 33.5504 1.93174 33.8273 2.05986C34.0723 2.17299 34.3273 2.26362 34.5711 2.38049C35.3161 2.73862 35.371 2.90861 34.9673 3.62111C34.7129 4.07173 34.4448 4.51424 34.186 4.96174C33.0779 6.88112 31.9685 8.79987 30.8642 10.7211C30.7473 10.9236 30.536 11.1174 30.6367 11.2617C31.2498 11.5205 31.7479 11.7142 32.2317 11.938C32.4985 12.0617 32.7454 12.2299 32.9961 12.3861C33.9779 12.9967 34.5986 13.7755 34.4479 15.0405C34.3704 15.6905 34.2542 16.2999 33.9042 16.8499C33.5492 17.4086 33.2061 17.9805 32.8004 18.5024C32.1367 19.3542 31.436 20.1811 30.4492 20.6874C29.836 21.0011 29.2261 21.3274 28.5898 21.588C27.3504 22.0955 26.0942 22.1255 24.8779 21.513C23.6885 20.9142 22.5798 20.1917 21.6061 19.2674C20.7748 18.4792 20.2167 17.5717 20.0748 16.4099C19.8867 14.8705 20.0692 13.3699 20.446 11.8824C20.4873 11.718 20.5704 11.563 20.6454 11.4099C21.2154 10.2517 22.2129 9.61048 23.3767 9.18923C25.1536 8.54735 26.8023 8.79424 28.3029 9.95549C28.6073 10.1905 28.9079 10.4286 29.2742 10.7155C29.5604 10.0767 29.8242 9.50486 30.0735 8.92674Z" fill="#111111"/>
<path d="M33.8174 15.1199C33.4236 15.0374 33.023 14.953 32.598 14.8642C32.4917 15.0142 32.3824 15.1449 32.2993 15.2892C32.043 15.7374 31.6136 15.9143 31.148 16.0105C30.7911 16.0843 30.4624 15.9986 30.2274 15.6861C30.1536 15.5874 30.0842 15.4842 30.0036 15.3924C29.6817 15.0217 29.4543 14.973 29.0424 15.223C28.8124 15.363 28.6099 15.5468 28.3918 15.7061C27.9349 16.0411 27.4711 16.1667 26.9786 15.7661C26.8649 15.6742 26.7217 15.6186 26.6017 15.5336C26.0874 15.1711 25.9761 14.8067 26.1761 14.2024C26.2299 14.0405 26.2867 13.8717 26.2924 13.7036C26.3105 13.1874 26.0224 12.8742 25.5061 12.8467C25.2618 12.8342 25.0155 12.8705 24.7692 12.873C23.8455 12.8811 23.273 11.9036 23.7311 11.0955C23.9686 10.6761 24.2974 10.3542 24.7718 10.2099C24.8661 10.1811 24.9624 10.1586 25.0549 10.1255C25.2374 10.0605 25.3767 9.92174 25.2949 9.73987C25.2361 9.60799 25.0699 9.46361 24.9317 9.44049C24.7217 9.40549 24.4774 9.42424 24.2792 9.50236C23.6192 9.76486 22.9386 10.0049 22.3292 10.363C21.5555 10.8161 21.1024 11.5618 20.9086 12.433C20.6561 13.5643 20.5418 14.7086 20.603 15.8742C20.6705 17.1586 21.1992 18.1942 22.1567 19.0186C22.958 19.7092 23.7899 20.3555 24.7086 20.8949C25.9368 21.6161 27.1868 21.6243 28.4599 21.1018C29.0493 20.8599 29.6099 20.543 30.1742 20.2411C31.1742 19.7074 31.8974 18.8674 32.5474 17.9724C32.9505 17.4167 33.2649 16.7961 33.6174 16.2024C33.8093 15.8792 33.938 15.5411 33.8174 15.1199Z" fill="#D81F26"/>
<path d="M29.9886 12.8624C30.1448 12.8911 30.2573 12.8824 30.3323 12.9312C30.5336 13.063 30.5505 13.3136 30.3555 13.4011C29.8392 13.633 29.3505 13.8061 28.7417 13.528C28.2323 13.2955 27.9292 12.9524 27.6823 12.5043C27.5948 12.3461 27.6055 12.3399 27.7774 11.9386C27.963 12.1049 28.1336 12.258 28.3286 12.433C28.7536 12.0968 28.7717 11.5737 29.0348 11.1337C28.0805 10.3505 27.1605 9.59178 25.8442 9.50928C25.8467 10.1487 25.5473 10.4968 24.9348 10.6768C24.6386 10.7636 24.3492 11.0486 24.1705 11.3193C23.8461 11.8118 24.2086 12.3805 24.7992 12.378C25.0211 12.3761 25.2417 12.3461 25.463 12.3499C26.4999 12.3636 27.0748 13.1705 26.758 14.158C26.5536 14.7949 26.6505 15.0174 27.2155 15.3362C27.4836 15.4868 27.7192 15.4968 27.9692 15.3161C28.2474 15.1136 28.5211 14.9036 28.8142 14.7243C29.3899 14.3711 29.9298 14.4612 30.3955 14.9618C30.4123 14.9799 30.4292 14.9974 30.4467 15.0143C30.6149 15.1786 30.6955 15.4662 31.0105 15.4205C31.3155 15.3762 31.6324 15.2618 31.7405 14.9799C32.0449 14.1868 32.5555 14.0105 33.3042 14.3324C33.3867 14.3674 33.4974 14.3461 33.5949 14.338C33.6399 14.3336 33.6824 14.2987 33.7261 14.2774C33.573 13.1962 31.9655 12.0337 30.333 11.8555C30.228 12.1618 30.1198 12.4793 29.9886 12.8624Z" fill="#82BE40"/>
<path d="M28.7836 12.7948C28.9442 12.9629 29.0886 13.1054 29.2736 12.8873C29.3961 12.7435 29.5255 12.5729 29.5642 12.3941C29.7317 11.6341 30.1217 10.9829 30.5148 10.3298C30.8692 9.73852 31.2267 9.14915 31.5604 8.54665C32.5598 6.7429 33.5486 4.93415 34.5648 3.08415C34.3592 2.79915 34.0098 2.70352 33.6261 2.54102C33.5167 2.72789 33.4117 2.88603 33.3261 3.05478C32.4442 4.78103 31.5498 6.4979 30.8392 8.30727C30.4004 9.42415 29.8361 10.491 29.3304 11.5823C29.1461 11.9798 28.9698 12.381 28.7836 12.7948Z" fill="#B69267"/>
<path d="M22.9055 19.0892C22.9055 19.0892 20.0161 16.9148 21.1968 14.1042C22.3768 11.2929 23.0693 16.3429 24.503 18.0392C25.9361 19.7348 24.0311 20.2792 22.9055 19.0892Z" fill="white"/>
<path d="M27.0367 21.4561C27.0367 21.4561 33.1255 16.5148 32.0898 14.4198C31.0542 12.3255 29.6824 11.9792 29.6824 11.9792L30.6367 11.2617C30.6367 11.2617 36.3592 12.7092 33.9042 16.8498C31.4505 20.9905 27.0367 21.4561 27.0367 21.4561Z" fill="#271B10" fill-opacity="0.1"/>
<path d="M15.2736 35.888C15.3961 35.7442 15.5248 35.573 15.5642 35.3949C15.7311 34.6342 16.121 33.983 16.5142 33.3299C16.8692 32.7392 17.2267 32.1499 17.5604 31.5474C18.5598 29.7436 19.5486 27.9342 20.5648 26.0842C20.3592 25.7992 20.0098 25.7042 19.6261 25.5411C19.5167 25.728 19.4117 25.8867 19.3254 26.0555C18.4442 27.7811 17.5498 29.498 16.8392 31.308C16.4004 32.4249 15.8354 33.4917 15.3304 34.5824C15.1461 34.9805 14.9698 35.3811 14.7836 35.7949C14.9442 35.963 15.0886 36.1061 15.2736 35.888ZM16.3317 35.9311C16.5336 36.063 16.5504 36.3136 16.3548 36.4011C15.8385 36.633 15.3504 36.8061 14.7411 36.528C14.2323 36.2955 13.9292 35.9524 13.6817 35.5042C13.5942 35.3461 13.6048 35.3399 13.7767 34.9386C13.9623 35.1049 14.1336 35.258 14.3279 35.4324C14.7536 35.0967 14.7711 34.5736 15.0342 34.1336C14.0804 33.3505 13.1598 32.5917 11.8442 32.5092C11.8467 33.1486 11.5467 33.4967 10.9348 33.6767C10.6385 33.7636 10.3486 34.0486 10.1704 34.3192C9.84545 34.8117 10.2086 35.3805 10.7992 35.378C11.0204 35.3761 11.2417 35.3461 11.4623 35.3499C12.4998 35.3636 13.0742 36.1705 12.7579 37.158C12.5529 37.7949 12.6504 38.0174 13.2154 38.3361C13.4835 38.4867 13.7192 38.4967 13.9686 38.3161C14.2467 38.1136 14.5211 37.9036 14.8142 37.7242C15.3898 37.3711 15.9298 37.4611 16.3954 37.9617C16.4117 37.9799 16.4292 37.9974 16.4467 38.0142C16.6148 38.1786 16.6948 38.4661 17.0098 38.4205C17.3154 38.3761 17.6317 38.2617 17.7398 37.9799C18.0448 37.1867 18.5554 37.0105 19.3036 37.3324C19.3861 37.3674 19.4973 37.3461 19.5942 37.338C19.6392 37.3336 19.6823 37.2986 19.7261 37.2774C19.5729 36.1961 17.9654 35.0336 16.3323 34.8555C16.2273 35.1617 16.1198 35.4792 15.9885 35.8624C16.1448 35.8911 16.2567 35.8824 16.3317 35.9311ZM18.5973 37.8642C18.4911 38.0142 18.3823 38.1449 18.2992 38.2899C18.0429 38.738 17.6129 38.9142 17.1479 39.0105C16.7911 39.0842 16.4617 38.9992 16.2267 38.6867C16.1529 38.5874 16.0842 38.4842 16.0035 38.3924C15.681 38.0217 15.4536 37.973 15.0423 38.223C14.8123 38.363 14.6098 38.5467 14.3917 38.7067C13.9342 39.0411 13.4704 39.1667 12.9779 38.7661C12.8648 38.6742 12.7217 38.6186 12.6017 38.5336C12.0867 38.1711 11.9761 37.8067 12.1761 37.203C12.2298 37.0411 12.2867 36.8717 12.2917 36.7042C12.3104 36.1874 12.0223 35.8749 11.506 35.8474C11.261 35.8342 11.0154 35.8711 10.7692 35.8736C9.84479 35.8811 9.27232 34.9042 9.73107 34.0955C9.96857 33.6761 10.2967 33.3542 10.7717 33.2099C10.8654 33.1811 10.9623 33.1586 11.0548 33.1255C11.2373 33.0611 11.3767 32.9217 11.2948 32.7399C11.2354 32.608 11.0692 32.4636 10.9317 32.4405C10.7217 32.4061 10.4767 32.4242 10.2792 32.5024C9.61854 32.7649 8.93792 33.0055 8.32917 33.363C7.55479 33.8167 7.1023 34.5617 6.90793 35.433C6.65605 36.5642 6.54107 37.7086 6.60294 38.8742C6.66982 40.1586 7.19856 41.1942 8.15606 42.0192C8.95793 42.7092 9.78981 43.3555 10.7079 43.8955C11.9361 44.6161 13.1861 44.6249 14.4592 44.1024C15.0492 43.8599 15.6092 43.543 16.1736 43.2417C17.1736 42.7074 17.8967 41.8674 18.5467 40.973C18.9504 40.4167 19.2648 39.7961 19.6167 39.203C19.8092 38.8792 19.9379 38.5411 19.8173 38.1199C19.4236 38.0374 19.0229 37.9536 18.5973 37.8642ZM16.0735 31.9267C16.4623 31.0267 16.8298 30.1161 17.2292 29.2199C17.5785 28.4355 17.9467 27.6592 18.3298 26.8905C18.6042 26.3405 18.9148 25.8074 19.2117 25.268C19.3517 25.013 19.5504 24.9317 19.8273 25.0599C20.0723 25.173 20.3273 25.2636 20.5711 25.3805C21.3161 25.7386 21.371 25.9086 20.9673 26.6211C20.7129 27.0717 20.4448 27.5142 20.186 27.9617C19.0779 29.8811 17.9685 31.7999 16.8642 33.7211C16.7473 33.9236 16.536 34.1174 16.6367 34.2617C17.2498 34.5205 17.7479 34.7142 18.2317 34.938C18.4985 35.0617 18.7454 35.2299 18.9961 35.3861C19.9779 35.9967 20.5986 36.7755 20.4479 38.0405C20.3704 38.6905 20.2542 39.2999 19.9042 39.8499C19.5492 40.4086 19.2061 40.9805 18.8004 41.5024C18.1367 42.3542 17.436 43.1811 16.4492 43.6874C15.836 44.0011 15.2261 44.3274 14.5898 44.588C13.3504 45.0955 12.0942 45.1255 10.8779 44.513C9.68855 43.9142 8.5798 43.1917 7.60605 42.2674C6.7748 41.4792 6.21667 40.5717 6.0748 39.4099C5.88667 37.8705 6.06917 36.3699 6.44604 34.8824C6.48729 34.718 6.57044 34.563 6.64544 34.4099C7.21544 33.2517 8.21293 32.6105 9.37668 32.1892C11.1536 31.5474 12.8023 31.7942 14.3029 32.9555C14.6073 33.1905 14.9079 33.4286 15.2742 33.7155C15.5604 33.0767 15.8242 32.5049 16.0735 31.9267Z" fill="#111111"/>
<path d="M19.8174 38.1199C19.4236 38.0374 19.023 37.953 18.598 37.8642C18.4917 38.0142 18.3824 38.1449 18.2993 38.2892C18.043 38.7374 17.6136 38.9143 17.148 39.0105C16.7911 39.0843 16.4624 38.9986 16.2274 38.6861C16.1536 38.5874 16.0842 38.4842 16.0036 38.3924C15.6817 38.0217 15.4543 37.973 15.0424 38.223C14.8124 38.363 14.6099 38.5468 14.3918 38.7061C13.9349 39.0411 13.4711 39.1667 12.9786 38.7661C12.8649 38.6742 12.7217 38.6186 12.6017 38.5336C12.0874 38.1711 11.9761 37.8067 12.1761 37.2024C12.2299 37.0405 12.2867 36.8717 12.2924 36.7036C12.3105 36.1874 12.0224 35.8742 11.5061 35.8467C11.2618 35.8342 11.0155 35.8705 10.7692 35.873C9.84549 35.8811 9.27302 34.9036 9.73115 34.0955C9.96865 33.6761 10.2974 33.3542 10.7718 33.2099C10.8661 33.1811 10.9624 33.1586 11.0549 33.1255C11.2374 33.0605 11.3767 32.9217 11.2949 32.7399C11.2361 32.608 11.0699 32.4636 10.9317 32.4405C10.7217 32.4055 10.4774 32.4242 10.2792 32.5024C9.61924 32.7649 8.93862 33.0049 8.32925 33.363C7.5555 33.8161 7.10237 34.5618 6.90862 35.433C6.65612 36.5643 6.54177 37.7086 6.60302 38.8742C6.67052 40.1586 7.19925 41.1942 8.15675 42.0186C8.958 42.7092 9.78988 43.3555 10.7086 43.8949C11.9368 44.6161 13.1868 44.6243 14.4599 44.1018C15.0493 43.8599 15.6099 43.543 16.1742 43.2411C17.1742 42.7074 17.8974 41.8674 18.5474 40.9724C18.9505 40.4167 19.2649 39.7961 19.6174 39.2024C19.8093 38.8792 19.938 38.5411 19.8174 38.1199Z" fill="#D81F26"/>
<path d="M15.9886 35.8624C16.1448 35.8911 16.2573 35.8824 16.3323 35.9312C16.5336 36.063 16.5505 36.3136 16.3555 36.4011C15.8392 36.633 15.3505 36.8061 14.7417 36.528C14.2323 36.2955 13.9292 35.9524 13.6823 35.5043C13.5948 35.3461 13.6055 35.3399 13.7774 34.9386C13.963 35.1049 14.1336 35.258 14.3286 35.433C14.7536 35.0968 14.7717 34.5737 15.0348 34.1337C14.0805 33.3505 13.1605 32.5918 11.8442 32.5093C11.8467 33.1487 11.5473 33.4968 10.9348 33.6768C10.6386 33.7636 10.3492 34.0486 10.1705 34.3193C9.84611 34.8118 10.2086 35.3805 10.7992 35.378C11.0211 35.3761 11.2417 35.3461 11.463 35.3499C12.4999 35.3636 13.0748 36.1705 12.758 37.158C12.5536 37.7949 12.6505 38.0174 13.2155 38.3362C13.4836 38.4868 13.7192 38.4968 13.9692 38.3161C14.2474 38.1136 14.5211 37.9036 14.8142 37.7243C15.3899 37.3711 15.9298 37.4612 16.3955 37.9618C16.4123 37.9799 16.4292 37.9974 16.4467 38.0143C16.6149 38.1786 16.6955 38.4662 17.0105 38.4205C17.3155 38.3762 17.6324 38.2618 17.7405 37.9799C18.0449 37.1868 18.5555 37.0105 19.3042 37.3324C19.3867 37.3674 19.4974 37.3461 19.5949 37.338C19.6399 37.3336 19.6824 37.2987 19.7261 37.2774C19.573 36.1962 17.9655 35.0337 16.333 34.8555C16.228 35.1618 16.1198 35.4793 15.9886 35.8624Z" fill="#82BE40"/>
<path d="M14.7836 35.7948C14.9442 35.9629 15.0886 36.1054 15.2736 35.8873C15.3961 35.7435 15.5255 35.5729 15.5642 35.3941C15.7317 34.6341 16.1217 33.9829 16.5148 33.3298C16.8692 32.7385 17.2267 32.1491 17.5604 31.5466C18.5598 29.7429 19.5486 27.9342 20.5648 26.0842C20.3592 25.7992 20.0098 25.7035 19.6261 25.541C19.5167 25.7279 19.4117 25.886 19.3261 26.0548C18.4442 27.781 17.5498 29.4979 16.8392 31.3073C16.4004 32.4241 15.8361 33.491 15.3304 34.5823C15.1461 34.9798 14.9698 35.381 14.7836 35.7948Z" fill="#B69267"/>
<path d="M8.90549 42.0892C8.90549 42.0892 6.01615 39.9148 7.19677 37.1042C8.37677 34.2929 9.06926 39.3429 10.503 41.0392C11.9361 42.7348 10.0311 43.2792 8.90549 42.0892Z" fill="white"/>
<path d="M13.0367 44.4561C13.0367 44.4561 19.1255 39.5148 18.0898 37.4198C17.0542 35.3255 15.6824 34.9792 15.6824 34.9792L16.6367 34.2617C16.6367 34.2617 22.3592 35.7092 19.9042 39.8498C17.4505 43.9905 13.0367 44.4561 13.0367 44.4561Z" fill="#271B10" fill-opacity="0.1"/>
<path d="M40.2736 35.888C40.3961 35.7442 40.5248 35.573 40.5642 35.3949C40.7311 34.6342 41.121 33.983 41.5142 33.3299C41.8692 32.7392 42.2267 32.1499 42.5604 31.5474C43.5598 29.7436 44.5486 27.9342 45.5648 26.0842C45.3592 25.7992 45.0098 25.7042 44.6261 25.5411C44.5167 25.728 44.4117 25.8867 44.3254 26.0555C43.4442 27.7811 42.5498 29.498 41.8392 31.308C41.4004 32.4249 40.8354 33.4917 40.3304 34.5824C40.1461 34.9805 39.9698 35.3811 39.7836 35.7949C39.9442 35.963 40.0886 36.1061 40.2736 35.888ZM41.3317 35.9311C41.5336 36.063 41.5504 36.3136 41.3548 36.4011C40.8385 36.633 40.3504 36.8061 39.7411 36.528C39.2323 36.2955 38.9292 35.9524 38.6817 35.5042C38.5942 35.3461 38.6048 35.3399 38.7767 34.9386C38.9623 35.1049 39.1336 35.258 39.3279 35.4324C39.7536 35.0967 39.7711 34.5736 40.0342 34.1336C39.0804 33.3505 38.1598 32.5917 36.8442 32.5092C36.8467 33.1486 36.5467 33.4967 35.9348 33.6767C35.6385 33.7636 35.3486 34.0486 35.1704 34.3192C34.8454 34.8117 35.2086 35.3805 35.7992 35.378C36.0204 35.3761 36.2417 35.3461 36.4623 35.3499C37.4998 35.3636 38.0742 36.1705 37.7579 37.158C37.5529 37.7949 37.6504 38.0174 38.2154 38.3361C38.4835 38.4867 38.7192 38.4967 38.9686 38.3161C39.2467 38.1136 39.5211 37.9036 39.8142 37.7242C40.3898 37.3711 40.9298 37.4611 41.3954 37.9617C41.4117 37.9799 41.4292 37.9974 41.4467 38.0142C41.6148 38.1786 41.6948 38.4661 42.0098 38.4205C42.3154 38.3761 42.6317 38.2617 42.7398 37.9799C43.0448 37.1867 43.5554 37.0105 44.3036 37.3324C44.3861 37.3674 44.4973 37.3461 44.5942 37.338C44.6392 37.3336 44.6823 37.2986 44.7261 37.2774C44.5729 36.1961 42.9654 35.0336 41.3323 34.8555C41.2273 35.1617 41.1198 35.4792 40.9885 35.8624C41.1448 35.8911 41.2567 35.8824 41.3317 35.9311ZM43.5973 37.8642C43.4911 38.0142 43.3823 38.1449 43.2992 38.2899C43.0429 38.738 42.6129 38.9142 42.1479 39.0105C41.7911 39.0842 41.4617 38.9992 41.2267 38.6867C41.1529 38.5874 41.0842 38.4842 41.0035 38.3924C40.681 38.0217 40.4536 37.973 40.0423 38.223C39.8123 38.363 39.6098 38.5467 39.3917 38.7067C38.9342 39.0411 38.4704 39.1667 37.9779 38.7661C37.8648 38.6742 37.7217 38.6186 37.6017 38.5336C37.0867 38.1711 36.9761 37.8067 37.1761 37.203C37.2298 37.0411 37.2867 36.8717 37.2917 36.7042C37.3104 36.1874 37.0223 35.8749 36.506 35.8474C36.261 35.8342 36.0154 35.8711 35.7692 35.8736C34.8448 35.8811 34.2723 34.9042 34.7311 34.0955C34.9686 33.6761 35.2967 33.3542 35.7717 33.2099C35.8654 33.1811 35.9623 33.1586 36.0548 33.1255C36.2373 33.0611 36.3767 32.9217 36.2948 32.7399C36.2354 32.608 36.0692 32.4636 35.9317 32.4405C35.7217 32.4061 35.4767 32.4242 35.2792 32.5024C34.6185 32.7649 33.9379 33.0055 33.3292 33.363C32.5548 33.8167 32.1023 34.5617 31.9079 35.433C31.6561 36.5642 31.5411 37.7086 31.6029 38.8742C31.6698 40.1586 32.1986 41.1942 33.1561 42.0192C33.9579 42.7092 34.7898 43.3555 35.7079 43.8955C36.9361 44.6161 38.1861 44.6249 39.4592 44.1024C40.0492 43.8599 40.6092 43.543 41.1736 43.2417C42.1736 42.7074 42.8967 41.8674 43.5467 40.973C43.9504 40.4167 44.2648 39.7961 44.6167 39.203C44.8092 38.8792 44.9379 38.5411 44.8173 38.1199C44.4236 38.0374 44.0229 37.9536 43.5973 37.8642ZM41.0735 31.9267C41.4623 31.0267 41.8298 30.1161 42.2292 29.2199C42.5785 28.4355 42.9467 27.6592 43.3298 26.8905C43.6042 26.3405 43.9148 25.8074 44.2117 25.268C44.3517 25.013 44.5504 24.9317 44.8273 25.0599C45.0723 25.173 45.3273 25.2636 45.5711 25.3805C46.3161 25.7386 46.371 25.9086 45.9673 26.6211C45.7129 27.0717 45.4448 27.5142 45.186 27.9617C44.0779 29.8811 42.9685 31.7999 41.8642 33.7211C41.7473 33.9236 41.536 34.1174 41.6367 34.2617C42.2498 34.5205 42.7479 34.7142 43.2317 34.938C43.4985 35.0617 43.7454 35.2299 43.9961 35.3861C44.9779 35.9967 45.5986 36.7755 45.4479 38.0405C45.3704 38.6905 45.2542 39.2999 44.9042 39.8499C44.5492 40.4086 44.2061 40.9805 43.8004 41.5024C43.1367 42.3542 42.436 43.1811 41.4492 43.6874C40.836 44.0011 40.2261 44.3274 39.5898 44.588C38.3504 45.0955 37.0942 45.1255 35.8779 44.513C34.6885 43.9142 33.5798 43.1917 32.6061 42.2674C31.7748 41.4792 31.2167 40.5717 31.0748 39.4099C30.8867 37.8705 31.0692 36.3699 31.446 34.8824C31.4873 34.718 31.5704 34.563 31.6454 34.4099C32.2154 33.2517 33.2129 32.6105 34.3767 32.1892C36.1536 31.5474 37.8023 31.7942 39.3029 32.9555C39.6073 33.1905 39.9079 33.4286 40.2742 33.7155C40.5604 33.0767 40.8242 32.5049 41.0735 31.9267Z" fill="#111111"/>
<path d="M44.8174 38.1199C44.4236 38.0374 44.023 37.953 43.598 37.8642C43.4917 38.0142 43.3824 38.1449 43.2993 38.2892C43.043 38.7374 42.6136 38.9143 42.148 39.0105C41.7911 39.0843 41.4624 38.9986 41.2274 38.6861C41.1536 38.5874 41.0842 38.4842 41.0036 38.3924C40.6817 38.0217 40.4543 37.973 40.0424 38.223C39.8124 38.363 39.6099 38.5468 39.3918 38.7061C38.9349 39.0411 38.4711 39.1667 37.9786 38.7661C37.8649 38.6742 37.7217 38.6186 37.6017 38.5336C37.0874 38.1711 36.9761 37.8067 37.1761 37.2024C37.2299 37.0405 37.2867 36.8717 37.2924 36.7036C37.3105 36.1874 37.0224 35.8742 36.5061 35.8467C36.2618 35.8342 36.0155 35.8705 35.7692 35.873C34.8455 35.8811 34.273 34.9036 34.7311 34.0955C34.9686 33.6761 35.2974 33.3542 35.7718 33.2099C35.8661 33.1811 35.9624 33.1586 36.0549 33.1255C36.2374 33.0605 36.3767 32.9217 36.2949 32.7399C36.2361 32.608 36.0699 32.4636 35.9317 32.4405C35.7217 32.4055 35.4774 32.4242 35.2792 32.5024C34.6192 32.7649 33.9386 33.0049 33.3292 33.363C32.5555 33.8161 32.1024 34.5618 31.9086 35.433C31.6561 36.5643 31.5418 37.7086 31.603 38.8742C31.6705 40.1586 32.1992 41.1942 33.1567 42.0186C33.958 42.7092 34.7899 43.3555 35.7086 43.8949C36.9368 44.6161 38.1868 44.6243 39.4599 44.1018C40.0493 43.8599 40.6099 43.543 41.1742 43.2411C42.1742 42.7074 42.8974 41.8674 43.5474 40.9724C43.9505 40.4167 44.2649 39.7961 44.6174 39.2024C44.8093 38.8792 44.938 38.5411 44.8174 38.1199Z" fill="#D81F26"/>
<path d="M40.9886 35.8624C41.1448 35.8911 41.2573 35.8824 41.3323 35.9312C41.5336 36.063 41.5505 36.3136 41.3555 36.4011C40.8392 36.633 40.3505 36.8061 39.7417 36.528C39.2323 36.2955 38.9292 35.9524 38.6823 35.5043C38.5948 35.3461 38.6055 35.3399 38.7774 34.9386C38.963 35.1049 39.1336 35.258 39.3286 35.433C39.7536 35.0968 39.7717 34.5737 40.0348 34.1337C39.0805 33.3505 38.1605 32.5918 36.8442 32.5093C36.8467 33.1487 36.5473 33.4968 35.9348 33.6768C35.6386 33.7636 35.3492 34.0486 35.1705 34.3193C34.8461 34.8118 35.2086 35.3805 35.7992 35.378C36.0211 35.3761 36.2417 35.3461 36.463 35.3499C37.4999 35.3636 38.0748 36.1705 37.758 37.158C37.5536 37.7949 37.6505 38.0174 38.2155 38.3362C38.4836 38.4868 38.7192 38.4968 38.9692 38.3161C39.2474 38.1136 39.5211 37.9036 39.8142 37.7243C40.3899 37.3711 40.9298 37.4612 41.3955 37.9618C41.4123 37.9799 41.4292 37.9974 41.4467 38.0143C41.6149 38.1786 41.6955 38.4662 42.0105 38.4205C42.3155 38.3762 42.6324 38.2618 42.7405 37.9799C43.0449 37.1868 43.5555 37.0105 44.3042 37.3324C44.3867 37.3674 44.4974 37.3461 44.5949 37.338C44.6399 37.3336 44.6824 37.2987 44.7261 37.2774C44.573 36.1962 42.9655 35.0337 41.333 34.8555C41.228 35.1618 41.1198 35.4793 40.9886 35.8624Z" fill="#82BE40"/>
<path d="M39.7836 35.7948C39.9442 35.9629 40.0886 36.1054 40.2736 35.8873C40.3961 35.7435 40.5255 35.5729 40.5642 35.3941C40.7317 34.6341 41.1217 33.9829 41.5148 33.3298C41.8692 32.7385 42.2267 32.1491 42.5604 31.5466C43.5598 29.7429 44.5486 27.9342 45.5648 26.0842C45.3592 25.7992 45.0098 25.7035 44.6261 25.541C44.5167 25.7279 44.4117 25.886 44.3261 26.0548C43.4442 27.781 42.5498 29.4979 41.8392 31.3073C41.4004 32.4241 40.8361 33.491 40.3304 34.5823C40.1461 34.9798 39.9698 35.381 39.7836 35.7948Z" fill="#B69267"/>
<path d="M33.9055 42.0892C33.9055 42.0892 31.0161 39.9148 32.1968 37.1042C33.3768 34.2929 34.0693 39.3429 35.503 41.0392C36.9361 42.7348 35.0311 43.2792 33.9055 42.0892Z" fill="white"/>
<path d="M38.0367 44.4561C38.0367 44.4561 44.1255 39.5148 43.0898 37.4198C42.0542 35.3255 40.6824 34.9792 40.6824 34.9792L41.6367 34.2617C41.6367 34.2617 47.3592 35.7092 44.9042 39.8498C42.4505 43.9905 38.0367 44.4561 38.0367 44.4561Z" fill="#271B10" fill-opacity="0.1"/>
</svg>
