<svg width="75" height="62" viewBox="0 0 75 62" fill="none" xmlns="http://www.w3.org/2000/svg">
<path d="M18.0695 9.9811C18.0952 9.46783 18.5096 9.1958 18.2767 8.71846C18.0621 8.27897 17.5639 8.38643 17.2983 8.09835C17.9004 7.22291 17.9364 7.06412 17.7243 6.19413C17.4985 6.2647 17.264 6.31218 17.0513 6.40809C16.4597 6.67564 16.3311 6.98617 16.5502 7.59471C16.719 8.0634 16.7918 8.52245 16.4947 8.96963C16.3484 9.1897 16.3548 9.40464 16.4848 9.62695C16.9772 9.43351 16.965 9.44986 17.4096 9.77964C17.5626 9.89288 17.7927 9.90123 18.0695 9.9811ZM12.9942 11.4706C12.1717 11.0683 11.823 11.2027 11.388 11.9976C11.8348 12.0878 15.4226 11.8658 16.0312 11.7102C15.6947 10.9092 15.4611 10.7629 14.7666 10.9181C14.2331 11.0375 14.2257 11.0272 14.3601 10.4771C14.382 10.3879 14.372 10.291 14.3762 10.2005C14.3091 10.1431 14.2597 10.0931 14.203 10.0526C13.5434 9.58268 13.1585 9.75815 13.0754 10.5678C13.0632 10.6862 13.0738 10.8068 13.0632 10.9255C13.0491 11.0827 13.024 11.2386 12.9942 11.4706ZM5.65313 13.0277C5.81834 13.8399 9.55496 24.0008 9.89949 24.482C8.7581 20.627 7.64944 16.8817 6.54463 13.1518C6.24244 13.0816 6.01178 13.0245 5.77953 12.9783C5.74199 12.9706 5.69548 13.0097 5.65313 13.0277ZM7.01523 13.1316C7.03576 13.2972 7.03544 13.37 7.05437 13.437C7.78161 15.9626 8.50917 18.4876 9.24026 21.0119C9.55143 22.0866 9.86549 23.161 10.1879 24.2331C10.3435 24.7505 10.3573 24.7508 10.875 24.8188C10.6793 23.6649 7.94425 13.6574 7.67703 13.1316H7.01523ZM13.3102 25.2589C12.6311 21.0026 11.9686 16.8516 11.3094 12.7188C10.4291 12.584 8.95988 12.7354 8.1919 13.0357C9.37467 17.1127 10.5199 21.2041 11.7287 25.2589H13.3102ZM17.1145 12.2379C17.0933 12.4268 17.0709 12.5417 17.0689 12.6572C17.0436 14.3359 17.0003 16.0149 17.0019 17.694C17.0045 19.997 17.0401 22.2999 17.066 24.6032C17.0683 24.7832 17.1071 24.9622 17.1363 25.2035C17.8097 25.0726 18.4731 25.3366 19.0713 24.9144C19.5618 20.6559 20.051 16.4105 20.5444 12.1266C19.3475 11.9931 18.2498 12.32 17.1145 12.2379ZM11.7088 12.5407C12.3943 16.841 13.059 21.0113 13.723 25.1784C14.7403 25.3937 15.6998 25.2814 16.7087 25.12C16.658 23.9004 16.581 22.7288 16.5659 21.5567C16.5287 18.6788 16.521 15.8006 16.4982 12.9225C16.4963 12.7152 16.469 12.5086 16.4508 12.2623C14.8471 12.3563 13.3054 12.4471 11.7088 12.5407ZM19.779 9.31128C20.3568 8.4538 20.3734 8.36397 20.078 7.79585C19.5577 7.8414 19.0572 7.94342 18.6963 8.40344C18.6963 8.47947 18.6752 8.5587 18.6999 8.61933C18.9004 9.10951 18.7409 9.56535 18.5417 9.99971C18.474 10.1479 18.2899 10.3045 18.1333 10.3378C17.7019 10.4302 17.2717 10.3994 16.9788 10.0408C16.2352 10.2685 16.222 10.2589 15.9539 9.56278C15.8894 9.39597 15.7967 9.23975 15.7418 9.1294C15.9202 8.85479 16.1604 8.63762 16.2082 8.38387C16.3706 7.52317 15.687 6.92072 14.8314 7.11352C14.6867 7.14592 14.5331 7.13854 14.2475 7.15971C14.4025 6.88511 14.4974 6.73209 14.5767 6.57169C14.6713 6.3805 14.6431 6.19829 14.4952 6.04238C14.3605 5.89931 14.2084 5.89963 14.0381 5.98432C13.894 6.05586 13.7404 6.10783 13.621 6.15595C13.3689 6.01512 13.4164 5.84702 13.5132 5.70299C13.7054 5.41684 13.6659 5.10406 13.6368 4.79738C13.6117 4.5353 13.4513 4.43135 13.187 4.45381C12.676 4.49647 12.3151 4.89362 12.3388 5.41267C12.3484 5.62568 12.4222 5.83643 12.429 6.04944C12.4328 6.16781 12.3577 6.28876 12.3375 6.35131C11.9458 6.29036 11.6202 6.2108 11.293 6.20406C11.1631 6.20118 10.9867 6.33431 10.9145 6.45525C10.8721 6.52647 10.9697 6.71285 11.0467 6.81582C11.1727 6.98424 11.3334 7.12732 11.4788 7.28066C12.3375 7.16453 12.6984 7.25852 12.7671 7.66721C12.813 7.94277 12.845 8.27383 12.7321 8.50673C12.642 8.69311 12.3244 8.76946 12.1053 8.89553C12.2923 9.81205 12.1473 9.68437 11.4361 9.87717C10.9283 10.7042 10.885 10.7196 10.0201 10.3709C9.88955 10.5345 9.77566 10.7189 9.62168 10.8598C9.38782 11.0737 9.11163 11.0856 8.81649 10.9627C8.52425 10.8408 8.45046 10.616 8.44822 10.3292C8.44437 9.79408 8.61696 9.3639 9.25598 9.00942C9.09623 9.37352 8.96726 9.59422 8.90439 9.83225C8.83895 10.0789 8.78184 10.3481 8.95507 10.5845C9.39745 10.5515 9.50428 10.5085 9.58512 10.2592C9.6358 10.103 9.62458 9.92785 9.65986 9.76489C9.69772 9.59037 9.70894 9.38057 10.0038 9.36229C10.0548 9.50151 10.116 9.62951 10.1484 9.76456C10.2039 9.9965 10.3178 10.1806 10.5687 10.1858C10.885 10.1915 10.9276 9.91502 10.9957 9.6895C11.046 9.52205 11.0717 9.34721 11.1329 9.05978C11.3543 9.3007 11.4884 9.44634 11.6494 9.62117C11.7437 9.53327 11.8695 9.47071 11.9 9.37736C12.0193 9.01166 11.5667 8.89617 11.48 8.56896C11.8284 8.46182 12.1406 8.3659 12.4883 8.25908C12.4222 8.03131 12.3658 7.83626 12.3 7.6101C12.0517 7.62165 11.8342 7.60434 11.6305 7.64861C11.44 7.69063 11.2638 7.79841 11.0515 7.88984C11.0216 7.74612 10.9806 7.67138 10.9992 7.61685C11.0659 7.41988 11.0977 7.21617 10.8956 7.10421C10.6707 6.98006 10.4173 7.00958 10.2286 7.19147C10.0958 7.31882 10.007 7.49237 9.91393 7.62422C9.76861 7.52862 9.71247 7.51162 9.69386 7.47505C9.66307 7.41571 9.63163 7.33839 9.6451 7.27873C9.67141 7.16388 9.74615 7.0593 9.76989 6.94381C9.85073 6.55597 9.69707 6.34939 9.30666 6.2987C8.65321 6.21369 7.98018 6.7507 7.88939 7.43688C7.83422 7.85135 7.91377 8.24336 8.08027 8.62831C8.19896 8.90291 8.30546 9.19868 8.06583 9.52108C7.84063 9.344 7.64751 9.19162 7.44958 9.03572C7.03736 9.47328 7.59554 9.85696 7.45215 10.3106C7.30939 10.2563 7.20706 10.2041 7.09799 10.1787C6.73389 10.0943 6.40957 10.2332 6.32135 10.5014C6.24307 10.7382 6.38647 11.0737 6.65337 11.2309C6.77527 11.3031 6.92958 11.3214 7.04731 11.3981C7.10954 11.4388 7.16536 11.5642 7.14771 11.6313C7.13103 11.6948 7.01587 11.7737 6.94241 11.7753C6.45127 11.7846 5.90271 11.3223 5.87063 10.8899C5.82668 10.3051 6.14812 9.8762 6.71465 9.76039C6.80415 9.74179 6.89172 9.71388 7.00688 9.6834C6.92701 9.16885 7.00881 8.75246 7.59234 8.68188C7.5362 8.25522 7.48648 7.87766 7.43644 7.50072C7.40949 7.29605 7.27026 7.21586 7.08645 7.2104C6.56772 7.195 6.09134 7.79072 6.22255 8.29276C6.26265 8.44706 6.33386 8.59303 6.37685 8.70659C6.11861 9.11175 5.80102 8.64467 5.55882 8.85255C5.24573 9.42452 5.24572 9.42453 5.70895 9.98528C5.39137 10.1069 5.06928 10.1829 4.79982 10.3465C4.50597 10.5245 4.33916 10.8225 4.3661 11.1825C4.54158 11.5459 4.88676 11.4725 5.18253 11.5366C5.27941 11.5575 5.35576 11.6711 5.45232 11.7509C5.33748 11.9415 5.24284 12.0987 5.14949 12.253C5.73558 12.6642 7.08548 12.799 7.94233 12.5426C8.09278 12.2421 7.77936 11.7836 8.1826 11.5745C8.4957 11.4122 8.85242 11.4029 9.29736 11.6621C9.07249 11.7756 8.94802 11.8565 8.81232 11.9017C8.66636 11.9505 8.50981 11.9652 8.3539 11.9954C8.36706 12.3001 8.49634 12.3781 8.73309 12.3524C9.44397 12.2748 10.1565 12.2065 10.8657 12.1346C11.1041 11.229 11.7187 10.7918 12.6307 10.7279C12.6789 10.5441 12.7202 10.3837 12.7629 10.2233C12.9907 9.36807 13.7664 9.14544 14.3983 9.76842C14.5956 9.9625 14.7393 10.2118 14.8895 10.4113C15.1916 10.4588 15.5461 10.4113 15.7383 10.5653C16.1855 10.9242 16.7035 11.2271 16.9974 11.8051C18.0881 11.7317 19.1746 11.6585 20.2432 11.5864C20.36 10.931 19.7623 11.2078 19.5843 10.9627C19.4765 10.5431 19.9702 10.6095 20.0729 10.3705C20.1563 9.96891 20.1069 9.60513 19.779 9.31128ZM4.71288 11.9758C3.857 11.3923 3.76782 10.8068 4.46683 10.1364C4.7764 9.83995 5.00096 9.5923 5.0016 9.13068C5.00193 8.71653 5.32977 8.46567 5.68489 8.32837C5.85748 7.2258 6.30242 6.69488 7.58496 6.88094C7.72643 6.71285 7.86565 6.52005 8.03183 6.3542C8.77607 5.61092 9.54501 5.72641 10.0464 6.64741C10.0676 6.6859 10.1119 6.71156 10.1789 6.77379C10.2572 6.69969 10.3926 6.63393 10.4083 6.54699C10.5215 5.91631 10.953 5.75464 11.5102 5.75432C11.6055 5.75432 11.7004 5.74469 11.831 5.73763C11.8509 5.59745 11.882 5.46239 11.8878 5.32669C11.9218 4.58053 12.5416 3.98737 13.281 4.0002C13.7234 4.0079 14.0118 4.23567 14.0814 4.66842C14.1192 4.90164 14.1099 5.14192 14.125 5.43448C14.7675 5.49928 15.1564 5.81751 15.0749 6.51909C15.4422 6.60795 15.7809 6.69039 16.1787 6.78695C16.4501 6.30736 16.9172 6.00967 17.5126 5.92273C17.9235 5.86274 18.0544 5.97085 18.1625 6.38852C18.2902 6.87998 18.1747 7.33615 17.9813 7.78238C18.1834 8.11247 18.4281 8.11375 18.6995 7.89369C19.0874 7.57931 19.5208 7.40897 20.0273 7.43945C20.4065 7.4619 20.5489 7.55589 20.6442 7.91615C20.7321 8.24721 20.7427 8.58404 20.5685 8.89521C20.4443 9.11656 20.3827 9.33085 20.5091 9.57241C20.5409 9.63272 20.5524 9.7142 20.5454 9.78285C20.4706 10.4729 20.649 11.1004 20.9926 11.6932C21.0343 11.7654 21.0468 11.8747 21.0291 11.9575C20.6888 13.5281 20.6214 15.1334 20.4184 16.7213C20.2333 18.1691 20.0639 19.6191 19.8974 21.0691C19.761 22.2586 19.6311 23.4487 19.5198 24.6405C19.5018 24.8336 19.5942 25.037 19.6539 25.3228C19.516 25.3924 19.3421 25.5258 19.1486 25.5669C18.8699 25.6259 18.5776 25.6266 18.2902 25.6369C17.357 25.6696 16.4235 25.709 15.4897 25.7199C14.7759 25.7279 14.0621 25.6933 13.3477 25.6843C13.135 25.6814 12.922 25.6959 12.7093 25.7081C11.9295 25.753 11.216 25.676 10.4641 25.3093C9.58736 24.8817 9.22583 24.2244 8.923 23.3922C7.6796 19.9729 6.40187 16.5661 5.13601 13.1554C5.08597 13.0206 5.06416 12.8407 4.96535 12.7659C4.67535 12.5459 4.64295 12.2571 4.71288 11.9758Z" fill="#111111"/>
<path d="M18.2835 11.3847C18.2726 11.3331 18.262 11.2818 18.2508 11.2304C17.8344 11.2882 17.5999 11.0056 17.3391 10.7358C17.1944 11.3504 17.1995 11.4017 17.5286 11.5483C17.6711 11.6119 17.8478 11.652 17.997 11.6282C18.1029 11.6115 18.1888 11.4704 18.2835 11.3847ZM13.5922 7.54194C13.3721 8.00998 13.4019 8.29806 13.6384 8.50497C13.8267 8.67018 14.1465 8.72568 14.3589 8.53032C14.6017 8.3064 14.8555 8.3112 15.1432 8.29549C15.5519 8.27335 15.6154 8.06708 15.379 7.63241C15.2382 7.70779 15.1015 7.83355 14.9552 7.84574C14.7836 7.85985 14.6036 7.77549 14.4221 7.7325C14.347 7.84382 14.3014 7.92657 14.2415 7.99715C14.1722 8.07927 14.0901 8.15113 13.9659 8.27496C13.8369 8.02185 13.7362 7.82456 13.5922 7.54194ZM19.779 9.31113C20.1069 9.60498 20.1563 9.96876 20.0729 10.3704C19.9702 10.6094 19.4765 10.543 19.5843 10.9626C19.7623 11.2077 20.36 10.9308 20.2432 11.5862C19.1746 11.6584 18.0881 11.7315 16.9974 11.805C16.7036 11.2269 16.1855 10.9241 15.7383 10.5651C15.5461 10.4111 15.1917 10.4586 14.8895 10.4111C14.7393 10.2116 14.5956 9.96234 14.3983 9.76826C13.7664 9.14527 12.9907 9.3679 12.7629 10.2231C12.7203 10.3835 12.6789 10.5439 12.6307 10.7278C11.7187 10.7916 11.1041 11.2288 10.8657 12.1344C10.1565 12.2063 9.44398 12.2746 8.7331 12.3523C8.49635 12.3779 8.36707 12.3 8.35391 11.9952C8.50982 11.9651 8.66637 11.9503 8.81233 11.9015C8.94803 11.8563 9.0725 11.7755 9.29737 11.6619C8.85243 11.4027 8.49571 11.412 8.18261 11.5743C7.77937 11.7835 8.09279 12.2419 7.94234 12.5425C7.0855 12.7988 5.73559 12.6641 5.1495 12.2528C5.24285 12.0985 5.33749 11.9413 5.45233 11.7508C5.35577 11.6709 5.27942 11.5573 5.18254 11.5365C4.88677 11.4723 4.54159 11.5458 4.36611 11.1823C4.33917 10.8224 4.50598 10.5244 4.79983 10.3463C5.06929 10.1827 5.39138 10.1067 5.70896 9.98511C5.24574 9.42436 5.24574 9.42437 5.55884 8.85239C5.80104 8.64452 6.11862 9.11159 6.37686 8.70643C6.33387 8.59286 6.26266 8.4469 6.22256 8.2926C6.09135 7.79055 6.56773 7.19484 7.08646 7.21024C7.27027 7.21569 7.4095 7.29589 7.43645 7.50056C7.48649 7.87749 7.53621 8.25507 7.59235 8.68173C7.00882 8.7523 6.92702 9.1687 7.0069 9.68325C6.89173 9.71373 6.80416 9.74163 6.71466 9.76024C6.14813 9.87605 5.82669 10.3049 5.87064 10.8898C5.90272 11.3222 6.45128 11.7845 6.94242 11.7752C7.01588 11.7735 7.13104 11.6946 7.14772 11.6311C7.16537 11.5641 7.10955 11.4386 7.04732 11.3979C6.92959 11.3212 6.77528 11.3029 6.65338 11.2311C6.38648 11.0736 6.24309 10.738 6.32136 10.5013C6.40958 10.2331 6.7339 10.0942 7.098 10.1786C7.20707 10.2039 7.3094 10.2562 7.45216 10.3104C7.59555 9.8568 7.03737 9.47313 7.44959 9.03556C7.64752 9.19147 7.84064 9.34385 8.06584 9.52092C8.30547 9.19853 8.19897 8.90276 8.08028 8.62816C7.91378 8.2432 7.83423 7.85118 7.8894 7.43672C7.98019 6.75054 8.65322 6.21354 9.30667 6.29855C9.69708 6.34923 9.85074 6.55582 9.7699 6.94366C9.74616 7.05915 9.67142 7.16373 9.64511 7.27857C9.63164 7.33824 9.66308 7.41555 9.69387 7.4749C9.71248 7.51147 9.76862 7.52847 9.91394 7.62407C10.007 7.49222 10.0958 7.31867 10.2286 7.19132C10.4173 7.00942 10.6707 6.97991 10.8956 7.10406C11.0977 7.21602 11.0659 7.41972 10.9992 7.61669C10.9806 7.67122 11.0216 7.74597 11.0515 7.88969C11.2638 7.79826 11.44 7.69047 11.6305 7.64877C11.8342 7.60418 12.0517 7.6215 12.3 7.60995C12.3658 7.83611 12.4222 8.03116 12.4883 8.25892C12.1406 8.36575 11.8284 8.46166 11.4801 8.56881C11.5667 8.89602 12.0193 9.0115 11.9 9.37721C11.8695 9.47056 11.7438 9.53312 11.6494 9.62102C11.4884 9.44618 11.3543 9.30054 11.133 9.05963C11.0717 9.34706 11.046 9.52188 10.9957 9.68934C10.9277 9.91486 10.8853 10.1914 10.5687 10.1856C10.3178 10.1805 10.2039 9.99634 10.1484 9.76441C10.116 9.62935 10.0548 9.50136 10.0038 9.36213C9.70895 9.38042 9.69773 9.59022 9.65987 9.76473C9.62459 9.9277 9.63581 10.1028 9.58513 10.2591C9.50429 10.5083 9.39746 10.5513 8.95508 10.5844C8.78185 10.3479 8.83896 10.0788 8.9044 9.8321C8.96727 9.59407 9.09624 9.37336 9.25599 9.00926C8.61697 9.36373 8.44438 9.79392 8.44823 10.329C8.45048 10.6158 8.52426 10.8407 8.81651 10.9626C9.11164 11.0854 9.38783 11.0736 9.62169 10.8596C9.77567 10.7188 9.88956 10.5343 10.0201 10.3707C10.885 10.7194 10.9283 10.704 11.4361 9.87701C12.1473 9.68421 12.2923 9.81189 12.1053 8.89538C12.3244 8.76931 12.642 8.69296 12.7321 8.50658C12.845 8.27368 12.813 7.94294 12.7671 7.66705C12.6984 7.25836 12.3375 7.16436 11.4788 7.28049C11.3335 7.12747 11.1727 6.98409 11.0467 6.81567C10.9697 6.71269 10.8722 6.5263 10.9145 6.45509C10.9867 6.33415 11.1631 6.20102 11.293 6.20391C11.6203 6.21064 11.9459 6.29021 12.3375 6.35116C12.3578 6.2886 12.4328 6.16766 12.429 6.04929C12.4222 5.83628 12.3484 5.62551 12.3388 5.4125C12.3151 4.89346 12.676 4.49632 13.187 4.45365C13.4513 4.4312 13.6117 4.53513 13.6368 4.79722C13.666 5.1039 13.7054 5.41667 13.5133 5.70282C13.4164 5.84686 13.3689 6.01496 13.621 6.15579C13.7404 6.10767 13.894 6.0557 14.0381 5.98416C14.2084 5.89947 14.3605 5.89915 14.4952 6.04223C14.6431 6.19813 14.6713 6.38034 14.5767 6.57154C14.4975 6.73193 14.4025 6.88496 14.2476 7.15956C14.5331 7.13838 14.6867 7.14576 14.8314 7.11336C15.687 6.92056 16.3706 7.52302 16.2083 8.38371C16.1605 8.63746 15.9202 8.85463 15.7418 9.12923C15.7967 9.23958 15.8894 9.39582 15.9539 9.56263C16.2221 10.2588 16.2352 10.2684 16.9788 10.0406C17.2717 10.3993 17.7019 10.4301 18.1333 10.3377C18.2899 10.3043 18.474 10.1478 18.5417 9.99955C18.7409 9.5652 18.9004 9.10934 18.6999 8.61917C18.6752 8.55854 18.6963 8.4793 18.6963 8.40327C19.0572 7.94325 19.5577 7.84125 20.078 7.79569C20.3735 8.36382 20.3568 8.45364 19.779 9.31113Z" fill="#FAE1BA"/>
<path d="M11.7087 12.5408C13.3057 12.4472 14.8471 12.3567 16.4507 12.2627C16.469 12.5087 16.4963 12.7157 16.4982 12.9226C16.521 15.8007 16.5287 18.6792 16.5662 21.5568C16.581 22.7293 16.658 23.9005 16.7086 25.1205C15.6997 25.2818 14.7402 25.3938 13.723 25.1789C13.059 21.0114 12.3943 16.8411 11.7087 12.5408Z" fill="white"/>
<path d="M17.1149 12.238C18.2502 12.3201 19.348 11.9932 20.5445 12.1267C20.0511 16.4106 19.5622 20.656 19.0717 24.9145C18.4731 25.3367 17.8101 25.0727 17.1364 25.2035C17.1075 24.9623 17.0684 24.783 17.0665 24.6033C17.0405 22.3 17.0045 19.997 17.002 17.6941C17.0007 16.0147 17.0437 14.336 17.069 12.6573C17.0709 12.5418 17.0937 12.4269 17.1149 12.238Z" fill="#D81F26"/>
<path d="M13.3105 25.2589H11.729C10.5203 21.2041 9.37471 17.1127 8.19226 13.0357C8.95992 12.7354 10.4295 12.584 11.3098 12.7187C11.969 16.8515 12.6314 21.0026 13.3105 25.2589Z" fill="#D81F26"/>
<path d="M7.01526 13.1318H7.67706C7.94429 13.6576 10.6794 23.6651 10.8751 24.819C10.3573 24.751 10.3435 24.7507 10.1879 24.2329C9.86552 23.1612 9.55146 22.0868 9.24029 21.0118C8.5092 18.4875 7.78164 15.9625 7.0544 13.4372C7.03515 13.3702 7.03579 13.2974 7.01526 13.1318Z" fill="white"/>
<path d="M5.65331 13.0275C5.69562 13.0098 5.74188 12.9705 5.7797 12.9781C6.01165 13.0243 6.24241 13.0814 6.54453 13.1516C7.64941 16.8816 8.75803 20.6266 9.89956 24.4818C9.55488 24.0008 5.81841 13.8398 5.65331 13.0275Z" fill="#D81F26"/>
<path d="M12.9942 11.4703C13.0243 11.2383 13.049 11.0824 13.0631 10.9256C13.0737 10.8069 13.0631 10.6862 13.0753 10.5679C13.1587 9.75785 13.5434 9.58238 14.2032 10.0523C14.2597 10.0928 14.3094 10.1428 14.3765 10.2002C14.372 10.2907 14.3819 10.3876 14.3601 10.4768C14.2257 11.0269 14.2331 11.0372 14.7665 10.9178C15.4611 10.7626 15.6946 10.9089 16.0314 11.7099C15.4226 11.8655 11.8351 12.0878 11.3879 11.9976C11.8233 11.2024 12.172 11.068 12.9942 11.4703Z" fill="#FCDD94"/>
<path d="M18.0696 9.98107C17.7927 9.90119 17.5627 9.89286 17.4097 9.77961C16.9651 9.44984 16.9773 9.43348 16.4848 9.62692C16.3549 9.40461 16.3485 9.18968 16.4948 8.96961C16.7918 8.52242 16.719 8.06336 16.5503 7.59468C16.3312 6.98613 16.4598 6.6756 17.0514 6.40806C17.264 6.31214 17.4985 6.26467 17.7244 6.19409C17.9364 7.06409 17.9005 7.22288 17.2984 8.09833C17.564 8.3864 18.0622 8.27894 18.2768 8.71843C18.5097 9.19577 18.0952 9.4678 18.0696 9.98107Z" fill="#FCDD94"/>
<path d="M13.5921 7.54224C13.7362 7.82454 13.8369 8.02182 13.9659 8.27493C14.09 8.1511 14.1721 8.07925 14.2414 7.99712C14.3014 7.92623 14.3473 7.84378 14.422 7.73279C14.6036 7.77577 14.7836 7.85983 14.9552 7.84539C15.1015 7.83352 15.2381 7.70777 15.379 7.63238C15.6154 8.06706 15.5519 8.27301 15.1432 8.29578C14.8554 8.31118 14.6017 8.30669 14.3588 8.52997C14.1468 8.72533 13.8266 8.67015 13.6383 8.50494C13.4019 8.29803 13.3721 8.00995 13.5921 7.54224Z" fill="#111111"/>
<path d="M18.2834 11.3848C18.1888 11.4705 18.1028 11.6116 17.9969 11.6283C17.8478 11.652 17.671 11.6119 17.5286 11.5484C17.1995 11.4018 17.1943 11.3505 17.339 10.7358C17.5998 11.0056 17.8343 11.2882 18.2507 11.2305C18.2619 11.2818 18.2725 11.3332 18.2834 11.3848Z" fill="#111111"/>
<path d="M11.388 24.8188C11.388 24.8188 5.84917 15.9533 6.23317 13.0787C6.61684 10.2044 5.50464 10.9101 7.00692 9.6834C8.5092 8.457 8.12104 6.81068 9.6939 7.47505C9.6939 7.47505 10.3358 6.09724 8.94548 5.92529C8.94548 5.92529 7.69823 6.24545 7.88943 7.43688C7.88943 7.43688 6.22033 6.21176 5.96466 8.09835V8.5619C5.96466 8.5619 4.95736 8.37681 5.16908 9.79536C5.16908 9.79536 3.19331 10.8723 4.71292 11.9758L5.06323 12.0188L5.22234 12.7836L9.33621 24.2879C9.33621 24.2879 10.8738 25.8588 11.388 24.8188Z" fill="#271B10" fill-opacity="0.1"/>
<path d="M55.0695 11.9811C55.0952 11.4678 55.5096 11.1958 55.2767 10.7185C55.0621 10.279 54.5639 10.3864 54.2983 10.0984C54.9004 9.22291 54.9364 9.06412 54.7243 8.19413C54.4985 8.2647 54.264 8.31218 54.0513 8.40809C53.4597 8.67564 53.3311 8.98617 53.5502 9.59471C53.719 10.0634 53.7918 10.5224 53.4947 10.9696C53.3484 11.1897 53.3548 11.4046 53.4848 11.6269C53.9772 11.4335 53.965 11.4499 54.4096 11.7796C54.5626 11.8929 54.7927 11.9012 55.0695 11.9811ZM49.9942 13.4706C49.1717 13.0683 48.823 13.2027 48.388 13.9976C48.8348 14.0878 52.4226 13.8658 53.0312 13.7102C52.6947 12.9092 52.4611 12.7629 51.7666 12.9181C51.2331 13.0375 51.2257 13.0272 51.3601 12.4771C51.382 12.3879 51.372 12.291 51.3762 12.2005C51.3091 12.1431 51.2597 12.0931 51.203 12.0526C50.5434 11.5827 50.1585 11.7581 50.0754 12.5678C50.0632 12.6862 50.0738 12.8068 50.0632 12.9255C50.0491 13.0827 50.024 13.2386 49.9942 13.4706ZM42.6531 15.0277C42.8183 15.8399 46.555 26.0008 46.8995 26.482C45.7581 22.627 44.6494 18.8817 43.5446 15.1518C43.2424 15.0816 43.0118 15.0245 42.7795 14.9783C42.742 14.9706 42.6955 15.0097 42.6531 15.0277ZM44.0152 15.1316C44.0358 15.2972 44.0354 15.37 44.0544 15.437C44.7816 17.9626 45.5092 20.4876 46.2403 23.0119C46.5514 24.0866 46.8655 25.161 47.1879 26.2331C47.3435 26.7505 47.3573 26.7508 47.875 26.8188C47.6793 25.6649 44.9443 15.6574 44.677 15.1316H44.0152ZM50.3102 27.2589C49.6311 23.0026 48.9686 18.8516 48.3094 14.7188C47.4291 14.584 45.9599 14.7354 45.1919 15.0357C46.3747 19.1127 47.5199 23.2041 48.7287 27.2589H50.3102ZM54.1145 14.2379C54.0933 14.4268 54.0709 14.5417 54.0689 14.6572C54.0436 16.3359 54.0003 18.0149 54.0019 19.694C54.0045 21.997 54.0401 24.2999 54.066 26.6032C54.0683 26.7832 54.1071 26.9622 54.1363 27.2035C54.8097 27.0726 55.4731 27.3366 56.0713 26.9144C56.5618 22.6559 57.051 18.4105 57.5444 14.1266C56.3475 13.9931 55.2498 14.32 54.1145 14.2379ZM48.7088 14.5407C49.3943 18.841 50.059 23.0113 50.723 27.1784C51.7403 27.3937 52.6998 27.2814 53.7087 27.12C53.658 25.9004 53.581 24.7288 53.5659 23.5567C53.5287 20.6788 53.521 17.8006 53.4982 14.9225C53.4963 14.7152 53.469 14.5086 53.4508 14.2623C51.8471 14.3563 50.3054 14.4471 48.7088 14.5407ZM56.779 11.3113C57.3568 10.4538 57.3734 10.364 57.078 9.79585C56.5577 9.8414 56.0572 9.94342 55.6963 10.4034C55.6963 10.4795 55.6752 10.5587 55.6999 10.6193C55.9004 11.1095 55.7409 11.5653 55.5417 11.9997C55.474 12.1479 55.2899 12.3045 55.1333 12.3378C54.7019 12.4302 54.2717 12.3994 53.9788 12.0408C53.2352 12.2685 53.222 12.2589 52.9539 11.5628C52.8894 11.396 52.7967 11.2397 52.7418 11.1294C52.9202 10.8548 53.1604 10.6376 53.2082 10.3839C53.3706 9.52317 52.687 8.92072 51.8314 9.11352C51.6867 9.14592 51.5331 9.13854 51.2475 9.15971C51.4025 8.88511 51.4974 8.73209 51.5767 8.57169C51.6713 8.3805 51.6431 8.19829 51.4952 8.04238C51.3605 7.89931 51.2084 7.89963 51.0381 7.98432C50.894 8.05586 50.7404 8.10783 50.621 8.15595C50.3689 8.01512 50.4164 7.84702 50.5132 7.70299C50.7054 7.41684 50.6659 7.10406 50.6368 6.79738C50.6117 6.5353 50.4513 6.43135 50.187 6.45381C49.676 6.49647 49.3151 6.89362 49.3388 7.41267C49.3484 7.62568 49.4222 7.83643 49.429 8.04944C49.4328 8.16781 49.3577 8.28876 49.3375 8.35131C48.9458 8.29036 48.6202 8.2108 48.293 8.20406C48.1631 8.20118 47.9867 8.33431 47.9145 8.45525C47.8721 8.52647 47.9697 8.71285 48.0467 8.81582C48.1727 8.98424 48.3334 9.12732 48.4788 9.28066C49.3375 9.16453 49.6984 9.25852 49.7671 9.66721C49.813 9.94277 49.845 10.2738 49.7321 10.5067C49.642 10.6931 49.3244 10.7695 49.1053 10.8955C49.2923 11.812 49.1473 11.6844 48.4361 11.8772C47.9283 12.7042 47.885 12.7196 47.0201 12.3709C46.8895 12.5345 46.7757 12.7189 46.6217 12.8598C46.3878 13.0737 46.1116 13.0856 45.8165 12.9627C45.5243 12.8408 45.4505 12.616 45.4482 12.3292C45.4444 11.7941 45.617 11.3639 46.256 11.0094C46.0962 11.3735 45.9673 11.5942 45.9044 11.8322C45.8389 12.0789 45.7818 12.3481 45.9551 12.5845C46.3974 12.5515 46.5043 12.5085 46.5851 12.2592C46.6358 12.103 46.6246 11.9278 46.6599 11.7649C46.6977 11.5904 46.7089 11.3806 47.0038 11.3623C47.0548 11.5015 47.116 11.6295 47.1484 11.7646C47.2039 11.9965 47.3178 12.1806 47.5687 12.1858C47.885 12.1915 47.9276 11.915 47.9957 11.6895C48.046 11.522 48.0717 11.3472 48.1329 11.0598C48.3543 11.3007 48.4884 11.4463 48.6494 11.6212C48.7437 11.5333 48.8695 11.4707 48.9 11.3774C49.0193 11.0117 48.5667 10.8962 48.48 10.569C48.8284 10.4618 49.1406 10.3659 49.4883 10.2591C49.4222 10.0313 49.3658 9.83626 49.3 9.6101C49.0517 9.62165 48.8342 9.60434 48.6305 9.64861C48.44 9.69063 48.2638 9.79841 48.0515 9.88984C48.0216 9.74612 47.9806 9.67138 47.9992 9.61685C48.0659 9.41988 48.0977 9.21617 47.8956 9.10421C47.6707 8.98006 47.4173 9.00958 47.2286 9.19147C47.0958 9.31882 47.007 9.49237 46.9139 9.62422C46.7686 9.52862 46.7125 9.51162 46.6939 9.47505C46.6631 9.41571 46.6316 9.33839 46.6451 9.27873C46.6714 9.16388 46.7462 9.0593 46.7699 8.94381C46.8507 8.55597 46.6971 8.34939 46.3067 8.2987C45.6532 8.21369 44.9802 8.7507 44.8894 9.43688C44.8342 9.85135 44.9138 10.2434 45.0803 10.6283C45.199 10.9029 45.3055 11.1987 45.0658 11.5211C44.8406 11.344 44.6475 11.1916 44.4496 11.0357C44.0374 11.4733 44.5955 11.857 44.4521 12.3106C44.3094 12.2563 44.2071 12.2041 44.098 12.1787C43.7339 12.0943 43.4096 12.2332 43.3213 12.5014C43.2431 12.7382 43.3865 13.0737 43.6534 13.2309C43.7753 13.3031 43.9296 13.3214 44.0473 13.3981C44.1095 13.4388 44.1654 13.5642 44.1477 13.6313C44.131 13.6948 44.0159 13.7737 43.9424 13.7753C43.4513 13.7846 42.9027 13.3223 42.8706 12.8899C42.8267 12.3051 43.1481 11.8762 43.7146 11.7604C43.8041 11.7418 43.8917 11.7139 44.0069 11.6834C43.927 11.1688 44.0088 10.7525 44.5923 10.6819C44.5362 10.2552 44.4865 9.87766 44.4364 9.50072C44.4095 9.29605 44.2703 9.21586 44.0864 9.2104C43.5677 9.195 43.0913 9.79072 43.2225 10.2928C43.2626 10.4471 43.3339 10.593 43.3768 10.7066C43.1186 11.1118 42.801 10.6447 42.5588 10.8525C42.2457 11.4245 42.2457 11.4245 42.709 11.9853C42.3914 12.1069 42.0693 12.1829 41.7998 12.3465C41.506 12.5245 41.3392 12.8225 41.3661 13.1825C41.5416 13.5459 41.8868 13.4725 42.1825 13.5366C42.2794 13.5575 42.3558 13.6711 42.4523 13.7509C42.3375 13.9415 42.2428 14.0987 42.1495 14.253C42.7356 14.6642 44.0855 14.799 44.9423 14.5426C45.0928 14.2421 44.7794 13.7836 45.1826 13.5745C45.4957 13.4122 45.8524 13.4029 46.2974 13.6621C46.0725 13.7756 45.948 13.8565 45.8123 13.9017C45.6664 13.9505 45.5098 13.9652 45.3539 13.9954C45.3671 14.3001 45.4963 14.3781 45.7331 14.3524C46.444 14.2748 47.1565 14.2065 47.8657 14.1346C48.1041 13.229 48.7187 12.7918 49.6307 12.7279C49.6789 12.5441 49.7202 12.3837 49.7629 12.2233C49.9907 11.3681 50.7664 11.1454 51.3983 11.7684C51.5956 11.9625 51.7393 12.2118 51.8895 12.4113C52.1916 12.4588 52.5461 12.4113 52.7383 12.5653C53.1855 12.9242 53.7035 13.2271 53.9974 13.8051C55.0881 13.7317 56.1746 13.6585 57.2432 13.5864C57.36 12.931 56.7623 13.2078 56.5843 12.9627C56.4765 12.5431 56.9702 12.6095 57.0729 12.3705C57.1563 11.9689 57.1069 11.6051 56.779 11.3113ZM41.7129 13.9758C40.857 13.3923 40.7678 12.8068 41.4668 12.1364C41.7764 11.8399 42.001 11.5923 42.0016 11.1307C42.0019 10.7165 42.3298 10.4657 42.6849 10.3284C42.8575 9.2258 43.3024 8.69488 44.585 8.88094C44.7264 8.71285 44.8657 8.52005 45.0318 8.3542C45.7761 7.61092 46.545 7.72641 47.0464 8.64741C47.0676 8.6859 47.1119 8.71156 47.1789 8.77379C47.2572 8.69969 47.3926 8.63393 47.4083 8.54699C47.5215 7.91631 47.953 7.75464 48.5102 7.75432C48.6055 7.75432 48.7004 7.74469 48.831 7.73763C48.8509 7.59745 48.882 7.46239 48.8878 7.32669C48.9218 6.58053 49.5416 5.98737 50.281 6.0002C50.7234 6.0079 51.0118 6.23567 51.0814 6.66842C51.1192 6.90164 51.1099 7.14192 51.125 7.43448C51.7675 7.49928 52.1564 7.81751 52.0749 8.51909C52.4422 8.60795 52.7809 8.69039 53.1787 8.78695C53.4501 8.30736 53.9172 8.00967 54.5126 7.92273C54.9235 7.86274 55.0544 7.97085 55.1625 8.38852C55.2902 8.87998 55.1747 9.33615 54.9813 9.78238C55.1834 10.1125 55.4281 10.1138 55.6995 9.89369C56.0874 9.57931 56.5208 9.40897 57.0273 9.43945C57.4065 9.4619 57.5489 9.55589 57.6442 9.91615C57.7321 10.2472 57.7427 10.584 57.5685 10.8952C57.4443 11.1166 57.3827 11.3308 57.5091 11.5724C57.5409 11.6327 57.5524 11.7142 57.5454 11.7828C57.4706 12.4729 57.649 13.1004 57.9926 13.6932C58.0343 13.7654 58.0468 13.8747 58.0291 13.9575C57.6888 15.5281 57.6214 17.1334 57.4184 18.7213C57.2333 20.1691 57.0639 21.6191 56.8974 23.0691C56.761 24.2586 56.6311 25.4487 56.5198 26.6405C56.5018 26.8336 56.5942 27.037 56.6539 27.3228C56.516 27.3924 56.3421 27.5258 56.1486 27.5669C55.8699 27.6259 55.5776 27.6266 55.2902 27.6369C54.357 27.6696 53.4235 27.709 52.4897 27.7199C51.7759 27.7279 51.0621 27.6933 50.3477 27.6843C50.135 27.6814 49.922 27.6959 49.7093 27.7081C48.9295 27.753 48.216 27.676 47.4641 27.3093C46.5874 26.8817 46.2258 26.2244 45.923 25.3922C44.6796 21.9729 43.4019 18.5661 42.136 15.1554C42.086 15.0206 42.0642 14.8407 41.9654 14.7659C41.6754 14.5459 41.6429 14.2571 41.7129 13.9758Z" fill="#111111"/>
<path d="M55.2835 13.3847C55.2726 13.3331 55.262 13.2818 55.2508 13.2304C54.8344 13.2882 54.5999 13.0056 54.3391 12.7358C54.1944 13.3504 54.1995 13.4017 54.5286 13.5483C54.6711 13.6119 54.8478 13.652 54.997 13.6282C55.1029 13.6115 55.1888 13.4704 55.2835 13.3847ZM50.5922 9.54194C50.3721 10.01 50.4019 10.2981 50.6384 10.505C50.8267 10.6702 51.1465 10.7257 51.3589 10.5303C51.6017 10.3064 51.8555 10.3112 52.1432 10.2955C52.5519 10.2734 52.6154 10.0671 52.379 9.63241C52.2382 9.70779 52.1015 9.83355 51.9552 9.84574C51.7836 9.85985 51.6036 9.77549 51.4221 9.7325C51.347 9.84382 51.3014 9.92657 51.2415 9.99715C51.1722 10.0793 51.0901 10.1511 50.9659 10.275C50.8369 10.0218 50.7362 9.82456 50.5922 9.54194ZM56.779 11.3111C57.1069 11.605 57.1563 11.9688 57.0729 12.3704C56.9702 12.6094 56.4765 12.543 56.5843 12.9626C56.7623 13.2077 57.36 12.9308 57.2432 13.5862C56.1746 13.6584 55.0881 13.7315 53.9974 13.805C53.7036 13.2269 53.1855 12.9241 52.7383 12.5651C52.5461 12.4111 52.1917 12.4586 51.8895 12.4111C51.7393 12.2116 51.5956 11.9623 51.3983 11.7683C50.7664 11.1453 49.9907 11.3679 49.7629 12.2231C49.7203 12.3835 49.6789 12.5439 49.6307 12.7278C48.7187 12.7916 48.1041 13.2288 47.8657 14.1344C47.1565 14.2063 46.444 14.2746 45.7331 14.3523C45.4963 14.3779 45.3671 14.3 45.3539 13.9952C45.5098 13.9651 45.6664 13.9503 45.8123 13.9015C45.948 13.8563 46.0725 13.7755 46.2974 13.6619C45.8524 13.4027 45.4957 13.412 45.1826 13.5743C44.7794 13.7835 45.0928 14.2419 44.9423 14.5425C44.0855 14.7988 42.7356 14.6641 42.1495 14.2528C42.2429 14.0985 42.3375 13.9413 42.4523 13.7508C42.3558 13.6709 42.2794 13.5573 42.1825 13.5365C41.8868 13.4723 41.5416 13.5458 41.3661 13.1823C41.3392 12.8224 41.506 12.5244 41.7998 12.3463C42.0693 12.1827 42.3914 12.1067 42.709 11.9851C42.2457 11.4244 42.2457 11.4244 42.5588 10.8524C42.801 10.6445 43.1186 11.1116 43.3769 10.7064C43.3339 10.5929 43.2627 10.4469 43.2226 10.2926C43.0914 9.79055 43.5677 9.19484 44.0865 9.21024C44.2703 9.21569 44.4095 9.29589 44.4364 9.50056C44.4865 9.87749 44.5362 10.2551 44.5923 10.6817C44.0088 10.7523 43.927 11.1687 44.0069 11.6833C43.8917 11.7137 43.8042 11.7416 43.7147 11.7602C43.1481 11.876 42.8267 12.3049 42.8706 12.8898C42.9027 13.3222 43.4513 13.7845 43.9424 13.7752C44.0159 13.7735 44.131 13.6946 44.1477 13.6311C44.1654 13.5641 44.1096 13.4386 44.0473 13.3979C43.9296 13.3212 43.7753 13.3029 43.6534 13.2311C43.3865 13.0736 43.2431 12.738 43.3214 12.5013C43.4096 12.2331 43.7339 12.0942 44.098 12.1786C44.2071 12.2039 44.3094 12.2562 44.4522 12.3104C44.5956 11.8568 44.0374 11.4731 44.4496 11.0356C44.6475 11.1915 44.8406 11.3438 45.0658 11.5209C45.3055 11.1985 45.199 10.9028 45.0803 10.6282C44.9138 10.2432 44.8342 9.85118 44.8894 9.43672C44.9802 8.75054 45.6532 8.21354 46.3067 8.29855C46.6971 8.34923 46.8507 8.55582 46.7699 8.94366C46.7462 9.05915 46.6714 9.16373 46.6451 9.27857C46.6316 9.33824 46.6631 9.41555 46.6939 9.4749C46.7125 9.51147 46.7686 9.52847 46.9139 9.62407C47.007 9.49222 47.0958 9.31867 47.2286 9.19132C47.4173 9.00942 47.6707 8.97991 47.8956 9.10406C48.0977 9.21602 48.0659 9.41972 47.9992 9.61669C47.9806 9.67122 48.0216 9.74597 48.0515 9.88969C48.2638 9.79826 48.44 9.69047 48.6305 9.64877C48.8342 9.60418 49.0517 9.6215 49.3 9.60995C49.3658 9.83611 49.4222 10.0312 49.4883 10.2589C49.1406 10.3657 48.8284 10.4617 48.4801 10.5688C48.5667 10.896 49.0193 11.0115 48.9 11.3772C48.8695 11.4706 48.7438 11.5331 48.6494 11.621C48.4884 11.4462 48.3543 11.3005 48.133 11.0596C48.0717 11.3471 48.046 11.5219 47.9957 11.6893C47.9277 11.9149 47.8853 12.1914 47.5687 12.1856C47.3178 12.1805 47.2039 11.9963 47.1484 11.7644C47.116 11.6294 47.0548 11.5014 47.0038 11.3621C46.709 11.3804 46.6977 11.5902 46.6599 11.7647C46.6246 11.9277 46.6358 12.1028 46.5851 12.2591C46.5043 12.5083 46.3975 12.5513 45.9551 12.5844C45.7819 12.3479 45.839 12.0788 45.9044 11.8321C45.9673 11.5941 46.0962 11.3734 46.256 11.0093C45.617 11.3637 45.4444 11.7939 45.4482 12.329C45.4505 12.6158 45.5243 12.8407 45.8165 12.9626C46.1116 13.0854 46.3878 13.0736 46.6217 12.8596C46.7757 12.7188 46.8896 12.5343 47.0201 12.3707C47.885 12.7194 47.9283 12.704 48.4361 11.877C49.1473 11.6842 49.2923 11.8119 49.1053 10.8954C49.3244 10.7693 49.642 10.693 49.7321 10.5066C49.845 10.2737 49.813 9.94294 49.7671 9.66705C49.6984 9.25836 49.3375 9.16436 48.4788 9.28049C48.3335 9.12747 48.1727 8.98409 48.0467 8.81567C47.9697 8.71269 47.8722 8.5263 47.9145 8.45509C47.9867 8.33415 48.1631 8.20102 48.293 8.20391C48.6203 8.21064 48.9459 8.29021 49.3375 8.35116C49.3578 8.2886 49.4328 8.16766 49.429 8.04929C49.4222 7.83628 49.3484 7.62551 49.3388 7.4125C49.3151 6.89346 49.676 6.49632 50.187 6.45365C50.4513 6.4312 50.6117 6.53513 50.6368 6.79722C50.666 7.1039 50.7054 7.41667 50.5133 7.70282C50.4164 7.84686 50.3689 8.01496 50.621 8.15579C50.7404 8.10767 50.894 8.0557 51.0381 7.98416C51.2084 7.89947 51.3605 7.89915 51.4952 8.04223C51.6431 8.19813 51.6713 8.38034 51.5767 8.57154C51.4975 8.73193 51.4025 8.88496 51.2476 9.15956C51.5331 9.13838 51.6867 9.14576 51.8314 9.11336C52.687 8.92056 53.3706 9.52302 53.2083 10.3837C53.1605 10.6375 52.9202 10.8546 52.7418 11.1292C52.7967 11.2396 52.8894 11.3958 52.9539 11.5626C53.2221 12.2588 53.2352 12.2684 53.9788 12.0406C54.2717 12.3993 54.7019 12.4301 55.1333 12.3377C55.2899 12.3043 55.474 12.1478 55.5417 11.9996C55.7409 11.5652 55.9004 11.1093 55.6999 10.6192C55.6752 10.5585 55.6963 10.4793 55.6963 10.4033C56.0572 9.94325 56.5577 9.84125 57.078 9.79569C57.3735 10.3638 57.3568 10.4536 56.779 11.3111Z" fill="#FAE1BA"/>
<path d="M48.7087 14.5408C50.3057 14.4472 51.8471 14.3567 53.4507 14.2627C53.469 14.5087 53.4963 14.7157 53.4982 14.9226C53.521 17.8007 53.5287 20.6792 53.5662 23.5568C53.581 24.7293 53.658 25.9005 53.7086 27.1205C52.6997 27.2818 51.7402 27.3938 50.723 27.1789C50.059 23.0114 49.3943 18.8411 48.7087 14.5408Z" fill="white"/>
<path d="M54.1149 14.238C55.2502 14.3201 56.348 13.9932 57.5445 14.1267C57.0511 18.4106 56.5622 22.656 56.0717 26.9145C55.4731 27.3367 54.8101 27.0727 54.1364 27.2035C54.1075 26.9623 54.0684 26.783 54.0665 26.6033C54.0405 24.3 54.0045 21.997 54.002 19.6941C54.0007 18.0147 54.0437 16.336 54.069 14.6573C54.0709 14.5418 54.0937 14.4269 54.1149 14.238Z" fill="#D81F26"/>
<path d="M50.3105 27.2589H48.729C47.5203 23.2041 46.3747 19.1127 45.1923 15.0357C45.9599 14.7354 47.4295 14.584 48.3098 14.7187C48.969 18.8515 49.6314 23.0026 50.3105 27.2589Z" fill="#D81F26"/>
<path d="M44.0153 15.1318H44.6771C44.9443 15.6576 47.6794 25.6651 47.8751 26.819C47.3573 26.751 47.3435 26.7507 47.1879 26.2329C46.8655 25.1612 46.5515 24.0868 46.2403 23.0118C45.5092 20.4875 44.7816 17.9625 44.0544 15.4372C44.0352 15.3702 44.0358 15.2974 44.0153 15.1318Z" fill="white"/>
<path d="M42.6533 15.0275C42.6956 15.0098 42.7419 14.9705 42.7797 14.9781C43.0116 15.0243 43.2424 15.0814 43.5445 15.1516C44.6494 18.8816 45.758 22.6266 46.8996 26.4818C46.5549 26.0008 42.8184 15.8398 42.6533 15.0275Z" fill="#D81F26"/>
<path d="M49.9942 13.4703C50.0243 13.2383 50.049 13.0824 50.0631 12.9256C50.0737 12.8069 50.0631 12.6862 50.0753 12.5679C50.1587 11.7579 50.5434 11.5824 51.2032 12.0523C51.2597 12.0928 51.3094 12.1428 51.3765 12.2002C51.372 12.2907 51.3819 12.3876 51.3601 12.4768C51.2257 13.0269 51.2331 13.0372 51.7665 12.9178C52.4611 12.7626 52.6946 12.9089 53.0314 13.7099C52.4226 13.8655 48.8351 14.0878 48.3879 13.9976C48.8233 13.2024 49.172 13.068 49.9942 13.4703Z" fill="#FCDD94"/>
<path d="M55.0696 11.9811C54.7927 11.9012 54.5627 11.8929 54.4097 11.7796C53.9651 11.4498 53.9773 11.4335 53.4848 11.6269C53.3549 11.4046 53.3485 11.1897 53.4948 10.9696C53.7918 10.5224 53.719 10.0634 53.5503 9.59468C53.3312 8.98613 53.4598 8.6756 54.0514 8.40806C54.264 8.31214 54.4985 8.26467 54.7244 8.19409C54.9364 9.06409 54.9005 9.22288 54.2984 10.0983C54.564 10.3864 55.0622 10.2789 55.2768 10.7184C55.5097 11.1958 55.0952 11.4678 55.0696 11.9811Z" fill="#FCDD94"/>
<path d="M50.5921 9.54224C50.7362 9.82454 50.8369 10.0218 50.9659 10.2749C51.09 10.1511 51.1721 10.0792 51.2414 9.99712C51.3014 9.92623 51.3473 9.84378 51.422 9.73279C51.6036 9.77577 51.7836 9.85983 51.9552 9.84539C52.1015 9.83352 52.2381 9.70777 52.379 9.63238C52.6154 10.0671 52.5519 10.273 52.1432 10.2958C51.8554 10.3112 51.6017 10.3067 51.3588 10.53C51.1468 10.7253 50.8266 10.6702 50.6383 10.5049C50.4019 10.298 50.3721 10.01 50.5921 9.54224Z" fill="#111111"/>
<path d="M55.2834 13.3848C55.1888 13.4705 55.1028 13.6116 54.9969 13.6283C54.8478 13.652 54.671 13.6119 54.5286 13.5484C54.1995 13.4018 54.1943 13.3505 54.339 12.7358C54.5998 13.0056 54.8343 13.2882 55.2507 13.2305C55.2619 13.2818 55.2725 13.3332 55.2834 13.3848Z" fill="#111111"/>
<path d="M48.388 26.8188C48.388 26.8188 42.8492 17.9533 43.2332 15.0787C43.6168 12.2044 42.5046 12.9101 44.0069 11.6834C45.5092 10.457 45.121 8.81068 46.6939 9.47505C46.6939 9.47505 47.3358 8.09724 45.9455 7.92529C45.9455 7.92529 44.6982 8.24545 44.8894 9.43688C44.8894 9.43688 43.2203 8.21176 42.9647 10.0984V10.5619C42.9647 10.5619 41.9574 10.3768 42.1691 11.7954C42.1691 11.7954 40.1933 12.8723 41.7129 13.9758L42.0632 14.0188L42.2223 14.7836L46.3362 26.2879C46.3362 26.2879 47.8738 27.8588 48.388 26.8188Z" fill="#271B10" fill-opacity="0.1"/>
<path d="M56.0695 40.9811C56.0952 40.4678 56.5096 40.1958 56.2767 39.7185C56.0621 39.279 55.5639 39.3864 55.2983 39.0984C55.9004 38.2229 55.9364 38.0641 55.7243 37.1941C55.4985 37.2647 55.264 37.3122 55.0513 37.4081C54.4597 37.6756 54.3311 37.9862 54.5502 38.5947C54.719 39.0634 54.7918 39.5224 54.4947 39.9696C54.3484 40.1897 54.3548 40.4046 54.4848 40.6269C54.9772 40.4335 54.965 40.4499 55.4096 40.7796C55.5626 40.8929 55.7927 40.9012 56.0695 40.9811ZM50.9942 42.4706C50.1717 42.0683 49.823 42.2027 49.388 42.9976C49.8348 43.0878 53.4226 42.8658 54.0312 42.7102C53.6947 41.9092 53.4611 41.7629 52.7666 41.9181C52.2331 42.0375 52.2257 42.0272 52.3601 41.4771C52.382 41.3879 52.372 41.291 52.3762 41.2005C52.3091 41.1431 52.2597 41.0931 52.203 41.0526C51.5434 40.5827 51.1585 40.7581 51.0754 41.5678C51.0632 41.6862 51.0738 41.8068 51.0632 41.9255C51.0491 42.0827 51.024 42.2386 50.9942 42.4706ZM43.6531 44.0277C43.8183 44.8399 47.555 55.0008 47.8995 55.482C46.7581 51.627 45.6494 47.8817 44.5446 44.1518C44.2424 44.0816 44.0118 44.0245 43.7795 43.9783C43.742 43.9706 43.6955 44.0097 43.6531 44.0277ZM45.0152 44.1316C45.0358 44.2972 45.0354 44.37 45.0544 44.437C45.7816 46.9626 46.5092 49.4876 47.2403 52.0119C47.5514 53.0866 47.8655 54.161 48.1879 55.2331C48.3435 55.7505 48.3573 55.7508 48.875 55.8188C48.6793 54.6649 45.9443 44.6574 45.677 44.1316H45.0152ZM51.3102 56.2589C50.6311 52.0026 49.9686 47.8516 49.3094 43.7188C48.4291 43.584 46.9599 43.7354 46.1919 44.0357C47.3747 48.1127 48.5199 52.2041 49.7287 56.2589H51.3102ZM55.1145 43.2379C55.0933 43.4268 55.0709 43.5417 55.0689 43.6572C55.0436 45.3359 55.0003 47.0149 55.0019 48.694C55.0045 50.997 55.0401 53.2999 55.066 55.6032C55.0683 55.7832 55.1071 55.9622 55.1363 56.2035C55.8097 56.0726 56.4731 56.3366 57.0713 55.9144C57.5618 51.6559 58.051 47.4105 58.5444 43.1266C57.3475 42.9931 56.2498 43.32 55.1145 43.2379ZM49.7088 43.5407C50.3943 47.841 51.059 52.0113 51.723 56.1784C52.7403 56.3937 53.6998 56.2814 54.7087 56.12C54.658 54.9004 54.581 53.7288 54.5659 52.5567C54.5287 49.6788 54.521 46.8006 54.4982 43.9225C54.4963 43.7152 54.469 43.5086 54.4508 43.2623C52.8471 43.3563 51.3054 43.4471 49.7088 43.5407ZM57.779 40.3113C58.3568 39.4538 58.3734 39.364 58.078 38.7958C57.5577 38.8414 57.0572 38.9434 56.6963 39.4034C56.6963 39.4795 56.6752 39.5587 56.6999 39.6193C56.9004 40.1095 56.7409 40.5653 56.5417 40.9997C56.474 41.1479 56.2899 41.3045 56.1333 41.3378C55.7019 41.4302 55.2717 41.3994 54.9788 41.0408C54.2352 41.2685 54.222 41.2589 53.9539 40.5628C53.8894 40.396 53.7967 40.2397 53.7418 40.1294C53.9202 39.8548 54.1604 39.6376 54.2082 39.3839C54.3706 38.5232 53.687 37.9207 52.8314 38.1135C52.6867 38.1459 52.5331 38.1385 52.2475 38.1597C52.4025 37.8851 52.4974 37.7321 52.5767 37.5717C52.6713 37.3805 52.6431 37.1983 52.4952 37.0424C52.3605 36.8993 52.2084 36.8996 52.0381 36.9843C51.894 37.0559 51.7404 37.1078 51.621 37.1559C51.3689 37.0151 51.4164 36.847 51.5132 36.703C51.7054 36.4168 51.6659 36.1041 51.6368 35.7974C51.6117 35.5353 51.4513 35.4314 51.187 35.4538C50.676 35.4965 50.3151 35.8936 50.3388 36.4127C50.3484 36.6257 50.4222 36.8364 50.429 37.0494C50.4328 37.1678 50.3577 37.2888 50.3375 37.3513C49.9458 37.2904 49.6202 37.2108 49.293 37.2041C49.1631 37.2012 48.9867 37.3343 48.9145 37.4553C48.8721 37.5265 48.9697 37.7128 49.0467 37.8158C49.1727 37.9842 49.3334 38.1273 49.4788 38.2807C50.3375 38.1645 50.6984 38.2585 50.7671 38.6672C50.813 38.9428 50.845 39.2738 50.7321 39.5067C50.642 39.6931 50.3244 39.7695 50.1053 39.8955C50.2923 40.812 50.1473 40.6844 49.4361 40.8772C48.9283 41.7042 48.885 41.7196 48.0201 41.3709C47.8895 41.5345 47.7757 41.7189 47.6217 41.8598C47.3878 42.0737 47.1116 42.0856 46.8165 41.9627C46.5243 41.8408 46.4505 41.616 46.4482 41.3292C46.4444 40.7941 46.617 40.3639 47.256 40.0094C47.0962 40.3735 46.9673 40.5942 46.9044 40.8322C46.8389 41.0789 46.7818 41.3481 46.9551 41.5845C47.3974 41.5515 47.5043 41.5085 47.5851 41.2592C47.6358 41.103 47.6246 40.9278 47.6599 40.7649C47.6977 40.5904 47.7089 40.3806 48.0038 40.3623C48.0548 40.5015 48.116 40.6295 48.1484 40.7646C48.2039 40.9965 48.3178 41.1806 48.5687 41.1858C48.885 41.1915 48.9276 40.915 48.9957 40.6895C49.046 40.522 49.0717 40.3472 49.1329 40.0598C49.3543 40.3007 49.4884 40.4463 49.6494 40.6212C49.7437 40.5333 49.8695 40.4707 49.9 40.3774C50.0193 40.0117 49.5667 39.8962 49.48 39.569C49.8284 39.4618 50.1406 39.3659 50.4883 39.2591C50.4222 39.0313 50.3658 38.8363 50.3 38.6101C50.0517 38.6217 49.8342 38.6043 49.6305 38.6486C49.44 38.6906 49.2638 38.7984 49.0515 38.8898C49.0216 38.7461 48.9806 38.6714 48.9992 38.6168C49.0659 38.4199 49.0977 38.2162 48.8956 38.1042C48.6707 37.9801 48.4173 38.0096 48.2286 38.1915C48.0958 38.3188 48.007 38.4924 47.9139 38.6242C47.7686 38.5286 47.7125 38.5116 47.6939 38.4751C47.6631 38.4157 47.6316 38.3384 47.6451 38.2787C47.6714 38.1639 47.7462 38.0593 47.7699 37.9438C47.8507 37.556 47.6971 37.3494 47.3067 37.2987C46.6532 37.2137 45.9802 37.7507 45.8894 38.4369C45.8342 38.8513 45.9138 39.2434 46.0803 39.6283C46.199 39.9029 46.3055 40.1987 46.0658 40.5211C45.8406 40.344 45.6475 40.1916 45.4496 40.0357C45.0374 40.4733 45.5955 40.857 45.4521 41.3106C45.3094 41.2563 45.2071 41.2041 45.098 41.1787C44.7339 41.0943 44.4096 41.2332 44.3213 41.5014C44.2431 41.7382 44.3865 42.0737 44.6534 42.2309C44.7753 42.3031 44.9296 42.3214 45.0473 42.3981C45.1095 42.4388 45.1654 42.5642 45.1477 42.6313C45.131 42.6948 45.0159 42.7737 44.9424 42.7753C44.4513 42.7846 43.9027 42.3223 43.8706 41.8899C43.8267 41.3051 44.1481 40.8762 44.7146 40.7604C44.8041 40.7418 44.8917 40.7139 45.0069 40.6834C44.927 40.1688 45.0088 39.7525 45.5923 39.6819C45.5362 39.2552 45.4865 38.8777 45.4364 38.5007C45.4095 38.2961 45.2703 38.2159 45.0864 38.2104C44.5677 38.195 44.0913 38.7907 44.2225 39.2928C44.2626 39.4471 44.3339 39.593 44.3768 39.7066C44.1186 40.1118 43.801 39.6447 43.5588 39.8525C43.2457 40.4245 43.2457 40.4245 43.709 40.9853C43.3914 41.1069 43.0693 41.1829 42.7998 41.3465C42.506 41.5245 42.3392 41.8225 42.3661 42.1825C42.5416 42.5459 42.8868 42.4725 43.1825 42.5366C43.2794 42.5575 43.3558 42.6711 43.4523 42.7509C43.3375 42.9415 43.2428 43.0987 43.1495 43.253C43.7356 43.6642 45.0855 43.799 45.9423 43.5426C46.0928 43.2421 45.7794 42.7836 46.1826 42.5745C46.4957 42.4122 46.8524 42.4029 47.2974 42.6621C47.0725 42.7756 46.948 42.8565 46.8123 42.9017C46.6664 42.9505 46.5098 42.9652 46.3539 42.9954C46.3671 43.3001 46.4963 43.3781 46.7331 43.3524C47.444 43.2748 48.1565 43.2065 48.8657 43.1346C49.1041 42.229 49.7187 41.7918 50.6307 41.7279C50.6789 41.5441 50.7202 41.3837 50.7629 41.2233C50.9907 40.3681 51.7664 40.1454 52.3983 40.7684C52.5956 40.9625 52.7393 41.2118 52.8895 41.4113C53.1916 41.4588 53.5461 41.4113 53.7383 41.5653C54.1855 41.9242 54.7035 42.2271 54.9974 42.8051C56.0881 42.7317 57.1746 42.6585 58.2432 42.5864C58.36 41.931 57.7623 42.2078 57.5843 41.9627C57.4765 41.5431 57.9702 41.6095 58.0729 41.3705C58.1563 40.9689 58.1069 40.6051 57.779 40.3113ZM42.7129 42.9758C41.857 42.3923 41.7678 41.8068 42.4668 41.1364C42.7764 40.8399 43.001 40.5923 43.0016 40.1307C43.0019 39.7165 43.3298 39.4657 43.6849 39.3284C43.8575 38.2258 44.3024 37.6949 45.585 37.8809C45.7264 37.7128 45.8657 37.5201 46.0318 37.3542C46.7761 36.6109 47.545 36.7264 48.0464 37.6474C48.0676 37.6859 48.1119 37.7116 48.1789 37.7738C48.2572 37.6997 48.3926 37.6339 48.4083 37.547C48.5215 36.9163 48.953 36.7546 49.5102 36.7543C49.6055 36.7543 49.7004 36.7447 49.831 36.7376C49.8509 36.5974 49.882 36.4624 49.8878 36.3267C49.9218 35.5805 50.5416 34.9874 51.281 35.0002C51.7234 35.0079 52.0118 35.2357 52.0814 35.6684C52.1192 35.9016 52.1099 36.1419 52.125 36.4345C52.7675 36.4993 53.1564 36.8175 53.0749 37.5191C53.4422 37.608 53.7809 37.6904 54.1787 37.787C54.4501 37.3074 54.9172 37.0097 55.5126 36.9227C55.9235 36.8627 56.0544 36.9708 56.1625 37.3885C56.2902 37.88 56.1747 38.3362 55.9813 38.7824C56.1834 39.1125 56.4281 39.1138 56.6995 38.8937C57.0874 38.5793 57.5208 38.409 58.0273 38.4394C58.4065 38.4619 58.5489 38.5559 58.6442 38.9161C58.7321 39.2472 58.7427 39.584 58.5685 39.8952C58.4443 40.1166 58.3827 40.3308 58.5091 40.5724C58.5409 40.6327 58.5524 40.7142 58.5454 40.7828C58.4706 41.4729 58.649 42.1004 58.9926 42.6932C59.0343 42.7654 59.0468 42.8747 59.0291 42.9575C58.6888 44.5281 58.6214 46.1334 58.4184 47.7213C58.2333 49.1691 58.0639 50.6191 57.8974 52.0691C57.761 53.2586 57.6311 54.4487 57.5198 55.6405C57.5018 55.8336 57.5942 56.037 57.6539 56.3228C57.516 56.3924 57.3421 56.5258 57.1486 56.5669C56.8699 56.6259 56.5776 56.6266 56.2902 56.6369C55.357 56.6696 54.4235 56.709 53.4897 56.7199C52.7759 56.7279 52.0621 56.6933 51.3477 56.6843C51.135 56.6814 50.922 56.6959 50.7093 56.7081C49.9295 56.753 49.216 56.676 48.4641 56.3093C47.5874 55.8817 47.2258 55.2244 46.923 54.3922C45.6796 50.9729 44.4019 47.5661 43.136 44.1554C43.086 44.0206 43.0642 43.8407 42.9654 43.7659C42.6754 43.5459 42.6429 43.2571 42.7129 42.9758Z" fill="#111111"/>
<path d="M56.2835 42.3847C56.2726 42.3331 56.262 42.2818 56.2508 42.2304C55.8344 42.2882 55.5999 42.0056 55.3391 41.7358C55.1944 42.3504 55.1995 42.4017 55.5286 42.5483C55.6711 42.6119 55.8478 42.652 55.997 42.6282C56.1029 42.6115 56.1888 42.4704 56.2835 42.3847ZM51.5922 38.5419C51.3721 39.01 51.4019 39.2981 51.6384 39.505C51.8267 39.6702 52.1465 39.7257 52.3589 39.5303C52.6017 39.3064 52.8555 39.3112 53.1432 39.2955C53.5519 39.2734 53.6154 39.0671 53.379 38.6324C53.2382 38.7078 53.1015 38.8335 52.9552 38.8457C52.7836 38.8599 52.6036 38.7755 52.4221 38.7325C52.347 38.8438 52.3014 38.9266 52.2415 38.9971C52.1722 39.0793 52.0901 39.1511 51.9659 39.275C51.8369 39.0218 51.7362 38.8246 51.5922 38.5419ZM57.779 40.3111C58.1069 40.605 58.1563 40.9688 58.0729 41.3704C57.9702 41.6094 57.4765 41.543 57.5843 41.9626C57.7623 42.2077 58.36 41.9308 58.2432 42.5862C57.1746 42.6584 56.0881 42.7315 54.9974 42.805C54.7036 42.2269 54.1855 41.9241 53.7383 41.5651C53.5461 41.4111 53.1917 41.4586 52.8895 41.4111C52.7393 41.2116 52.5956 40.9623 52.3983 40.7683C51.7664 40.1453 50.9907 40.3679 50.7629 41.2231C50.7203 41.3835 50.6789 41.5439 50.6307 41.7278C49.7187 41.7916 49.1041 42.2288 48.8657 43.1344C48.1565 43.2063 47.444 43.2746 46.7331 43.3523C46.4963 43.3779 46.3671 43.3 46.3539 42.9952C46.5098 42.9651 46.6664 42.9503 46.8123 42.9015C46.948 42.8563 47.0725 42.7755 47.2974 42.6619C46.8524 42.4027 46.4957 42.412 46.1826 42.5743C45.7794 42.7835 46.0928 43.2419 45.9423 43.5425C45.0855 43.7988 43.7356 43.6641 43.1495 43.2528C43.2429 43.0985 43.3375 42.9413 43.4523 42.7508C43.3558 42.6709 43.2794 42.5573 43.1825 42.5365C42.8868 42.4723 42.5416 42.5458 42.3661 42.1823C42.3392 41.8224 42.506 41.5244 42.7998 41.3463C43.0693 41.1827 43.3914 41.1067 43.709 40.9851C43.2457 40.4244 43.2457 40.4244 43.5588 39.8524C43.801 39.6445 44.1186 40.1116 44.3769 39.7064C44.3339 39.5929 44.2627 39.4469 44.2226 39.2926C44.0914 38.7906 44.5677 38.1948 45.0865 38.2102C45.2703 38.2157 45.4095 38.2959 45.4364 38.5006C45.4865 38.8775 45.5362 39.2551 45.5923 39.6817C45.0088 39.7523 44.927 40.1687 45.0069 40.6833C44.8917 40.7137 44.8042 40.7416 44.7147 40.7602C44.1481 40.876 43.8267 41.3049 43.8706 41.8898C43.9027 42.3222 44.4513 42.7845 44.9424 42.7752C45.0159 42.7735 45.131 42.6946 45.1477 42.6311C45.1654 42.5641 45.1096 42.4386 45.0473 42.3979C44.9296 42.3212 44.7753 42.3029 44.6534 42.2311C44.3865 42.0736 44.2431 41.738 44.3214 41.5013C44.4096 41.2331 44.7339 41.0942 45.098 41.1786C45.2071 41.2039 45.3094 41.2562 45.4522 41.3104C45.5956 40.8568 45.0374 40.4731 45.4496 40.0356C45.6475 40.1915 45.8406 40.3438 46.0658 40.5209C46.3055 40.1985 46.199 39.9028 46.0803 39.6282C45.9138 39.2432 45.8342 38.8512 45.8894 38.4367C45.9802 37.7505 46.6532 37.2135 47.3067 37.2985C47.6971 37.3492 47.8507 37.5558 47.7699 37.9437C47.7462 38.0591 47.6714 38.1637 47.6451 38.2786C47.6316 38.3382 47.6631 38.4156 47.6939 38.4749C47.7125 38.5115 47.7686 38.5285 47.9139 38.6241C48.007 38.4922 48.0958 38.3187 48.2286 38.1913C48.4173 38.0094 48.6707 37.9799 48.8956 38.1041C49.0977 38.216 49.0659 38.4197 48.9992 38.6167C48.9806 38.6712 49.0216 38.746 49.0515 38.8897C49.2638 38.7983 49.44 38.6905 49.6305 38.6488C49.8342 38.6042 50.0517 38.6215 50.3 38.6099C50.3658 38.8361 50.4222 39.0312 50.4883 39.2589C50.1406 39.3657 49.8284 39.4617 49.4801 39.5688C49.5667 39.896 50.0193 40.0115 49.9 40.3772C49.8695 40.4706 49.7438 40.5331 49.6494 40.621C49.4884 40.4462 49.3543 40.3005 49.133 40.0596C49.0717 40.3471 49.046 40.5219 48.9957 40.6893C48.9277 40.9149 48.8853 41.1914 48.5687 41.1856C48.3178 41.1805 48.2039 40.9963 48.1484 40.7644C48.116 40.6294 48.0548 40.5014 48.0038 40.3621C47.709 40.3804 47.6977 40.5902 47.6599 40.7647C47.6246 40.9277 47.6358 41.1028 47.5851 41.2591C47.5043 41.5083 47.3975 41.5513 46.9551 41.5844C46.7819 41.3479 46.839 41.0788 46.9044 40.8321C46.9673 40.5941 47.0962 40.3734 47.256 40.0093C46.617 40.3637 46.4444 40.7939 46.4482 41.329C46.4505 41.6158 46.5243 41.8407 46.8165 41.9626C47.1116 42.0854 47.3878 42.0736 47.6217 41.8596C47.7757 41.7188 47.8896 41.5343 48.0201 41.3707C48.885 41.7194 48.9283 41.704 49.4361 40.877C50.1473 40.6842 50.2923 40.8119 50.1053 39.8954C50.3244 39.7693 50.642 39.693 50.7321 39.5066C50.845 39.2737 50.813 38.9429 50.7671 38.6671C50.6984 38.2584 50.3375 38.1644 49.4788 38.2805C49.3335 38.1275 49.1727 37.9841 49.0467 37.8157C48.9697 37.7127 48.8722 37.5263 48.9145 37.4551C48.9867 37.3341 49.1631 37.201 49.293 37.2039C49.6203 37.2106 49.9459 37.2902 50.3375 37.3512C50.3578 37.2886 50.4328 37.1677 50.429 37.0493C50.4222 36.8363 50.3484 36.6255 50.3388 36.4125C50.3151 35.8935 50.676 35.4963 51.187 35.4537C51.4513 35.4312 51.6117 35.5351 51.6368 35.7972C51.666 36.1039 51.7054 36.4167 51.5133 36.7028C51.4164 36.8469 51.3689 37.015 51.621 37.1558C51.7404 37.1077 51.894 37.0557 52.0381 36.9842C52.2084 36.8995 52.3605 36.8992 52.4952 37.0422C52.6431 37.1981 52.6713 37.3803 52.5767 37.5715C52.4975 37.7319 52.4025 37.885 52.2476 38.1596C52.5331 38.1384 52.6867 38.1458 52.8314 38.1134C53.687 37.9206 54.3706 38.523 54.2083 39.3837C54.1605 39.6375 53.9202 39.8546 53.7418 40.1292C53.7967 40.2396 53.8894 40.3958 53.9539 40.5626C54.2221 41.2588 54.2352 41.2684 54.9788 41.0406C55.2717 41.3993 55.7019 41.4301 56.1333 41.3377C56.2899 41.3043 56.474 41.1478 56.5417 40.9996C56.7409 40.5652 56.9004 40.1093 56.6999 39.6192C56.6752 39.5585 56.6963 39.4793 56.6963 39.4033C57.0572 38.9433 57.5577 38.8412 58.078 38.7957C58.3735 39.3638 58.3568 39.4536 57.779 40.3111Z" fill="#FAE1BA"/>
<path d="M49.7087 43.5408C51.3057 43.4472 52.8471 43.3567 54.4507 43.2627C54.469 43.5087 54.4963 43.7157 54.4982 43.9226C54.521 46.8007 54.5287 49.6792 54.5662 52.5568C54.581 53.7293 54.658 54.9005 54.7086 56.1205C53.6997 56.2818 52.7402 56.3938 51.723 56.1789C51.059 52.0114 50.3943 47.8411 49.7087 43.5408Z" fill="white"/>
<path d="M55.1149 43.238C56.2502 43.3201 57.348 42.9932 58.5445 43.1267C58.0511 47.4106 57.5622 51.656 57.0717 55.9145C56.4731 56.3367 55.8101 56.0727 55.1364 56.2035C55.1075 55.9623 55.0684 55.783 55.0665 55.6033C55.0405 53.3 55.0045 50.997 55.002 48.6941C55.0007 47.0147 55.0437 45.336 55.069 43.6573C55.0709 43.5418 55.0937 43.4269 55.1149 43.238Z" fill="#D81F26"/>
<path d="M51.3105 56.2589H49.729C48.5203 52.2041 47.3747 48.1127 46.1923 44.0357C46.9599 43.7354 48.4295 43.584 49.3098 43.7187C49.969 47.8515 50.6314 52.0026 51.3105 56.2589Z" fill="#D81F26"/>
<path d="M45.0153 44.1318H45.6771C45.9443 44.6576 48.6794 54.6651 48.8751 55.819C48.3573 55.751 48.3435 55.7507 48.1879 55.2329C47.8655 54.1612 47.5515 53.0868 47.2403 52.0118C46.5092 49.4875 45.7816 46.9625 45.0544 44.4372C45.0352 44.3702 45.0358 44.2974 45.0153 44.1318Z" fill="white"/>
<path d="M43.6533 44.0275C43.6956 44.0098 43.7419 43.9705 43.7797 43.9781C44.0116 44.0243 44.2424 44.0814 44.5445 44.1516C45.6494 47.8816 46.758 51.6266 47.8996 55.4818C47.5549 55.0008 43.8184 44.8398 43.6533 44.0275Z" fill="#D81F26"/>
<path d="M50.9942 42.4703C51.0243 42.2383 51.049 42.0824 51.0631 41.9256C51.0737 41.8069 51.0631 41.6862 51.0753 41.5679C51.1587 40.7579 51.5434 40.5824 52.2032 41.0523C52.2597 41.0928 52.3094 41.1428 52.3765 41.2002C52.372 41.2907 52.3819 41.3876 52.3601 41.4768C52.2257 42.0269 52.2331 42.0372 52.7665 41.9178C53.4611 41.7626 53.6946 41.9089 54.0314 42.7099C53.4226 42.8655 49.8351 43.0878 49.3879 42.9976C49.8233 42.2024 50.172 42.068 50.9942 42.4703Z" fill="#FCDD94"/>
<path d="M56.0696 40.9811C55.7927 40.9012 55.5627 40.8929 55.4097 40.7796C54.9651 40.4498 54.9773 40.4335 54.4848 40.6269C54.3549 40.4046 54.3485 40.1897 54.4948 39.9696C54.7918 39.5224 54.719 39.0634 54.5503 38.5947C54.3312 37.9861 54.4598 37.6756 55.0514 37.4081C55.264 37.3121 55.4985 37.2647 55.7244 37.1941C55.9364 38.0641 55.9005 38.2229 55.2984 39.0983C55.564 39.3864 56.0622 39.2789 56.2768 39.7184C56.5097 40.1958 56.0952 40.4678 56.0696 40.9811Z" fill="#FCDD94"/>
<path d="M51.5921 38.5422C51.7362 38.8245 51.8369 39.0218 51.9659 39.2749C52.09 39.1511 52.1721 39.0792 52.2414 38.9971C52.3014 38.9262 52.3473 38.8438 52.422 38.7328C52.6036 38.7758 52.7836 38.8598 52.9552 38.8454C53.1015 38.8335 53.2381 38.7078 53.379 38.6324C53.6154 39.0671 53.5519 39.273 53.1432 39.2958C52.8554 39.3112 52.6017 39.3067 52.3588 39.53C52.1468 39.7253 51.8266 39.6702 51.6383 39.5049C51.4019 39.298 51.3721 39.01 51.5921 38.5422Z" fill="#111111"/>
<path d="M56.2834 42.3848C56.1888 42.4705 56.1028 42.6116 55.9969 42.6283C55.8478 42.652 55.671 42.6119 55.5286 42.5484C55.1995 42.4018 55.1943 42.3505 55.339 41.7358C55.5998 42.0056 55.8343 42.2882 56.2507 42.2305C56.2619 42.2818 56.2725 42.3332 56.2834 42.3848Z" fill="#111111"/>
<path d="M49.388 55.8188C49.388 55.8188 43.8492 46.9533 44.2332 44.0787C44.6168 41.2044 43.5046 41.9101 45.0069 40.6834C46.5092 39.457 46.121 37.8107 47.6939 38.4751C47.6939 38.4751 48.3358 37.0972 46.9455 36.9253C46.9455 36.9253 45.6982 37.2454 45.8894 38.4369C45.8894 38.4369 44.2203 37.2118 43.9647 39.0984V39.5619C43.9647 39.5619 42.9574 39.3768 43.1691 40.7954C43.1691 40.7954 41.1933 41.8723 42.7129 42.9758L43.0632 43.0188L43.2223 43.7836L47.3362 55.2879C47.3362 55.2879 48.8738 56.8588 49.388 55.8188Z" fill="#271B10" fill-opacity="0.1"/>
<path d="M21.0695 40.9811C21.0952 40.4678 21.5096 40.1958 21.2767 39.7185C21.0621 39.279 20.5639 39.3864 20.2983 39.0984C20.9004 38.2229 20.9364 38.0641 20.7243 37.1941C20.4985 37.2647 20.264 37.3122 20.0513 37.4081C19.4597 37.6756 19.3311 37.9862 19.5502 38.5947C19.719 39.0634 19.7918 39.5224 19.4947 39.9696C19.3484 40.1897 19.3548 40.4046 19.4848 40.6269C19.9772 40.4335 19.965 40.4499 20.4096 40.7796C20.5626 40.8929 20.7927 40.9012 21.0695 40.9811ZM15.9942 42.4706C15.1717 42.0683 14.823 42.2027 14.388 42.9976C14.8348 43.0878 18.4226 42.8658 19.0312 42.7102C18.6947 41.9092 18.4611 41.7629 17.7666 41.9181C17.2331 42.0375 17.2257 42.0272 17.3601 41.4771C17.382 41.3879 17.372 41.291 17.3762 41.2005C17.3091 41.1431 17.2597 41.0931 17.203 41.0526C16.5434 40.5827 16.1585 40.7581 16.0754 41.5678C16.0632 41.6862 16.0738 41.8068 16.0632 41.9255C16.0491 42.0827 16.024 42.2386 15.9942 42.4706ZM8.65313 44.0277C8.81834 44.8399 12.555 55.0008 12.8995 55.482C11.7581 51.627 10.6494 47.8817 9.54463 44.1518C9.24244 44.0816 9.01178 44.0245 8.77953 43.9783C8.74199 43.9706 8.69548 44.0097 8.65313 44.0277ZM10.0152 44.1316C10.0358 44.2972 10.0354 44.37 10.0544 44.437C10.7816 46.9626 11.5092 49.4876 12.2403 52.0119C12.5514 53.0866 12.8655 54.161 13.1879 55.2331C13.3435 55.7505 13.3573 55.7508 13.875 55.8188C13.6793 54.6649 10.9443 44.6574 10.677 44.1316H10.0152ZM16.3102 56.2589C15.6311 52.0026 14.9686 47.8516 14.3094 43.7188C13.4291 43.584 11.9599 43.7354 11.1919 44.0357C12.3747 48.1127 13.5199 52.2041 14.7287 56.2589H16.3102ZM20.1145 43.2379C20.0933 43.4268 20.0709 43.5417 20.0689 43.6572C20.0436 45.3359 20.0003 47.0149 20.0019 48.694C20.0045 50.997 20.0401 53.2999 20.066 55.6032C20.0683 55.7832 20.1071 55.9622 20.1363 56.2035C20.8097 56.0726 21.4731 56.3366 22.0713 55.9144C22.5618 51.6559 23.051 47.4105 23.5444 43.1266C22.3475 42.9931 21.2498 43.32 20.1145 43.2379ZM14.7088 43.5407C15.3943 47.841 16.059 52.0113 16.723 56.1784C17.7403 56.3937 18.6998 56.2814 19.7087 56.12C19.658 54.9004 19.581 53.7288 19.5659 52.5567C19.5287 49.6788 19.521 46.8006 19.4982 43.9225C19.4963 43.7152 19.469 43.5086 19.4508 43.2623C17.8471 43.3563 16.3054 43.4471 14.7088 43.5407ZM22.779 40.3113C23.3568 39.4538 23.3734 39.364 23.078 38.7958C22.5577 38.8414 22.0572 38.9434 21.6963 39.4034C21.6963 39.4795 21.6752 39.5587 21.6999 39.6193C21.9004 40.1095 21.7409 40.5653 21.5417 40.9997C21.474 41.1479 21.2899 41.3045 21.1333 41.3378C20.7019 41.4302 20.2717 41.3994 19.9788 41.0408C19.2352 41.2685 19.222 41.2589 18.9539 40.5628C18.8894 40.396 18.7967 40.2397 18.7418 40.1294C18.9202 39.8548 19.1604 39.6376 19.2082 39.3839C19.3706 38.5232 18.687 37.9207 17.8314 38.1135C17.6867 38.1459 17.5331 38.1385 17.2475 38.1597C17.4025 37.8851 17.4974 37.7321 17.5767 37.5717C17.6713 37.3805 17.6431 37.1983 17.4952 37.0424C17.3605 36.8993 17.2084 36.8996 17.0381 36.9843C16.894 37.0559 16.7404 37.1078 16.621 37.1559C16.3689 37.0151 16.4164 36.847 16.5132 36.703C16.7054 36.4168 16.6659 36.1041 16.6368 35.7974C16.6117 35.5353 16.4513 35.4314 16.187 35.4538C15.676 35.4965 15.3151 35.8936 15.3388 36.4127C15.3484 36.6257 15.4222 36.8364 15.429 37.0494C15.4328 37.1678 15.3577 37.2888 15.3375 37.3513C14.9458 37.2904 14.6202 37.2108 14.293 37.2041C14.1631 37.2012 13.9867 37.3343 13.9145 37.4553C13.8721 37.5265 13.9697 37.7128 14.0467 37.8158C14.1727 37.9842 14.3334 38.1273 14.4788 38.2807C15.3375 38.1645 15.6984 38.2585 15.7671 38.6672C15.813 38.9428 15.845 39.2738 15.7321 39.5067C15.642 39.6931 15.3244 39.7695 15.1053 39.8955C15.2923 40.812 15.1473 40.6844 14.4361 40.8772C13.9283 41.7042 13.885 41.7196 13.0201 41.3709C12.8895 41.5345 12.7757 41.7189 12.6217 41.8598C12.3878 42.0737 12.1116 42.0856 11.8165 41.9627C11.5243 41.8408 11.4505 41.616 11.4482 41.3292C11.4444 40.7941 11.617 40.3639 12.256 40.0094C12.0962 40.3735 11.9673 40.5942 11.9044 40.8322C11.8389 41.0789 11.7818 41.3481 11.9551 41.5845C12.3974 41.5515 12.5043 41.5085 12.5851 41.2592C12.6358 41.103 12.6246 40.9278 12.6599 40.7649C12.6977 40.5904 12.7089 40.3806 13.0038 40.3623C13.0548 40.5015 13.116 40.6295 13.1484 40.7646C13.2039 40.9965 13.3178 41.1806 13.5687 41.1858C13.885 41.1915 13.9276 40.915 13.9957 40.6895C14.046 40.522 14.0717 40.3472 14.1329 40.0598C14.3543 40.3007 14.4884 40.4463 14.6494 40.6212C14.7437 40.5333 14.8695 40.4707 14.9 40.3774C15.0193 40.0117 14.5667 39.8962 14.48 39.569C14.8284 39.4618 15.1406 39.3659 15.4883 39.2591C15.4222 39.0313 15.3658 38.8363 15.3 38.6101C15.0517 38.6217 14.8342 38.6043 14.6305 38.6486C14.44 38.6906 14.2638 38.7984 14.0515 38.8898C14.0216 38.7461 13.9806 38.6714 13.9992 38.6168C14.0659 38.4199 14.0977 38.2162 13.8956 38.1042C13.6707 37.9801 13.4173 38.0096 13.2286 38.1915C13.0958 38.3188 13.007 38.4924 12.9139 38.6242C12.7686 38.5286 12.7125 38.5116 12.6939 38.4751C12.6631 38.4157 12.6316 38.3384 12.6451 38.2787C12.6714 38.1639 12.7462 38.0593 12.7699 37.9438C12.8507 37.556 12.6971 37.3494 12.3067 37.2987C11.6532 37.2137 10.9802 37.7507 10.8894 38.4369C10.8342 38.8513 10.9138 39.2434 11.0803 39.6283C11.199 39.9029 11.3055 40.1987 11.0658 40.5211C10.8406 40.344 10.6475 40.1916 10.4496 40.0357C10.0374 40.4733 10.5955 40.857 10.4521 41.3106C10.3094 41.2563 10.2071 41.2041 10.098 41.1787C9.73389 41.0943 9.40957 41.2332 9.32135 41.5014C9.24307 41.7382 9.38647 42.0737 9.65337 42.2309C9.77527 42.3031 9.92958 42.3214 10.0473 42.3981C10.1095 42.4388 10.1654 42.5642 10.1477 42.6313C10.131 42.6948 10.0159 42.7737 9.94241 42.7753C9.45127 42.7846 8.90271 42.3223 8.87063 41.8899C8.82668 41.3051 9.14812 40.8762 9.71465 40.7604C9.80415 40.7418 9.89172 40.7139 10.0069 40.6834C9.92701 40.1688 10.0088 39.7525 10.5923 39.6819C10.5362 39.2552 10.4865 38.8777 10.4364 38.5007C10.4095 38.2961 10.2703 38.2159 10.0864 38.2104C9.56772 38.195 9.09134 38.7907 9.22255 39.2928C9.26265 39.4471 9.33386 39.593 9.37685 39.7066C9.11861 40.1118 8.80102 39.6447 8.55882 39.8525C8.24573 40.4245 8.24572 40.4245 8.70895 40.9853C8.39137 41.1069 8.06928 41.1829 7.79982 41.3465C7.50597 41.5245 7.33916 41.8225 7.3661 42.1825C7.54158 42.5459 7.88676 42.4725 8.18253 42.5366C8.27941 42.5575 8.35576 42.6711 8.45232 42.7509C8.33748 42.9415 8.24284 43.0987 8.14949 43.253C8.73558 43.6642 10.0855 43.799 10.9423 43.5426C11.0928 43.2421 10.7794 42.7836 11.1826 42.5745C11.4957 42.4122 11.8524 42.4029 12.2974 42.6621C12.0725 42.7756 11.948 42.8565 11.8123 42.9017C11.6664 42.9505 11.5098 42.9652 11.3539 42.9954C11.3671 43.3001 11.4963 43.3781 11.7331 43.3524C12.444 43.2748 13.1565 43.2065 13.8657 43.1346C14.1041 42.229 14.7187 41.7918 15.6307 41.7279C15.6789 41.5441 15.7202 41.3837 15.7629 41.2233C15.9907 40.3681 16.7664 40.1454 17.3983 40.7684C17.5956 40.9625 17.7393 41.2118 17.8895 41.4113C18.1916 41.4588 18.5461 41.4113 18.7383 41.5653C19.1855 41.9242 19.7035 42.2271 19.9974 42.8051C21.0881 42.7317 22.1746 42.6585 23.2432 42.5864C23.36 41.931 22.7623 42.2078 22.5843 41.9627C22.4765 41.5431 22.9702 41.6095 23.0729 41.3705C23.1563 40.9689 23.1069 40.6051 22.779 40.3113ZM7.71288 42.9758C6.857 42.3923 6.76782 41.8068 7.46683 41.1364C7.7764 40.8399 8.00096 40.5923 8.0016 40.1307C8.00193 39.7165 8.32977 39.4657 8.68489 39.3284C8.85748 38.2258 9.30242 37.6949 10.585 37.8809C10.7264 37.7128 10.8657 37.5201 11.0318 37.3542C11.7761 36.6109 12.545 36.7264 13.0464 37.6474C13.0676 37.6859 13.1119 37.7116 13.1789 37.7738C13.2572 37.6997 13.3926 37.6339 13.4083 37.547C13.5215 36.9163 13.953 36.7546 14.5102 36.7543C14.6055 36.7543 14.7004 36.7447 14.831 36.7376C14.8509 36.5974 14.882 36.4624 14.8878 36.3267C14.9218 35.5805 15.5416 34.9874 16.281 35.0002C16.7234 35.0079 17.0118 35.2357 17.0814 35.6684C17.1192 35.9016 17.1099 36.1419 17.125 36.4345C17.7675 36.4993 18.1564 36.8175 18.0749 37.5191C18.4422 37.608 18.7809 37.6904 19.1787 37.787C19.4501 37.3074 19.9172 37.0097 20.5126 36.9227C20.9235 36.8627 21.0544 36.9708 21.1625 37.3885C21.2902 37.88 21.1747 38.3362 20.9813 38.7824C21.1834 39.1125 21.4281 39.1138 21.6995 38.8937C22.0874 38.5793 22.5208 38.409 23.0273 38.4394C23.4065 38.4619 23.5489 38.5559 23.6442 38.9161C23.7321 39.2472 23.7427 39.584 23.5685 39.8952C23.4443 40.1166 23.3827 40.3308 23.5091 40.5724C23.5409 40.6327 23.5524 40.7142 23.5454 40.7828C23.4706 41.4729 23.649 42.1004 23.9926 42.6932C24.0343 42.7654 24.0468 42.8747 24.0291 42.9575C23.6888 44.5281 23.6214 46.1334 23.4184 47.7213C23.2333 49.1691 23.0639 50.6191 22.8974 52.0691C22.761 53.2586 22.6311 54.4487 22.5198 55.6405C22.5018 55.8336 22.5942 56.037 22.6539 56.3228C22.516 56.3924 22.3421 56.5258 22.1486 56.5669C21.8699 56.6259 21.5776 56.6266 21.2902 56.6369C20.357 56.6696 19.4235 56.709 18.4897 56.7199C17.7759 56.7279 17.0621 56.6933 16.3477 56.6843C16.135 56.6814 15.922 56.6959 15.7093 56.7081C14.9295 56.753 14.216 56.676 13.4641 56.3093C12.5874 55.8817 12.2258 55.2244 11.923 54.3922C10.6796 50.9729 9.40187 47.5661 8.13601 44.1554C8.08597 44.0206 8.06416 43.8407 7.96535 43.7659C7.67535 43.5459 7.64295 43.2571 7.71288 42.9758Z" fill="#111111"/>
<path d="M21.2835 42.3847C21.2726 42.3331 21.262 42.2818 21.2508 42.2304C20.8344 42.2882 20.5999 42.0056 20.3391 41.7358C20.1944 42.3504 20.1995 42.4017 20.5286 42.5483C20.6711 42.6119 20.8478 42.652 20.997 42.6282C21.1029 42.6115 21.1888 42.4704 21.2835 42.3847ZM16.5922 38.5419C16.3721 39.01 16.4019 39.2981 16.6384 39.505C16.8267 39.6702 17.1465 39.7257 17.3589 39.5303C17.6017 39.3064 17.8555 39.3112 18.1432 39.2955C18.5519 39.2734 18.6154 39.0671 18.379 38.6324C18.2382 38.7078 18.1015 38.8335 17.9552 38.8457C17.7836 38.8599 17.6036 38.7755 17.4221 38.7325C17.347 38.8438 17.3014 38.9266 17.2415 38.9971C17.1722 39.0793 17.0901 39.1511 16.9659 39.275C16.8369 39.0218 16.7362 38.8246 16.5922 38.5419ZM22.779 40.3111C23.1069 40.605 23.1563 40.9688 23.0729 41.3704C22.9702 41.6094 22.4765 41.543 22.5843 41.9626C22.7623 42.2077 23.36 41.9308 23.2432 42.5862C22.1746 42.6584 21.0881 42.7315 19.9974 42.805C19.7036 42.2269 19.1855 41.9241 18.7383 41.5651C18.5461 41.4111 18.1917 41.4586 17.8895 41.4111C17.7393 41.2116 17.5956 40.9623 17.3983 40.7683C16.7664 40.1453 15.9907 40.3679 15.7629 41.2231C15.7203 41.3835 15.6789 41.5439 15.6307 41.7278C14.7187 41.7916 14.1041 42.2288 13.8657 43.1344C13.1565 43.2063 12.444 43.2746 11.7331 43.3523C11.4963 43.3779 11.3671 43.3 11.3539 42.9952C11.5098 42.9651 11.6664 42.9503 11.8123 42.9015C11.948 42.8563 12.0725 42.7755 12.2974 42.6619C11.8524 42.4027 11.4957 42.412 11.1826 42.5743C10.7794 42.7835 11.0928 43.2419 10.9423 43.5425C10.0855 43.7988 8.73559 43.6641 8.1495 43.2528C8.24285 43.0985 8.33749 42.9413 8.45233 42.7508C8.35577 42.6709 8.27942 42.5573 8.18254 42.5365C7.88677 42.4723 7.54159 42.5458 7.36611 42.1823C7.33917 41.8224 7.50598 41.5244 7.79983 41.3463C8.06929 41.1827 8.39138 41.1067 8.70896 40.9851C8.24574 40.4244 8.24574 40.4244 8.55884 39.8524C8.80104 39.6445 9.11862 40.1116 9.37686 39.7064C9.33387 39.5929 9.26266 39.4469 9.22256 39.2926C9.09135 38.7906 9.56773 38.1948 10.0865 38.2102C10.2703 38.2157 10.4095 38.2959 10.4364 38.5006C10.4865 38.8775 10.5362 39.2551 10.5923 39.6817C10.0088 39.7523 9.92702 40.1687 10.0069 40.6833C9.89173 40.7137 9.80416 40.7416 9.71466 40.7602C9.14813 40.876 8.82669 41.3049 8.87064 41.8898C8.90272 42.3222 9.45128 42.7845 9.94242 42.7752C10.0159 42.7735 10.131 42.6946 10.1477 42.6311C10.1654 42.5641 10.1096 42.4386 10.0473 42.3979C9.92959 42.3212 9.77528 42.3029 9.65338 42.2311C9.38648 42.0736 9.24309 41.738 9.32136 41.5013C9.40958 41.2331 9.7339 41.0942 10.098 41.1786C10.2071 41.2039 10.3094 41.2562 10.4522 41.3104C10.5956 40.8568 10.0374 40.4731 10.4496 40.0356C10.6475 40.1915 10.8406 40.3438 11.0658 40.5209C11.3055 40.1985 11.199 39.9028 11.0803 39.6282C10.9138 39.2432 10.8342 38.8512 10.8894 38.4367C10.9802 37.7505 11.6532 37.2135 12.3067 37.2985C12.6971 37.3492 12.8507 37.5558 12.7699 37.9437C12.7462 38.0591 12.6714 38.1637 12.6451 38.2786C12.6316 38.3382 12.6631 38.4156 12.6939 38.4749C12.7125 38.5115 12.7686 38.5285 12.9139 38.6241C13.007 38.4922 13.0958 38.3187 13.2286 38.1913C13.4173 38.0094 13.6707 37.9799 13.8956 38.1041C14.0977 38.216 14.0659 38.4197 13.9992 38.6167C13.9806 38.6712 14.0216 38.746 14.0515 38.8897C14.2638 38.7983 14.44 38.6905 14.6305 38.6488C14.8342 38.6042 15.0517 38.6215 15.3 38.6099C15.3658 38.8361 15.4222 39.0312 15.4883 39.2589C15.1406 39.3657 14.8284 39.4617 14.4801 39.5688C14.5667 39.896 15.0193 40.0115 14.9 40.3772C14.8695 40.4706 14.7438 40.5331 14.6494 40.621C14.4884 40.4462 14.3543 40.3005 14.133 40.0596C14.0717 40.3471 14.046 40.5219 13.9957 40.6893C13.9277 40.9149 13.8853 41.1914 13.5687 41.1856C13.3178 41.1805 13.2039 40.9963 13.1484 40.7644C13.116 40.6294 13.0548 40.5014 13.0038 40.3621C12.709 40.3804 12.6977 40.5902 12.6599 40.7647C12.6246 40.9277 12.6358 41.1028 12.5851 41.2591C12.5043 41.5083 12.3975 41.5513 11.9551 41.5844C11.7819 41.3479 11.839 41.0788 11.9044 40.8321C11.9673 40.5941 12.0962 40.3734 12.256 40.0093C11.617 40.3637 11.4444 40.7939 11.4482 41.329C11.4505 41.6158 11.5243 41.8407 11.8165 41.9626C12.1116 42.0854 12.3878 42.0736 12.6217 41.8596C12.7757 41.7188 12.8896 41.5343 13.0201 41.3707C13.885 41.7194 13.9283 41.704 14.4361 40.877C15.1473 40.6842 15.2923 40.8119 15.1053 39.8954C15.3244 39.7693 15.642 39.693 15.7321 39.5066C15.845 39.2737 15.813 38.9429 15.7671 38.6671C15.6984 38.2584 15.3375 38.1644 14.4788 38.2805C14.3335 38.1275 14.1727 37.9841 14.0467 37.8157C13.9697 37.7127 13.8722 37.5263 13.9145 37.4551C13.9867 37.3341 14.1631 37.201 14.293 37.2039C14.6203 37.2106 14.9459 37.2902 15.3375 37.3512C15.3578 37.2886 15.4328 37.1677 15.429 37.0493C15.4222 36.8363 15.3484 36.6255 15.3388 36.4125C15.3151 35.8935 15.676 35.4963 16.187 35.4537C16.4513 35.4312 16.6117 35.5351 16.6368 35.7972C16.666 36.1039 16.7054 36.4167 16.5133 36.7028C16.4164 36.8469 16.3689 37.015 16.621 37.1558C16.7404 37.1077 16.894 37.0557 17.0381 36.9842C17.2084 36.8995 17.3605 36.8992 17.4952 37.0422C17.6431 37.1981 17.6713 37.3803 17.5767 37.5715C17.4975 37.7319 17.4025 37.885 17.2476 38.1596C17.5331 38.1384 17.6867 38.1458 17.8314 38.1134C18.687 37.9206 19.3706 38.523 19.2083 39.3837C19.1605 39.6375 18.9202 39.8546 18.7418 40.1292C18.7967 40.2396 18.8894 40.3958 18.9539 40.5626C19.2221 41.2588 19.2352 41.2684 19.9788 41.0406C20.2717 41.3993 20.7019 41.4301 21.1333 41.3377C21.2899 41.3043 21.474 41.1478 21.5417 40.9996C21.7409 40.5652 21.9004 40.1093 21.6999 39.6192C21.6752 39.5585 21.6963 39.4793 21.6963 39.4033C22.0572 38.9433 22.5577 38.8412 23.078 38.7957C23.3735 39.3638 23.3568 39.4536 22.779 40.3111Z" fill="#FAE1BA"/>
<path d="M14.7087 43.5408C16.3057 43.4472 17.8471 43.3567 19.4507 43.2627C19.469 43.5087 19.4963 43.7157 19.4982 43.9226C19.521 46.8007 19.5287 49.6792 19.5662 52.5568C19.581 53.7293 19.658 54.9005 19.7086 56.1205C18.6997 56.2818 17.7402 56.3938 16.723 56.1789C16.059 52.0114 15.3943 47.8411 14.7087 43.5408Z" fill="white"/>
<path d="M20.1149 43.238C21.2502 43.3201 22.348 42.9932 23.5445 43.1267C23.0511 47.4106 22.5622 51.656 22.0717 55.9145C21.4731 56.3367 20.8101 56.0727 20.1364 56.2035C20.1075 55.9623 20.0684 55.783 20.0665 55.6033C20.0405 53.3 20.0045 50.997 20.002 48.6941C20.0007 47.0147 20.0437 45.336 20.069 43.6573C20.0709 43.5418 20.0937 43.4269 20.1149 43.238Z" fill="#D81F26"/>
<path d="M16.3105 56.2589H14.729C13.5203 52.2041 12.3747 48.1127 11.1923 44.0357C11.9599 43.7354 13.4295 43.584 14.3098 43.7187C14.969 47.8515 15.6314 52.0026 16.3105 56.2589Z" fill="#D81F26"/>
<path d="M10.0153 44.1318H10.6771C10.9443 44.6576 13.6794 54.6651 13.8751 55.819C13.3573 55.751 13.3435 55.7507 13.1879 55.2329C12.8655 54.1612 12.5515 53.0868 12.2403 52.0118C11.5092 49.4875 10.7816 46.9625 10.0544 44.4372C10.0352 44.3702 10.0358 44.2974 10.0153 44.1318Z" fill="white"/>
<path d="M8.65331 44.0275C8.69562 44.0098 8.74188 43.9705 8.7797 43.9781C9.01165 44.0243 9.24241 44.0814 9.54453 44.1516C10.6494 47.8816 11.758 51.6266 12.8996 55.4818C12.5549 55.0008 8.81841 44.8398 8.65331 44.0275Z" fill="#D81F26"/>
<path d="M15.9942 42.4703C16.0243 42.2383 16.049 42.0824 16.0631 41.9256C16.0737 41.8069 16.0631 41.6862 16.0753 41.5679C16.1587 40.7579 16.5434 40.5824 17.2032 41.0523C17.2597 41.0928 17.3094 41.1428 17.3765 41.2002C17.372 41.2907 17.3819 41.3876 17.3601 41.4768C17.2257 42.0269 17.2331 42.0372 17.7665 41.9178C18.4611 41.7626 18.6946 41.9089 19.0314 42.7099C18.4226 42.8655 14.8351 43.0878 14.3879 42.9976C14.8233 42.2024 15.172 42.068 15.9942 42.4703Z" fill="#FCDD94"/>
<path d="M21.0696 40.9811C20.7927 40.9012 20.5627 40.8929 20.4097 40.7796C19.9651 40.4498 19.9773 40.4335 19.4848 40.6269C19.3549 40.4046 19.3485 40.1897 19.4948 39.9696C19.7918 39.5224 19.719 39.0634 19.5503 38.5947C19.3312 37.9861 19.4598 37.6756 20.0514 37.4081C20.264 37.3121 20.4985 37.2647 20.7244 37.1941C20.9364 38.0641 20.9005 38.2229 20.2984 39.0983C20.564 39.3864 21.0622 39.2789 21.2768 39.7184C21.5097 40.1958 21.0952 40.4678 21.0696 40.9811Z" fill="#FCDD94"/>
<path d="M16.5921 38.5422C16.7362 38.8245 16.8369 39.0218 16.9659 39.2749C17.09 39.1511 17.1721 39.0792 17.2414 38.9971C17.3014 38.9262 17.3473 38.8438 17.422 38.7328C17.6036 38.7758 17.7836 38.8598 17.9552 38.8454C18.1015 38.8335 18.2381 38.7078 18.379 38.6324C18.6154 39.0671 18.5519 39.273 18.1432 39.2958C17.8554 39.3112 17.6017 39.3067 17.3588 39.53C17.1468 39.7253 16.8266 39.6702 16.6383 39.5049C16.4019 39.298 16.3721 39.01 16.5921 38.5422Z" fill="#111111"/>
<path d="M21.2834 42.3848C21.1888 42.4705 21.1028 42.6116 20.9969 42.6283C20.8478 42.652 20.671 42.6119 20.5286 42.5484C20.1995 42.4018 20.1943 42.3505 20.339 41.7358C20.5998 42.0056 20.8343 42.2882 21.2507 42.2305C21.2619 42.2818 21.2725 42.3332 21.2834 42.3848Z" fill="#111111"/>
<path d="M14.388 55.8188C14.388 55.8188 8.84917 46.9533 9.23317 44.0787C9.61684 41.2044 8.50464 41.9101 10.0069 40.6834C11.5092 39.457 11.121 37.8107 12.6939 38.4751C12.6939 38.4751 13.3358 37.0972 11.9455 36.9253C11.9455 36.9253 10.6982 37.2454 10.8894 38.4369C10.8894 38.4369 9.22033 37.2118 8.96466 39.0984V39.5619C8.96466 39.5619 7.95736 39.3768 8.16908 40.7954C8.16908 40.7954 6.19331 41.8723 7.71292 42.9758L8.06323 43.0188L8.22234 43.7836L12.3362 55.2879C12.3362 55.2879 13.8738 56.8588 14.388 55.8188Z" fill="#271B10" fill-opacity="0.1"/>
</svg>
