<svg width="86" height="56" viewBox="0 0 86 56" fill="none" xmlns="http://www.w3.org/2000/svg">
<path d="M17.2736 14.888C17.3961 14.7442 17.5248 14.573 17.5642 14.3949C17.7311 13.6342 18.121 12.983 18.5142 12.3299C18.8692 11.7392 19.2267 11.1499 19.5604 10.5474C20.5598 8.74362 21.5486 6.93424 22.5648 5.08424C22.3592 4.79924 22.0098 4.70423 21.6261 4.54111C21.5167 4.72798 21.4117 4.88673 21.3254 5.05548C20.4442 6.78111 19.5498 8.498 18.8392 10.308C18.4004 11.4249 17.8354 12.4917 17.3304 13.5824C17.1461 13.9805 16.9698 14.3811 16.7836 14.7949C16.9442 14.963 17.0886 15.1061 17.2736 14.888ZM18.3317 14.9311C18.5336 15.063 18.5504 15.3136 18.3548 15.4011C17.8385 15.633 17.3504 15.8061 16.7411 15.528C16.2323 15.2955 15.9292 14.9524 15.6817 14.5042C15.5942 14.3461 15.6048 14.3399 15.7767 13.9386C15.9623 14.1049 16.1336 14.258 16.3279 14.4324C16.7536 14.0967 16.7711 13.5736 17.0342 13.1336C16.0804 12.3505 15.1598 11.5917 13.8442 11.5092C13.8467 12.1486 13.5467 12.4967 12.9348 12.6767C12.6385 12.7636 12.3486 13.0486 12.1704 13.3192C11.8454 13.8117 12.2086 14.3805 12.7992 14.378C13.0204 14.3761 13.2417 14.3461 13.4623 14.3499C14.4998 14.3636 15.0742 15.1705 14.7579 16.158C14.5529 16.7949 14.6504 17.0174 15.2154 17.3361C15.4835 17.4867 15.7192 17.4967 15.9686 17.3161C16.2467 17.1136 16.5211 16.9036 16.8142 16.7242C17.3898 16.3711 17.9298 16.4611 18.3954 16.9617C18.4117 16.9799 18.4292 16.9974 18.4467 17.0142C18.6148 17.1786 18.6948 17.4661 19.0098 17.4205C19.3154 17.3761 19.6317 17.2617 19.7398 16.9799C20.0448 16.1867 20.5554 16.0105 21.3036 16.3324C21.3861 16.3674 21.4973 16.3461 21.5942 16.338C21.6392 16.3336 21.6823 16.2986 21.7261 16.2774C21.5729 15.1961 19.9654 14.0336 18.3323 13.8555C18.2273 14.1617 18.1198 14.4792 17.9885 14.8624C18.1448 14.8911 18.2567 14.8824 18.3317 14.9311ZM20.5973 16.8642C20.4911 17.0142 20.3823 17.1449 20.2992 17.2899C20.0429 17.738 19.6129 17.9142 19.1479 18.0105C18.7911 18.0842 18.4617 17.9992 18.2267 17.6867C18.1529 17.5874 18.0842 17.4842 18.0035 17.3924C17.681 17.0217 17.4536 16.973 17.0423 17.223C16.8123 17.363 16.6098 17.5467 16.3917 17.7067C15.9342 18.0411 15.4704 18.1667 14.9779 17.7661C14.8648 17.6742 14.7217 17.6186 14.6017 17.5336C14.0867 17.1711 13.9761 16.8067 14.1761 16.203C14.2298 16.0411 14.2867 15.8717 14.2917 15.7042C14.3104 15.1874 14.0223 14.8749 13.506 14.8474C13.261 14.8342 13.0154 14.8711 12.7692 14.8736C11.8448 14.8811 11.2723 13.9042 11.7311 13.0955C11.9686 12.6761 12.2967 12.3542 12.7717 12.2099C12.8654 12.1811 12.9623 12.1586 13.0548 12.1255C13.2373 12.0611 13.3767 11.9217 13.2948 11.7399C13.2354 11.608 13.0692 11.4636 12.9317 11.4405C12.7217 11.4061 12.4767 11.4242 12.2792 11.5024C11.6185 11.7649 10.9379 12.0055 10.3292 12.363C9.55479 12.8167 9.1023 13.5617 8.90793 14.433C8.65605 15.5642 8.54107 16.7086 8.60294 17.8742C8.66982 19.1586 9.19856 20.1942 10.1561 21.0192C10.9579 21.7092 11.7898 22.3555 12.7079 22.8955C13.9361 23.6161 15.1861 23.6249 16.4592 23.1024C17.0492 22.8599 17.6092 22.543 18.1736 22.2417C19.1736 21.7074 19.8967 20.8674 20.5467 19.973C20.9504 19.4167 21.2648 18.7961 21.6167 18.203C21.8092 17.8792 21.9379 17.5411 21.8173 17.1199C21.4236 17.0374 21.0229 16.9536 20.5973 16.8642ZM18.0735 10.9267C18.4623 10.0267 18.8298 9.11612 19.2292 8.21987C19.5785 7.43549 19.9467 6.65923 20.3298 5.89048C20.6042 5.34048 20.9148 4.80737 21.2117 4.26799C21.3517 4.01299 21.5504 3.93174 21.8273 4.05986C22.0723 4.17299 22.3273 4.26362 22.5711 4.38049C23.3161 4.73862 23.371 4.90861 22.9673 5.62111C22.7129 6.07173 22.4448 6.51424 22.186 6.96174C21.0779 8.88112 19.9685 10.7999 18.8642 12.7211C18.7473 12.9236 18.536 13.1174 18.6367 13.2617C19.2498 13.5205 19.7479 13.7142 20.2317 13.938C20.4985 14.0617 20.7454 14.2299 20.9961 14.3861C21.9779 14.9967 22.5986 15.7755 22.4479 17.0405C22.3704 17.6905 22.2542 18.2999 21.9042 18.8499C21.5492 19.4086 21.2061 19.9805 20.8004 20.5024C20.1367 21.3542 19.436 22.1811 18.4492 22.6874C17.836 23.0011 17.2261 23.3274 16.5898 23.588C15.3504 24.0955 14.0942 24.1255 12.8779 23.513C11.6885 22.9142 10.5798 22.1917 9.60605 21.2674C8.7748 20.4792 8.21667 19.5717 8.0748 18.4099C7.88667 16.8705 8.06917 15.3699 8.44604 13.8824C8.48729 13.718 8.57044 13.563 8.64544 13.4099C9.21544 12.2517 10.2129 11.6105 11.3767 11.1892C13.1536 10.5474 14.8023 10.7942 16.3029 11.9555C16.6073 12.1905 16.9079 12.4286 17.2742 12.7155C17.5604 12.0767 17.8242 11.5049 18.0735 10.9267Z" fill="#111111"/>
<path d="M21.8174 17.1199C21.4236 17.0374 21.023 16.953 20.598 16.8642C20.4917 17.0142 20.3824 17.1449 20.2993 17.2892C20.043 17.7374 19.6136 17.9143 19.148 18.0105C18.7911 18.0843 18.4624 17.9986 18.2274 17.6861C18.1536 17.5874 18.0842 17.4842 18.0036 17.3924C17.6817 17.0217 17.4543 16.973 17.0424 17.223C16.8124 17.363 16.6099 17.5468 16.3918 17.7061C15.9349 18.0411 15.4711 18.1667 14.9786 17.7661C14.8649 17.6742 14.7217 17.6186 14.6017 17.5336C14.0874 17.1711 13.9761 16.8067 14.1761 16.2024C14.2299 16.0405 14.2867 15.8717 14.2924 15.7036C14.3105 15.1874 14.0224 14.8742 13.5061 14.8467C13.2618 14.8342 13.0155 14.8705 12.7692 14.873C11.8455 14.8811 11.273 13.9036 11.7311 13.0955C11.9686 12.6761 12.2974 12.3542 12.7718 12.2099C12.8661 12.1811 12.9624 12.1586 13.0549 12.1255C13.2374 12.0605 13.3767 11.9217 13.2949 11.7399C13.2361 11.608 13.0699 11.4636 12.9317 11.4405C12.7217 11.4055 12.4774 11.4242 12.2792 11.5024C11.6192 11.7649 10.9386 12.0049 10.3292 12.363C9.5555 12.8161 9.10237 13.5618 8.90862 14.433C8.65612 15.5643 8.54177 16.7086 8.60302 17.8742C8.67052 19.1586 9.19925 20.1942 10.1567 21.0186C10.958 21.7092 11.7899 22.3555 12.7086 22.8949C13.9368 23.6161 15.1868 23.6243 16.4599 23.1018C17.0493 22.8599 17.6099 22.543 18.1742 22.2411C19.1742 21.7074 19.8974 20.8674 20.5474 19.9724C20.9505 19.4167 21.2649 18.7961 21.6174 18.2024C21.8093 17.8792 21.938 17.5411 21.8174 17.1199Z" fill="#D81F26"/>
<path d="M17.9886 14.8624C18.1448 14.8911 18.2573 14.8824 18.3323 14.9312C18.5336 15.063 18.5505 15.3136 18.3555 15.4011C17.8392 15.633 17.3505 15.8061 16.7417 15.528C16.2323 15.2955 15.9292 14.9524 15.6823 14.5043C15.5948 14.3461 15.6055 14.3399 15.7774 13.9386C15.963 14.1049 16.1336 14.258 16.3286 14.433C16.7536 14.0968 16.7717 13.5737 17.0348 13.1337C16.0805 12.3505 15.1605 11.5918 13.8442 11.5093C13.8467 12.1487 13.5473 12.4968 12.9348 12.6768C12.6386 12.7636 12.3492 13.0486 12.1705 13.3193C11.8461 13.8118 12.2086 14.3805 12.7992 14.378C13.0211 14.3761 13.2417 14.3461 13.463 14.3499C14.4999 14.3636 15.0748 15.1705 14.758 16.158C14.5536 16.7949 14.6505 17.0174 15.2155 17.3362C15.4836 17.4868 15.7192 17.4968 15.9692 17.3161C16.2474 17.1136 16.5211 16.9036 16.8142 16.7243C17.3899 16.3711 17.9298 16.4612 18.3955 16.9618C18.4123 16.9799 18.4292 16.9974 18.4467 17.0143C18.6149 17.1786 18.6955 17.4662 19.0105 17.4205C19.3155 17.3762 19.6324 17.2618 19.7405 16.9799C20.0449 16.1868 20.5555 16.0105 21.3042 16.3324C21.3867 16.3674 21.4974 16.3461 21.5949 16.338C21.6399 16.3336 21.6824 16.2987 21.7261 16.2774C21.573 15.1962 19.9655 14.0337 18.333 13.8555C18.228 14.1618 18.1198 14.4793 17.9886 14.8624Z" fill="#82BE40"/>
<path d="M16.7836 14.7948C16.9442 14.9629 17.0886 15.1054 17.2736 14.8873C17.3961 14.7435 17.5255 14.5729 17.5642 14.3941C17.7317 13.6341 18.1217 12.9829 18.5148 12.3298C18.8692 11.7385 19.2267 11.1491 19.5604 10.5466C20.5598 8.7429 21.5486 6.93415 22.5648 5.08415C22.3592 4.79915 22.0098 4.70352 21.6261 4.54102C21.5167 4.72789 21.4117 4.88603 21.3261 5.05478C20.4442 6.78103 19.5498 8.4979 18.8392 10.3073C18.4004 11.4241 17.8361 12.491 17.3304 13.5823C17.1461 13.9798 16.9698 14.381 16.7836 14.7948Z" fill="#B69267"/>
<path d="M10.9055 21.0892C10.9055 21.0892 8.01615 18.9148 9.19677 16.1042C10.3768 13.2929 11.0693 18.3429 12.503 20.0392C13.9361 21.7348 12.0311 22.2792 10.9055 21.0892Z" fill="white"/>
<path d="M15.0367 23.4561C15.0367 23.4561 21.1255 18.5148 20.0898 16.4198C19.0542 14.3255 17.6824 13.9792 17.6824 13.9792L18.6367 13.2617C18.6367 13.2617 24.3592 14.7092 21.9042 18.8498C19.4505 22.9905 15.0367 23.4561 15.0367 23.4561Z" fill="#271B10" fill-opacity="0.1"/>
<path d="M44.2736 15.888C44.3961 15.7442 44.5248 15.573 44.5642 15.3949C44.7311 14.6342 45.121 13.983 45.5142 13.3299C45.8692 12.7392 46.2267 12.1499 46.5604 11.5474C47.5598 9.74362 48.5486 7.93424 49.5648 6.08424C49.3592 5.79924 49.0098 5.70423 48.6261 5.54111C48.5167 5.72798 48.4117 5.88673 48.3254 6.05548C47.4442 7.78111 46.5498 9.498 45.8392 11.308C45.4004 12.4249 44.8354 13.4917 44.3304 14.5824C44.1461 14.9805 43.9698 15.3811 43.7836 15.7949C43.9442 15.963 44.0886 16.1061 44.2736 15.888ZM45.3317 15.9311C45.5336 16.063 45.5504 16.3136 45.3548 16.4011C44.8385 16.633 44.3504 16.8061 43.7411 16.528C43.2323 16.2955 42.9292 15.9524 42.6817 15.5042C42.5942 15.3461 42.6048 15.3399 42.7767 14.9386C42.9623 15.1049 43.1336 15.258 43.3279 15.4324C43.7536 15.0967 43.7711 14.5736 44.0342 14.1336C43.0804 13.3505 42.1598 12.5917 40.8442 12.5092C40.8467 13.1486 40.5467 13.4967 39.9348 13.6767C39.6385 13.7636 39.3486 14.0486 39.1704 14.3192C38.8454 14.8117 39.2086 15.3805 39.7992 15.378C40.0204 15.3761 40.2417 15.3461 40.4623 15.3499C41.4998 15.3636 42.0742 16.1705 41.7579 17.158C41.5529 17.7949 41.6504 18.0174 42.2154 18.3361C42.4835 18.4867 42.7192 18.4967 42.9686 18.3161C43.2467 18.1136 43.5211 17.9036 43.8142 17.7242C44.3898 17.3711 44.9298 17.4611 45.3954 17.9617C45.4117 17.9799 45.4292 17.9974 45.4467 18.0142C45.6148 18.1786 45.6948 18.4661 46.0098 18.4205C46.3154 18.3761 46.6317 18.2617 46.7398 17.9799C47.0448 17.1867 47.5554 17.0105 48.3036 17.3324C48.3861 17.3674 48.4973 17.3461 48.5942 17.338C48.6392 17.3336 48.6823 17.2986 48.7261 17.2774C48.5729 16.1961 46.9654 15.0336 45.3323 14.8555C45.2273 15.1617 45.1198 15.4792 44.9885 15.8624C45.1448 15.8911 45.2567 15.8824 45.3317 15.9311ZM47.5973 17.8642C47.4911 18.0142 47.3823 18.1449 47.2992 18.2899C47.0429 18.738 46.6129 18.9142 46.1479 19.0105C45.7911 19.0842 45.4617 18.9992 45.2267 18.6867C45.1529 18.5874 45.0842 18.4842 45.0035 18.3924C44.681 18.0217 44.4536 17.973 44.0423 18.223C43.8123 18.363 43.6098 18.5467 43.3917 18.7067C42.9342 19.0411 42.4704 19.1667 41.9779 18.7661C41.8648 18.6742 41.7217 18.6186 41.6017 18.5336C41.0867 18.1711 40.9761 17.8067 41.1761 17.203C41.2298 17.0411 41.2867 16.8717 41.2917 16.7042C41.3104 16.1874 41.0223 15.8749 40.506 15.8474C40.261 15.8342 40.0154 15.8711 39.7692 15.8736C38.8448 15.8811 38.2723 14.9042 38.7311 14.0955C38.9686 13.6761 39.2967 13.3542 39.7717 13.2099C39.8654 13.1811 39.9623 13.1586 40.0548 13.1255C40.2373 13.0611 40.3767 12.9217 40.2948 12.7399C40.2354 12.608 40.0692 12.4636 39.9317 12.4405C39.7217 12.4061 39.4767 12.4242 39.2792 12.5024C38.6185 12.7649 37.9379 13.0055 37.3292 13.363C36.5548 13.8167 36.1023 14.5617 35.9079 15.433C35.6561 16.5642 35.5411 17.7086 35.6029 18.8742C35.6698 20.1586 36.1986 21.1942 37.1561 22.0192C37.9579 22.7092 38.7898 23.3555 39.7079 23.8955C40.9361 24.6161 42.1861 24.6249 43.4592 24.1024C44.0492 23.8599 44.6092 23.543 45.1736 23.2417C46.1736 22.7074 46.8967 21.8674 47.5467 20.973C47.9504 20.4167 48.2648 19.7961 48.6167 19.203C48.8092 18.8792 48.9379 18.5411 48.8173 18.1199C48.4236 18.0374 48.0229 17.9536 47.5973 17.8642ZM45.0735 11.9267C45.4623 11.0267 45.8298 10.1161 46.2292 9.21987C46.5785 8.43549 46.9467 7.65923 47.3298 6.89048C47.6042 6.34048 47.9148 5.80737 48.2117 5.26799C48.3517 5.01299 48.5504 4.93174 48.8273 5.05986C49.0723 5.17299 49.3273 5.26362 49.5711 5.38049C50.3161 5.73862 50.371 5.90861 49.9673 6.62111C49.7129 7.07173 49.4448 7.51424 49.186 7.96174C48.0779 9.88112 46.9685 11.7999 45.8642 13.7211C45.7473 13.9236 45.536 14.1174 45.6367 14.2617C46.2498 14.5205 46.7479 14.7142 47.2317 14.938C47.4985 15.0617 47.7454 15.2299 47.9961 15.3861C48.9779 15.9967 49.5986 16.7755 49.4479 18.0405C49.3704 18.6905 49.2542 19.2999 48.9042 19.8499C48.5492 20.4086 48.2061 20.9805 47.8004 21.5024C47.1367 22.3542 46.436 23.1811 45.4492 23.6874C44.836 24.0011 44.2261 24.3274 43.5898 24.588C42.3504 25.0955 41.0942 25.1255 39.8779 24.513C38.6885 23.9142 37.5798 23.1917 36.6061 22.2674C35.7748 21.4792 35.2167 20.5717 35.0748 19.4099C34.8867 17.8705 35.0692 16.3699 35.446 14.8824C35.4873 14.718 35.5704 14.563 35.6454 14.4099C36.2154 13.2517 37.2129 12.6105 38.3767 12.1892C40.1536 11.5474 41.8023 11.7942 43.3029 12.9555C43.6073 13.1905 43.9079 13.4286 44.2742 13.7155C44.5604 13.0767 44.8242 12.5049 45.0735 11.9267Z" fill="#111111"/>
<path d="M48.8174 18.1199C48.4236 18.0374 48.023 17.953 47.598 17.8642C47.4917 18.0142 47.3824 18.1449 47.2993 18.2892C47.043 18.7374 46.6136 18.9143 46.148 19.0105C45.7911 19.0843 45.4624 18.9986 45.2274 18.6861C45.1536 18.5874 45.0842 18.4842 45.0036 18.3924C44.6817 18.0217 44.4543 17.973 44.0424 18.223C43.8124 18.363 43.6099 18.5468 43.3918 18.7061C42.9349 19.0411 42.4711 19.1667 41.9786 18.7661C41.8649 18.6742 41.7217 18.6186 41.6017 18.5336C41.0874 18.1711 40.9761 17.8067 41.1761 17.2024C41.2299 17.0405 41.2867 16.8717 41.2924 16.7036C41.3105 16.1874 41.0224 15.8742 40.5061 15.8467C40.2618 15.8342 40.0155 15.8705 39.7692 15.873C38.8455 15.8811 38.273 14.9036 38.7311 14.0955C38.9686 13.6761 39.2974 13.3542 39.7718 13.2099C39.8661 13.1811 39.9624 13.1586 40.0549 13.1255C40.2374 13.0605 40.3767 12.9217 40.2949 12.7399C40.2361 12.608 40.0699 12.4636 39.9317 12.4405C39.7217 12.4055 39.4774 12.4242 39.2792 12.5024C38.6192 12.7649 37.9386 13.0049 37.3292 13.363C36.5555 13.8161 36.1024 14.5618 35.9086 15.433C35.6561 16.5643 35.5418 17.7086 35.603 18.8742C35.6705 20.1586 36.1992 21.1942 37.1567 22.0186C37.958 22.7092 38.7899 23.3555 39.7086 23.8949C40.9368 24.6161 42.1868 24.6243 43.4599 24.1018C44.0493 23.8599 44.6099 23.543 45.1742 23.2411C46.1742 22.7074 46.8974 21.8674 47.5474 20.9724C47.9505 20.4167 48.2649 19.7961 48.6174 19.2024C48.8093 18.8792 48.938 18.5411 48.8174 18.1199Z" fill="#D81F26"/>
<path d="M44.9886 15.8624C45.1448 15.8911 45.2573 15.8824 45.3323 15.9312C45.5336 16.063 45.5505 16.3136 45.3555 16.4011C44.8392 16.633 44.3505 16.8061 43.7417 16.528C43.2323 16.2955 42.9292 15.9524 42.6823 15.5043C42.5948 15.3461 42.6055 15.3399 42.7774 14.9386C42.963 15.1049 43.1336 15.258 43.3286 15.433C43.7536 15.0968 43.7717 14.5737 44.0348 14.1337C43.0805 13.3505 42.1605 12.5918 40.8442 12.5093C40.8467 13.1487 40.5473 13.4968 39.9348 13.6768C39.6386 13.7636 39.3492 14.0486 39.1705 14.3193C38.8461 14.8118 39.2086 15.3805 39.7992 15.378C40.0211 15.3761 40.2417 15.3461 40.463 15.3499C41.4999 15.3636 42.0748 16.1705 41.758 17.158C41.5536 17.7949 41.6505 18.0174 42.2155 18.3362C42.4836 18.4868 42.7192 18.4968 42.9692 18.3161C43.2474 18.1136 43.5211 17.9036 43.8142 17.7243C44.3899 17.3711 44.9298 17.4612 45.3955 17.9618C45.4123 17.9799 45.4292 17.9974 45.4467 18.0143C45.6149 18.1786 45.6955 18.4662 46.0105 18.4205C46.3155 18.3762 46.6324 18.2618 46.7405 17.9799C47.0449 17.1868 47.5555 17.0105 48.3042 17.3324C48.3867 17.3674 48.4974 17.3461 48.5949 17.338C48.6399 17.3336 48.6824 17.2987 48.7261 17.2774C48.573 16.1962 46.9655 15.0337 45.333 14.8555C45.228 15.1618 45.1198 15.4793 44.9886 15.8624Z" fill="#82BE40"/>
<path d="M43.7836 15.7948C43.9442 15.9629 44.0886 16.1054 44.2736 15.8873C44.3961 15.7435 44.5255 15.5729 44.5642 15.3941C44.7317 14.6341 45.1217 13.9829 45.5148 13.3298C45.8692 12.7385 46.2267 12.1491 46.5604 11.5466C47.5598 9.7429 48.5486 7.93415 49.5648 6.08415C49.3592 5.79915 49.0098 5.70352 48.6261 5.54102C48.5167 5.72789 48.4117 5.88603 48.3261 6.05478C47.4442 7.78103 46.5498 9.4979 45.8392 11.3073C45.4004 12.4241 44.8361 13.491 44.3304 14.5823C44.1461 14.9798 43.9698 15.381 43.7836 15.7948Z" fill="#B69267"/>
<path d="M37.9055 22.0892C37.9055 22.0892 35.0161 19.9148 36.1968 17.1042C37.3768 14.2929 38.0693 19.3429 39.503 21.0392C40.9361 22.7348 39.0311 23.2792 37.9055 22.0892Z" fill="white"/>
<path d="M42.0367 24.4561C42.0367 24.4561 48.1255 19.5148 47.0898 17.4198C46.0542 15.3255 44.6824 14.9792 44.6824 14.9792L45.6367 14.2617C45.6367 14.2617 51.3592 15.7092 48.9042 19.8498C46.4505 23.9905 42.0367 24.4561 42.0367 24.4561Z" fill="#271B10" fill-opacity="0.1"/>
<path d="M74.2736 16.888C74.3961 16.7442 74.5248 16.573 74.5642 16.3949C74.7311 15.6342 75.121 14.983 75.5142 14.3299C75.8692 13.7392 76.2267 13.1499 76.5604 12.5474C77.5598 10.7436 78.5486 8.93424 79.5648 7.08424C79.3592 6.79924 79.0098 6.70423 78.6261 6.54111C78.5167 6.72798 78.4117 6.88673 78.3254 7.05548C77.4442 8.78111 76.5498 10.498 75.8392 12.308C75.4004 13.4249 74.8354 14.4917 74.3304 15.5824C74.1461 15.9805 73.9698 16.3811 73.7836 16.7949C73.9442 16.963 74.0886 17.1061 74.2736 16.888ZM75.3317 16.9311C75.5336 17.063 75.5504 17.3136 75.3548 17.4011C74.8385 17.633 74.3504 17.8061 73.7411 17.528C73.2323 17.2955 72.9292 16.9524 72.6817 16.5042C72.5942 16.3461 72.6048 16.3399 72.7767 15.9386C72.9623 16.1049 73.1336 16.258 73.3279 16.4324C73.7536 16.0967 73.7711 15.5736 74.0342 15.1336C73.0804 14.3505 72.1598 13.5917 70.8442 13.5092C70.8467 14.1486 70.5467 14.4967 69.9348 14.6767C69.6385 14.7636 69.3486 15.0486 69.1704 15.3192C68.8454 15.8117 69.2086 16.3805 69.7992 16.378C70.0204 16.3761 70.2417 16.3461 70.4623 16.3499C71.4998 16.3636 72.0742 17.1705 71.7579 18.158C71.5529 18.7949 71.6504 19.0174 72.2154 19.3361C72.4835 19.4867 72.7192 19.4967 72.9686 19.3161C73.2467 19.1136 73.5211 18.9036 73.8142 18.7242C74.3898 18.3711 74.9298 18.4611 75.3954 18.9617C75.4117 18.9799 75.4292 18.9974 75.4467 19.0142C75.6148 19.1786 75.6948 19.4661 76.0098 19.4205C76.3154 19.3761 76.6317 19.2617 76.7398 18.9799C77.0448 18.1867 77.5554 18.0105 78.3036 18.3324C78.3861 18.3674 78.4973 18.3461 78.5942 18.338C78.6392 18.3336 78.6823 18.2986 78.7261 18.2774C78.5729 17.1961 76.9654 16.0336 75.3323 15.8555C75.2273 16.1617 75.1198 16.4792 74.9885 16.8624C75.1448 16.8911 75.2567 16.8824 75.3317 16.9311ZM77.5973 18.8642C77.4911 19.0142 77.3823 19.1449 77.2992 19.2899C77.0429 19.738 76.6129 19.9142 76.1479 20.0105C75.7911 20.0842 75.4617 19.9992 75.2267 19.6867C75.1529 19.5874 75.0842 19.4842 75.0035 19.3924C74.681 19.0217 74.4536 18.973 74.0423 19.223C73.8123 19.363 73.6098 19.5467 73.3917 19.7067C72.9342 20.0411 72.4704 20.1667 71.9779 19.7661C71.8648 19.6742 71.7217 19.6186 71.6017 19.5336C71.0867 19.1711 70.9761 18.8067 71.1761 18.203C71.2298 18.0411 71.2867 17.8717 71.2917 17.7042C71.3104 17.1874 71.0223 16.8749 70.506 16.8474C70.261 16.8342 70.0154 16.8711 69.7692 16.8736C68.8448 16.8811 68.2723 15.9042 68.7311 15.0955C68.9686 14.6761 69.2967 14.3542 69.7717 14.2099C69.8654 14.1811 69.9623 14.1586 70.0548 14.1255C70.2373 14.0611 70.3767 13.9217 70.2948 13.7399C70.2354 13.608 70.0692 13.4636 69.9317 13.4405C69.7217 13.4061 69.4767 13.4242 69.2792 13.5024C68.6185 13.7649 67.9379 14.0055 67.3292 14.363C66.5548 14.8167 66.1023 15.5617 65.9079 16.433C65.6561 17.5642 65.5411 18.7086 65.6029 19.8742C65.6698 21.1586 66.1986 22.1942 67.1561 23.0192C67.9579 23.7092 68.7898 24.3555 69.7079 24.8955C70.9361 25.6161 72.1861 25.6249 73.4592 25.1024C74.0492 24.8599 74.6092 24.543 75.1736 24.2417C76.1736 23.7074 76.8967 22.8674 77.5467 21.973C77.9504 21.4167 78.2648 20.7961 78.6167 20.203C78.8092 19.8792 78.9379 19.5411 78.8173 19.1199C78.4236 19.0374 78.0229 18.9536 77.5973 18.8642ZM75.0735 12.9267C75.4623 12.0267 75.8298 11.1161 76.2292 10.2199C76.5785 9.43549 76.9467 8.65923 77.3298 7.89048C77.6042 7.34048 77.9148 6.80737 78.2117 6.26799C78.3517 6.01299 78.5504 5.93174 78.8273 6.05986C79.0723 6.17299 79.3273 6.26362 79.5711 6.38049C80.3161 6.73862 80.371 6.90861 79.9673 7.62111C79.7129 8.07173 79.4448 8.51424 79.186 8.96174C78.0779 10.8811 76.9685 12.7999 75.8642 14.7211C75.7473 14.9236 75.536 15.1174 75.6367 15.2617C76.2498 15.5205 76.7479 15.7142 77.2317 15.938C77.4985 16.0617 77.7454 16.2299 77.9961 16.3861C78.9779 16.9967 79.5986 17.7755 79.4479 19.0405C79.3704 19.6905 79.2542 20.2999 78.9042 20.8499C78.5492 21.4086 78.2061 21.9805 77.8004 22.5024C77.1367 23.3542 76.436 24.1811 75.4492 24.6874C74.836 25.0011 74.2261 25.3274 73.5898 25.588C72.3504 26.0955 71.0942 26.1255 69.8779 25.513C68.6885 24.9142 67.5798 24.1917 66.6061 23.2674C65.7748 22.4792 65.2167 21.5717 65.0748 20.4099C64.8867 18.8705 65.0692 17.3699 65.446 15.8824C65.4873 15.718 65.5704 15.563 65.6454 15.4099C66.2154 14.2517 67.2129 13.6105 68.3767 13.1892C70.1536 12.5474 71.8023 12.7942 73.3029 13.9555C73.6073 14.1905 73.9079 14.4286 74.2742 14.7155C74.5604 14.0767 74.8242 13.5049 75.0735 12.9267Z" fill="#111111"/>
<path d="M78.8174 19.1199C78.4236 19.0374 78.023 18.953 77.598 18.8642C77.4917 19.0142 77.3824 19.1449 77.2993 19.2892C77.043 19.7374 76.6136 19.9143 76.148 20.0105C75.7911 20.0843 75.4624 19.9986 75.2274 19.6861C75.1536 19.5874 75.0842 19.4842 75.0036 19.3924C74.6817 19.0217 74.4543 18.973 74.0424 19.223C73.8124 19.363 73.6099 19.5468 73.3918 19.7061C72.9349 20.0411 72.4711 20.1667 71.9786 19.7661C71.8649 19.6742 71.7217 19.6186 71.6017 19.5336C71.0874 19.1711 70.9761 18.8067 71.1761 18.2024C71.2299 18.0405 71.2867 17.8717 71.2924 17.7036C71.3105 17.1874 71.0224 16.8742 70.5061 16.8467C70.2618 16.8342 70.0155 16.8705 69.7692 16.873C68.8455 16.8811 68.273 15.9036 68.7311 15.0955C68.9686 14.6761 69.2974 14.3542 69.7718 14.2099C69.8661 14.1811 69.9624 14.1586 70.0549 14.1255C70.2374 14.0605 70.3767 13.9217 70.2949 13.7399C70.2361 13.608 70.0699 13.4636 69.9317 13.4405C69.7217 13.4055 69.4774 13.4242 69.2792 13.5024C68.6192 13.7649 67.9386 14.0049 67.3292 14.363C66.5555 14.8161 66.1024 15.5618 65.9086 16.433C65.6561 17.5643 65.5418 18.7086 65.603 19.8742C65.6705 21.1586 66.1992 22.1942 67.1567 23.0186C67.958 23.7092 68.7899 24.3555 69.7086 24.8949C70.9368 25.6161 72.1868 25.6243 73.4599 25.1018C74.0493 24.8599 74.6099 24.543 75.1742 24.2411C76.1742 23.7074 76.8974 22.8674 77.5474 21.9724C77.9505 21.4167 78.2649 20.7961 78.6174 20.2024C78.8093 19.8792 78.938 19.5411 78.8174 19.1199Z" fill="#D81F26"/>
<path d="M74.9886 16.8624C75.1448 16.8911 75.2573 16.8824 75.3323 16.9312C75.5336 17.063 75.5505 17.3136 75.3555 17.4011C74.8392 17.633 74.3505 17.8061 73.7417 17.528C73.2323 17.2955 72.9292 16.9524 72.6823 16.5043C72.5948 16.3461 72.6055 16.3399 72.7774 15.9386C72.963 16.1049 73.1336 16.258 73.3286 16.433C73.7536 16.0968 73.7717 15.5737 74.0348 15.1337C73.0805 14.3505 72.1605 13.5918 70.8442 13.5093C70.8467 14.1487 70.5473 14.4968 69.9348 14.6768C69.6386 14.7636 69.3492 15.0486 69.1705 15.3193C68.8461 15.8118 69.2086 16.3805 69.7992 16.378C70.0211 16.3761 70.2417 16.3461 70.463 16.3499C71.4999 16.3636 72.0748 17.1705 71.758 18.158C71.5536 18.7949 71.6505 19.0174 72.2155 19.3362C72.4836 19.4868 72.7192 19.4968 72.9692 19.3161C73.2474 19.1136 73.5211 18.9036 73.8142 18.7243C74.3899 18.3711 74.9298 18.4612 75.3955 18.9618C75.4123 18.9799 75.4292 18.9974 75.4467 19.0143C75.6149 19.1786 75.6955 19.4662 76.0105 19.4205C76.3155 19.3762 76.6324 19.2618 76.7405 18.9799C77.0449 18.1868 77.5555 18.0105 78.3042 18.3324C78.3867 18.3674 78.4974 18.3461 78.5949 18.338C78.6399 18.3336 78.6824 18.2987 78.7261 18.2774C78.573 17.1962 76.9655 16.0337 75.333 15.8555C75.228 16.1618 75.1198 16.4793 74.9886 16.8624Z" fill="#82BE40"/>
<path d="M73.7836 16.7948C73.9442 16.9629 74.0886 17.1054 74.2736 16.8873C74.3961 16.7435 74.5255 16.5729 74.5642 16.3941C74.7317 15.6341 75.1217 14.9829 75.5148 14.3298C75.8692 13.7385 76.2267 13.1491 76.5604 12.5466C77.5598 10.7429 78.5486 8.93415 79.5648 7.08415C79.3592 6.79915 79.0098 6.70352 78.6261 6.54102C78.5167 6.72789 78.4117 6.88603 78.3261 7.05478C77.4442 8.78103 76.5498 10.4979 75.8392 12.3073C75.4004 13.4241 74.8361 14.491 74.3304 15.5823C74.1461 15.9798 73.9698 16.381 73.7836 16.7948Z" fill="#B69267"/>
<path d="M67.9055 23.0892C67.9055 23.0892 65.0161 20.9148 66.1968 18.1042C67.3768 15.2929 68.0693 20.3429 69.503 22.0392C70.9361 23.7348 69.0311 24.2792 67.9055 23.0892Z" fill="white"/>
<path d="M72.0367 25.4561C72.0367 25.4561 78.1255 20.5148 77.0898 18.4198C76.0542 16.3255 74.6824 15.9792 74.6824 15.9792L75.6367 15.2617C75.6367 15.2617 81.3592 16.7092 78.9042 20.8498C76.4505 24.9905 72.0367 25.4561 72.0367 25.4561Z" fill="#271B10" fill-opacity="0.1"/>
<path d="M31.2736 41.888C31.3961 41.7442 31.5248 41.573 31.5642 41.3949C31.7311 40.6342 32.121 39.983 32.5142 39.3299C32.8692 38.7392 33.2267 38.1499 33.5604 37.5474C34.5598 35.7436 35.5486 33.9342 36.5648 32.0842C36.3592 31.7992 36.0098 31.7042 35.6261 31.5411C35.5167 31.728 35.4117 31.8867 35.3254 32.0555C34.4442 33.7811 33.5498 35.498 32.8392 37.308C32.4004 38.4249 31.8354 39.4917 31.3304 40.5824C31.1461 40.9805 30.9698 41.3811 30.7836 41.7949C30.9442 41.963 31.0886 42.1061 31.2736 41.888ZM32.3317 41.9311C32.5336 42.063 32.5504 42.3136 32.3548 42.4011C31.8385 42.633 31.3504 42.8061 30.7411 42.528C30.2323 42.2955 29.9292 41.9524 29.6817 41.5042C29.5942 41.3461 29.6048 41.3399 29.7767 40.9386C29.9623 41.1049 30.1336 41.258 30.3279 41.4324C30.7536 41.0967 30.7711 40.5736 31.0342 40.1336C30.0804 39.3505 29.1598 38.5917 27.8442 38.5092C27.8467 39.1486 27.5467 39.4967 26.9348 39.6767C26.6385 39.7636 26.3486 40.0486 26.1704 40.3192C25.8454 40.8117 26.2086 41.3805 26.7992 41.378C27.0204 41.3761 27.2417 41.3461 27.4623 41.3499C28.4998 41.3636 29.0742 42.1705 28.7579 43.158C28.5529 43.7949 28.6504 44.0174 29.2154 44.3361C29.4835 44.4867 29.7192 44.4967 29.9686 44.3161C30.2467 44.1136 30.5211 43.9036 30.8142 43.7242C31.3898 43.3711 31.9298 43.4611 32.3954 43.9617C32.4117 43.9799 32.4292 43.9974 32.4467 44.0142C32.6148 44.1786 32.6948 44.4661 33.0098 44.4205C33.3154 44.3761 33.6317 44.2617 33.7398 43.9799C34.0448 43.1867 34.5554 43.0105 35.3036 43.3324C35.3861 43.3674 35.4973 43.3461 35.5942 43.338C35.6392 43.3336 35.6823 43.2986 35.7261 43.2774C35.5729 42.1961 33.9654 41.0336 32.3323 40.8555C32.2273 41.1617 32.1198 41.4792 31.9885 41.8624C32.1448 41.8911 32.2567 41.8824 32.3317 41.9311ZM34.5973 43.8642C34.4911 44.0142 34.3823 44.1449 34.2992 44.2899C34.0429 44.738 33.6129 44.9142 33.1479 45.0105C32.7911 45.0842 32.4617 44.9992 32.2267 44.6867C32.1529 44.5874 32.0842 44.4842 32.0035 44.3924C31.681 44.0217 31.4536 43.973 31.0423 44.223C30.8123 44.363 30.6098 44.5467 30.3917 44.7067C29.9342 45.0411 29.4704 45.1667 28.9779 44.7661C28.8648 44.6742 28.7217 44.6186 28.6017 44.5336C28.0867 44.1711 27.9761 43.8067 28.1761 43.203C28.2298 43.0411 28.2867 42.8717 28.2917 42.7042C28.3104 42.1874 28.0223 41.8749 27.506 41.8474C27.261 41.8342 27.0154 41.8711 26.7692 41.8736C25.8448 41.8811 25.2723 40.9042 25.7311 40.0955C25.9686 39.6761 26.2967 39.3542 26.7717 39.2099C26.8654 39.1811 26.9623 39.1586 27.0548 39.1255C27.2373 39.0611 27.3767 38.9217 27.2948 38.7399C27.2354 38.608 27.0692 38.4636 26.9317 38.4405C26.7217 38.4061 26.4767 38.4242 26.2792 38.5024C25.6185 38.7649 24.9379 39.0055 24.3292 39.363C23.5548 39.8167 23.1023 40.5617 22.9079 41.433C22.6561 42.5642 22.5411 43.7086 22.6029 44.8742C22.6698 46.1586 23.1986 47.1942 24.1561 48.0192C24.9579 48.7092 25.7898 49.3555 26.7079 49.8955C27.9361 50.6161 29.1861 50.6249 30.4592 50.1024C31.0492 49.8599 31.6092 49.543 32.1736 49.2417C33.1736 48.7074 33.8967 47.8674 34.5467 46.973C34.9504 46.4167 35.2648 45.7961 35.6167 45.203C35.8092 44.8792 35.9379 44.5411 35.8173 44.1199C35.4236 44.0374 35.0229 43.9536 34.5973 43.8642ZM32.0735 37.9267C32.4623 37.0267 32.8298 36.1161 33.2292 35.2199C33.5785 34.4355 33.9467 33.6592 34.3298 32.8905C34.6042 32.3405 34.9148 31.8074 35.2117 31.268C35.3517 31.013 35.5504 30.9317 35.8273 31.0599C36.0723 31.173 36.3273 31.2636 36.5711 31.3805C37.3161 31.7386 37.371 31.9086 36.9673 32.6211C36.7129 33.0717 36.4448 33.5142 36.186 33.9617C35.0779 35.8811 33.9685 37.7999 32.8642 39.7211C32.7473 39.9236 32.536 40.1174 32.6367 40.2617C33.2498 40.5205 33.7479 40.7142 34.2317 40.938C34.4985 41.0617 34.7454 41.2299 34.9961 41.3861C35.9779 41.9967 36.5986 42.7755 36.4479 44.0405C36.3704 44.6905 36.2542 45.2999 35.9042 45.8499C35.5492 46.4086 35.2061 46.9805 34.8004 47.5024C34.1367 48.3542 33.436 49.1811 32.4492 49.6874C31.836 50.0011 31.2261 50.3274 30.5898 50.588C29.3504 51.0955 28.0942 51.1255 26.8779 50.513C25.6885 49.9142 24.5798 49.1917 23.6061 48.2674C22.7748 47.4792 22.2167 46.5717 22.0748 45.4099C21.8867 43.8705 22.0692 42.3699 22.446 40.8824C22.4873 40.718 22.5704 40.563 22.6454 40.4099C23.2154 39.2517 24.2129 38.6105 25.3767 38.1892C27.1536 37.5474 28.8023 37.7942 30.3029 38.9555C30.6073 39.1905 30.9079 39.4286 31.2742 39.7155C31.5604 39.0767 31.8242 38.5049 32.0735 37.9267Z" fill="#111111"/>
<path d="M35.8174 44.1199C35.4236 44.0374 35.023 43.953 34.598 43.8642C34.4917 44.0142 34.3824 44.1449 34.2993 44.2892C34.043 44.7374 33.6136 44.9143 33.148 45.0105C32.7911 45.0843 32.4624 44.9986 32.2274 44.6861C32.1536 44.5874 32.0842 44.4842 32.0036 44.3924C31.6817 44.0217 31.4543 43.973 31.0424 44.223C30.8124 44.363 30.6099 44.5468 30.3918 44.7061C29.9349 45.0411 29.4711 45.1667 28.9786 44.7661C28.8649 44.6742 28.7217 44.6186 28.6017 44.5336C28.0874 44.1711 27.9761 43.8067 28.1761 43.2024C28.2299 43.0405 28.2867 42.8717 28.2924 42.7036C28.3105 42.1874 28.0224 41.8742 27.5061 41.8467C27.2618 41.8342 27.0155 41.8705 26.7692 41.873C25.8455 41.8811 25.273 40.9036 25.7311 40.0955C25.9686 39.6761 26.2974 39.3542 26.7718 39.2099C26.8661 39.1811 26.9624 39.1586 27.0549 39.1255C27.2374 39.0605 27.3767 38.9217 27.2949 38.7399C27.2361 38.608 27.0699 38.4636 26.9317 38.4405C26.7217 38.4055 26.4774 38.4242 26.2792 38.5024C25.6192 38.7649 24.9386 39.0049 24.3292 39.363C23.5555 39.8161 23.1024 40.5618 22.9086 41.433C22.6561 42.5643 22.5418 43.7086 22.603 44.8742C22.6705 46.1586 23.1992 47.1942 24.1567 48.0186C24.958 48.7092 25.7899 49.3555 26.7086 49.8949C27.9368 50.6161 29.1868 50.6243 30.4599 50.1018C31.0493 49.8599 31.6099 49.543 32.1742 49.2411C33.1742 48.7074 33.8974 47.8674 34.5474 46.9724C34.9505 46.4167 35.2649 45.7961 35.6174 45.2024C35.8093 44.8792 35.938 44.5411 35.8174 44.1199Z" fill="#D81F26"/>
<path d="M31.9886 41.8624C32.1448 41.8911 32.2573 41.8824 32.3323 41.9312C32.5336 42.063 32.5505 42.3136 32.3555 42.4011C31.8392 42.633 31.3505 42.8061 30.7417 42.528C30.2323 42.2955 29.9292 41.9524 29.6823 41.5043C29.5948 41.3461 29.6055 41.3399 29.7774 40.9386C29.963 41.1049 30.1336 41.258 30.3286 41.433C30.7536 41.0968 30.7717 40.5737 31.0348 40.1337C30.0805 39.3505 29.1605 38.5918 27.8442 38.5093C27.8467 39.1487 27.5473 39.4968 26.9348 39.6768C26.6386 39.7636 26.3492 40.0486 26.1705 40.3193C25.8461 40.8118 26.2086 41.3805 26.7992 41.378C27.0211 41.3761 27.2417 41.3461 27.463 41.3499C28.4999 41.3636 29.0748 42.1705 28.758 43.158C28.5536 43.7949 28.6505 44.0174 29.2155 44.3362C29.4836 44.4868 29.7192 44.4968 29.9692 44.3161C30.2474 44.1136 30.5211 43.9036 30.8142 43.7243C31.3899 43.3711 31.9298 43.4612 32.3955 43.9618C32.4123 43.9799 32.4292 43.9974 32.4467 44.0143C32.6149 44.1786 32.6955 44.4662 33.0105 44.4205C33.3155 44.3762 33.6324 44.2618 33.7405 43.9799C34.0449 43.1868 34.5555 43.0105 35.3042 43.3324C35.3867 43.3674 35.4974 43.3461 35.5949 43.338C35.6399 43.3336 35.6824 43.2987 35.7261 43.2774C35.573 42.1962 33.9655 41.0337 32.333 40.8555C32.228 41.1618 32.1198 41.4793 31.9886 41.8624Z" fill="#82BE40"/>
<path d="M30.7836 41.7948C30.9442 41.9629 31.0886 42.1054 31.2736 41.8873C31.3961 41.7435 31.5255 41.5729 31.5642 41.3941C31.7317 40.6341 32.1217 39.9829 32.5148 39.3298C32.8692 38.7385 33.2267 38.1491 33.5604 37.5466C34.5598 35.7429 35.5486 33.9342 36.5648 32.0842C36.3592 31.7992 36.0098 31.7035 35.6261 31.541C35.5167 31.7279 35.4117 31.886 35.3261 32.0548C34.4442 33.781 33.5498 35.4979 32.8392 37.3073C32.4004 38.4241 31.8361 39.491 31.3304 40.5823C31.1461 40.9798 30.9698 41.381 30.7836 41.7948Z" fill="#B69267"/>
<path d="M24.9055 48.0892C24.9055 48.0892 22.0161 45.9148 23.1968 43.1042C24.3768 40.2929 25.0693 45.3429 26.503 47.0392C27.9361 48.7348 26.0311 49.2792 24.9055 48.0892Z" fill="white"/>
<path d="M29.0367 50.4561C29.0367 50.4561 35.1255 45.5148 34.0898 43.4198C33.0542 41.3255 31.6824 40.9792 31.6824 40.9792L32.6367 40.2617C32.6367 40.2617 38.3592 41.7092 35.9042 45.8498C33.4505 49.9905 29.0367 50.4561 29.0367 50.4561Z" fill="#271B10" fill-opacity="0.1"/>
<path d="M61.2736 42.888C61.3961 42.7442 61.5248 42.573 61.5642 42.3949C61.7311 41.6342 62.121 40.983 62.5142 40.3299C62.8692 39.7392 63.2267 39.1499 63.5604 38.5474C64.5598 36.7436 65.5486 34.9342 66.5648 33.0842C66.3592 32.7992 66.0098 32.7042 65.6261 32.5411C65.5167 32.728 65.4117 32.8867 65.3254 33.0555C64.4442 34.7811 63.5498 36.498 62.8392 38.308C62.4004 39.4249 61.8354 40.4917 61.3304 41.5824C61.1461 41.9805 60.9698 42.3811 60.7836 42.7949C60.9442 42.963 61.0886 43.1061 61.2736 42.888ZM62.3317 42.9311C62.5336 43.063 62.5504 43.3136 62.3548 43.4011C61.8385 43.633 61.3504 43.8061 60.7411 43.528C60.2323 43.2955 59.9292 42.9524 59.6817 42.5042C59.5942 42.3461 59.6048 42.3399 59.7767 41.9386C59.9623 42.1049 60.1336 42.258 60.3279 42.4324C60.7536 42.0967 60.7711 41.5736 61.0342 41.1336C60.0804 40.3505 59.1598 39.5917 57.8442 39.5092C57.8467 40.1486 57.5467 40.4967 56.9348 40.6767C56.6385 40.7636 56.3486 41.0486 56.1704 41.3192C55.8454 41.8117 56.2086 42.3805 56.7992 42.378C57.0204 42.3761 57.2417 42.3461 57.4623 42.3499C58.4998 42.3636 59.0742 43.1705 58.7579 44.158C58.5529 44.7949 58.6504 45.0174 59.2154 45.3361C59.4835 45.4867 59.7192 45.4967 59.9686 45.3161C60.2467 45.1136 60.5211 44.9036 60.8142 44.7242C61.3898 44.3711 61.9298 44.4611 62.3954 44.9617C62.4117 44.9799 62.4292 44.9974 62.4467 45.0142C62.6148 45.1786 62.6948 45.4661 63.0098 45.4205C63.3154 45.3761 63.6317 45.2617 63.7398 44.9799C64.0448 44.1867 64.5554 44.0105 65.3036 44.3324C65.3861 44.3674 65.4973 44.3461 65.5942 44.338C65.6392 44.3336 65.6823 44.2986 65.7261 44.2774C65.5729 43.1961 63.9654 42.0336 62.3323 41.8555C62.2273 42.1617 62.1198 42.4792 61.9885 42.8624C62.1448 42.8911 62.2567 42.8824 62.3317 42.9311ZM64.5973 44.8642C64.4911 45.0142 64.3823 45.1449 64.2992 45.2899C64.0429 45.738 63.6129 45.9142 63.1479 46.0105C62.7911 46.0842 62.4617 45.9992 62.2267 45.6867C62.1529 45.5874 62.0842 45.4842 62.0035 45.3924C61.681 45.0217 61.4536 44.973 61.0423 45.223C60.8123 45.363 60.6098 45.5467 60.3917 45.7067C59.9342 46.0411 59.4704 46.1667 58.9779 45.7661C58.8648 45.6742 58.7217 45.6186 58.6017 45.5336C58.0867 45.1711 57.9761 44.8067 58.1761 44.203C58.2298 44.0411 58.2867 43.8717 58.2917 43.7042C58.3104 43.1874 58.0223 42.8749 57.506 42.8474C57.261 42.8342 57.0154 42.8711 56.7692 42.8736C55.8448 42.8811 55.2723 41.9042 55.7311 41.0955C55.9686 40.6761 56.2967 40.3542 56.7717 40.2099C56.8654 40.1811 56.9623 40.1586 57.0548 40.1255C57.2373 40.0611 57.3767 39.9217 57.2948 39.7399C57.2354 39.608 57.0692 39.4636 56.9317 39.4405C56.7217 39.4061 56.4767 39.4242 56.2792 39.5024C55.6185 39.7649 54.9379 40.0055 54.3292 40.363C53.5548 40.8167 53.1023 41.5617 52.9079 42.433C52.6561 43.5642 52.5411 44.7086 52.6029 45.8742C52.6698 47.1586 53.1986 48.1942 54.1561 49.0192C54.9579 49.7092 55.7898 50.3555 56.7079 50.8955C57.9361 51.6161 59.1861 51.6249 60.4592 51.1024C61.0492 50.8599 61.6092 50.543 62.1736 50.2417C63.1736 49.7074 63.8967 48.8674 64.5467 47.973C64.9504 47.4167 65.2648 46.7961 65.6167 46.203C65.8092 45.8792 65.9379 45.5411 65.8173 45.1199C65.4236 45.0374 65.0229 44.9536 64.5973 44.8642ZM62.0735 38.9267C62.4623 38.0267 62.8298 37.1161 63.2292 36.2199C63.5785 35.4355 63.9467 34.6592 64.3298 33.8905C64.6042 33.3405 64.9148 32.8074 65.2117 32.268C65.3517 32.013 65.5504 31.9317 65.8273 32.0599C66.0723 32.173 66.3273 32.2636 66.5711 32.3805C67.3161 32.7386 67.371 32.9086 66.9673 33.6211C66.7129 34.0717 66.4448 34.5142 66.186 34.9617C65.0779 36.8811 63.9685 38.7999 62.8642 40.7211C62.7473 40.9236 62.536 41.1174 62.6367 41.2617C63.2498 41.5205 63.7479 41.7142 64.2317 41.938C64.4985 42.0617 64.7454 42.2299 64.9961 42.3861C65.9779 42.9967 66.5986 43.7755 66.4479 45.0405C66.3704 45.6905 66.2542 46.2999 65.9042 46.8499C65.5492 47.4086 65.2061 47.9805 64.8004 48.5024C64.1367 49.3542 63.436 50.1811 62.4492 50.6874C61.836 51.0011 61.2261 51.3274 60.5898 51.588C59.3504 52.0955 58.0942 52.1255 56.8779 51.513C55.6885 50.9142 54.5798 50.1917 53.6061 49.2674C52.7748 48.4792 52.2167 47.5717 52.0748 46.4099C51.8867 44.8705 52.0692 43.3699 52.446 41.8824C52.4873 41.718 52.5704 41.563 52.6454 41.4099C53.2154 40.2517 54.2129 39.6105 55.3767 39.1892C57.1536 38.5474 58.8023 38.7942 60.3029 39.9555C60.6073 40.1905 60.9079 40.4286 61.2742 40.7155C61.5604 40.0767 61.8242 39.5049 62.0735 38.9267Z" fill="#111111"/>
<path d="M65.8174 45.1199C65.4236 45.0374 65.023 44.953 64.598 44.8642C64.4917 45.0142 64.3824 45.1449 64.2993 45.2892C64.043 45.7374 63.6136 45.9143 63.148 46.0105C62.7911 46.0843 62.4624 45.9986 62.2274 45.6861C62.1536 45.5874 62.0842 45.4842 62.0036 45.3924C61.6817 45.0217 61.4543 44.973 61.0424 45.223C60.8124 45.363 60.6099 45.5468 60.3918 45.7061C59.9349 46.0411 59.4711 46.1667 58.9786 45.7661C58.8649 45.6742 58.7217 45.6186 58.6017 45.5336C58.0874 45.1711 57.9761 44.8067 58.1761 44.2024C58.2299 44.0405 58.2867 43.8717 58.2924 43.7036C58.3105 43.1874 58.0224 42.8742 57.5061 42.8467C57.2618 42.8342 57.0155 42.8705 56.7692 42.873C55.8455 42.8811 55.273 41.9036 55.7311 41.0955C55.9686 40.6761 56.2974 40.3542 56.7718 40.2099C56.8661 40.1811 56.9624 40.1586 57.0549 40.1255C57.2374 40.0605 57.3767 39.9217 57.2949 39.7399C57.2361 39.608 57.0699 39.4636 56.9317 39.4405C56.7217 39.4055 56.4774 39.4242 56.2792 39.5024C55.6192 39.7649 54.9386 40.0049 54.3292 40.363C53.5555 40.8161 53.1024 41.5618 52.9086 42.433C52.6561 43.5643 52.5418 44.7086 52.603 45.8742C52.6705 47.1586 53.1992 48.1942 54.1567 49.0186C54.958 49.7092 55.7899 50.3555 56.7086 50.8949C57.9368 51.6161 59.1868 51.6243 60.4599 51.1018C61.0493 50.8599 61.6099 50.543 62.1742 50.2411C63.1742 49.7074 63.8974 48.8674 64.5474 47.9724C64.9505 47.4167 65.2649 46.7961 65.6174 46.2024C65.8093 45.8792 65.938 45.5411 65.8174 45.1199Z" fill="#D81F26"/>
<path d="M61.9886 42.8624C62.1448 42.8911 62.2573 42.8824 62.3323 42.9312C62.5336 43.063 62.5505 43.3136 62.3555 43.4011C61.8392 43.633 61.3505 43.8061 60.7417 43.528C60.2323 43.2955 59.9292 42.9524 59.6823 42.5043C59.5948 42.3461 59.6055 42.3399 59.7774 41.9386C59.963 42.1049 60.1336 42.258 60.3286 42.433C60.7536 42.0968 60.7717 41.5737 61.0348 41.1337C60.0805 40.3505 59.1605 39.5918 57.8442 39.5093C57.8467 40.1487 57.5473 40.4968 56.9348 40.6768C56.6386 40.7636 56.3492 41.0486 56.1705 41.3193C55.8461 41.8118 56.2086 42.3805 56.7992 42.378C57.0211 42.3761 57.2417 42.3461 57.463 42.3499C58.4999 42.3636 59.0748 43.1705 58.758 44.158C58.5536 44.7949 58.6505 45.0174 59.2155 45.3362C59.4836 45.4868 59.7192 45.4968 59.9692 45.3161C60.2474 45.1136 60.5211 44.9036 60.8142 44.7243C61.3899 44.3711 61.9298 44.4612 62.3955 44.9618C62.4123 44.9799 62.4292 44.9974 62.4467 45.0143C62.6149 45.1786 62.6955 45.4662 63.0105 45.4205C63.3155 45.3762 63.6324 45.2618 63.7405 44.9799C64.0449 44.1868 64.5555 44.0105 65.3042 44.3324C65.3867 44.3674 65.4974 44.3461 65.5949 44.338C65.6399 44.3336 65.6824 44.2987 65.7261 44.2774C65.573 43.1962 63.9655 42.0337 62.333 41.8555C62.228 42.1618 62.1198 42.4793 61.9886 42.8624Z" fill="#82BE40"/>
<path d="M60.7836 42.7948C60.9442 42.9629 61.0886 43.1054 61.2736 42.8873C61.3961 42.7435 61.5255 42.5729 61.5642 42.3941C61.7317 41.6341 62.1217 40.9829 62.5148 40.3298C62.8692 39.7385 63.2267 39.1491 63.5604 38.5466C64.5598 36.7429 65.5486 34.9342 66.5648 33.0842C66.3592 32.7992 66.0098 32.7035 65.6261 32.541C65.5167 32.7279 65.4117 32.886 65.3261 33.0548C64.4442 34.781 63.5498 36.4979 62.8392 38.3073C62.4004 39.4241 61.8361 40.491 61.3304 41.5823C61.1461 41.9798 60.9698 42.381 60.7836 42.7948Z" fill="#B69267"/>
<path d="M54.9055 49.0892C54.9055 49.0892 52.0161 46.9148 53.1968 44.1042C54.3768 41.2929 55.0693 46.3429 56.503 48.0392C57.9361 49.7348 56.0311 50.2792 54.9055 49.0892Z" fill="white"/>
<path d="M59.0367 51.4561C59.0367 51.4561 65.1255 46.5148 64.0898 44.4198C63.0542 42.3255 61.6824 41.9792 61.6824 41.9792L62.6367 41.2617C62.6367 41.2617 68.3592 42.7092 65.9042 46.8498C63.4505 50.9905 59.0367 51.4561 59.0367 51.4561Z" fill="#271B10" fill-opacity="0.1"/>
</svg>
