<svg width="76" height="70" viewBox="0 0 76 70" fill="none" xmlns="http://www.w3.org/2000/svg">
<path d="M24.8019 7.15933C24.8326 6.54495 25.3287 6.21933 25.0499 5.64795C24.793 5.12189 24.1967 5.25052 23.8788 4.9057C24.5995 3.85779 24.6425 3.66773 24.3887 2.62635C24.1184 2.71083 23.8377 2.76765 23.5831 2.88247C22.875 3.20271 22.7211 3.57442 22.9833 4.30284C23.1853 4.86385 23.2725 5.41333 22.9169 5.94861C22.7418 6.21203 22.7495 6.4693 22.905 6.73541C23.4944 6.50386 23.4798 6.52344 24.012 6.91818C24.1952 7.05373 24.4705 7.06372 24.8019 7.15933ZM18.7268 8.94219C17.7422 8.46067 17.3249 8.62155 16.8042 9.57308C17.3391 9.68098 21.6336 9.41526 22.362 9.22902C21.9592 8.2702 21.6797 8.09511 20.8483 8.28096C20.2098 8.4238 20.2009 8.41151 20.3618 7.75297C20.3879 7.64623 20.376 7.53026 20.381 7.42198C20.3008 7.35324 20.2416 7.29334 20.1737 7.24496C19.3842 6.68241 18.9234 6.89245 18.824 7.86164C18.8094 8.00333 18.822 8.14772 18.8093 8.28979C18.7925 8.47795 18.7625 8.66457 18.7268 8.94219ZM9.9396 10.8061C10.1374 11.7783 14.6101 23.9408 15.0225 24.5168C13.6562 19.9024 12.3292 15.4193 11.0067 10.9547C10.645 10.8706 10.3689 10.8022 10.0909 10.7469C10.046 10.7377 9.99029 10.7846 9.9396 10.8061ZM11.57 10.9305C11.5946 11.1286 11.5942 11.2158 11.6169 11.296C12.4874 14.3192 13.3583 17.3416 14.2334 20.3632C14.6058 21.6495 14.9818 22.9355 15.3677 24.2188C15.5539 24.8382 15.5704 24.8385 16.1902 24.9199C15.9559 23.5387 12.6821 11.5598 12.3622 10.9305H11.57ZM19.105 25.4468C18.2921 20.352 17.4992 15.3832 16.7101 10.4363C15.6564 10.275 13.8978 10.4563 12.9785 10.8157C14.3943 15.6958 15.7651 20.5932 17.212 25.4468H19.105ZM23.6587 9.86069C23.6334 10.0869 23.6065 10.2243 23.6042 10.3626C23.5739 12.372 23.522 14.3818 23.524 16.3916C23.527 19.1482 23.5697 21.9049 23.6008 24.6619C23.6034 24.8773 23.6499 25.0916 23.6849 25.3804C24.4909 25.2237 25.2849 25.5397 26.0011 25.0344C26.5882 19.9369 27.1738 14.8552 27.7644 9.72744C26.3317 9.5677 25.0177 9.95899 23.6587 9.86069ZM17.1882 10.2232C18.0087 15.3705 18.8044 20.3624 19.5992 25.3504C20.8168 25.6081 21.9654 25.4737 23.173 25.2805C23.1123 23.8206 23.0202 22.4183 23.0021 21.0152C22.9576 17.5704 22.9484 14.1253 22.9211 10.6801C22.9188 10.4321 22.8862 10.1848 22.8643 9.88987C20.9447 10.0024 19.0993 10.1111 17.1882 10.2232ZM26.8482 6.35756C27.5397 5.33116 27.5597 5.22364 27.206 4.5436C26.5832 4.59812 25.9842 4.72024 25.5522 5.27088C25.5522 5.36188 25.5269 5.45673 25.5564 5.5293C25.7964 6.11604 25.6056 6.66168 25.3671 7.1816C25.2861 7.359 25.0657 7.54639 24.8783 7.58633C24.3618 7.69692 23.8469 7.66005 23.4963 7.23076C22.6062 7.50339 22.5905 7.49186 22.2695 6.6586C22.1923 6.45893 22.0813 6.27193 22.0157 6.13984C22.2292 5.81115 22.5168 5.55119 22.574 5.24745C22.7683 4.21721 21.95 3.49608 20.9259 3.72686C20.7527 3.76564 20.5688 3.7568 20.227 3.78215C20.4125 3.45345 20.5262 3.27029 20.621 3.07829C20.7343 2.84944 20.7005 2.63133 20.5235 2.44471C20.3622 2.27346 20.1802 2.27384 19.9763 2.37521C19.8039 2.46084 19.62 2.52305 19.4771 2.58065C19.1753 2.41208 19.2321 2.21087 19.3481 2.03846C19.5781 1.69594 19.5309 1.32156 19.4959 0.954462C19.466 0.640744 19.274 0.516326 18.9576 0.543205C18.3459 0.594275 17.9139 1.06966 17.9423 1.69095C17.9538 1.94592 18.0421 2.1982 18.0502 2.45316C18.0548 2.59486 17.965 2.73962 17.9408 2.8145C17.4719 2.74154 17.0822 2.64631 16.6905 2.63824C16.535 2.63479 16.3238 2.79415 16.2374 2.93891C16.1867 3.02416 16.3034 3.24725 16.3956 3.37052C16.5465 3.57211 16.7389 3.74337 16.9128 3.92692C17.9408 3.78791 18.3728 3.90042 18.4549 4.38962C18.5098 4.71946 18.5482 5.11574 18.4131 5.39452C18.3052 5.61761 17.925 5.70901 17.6628 5.85991C17.8866 6.95697 17.7131 6.80414 16.8618 7.03492C16.2539 8.02484 16.2021 8.04327 15.1668 7.62588C15.0106 7.82171 14.8742 8.0425 14.6899 8.21107C14.41 8.46719 14.0794 8.4814 13.7261 8.33434C13.3763 8.18842 13.288 7.91924 13.2853 7.57596C13.2807 6.93546 13.4873 6.42054 14.2522 5.99623C14.061 6.43206 13.9066 6.69623 13.8313 6.98115C13.753 7.27644 13.6846 7.59861 13.892 7.88161C14.4215 7.84206 14.5494 7.79061 14.6462 7.49225C14.7068 7.30525 14.6934 7.09559 14.7356 6.90052C14.7809 6.69163 14.7944 6.4405 15.1473 6.41861C15.2083 6.58526 15.2816 6.73847 15.3204 6.90013C15.3869 7.17776 15.5232 7.39817 15.8235 7.40432C16.2021 7.41123 16.2531 7.08023 16.3346 6.81029C16.3948 6.60985 16.4255 6.40057 16.4989 6.05651C16.7638 6.34489 16.9244 6.51922 17.1171 6.72849C17.23 6.62328 17.3805 6.5484 17.417 6.43666C17.5599 5.99891 17.018 5.86068 16.9144 5.46901C17.3314 5.34076 17.705 5.22594 18.1212 5.09808C18.0421 4.82544 17.9746 4.59198 17.8958 4.32126C17.5986 4.33509 17.3383 4.31436 17.0945 4.36735C16.8664 4.41765 16.6556 4.54667 16.4014 4.65611C16.3656 4.48408 16.3165 4.39462 16.3388 4.32934C16.4186 4.09357 16.4567 3.84973 16.2147 3.71572C15.9456 3.56711 15.6422 3.60244 15.4164 3.82016C15.2575 3.97261 15.1511 4.18034 15.0397 4.33816C14.8658 4.22373 14.7986 4.20338 14.7763 4.15961C14.7395 4.08857 14.7018 3.99603 14.718 3.92461C14.7494 3.78714 14.8389 3.66196 14.8673 3.52372C14.9641 3.05948 14.7802 2.8122 14.3128 2.75153C13.5307 2.64977 12.7251 3.29257 12.6164 4.11392C12.5503 4.61003 12.6456 5.07926 12.8449 5.54005C12.9869 5.86874 13.1144 6.22278 12.8276 6.60868C12.558 6.39672 12.3269 6.21433 12.0899 6.02771C11.5965 6.55147 12.2647 7.01073 12.093 7.55369C11.9221 7.4888 11.7996 7.4262 11.6691 7.39587C11.2333 7.29488 10.845 7.46114 10.7394 7.78215C10.6458 8.06554 10.8174 8.46719 11.1369 8.65535C11.2828 8.74175 11.4675 8.76363 11.6084 8.85541C11.6829 8.90417 11.7497 9.05431 11.7286 9.13456C11.7086 9.21059 11.5708 9.30505 11.4829 9.30697C10.895 9.31811 10.2383 8.76479 10.1999 8.24717C10.1473 7.54716 10.5321 7.03376 11.2102 6.89514C11.3174 6.87287 11.4222 6.83947 11.56 6.80299C11.4644 6.18707 11.5623 5.68865 12.2608 5.60417C12.1936 5.09347 12.1341 4.64152 12.0742 4.19033C12.0419 3.94535 11.8753 3.84935 11.6553 3.84283C11.0344 3.82439 10.4641 4.53746 10.6212 5.1384C10.6692 5.3231 10.7544 5.49782 10.8059 5.63375C10.4968 6.11873 10.1166 5.55963 9.82672 5.80846C9.45194 6.49311 9.45194 6.49311 10.0064 7.16432C9.62627 7.30986 9.24074 7.40086 8.91819 7.5967C8.56645 7.80981 8.36678 8.16653 8.39904 8.59737C8.60908 9.03243 9.02226 8.94449 9.3763 9.02129C9.49226 9.04625 9.58365 9.18218 9.69923 9.2778C9.56176 9.50588 9.44849 9.69404 9.33675 9.87874C10.0383 10.371 11.6541 10.5323 12.6797 10.2255C12.8598 9.86568 12.4847 9.31696 12.9674 9.06659C13.3421 8.8723 13.7691 8.86116 14.3017 9.17143C14.0325 9.30736 13.8836 9.40413 13.7211 9.45827C13.5464 9.51664 13.359 9.5343 13.1724 9.57039C13.1881 9.93518 13.3429 10.0285 13.6263 9.99777C14.4772 9.90485 15.33 9.82305 16.179 9.73704C16.4643 8.65304 17.2001 8.12967 18.2917 8.05326C18.3493 7.83323 18.3989 7.64124 18.4499 7.44924C18.7226 6.42553 19.6511 6.15904 20.4075 6.90475C20.6437 7.13706 20.8157 7.43542 20.9954 7.67426C21.3571 7.73109 21.7814 7.67425 22.0114 7.85857C22.5467 8.28825 23.1669 8.65074 23.5186 9.34269C24.8242 9.25476 26.1247 9.16721 27.4038 9.08081C27.5436 8.29632 26.8282 8.6277 26.6151 8.33434C26.4861 7.83208 27.077 7.91156 27.1999 7.62549C27.2997 7.14474 27.2406 6.70929 26.8482 6.35756ZM8.81413 9.54697C7.78965 8.84849 7.6829 8.14771 8.51961 7.34517C8.89016 6.99037 9.15896 6.69394 9.15973 6.14138C9.16011 5.64565 9.55254 5.34537 9.97761 5.18102C10.1842 3.86125 10.7168 3.22575 12.252 3.44847C12.4213 3.24726 12.588 3.01648 12.7869 2.81796C13.6777 1.92826 14.5982 2.06649 15.1983 3.16892C15.2237 3.215 15.2767 3.24571 15.3569 3.32021C15.4506 3.23151 15.6126 3.15279 15.6315 3.04873C15.767 2.29381 16.2835 2.10028 16.9505 2.0999C17.0645 2.0999 17.1782 2.08838 17.3345 2.07993C17.3583 1.91213 17.3955 1.75047 17.4024 1.58804C17.4431 0.694884 18.185 -0.015115 19.0701 0.000244577C19.5996 0.0094603 19.9448 0.282095 20.0281 0.800096C20.0734 1.07926 20.0623 1.36686 20.0804 1.71706C20.8495 1.79463 21.3149 2.17555 21.2174 3.01533C21.657 3.1217 22.0625 3.22038 22.5386 3.33596C22.8635 2.76189 23.4226 2.40555 24.1353 2.30149C24.6272 2.22969 24.7838 2.35909 24.9132 2.85904C25.0661 3.44731 24.9278 3.99334 24.6963 4.52747C24.9382 4.9226 25.2312 4.92413 25.556 4.66071C26.0203 4.2844 26.539 4.08051 27.1454 4.11699C27.5992 4.14387 27.7697 4.25637 27.8838 4.68759C27.989 5.08387 28.0017 5.48706 27.7932 5.85953C27.6446 6.12448 27.5708 6.38098 27.7221 6.67012C27.7601 6.74231 27.7739 6.83985 27.7655 6.92202C27.676 7.74798 27.8895 8.49907 28.3008 9.20868C28.3507 9.29508 28.3657 9.42601 28.3446 9.52508C27.9371 11.4051 27.8565 13.3266 27.6134 15.2273C27.3919 16.9602 27.1891 18.6959 26.9898 20.4315C26.8267 21.8553 26.6711 23.2799 26.5379 24.7065C26.5164 24.9376 26.627 25.1811 26.6984 25.5232C26.5333 25.6065 26.3252 25.7663 26.0936 25.8154C25.7599 25.8861 25.4101 25.8868 25.0661 25.8991C23.949 25.9383 22.8316 25.9855 21.7139 25.9986C20.8595 26.0082 20.0051 25.9667 19.15 25.956C18.8954 25.9525 18.6404 25.9698 18.3858 25.9844C17.4523 26.0381 16.5983 25.946 15.6983 25.5071C14.6488 24.9952 14.2161 24.2084 13.8536 23.2124C12.3653 19.1194 10.8358 15.0415 9.32061 10.9589C9.26071 10.7976 9.2346 10.5822 9.11633 10.4927C8.76921 10.2293 8.73042 9.88373 8.81413 9.54697Z" fill="#111111"/>
<path d="M25.058 8.83931C25.0449 8.77749 25.0323 8.71606 25.0188 8.65462C24.5204 8.72374 24.2397 8.38545 23.9275 8.06251C23.7543 8.79823 23.7605 8.85967 24.1545 9.03515C24.325 9.11118 24.5365 9.15918 24.7151 9.13076C24.8418 9.11079 24.9447 8.94184 25.058 8.83931ZM19.4425 4.23951C19.1791 4.79975 19.2148 5.14458 19.4978 5.39225C19.7232 5.59001 20.1061 5.65644 20.3603 5.42259C20.6509 5.15457 20.9547 5.16032 21.2991 5.1415C21.7883 5.11501 21.8644 4.86811 21.5814 4.3478C21.4128 4.43804 21.2492 4.58857 21.0741 4.60316C20.8687 4.62005 20.6533 4.51907 20.4359 4.46761C20.3461 4.60086 20.2915 4.69992 20.2197 4.7844C20.1368 4.8827 20.0385 4.96871 19.8899 5.11693C19.7355 4.81396 19.6149 4.57781 19.4425 4.23951ZM26.8481 6.35722C27.2406 6.70895 27.2997 7.14439 27.1999 7.62515C27.077 7.91122 26.486 7.83174 26.6151 8.33399C26.8282 8.62736 27.5435 8.29598 27.4038 9.08047C26.1247 9.16686 24.8241 9.2544 23.5186 9.34234C23.1668 8.65039 22.5467 8.28791 22.0114 7.85823C21.7814 7.67391 21.3571 7.73074 20.9954 7.67391C20.8157 7.43507 20.6437 7.13671 20.4075 6.9044C19.651 6.15869 18.7226 6.42518 18.4499 7.44889C18.3989 7.64088 18.3493 7.83288 18.2917 8.0529C17.2 8.12932 16.4643 8.6527 16.179 9.7367C15.33 9.82271 14.4772 9.90451 13.6263 9.99743C13.3429 10.0282 13.1881 9.93484 13.1724 9.57005C13.359 9.53395 13.5464 9.51628 13.7211 9.45792C13.8835 9.40377 14.0325 9.30702 14.3017 9.17109C13.7691 8.86082 13.3421 8.87195 12.9673 9.06625C12.4847 9.31661 12.8598 9.86532 12.6797 10.2251C11.6541 10.5319 10.0383 10.3707 9.33673 9.87838C9.44847 9.69369 9.56175 9.50554 9.69921 9.27745C9.58363 9.18184 9.49224 9.04591 9.37628 9.02095C9.02224 8.94415 8.60906 9.03208 8.39902 8.59702C8.36677 8.16619 8.56644 7.80946 8.91817 7.59634C9.24072 7.40051 9.62625 7.3095 10.0064 7.16397C9.45192 6.49276 9.45193 6.49277 9.8267 5.80811C10.1166 5.55929 10.4968 6.11837 10.8059 5.63339C10.7544 5.49746 10.6692 5.32274 10.6212 5.13805C10.4641 4.5371 11.0343 3.82404 11.6552 3.84247C11.8753 3.849 12.0419 3.945 12.0742 4.18998C12.1341 4.64117 12.1936 5.09312 12.2608 5.60383C11.5623 5.68831 11.4644 6.18673 11.56 6.80264C11.4222 6.83912 11.3173 6.87253 11.2102 6.8948C10.5321 7.03342 10.1473 7.54681 10.1999 8.24682C10.2383 8.76444 10.8949 9.31777 11.4828 9.30663C11.5708 9.30471 11.7086 9.21025 11.7286 9.13422C11.7497 9.05397 11.6829 8.90383 11.6084 8.85506C11.4675 8.76329 11.2828 8.7414 11.1369 8.65538C10.8174 8.46684 10.6457 8.06519 10.7394 7.78181C10.845 7.4608 11.2332 7.29454 11.6691 7.39552C11.7996 7.42586 11.9221 7.48844 12.093 7.55334C12.2646 7.01038 11.5965 6.55113 12.0899 6.02737C12.3268 6.21398 12.558 6.39638 12.8276 6.60834C13.1144 6.22243 12.9869 5.8684 12.8448 5.5397C12.6456 5.07892 12.5503 4.60968 12.6164 4.11356C12.725 3.29221 13.5306 2.64943 14.3128 2.75118C14.7801 2.81185 14.9641 3.05914 14.8673 3.52338C14.8389 3.66161 14.7494 3.7868 14.7179 3.92426C14.7018 3.99569 14.7394 4.08823 14.7763 4.15927C14.7986 4.20304 14.8658 4.22339 15.0397 4.33782C15.1511 4.18 15.2574 3.97226 15.4164 3.81982C15.6422 3.6021 15.9456 3.56677 16.2147 3.71537C16.4566 3.84938 16.4186 4.09321 16.3388 4.32898C16.3165 4.39426 16.3656 4.48374 16.4013 4.65576C16.6555 4.54633 16.8664 4.4173 17.0945 4.36738C17.3383 4.31401 17.5986 4.33474 17.8958 4.32092C17.9745 4.59163 18.0421 4.8251 18.1212 5.09773C17.705 5.2256 17.3314 5.34042 16.9143 5.46867C17.018 5.86034 17.5598 5.99857 17.417 6.43631C17.3805 6.54806 17.23 6.62294 17.1171 6.72815C16.9243 6.51888 16.7638 6.34455 16.4989 6.05617C16.4255 6.40022 16.3948 6.60949 16.3345 6.80993C16.2531 7.07988 16.2024 7.41087 15.8234 7.40396C15.5232 7.39782 15.3868 7.17741 15.3204 6.89979C15.2816 6.73813 15.2083 6.58492 15.1472 6.41827C14.7944 6.44016 14.7809 6.69129 14.7356 6.90018C14.6934 7.09524 14.7068 7.30489 14.6461 7.4919C14.5494 7.79026 14.4215 7.84171 13.892 7.88126C13.6846 7.59826 13.753 7.2761 13.8313 6.98081C13.9066 6.69589 14.0609 6.43171 14.2522 5.99588C13.4873 6.42019 13.2807 6.93512 13.2853 7.57561C13.288 7.9189 13.3763 8.18808 13.7261 8.33399C14.0794 8.48106 14.41 8.46685 14.6899 8.21073C14.8742 8.04216 15.0105 7.82137 15.1668 7.62553C16.2021 8.04293 16.2539 8.0245 16.8617 7.03457C17.713 6.8038 17.8866 6.95663 17.6627 5.85957C17.925 5.70866 18.3052 5.61727 18.4131 5.39417C18.5482 5.1154 18.5098 4.7195 18.4549 4.38927C18.3727 3.90007 17.9408 3.78756 16.9128 3.92656C16.7389 3.7434 16.5465 3.57177 16.3956 3.37017C16.3034 3.24691 16.1867 3.02381 16.2374 2.93856C16.3238 2.7938 16.535 2.63445 16.6905 2.6379C17.0822 2.64596 17.4719 2.7412 17.9408 2.81416C17.9649 2.73928 18.0548 2.59451 18.0502 2.45282C18.0421 2.19785 17.9538 1.94557 17.9423 1.6906C17.9139 1.0693 18.3459 0.593933 18.9576 0.542862C19.274 0.515983 19.466 0.640389 19.4959 0.954108C19.5309 1.3212 19.5781 1.69559 19.3481 2.03811C19.2321 2.21052 19.1753 2.41173 19.4771 2.58031C19.6199 2.52271 19.8039 2.4605 19.9763 2.37487C20.1802 2.2735 20.3622 2.27311 20.5235 2.44437C20.7005 2.63099 20.7343 2.84909 20.621 3.07795C20.5262 3.26994 20.4125 3.45311 20.227 3.7818C20.5688 3.75646 20.7527 3.76529 20.9259 3.72651C21.95 3.49573 22.7683 4.21687 22.574 5.24711C22.5167 5.55084 22.2291 5.81079 22.0156 6.13949C22.0813 6.27158 22.1923 6.45859 22.2695 6.65826C22.5905 7.49152 22.6062 7.50303 23.4963 7.2304C23.8469 7.6597 24.3618 7.69656 24.8783 7.58597C25.0657 7.54604 25.2861 7.35866 25.3671 7.18125C25.6055 6.66133 25.7964 6.11568 25.5564 5.52895C25.5268 5.45637 25.5522 5.36153 25.5522 5.27052C25.9842 4.71988 26.5832 4.59778 27.206 4.54325C27.5597 5.2233 27.5397 5.33081 26.8481 6.35722Z" fill="#FAE1BA"/>
<path d="M17.1882 10.2231C19.0997 10.1109 20.9448 10.0026 22.8643 9.89014C22.8862 10.1847 22.9189 10.4323 22.9212 10.68C22.9484 14.1251 22.9577 17.5707 23.0026 21.0151C23.0202 22.4185 23.1124 23.8205 23.1731 25.2808C21.9654 25.4739 20.8169 25.6079 19.5993 25.3507C18.8044 20.3623 18.0088 15.3704 17.1882 10.2231Z" fill="white"/>
<path d="M23.6592 9.86078C25.0182 9.95908 26.3322 9.5678 27.7645 9.72754C27.1739 14.8553 26.5887 19.937 26.0016 25.0345C25.2851 25.5398 24.4914 25.2238 23.685 25.3805C23.6504 25.0917 23.6036 24.877 23.6013 24.662C23.5702 21.905 23.5272 19.1483 23.5241 16.3917C23.5225 14.3815 23.574 12.3721 23.6043 10.3627C23.6066 10.2244 23.6339 10.0869 23.6592 9.86078Z" fill="#D81F26"/>
<path d="M19.1055 25.4468H17.2124C15.7655 20.5931 14.3943 15.6957 12.9789 10.8156C13.8978 10.4562 15.6569 10.275 16.7105 10.4363C17.4996 15.3832 18.2926 20.352 19.1055 25.4468Z" fill="#D81F26"/>
<path d="M11.5701 10.9307H12.3622C12.6821 11.56 15.956 23.5389 16.1902 24.9201C15.5705 24.8387 15.554 24.8383 15.3677 24.2186C14.9818 22.9357 14.6059 21.6497 14.2334 20.363C13.3583 17.3414 12.4874 14.319 11.6169 11.2962C11.5939 11.216 11.5946 11.1288 11.5701 10.9307Z" fill="white"/>
<path d="M9.93983 10.8059C9.99047 10.7846 10.0459 10.7377 10.0911 10.7467C10.3688 10.802 10.645 10.8703 11.0066 10.9544C12.3292 15.4191 13.6562 19.9019 15.0226 24.5166C14.61 23.9408 10.1375 11.7782 9.93983 10.8059Z" fill="#D81F26"/>
<path d="M18.7268 8.94184C18.7629 8.66422 18.7925 8.4776 18.8094 8.28983C18.8221 8.14775 18.8094 8.00336 18.824 7.86167C18.9238 6.8921 19.3842 6.68206 20.1741 7.24461C20.2417 7.29299 20.3012 7.35289 20.3814 7.42162C20.3761 7.52991 20.388 7.64587 20.3618 7.75262C20.201 8.41116 20.2098 8.42345 20.8484 8.28061C21.6797 8.09475 21.9592 8.26985 22.3624 9.22867C21.6336 9.4149 17.3395 9.68101 16.8042 9.57311C17.3253 8.6212 17.7427 8.46032 18.7268 8.94184Z" fill="#FCDD94"/>
<path d="M24.802 7.1592C24.4707 7.06359 24.1953 7.05361 24.0122 6.91806C23.48 6.52332 23.4946 6.50374 22.9051 6.73529C22.7496 6.46919 22.7419 6.21191 22.917 5.94849C23.2726 5.41321 23.1855 4.86372 22.9835 4.30271C22.7212 3.57429 22.8752 3.20258 23.5833 2.88234C23.8378 2.76753 24.1185 2.7107 24.3889 2.62622C24.6427 3.6676 24.5997 3.85767 23.8789 4.90558C24.1969 5.2504 24.7932 5.12177 25.0501 5.64783C25.3289 6.21921 24.8328 6.54482 24.802 7.1592Z" fill="#FCDD94"/>
<path d="M19.4426 4.23999C19.615 4.5779 19.7356 4.81405 19.8899 5.11702C20.0385 4.9688 20.1368 4.88279 20.2198 4.78449C20.2916 4.69962 20.3465 4.60094 20.436 4.46808C20.6533 4.51953 20.8687 4.62014 21.0742 4.60286C21.2493 4.58865 21.4128 4.43813 21.5814 4.34789C21.8644 4.8682 21.7884 5.11472 21.2992 5.14198C20.9547 5.16041 20.651 5.15504 20.3603 5.42229C20.1065 5.65614 19.7233 5.5901 19.4979 5.39234C19.2149 5.14467 19.1792 4.79985 19.4426 4.23999Z" fill="#111111"/>
<path d="M25.058 8.83954C24.9447 8.94207 24.8418 9.11103 24.7151 9.13099C24.5365 9.15941 24.325 9.11141 24.1545 9.03538C23.7605 8.8599 23.7543 8.79847 23.9275 8.06274C24.2397 8.38568 24.5204 8.72397 25.0188 8.65485C25.0323 8.71629 25.0449 8.77772 25.058 8.83954Z" fill="#111111"/>
<path d="M16.8042 24.9201C16.8042 24.9201 10.1742 14.3082 10.6338 10.8673C11.0931 7.42672 9.76181 8.27148 11.56 6.80311C13.3582 5.33512 12.8936 3.36449 14.7763 4.15973C14.7763 4.15973 15.5447 2.51051 13.8805 2.30469C13.8805 2.30469 12.3875 2.68791 12.6164 4.11404C12.6164 4.11404 10.6185 2.64758 10.3124 4.90582V5.46069C10.3124 5.46069 9.10672 5.23913 9.36015 6.93712C9.36015 6.93712 6.99517 8.22617 8.81412 9.54709L9.23344 9.59855L9.4239 10.514L14.3482 24.2846C14.3482 24.2846 16.1886 26.165 16.8042 24.9201Z" fill="#271B10" fill-opacity="0.1"/>
<path d="M62.8411 7.15933C62.8718 6.54495 63.3679 6.21933 63.0891 5.64795C62.8322 5.12189 62.2359 5.25052 61.918 4.9057C62.6387 3.85779 62.6817 3.66773 62.4279 2.62635C62.1576 2.71083 61.8769 2.76765 61.6223 2.88247C60.9142 3.20271 60.7602 3.57442 61.0225 4.30284C61.2245 4.86385 61.3116 5.41333 60.9561 5.94861C60.781 6.21203 60.7886 6.4693 60.9442 6.73541C61.5336 6.50386 61.519 6.52344 62.0512 6.91818C62.2344 7.05373 62.5097 7.06372 62.8411 7.15933ZM56.766 8.94219C55.7814 8.46067 55.364 8.62155 54.8434 9.57308C55.3782 9.68098 59.6728 9.41526 60.4012 9.22902C59.9984 8.2702 59.7188 8.09511 58.8875 8.28096C58.2489 8.4238 58.2401 8.41151 58.401 7.75297C58.4271 7.64623 58.4152 7.53026 58.4202 7.42198C58.34 7.35324 58.2808 7.29334 58.2128 7.24496C57.4234 6.68241 56.9626 6.89245 56.8631 7.86164C56.8485 8.00333 56.8612 8.14772 56.8485 8.28979C56.8316 8.47795 56.8017 8.66457 56.766 8.94219ZM47.9788 10.8061C48.1765 11.7783 52.6492 23.9408 53.0616 24.5168C51.6954 19.9024 50.3684 15.4193 49.0459 10.9547C48.6842 10.8706 48.4081 10.8022 48.1301 10.7469C48.0852 10.7377 48.0295 10.7846 47.9788 10.8061ZM49.6092 10.9305C49.6338 11.1286 49.6334 11.2158 49.656 11.296C50.5266 14.3192 51.3974 17.3416 52.2725 20.3632C52.645 21.6495 53.0209 22.9355 53.4069 24.2188C53.5931 24.8382 53.6096 24.8385 54.2294 24.9199C53.9951 23.5387 50.7212 11.5598 50.4014 10.9305H49.6092ZM57.1442 25.4468C56.3313 20.352 55.5384 15.3832 54.7493 10.4363C53.6956 10.275 51.9369 10.4563 51.0177 10.8157C52.4334 15.6958 53.8043 20.5932 55.2512 25.4468H57.1442ZM61.6979 9.86069C61.6726 10.0869 61.6457 10.2243 61.6434 10.3626C61.6131 12.372 61.5612 14.3818 61.5632 16.3916C61.5662 19.1482 61.6088 21.9049 61.6399 24.6619C61.6426 24.8773 61.6891 25.0916 61.724 25.3804C62.53 25.2237 63.3241 25.5397 64.0403 25.0344C64.6274 19.9369 65.213 14.8552 65.8035 9.72744C64.3709 9.5677 63.0569 9.95899 61.6979 9.86069ZM55.2273 10.2232C56.0479 15.3705 56.8435 20.3624 57.6384 25.3504C58.856 25.6081 60.0045 25.4737 61.2122 25.2805C61.1515 23.8206 61.0594 22.4183 61.0413 21.0152C60.9968 17.5704 60.9876 14.1253 60.9603 10.6801C60.958 10.4321 60.9253 10.1848 60.9035 9.88987C58.9839 10.0024 57.1385 10.1111 55.2273 10.2232ZM64.8873 6.35756C65.5789 5.33116 65.5989 5.22364 65.2452 4.5436C64.6224 4.59812 64.0234 4.72024 63.5914 5.27088C63.5914 5.36188 63.566 5.45673 63.5956 5.5293C63.8356 6.11604 63.6447 6.66168 63.4063 7.1816C63.3253 7.359 63.1049 7.54639 62.9175 7.58633C62.401 7.69692 61.8861 7.66005 61.5355 7.23076C60.6454 7.50339 60.6297 7.49186 60.3087 6.6586C60.2315 6.45893 60.1205 6.27193 60.0548 6.13984C60.2683 5.81115 60.556 5.55119 60.6132 5.24745C60.8075 4.21721 59.9892 3.49608 58.9651 3.72686C58.7919 3.76564 58.608 3.7568 58.2662 3.78215C58.4517 3.45345 58.5654 3.27029 58.6602 3.07829C58.7735 2.84944 58.7397 2.63133 58.5627 2.44471C58.4014 2.27346 58.2194 2.27384 58.0155 2.37521C57.8431 2.46084 57.6591 2.52305 57.5163 2.58065C57.2145 2.41208 57.2713 2.21087 57.3873 2.03846C57.6173 1.69594 57.5701 1.32156 57.5351 0.954462C57.5052 0.640744 57.3132 0.516326 56.9968 0.543205C56.3851 0.594275 55.9531 1.06966 55.9815 1.69095C55.993 1.94592 56.0813 2.1982 56.0894 2.45316C56.094 2.59486 56.0041 2.73962 55.98 2.8145C55.5111 2.74154 55.1214 2.64631 54.7297 2.63824C54.5742 2.63479 54.363 2.79415 54.2766 2.93891C54.2259 3.02416 54.3426 3.24725 54.4348 3.37052C54.5857 3.57211 54.7781 3.74337 54.952 3.92692C55.98 3.78791 56.4119 3.90042 56.4941 4.38962C56.549 4.71946 56.5874 5.11574 56.4523 5.39452C56.3444 5.61761 55.9642 5.70901 55.7019 5.85991C55.9258 6.95697 55.7523 6.80414 54.9009 7.03492C54.2931 8.02484 54.2413 8.04327 53.206 7.62588C53.0497 7.82171 52.9134 8.0425 52.7291 8.21107C52.4492 8.46719 52.1186 8.4814 51.7653 8.33434C51.4155 8.18842 51.3272 7.91924 51.3245 7.57596C51.3199 6.93546 51.5265 6.42054 52.2914 5.99623C52.1001 6.43206 51.9458 6.69623 51.8705 6.98115C51.7922 7.27644 51.7238 7.59861 51.9312 7.88161C52.4607 7.84206 52.5886 7.79061 52.6853 7.49225C52.746 7.30525 52.7326 7.09559 52.7748 6.90052C52.8201 6.69163 52.8336 6.4405 53.1864 6.41861C53.2475 6.58526 53.3208 6.73847 53.3596 6.90013C53.426 7.17776 53.5624 7.39817 53.8626 7.40432C54.2413 7.41123 54.2923 7.08023 54.3737 6.81029C54.434 6.60985 54.4647 6.40057 54.5381 6.05651C54.803 6.34489 54.9635 6.51922 55.1563 6.72849C55.2692 6.62328 55.4197 6.5484 55.4562 6.43666C55.599 5.99891 55.0572 5.86068 54.9536 5.46901C55.3706 5.34076 55.7442 5.22594 56.1604 5.09808C56.0813 4.82544 56.0137 4.59198 55.935 4.32126C55.6378 4.33509 55.3775 4.31436 55.1337 4.36735C54.9056 4.41765 54.6947 4.54667 54.4405 4.65611C54.4048 4.48408 54.3557 4.39462 54.378 4.32934C54.4578 4.09357 54.4958 3.84973 54.2539 3.71572C53.9848 3.56711 53.6814 3.60244 53.4556 3.82016C53.2966 3.97261 53.1903 4.18034 53.0789 4.33816C52.905 4.22373 52.8378 4.20338 52.8155 4.15961C52.7786 4.08857 52.741 3.99603 52.7571 3.92461C52.7886 3.78714 52.8781 3.66196 52.9065 3.52372C53.0033 3.05948 52.8193 2.8122 52.352 2.75153C51.5698 2.64977 50.7642 3.29257 50.6556 4.11392C50.5895 4.61003 50.6848 5.07926 50.884 5.54005C51.0261 5.86874 51.1536 6.22278 50.8668 6.60868C50.5972 6.39672 50.366 6.21433 50.1291 6.02771C49.6357 6.55147 50.3038 7.01073 50.1322 7.55369C49.9613 7.4888 49.8388 7.4262 49.7083 7.39587C49.2724 7.29488 48.8842 7.46114 48.7786 7.78215C48.6849 8.06554 48.8566 8.46719 49.1761 8.65535C49.322 8.74175 49.5067 8.76363 49.6476 8.85541C49.7221 8.90417 49.7889 9.05431 49.7678 9.13456C49.7478 9.21059 49.61 9.30505 49.522 9.30697C48.9342 9.31811 48.2775 8.76479 48.2391 8.24717C48.1865 7.54716 48.5713 7.03376 49.2494 6.89514C49.3565 6.87287 49.4614 6.83947 49.5992 6.80299C49.5036 6.18707 49.6015 5.68865 50.3 5.60417C50.2328 5.09347 50.1733 4.64152 50.1134 4.19033C50.0811 3.94535 49.9145 3.84935 49.6945 3.84283C49.0735 3.82439 48.5033 4.53746 48.6604 5.1384C48.7084 5.3231 48.7936 5.49782 48.8451 5.63375C48.536 6.11873 48.1558 5.55963 47.8659 5.80846C47.4911 6.49311 47.4911 6.49311 48.0456 7.16432C47.6655 7.30986 47.2799 7.40086 46.9574 7.5967C46.6056 7.80981 46.406 8.16653 46.4382 8.59737C46.6483 9.03243 47.0614 8.94449 47.4155 9.02129C47.5314 9.04625 47.6228 9.18218 47.7384 9.2778C47.6009 9.50588 47.4877 9.69404 47.3759 9.87874C48.0775 10.371 49.6933 10.5323 50.7189 10.2255C50.899 9.86568 50.5239 9.31696 51.0065 9.06659C51.3813 8.8723 51.8083 8.86116 52.3409 9.17143C52.0717 9.30736 51.9227 9.40413 51.7603 9.45827C51.5856 9.51664 51.3982 9.5343 51.2116 9.57039C51.2273 9.93518 51.3821 10.0285 51.6655 9.99777C52.5164 9.90485 53.3692 9.82305 54.2182 9.73704C54.5035 8.65304 55.2392 8.12967 56.3309 8.05326C56.3885 7.83323 56.4381 7.64124 56.4891 7.44924C56.7618 6.42553 57.6902 6.15904 58.4467 6.90475C58.6829 7.13706 58.8549 7.43542 59.0346 7.67426C59.3963 7.73109 59.8206 7.67425 60.0506 7.85857C60.5859 8.28825 61.206 8.65074 61.5578 9.34269C62.8633 9.25476 64.1639 9.16721 65.443 9.08081C65.5827 8.29632 64.8674 8.6277 64.6543 8.33434C64.5252 7.83208 65.1162 7.91156 65.2391 7.62549C65.3389 7.14474 65.2798 6.70929 64.8873 6.35756ZM46.8533 9.54697C45.8288 8.84849 45.7221 8.14771 46.5588 7.34517C46.9293 6.99037 47.1981 6.69394 47.1989 6.14138C47.1993 5.64565 47.5917 5.34537 48.0168 5.18102C48.2234 3.86125 48.756 3.22575 50.2912 3.44847C50.4605 3.24726 50.6272 3.01648 50.8261 2.81796C51.7169 1.92826 52.6373 2.06649 53.2375 3.16892C53.2629 3.215 53.3158 3.24571 53.3961 3.32021C53.4898 3.23151 53.6518 3.15279 53.6706 3.04873C53.8062 2.29381 54.3227 2.10028 54.9897 2.0999C55.1037 2.0999 55.2174 2.08838 55.3736 2.07993C55.3975 1.91213 55.4347 1.75047 55.4416 1.58804C55.4823 0.694884 56.2242 -0.015115 57.1093 0.000244577C57.6388 0.0094603 57.984 0.282095 58.0673 0.800096C58.1126 1.07926 58.1015 1.36686 58.1195 1.71706C58.8887 1.79463 59.3541 2.17555 59.2565 3.01533C59.6962 3.1217 60.1017 3.22038 60.5778 3.33596C60.9027 2.76189 61.4618 2.40555 62.1745 2.30149C62.6664 2.22969 62.823 2.35909 62.9524 2.85904C63.1053 3.44731 62.967 3.99334 62.7355 4.52747C62.9774 4.9226 63.2704 4.92413 63.5952 4.66071C64.0595 4.2844 64.5782 4.08051 65.1845 4.11699C65.6384 4.14387 65.8089 4.25637 65.923 4.68759C66.0282 5.08387 66.0408 5.48706 65.8323 5.85953C65.6837 6.12448 65.61 6.38098 65.7613 6.67012C65.7993 6.74231 65.8131 6.83985 65.8047 6.92202C65.7152 7.74798 65.9287 8.49907 66.34 9.20868C66.3899 9.29508 66.4049 9.42601 66.3837 9.52508C65.9763 11.4051 65.8957 13.3266 65.6526 15.2273C65.4311 16.9602 65.2283 18.6959 65.029 20.4315C64.8658 21.8553 64.7103 23.2799 64.5771 24.7065C64.5556 24.9376 64.6662 25.1811 64.7376 25.5232C64.5725 25.6065 64.3643 25.7663 64.1328 25.8154C63.7991 25.8861 63.4493 25.8868 63.1052 25.8991C61.9882 25.9383 60.8708 25.9855 59.753 25.9986C58.8987 26.0082 58.0443 25.9667 57.1891 25.956C56.9346 25.9525 56.6796 25.9698 56.425 25.9844C55.4915 26.0381 54.6375 25.946 53.7375 25.5071C52.688 24.9952 52.2553 24.2084 51.8928 23.2124C50.4044 19.1194 48.875 15.0415 47.3598 10.9589C47.2999 10.7976 47.2738 10.5822 47.1555 10.4927C46.8084 10.2293 46.7696 9.88373 46.8533 9.54697Z" fill="#111111"/>
<path d="M63.0972 8.83931C63.0841 8.77749 63.0714 8.71606 63.058 8.65462C62.5596 8.72374 62.2789 8.38545 61.9667 8.06251C61.7935 8.79823 61.7997 8.85967 62.1936 9.03515C62.3641 9.11118 62.5757 9.15918 62.7543 9.13076C62.881 9.11079 62.9839 8.94184 63.0972 8.83931ZM57.4817 4.23951C57.2183 4.79975 57.254 5.14458 57.537 5.39225C57.7624 5.59001 58.1452 5.65644 58.3994 5.42259C58.6901 5.15457 58.9939 5.16032 59.3383 5.1415C59.8275 5.11501 59.9035 4.86811 59.6205 4.3478C59.452 4.43804 59.2884 4.58857 59.1133 4.60316C58.9079 4.62005 58.6924 4.51907 58.4751 4.46761C58.3852 4.60086 58.3307 4.69992 58.2589 4.7844C58.176 4.8827 58.0777 4.96871 57.9291 5.11693C57.7747 4.81396 57.6541 4.57781 57.4817 4.23951ZM64.8873 6.35722C65.2798 6.70895 65.3389 7.14439 65.2391 7.62515C65.1162 7.91122 64.5252 7.83174 64.6542 8.33399C64.8674 8.62736 65.5827 8.29598 65.443 9.08047C64.1639 9.16686 62.8633 9.2544 61.5578 9.34234C61.206 8.65039 60.5859 8.28791 60.0506 7.85823C59.8206 7.67391 59.3963 7.73074 59.0346 7.67391C58.8549 7.43507 58.6828 7.13671 58.4467 6.9044C57.6902 6.15869 56.7617 6.42518 56.4891 7.44889C56.438 7.64088 56.3885 7.83288 56.3309 8.0529C55.2392 8.12932 54.5035 8.6527 54.2182 9.7367C53.3692 9.82271 52.5164 9.90451 51.6654 9.99743C51.3821 10.0282 51.2273 9.93484 51.2116 9.57005C51.3982 9.53395 51.5856 9.51628 51.7603 9.45792C51.9227 9.40377 52.0717 9.30702 52.3409 9.17109C51.8083 8.86082 51.3813 8.87195 51.0065 9.06625C50.5238 9.31661 50.899 9.86532 50.7189 10.2251C49.6933 10.5319 48.0775 10.3707 47.3759 9.87838C47.4877 9.69369 47.6009 9.50554 47.7384 9.27745C47.6228 9.18184 47.5314 9.04591 47.4155 9.02095C47.0614 8.94415 46.6482 9.03208 46.4382 8.59702C46.406 8.16619 46.6056 7.80946 46.9574 7.59634C47.2799 7.40051 47.6654 7.3095 48.0456 7.16397C47.4911 6.49276 47.4911 6.49277 47.8659 5.80811C48.1558 5.55929 48.5359 6.11837 48.845 5.63339C48.7936 5.49746 48.7084 5.32274 48.6604 5.13805C48.5033 4.5371 49.0735 3.82404 49.6944 3.84247C49.9145 3.849 50.0811 3.945 50.1134 4.18998C50.1733 4.64117 50.2328 5.09312 50.3 5.60383C49.6015 5.68831 49.5036 6.18673 49.5992 6.80264C49.4613 6.83912 49.3565 6.87253 49.2494 6.8948C48.5713 7.03342 48.1865 7.54681 48.2391 8.24682C48.2775 8.76444 48.9341 9.31777 49.522 9.30663C49.61 9.30471 49.7478 9.21025 49.7678 9.13422C49.7889 9.05397 49.7221 8.90383 49.6476 8.85506C49.5067 8.76329 49.322 8.7414 49.176 8.65538C48.8566 8.46684 48.6849 8.06519 48.7786 7.78181C48.8842 7.4608 49.2724 7.29454 49.7082 7.39552C49.8388 7.42586 49.9613 7.48844 50.1322 7.55334C50.3038 7.01038 49.6357 6.55113 50.1291 6.02737C50.366 6.21398 50.5972 6.39638 50.8667 6.60834C51.1536 6.22243 51.0261 5.8684 50.884 5.5397C50.6847 5.07892 50.5895 4.60968 50.6556 4.11356C50.7642 3.29221 51.5698 2.64943 52.352 2.75118C52.8193 2.81185 53.0033 3.05914 52.9065 3.52338C52.8781 3.66161 52.7886 3.7868 52.7571 3.92426C52.741 3.99569 52.7786 4.08823 52.8155 4.15927C52.8378 4.20304 52.905 4.22339 53.0789 4.33782C53.1903 4.18 53.2966 3.97226 53.4556 3.81982C53.6814 3.6021 53.9847 3.56677 54.2539 3.71537C54.4958 3.84938 54.4578 4.09321 54.3779 4.32898C54.3557 4.39426 54.4048 4.48374 54.4405 4.65576C54.6947 4.54633 54.9055 4.4173 55.1336 4.36738C55.3775 4.31401 55.6378 4.33474 55.935 4.32092C56.0137 4.59163 56.0813 4.8251 56.1604 5.09773C55.7442 5.2256 55.3705 5.34042 54.9535 5.46867C55.0572 5.86034 55.599 5.99857 55.4562 6.43631C55.4197 6.54806 55.2692 6.62294 55.1563 6.72815C54.9635 6.51888 54.803 6.34455 54.5381 6.05617C54.4647 6.40022 54.434 6.60949 54.3737 6.80993C54.2923 7.07988 54.2416 7.41087 53.8626 7.40396C53.5623 7.39782 53.426 7.17741 53.3596 6.89979C53.3208 6.73813 53.2475 6.58492 53.1864 6.41827C52.8335 6.44016 52.8201 6.69129 52.7748 6.90018C52.7326 7.09524 52.746 7.30489 52.6853 7.4919C52.5886 7.79026 52.4607 7.84171 51.9312 7.88126C51.7238 7.59826 51.7922 7.2761 51.8705 6.98081C51.9458 6.69589 52.1001 6.43171 52.2913 5.99588C51.5264 6.42019 51.3199 6.93512 51.3245 7.57561C51.3272 7.9189 51.4155 8.18808 51.7653 8.33399C52.1186 8.48106 52.4492 8.46685 52.7291 8.21073C52.9134 8.04216 53.0497 7.82137 53.206 7.62553C54.2412 8.04293 54.2931 8.0245 54.9009 7.03457C55.7522 6.8038 55.9258 6.95663 55.7019 5.85957C55.9642 5.70866 56.3443 5.61727 56.4522 5.39417C56.5874 5.1154 56.549 4.7195 56.4941 4.38927C56.4119 3.90007 55.9799 3.78756 54.952 3.92656C54.7781 3.7434 54.5857 3.57177 54.4348 3.37017C54.3426 3.24691 54.2259 3.02381 54.2766 2.93856C54.363 2.7938 54.5742 2.63445 54.7297 2.6379C55.1213 2.64596 55.5111 2.7412 55.9799 2.81416C56.0041 2.73928 56.094 2.59451 56.0894 2.45282C56.0813 2.19785 55.993 1.94557 55.9815 1.6906C55.9531 1.0693 56.385 0.593933 56.9967 0.542862C57.3131 0.515983 57.5051 0.640389 57.5351 0.954108C57.57 1.3212 57.6173 1.69559 57.3873 2.03811C57.2713 2.21052 57.2145 2.41173 57.5163 2.58031C57.6591 2.52271 57.843 2.4605 58.0155 2.37487C58.2194 2.2735 58.4014 2.27311 58.5626 2.44437C58.7397 2.63099 58.7735 2.84909 58.6602 3.07795C58.5653 3.26994 58.4517 3.45311 58.2662 3.7818C58.608 3.75646 58.7919 3.76529 58.9651 3.72651C59.9892 3.49573 60.8074 4.21687 60.6131 5.24711C60.5559 5.55084 60.2683 5.81079 60.0548 6.13949C60.1205 6.27158 60.2315 6.45859 60.3086 6.65826C60.6297 7.49152 60.6454 7.50303 61.5355 7.2304C61.8861 7.6597 62.401 7.69656 62.9175 7.58597C63.1049 7.54604 63.3253 7.35866 63.4063 7.18125C63.6447 6.66133 63.8356 6.11568 63.5956 5.52895C63.566 5.45637 63.5914 5.36153 63.5914 5.27052C64.0233 4.71988 64.6224 4.59778 65.2452 4.54325C65.5989 5.2233 65.5789 5.33081 64.8873 6.35722Z" fill="#FAE1BA"/>
<path d="M55.2274 10.2231C57.1389 10.1109 58.984 10.0026 60.9035 9.89014C60.9254 10.1847 60.9581 10.4323 60.9604 10.68C60.9876 14.1251 60.9968 17.5707 61.0418 21.0151C61.0594 22.4185 61.1516 23.8205 61.2123 25.2808C60.0046 25.4739 58.8561 25.6079 57.6385 25.3507C56.8436 20.3623 56.048 15.3704 55.2274 10.2231Z" fill="white"/>
<path d="M61.6984 9.86078C63.0574 9.95908 64.3714 9.5678 65.8037 9.72754C65.2131 14.8553 64.6279 19.937 64.0408 25.0345C63.3242 25.5398 62.5305 25.2238 61.7242 25.3805C61.6896 25.0917 61.6427 24.877 61.6404 24.662C61.6093 21.905 61.5663 19.1483 61.5633 16.3917C61.5617 14.3815 61.6132 12.3721 61.6435 10.3627C61.6458 10.2244 61.6731 10.0869 61.6984 9.86078Z" fill="#D81F26"/>
<path d="M57.1447 25.4468H55.2516C53.8047 20.5931 52.4335 15.6957 51.0181 10.8156C51.937 10.4562 53.6961 10.275 54.7497 10.4363C55.5388 15.3832 56.3317 20.352 57.1447 25.4468Z" fill="#D81F26"/>
<path d="M49.6093 10.9307H50.4014C50.7213 11.56 53.9952 23.5389 54.2294 24.9201C53.6097 24.8387 53.5931 24.8383 53.4069 24.2186C53.021 22.9357 52.6451 21.6497 52.2726 20.363C51.3975 17.3414 50.5266 14.319 49.6561 11.2962C49.6331 11.216 49.6338 11.1288 49.6093 10.9307Z" fill="white"/>
<path d="M47.979 10.8059C48.0297 10.7846 48.085 10.7377 48.1303 10.7467C48.4079 10.802 48.6842 10.8703 49.0458 10.9544C50.3683 15.4191 51.6953 19.9019 53.0617 24.5166C52.6492 23.9408 48.1766 11.7782 47.979 10.8059Z" fill="#D81F26"/>
<path d="M56.766 8.94184C56.8021 8.66422 56.8317 8.4776 56.8486 8.28983C56.8612 8.14775 56.8486 8.00336 56.8632 7.86167C56.963 6.8921 57.4234 6.68206 58.2133 7.24461C58.2808 7.29299 58.3404 7.35289 58.4206 7.42162C58.4152 7.52991 58.4271 7.64587 58.401 7.75262C58.2401 8.41116 58.249 8.42345 58.8875 8.28061C59.7189 8.09475 59.9984 8.26985 60.4016 9.22867C59.6728 9.4149 55.3787 9.68101 54.8434 9.57311C55.3645 8.6212 55.7818 8.46032 56.766 8.94184Z" fill="#FCDD94"/>
<path d="M62.8411 7.1592C62.5097 7.06359 62.2344 7.05361 62.0512 6.91806C61.519 6.52332 61.5336 6.50374 60.9442 6.73529C60.7887 6.46919 60.781 6.21191 60.9561 5.94849C61.3117 5.41321 61.2245 4.86372 61.0225 4.30271C60.7603 3.57429 60.9142 3.20258 61.6223 2.88234C61.8769 2.76753 62.1576 2.7107 62.4279 2.62622C62.6817 3.6676 62.6387 3.85767 61.918 4.90558C62.2359 5.2504 62.8323 5.12177 63.0892 5.64783C63.3679 6.21921 62.8718 6.54482 62.8411 7.1592Z" fill="#FCDD94"/>
<path d="M57.4818 4.23999C57.6542 4.5779 57.7748 4.81405 57.9291 5.11702C58.0777 4.9688 58.176 4.88279 58.259 4.78449C58.3308 4.69962 58.3857 4.60094 58.4752 4.46808C58.6925 4.51953 58.9079 4.62014 59.1133 4.60286C59.2884 4.58865 59.452 4.43813 59.6206 4.34789C59.9036 4.8682 59.8276 5.11472 59.3384 5.14198C58.9939 5.16041 58.6902 5.15504 58.3995 5.42229C58.1457 5.65614 57.7625 5.5901 57.5371 5.39234C57.2541 5.14467 57.2184 4.79985 57.4818 4.23999Z" fill="#111111"/>
<path d="M63.0972 8.83954C62.9839 8.94207 62.881 9.11103 62.7543 9.13099C62.5757 9.15941 62.3641 9.11141 62.1936 9.03538C61.7997 8.8599 61.7935 8.79847 61.9667 8.06274C62.2789 8.38568 62.5596 8.72397 63.058 8.65485C63.0714 8.71629 63.0841 8.77772 63.0972 8.83954Z" fill="#111111"/>
<path d="M54.8433 24.9201C54.8433 24.9201 48.2134 14.3082 48.673 10.8673C49.1323 7.42672 47.801 8.27148 49.5992 6.80311C51.3974 5.33512 50.9328 3.36449 52.8155 4.15973C52.8155 4.15973 53.5839 2.51051 51.9197 2.30469C51.9197 2.30469 50.4267 2.68791 50.6556 4.11404C50.6556 4.11404 48.6577 2.64758 48.3516 4.90582V5.46069C48.3516 5.46069 47.1459 5.23913 47.3993 6.93712C47.3993 6.93712 45.0344 8.22617 46.8533 9.54709L47.2726 9.59855L47.4631 10.514L52.3874 24.2846C52.3874 24.2846 54.2278 26.165 54.8433 24.9201Z" fill="#271B10" fill-opacity="0.1"/>
<path d="M43.8411 25.1593C43.8718 24.5449 44.3679 24.2193 44.0891 23.648C43.8322 23.1219 43.2359 23.2505 42.918 22.9057C43.6387 21.8578 43.6817 21.6677 43.4279 20.6263C43.1576 20.7108 42.8769 20.7677 42.6223 20.8825C41.9142 21.2027 41.7602 21.5744 42.0225 22.3028C42.2245 22.8638 42.3116 23.4133 41.9561 23.9486C41.781 24.212 41.7886 24.4693 41.9442 24.7354C42.5336 24.5039 42.519 24.5234 43.0512 24.9182C43.2344 25.0537 43.5097 25.0637 43.8411 25.1593ZM37.766 26.9422C36.7814 26.4607 36.364 26.6216 35.8434 27.5731C36.3782 27.681 40.6728 27.4153 41.4012 27.229C40.9984 26.2702 40.7188 26.0951 39.8875 26.281C39.2489 26.4238 39.2401 26.4115 39.401 25.753C39.4271 25.6462 39.4152 25.5303 39.4202 25.422C39.34 25.3532 39.2808 25.2933 39.2128 25.245C38.4234 24.6824 37.9626 24.8925 37.8631 25.8616C37.8485 26.0033 37.8612 26.1477 37.8485 26.2898C37.8316 26.4779 37.8017 26.6646 37.766 26.9422ZM28.9788 28.8061C29.1765 29.7783 33.6492 41.9408 34.0616 42.5168C32.6954 37.9024 31.3684 33.4193 30.0459 28.9547C29.6842 28.8706 29.4081 28.8022 29.1301 28.7469C29.0852 28.7377 29.0295 28.7846 28.9788 28.8061ZM30.6092 28.9305C30.6338 29.1286 30.6334 29.2158 30.656 29.296C31.5266 32.3192 32.3974 35.3416 33.2725 38.3632C33.645 39.6495 34.0209 40.9355 34.4069 42.2188C34.5931 42.8382 34.6096 42.8385 35.2294 42.9199C34.9951 41.5387 31.7212 29.5598 31.4014 28.9305H30.6092ZM38.1442 43.4468C37.3313 38.352 36.5384 33.3832 35.7493 28.4363C34.6956 28.275 32.9369 28.4563 32.0177 28.8157C33.4334 33.6958 34.8043 38.5932 36.2512 43.4468H38.1442ZM42.6979 27.8607C42.6726 28.0869 42.6457 28.2243 42.6434 28.3626C42.6131 30.372 42.5612 32.3818 42.5632 34.3916C42.5662 37.1482 42.6088 39.9049 42.6399 42.6619C42.6426 42.8773 42.6891 43.0916 42.724 43.3804C43.53 43.2237 44.3241 43.5397 45.0403 43.0344C45.6274 37.9369 46.213 32.8552 46.8035 27.7274C45.3709 27.5677 44.0569 27.959 42.6979 27.8607ZM36.2273 28.2232C37.0479 33.3705 37.8435 38.3624 38.6384 43.3504C39.856 43.6081 41.0045 43.4737 42.2122 43.2805C42.1515 41.8206 42.0594 40.4183 42.0413 39.0152C41.9968 35.5704 41.9876 32.1253 41.9603 28.6801C41.958 28.4321 41.9253 28.1848 41.9035 27.8899C39.9839 28.0024 38.1385 28.1111 36.2273 28.2232ZM45.8873 24.3576C46.5789 23.3312 46.5989 23.2236 46.2452 22.5436C45.6224 22.5981 45.0234 22.7202 44.5914 23.2709C44.5914 23.3619 44.566 23.4567 44.5956 23.5293C44.8356 24.116 44.6447 24.6617 44.4063 25.1816C44.3253 25.359 44.1049 25.5464 43.9175 25.5863C43.401 25.6969 42.8861 25.6601 42.5355 25.2308C41.6454 25.5034 41.6297 25.4919 41.3087 24.6586C41.2315 24.4589 41.1205 24.2719 41.0548 24.1398C41.2683 23.8111 41.556 23.5512 41.6132 23.2475C41.8075 22.2172 40.9892 21.4961 39.9651 21.7269C39.7919 21.7656 39.608 21.7568 39.2662 21.7821C39.4517 21.4535 39.5654 21.2703 39.6602 21.0783C39.7735 20.8494 39.7397 20.6313 39.5627 20.4447C39.4014 20.2735 39.2194 20.2738 39.0155 20.3752C38.8431 20.4608 38.6591 20.523 38.5163 20.5806C38.2145 20.4121 38.2713 20.2109 38.3873 20.0385C38.6173 19.6959 38.5701 19.3216 38.5351 18.9545C38.5052 18.6407 38.3132 18.5163 37.9968 18.5432C37.3851 18.5943 36.9531 19.0697 36.9815 19.691C36.993 19.9459 37.0813 20.1982 37.0894 20.4532C37.094 20.5949 37.0041 20.7396 36.98 20.8145C36.5111 20.7415 36.1214 20.6463 35.7297 20.6382C35.5742 20.6348 35.363 20.7942 35.2766 20.9389C35.2259 21.0242 35.3426 21.2473 35.4348 21.3705C35.5857 21.5721 35.7781 21.7434 35.952 21.9269C36.98 21.7879 37.4119 21.9004 37.4941 22.3896C37.549 22.7195 37.5874 23.1157 37.4523 23.3945C37.3444 23.6176 36.9642 23.709 36.7019 23.8599C36.9258 24.957 36.7523 24.8041 35.9009 25.0349C35.2931 26.0248 35.2413 26.0433 34.206 25.6259C34.0497 25.8217 33.9134 26.0425 33.7291 26.2111C33.4492 26.4672 33.1186 26.4814 32.7653 26.3343C32.4155 26.1884 32.3272 25.9192 32.3245 25.576C32.3199 24.9355 32.5265 24.4205 33.2914 23.9962C33.1001 24.4321 32.9458 24.6962 32.8705 24.9812C32.7922 25.2764 32.7238 25.5986 32.9312 25.8816C33.4607 25.8421 33.5886 25.7906 33.6853 25.4923C33.746 25.3052 33.7326 25.0956 33.7748 24.9005C33.8201 24.6916 33.8336 24.4405 34.1864 24.4186C34.2475 24.5853 34.3208 24.7385 34.3596 24.9001C34.426 25.1778 34.5624 25.3982 34.8626 25.4043C35.2413 25.4112 35.2923 25.0802 35.3737 24.8103C35.434 24.6098 35.4647 24.4006 35.5381 24.0565C35.803 24.3449 35.9635 24.5192 36.1563 24.7285C36.2692 24.6233 36.4197 24.5484 36.4562 24.4367C36.599 23.9989 36.0572 23.8607 35.9536 23.469C36.3706 23.3408 36.7442 23.2259 37.1604 23.0981C37.0813 22.8254 37.0137 22.592 36.935 22.3213C36.6378 22.3351 36.3775 22.3144 36.1337 22.3674C35.9056 22.4177 35.6947 22.5467 35.4405 22.6561C35.4048 22.4841 35.3557 22.3946 35.378 22.3293C35.4578 22.0936 35.4958 21.8497 35.2539 21.7157C34.9848 21.5671 34.6814 21.6024 34.4556 21.8202C34.2966 21.9726 34.1903 22.1803 34.0789 22.3382C33.905 22.2237 33.8378 22.2034 33.8155 22.1596C33.7786 22.0886 33.741 21.996 33.7571 21.9246C33.7886 21.7871 33.8781 21.662 33.9065 21.5237C34.0033 21.0595 33.8193 20.8122 33.352 20.7515C32.5698 20.6498 31.7642 21.2926 31.6556 22.1139C31.5895 22.61 31.6848 23.0793 31.884 23.54C32.0261 23.8687 32.1536 24.2228 31.8668 24.6087C31.5972 24.3967 31.366 24.2143 31.1291 24.0277C30.6357 24.5515 31.3038 25.0107 31.1322 25.5537C30.9613 25.4888 30.8388 25.4262 30.7083 25.3959C30.2724 25.2949 29.8842 25.4611 29.7786 25.7822C29.6849 26.0655 29.8566 26.4672 30.1761 26.6553C30.322 26.7417 30.5067 26.7636 30.6476 26.8554C30.7221 26.9042 30.7889 27.0543 30.7678 27.1346C30.7478 27.2106 30.61 27.3051 30.522 27.307C29.9342 27.3181 29.2775 26.7648 29.2391 26.2472C29.1865 25.5472 29.5713 25.0338 30.2494 24.8951C30.3565 24.8729 30.4614 24.8395 30.5992 24.803C30.5036 24.1871 30.6015 23.6886 31.3 23.6042C31.2328 23.0935 31.1733 22.6415 31.1134 22.1903C31.0811 21.9453 30.9145 21.8494 30.6945 21.8428C30.0735 21.8244 29.5033 22.5375 29.6604 23.1384C29.7084 23.3231 29.7936 23.4978 29.8451 23.6337C29.536 24.1187 29.1558 23.5596 28.8659 23.8085C28.4911 24.4931 28.4911 24.4931 29.0456 25.1643C28.6655 25.3099 28.2799 25.4009 27.9574 25.5967C27.6056 25.8098 27.406 26.1665 27.4382 26.5974C27.6483 27.0324 28.0614 26.9445 28.4155 27.0213C28.5314 27.0463 28.6228 27.1822 28.7384 27.2778C28.6009 27.5059 28.4877 27.694 28.3759 27.8787C29.0775 28.371 30.6933 28.5323 31.7189 28.2255C31.899 27.8657 31.5239 27.317 32.0065 27.0666C32.3813 26.8723 32.8083 26.8612 33.3409 27.1714C33.0717 27.3074 32.9227 27.4041 32.7603 27.4583C32.5856 27.5166 32.3982 27.5343 32.2116 27.5704C32.2273 27.9352 32.3821 28.0285 32.6655 27.9978C33.5164 27.9048 34.3692 27.8231 35.2182 27.737C35.5035 26.653 36.2392 26.1297 37.3309 26.0533C37.3885 25.8332 37.4381 25.6412 37.4891 25.4492C37.7618 24.4255 38.6902 24.159 39.4467 24.9047C39.6829 25.1371 39.8549 25.4354 40.0346 25.6743C40.3963 25.7311 40.8206 25.6743 41.0506 25.8586C41.5859 26.2883 42.206 26.6507 42.5578 27.3427C43.8633 27.2548 45.1639 27.1672 46.443 27.0808C46.5827 26.2963 45.8674 26.6277 45.6543 26.3343C45.5252 25.8321 46.1162 25.9116 46.2391 25.6255C46.3389 25.1447 46.2798 24.7093 45.8873 24.3576ZM27.8533 27.547C26.8288 26.8485 26.7221 26.1477 27.5588 25.3452C27.9293 24.9904 28.1981 24.6939 28.1989 24.1414C28.1993 23.6456 28.5917 23.3454 29.0168 23.181C29.2234 21.8613 29.756 21.2258 31.2912 21.4485C31.4605 21.2473 31.6272 21.0165 31.8261 20.818C32.7169 19.9283 33.6373 20.0665 34.2375 21.1689C34.2629 21.215 34.3158 21.2457 34.3961 21.3202C34.4898 21.2315 34.6518 21.1528 34.6706 21.0487C34.8062 20.2938 35.3227 20.1003 35.9897 20.0999C36.1037 20.0999 36.2174 20.0884 36.3736 20.0799C36.3975 19.9121 36.4347 19.7505 36.4416 19.588C36.4823 18.6949 37.2242 17.9849 38.1093 18.0002C38.6388 18.0095 38.984 18.2821 39.0673 18.8001C39.1126 19.0793 39.1015 19.3669 39.1195 19.7171C39.8887 19.7946 40.3541 20.1755 40.2565 21.0153C40.6962 21.1217 41.1017 21.2204 41.5778 21.336C41.9027 20.7619 42.4618 20.4056 43.1745 20.3015C43.6664 20.2297 43.823 20.3591 43.9524 20.859C44.1053 21.4473 43.967 21.9933 43.7355 22.5275C43.9774 22.9226 44.2704 22.9241 44.5952 22.6607C45.0595 22.2844 45.5782 22.0805 46.1845 22.117C46.6384 22.1439 46.8089 22.2564 46.923 22.6876C47.0282 23.0839 47.0408 23.4871 46.8323 23.8595C46.6837 24.1245 46.61 24.381 46.7613 24.6701C46.7993 24.7423 46.8131 24.8398 46.8047 24.922C46.7152 25.748 46.9287 26.4991 47.34 27.2087C47.3899 27.2951 47.4049 27.426 47.3837 27.5251C46.9763 29.4051 46.8957 31.3266 46.6526 33.2273C46.4311 34.9602 46.2283 36.6959 46.029 38.4315C45.8658 39.8553 45.7103 41.2799 45.5771 42.7065C45.5556 42.9376 45.6662 43.1811 45.7376 43.5232C45.5725 43.6065 45.3643 43.7663 45.1328 43.8154C44.7991 43.8861 44.4493 43.8868 44.1052 43.8991C42.9882 43.9383 41.8708 43.9855 40.753 43.9986C39.8987 44.0082 39.0443 43.9667 38.1891 43.956C37.9346 43.9525 37.6796 43.9698 37.425 43.9844C36.4915 44.0381 35.6375 43.946 34.7375 43.5071C33.688 42.9952 33.2553 42.2084 32.8928 41.2124C31.4044 37.1194 29.875 33.0415 28.3598 28.9589C28.2999 28.7976 28.2738 28.5822 28.1555 28.4927C27.8084 28.2293 27.7696 27.8837 27.8533 27.547Z" fill="#111111"/>
<path d="M44.0972 26.8393C44.0841 26.7775 44.0714 26.7161 44.058 26.6546C43.5596 26.7237 43.2789 26.3854 42.9667 26.0625C42.7935 26.7982 42.7997 26.8597 43.1936 27.0352C43.3641 27.1112 43.5757 27.1592 43.7543 27.1308C43.881 27.1108 43.9839 26.9418 44.0972 26.8393ZM38.4817 22.2395C38.2183 22.7998 38.254 23.1446 38.537 23.3923C38.7624 23.59 39.1452 23.6564 39.3994 23.4226C39.6901 23.1546 39.9939 23.1603 40.3383 23.1415C40.8275 23.115 40.9035 22.8681 40.6205 22.3478C40.452 22.438 40.2884 22.5886 40.1133 22.6032C39.9079 22.6201 39.6924 22.5191 39.4751 22.4676C39.3852 22.6009 39.3307 22.6999 39.2589 22.7844C39.176 22.8827 39.0777 22.9687 38.9291 23.1169C38.7747 22.814 38.6541 22.5778 38.4817 22.2395ZM45.8873 24.3572C46.2798 24.7089 46.3389 25.1444 46.2391 25.6251C46.1162 25.9112 45.5252 25.8317 45.6542 26.334C45.8674 26.6274 46.5827 26.296 46.443 27.0805C45.1639 27.1669 43.8633 27.2544 42.5578 27.3423C42.206 26.6504 41.5859 26.2879 41.0506 25.8582C40.8206 25.6739 40.3963 25.7307 40.0346 25.6739C39.8549 25.4351 39.6828 25.1367 39.4467 24.9044C38.6902 24.1587 37.7617 24.4252 37.4891 25.4489C37.438 25.6409 37.3885 25.8329 37.3309 26.0529C36.2392 26.1293 35.5035 26.6527 35.2182 27.7367C34.3692 27.8227 33.5164 27.9045 32.6654 27.9974C32.3821 28.0282 32.2273 27.9348 32.2116 27.57C32.3982 27.534 32.5856 27.5163 32.7603 27.4579C32.9227 27.4038 33.0717 27.307 33.3409 27.1711C32.8083 26.8608 32.3813 26.872 32.0065 27.0663C31.5238 27.3166 31.899 27.8653 31.7189 28.2251C30.6933 28.5319 29.0775 28.3707 28.3759 27.8784C28.4877 27.6937 28.6009 27.5055 28.7384 27.2775C28.6228 27.1818 28.5314 27.0459 28.4155 27.0209C28.0614 26.9442 27.6482 27.0321 27.4382 26.597C27.406 26.1662 27.6056 25.8095 27.9574 25.5963C28.2799 25.4005 28.6654 25.3095 29.0456 25.164C28.4911 24.4928 28.4911 24.4928 28.8659 23.8081C29.1558 23.5593 29.5359 24.1184 29.845 23.6334C29.7936 23.4975 29.7084 23.3227 29.6604 23.138C29.5033 22.5371 30.0735 21.824 30.6944 21.8425C30.9145 21.849 31.0811 21.945 31.1134 22.19C31.1733 22.6412 31.2328 23.0931 31.3 23.6038C30.6015 23.6883 30.5036 24.1867 30.5992 24.8026C30.4613 24.8391 30.3565 24.8725 30.2494 24.8948C29.5713 25.0334 29.1865 25.5468 29.2391 26.2468C29.2775 26.7644 29.9341 27.3178 30.522 27.3066C30.61 27.3047 30.7478 27.2102 30.7678 27.1342C30.7889 27.054 30.7221 26.9038 30.6476 26.8551C30.5067 26.7633 30.322 26.7414 30.176 26.6554C29.8566 26.4668 29.6849 26.0652 29.7786 25.7818C29.8842 25.4608 30.2724 25.2945 30.7082 25.3955C30.8388 25.4259 30.9613 25.4884 31.1322 25.5533C31.3038 25.0104 30.6357 24.5511 31.1291 24.0274C31.366 24.214 31.5972 24.3964 31.8667 24.6083C32.1536 24.2224 32.0261 23.8684 31.884 23.5397C31.6847 23.0789 31.5895 22.6097 31.6556 22.1136C31.7642 21.2922 32.5698 20.6494 33.352 20.7512C33.8193 20.8119 34.0033 21.0591 33.9065 21.5234C33.8781 21.6616 33.7886 21.7868 33.7571 21.9243C33.741 21.9957 33.7786 22.0882 33.8155 22.1593C33.8378 22.203 33.905 22.2234 34.0789 22.3378C34.1903 22.18 34.2966 21.9723 34.4556 21.8198C34.6814 21.6021 34.9847 21.5668 35.2539 21.7154C35.4958 21.8494 35.4578 22.0932 35.3779 22.329C35.3557 22.3943 35.4048 22.4837 35.4405 22.6558C35.6947 22.5463 35.9055 22.4173 36.1336 22.3674C36.3775 22.314 36.6378 22.3347 36.935 22.3209C37.0137 22.5916 37.0813 22.8251 37.1604 23.0977C36.7442 23.2256 36.3705 23.3404 35.9535 23.4687C36.0572 23.8603 36.599 23.9986 36.4562 24.4363C36.4197 24.5481 36.2692 24.6229 36.1563 24.7282C35.9635 24.5189 35.803 24.3445 35.5381 24.0562C35.4647 24.4002 35.434 24.6095 35.3737 24.8099C35.2923 25.0799 35.2416 25.4109 34.8626 25.404C34.5623 25.3978 34.426 25.1774 34.3596 24.8998C34.3208 24.7381 34.2475 24.5849 34.1864 24.4183C33.8335 24.4402 33.8201 24.6913 33.7748 24.9002C33.7326 25.0952 33.746 25.3049 33.6853 25.4919C33.5886 25.7903 33.4607 25.8417 32.9312 25.8813C32.7238 25.5983 32.7922 25.2761 32.8705 24.9808C32.9458 24.6959 33.1001 24.4317 33.2913 23.9959C32.5264 24.4202 32.3199 24.9351 32.3245 25.5756C32.3272 25.9189 32.4155 26.1881 32.7653 26.334C33.1186 26.4811 33.4492 26.4668 33.7291 26.2107C33.9134 26.0422 34.0497 25.8214 34.206 25.6255C35.2412 26.0429 35.2931 26.0245 35.9009 25.0346C36.7522 24.8038 36.9258 24.9566 36.7019 23.8596C36.9642 23.7087 37.3443 23.6173 37.4522 23.3942C37.5874 23.1154 37.549 22.7195 37.4941 22.3893C37.4119 21.9001 36.9799 21.7876 35.952 21.9266C35.7781 21.7434 35.5857 21.5718 35.4348 21.3702C35.3426 21.2469 35.2259 21.0238 35.2766 20.9386C35.363 20.7938 35.5742 20.6344 35.7297 20.6379C36.1213 20.646 36.5111 20.7412 36.9799 20.8142C37.0041 20.7393 37.094 20.5945 37.0894 20.4528C37.0813 20.1979 36.993 19.9456 36.9815 19.6906C36.9531 19.0693 37.385 18.5939 37.9967 18.5429C38.3131 18.516 38.5051 18.6404 38.5351 18.9541C38.57 19.3212 38.6173 19.6956 38.3873 20.0381C38.2713 20.2105 38.2145 20.4117 38.5163 20.5803C38.6591 20.5227 38.843 20.4605 39.0155 20.3749C39.2194 20.2735 39.4014 20.2731 39.5626 20.4444C39.7397 20.631 39.7735 20.8491 39.6602 21.078C39.5653 21.2699 39.4517 21.4531 39.2662 21.7818C39.608 21.7565 39.7919 21.7653 39.9651 21.7265C40.9892 21.4957 41.8074 22.2169 41.6131 23.2471C41.5559 23.5508 41.2683 23.8108 41.0548 24.1395C41.1205 24.2716 41.2315 24.4586 41.3086 24.6583C41.6297 25.4915 41.6454 25.503 42.5355 25.2304C42.8861 25.6597 43.401 25.6966 43.9175 25.586C44.1049 25.546 44.3253 25.3587 44.4063 25.1813C44.6447 24.6613 44.8356 24.1157 44.5956 23.5289C44.566 23.4564 44.5914 23.3615 44.5914 23.2705C45.0233 22.7199 45.6224 22.5978 46.2452 22.5433C46.5989 23.2233 46.5789 23.3308 45.8873 24.3572Z" fill="#FAE1BA"/>
<path d="M36.2274 28.2231C38.1389 28.1109 39.984 28.0026 41.9035 27.8901C41.9254 28.1847 41.9581 28.4323 41.9604 28.68C41.9876 32.1251 41.9968 35.5707 42.0418 39.0151C42.0594 40.4185 42.1516 41.8205 42.2123 43.2808C41.0046 43.4739 39.8561 43.6079 38.6385 43.3507C37.8436 38.3623 37.048 33.3704 36.2274 28.2231Z" fill="white"/>
<path d="M42.6984 27.8608C44.0574 27.9591 45.3714 27.5678 46.8037 27.7275C46.2131 32.8553 45.6279 37.937 45.0408 43.0345C44.3242 43.5398 43.5305 43.2238 42.7242 43.3805C42.6896 43.0917 42.6427 42.877 42.6404 42.662C42.6093 39.905 42.5663 37.1483 42.5633 34.3917C42.5617 32.3815 42.6132 30.3721 42.6435 28.3627C42.6458 28.2244 42.6731 28.0869 42.6984 27.8608Z" fill="#D81F26"/>
<path d="M38.1447 43.4468H36.2516C34.8047 38.5931 33.4335 33.6957 32.0181 28.8156C32.937 28.4562 34.6961 28.275 35.7497 28.4363C36.5388 33.3832 37.3317 38.352 38.1447 43.4468Z" fill="#D81F26"/>
<path d="M30.6093 28.9307H31.4014C31.7213 29.56 34.9952 41.5389 35.2294 42.9201C34.6097 42.8387 34.5931 42.8383 34.4069 42.2186C34.021 40.9357 33.6451 39.6497 33.2726 38.363C32.3975 35.3414 31.5266 32.319 30.6561 29.2962C30.6331 29.216 30.6338 29.1288 30.6093 28.9307Z" fill="white"/>
<path d="M28.979 28.8059C29.0297 28.7846 29.085 28.7377 29.1303 28.7467C29.4079 28.802 29.6842 28.8703 30.0458 28.9544C31.3683 33.4191 32.6953 37.9019 34.0617 42.5166C33.6492 41.9408 29.1766 29.7782 28.979 28.8059Z" fill="#D81F26"/>
<path d="M37.766 26.9418C37.8021 26.6642 37.8317 26.4776 37.8486 26.2898C37.8612 26.1478 37.8486 26.0034 37.8632 25.8617C37.963 24.8921 38.4234 24.6821 39.2133 25.2446C39.2808 25.293 39.3404 25.3529 39.4206 25.4216C39.4152 25.5299 39.4271 25.6459 39.401 25.7526C39.2401 26.4112 39.249 26.4234 39.8875 26.2806C40.7189 26.0948 40.9984 26.2699 41.4016 27.2287C40.6728 27.4149 36.3787 27.681 35.8434 27.5731C36.3645 26.6212 36.7818 26.4603 37.766 26.9418Z" fill="#FCDD94"/>
<path d="M43.8411 25.1592C43.5097 25.0636 43.2344 25.0536 43.0512 24.9181C42.519 24.5233 42.5336 24.5037 41.9442 24.7353C41.7887 24.4692 41.781 24.2119 41.9561 23.9485C42.3117 23.4132 42.2245 22.8637 42.0225 22.3027C41.7603 21.5743 41.9142 21.2026 42.6223 20.8823C42.8769 20.7675 43.1576 20.7107 43.4279 20.6262C43.6817 21.6676 43.6387 21.8577 42.918 22.9056C43.2359 23.2504 43.8323 23.1218 44.0892 23.6478C44.3679 24.2192 43.8718 24.5448 43.8411 25.1592Z" fill="#FCDD94"/>
<path d="M38.4818 22.24C38.6542 22.5779 38.7748 22.8141 38.9291 23.117C39.0777 22.9688 39.176 22.8828 39.259 22.7845C39.3308 22.6996 39.3857 22.6009 39.4752 22.4681C39.6925 22.5195 39.9079 22.6201 40.1133 22.6029C40.2884 22.5887 40.452 22.4381 40.6206 22.3479C40.9036 22.8682 40.8276 23.1147 40.3384 23.142C39.9939 23.1604 39.6902 23.155 39.3995 23.4223C39.1457 23.6561 38.7625 23.5901 38.5371 23.3923C38.2541 23.1447 38.2184 22.7998 38.4818 22.24Z" fill="#111111"/>
<path d="M44.0972 26.8395C43.9839 26.9421 43.881 27.111 43.7543 27.131C43.5757 27.1594 43.3641 27.1114 43.1936 27.0354C42.7997 26.8599 42.7935 26.7985 42.9667 26.0627C43.2789 26.3857 43.5596 26.724 44.058 26.6549C44.0714 26.7163 44.0841 26.7777 44.0972 26.8395Z" fill="#111111"/>
<path d="M35.8433 42.9201C35.8433 42.9201 29.2134 32.3082 29.673 28.8673C30.1323 25.4267 28.801 26.2715 30.5992 24.8031C32.3974 23.3351 31.9328 21.3645 33.8155 22.1597C33.8155 22.1597 34.5839 20.5105 32.9197 20.3047C32.9197 20.3047 31.4267 20.6879 31.6556 22.114C31.6556 22.114 29.6577 20.6476 29.3516 22.9058V23.4607C29.3516 23.4607 28.1459 23.2391 28.3993 24.9371C28.3993 24.9371 26.0344 26.2262 27.8533 27.5471L28.2726 27.5985L28.4631 28.514L33.3874 42.2846C33.3874 42.2846 35.2278 44.165 35.8433 42.9201Z" fill="#271B10" fill-opacity="0.1"/>
<path d="M23.8411 46.1593C23.8718 45.5449 24.3679 45.2193 24.0891 44.648C23.8322 44.1219 23.2359 44.2505 22.918 43.9057C23.6387 42.8578 23.6817 42.6677 23.4279 41.6263C23.1576 41.7108 22.8769 41.7677 22.6223 41.8825C21.9142 42.2027 21.7602 42.5744 22.0225 43.3028C22.2245 43.8638 22.3116 44.4133 21.9561 44.9486C21.781 45.212 21.7886 45.4693 21.9442 45.7354C22.5336 45.5039 22.519 45.5234 23.0512 45.9182C23.2344 46.0537 23.5097 46.0637 23.8411 46.1593ZM17.766 47.9422C16.7814 47.4607 16.364 47.6216 15.8434 48.5731C16.3782 48.681 20.6728 48.4153 21.4012 48.229C20.9984 47.2702 20.7188 47.0951 19.8875 47.281C19.2489 47.4238 19.2401 47.4115 19.401 46.753C19.4271 46.6462 19.4152 46.5303 19.4202 46.422C19.34 46.3532 19.2808 46.2933 19.2128 46.245C18.4234 45.6824 17.9626 45.8925 17.8631 46.8616C17.8485 47.0033 17.8612 47.1477 17.8485 47.2898C17.8316 47.4779 17.8017 47.6646 17.766 47.9422ZM8.97878 49.8061C9.17654 50.7783 13.6492 62.9408 14.0616 63.5168C12.6954 58.9024 11.3684 54.4193 10.0459 49.9547C9.68418 49.8706 9.40809 49.8022 9.13008 49.7469C9.08515 49.7377 9.02947 49.7846 8.97878 49.8061ZM10.6092 49.9305C10.6338 50.1286 10.6334 50.2158 10.656 50.296C11.5266 53.3192 12.3974 56.3416 13.2725 59.3632C13.645 60.6495 14.0209 61.9355 14.4069 63.2188C14.5931 63.8382 14.6096 63.8385 15.2294 63.9199C14.9951 62.5387 11.7212 50.5598 11.4014 49.9305H10.6092ZM18.1442 64.4468C17.3313 59.352 16.5384 54.3832 15.7493 49.4363C14.6956 49.275 12.9369 49.4563 12.0177 49.8157C13.4334 54.6958 14.8043 59.5932 16.2512 64.4468H18.1442ZM22.6979 48.8607C22.6726 49.0869 22.6457 49.2243 22.6434 49.3626C22.6131 51.372 22.5612 53.3818 22.5632 55.3916C22.5662 58.1482 22.6088 60.9049 22.6399 63.6619C22.6426 63.8773 22.6891 64.0916 22.724 64.3804C23.53 64.2237 24.3241 64.5397 25.0403 64.0344C25.6274 58.9369 26.213 53.8552 26.8035 48.7274C25.3709 48.5677 24.0569 48.959 22.6979 48.8607ZM16.2273 49.2232C17.0479 54.3705 17.8435 59.3624 18.6384 64.3504C19.856 64.6081 21.0045 64.4737 22.2122 64.2805C22.1515 62.8206 22.0594 61.4183 22.0413 60.0152C21.9968 56.5704 21.9876 53.1253 21.9603 49.6801C21.958 49.4321 21.9253 49.1848 21.9035 48.8899C19.9839 49.0024 18.1385 49.1111 16.2273 49.2232ZM25.8873 45.3576C26.5789 44.3312 26.5989 44.2236 26.2452 43.5436C25.6224 43.5981 25.0234 43.7202 24.5914 44.2709C24.5914 44.3619 24.566 44.4567 24.5956 44.5293C24.8356 45.116 24.6447 45.6617 24.4063 46.1816C24.3253 46.359 24.1049 46.5464 23.9175 46.5863C23.401 46.6969 22.8861 46.6601 22.5355 46.2308C21.6454 46.5034 21.6297 46.4919 21.3087 45.6586C21.2315 45.4589 21.1205 45.2719 21.0548 45.1398C21.2683 44.8111 21.556 44.5512 21.6132 44.2475C21.8075 43.2172 20.9892 42.4961 19.9651 42.7269C19.7919 42.7656 19.608 42.7568 19.2662 42.7821C19.4517 42.4535 19.5654 42.2703 19.6602 42.0783C19.7735 41.8494 19.7397 41.6313 19.5627 41.4447C19.4014 41.2735 19.2194 41.2738 19.0155 41.3752C18.8431 41.4608 18.6591 41.523 18.5163 41.5806C18.2145 41.4121 18.2713 41.2109 18.3873 41.0385C18.6173 40.6959 18.5701 40.3216 18.5351 39.9545C18.5052 39.6407 18.3132 39.5163 17.9968 39.5432C17.3851 39.5943 16.9531 40.0697 16.9815 40.691C16.993 40.9459 17.0813 41.1982 17.0894 41.4532C17.094 41.5949 17.0041 41.7396 16.98 41.8145C16.5111 41.7415 16.1214 41.6463 15.7297 41.6382C15.5742 41.6348 15.363 41.7942 15.2766 41.9389C15.2259 42.0242 15.3426 42.2473 15.4348 42.3705C15.5857 42.5721 15.7781 42.7434 15.952 42.9269C16.98 42.7879 17.4119 42.9004 17.4941 43.3896C17.549 43.7195 17.5874 44.1157 17.4523 44.3945C17.3444 44.6176 16.9642 44.709 16.7019 44.8599C16.9258 45.957 16.7523 45.8041 15.9009 46.0349C15.2931 47.0248 15.2413 47.0433 14.206 46.6259C14.0497 46.8217 13.9134 47.0425 13.7291 47.2111C13.4492 47.4672 13.1186 47.4814 12.7653 47.3343C12.4155 47.1884 12.3272 46.9192 12.3245 46.576C12.3199 45.9355 12.5265 45.4205 13.2914 44.9962C13.1001 45.4321 12.9458 45.6962 12.8705 45.9812C12.7922 46.2764 12.7238 46.5986 12.9312 46.8816C13.4607 46.8421 13.5886 46.7906 13.6853 46.4923C13.746 46.3052 13.7326 46.0956 13.7748 45.9005C13.8201 45.6916 13.8336 45.4405 14.1864 45.4186C14.2475 45.5853 14.3208 45.7385 14.3596 45.9001C14.426 46.1778 14.5624 46.3982 14.8626 46.4043C15.2413 46.4112 15.2923 46.0802 15.3737 45.8103C15.434 45.6098 15.4647 45.4006 15.5381 45.0565C15.803 45.3449 15.9635 45.5192 16.1563 45.7285C16.2692 45.6233 16.4197 45.5484 16.4562 45.4367C16.599 44.9989 16.0572 44.8607 15.9536 44.469C16.3706 44.3408 16.7442 44.2259 17.1604 44.0981C17.0813 43.8254 17.0137 43.592 16.935 43.3213C16.6378 43.3351 16.3775 43.3144 16.1337 43.3674C15.9056 43.4177 15.6947 43.5467 15.4405 43.6561C15.4048 43.4841 15.3557 43.3946 15.378 43.3293C15.4578 43.0936 15.4958 42.8497 15.2539 42.7157C14.9848 42.5671 14.6814 42.6024 14.4556 42.8202C14.2966 42.9726 14.1903 43.1803 14.0789 43.3382C13.905 43.2237 13.8378 43.2034 13.8155 43.1596C13.7786 43.0886 13.741 42.996 13.7571 42.9246C13.7886 42.7871 13.8781 42.662 13.9065 42.5237C14.0033 42.0595 13.8193 41.8122 13.352 41.7515C12.5698 41.6498 11.7642 42.2926 11.6556 43.1139C11.5895 43.61 11.6848 44.0793 11.884 44.54C12.0261 44.8687 12.1536 45.2228 11.8668 45.6087C11.5972 45.3967 11.366 45.2143 11.1291 45.0277C10.6357 45.5515 11.3038 46.0107 11.1322 46.5537C10.9613 46.4888 10.8388 46.4262 10.7083 46.3959C10.2724 46.2949 9.88423 46.4611 9.77863 46.7822C9.68494 47.0655 9.85659 47.4672 10.1761 47.6553C10.322 47.7417 10.5067 47.7636 10.6476 47.8554C10.7221 47.9042 10.7889 48.0543 10.7678 48.1346C10.7478 48.2106 10.61 48.3051 10.522 48.307C9.93415 48.3181 9.27753 47.7648 9.23913 47.2472C9.18652 46.5472 9.57129 46.0338 10.2494 45.8951C10.3565 45.8729 10.4614 45.8395 10.5992 45.803C10.5036 45.1871 10.6015 44.6886 11.3 44.6042C11.2328 44.0935 11.1733 43.6415 11.1134 43.1903C11.0811 42.9453 10.9145 42.8494 10.6945 42.8428C10.0735 42.8244 9.50332 43.5375 9.66037 44.1384C9.70837 44.3231 9.79361 44.4978 9.84507 44.6337C9.53596 45.1187 9.15581 44.5596 8.8659 44.8085C8.49113 45.4931 8.49112 45.4931 9.0456 46.1643C8.66545 46.3099 8.27992 46.4009 7.95737 46.5967C7.60564 46.8098 7.40597 47.1665 7.43822 47.5974C7.64827 48.0324 8.06144 47.9445 8.41548 48.0213C8.53144 48.0463 8.62283 48.1822 8.73842 48.2778C8.60095 48.5059 8.48767 48.694 8.37593 48.8787C9.07748 49.371 10.6933 49.5323 11.7189 49.2255C11.899 48.8657 11.5239 48.317 12.0065 48.0666C12.3813 47.8723 12.8083 47.8612 13.3409 48.1714C13.0717 48.3074 12.9227 48.4041 12.7603 48.4583C12.5856 48.5166 12.3982 48.5343 12.2116 48.5704C12.2273 48.9352 12.3821 49.0285 12.6655 48.9978C13.5164 48.9048 14.3692 48.8231 15.2182 48.737C15.5035 47.653 16.2392 47.1297 17.3309 47.0533C17.3885 46.8332 17.4381 46.6412 17.4891 46.4492C17.7618 45.4255 18.6902 45.159 19.4467 45.9047C19.6829 46.1371 19.8549 46.4354 20.0346 46.6743C20.3963 46.7311 20.8206 46.6743 21.0506 46.8586C21.5859 47.2883 22.206 47.6507 22.5578 48.3427C23.8633 48.2548 25.1639 48.1672 26.443 48.0808C26.5827 47.2963 25.8674 47.6277 25.6543 47.3343C25.5252 46.8321 26.1162 46.9116 26.2391 46.6255C26.3389 46.1447 26.2798 45.7093 25.8873 45.3576ZM7.85331 48.547C6.82883 47.8485 6.72208 47.1477 7.55879 46.3452C7.92934 45.9904 8.19814 45.6939 8.19891 45.1414C8.1993 44.6456 8.59172 44.3454 9.0168 44.181C9.22338 42.8613 9.75598 42.2258 11.2912 42.4485C11.4605 42.2473 11.6272 42.0165 11.8261 41.818C12.7169 40.9283 13.6373 41.0665 14.2375 42.1689C14.2629 42.215 14.3158 42.2457 14.3961 42.3202C14.4898 42.2315 14.6518 42.1528 14.6706 42.0487C14.8062 41.2938 15.3227 41.1003 15.9897 41.0999C16.1037 41.0999 16.2174 41.0884 16.3736 41.0799C16.3975 40.9121 16.4347 40.7505 16.4416 40.588C16.4823 39.6949 17.2242 38.9849 18.1093 39.0002C18.6388 39.0095 18.984 39.2821 19.0673 39.8001C19.1126 40.0793 19.1015 40.3669 19.1195 40.7171C19.8887 40.7946 20.3541 41.1755 20.2565 42.0153C20.6962 42.1217 21.1017 42.2204 21.5778 42.336C21.9027 41.7619 22.4618 41.4056 23.1745 41.3015C23.6664 41.2297 23.823 41.3591 23.9524 41.859C24.1053 42.4473 23.967 42.9933 23.7355 43.5275C23.9774 43.9226 24.2704 43.9241 24.5952 43.6607C25.0595 43.2844 25.5782 43.0805 26.1845 43.117C26.6384 43.1439 26.8089 43.2564 26.923 43.6876C27.0282 44.0839 27.0408 44.4871 26.8323 44.8595C26.6837 45.1245 26.61 45.381 26.7613 45.6701C26.7993 45.7423 26.8131 45.8398 26.8047 45.922C26.7152 46.748 26.9287 47.4991 27.34 48.2087C27.3899 48.2951 27.4049 48.426 27.3837 48.5251C26.9763 50.4051 26.8957 52.3266 26.6526 54.2273C26.4311 55.9602 26.2283 57.6959 26.029 59.4315C25.8658 60.8553 25.7103 62.2799 25.5771 63.7065C25.5556 63.9376 25.6662 64.1811 25.7376 64.5232C25.5725 64.6065 25.3643 64.7663 25.1328 64.8154C24.7991 64.8861 24.4493 64.8868 24.1052 64.8991C22.9882 64.9383 21.8708 64.9855 20.753 64.9986C19.8987 65.0082 19.0443 64.9667 18.1891 64.956C17.9346 64.9525 17.6796 64.9698 17.425 64.9844C16.4915 65.0381 15.6375 64.946 14.7375 64.5071C13.688 63.9952 13.2553 63.2084 12.8928 62.2124C11.4044 58.1194 9.87501 54.0415 8.35979 49.9589C8.29989 49.7976 8.27379 49.5822 8.15552 49.4927C7.80839 49.2293 7.7696 48.8837 7.85331 48.547Z" fill="#111111"/>
<path d="M24.0972 47.8393C24.0841 47.7775 24.0714 47.7161 24.058 47.6546C23.5596 47.7237 23.2789 47.3854 22.9667 47.0625C22.7935 47.7982 22.7997 47.8597 23.1936 48.0352C23.3641 48.1112 23.5757 48.1592 23.7543 48.1308C23.881 48.1108 23.9839 47.9418 24.0972 47.8393ZM18.4817 43.2395C18.2183 43.7998 18.254 44.1446 18.537 44.3923C18.7624 44.59 19.1452 44.6564 19.3994 44.4226C19.6901 44.1546 19.9939 44.1603 20.3383 44.1415C20.8275 44.115 20.9035 43.8681 20.6205 43.3478C20.452 43.438 20.2884 43.5886 20.1133 43.6032C19.9079 43.6201 19.6924 43.5191 19.4751 43.4676C19.3852 43.6009 19.3307 43.6999 19.2589 43.7844C19.176 43.8827 19.0777 43.9687 18.9291 44.1169C18.7747 43.814 18.6541 43.5778 18.4817 43.2395ZM25.8873 45.3572C26.2798 45.7089 26.3389 46.1444 26.2391 46.6251C26.1162 46.9112 25.5252 46.8317 25.6542 47.334C25.8674 47.6274 26.5827 47.296 26.443 48.0805C25.1639 48.1669 23.8633 48.2544 22.5578 48.3423C22.206 47.6504 21.5859 47.2879 21.0506 46.8582C20.8206 46.6739 20.3963 46.7307 20.0346 46.6739C19.8549 46.4351 19.6828 46.1367 19.4467 45.9044C18.6902 45.1587 17.7617 45.4252 17.4891 46.4489C17.438 46.6409 17.3885 46.8329 17.3309 47.0529C16.2392 47.1293 15.5035 47.6527 15.2182 48.7367C14.3692 48.8227 13.5164 48.9045 12.6654 48.9974C12.3821 49.0282 12.2273 48.9348 12.2116 48.57C12.3982 48.534 12.5856 48.5163 12.7603 48.4579C12.9227 48.4038 13.0717 48.307 13.3409 48.1711C12.8083 47.8608 12.3813 47.872 12.0065 48.0663C11.5238 48.3166 11.899 48.8653 11.7189 49.2251C10.6933 49.5319 9.07746 49.3707 8.37591 48.8784C8.48765 48.6937 8.60093 48.5055 8.7384 48.2775C8.62282 48.1818 8.53143 48.0459 8.41546 48.0209C8.06142 47.9442 7.64825 48.0321 7.43821 47.597C7.40595 47.1662 7.60562 46.8095 7.95735 46.5963C8.27991 46.4005 8.66544 46.3095 9.04558 46.164C8.4911 45.4928 8.49111 45.4928 8.86588 44.8081C9.15579 44.5593 9.53594 45.1184 9.84505 44.6334C9.79359 44.4975 9.70835 44.3227 9.66035 44.138C9.5033 43.5371 10.0735 42.824 10.6944 42.8425C10.9145 42.849 11.0811 42.945 11.1134 43.19C11.1733 43.6412 11.2328 44.0931 11.3 44.6038C10.6015 44.6883 10.5036 45.1867 10.5992 45.8026C10.4613 45.8391 10.3565 45.8725 10.2494 45.8948C9.57127 46.0334 9.18651 46.5468 9.23911 47.2468C9.27751 47.7644 9.93413 48.3178 10.522 48.3066C10.61 48.3047 10.7478 48.2102 10.7678 48.1342C10.7889 48.054 10.7221 47.9038 10.6476 47.8551C10.5067 47.7633 10.322 47.7414 10.176 47.6554C9.85657 47.4668 9.68492 47.0652 9.77862 46.7818C9.88421 46.4608 10.2724 46.2945 10.7082 46.3955C10.8388 46.4259 10.9613 46.4884 11.1322 46.5533C11.3038 46.0104 10.6357 45.5511 11.1291 45.0274C11.366 45.214 11.5972 45.3964 11.8667 45.6083C12.1536 45.2224 12.0261 44.8684 11.884 44.5397C11.6847 44.0789 11.5895 43.6097 11.6556 43.1136C11.7642 42.2922 12.5698 41.6494 13.352 41.7512C13.8193 41.8119 14.0033 42.0591 13.9065 42.5234C13.8781 42.6616 13.7886 42.7868 13.7571 42.9243C13.741 42.9957 13.7786 43.0882 13.8155 43.1593C13.8378 43.203 13.905 43.2234 14.0789 43.3378C14.1903 43.18 14.2966 42.9723 14.4556 42.8198C14.6814 42.6021 14.9847 42.5668 15.2539 42.7154C15.4958 42.8494 15.4578 43.0932 15.3779 43.329C15.3557 43.3943 15.4048 43.4837 15.4405 43.6558C15.6947 43.5463 15.9055 43.4173 16.1336 43.3674C16.3775 43.314 16.6378 43.3347 16.935 43.3209C17.0137 43.5916 17.0813 43.8251 17.1604 44.0977C16.7442 44.2256 16.3705 44.3404 15.9535 44.4687C16.0572 44.8603 16.599 44.9986 16.4562 45.4363C16.4197 45.5481 16.2692 45.6229 16.1563 45.7282C15.9635 45.5189 15.803 45.3445 15.5381 45.0562C15.4647 45.4002 15.434 45.6095 15.3737 45.8099C15.2923 46.0799 15.2416 46.4109 14.8626 46.404C14.5623 46.3978 14.426 46.1774 14.3596 45.8998C14.3208 45.7381 14.2475 45.5849 14.1864 45.4183C13.8335 45.4402 13.8201 45.6913 13.7748 45.9002C13.7326 46.0952 13.746 46.3049 13.6853 46.4919C13.5886 46.7903 13.4607 46.8417 12.9312 46.8813C12.7238 46.5983 12.7922 46.2761 12.8705 45.9808C12.9458 45.6959 13.1001 45.4317 13.2913 44.9959C12.5264 45.4202 12.3199 45.9351 12.3245 46.5756C12.3272 46.9189 12.4155 47.1881 12.7653 47.334C13.1186 47.4811 13.4492 47.4668 13.7291 47.2107C13.9134 47.0422 14.0497 46.8214 14.206 46.6255C15.2412 47.0429 15.2931 47.0245 15.9009 46.0346C16.7522 45.8038 16.9258 45.9566 16.7019 44.8596C16.9642 44.7087 17.3443 44.6173 17.4522 44.3942C17.5874 44.1154 17.549 43.7195 17.4941 43.3893C17.4119 42.9001 16.9799 42.7876 15.952 42.9266C15.7781 42.7434 15.5857 42.5718 15.4348 42.3702C15.3426 42.2469 15.2259 42.0238 15.2766 41.9386C15.363 41.7938 15.5742 41.6344 15.7297 41.6379C16.1213 41.646 16.5111 41.7412 16.9799 41.8142C17.0041 41.7393 17.094 41.5945 17.0894 41.4528C17.0813 41.1979 16.993 40.9456 16.9815 40.6906C16.9531 40.0693 17.385 39.5939 17.9967 39.5429C18.3131 39.516 18.5051 39.6404 18.5351 39.9541C18.57 40.3212 18.6173 40.6956 18.3873 41.0381C18.2713 41.2105 18.2145 41.4117 18.5163 41.5803C18.6591 41.5227 18.843 41.4605 19.0155 41.3749C19.2194 41.2735 19.4014 41.2731 19.5626 41.4444C19.7397 41.631 19.7735 41.8491 19.6602 42.078C19.5653 42.2699 19.4517 42.4531 19.2662 42.7818C19.608 42.7565 19.7919 42.7653 19.9651 42.7265C20.9892 42.4957 21.8074 43.2169 21.6131 44.2471C21.5559 44.5508 21.2683 44.8108 21.0548 45.1395C21.1205 45.2716 21.2315 45.4586 21.3086 45.6583C21.6297 46.4915 21.6454 46.503 22.5355 46.2304C22.8861 46.6597 23.401 46.6966 23.9175 46.586C24.1049 46.546 24.3253 46.3587 24.4063 46.1813C24.6447 45.6613 24.8356 45.1157 24.5956 44.5289C24.566 44.4564 24.5914 44.3615 24.5914 44.2705C25.0233 43.7199 25.6224 43.5978 26.2452 43.5433C26.5989 44.2233 26.5789 44.3308 25.8873 45.3572Z" fill="#FAE1BA"/>
<path d="M16.2274 49.2231C18.1389 49.1109 19.984 49.0026 21.9035 48.8901C21.9254 49.1847 21.9581 49.4323 21.9604 49.68C21.9876 53.1251 21.9968 56.5707 22.0418 60.0151C22.0594 61.4185 22.1516 62.8205 22.2123 64.2808C21.0046 64.4739 19.8561 64.6079 18.6385 64.3507C17.8436 59.3623 17.048 54.3704 16.2274 49.2231Z" fill="white"/>
<path d="M22.6984 48.8608C24.0574 48.9591 25.3714 48.5678 26.8037 48.7275C26.2131 53.8553 25.6279 58.937 25.0408 64.0345C24.3242 64.5398 23.5305 64.2238 22.7242 64.3805C22.6896 64.0917 22.6427 63.877 22.6404 63.662C22.6093 60.905 22.5663 58.1483 22.5633 55.3917C22.5617 53.3815 22.6132 51.3721 22.6435 49.3627C22.6458 49.2244 22.6731 49.0869 22.6984 48.8608Z" fill="#D81F26"/>
<path d="M18.1447 64.4468H16.2516C14.8047 59.5931 13.4335 54.6957 12.0181 49.8156C12.937 49.4562 14.6961 49.275 15.7497 49.4363C16.5388 54.3832 17.3317 59.352 18.1447 64.4468Z" fill="#D81F26"/>
<path d="M10.6093 49.9307H11.4014C11.7213 50.56 14.9952 62.5389 15.2294 63.9201C14.6097 63.8387 14.5931 63.8383 14.4069 63.2186C14.021 61.9357 13.6451 60.6497 13.2726 59.363C12.3975 56.3414 11.5266 53.319 10.6561 50.2962C10.6331 50.216 10.6338 50.1288 10.6093 49.9307Z" fill="white"/>
<path d="M8.97901 49.8059C9.02966 49.7846 9.08504 49.7377 9.13031 49.7467C9.40795 49.802 9.68416 49.8703 10.0458 49.9544C11.3683 54.4191 12.6953 58.9019 14.0617 63.5166C13.6492 62.9408 9.17664 50.7782 8.97901 49.8059Z" fill="#D81F26"/>
<path d="M17.766 47.9418C17.8021 47.6642 17.8317 47.4776 17.8486 47.2898C17.8612 47.1478 17.8486 47.0034 17.8632 46.8617C17.963 45.8921 18.4234 45.6821 19.2133 46.2446C19.2808 46.293 19.3404 46.3529 19.4206 46.4216C19.4152 46.5299 19.4271 46.6459 19.401 46.7526C19.2401 47.4112 19.249 47.4234 19.8875 47.2806C20.7189 47.0948 20.9984 47.2699 21.4016 48.2287C20.6728 48.4149 16.3787 48.681 15.8434 48.5731C16.3645 47.6212 16.7818 47.4603 17.766 47.9418Z" fill="#FCDD94"/>
<path d="M23.8411 46.1592C23.5097 46.0636 23.2344 46.0536 23.0512 45.9181C22.519 45.5233 22.5336 45.5037 21.9442 45.7353C21.7887 45.4692 21.781 45.2119 21.9561 44.9485C22.3117 44.4132 22.2245 43.8637 22.0225 43.3027C21.7603 42.5743 21.9142 42.2026 22.6223 41.8823C22.8769 41.7675 23.1576 41.7107 23.4279 41.6262C23.6817 42.6676 23.6387 42.8577 22.918 43.9056C23.2359 44.2504 23.8323 44.1218 24.0892 44.6478C24.3679 45.2192 23.8718 45.5448 23.8411 46.1592Z" fill="#FCDD94"/>
<path d="M18.4818 43.24C18.6542 43.5779 18.7748 43.8141 18.9291 44.117C19.0777 43.9688 19.176 43.8828 19.259 43.7845C19.3308 43.6996 19.3857 43.6009 19.4752 43.4681C19.6925 43.5195 19.9079 43.6201 20.1133 43.6029C20.2884 43.5887 20.452 43.4381 20.6206 43.3479C20.9036 43.8682 20.8276 44.1147 20.3384 44.142C19.9939 44.1604 19.6902 44.155 19.3995 44.4223C19.1457 44.6561 18.7625 44.5901 18.5371 44.3923C18.2541 44.1447 18.2184 43.7998 18.4818 43.24Z" fill="#111111"/>
<path d="M24.0972 47.8395C23.9839 47.9421 23.881 48.111 23.7543 48.131C23.5757 48.1594 23.3641 48.1114 23.1936 48.0354C22.7997 47.8599 22.7935 47.7985 22.9667 47.0627C23.2789 47.3857 23.5596 47.724 24.058 47.6549C24.0714 47.7163 24.0841 47.7777 24.0972 47.8395Z" fill="#111111"/>
<path d="M15.8433 63.9201C15.8433 63.9201 9.2134 53.3082 9.67303 49.8673C10.1323 46.4267 8.80099 47.2715 10.5992 45.8031C12.3974 44.3351 11.9328 42.3645 13.8155 43.1597C13.8155 43.1597 14.5839 41.5105 12.9197 41.3047C12.9197 41.3047 11.4267 41.6879 11.6556 43.114C11.6556 43.114 9.65767 41.6476 9.35163 43.9058V44.4607C9.35163 44.4607 8.1459 44.2391 8.39934 45.9371C8.39934 45.9371 6.03435 47.2262 7.85331 48.5471L8.27263 48.5985L8.46308 49.514L13.3874 63.2846C13.3874 63.2846 15.2278 65.165 15.8433 63.9201Z" fill="#271B10" fill-opacity="0.1"/>
<path d="M62.8411 46.1593C62.8718 45.5449 63.3679 45.2193 63.0891 44.648C62.8322 44.1219 62.2359 44.2505 61.918 43.9057C62.6387 42.8578 62.6817 42.6677 62.4279 41.6263C62.1576 41.7108 61.8769 41.7677 61.6223 41.8825C60.9142 42.2027 60.7602 42.5744 61.0225 43.3028C61.2245 43.8638 61.3116 44.4133 60.9561 44.9486C60.781 45.212 60.7886 45.4693 60.9442 45.7354C61.5336 45.5039 61.519 45.5234 62.0512 45.9182C62.2344 46.0537 62.5097 46.0637 62.8411 46.1593ZM56.766 47.9422C55.7814 47.4607 55.364 47.6216 54.8434 48.5731C55.3782 48.681 59.6728 48.4153 60.4012 48.229C59.9984 47.2702 59.7188 47.0951 58.8875 47.281C58.2489 47.4238 58.2401 47.4115 58.401 46.753C58.4271 46.6462 58.4152 46.5303 58.4202 46.422C58.34 46.3532 58.2808 46.2933 58.2128 46.245C57.4234 45.6824 56.9626 45.8925 56.8631 46.8616C56.8485 47.0033 56.8612 47.1477 56.8485 47.2898C56.8316 47.4779 56.8017 47.6646 56.766 47.9422ZM47.9788 49.8061C48.1765 50.7783 52.6492 62.9408 53.0616 63.5168C51.6954 58.9024 50.3684 54.4193 49.0459 49.9547C48.6842 49.8706 48.4081 49.8022 48.1301 49.7469C48.0852 49.7377 48.0295 49.7846 47.9788 49.8061ZM49.6092 49.9305C49.6338 50.1286 49.6334 50.2158 49.656 50.296C50.5266 53.3192 51.3974 56.3416 52.2725 59.3632C52.645 60.6495 53.0209 61.9355 53.4069 63.2188C53.5931 63.8382 53.6096 63.8385 54.2294 63.9199C53.9951 62.5387 50.7212 50.5598 50.4014 49.9305H49.6092ZM57.1442 64.4468C56.3313 59.352 55.5384 54.3832 54.7493 49.4363C53.6956 49.275 51.9369 49.4563 51.0177 49.8157C52.4334 54.6958 53.8043 59.5932 55.2512 64.4468H57.1442ZM61.6979 48.8607C61.6726 49.0869 61.6457 49.2243 61.6434 49.3626C61.6131 51.372 61.5612 53.3818 61.5632 55.3916C61.5662 58.1482 61.6088 60.9049 61.6399 63.6619C61.6426 63.8773 61.6891 64.0916 61.724 64.3804C62.53 64.2237 63.3241 64.5397 64.0403 64.0344C64.6274 58.9369 65.213 53.8552 65.8035 48.7274C64.3709 48.5677 63.0569 48.959 61.6979 48.8607ZM55.2273 49.2232C56.0479 54.3705 56.8435 59.3624 57.6384 64.3504C58.856 64.6081 60.0045 64.4737 61.2122 64.2805C61.1515 62.8206 61.0594 61.4183 61.0413 60.0152C60.9968 56.5704 60.9876 53.1253 60.9603 49.6801C60.958 49.4321 60.9253 49.1848 60.9035 48.8899C58.9839 49.0024 57.1385 49.1111 55.2273 49.2232ZM64.8873 45.3576C65.5789 44.3312 65.5989 44.2236 65.2452 43.5436C64.6224 43.5981 64.0234 43.7202 63.5914 44.2709C63.5914 44.3619 63.566 44.4567 63.5956 44.5293C63.8356 45.116 63.6447 45.6617 63.4063 46.1816C63.3253 46.359 63.1049 46.5464 62.9175 46.5863C62.401 46.6969 61.8861 46.6601 61.5355 46.2308C60.6454 46.5034 60.6297 46.4919 60.3087 45.6586C60.2315 45.4589 60.1205 45.2719 60.0548 45.1398C60.2683 44.8111 60.556 44.5512 60.6132 44.2475C60.8075 43.2172 59.9892 42.4961 58.9651 42.7269C58.7919 42.7656 58.608 42.7568 58.2662 42.7821C58.4517 42.4535 58.5654 42.2703 58.6602 42.0783C58.7735 41.8494 58.7397 41.6313 58.5627 41.4447C58.4014 41.2735 58.2194 41.2738 58.0155 41.3752C57.8431 41.4608 57.6591 41.523 57.5163 41.5806C57.2145 41.4121 57.2713 41.2109 57.3873 41.0385C57.6173 40.6959 57.5701 40.3216 57.5351 39.9545C57.5052 39.6407 57.3132 39.5163 56.9968 39.5432C56.3851 39.5943 55.9531 40.0697 55.9815 40.691C55.993 40.9459 56.0813 41.1982 56.0894 41.4532C56.094 41.5949 56.0041 41.7396 55.98 41.8145C55.5111 41.7415 55.1214 41.6463 54.7297 41.6382C54.5742 41.6348 54.363 41.7942 54.2766 41.9389C54.2259 42.0242 54.3426 42.2473 54.4348 42.3705C54.5857 42.5721 54.7781 42.7434 54.952 42.9269C55.98 42.7879 56.4119 42.9004 56.4941 43.3896C56.549 43.7195 56.5874 44.1157 56.4523 44.3945C56.3444 44.6176 55.9642 44.709 55.7019 44.8599C55.9258 45.957 55.7523 45.8041 54.9009 46.0349C54.2931 47.0248 54.2413 47.0433 53.206 46.6259C53.0497 46.8217 52.9134 47.0425 52.7291 47.2111C52.4492 47.4672 52.1186 47.4814 51.7653 47.3343C51.4155 47.1884 51.3272 46.9192 51.3245 46.576C51.3199 45.9355 51.5265 45.4205 52.2914 44.9962C52.1001 45.4321 51.9458 45.6962 51.8705 45.9812C51.7922 46.2764 51.7238 46.5986 51.9312 46.8816C52.4607 46.8421 52.5886 46.7906 52.6853 46.4923C52.746 46.3052 52.7326 46.0956 52.7748 45.9005C52.8201 45.6916 52.8336 45.4405 53.1864 45.4186C53.2475 45.5853 53.3208 45.7385 53.3596 45.9001C53.426 46.1778 53.5624 46.3982 53.8626 46.4043C54.2413 46.4112 54.2923 46.0802 54.3737 45.8103C54.434 45.6098 54.4647 45.4006 54.5381 45.0565C54.803 45.3449 54.9635 45.5192 55.1563 45.7285C55.2692 45.6233 55.4197 45.5484 55.4562 45.4367C55.599 44.9989 55.0572 44.8607 54.9536 44.469C55.3706 44.3408 55.7442 44.2259 56.1604 44.0981C56.0813 43.8254 56.0137 43.592 55.935 43.3213C55.6378 43.3351 55.3775 43.3144 55.1337 43.3674C54.9056 43.4177 54.6947 43.5467 54.4405 43.6561C54.4048 43.4841 54.3557 43.3946 54.378 43.3293C54.4578 43.0936 54.4958 42.8497 54.2539 42.7157C53.9848 42.5671 53.6814 42.6024 53.4556 42.8202C53.2966 42.9726 53.1903 43.1803 53.0789 43.3382C52.905 43.2237 52.8378 43.2034 52.8155 43.1596C52.7786 43.0886 52.741 42.996 52.7571 42.9246C52.7886 42.7871 52.8781 42.662 52.9065 42.5237C53.0033 42.0595 52.8193 41.8122 52.352 41.7515C51.5698 41.6498 50.7642 42.2926 50.6556 43.1139C50.5895 43.61 50.6848 44.0793 50.884 44.54C51.0261 44.8687 51.1536 45.2228 50.8668 45.6087C50.5972 45.3967 50.366 45.2143 50.1291 45.0277C49.6357 45.5515 50.3038 46.0107 50.1322 46.5537C49.9613 46.4888 49.8388 46.4262 49.7083 46.3959C49.2724 46.2949 48.8842 46.4611 48.7786 46.7822C48.6849 47.0655 48.8566 47.4672 49.1761 47.6553C49.322 47.7417 49.5067 47.7636 49.6476 47.8554C49.7221 47.9042 49.7889 48.0543 49.7678 48.1346C49.7478 48.2106 49.61 48.3051 49.522 48.307C48.9342 48.3181 48.2775 47.7648 48.2391 47.2472C48.1865 46.5472 48.5713 46.0338 49.2494 45.8951C49.3565 45.8729 49.4614 45.8395 49.5992 45.803C49.5036 45.1871 49.6015 44.6886 50.3 44.6042C50.2328 44.0935 50.1733 43.6415 50.1134 43.1903C50.0811 42.9453 49.9145 42.8494 49.6945 42.8428C49.0735 42.8244 48.5033 43.5375 48.6604 44.1384C48.7084 44.3231 48.7936 44.4978 48.8451 44.6337C48.536 45.1187 48.1558 44.5596 47.8659 44.8085C47.4911 45.4931 47.4911 45.4931 48.0456 46.1643C47.6655 46.3099 47.2799 46.4009 46.9574 46.5967C46.6056 46.8098 46.406 47.1665 46.4382 47.5974C46.6483 48.0324 47.0614 47.9445 47.4155 48.0213C47.5314 48.0463 47.6228 48.1822 47.7384 48.2778C47.6009 48.5059 47.4877 48.694 47.3759 48.8787C48.0775 49.371 49.6933 49.5323 50.7189 49.2255C50.899 48.8657 50.5239 48.317 51.0065 48.0666C51.3813 47.8723 51.8083 47.8612 52.3409 48.1714C52.0717 48.3074 51.9227 48.4041 51.7603 48.4583C51.5856 48.5166 51.3982 48.5343 51.2116 48.5704C51.2273 48.9352 51.3821 49.0285 51.6655 48.9978C52.5164 48.9048 53.3692 48.8231 54.2182 48.737C54.5035 47.653 55.2392 47.1297 56.3309 47.0533C56.3885 46.8332 56.4381 46.6412 56.4891 46.4492C56.7618 45.4255 57.6902 45.159 58.4467 45.9047C58.6829 46.1371 58.8549 46.4354 59.0346 46.6743C59.3963 46.7311 59.8206 46.6743 60.0506 46.8586C60.5859 47.2883 61.206 47.6507 61.5578 48.3427C62.8633 48.2548 64.1639 48.1672 65.443 48.0808C65.5827 47.2963 64.8674 47.6277 64.6543 47.3343C64.5252 46.8321 65.1162 46.9116 65.2391 46.6255C65.3389 46.1447 65.2798 45.7093 64.8873 45.3576ZM46.8533 48.547C45.8288 47.8485 45.7221 47.1477 46.5588 46.3452C46.9293 45.9904 47.1981 45.6939 47.1989 45.1414C47.1993 44.6456 47.5917 44.3454 48.0168 44.181C48.2234 42.8613 48.756 42.2258 50.2912 42.4485C50.4605 42.2473 50.6272 42.0165 50.8261 41.818C51.7169 40.9283 52.6373 41.0665 53.2375 42.1689C53.2629 42.215 53.3158 42.2457 53.3961 42.3202C53.4898 42.2315 53.6518 42.1528 53.6706 42.0487C53.8062 41.2938 54.3227 41.1003 54.9897 41.0999C55.1037 41.0999 55.2174 41.0884 55.3736 41.0799C55.3975 40.9121 55.4347 40.7505 55.4416 40.588C55.4823 39.6949 56.2242 38.9849 57.1093 39.0002C57.6388 39.0095 57.984 39.2821 58.0673 39.8001C58.1126 40.0793 58.1015 40.3669 58.1195 40.7171C58.8887 40.7946 59.3541 41.1755 59.2565 42.0153C59.6962 42.1217 60.1017 42.2204 60.5778 42.336C60.9027 41.7619 61.4618 41.4056 62.1745 41.3015C62.6664 41.2297 62.823 41.3591 62.9524 41.859C63.1053 42.4473 62.967 42.9933 62.7355 43.5275C62.9774 43.9226 63.2704 43.9241 63.5952 43.6607C64.0595 43.2844 64.5782 43.0805 65.1845 43.117C65.6384 43.1439 65.8089 43.2564 65.923 43.6876C66.0282 44.0839 66.0408 44.4871 65.8323 44.8595C65.6837 45.1245 65.61 45.381 65.7613 45.6701C65.7993 45.7423 65.8131 45.8398 65.8047 45.922C65.7152 46.748 65.9287 47.4991 66.34 48.2087C66.3899 48.2951 66.4049 48.426 66.3837 48.5251C65.9763 50.4051 65.8957 52.3266 65.6526 54.2273C65.4311 55.9602 65.2283 57.6959 65.029 59.4315C64.8658 60.8553 64.7103 62.2799 64.5771 63.7065C64.5556 63.9376 64.6662 64.1811 64.7376 64.5232C64.5725 64.6065 64.3643 64.7663 64.1328 64.8154C63.7991 64.8861 63.4493 64.8868 63.1052 64.8991C61.9882 64.9383 60.8708 64.9855 59.753 64.9986C58.8987 65.0082 58.0443 64.9667 57.1891 64.956C56.9346 64.9525 56.6796 64.9698 56.425 64.9844C55.4915 65.0381 54.6375 64.946 53.7375 64.5071C52.688 63.9952 52.2553 63.2084 51.8928 62.2124C50.4044 58.1194 48.875 54.0415 47.3598 49.9589C47.2999 49.7976 47.2738 49.5822 47.1555 49.4927C46.8084 49.2293 46.7696 48.8837 46.8533 48.547Z" fill="#111111"/>
<path d="M63.0972 47.8393C63.0841 47.7775 63.0714 47.7161 63.058 47.6546C62.5596 47.7237 62.2789 47.3854 61.9667 47.0625C61.7935 47.7982 61.7997 47.8597 62.1936 48.0352C62.3641 48.1112 62.5757 48.1592 62.7543 48.1308C62.881 48.1108 62.9839 47.9418 63.0972 47.8393ZM57.4817 43.2395C57.2183 43.7998 57.254 44.1446 57.537 44.3923C57.7624 44.59 58.1452 44.6564 58.3994 44.4226C58.6901 44.1546 58.9939 44.1603 59.3383 44.1415C59.8275 44.115 59.9035 43.8681 59.6205 43.3478C59.452 43.438 59.2884 43.5886 59.1133 43.6032C58.9079 43.6201 58.6924 43.5191 58.4751 43.4676C58.3852 43.6009 58.3307 43.6999 58.2589 43.7844C58.176 43.8827 58.0777 43.9687 57.9291 44.1169C57.7747 43.814 57.6541 43.5778 57.4817 43.2395ZM64.8873 45.3572C65.2798 45.7089 65.3389 46.1444 65.2391 46.6251C65.1162 46.9112 64.5252 46.8317 64.6542 47.334C64.8674 47.6274 65.5827 47.296 65.443 48.0805C64.1639 48.1669 62.8633 48.2544 61.5578 48.3423C61.206 47.6504 60.5859 47.2879 60.0506 46.8582C59.8206 46.6739 59.3963 46.7307 59.0346 46.6739C58.8549 46.4351 58.6828 46.1367 58.4467 45.9044C57.6902 45.1587 56.7617 45.4252 56.4891 46.4489C56.438 46.6409 56.3885 46.8329 56.3309 47.0529C55.2392 47.1293 54.5035 47.6527 54.2182 48.7367C53.3692 48.8227 52.5164 48.9045 51.6654 48.9974C51.3821 49.0282 51.2273 48.9348 51.2116 48.57C51.3982 48.534 51.5856 48.5163 51.7603 48.4579C51.9227 48.4038 52.0717 48.307 52.3409 48.1711C51.8083 47.8608 51.3813 47.872 51.0065 48.0663C50.5238 48.3166 50.899 48.8653 50.7189 49.2251C49.6933 49.5319 48.0775 49.3707 47.3759 48.8784C47.4877 48.6937 47.6009 48.5055 47.7384 48.2775C47.6228 48.1818 47.5314 48.0459 47.4155 48.0209C47.0614 47.9442 46.6482 48.0321 46.4382 47.597C46.406 47.1662 46.6056 46.8095 46.9574 46.5963C47.2799 46.4005 47.6654 46.3095 48.0456 46.164C47.4911 45.4928 47.4911 45.4928 47.8659 44.8081C48.1558 44.5593 48.5359 45.1184 48.845 44.6334C48.7936 44.4975 48.7084 44.3227 48.6604 44.138C48.5033 43.5371 49.0735 42.824 49.6944 42.8425C49.9145 42.849 50.0811 42.945 50.1134 43.19C50.1733 43.6412 50.2328 44.0931 50.3 44.6038C49.6015 44.6883 49.5036 45.1867 49.5992 45.8026C49.4613 45.8391 49.3565 45.8725 49.2494 45.8948C48.5713 46.0334 48.1865 46.5468 48.2391 47.2468C48.2775 47.7644 48.9341 48.3178 49.522 48.3066C49.61 48.3047 49.7478 48.2102 49.7678 48.1342C49.7889 48.054 49.7221 47.9038 49.6476 47.8551C49.5067 47.7633 49.322 47.7414 49.176 47.6554C48.8566 47.4668 48.6849 47.0652 48.7786 46.7818C48.8842 46.4608 49.2724 46.2945 49.7082 46.3955C49.8388 46.4259 49.9613 46.4884 50.1322 46.5533C50.3038 46.0104 49.6357 45.5511 50.1291 45.0274C50.366 45.214 50.5972 45.3964 50.8667 45.6083C51.1536 45.2224 51.0261 44.8684 50.884 44.5397C50.6847 44.0789 50.5895 43.6097 50.6556 43.1136C50.7642 42.2922 51.5698 41.6494 52.352 41.7512C52.8193 41.8119 53.0033 42.0591 52.9065 42.5234C52.8781 42.6616 52.7886 42.7868 52.7571 42.9243C52.741 42.9957 52.7786 43.0882 52.8155 43.1593C52.8378 43.203 52.905 43.2234 53.0789 43.3378C53.1903 43.18 53.2966 42.9723 53.4556 42.8198C53.6814 42.6021 53.9847 42.5668 54.2539 42.7154C54.4958 42.8494 54.4578 43.0932 54.3779 43.329C54.3557 43.3943 54.4048 43.4837 54.4405 43.6558C54.6947 43.5463 54.9055 43.4173 55.1336 43.3674C55.3775 43.314 55.6378 43.3347 55.935 43.3209C56.0137 43.5916 56.0813 43.8251 56.1604 44.0977C55.7442 44.2256 55.3705 44.3404 54.9535 44.4687C55.0572 44.8603 55.599 44.9986 55.4562 45.4363C55.4197 45.5481 55.2692 45.6229 55.1563 45.7282C54.9635 45.5189 54.803 45.3445 54.5381 45.0562C54.4647 45.4002 54.434 45.6095 54.3737 45.8099C54.2923 46.0799 54.2416 46.4109 53.8626 46.404C53.5623 46.3978 53.426 46.1774 53.3596 45.8998C53.3208 45.7381 53.2475 45.5849 53.1864 45.4183C52.8335 45.4402 52.8201 45.6913 52.7748 45.9002C52.7326 46.0952 52.746 46.3049 52.6853 46.4919C52.5886 46.7903 52.4607 46.8417 51.9312 46.8813C51.7238 46.5983 51.7922 46.2761 51.8705 45.9808C51.9458 45.6959 52.1001 45.4317 52.2913 44.9959C51.5264 45.4202 51.3199 45.9351 51.3245 46.5756C51.3272 46.9189 51.4155 47.1881 51.7653 47.334C52.1186 47.4811 52.4492 47.4668 52.7291 47.2107C52.9134 47.0422 53.0497 46.8214 53.206 46.6255C54.2412 47.0429 54.2931 47.0245 54.9009 46.0346C55.7522 45.8038 55.9258 45.9566 55.7019 44.8596C55.9642 44.7087 56.3443 44.6173 56.4522 44.3942C56.5874 44.1154 56.549 43.7195 56.4941 43.3893C56.4119 42.9001 55.9799 42.7876 54.952 42.9266C54.7781 42.7434 54.5857 42.5718 54.4348 42.3702C54.3426 42.2469 54.2259 42.0238 54.2766 41.9386C54.363 41.7938 54.5742 41.6344 54.7297 41.6379C55.1213 41.646 55.5111 41.7412 55.9799 41.8142C56.0041 41.7393 56.094 41.5945 56.0894 41.4528C56.0813 41.1979 55.993 40.9456 55.9815 40.6906C55.9531 40.0693 56.385 39.5939 56.9967 39.5429C57.3131 39.516 57.5051 39.6404 57.5351 39.9541C57.57 40.3212 57.6173 40.6956 57.3873 41.0381C57.2713 41.2105 57.2145 41.4117 57.5163 41.5803C57.6591 41.5227 57.843 41.4605 58.0155 41.3749C58.2194 41.2735 58.4014 41.2731 58.5626 41.4444C58.7397 41.631 58.7735 41.8491 58.6602 42.078C58.5653 42.2699 58.4517 42.4531 58.2662 42.7818C58.608 42.7565 58.7919 42.7653 58.9651 42.7265C59.9892 42.4957 60.8074 43.2169 60.6131 44.2471C60.5559 44.5508 60.2683 44.8108 60.0548 45.1395C60.1205 45.2716 60.2315 45.4586 60.3086 45.6583C60.6297 46.4915 60.6454 46.503 61.5355 46.2304C61.8861 46.6597 62.401 46.6966 62.9175 46.586C63.1049 46.546 63.3253 46.3587 63.4063 46.1813C63.6447 45.6613 63.8356 45.1157 63.5956 44.5289C63.566 44.4564 63.5914 44.3615 63.5914 44.2705C64.0233 43.7199 64.6224 43.5978 65.2452 43.5433C65.5989 44.2233 65.5789 44.3308 64.8873 45.3572Z" fill="#FAE1BA"/>
<path d="M55.2274 49.2231C57.1389 49.1109 58.984 49.0026 60.9035 48.8901C60.9254 49.1847 60.9581 49.4323 60.9604 49.68C60.9876 53.1251 60.9968 56.5707 61.0418 60.0151C61.0594 61.4185 61.1516 62.8205 61.2123 64.2808C60.0046 64.4739 58.8561 64.6079 57.6385 64.3507C56.8436 59.3623 56.048 54.3704 55.2274 49.2231Z" fill="white"/>
<path d="M61.6984 48.8608C63.0574 48.9591 64.3714 48.5678 65.8037 48.7275C65.2131 53.8553 64.6279 58.937 64.0408 64.0345C63.3242 64.5398 62.5305 64.2238 61.7242 64.3805C61.6896 64.0917 61.6427 63.877 61.6404 63.662C61.6093 60.905 61.5663 58.1483 61.5633 55.3917C61.5617 53.3815 61.6132 51.3721 61.6435 49.3627C61.6458 49.2244 61.6731 49.0869 61.6984 48.8608Z" fill="#D81F26"/>
<path d="M57.1447 64.4468H55.2516C53.8047 59.5931 52.4335 54.6957 51.0181 49.8156C51.937 49.4562 53.6961 49.275 54.7497 49.4363C55.5388 54.3832 56.3317 59.352 57.1447 64.4468Z" fill="#D81F26"/>
<path d="M49.6093 49.9307H50.4014C50.7213 50.56 53.9952 62.5389 54.2294 63.9201C53.6097 63.8387 53.5931 63.8383 53.4069 63.2186C53.021 61.9357 52.6451 60.6497 52.2726 59.363C51.3975 56.3414 50.5266 53.319 49.6561 50.2962C49.6331 50.216 49.6338 50.1288 49.6093 49.9307Z" fill="white"/>
<path d="M47.979 49.8059C48.0297 49.7846 48.085 49.7377 48.1303 49.7467C48.4079 49.802 48.6842 49.8703 49.0458 49.9544C50.3683 54.4191 51.6953 58.9019 53.0617 63.5166C52.6492 62.9408 48.1766 50.7782 47.979 49.8059Z" fill="#D81F26"/>
<path d="M56.766 47.9418C56.8021 47.6642 56.8317 47.4776 56.8486 47.2898C56.8612 47.1478 56.8486 47.0034 56.8632 46.8617C56.963 45.8921 57.4234 45.6821 58.2133 46.2446C58.2808 46.293 58.3404 46.3529 58.4206 46.4216C58.4152 46.5299 58.4271 46.6459 58.401 46.7526C58.2401 47.4112 58.249 47.4234 58.8875 47.2806C59.7189 47.0948 59.9984 47.2699 60.4016 48.2287C59.6728 48.4149 55.3787 48.681 54.8434 48.5731C55.3645 47.6212 55.7818 47.4603 56.766 47.9418Z" fill="#FCDD94"/>
<path d="M62.8411 46.1592C62.5097 46.0636 62.2344 46.0536 62.0512 45.9181C61.519 45.5233 61.5336 45.5037 60.9442 45.7353C60.7887 45.4692 60.781 45.2119 60.9561 44.9485C61.3117 44.4132 61.2245 43.8637 61.0225 43.3027C60.7603 42.5743 60.9142 42.2026 61.6223 41.8823C61.8769 41.7675 62.1576 41.7107 62.4279 41.6262C62.6817 42.6676 62.6387 42.8577 61.918 43.9056C62.2359 44.2504 62.8323 44.1218 63.0892 44.6478C63.3679 45.2192 62.8718 45.5448 62.8411 46.1592Z" fill="#FCDD94"/>
<path d="M57.4818 43.24C57.6542 43.5779 57.7748 43.8141 57.9291 44.117C58.0777 43.9688 58.176 43.8828 58.259 43.7845C58.3308 43.6996 58.3857 43.6009 58.4752 43.4681C58.6925 43.5195 58.9079 43.6201 59.1133 43.6029C59.2884 43.5887 59.452 43.4381 59.6206 43.3479C59.9036 43.8682 59.8276 44.1147 59.3384 44.142C58.9939 44.1604 58.6902 44.155 58.3995 44.4223C58.1457 44.6561 57.7625 44.5901 57.5371 44.3923C57.2541 44.1447 57.2184 43.7998 57.4818 43.24Z" fill="#111111"/>
<path d="M63.0972 47.8395C62.9839 47.9421 62.881 48.111 62.7543 48.131C62.5757 48.1594 62.3641 48.1114 62.1936 48.0354C61.7997 47.8599 61.7935 47.7985 61.9667 47.0627C62.2789 47.3857 62.5596 47.724 63.058 47.6549C63.0714 47.7163 63.0841 47.7777 63.0972 47.8395Z" fill="#111111"/>
<path d="M54.8433 63.9201C54.8433 63.9201 48.2134 53.3082 48.673 49.8673C49.1323 46.4267 47.801 47.2715 49.5992 45.8031C51.3974 44.3351 50.9328 42.3645 52.8155 43.1597C52.8155 43.1597 53.5839 41.5105 51.9197 41.3047C51.9197 41.3047 50.4267 41.6879 50.6556 43.114C50.6556 43.114 48.6577 41.6476 48.3516 43.9058V44.4607C48.3516 44.4607 47.1459 44.2391 47.3993 45.9371C47.3993 45.9371 45.0344 47.2262 46.8533 48.5471L47.2726 48.5985L47.4631 49.514L52.3874 63.2846C52.3874 63.2846 54.2278 65.165 54.8433 63.9201Z" fill="#271B10" fill-opacity="0.1"/>
</svg>
