<svg width="73" height="70" viewBox="0 0 73 70" fill="none" xmlns="http://www.w3.org/2000/svg">
<path d="M18.5791 17.5949C18.7321 17.4155 18.8929 17.2016 18.942 16.9792C19.1504 16.0295 19.6373 15.2163 20.1282 14.4008C20.5715 13.6634 21.0179 12.9275 21.4346 12.1752C22.6824 9.92297 23.917 7.66376 25.1859 5.35381C24.9292 4.99795 24.4929 4.87932 24.0138 4.67564C23.8772 4.90897 23.7461 5.10719 23.6384 5.3179C22.538 7.47254 21.4213 9.61629 20.534 11.8763C19.9862 13.2708 19.2807 14.6029 18.6502 15.9647C18.4199 16.4618 18.1999 16.9621 17.9673 17.4787C18.1679 17.6886 18.3482 17.8673 18.5791 17.5949ZM19.9003 17.6488C20.1524 17.8134 20.1735 18.1264 19.9292 18.2357C19.2846 18.5252 18.6751 18.7413 17.9143 18.3941C17.279 18.1038 16.9005 17.6753 16.5915 17.1158C16.4822 16.9184 16.4955 16.9106 16.7101 16.4095C16.9419 16.6171 17.1557 16.8083 17.3984 17.0261C17.9299 16.607 17.9517 15.9538 18.2803 15.4044C17.0894 14.4266 15.9399 13.4792 14.2972 13.3762C14.3003 14.1745 13.9257 14.6092 13.1617 14.8339C12.7918 14.9424 12.4297 15.2983 12.2073 15.6362C11.8015 16.2511 12.2549 16.9613 12.9924 16.9582C13.2686 16.9558 13.5449 16.9184 13.8203 16.923C15.1158 16.9402 15.8329 17.9477 15.4381 19.1807C15.1821 19.9759 15.3038 20.2537 16.0093 20.6517C16.3441 20.8398 16.6383 20.8523 16.9497 20.6268C17.297 20.3739 17.6396 20.1117 18.0056 19.8877C18.7243 19.4468 19.3985 19.5592 19.9799 20.1843C20.0002 20.2069 20.0221 20.2288 20.0439 20.2498C20.2539 20.4551 20.3538 20.814 20.7471 20.7571C21.1287 20.7017 21.5235 20.5589 21.6585 20.2069C22.0394 19.2166 22.677 18.9965 23.6111 19.3984C23.7141 19.4421 23.853 19.4156 23.974 19.4054C24.0302 19.4 24.084 19.3563 24.1386 19.3298C23.9474 17.9797 21.9402 16.5282 19.9011 16.3058C19.77 16.6881 19.6358 17.0846 19.4719 17.563C19.667 17.5989 19.8067 17.5879 19.9003 17.6488ZM22.7292 20.0625C22.5966 20.2498 22.4608 20.4129 22.357 20.594C22.037 21.1535 21.5002 21.3736 20.9195 21.4938C20.4739 21.5858 20.0627 21.4797 19.7693 21.0895C19.6772 20.9655 19.5913 20.8367 19.4906 20.722C19.0879 20.2592 18.8039 20.1983 18.2904 20.5105C18.0032 20.6853 17.7504 20.9147 17.478 21.1145C16.9068 21.532 16.3277 21.6889 15.7128 21.1886C15.5716 21.0739 15.3928 21.0045 15.243 20.8983C14.5999 20.4457 14.4618 19.9907 14.7116 19.2369C14.7787 19.0348 14.8497 18.8233 14.8559 18.6141C14.8793 17.9687 14.5196 17.5786 13.875 17.5442C13.569 17.5278 13.2623 17.5739 12.9549 17.577C11.8007 17.5864 11.0859 16.3666 11.6587 15.3568C11.9552 14.8332 12.3649 14.4313 12.958 14.251C13.0751 14.2151 13.196 14.187 13.3115 14.1456C13.5394 14.0653 13.7134 13.8912 13.6112 13.6641C13.537 13.4995 13.3295 13.3192 13.1578 13.2903C12.8956 13.2474 12.5897 13.27 12.343 13.3676C11.5182 13.6954 10.6683 13.9958 9.90825 14.4422C8.94135 15.0088 8.37636 15.939 8.13366 17.0268C7.81916 18.4393 7.67559 19.8682 7.75284 21.3236C7.83635 22.9273 8.49654 24.2205 9.6921 25.2506C10.6933 26.1121 11.732 26.919 12.8784 27.5933C14.4119 28.4931 15.9727 28.504 17.5623 27.8516C18.299 27.5488 18.9982 27.1531 19.7029 26.777C20.9515 26.1098 21.8544 25.0609 22.666 23.9442C23.1702 23.2496 23.5627 22.4747 24.002 21.7341C24.2424 21.3299 24.4032 20.9077 24.2526 20.3817C23.7609 20.2787 23.2607 20.1741 22.7292 20.0625ZM19.578 12.6489C20.0634 11.5251 20.5223 10.3881 21.021 9.26901C21.4572 8.28962 21.9169 7.32037 22.3953 6.36049C22.7378 5.67375 23.1257 5.0081 23.4964 4.33462C23.6712 4.01623 23.9193 3.91477 24.2651 4.07475C24.571 4.216 24.8894 4.32916 25.1937 4.47509C26.1239 4.92225 26.1926 5.1345 25.6885 6.02414C25.3708 6.5868 25.0361 7.13933 24.713 7.69809C23.3294 10.0947 21.9442 12.4904 20.5652 14.8894C20.4193 15.1422 20.1555 15.3841 20.2811 15.5644C21.0467 15.8875 21.6687 16.1294 22.2727 16.4088C22.6059 16.5633 22.9142 16.7732 23.2271 16.9683C24.4531 17.7307 25.228 18.7031 25.04 20.2826C24.9432 21.0942 24.798 21.8551 24.361 22.5418C23.9178 23.2395 23.4893 23.9535 22.9829 24.6052C22.1541 25.6688 21.2793 26.7013 20.047 27.3334C19.2815 27.7252 18.5198 28.1325 17.7254 28.4579C16.1779 29.0916 14.6093 29.1291 13.0907 28.3643C11.6056 27.6167 10.2212 26.7145 9.00535 25.5604C7.96744 24.5763 7.27054 23.4432 7.09339 21.9924C6.8585 20.0703 7.08636 18.1966 7.55694 16.3393C7.60844 16.1341 7.71226 15.9405 7.80591 15.7493C8.51762 14.3033 9.76311 13.5026 11.2162 12.9766C13.4348 12.1752 15.4935 12.4834 17.3672 13.9334C17.7473 14.2268 18.1226 14.5241 18.5799 14.8823C18.9373 14.0848 19.2666 13.3707 19.578 12.6489Z" fill="#111111"/>
<path d="M24.2527 20.3818C23.761 20.2788 23.2607 20.1734 22.7301 20.0626C22.5974 20.2499 22.4609 20.413 22.3571 20.5933C22.0371 21.1528 21.501 21.3737 20.9196 21.4938C20.474 21.5859 20.0635 21.479 19.7701 21.0888C19.678 20.9655 19.5914 20.8367 19.4907 20.722C19.0888 20.2593 18.8048 20.1984 18.2905 20.5105C18.0033 20.6854 17.7504 20.9148 17.4781 21.1138C16.9076 21.5321 16.3286 21.6889 15.7136 21.1887C15.5716 21.074 15.3929 21.0045 15.2431 20.8984C14.6008 20.4458 14.4619 19.9908 14.7116 19.2362C14.7787 19.0341 14.8497 18.8234 14.8568 18.6134C14.8794 17.9688 14.5196 17.5779 13.875 17.5435C13.5699 17.5279 13.2624 17.5732 12.955 17.5763C11.8015 17.5864 11.0867 16.3659 11.6588 15.3569C11.9553 14.8332 12.3658 14.4313 12.9581 14.2511C13.0759 14.2152 13.1961 14.1871 13.3116 14.1457C13.5395 14.0645 13.7135 13.8913 13.6113 13.6642C13.5379 13.4995 13.3303 13.3193 13.1579 13.2904C12.8957 13.2467 12.5905 13.2701 12.3431 13.3677C11.519 13.6954 10.6692 13.9951 9.90833 14.4423C8.94221 15.008 8.37642 15.939 8.1345 17.0269C7.81922 18.4394 7.67645 19.8683 7.75293 21.3237C7.83721 22.9274 8.49739 24.2205 9.69294 25.2498C10.6934 26.1122 11.7321 26.9191 12.8793 27.5925C14.4127 28.4931 15.9735 28.5033 17.5632 27.8509C18.2991 27.5489 18.9991 27.1532 19.7038 26.7763C20.9524 26.1098 21.8553 25.061 22.6669 23.9435C23.1702 23.2497 23.5628 22.4748 24.0029 21.7334C24.2425 21.3299 24.4033 20.9078 24.2527 20.3818Z" fill="#D81F26"/>
<path d="M19.472 17.563C19.6671 17.5989 19.8075 17.588 19.9012 17.6488C20.1524 17.8135 20.1736 18.1264 19.9301 18.2357C19.2855 18.5252 18.6752 18.7414 17.9151 18.3941C17.2791 18.1038 16.9006 17.6754 16.5923 17.1158C16.4831 16.9184 16.4964 16.9106 16.711 16.4096C16.9427 16.6172 17.1558 16.8084 17.3992 17.0269C17.9299 16.607 17.9525 15.9538 18.2811 15.4044C17.0894 14.4266 15.9407 13.4792 14.2972 13.3762C14.3003 14.1746 13.9265 14.6092 13.1617 14.834C12.7918 14.9424 12.4305 15.2983 12.2074 15.6362C11.8023 16.2512 12.2549 16.9613 12.9924 16.9582C13.2695 16.9559 13.5449 16.9184 13.8212 16.9231C15.1159 16.9402 15.8338 17.9477 15.4381 19.1807C15.1829 19.9759 15.3039 20.2538 16.0094 20.6518C16.3442 20.8398 16.6384 20.8523 16.9506 20.6268C17.2978 20.3739 17.6396 20.1117 18.0056 19.8878C18.7244 19.4468 19.3986 19.5592 19.98 20.1843C20.0011 20.2069 20.0222 20.2288 20.044 20.2499C20.2539 20.4551 20.3546 20.8141 20.7479 20.7571C21.1287 20.7017 21.5244 20.5589 21.6594 20.2069C22.0395 19.2166 22.677 18.9966 23.6119 19.3985C23.7149 19.4422 23.8531 19.4156 23.9748 19.4055C24.031 19.4 24.0841 19.3563 24.1387 19.3298C23.9475 17.9797 21.9403 16.5282 19.902 16.3058C19.7709 16.6882 19.6358 17.0846 19.472 17.563Z" fill="#82BE40"/>
<path d="M17.9674 17.4783C18.168 17.6883 18.3482 17.8662 18.5792 17.5938C18.7322 17.4143 18.8937 17.2013 18.9421 16.9781C19.1513 16.0292 19.6382 15.216 20.1291 14.4005C20.5716 13.6622 21.0179 12.9263 21.4347 12.174C22.6825 9.92184 23.9171 7.66341 25.186 5.35346C24.9292 4.99761 24.493 4.87819 24.0138 4.67529C23.8773 4.90863 23.7462 5.10608 23.6393 5.31679C22.5381 7.47222 21.4214 9.61593 20.5341 11.8752C19.9863 13.2697 19.2816 14.6018 18.6502 15.9644C18.42 16.4607 18.2 16.9617 17.9674 17.4783Z" fill="#B69267"/>
<path d="M10.6278 25.3376C10.6278 25.3376 7.02014 22.6227 8.4943 19.1133C9.96767 15.6031 10.8323 21.9086 12.6225 24.0266C14.412 26.1438 12.0333 26.8235 10.6278 25.3376Z" fill="white"/>
<path d="M15.7863 28.2931C15.7863 28.2931 23.3888 22.1234 22.0957 19.5075C20.8026 16.8924 19.0896 16.4601 19.0896 16.4601L20.2812 15.5642C20.2812 15.5642 27.4265 17.3716 24.3611 22.5417C21.2973 27.7117 15.7863 28.2931 15.7863 28.2931Z" fill="#271B10" fill-opacity="0.1"/>
<path d="M54.5791 17.5949C54.7321 17.4155 54.8929 17.2016 54.942 16.9792C55.1504 16.0295 55.6373 15.2163 56.1282 14.4008C56.5715 13.6634 57.0179 12.9275 57.4346 12.1752C58.6824 9.92297 59.917 7.66376 61.1859 5.35381C60.9292 4.99795 60.4929 4.87932 60.0138 4.67564C59.8772 4.90897 59.7461 5.10719 59.6384 5.3179C58.538 7.47254 57.4213 9.61629 56.534 11.8763C55.9862 13.2708 55.2807 14.6029 54.6502 15.9647C54.4199 16.4618 54.1999 16.9621 53.9673 17.4787C54.1679 17.6886 54.3482 17.8673 54.5791 17.5949ZM55.9003 17.6488C56.1524 17.8134 56.1735 18.1264 55.9292 18.2357C55.2846 18.5252 54.6751 18.7413 53.9143 18.3941C53.279 18.1038 52.9005 17.6753 52.5915 17.1158C52.4822 16.9184 52.4955 16.9106 52.7101 16.4095C52.9419 16.6171 53.1557 16.8083 53.3984 17.0261C53.9299 16.607 53.9517 15.9538 54.2803 15.4044C53.0894 14.4266 51.9399 13.4792 50.2972 13.3762C50.3003 14.1745 49.9257 14.6092 49.1617 14.8339C48.7918 14.9424 48.4297 15.2983 48.2073 15.6362C47.8015 16.2511 48.2549 16.9613 48.9924 16.9582C49.2686 16.9558 49.5449 16.9184 49.8203 16.923C51.1158 16.9402 51.8329 17.9477 51.4381 19.1807C51.1821 19.9759 51.3038 20.2537 52.0093 20.6517C52.3441 20.8398 52.6383 20.8523 52.9497 20.6268C53.297 20.3739 53.6396 20.1117 54.0056 19.8877C54.7243 19.4468 55.3985 19.5592 55.9799 20.1843C56.0002 20.2069 56.0221 20.2288 56.0439 20.2498C56.2539 20.4551 56.3538 20.814 56.7471 20.7571C57.1287 20.7017 57.5235 20.5589 57.6585 20.2069C58.0394 19.2166 58.677 18.9965 59.6111 19.3984C59.7141 19.4421 59.853 19.4156 59.974 19.4054C60.0302 19.4 60.084 19.3563 60.1386 19.3298C59.9474 17.9797 57.9402 16.5282 55.9011 16.3058C55.77 16.6881 55.6358 17.0846 55.4719 17.563C55.667 17.5989 55.8067 17.5879 55.9003 17.6488ZM58.7292 20.0625C58.5966 20.2498 58.4608 20.4129 58.357 20.594C58.037 21.1535 57.5002 21.3736 56.9195 21.4938C56.4739 21.5858 56.0627 21.4797 55.7693 21.0895C55.6772 20.9655 55.5913 20.8367 55.4906 20.722C55.0879 20.2592 54.8039 20.1983 54.2904 20.5105C54.0032 20.6853 53.7504 20.9147 53.478 21.1145C52.9068 21.532 52.3277 21.6889 51.7128 21.1886C51.5716 21.0739 51.3928 21.0045 51.243 20.8983C50.5999 20.4457 50.4618 19.9907 50.7116 19.2369C50.7787 19.0348 50.8497 18.8233 50.8559 18.6141C50.8793 17.9687 50.5196 17.5786 49.875 17.5442C49.569 17.5278 49.2623 17.5739 48.9549 17.577C47.8007 17.5864 47.0859 16.3666 47.6587 15.3568C47.9552 14.8332 48.3649 14.4313 48.958 14.251C49.0751 14.2151 49.196 14.187 49.3115 14.1456C49.5394 14.0653 49.7134 13.8912 49.6112 13.6641C49.537 13.4995 49.3295 13.3192 49.1578 13.2903C48.8956 13.2474 48.5897 13.27 48.343 13.3676C47.5182 13.6954 46.6683 13.9958 45.9082 14.4422C44.9413 15.0088 44.3764 15.939 44.1337 17.0268C43.8192 18.4393 43.6756 19.8682 43.7528 21.3236C43.8363 22.9273 44.4965 24.2205 45.6921 25.2506C46.6933 26.1121 47.732 26.919 48.8784 27.5933C50.4119 28.4931 51.9727 28.504 53.5623 27.8516C54.299 27.5488 54.9982 27.1531 55.7029 26.777C56.9515 26.1098 57.8544 25.0609 58.666 23.9442C59.1702 23.2496 59.5627 22.4747 60.002 21.7341C60.2424 21.3299 60.4032 20.9077 60.2526 20.3817C59.7609 20.2787 59.2607 20.1741 58.7292 20.0625ZM55.578 12.6489C56.0634 11.5251 56.5223 10.3881 57.021 9.26901C57.4572 8.28962 57.9169 7.32037 58.3953 6.36049C58.7378 5.67375 59.1257 5.0081 59.4964 4.33462C59.6712 4.01623 59.9193 3.91477 60.2651 4.07475C60.571 4.216 60.8894 4.32916 61.1937 4.47509C62.1239 4.92225 62.1926 5.1345 61.6885 6.02414C61.3708 6.5868 61.0361 7.13933 60.713 7.69809C59.3294 10.0947 57.9442 12.4904 56.5652 14.8894C56.4193 15.1422 56.1555 15.3841 56.2811 15.5644C57.0467 15.8875 57.6687 16.1294 58.2727 16.4088C58.6059 16.5633 58.9142 16.7732 59.2271 16.9683C60.4531 17.7307 61.228 18.7031 61.04 20.2826C60.9432 21.0942 60.798 21.8551 60.361 22.5418C59.9178 23.2395 59.4893 23.9535 58.9829 24.6052C58.1541 25.6688 57.2793 26.7013 56.047 27.3334C55.2815 27.7252 54.5198 28.1325 53.7254 28.4579C52.1779 29.0916 50.6093 29.1291 49.0907 28.3643C47.6056 27.6167 46.2212 26.7145 45.0054 25.5604C43.9674 24.5763 43.2705 23.4432 43.0934 21.9924C42.8585 20.0703 43.0864 18.1966 43.5569 16.3393C43.6084 16.1341 43.7123 15.9405 43.8059 15.7493C44.5176 14.3033 45.7631 13.5026 47.2162 12.9766C49.4348 12.1752 51.4935 12.4834 53.3672 13.9334C53.7473 14.2268 54.1226 14.5241 54.5799 14.8823C54.9373 14.0848 55.2666 13.3707 55.578 12.6489Z" fill="#111111"/>
<path d="M60.2527 20.3818C59.761 20.2788 59.2607 20.1734 58.7301 20.0626C58.5974 20.2499 58.4609 20.413 58.3571 20.5933C58.0371 21.1528 57.501 21.3737 56.9196 21.4938C56.474 21.5859 56.0635 21.479 55.7701 21.0888C55.678 20.9655 55.5914 20.8367 55.4907 20.722C55.0888 20.2593 54.8048 20.1984 54.2905 20.5105C54.0033 20.6854 53.7504 20.9148 53.4781 21.1138C52.9076 21.5321 52.3286 21.6889 51.7136 21.1887C51.5716 21.074 51.3929 21.0045 51.2431 20.8984C50.6008 20.4458 50.4619 19.9908 50.7116 19.2362C50.7787 19.0341 50.8497 18.8234 50.8568 18.6134C50.8794 17.9688 50.5196 17.5779 49.875 17.5435C49.5699 17.5279 49.2624 17.5732 48.955 17.5763C47.8015 17.5864 47.0867 16.3659 47.6588 15.3569C47.9553 14.8332 48.3658 14.4313 48.9581 14.2511C49.0759 14.2152 49.1961 14.1871 49.3116 14.1457C49.5395 14.0645 49.7135 13.8913 49.6113 13.6642C49.5379 13.4995 49.3303 13.3193 49.1579 13.2904C48.8957 13.2467 48.5905 13.2701 48.3431 13.3677C47.519 13.6954 46.6692 13.9951 45.9083 14.4423C44.9422 15.008 44.3764 15.939 44.1345 17.0269C43.8192 18.4394 43.6765 19.8683 43.7529 21.3237C43.8372 22.9274 44.4974 24.2205 45.6929 25.2498C46.6934 26.1122 47.7321 26.9191 48.8793 27.5925C50.4127 28.4931 51.9735 28.5033 53.5632 27.8509C54.2991 27.5489 54.9991 27.1532 55.7038 26.7763C56.9524 26.1098 57.8553 25.061 58.6669 23.9435C59.1702 23.2497 59.5628 22.4748 60.0029 21.7334C60.2425 21.3299 60.4033 20.9078 60.2527 20.3818Z" fill="#D81F26"/>
<path d="M55.472 17.563C55.6671 17.5989 55.8075 17.588 55.9012 17.6488C56.1524 17.8135 56.1736 18.1264 55.9301 18.2357C55.2855 18.5252 54.6752 18.7414 53.9151 18.3941C53.2791 18.1038 52.9006 17.6754 52.5923 17.1158C52.4831 16.9184 52.4964 16.9106 52.711 16.4096C52.9427 16.6172 53.1558 16.8084 53.3992 17.0269C53.9299 16.607 53.9525 15.9538 54.2811 15.4044C53.0894 14.4266 51.9407 13.4792 50.2972 13.3762C50.3003 14.1746 49.9265 14.6092 49.1617 14.834C48.7918 14.9424 48.4305 15.2983 48.2074 15.6362C47.8023 16.2512 48.2549 16.9613 48.9924 16.9582C49.2695 16.9559 49.5449 16.9184 49.8212 16.9231C51.1159 16.9402 51.8338 17.9477 51.4381 19.1807C51.1829 19.9759 51.3039 20.2538 52.0094 20.6518C52.3442 20.8398 52.6384 20.8523 52.9506 20.6268C53.2978 20.3739 53.6396 20.1117 54.0056 19.8878C54.7244 19.4468 55.3986 19.5592 55.98 20.1843C56.0011 20.2069 56.0222 20.2288 56.044 20.2499C56.2539 20.4551 56.3546 20.8141 56.7479 20.7571C57.1287 20.7017 57.5244 20.5589 57.6594 20.2069C58.0395 19.2166 58.677 18.9966 59.6119 19.3985C59.7149 19.4422 59.8531 19.4156 59.9748 19.4055C60.031 19.4 60.0841 19.3563 60.1387 19.3298C59.9475 17.9797 57.9403 16.5282 55.902 16.3058C55.7709 16.6882 55.6358 17.0846 55.472 17.563Z" fill="#82BE40"/>
<path d="M53.9674 17.4783C54.168 17.6883 54.3482 17.8662 54.5792 17.5938C54.7322 17.4143 54.8937 17.2013 54.9421 16.9781C55.1513 16.0292 55.6382 15.216 56.1291 14.4005C56.5716 13.6622 57.0179 12.9263 57.4347 12.174C58.6825 9.92184 59.9171 7.66341 61.186 5.35346C60.9292 4.99761 60.493 4.87819 60.0138 4.67529C59.8773 4.90863 59.7462 5.10608 59.6393 5.31679C58.5381 7.47222 57.4214 9.61593 56.5341 11.8752C55.9863 13.2697 55.2816 14.6018 54.6502 15.9644C54.42 16.4607 54.2 16.9617 53.9674 17.4783Z" fill="#B69267"/>
<path d="M46.6278 25.3376C46.6278 25.3376 43.0201 22.6227 44.4943 19.1133C45.9677 15.6031 46.8323 21.9086 48.6225 24.0266C50.412 26.1438 48.0333 26.8235 46.6278 25.3376Z" fill="white"/>
<path d="M51.7863 28.2931C51.7863 28.2931 59.3888 22.1234 58.0957 19.5075C56.8026 16.8924 55.0896 16.4601 55.0896 16.4601L56.2812 15.5642C56.2812 15.5642 63.4265 17.3716 60.3611 22.5417C57.2973 27.7117 51.7863 28.2931 51.7863 28.2931Z" fill="#271B10" fill-opacity="0.1"/>
<path d="M32.5791 35.5949C32.7321 35.4155 32.8929 35.2016 32.942 34.9792C33.1504 34.0295 33.6373 33.2163 34.1282 32.4008C34.5715 31.6634 35.0179 30.9275 35.4346 30.1752C36.6824 27.923 37.917 25.6638 39.1859 23.3538C38.9292 22.998 38.4929 22.8793 38.0138 22.6756C37.8772 22.909 37.7461 23.1072 37.6384 23.3179C36.538 25.4725 35.4213 27.6163 34.534 29.8763C33.9862 31.2708 33.2807 32.6029 32.6502 33.9647C32.4199 34.4618 32.1999 34.9621 31.9673 35.4787C32.1679 35.6886 32.3482 35.8673 32.5791 35.5949ZM33.9003 35.6488C34.1524 35.8134 34.1735 36.1264 33.9292 36.2357C33.2846 36.5252 32.6751 36.7413 31.9143 36.3941C31.279 36.1038 30.9005 35.6753 30.5915 35.1158C30.4822 34.9184 30.4955 34.9106 30.7101 34.4095C30.9419 34.6171 31.1557 34.8083 31.3984 35.0261C31.9299 34.607 31.9517 33.9538 32.2803 33.4044C31.0894 32.4266 29.9399 31.4792 28.2972 31.3762C28.3003 32.1745 27.9257 32.6092 27.1617 32.8339C26.7918 32.9424 26.4297 33.2983 26.2073 33.6362C25.8015 34.2511 26.2549 34.9613 26.9924 34.9582C27.2686 34.9558 27.5449 34.9184 27.8203 34.923C29.1158 34.9402 29.8329 35.9477 29.4381 37.1807C29.1821 37.9759 29.3038 38.2537 30.0093 38.6517C30.3441 38.8398 30.6383 38.8523 30.9497 38.6268C31.297 38.3739 31.6396 38.1117 32.0056 37.8877C32.7243 37.4468 33.3985 37.5592 33.9799 38.1843C34.0002 38.2069 34.0221 38.2288 34.0439 38.2498C34.2539 38.4551 34.3538 38.814 34.7471 38.7571C35.1287 38.7017 35.5235 38.5589 35.6585 38.2069C36.0394 37.2166 36.677 36.9965 37.6111 37.3984C37.7141 37.4421 37.853 37.4156 37.974 37.4054C38.0302 37.4 38.084 37.3563 38.1386 37.3298C37.9474 35.9797 35.9402 34.5282 33.9011 34.3058C33.77 34.6881 33.6358 35.0846 33.4719 35.563C33.667 35.5989 33.8067 35.5879 33.9003 35.6488ZM36.7292 38.0625C36.5966 38.2498 36.4608 38.4129 36.357 38.594C36.037 39.1535 35.5002 39.3736 34.9195 39.4938C34.4739 39.5858 34.0627 39.4797 33.7693 39.0895C33.6772 38.9655 33.5913 38.8367 33.4906 38.722C33.0879 38.2592 32.8039 38.1983 32.2904 38.5105C32.0032 38.6853 31.7504 38.9147 31.478 39.1145C30.9068 39.532 30.3277 39.6889 29.7128 39.1886C29.5716 39.0739 29.3928 39.0045 29.243 38.8983C28.5999 38.4457 28.4618 37.9907 28.7116 37.2369C28.7787 37.0348 28.8497 36.8233 28.8559 36.6141C28.8793 35.9687 28.5196 35.5786 27.875 35.5442C27.569 35.5278 27.2623 35.5739 26.9549 35.577C25.8007 35.5864 25.0859 34.3666 25.6587 33.3568C25.9552 32.8332 26.3649 32.4313 26.958 32.251C27.0751 32.2151 27.196 32.187 27.3115 32.1456C27.5394 32.0653 27.7134 31.8912 27.6112 31.6641C27.537 31.4995 27.3295 31.3192 27.1578 31.2903C26.8956 31.2474 26.5897 31.27 26.343 31.3676C25.5182 31.6954 24.6683 31.9958 23.9082 32.4422C22.9413 33.0088 22.3764 33.939 22.1337 35.0268C21.8192 36.4393 21.6756 37.8682 21.7528 39.3236C21.8363 40.9273 22.4965 42.2205 23.6921 43.2506C24.6933 44.1121 25.732 44.919 26.8784 45.5933C28.4119 46.4931 29.9727 46.504 31.5623 45.8516C32.299 45.5488 32.9982 45.1531 33.7029 44.777C34.9515 44.1098 35.8544 43.0609 36.666 41.9442C37.1702 41.2496 37.5627 40.4747 38.002 39.7341C38.2424 39.3299 38.4032 38.9077 38.2526 38.3817C37.7609 38.2787 37.2607 38.1741 36.7292 38.0625ZM33.578 30.6489C34.0634 29.5251 34.5223 28.3881 35.021 27.269C35.4572 26.2896 35.9169 25.3204 36.3953 24.3605C36.7378 23.6738 37.1257 23.0081 37.4964 22.3346C37.6712 22.0162 37.9193 21.9148 38.2651 22.0747C38.571 22.216 38.8894 22.3292 39.1937 22.4751C40.1239 22.9222 40.1926 23.1345 39.6885 24.0241C39.3708 24.5868 39.0361 25.1393 38.713 25.6981C37.3294 28.0947 35.9442 30.4904 34.5652 32.8894C34.4193 33.1422 34.1555 33.3841 34.2811 33.5644C35.0467 33.8875 35.6687 34.1294 36.2727 34.4088C36.6059 34.5633 36.9142 34.7732 37.2271 34.9683C38.4531 35.7307 39.228 36.7031 39.04 38.2826C38.9432 39.0942 38.798 39.8551 38.361 40.5418C37.9178 41.2395 37.4893 41.9535 36.9829 42.6052C36.1541 43.6688 35.2793 44.7013 34.047 45.3334C33.2815 45.7252 32.5198 46.1325 31.7254 46.4579C30.1779 47.0916 28.6093 47.1291 27.0907 46.3643C25.6056 45.6167 24.2212 44.7145 23.0054 43.5604C21.9674 42.5763 21.2705 41.4432 21.0934 39.9924C20.8585 38.0703 21.0864 36.1966 21.5569 34.3393C21.6084 34.1341 21.7123 33.9405 21.8059 33.7493C22.5176 32.3033 23.7631 31.5026 25.2162 30.9766C27.4348 30.1752 29.4935 30.4834 31.3672 31.9334C31.7473 32.2268 32.1226 32.5241 32.5799 32.8823C32.9373 32.0848 33.2666 31.3707 33.578 30.6489Z" fill="#111111"/>
<path d="M38.2527 38.3818C37.761 38.2788 37.2607 38.1734 36.7301 38.0626C36.5974 38.2499 36.4609 38.413 36.3571 38.5933C36.0371 39.1528 35.501 39.3737 34.9196 39.4938C34.474 39.5859 34.0635 39.479 33.7701 39.0888C33.678 38.9655 33.5914 38.8367 33.4907 38.722C33.0888 38.2593 32.8048 38.1984 32.2905 38.5105C32.0033 38.6854 31.7504 38.9148 31.4781 39.1138C30.9076 39.5321 30.3286 39.6889 29.7136 39.1887C29.5716 39.074 29.3929 39.0045 29.2431 38.8984C28.6008 38.4458 28.4619 37.9908 28.7116 37.2362C28.7787 37.0341 28.8497 36.8234 28.8568 36.6134C28.8794 35.9688 28.5196 35.5779 27.875 35.5435C27.5699 35.5279 27.2624 35.5732 26.955 35.5763C25.8015 35.5864 25.0867 34.3659 25.6588 33.3569C25.9553 32.8332 26.3658 32.4313 26.9581 32.2511C27.0759 32.2152 27.1961 32.1871 27.3116 32.1457C27.5395 32.0645 27.7135 31.8913 27.6113 31.6642C27.5379 31.4995 27.3303 31.3193 27.1579 31.2904C26.8957 31.2467 26.5905 31.2701 26.3431 31.3677C25.519 31.6954 24.6692 31.9951 23.9083 32.4423C22.9422 33.008 22.3764 33.939 22.1345 35.0269C21.8192 36.4394 21.6765 37.8683 21.7529 39.3237C21.8372 40.9274 22.4974 42.2205 23.6929 43.2498C24.6934 44.1122 25.7321 44.9191 26.8793 45.5925C28.4127 46.4931 29.9735 46.5033 31.5632 45.8509C32.2991 45.5489 32.9991 45.1532 33.7038 44.7763C34.9524 44.1098 35.8553 43.061 36.6669 41.9435C37.1702 41.2497 37.5628 40.4748 38.0029 39.7334C38.2425 39.3299 38.4033 38.9078 38.2527 38.3818Z" fill="#D81F26"/>
<path d="M33.472 35.563C33.6671 35.5989 33.8075 35.588 33.9012 35.6488C34.1524 35.8135 34.1736 36.1264 33.9301 36.2357C33.2855 36.5252 32.6752 36.7414 31.9151 36.3941C31.2791 36.1038 30.9006 35.6754 30.5923 35.1158C30.4831 34.9184 30.4964 34.9106 30.711 34.4096C30.9427 34.6172 31.1558 34.8084 31.3992 35.0269C31.9299 34.607 31.9525 33.9538 32.2811 33.4044C31.0894 32.4266 29.9407 31.4792 28.2972 31.3762C28.3003 32.1746 27.9265 32.6092 27.1617 32.834C26.7918 32.9424 26.4305 33.2983 26.2074 33.6362C25.8023 34.2512 26.2549 34.9613 26.9924 34.9582C27.2695 34.9559 27.5449 34.9184 27.8212 34.9231C29.1159 34.9402 29.8338 35.9477 29.4381 37.1807C29.1829 37.9759 29.3039 38.2538 30.0094 38.6518C30.3442 38.8398 30.6384 38.8523 30.9506 38.6268C31.2978 38.3739 31.6396 38.1117 32.0056 37.8878C32.7244 37.4468 33.3986 37.5592 33.98 38.1843C34.0011 38.2069 34.0222 38.2288 34.044 38.2499C34.2539 38.4551 34.3546 38.8141 34.7479 38.7571C35.1287 38.7017 35.5244 38.5589 35.6594 38.2069C36.0395 37.2166 36.677 36.9966 37.6119 37.3985C37.7149 37.4422 37.8531 37.4156 37.9748 37.4055C38.031 37.4 38.0841 37.3563 38.1387 37.3298C37.9475 35.9797 35.9403 34.5282 33.902 34.3058C33.7709 34.6882 33.6358 35.0846 33.472 35.563Z" fill="#82BE40"/>
<path d="M31.9674 35.4783C32.168 35.6883 32.3482 35.8662 32.5792 35.5938C32.7322 35.4143 32.8937 35.2013 32.9421 34.9781C33.1513 34.0292 33.6382 33.216 34.1291 32.4005C34.5716 31.6622 35.0179 30.9263 35.4347 30.174C36.6825 27.9218 37.9171 25.6634 39.186 23.3535C38.9292 22.9976 38.493 22.8782 38.0138 22.6753C37.8773 22.9086 37.7462 23.1061 37.6393 23.3168C36.5381 25.4722 35.4214 27.6159 34.5341 29.8752C33.9863 31.2697 33.2816 32.6018 32.6502 33.9644C32.42 34.4607 32.2 34.9617 31.9674 35.4783Z" fill="#B69267"/>
<path d="M24.6278 43.3376C24.6278 43.3376 21.0201 40.6227 22.4943 37.1133C23.9677 33.6031 24.8323 39.9086 26.6225 42.0266C28.412 44.1438 26.0333 44.8235 24.6278 43.3376Z" fill="white"/>
<path d="M29.7863 46.2931C29.7863 46.2931 37.3888 40.1234 36.0957 37.5075C34.8026 34.8924 33.0896 34.4601 33.0896 34.4601L34.2812 33.5642C34.2812 33.5642 41.4265 35.3716 38.3611 40.5417C35.2973 45.7117 29.7863 46.2931 29.7863 46.2931Z" fill="#271B10" fill-opacity="0.1"/>
<path d="M54.5631 53.2242C54.4842 53.002 54.3794 52.7559 54.2114 52.6021C53.4931 51.9468 53.0323 51.1185 52.5715 50.2856C52.1544 49.533 51.7403 48.7785 51.2972 48.0415C49.9707 45.8347 48.6314 43.6359 47.2654 41.382C46.8288 41.4265 46.508 41.7449 46.092 42.0581C46.2258 42.293 46.3319 42.5057 46.4605 42.7043C47.7763 44.7345 49.0745 46.7735 50.5881 48.6719C51.5219 49.8436 52.3228 51.1206 53.1868 52.3476C53.5022 52.7955 53.8254 53.2362 54.1565 53.6959C54.4386 53.6272 54.6835 53.5604 54.5631 53.2242ZM55.2704 52.107C55.539 51.971 55.8205 52.1092 55.793 52.3754C55.7215 53.0784 55.6039 53.7143 54.9228 54.1996C54.3537 54.6046 53.7935 54.7181 53.1544 54.706C52.9288 54.7019 52.9286 54.6865 52.602 54.2502C52.8977 54.1532 53.1702 54.0636 53.4801 53.9623C53.3829 53.2925 52.8282 52.947 52.5166 52.3878C51.0744 52.9302 49.6792 53.452 48.7686 54.8232C49.4615 55.2196 49.6507 55.7614 49.4633 56.5354C49.3723 56.91 49.4995 57.4015 49.6809 57.763C50.0105 58.4219 50.8522 58.3844 51.2183 57.7441C51.3544 57.5037 51.46 57.2458 51.6018 57.0095C52.2644 55.8962 53.4955 55.7789 54.3659 56.7374C54.9266 57.3566 55.2281 57.3901 55.9255 56.9782C56.2557 56.7823 56.4137 56.5337 56.374 56.1513C56.3287 55.7241 56.2729 55.2963 56.262 54.8673C56.2395 54.0244 56.6739 53.4967 57.506 53.3058C57.5357 53.2995 57.5656 53.2915 57.5947 53.2831C57.8774 53.2039 58.2383 53.2969 58.3856 52.9278C58.5284 52.5696 58.6022 52.1563 58.3649 51.8634C57.6976 51.0384 57.8258 50.3762 58.641 49.7682C58.7303 49.7008 58.7768 49.5672 58.8285 49.4574C58.8519 49.406 58.8409 49.3375 58.8453 49.277C57.5805 48.7675 55.3198 49.78 54.1076 51.4348C54.3733 51.7395 54.6495 52.054 54.9818 52.4351C55.1104 52.2841 55.1708 52.1576 55.2704 52.107ZM58.7752 50.8639C58.8711 51.0725 58.9444 51.2716 59.0493 51.452C59.3739 52.0089 59.296 52.5839 59.1098 53.1468C58.9668 53.5787 58.6692 53.8818 58.1846 53.9409C58.0311 53.9586 57.8766 53.9686 57.727 53.9984C57.1248 54.1157 56.9301 54.3313 56.9437 54.9321C56.9515 55.2682 57.0238 55.6019 57.0606 55.9376C57.1365 56.6411 56.9829 57.221 56.2422 57.5034C56.0722 57.5684 55.9227 57.6884 55.7559 57.7651C55.0424 58.0957 54.5793 57.9878 54.0513 57.3946C53.9098 57.2354 53.7622 57.0682 53.5842 56.9582C53.037 56.6153 52.5192 56.7317 52.1671 57.2728C52 57.5296 51.8865 57.8182 51.7355 58.086C51.1665 59.0903 49.7528 59.0994 49.1646 58.0985C48.8594 57.5798 48.7162 57.0241 48.8566 56.4203C48.8841 56.301 48.9202 56.1822 48.9422 56.0615C48.9865 55.8239 48.9228 55.5862 48.675 55.5612C48.4953 55.5431 48.2354 55.6327 48.1246 55.767C47.9563 55.9726 47.8229 56.2488 47.7841 56.5112C47.6555 57.3894 47.4908 58.2756 47.4973 59.1571C47.5045 60.2777 48.0276 61.2321 48.8484 61.9862C49.9144 62.9648 51.0801 63.8036 52.3791 64.4644C53.8097 65.194 55.2597 65.2688 56.7496 64.7484C57.9963 64.3121 59.2145 63.816 60.3716 63.1604C61.9176 62.2822 62.7074 60.936 62.9372 59.2331C63.0433 58.4438 63.0503 57.6404 63.0769 56.842C63.1234 55.4271 62.6665 54.1207 62.1052 52.8595C61.7558 52.0756 61.2809 51.3482 60.8592 50.5975C60.6293 50.1872 60.3441 49.8368 59.8133 49.7043C59.4782 50.0785 59.1376 50.4595 58.7752 50.8639ZM50.7791 49.8861C50.0486 48.9039 49.2934 47.938 48.5736 46.9466C47.9435 46.0791 47.334 45.1964 46.7419 44.3022C46.3184 43.6621 45.9359 42.9934 45.538 42.3356C45.3496 42.025 45.3859 41.7594 45.6973 41.54C45.9725 41.3457 46.2297 41.1265 46.5083 40.9359C47.3607 40.3539 47.5788 40.4006 48.0972 41.282C48.4257 41.8384 48.7368 42.4046 49.0591 42.9637C50.4428 45.3603 51.825 47.7578 53.2131 50.1514C53.3591 50.4042 53.4367 50.7536 53.6556 50.735C54.3182 50.2335 54.8387 49.8158 55.3827 49.4324C55.6831 49.2211 56.019 49.0591 56.3444 48.8856C57.6177 48.2051 58.8473 48.0202 60.1211 48.9728C60.7756 49.4624 61.362 49.9686 61.7382 50.6904C62.1208 51.4231 62.5249 52.1512 62.836 52.9156C63.3428 54.1652 63.7995 55.439 63.7308 56.8222C63.6873 57.6811 63.6593 58.5444 63.5439 59.3951C63.3189 61.0521 62.5671 62.4293 61.1454 63.3621C59.7554 64.2744 58.282 65.0222 56.6745 65.4981C55.3033 65.9049 53.9736 65.9419 52.6286 65.3699C50.8466 64.6123 49.3378 63.4781 47.9646 62.1419C47.8126 61.9947 47.6969 61.808 47.5782 61.6313C46.6817 60.2919 46.611 58.813 46.8821 57.2916C47.2973 54.9694 48.5936 53.3407 50.7862 52.443C51.2303 52.2606 51.6755 52.0842 52.2143 51.8673C51.7023 51.1589 51.2486 50.5167 50.7791 49.8861Z" fill="#111111"/>
<path d="M59.8134 49.7041C59.4784 50.0784 59.137 50.4589 58.7757 50.8631C58.8716 51.0716 58.9445 51.2714 59.0488 51.4515C59.3733 52.0083 59.2966 52.583 59.11 53.1466C58.9669 53.5786 58.6691 53.8806 58.1844 53.9396C58.0316 53.9577 57.8768 53.9684 57.7271 53.9982C57.1254 54.1149 56.9306 54.3304 56.9438 54.9319C56.9516 55.268 57.0239 55.6017 57.0601 55.9371C57.1371 56.6402 56.9834 57.2201 56.2427 57.5026C56.0723 57.5682 55.9228 57.6883 55.756 57.765C55.0429 58.0949 54.5794 57.9877 54.0508 57.3941C53.9093 57.2349 53.7623 57.0681 53.584 56.957C53.0371 56.6151 52.5186 56.7312 52.1666 57.2722C52.0005 57.5287 51.8859 57.8176 51.7349 58.0855C51.167 59.0894 49.7526 59.0982 49.1647 58.0983C48.8595 57.5796 48.7167 57.0232 48.8568 56.4201C48.8846 56.3001 48.9203 56.182 48.9423 56.0613C48.9859 55.8234 48.9229 55.586 48.6751 55.561C48.4958 55.5422 48.2359 55.6319 48.1247 55.7668C47.9557 55.972 47.8234 56.248 47.7842 56.511C47.656 57.3886 47.4906 58.2744 47.4975 59.1569C47.5044 60.2765 48.0278 61.232 48.8489 61.9854C49.9145 62.9647 51.0806 63.8028 52.3793 64.4643C53.8102 65.1931 55.2602 65.2679 56.7494 64.7472C57.9964 64.312 59.2146 63.8159 60.3714 63.1591C61.9181 62.2814 62.7072 60.9348 62.9371 59.2319C63.0435 58.4436 63.0508 57.6396 63.0767 56.8408C63.1239 55.4263 62.667 54.1199 62.105 52.8583C61.7559 52.0755 61.281 51.348 60.8591 50.5962C60.6295 50.187 60.3442 49.8367 59.8134 49.7041Z" fill="#D81F26"/>
<path d="M54.9818 52.435C55.1104 52.284 55.1712 52.1569 55.2707 52.1062C55.539 51.971 55.8205 52.1091 55.7934 52.3746C55.7218 53.0776 55.6039 53.7142 54.9231 54.1989C54.3537 54.6045 53.7934 54.7181 53.1547 54.7053C52.9291 54.7012 52.929 54.6858 52.6024 54.2494C52.898 54.1525 53.1701 54.0636 53.4811 53.962C53.3828 53.2925 52.8285 52.9463 52.517 52.3871C51.0743 52.9302 49.6795 53.4513 48.7685 54.8231C49.4615 55.2196 49.651 55.7606 49.4633 56.5353C49.3722 56.9099 49.4998 57.4007 49.6808 57.763C50.0109 58.4212 50.8522 58.3843 51.2182 57.7441C51.3547 57.503 51.46 57.2457 51.6022 57.0088C52.2644 55.8961 53.4959 55.7781 54.3659 56.7373C54.9269 57.3559 55.228 57.3901 55.9254 56.9781C56.2557 56.7822 56.4136 56.5336 56.3744 56.1505C56.3291 55.7233 56.2729 55.2962 56.2619 54.8673C56.2394 54.0244 56.6739 53.4967 57.5059 53.3057C57.536 53.2988 57.5655 53.2914 57.5947 53.283C57.8774 53.2039 58.2386 53.2962 58.3859 52.9271C58.5284 52.5696 58.6025 52.1555 58.3652 51.8626C57.6976 51.0383 57.8258 50.3762 58.6413 49.7675C58.7306 49.7001 58.7767 49.5672 58.8288 49.4567C58.8522 49.4053 58.8409 49.3375 58.8452 49.2769C57.5804 48.7674 55.3198 49.7799 54.108 51.434C54.3736 51.7388 54.6494 52.0539 54.9818 52.435Z" fill="#82BE40"/>
<path d="M54.1562 53.6957C54.4383 53.627 54.6825 53.5598 54.5622 53.2236C54.4832 53.0014 54.3795 52.755 54.2104 52.6015C53.4931 51.9459 53.0324 51.1176 52.5716 50.2847C52.1535 49.5324 51.7394 48.7779 51.2962 48.0408C49.9697 45.8341 48.6311 43.6357 47.2651 41.3818C46.8285 41.4262 46.507 41.7443 46.0917 42.0578C46.2255 42.2928 46.3309 42.505 46.46 42.703C47.7761 44.7343 49.0742 46.7733 50.5871 48.6713C51.5209 49.843 52.3222 51.1193 53.1865 52.3474C53.5013 52.7949 53.8251 53.236 54.1562 53.6957Z" fill="#B69267"/>
<path d="M57.293 63.9817C57.293 63.9817 53.1379 65.7485 50.8358 62.7172C48.5325 59.6861 54.4256 62.0901 57.1549 61.5987C59.8832 61.1076 59.2825 63.5074 57.293 63.9817Z" fill="white"/>
<path d="M62.4316 60.9921C62.4316 60.9921 60.8897 51.3233 57.9778 51.1352C55.0665 50.9476 53.8356 52.2148 53.8356 52.2148L53.6556 50.7349C53.6556 50.7349 58.7934 45.4506 61.7382 50.6903C64.6837 55.9287 62.4316 60.9921 62.4316 60.9921Z" fill="#271B10" fill-opacity="0.1"/>
<path d="M17.5631 54.2242C17.4842 54.002 17.3794 53.7559 17.2114 53.6021C16.4931 52.9468 16.0323 52.1185 15.5715 51.2856C15.1544 50.533 14.7403 49.7785 14.2972 49.0415C12.9707 46.8347 11.6314 44.6359 10.2654 42.382C9.82883 42.4265 9.50797 42.7449 9.092 43.0581C9.22579 43.293 9.33189 43.5057 9.46052 43.7043C10.7763 45.7345 12.0745 47.7735 13.5881 49.6719C14.5219 50.8436 15.3228 52.1206 16.1868 53.3476C16.5022 53.7955 16.8254 54.2362 17.1565 54.6959C17.4386 54.6272 17.6835 54.5604 17.5631 54.2242ZM18.2704 53.107C18.539 52.971 18.8205 53.1092 18.793 53.3754C18.7215 54.0784 18.6039 54.7143 17.9228 55.1996C17.3537 55.6046 16.7935 55.7181 16.1544 55.706C15.9288 55.7019 15.9286 55.6865 15.602 55.2502C15.8977 55.1532 16.1702 55.0636 16.4801 54.9623C16.3829 54.2925 15.8282 53.947 15.5166 53.3878C14.0744 53.9302 12.6792 54.452 11.7686 55.8232C12.4615 56.2196 12.6507 56.7614 12.4633 57.5354C12.3723 57.91 12.4995 58.4015 12.6809 58.763C13.0105 59.4219 13.8522 59.3844 14.2183 58.7441C14.3544 58.5037 14.46 58.2458 14.6018 58.0095C15.2644 56.8962 16.4955 56.7789 17.3659 57.7374C17.9266 58.3566 18.2281 58.3901 18.9255 57.9782C19.2557 57.7823 19.4137 57.5337 19.374 57.1513C19.3287 56.7241 19.2729 56.2963 19.262 55.8673C19.2395 55.0244 19.6739 54.4967 20.506 54.3058C20.5357 54.2995 20.5656 54.2915 20.5947 54.2831C20.8774 54.2039 21.2383 54.2969 21.3856 53.9278C21.5284 53.5696 21.6022 53.1563 21.3649 52.8634C20.6976 52.0384 20.8258 51.3762 21.641 50.7682C21.7303 50.7008 21.7768 50.5672 21.8285 50.4574C21.8519 50.406 21.8409 50.3375 21.8453 50.277C20.5805 49.7675 18.3198 50.78 17.1076 52.4348C17.3733 52.7395 17.6495 53.054 17.9818 53.4351C18.1104 53.2841 18.1708 53.1576 18.2704 53.107ZM21.7752 51.8639C21.8711 52.0725 21.9444 52.2716 22.0493 52.452C22.3739 53.0089 22.296 53.5839 22.1098 54.1468C21.9668 54.5787 21.6692 54.8818 21.1846 54.9409C21.0311 54.9586 20.8766 54.9686 20.727 54.9984C20.1248 55.1157 19.9301 55.3313 19.9437 55.9321C19.9515 56.2682 20.0238 56.6019 20.0606 56.9376C20.1365 57.6411 19.9829 58.221 19.2422 58.5034C19.0722 58.5684 18.9227 58.6884 18.7559 58.7651C18.0424 59.0957 17.5793 58.9878 17.0513 58.3946C16.9098 58.2354 16.7622 58.0682 16.5842 57.9582C16.037 57.6153 15.5192 57.7317 15.1671 58.2728C15 58.5296 14.8865 58.8182 14.7355 59.086C14.1665 60.0903 12.7528 60.0994 12.1646 59.0985C11.8594 58.5798 11.7162 58.0241 11.8566 57.4203C11.8841 57.301 11.9202 57.1822 11.9422 57.0615C11.9865 56.8239 11.9228 56.5862 11.675 56.5612C11.4953 56.5431 11.2354 56.6327 11.1246 56.767C10.9563 56.9726 10.8229 57.2488 10.7841 57.5112C10.6555 58.3894 10.4908 59.2756 10.4973 60.1571C10.5045 61.2777 11.0276 62.2321 11.8484 62.9862C12.9144 63.9648 14.0801 64.8036 15.3791 65.4644C16.8097 66.194 18.2597 66.2688 19.7496 65.7484C20.9963 65.3121 22.2145 64.816 23.3716 64.1604C24.9176 63.2822 25.7074 61.936 25.9372 60.2331C26.0433 59.4438 26.0503 58.6404 26.0769 57.842C26.1234 56.4271 25.6665 55.1207 25.1052 53.8595C24.7558 53.0756 24.2809 52.3482 23.8592 51.5975C23.6293 51.1872 23.3441 50.8368 22.8133 50.7043C22.4782 51.0785 22.1376 51.4595 21.7752 51.8639ZM13.7791 50.8861C13.0486 49.9039 12.2934 48.938 11.5736 47.9466C10.9435 47.0791 10.334 46.1964 9.74187 45.3022C9.31843 44.6621 8.93589 43.9934 8.53798 43.3356C8.34965 43.025 8.38586 42.7594 8.69726 42.54C8.97254 42.3457 9.22974 42.1265 9.5083 41.9359C10.3607 41.3539 10.5788 41.4006 11.0972 42.282C11.4257 42.8384 11.7368 43.4046 12.0591 43.9637C13.4428 46.3603 14.825 48.7578 16.2131 51.1514C16.3591 51.4042 16.4367 51.7536 16.6556 51.735C17.3182 51.2335 17.8387 50.8158 18.3827 50.4324C18.6831 50.2211 19.019 50.0591 19.3444 49.8856C20.6177 49.2051 21.8473 49.0202 23.1211 49.9728C23.7756 50.4624 24.362 50.9686 24.7382 51.6904C25.1208 52.4231 25.5249 53.1512 25.836 53.9156C26.3428 55.1652 26.7995 56.439 26.7308 57.8222C26.6873 58.6811 26.6593 59.5444 26.5439 60.3951C26.3189 62.0521 25.5671 63.4293 24.1454 64.3621C22.7554 65.2744 21.282 66.0222 19.6745 66.4981C18.3033 66.9049 16.9736 66.9419 15.6286 66.3699C13.8466 65.6123 12.3378 64.4781 10.9646 63.1419C10.8126 62.9947 10.6969 62.808 10.5782 62.6313C9.68171 61.2919 9.61104 59.813 9.88207 58.2916C10.2973 55.9694 11.5936 54.3407 13.7862 53.443C14.2303 53.2606 14.6755 53.0842 15.2143 52.8673C14.7023 52.1589 14.2486 51.5167 13.7791 50.8861Z" fill="#111111"/>
<path d="M22.8134 50.7041C22.4784 51.0784 22.137 51.4589 21.7757 51.8631C21.8716 52.0716 21.9445 52.2714 22.0488 52.4515C22.3733 53.0083 22.2966 53.583 22.11 54.1466C21.9669 54.5786 21.6691 54.8806 21.1844 54.9396C21.0316 54.9577 20.8768 54.9684 20.7271 54.9982C20.1254 55.1149 19.9306 55.3304 19.9438 55.9319C19.9516 56.268 20.0239 56.6017 20.0601 56.9371C20.1371 57.6402 19.9834 58.2201 19.2427 58.5026C19.0723 58.5682 18.9228 58.6883 18.756 58.765C18.0429 59.0949 17.5794 58.9877 17.0508 58.3941C16.9093 58.2349 16.7623 58.0681 16.584 57.957C16.0371 57.6151 15.5186 57.7312 15.1666 58.2722C15.0005 58.5287 14.8859 58.8176 14.7349 59.0855C14.167 60.0894 12.7526 60.0982 12.1647 59.0983C11.8595 58.5796 11.7167 58.0232 11.8568 57.4201C11.8846 57.3001 11.9203 57.182 11.9423 57.0613C11.9859 56.8234 11.9229 56.586 11.6751 56.561C11.4958 56.5422 11.2359 56.6319 11.1247 56.7668C10.9557 56.972 10.8234 57.248 10.7842 57.511C10.656 58.3886 10.4906 59.2744 10.4975 60.1569C10.5044 61.2765 11.0278 62.232 11.8489 62.9854C12.9145 63.9647 14.0806 64.8028 15.3793 65.4643C16.8102 66.1931 18.2602 66.2679 19.7494 65.7472C20.9964 65.312 22.2146 64.8159 23.3714 64.1591C24.9181 63.2814 25.7072 61.9348 25.9371 60.2319C26.0435 59.4436 26.0508 58.6396 26.0767 57.8408C26.1239 56.4263 25.667 55.1199 25.105 53.8583C24.7559 53.0755 24.281 52.348 23.8591 51.5962C23.6295 51.187 23.3442 50.8367 22.8134 50.7041Z" fill="#D81F26"/>
<path d="M17.9818 53.435C18.1104 53.284 18.1712 53.1569 18.2707 53.1062C18.539 52.971 18.8205 53.1091 18.7934 53.3746C18.7218 54.0776 18.6039 54.7142 17.9231 55.1989C17.3537 55.6045 16.7934 55.7181 16.1547 55.7053C15.9291 55.7012 15.929 55.6858 15.6024 55.2494C15.898 55.1525 16.1701 55.0636 16.4811 54.962C16.3828 54.2925 15.8285 53.9463 15.517 53.3871C14.0743 53.9302 12.6795 54.4513 11.7685 55.8231C12.4615 56.2196 12.651 56.7606 12.4633 57.5353C12.3722 57.9099 12.4998 58.4007 12.6808 58.763C13.0109 59.4212 13.8522 59.3843 14.2182 58.7441C14.3547 58.503 14.46 58.2457 14.6022 58.0088C15.2644 56.8961 16.4959 56.7781 17.3659 57.7373C17.9269 58.3559 18.228 58.3901 18.9254 57.9781C19.2557 57.7822 19.4136 57.5336 19.3744 57.1505C19.3291 56.7233 19.2729 56.2962 19.2619 55.8673C19.2394 55.0244 19.6739 54.4967 20.5059 54.3057C20.536 54.2988 20.5655 54.2914 20.5947 54.283C20.8774 54.2039 21.2386 54.2962 21.3859 53.9271C21.5284 53.5696 21.6025 53.1555 21.3652 52.8626C20.6976 52.0383 20.8258 51.3762 21.6413 50.7675C21.7306 50.7001 21.7767 50.5672 21.8288 50.4567C21.8522 50.4053 21.8409 50.3375 21.8452 50.2769C20.5804 49.7674 18.3198 50.7799 17.108 52.434C17.3736 52.7388 17.6494 53.0539 17.9818 53.435Z" fill="#82BE40"/>
<path d="M17.1562 54.6957C17.4383 54.627 17.6825 54.5598 17.5622 54.2236C17.4832 54.0014 17.3795 53.755 17.2104 53.6015C16.4931 52.9459 16.0324 52.1176 15.5716 51.2847C15.1535 50.5324 14.7394 49.7779 14.2962 49.0408C12.9697 46.8341 11.6311 44.6357 10.2651 42.3818C9.82853 42.4262 9.50699 42.7443 9.0917 43.0578C9.22549 43.2928 9.33094 43.505 9.45996 43.703C10.7761 45.7343 12.0742 47.7733 13.5871 49.6713C14.5209 50.843 15.3222 52.1193 16.1865 53.3474C16.5013 53.7949 16.8251 54.236 17.1562 54.6957Z" fill="#B69267"/>
<path d="M20.293 64.9817C20.293 64.9817 16.1379 66.7485 13.8358 63.7172C11.5325 60.6861 17.4256 63.0901 20.1549 62.5987C22.8832 62.1076 22.2825 64.5074 20.293 64.9817Z" fill="white"/>
<path d="M25.4316 61.9921C25.4316 61.9921 23.8897 52.3233 20.9778 52.1352C18.0665 51.9476 16.8356 53.2148 16.8356 53.2148L16.6556 51.7349C16.6556 51.7349 21.7934 46.4506 24.7382 51.6903C27.6837 56.9287 25.4316 61.9921 25.4316 61.9921Z" fill="#271B10" fill-opacity="0.1"/>
</svg>
