<svg width="74" height="28" viewBox="0 0 74 28" fill="none" xmlns="http://www.w3.org/2000/svg">
<path d="M25.8411 8.15933C25.8718 7.54495 26.3679 7.21933 26.0891 6.64795C25.8322 6.12189 25.2359 6.25052 24.918 5.9057C25.6387 4.85779 25.6817 4.66773 25.4279 3.62635C25.1576 3.71083 24.8769 3.76765 24.6223 3.88247C23.9142 4.20271 23.7602 4.57442 24.0225 5.30284C24.2245 5.86385 24.3116 6.41333 23.9561 6.94861C23.781 7.21203 23.7886 7.4693 23.9442 7.73541C24.5336 7.50386 24.519 7.52344 25.0512 7.91818C25.2344 8.05373 25.5097 8.06372 25.8411 8.15933ZM19.766 9.94219C18.7814 9.46067 18.364 9.62155 17.8434 10.5731C18.3782 10.681 22.6728 10.4153 23.4012 10.229C22.9984 9.2702 22.7188 9.09511 21.8875 9.28096C21.2489 9.4238 21.2401 9.41151 21.401 8.75297C21.4271 8.64623 21.4152 8.53026 21.4202 8.42198C21.34 8.35324 21.2808 8.29334 21.2128 8.24496C20.4234 7.68241 19.9626 7.89245 19.8631 8.86164C19.8485 9.00333 19.8612 9.14772 19.8485 9.28979C19.8316 9.47795 19.8017 9.66457 19.766 9.94219ZM10.9788 11.8061C11.1765 12.7783 15.6492 24.9408 16.0616 25.5168C14.6954 20.9024 13.3684 16.4193 12.0459 11.9547C11.6842 11.8706 11.4081 11.8022 11.1301 11.7469C11.0852 11.7377 11.0295 11.7846 10.9788 11.8061ZM12.6092 11.9305C12.6338 12.1286 12.6334 12.2158 12.656 12.296C13.5266 15.3192 14.3974 18.3416 15.2725 21.3632C15.645 22.6495 16.0209 23.9355 16.4069 25.2188C16.5931 25.8382 16.6096 25.8385 17.2294 25.9199C16.9951 24.5387 13.7212 12.5598 13.4014 11.9305H12.6092ZM20.1442 26.4468C19.3313 21.352 18.5384 16.3832 17.7493 11.4363C16.6956 11.275 14.9369 11.4563 14.0177 11.8157C15.4334 16.6958 16.8043 21.5932 18.2512 26.4468H20.1442ZM24.6979 10.8607C24.6726 11.0869 24.6457 11.2243 24.6434 11.3626C24.6131 13.372 24.5612 15.3818 24.5632 17.3916C24.5662 20.1482 24.6088 22.9049 24.6399 25.6619C24.6426 25.8773 24.6891 26.0916 24.724 26.3804C25.53 26.2237 26.3241 26.5397 27.0403 26.0344C27.6274 20.9369 28.213 15.8552 28.8035 10.7274C27.3709 10.5677 26.0569 10.959 24.6979 10.8607ZM18.2273 11.2232C19.0479 16.3705 19.8435 21.3624 20.6384 26.3504C21.856 26.6081 23.0045 26.4737 24.2122 26.2805C24.1515 24.8206 24.0594 23.4183 24.0413 22.0152C23.9968 18.5704 23.9876 15.1253 23.9603 11.6801C23.958 11.4321 23.9253 11.1848 23.9035 10.8899C21.9839 11.0024 20.1385 11.1111 18.2273 11.2232ZM27.8873 7.35756C28.5789 6.33116 28.5989 6.22364 28.2452 5.5436C27.6224 5.59812 27.0234 5.72024 26.5914 6.27088C26.5914 6.36188 26.566 6.45673 26.5956 6.5293C26.8356 7.11604 26.6447 7.66168 26.4063 8.1816C26.3253 8.359 26.1049 8.54639 25.9175 8.58633C25.401 8.69692 24.8861 8.66005 24.5355 8.23076C23.6454 8.50339 23.6297 8.49186 23.3087 7.6586C23.2315 7.45893 23.1205 7.27193 23.0548 7.13984C23.2683 6.81115 23.556 6.55119 23.6132 6.24745C23.8075 5.21721 22.9892 4.49608 21.9651 4.72686C21.7919 4.76564 21.608 4.7568 21.2662 4.78215C21.4517 4.45345 21.5654 4.27029 21.6602 4.07829C21.7735 3.84944 21.7397 3.63133 21.5627 3.44471C21.4014 3.27346 21.2194 3.27384 21.0155 3.37521C20.8431 3.46084 20.6591 3.52305 20.5163 3.58065C20.2145 3.41208 20.2713 3.21087 20.3873 3.03846C20.6173 2.69594 20.5701 2.32156 20.5351 1.95446C20.5052 1.64074 20.3132 1.51633 19.9968 1.5432C19.3851 1.59428 18.9531 2.06966 18.9815 2.69095C18.993 2.94592 19.0813 3.1982 19.0894 3.45316C19.094 3.59486 19.0041 3.73962 18.98 3.8145C18.5111 3.74154 18.1214 3.64631 17.7297 3.63824C17.5742 3.63479 17.363 3.79415 17.2766 3.93891C17.2259 4.02416 17.3426 4.24725 17.4348 4.37052C17.5857 4.57211 17.7781 4.74337 17.952 4.92692C18.98 4.78791 19.4119 4.90042 19.4941 5.38962C19.549 5.71946 19.5874 6.11574 19.4523 6.39452C19.3444 6.61761 18.9642 6.70901 18.7019 6.85991C18.9258 7.95697 18.7523 7.80414 17.9009 8.03492C17.2931 9.02484 17.2413 9.04327 16.206 8.62588C16.0497 8.82171 15.9134 9.0425 15.7291 9.21107C15.4492 9.46719 15.1186 9.4814 14.7653 9.33434C14.4155 9.18842 14.3272 8.91924 14.3245 8.57596C14.3199 7.93546 14.5265 7.42054 15.2914 6.99623C15.1001 7.43206 14.9458 7.69623 14.8705 7.98115C14.7922 8.27644 14.7238 8.59861 14.9312 8.88161C15.4607 8.84206 15.5886 8.79061 15.6853 8.49225C15.746 8.30525 15.7326 8.09559 15.7748 7.90052C15.8201 7.69163 15.8336 7.4405 16.1864 7.41861C16.2475 7.58526 16.3208 7.73847 16.3596 7.90013C16.426 8.17776 16.5624 8.39817 16.8626 8.40432C17.2413 8.41123 17.2923 8.08023 17.3737 7.81029C17.434 7.60985 17.4647 7.40057 17.5381 7.05651C17.803 7.34489 17.9635 7.51922 18.1563 7.72849C18.2692 7.62328 18.4197 7.5484 18.4562 7.43666C18.599 6.99891 18.0572 6.86068 17.9536 6.46901C18.3706 6.34076 18.7442 6.22594 19.1604 6.09808C19.0813 5.82544 19.0137 5.59198 18.935 5.32126C18.6378 5.33509 18.3775 5.31436 18.1337 5.36735C17.9056 5.41765 17.6947 5.54667 17.4405 5.65611C17.4048 5.48408 17.3557 5.39462 17.378 5.32934C17.4578 5.09357 17.4958 4.84973 17.2539 4.71572C16.9848 4.56711 16.6814 4.60244 16.4556 4.82016C16.2966 4.97261 16.1903 5.18034 16.0789 5.33816C15.905 5.22373 15.8378 5.20338 15.8155 5.15961C15.7786 5.08857 15.741 4.99603 15.7571 4.92461C15.7886 4.78714 15.8781 4.66196 15.9065 4.52372C16.0033 4.05948 15.8193 3.8122 15.352 3.75153C14.5698 3.64977 13.7642 4.29257 13.6556 5.11392C13.5895 5.61003 13.6848 6.07926 13.884 6.54005C14.0261 6.86874 14.1536 7.22278 13.8668 7.60868C13.5972 7.39672 13.366 7.21433 13.1291 7.02771C12.6357 7.55147 13.3038 8.01073 13.1322 8.55369C12.9613 8.4888 12.8388 8.4262 12.7083 8.39587C12.2724 8.29488 11.8842 8.46114 11.7786 8.78215C11.6849 9.06554 11.8566 9.46719 12.1761 9.65535C12.322 9.74175 12.5067 9.76363 12.6476 9.85541C12.7221 9.90417 12.7889 10.0543 12.7678 10.1346C12.7478 10.2106 12.61 10.3051 12.522 10.307C11.9342 10.3181 11.2775 9.76479 11.2391 9.24717C11.1865 8.54716 11.5713 8.03376 12.2494 7.89514C12.3565 7.87287 12.4614 7.83947 12.5992 7.80299C12.5036 7.18707 12.6015 6.68865 13.3 6.60417C13.2328 6.09347 13.1733 5.64152 13.1134 5.19033C13.0811 4.94535 12.9145 4.84935 12.6945 4.84283C12.0735 4.82439 11.5033 5.53746 11.6604 6.1384C11.7084 6.3231 11.7936 6.49782 11.8451 6.63375C11.536 7.11873 11.1558 6.55963 10.8659 6.80846C10.4911 7.49311 10.4911 7.49311 11.0456 8.16432C10.6655 8.30986 10.2799 8.40086 9.95737 8.5967C9.60564 8.80981 9.40597 9.16653 9.43822 9.59737C9.64827 10.0324 10.0614 9.94449 10.4155 10.0213C10.5314 10.0463 10.6228 10.1822 10.7384 10.2778C10.6009 10.5059 10.4877 10.694 10.3759 10.8787C11.0775 11.371 12.6933 11.5323 13.7189 11.2255C13.899 10.8657 13.5239 10.317 14.0065 10.0666C14.3813 9.8723 14.8083 9.86116 15.3409 10.1714C15.0717 10.3074 14.9227 10.4041 14.7603 10.4583C14.5856 10.5166 14.3982 10.5343 14.2116 10.5704C14.2273 10.9352 14.3821 11.0285 14.6655 10.9978C15.5164 10.9048 16.3692 10.8231 17.2182 10.737C17.5035 9.65304 18.2392 9.12967 19.3309 9.05326C19.3885 8.83323 19.4381 8.64124 19.4891 8.44924C19.7618 7.42553 20.6902 7.15904 21.4467 7.90475C21.6829 8.13706 21.8549 8.43542 22.0346 8.67426C22.3963 8.73109 22.8206 8.67425 23.0506 8.85857C23.5859 9.28825 24.206 9.65074 24.5578 10.3427C25.8633 10.2548 27.1639 10.1672 28.443 10.0808C28.5827 9.29632 27.8674 9.6277 27.6543 9.33434C27.5252 8.83208 28.1162 8.91156 28.2391 8.62549C28.3389 8.14474 28.2798 7.70929 27.8873 7.35756ZM9.85331 10.547C8.82883 9.84849 8.72208 9.14771 9.55879 8.34517C9.92934 7.99037 10.1981 7.69394 10.1989 7.14138C10.1993 6.64565 10.5917 6.34537 11.0168 6.18102C11.2234 4.86125 11.756 4.22575 13.2912 4.44847C13.4605 4.24726 13.6272 4.01648 13.8261 3.81796C14.7169 2.92826 15.6373 3.06649 16.2375 4.16892C16.2629 4.215 16.3158 4.24571 16.3961 4.32021C16.4898 4.23151 16.6518 4.15279 16.6706 4.04873C16.8062 3.29381 17.3227 3.10028 17.9897 3.0999C18.1037 3.0999 18.2174 3.08838 18.3736 3.07993C18.3975 2.91213 18.4347 2.75047 18.4416 2.58804C18.4823 1.69488 19.2242 0.984885 20.1093 1.00024C20.6388 1.00946 20.984 1.2821 21.0673 1.8001C21.1126 2.07926 21.1015 2.36686 21.1195 2.71706C21.8887 2.79463 22.3541 3.17555 22.2565 4.01533C22.6962 4.1217 23.1017 4.22038 23.5778 4.33596C23.9027 3.76189 24.4618 3.40555 25.1745 3.30149C25.6664 3.22969 25.823 3.35909 25.9524 3.85904C26.1053 4.44731 25.967 4.99334 25.7355 5.52747C25.9774 5.9226 26.2704 5.92413 26.5952 5.66071C27.0595 5.2844 27.5782 5.08051 28.1845 5.11699C28.6384 5.14387 28.8089 5.25637 28.923 5.68759C29.0282 6.08387 29.0408 6.48706 28.8323 6.85953C28.6837 7.12448 28.61 7.38098 28.7613 7.67012C28.7993 7.74231 28.8131 7.83985 28.8047 7.92202C28.7152 8.74798 28.9287 9.49907 29.34 10.2087C29.3899 10.2951 29.4049 10.426 29.3837 10.5251C28.9763 12.4051 28.8957 14.3266 28.6526 16.2273C28.4311 17.9602 28.2283 19.6959 28.029 21.4315C27.8658 22.8553 27.7103 24.2799 27.5771 25.7065C27.5556 25.9376 27.6662 26.1811 27.7376 26.5232C27.5725 26.6065 27.3643 26.7663 27.1328 26.8154C26.7991 26.8861 26.4493 26.8868 26.1052 26.8991C24.9882 26.9383 23.8708 26.9855 22.753 26.9986C21.8987 27.0082 21.0443 26.9667 20.1891 26.956C19.9346 26.9525 19.6796 26.9698 19.425 26.9844C18.4915 27.0381 17.6375 26.946 16.7375 26.5071C15.688 25.9952 15.2553 25.2084 14.8928 24.2124C13.4044 20.1194 11.875 16.0415 10.3598 11.9589C10.2999 11.7976 10.2738 11.5822 10.1555 11.4927C9.80839 11.2293 9.7696 10.8837 9.85331 10.547Z" fill="#111111"/>
<path d="M26.0972 9.83931C26.0841 9.77749 26.0714 9.71606 26.058 9.65462C25.5596 9.72374 25.2789 9.38545 24.9667 9.06251C24.7935 9.79823 24.7997 9.85967 25.1936 10.0352C25.3641 10.1112 25.5757 10.1592 25.7543 10.1308C25.881 10.1108 25.9839 9.94184 26.0972 9.83931ZM20.4817 5.23951C20.2183 5.79975 20.254 6.14458 20.537 6.39225C20.7624 6.59001 21.1452 6.65644 21.3994 6.42259C21.6901 6.15457 21.9939 6.16032 22.3383 6.1415C22.8275 6.11501 22.9035 5.86811 22.6205 5.3478C22.452 5.43804 22.2884 5.58857 22.1133 5.60316C21.9079 5.62005 21.6924 5.51907 21.4751 5.46761C21.3852 5.60086 21.3307 5.69992 21.2589 5.7844C21.176 5.8827 21.0777 5.96871 20.9291 6.11693C20.7747 5.81396 20.6541 5.57781 20.4817 5.23951ZM27.8873 7.35722C28.2798 7.70895 28.3389 8.14439 28.2391 8.62515C28.1162 8.91122 27.5252 8.83174 27.6542 9.33399C27.8674 9.62736 28.5827 9.29598 28.443 10.0805C27.1639 10.1669 25.8633 10.2544 24.5578 10.3423C24.206 9.65039 23.5859 9.28791 23.0506 8.85823C22.8206 8.67391 22.3963 8.73074 22.0346 8.67391C21.8549 8.43507 21.6828 8.13671 21.4467 7.9044C20.6902 7.15869 19.7617 7.42518 19.4891 8.44889C19.438 8.64088 19.3885 8.83288 19.3309 9.0529C18.2392 9.12932 17.5035 9.6527 17.2182 10.7367C16.3692 10.8227 15.5164 10.9045 14.6654 10.9974C14.3821 11.0282 14.2273 10.9348 14.2116 10.57C14.3982 10.534 14.5856 10.5163 14.7603 10.4579C14.9227 10.4038 15.0717 10.307 15.3409 10.1711C14.8083 9.86082 14.3813 9.87195 14.0065 10.0663C13.5238 10.3166 13.899 10.8653 13.7189 11.2251C12.6933 11.5319 11.0775 11.3707 10.3759 10.8784C10.4877 10.6937 10.6009 10.5055 10.7384 10.2775C10.6228 10.1818 10.5314 10.0459 10.4155 10.0209C10.0614 9.94415 9.64825 10.0321 9.43821 9.59702C9.40595 9.16619 9.60562 8.80946 9.95735 8.59634C10.2799 8.40051 10.6654 8.3095 11.0456 8.16397C10.4911 7.49276 10.4911 7.49277 10.8659 6.80811C11.1558 6.55929 11.5359 7.11837 11.845 6.63339C11.7936 6.49746 11.7084 6.32274 11.6604 6.13805C11.5033 5.5371 12.0735 4.82404 12.6944 4.84247C12.9145 4.849 13.0811 4.945 13.1134 5.18998C13.1733 5.64117 13.2328 6.09312 13.3 6.60383C12.6015 6.68831 12.5036 7.18673 12.5992 7.80264C12.4613 7.83912 12.3565 7.87253 12.2494 7.8948C11.5713 8.03342 11.1865 8.54681 11.2391 9.24682C11.2775 9.76444 11.9341 10.3178 12.522 10.3066C12.61 10.3047 12.7478 10.2102 12.7678 10.1342C12.7889 10.054 12.7221 9.90383 12.6476 9.85506C12.5067 9.76329 12.322 9.7414 12.176 9.65538C11.8566 9.46684 11.6849 9.06519 11.7786 8.78181C11.8842 8.4608 12.2724 8.29454 12.7082 8.39552C12.8388 8.42586 12.9613 8.48844 13.1322 8.55334C13.3038 8.01038 12.6357 7.55113 13.1291 7.02737C13.366 7.21398 13.5972 7.39638 13.8667 7.60834C14.1536 7.22243 14.0261 6.8684 13.884 6.5397C13.6847 6.07892 13.5895 5.60968 13.6556 5.11356C13.7642 4.29221 14.5698 3.64943 15.352 3.75118C15.8193 3.81185 16.0033 4.05914 15.9065 4.52338C15.8781 4.66161 15.7886 4.7868 15.7571 4.92426C15.741 4.99569 15.7786 5.08823 15.8155 5.15927C15.8378 5.20304 15.905 5.22339 16.0789 5.33782C16.1903 5.18 16.2966 4.97226 16.4556 4.81982C16.6814 4.6021 16.9847 4.56677 17.2539 4.71537C17.4958 4.84938 17.4578 5.09321 17.3779 5.32898C17.3557 5.39426 17.4048 5.48374 17.4405 5.65576C17.6947 5.54633 17.9055 5.4173 18.1336 5.36738C18.3775 5.31401 18.6378 5.33474 18.935 5.32092C19.0137 5.59163 19.0813 5.8251 19.1604 6.09773C18.7442 6.2256 18.3705 6.34042 17.9535 6.46867C18.0572 6.86034 18.599 6.99857 18.4562 7.43631C18.4197 7.54806 18.2692 7.62294 18.1563 7.72815C17.9635 7.51888 17.803 7.34455 17.5381 7.05617C17.4647 7.40022 17.434 7.60949 17.3737 7.80993C17.2923 8.07988 17.2416 8.41087 16.8626 8.40396C16.5623 8.39782 16.426 8.17741 16.3596 7.89979C16.3208 7.73813 16.2475 7.58492 16.1864 7.41827C15.8335 7.44016 15.8201 7.69129 15.7748 7.90018C15.7326 8.09524 15.746 8.30489 15.6853 8.4919C15.5886 8.79026 15.4607 8.84171 14.9312 8.88126C14.7238 8.59826 14.7922 8.2761 14.8705 7.98081C14.9458 7.69589 15.1001 7.43171 15.2913 6.99588C14.5264 7.42019 14.3199 7.93512 14.3245 8.57561C14.3272 8.9189 14.4155 9.18808 14.7653 9.33399C15.1186 9.48106 15.4492 9.46685 15.7291 9.21073C15.9134 9.04216 16.0497 8.82137 16.206 8.62553C17.2412 9.04293 17.2931 9.0245 17.9009 8.03457C18.7522 7.8038 18.9258 7.95663 18.7019 6.85957C18.9642 6.70866 19.3443 6.61727 19.4522 6.39417C19.5874 6.1154 19.549 5.7195 19.4941 5.38927C19.4119 4.90007 18.9799 4.78756 17.952 4.92656C17.7781 4.7434 17.5857 4.57177 17.4348 4.37017C17.3426 4.24691 17.2259 4.02381 17.2766 3.93856C17.363 3.7938 17.5742 3.63445 17.7297 3.6379C18.1213 3.64596 18.5111 3.7412 18.9799 3.81416C19.0041 3.73928 19.094 3.59451 19.0894 3.45282C19.0813 3.19785 18.993 2.94557 18.9815 2.6906C18.9531 2.0693 19.385 1.59393 19.9967 1.54286C20.3131 1.51598 20.5051 1.64039 20.5351 1.95411C20.57 2.3212 20.6173 2.69559 20.3873 3.03811C20.2713 3.21052 20.2145 3.41173 20.5163 3.58031C20.6591 3.52271 20.843 3.4605 21.0155 3.37487C21.2194 3.2735 21.4014 3.27311 21.5626 3.44437C21.7397 3.63099 21.7735 3.84909 21.6602 4.07795C21.5653 4.26994 21.4517 4.45311 21.2662 4.7818C21.608 4.75646 21.7919 4.76529 21.9651 4.72651C22.9892 4.49573 23.8074 5.21687 23.6131 6.24711C23.5559 6.55084 23.2683 6.81079 23.0548 7.13949C23.1205 7.27158 23.2315 7.45859 23.3086 7.65826C23.6297 8.49152 23.6454 8.50303 24.5355 8.2304C24.8861 8.6597 25.401 8.69656 25.9175 8.58597C26.1049 8.54604 26.3253 8.35866 26.4063 8.18125C26.6447 7.66133 26.8356 7.11568 26.5956 6.52895C26.566 6.45637 26.5914 6.36153 26.5914 6.27052C27.0233 5.71988 27.6224 5.59778 28.2452 5.54325C28.5989 6.2233 28.5789 6.33081 27.8873 7.35722Z" fill="#FAE1BA"/>
<path d="M18.2274 11.2231C20.1389 11.1109 21.984 11.0026 23.9035 10.8901C23.9254 11.1847 23.9581 11.4323 23.9604 11.68C23.9876 15.1251 23.9968 18.5707 24.0418 22.0151C24.0594 23.4185 24.1516 24.8205 24.2123 26.2808C23.0046 26.4739 21.8561 26.6079 20.6385 26.3507C19.8436 21.3623 19.048 16.3704 18.2274 11.2231Z" fill="white"/>
<path d="M24.6984 10.8608C26.0574 10.9591 27.3714 10.5678 28.8037 10.7275C28.2131 15.8553 27.6279 20.937 27.0408 26.0345C26.3242 26.5398 25.5305 26.2238 24.7242 26.3805C24.6896 26.0917 24.6427 25.877 24.6404 25.662C24.6093 22.905 24.5663 20.1483 24.5633 17.3917C24.5617 15.3815 24.6132 13.3721 24.6435 11.3627C24.6458 11.2244 24.6731 11.0869 24.6984 10.8608Z" fill="#D81F26"/>
<path d="M20.1447 26.4468H18.2516C16.8047 21.5931 15.4335 16.6957 14.0181 11.8156C14.937 11.4562 16.6961 11.275 17.7497 11.4363C18.5388 16.3832 19.3317 21.352 20.1447 26.4468Z" fill="#D81F26"/>
<path d="M12.6093 11.9307H13.4014C13.7213 12.56 16.9952 24.5389 17.2294 25.9201C16.6097 25.8387 16.5931 25.8383 16.4069 25.2186C16.021 23.9357 15.6451 22.6497 15.2726 21.363C14.3975 18.3414 13.5266 15.319 12.6561 12.2962C12.6331 12.216 12.6338 12.1288 12.6093 11.9307Z" fill="white"/>
<path d="M10.979 11.8059C11.0297 11.7846 11.085 11.7377 11.1303 11.7467C11.4079 11.802 11.6842 11.8703 12.0458 11.9544C13.3683 16.4191 14.6953 20.9019 16.0617 25.5166C15.6492 24.9408 11.1766 12.7782 10.979 11.8059Z" fill="#D81F26"/>
<path d="M19.766 9.94184C19.8021 9.66422 19.8317 9.4776 19.8486 9.28983C19.8612 9.14775 19.8486 9.00336 19.8632 8.86167C19.963 7.8921 20.4234 7.68206 21.2133 8.24461C21.2808 8.29299 21.3404 8.35289 21.4206 8.42162C21.4152 8.52991 21.4271 8.64587 21.401 8.75262C21.2401 9.41116 21.249 9.42345 21.8875 9.28061C22.7189 9.09475 22.9984 9.26985 23.4016 10.2287C22.6728 10.4149 18.3787 10.681 17.8434 10.5731C18.3645 9.6212 18.7818 9.46032 19.766 9.94184Z" fill="#FCDD94"/>
<path d="M25.8411 8.1592C25.5097 8.06359 25.2344 8.05361 25.0512 7.91806C24.519 7.52332 24.5336 7.50374 23.9442 7.73529C23.7887 7.46919 23.781 7.21191 23.9561 6.94849C24.3117 6.41321 24.2245 5.86372 24.0225 5.30271C23.7603 4.57429 23.9142 4.20258 24.6223 3.88234C24.8769 3.76753 25.1576 3.7107 25.4279 3.62622C25.6817 4.6676 25.6387 4.85767 24.918 5.90558C25.2359 6.2504 25.8323 6.12177 26.0892 6.64783C26.3679 7.21921 25.8718 7.54482 25.8411 8.1592Z" fill="#FCDD94"/>
<path d="M20.4818 5.23999C20.6542 5.5779 20.7748 5.81405 20.9291 6.11702C21.0777 5.9688 21.176 5.88279 21.259 5.78449C21.3308 5.69962 21.3857 5.60094 21.4752 5.46808C21.6925 5.51953 21.9079 5.62014 22.1133 5.60286C22.2884 5.58865 22.452 5.43813 22.6206 5.34789C22.9036 5.8682 22.8276 6.11472 22.3384 6.14198C21.9939 6.16041 21.6902 6.15504 21.3995 6.42229C21.1457 6.65614 20.7625 6.5901 20.5371 6.39234C20.2541 6.14467 20.2184 5.79985 20.4818 5.23999Z" fill="#111111"/>
<path d="M26.0972 9.83954C25.9839 9.94207 25.881 10.111 25.7543 10.131C25.5757 10.1594 25.3641 10.1114 25.1936 10.0354C24.7997 9.8599 24.7935 9.79847 24.9667 9.06274C25.2789 9.38568 25.5596 9.72397 26.058 9.65485C26.0714 9.71629 26.0841 9.77772 26.0972 9.83954Z" fill="#111111"/>
<path d="M17.8433 25.9201C17.8433 25.9201 11.2134 15.3082 11.673 11.8673C12.1323 8.42672 10.801 9.27148 12.5992 7.80311C14.3974 6.33512 13.9328 4.36449 15.8155 5.15973C15.8155 5.15973 16.5839 3.51051 14.9197 3.30469C14.9197 3.30469 13.4267 3.68791 13.6556 5.11404C13.6556 5.11404 11.6577 3.64758 11.3516 5.90582V6.46069C11.3516 6.46069 10.1459 6.23913 10.3993 7.93712C10.3993 7.93712 8.03435 9.22617 9.85331 10.5471L10.2726 10.5985L10.4631 11.514L15.3874 25.2846C15.3874 25.2846 17.2278 27.165 17.8433 25.9201Z" fill="#271B10" fill-opacity="0.1"/>
<path d="M55.8411 8.15933C55.8718 7.54495 56.3679 7.21933 56.0891 6.64795C55.8322 6.12189 55.2359 6.25052 54.918 5.9057C55.6387 4.85779 55.6817 4.66773 55.4279 3.62635C55.1576 3.71083 54.8769 3.76765 54.6223 3.88247C53.9142 4.20271 53.7602 4.57442 54.0225 5.30284C54.2245 5.86385 54.3116 6.41333 53.9561 6.94861C53.781 7.21203 53.7886 7.4693 53.9442 7.73541C54.5336 7.50386 54.519 7.52344 55.0512 7.91818C55.2344 8.05373 55.5097 8.06372 55.8411 8.15933ZM49.766 9.94219C48.7814 9.46067 48.364 9.62155 47.8434 10.5731C48.3782 10.681 52.6728 10.4153 53.4012 10.229C52.9984 9.2702 52.7188 9.09511 51.8875 9.28096C51.2489 9.4238 51.2401 9.41151 51.401 8.75297C51.4271 8.64623 51.4152 8.53026 51.4202 8.42198C51.34 8.35324 51.2808 8.29334 51.2128 8.24496C50.4234 7.68241 49.9626 7.89245 49.8631 8.86164C49.8485 9.00333 49.8612 9.14772 49.8485 9.28979C49.8316 9.47795 49.8017 9.66457 49.766 9.94219ZM40.9788 11.8061C41.1765 12.7783 45.6492 24.9408 46.0616 25.5168C44.6954 20.9024 43.3684 16.4193 42.0459 11.9547C41.6842 11.8706 41.4081 11.8022 41.1301 11.7469C41.0852 11.7377 41.0295 11.7846 40.9788 11.8061ZM42.6092 11.9305C42.6338 12.1286 42.6334 12.2158 42.656 12.296C43.5266 15.3192 44.3974 18.3416 45.2725 21.3632C45.645 22.6495 46.0209 23.9355 46.4069 25.2188C46.5931 25.8382 46.6096 25.8385 47.2294 25.9199C46.9951 24.5387 43.7212 12.5598 43.4014 11.9305H42.6092ZM50.1442 26.4468C49.3313 21.352 48.5384 16.3832 47.7493 11.4363C46.6956 11.275 44.9369 11.4563 44.0177 11.8157C45.4334 16.6958 46.8043 21.5932 48.2512 26.4468H50.1442ZM54.6979 10.8607C54.6726 11.0869 54.6457 11.2243 54.6434 11.3626C54.6131 13.372 54.5612 15.3818 54.5632 17.3916C54.5662 20.1482 54.6088 22.9049 54.6399 25.6619C54.6426 25.8773 54.6891 26.0916 54.724 26.3804C55.53 26.2237 56.3241 26.5397 57.0403 26.0344C57.6274 20.9369 58.213 15.8552 58.8035 10.7274C57.3709 10.5677 56.0569 10.959 54.6979 10.8607ZM48.2273 11.2232C49.0479 16.3705 49.8435 21.3624 50.6384 26.3504C51.856 26.6081 53.0045 26.4737 54.2122 26.2805C54.1515 24.8206 54.0594 23.4183 54.0413 22.0152C53.9968 18.5704 53.9876 15.1253 53.9603 11.6801C53.958 11.4321 53.9253 11.1848 53.9035 10.8899C51.9839 11.0024 50.1385 11.1111 48.2273 11.2232ZM57.8873 7.35756C58.5789 6.33116 58.5989 6.22364 58.2452 5.5436C57.6224 5.59812 57.0234 5.72024 56.5914 6.27088C56.5914 6.36188 56.566 6.45673 56.5956 6.5293C56.8356 7.11604 56.6447 7.66168 56.4063 8.1816C56.3253 8.359 56.1049 8.54639 55.9175 8.58633C55.401 8.69692 54.8861 8.66005 54.5355 8.23076C53.6454 8.50339 53.6297 8.49186 53.3087 7.6586C53.2315 7.45893 53.1205 7.27193 53.0548 7.13984C53.2683 6.81115 53.556 6.55119 53.6132 6.24745C53.8075 5.21721 52.9892 4.49608 51.9651 4.72686C51.7919 4.76564 51.608 4.7568 51.2662 4.78215C51.4517 4.45345 51.5654 4.27029 51.6602 4.07829C51.7735 3.84944 51.7397 3.63133 51.5627 3.44471C51.4014 3.27346 51.2194 3.27384 51.0155 3.37521C50.8431 3.46084 50.6591 3.52305 50.5163 3.58065C50.2145 3.41208 50.2713 3.21087 50.3873 3.03846C50.6173 2.69594 50.5701 2.32156 50.5351 1.95446C50.5052 1.64074 50.3132 1.51633 49.9968 1.5432C49.3851 1.59428 48.9531 2.06966 48.9815 2.69095C48.993 2.94592 49.0813 3.1982 49.0894 3.45316C49.094 3.59486 49.0041 3.73962 48.98 3.8145C48.5111 3.74154 48.1214 3.64631 47.7297 3.63824C47.5742 3.63479 47.363 3.79415 47.2766 3.93891C47.2259 4.02416 47.3426 4.24725 47.4348 4.37052C47.5857 4.57211 47.7781 4.74337 47.952 4.92692C48.98 4.78791 49.4119 4.90042 49.4941 5.38962C49.549 5.71946 49.5874 6.11574 49.4523 6.39452C49.3444 6.61761 48.9642 6.70901 48.7019 6.85991C48.9258 7.95697 48.7523 7.80414 47.9009 8.03492C47.2931 9.02484 47.2413 9.04327 46.206 8.62588C46.0497 8.82171 45.9134 9.0425 45.7291 9.21107C45.4492 9.46719 45.1186 9.4814 44.7653 9.33434C44.4155 9.18842 44.3272 8.91924 44.3245 8.57596C44.3199 7.93546 44.5265 7.42054 45.2914 6.99623C45.1001 7.43206 44.9458 7.69623 44.8705 7.98115C44.7922 8.27644 44.7238 8.59861 44.9312 8.88161C45.4607 8.84206 45.5886 8.79061 45.6853 8.49225C45.746 8.30525 45.7326 8.09559 45.7748 7.90052C45.8201 7.69163 45.8336 7.4405 46.1864 7.41861C46.2475 7.58526 46.3208 7.73847 46.3596 7.90013C46.426 8.17776 46.5624 8.39817 46.8626 8.40432C47.2413 8.41123 47.2923 8.08023 47.3737 7.81029C47.434 7.60985 47.4647 7.40057 47.5381 7.05651C47.803 7.34489 47.9635 7.51922 48.1563 7.72849C48.2692 7.62328 48.4197 7.5484 48.4562 7.43666C48.599 6.99891 48.0572 6.86068 47.9536 6.46901C48.3706 6.34076 48.7442 6.22594 49.1604 6.09808C49.0813 5.82544 49.0137 5.59198 48.935 5.32126C48.6378 5.33509 48.3775 5.31436 48.1337 5.36735C47.9056 5.41765 47.6947 5.54667 47.4405 5.65611C47.4048 5.48408 47.3557 5.39462 47.378 5.32934C47.4578 5.09357 47.4958 4.84973 47.2539 4.71572C46.9848 4.56711 46.6814 4.60244 46.4556 4.82016C46.2966 4.97261 46.1903 5.18034 46.0789 5.33816C45.905 5.22373 45.8378 5.20338 45.8155 5.15961C45.7786 5.08857 45.741 4.99603 45.7571 4.92461C45.7886 4.78714 45.8781 4.66196 45.9065 4.52372C46.0033 4.05948 45.8193 3.8122 45.352 3.75153C44.5698 3.64977 43.7642 4.29257 43.6556 5.11392C43.5895 5.61003 43.6848 6.07926 43.884 6.54005C44.0261 6.86874 44.1536 7.22278 43.8668 7.60868C43.5972 7.39672 43.366 7.21433 43.1291 7.02771C42.6357 7.55147 43.3038 8.01073 43.1322 8.55369C42.9613 8.4888 42.8388 8.4262 42.7083 8.39587C42.2724 8.29488 41.8842 8.46114 41.7786 8.78215C41.6849 9.06554 41.8566 9.46719 42.1761 9.65535C42.322 9.74175 42.5067 9.76363 42.6476 9.85541C42.7221 9.90417 42.7889 10.0543 42.7678 10.1346C42.7478 10.2106 42.61 10.3051 42.522 10.307C41.9342 10.3181 41.2775 9.76479 41.2391 9.24717C41.1865 8.54716 41.5713 8.03376 42.2494 7.89514C42.3565 7.87287 42.4614 7.83947 42.5992 7.80299C42.5036 7.18707 42.6015 6.68865 43.3 6.60417C43.2328 6.09347 43.1733 5.64152 43.1134 5.19033C43.0811 4.94535 42.9145 4.84935 42.6945 4.84283C42.0735 4.82439 41.5033 5.53746 41.6604 6.1384C41.7084 6.3231 41.7936 6.49782 41.8451 6.63375C41.536 7.11873 41.1558 6.55963 40.8659 6.80846C40.4911 7.49311 40.4911 7.49311 41.0456 8.16432C40.6655 8.30986 40.2799 8.40086 39.9574 8.5967C39.6056 8.80981 39.406 9.16653 39.4382 9.59737C39.6483 10.0324 40.0614 9.94449 40.4155 10.0213C40.5314 10.0463 40.6228 10.1822 40.7384 10.2778C40.6009 10.5059 40.4877 10.694 40.3759 10.8787C41.0775 11.371 42.6933 11.5323 43.7189 11.2255C43.899 10.8657 43.5239 10.317 44.0065 10.0666C44.3813 9.8723 44.8083 9.86116 45.3409 10.1714C45.0717 10.3074 44.9227 10.4041 44.7603 10.4583C44.5856 10.5166 44.3982 10.5343 44.2116 10.5704C44.2273 10.9352 44.3821 11.0285 44.6655 10.9978C45.5164 10.9048 46.3692 10.8231 47.2182 10.737C47.5035 9.65304 48.2392 9.12967 49.3309 9.05326C49.3885 8.83323 49.4381 8.64124 49.4891 8.44924C49.7618 7.42553 50.6902 7.15904 51.4467 7.90475C51.6829 8.13706 51.8549 8.43542 52.0346 8.67426C52.3963 8.73109 52.8206 8.67425 53.0506 8.85857C53.5859 9.28825 54.206 9.65074 54.5578 10.3427C55.8633 10.2548 57.1639 10.1672 58.443 10.0808C58.5827 9.29632 57.8674 9.6277 57.6543 9.33434C57.5252 8.83208 58.1162 8.91156 58.2391 8.62549C58.3389 8.14474 58.2798 7.70929 57.8873 7.35756ZM39.8533 10.547C38.8288 9.84849 38.7221 9.14771 39.5588 8.34517C39.9293 7.99037 40.1981 7.69394 40.1989 7.14138C40.1993 6.64565 40.5917 6.34537 41.0168 6.18102C41.2234 4.86125 41.756 4.22575 43.2912 4.44847C43.4605 4.24726 43.6272 4.01648 43.8261 3.81796C44.7169 2.92826 45.6373 3.06649 46.2375 4.16892C46.2629 4.215 46.3158 4.24571 46.3961 4.32021C46.4898 4.23151 46.6518 4.15279 46.6706 4.04873C46.8062 3.29381 47.3227 3.10028 47.9897 3.0999C48.1037 3.0999 48.2174 3.08838 48.3736 3.07993C48.3975 2.91213 48.4347 2.75047 48.4416 2.58804C48.4823 1.69488 49.2242 0.984885 50.1093 1.00024C50.6388 1.00946 50.984 1.2821 51.0673 1.8001C51.1126 2.07926 51.1015 2.36686 51.1195 2.71706C51.8887 2.79463 52.3541 3.17555 52.2565 4.01533C52.6962 4.1217 53.1017 4.22038 53.5778 4.33596C53.9027 3.76189 54.4618 3.40555 55.1745 3.30149C55.6664 3.22969 55.823 3.35909 55.9524 3.85904C56.1053 4.44731 55.967 4.99334 55.7355 5.52747C55.9774 5.9226 56.2704 5.92413 56.5952 5.66071C57.0595 5.2844 57.5782 5.08051 58.1845 5.11699C58.6384 5.14387 58.8089 5.25637 58.923 5.68759C59.0282 6.08387 59.0408 6.48706 58.8323 6.85953C58.6837 7.12448 58.61 7.38098 58.7613 7.67012C58.7993 7.74231 58.8131 7.83985 58.8047 7.92202C58.7152 8.74798 58.9287 9.49907 59.34 10.2087C59.3899 10.2951 59.4049 10.426 59.3837 10.5251C58.9763 12.4051 58.8957 14.3266 58.6526 16.2273C58.4311 17.9602 58.2283 19.6959 58.029 21.4315C57.8658 22.8553 57.7103 24.2799 57.5771 25.7065C57.5556 25.9376 57.6662 26.1811 57.7376 26.5232C57.5725 26.6065 57.3643 26.7663 57.1328 26.8154C56.7991 26.8861 56.4493 26.8868 56.1052 26.8991C54.9882 26.9383 53.8708 26.9855 52.753 26.9986C51.8987 27.0082 51.0443 26.9667 50.1891 26.956C49.9346 26.9525 49.6796 26.9698 49.425 26.9844C48.4915 27.0381 47.6375 26.946 46.7375 26.5071C45.688 25.9952 45.2553 25.2084 44.8928 24.2124C43.4044 20.1194 41.875 16.0415 40.3598 11.9589C40.2999 11.7976 40.2738 11.5822 40.1555 11.4927C39.8084 11.2293 39.7696 10.8837 39.8533 10.547Z" fill="#111111"/>
<path d="M56.0972 9.83931C56.0841 9.77749 56.0714 9.71606 56.058 9.65462C55.5596 9.72374 55.2789 9.38545 54.9667 9.06251C54.7935 9.79823 54.7997 9.85967 55.1936 10.0352C55.3641 10.1112 55.5757 10.1592 55.7543 10.1308C55.881 10.1108 55.9839 9.94184 56.0972 9.83931ZM50.4817 5.23951C50.2183 5.79975 50.254 6.14458 50.537 6.39225C50.7624 6.59001 51.1452 6.65644 51.3994 6.42259C51.6901 6.15457 51.9939 6.16032 52.3383 6.1415C52.8275 6.11501 52.9035 5.86811 52.6205 5.3478C52.452 5.43804 52.2884 5.58857 52.1133 5.60316C51.9079 5.62005 51.6924 5.51907 51.4751 5.46761C51.3852 5.60086 51.3307 5.69992 51.2589 5.7844C51.176 5.8827 51.0777 5.96871 50.9291 6.11693C50.7747 5.81396 50.6541 5.57781 50.4817 5.23951ZM57.8873 7.35722C58.2798 7.70895 58.3389 8.14439 58.2391 8.62515C58.1162 8.91122 57.5252 8.83174 57.6542 9.33399C57.8674 9.62736 58.5827 9.29598 58.443 10.0805C57.1639 10.1669 55.8633 10.2544 54.5578 10.3423C54.206 9.65039 53.5859 9.28791 53.0506 8.85823C52.8206 8.67391 52.3963 8.73074 52.0346 8.67391C51.8549 8.43507 51.6828 8.13671 51.4467 7.9044C50.6902 7.15869 49.7617 7.42518 49.4891 8.44889C49.438 8.64088 49.3885 8.83288 49.3309 9.0529C48.2392 9.12932 47.5035 9.6527 47.2182 10.7367C46.3692 10.8227 45.5164 10.9045 44.6654 10.9974C44.3821 11.0282 44.2273 10.9348 44.2116 10.57C44.3982 10.534 44.5856 10.5163 44.7603 10.4579C44.9227 10.4038 45.0717 10.307 45.3409 10.1711C44.8083 9.86082 44.3813 9.87195 44.0065 10.0663C43.5238 10.3166 43.899 10.8653 43.7189 11.2251C42.6933 11.5319 41.0775 11.3707 40.3759 10.8784C40.4877 10.6937 40.6009 10.5055 40.7384 10.2775C40.6228 10.1818 40.5314 10.0459 40.4155 10.0209C40.0614 9.94415 39.6482 10.0321 39.4382 9.59702C39.406 9.16619 39.6056 8.80946 39.9574 8.59634C40.2799 8.40051 40.6654 8.3095 41.0456 8.16397C40.4911 7.49276 40.4911 7.49277 40.8659 6.80811C41.1558 6.55929 41.5359 7.11837 41.845 6.63339C41.7936 6.49746 41.7084 6.32274 41.6604 6.13805C41.5033 5.5371 42.0735 4.82404 42.6944 4.84247C42.9145 4.849 43.0811 4.945 43.1134 5.18998C43.1733 5.64117 43.2328 6.09312 43.3 6.60383C42.6015 6.68831 42.5036 7.18673 42.5992 7.80264C42.4613 7.83912 42.3565 7.87253 42.2494 7.8948C41.5713 8.03342 41.1865 8.54681 41.2391 9.24682C41.2775 9.76444 41.9341 10.3178 42.522 10.3066C42.61 10.3047 42.7478 10.2102 42.7678 10.1342C42.7889 10.054 42.7221 9.90383 42.6476 9.85506C42.5067 9.76329 42.322 9.7414 42.176 9.65538C41.8566 9.46684 41.6849 9.06519 41.7786 8.78181C41.8842 8.4608 42.2724 8.29454 42.7082 8.39552C42.8388 8.42586 42.9613 8.48844 43.1322 8.55334C43.3038 8.01038 42.6357 7.55113 43.1291 7.02737C43.366 7.21398 43.5972 7.39638 43.8667 7.60834C44.1536 7.22243 44.0261 6.8684 43.884 6.5397C43.6847 6.07892 43.5895 5.60968 43.6556 5.11356C43.7642 4.29221 44.5698 3.64943 45.352 3.75118C45.8193 3.81185 46.0033 4.05914 45.9065 4.52338C45.8781 4.66161 45.7886 4.7868 45.7571 4.92426C45.741 4.99569 45.7786 5.08823 45.8155 5.15927C45.8378 5.20304 45.905 5.22339 46.0789 5.33782C46.1903 5.18 46.2966 4.97226 46.4556 4.81982C46.6814 4.6021 46.9847 4.56677 47.2539 4.71537C47.4958 4.84938 47.4578 5.09321 47.3779 5.32898C47.3557 5.39426 47.4048 5.48374 47.4405 5.65576C47.6947 5.54633 47.9055 5.4173 48.1336 5.36738C48.3775 5.31401 48.6378 5.33474 48.935 5.32092C49.0137 5.59163 49.0813 5.8251 49.1604 6.09773C48.7442 6.2256 48.3705 6.34042 47.9535 6.46867C48.0572 6.86034 48.599 6.99857 48.4562 7.43631C48.4197 7.54806 48.2692 7.62294 48.1563 7.72815C47.9635 7.51888 47.803 7.34455 47.5381 7.05617C47.4647 7.40022 47.434 7.60949 47.3737 7.80993C47.2923 8.07988 47.2416 8.41087 46.8626 8.40396C46.5623 8.39782 46.426 8.17741 46.3596 7.89979C46.3208 7.73813 46.2475 7.58492 46.1864 7.41827C45.8335 7.44016 45.8201 7.69129 45.7748 7.90018C45.7326 8.09524 45.746 8.30489 45.6853 8.4919C45.5886 8.79026 45.4607 8.84171 44.9312 8.88126C44.7238 8.59826 44.7922 8.2761 44.8705 7.98081C44.9458 7.69589 45.1001 7.43171 45.2913 6.99588C44.5264 7.42019 44.3199 7.93512 44.3245 8.57561C44.3272 8.9189 44.4155 9.18808 44.7653 9.33399C45.1186 9.48106 45.4492 9.46685 45.7291 9.21073C45.9134 9.04216 46.0497 8.82137 46.206 8.62553C47.2412 9.04293 47.2931 9.0245 47.9009 8.03457C48.7522 7.8038 48.9258 7.95663 48.7019 6.85957C48.9642 6.70866 49.3443 6.61727 49.4522 6.39417C49.5874 6.1154 49.549 5.7195 49.4941 5.38927C49.4119 4.90007 48.9799 4.78756 47.952 4.92656C47.7781 4.7434 47.5857 4.57177 47.4348 4.37017C47.3426 4.24691 47.2259 4.02381 47.2766 3.93856C47.363 3.7938 47.5742 3.63445 47.7297 3.6379C48.1213 3.64596 48.5111 3.7412 48.9799 3.81416C49.0041 3.73928 49.094 3.59451 49.0894 3.45282C49.0813 3.19785 48.993 2.94557 48.9815 2.6906C48.9531 2.0693 49.385 1.59393 49.9967 1.54286C50.3131 1.51598 50.5051 1.64039 50.5351 1.95411C50.57 2.3212 50.6173 2.69559 50.3873 3.03811C50.2713 3.21052 50.2145 3.41173 50.5163 3.58031C50.6591 3.52271 50.843 3.4605 51.0155 3.37487C51.2194 3.2735 51.4014 3.27311 51.5626 3.44437C51.7397 3.63099 51.7735 3.84909 51.6602 4.07795C51.5653 4.26994 51.4517 4.45311 51.2662 4.7818C51.608 4.75646 51.7919 4.76529 51.9651 4.72651C52.9892 4.49573 53.8074 5.21687 53.6131 6.24711C53.5559 6.55084 53.2683 6.81079 53.0548 7.13949C53.1205 7.27158 53.2315 7.45859 53.3086 7.65826C53.6297 8.49152 53.6454 8.50303 54.5355 8.2304C54.8861 8.6597 55.401 8.69656 55.9175 8.58597C56.1049 8.54604 56.3253 8.35866 56.4063 8.18125C56.6447 7.66133 56.8356 7.11568 56.5956 6.52895C56.566 6.45637 56.5914 6.36153 56.5914 6.27052C57.0233 5.71988 57.6224 5.59778 58.2452 5.54325C58.5989 6.2233 58.5789 6.33081 57.8873 7.35722Z" fill="#FAE1BA"/>
<path d="M48.2274 11.2231C50.1389 11.1109 51.984 11.0026 53.9035 10.8901C53.9254 11.1847 53.9581 11.4323 53.9604 11.68C53.9876 15.1251 53.9968 18.5707 54.0418 22.0151C54.0594 23.4185 54.1516 24.8205 54.2123 26.2808C53.0046 26.4739 51.8561 26.6079 50.6385 26.3507C49.8436 21.3623 49.048 16.3704 48.2274 11.2231Z" fill="white"/>
<path d="M54.6984 10.8608C56.0574 10.9591 57.3714 10.5678 58.8037 10.7275C58.2131 15.8553 57.6279 20.937 57.0408 26.0345C56.3242 26.5398 55.5305 26.2238 54.7242 26.3805C54.6896 26.0917 54.6427 25.877 54.6404 25.662C54.6093 22.905 54.5663 20.1483 54.5633 17.3917C54.5617 15.3815 54.6132 13.3721 54.6435 11.3627C54.6458 11.2244 54.6731 11.0869 54.6984 10.8608Z" fill="#D81F26"/>
<path d="M50.1447 26.4468H48.2516C46.8047 21.5931 45.4335 16.6957 44.0181 11.8156C44.937 11.4562 46.6961 11.275 47.7497 11.4363C48.5388 16.3832 49.3317 21.352 50.1447 26.4468Z" fill="#D81F26"/>
<path d="M42.6093 11.9307H43.4014C43.7213 12.56 46.9952 24.5389 47.2294 25.9201C46.6097 25.8387 46.5931 25.8383 46.4069 25.2186C46.021 23.9357 45.6451 22.6497 45.2726 21.363C44.3975 18.3414 43.5266 15.319 42.6561 12.2962C42.6331 12.216 42.6338 12.1288 42.6093 11.9307Z" fill="white"/>
<path d="M40.979 11.8059C41.0297 11.7846 41.085 11.7377 41.1303 11.7467C41.4079 11.802 41.6842 11.8703 42.0458 11.9544C43.3683 16.4191 44.6953 20.9019 46.0617 25.5166C45.6492 24.9408 41.1766 12.7782 40.979 11.8059Z" fill="#D81F26"/>
<path d="M49.766 9.94184C49.8021 9.66422 49.8317 9.4776 49.8486 9.28983C49.8612 9.14775 49.8486 9.00336 49.8632 8.86167C49.963 7.8921 50.4234 7.68206 51.2133 8.24461C51.2808 8.29299 51.3404 8.35289 51.4206 8.42162C51.4152 8.52991 51.4271 8.64587 51.401 8.75262C51.2401 9.41116 51.249 9.42345 51.8875 9.28061C52.7189 9.09475 52.9984 9.26985 53.4016 10.2287C52.6728 10.4149 48.3787 10.681 47.8434 10.5731C48.3645 9.6212 48.7818 9.46032 49.766 9.94184Z" fill="#FCDD94"/>
<path d="M55.8411 8.1592C55.5097 8.06359 55.2344 8.05361 55.0512 7.91806C54.519 7.52332 54.5336 7.50374 53.9442 7.73529C53.7887 7.46919 53.781 7.21191 53.9561 6.94849C54.3117 6.41321 54.2245 5.86372 54.0225 5.30271C53.7603 4.57429 53.9142 4.20258 54.6223 3.88234C54.8769 3.76753 55.1576 3.7107 55.4279 3.62622C55.6817 4.6676 55.6387 4.85767 54.918 5.90558C55.2359 6.2504 55.8323 6.12177 56.0892 6.64783C56.3679 7.21921 55.8718 7.54482 55.8411 8.1592Z" fill="#FCDD94"/>
<path d="M50.4818 5.23999C50.6542 5.5779 50.7748 5.81405 50.9291 6.11702C51.0777 5.9688 51.176 5.88279 51.259 5.78449C51.3308 5.69962 51.3857 5.60094 51.4752 5.46808C51.6925 5.51953 51.9079 5.62014 52.1133 5.60286C52.2884 5.58865 52.452 5.43813 52.6206 5.34789C52.9036 5.8682 52.8276 6.11472 52.3384 6.14198C51.9939 6.16041 51.6902 6.15504 51.3995 6.42229C51.1457 6.65614 50.7625 6.5901 50.5371 6.39234C50.2541 6.14467 50.2184 5.79985 50.4818 5.23999Z" fill="#111111"/>
<path d="M56.0972 9.83954C55.9839 9.94207 55.881 10.111 55.7543 10.131C55.5757 10.1594 55.3641 10.1114 55.1936 10.0354C54.7997 9.8599 54.7935 9.79847 54.9667 9.06274C55.2789 9.38568 55.5596 9.72397 56.058 9.65485C56.0714 9.71629 56.0841 9.77772 56.0972 9.83954Z" fill="#111111"/>
<path d="M47.8433 25.9201C47.8433 25.9201 41.2134 15.3082 41.673 11.8673C42.1323 8.42672 40.801 9.27148 42.5992 7.80311C44.3974 6.33512 43.9328 4.36449 45.8155 5.15973C45.8155 5.15973 46.5839 3.51051 44.9197 3.30469C44.9197 3.30469 43.4267 3.68791 43.6556 5.11404C43.6556 5.11404 41.6577 3.64758 41.3516 5.90582V6.46069C41.3516 6.46069 40.1459 6.23913 40.3993 7.93712C40.3993 7.93712 38.0344 9.22617 39.8533 10.5471L40.2726 10.5985L40.4631 11.514L45.3874 25.2846C45.3874 25.2846 47.2278 27.165 47.8433 25.9201Z" fill="#271B10" fill-opacity="0.1"/>
</svg>
