<svg clip-rule="evenodd" fill-rule="evenodd" stroke-linejoin="round" stroke-miterlimit="2" viewBox="0 0 60 58" xmlns="http://www.w3.org/2000/svg"><g fill-rule="nonzero"><path d="m16.463 28.097c1.127 1.993 2.452 3.739 4.361 4.913 3.685 2.268 7.681 2.961 11.934 2.169.805-.15 1.707-.116 2.396-.482 1.625-.864 3.416-1.537 4.537-3.147.075-.107.212-.172.222-.18.301.388.573.739.862 1.112.949-.739.563-1.438.188-2.003-.595-.899-1.426-1.445-2.609-1.175.317 1.568-.025 2.398-1.313 3.126-1.932 1.091-4.007 1.706-6.23 1.819-2.095.108-4.099-.198-6.132-.798-2.54-.749-4.544-2.12-6.066-4.21-.551-.759-1.207-1.528-.955-2.677.138-.627-.808-1.068-1.265-.579-.525.559-1.217 1.138-.992 2.179.324-.02.628-.04 1.062-.067m-4.73.277c-.154-5.116 1.615-9.487 5.271-12.879 4.236-3.929 9.36-5.525 15.167-4.665 3.89.576 7.214 2.273 9.875 5.128 2.442 2.622 3.959 5.775 4.586 9.314.708 3.998.312 7.878-1.587 11.506-2.775 5.302-7.054 8.464-13.069 9.383-9.592 1.468-18.388-5.501-20.058-15.045-.16-.915-.13-1.862-.185-2.742" fill="#fdba11"/><path d="m40.994 19.293c0 3.55-5.197 6.427-11.608 6.427s-11.607-2.877-11.607-6.427 5.196-6.428 11.607-6.428 11.608 2.878 11.608 6.428" fill="#ffe26a"/><path d="m27.909 54.183c1.693-2.694 4.011-3.333 6.497-3.823 2.468-.488 4.842-.798 7.194.794.341-2.556 1.564-4.434 3.28-6.066 1.709-1.626 3.75-2.556 6.203-2.986-1.2-2.516-1.522-4.906-.461-7.325 1.072-2.448 2.904-4.073 5.63-4.828-2.017-1.825-3.509-3.757-4.033-6.374-.552-2.752.725-4.821 2.232-6.867-1.059.061-2.039.088-3.013.18-1.342.127-2.495-.362-3.549-1.087-.942-.648-1.494-1.534-1.542-2.756-.066-1.682-.203-3.354.5-4.946-.172-.049-.228-.085-.268-.072-.522.166-1.042.335-1.56.51-3.123 1.057-5.723.281-7.773-2.275-.993-1.238-1.909-2.538-2.93-3.904-.354.457-.666.9-1.017 1.308-1.663 1.931-3.735 3.083-6.323 2.915-1.807-.117-3.59-.567-5.202-1.429-1.083-.579-2.065-1.348-3.14-2.063.281 3.001-.627 5.715-2.896 7.633-2.309 1.951-5.128 2.511-8.284 1.183.217.411.276.56.366.688 2.444 3.448 1.968 6.809-1.384 9.308-1.029.766-2.172 1.382-3.061 1.939.76.845 1.566 1.745 2.378 2.64 1.752 1.929 1.989 4.308.619 6.477-.566.896-1.166 1.77-1.796 2.725 1.884.54 3.637.967 5.338 1.547 2.508.856 4.297 4.38 3.605 6.973-.257.964-.589 1.908-.94 3.032.954-.257 1.677-.509 2.422-.641 3.069-.544 6.044-.056 8.387 1.946 1.698 1.453 3.695 2.808 4.521 5.644m7.211-54.12c.174.334.365.554.403.796.482 3.14 2.513 5.139 5.016 6.758 1.222.789 2.587.426 3.827.067 1.08-.312 2.065-.954 3.092-1.45.238-.115.475-.229.778-.375.346.814-.004 1.456-.212 2.108-.411 1.293-.997 2.51-.91 3.959.134 2.27 1.422 3.662 3.907 3.781 1.512.072 3.044-.26 4.566-.415.252-.026.501-.076.892-.137-.762 1.314-1.421 2.482-2.11 3.632-1.868 3.118-1.32 6.777 1.424 9.166.943.821 1.951 1.566 3.169 2.536-.837.204-1.474.435-2.129.507-3.396.371-6.971 4.819-5.388 8.955.481 1.254 1.025 2.486 1.597 3.867-.345-.056-.645-.061-.915-.154-1.214-.42-2.43-.317-3.522.248-2.21 1.143-4.338 2.467-5.225 4.976-.412 1.164-.561 2.423-.813 3.642-.051.242-.03.5-.052.945-.631-.543-1.112-.956-1.592-1.369-1.155-.993-2.495-1.366-3.988-1.124-1.293.209-2.579.465-3.864.721-2.287.455-3.753 1.913-4.745 3.935-.211.431-.413.866-.758 1.594-.193-.538-.345-.792-.37-1.058-.206-2.202-1.18-3.954-2.989-5.238-.223-.158-.507-.309-.619-.534-.993-1.989-2.991-2.278-4.802-2.816-1.993-.592-3.898-.095-5.727.767-1.403.662-1.52.686-2.785.702.671-1.474 1.427-2.917 1.995-4.431.995-2.65-.662-5.863-3.358-6.676-.944-.286-1.891-.571-2.849-.804-1.431-.348-2.873-.659-4.446-.164.009-.812.564-1.028.972-1.289 1.339-.858 2.208-2.106 2.996-3.433.835-1.408.731-2.768-.061-4.188-.857-1.538-2.174-2.596-3.53-3.606-.492-.367-1.198-.446-1.955-.708.389-.618.919-.618 1.429-.714 1.918-.363 3.689-1.012 5.083-2.487 1.909-2.019 2.162-4.707.64-7.057-.625-.964-1.183-1.973-1.75-2.974-.126-.223-.159-.499-.312-1.007.923.399 1.669.666 2.363 1.029 4.352 2.279 9.126.036 10.082-5.509.129-.747.056-1.531.066-2.298.008-.639.001-1.279.001-2.213 1.024.834 1.828 1.392 2.517 2.068 1.992 1.954 4.495 2.655 7.144 2.923 2.031.206 3.559-.928 4.899-2.272.771-.773 1.396-1.689 2.109-2.521.199-.231.477-.394.809-.661" fill="#231f20"/><path d="m48.194 29.924c.067-4.414-.753-7.749-2.491-10.806-2.183-3.842-5.361-6.569-9.487-8.262-3.756-1.542-7.567-1.696-11.437-.788-3.44.806-6.385 2.564-8.886 5.078-4.409 4.435-5.846 9.874-5.026 15.881.736 5.389 3.369 9.756 7.902 12.962 3.152 2.231 6.58 3.473 10.413 3.569 4.572.114 8.65-1.363 12.202-4.184 1.932-1.534 3.732-3.278 4.714-5.61 1.171-2.781 2.176-5.627 2.096-7.84m-20.285 24.26c-.825-2.836-2.823-4.192-4.521-5.644-2.342-2.003-5.318-2.49-8.386-1.946-.746.132-1.469.384-2.422.641.35-1.124.682-2.068.94-3.033.691-2.592-1.097-6.116-3.606-6.972-1.701-.58-3.454-1.007-5.338-1.547.631-.955 1.231-1.829 1.797-2.725 1.369-2.169 1.133-4.549-.619-6.477-.813-.895-1.619-1.795-2.379-2.64.889-.558 2.032-1.173 3.061-1.939 3.353-2.499 3.828-5.86 1.384-9.309-.09-.127-.149-.276-.365-.688 3.155 1.329 5.974.769 8.283-1.183 2.269-1.917 3.178-4.631 2.896-7.632 1.075.715 2.057 1.483 3.141 2.063 1.611.862 3.394 1.312 5.202 1.429 2.587.168 4.659-.984 6.322-2.915.352-.409.664-.851 1.018-1.308 1.021 1.366 1.937 2.666 2.929 3.903 2.05 2.557 4.651 3.332 7.773 2.276.519-.175 1.039-.344 1.56-.51.04-.014.096.023.269.071-.703 1.593-.567 3.264-.501 4.947.048 1.222.6 2.108 1.542 2.755 1.055.726 2.208 1.214 3.55 1.087.973-.091 1.953-.118 3.013-.179-1.508 2.046-2.784 4.115-2.233 6.866.525 2.618 2.017 4.55 4.033 6.374-2.726.756-4.558 2.381-5.63 4.829-1.06 2.418-.739 4.809.461 7.325-2.453.429-4.493 1.36-6.202 2.986-1.717 1.632-2.94 3.51-3.28 6.065-2.353-1.591-4.727-1.281-7.195-.793-2.485.49-4.803 1.128-6.497 3.823" fill="#ffd900"/><g fill="#231f20"><path d="m11.733 28.374c.055.88.025 1.827.185 2.741 1.67 9.544 10.466 16.514 20.058 15.046 6.015-.92 10.294-4.081 13.069-9.384 1.899-3.628 2.295-7.507 1.587-11.506-.627-3.539-2.144-6.691-4.587-9.313-2.66-2.855-5.984-4.552-9.874-5.128-5.807-.86-10.931.736-15.167 4.665-3.656 3.392-5.425 7.763-5.271 12.879m36.461 1.55c.08 2.213-.925 5.058-2.096 7.84-.982 2.332-2.782 4.076-4.714 5.61-3.552 2.821-7.63 4.298-12.202 4.184-3.833-.096-7.261-1.338-10.413-3.569-4.533-3.206-7.166-7.573-7.902-12.963-.82-6.006.616-11.445 5.026-15.88 2.501-2.515 5.446-4.272 8.886-5.079 3.87-.907 7.681-.753 11.437.789 4.126 1.693 7.304 4.42 9.487 8.262 1.738 3.057 2.558 6.392 2.491 10.806"/><path d="m16.463 28.097c-.434.027-.738.047-1.062.067-.225-1.041.467-1.62.992-2.179.457-.489 1.403-.048 1.265.579-.252 1.149.404 1.918.955 2.677 1.522 2.09 3.526 3.461 6.066 4.21 2.033.6 4.037.906 6.132.798 2.223-.113 4.298-.728 6.23-1.819 1.288-.728 1.63-1.558 1.313-3.126 1.183-.27 2.014.276 2.609 1.175.375.565.761 1.264-.188 2.003-.289-.373-.561-.724-.862-1.112-.01.008-.147.073-.222.18-1.121 1.61-2.912 2.283-4.537 3.147-.689.366-1.591.332-2.396.482-4.253.792-8.249.099-11.934-2.169-1.909-1.174-3.234-2.92-4.361-4.913"/><path d="m28.139 19.293c0 1.324-.558 2.398-1.247 2.398s-1.247-1.074-1.247-2.398c0-1.325.558-2.398 1.247-2.398s1.247 1.073 1.247 2.398"/><path d="m33.607 19.389c0 1.325-.559 2.398-1.247 2.398-.689 0-1.247-1.073-1.247-2.398s.558-2.398 1.247-2.398c.688 0 1.247 1.073 1.247 2.398"/></g></g></svg>