<svg clip-rule="evenodd" fill-rule="evenodd" stroke-linejoin="round" stroke-miterlimit="2" viewBox="0 0 59 57" xmlns="http://www.w3.org/2000/svg"><g fill-rule="nonzero"><path d="m12.658 34.468c-1.758-4.808-1.457-9.513.944-13.884 2.782-5.063 7.143-8.193 12.925-9.207 3.873-.679 7.562-.116 10.987 1.756 3.144 1.718 5.577 4.231 7.288 7.394 1.931 3.571 2.777 7.378 2.119 11.42-.963 5.907-4.028 10.254-9.447 13.023-8.64 4.415-19.184.572-23.776-7.959-.44-.817-.71-1.726-1.04-2.543" fill="#fdba11"/><path d="m41.1 19.39c0 3.55-5.197 6.428-11.608 6.428s-11.607-2.878-11.607-6.428 5.196-6.428 11.607-6.428 11.608 2.878 11.608 6.428" fill="#ffe26a"/><path d="m36.143 53.865c.758-3.091 2.757-4.427 4.961-5.676 2.188-1.24 4.344-2.283 7.078-1.513-.482-2.534.087-4.701 1.202-6.79 1.11-2.083 2.753-3.608 4.946-4.79-1.932-2.009-2.99-4.175-2.747-6.806.248-2.66 1.474-4.779 3.823-6.356-2.489-1.095-4.514-2.46-5.837-4.779-1.39-2.437-.83-4.804-.044-7.22-.986.392-1.908.726-2.803 1.12-1.234.543-2.482.443-3.711.087-1.098-.318-1.902-.984-2.332-2.13-.593-1.575-1.249-3.119-1.084-4.852-.179.009-.243-.008-.277.017-.443.322-.883.646-1.32.976-2.631 1.986-5.343 2.07-8.094.29-1.332-.863-2.611-1.807-4.011-2.782-.191.545-.348 1.063-.553 1.561-.97 2.358-2.573 4.104-5.082 4.76-1.752.458-3.586.593-5.387.282-1.211-.208-2.385-.628-3.631-.968 1.213 2.759 1.206 5.622-.343 8.157-1.576 2.579-4.076 3.999-7.489 3.732.336.323.438.446.564.538 3.406 2.503 4.014 5.842 1.619 9.271-.735 1.052-1.625 1.995-2.294 2.805.989.561 2.037 1.163 3.09 1.755 2.27 1.279 3.244 3.462 2.628 5.953-.254 1.028-.549 2.046-.847 3.151 1.959-.081 3.757-.228 5.554-.213 2.65.022 5.458 2.802 5.619 5.482.06.996.042 1.996.063 3.172.824-.543 1.432-1.01 2.097-1.371 2.741-1.482 5.719-1.957 8.573-.795 2.069.843 4.392 1.5 6.069 3.932m-10.21-53.635c.271.262.521.41.633.629 1.448 2.828 4.004 4.084 6.89 4.831 1.408.365 2.59-.41 3.654-1.14.927-.637 1.658-1.557 2.477-2.352.189-.184.379-.367.62-.601.586.664.455 1.383.463 2.068.017 1.356-.154 2.696.384 4.044.843 2.112 2.505 3.027 4.9 2.357 1.457-.408 2.806-1.206 4.202-1.833.231-.103.451-.229.803-.411-.309 1.487-.566 2.804-.858 4.112-.79 3.548.884 6.848 4.24 8.25 1.154.483 2.345.871 3.807 1.409-.73.458-1.262.877-1.861 1.152-3.106 1.422-5.098 6.77-2.292 10.196.852 1.04 1.756 2.036 2.734 3.167-.345.057-.631.146-.916.143-1.285-.017-2.407.465-3.265 1.344-1.737 1.782-3.339 3.709-3.391 6.37-.024 1.234.232 2.475.376 3.712.028.246.129.484.249.914-.77-.317-1.357-.558-1.943-.798-1.409-.579-2.799-.511-4.138.189-1.162.607-2.302 1.254-3.441 1.902-2.028 1.153-2.959 2.999-3.263 5.23-.065.476-.119.952-.217 1.752-.353-.45-.577-.644-.684-.888-.89-2.024-2.367-3.38-4.487-4.029-.262-.08-.579-.134-.757-.313-1.568-1.574-3.556-1.217-5.444-1.158-2.078.066-3.729 1.138-5.194 2.533-1.123 1.07-1.225 1.129-2.421 1.543.172-1.61.434-3.217.497-4.833.109-2.829-2.476-5.356-5.291-5.279-.986.027-1.975.055-2.958.136-1.467.12-2.934.279-4.271 1.244-.247-.772.211-1.153.517-1.529 1.001-1.236 1.432-2.695 1.761-4.202.349-1.599-.178-2.858-1.377-3.956-1.298-1.19-2.882-1.779-4.486-2.31-.583-.192-1.278-.045-2.079-.055.174-.71.678-.877 1.131-1.129 1.706-.948 3.181-2.123 4.04-3.962 1.177-2.518.57-5.148-1.615-6.898-.897-.719-1.746-1.5-2.599-2.271-.19-.172-.308-.424-.613-.858 1.002.087 1.793.106 2.567.233 4.848.791 8.672-2.842 7.833-8.406-.114-.75-.43-1.47-.662-2.202-.193-.609-.401-1.214-.696-2.101 1.234.469 2.173.746 3.039 1.169 2.507 1.228 5.103 1.105 7.702.525 1.993-.445 3.085-2.003 3.934-3.702.487-.976.792-2.042 1.207-3.056.115-.282.328-.524.559-.882" fill="#231f20"/><path d="m47.75 24.449c-1.327-4.21-3.157-7.117-5.769-9.471-3.283-2.958-7.157-4.544-11.607-4.851-4.051-.28-7.716.775-11.103 2.855-3.011 1.849-5.252 4.446-6.833 7.62-2.788 5.599-2.437 11.213.234 16.656 2.397 4.882 6.272 8.198 11.584 9.812 3.694 1.123 7.339 1.223 11.007.106 4.374-1.333 7.78-4.02 10.262-7.816 1.35-2.064 2.51-4.287 2.706-6.809.235-3.009.292-6.027-.481-8.102m-11.607 29.416c-1.677-2.432-4-3.089-6.069-3.932-2.854-1.162-5.832-.687-8.573.795-.665.361-1.272.828-2.097 1.371-.021-1.176-.003-2.176-.063-3.172-.161-2.68-2.968-5.46-5.619-5.482-1.797-.015-3.595.132-5.554.213.298-1.105.593-2.123.847-3.151.616-2.491-.358-4.674-2.628-5.953-1.053-.592-2.101-1.194-3.09-1.755.669-.81 1.559-1.753 2.294-2.805 2.395-3.429 1.787-6.768-1.619-9.271-.126-.092-.228-.215-.564-.538 3.413.267 5.913-1.153 7.489-3.732 1.549-2.535 1.556-5.398.343-8.157 1.246.34 2.42.76 3.631.968 1.801.311 3.635.176 5.387-.282 2.509-.656 4.112-2.402 5.082-4.76.205-.498.362-1.016.554-1.561 1.399.975 2.678 1.919 4.01 2.782 2.751 1.78 5.463 1.696 8.094-.29.437-.33.877-.654 1.32-.976.034-.025.099-.008.277-.017-.165 1.733.491 3.277 1.084 4.852.43 1.146 1.234 1.812 2.332 2.13 1.229.356 2.477.456 3.711-.087.895-.394 1.817-.728 2.803-1.12-.786 2.416-1.346 4.783.044 7.22 1.323 2.319 3.348 3.684 5.837 4.779-2.349 1.577-3.575 3.696-3.823 6.356-.243 2.631.815 4.797 2.747 6.806-2.193 1.182-3.836 2.707-4.946 4.79-1.114 2.089-1.684 4.256-1.202 6.79-2.734-.77-4.89.273-7.078 1.513-2.204 1.249-4.203 2.585-4.961 5.676" fill="#ffd900"/><g fill="#231f20"><path d="m12.658 34.468c.33.817.6 1.726 1.04 2.543 4.592 8.531 15.136 12.374 23.776 7.959 5.419-2.769 8.484-7.116 9.447-13.023.658-4.042-.188-7.849-2.119-11.42-1.711-3.163-4.144-5.676-7.288-7.394-3.425-1.872-7.114-2.435-10.987-1.756-5.782 1.014-10.143 4.144-12.925 9.207-2.401 4.371-2.702 9.076-.944 13.884m35.092-10.019c.773 2.076.716 5.093.481 8.102-.197 2.522-1.356 4.745-2.706 6.81-2.482 3.795-5.888 6.482-10.263 7.815-3.667 1.117-7.312 1.018-11.006-.105-5.312-1.615-9.187-4.93-11.584-9.813-2.671-5.442-3.022-11.057-.234-16.655 1.581-3.175 3.822-5.772 6.833-7.62 3.387-2.08 7.052-3.135 11.103-2.856 4.45.308 8.324 1.894 11.607 4.852 2.612 2.353 4.442 5.26 5.769 9.47"/><path d="m22.528 39.244c-.28.116-.477.198-.686.285-.418-.763-.11-1.367.091-1.92.177-.481.917-.345.989.174.13.953.764 1.409 1.326 1.88 1.549 1.299 3.232 1.93 5.108 1.956 1.5.021 2.907-.181 4.266-.725 1.442-.578 2.656-1.514 3.652-2.791.665-.851.676-1.574.059-2.729.714-.471 1.405-.227 2.032.344.395.359.832.82.395 1.605-.288-.227-.559-.441-.858-.678-.005.008-.08.089-.101.19-.324 1.503-1.336 2.422-2.188 3.453-.361.437-.967.609-1.461.903-2.611 1.554-5.436 1.891-8.463.93-1.568-.497-2.898-1.568-4.161-2.877"/><path d="m27.094 22.172c0 1.377-.602 2.494-1.343 2.494-.742 0-1.344-1.117-1.344-2.494 0-1.378.602-2.494 1.344-2.494.741 0 1.343 1.116 1.343 2.494"/><path d="m34.385 21.212c0 1.378-.601 2.494-1.343 2.494-.741 0-1.343-1.116-1.343-2.494 0-1.377.602-2.494 1.343-2.494.742 0 1.343 1.117 1.343 2.494"/></g></g></svg>