<svg clip-rule="evenodd" fill-rule="evenodd" stroke-linejoin="round" stroke-miterlimit="2" viewBox="0 0 57 51" xmlns="http://www.w3.org/2000/svg"><g fill-rule="nonzero"><g fill="#fff"><path d="m25.737 13.684c-.029-.271-.043-.54-.047-.804-.15.056-.322.1-.515.115zm23.543 7.527c.507.699.517 1.504.031 2.396-.19.349-.345.707-.459 1.062-.289.897-.378 1.749-.265 2.57.138-1.902.694-3.708 1.662-5.393-.329-.22-.65-.433-.969-.635m-29.158 23.865c.14.055.212.065.248.065.261-.167.315-.341.317-.551.002-.688-.087-1.416-.286-2.276-.273-.029-.53-.069-.771-.106-.077-.012-.151-.024-.225-.035.239 1.008.475 1.965.717 2.903m11.357-7.156c.377 0 .749.111 1.104.329l.624.385.082.729.016.115c.023.157.054.372.05.62-.005.312-.03.684-.175 1.067-.494 1.298-.48 2.704-.338 4.08.025-.791.182-1.523.324-2.178.129-.604.252-1.175.258-1.71.007-.544.146-1.023.258-1.409.037-.124.073-.246.1-.368l.262-1.128 1.241-.039c.987 0 2.034.654 2.147 2.114.102 1.315.682 2.505 1.296 3.766.035.071.068.134.102.188-.002-.369-.123-.803-.298-1.391-.162-.549-.333-1.029-.503-1.51-.147-.419-.296-.84-.43-1.265-.308-.972-.233-1.867.225-2.659l.595-1.031 1.14.34c.079.024.125.027.147.027.198 0 .673-.685.928-1.053l.044-.063c.17-.245.328-.565.495-.902.136-.275.273-.549.422-.811.547-.953 1.101-1.899 1.65-2.837l.015-.028c-.556-.433-1.116-.9-1.602-1.522-.473-.608-.814-1.273-1.126-1.931-.56.197-1.057.308-1.534.308-.907 0-1.667-.4-2.258-1.188l-1.362-1.813 2.199-.554c.457-.115.879-.145 1.251-.172.726-.052.745-.086.819-.213l.28-.482.526-.184c.157-.055.256-.38.435-1.138.076-.324.162-.69.283-1.064l1.408-4.361 1.456 4.345c.04.121.075.214.104.291.075.204.154.415.188.691.008.069.015.136.02.203.568-.628 1.253-1.207 2.057-1.74.158-.104.637-.42 1.267-.42.075 0 .151.004.224.013-1.486-.938-3.031-2.077-4.788-3.526-.909-.75-1.848-1.432-2.842-2.155-.504-.367-1.008-.735-1.507-1.11-.13-.097-.256-.202-.38-.308-.078-.066-.185-.156-.259-.21l-.048.007-.136.002c-.588 0-1.14-.292-1.476-.782-.074-.111-.137-.227-.187-.349l-1.168.485-.02-.12c.005.27.037 2.003.037 2.003.012.54-.116.998-.381 1.357-.152.205-.703.857-1.564.857h-.212l-.234-.062c-.729-.21-1.162-.869-1.324-1.415-.145-.485-.032-.902.027-1.096.021-.207.047-.415.073-.623.059-.469.114-.911.088-1.283-.123-1.74-.292-3.278-.517-4.704-.074-.472-.167-.941-.272-1.415-.539 1.142-.828 2.399-1.055 3.621-.198 1.06-.35 2.127-.511 3.256-.074.508-.147 1.02-.225 1.538l-.532 3.515-2.042-2.676-3.463-.664c-.124-.024-.224-.037-.309-.048-.266-.037-.598-.081-.957-.289-.209-.121-.457-.175-.804-.175-.193 0-.399.016-.588.036-.009.037-.251 1.197-.251 1.197l-1.086.121c-.165.018-.34.023-.517.023 0 0-.197-.001-.201-.001l-.201.134c-1.214.809-2.361 1.572-3.355 2.51l-.123.117c-.577.549-1.296 1.231-2.354 1.44-1.058.206-2.031.912-2.936 1.617-1.389 1.081-2.087 2.066-2.336 3.297-.586 2.9-.016 5.387 1.74 7.604.339.429.744.93 1.175 1.407.384.427.774.849 1.163 1.27.573.62 1.145 1.241 1.705 1.878.449.51.755 1.143.84 1.735.094.657.121 1.363.081 2.103.039-.283.077-.567.119-.85.285-1.962 1.748-2.062 2.038-2.062.399 0 .797.114 1.217.349l.143.08c.128.072.322.182.397.204 1.296.101 2.783.182 4.625.249.371.013.743.017 1.115.017.309 0 1.584-.011 1.915-.011h1.148l.119.433c.042-.042.083-.085.123-.131.543-.604 1.179-.91 1.891-.91.309 0 .627.061.948.182l.81.306c.278-.211.683-.422 1.208-.422m.638 12.042c-1.165 0-2.533-.711-2.88-2.707-.16-.91-.242-1.907-.254-3.047-.002-.279.004-.557.014-.833-.469-.001-1.057-.121-1.623-.559l-.007.004c-.628.352-1.222.686-1.919.686-.451 0-.821-.125-1.146-.328.033.506.064 1.026.07 1.555.016 1.195-.435 2.345-1.235 3.156-.738.747-1.709 1.158-2.734 1.158l-.107-.002c-2.66-.072-3.587-1.666-3.988-3.111-.339.761-.874 1.449-1.62 2.085-.462.394-1.069.63-1.626.63-.247 0-.485-.045-.705-.133-1.754-.696-2.761-2.042-2.759-3.69.001-1.021.075-2.031.147-3.007.029-.383.057-.765.081-1.148.014-.234.052-.466.091-.695.055-.31.051-.518-.413-1.036-1.631-1.821-2.938-3.391-4.113-4.942-.517-.68-.862-1.433-1.186-2.17-.094.263-.193.529-.303.791l-1.106 2.649-1.552-2.414c-.051-.079-.099-.146-.143-.208-.139-.194-.311-.436-.433-.765-1.063-2.872-.311-5.556.348-7.325.811-2.182 2.025-3.524 3.701-4.087 2.276-2.633 4.526-4.129 7.075-4.703.085-.053.247-.191.347-.276l.592-.505c1.414-1.209 2.877-2.46 4.582-3.421l.309-.177c.678-.392 1.429-.824 2.343-.999.198-.271.425-.477.662-.632l-.399-.363 1.014-1.116c.902-.991 1.901-1.318 2.731-1.419-.033-.68.191-1.251.67-1.704.435-.411.988-.637 1.557-.637.376 0 .748.097 1.087.285.593-1.457 1.502-2.755 2.713-3.871l.063-.057c.29-.273.831-.78 1.666-.78.359 0 .719.101 1.04.293 1.031.616 1.142 1.727 1.19 2.202.002.022.005.044.007.067.06-.01.122-.019.185-.026l.81-.087.516.63c.058.071.112.142.162.214.256-.136.564-.225.933-.225.132 0 .271.012.42.042.18.035.402.102.628.229.415-.368.831-.732 1.254-1.086.556-.465 1.086-.828 1.621-1.11.379-.2.765-.301 1.146-.301.55 0 1.062.214 1.444.603.316.323.688.918.667 1.926-.015.734-.008 1.469-.003 2.203l.002.253c.014 1.91-.299 3.875-.953 5.994.444.289.896.592 1.339.93.615.471 1.216.967 1.816 1.463.401.331.801.664 1.207.987.486.387.892.679 1.276.919.407.252.819.492 1.226.724.362-.397.738-.798 1.151-1.168.571-.516 1.234-.805 1.806-1.02.232-.088.483-.132.747-.132.695 0 1.331.295 1.7.789.581.775.354 1.87.059 2.417-.286.529-.423 1.026-.419 1.529 1.689 1.02 2.375 2.669 2.041 4.913-.347 2.337-1.198 4.551-2.53 6.581-.099.15-.212.287-.327.419-.369.419-1.227 1.392-2.532 1.392-.229 0-.456-.03-.679-.09-.699.438-1.443.659-2.217.659-.446 0-.91-.075-1.375-.224-.073-.023-.171-.054-.269-.085-.073.113-.145.232-.198.318-.903 1.47-1.763 3.035-2.595 4.549l-.078.143c-.596 1.084-1.316 1.883-2.194 2.433.11.37.36 1.218.36 1.218.354 1.204.756 2.569.359 4.115-.176.686-.488 1.388-.901 2.028-.527.815-1.336 1.283-2.223 1.283-.469 0-.931-.128-1.374-.379-.478-.272-1.182-.673-1.836-1.312-.638 1.241-1.719 2.133-3.112 2.52-.307.085-.613.128-.909.128"/><path d="m31.141 13.233c-.037-.931-.118-1.862-.202-2.749-.069.492-.093 1-.065 1.538.005.052.008.104.01.159.013.337.028.734.054.974.059.024.129.051.203.078m14.233 15.89c.275.212.551.425.818.652-.472-1.098-.695-2.237-.669-3.409-.159.5-.242 1.037-.254 1.621-.003.137-.013.276-.028.463l-.042.538c.058.045.117.089.175.135m-12.989 19.891c-1.251.001-2.22-.954-2.411-2.377-.176-1.307-.327-2.757-.16-4.246-.163.037-.334.056-.51.056-.483 0-.956-.139-1.329-.392-.076-.051-.191-.138-.309-.261-.558.352-1.17.595-1.835.731l-1.38.282-.365-1.324c-.258.003-.515.005-.769.005-.41 0-.818-.005-1.225-.019-1.887-.069-3.417-.153-4.815-.266-.232-.019-.449-.069-.65-.135-.015.114-.03.227-.045.341-.094.721-.189 1.442-.308 2.157-.168 1.019-.61 1.985-1.352 2.954-.674.882-1.473 1.013-1.889 1.013-.454.001-1.32-.153-2.027-1.183-.762-1.112-.687-2.342-.647-3.002.032-.523.092-1.045.152-1.566.054-.456.108-.912.137-1.369.036-.578.019-1.116-.05-1.603-.004-.002-.05-.093-.12-.172-.543-.618-1.1-1.221-1.656-1.823-.398-.431-.795-.861-1.188-1.297-.487-.539-.93-1.088-1.298-1.554-2.309-2.913-3.094-6.302-2.332-10.073.511-2.527 2.106-4.042 3.439-5.079 1.14-.887 2.499-1.863 4.208-2.196.197-.039.546-.373.855-.666l.132-.125c1.18-1.113 2.488-1.984 3.754-2.827l.35-.233c.329-.22.674-.321.977-.366.35-.672.964-1.215 2.138-1.348.198-.022.42-.045.658-.058l.535-.505c.245-.232.517-.411.812-.539l-1.429-1.207 2.348-.926c.7-.275 1.341-.41 1.962-.41h.048c-.015-.183-.015-.378.005-.585l.142-1.425 1.43.069c.496.024.897.173 1.221.364.356-1.008.835-2.009 1.511-2.927.372-.506 1.03-1.4 2.268-1.4.252 0 .51.04.767.119l.837.26.189.854c.067.3.137.6.208.9l.965-1.626 1.092 2.79 1.574-1.673.854 2.259c.292.774.318 1.527.238 2.245l.616.461c.768.575 1.068 1.428.839 2.304.318.181.575.399.781.574.078.067.158.135.24.197.487.365.978.724 1.471 1.081.985.718 2.005 1.46 2.985 2.268 1.973 1.627 3.644 2.827 5.26 3.777.676.398 1.331.84 1.965 1.267.29.195.585.393.887.591l1.261.827-1.154 1.757c-1.259 1.889-1.8 3.899-1.653 6.146.111 1.72-.834 3.036-2.354 3.278-.124.019-.245.028-.362.028-.463 0-1.306-.153-1.988-1.117l-1.04 1.779c-.544.929-1.093 1.868-1.635 2.813-.121.211-.228.43-.336.649-.199.401-.424.856-.721 1.284l-.042.061c-.527.761-1.273 1.837-2.486 2.214.079.236.162.471.245.706.187.529.373 1.059.534 1.599.331 1.118.763 2.57.052 4.126-.247.541-.761 1.666-2.091 1.666-.419 0-.797-.124-1.143-.257-.981-.376-1.703-1.062-2.206-2.097-.053-.109-.107-.218-.16-.329-.003.083-.005.166-.003.248.007.256-.026.916-.473 1.433-.088.101-.173.206-.258.309-.339.413-.723.881-1.249 1.249-.464.322-.978.492-1.489.492"/><path d="m20.37 48.156c-.78 0-1.464-.298-1.972-.557-.741-.377-1.04-1.165-1.152-1.601-.344-1.328-.677-2.694-1.018-4.173-.086-.372-.068-.705-.054-.947.002-.06.006-.122.006-.184v-1.16l1.122-.297c.405-.107.821-.159 1.272-.159.55 0 1.064.08 1.518.15.38.059.739.115 1.058.115.083 0 .167-.004.251-.013l1.257-.139.356 1.214c.323 1.107.693 2.584.687 4.197-.005 1.295-.617 2.39-1.722 3.086-.494.31-1.035.468-1.609.468"/><path d="m50.81 31.621c-.866-.417-1.393-1.177-1.484-2.14-.289-3.055.434-5.805 2.15-8.174.733-1.012 1.595-1.164 2.043-1.164 1.166 0 2.1.891 2.38 2.269.185.91.326 2.115-.229 3.351-.134.298-.251.606-.37.914l-.182.467-.576 1.451-.02-.009c-.468 1.33-1.231 2.326-2.27 2.963l-.702.429z"/><path d="m37.052 11.387.118-.891c.287-2.183.997-3.92 2.169-5.311.545-.646.828-.83 1.594-1.04l1.318-.359.531 1.264c.756 1.983.034 6.125-1.354 7.777l-.902 1.071z"/><path d="m47.207 32.13c-1.377-.089-2.332-.708-3.098-1.205l-.078-.051c-.846-.548-1.272-1.433-1.201-2.492.186-2.777 1.227-4.865 3.179-6.38l3.877-3.008-1.519 4.666c-.755 2.316-.66 4.322.296 6.314l1.115 2.323z"/><path d="m.854 29.881c-.171-2.982.911-6.839 3.252-8.111l2.508-1.364-.767 7.547-4.774 5.753z"/><path d="m35.663 8.671c-.099-1.454.579-2.47 1.074-3.211l.18-.272c.728-1.131 1.679-1.84 2.599-2.525.273-.204.553-.412.832-.636l1.932-1.562.994 4.924-1.229.438c-.339.121-.838.385-1.255 1.27-.108.231-.237.451-.368.669l-.074.123c-.863 1.46-1.203 1.719-2.796 2.137l-1.762.461z"/><path d="m49.111 20.529.272-1.199c.49-2.164 1.813-3.561 3.37-3.561l.115.003 1.594.072-.696 6.792z"/><path d="m31.88 16.494c-.382 0-.785-.079-1.268-.248-2.367-.83-2.642-1.488-2.739-3.918-.166-2.518.529-4.481 1.304-6.228.193-.434.704-1.586 2.038-1.586.155 0 .313.017.47.053.977.218 1.681 1.041 1.837 2.147.186 1.324.31 2.348.403 3.32.105 1.102.21 2.28.242 3.484.019.674-.034 1.649-.701 2.333-.285.293-.792.643-1.586.643"/><path d="m34.667 18.144c-.049-.067-.098-.124-.144-.175-.204-.238-.514-.597-.606-1.156-.13-.803-.199-1.529-.207-2.217-.009-.638.25-1.27.709-1.736.398-.404.901-.627 1.417-.627h.137l.181.029c.391.073 1.67.444 1.773 2.211l.006.112c.058.955.137 2.263-.838 3.573l-1.224 1.642z"/><path d="m38.85 17.623c-.658 0-1.333-.358-1.678-.892-.264-.406-.581-.955-.708-1.609-.209-1.081-.014-2.085.581-2.987l1.049-1.588 1.305 1.384c1.007 1.066 1.463 2.335 1.356 3.772-.048.656-.491 1.482-1.242 1.791-.205.085-.429.129-.663.129"/><path d="m51.5 29.368c-.818-.241-1.684-1.027-1.433-2.449l.067-.397c.208-1.229.443-2.622 1.325-3.833l.593-.813 2.518.607-.082 1.265c-.007.11-.008.223-.011.335-.006.342-.014.768-.127 1.213-.194.762-.426 1.504-.649 2.221l-.19.609c-.099.319-.264.543-.335.638l-.605.976z"/><path d="m31.416 15.623c-.706 0-1.708-.38-2.257-1.106-.326-.429-.538-.964-.585-1.468-.228-2.494.141-4.562 1.129-6.327.181-.321.417-.503.543-.601l.079-.063 1.996-1.743.478 2.606c.049.268.101.527.152.781.116.579.236 1.178.306 1.796.12 1.077.172 2.158.222 3.203.03.624.087 1.791-.94 2.563-.217.164-.588.359-1.123.359"/></g><path d="m52.8 17.278c-.804-.037-1.604.871-1.948 2.386.531.24 1.076.486 1.628.736.117-1.136.219-2.132.32-3.122m-11.506-14.079c-1.16.937-2.332 1.597-3.11 2.806-.487.754-1.091 1.482-1.018 2.563 1.217-.318 1.217-.317 1.884-1.446.13-.219.267-.435.376-.666.468-.995 1.151-1.706 2.113-2.048-.077-.377-.142-.7-.245-1.209m-36.468 19.895c-1.535.834-2.631 3.843-2.467 6.7.71-.855 1.426-1.718 2.034-2.45.15-1.474.288-2.833.433-4.25m42.478 7.532c-1.152-2.398-1.229-4.799-.371-7.434-1.77 1.374-2.456 3.166-2.599 5.291-.033.483.11.863.516 1.126.722.468 1.431.95 2.454 1.017m-7.031-18.769c1.035-1.231 1.651-4.826 1.1-6.269-.504.138-.511.129-.883.57-1.055 1.252-1.595 2.781-1.827 4.535.503.363 1.025.74 1.61 1.164m13.364 14.696c.027.011.054.023.08.034.192-.481.367-.972.577-1.441.358-.796.295-1.607.127-2.435-.214-1.055-1.021-1.49-1.724-.52-1.512 2.087-2.124 4.467-1.87 7.149.043.461.269.746.637.923.913-.56 1.421-1.455 1.72-2.434-.154-.287-.405-.539-.376-.739.104-.739.269-1.472.478-2.182.092-.31.207-.706.631-.827.024.246.081.439.054.614-.096.623-.22 1.239-.334 1.858m-35.95 14.142c0 .279-.047.551.008.791.32 1.383.655 2.764 1.01 4.137.061.238.201.544.376.634.67.341 1.387.601 2.094.156.61-.384 1.014-.989 1.018-1.816.006-1.287-.262-2.519-.626-3.768-1.317.145-2.541-.489-3.88-.134m20.257-14.635c1.117-.281 2.307.116 3.006-1.091 1.264-.442 1.229-1.844 1.655-3.16.126.375.206.526.226.688.097.793-.158 1.476-.495 2.151-.154.308-.36.771-.262 1.018.401 1.019.837 2.037 1.641 2.954.023-.319.043-.491.046-.665.062-2.812 1.467-4.595 3.474-5.924.285-.189.557-.278.805.04.22.283.102.528-.053.814-.227.416-.423.863-.571 1.323-.661 2.055-.478 4.006.601 5.837.24.409.552.692.983.624.746-.118 1.144-.784 1.085-1.69-.172-2.642.51-4.988 1.905-7.083.113-.169.224-.34.319-.484-.966-.634-1.857-1.271-2.789-1.82-1.918-1.128-3.708-2.473-5.455-3.914-1.423-1.173-2.936-2.204-4.403-3.307-.515-.387-.938-.94-1.674-.816-.289.049-.449-.297-.309-.656.094-.24.226-.459.337-.692.163-.342.144-.643-.212-.909-.214.209-.415.466-.663.631-.247.165-.542.239-.863.372-.038-.221-.098-.369-.079-.502.074-.521.158-1.04.265-1.553.216-1.049.218-1.695-.02-2.328-.519.551-.615 1.317-.794 2.039-.191.77-.433 1.497-1.158 1.983-.349-1.492.144-3.025-.437-4.508-.778 1.311-.641 2.665-.571 4.028.084 1.623.095 3.25.13 4.875.003.147-.014.331-.088.433-.092.123-.275.269-.382.239-.123-.036-.247-.237-.295-.396-.035-.121.061-.286.075-.434.069-.748.226-1.507.172-2.244-.113-1.618-.278-3.236-.53-4.833-.215-1.365-.58-2.7-.877-4.039-.693-.214-1.033.27-1.375.735-1.167 1.586-1.68 3.501-2.047 5.469-.294 1.581-.493 3.186-.744 4.844-.105-.137-.245-.235-.261-.355-.267-1.951.357-3.802.545-5.774-.487-.323-.795-.975-1.511-1.009-.066.66.269 1.105.526 1.568.186.335.634.614.321 1.058-.348.498-.634-.033-.928-.214-.087-.054-.163-.135-.254-.178-.815-.398-1.621-.383-2.628.014.453.381.728.646 1.031.86.279.198.611.306.873.526.163.137.24.408.355.62-.191.095-.386.278-.572.267-.496-.029-.987-.142-1.48-.224-.522-.087-1.026-.088-1.456.318.365.448.69.848 1.176 1.443-.427-.081-.635-.068-.795-.161-.781-.452-1.614-.412-2.439-.319-.785.089-1.021.385-1.212 1.306-.407.044-.904-.057-1.235.164-1.342.896-2.715 1.779-3.906 2.902-.551.521-1.052 1.04-1.733 1.174-1.355.265-2.481 1.058-3.572 1.908-1.335 1.039-2.502 2.285-2.886 4.187-.678 3.348.02 6.296 2.036 8.839.4.506.808 1.006 1.235 1.481.947 1.05 1.921 2.069 2.856 3.133.223.253.432.613.481.954.09.626.102 1.277.062 1.911-.063.981-.229 1.952-.289 2.932-.043.711-.044 1.432.386 2.058.446.65 1.009.718 1.476.107.509-.666.917-1.409 1.062-2.284.19-1.15.317-2.313.486-3.469.111-.767.442-.94 1.032-.612.349.194.721.43 1.094.46 1.58.129 3.165.205 4.749.262 1.016.037 2.034.007 3.083.007.099.356.195.707.298 1.08.876-.179 1.611-.605 2.215-1.277.35-.39.694-.511 1.183-.326-.016.218.016.43-.056.575-.136.274-.344.589-.05.787.215.146.612.183.822.051.486-.303.932-.707 1.343-1.134.249-.259.448-.413.806-.193.019.176.057.36.055.542-.003.186-.014.388-.077.555-.721 1.896-.565 3.853-.302 5.808.129.96.814 1.356 1.543.849.47-.327.835-.852 1.229-1.307.079-.091.111-.273.107-.411-.034-1.439.567-2.758.584-4.193.006-.491.209-.979.32-1.455.502-.016.647.332.678.723.123 1.598.779 2.946 1.443 4.31.329.676.763 1.108 1.392 1.35.775.298.938.21 1.322-.628.486-1.064.17-2.072-.126-3.072-.275-.927-.633-1.822-.925-2.743-.147-.462-.198-.947.094-1.45 1.376.41 2.085-.663 2.787-1.675.385-.556.644-1.224.987-1.823.769-1.342 1.554-2.672 2.319-3.983-.817-.695-1.73-1.252-2.376-2.081-.663-.849-1.065-1.963-1.575-2.948-2.008.932-2.7.995-3.327.16m-15.587-16.768c1.013-1.114 2.169-1.008 3.417-.908-.079-.431-.125-.825-.227-1.199-.097-.353-.139-.682.129-.936.282-.264.627-.295.937-.095.46.297.894.648 1.406 1.025.097-.233.232-.48.306-.748.486-1.796 1.428-3.223 2.696-4.391.283-.26.58-.594.974-.359.35.209.419.611.463 1.058.105 1.035.281 2.059.456 3.285.537-.744.455-1.794 1.398-1.895.697.851.409 2.049.753 3.064.291-.643.565-1.235.828-1.833.17-.388.352-.767.807-.677.398.077.496.447.549.841.008.065.054.124.082.183.834-.737 1.659-1.492 2.509-2.204.426-.355.88-.681 1.358-.933.653-.345 1.064.033 1.047.864-.017.833-.008 1.665-.002 2.498.015 2.074-.393 4.052-1.027 5.981-.057.172-.113.345-.207.632.75.503 1.505.957 2.211 1.497 1.019.779 1.994 1.63 3 2.431.458.366.929.715 1.42 1.02.777.484 1.575.923 2.322 1.355.643-.689 1.213-1.378 1.857-1.958.379-.341.865-.555 1.331-.731.211-.079.583-.016.708.151.111.146.056.584-.06.799-.533.985-.739 2.013-.505 3.124.071.072.113.142.17.168 1.495.682 2.076 1.74 1.792 3.643-.326 2.194-1.126 4.188-2.299 5.977-.059.091-.131.173-.201.252-.624.708-1.291 1.23-2.208.583-.183.117-.356.222-.523.339-.779.542-1.576.661-2.479.373-1.355-.434-1.413-.42-2.21.879-.95 1.547-1.829 3.153-2.71 4.755-.471.856-1.056 1.546-1.855 1.988-.234.131-.468.262-.807.452.23.77.453 1.508.67 2.248.327 1.116.682 2.245.379 3.43-.145.561-.403 1.112-.708 1.584-.396.614-.987.751-1.586.411-1.043-.593-2.038-1.262-2.505-2.598-.097-.275-.278-.511-.435-.791-.45.212-.485.646-.527 1.09-.165 1.747-1.157 2.957-2.629 3.366-.83.23-1.668-.044-1.902-1.386-.159-.917-.221-1.867-.23-2.804-.01-.975.096-1.951.155-2.996-1 .6-2.073 1.277-2.928-.303-.376.212-.731.412-1.087.613-1.301.729-1.387.711-2.386-.478-.491-.044-.978-.087-1.526-.136 0 .405-.013.775.004 1.144.042.905.131 1.81.143 2.716.019 1.586-1.126 2.826-2.527 2.786-1.607-.044-2.344-.727-2.702-2.536-.24-1.216-.506-2.428-.666-3.659-.079-.601-.279-.883-.876-.959-.074.36-.143.719-.223 1.074-.243 1.094-.472 2.195-.741 3.281-.227.912-.777 1.584-1.421 2.134-.209.178-.576.33-.794.243-.79-.313-1.811-.961-1.811-2.289.002-1.355.141-2.709.226-4.063.012-.188.045-.374.077-.56.166-.949-.186-1.606-.781-2.27-1.396-1.559-2.758-3.163-4.036-4.848-.573-.755-.933-1.729-1.342-2.632-.273-.603-.462-1.253-.711-1.944-1.229.724-1.46 2.174-2.026 3.528-.188-.292-.351-.466-.429-.679-.798-2.154-.412-4.241.345-6.277.591-1.587 1.468-2.865 3.057-3.269.138-.035.254-.222.368-.353 1.777-2.057 3.771-3.677 6.326-4.236.334-.073.652-.344.936-.585 1.59-1.349 3.136-2.746 4.94-3.763.874-.493 1.679-1.035 2.676-1.06.085-.002.22-.065.247-.14.353-.973 1.135-.885 1.839-.969.317-.037.641-.006 1.093-.006-.578-.525-1.035-.941-1.552-1.409" fill="#231f20"/><path d="m38.304 12.966c-.408.618-.481 1.246-.36 1.87.074.384.283.752.492 1.075.091.14.368.246.503.19.144-.059.3-.322.314-.509.076-1.025-.243-1.878-.949-2.626m-2.418 4.292c.676-.907.589-1.804.537-2.697-.025-.417-.15-.744-.54-.815-.28-.051-.672.382-.666.83.009.667.082 1.339.189 1.995.034.212.26.385.48.687m-6.509-5.026c0-.155-.003-.08.001-.004.078 2.001.09 2.02 1.733 2.595 1.156.405 1.586.083 1.55-1.263-.03-1.13-.13-2.259-.237-3.383-.103-1.088-.243-2.172-.393-3.252-.061-.43-.272-.797-.676-.888-.454-.102-.63.292-.8.675-.739 1.663-1.32 3.371-1.178 5.52m8.568 13.828c.627.835 1.318.772 3.328-.16.509.985.911 2.099 1.574 2.949.646.828 1.559 1.385 2.376 2.08-.765 1.311-1.55 2.641-2.319 3.984-.343.598-.602 1.266-.987 1.823-.702 1.011-1.411 2.084-2.788 1.674-.291.502-.24.988-.093 1.45.292.922.649 1.816.924 2.743.297 1 .612 2.008.127 3.071-.384.84-.548.928-1.322.629-.629-.242-1.063-.674-1.392-1.35-.664-1.364-1.32-2.712-1.443-4.31-.031-.391-.177-.739-.679-.722-.11.476-.313.963-.319 1.453-.018 1.436-.619 2.756-.584 4.194.004.138-.028.32-.107.411-.394.456-.76.98-1.229 1.307-.729.507-1.414.112-1.543-.849-.263-1.955-.419-3.912.302-5.808.063-.167.073-.369.077-.555.002-.182-.037-.367-.056-.541-.357-.22-.557-.068-.806.192-.41.427-.857.831-1.342 1.134-.211.132-.607.095-.823-.051-.293-.199-.085-.513.051-.787.072-.145.039-.357.056-.575-.49-.185-.833-.064-1.184.326-.604.672-1.338 1.098-2.214 1.277-.103-.373-.2-.724-.298-1.08-1.049 0-2.067.03-3.084-.007-1.583-.057-3.168-.134-4.748-.261-.374-.03-.745-.267-1.095-.462-.589-.327-.92-.154-1.031.613-.169 1.156-.296 2.319-.486 3.469-.145.875-.553 1.619-1.062 2.284-.468.61-1.03.543-1.476-.107-.43-.627-.43-1.347-.386-2.058.06-.98.226-1.951.288-2.931.041-.635.028-1.286-.062-1.912-.049-.341-.257-.701-.48-.954-.935-1.064-1.909-2.083-2.856-3.134-.428-.474-.835-.975-1.235-1.48-2.017-2.544-2.714-5.491-2.037-8.838.385-1.903 1.551-3.15 2.887-4.189 1.09-.848 2.217-1.642 3.572-1.907.68-.133 1.181-.653 1.733-1.174 1.191-1.123 2.564-2.005 3.905-2.902.331-.221.829-.12 1.236-.164.192-.922.426-1.217 1.212-1.306.824-.093 1.658-.133 2.439.319.16.093.369.08.795.162-.486-.596-.811-.996-1.176-1.444.429-.406.934-.405 1.456-.318.493.082.984.194 1.48.224.186.012.381-.172.572-.268-.116-.211-.192-.482-.355-.619-.263-.22-.595-.328-.874-.526-.302-.214-.578-.478-1.03-.861 1.006-.395 1.813-.411 2.628-.014.09.044.167.125.254.179.294.181.58.712.928.215.313-.445-.135-.724-.321-1.06-.257-.462-.592-.907-.526-1.568.716.035 1.024.688 1.511 1.009-.188 1.973-.813 3.824-.545 5.776.016.119.156.217.26.354.252-1.657.451-3.262.745-4.843.366-1.969.88-3.884 2.046-5.47.343-.465.683-.949 1.376-.734.297 1.338.662 2.673.876 4.039.252 1.596.417 3.214.531 4.831.053.739-.103 1.497-.172 2.244-.014.149-.111.314-.075.435.047.159.172.36.295.396.106.03.29-.116.382-.239.074-.102.09-.286.087-.432-.034-1.626-.045-3.253-.129-4.876-.07-1.363-.207-2.717.57-4.028.581 1.483.089 3.016.438 4.508.724-.486.967-1.213 1.158-1.983.178-.722.275-1.487.793-2.039.239.634.237 1.279.02 2.328-.106.513-.191 1.032-.264 1.553-.019.133.041.281.078.502.322-.133.617-.206.864-.371.248-.166.449-.423.663-.632.355.266.375.567.211.91-.11.231-.243.451-.336.691-.14.359.02.705.308.656.737-.124 1.16.429 1.675.816 1.467 1.103 2.979 2.134 4.403 3.307 1.747 1.441 3.536 2.786 5.455 3.914.931.549 1.822 1.186 2.788 1.82-.094.144-.205.315-.318.485-1.396 2.094-2.077 4.439-1.905 7.082.058.906-.339 1.572-1.085 1.69-.432.068-.743-.214-.984-.624-1.079-1.832-1.261-3.782-.6-5.837.148-.459.344-.907.57-1.323.157-.286.273-.531.053-.814-.248-.317-.519-.229-.804-.04-2.007 1.33-3.412 3.112-3.474 5.925-.003.173-.023.345-.046.665-.804-.918-1.24-1.936-1.641-2.955-.099-.248.108-.71.262-1.018.336-.675.592-1.359.495-2.151-.021-.161-.1-.313-.226-.688-.426 1.316-.391 2.719-1.655 3.161-.699 1.206-1.889.809-3.006 1.09" fill="#676756"/><path d="m17.688 40.695c1.339-.354 2.562.28 3.879.134.365 1.249.632 2.481.627 3.768-.004.827-.409 1.432-1.018 1.816-.707.444-1.424.185-2.093-.156-.177-.09-.316-.396-.377-.634-.355-1.373-.69-2.754-1.009-4.138-.056-.24-.009-.51-.009-.79" fill="#676756"/><path d="m52.984 23.651c-.102-.025-.205-.049-.307-.074-.754 1.034-.904 2.337-1.126 3.604-.052.293-.041.619.375.742.035-.057.113-.138.144-.24.282-.916.582-1.827.818-2.757.103-.402.068-.848.096-1.275m.653 2.901c.114-.618.238-1.235.333-1.857.028-.175-.029-.367-.053-.615-.423.122-.539.518-.631.829-.209.709-.373 1.442-.478 2.181-.029.201.222.452.376.739-.298.979-.806 1.874-1.72 2.434-.368-.177-.594-.462-.637-.924-.254-2.682.358-5.061 1.87-7.148.703-.97 1.511-.535 1.725.52.168.828.23 1.639-.127 2.435-.211.469-.386.96-.577 1.441-.027-.011-.054-.023-.081-.035" fill="#aaaaa0"/><path d="m40.274 11.857c-.586-.424-1.107-.801-1.61-1.165.231-1.754.771-3.282 1.827-4.535.372-.44.379-.432.882-.569.551 1.443-.064 5.038-1.099 6.269" fill="#fabaa5"/><path d="m47.304 30.626c-1.022-.066-1.732-.549-2.454-1.017-.406-.263-.549-.643-.517-1.125.143-2.125.829-3.917 2.6-5.291-.858 2.635-.78 5.035.371 7.433" fill="#fff"/><path d="m4.826 23.094c-.144 1.417-.283 2.776-.432 4.249-.609.733-1.325 1.596-2.035 2.451-.163-2.857.932-5.866 2.467-6.7" fill="#676756"/><path d="m41.295 3.199c.102.509.168.832.244 1.208-.961.343-1.645 1.053-2.113 2.048-.108.232-.246.448-.375.666-.667 1.13-.668 1.129-1.884 1.447-.074-1.082.531-1.81 1.017-2.563.779-1.21 1.951-1.869 3.111-2.806" fill="#676756"/><path d="m52.8 17.278c-.101.99-.203 1.986-.32 3.122-.552-.25-1.097-.496-1.628-.736.344-1.515 1.144-2.423 1.948-2.386" fill="#fff"/><path d="m31.317 7.194c-.156.136-.251.183-.298.265-.938 1.676-1.119 3.528-.942 5.452.022.243.141.509.284.696.276.365 1.04.629 1.273.453.392-.295.364-.787.342-1.234-.05-1.055-.099-2.113-.216-3.16-.091-.806-.283-1.598-.443-2.472m-1.94 5.037c-.142-2.148.44-3.856 1.178-5.52.17-.382.346-.776.8-.674.404.091.615.458.675.888.152 1.08.291 2.164.394 3.251.107 1.125.207 2.254.237 3.383.036 1.347-.393 1.669-1.55 1.264-1.643-.576-1.655-.594-1.733-2.595-.003-.075-.001-.151-.001.003" fill="#231f20"/><path d="m35.886 17.258c-.22-.302-.446-.475-.481-.687-.107-.656-.179-1.328-.188-1.995-.007-.448.385-.881.666-.83.39.072.515.398.539.815.053.893.14 1.79-.536 2.697" fill="#231f20"/><path d="m38.304 12.966c.706.748 1.025 1.601.949 2.626-.014.187-.17.45-.314.509-.135.056-.412-.05-.503-.19-.209-.323-.418-.691-.492-1.075-.121-.624-.048-1.252.36-1.87" fill="#231f20"/><path d="m52.984 23.651c-.028.427.007.873-.096 1.275-.236.93-.536 1.841-.818 2.757-.031.102-.109.183-.144.24-.416-.123-.427-.449-.375-.742.222-1.267.372-2.57 1.126-3.604.102.025.205.049.307.074" fill="#231f20"/><path d="m31.317 7.194c.16.874.352 1.666.443 2.472.117 1.047.166 2.105.216 3.16.022.447.05.939-.342 1.234-.233.176-.997-.088-1.273-.453-.143-.187-.262-.453-.284-.696-.177-1.924.004-3.776.942-5.452.047-.082.142-.129.298-.265" fill="#fabaa5"/></g></svg>