<svg clip-rule="evenodd" fill-rule="evenodd" stroke-linejoin="round" stroke-miterlimit="2" viewBox="0 0 48 46" xmlns="http://www.w3.org/2000/svg"><g fill-rule="nonzero"><g fill="#fff"><path d="m6.838 7.315s-.003-.003-.005-.004zm.036.131.056-.07c-.025-.018-.053-.037-.084-.057 0 .001.024.019.024.019-.012 0-.023.001-.033.002.004.01.013.045.037.106m15.744.475c.216.259.426.508.635.749.06-.081.112-.154.142-.208.048-.092.133-.25.164-.334-.002-.22-.078-.426-.214-.566-.09-.095-.198-.15-.294-.15-.032 0-.066.006-.101.018-.184.063-.342.116-.414.393zm16.448 5.975c.186 0 .37.017.554.054-.026-.363-.055-.727-.083-1.089-.049-.623-.097-1.246-.14-1.869-.291.377-.511.799-.654 1.258-.174.562-.212 1.141-.119 1.679.147-.022.293-.033.442-.033m-30.699 2.809c.09.136.212.25.363.369.24.189.436.239.513.239.007-.001.049-.043.1-.139.113-.214.24-.381.347-.51-.164-.027-.331-.041-.506-.041-.263 0-.531.029-.817.082m-2.215 3.164c.03.329.08.631.151.923.075.31.175.572.306.798.016-.198.045-.381.079-.547v-.004c-.011-.153-.017-.306-.007-.455.018-.281-.021-.374-.021-.375-.186-.102-.355-.216-.508-.34m4.322 1.218c.064.739.323.875.415.923.24.126.453.19.636.19.115 0 .298-.022.553-.213.164-.122.197-.19.197-.192 0 0 .009-.049-.022-.17-.087-.353-.071-.659-.058-.883.002-.048.006-.098.006-.152v-.758c-.538.594-1.135.98-1.727 1.255m1.984-7.638c1.629.157 2.906.988 4.036 1.724.189.122.376.244.564.362.654.41 1.1 1.016 1.459 1.504.628.85.907 1.797 1.154 2.633.073.251.147.502.232.747.229.669.454 1.399.555 2.203.514-.431 1.021-1.003 1.549-1.738.477-.666.823-1.494 1.124-2.688.406-1.613.365-2.693-.136-3.608-.45-.821-.885-1.433-1.33-1.871-.378-.373-.724-.762-1.057-1.137-.629-.708-1.221-1.377-1.894-1.769-.255-.145-.7-.505-.792-1.24l-.03-.127c-.092.003-.283.005-.284.005-.381 0-1.525-.002-2.223-.873-.011-.015-.062-.031-.235-.031l-.083.001c-1.62.028-2.968.47-4.122 1.351-1.234.942-2.099 2.351-2.977 3.869.3-.036.607-.053.924-.053.985 0 1.903.174 2.592.326.385.085.682.248.897.368.026.013.051.028.077.042m2.235 5.9c.946.714 1.484 1.754 1.478 2.856-.004.883-.358 1.718-.987 2.368.294-.14.604-.305.933-.498.479-.279.607-.353.395-1.366-.047-.229-.13-.483-.218-.751-.111-.343-.238-.732-.321-1.155-.294-1.517-1.136-2.288-2.482-2.938-.061.149-.129.291-.2.426zm16.523 20.86c.602 0 1.174.125 1.7.37.261.123.553.18.919.18.338 0 .707-.05 1.023-.098.227-.034.453-.088.679-.141.446-.103.95-.22 1.502-.246.598-.027 1.167-.418 1.839-.996.74-.638 1.197-1.41 1.398-2.362.268-1.274.29-2.129.074-2.95-.151-.577-.254-1.154-.353-1.712-.153-.857-.298-1.667-.587-2.295-.728-1.582-1.971-2.616-3.593-2.991-.812-.187-1.656-.282-2.51-.282-1.282 0-2.596.204-4.017.622-.885.262-1.747.394-2.563.394-1.64 0-3.118-.515-4.409-1.535-.736.521-1.519.779-2.18.997l-.305.102c-.271.093-.545.14-.811.14-.261 0-.51-.045-.741-.129l-.439.285c-.042.853.102 1.675.455 2.55l.999-1.638.838 3.766c.236 1.062.254 1.915.057 2.684-.548 2.13-2.293 3.453-4.554 3.453-.163 0-.33-.007-.501-.021-.109-.009-.215-.014-.32-.014h-.009l.535.434-.057.809c-.012.174-.033.344-.059.507.522-.198 1.056-.296 1.606-.296.521 0 1.053.092 1.584.275.099.035.361.035.447.035l.42-.003c.205 0 .411.005.613.025.117.01.231.017.344.017.574 0 .989-.163 1.389-.546.527-.505.893-1.122 1.117-1.888.137-.463.421-1.428 1.512-1.954l2.06-.994.075 1.01c.056-.025.113-.048.171-.071.362-.142.725-.234 1.078-.301-.091-.434-.125-.846-.156-1.212-.013-.166-.027-.333-.046-.498-.128-1.094.108-2.084.683-2.866.2-.27.411-.529.623-.787.124-.151.247-.301.368-.455 1.078-1.375 2.485-1.534 3.45-1.534.16 0 .321.004.483.012.662.027 1.07.418 1.29.628.05.048.11.106.188.17l2.418 1.986-3.043.729c-.151.036-.281.07-.398.101-.301.078-.536.135-.774.169-.385.054-.74.29-1.003.664-.33.472-.451 1.07-.33 1.642.163.771.412 1.537.655 2.256.148.43.484 1.401-.279 2.332-.399.488-.953.758-1.56.758-.039 0-.075-.002-.112-.004l.068.832c.369-.077.716-.115 1.049-.115m-18.491 5.049c-.949 0-1.815-.316-2.58-.939-.058-.018-.12-.03-.179-.044-.027-.006-.053-.013-.08-.02-.079.005-.143.008-.207.008l-.161-.005c-2.114-.142-3.385-1.356-3.78-3.609-.554-3.162.673-5.543 3.367-6.534 1.354-.498 1.616-.594 2.394-1.347-.359-1.329-.438-2.659-.447-3.912-2.892-.792-5.151-2.172-7.038-4.281-1.312-1.466-1.608-3.124-1.732-4.698-.037-.471-.03-.917-.025-1.349.003-.168.006-.337.005-.504l-.005-.078c-.014-.21-.038-.561.08-.954.371-1.245.752-2.489 1.145-3.773-.011-.005-.024-.011-.036-.017-1.484-.68-2.656-2.277-3.136-4.271-.504-2.089-.139-4.116 1-5.56.108-.135.213-.278.318-.421.311-.422.664-.901 1.122-1.312 1.09-.979 2.221-1.454 3.46-1.454.208 0 .42.013.638.043l.347.044c.923.117 1.971.249 2.995.817 1.1.609 2.262 1.413 2.945 2.801.259-.02.493-.049.704-.101.359-.088.737-.133 1.12-.133.696 0 1.329.144 1.87.299.513-.749 1.152-1.486 1.901-2.195 1.162-1.099 2.439-1.657 3.797-1.657.735 0 1.482.169 2.22.501 1.638.74 3.259 1.71 4.028 3.779.444 1.193.765 2.598.953 4.176.095.801-.138 1.707-.712 2.766-.556 1.025-1.276 1.83-2.148 2.404.902 3.25.314 6.432-1.784 9.662.012.005.026.011.04.015.631.234 1.219.346 1.799.346.5 0 .983-.084 1.477-.256 1.383-.481 2.868-.705 4.676-.705.285 0 .571.006.857.016l.395.011c.43.008.919.019 1.42.093 1.414.208 2.73.735 3.931 1.569-.094-.094-.192-.188-.293-.281-1.142-1.049-1.978-1.994-2.63-2.974-.615-.924-.733-2.159-.769-3.007-.015-.383-.115-.711-.369-1.208-1.772-3.492-.803-7.715 2.255-9.825.738-.51 1.496-.942 2.229-1.36.258-.147.515-.294.771-.444.264-.155.563-.235.886-.235.07 0 .149.005.238.012h1.731l-.163 1.725-.01.139c-.012.184-.027.435-.113.718-.421 1.388-.303 2.837-.113 4.196.15 1.092.171 2.177.19 3.226l.002.114c.03 1.562-.597 2.493-1.249 3.037.221.347.442.644.68.913 1.356 1.543 2.462 3.309 3.287 5.252 1.078 2.541 1.118 5.239.119 8.246-.407 1.224-1.204 1.98-1.908 2.533-.025.132-.049.264-.074.394-.129.677-.25 1.316-.331 1.948-.303 2.377-1.737 3.786-3.056 4.92-1.161.997-2.379 1.53-3.724 1.626-.437.031-.92.143-1.428.261-.23.054-.459.106-.688.154-.448.092-.895.14-1.33.14-.783 0-1.551-.151-2.285-.446-.175-.07-.344-.104-.518-.104-.166 0-.345.03-.545.093-1.006.315-2.094.601-3.422.898-.31.07-.622.105-.929.105-1.368 0-2.528-.679-3.247-1.794-.831.386-1.763.576-2.811.576-.427 0-.877-.031-1.376-.093-.689-.087-1.376-.179-2.063-.283.01.006-.09.048-.313.248-.769.692-1.595.983-2.301 1.177-.441.12-.873.182-1.284.182"/><path d="m24.517 43.88c-.704-.496-1.151-.977-1.361-1.521-.847.596-1.825.897-2.917.897-.21 0-.423-.011-.641-.032-.104-.01-.21-.011-.317-.011l-.419.002c-.429 0-.938-.024-1.46-.203-.206-.071-.392-.106-.57-.106-.262 0-.686.066-1.352.634-.322.275-.657.383-.836.442-.183.062-.327.095-.506.124l-.173.033-.039.211s-1.318.006-1.319.006c-.364 0-1.462-.002-2.2-.833-.297-.333-.455-.709-.536-1.066l-.366.172-.363-1.991c-.342-1.873.312-3.44 1.795-4.299 1.273-.734 2.577-1.107 3.878-1.107.19 0 .382.008.576.024.083.007.166.01.245.01.77 0 1.271-.321 1.493-.956l-.164-.238c-1.26-1.822-2.64-4.338-2.129-7.649l.106-.687 4.28-2.779.384 1.104c.524-.186.891-.358 1.178-.659.287-.304.602-.46.789-.554l.072-.036 1.075-.602.862.893c.914 1.002 1.943 1.489 3.145 1.489.518 0 1.084-.09 1.682-.267 1.688-.497 3.335-.749 4.897-.749 1.088 0 2.169.121 3.209.361 2.56.591 4.591 2.268 5.719 4.721.457.99.644 2.037.825 3.05.092.521.18 1.013.299 1.469.432 1.644.223 3.138-.039 4.382-.341 1.62-1.153 2.991-2.411 4.076-.956.823-2.145 1.674-3.728 1.746-.267.013-.594.088-.94.169-.305.071-.608.14-.914.187-.431.066-.945.132-1.492.132-.826 0-1.557-.154-2.236-.471-.114-.054-.236-.078-.382-.078-.179 0-.395.035-.662.109-.048.013-.095.033-.143.049-.181.065-.363.125-.549.163-.205.044-.398.065-.587.065-.068 0-.138-.003-.207-.009l-.052.169-2.179.434-.092 1.148z"/><path d="m21.416 7.951c.575.501 1.065 1.053 1.518 1.563.13.148.258.292.385.431.276-.345.555-.692.842-1.028.361-.421.269-.954.181-1.235-.166-.529-.552-.958-.962-1.066-.116-.031-.235-.047-.352-.047-.522 0-.996.3-1.3.824-.106.183-.21.369-.312.558m-4.173 16.621c.312-1.039.14-1.906-.284-3.144-.099-.289-.187-.583-.273-.877-.191-.646-.371-1.257-.673-1.667-.182-.247-.455-.618-.608-.713-.204-.128-.405-.26-.607-.391-.972-.633-1.811-1.179-2.709-1.24-.536-.037-.943-.262-1.212-.41-.04-.022-.079-.047-.12-.066-.766-.166-1.344-.24-1.866-.24-.374 0-.716.038-1.044.118-.561.135-1.085.177-1.641.221-.23.018-.47.037-.726.065l-2.623.286 1.019-2.433c.079-.189.149-.37.215-.542.161-.418.327-.851.571-1.271l.384-.663c1.069-1.858 2.175-3.78 4.011-5.182 1.678-1.279 3.68-1.947 5.954-1.988l.138-.001c.343 0 1.258 0 2.103.645.912-2.063 2.999-4.041 5.448-4.041.992 0 1.967.336 2.817.971l.273.199c.755.548 1.694 1.23 2.175 2.541.434 1.178.895 2.567.875 4.133-.013 1.129-.411 2.144-1.122 2.859-.391.396-.92.91-1.519 1.368-.112.087-.229.163-.35.229 1.002 2.026.69 4.058.297 5.618-.4 1.589-.897 2.743-1.612 3.74-1.185 1.652-2.37 2.73-3.733 3.395-.46.224-.904.299-1.296.365-.136.023-.28.046-.432.08l-2.593.581z"/><path d="m12.894 28.278c-.611 0-1.224-.082-1.823-.243-2.184-.59-4.221-1.804-6.228-3.711-.764-.725-1.29-1.668-1.564-2.801-.322-1.333-.297-2.623-.238-3.598.098-1.639 1.041-2.63 1.851-3.31l1.862-1.56.639 2.344.121.462c.073.278.141.541.222.799.195.606.339.792.425.84.32.178.66.432.946.791.409-.182.673-.386.889-.667.544-.712.756-1.015.703-1.598l-.191-2.091 2.057.428c.148.031.284.052.409.073.329.054.703.115 1.093.28 1.974.83 4.32 2.204 4.959 5.493.047.236.134.503.226.784.104.322.223.686.305 1.081.287 1.375.407 3.358-1.872 4.688-1.113.65-2.821 1.516-4.791 1.516"/><path d="m5.356 13.078c-.961 0-1.724-.553-2.214-.968-1.814-1.538-2.57-3.617-2.186-6.01.426-2.657 3.035-5.091 5.473-5.107h.001c1.539 0 2.953.438 4.253 1.302.06.035.116.071.172.11 1.513 1.09 1.807 2.372 1.789 3.255-.035 1.52-1.224 2.049-1.615 2.222-.013.006-.026.011-.038.017l-.934 1.452-1.364-1.361c-.214-.214-.406-.413-.586-.6-.335-.347-.598-.62-.862-.838-.104-.087-.259-.19-.395-.19-.111 0-.24.063-.328.116-.495.299-.491.418-.486.57.035.912.331 1.099.457 1.178.132.083.314.165.507.252.118.053.234.106.348.161l.836.406.039.928c.02.136.076.569-.166 1.037-.257.503-1.054 2.068-2.701 2.068"/><path d="m38.207 17.639-.755.586-.933-1.367c-1.075-1.578-1.348-3.595-.747-5.531.663-2.137 2.324-3.859 4.556-4.726l2.117-.821v2.272c0 .228-.003.454-.006.679-.007.449-.014.873.011 1.273.052.874.12 1.744.188 2.615.052.664.104 1.33.149 1.995.164 2.419-1.138 3.364-2.261 3.731l-2.778.91z"/><path d="m16.356 37.46c-.975 0-1.6-.67-1.974-1.071-.42-.45-.894-1.002-1.234-1.685-1.17-2.356-1.576-4.831-1.207-7.356l.143-.97 4.962-1.537-.01 2.144c-.051 2.572 1.107 4.564 2.333 6.672l.555.956-.72.839c-.083.097-.162.197-.241.297-.232.291-.495.621-.842.918-.323.277-.926.793-1.765.793"/><path d="m40.483 30.694.844-.634c1.491-1.124.935-3.238.434-4.2-.561-1.072-1.231-1.89-2.052-2.501-.825-.615-1.576-1.494-2.364-2.767-.894-1.443-.657-3.103-.5-4.202.145-1.008.937-1.711 1.925-1.711.305 0 .616.067.926.199l.812.348.118.875c.207 1.546 1.054 2.764 2.139 4.197 1.186 1.565 2.404 3.271 3.094 5.387.457 1.396.555 2.873.3 4.514l-.049.337c-.128.915-.304 2.169-1.347 3.109-.176.158-.356.312-.579.501l-2.236 1.922z"/><path d="m9.525 43.371c-2.097 0-2.662-1.651-2.902-2.356-.883-2.58.119-4.935 2.551-6l.197-.085c.609-.265 1.183-.515 1.702-.821.359-.211.728-.493 1.121-.791.197-.15.397-.302.602-.451l1.36-.988 3.112 5.064-2.16.455c-.181.038-.358.07-.528.099-.266.047-.496.087-.656.146-.194.072-.394.139-.593.206-.535.18-1.04.35-1.363.598-.534.411-.72.908-.59 1.566.072.36.124.724.176 1.089l.063.439.241 1.576-1.583.201c-.281.036-.527.053-.75.053"/><path d="m23.295 12.121c-.7 0-1.376-.31-1.903-.872-.41-.437-.791-.891-1.159-1.33-.157-.187-.315-.377-.476-.563l-.362-.424-.011-.558c-.038-1.935.874-3.317 2.57-3.89.356-.121.726-.182 1.097-.182.953 0 1.856.394 2.54 1.108.729.761 1.12 1.818 1.074 2.903-.029.681-.328 1.24-.525 1.61-.163.306-.354.555-.508.756-.055.072-.111.144-.163.219-.541.777-1.334 1.223-2.174 1.223"/><path d="m9.242 20.424c-.829 0-1.695-.322-2.437-.905-1.291-1.016-1.855-2.352-1.722-4.085l.08-1.058 1.015-.31c.872-.268 1.895-.552 3.005-.552.578 0 1.145.078 1.686.233 1.221.349 1.743 1.069 1.965 1.611.232.563.367 1.485-.306 2.683-.131.234-.279.411-.386.539-.026.031-.054.061-.076.094-.581 1.098-1.618 1.75-2.824 1.75"/><path d="m6.806 10.861c-1.046 0-1.975-.611-2.549-1.677-.768-1.428-.703-2.725.193-3.856.548-.689 1.453-1.1 2.42-1.1.595 0 1.16.159 1.633.458 1.107.705 1.699 1.674 1.761 2.877l.03.591-.661.824c-.178.221-.339.419-.495.625-.615.812-1.443 1.258-2.332 1.258"/><path d="m14.192 15.219c-1.034 0-1.739-.615-2.095-1.826l-.022-.075c-.302-1.006-.266-1.968.107-2.858.285-.684 1.037-1.379 1.918-1.379h.121l.141.021c.691.104 1.548.658 1.835 1.512.16.48.184.945.202 1.284.004.085.008.165.015.241l.008.077v.404c-.018 2.127-1.375 2.515-1.957 2.583-.096.011-.187.016-.273.016"/><path d="m9.635 14.928c-1.217 0-2.055-1.175-2.133-2.263-.044-.609-.031-1.196-.014-1.746.035-1.2.917-2.038 2.146-2.038l.13.003c1.141.048 1.943.943 1.951 2.176.002.291.019.579.039.941l.059 1.197-.294.398c-.159.274-.438.737-.934 1.054-.285.182-.613.278-.95.278"/><path d="m9.233 18.988c-1.846 0-3.291-1.253-3.291-2.852 0-1.6 1.445-2.853 3.291-2.853s3.292 1.253 3.292 2.853c0 1.599-1.446 2.852-3.292 2.852"/></g><path d="m8.71 7.643c-.042-.818-.489-1.292-1.042-1.644-.618-.394-1.586-.226-2 .296-.5.629-.512 1.277-.042 2.151.57 1.058 1.565 1.15 2.272.216.245-.322.503-.632.812-1.019m-2.077 7.908c-.09 1.187.227 2.03 1.135 2.745.977.769 2.273.878 2.948-.394.122-.228.329-.397.456-.623.474-.846.477-1.692-.732-2.038-1.323-.38-2.556-.072-3.807.31m14.306-7.208c.532.621 1.038 1.257 1.586 1.84.543.578 1.21.483 1.668-.176.191-.274.418-.52.575-.817.154-.29.329-.622.344-.944.067-1.577-1.31-2.746-2.66-2.289-1 .337-1.538 1.091-1.513 2.386m-10.859 33.431c-.075-.486-.131-.977-.227-1.457-.271-1.361.268-2.411 1.166-3.103.683-.525 1.562-.735 2.368-1.031.428-.157.889-.199 1.4-.307-.401-.653-.732-1.19-1.077-1.751-.635.46-1.214.95-1.847 1.323-.662.39-1.368.687-2.065.992-1.502.657-2.402 2.029-1.704 4.071.391 1.145.742 1.421 1.986 1.263m32.722-8.492c.402-.347.665-.564.92-.793.718-.647.759-1.628.899-2.53.198-1.275.169-2.541-.239-3.791-.622-1.9-1.733-3.448-2.857-4.932-1.13-1.491-2.177-2.962-2.441-4.929-.367-.157-.646-.066-.699.301-.155 1.08-.295 2.233.283 3.165.544.878 1.194 1.76 1.97 2.338 1.074.799 1.875 1.83 2.501 3.028.909 1.742 1.258 4.554-.877 6.163.158.581.323 1.185.54 1.98m-27.32-6.329c-.679.211-1.329.412-2.001.62-.34 2.322.073 4.45 1.061 6.438.245.493.611.924.978 1.316.679.73.897.751 1.59.158.34-.292.609-.691.914-1.047-1.343-2.311-2.601-4.531-2.542-7.485m24.56-10.086c1.064-.348 1.259-1.172 1.192-2.148-.104-1.54-.244-3.078-.338-4.619-.041-.672-.007-1.351-.007-2.048-3.771 1.463-4.761 5.472-3.085 7.929.674-.522 1.239-.653 1.808-.417.53.221.649.535.43 1.303m-30.251-9.98c.355-.552 1.277-.372 1.297-1.262.019-.86-.504-1.498-1.143-1.958-.029-.021-.062-.035-.091-.055-1.053-.709-2.187-1.073-3.415-1.065-1.695.012-3.641 1.884-3.948 3.798-.311 1.938.317 3.441 1.657 4.578 1.136.963 1.813.772 2.528-.631.027-.053-.003-.144-.008-.255-.326-.159-.682-.293-1.004-.496-.832-.524-1.143-1.41-1.182-2.435-.038-1.006.56-1.554 1.238-1.961.856-.516 1.731-.441 2.516.207.494.408.929.91 1.555 1.535m-.84 13.116c-.019.343-.052.614-.045.884.026 1.089.356 2.026 1.259 2.5.947.497 1.926.532 2.845-.156.627-.469.977-1.076.753-1.98-.048-.191-.007-.409-.007-.661 1.152.869 1.134 2.332.022 3.152-1.383 1.02-2.827 1.043-4.268.223-.943-.537-1.602-1.329-1.28-2.696.043-.182-.01-.39.003-.584.053-.806-.138-1.442-.829-1.827-.624-.348-.923-1.019-1.149-1.728-.133-.417-.234-.848-.363-1.323-.708.594-1.239 1.224-1.298 2.211-.064 1.057-.055 2.1.197 3.139.199.822.558 1.503 1.124 2.04 1.644 1.562 3.442 2.763 5.562 3.335 1.976.534 3.735-.127 5.425-1.114 1.194-.697 1.445-1.531 1.133-3.028-.133-.641-.41-1.243-.535-1.884-.487-2.501-2.15-3.564-4.034-4.357-.335-.141-.71-.158-1.218-.264.111 1.222-.451 1.945-1.016 2.683-.593.775-1.363 1.147-2.281 1.435m-3.64-5.321c.835-.091 1.517-.094 2.17-.252 1.241-.3 2.456-.139 3.669.128.361.078.693.406 1.047.43 1.537.107 2.76 1.065 4.035 1.865.402.252.729.696 1.032 1.107.633.857.819 1.95 1.166 2.964.444 1.292.763 2.563.303 4.094.548-.122 1-.137 1.387-.326 1.283-.625 2.279-1.688 3.15-2.902.677-.943 1.072-2.033 1.369-3.214.414-1.647.538-3.24-.28-4.735-.445-.811-.973-1.612-1.603-2.233-1.075-1.058-1.959-2.383-3.258-3.141-.038-.022-.035-.138-.039-.155.321-.592.609-1.157.925-1.701.742-1.277 2.098-1.84 3.394-1.499 1.859.491 2.967 3.176 1.566 4.816-.489.573-.953 1.175-1.419 1.753.352.336.823.58 1.329.194.479-.367.928-.793 1.361-1.229.461-.465.663-1.12.671-1.784.016-1.258-.36-2.434-.78-3.577-.365-.995-1.169-1.47-1.92-2.03-2.416-1.806-5.156.412-6.024 2.73-.133.356-.141.872-.524.894-.49.028-1.178.051-1.44-.277-.473-.59-1.075-.621-1.559-.612-1.792.032-3.503.499-5.037 1.669-1.791 1.368-2.846 3.424-3.996 5.393-.27.463-.433 1.006-.695 1.63m23.019 25.538c.09.004.18.007.27.011.034.402.056.805.103 1.205.072.613.3.797.841.683.201-.043.395-.133.594-.189.71-.198 1.425-.266 2.119.058.928.434 1.881.356 2.834.21.676-.103 1.343-.34 2.018-.371 1.1-.049 1.974-.673 2.784-1.372.933-.804 1.614-1.84 1.904-3.218.261-1.239.385-2.42.057-3.667-.371-1.416-.445-2.988-1.032-4.263-.955-2.076-2.642-3.389-4.656-3.854-2.44-.564-4.88-.354-7.317.364-2.32.683-4.544.383-6.415-1.665-.17.101-.379.168-.522.319-.733.773-1.668 1.012-2.58 1.323-.436.148-.767.008-.927-.453-.719.466-1.37.89-2.032 1.319-.394 2.551.531 4.588 1.871 6.527.156-.257.264-.433.371-.611.153.687.223 1.361.069 1.96-.369 1.435-1.562 2.423-3.421 2.269-1.267-.104-2.441.241-3.546.88-.927.536-1.26 1.497-1.046 2.673.474-.223.365-1.47 1.216-1.031-.188.725-.432 1.366-.51 2.034-.129 1.092.231 1.445 1.253 1.44.192-1.037.373-2.064.574-3.086.059-.299.206-.503.53-.242-.074 1.027-.608 2.083.016 3.123.147-.029.247-.037.342-.07.13-.045.274-.079.379-.169 1.036-.884 2.13-1.266 3.437-.817.573.198 1.225.076 1.839.135 1.094.105 2.079-.111 2.957-.953.737-.705 1.236-1.557 1.535-2.573.121-.414.251-.777.694-.992.037.503.07.932.099 1.335.734-.484 1.374-1.058 2.1-1.344.751-.294 1.586-.308 2.436-.454-.037-.251-.014-.592-.139-.834-.378-.738-.351-1.559-.444-2.353-.076-.633.015-1.251.391-1.76.306-.415.645-.8.963-1.205.716-.915 1.667-.971 2.637-.928.131.006.255.195.562.448-.467.111-.746.201-1.029.241-1.791.252-3.05 2.206-2.636 4.169.175.827.435 1.634.702 2.429.106.313.224.568-.008.852-.224.275-.458.189-.741.102-.459-.139-.973-.336-1.409-.226-1.545.39-2.888 1.169-3.594 2.943-.439 1.102-.382 1.352.59 2.036.208-2.615.208-2.615 1.186-2.547-.358.903-.713 1.817.147 2.671.366-.073.75-.15 1.057-.211.255-.829.058-1.664.527-2.301m-15.058-7.023c-.697-1.808-.681-3.716-.658-5.567-2.886-.593-5.374-1.781-7.441-4.092-.977-1.093-1.23-2.375-1.341-3.783-.046-.575-.013-1.157-.015-1.737-.001-.194-.044-.406.008-.58.489-1.638.994-3.271 1.522-4.996-.341-.179-.79-.441-1.255-.655-2.173-.996-3.373-5.156-1.561-7.452.412-.523.781-1.112 1.259-1.541.819-.737 1.734-1.177 2.849-1.027.958.129 1.926.199 2.797.68 1.186.658 2.281 1.468 2.628 3.076.749-.071 1.465-.058 2.146-.226.811-.199 1.589-.028 2.334.194.663.198 1.049.125 1.479-.527.507-.767 1.125-1.46 1.775-2.076 1.274-1.204 2.708-1.589 4.308-.867 1.334.602 2.628 1.334 3.211 2.902.446 1.201.711 2.522.866 3.819.069.581-.241 1.297-.536 1.84-.508.937-1.216 1.685-2.132 2.128-.184.089-.352.219-.518.323 1.584 4.027.425 7.375-1.891 10.473.313.739.852 1.127 1.481 1.359 1.429.526 2.859.608 4.325.099 1.613-.561 3.287-.662 4.966-.604.548.019 1.102.008 1.643.088 1.738.256 3.235 1.064 4.567 2.402.76.765 1.411 1.55 1.795 2.62.072.199.223.363.369.591.416-.462.604-.927.624-1.502.082-2.355-.878-4.075-2.439-5.507-.87-.799-1.716-1.683-2.387-2.691-.376-.565-.477-1.455-.509-2.209-.029-.709-.245-1.274-.537-1.849-1.4-2.758-.654-6.18 1.752-7.84.935-.644 1.93-1.172 2.903-1.742.075-.044.186-.006.359-.006-.023.219-.015.408-.066.574-.486 1.604-.393 3.217-.165 4.86.144 1.037.159 2.102.178 3.155.016.819-.215 1.533-.903 1.968-.264.167-.493.408-.788.656.431.853.902 1.635 1.51 2.325 1.243 1.413 2.257 3.028 3.022 4.832 1.004 2.363.869 4.756.074 7.148-.349 1.049-1.14 1.616-1.851 2.149-.186 1.046-.401 2.024-.527 3.019-.235 1.836-1.341 2.918-2.528 3.938-.833.716-1.746 1.177-2.82 1.253-.779.056-1.549.284-2.321.444-.924.19-1.829.132-2.718-.226-.697-.28-1.386-.28-2.109-.053-1.087.34-2.191.618-3.298.866-1.613.361-2.904-.77-3.047-2.666-1.37 1.502-3.034 1.654-4.78 1.433-.678-.086-1.355-.176-2.032-.278-.622-.094-1.13.227-1.579.63-.503.452-1.069.668-1.672.834-.912.25-1.747.157-2.529-.512-.249-.214-.615-.264-.935-.351-.162-.045-.341.004-.512-.007-1.305-.088-2.066-.695-2.352-2.326-.404-2.305.337-4.058 2.371-4.806 2-.735 2.005-.738 3.631-2.377" fill="#231f20"/><path d="m28.331 40.22c-.47.636-.272 1.472-.527 2.3-.307.061-.692.139-1.057.212-.86-.854-.506-1.769-.148-2.671-.978-.068-.978-.068-1.186 2.546-.972-.683-1.029-.934-.59-2.035.707-1.774 2.049-2.553 3.594-2.943.437-.11.95.086 1.408.226.285.087.518.173.742-.102.232-.284.114-.54.009-.852-.268-.795-.528-1.603-.703-2.43-.414-1.963.845-3.916 2.636-4.168.284-.04.563-.13 1.029-.242-.307-.252-.431-.441-.562-.447-.969-.044-1.921.013-2.637.927-.318.406-.657.791-.963 1.206-.375.508-.466 1.126-.391 1.759.094.795.066 1.615.445 2.353.125.243.101.584.139.834-.85.147-1.686.161-2.437.455-.726.286-1.365.859-2.099 1.344-.03-.404-.062-.832-.099-1.335-.444.215-.574.578-.695.992-.299 1.015-.798 1.867-1.535 2.572-.877.843-1.862 1.059-2.956.954-.614-.059-1.267.063-1.839-.135-1.309-.45-2.402-.068-3.437.817-.105.09-.25.124-.38.169-.094.033-.195.041-.342.07-.623-1.04-.09-2.096-.016-3.123-.323-.261-.471-.057-.53.242-.201 1.022-.382 2.049-.574 3.086-1.022.005-1.382-.348-1.253-1.44.078-.668.322-1.309.51-2.034-.851-.439-.742.808-1.215 1.031-.215-1.176.118-2.137 1.045-2.673 1.105-.639 2.279-.985 3.547-.88 1.859.154 3.052-.834 3.421-2.269.153-.599.083-1.273-.07-1.96-.107.177-.214.354-.371.611-1.34-1.939-2.264-3.976-1.871-6.527.662-.43 1.313-.853 2.033-1.319.16.461.491.601.926.452.912-.31 1.847-.549 2.58-1.322.144-.151.353-.219.522-.319 1.87 2.047 4.096 2.348 6.415 1.665 2.437-.718 4.877-.928 7.317-.364 2.014.465 3.701 1.778 4.656 3.854.587 1.275.661 2.847 1.033 4.263.326 1.247.204 2.427-.058 3.667-.29 1.377-.971 2.414-1.904 3.218-.81.698-1.684 1.323-2.783 1.372-.676.031-1.342.268-2.018.371-.954.145-1.907.224-2.834-.21-.695-.324-1.409-.256-2.12-.058-.199.055-.392.146-.594.189-.541.114-.769-.071-.841-.683-.047-.4-.07-.803-.102-1.205-.09-.004-.18-.008-.27-.011" fill="#e5c07e"/><path d="m10.233 12.719c-.034-.723-.07-1.185-.073-1.647-.002-.372-.148-.622-.461-.634-.303-.013-.643.051-.657.529-.016.528-.026 1.061.011 1.587.035.483.442.948.694.786.254-.163.413-.521.486-.621m4.633-.425c-.035-.348-.016-.799-.145-1.186-.074-.222-.378-.436-.599-.47-.155-.023-.423.223-.506.422-.242.579-.24 1.186-.053 1.811.13.431.216.846.721.786.412-.048.576-.354.582-1.05.001-.079 0-.157 0-.313m-9.555 2.388c.262-.624.425-1.167.695-1.63 1.15-1.969 2.204-4.025 3.996-5.392 1.533-1.17 3.245-1.638 5.037-1.67.483-.008 1.086.023 1.558.613.263.328.951.304 1.441.276.383-.021.391-.538.524-.893.868-2.319 3.608-4.537 6.024-2.731.75.561 1.554 1.036 1.92 2.03.42 1.144.795 2.32.78 3.578-.009.664-.21 1.318-.671 1.783-.434.437-.882.862-1.362 1.229-.505.387-.976.143-1.329-.194.467-.577.93-1.179 1.42-1.752 1.401-1.64.292-4.326-1.566-4.817-1.296-.341-2.653.223-3.395 1.5-.316.543-.604 1.109-.924 1.7.004.018.001.134.039.156 1.298.757 2.182 2.082 3.257 3.141.631.62 1.158 1.421 1.603 2.233.819 1.494.695 3.087.28 4.735-.297 1.181-.692 2.271-1.368 3.214-.871 1.214-1.867 2.277-3.15 2.902-.387.188-.839.204-1.387.326.46-1.532.141-2.802-.303-4.095-.348-1.014-.533-2.107-1.166-2.963-.304-.412-.63-.855-1.032-1.108-1.275-.8-2.499-1.758-4.035-1.864-.354-.025-.686-.352-1.048-.431-1.212-.266-2.428-.428-3.668-.128-.653.159-1.336.161-2.17.252" fill="#e5c07e"/><path d="m8.951 20.004c.918-.289 1.689-.661 2.281-1.435.565-.739 1.128-1.462 1.017-2.683.508.105.882.123 1.217.264 1.885.792 3.548 1.856 4.035 4.356.124.642.401 1.244.535 1.884.312 1.497.06 2.332-1.134 3.029-1.69.987-3.449 1.648-5.425 1.114-2.12-.573-3.918-1.773-5.562-3.336-.565-.537-.925-1.217-1.124-2.039-.251-1.039-.26-2.083-.197-3.14.06-.987.59-1.617 1.298-2.21.129.475.231.905.364 1.323.225.708.524 1.379 1.148 1.728.69.384.882 1.02.829 1.826-.013.194.04.403-.003.585-.322 1.367.337 2.158 1.281 2.695 1.44.821 2.884.797 4.268-.223 1.111-.819 1.129-2.283-.023-3.152 0 .253-.041.471.007.661.224.904-.126 1.511-.753 1.981-.919.687-1.897.652-2.844.156-.904-.475-1.234-1.412-1.26-2.501-.006-.269.026-.54.045-.883" fill="#ffe4c6"/><path d="m9.791 6.888c-.627-.625-1.061-1.128-1.555-1.535-.785-.649-1.66-.723-2.516-.208-.678.408-1.276.956-1.238 1.961.039 1.025.35 1.911 1.182 2.436.322.203.678.336 1.004.496.005.111.035.202.008.254-.715 1.404-1.392 1.595-2.528.632-1.34-1.137-1.968-2.641-1.657-4.578.307-1.915 2.254-3.787 3.948-3.798 1.228-.009 2.362.355 3.415 1.065.03.019.063.033.091.054.639.461 1.161 1.098 1.143 1.958-.02.891-.942.71-1.297 1.263" fill="#e5c07e"/><path d="m40.042 16.867c.219-.768.1-1.082-.431-1.302-.568-.237-1.133-.107-1.807.417-1.676-2.458-.686-6.466 3.085-7.931 0 .698-.034 1.376.007 2.049.095 1.542.234 3.079.338 4.62.067.975-.128 1.799-1.192 2.147" fill="#d78741"/><path d="m15.482 26.954c-.059 2.954 1.199 5.174 2.542 7.485-.305.355-.574.755-.914 1.045-.693.594-.911.572-1.59-.157-.367-.391-.733-.823-.978-1.315-.988-1.988-1.401-4.116-1.061-6.439.672-.208 1.322-.408 2.001-.619" fill="#f5dcaa"/><path d="m42.802 33.282c-.217-.795-.382-1.399-.54-1.98 2.136-1.608 1.787-4.421.877-6.162-.626-1.198-1.427-2.229-2.5-3.028-.777-.579-1.427-1.46-1.971-2.338-.578-.933-.437-2.085-.282-3.165.052-.367.331-.459.698-.301.264 1.967 1.311 3.437 2.442 4.929 1.124 1.484 2.234 3.031 2.856 4.932.408 1.249.438 2.516.24 3.791-.14.902-.182 1.882-.9 2.529-.254.229-.517.447-.92.793" fill="#e5c07e"/><path d="m10.079 41.774c-1.243.158-1.594-.118-1.986-1.263-.698-2.041.203-3.414 1.704-4.071.698-.306 1.404-.602 2.066-.992.632-.373 1.212-.862 1.847-1.323.345.561.675 1.098 1.077 1.751-.512.108-.972.15-1.4.307-.807.296-1.685.506-2.368 1.032-.898.69-1.438 1.741-1.166 3.102.096.48.152.971.226 1.457" fill="#e5c07e"/><path d="m20.939 8.342c-.025-1.295.514-2.048 1.514-2.386 1.349-.456 2.726.713 2.659 2.289-.015.323-.189.655-.344.945-.157.296-.384.543-.575.817-.459.659-1.125.754-1.668.176-.548-.584-1.054-1.22-1.586-1.841" fill="#f9b5a8"/><path d="m6.633 15.551c1.251-.383 2.484-.689 3.807-.31 1.209.346 1.206 1.193.732 2.038-.127.227-.335.395-.456.624-.675 1.271-1.971 1.162-2.949.393-.908-.715-1.225-1.559-1.134-2.745" fill="#5f6062"/><path d="m8.71 7.643c-.309.387-.567.697-.812 1.019-.707.934-1.702.842-2.272-.216-.47-.874-.458-1.522.042-2.151.414-.522 1.382-.69 2-.296.553.352 1 .826 1.042 1.644" fill="#f9b5a8"/><path d="m14.866 12.293c0 .157.001.235 0 .313-.007.697-.17 1.002-.582 1.05-.505.06-.591-.355-.72-.786-.188-.625-.19-1.232.052-1.811.083-.199.351-.445.506-.422.221.035.525.249.599.47.129.387.11.838.145 1.186" fill="#231f20"/><path d="m10.233 12.719c-.073.1-.232.458-.486.621-.252.162-.659-.303-.694-.786-.037-.526-.027-1.059-.011-1.587.014-.478.354-.542.657-.529.313.012.459.262.461.634.003.462.039.924.073 1.647" fill="#231f20"/><path d="m10.97 16.135c0 .717-.777 1.298-1.737 1.298-.958 0-1.736-.581-1.736-1.298s.778-1.298 1.736-1.298c.96 0 1.737.581 1.737 1.298" fill="#909590"/></g></svg>