<svg clip-rule="evenodd" fill-rule="evenodd" stroke-linejoin="round" stroke-miterlimit="2" viewBox="0 0 44 44" xmlns="http://www.w3.org/2000/svg"><g fill-rule="nonzero"><g fill="#fff"><path d="m30.367 21.255c.52.101 1.022.23 1.509.39-.504-.431-.972-.893-1.404-1.385-.012.325-.047.656-.105.995m-9.463 2.825c.139.138.287.24.386.285 1.466-.262 2.242-.665 2.837-1.462.642-.863 1.031-1.727 1.212-2.699-.08-.612-.279-1.209-.612-1.84-.405.152-.737.336-1.03.596-1.333 1.19-2.227 2.825-2.793 5.12m-10.93 7.753c.784.151 1.525.292 2.236.356.129.011.258.023.385.036l2.449-2.422.187-.194c.173-.182.389-.41.693-.621.088-.062.372-.261.597-1.046.054-.185.122-.421.147-.561-.195-.39-.446-.785-.689-1.159-.412-.636-.545-1.236-.538-1.751-.137.536-.389 1.043-.756 1.504-.785.989-1.929 1.556-3.139 1.556-1.127.001-2.18-.49-2.941-1.32-.333.263-.667.547-1.005.838-.362.311-.69.772-1.095 1.539-.261.495-.121 1.348.268 1.628.318.229.6.398.842.504.084.036.173.068.261.102.442.166 1.067.403 1.667.928zm21.414 2.746c.993.026 1.977.341 2.878.917l.039-.129c.105-.34.214-.73.232-1.024.024-.424.017-.85.014-1.275-.006-.545-.01-1.09.023-1.633.05-.789-.199-1.517-.784-2.291-1.379-1.829-3.172-2.768-5.642-2.952 0 0-.113-.005-.115-.005-.07 0-.142.046-.275.214-1.896 2.398-4.462 2.91-6.356 3.038-.34 1.166-.869 2.133-1.598 2.927l.86-.057-.161 1.24c.162-.033.328-.051.497-.051.548 0 1.079.175 1.536.505.288.207.56.476.802.797l.131.019c.386.055.825.119 1.293.243.407.109.838.162 1.321.162.879 0 1.802-.171 2.831-.378.706-.141 1.467-.27 2.267-.27z"/><path d="m36.032 43.828c-1.104 0-2.594-.559-3.261-1.786-.408-.753-.705-1.454-.907-2.144-.06-.202-.105-.408-.149-.615-.002-.012-.004-.023-.007-.034-.158-.086-.311-.133-.444-.137h-.011c-.464 0-.906.073-1.45.181-1.22.245-2.425.466-3.72.466-.884 0-1.699-.103-2.492-.316-.249-.066-.508-.097-.765-.135l-.325-.047c-.113-.017-.222-.038-.33-.064-.017.044-.197.52-.197.52-.18.481-.368.98-.611 1.492-.537 1.136-1.709 1.871-2.983 1.871-.275 0-.547-.035-.809-.105-.862-.227-1.97-.886-2.349-2.734-.208-1.009-.253-2.016-.137-3.014-1.014-.245-2.097-.417-3.277-.521-.939-.083-1.829-.254-2.689-.419l-.573-.109c-.351-.065-1.283-.237-1.981-.999-.094-.048-.194-.078-.292-.115-.155-.058-.31-.118-.464-.184-.549-.24-1.1-.561-1.688-.985-2.215-1.594-2.945-4.926-1.626-7.425.456-.864 1.112-1.968 2.146-2.859.575-.494 1.191-1.015 1.852-1.484.467-.332.927-.602 1.372-.862l.507-.302 2.567-1.562.289 1.049.32-.233c.801-.586 1.939-.724 2.783-.733.931-1.747 2.306-3.717 4.648-4.883.182-.089.361-.185.538-.28.744-.396 1.587-.846 2.638-1.041.429-.08.819-.102 1.196-.124.147-.009.302-.017.469-.03l6.236-.509-4.462 4.386c-.216.24-.648.721-1.416.882-.378.078-.894.627-1.392 1.158-1.067 1.137-1.806 2.617-2.453 4.859-.045.158-.097.316-.155.473.065.106.129.215.195.326.138.046.274.096.408.147.069.025.136.052.202.075 1.591-.09 2.542-.481 3.218-1.335 1.03-1.303 2.286-1.937 3.839-1.937.144 0 .294.006.447.017 3.76.282 6.763 1.878 8.924 4.744 1.239 1.642 1.808 3.427 1.69 5.305-.027.431-.02.868-.015 1.303.005.529.009 1.057-.022 1.583-.044.777-.24 1.497-.425 2.101-.233.752-.144 1.046-.043 1.263.236.506.332.999.403 1.359l.02.108c.298 1.491-.21 3.447-1.736 4.136-.378.171-.799.258-1.251.258"/><path d="m21.269 28.914c-2.075 0-3.862-1.59-4.645-3.066-.48-.908-.346-1.867-.266-2.237.761-3.492 2.174-6.12 4.321-8.036 1.28-1.141 2.687-1.599 4.016-1.925l.265-.064.358-.01c.687 0 1.37.262 1.872.718l.089.08c.331.298.785.707 1.141 1.305.867 1.455 1.346 2.898 1.467 4.413l.021.255-.037.252c-.266 1.828-.956 3.468-2.108 5.014-1.709 2.292-4.024 2.939-5.85 3.247-.211.035-.427.054-.644.054"/><path d="m13.583 23.471c-1.68-.021-3.106-1.271-3.469-3.037-.701-3.407 1.49-6.405 4.014-7.334.815-.3 1.673-.452 2.55-.452.863 0 1.769.144 2.77.442 1.307.392 1.996 1.223 2.345 1.851l1.021 1.843s-2.678 1.757-2.95 1.932c-.472.303-.905.804-1.323 1.532-.175.306-.354.606-.532.905-.149.249-.297.497-.443.748-.785 1.341-1.917 1.54-2.522 1.54h-.015c-.247 0-.425.007-.605.013-.238.009-.477.018-.715.018z"/><path d="m37.91 34.886c-.459 0-.915-.09-1.354-.267l-1.269-.51-.14-1.361c-.081-.786-.327-3.175 2.695-3.617.095-.014.273-.114.6-.477.006-.636-.066-1.317-.218-2.071-.205-1.023-.844-1.631-1.957-2.618-.205-.181-.431-.338-.655-.496-.366-.259-.736-.515-1.105-.771-.831-.575-1.691-1.169-2.532-1.811-.686-.524-1.185-1.157-1.677-1.814-1.076-1.438-1.718-3.057-2.202-4.452-.101-.285-.16-.603-.17-.936-.007-.138 0-.31.035-.568l.895-8.129 3.652 7.78c.134.284.258.545.378.809.562 1.25 1.419 2.401 2.696 3.622.101.098.283.222.474.352.428.292.845.555 1.261.816 1.017.642 2.068 1.305 3.056 2.188 2.36 2.11 3.402 4.645 3.099 7.536l-.033.281c.114 1.538-.416 2.954-1.573 4.209-.376.406-.78.832-1.256 1.22-.57.466-1.471 1.085-2.7 1.085"/><path d="m28.087 14.043c-.161-.24-.467-.718-.5-1.409l-.048-.996c-.054-1.048-.109-2.13-.063-3.243.069-1.733 1.181-2.787 1.846-3.416.405-.387.752-.582.983-.712.688-.388 1.369-.764 2.126-1.183l5.385-2.982-1.697 5.409-.175.537c-.087.264-.17.5-.227.745-.392 1.681-1.502 2.893-3.128 3.416-.021.053-.05.147-.074.303-.076.498-.11 1.056-.144 1.647-.018.302-.036.609-.06.919l-.583 7.621z"/><path d="m15.476 42.678c-.133 0-.267-.008-.4-.025-1.508-.191-2.56-1.327-2.615-2.825l-.016-.309c-.025-.388-.056-.869.015-1.403.087-.661.26-1.261.413-1.792l.028-.097c.703-2.457 2.387-2.723 3.077-2.723.87 0 1.704.37 2.551 1.131l.911.818-.248 1.613c-.044.276-.089.561-.128.848l-.036.27c-.05.358-.102.718-.125 1.079-.125 1.917-1.63 3.415-3.427 3.415"/><path d="m30.148 43.089c-1.021 0-1.921-.457-2.469-1.256-.569-.831-.664-1.906-.26-2.951.345-.894.777-1.715 1.114-2.331.469-.855 1.432-1.406 2.453-1.406h.252l.317.062c.5.112.952.264 1.391.411l2.406.775-.438 2.013c-.382 1.753-1.263 3.078-2.695 4.051-.547.373-1.226.597-1.913.629z"/><path d="m9.114 24.882c-.711-.942-.973-1.87-.776-2.76.162-.732.635-1.354 1.298-1.708.386-.205.833-.314 1.293-.314.697 0 1.352.24 1.844.677.555.488.871 1.171.885 1.919.01.609-.186 1.531-1.178 2.467l-1.84 1.739z"/><path d="m6.118 33.186c-.369 0-.66-.077-.873-.134l-2.097-.557.465-2.121c.055-.252.022-.29-.039-.356-.603-.663-.646-1.436-.662-1.728l-.241-1.507 1.32-.735 1.668-1 .971.957c.507-.191 1.094-.337 1.772-.337h4.037l-1.138 1.912 4.993.472-5.804 3.552c-.771.472-1.184.587-2.1.587-.11 0-.211.001-.306.001-.382.551-.985.994-1.966.994"/><path d="m10.985 25.863c-1.544 0-2.8-1.313-2.8-2.928 0-1.614 1.256-2.927 2.8-2.927s2.801 1.313 2.801 2.927c0 1.615-1.257 2.928-2.801 2.928"/></g><path d="m10.924 23.516c.455-.43.593-.823.344-1.043-.13-.114-.412-.138-.566-.057-.273.146-.19.554.222 1.1m21.773 14.408c-.583-.185-1.104-.383-1.639-.504-.165-.037-.455.073-.536.222-.364.663-.713 1.345-.989 2.059-.262.676.037 1.149.668 1.12.251-.011.528-.092.742-.238.843-.574 1.471-1.359 1.754-2.659m-15.685-1.602c-.979-.88-1.578-.703-1.932.532-.147.513-.302 1.031-.372 1.561-.057.433.004.887.02 1.331.016.461.312.617.636.659.638.081 1.228-.555 1.275-1.286.033-.505.11-1.007.178-1.508.059-.442.133-.881.195-1.289m16.943-31.49c-.927.515-1.729.957-2.529 1.406-.165.092-.335.188-.475.321-.551.524-1.175 1.081-1.21 1.929-.054 1.341.056 2.693.112 4.039.006.125.123.243.196.38.074-.957.089-1.861.225-2.741.159-1.03.625-1.803 1.597-2.108.798-.25 1.408-.796 1.638-1.779.106-.457.273-.895.446-1.447m-3.727 8.422c-.02.188-.039.273-.036.358.003.089.016.182.045.264.478 1.373 1.029 2.705 1.876 3.837.373.499.768 1.012 1.239 1.372 1.164.889 2.379 1.691 3.57 2.533.29.205.582.413.85.651 1.169 1.036 2.316 2.07 2.676 3.867.197.985.301 1.96.25 2.959-.012.227-.088.497-.218.66-.632.787-1.329 1.478-2.311 1.621-.803.118-.862.201-.766 1.14.682.274 1.25-.044 1.775-.472.364-.297.696-.648 1.021-1.001.64-.692 1.071-1.494.974-2.56-.019-.206.022-.42.044-.628.256-2.437-.816-4.233-2.355-5.608-1.236-1.105-2.7-1.878-4.06-2.806-.271-.185-.547-.371-.788-.602-1.285-1.23-2.421-2.607-3.196-4.33-.178-.394-.367-.782-.59-1.255m-10.419 2.787c-.237-.427-.587-.651-1.009-.777-1.294-.385-2.565-.522-3.889-.036-1.558.573-3.03 2.535-2.575 4.751.141.685.658 1.218 1.275 1.224.476.006.952-.034 1.428-.03.279.003.428-.174.565-.41.32-.55.653-1.09.97-1.643.541-.943 1.194-1.752 2.065-2.312.39-.251.777-.509 1.17-.767m7.818 4.232c-.103-1.281-.542-2.403-1.155-3.432-.203-.342-.518-.605-.806-.868-.107-.097-.299-.151-.432-.119-1.086.266-2.135.602-3.046 1.415-1.972 1.759-3.027 4.126-3.613 6.823-.047.217-.042.514.054.695.558 1.055 1.837 2.019 2.906 1.838 1.668-.282 3.241-.797 4.409-2.366.878-1.178 1.462-2.475 1.683-3.986m-10.988 11.143c.267-.263.408-.445.581-.567.763-.535 1.212-1.342 1.481-2.278.188-.654.395-1.35.084-2.018-.256-.551-.577-1.064-.904-1.566-.18-.277-.243-.505-.082-.82.144-.281.267-.584.356-.893.618-2.146 1.448-4.152 2.922-5.723.769-.82 1.536-1.659 2.637-1.886.065-.012.118-.108.291-.278-.563.045-1.005.044-1.435.124-.925.171-1.73.699-2.58 1.122-1.86.927-3.011 2.59-3.964 4.517-.137.275-.326.517-.472.746-.805-.251-2.248-.154-2.668.152.094.248.196.494.283.747.223.648.153 1.251-.26 1.771-.893 1.126-2.473.851-3.04-.534-.139-.34-.205-.72-.318-1.131-.594.362-1.19.682-1.746 1.076-.582.413-1.135.883-1.684 1.354-.685.589-1.176 1.357-1.62 2.199-.759 1.436-.424 3.54.947 4.528.399.287.823.551 1.263.741.53.23 1.088.343 1.519.84.167.192.475.263.731.311 1.013.187 2.026.407 3.048.498 1.742.155 3.456.46 5.125 1.006.397-.662.397-.662.924-.698-.02.15-.009.306-.062.424-.667 1.462-.885 2.993-.552 4.607.093.448.248.875.707.997.421.112.954-.104 1.165-.547.262-.553.466-1.142.688-1.719.21-.547.381-1.117.628-1.641.115-.243.241-.388.146-.715-.094-.328.174-.506.431-.321.131.096.25.228.349.366.336.468.763.733 1.286.813.446.068.897.117 1.333.233 1.746.467 3.462.162 5.184-.182.647-.13 1.31-.242 1.963-.225.745.021 1.456.326 2.072.812.472.371.478 1.034.645 1.603.173.594.434 1.165.724 1.699.246.453 1.185.725 1.585.545.345-.156.577-.97.446-1.627-.065-.323-.12-.664-.254-.951-.448-.959-.373-1.907-.071-2.89.156-.503.3-1.036.33-1.563.056-.963-.023-1.937.038-2.898.093-1.497-.439-2.739-1.238-3.798-1.903-2.524-4.405-3.632-7.282-3.847-.981-.073-1.671.22-2.339 1.064-1.331 1.682-3.16 2.112-5.048 2.201-.45.02-.911-.241-1.409-.383 0 .157.013.307-.002.451-.155 1.409-.535 2.711-1.495 3.684-.333.337-.693.743-1.387.468m16.54 7.229c-.368.584-.633 1.113-.988 1.548-.65.797-1.411 1.362-2.445 1.211-.604-.089-.843-.328-.894-1.027-.035-.491 0-.953.288-1.373.257-.374.455-.8.722-1.283-.489-.071-.893.019-1.289.138-1.62.491-3.228.428-4.857-.001-.794-.209-1.629-.215-2.338-.757-.39.157-.511.499-.629.883-.235.763-.44 1.556-.783 2.259-.762 1.559-2.132 1.61-3.064.114-.184.126-.371.268-.569.385-.186.109-.379.233-.581.276-.969.206-1.727-.488-1.704-1.64.014-.651.163-1.305.3-1.945.125-.581.317-1.143.487-1.742-.536-.438-1.169-.362-1.754-.46-1.674-.283-3.361-.478-5.03-.791-.581-.109-1.164-.347-1.584-.938-.165-.232-.501-.301-.755-.455-.856-.52-1.535-1.266-2.072-2.193-.814.023-1.327.851-2.147.834.684-.513 1.368-1.025 2.045-1.532-.124-.508-.438-.415-.668-.368-.44.091-.868.259-1.303.386-.194.057-.393.09-.61.058.749-.549 1.553-.919 2.421-1.101.03-.05.078-.094.085-.145.268-2.071 1.431-3.444 2.826-4.591.853-.701 1.795-1.259 2.686-1.902.461-.334.976-.535 1.424-.933.445-.396 1.076-.459 1.739-.262-.037-.181-.041-.295-.082-.386-.66-1.474-.42-2.859.294-4.212.34-.645.808-1.121 1.383-1.458 1.217-.715 2.464-1.224 3.874-.803.506.151 1.045.157 1.558.287.377.096.771.148 1.067.533.248.322.606.32.946.121.846-.494 1.784-.549 2.696-.671 1.338-.178 2.902.94 3.466 2.373.119.303.228.614.377.898.655 1.245.59 2.531.186 3.838-.122.395-.27.78-.425 1.225.636.119 1.231.253 1.83.335 1.762.242 3.378.872 4.852 2.042 1.293 1.026 2.329 2.261 2.963 3.908.169.438.267.91.412 1.414.487-.136.95-.228 1.39-.398.755-.293 1.382-1.447 1.208-2.481-.272-1.632-.672-3.203-1.924-4.327-1.024-.919-2.088-1.75-3.232-2.444-2.644-1.6-4.464-3.934-5.368-7.251-.46-1.684-.653-3.344-.542-5.08.048-.758.298-1.391.755-1.932.727-.863 1.593-1.458 2.582-1.85.32-.127.607-.365.906-.561.503-.33 1.004-.667 1.591-1.057-.011.272.018.451-.029.597-.263.822-.552 1.632-.816 2.453-.346 1.074-.941 1.896-1.893 2.281-.889.358-1.318 1.117-1.458 2.083-.143.986-.101 1.977.3 2.921.849 1.998 2.099 3.612 3.6 4.994.101.094.22.171.342.224 1.423.624 2.558 1.805 3.885 2.62.908.556 1.478 1.533 2.055 2.477 1.127 1.847 1.148 3.859.566 5.888-.505 1.758-1.712 2.76-3.214 3.328-.271.102-.543.203-.855.32-.012.28-.034.544-.032.81.006.762-.054 1.503-.349 2.207-.241.576-.17 1.16 0 1.756.243.853.497 1.701.348 2.642-.116.74-.795 1.546-1.539 1.242-.169-.068-.365-.058-.549-.066-.435-.018-.775-.237-.976-.666-.274-.583-.52-1.184-.761-1.785-.128-.319-.22-.656-.347-1.042" fill="#231f20"/><path d="m3.153 28.96h-3.054c.216-.138.333-.27.459-.283.734-.081 1.47-.136 2.204-.196.251-.021.399.088.391.479" fill="#231f20"/><path d="m6.519 29.986c.358-.02.673-.041.988-.052.291-.01.581-.01.872-.01.511-.001.511 0 .928-.254-.993-.094-1.871-.178-2.749-.261-.015-.064-.029-.127-.044-.192.298-.216.58-.474.9-.638.341-.176.754-.183 1.034-.642-.903-.018-1.607.483-2.32.836-.292-.317-.55-.598-.808-.879-.053.032-.106.065-.159.096.027.171.002.404.09.502.607.666.776 1.46.577 2.368.478.128.478.128.691-.874m10.121 1.43c.693.274 1.053-.132 1.386-.469.96-.973 1.34-2.274 1.495-3.684.016-.144.002-.294.002-.451.498.143.959.403 1.409.383 1.889-.089 3.717-.519 5.048-2.2.668-.845 1.358-1.138 2.339-1.065 2.877.215 5.379 1.324 7.282 3.847.799 1.06 1.331 2.302 1.238 3.798-.06.962.018 1.935-.038 2.898-.03.528-.174 1.06-.329 1.564-.303.982-.378 1.93.07 2.889.135.288.189.628.254.952.131.656-.101 1.47-.446 1.627-.399.179-1.339-.092-1.585-.545-.29-.535-.551-1.106-.724-1.7-.167-.569-.173-1.232-.645-1.603-.615-.485-1.327-.791-2.071-.812-.654-.017-1.317.095-1.964.225-1.722.345-3.438.649-5.183.183-.437-.117-.888-.165-1.333-.234-.524-.08-.951-.345-1.287-.812-.099-.139-.218-.271-.349-.367-.257-.185-.525-.006-.43.322.094.326-.031.471-.146.715-.248.523-.419 1.093-.629 1.64-.221.577-.426 1.166-.688 1.719-.211.443-.743.659-1.165.547-.459-.121-.614-.549-.707-.997-.332-1.613-.114-3.145.553-4.607.053-.118.041-.274.062-.423-.527.036-.527.036-.924.697-1.67-.546-3.384-.851-5.126-1.006-1.021-.091-2.035-.311-3.048-.498-.255-.048-.564-.118-.731-.311-.43-.497-.989-.61-1.519-.839-.44-.191-.863-.455-1.262-.742-1.372-.988-1.707-3.092-.948-4.528.445-.842.935-1.609 1.621-2.198.548-.472 1.101-.942 1.684-1.355.555-.393 1.151-.714 1.745-1.076.114.411.179.791.318 1.131.567 1.386 2.148 1.66 3.041.534.412-.519.482-1.123.259-1.77-.087-.253-.189-.499-.283-.747.421-.307 1.863-.404 2.669-.153.146-.228.335-.471.471-.746.953-1.927 2.104-3.59 3.965-4.517.849-.422 1.654-.951 2.579-1.122.43-.08.872-.079 1.435-.124-.173.17-.225.266-.291.279-1.101.226-1.867 1.065-2.636 1.885-1.475 1.572-2.305 3.578-2.923 5.723-.089.31-.212.612-.356.894-.161.314-.097.543.082.819.327.502.649 1.016.905 1.566.31.668.103 1.365-.085 2.018-.269.937-.718 1.743-1.481 2.278-.173.122-.314.304-.58.568" fill="#a9acae"/><path d="m27.627 20.273c-.221 1.511-.804 2.809-1.683 3.986-1.168 1.569-2.74 2.084-4.408 2.367-1.069.18-2.348-.784-2.907-1.838-.096-.182-.101-.479-.054-.696.587-2.697 1.641-5.064 3.614-6.823.91-.812 1.959-1.149 3.045-1.415.133-.032.325.023.432.119.289.263.603.527.806.868.613 1.03 1.052 2.151 1.155 3.432" fill="#fbd1cf"/><path d="m19.809 16.041c-.393.258-.78.516-1.17.767-.872.559-1.524 1.369-2.065 2.312-.317.553-.65 1.093-.97 1.643-.137.236-.287.413-.565.41-.476-.004-.952.036-1.428.03-.617-.007-1.135-.539-1.276-1.224-.455-2.216 1.018-4.178 2.576-4.751 1.324-.487 2.594-.349 3.889.036.422.126.772.349 1.009.777" fill="#a9acae"/><path d="m30.228 13.254c.223.473.412.86.59 1.255.775 1.723 1.911 3.099 3.196 4.33.241.23.517.417.788.602 1.36.927 2.824 1.701 4.06 2.806 1.539 1.375 2.611 3.171 2.355 5.608-.022.208-.063.421-.044.628.097 1.066-.335 1.868-.974 2.56-.325.353-.657.704-1.021 1.001-.525.428-1.094.746-1.775.472-.096-.94-.037-1.023.766-1.14.981-.143 1.679-.834 2.31-1.621.131-.163.207-.434.219-.66.051-.999-.053-1.974-.25-2.959-.361-1.797-1.508-2.831-2.676-3.867-.269-.239-.56-.447-.85-.652-1.192-.842-2.406-1.643-3.57-2.532-.471-.36-.866-.873-1.239-1.372-.847-1.132-1.399-2.464-1.876-3.837-.029-.082-.042-.176-.045-.265-.003-.085.016-.17.036-.357" fill="#a9acae"/><path d="m33.955 4.832c-.172.552-.339.989-.446 1.446-.23.984-.84 1.53-1.638 1.78-.972.304-1.438 1.078-1.597 2.108-.135.88-.151 1.783-.224 2.74-.074-.137-.191-.255-.197-.38-.056-1.345-.166-2.697-.111-4.039.034-.847.658-1.404 1.209-1.928.14-.133.311-.229.476-.322.799-.448 1.601-.89 2.528-1.405" fill="#a9acae"/><path d="m17.012 36.321c-.062.408-.136.848-.195 1.289-.068.501-.145 1.003-.178 1.508-.047.731-.637 1.367-1.275 1.286-.325-.042-.621-.197-.637-.658-.016-.445-.076-.899-.02-1.331.07-.531.226-1.049.373-1.562.353-1.235.953-1.412 1.932-.532" fill="#a9acae"/><path d="m32.697 37.924c-.283 1.3-.911 2.085-1.754 2.659-.214.146-.491.227-.742.237-.63.03-.93-.443-.668-1.12.276-.714.625-1.395.989-2.058.081-.15.371-.259.536-.222.535.121 1.056.318 1.639.504" fill="#a9acae"/><path d="m10.924 23.516c-.412-.546-.495-.954-.222-1.1.154-.081.436-.057.566.057.249.22.111.613-.344 1.043" fill="#fff"/><path d="m6.519 29.986c-.213 1.002-.213 1.002-.691.874.199-.908.03-1.702-.577-2.368-.088-.098-.063-.331-.09-.502.053-.031.106-.064.159-.096.258.281.516.562.808.879.713-.353 1.417-.854 2.32-.836-.28.459-.693.466-1.034.642-.32.164-.602.422-.9.638.015.065.029.128.044.192.878.083 1.756.167 2.749.261-.417.254-.417.253-.928.254-.291 0-.581 0-.872.01-.315.011-.63.032-.988.052" fill="#231f20"/><path d="m11.518 22.937c0 .364-.239.66-.533.66s-.532-.296-.532-.66c0-.365.238-.66.532-.66s.533.295.533.66" fill="#fff"/></g></svg>