<?xml version="1.0" encoding="UTF-8" standalone="no"?>
<!DOCTYPE svg PUBLIC "-//W3C//DTD SVG 1.1//EN" "http://www.w3.org/Graphics/SVG/1.1/DTD/svg11.dtd">
<svg width="100%" height="100%" viewBox="0 0 76 62" version="1.1" xmlns="http://www.w3.org/2000/svg" xmlns:xlink="http://www.w3.org/1999/xlink" xml:space="preserve" xmlns:serif="http://www.serif.com/" style="fill-rule:evenodd;clip-rule:evenodd;stroke-linejoin:round;stroke-miterlimit:2;">
    <g transform="matrix(1,0,0,1,-697,-2545)">
        <g>
            <g transform="matrix(4.16667,0,0,4.16667,715.99,2597.59)">
                <path d="M0,-10.265C0.97,-9.695 1.973,-9.65 3.055,-9.876C4.986,-10.28 6.935,-10.542 8.91,-10.144C9.005,-10.125 9.135,-10.272 9.505,-10.5C8.824,-10.768 8.353,-11.089 7.861,-11.124C5.564,-11.29 3.263,-11.401 0.962,-11.479C0.225,-11.504 -0.132,-11.064 0,-10.265M3.391,1.234L3.391,1.245C4.402,1.245 5.416,1.301 6.421,1.229C7.267,1.168 8.111,0.995 8.942,0.809C11.205,0.303 11.908,-1.487 12.194,-3.455C12.423,-5.039 11.501,-6.23 10.361,-7.219C9.907,-7.611 9.329,-7.864 8.89,-8.269C8.253,-8.86 7.532,-9.124 6.688,-9.065C5.179,-8.96 3.667,-8.87 2.166,-8.701C0.553,-8.521 -0.85,-7.815 -1.861,-6.551C-2.668,-5.544 -3.489,-4.429 -3.136,-3.015C-2.87,-1.951 -2.433,-0.926 -2.037,0.102C-1.727,0.905 -1.074,1.23 -0.244,1.233C0.968,1.237 2.179,1.234 3.391,1.234M10.179,-9.376C11.023,-8.417 11.758,-7.6 12.473,-6.765C13.419,-5.66 13.636,-4.311 13.468,-2.956C13.09,0.08 10.995,2.046 7.873,2.178C5.018,2.297 2.152,2.257 -0.705,2.158C-1.389,2.134 -2.298,1.776 -2.683,1.259C-3.572,0.062 -4.277,-1.262 -4.423,-2.855C-4.619,-4.99 -3.75,-6.551 -2.213,-7.876C-1.72,-8.3 -1.257,-8.758 -0.823,-9.161C-0.857,-9.364 -0.842,-9.484 -0.894,-9.555C-2.135,-11.279 -0.588,-12.562 0.957,-12.531C3.526,-12.48 6.095,-12.445 8.664,-12.439C9.596,-12.437 10.187,-11.868 10.656,-11.237C11.193,-10.514 10.458,-9.936 10.179,-9.376" style="fill:rgb(35,31,32);fill-rule:nonzero;"/>
            </g>
            <g transform="matrix(4.16667,0,0,4.16667,758.153,2571.59)">
                <path d="M0,4.651C0.071,3.385 0.173,2.234 0.186,1.082C0.198,0.096 0.024,-0.137 -0.955,-0.117C-4.087,-0.053 -7.216,0.094 -10.346,0.202C-10.971,0.223 -11.267,0.513 -11.238,1.149C-11.195,2.057 -11.195,2.968 -11.133,3.876C-11.059,4.965 -10.746,5.146 -9.673,5.041C-8.629,4.939 -7.562,4.841 -6.526,4.949C-4.395,5.171 -2.302,5.013 0,4.651M-6.728,7.472C-7.94,7.472 -9.152,7.475 -10.363,7.471C-11.193,7.467 -11.847,7.143 -12.156,6.34C-12.551,5.311 -12.989,4.287 -13.255,3.223C-13.608,1.81 -12.786,0.694 -11.98,-0.313C-10.969,-1.576 -9.566,-2.283 -7.954,-2.464C-6.451,-2.632 -4.94,-2.721 -3.431,-2.827C-2.587,-2.887 -1.867,-2.621 -1.229,-2.032C-0.79,-1.626 -0.212,-1.374 0.242,-0.981C1.382,0.008 2.305,1.199 2.074,2.783C1.79,4.751 1.086,6.541 -1.177,7.047C-2.008,7.233 -2.852,7.406 -3.698,7.466C-4.704,7.538 -5.718,7.484 -6.728,7.484L-6.728,7.472Z" style="fill:rgb(44,106,138);fill-rule:nonzero;"/>
            </g>
            <g transform="matrix(4.16667,0,0,4.16667,715.99,2552.21)">
                <path d="M0,0.624C-0.132,-0.175 0.225,-0.615 0.962,-0.59C3.263,-0.512 5.564,-0.401 7.861,-0.235C8.353,-0.2 8.824,0.121 9.505,0.389C9.135,0.617 9.005,0.764 8.91,0.745C6.935,0.347 4.986,0.609 3.055,1.013C1.973,1.239 0.97,1.194 0,0.624" style="fill:rgb(44,106,138);fill-rule:nonzero;"/>
            </g>
            <g transform="matrix(4.16667,0,0,4.16667,754.425,2578.47)">
                <path d="M0,1.734C0.242,-0.779 -0.042,-1.049 -2.372,-0.831C-4.226,-0.659 -6.088,-0.571 -7.946,-0.435C-8.33,-0.407 -8.711,-0.338 -9.17,-0.277L-9.17,1.865C-7.64,2.316 -1.616,2.236 0,1.734M0.895,3.001C-1.407,3.363 -3.5,3.521 -5.632,3.299C-6.666,3.191 -7.734,3.289 -8.778,3.391C-9.851,3.495 -10.164,3.315 -10.239,2.226C-10.301,1.319 -10.3,0.407 -10.343,-0.501C-10.373,-1.137 -10.076,-1.427 -9.451,-1.448C-6.321,-1.556 -3.191,-1.703 -0.06,-1.767C0.918,-1.787 1.093,-1.554 1.081,-0.568C1.068,0.584 0.965,1.735 0.895,3.001" style="fill:rgb(35,31,32);fill-rule:nonzero;"/>
            </g>
            <g transform="matrix(4.16667,0,0,4.16667,754.425,2576.52)">
                <path d="M0,2.201C-1.616,2.703 -7.64,2.783 -9.17,2.332L-9.17,0.19C-8.711,0.129 -8.33,0.06 -7.946,0.032C-6.088,-0.104 -4.226,-0.192 -2.372,-0.364C-0.042,-0.582 0.242,-0.312 0,2.201" style="fill:rgb(255,245,108);fill-rule:nonzero;"/>
            </g>
        </g>
    </g>
</svg>
