<svg clip-rule="evenodd" fill-rule="evenodd" stroke-linecap="round" stroke-linejoin="round" stroke-miterlimit="10" viewBox="0 0 1913 1287" xmlns="http://www.w3.org/2000/svg"><path d="m174.569 339.217h408.979v122.01h-408.979z" fill="#e9b259" stroke="#1d211c" stroke-width="9" transform="matrix(-4.16667 0 0 4.16667 2450.82336039 -1022.18396148)"/><g fill-rule="nonzero"><path d="m0-88.376 40.795 88.376-42.024-.723z" fill="#aa813f" stroke="#1d211c" stroke-width="9" transform="matrix(4.16667 0 0 4.16667 1723.45194516 759.45496383)"/><path d="m0-12.488c-4.124 3.015-9.45 4.979-14.515 4.138 3.876-3.153 6.504-6.267 8.826-9.567 2.297-3.283 4.169-6.717 5.783-10.279 1.599-3.57 2.915-7.263 3.912-11.18 1.019-3.938 1.669-8.034 2.095-12.904 3.572 3.509 5.402 8.42 5.864 13.354.442 4.963-.482 10.035-2.535 14.626-2.048 4.591-5.258 8.754-9.43 11.812m121.723 3.015c-2.038-22.165-18.518-42.89-40.838-52.883-3.825-1.712-7.817-3.108-11.942-4.142-25.796-6.48-51.38-.846-70.19 15.454-1.63 1.412-3.721 1.893-6.612 2.56-5.738 1.32-14.408 3.316-20.108 12.621-4.027 6.575-1.137 12.429 3.912 21.434 2.213 3.946 4.501 8.028 5.796 12.344 9.035 30.101 46.25 62.575 80.689 59.331 33.951-3.198 62.212-35 59.293-66.719" fill="#ffef00" transform="matrix(4.16667 0 0 4.16667 208.75906674 429.90053352)"/><path d="m0 21.09c5.077-.971 7.861-2.598 9.958-7.123 2.188-4.718 1.983-9.573.786-13.967-2.375 7.461-6 14.606-10.744 21.09" fill="#ffef00" transform="matrix(4.16667 0 0 4.16667 701.48862759 487.71724644)"/><path d="m0-44.771c-.426 4.87-1.075 8.966-2.095 12.904-.997 3.917-2.312 7.61-3.912 11.179-1.613 3.563-3.485 6.997-5.783 10.28-2.321 3.3-4.949 6.414-8.825 9.567 5.064.841 10.39-1.123 14.514-4.138 4.172-3.058 7.382-7.221 9.43-11.812 2.054-4.591 2.978-9.663 2.535-14.626-.462-4.934-2.292-9.845-5.864-13.354" fill="#1e130f" transform="matrix(4.16667 0 0 4.16667 234.17992041 398.61300849)"/><path d="m0 85.028c4.744-6.484 8.369-13.629 10.744-21.09 1.197 4.394 1.402 9.249-.786 13.967-2.097 4.525-4.881 6.152-9.958 7.123m-55.825 22.28c-34.439 3.244-71.654-29.229-80.689-59.331-1.295-4.315-3.583-8.397-5.796-12.344-5.048-9.004-7.939-14.859-3.912-21.433 5.701-9.305 14.37-11.301 20.108-12.622 2.891-.667 4.982-1.148 6.612-2.56 18.811-16.3 44.395-21.934 70.19-15.454 4.125 1.035 8.117 2.43 11.942 4.143 22.32 9.992 38.8 30.717 40.838 52.883 2.919 31.718-25.342 63.521-59.293 66.718m69.596-60.085c.093-2.495.061-4.997-.169-7.501-2.755-29.959-28.137-57.568-60.352-65.663-28.987-7.279-57.814-.963-79.175 17.329-.543.176-1.64.428-2.552.638-6.501 1.498-18.605 4.285-26.502 17.175-7.162 11.694-1.127 22.457 3.72 31.105 2.048 3.653 3.982 7.1 4.972 10.405 7.122 23.726 28.955 48.06 54.877 59.662 11.685 5.231 24.202 7.875 36.574 6.71 17.156-1.617 33.051-9.588 45.22-21.124l.028.217c1.219-.148 2.403-.277 3.553-.403 10.217-1.118 19.867-2.177 25.281-13.857 4.806-10.365 2.827-22.651-5.475-34.693" fill="#1e130f" transform="matrix(4.16667 0 0 4.16667 701.48862759 221.30869998)"/><path d="m-38.467-24.924c-10.354.28-18.749 19.376-18.749 42.653-.001 23.275 8.394 41.917 18.749 41.637 10.356-.281 18.75-19.377 18.75-42.653.001-23.276-8.394-41.917-18.75-41.637" fill="#fff" opacity=".42" transform="matrix(1.70249719533 -3.80297804238 -3.80297804238 -1.70249719533 630.97607118 151.086143802)"/><path d="m0 23.251c-2.427 4.41-6.402 8.355-11.363 9.649 2.141-4.435 3.168-8.327 3.836-12.263.652-3.912.853-7.787.764-11.674-.105-3.888-.521-7.772-1.325-11.73-.792-3.987-1.989-7.966-3.725-12.557 4.77 1.732 8.571 5.444 11.141 9.732 2.566 4.323 3.939 9.299 4.077 14.299.144 4.995-.954 10.077-3.405 14.544m111.736-46.698c-11.511-19.28-35.496-31.388-60.1-31.388-4.217 0-8.446.355-12.639 1.091-26.226 4.598-46.979 20.099-56.937 42.525-.863 1.943-2.55 3.228-4.883 5.008-4.628 3.527-11.623 8.859-12.739 19.616-.787 7.599 4.388 11.736 12.894 17.855 3.729 2.681 7.583 5.454 10.64 8.844 21.319 23.638 69.236 37.982 99.063 21.054 29.405-16.689 41.178-57.015 24.701-84.605" fill="#ffef00" transform="matrix(4.16667 0 0 4.16667 744.80949558 333.91295673)"/><path d="m0 23.496c4.183-2.942 5.999-5.549 5.928-10.505-.072-5.169-2.374-9.49-5.376-12.991 1.098 7.733.925 15.687-.552 23.496" fill="#ffef00" transform="matrix(4.16667 0 0 4.16667 1277.99742213 312.15877266)"/><path d="m0-48.224c1.736 4.591 2.934 8.57 3.726 12.557.803 3.958 1.219 7.842 1.325 11.731.089 3.886-.113 7.761-.765 11.673-.668 3.936-1.694 7.828-3.836 12.263 4.961-1.294 8.937-5.239 11.363-9.649 2.452-4.467 3.549-9.549 3.406-14.544-.139-5-1.512-9.975-4.077-14.299-2.571-4.288-6.371-8-11.142-9.732" fill="#1e130f" transform="matrix(4.16667 0 0 4.16667 695.5844562 470.99223306)"/><path d="m0 27.303c1.477-7.809 1.65-15.763.552-23.496 3.002 3.501 5.304 7.822 5.376 12.991.071 4.956-1.745 7.563-5.928 10.505m-40.93 42.883c-29.827 16.929-77.744 2.584-99.063-21.054-3.057-3.39-6.911-6.163-10.64-8.844-8.506-6.119-13.68-10.256-12.893-17.855 1.115-10.756 8.11-16.089 12.738-19.616 2.333-1.78 4.02-3.065 4.883-5.008 9.958-22.426 30.711-37.927 56.937-42.525 4.194-.736 8.422-1.091 12.639-1.091 24.604 0 48.589 12.109 60.1 31.388 16.477 27.59 4.705 67.916-24.701 84.605m36.941-82.771c-1.003-2.301-2.122-4.558-3.423-6.736-15.561-26.059-50.622-40.796-83.376-35.058-29.47 5.169-52.867 22.606-64.271 47.874-.415.38-1.301 1.055-2.037 1.615-5.244 3.999-15.009 11.443-16.553 26.344-1.4 13.517 8.767 20.83 16.935 26.707 3.45 2.482 6.707 4.824 9.046 7.419 16.805 18.632 47.22 31.84 75.792 31.838 12.882 0 25.39-2.686 36.105-8.766 14.859-8.434 25.803-22.12 31.813-37.528l.12.186c1.042-.629 2.06-1.228 3.047-1.809 8.781-5.163 17.074-10.043 16.894-22.838-.16-11.353-7.311-21.696-20.092-29.248" fill="#1e130f" transform="matrix(4.16667 0 0 4.16667 1277.99742213 296.29625997)"/><path d="m-42.402-42.402c-10.293 0-18.637 18.984-18.637 42.402 0 23.417 8.344 42.402 18.637 42.402 10.292 0 18.636-18.985 18.636-42.402 0-23.418-8.344-42.402-18.636-42.402" fill="#fff" opacity=".42" transform="matrix(0 -4.16667 -4.16667 0 961.13466864 36.221468577)"/><path d="m0-74.194c-5.133-.624-10.366-2.809-13.382-6.825 5.057.357 9.191-.1 13.24-.896 4.02-.801 7.845-1.996 11.578-3.457 3.728-1.475 7.342-3.231 10.89-5.363 3.58-2.13 7.009-4.624 10.838-7.821.018 4.919-2.227 9.667-5.468 13.509-3.276 3.851-7.607 6.857-12.399 8.758-4.788 1.904-10.099 2.719-15.297 2.095m84.922 84.22c14.583-17.236 17.79-43.176 9.05-65.374-1.498-3.804-3.345-7.494-5.547-11.015-13.77-22.028-36.155-35.245-61.413-36.263-2.188-.088-4.032-1.153-6.585-2.626-5.06-2.922-12.709-7.339-23.524-4.524-7.638 1.99-9.807 8.128-12.712 17.976-1.272 4.315-2.588 8.779-4.786 12.741-15.319 27.632-12.19 75.958 14.801 96.855 26.609 20.601 69.849 16.896 90.716-7.77" fill="#ffef00" transform="matrix(4.16667 0 0 4.16667 1392.7933473 502.12142463)"/><path d="m0 4.408c4.335 2.729 7.506 3.441 12.28 1.616 4.981-1.901 8.348-5.513 10.672-9.465-7.099 3.738-14.865 6.407-22.952 7.849" fill="#ffef00" transform="matrix(4.16667 0 0 4.16667 1602.2935149 648.2923749)"/><path d="m0-24.986c-3.829 3.198-7.258 5.691-10.838 7.822-3.548 2.131-7.162 3.887-10.891 5.363-3.732 1.461-7.557 2.656-11.577 3.457-4.049.795-8.183 1.253-13.24.896 3.016 4.016 8.249 6.201 13.382 6.824 5.198.624 10.509-.191 15.297-2.095 4.792-1.901 9.123-4.907 12.399-8.757 3.24-3.843 5.486-8.591 5.468-13.51" fill="#1e130f" transform="matrix(4.16667 0 0 4.16667 1530.97679118 195.57951273)"/><path d="m0 147.189c8.087-1.442 15.853-4.111 22.952-7.849-2.324 3.952-5.691 7.564-10.672 9.465-4.774 1.825-7.945 1.113-12.28-1.616m-56.073-21.693c-26.991-20.896-30.12-69.223-14.801-96.855 2.197-3.961 3.514-8.425 4.786-12.741 2.904-9.847 5.073-15.986 12.712-17.976 10.814-2.815 18.464 1.602 23.523 4.525 2.553 1.472 4.398 2.538 6.585 2.626 25.258 1.017 47.644 14.234 61.414 36.262 2.202 3.521 4.048 7.211 5.546 11.016 8.741 22.198 5.534 48.138-9.049 65.374-20.868 24.666-64.107 28.37-90.716 7.769m93.288 3.923c1.872-1.721 3.66-3.533 5.307-5.48 19.71-23.296 21.529-60.165 4.335-87.677-15.475-24.751-40.674-39.666-69.198-40.978-.515-.24-1.484-.8-2.288-1.264-5.736-3.311-16.415-9.477-31.395-5.576-13.588 3.539-17.06 15.31-19.85 24.766-1.178 3.995-2.289 7.765-3.972 10.797-12.075 21.781-14.062 53.913-3.91 79.691 4.576 11.622 11.62 21.952 21.316 29.46 13.448 10.409 30.59 15.422 47.648 15.37l-.138.175c.98.716 1.921 1.421 2.834 2.106 8.121 6.088 15.793 11.837 28.121 7.129 10.94-4.178 18.416-14.304 21.19-28.519" fill="#1e130f" transform="matrix(4.16667 0 0 4.16667 1602.2935149 53.37106563)"/><path d="m-15.064-2.859c-10.615.251-19.22 18.861-19.219 41.568-.001 22.707 8.604 40.912 19.219 40.662 10.615-.251 19.22-18.86 19.219-41.568.001-22.707-8.604-40.912-19.219-40.662" fill="#fff" opacity=".42" transform="matrix(3.87694893489 -1.52656788792 -1.52656788792 -3.87694893489 1797.47700438 436.06720512)"/><path d="m0 48.001c-1.486 4.783-4.586 9.402-9.188 11.608 1.201-4.754 1.418-8.764 1.275-12.751-.153-3.959-.741-7.797-1.616-11.592-.891-3.793-2.087-7.523-3.678-11.253-1.584-3.76-3.564-7.437-6.198-11.611 5.029.798 9.509 3.721 12.899 7.44 3.392 3.756 5.747 8.376 6.897 13.252 1.153 4.873 1.107 10.063-.391 14.907m100.11-66.895c-15.197-16.733-41.172-24.079-65.301-19.433-4.136.796-8.211 1.943-12.174 3.457-24.787 9.461-41.996 28.582-47.217 52.454-.451 2.069-1.846 3.647-3.772 5.834-3.825 4.333-9.604 10.883-8.517 21.642.768 7.601 6.683 10.681 16.264 15.075 4.2 1.926 8.543 3.918 12.227 6.664 25.698 19.155 75.598 24.175 101.416 1.941 25.455-21.919 28.825-63.689 7.074-87.634" fill="#ffef00" transform="matrix(4.16667 0 0 4.16667 355.60918422 615.25901514)"/><path d="m0 23.146c3.505-3.675 4.759-6.575 3.684-11.422-1.119-5.055-4.252-8.858-7.906-11.724 2.645 7.376 4.087 15.209 4.222 23.146" fill="#ffef00" transform="matrix(4.16667 0 0 4.16667 874.28459916 597.80483451)"/><path d="m0-47.208c2.634 4.174 4.614 7.851 6.198 11.611 1.591 3.73 2.787 7.46 3.678 11.253.875 3.795 1.463 7.634 1.616 11.593.144 3.986-.074 7.997-1.275 12.751 4.602-2.207 7.702-6.826 9.188-11.609 1.498-4.844 1.544-10.034.391-14.907-1.15-4.876-3.505-9.496-6.897-13.252-3.389-3.719-7.87-6.642-12.899-7.44" fill="#1e130f" transform="matrix(4.16667 0 0 4.16667 274.7507862 863.63421384)"/><path d="m0-3.151c-.135-7.937-1.577-15.77-4.222-23.146 3.654 2.866 6.787 6.669 7.906 11.724 1.075 4.847-.179 7.747-3.684 11.422m-31.446 49.783c-25.819 22.234-75.718 17.214-101.416-1.941-3.685-2.746-8.028-4.738-12.228-6.664-9.581-4.394-15.495-7.474-16.264-15.075-1.086-10.759 4.693-17.309 8.517-21.642 1.927-2.187 3.321-3.765 3.773-5.834 5.22-23.872 22.429-42.993 47.216-52.454 3.963-1.514 8.038-2.661 12.174-3.457 24.129-4.646 50.105 2.7 65.302 19.433 21.751 23.945 18.381 65.715-7.074 87.634m19.448-88.147c-1.449-2.067-3.005-4.069-4.723-5.959-20.542-22.617-57.913-30.449-88.871-18.636-27.851 10.633-47.262 32.151-53.323 59.084-.33.452-1.063 1.281-1.67 1.969-4.333 4.912-12.4 14.056-10.894 28.961 1.368 13.519 12.821 18.772 22.022 22.993 3.887 1.782 7.556 3.464 10.375 5.567 20.257 15.099 52.761 22.308 80.781 16.91 12.633-2.432 24.355-7.427 33.63-15.414 12.862-11.077 20.821-26.565 23.591-42.81l.156.16c.894-.814 1.771-1.593 2.621-2.349 7.566-6.722 14.709-13.073 11.938-25.587-2.458-11.104-11.568-19.897-25.633-24.889" fill="#1e130f" transform="matrix(4.16667 0 0 4.16667 874.28459916 707.3757555)"/><path d="m-41.583-50.354c-10.306-.141-18.66 18.705-18.66 42.093 0 23.387 8.355 42.46 18.66 42.6 10.306.141 18.66-18.705 18.661-42.093-.001-23.387-8.355-42.46-18.661-42.6" fill="#fff" opacity=".42" transform="matrix(-.78783813027 -4.09150743987 -4.09150743987 .78783813027 458.05509951 396.90467379)"/><path d="m0 23.251c-2.428 4.41-6.403 8.355-11.364 9.649 2.142-4.435 3.168-8.327 3.836-12.263.652-3.911.853-7.787.764-11.674-.104-3.887-.521-7.772-1.325-11.73-.792-3.986-1.988-7.966-3.725-12.557 4.77 1.732 8.572 5.444 11.142 9.732 2.565 4.324 3.939 9.3 4.076 14.299.145 4.996-.953 10.077-3.404 14.544m111.736-46.697c-11.512-19.281-35.496-31.389-60.1-31.389-4.217 0-8.447.355-12.64 1.091-26.225 4.598-46.978 20.099-56.936 42.525-.863 1.943-2.55 3.228-4.883 5.008-4.629 3.527-11.624 8.859-12.739 19.616-.787 7.599 4.388 11.736 12.894 17.855 3.728 2.681 7.583 5.455 10.64 8.844 21.319 23.638 69.236 37.982 99.062 21.054 29.406-16.689 41.179-57.015 24.702-84.604" fill="#ffef00" transform="matrix(4.16667 0 0 4.16667 1095.01394241 653.64237918)"/><path d="m0 23.496c4.184-2.942 6-5.549 5.929-10.505-.073-5.169-2.374-9.49-5.376-12.991 1.098 7.733.924 15.688-.553 23.496" fill="#ffef00" transform="matrix(4.16667 0 0 4.16667 1628.19353562 631.88819511)"/><path d="m0-48.224c1.737 4.591 2.934 8.571 3.726 12.557.803 3.958 1.22 7.843 1.325 11.731.089 3.886-.113 7.762-.765 11.673-.668 3.936-1.693 7.829-3.836 12.263 4.961-1.294 8.937-5.239 11.364-9.649 2.452-4.467 3.549-9.548 3.405-14.544-.138-4.999-1.512-9.975-4.076-14.299-2.571-4.288-6.372-8-11.143-9.732" fill="#1e130f" transform="matrix(4.16667 0 0 4.16667 1045.78473636 790.72582218)"/><path d="m0 27.303c1.477-7.808 1.651-15.763.553-23.496 3.002 3.501 5.303 7.822 5.376 12.991.071 4.956-1.745 7.563-5.929 10.505m-40.93 42.883c-29.826 16.929-77.743 2.584-99.062-21.054-3.057-3.389-6.912-6.163-10.64-8.844-8.506-6.119-13.681-10.256-12.893-17.855 1.114-10.756 8.109-16.088 12.738-19.616 2.333-1.78 4.02-3.065 4.883-5.008 9.958-22.425 30.711-37.927 56.936-42.525 4.194-.736 8.423-1.091 12.64-1.091 24.604 0 48.588 12.109 60.1 31.389 16.477 27.589 4.705 67.915-24.702 84.604m36.941-82.771c-1.002-2.301-2.122-4.558-3.423-6.736-15.561-26.058-50.621-40.796-83.376-35.058-29.469 5.169-52.867 22.606-64.27 47.874-.416.38-1.301 1.056-2.037 1.616-5.244 3.999-15.01 11.442-16.553 26.344-1.4 13.516 8.767 20.829 16.935 26.706 3.449 2.482 6.707 4.824 9.046 7.419 16.804 18.632 47.219 31.84 75.792 31.838 12.882 0 25.39-2.685 36.104-8.766 14.86-8.434 25.804-22.12 31.813-37.528l.121.186c1.041-.629 2.059-1.227 3.047-1.809 8.781-5.163 17.074-10.042 16.894-22.838-.16-11.353-7.311-21.696-20.093-29.248" fill="#1e130f" transform="matrix(4.16667 0 0 4.16667 1628.19353562 616.02568242)"/><path d="m-42.403-42.403c-10.292 0-18.636 18.984-18.636 42.402 0 23.419 8.344 42.404 18.636 42.404s18.636-18.985 18.636-42.404c0-23.418-8.344-42.402-18.636-42.402" fill="#fff" opacity=".42" transform="matrix(0 -4.16667 -4.16667 0 1311.3349488 355.95464103)"/></g><path d="m215.364 250.841h408.979v122.01h-408.979z" fill="#e9b259" stroke="#1d211c" stroke-width="9" transform="matrix(-4.16667 0 0 4.16667 2790.78196569 -285.71670564)"/><path d="m-83.66-79.625h97.338l110.777-51.136h-97.338z" fill="#aa813f" fill-rule="nonzero" stroke="#1d211c" stroke-width="9" transform="matrix(1.7462930637 3.78306969312 3.78306969312 -1.7462930637 466.69260642 568.66314453)"/></svg>