<svg clip-rule="evenodd" fill-rule="evenodd" stroke-linecap="round" stroke-linejoin="round" stroke-miterlimit="10" viewBox="0 0 1886 1227" xmlns="http://www.w3.org/2000/svg"><path d="m231.567 343.668h401.23v97.895h-401.23z" fill="#e9b259" stroke="#1d211c" stroke-width="3" transform="matrix(-4.16667 0 0 4.16667 2832.01954788 -918.04641077)"/><g fill-rule="nonzero"><path d="m0-69.449-42.343 68.604 43.457.845z" fill="#aa813f" stroke="#1d211c" stroke-width="9" transform="matrix(4.16667 0 0 4.16667 195.36327189 803.27996629)"/><path d="m-103.133-108.957h80.618l83.306 51.415h-80.618z" fill="#aa813f" stroke="#1d211c" stroke-width="9" transform="matrix(-2.18839341738 3.5457111699 3.5457111699 2.18839341738 2027.7939045 1118.03021809)"/><path d="m0-40.858c-4.002.141-7.958.833-11.658 2.035 4.06 4.06 7.474 9.301 7.519 9.38 3.08 5.472 3.219 10.223 3.364 15.25l.068 2.063c.152 3.903.215 7.903.042 11.971.352.053.714.114 1.057.159 2.745-13.524 2.663-27.427-.392-40.858" fill="#a88348" transform="matrix(4.16667 0 0 4.16667 679.75532607 204.149070319)"/><path d="m0-75.597c2.597-.734 5.451.333 6.383 2.379.93 2.049-.419 4.305-3.014 5.039-9.276 2.624-18.476 3.955-27.14 3.955-.825 0-1.62-.066-2.433-.09-.193.074-.341.203-.547.258-.519.138-1.055.206-1.591.206-.883 0-1.758-.184-2.536-.547l-.495-.23c-1.432-.138-2.867-.272-4.258-.49-14.238-2.234-26.557-8.933-32.953-17.917-1.349-1.898-.497-4.298 1.907-5.365 2.401-1.067 5.446-.392 6.796 1.505 4.099 5.759 11.473 10.297 20.301 12.738 2.406-5.207 3.79-10.337 4.476-15.84-2.533-.578-5.034-1.189-7.485-1.796-9.107-2.261-17.732-4.408-26.761-4.166-13.291.332-26.688 6.303-35.836 15.97-7.981 8.437-12.898 19.408-14.616 32.609-1.385 10.636-.992 26.136 8.723 39.583 8.756 12.116 24.391 20.178 39.834 20.538 2.599.069 5.274-.072 8.1-.217 2.438-.123 4.908-.248 7.404-.248 3.511 0 7.069.248 10.642 1.095 3.097.734 5.828 1.834 8.47 2.897 2.306.93 4.483 1.807 6.673 2.341 8.19 1.993 17.566-.54 25.714-3.071 8.795-2.734 15.88-5.313 21.863-9.014 6.125-3.79 11.6-9.1 17.227-16.708 9.057-12.244 18.75-30.839 13.487-49.898-4.324-15.652-21.779-31.505-42.506-29.859-3.376.27-6.426.696-9.371 1.109-3.917.548-7.73 1.07-11.914 1.198-1.44 5.249-3.291 10.41-5.546 15.463 6.71-.25 13.799-1.388 21.002-3.427" fill="#bb0d11" transform="matrix(4.16667 0 0 4.16667 779.55540591 603.71730664)"/><path d="m0-46.611c-5.355-19.372-26.742-38.153-53.264-36.019-3.747.3-6.981.752-10.106 1.19-2.914.406-5.577.768-8.273.962-.518 2.683-1.171 5.344-1.9 7.994 4.184-.128 7.997-.649 11.914-1.198 2.945-.413 5.995-.839 9.371-1.109 20.727-1.646 38.182 14.207 42.506 29.859 5.263 19.059-4.43 37.654-13.487 49.898-5.627 7.609-11.102 12.918-17.227 16.708-5.983 3.701-13.068 6.28-21.863 9.014-8.148 2.531-17.524 5.064-25.714 3.071-2.189-.534-4.367-1.411-6.673-2.341-2.641-1.063-5.373-2.163-8.47-2.897-3.573-.847-7.131-1.095-10.642-1.095-2.496 0-4.966.125-7.403.248-2.827.145-5.501.286-8.101.217-15.442-.359-31.078-8.422-39.834-20.538-9.715-13.447-10.107-28.947-8.723-39.583 1.718-13.201 6.635-24.172 14.617-32.609 9.147-9.667 22.544-15.638 35.835-15.97 9.029-.242 17.654 1.905 26.761 4.166 2.451.607 4.952 1.219 7.486 1.796.324-2.594.518-5.264.584-8.083-1.676-.4-3.348-.801-5.076-1.23-9.5-2.357-19.345-4.801-30.071-4.525-16.298.407-32.568 7.56-43.517 19.132-9.078 9.593-14.645 21.88-16.55 36.518-2.196 16.896 1.256 32.211 9.982 44.29 10.442 14.451 29.365 24.072 48.21 24.513 3.072.072 6.105-.082 9.034-.23 5.22-.264 10.145-.512 14.539.53 2.232.529 4.451 1.424 6.8 2.37 2.583 1.04 5.254 2.116 8.273 2.849 3.054.746 6.14 1.063 9.237 1.063 7.78 0 15.606-2.012 23.073-4.331 7.744-2.407 16.652-5.374 24.362-10.143 7.152-4.426 13.411-10.443 19.692-18.936 9.951-13.454 20.566-34.011 14.618-55.551" fill="#1e130f" transform="matrix(4.16667 0 0 4.16667 1021.5847662 540.59642281)"/><path d="m0 7.016c.63-2.271 1.153-4.56 1.619-6.856-.343-.045-.705-.107-1.057-.16-.098 2.318-.253 4.651-.562 7.016" fill="#1e130f" transform="matrix(4.16667 0 0 4.16667 674.64282198 203.485736455)"/><path d="m0-19.695c-1.351-1.897-4.396-2.572-6.796-1.505-2.404 1.067-3.256 3.467-1.907 5.364 6.395 8.985 18.715 15.684 32.953 17.918 1.391.218 2.826.352 4.258.49l-6.789-3.163c-2.115-.984-3.006-3.037-2.106-4.838.256-.512.452-1.019.688-1.528-8.828-2.441-16.202-6.979-20.301-12.738" fill="#1e130f" transform="matrix(4.16667 0 0 4.16667 530.05103964 323.72124931)"/><path d="m0 11.928c.813.023 1.608.09 2.433.09 8.664 0 17.864-1.331 27.14-3.955 2.595-.735 3.945-2.99 3.014-5.039-.932-2.046-3.786-3.114-6.383-2.379-7.203 2.039-14.292 3.177-21.002 3.427-.878 1.966-1.721 3.945-2.721 5.873-.467.9-1.387 1.562-2.481 1.983" fill="#1e130f" transform="matrix(4.16667 0 0 4.16667 670.37198523 286.0420525)"/><path d="m0-.317c.778.362 1.653.547 2.536.547.536 0 1.072-.068 1.591-.206.206-.055.353-.184.547-.258-1.748-.052-3.473-.149-5.169-.313z" fill="#1e130f" transform="matrix(4.16667 0 0 4.16667 650.89696965 336.71709304)"/><path d="m0-15.172c-2.306-.409-4.581-.896-6.832-1.409-.687 5.504-2.07 10.634-4.477 15.841 1.911.527 3.865.992 5.895 1.31 4.006.627 8.265.839 12.684.675 2.254-5.053 4.105-10.214 5.545-15.463-3.831.117-7.97-.094-12.815-.954" fill="#1e130f" transform="matrix(4.16667 0 0 4.16667 661.75531167 297.82122859)"/><path d="m0 48.385c.173-4.068.11-8.068-.042-11.972l-.068-2.062c-.145-5.028-.284-9.778-3.364-15.25-.045-.079-3.459-5.32-7.519-9.38 3.7-1.202 7.656-1.895 11.658-2.035 3.055 13.43 3.137 27.334.392 40.858 3.68.479 6.871.494 10.004.269 2.935-15.205 2.561-30.832-1.38-45.824-.456-1.731-2.319-3.011-4.553-3.129-9.781-.513-19.617 1.567-27.749 5.87 0 .002-.002.002-.004.004h-.002c-2.287 1.212-2.898 3.659-1.362 5.465.801.944 2.027 1.526 3.343 1.695 2.294 1.823 7.108 7.803 8.052 9.409 2.268 4.027 2.372 7.646 2.505 12.228l.068 2.125c.135 3.443.189 6.652.118 9.705 2.821.671 5.616 1.303 8.435 1.803.509.091.979.148 1.468.221" fill="#1e130f" transform="matrix(4.16667 0 0 4.16667 676.98449052 1.88349184)"/><path d="m0 8.421c4.845.86 8.984 1.071 12.815.954.729-2.65 1.382-5.31 1.901-7.994-3.133.226-6.323.21-10.004-.269-.466 2.297-.989 4.586-1.619 6.857.308-2.365.464-4.698.562-7.016-.489-.073-.959-.13-1.467-.22-2.82-.5-5.615-1.132-8.436-1.804-.065 2.819-.26 5.489-.584 8.083 2.251.513 4.526 1 6.832 1.409" fill="#1e130f" transform="matrix(4.16667 0 0 4.16667 661.75531167 199.515733279)"/><path d="m0 8.421c4.845.86 8.984 1.071 12.815.954.729-2.65 1.382-5.31 1.901-7.994-3.133.226-6.323.21-10.004-.269-.466 2.297-.989 4.586-1.619 6.857.308-2.365.464-4.698.562-7.016-.489-.073-.959-.13-1.467-.22-2.82-.5-5.615-1.132-8.436-1.804-.065 2.819-.26 5.489-.584 8.083 2.251.513 4.526 1 6.832 1.409" fill="#1e130f" transform="matrix(4.16667 0 0 4.16667 661.75531167 199.515733279)"/><path d="m0 2.888 6.789 3.163c1.696.164 3.421.262 5.169.314 1.094-.421 2.014-1.083 2.481-1.984 1-1.928 1.843-3.906 2.721-5.873-4.419.164-8.678-.048-12.683-.675-2.031-.318-3.985-.783-5.895-1.31-.235.509-.432 1.015-.687 1.527-.901 1.802-.01 3.855 2.105 4.838" fill="#1e130f" transform="matrix(4.16667 0 0 4.16667 620.54694537 309.22540438)"/><path d="m0 2.888 6.789 3.163c1.696.164 3.421.262 5.169.314 1.094-.421 2.014-1.083 2.481-1.984 1-1.928 1.843-3.906 2.721-5.873-4.419.164-8.678-.048-12.683-.675-2.031-.318-3.985-.783-5.895-1.31-.235.509-.432 1.015-.687 1.527-.901 1.802-.01 3.855 2.105 4.838" fill="#1e130f" transform="matrix(4.16667 0 0 4.16667 620.54694537 309.22540438)"/><path d="m0-18.347c-4.235-2.669-8.035-5.769-12.487-8.206-4.453-2.437-9.801-4.21-15.186-3.732-5.385.476-10.596 3.731-11.084 7.991-.262 2.283.792 4.526 1.986 6.616 5.034 8.82 13.281 16.821 24.417 20.861 4.646 1.686 9.653 2.643 14.623 3.59 9.04 1.723 18.175 3.456 27.474 3.527 14.915.116 29.507-4.099 42.153-10.342 4.11-2.03 8.152-4.359 10.742-7.594 1.626-2.032 2.619-4.61 1.49-6.843-1.373-2.716-5.52-4.016-9.208-3.748-6.671.487-10.344 4.853-16.459 6.381-6.49 1.623-13.393 2.307-20.189 2.187-13.755-.24-27.485-3.889-38.272-10.688" fill="#fff" opacity=".42" transform="matrix(4.16667 0 0 4.16667 527.43020421 391.85463715)"/><path d="m0-40.858c-4.003.141-7.958.833-11.658 2.035 4.06 4.06 7.474 9.301 7.519 9.38 3.08 5.472 3.219 10.223 3.364 15.25l.067 2.063c.153 3.903.216 7.903.043 11.971.352.053.713.114 1.057.159 2.744-13.524 2.663-27.427-.392-40.858" fill="#a88348" transform="matrix(4.16667 0 0 4.16667 1485.58097073 238.49201446)"/><path d="m0-75.597c2.597-.733 5.451.333 6.383 2.38.93 2.048-.419 4.304-3.014 5.038-9.276 2.624-18.476 3.955-27.14 3.955-.825 0-1.62-.066-2.434-.09-.192.074-.34.203-.546.258-.519.138-1.055.206-1.591.206-.883 0-1.759-.184-2.536-.547l-.495-.23c-1.433-.138-2.867-.272-4.258-.49-14.238-2.234-26.558-8.933-32.953-17.917-1.349-1.898-.497-4.298 1.907-5.365 2.4-1.066 5.446-.392 6.796 1.505 4.099 5.759 11.473 10.298 20.301 12.738 2.405-5.207 3.789-10.337 4.476-15.84-2.533-.578-5.034-1.189-7.486-1.796-9.106-2.261-17.731-4.408-26.76-4.166-13.291.332-26.688 6.303-35.836 15.97-7.982 8.437-12.899 19.409-14.616 32.609-1.385 10.636-.993 26.136 8.723 39.583 8.755 12.116 24.391 20.178 39.834 20.538 2.599.069 5.273-.072 8.1-.217 2.438-.123 4.908-.247 7.404-.247 3.511 0 7.069.247 10.642 1.094 3.096.734 5.828 1.834 8.469 2.897 2.307.93 4.484 1.807 6.674 2.341 8.19 1.993 17.566-.54 25.714-3.071 8.795-2.734 15.88-5.313 21.863-9.014 6.125-3.79 11.6-9.1 17.227-16.708 9.057-12.244 18.749-30.839 13.487-49.898-4.324-15.651-21.779-31.505-42.506-29.859-3.377.27-6.426.696-9.371 1.109-3.917.548-7.731 1.07-11.914 1.198-1.44 5.249-3.291 10.41-5.546 15.463 6.71-.25 13.798-1.388 21.002-3.427" fill="#bb0d11" transform="matrix(4.16667 0 0 4.16667 1585.3768839 638.05900078)"/><path d="m0-46.611c-5.355-19.372-26.743-38.153-53.264-36.019-3.747.3-6.981.752-10.106 1.19-2.914.407-5.577.767-8.274.962-.517 2.683-1.171 5.344-1.899 7.994 4.183-.128 7.997-.649 11.914-1.198 2.945-.413 5.994-.839 9.371-1.109 20.727-1.646 38.182 14.208 42.506 29.859 5.262 19.059-4.43 37.654-13.487 49.898-5.627 7.609-11.102 12.918-17.227 16.708-5.983 3.701-13.068 6.28-21.863 9.014-8.148 2.531-17.524 5.064-25.714 3.071-2.189-.534-4.367-1.411-6.674-2.341-2.641-1.063-5.373-2.163-8.469-2.897-3.573-.847-7.131-1.094-10.642-1.094-2.496 0-4.966.124-7.403.247-2.828.145-5.502.286-8.101.217-15.442-.359-31.079-8.422-39.834-20.538-9.716-13.447-10.107-28.947-8.723-39.583 1.717-13.2 6.634-24.172 14.617-32.609 9.147-9.667 22.544-15.638 35.835-15.97 9.029-.241 17.654 1.905 26.76 4.166 2.452.607 4.953 1.219 7.487 1.796.324-2.594.518-5.264.584-8.083-1.676-.4-3.348-.801-5.076-1.23-9.501-2.357-19.345-4.801-30.071-4.525-16.299.407-32.568 7.56-43.518 19.132-9.077 9.593-14.645 21.88-16.549 36.518-2.196 16.896 1.256 32.211 9.981 44.29 10.443 14.451 29.365 24.072 48.211 24.513 3.072.072 6.104-.082 9.034-.23 5.219-.264 10.144-.512 14.538.53 2.233.529 4.452 1.424 6.801 2.37 2.583 1.04 5.254 2.116 8.273 2.849 3.054.746 6.14 1.063 9.237 1.063 7.78 0 15.606-2.012 23.073-4.331 7.744-2.406 16.651-5.374 24.362-10.143 7.152-4.425 13.411-10.443 19.692-18.936 9.951-13.453 20.566-34.011 14.618-55.551" fill="#1e130f" transform="matrix(4.16667 0 0 4.16667 1827.40624419 574.93811695)"/><path d="m0 7.016c.63-2.271 1.154-4.56 1.62-6.856-.344-.045-.705-.107-1.057-.16-.099 2.318-.253 4.651-.563 7.016" fill="#1e130f" transform="matrix(4.16667 0 0 4.16667 1480.4601333 237.82951393)"/><path d="m0-19.696c-1.351-1.897-4.396-2.571-6.796-1.505-2.404 1.067-3.256 3.467-1.907 5.364 6.394 8.985 18.715 15.684 32.953 17.918 1.391.218 2.825.352 4.258.49l-6.789-3.163c-2.115-.983-3.006-3.037-2.106-4.838.256-.512.452-1.019.688-1.528-8.828-2.44-16.202-6.979-20.301-12.738" fill="#1e130f" transform="matrix(4.16667 0 0 4.16667 1335.87251763 358.06711012)"/><path d="m0 11.927c.814.023 1.609.09 2.434.09 8.664 0 17.864-1.331 27.14-3.955 2.595-.735 3.945-2.99 3.014-5.038-.932-2.047-3.786-3.114-6.383-2.38-7.204 2.039-14.292 3.177-21.002 3.427-.878 1.966-1.721 3.945-2.721 5.873-.467.9-1.387 1.562-2.482 1.983" fill="#1e130f" transform="matrix(4.16667 0 0 4.16667 1476.18929655 320.38791331)"/><path d="m0-.317c.777.362 1.653.547 2.536.547.536 0 1.072-.068 1.591-.206.206-.055.353-.184.546-.258-1.747-.052-3.472-.149-5.168-.313z" fill="#1e130f" transform="matrix(4.16667 0 0 4.16667 1456.71844764 371.05878718)"/><path d="m0-15.172c-2.306-.409-4.581-.896-6.832-1.409-.688 5.504-2.071 10.634-4.477 15.841 1.911.527 3.864.992 5.895 1.31 4.006.627 8.265.839 12.684.675 2.254-5.053 4.105-10.214 5.545-15.463-3.832.118-7.97-.094-12.815-.954" fill="#1e130f" transform="matrix(4.16667 0 0 4.16667 1467.58095633 332.16292273)"/><path d="m0 48.385c.173-4.068.11-8.068-.043-11.972l-.067-2.062c-.145-5.027-.284-9.778-3.364-15.25-.045-.079-3.459-5.32-7.519-9.38 3.7-1.202 7.655-1.895 11.658-2.035 3.055 13.43 3.136 27.334.392 40.858 3.679.479 6.871.494 10.003.269 2.936-15.205 2.561-30.832-1.38-45.823-.456-1.732-2.318-3.012-4.552-3.13-9.781-.513-19.617 1.567-27.749 5.871 0 .001-.002.001-.004.003h-.002c-2.287 1.212-2.899 3.659-1.363 5.465.802.944 2.028 1.526 3.344 1.695 2.294 1.824 7.108 7.803 8.051 9.409 2.268 4.027 2.373 7.646 2.506 12.229l.068 2.125c.135 3.442.189 6.652.118 9.704 2.821.671 5.616 1.303 8.435 1.803.508.091.979.148 1.468.221" fill="#1e130f" transform="matrix(4.16667 0 0 4.16667 1482.81013518 36.225602647)"/><path d="m0 8.42c4.845.86 8.983 1.072 12.815.954.728-2.65 1.382-5.31 1.9-7.994-3.132.226-6.323.21-10.003-.269-.466 2.297-.99 4.586-1.62 6.857.309-2.365.464-4.698.563-7.016-.489-.073-.96-.13-1.467-.22-2.82-.5-5.615-1.132-8.436-1.804-.065 2.819-.26 5.489-.584 8.083 2.251.513 4.526 1 6.832 1.409" fill="#1e130f" transform="matrix(4.16667 0 0 4.16667 1467.58095633 233.86284409)"/><path d="m0 8.42c4.845.86 8.983 1.072 12.815.954.728-2.65 1.382-5.31 1.9-7.994-3.132.226-6.323.21-10.003-.269-.466 2.297-.99 4.586-1.62 6.857.309-2.365.464-4.698.563-7.016-.489-.073-.96-.13-1.467-.22-2.82-.5-5.615-1.132-8.436-1.804-.065 2.819-.26 5.489-.584 8.083 2.251.513 4.526 1 6.832 1.409" fill="#1e130f" transform="matrix(4.16667 0 0 4.16667 1467.58095633 233.86284409)"/><path d="m0 2.89 6.789 3.162c1.696.164 3.421.262 5.168.314 1.095-.421 2.015-1.083 2.482-1.984 1-1.928 1.843-3.906 2.721-5.873-4.419.164-8.678-.048-12.683-.675-2.032-.318-3.985-.783-5.895-1.31-.235.509-.432 1.015-.687 1.527-.901 1.802-.01 3.856 2.105 4.839" fill="#1e130f" transform="matrix(4.16667 0 0 4.16667 1426.36842336 343.56293185)"/><path d="m0 2.89 6.789 3.162c1.696.164 3.421.262 5.168.314 1.095-.421 2.015-1.083 2.482-1.984 1-1.928 1.843-3.906 2.721-5.873-4.419.164-8.678-.048-12.683-.675-2.032-.318-3.985-.783-5.895-1.31-.235.509-.432 1.015-.687 1.527-.901 1.802-.01 3.856 2.105 4.839" fill="#1e130f" transform="matrix(4.16667 0 0 4.16667 1426.36842336 343.56293185)"/><path d="m0-18.347c-4.234-2.669-8.034-5.769-12.487-8.206-4.452-2.437-9.8-4.21-15.185-3.732-5.385.476-10.596 3.731-11.084 7.991-.262 2.283.792 4.526 1.985 6.616 5.035 8.82 13.282 16.821 24.418 20.861 4.646 1.686 9.653 2.643 14.623 3.59 9.04 1.723 18.174 3.456 27.474 3.527 14.914.116 29.507-4.098 42.152-10.342 4.111-2.03 8.152-4.358 10.742-7.594 1.627-2.032 2.62-4.61 1.491-6.843-1.373-2.715-5.52-4.016-9.208-3.748-6.671.487-10.344 4.853-16.459 6.382-6.49 1.622-13.393 2.306-20.19 2.186-13.754-.24-27.484-3.889-38.272-10.688" fill="#fff" opacity=".42" transform="matrix(4.16667 0 0 4.16667 1333.24751553 426.19633129)"/><path d="m0-34.781c-3.299 1.795-6.187 4.038-8.517 6.605 6.171 1.743 12.587 4.756 12.678 4.804 6.288 3.35 9.598 7.32 13.099 11.521l1.443 1.719c2.753 3.246 5.493 6.611 8.08 10.132.334-.103.682-.202 1.003-.308-6.761-12.615-16.173-24.367-27.786-34.473" fill="#a88348" transform="matrix(4.16667 0 0 4.16667 270.44666529 510.12973177)"/><path d="m0-86.205c1.709-1.709 4.845-2 7.011-.655 2.164 1.346 2.537 3.824.83 5.533-6.101 6.108-13.006 11.089-20.351 14.716-.698.345-1.417.622-2.123.942-.113.144-.152.315-.29.447-.347.335-.755.617-1.21.841-.749.37-1.615.58-2.517.599l-.575.012c-1.306.483-2.613.97-3.938 1.368-13.572 4.066-28.518 3.546-39.976-1.394-2.419-1.044-3.309-3.435-1.988-5.346 1.317-1.909 4.353-2.612 6.773-1.57 7.344 3.167 16.645 3.927 25.769 2.3-1.46-5.422-3.733-10.349-6.85-15.304-2.535.573-5.065 1.102-7.552 1.613-9.24 1.896-17.993 3.687-25.486 7.672-11.044 5.846-18.388 16.517-19.647 28.543-1.098 10.494 2.105 21.853 9.52 33.763 5.973 9.596 16.721 22.571 33.993 29.904 15.563 6.606 34.236 6.894 47.57.734 2.25-1.03 4.422-2.27 6.722-3.575 1.983-1.125 3.993-2.265 6.109-3.31 2.977-1.471 6.159-2.75 9.758-3.528 3.117-.674 6.172-.885 9.126-1.09 2.58-.178 5.015-.346 7.23-.81 8.282-1.739 14.529-7.812 19.735-13.369 5.619-5.999 9.892-11.152 12.477-16.795 2.647-5.778 3.72-12.571 3.377-21.377-.548-14.172-4.827-33.993-22.096-47.947-14.181-11.458-39.632-17.59-56.096-7.517-2.682 1.643-4.981 3.281-7.201 4.864-2.951 2.104-5.833 4.144-9.293 6.004 2.305 5.053 4.204 10.203 5.687 15.43 5.522-3.021 10.766-6.954 15.502-11.698" fill="#bb0d11" transform="matrix(4.16667 0 0 4.16667 526.27603662 898.63837591)"/><path d="m0-110.478c-17.558-14.18-48.309-21.147-69.357-8.234-2.975 1.823-5.413 3.561-7.769 5.24-2.196 1.564-4.211 2.986-6.366 4.279 1.364 2.492 2.597 5.021 3.762 7.572 3.459-1.859 6.342-3.899 9.293-6.003 2.22-1.583 4.519-3.221 7.201-4.864 16.464-10.073 41.915-3.941 56.096 7.517 17.269 13.954 21.548 33.775 22.096 47.947.343 8.806-.73 15.599-3.377 21.377-2.585 5.643-6.858 10.796-12.477 16.795-5.206 5.557-11.453 11.63-19.735 13.369-2.215.464-4.65.632-7.23.81-2.954.205-6.009.416-9.126 1.09-3.599.778-6.782 2.057-9.758 3.528-2.116 1.045-4.126 2.184-6.109 3.309-2.3 1.306-4.472 2.546-6.722 3.576-13.334 6.16-32.007 5.872-47.57-.734-17.272-7.333-28.02-20.308-33.993-29.904-7.415-11.91-10.618-23.27-9.52-33.763 1.259-12.026 8.603-22.697 19.647-28.543 7.493-3.985 16.246-5.776 25.486-7.673 2.487-.51 5.017-1.04 7.552-1.612-1.467-2.333-3.097-4.679-4.936-7.096-1.689.364-3.375.723-5.128 1.083-9.639 1.979-19.627 4.03-28.534 8.753-13.543 7.169-22.529 20.045-24.035 34.439-1.249 11.933 2.287 24.68 10.508 37.888 9.493 15.242 22.709 26.781 38.223 33.367 18.563 7.879 41.069 8.112 57.341.595 2.653-1.224 5.12-2.625 7.505-3.976 4.247-2.41 8.255-4.682 12.68-5.639 2.248-.485 4.73-.656 7.358-.838 2.889-.199 5.876-.405 8.928-1.047 3.09-.647 5.92-1.67 8.545-2.966 6.595-3.258 11.878-8.24 16.65-13.332 4.947-5.283 10.505-11.528 13.837-18.799 3.089-6.746 4.35-14.467 3.969-24.297-.604-15.571-5.418-37.443-24.935-53.214" fill="#1e130f" transform="matrix(4.16667 0 0 4.16667 770.19706509 947.31758152)"/><path d="m0 6.491c-.992-2.188-2.086-4.349-3.234-6.491-.322.106-.669.205-1.003.308 1.473 2.005 2.91 4.048 4.237 6.183" fill="#1e130f" transform="matrix(4.16667 0 0 4.16667 399.70093536 508.84639741)"/><path d="m0-11.334c-2.42-1.042-5.455-.339-6.772 1.57-1.322 1.91-.431 4.302 1.988 5.346 11.458 4.939 26.403 5.46 39.975 1.394 1.326-.398 2.632-.885 3.939-1.369l-7.881.162c-2.453.052-4.589-1.316-5.036-3.22-.127-.541-.301-1.053-.443-1.583-9.124 1.627-18.425.867-25.77-2.3" fill="#1e130f" transform="matrix(4.16667 0 0 4.16667 283.13000877 651.22984465)"/><path d="m0 22.536c.706-.32 1.425-.597 2.123-.942 7.345-3.627 14.25-8.608 20.351-14.716 1.707-1.709 1.334-4.187-.83-5.533-2.166-1.345-5.302-1.054-7.011.655-4.737 4.744-9.981 8.677-15.502 11.698.578 2.035 1.193 4.066 1.64 6.118.209.959-.126 1.906-.771 2.72" fill="#1e130f" transform="matrix(4.16667 0 0 4.16667 465.30515451 531.11724856)"/><path d="m0 1.875c.902-.019 1.769-.229 2.518-.599.455-.224.863-.505 1.21-.84.137-.133.176-.304.29-.448-1.517.688-3.044 1.327-4.592 1.899z" fill="#1e130f" transform="matrix(4.16667 0 0 4.16667 448.56347445 625.06732372)"/><path d="m0-12.412c-2.229.619-4.486 1.158-6.739 1.665 3.116 4.955 5.389 9.882 6.849 15.304 1.974-.352 3.943-.777 5.878-1.357 3.818-1.145 7.57-2.749 11.205-4.738-1.483-5.228-3.381-10.377-5.687-15.431-3.17 1.704-6.821 3.258-11.506 4.557" fill="#1e130f" transform="matrix(4.16667 0 0 4.16667 390.0425943 594.60063268)"/><path d="m0 41.69c-2.587-3.521-5.327-6.887-8.08-10.132l-1.443-1.72c-3.501-4.201-6.811-8.17-13.099-11.52-.091-.048-6.507-3.062-12.678-4.804 2.329-2.567 5.218-4.81 8.517-6.605 11.613 10.106 21.025 21.858 27.786 34.472 3.441-1.134 6.157-2.457 8.661-3.96-7.728-14.119-18.546-27.21-31.961-38.268-1.55-1.277-3.989-1.583-5.963-.748-8.636 3.661-15.576 9.543-19.579 16.595.001.002 0 .003-.001.004l-.002.001c-1.123 1.986.002 4.316 2.519 5.205 1.312.463 2.743.444 3.972.036 3.171.586 11.269 3.638 13.149 4.605 4.628 2.465 7.149 5.489 10.341 9.318l1.485 1.773c2.428 2.861 4.63 5.561 6.62 8.178 2.844-.613 5.638-1.246 8.364-2.003.492-.136.928-.285 1.392-.427" fill="#1e130f" transform="matrix(4.16667 0 0 4.16667 382.0425879 336.42542614)"/><path d="m0 10.464c4.685-1.299 8.336-2.853 11.506-4.557-1.164-2.551-2.398-5.08-3.762-7.572-2.504 1.503-5.22 2.825-8.661 3.96 1.148 2.143 2.242 4.303 3.234 6.491-1.327-2.135-2.763-4.177-4.237-6.182-.464.141-.9.291-1.392.426-2.726.757-5.52 1.391-8.364 2.003 1.839 2.417 3.469 4.763 4.937 7.096 2.253-.507 4.51-1.046 6.739-1.665" fill="#1e130f" transform="matrix(4.16667 0 0 4.16667 390.0425943 499.28388976)"/><path d="m0 10.464c4.685-1.299 8.336-2.853 11.506-4.557-1.164-2.551-2.398-5.08-3.762-7.572-2.504 1.503-5.22 2.825-8.661 3.96 1.148 2.143 2.242 4.303 3.234 6.491-1.327-2.135-2.763-4.177-4.237-6.182-.464.141-.9.291-1.392.426-2.726.757-5.52 1.391-8.364 2.003 1.839 2.417 3.469 4.763 4.937 7.096 2.253-.507 4.51-1.046 6.739-1.665" fill="#1e130f" transform="matrix(4.16667 0 0 4.16667 390.0425943 499.28388976)"/><path d="m0 10.844 7.881-.161c1.548-.571 3.075-1.211 4.592-1.899.644-.814.98-1.76.771-2.719-.447-2.053-1.062-4.083-1.64-6.118-3.636 1.989-7.388 3.592-11.206 4.738-1.935.58-3.904 1.005-5.877 1.356.142.531.316 1.042.443 1.583.447 1.905 2.583 3.273 5.036 3.22" fill="#1e130f" transform="matrix(4.16667 0 0 4.16667 413.3342796 588.4172944)"/><path d="m0 10.844 7.881-.161c1.548-.571 3.075-1.211 4.592-1.899.644-.814.98-1.76.771-2.719-.447-2.053-1.062-4.083-1.64-6.118-3.636 1.989-7.388 3.592-11.206 4.738-1.935.58-3.904 1.005-5.877 1.356.142.531.316 1.042.443 1.583.447 1.905 2.583 3.273 5.036 3.22" fill="#1e130f" transform="matrix(4.16667 0 0 4.16667 413.3342796 588.4172944)"/><path d="m0 5.619c-5.383-.489-10.688-1.526-16.1-1.729-5.413-.201-11.137.535-15.381 3.194-4.245 2.659-6.475 7.599-4.027 11.415 1.313 2.046 3.713 3.506 6.128 4.778 10.195 5.369 22.564 8.698 34.719 7.461 5.071-.515 9.958-1.801 14.807-3.078 8.823-2.324 17.731-4.68 25.663-8.513 12.721-6.146 22.259-15.829 28.785-26.416 2.12-3.441 3.981-7.107 4.003-10.934.013-2.405-.877-5.006-3.334-6.426-2.99-1.727-7.379-1.094-10.325.679-5.328 3.205-5.508 8.443-9.665 12.299-4.412 4.093-9.804 7.563-15.645 10.307-11.822 5.556-25.914 8.21-39.628 6.963" fill="#fff" opacity=".42" transform="matrix(4.16667 0 0 4.16667 330.46337997 644.21317237)"/><path d="m0-40.857c-4.003.14-7.959.832-11.659 2.034 4.061 4.06 7.474 9.302 7.519 9.38 3.081 5.473 3.219 10.223 3.364 15.251l.068 2.062c.152 3.904.215 7.903.042 11.971.353.054.714.115 1.058.159 2.744-13.524 2.663-27.427-.392-40.857" fill="#a88348" transform="matrix(4.16667 0 0 4.16667 1327.15584399 509.38806451)"/><path d="m0-75.595c2.597-.734 5.451.332 6.383 2.379.929 2.048-.419 4.305-3.015 5.038-9.276 2.624-18.476 3.955-27.14 3.955-.824 0-1.62-.065-2.433-.09-.192.074-.34.203-.546.258-.519.139-1.055.206-1.591.206-.884 0-1.759-.184-2.537-.546l-.494-.23c-1.433-.139-2.868-.273-4.259-.491-14.238-2.234-26.557-8.933-32.952-17.917-1.35-1.898-.497-4.298 1.906-5.365 2.401-1.066 5.446-.392 6.797 1.505 4.099 5.76 11.472 10.298 20.3 12.738 2.406-5.207 3.79-10.336 4.477-15.84-2.533-.578-5.034-1.188-7.486-1.796-9.106-2.261-17.731-4.408-26.761-4.166-13.29.333-26.688 6.303-35.836 15.971-7.981 8.436-12.898 19.408-14.616 32.609-1.384 10.635-.992 26.135 8.723 39.582 8.756 12.116 24.392 20.179 39.835 20.539 2.599.069 5.273-.072 8.1-.217 2.437-.124 4.908-.248 7.403-.248 3.512 0 7.069.248 10.643 1.094 3.096.734 5.828 1.835 8.469 2.898 2.307.929 4.484 1.807 6.674 2.341 8.19 1.992 17.565-.541 25.713-3.072 8.795-2.734 15.88-5.313 21.863-9.014 6.126-3.79 11.601-9.1 17.227-16.708 9.058-12.243 18.75-30.839 13.488-49.898-4.324-15.651-21.779-31.505-42.506-29.858-3.377.269-6.426.696-9.372 1.108-3.916.548-7.73 1.071-11.913 1.199-1.441 5.249-3.292 10.41-5.547 15.462 6.711-.249 13.799-1.388 21.003-3.426" fill="#bb0d11" transform="matrix(4.16667 0 0 4.16667 1426.95592383 908.95088416)"/><path d="m0-46.611c-5.356-19.372-26.743-38.153-53.264-36.019-3.747.3-6.981.753-10.107 1.19-2.913.407-5.576.768-8.273.963-.518 2.682-1.171 5.344-1.899 7.994 4.183-.128 7.997-.65 11.913-1.199 2.946-.412 5.995-.839 9.372-1.108 20.727-1.647 38.182 14.207 42.506 29.858 5.262 19.059-4.43 37.655-13.488 49.898-5.626 7.609-11.101 12.918-17.227 16.708-5.983 3.701-13.068 6.28-21.863 9.014-8.148 2.531-17.523 5.064-25.713 3.072-2.189-.534-4.367-1.412-6.674-2.341-2.641-1.063-5.373-2.164-8.469-2.898-3.574-.846-7.131-1.094-10.643-1.094-2.495 0-4.966.124-7.402.248-2.828.145-5.502.286-8.101.217-15.443-.36-31.079-8.423-39.835-20.539-9.715-13.447-10.106-28.947-8.723-39.582 1.718-13.201 6.635-24.173 14.617-32.609 9.147-9.668 22.545-15.638 35.835-15.971 9.03-.241 17.655 1.905 26.761 4.166 2.452.608 4.953 1.219 7.487 1.796.323-2.593.517-5.264.583-8.083-1.676-.4-3.347-.801-5.076-1.229-9.5-2.358-19.345-4.802-30.07-4.526-16.299.408-32.568 7.56-43.518 19.132-9.077 9.593-14.645 21.88-16.55 36.518-2.196 16.897 1.256 32.212 9.982 44.291 10.443 14.45 29.365 24.071 48.21 24.512 3.073.072 6.105-.082 9.035-.23 5.219-.264 10.144-.512 14.538.53 2.233.529 4.452 1.424 6.8 2.37 2.584 1.04 5.255 2.116 8.273 2.85 3.055.745 6.141 1.062 9.237 1.062 7.781 0 15.606-2.012 23.074-4.331 7.743-2.406 16.651-5.373 24.362-10.143 7.152-4.425 13.41-10.443 19.692-18.936 9.95-13.453 20.566-34.011 14.618-55.551" fill="#1e130f" transform="matrix(4.16667 0 0 4.16667 1668.98528412 845.834167)"/><path d="m0 7.016c.63-2.271 1.153-4.56 1.62-6.856-.344-.045-.705-.106-1.058-.16-.098 2.318-.252 4.651-.562 7.016" fill="#1e130f" transform="matrix(4.16667 0 0 4.16667 1322.03917323 508.72139731)"/><path d="m0-19.697c-1.352-1.897-4.396-2.571-6.797-1.505-2.403 1.067-3.256 3.467-1.906 5.364 6.394 8.985 18.714 15.684 32.952 17.918 1.391.218 2.826.352 4.259.491l-6.789-3.164c-2.115-.983-3.007-3.036-2.106-4.838.256-.512.451-1.018.687-1.528-8.828-2.44-16.201-6.978-20.3-12.738" fill="#1e130f" transform="matrix(4.16667 0 0 4.16667 1177.45155756 628.96732684)"/><path d="m0 11.927c.813.024 1.609.09 2.433.09 8.664 0 17.864-1.331 27.14-3.955 2.596-.734 3.945-2.99 3.015-5.038-.932-2.047-3.786-3.114-6.383-2.379-7.204 2.038-14.292 3.177-21.003 3.426-.878 1.967-1.721 3.946-2.721 5.873-.466.9-1.387 1.562-2.481 1.983" fill="#1e130f" transform="matrix(4.16667 0 0 4.16667 1317.76833648 591.28396336)"/><path d="m0-.316c.778.361 1.653.546 2.537.546.536 0 1.072-.067 1.591-.206.206-.055.353-.184.546-.258-1.747-.052-3.473-.149-5.168-.312z" fill="#1e130f" transform="matrix(4.16667 0 0 4.16667 1298.2933209 641.95483723)"/><path d="m0-15.17c-2.307-.409-4.581-.897-6.832-1.41-.688 5.505-2.071 10.634-4.478 15.841 1.911.528 3.865.992 5.896 1.31 4.006.628 8.264.839 12.683.675 2.254-5.052 4.105-10.213 5.546-15.462-3.832.117-7.971-.095-12.815-.954" fill="#1e130f" transform="matrix(4.16667 0 0 4.16667 1309.15582959 603.05480611)"/><path d="m0 48.384c.173-4.068.11-8.067-.042-11.972l-.068-2.061c-.145-5.029-.283-9.779-3.364-15.251-.045-.078-3.458-5.32-7.519-9.38 3.7-1.202 7.656-1.895 11.659-2.034 3.055 13.429 3.136 27.333.392 40.857 3.679.479 6.87.495 10.003.27 2.935-15.206 2.561-30.833-1.38-45.825-.456-1.731-2.319-3.011-4.553-3.129-9.781-.513-19.616 1.568-27.748 5.871 0 .001-.002.001-.004.003h-.002c-2.287 1.213-2.899 3.659-1.363 5.465.802.944 2.027 1.526 3.343 1.696 2.295 1.823 7.109 7.802 8.052 9.408 2.268 4.027 2.373 7.647 2.505 12.228l.068 2.125c.135 3.443.189 6.653.118 9.705 2.821.671 5.617 1.304 8.436 1.804.508.09.979.147 1.467.22" fill="#1e130f" transform="matrix(4.16667 0 0 4.16667 1324.38084177 307.1254027)"/><path d="m0 8.422c4.844.859 8.983 1.071 12.815.954.728-2.65 1.381-5.311 1.9-7.994-3.133.226-6.323.209-10.003-.27-.467 2.297-.99 4.586-1.62 6.857.309-2.365.464-4.698.562-7.016-.488-.073-.959-.13-1.466-.219-2.82-.5-5.616-1.133-8.437-1.805-.065 2.819-.26 5.49-.583 8.083 2.251.513 4.525 1.001 6.832 1.41" fill="#1e130f" transform="matrix(4.16667 0 0 4.16667 1309.15582959 504.75472747)"/><path d="m0 8.422c4.844.859 8.983 1.071 12.815.954.728-2.65 1.381-5.311 1.9-7.994-3.133.226-6.323.209-10.003-.27-.467 2.297-.99 4.586-1.62 6.857.309-2.365.464-4.698.562-7.016-.488-.073-.959-.13-1.466-.219-2.82-.5-5.616-1.133-8.437-1.805-.065 2.819-.26 5.49-.583 8.083 2.251.513 4.525 1.001 6.832 1.41" fill="#1e130f" transform="matrix(4.16667 0 0 4.16667 1309.15582959 504.75472747)"/><path d="m0 2.89 6.789 3.163c1.695.163 3.421.261 5.168.313 1.094-.421 2.015-1.083 2.481-1.984 1-1.927 1.843-3.905 2.721-5.873-4.419.164-8.677-.047-12.682-.675-2.032-.318-3.986-.782-5.896-1.31-.235.51-.431 1.015-.686 1.527-.902 1.803-.01 3.856 2.105 4.839" fill="#1e130f" transform="matrix(4.16667 0 0 4.16667 1267.94746329 614.45481523)"/><path d="m0 2.89 6.789 3.163c1.695.163 3.421.261 5.168.313 1.094-.421 2.015-1.083 2.481-1.984 1-1.927 1.843-3.905 2.721-5.873-4.419.164-8.677-.047-12.682-.675-2.032-.318-3.986-.782-5.896-1.31-.235.51-.431 1.015-.686 1.527-.902 1.803-.01 3.856 2.105 4.839" fill="#1e130f" transform="matrix(4.16667 0 0 4.16667 1267.94746329 614.45481523)"/><path d="m0-18.346c-4.234-2.669-8.034-5.77-12.487-8.206-4.453-2.438-9.8-4.211-15.185-3.733-5.385.477-10.596 3.732-11.085 7.992-.262 2.282.792 4.525 1.986 6.615 5.035 8.82 13.282 16.821 24.417 20.861 4.647 1.686 9.653 2.643 14.623 3.59 9.041 1.724 18.175 3.456 27.475 3.528 14.914.116 29.507-4.099 42.152-10.342 4.111-2.031 8.152-4.359 10.742-7.594 1.627-2.032 2.62-4.61 1.49-6.844-1.373-2.715-5.52-4.016-9.208-3.747-6.671.486-10.343 4.852-16.458 6.381-6.49 1.622-13.394 2.306-20.19 2.187-13.754-.24-27.484-3.889-38.272-10.688" fill="#fff" opacity=".42" transform="matrix(4.16667 0 0 4.16667 1174.82655546 697.09238134)"/></g><path d="m189.224 275.063h401.231v97.895h-401.231z" fill="#e9b259" stroke="#1d211c" stroke-width="9" transform="matrix(-4.16667 0 0 4.16667 2479.16509893 -346.33762007)"/></svg>