<svg clip-rule="evenodd" fill-rule="evenodd" stroke-linecap="round" stroke-linejoin="round" stroke-miterlimit="10" viewBox="0 0 1727 1485" xmlns="http://www.w3.org/2000/svg"><path d="m229.822 311.522h331.106v105.858h-331.106z" fill="#e9b259" stroke="#1d211c" stroke-width="3" transform="matrix(-4.16667 0 0 4.16667 2609.3943025 -592.44205634)"/><path d="m-43.876-38.339h77.377" fill="none" stroke="#1d211c" stroke-width="3" transform="matrix(-.55868378028 4.1290449699 4.1290449699 .55868378028 405.98420644 908.1508108)"/><path d="m-32.238-38.339h77.833" fill="none" stroke="#1d211c" stroke-width="9" transform="matrix(.71505057204 4.10485745055 4.10485745055 -.71505057204 1832.23118077 810.484066)"/><g fill-rule="nonzero"><path d="m0 39.234c.6.002 1.182.072 1.777.087.263-5.337-3.674-13.604-7.485-21.599-2.854-5.986-5.752-12.068-7.398-17.809l-4.667 7.099c-.022.03-.042.06-.063.091.016.851-.217 1.608-.562 2.278 10.384 7.554 15.083 16.517 18.398 29.853" fill="#a88348" transform="matrix(4.16667 0 0 4.16667 466.08008785 288.910315408)"/><path d="m0 5.114c4.66-.512 7.348-2.226 7.729-3.024-.243-.508-1.435-1.383-3.448-2.09-1.305 1.918-2.738 3.656-4.281 5.114" fill="#7c991f" transform="matrix(4.16667 0 0 4.16667 457.87591462 549.97969093)"/><path d="m0 .085c.152.395 1.246 1.222 3.165 1.927-.395-1.295-.396-2.62-.121-3.939-1.849.713-2.895 1.553-3.044 2.012" fill="#7c991f" transform="matrix(4.16667 0 0 4.16667 402.98003737 558.62553118)"/><path d="m0 18.528c1.119-1.172 2.157-2.415 3.198-3.656 1.809-2.156 3.68-4.385 5.979-6.384 4.684-4.071 10.178-5.969 15.217-5.292-2.712-7.219-8.397-11.497-17.475-13.417-13.219-2.805-27.066 5.481-36.327 11.953-1.393.975-2.787 1.969-4.188 2.966-8.402 5.982-17.028 12.123-26.953 15.366 8.06 6.068 17.611 9.825 27.115 10.54 12.606.95 25.427-3.679 33.434-12.076" fill="#62ae28" transform="matrix(4.16667 0 0 4.16667 329.08831159 449.63794399)"/><path d="m0-127.951c-.651 2.182-1.479 4.437-2.467 6.663 4.981 2.072 8.14 5.546 8.14 9.653 0 6.671-8.292 11.705-19.285 11.705-10.995 0-19.287-5.034-19.287-11.705 0-6.081 6.919-10.752 16.463-11.54.229-.433.417-.833.582-1.213-.445-.821-1.236-1.487-2.465-1.73-2.449-.482-5.599.689-8.411 3.132-1.783 1.55-3.357 3.427-5.025 5.414-1.156 1.381-2.318 2.759-3.561 4.063-7.656 8.029-18.422 13.109-30.028 14.515-6.872 10.341-10.504 22.33-10.504 34.674 0 35.466 29.895 64.32 66.641 64.32s66.642-28.854 66.642-64.32c0-32.444-25.041-59.28-57.435-63.631" fill="#f19800" transform="matrix(4.16667 0 0 4.16667 503.31345097 1023.83007001)"/><path d="m0 185.626c-36.746 0-66.641-28.854-66.641-64.32 0-12.344 3.632-24.333 10.504-34.674 11.606-1.406 22.372-6.486 30.028-14.515 1.243-1.304 2.405-2.682 3.561-4.063 1.668-1.988 3.242-3.865 5.025-5.414 2.812-2.443 5.962-3.615 8.411-3.132 1.229.243 2.02.909 2.465 1.73-.165.38-.353.78-.582 1.213-9.544.788-16.463 5.459-16.463 11.54 0 6.671 8.292 11.704 19.287 11.704 10.993 0 19.285-5.033 19.285-11.704 0-4.107-3.159-7.581-8.14-9.653.988-2.226 1.816-4.482 2.467-6.663 32.394 4.35 57.435 31.187 57.435 63.631 0 35.466-29.896 64.32-66.642 64.32m-93.155-117.742c9.925-3.243 18.551-9.384 26.953-15.366 1.4-.997 2.795-1.992 4.187-2.966 9.261-6.472 23.109-14.758 36.328-11.953 9.078 1.92 14.762 6.198 17.474 13.417-5.038-.677-10.532 1.22-15.217 5.292-2.299 1.999-4.17 4.227-5.978 6.383-1.041 1.242-2.079 2.485-3.198 3.657-8.007 8.397-20.829 13.026-33.434 12.076-9.504-.715-19.056-4.473-27.115-10.54m75.591-51.535c.02-.032.041-.062.062-.091l4.667-7.1c1.647 5.741 4.545 11.823 7.398 17.81 3.811 7.995 7.749 16.262 7.486 21.598-.596-.014-1.178-.085-1.778-.086-3.315-13.336-8.013-22.299-18.398-29.853.346-.671.578-1.428.563-2.278m5.856 59.64c-1.919-.705-3.013-1.532-3.165-1.926.149-.459 1.195-1.299 3.044-2.012-.275 1.318-.275 2.643.121 3.938m17.739-1.998c-.381.799-3.068 2.513-7.728 3.025 1.543-1.458 2.975-3.197 4.281-5.115 2.013.707 3.205 1.582 3.447 2.09m4.812-24.684c.006-.092.02-.194.024-.285.387-7.423-3.825-16.259-8.282-25.614-4.884-10.246-10.418-21.86-6.799-27.363l-7.455-4.566c-.004.006-.009.013-.013.021l-13.274 20.191c-.421.639-1.248 1.897-1.45 3.521-.019.022-.039.045-.061.067-1.027 1.128-2.435 2.672-2.111 4.934l.394 2.103 1.694 1.061c3.944 2.469 7.015 5.048 9.494 7.964-2.114-.825-4.346-1.547-6.802-2.067-16.693-3.538-32.759 5.945-43.392 13.376-1.415.991-2.833 1.999-4.253 3.011-9.837 7.002-20.006 14.245-31.465 15.741l-8.603 1.123 6.007 6.047c10.528 10.598 24.663 17.284 38.777 18.346.067.005.132.003.199.008-5.855 10.535-8.94 22.305-8.94 34.38 0 40.164 33.855 72.841 75.468 72.841s75.47-32.677 75.47-72.841c0-36.602-28.146-66.898-64.627-71.999" fill="#1e130f" transform="matrix(4.16667 0 0 4.16667 464.95092028 250.386951256)"/><path d="m-39.417-39.418c-17.598 0-31.862 17.648-31.862 39.418s14.264 39.417 31.862 39.417c17.597 0 31.861-17.647 31.861-39.417s-14.264-39.418-31.861-39.418" fill="#fff365" opacity=".42" transform="matrix(0 -4.16667 -4.16667 0 567.82183591 582.77971717)"/><path d="m0 39.234c.599.002 1.181.071 1.776.087.263-5.337-3.673-13.604-7.485-21.599-2.854-5.986-5.752-12.068-7.398-17.809l-4.667 7.098c-.021.031-.042.061-.063.092.016.851-.217 1.608-.561 2.278 10.383 7.554 15.082 16.517 18.398 29.853" fill="#a88348" transform="matrix(4.16667 0 0 4.16667 909.53044261 74.91264421)"/><path d="m0 5.115c4.66-.512 7.348-2.227 7.729-3.025-.243-.507-1.435-1.383-3.448-2.09-1.304 1.919-2.738 3.657-4.281 5.115" fill="#7c991f" transform="matrix(4.16667 0 0 4.16667 901.32210271 335.97535306)"/><path d="m0 .085c.152.394 1.246 1.222 3.165 1.927-.394-1.296-.396-2.621-.121-3.939-1.849.712-2.895 1.552-3.044 2.012" fill="#7c991f" transform="matrix(4.16667 0 0 4.16667 846.42205879 344.62952665)"/><path d="m0 18.528c1.119-1.172 2.157-2.415 3.199-3.656 1.809-2.157 3.679-4.385 5.978-6.384 4.684-4.072 10.179-5.969 15.218-5.292-2.712-7.219-8.398-11.497-17.475-13.418-13.22-2.804-27.066 5.481-36.327 11.954-1.394.975-2.788 1.968-4.189 2.965-8.401 5.982-17.028 12.123-26.952 15.367 8.059 6.068 17.61 9.824 27.114 10.54 12.606.95 25.427-3.68 33.434-12.076" fill="#62ae28" transform="matrix(4.16667 0 0 4.16667 772.53449968 235.638189457)"/><path d="m0-127.95c-.651 2.182-1.479 4.437-2.467 6.662 4.981 2.073 8.14 5.547 8.14 9.653 0 6.672-8.292 11.705-19.285 11.705-10.995 0-19.287-5.033-19.287-11.705 0-6.08 6.919-10.752 16.463-11.539.229-.433.418-.833.582-1.213-.444-.821-1.236-1.487-2.465-1.73-2.449-.482-5.599.688-8.41 3.132-1.784 1.55-3.358 3.427-5.025 5.413-1.157 1.382-2.319 2.76-3.562 4.064-7.655 8.029-18.421 13.109-30.028 14.515-6.871 10.341-10.503 22.33-10.503 34.674 0 35.466 29.894 64.319 66.64 64.319s66.642-28.853 66.642-64.319c0-32.445-25.041-59.28-57.435-63.631" fill="#f19800" transform="matrix(4.16667 0 0 4.16667 946.75547239 809.82573214)"/><path d="m0 185.625c-36.746 0-66.64-28.854-66.64-64.319 0-12.344 3.632-24.333 10.503-34.674 11.607-1.406 22.373-6.486 30.028-14.515 1.243-1.305 2.405-2.682 3.562-4.064 1.667-1.987 3.241-3.864 5.025-5.413 2.811-2.444 5.961-3.615 8.41-3.132 1.229.243 2.021.909 2.465 1.73-.164.38-.353.78-.582 1.213-9.544.787-16.463 5.459-16.463 11.539 0 6.672 8.292 11.704 19.287 11.704 10.993 0 19.285-5.032 19.285-11.704 0-4.106-3.159-7.58-8.14-9.653.989-2.226 1.816-4.481 2.467-6.662 32.394 4.35 57.435 31.186 57.435 63.631 0 35.465-29.896 64.319-66.642 64.319m-93.154-117.741c9.924-3.244 18.55-9.385 26.952-15.367 1.4-.997 2.795-1.991 4.188-2.965 9.261-6.473 23.108-14.758 36.327-11.954 9.078 1.921 14.763 6.199 17.475 13.418-5.038-.677-10.533 1.219-15.218 5.292-2.299 1.999-4.169 4.226-5.977 6.383-1.042 1.242-2.08 2.485-3.199 3.657-8.007 8.396-20.829 13.026-33.434 12.076-9.504-.716-19.056-4.473-27.114-10.54m75.59-51.535c.02-.032.042-.062.062-.092l4.667-7.099c1.647 5.741 4.545 11.823 7.398 17.81 3.812 7.995 7.749 16.262 7.486 21.598-.596-.015-1.178-.085-1.777-.086-3.316-13.336-8.014-22.299-18.398-29.853.345-.671.577-1.428.562-2.278m5.856 59.64c-1.919-.705-3.013-1.533-3.165-1.927.149-.459 1.195-1.299 3.044-2.011-.275 1.317-.274 2.642.121 3.938m17.739-1.999c-.381.799-3.068 2.514-7.728 3.026 1.543-1.458 2.976-3.197 4.281-5.116 2.013.707 3.205 1.583 3.447 2.09m4.812-24.683c.006-.092.02-.195.025-.285.386-7.423-3.826-16.26-8.283-25.614-4.883-10.246-10.418-21.86-6.799-27.363l-7.455-4.566c-.004.005-.009.012-.013.021l-13.274 20.19c-.421.64-1.248 1.898-1.45 3.522-.019.021-.039.045-.06.066-1.028 1.129-2.436 2.673-2.112 4.935l.394 2.103 1.694 1.06c3.945 2.469 7.015 5.049 9.494 7.965-2.114-.826-4.346-1.547-6.801-2.068-16.694-3.537-32.76 5.945-43.392 13.377-1.416.991-2.833 1.998-4.254 3.01-9.837 7.003-20.006 14.245-31.465 15.741l-8.603 1.123 6.008 6.048c10.527 10.598 24.662 17.283 38.776 18.346.067.005.132.002.199.007-5.855 10.536-8.94 22.305-8.94 34.381 0 40.163 33.855 72.84 75.468 72.84s75.47-32.677 75.47-72.84c0-36.602-28.146-66.898-64.627-71.999" fill="#1e130f" transform="matrix(4.16667 0 0 4.16667 908.3929417 36.389696725)"/><path d="m-39.417-39.417c-17.598 0-31.863 17.647-31.863 39.416 0 21.771 14.265 39.418 31.863 39.418 17.597 0 31.862-17.647 31.862-39.418 0-21.769-14.265-39.416-31.862-39.416" fill="#fff365" opacity=".42" transform="matrix(0 -4.16667 -4.16667 0 1011.268024 368.77954597)"/><path d="m0 39.234c.6.002 1.182.071 1.777.087.263-5.338-3.674-13.604-7.485-21.6-2.854-5.985-5.752-12.067-7.398-17.808l-4.667 7.098c-.022.031-.042.06-.063.092.016.851-.217 1.608-.562 2.278 10.384 7.554 15.083 16.517 18.398 29.853" fill="#a88348" transform="matrix(4.16667 0 0 4.16667 1373.50164712 316.65450427)"/><path d="m0 5.114c4.66-.511 7.348-2.226 7.729-3.024-.243-.507-1.435-1.383-3.448-2.09-1.305 1.919-2.738 3.656-4.281 5.114" fill="#7c991f" transform="matrix(4.16667 0 0 4.16667 1365.30164056 577.71721312)"/><path d="m0 .086c.152.394 1.246 1.222 3.165 1.926-.395-1.295-.396-2.62-.121-3.938-1.849.712-2.895 1.552-3.044 2.012" fill="#7c991f" transform="matrix(4.16667 0 0 4.16667 1310.40159664 586.36722004)"/><path d="m0 18.528c1.119-1.172 2.157-2.415 3.198-3.656 1.809-2.157 3.68-4.386 5.979-6.384 4.684-4.072 10.179-5.97 15.218-5.292-2.713-7.219-8.398-11.497-17.476-13.418-13.219-2.804-27.066 5.481-36.327 11.953-1.393.976-2.787 1.969-4.188 2.966-8.402 5.982-17.028 12.123-26.953 15.366 8.06 6.068 17.611 9.825 27.115 10.541 12.606.95 25.427-3.68 33.434-12.076" fill="#62ae28" transform="matrix(4.16667 0 0 4.16667 1236.50987086 477.37963285)"/><path d="m0-127.951c-.651 2.183-1.479 4.437-2.467 6.663 4.981 2.072 8.14 5.546 8.14 9.653 0 6.672-8.292 11.705-19.285 11.705-10.995 0-19.287-5.033-19.287-11.705 0-6.08 6.919-10.752 16.463-11.539.229-.433.417-.833.582-1.213-.445-.821-1.236-1.487-2.465-1.73-2.449-.482-5.599.688-8.411 3.132-1.783 1.549-3.357 3.427-5.024 5.413-1.157 1.382-2.319 2.76-3.562 4.064-7.656 8.029-18.422 13.109-30.028 14.515-6.872 10.34-10.504 22.329-10.504 34.673 0 35.466 29.895 64.32 66.641 64.32s66.642-28.854 66.642-64.32c0-32.444-25.041-59.279-57.435-63.631" fill="#f19800" transform="matrix(4.16667 0 0 4.16667 1410.73501024 1051.5675922)"/><path d="m0 185.625c-36.746 0-66.641-28.854-66.641-64.32 0-12.344 3.632-24.333 10.504-34.673 11.606-1.406 22.372-6.486 30.028-14.515 1.243-1.305 2.405-2.682 3.562-4.064 1.667-1.987 3.241-3.865 5.024-5.413 2.812-2.444 5.962-3.615 8.411-3.132 1.229.243 2.02.909 2.465 1.73-.165.38-.353.78-.582 1.213-9.544.787-16.463 5.459-16.463 11.539 0 6.672 8.292 11.704 19.287 11.704 10.993 0 19.285-5.032 19.285-11.704 0-4.107-3.159-7.581-8.14-9.653.988-2.226 1.816-4.481 2.467-6.663 32.394 4.351 57.435 31.187 57.435 63.631 0 35.466-29.896 64.32-66.642 64.32m-93.155-117.742c9.925-3.243 18.551-9.384 26.953-15.366 1.4-.997 2.795-1.991 4.187-2.966 9.261-6.472 23.109-14.757 36.328-11.953 9.078 1.921 14.762 6.199 17.475 13.418-5.038-.678-10.533 1.219-15.218 5.292-2.299 1.998-4.17 4.226-5.978 6.383-1.041 1.242-2.079 2.485-3.198 3.657-8.007 8.396-20.829 13.026-33.434 12.076-9.504-.716-19.056-4.474-27.115-10.541m75.591-51.534c.02-.033.041-.062.062-.092l4.667-7.099c1.647 5.741 4.545 11.823 7.398 17.809 3.811 7.996 7.749 16.262 7.486 21.599-.596-.015-1.178-.085-1.778-.087-3.315-13.335-8.013-22.298-18.398-29.852.346-.671.578-1.428.563-2.278m5.856 59.639c-1.919-.704-3.013-1.532-3.165-1.926.149-.459 1.195-1.299 3.044-2.011-.275 1.317-.275 2.642.121 3.937m17.739-1.998c-.381.799-3.068 2.514-7.728 3.025 1.543-1.458 2.975-3.196 4.281-5.115 2.013.707 3.205 1.583 3.447 2.09m4.812-24.683c.006-.092.02-.195.024-.286.387-7.422-3.825-16.259-8.282-25.614-4.884-10.245-10.418-21.859-6.799-27.363l-7.455-4.565c-.004.005-.009.012-.013.021l-13.274 20.19c-.421.64-1.248 1.898-1.45 3.522-.019.021-.039.045-.061.066-1.027 1.128-2.435 2.673-2.111 4.935l.394 2.103 1.694 1.06c3.945 2.469 7.015 5.049 9.494 7.965-2.114-.826-4.346-1.547-6.802-2.068-16.693-3.538-32.759 5.945-43.392 13.377-1.415.991-2.833 1.998-4.253 3.01-9.837 7.003-20.006 14.245-31.465 15.741l-8.603 1.123 6.007 6.048c10.528 10.597 24.663 17.283 38.777 18.346.067.005.132.002.199.007-5.855 10.535-8.94 22.305-8.94 34.38 0 40.164 33.855 72.841 75.468 72.841s75.47-32.677 75.47-72.841c0-36.601-28.146-66.897-64.627-71.998" fill="#1e130f" transform="matrix(4.16667 0 0 4.16667 1372.37247955 278.129890117)"/><path d="m-39.417-39.417c-17.598 0-31.863 17.648-31.863 39.418s14.265 39.416 31.863 39.416c17.597 0 31.862-17.646 31.862-39.416s-14.265-39.418-31.862-39.418" fill="#fff365" opacity=".42" transform="matrix(0 -4.16667 -4.16667 0 1475.24756185 610.52140603)"/><path d="m0 39.234c.6.002 1.181.071 1.777.087.262-5.337-3.674-13.604-7.485-21.599-2.854-5.986-5.752-12.068-7.398-17.809l-4.668 7.099c-.021.03-.041.06-.062.091.016.851-.218 1.608-.562 2.278 10.384 7.554 15.083 16.517 18.398 29.853" fill="#a88348" transform="matrix(4.16667 0 0 4.16667 855.88873303 554.12552758)"/><path d="m0 5.114c4.66-.512 7.348-2.226 7.729-3.024-.243-.508-1.436-1.384-3.448-2.09-1.305 1.918-2.738 3.656-4.281 5.114" fill="#7c991f" transform="matrix(4.16667 0 0 4.16667 847.6845598 815.1924031)"/><path d="m0 .085c.152.394 1.245 1.222 3.164 1.927-.394-1.295-.395-2.62-.12-3.939-1.849.713-2.895 1.552-3.044 2.012" fill="#7c991f" transform="matrix(4.16667 0 0 4.16667 792.78451588 823.84241002)"/><path d="m0 18.528c1.119-1.172 2.157-2.415 3.198-3.656 1.809-2.156 3.68-4.385 5.978-6.384 4.684-4.072 10.179-5.969 15.218-5.292-2.712-7.219-8.397-11.497-17.475-13.418-13.22-2.804-27.066 5.482-36.327 11.954-1.393.975-2.788 1.969-4.188 2.965-8.402 5.983-17.028 12.124-26.953 15.367 8.059 6.068 17.611 9.825 27.115 10.54 12.606.95 25.427-3.679 33.434-12.076" fill="#62ae28" transform="matrix(4.16667 0 0 4.16667 718.89695677 714.85065616)"/><path d="m0-127.951c-.651 2.182-1.479 4.437-2.468 6.663 4.982 2.072 8.141 5.546 8.141 9.653 0 6.671-8.292 11.704-19.285 11.704-10.995 0-19.287-5.033-19.287-11.704 0-6.081 6.918-10.752 16.463-11.54.229-.433.417-.833.582-1.213-.445-.821-1.236-1.487-2.465-1.73-2.449-.482-5.599.689-8.411 3.132-1.783 1.55-3.357 3.427-5.025 5.414-1.156 1.381-2.318 2.759-3.561 4.063-7.656 8.029-18.422 13.109-30.029 14.515-6.871 10.341-10.503 22.33-10.503 34.674 0 35.466 29.895 64.32 66.641 64.32s66.642-28.854 66.642-64.32c0-32.444-25.042-59.28-57.435-63.631" fill="#f19800" transform="matrix(4.16667 0 0 4.16667 893.11792948 1289.04278218)"/><path d="m0 185.626c-36.746 0-66.641-28.854-66.641-64.32 0-12.344 3.632-24.333 10.503-34.674 11.607-1.406 22.373-6.486 30.029-14.515 1.243-1.304 2.405-2.682 3.561-4.063 1.668-1.988 3.242-3.865 5.025-5.414 2.812-2.443 5.962-3.615 8.411-3.132 1.229.243 2.02.909 2.465 1.73-.165.38-.353.78-.582 1.213-9.545.788-16.463 5.459-16.463 11.54 0 6.671 8.292 11.703 19.287 11.703 10.993 0 19.285-5.032 19.285-11.703 0-4.107-3.159-7.581-8.141-9.653.989-2.227 1.817-4.482 2.468-6.663 32.393 4.35 57.435 31.187 57.435 63.631 0 35.466-29.896 64.32-66.642 64.32m-93.155-117.742c9.925-3.243 18.551-9.384 26.953-15.367 1.399-.996 2.795-1.991 4.187-2.965 9.261-6.472 23.108-14.758 36.328-11.954 9.078 1.921 14.762 6.199 17.474 13.418-5.038-.677-10.533 1.219-15.218 5.292-2.298 1.999-4.169 4.227-5.977 6.383-1.041 1.242-2.079 2.485-3.198 3.657-8.007 8.397-20.829 13.026-33.434 12.076-9.504-.715-19.057-4.473-27.115-10.54m75.591-51.535c.02-.032.041-.062.061-.091l4.668-7.1c1.647 5.741 4.545 11.823 7.398 17.81 3.811 7.995 7.748 16.262 7.486 21.598-.597-.015-1.178-.085-1.778-.086-3.315-13.336-8.013-22.299-18.398-29.853.345-.671.578-1.428.563-2.278m5.855 59.64c-1.919-.705-3.012-1.533-3.164-1.926.149-.46 1.195-1.299 3.044-2.012-.275 1.318-.275 2.643.12 3.938m17.74-1.998c-.381.799-3.068 2.513-7.728 3.025 1.543-1.458 2.975-3.197 4.281-5.115 2.012.706 3.205 1.582 3.447 2.09m4.812-24.684c.006-.092.019-.194.024-.285.387-7.423-3.826-16.26-8.283-25.614-4.883-10.246-10.417-21.86-6.798-27.363l-7.456-4.566c-.003.006-.009.013-.012.021l-13.274 20.191c-.421.639-1.249 1.897-1.45 3.521-.02.022-.04.045-.061.067-1.027 1.128-2.436 2.672-2.112 4.934l.395 2.103 1.693 1.061c3.945 2.469 7.016 5.048 9.495 7.964-2.114-.825-4.346-1.547-6.802-2.067-16.693-3.538-32.76 5.945-43.392 13.376-1.416.991-2.833 1.999-4.254 3.011-9.836 7.002-20.006 14.245-31.465 15.74l-8.602 1.124 6.007 6.047c10.528 10.598 24.663 17.284 38.777 18.346.067.005.132.003.199.008-5.855 10.535-8.941 22.305-8.941 34.38 0 40.163 33.856 72.841 75.469 72.841s75.47-32.678 75.47-72.841c0-36.602-28.147-66.898-64.627-71.999" fill="#1e130f" transform="matrix(4.16667 0 0 4.16667 854.75539879 515.60049676)"/><path d="m-39.417-39.418c-17.598 0-31.862 17.648-31.862 39.418s14.264 39.417 31.862 39.417c17.597 0 31.861-17.647 31.861-39.417s-14.264-39.418-31.861-39.418" fill="#fff365" opacity=".42" transform="matrix(0 -4.16667 -4.16667 0 957.63048109 847.99659601)"/></g><path d="m219.447 234.844h354.839v105.858h-354.839z" fill="#e9b259" stroke="#1d211c" stroke-width="9" transform="matrix(-4.16667 0 0 4.16667 2621.82347911 46.54178818)"/></svg>