<svg clip-rule="evenodd" fill-rule="evenodd" stroke-linecap="round" stroke-linejoin="round" stroke-miterlimit="10" viewBox="0 0 1469 1296" xmlns="http://www.w3.org/2000/svg"><path d="m0-15.133c-1.199-.819-2.788-1.027-3.549-.464-.508.378-1.009 1.271-1.45 2.06-2.563 4.566-5.302 9.451-7.673 14.564 3.949-5.514 9.006-10.286 14.912-13.885-.67-.903-1.399-1.702-2.24-2.275" fill="#a88348" fill-rule="nonzero" transform="matrix(4.16667 0 0 4.16667 991.59309506 94.318912143)"/><path d="m0-38.032c-4.011-5.679-8.157-11.553-11.885-18.606-.98-1.859-1.93-3.85-2.901-5.89-4.647-9.758-9.451-19.851-20.603-20.567-1.961-.125-3.739-.091-5.439.015-.317 2.348-.45 4.713-.333 7.071.248 5.003-2.65 5.899-3.776 6.057-.054.008-.104.014-.151.019-3.585.356-6.287-3.807-6.786-6.823-.165-1.002-.237-2.053-.271-3.119-9.151 5.625-11.839 18.038-14.248 34.412-.643 4.377-1.252 8.512-2.114 12.35-1.23 5.469-3.182 10.812-5.072 15.977-3.377 9.241-6.568 17.966-5.759 27 1.21 13.533 12.512 26.259 27.483 30.95 13.964 4.374 32.921 2.744 47.177-4.057 10.483-5.001 17.873-13.371 21.374-24.208 3.577-11.074-.474-23.054-4.504-31.153-3.643-7.324-7.795-13.203-12.192-19.428" fill="#aa5" fill-rule="nonzero" transform="matrix(4.16667 0 0 4.16667 1099.75984826 542.69468751)"/><path d="m0 105.306c-3.501 10.837-10.892 19.207-21.374 24.208-14.256 6.801-33.213 8.431-47.178 4.057-14.97-4.691-26.272-17.417-27.482-30.95-.81-9.034 2.382-17.759 5.759-27 1.889-5.165 3.841-10.508 5.072-15.977.862-3.838 1.471-7.973 2.114-12.35 2.408-16.374 5.097-28.787 14.248-34.412.033 1.066.106 2.117.271 3.119.499 3.016 3.201 7.179 6.786 6.823.047-.005.096-.011.151-.019 1.126-.158 4.024-1.054 3.776-6.057-.118-2.358.016-4.723.333-7.071 1.7-.106 3.478-.141 5.439-.016 11.151.717 15.956 10.81 20.603 20.568.97 2.04 1.92 4.031 2.901 5.89 3.727 7.053 7.874 12.927 11.885 18.606 4.397 6.225 8.549 12.103 12.192 19.428 4.029 8.099 8.081 20.079 4.504 31.153m-47.655-133.696c.441-.789.942-1.682 1.45-2.06.761-.563 2.35-.355 3.549.464.841.573 1.57 1.372 2.24 2.275-5.906 3.599-10.963 8.372-14.912 13.885 2.371-5.113 5.109-9.998 7.673-14.564m49.324 99.681c-3.866-7.773-8.359-14.136-12.705-20.289-3.891-5.509-7.915-11.205-11.444-17.885-.941-1.782-1.849-3.693-2.78-5.647-4.969-10.437-11.153-23.425-26.369-24.402-1.545-.1-3.005-.113-4.421-.081 3.431-11.184 11.431-21.213 22.023-26.639l3.161-1.619-1.815-2.976c-1.407-2.309-3.16-5.185-6.023-7.136-3.709-2.534-8.511-2.66-11.68-.303-1.659 1.233-2.604 2.918-3.295 4.148-5.158 9.197-11.005 19.618-13.553 31.085-.374 1.68-.78 3.655-1.094 5.749-16.47 6.622-19.33 26.028-21.543 41.07-.626 4.253-1.217 8.273-2.027 11.877-1.137 5.063-3.019 10.207-4.837 15.18-3.472 9.494-7.061 19.312-6.125 29.766 1.441 16.104 14.679 31.182 32.193 36.669 9.17 2.871 19.939 3.491 30.492 2.011 7.619-1.068 15.126-3.232 21.833-6.43 12.203-5.821 20.806-15.561 24.878-28.165 3.357-10.392 1.673-22.834-4.869-35.983" fill="#1e130f" fill-rule="nonzero" transform="matrix(4.16667 0 0 4.16667 1169.32657058 156.206044986)"/><path d="m0-5.701c2.941 6.08 3.224 13.006 5.007 19.492.596 2.167 1.415 4.373 3.073 5.944 1.657 1.569 4.359 2.309 6.365 1.179 2.378-1.339 2.765-4.475 2.593-7.127-.257-3.953-1.158-7.867-2.662-11.552-.658-1.614-1.431-3.185-2.012-4.827-1.595-4.506-1.698-9.408-3.301-13.912-1.522-4.275-6.87-11.241-11.869-7.224-5.978 4.803.521 13.304 2.806 18.027" fill="#fff" fill-rule="nonzero" opacity=".42" transform="matrix(4.16667 0 0 4.16667 969.34724393 330.07368408)"/><path d="m195.219 327.158h305.924v82.119h-305.924z" fill="#e9b259" stroke="#1d211c" stroke-width="3" transform="matrix(-4.16667 0 0 4.16667 2107.61065454 -626.83958145)"/><g fill-rule="nonzero"><path d="m0-47.677 37.312 47.677-39.931-.487z" fill="#aa813f" stroke="#1d211c" stroke-width="3" transform="matrix(4.16667 0 0 4.16667 1294.19750381 934.974168)"/><path d="m0-12.831c-1.064-.978-2.607-1.403-3.443-.951-.559.304-1.188 1.118-1.743 1.837-3.216 4.163-6.654 8.617-9.762 13.348 4.729-4.908 10.444-8.929 16.826-11.671-.528-.987-1.132-1.878-1.878-2.563" fill="#a88348" transform="matrix(4.16667 0 0 4.16667 358.28842175 325.48618041)"/><path d="m0-27.869c-3.123-6.177-6.352-12.564-8.989-20.062-.695-1.975-1.338-4.079-1.994-6.232-3.145-10.301-6.397-20.955-17.326-23.212-1.921-.396-3.686-.608-5.385-.74-.662 2.279-1.147 4.601-1.382 6.952-.501 4.985-3.501 5.47-4.639 5.47-.055 0-.105-.001-.152-.003-3.601-.145-5.655-4.64-5.699-7.693-.015-1.014.07-2.065.196-3.125-9.895 4.297-14.403 16.209-19.226 32.079-1.289 4.242-2.507 8.249-3.932 11.928-2.032 5.242-4.76 10.258-7.4 15.108-4.718 8.675-9.176 16.867-9.72 25.92-.819 13.559 8.47 27.722 22.586 34.441 13.168 6.267 32.172 7.284 47.292 2.532 11.119-3.495 19.68-10.753 24.758-20.991 5.19-10.463 2.964-22.881.184-31.455-2.515-7.753-5.748-14.147-9.172-20.917" fill="#aa5" transform="matrix(4.16667 0 0 4.16667 412.75513199 752.45318865)"/><path d="m0 117.802c-5.078 10.238-13.64 17.496-24.758 20.991-15.12 4.752-34.124 3.735-47.292-2.532-14.116-6.719-23.405-20.882-22.587-34.441.544-9.053 5.002-17.246 9.721-25.92 2.64-4.85 5.368-9.867 7.399-15.108 1.426-3.679 2.644-7.686 3.933-11.928 4.822-15.87 9.331-27.782 19.226-32.079-.126 1.06-.211 2.111-.197 3.125.044 3.053 2.099 7.548 5.7 7.693.046.002.097.003.152.003 1.138 0 4.138-.485 4.639-5.47.235-2.351.719-4.673 1.381-6.952 1.7.132 3.464.344 5.386.74 10.929 2.257 14.181 12.911 17.325 23.212.657 2.153 1.3 4.257 1.994 6.231 2.638 7.498 5.867 13.886 8.99 20.063 3.424 6.769 6.657 13.164 9.172 20.917 2.78 8.574 5.005 20.992-.184 31.455m-27.245-138.92c.555-.719 1.183-1.533 1.742-1.837.836-.452 2.379-.026 3.443.951.747.685 1.35 1.577 1.878 2.563-6.381 2.742-12.096 6.764-16.826 11.672 3.109-4.732 6.546-9.186 9.763-13.349m33.964 105.49c-2.669-8.228-6.168-15.149-9.552-21.841-3.029-5.992-6.163-12.187-8.66-19.289-.666-1.891-1.28-3.91-1.91-5.972-3.363-11.019-7.548-24.73-22.46-27.808-1.515-.313-2.957-.528-4.364-.693 5.062-10.592 14.473-19.407 25.763-23.307l3.369-1.163-1.352-3.196c-1.048-2.482-2.356-5.571-4.898-7.9-3.293-3.02-8.026-3.812-11.513-1.92-1.827.991-3.012 2.527-3.879 3.649-6.474 8.385-13.813 17.887-18.043 28.881-.62 1.61-1.316 3.509-1.939 5.538-17.285 4.267-23.007 23.074-27.436 37.652-1.253 4.123-2.438 8.02-3.777 11.473-1.879 4.852-4.506 9.681-7.047 14.351-4.85 8.914-9.864 18.131-10.496 28.608-.971 16.137 9.882 32.895 26.397 40.755 8.647 4.113 19.212 6.221 29.876 6.221 7.699 0 15.45-1.099 22.564-3.334 12.944-4.066 22.907-12.511 28.815-24.421 4.87-9.817 5.057-22.364.542-36.284" fill="#1e130f" transform="matrix(4.16667 0 0 4.16667 450.20516195 363.70704432)"/><path d="m0-7.674c2.006 6.425 1.252 13.319 2.052 19.984.266 2.228.748 4.525 2.155 6.309 1.407 1.783 3.971 2.891 6.124 2.051 2.552-.995 3.402-4.046 3.627-6.694.335-3.948.025-7.945-.913-11.801-.411-1.689-.942-3.351-1.273-5.055-.907-4.682-.279-9.547-1.194-14.227-.869-4.442-5.124-12.077-10.669-8.796-6.633 3.924-1.467 13.239.091 18.229" fill="#fff" opacity=".42" transform="matrix(4.16667 0 0 4.16667 295.30087136 573.10721184)"/><path d="m0-12.83c-1.064-.978-2.606-1.403-3.442-.951-.56.303-1.189 1.117-1.744 1.837-3.216 4.163-6.654 8.617-9.762 13.347 4.729-4.908 10.445-8.928 16.826-11.67-.528-.987-1.132-1.879-1.878-2.563" fill="#a88348" transform="matrix(4.16667 0 0 4.16667 689.54702009 141.030199512)"/><path d="m0-27.868c-3.124-6.177-6.353-12.564-8.99-20.062-.695-1.975-1.337-4.079-1.994-6.232-3.145-10.302-6.396-20.955-17.326-23.212-1.92-.396-3.686-.608-5.384-.74-.663 2.279-1.148 4.601-1.383 6.952-.5 4.985-3.5 5.47-4.639 5.47-.055 0-.105-.001-.152-.003-3.601-.145-5.655-4.64-5.699-7.693-.015-1.014.071-2.065.196-3.125-9.895 4.297-14.403 16.209-19.226 32.079-1.289 4.242-2.507 8.249-3.932 11.927-2.032 5.242-4.76 10.258-7.399 15.109-4.718 8.675-9.176 16.867-9.721 25.919-.819 13.56 8.47 27.722 22.586 34.442 13.168 6.267 32.172 7.283 47.293 2.531 11.118-3.494 19.679-10.752 24.757-20.99 5.191-10.463 2.965-22.881.184-31.455-2.515-7.753-5.747-14.147-9.171-20.917" fill="#aa5" transform="matrix(4.16667 0 0 4.16667 744.017897 567.99470775)"/><path d="m0 117.802c-5.078 10.238-13.64 17.496-24.757 20.99-15.121 4.752-34.125 3.736-47.293-2.531-14.116-6.72-23.405-20.882-22.587-34.442.545-9.052 5.003-17.245 9.722-25.919 2.639-4.851 5.367-9.868 7.398-15.109 1.426-3.678 2.644-7.685 3.933-11.927 4.822-15.87 9.331-27.782 19.226-32.079-.125 1.06-.211 2.111-.197 3.125.044 3.053 2.099 7.548 5.7 7.693.046.002.097.003.152.003 1.139 0 4.139-.485 4.639-5.47.235-2.351.719-4.673 1.382-6.952 1.699.132 3.464.344 5.385.74 10.93 2.257 14.181 12.91 17.325 23.212.658 2.153 1.3 4.257 1.994 6.231 2.638 7.498 5.867 13.886 8.991 20.063 3.424 6.769 6.656 13.164 9.171 20.917 2.781 8.574 5.006 20.992-.184 31.455m-27.245-138.92c.555-.72 1.183-1.534 1.743-1.837.836-.452 2.378-.026 3.442.951.747.684 1.35 1.577 1.878 2.563-6.38 2.742-12.096 6.763-16.826 11.671 3.109-4.731 6.546-9.185 9.763-13.348m33.964 105.49c-2.668-8.228-6.167-15.149-9.551-21.841-3.03-5.992-6.164-12.187-8.661-19.289-.666-1.892-1.28-3.91-1.91-5.972-3.363-11.019-7.547-24.73-22.46-27.809-1.514-.312-2.957-.527-4.363-.692 5.061-10.592 14.472-19.407 25.762-23.307l3.369-1.164-1.351-3.196c-1.049-2.481-2.356-5.57-4.899-7.899-3.293-3.021-8.026-3.812-11.513-1.92-1.826.991-3.012 2.527-3.879 3.649-6.474 8.384-13.813 17.887-18.043 28.881-.62 1.61-1.316 3.509-1.939 5.537-17.285 4.268-23.007 23.075-27.436 37.653-1.253 4.123-2.437 8.02-3.776 11.473-1.88 4.852-4.507 9.681-7.048 14.351-4.849 8.913-9.864 18.131-10.495 28.607-.972 16.137 9.881 32.895 26.396 40.755 8.647 4.114 19.213 6.222 29.877 6.222 7.698 0 15.449-1.099 22.563-3.335 12.944-4.066 22.908-12.511 28.815-24.42 4.87-9.817 5.057-22.364.542-36.284" fill="#1e130f" transform="matrix(4.16667 0 0 4.16667 781.46376029 179.253563424)"/><path d="m0-7.673c2.006 6.425 1.253 13.318 2.052 19.984.266 2.228.749 4.525 2.155 6.309 1.407 1.783 3.971 2.891 6.124 2.051 2.552-.995 3.402-4.046 3.627-6.695.335-3.947.026-7.945-.913-11.8-.411-1.689-.941-3.351-1.273-5.056-.907-4.682-.278-9.546-1.194-14.227-.869-4.441-5.123-12.077-10.669-8.795-6.632 3.923-1.467 13.239.091 18.229" fill="#fff" opacity=".42" transform="matrix(4.16667 0 0 4.16667 626.5594697 388.65289761)"/><path d="m0-12.83c-1.064-.978-2.607-1.403-3.443-.952-.559.304-1.188 1.118-1.743 1.837-3.216 4.164-6.654 8.617-9.762 13.348 4.729-4.908 10.444-8.929 16.826-11.67-.528-.987-1.132-1.879-1.878-2.563" fill="#a88348" transform="matrix(4.16667 0 0 4.16667 555.77191307 405.41541102)"/><path d="m0-27.868c-3.123-6.178-6.352-12.564-8.989-20.062-.695-1.976-1.338-4.079-1.994-6.232-3.145-10.302-6.397-20.956-17.326-23.212-1.92-.396-3.686-.609-5.384-.74-.663 2.279-1.148 4.601-1.383 6.952-.501 4.985-3.501 5.47-4.639 5.47-.055 0-.105-.002-.152-.003-3.601-.145-5.655-4.64-5.699-7.693-.015-1.015.07-2.066.196-3.125-9.895 4.297-14.403 16.208-19.226 32.079-1.289 4.241-2.507 8.249-3.932 11.927-2.032 5.242-4.76 10.258-7.4 15.109-4.718 8.675-9.176 16.867-9.72 25.919-.819 13.559 8.47 27.722 22.586 34.442 13.168 6.266 32.172 7.283 47.292 2.531 11.119-3.494 19.68-10.752 24.758-20.99 5.19-10.463 2.964-22.881.184-31.455-2.515-7.754-5.747-14.147-9.172-20.917" fill="#aa5" transform="matrix(4.16667 0 0 4.16667 610.23445664 832.37825259)"/><path d="m0 117.802c-5.078 10.238-13.64 17.496-24.758 20.99-15.12 4.752-34.124 3.735-47.292-2.531-14.116-6.72-23.405-20.883-22.587-34.442.544-9.052 5.002-17.245 9.721-25.919 2.64-4.851 5.368-9.868 7.399-15.109 1.426-3.678 2.644-7.686 3.933-11.927 4.822-15.871 9.331-27.782 19.226-32.079-.126 1.059-.211 2.11-.197 3.125.044 3.053 2.099 7.548 5.7 7.693.046.001.097.003.152.003 1.138 0 4.138-.485 4.639-5.47.235-2.351.719-4.673 1.382-6.952 1.699.131 3.464.344 5.385.74 10.929 2.256 14.181 12.91 17.325 23.212.657 2.153 1.3 4.256 1.994 6.231 2.638 7.498 5.867 13.885 8.99 20.063 3.425 6.769 6.657 13.163 9.172 20.917 2.78 8.574 5.005 20.992-.184 31.455m-27.245-138.921c.555-.719 1.183-1.533 1.742-1.837.836-.451 2.379-.025 3.443.952.747.684 1.35 1.577 1.878 2.563-6.381 2.741-12.096 6.763-16.826 11.671 3.109-4.732 6.546-9.185 9.763-13.349m33.964 105.49c-2.669-8.228-6.168-15.148-9.552-21.84-3.029-5.992-6.163-12.187-8.66-19.289-.666-1.892-1.28-3.91-1.91-5.972-3.363-11.019-7.548-24.73-22.46-27.809-1.515-.312-2.957-.528-4.364-.693 5.062-10.591 14.473-19.407 25.763-23.307l3.369-1.163-1.352-3.196c-1.048-2.482-2.356-5.571-4.898-7.9-3.293-3.02-8.026-3.811-11.513-1.919-1.827.991-3.012 2.527-3.879 3.648-6.474 8.385-13.813 17.888-18.043 28.881-.62 1.611-1.316 3.509-1.939 5.538-17.285 4.268-23.007 23.075-27.436 37.653-1.253 4.123-2.438 8.02-3.777 11.473-1.879 4.852-4.506 9.681-7.047 14.35-4.849 8.914-9.864 18.132-10.496 28.608-.971 16.137 9.882 32.895 26.397 40.755 8.647 4.114 19.212 6.222 29.876 6.222 7.699 0 15.45-1.1 22.564-3.335 12.944-4.066 22.908-12.511 28.815-24.42 4.87-9.818 5.057-22.364.542-36.285" fill="#1e130f" transform="matrix(4.16667 0 0 4.16667 647.68865327 443.63627493)"/><path d="m0-7.674c2.006 6.426 1.252 13.319 2.052 19.985.266 2.227.748 4.525 2.155 6.308 1.407 1.784 3.971 2.891 6.124 2.052 2.552-.995 3.402-4.047 3.627-6.695.335-3.947.025-7.945-.913-11.8-.411-1.689-.942-3.351-1.273-5.056-.907-4.682-.279-9.546-1.194-14.227-.869-4.442-5.124-12.077-10.669-8.796-6.633 3.924-1.467 13.239.091 18.229" fill="#fff" opacity=".42" transform="matrix(4.16667 0 0 4.16667 492.78436268 653.03644245)"/><path d="m0-12.832c-1.065-.977-2.607-1.402-3.443-.951-.559.304-1.188 1.118-1.743 1.837-3.216 4.164-6.654 8.617-9.762 13.348 4.729-4.908 10.444-8.929 16.826-11.671-.528-.986-1.132-1.878-1.878-2.563" fill="#a88348" transform="matrix(4.16667 0 0 4.16667 1275.62665562 380.82372468)"/><path d="m0-27.868c-3.123-6.178-6.352-12.565-8.989-20.062-.695-1.976-1.338-4.079-1.994-6.232-3.145-10.302-6.397-20.956-17.326-23.213-1.921-.395-3.686-.608-5.385-.739-.662 2.279-1.147 4.601-1.383 6.951-.5 4.986-3.5 5.47-4.638 5.47-.056 0-.106-.001-.153-.002-3.601-.145-5.654-4.64-5.699-7.693-.014-1.015.071-2.066.197-3.126-9.895 4.298-14.404 16.209-19.226 32.079-1.29 4.242-2.507 8.25-3.932 11.928-2.033 5.242-4.761 10.258-7.4 15.108-4.718 8.676-9.176 16.868-9.72 25.92-.82 13.559 8.47 27.722 22.586 34.442 13.168 6.266 32.171 7.283 47.292 2.531 11.118-3.495 19.679-10.752 24.758-20.99 5.19-10.464 2.964-22.881.184-31.455-2.515-7.754-5.748-14.147-9.172-20.917" fill="#aa5" transform="matrix(4.16667 0 0 4.16667 1330.08919919 807.78656625)"/><path d="m0 117.802c-5.079 10.238-13.641 17.495-24.758 20.99-15.121 4.752-34.124 3.735-47.292-2.531-14.116-6.72-23.406-20.883-22.587-34.442.544-9.052 5.002-17.245 9.721-25.92 2.639-4.85 5.367-9.867 7.399-15.108 1.426-3.678 2.643-7.686 3.933-11.928 4.821-15.87 9.331-27.781 19.226-32.079-.126 1.06-.211 2.111-.198 3.126.045 3.053 2.099 7.548 5.7 7.693.046.001.097.002.153.002 1.138 0 4.138-.484 4.638-5.47.236-2.35.72-4.672 1.382-6.951 1.7.131 3.464.344 5.386.739 10.929 2.257 14.181 12.911 17.325 23.213.657 2.153 1.3 4.256 1.994 6.231 2.638 7.497 5.867 13.885 8.99 20.063 3.424 6.769 6.657 13.163 9.172 20.917 2.78 8.574 5.005 20.991-.184 31.455m-27.245-138.921c.555-.719 1.183-1.533 1.742-1.837.836-.451 2.378-.025 3.443.951.746.685 1.35 1.578 1.878 2.563-6.382 2.742-12.096 6.764-16.826 11.672 3.109-4.732 6.546-9.185 9.763-13.349m33.964 105.49c-2.669-8.228-6.168-15.149-9.552-21.84-3.029-5.992-6.163-12.187-8.66-19.289-.666-1.892-1.28-3.91-1.91-5.973-3.363-11.018-7.548-24.729-22.46-27.808-1.515-.312-2.957-.528-4.364-.693 5.062-10.591 14.473-19.407 25.763-23.307l3.369-1.163-1.352-3.196c-1.049-2.482-2.356-5.571-4.898-7.9-3.293-3.02-8.027-3.811-11.513-1.919-1.827.99-3.013 2.527-3.879 3.648-6.474 8.385-13.813 17.888-18.043 28.881-.62 1.611-1.316 3.509-1.939 5.538-17.286 4.268-23.007 23.074-27.436 37.653-1.254 4.123-2.438 8.019-3.777 11.472-1.879 4.853-4.507 9.682-7.047 14.351-4.85 8.914-9.864 18.132-10.496 28.608-.972 16.137 9.882 32.895 26.397 40.755 8.646 4.114 19.212 6.222 29.876 6.222 7.699 0 15.45-1.1 22.564-3.335 12.944-4.066 22.907-12.511 28.815-24.42 4.87-9.818 5.057-22.365.542-36.285" fill="#1e130f" transform="matrix(4.16667 0 0 4.16667 1367.53922915 419.04458859)"/><path d="m0-7.674c2.005 6.426 1.252 13.319 2.051 19.985.267 2.227.749 4.525 2.156 6.308 1.406 1.784 3.97 2.891 6.124 2.051 2.552-.995 3.402-4.046 3.627-6.694.335-3.947.025-7.945-.913-11.8-.411-1.689-.942-3.351-1.273-5.056-.907-4.682-.279-9.546-1.194-14.227-.869-4.442-5.124-12.077-10.669-8.796-6.633 3.924-1.467 13.239.091 18.229" fill="#fff" opacity=".42" transform="matrix(4.16667 0 0 4.16667 1212.63493856 628.44058944)"/><path d="m0-12.83c-1.065-.978-2.607-1.403-3.443-.951-.559.303-1.188 1.117-1.743 1.837-3.216 4.163-6.654 8.616-9.762 13.347 4.729-4.908 10.444-8.928 16.826-11.67-.528-.987-1.132-1.879-1.878-2.563" fill="#a88348" transform="matrix(4.16667 0 0 4.16667 925.25554199 423.85709244)"/><path d="m0-27.868c-3.123-6.177-6.352-12.564-8.989-20.062-.695-1.976-1.338-4.079-1.994-6.232-3.145-10.302-6.397-20.956-17.326-23.212-1.921-.396-3.686-.609-5.385-.74-.662 2.279-1.147 4.601-1.383 6.952-.5 4.985-3.5 5.47-4.638 5.47-.056 0-.106-.002-.153-.003-3.601-.145-5.654-4.64-5.699-7.693-.014-1.015.071-2.066.197-3.125-9.895 4.297-14.404 16.208-19.226 32.079-1.29 4.242-2.507 8.249-3.932 11.927-2.033 5.242-4.761 10.258-7.4 15.109-4.718 8.675-9.176 16.867-9.72 25.919-.82 13.56 8.47 27.722 22.586 34.442 13.168 6.267 32.171 7.283 47.292 2.531 11.118-3.494 19.679-10.752 24.758-20.99 5.19-10.463 2.964-22.881.184-31.455-2.515-7.753-5.748-14.147-9.172-20.917" fill="#aa5" transform="matrix(4.16667 0 0 4.16667 979.71808556 850.82410068)"/><path d="m0 117.802c-5.079 10.238-13.641 17.496-24.758 20.99-15.121 4.752-34.124 3.736-47.292-2.531-14.116-6.72-23.406-20.882-22.587-34.442.544-9.052 5.002-17.245 9.721-25.919 2.639-4.851 5.367-9.868 7.399-15.109 1.426-3.678 2.643-7.685 3.933-11.927 4.821-15.871 9.331-27.782 19.226-32.079-.126 1.059-.211 2.11-.198 3.125.045 3.053 2.099 7.548 5.7 7.693.046.001.097.003.153.003 1.138 0 4.138-.485 4.638-5.47.236-2.351.72-4.673 1.382-6.952 1.7.131 3.464.344 5.386.74 10.929 2.256 14.181 12.91 17.325 23.212.657 2.153 1.3 4.256 1.994 6.231 2.638 7.498 5.867 13.886 8.99 20.063 3.424 6.769 6.657 13.164 9.172 20.917 2.78 8.574 5.005 20.992-.184 31.455m-27.245-138.92c.555-.72 1.183-1.534 1.742-1.837.836-.452 2.378-.026 3.443.951.747.684 1.35 1.577 1.878 2.563-6.381 2.742-12.096 6.763-16.826 11.671 3.109-4.732 6.546-9.185 9.763-13.348m33.964 105.489c-2.669-8.227-6.168-15.148-9.552-21.84-3.029-5.992-6.163-12.187-8.66-19.289-.666-1.892-1.28-3.91-1.91-5.972-3.363-11.019-7.548-24.73-22.46-27.809-1.515-.312-2.957-.527-4.364-.693 5.062-10.591 14.473-19.406 25.763-23.307l3.369-1.163-1.352-3.196c-1.049-2.481-2.356-5.571-4.898-7.9-3.293-3.02-8.027-3.811-11.513-1.919-1.827.991-3.013 2.527-3.879 3.649-6.474 8.384-13.813 17.887-18.043 28.88-.62 1.611-1.316 3.509-1.939 5.538-17.286 4.268-23.007 23.075-27.436 37.653-1.254 4.123-2.438 8.02-3.777 11.473-1.879 4.852-4.506 9.681-7.047 14.351-4.85 8.913-9.864 18.131-10.496 28.607-.972 16.137 9.882 32.895 26.397 40.755 8.646 4.114 19.212 6.222 29.876 6.222 7.699 0 15.45-1.099 22.564-3.335 12.944-4.066 22.907-12.511 28.815-24.42 4.87-9.818 5.057-22.364.542-36.285" fill="#1e130f" transform="matrix(4.16667 0 0 4.16667 1017.16811552 462.08212302)"/><path d="m0-7.673c2.005 6.425 1.252 13.318 2.051 19.984.267 2.227.749 4.525 2.156 6.309 1.406 1.783 3.97 2.891 6.124 2.051 2.552-.995 3.402-4.047 3.627-6.695.335-3.947.025-7.945-.913-11.8-.411-1.689-.942-3.351-1.273-5.056-.907-4.682-.279-9.546-1.194-14.227-.869-4.441-5.124-12.077-10.669-8.795-6.633 3.923-1.467 13.238.091 18.229" fill="#fff" opacity=".42" transform="matrix(4.16667 0 0 4.16667 862.2679916 671.47812387)"/></g><path d="m232.53 279.481h305.924v82.119h-305.924z" fill="#e9b259" stroke="#1d211c" stroke-width="9" transform="matrix(-4.16667 0 0 4.16667 2418.53590328 -229.53093027)"/><path d="m-43.949-39.593h60.541l64.669-50.61h-60.541z" fill="#aa813f" fill-rule="nonzero" stroke="#1d211c" stroke-width="9" transform="matrix(2.56793538768 3.28128595836 3.28128595836 -2.56793538768 262.28834495 778.85737644)"/></svg>