<?xml version="1.0" encoding="UTF-8" standalone="no"?>
<!DOCTYPE svg PUBLIC "-//W3C//DTD SVG 1.1//EN" "http://www.w3.org/Graphics/SVG/1.1/DTD/svg11.dtd">
<svg width="100%" height="100%" viewBox="0 0 503 160" version="1.1" xmlns="http://www.w3.org/2000/svg" xmlns:xlink="http://www.w3.org/1999/xlink" xml:space="preserve" xmlns:serif="http://www.serif.com/" style="fill-rule:evenodd;clip-rule:evenodd;stroke-miterlimit:10;">
    <g transform="matrix(1,0,0,1,-1725,-1040)">
        <g id="b3" transform="matrix(1,0,0,1,-54.0853,1.07422)">
            <g transform="matrix(0,-4.16667,-4.16667,0,1826.45,1040.54)">
                <path d="M-11.18,-11.182C-17.356,-11.182 -22.362,-6.175 -22.362,-0.001C-22.362,6.175 -17.356,11.18 -11.18,11.18C-5.005,11.18 0.001,6.175 0.001,-0.001C0.001,-6.175 -5.005,-11.182 -11.18,-11.182" style="fill:rgb(255,225,104);fill-rule:nonzero;"/>
            </g>
            <g transform="matrix(4.16667,0,0,4.16667,1826.45,1133.05)">
                <path d="M0,-22.047C-6.078,-22.047 -11.023,-17.102 -11.023,-11.024C-11.023,-4.945 -6.078,0 0,0C6.078,0 11.023,-4.945 11.023,-11.024C11.023,-17.102 6.078,-22.047 0,-22.047M0,0.315C-6.252,0.315 -11.339,-4.772 -11.339,-11.024C-11.339,-17.276 -6.252,-22.362 0,-22.362C6.252,-22.362 11.338,-17.276 11.338,-11.024C11.338,-4.772 6.252,0.315 0,0.315" style="fill:rgb(35,31,32);fill-rule:nonzero;"/>
            </g>
            <g transform="matrix(0,-4.16667,-4.16667,0,1825.83,1056.52)">
                <path d="M-7.344,-7.344C-11.4,-7.344 -14.688,-4.056 -14.688,0C-14.688,4.055 -11.4,7.344 -7.344,7.344C-3.288,7.344 0,4.055 0,0C0,-4.056 -3.288,-7.344 -7.344,-7.344" style="fill:rgb(232,217,181);fill-rule:nonzero;"/>
            </g>
            <g transform="matrix(4.16667,0,0,4.16667,1825.83,1117.07)">
                <path d="M0,-14.373C-3.962,-14.373 -7.186,-11.149 -7.186,-7.187C-7.186,-3.226 -3.962,-0.002 0,-0.002C3.962,-0.002 7.186,-3.226 7.186,-7.187C7.186,-11.149 3.962,-14.373 0,-14.373M0,0.315C-4.136,0.315 -7.501,-3.051 -7.501,-7.187C-7.501,-11.323 -4.136,-14.688 0,-14.688C4.136,-14.688 7.501,-11.323 7.501,-7.187C7.501,-3.051 4.136,0.315 0,0.315" style="fill:rgb(35,31,32);fill-rule:nonzero;"/>
            </g>
            <g transform="matrix(4.16667,0,0,4.16667,1805.11,1086.38)">
                <path d="M0,4.23L0,3.737C-0.347,3.721 -0.685,3.628 -0.881,3.514L-0.726,2.908C-0.508,3.027 -0.202,3.135 0.134,3.135C0.43,3.135 0.632,3.021 0.632,2.814C0.632,2.617 0.466,2.493 0.083,2.363C-0.472,2.176 -0.851,1.917 -0.851,1.415C-0.851,0.959 -0.529,0.6 0.025,0.492L0.025,0L0.534,0L0.534,0.456C0.881,0.471 1.114,0.543 1.286,0.626L1.135,1.212C1,1.155 0.762,1.036 0.389,1.036C0.052,1.036 -0.057,1.181 -0.057,1.327C-0.057,1.498 0.124,1.606 0.565,1.772C1.182,1.99 1.431,2.275 1.431,2.742C1.431,3.203 1.104,3.597 0.508,3.701L0.508,4.23L0,4.23Z" style="fill:rgb(255,225,104);fill-rule:nonzero;"/>
            </g>
            <g transform="matrix(4.16667,0,0,4.16667,1805.55,1086.78)">
                <path d="M0,4.036L0.319,4.036L0.319,3.517L0.4,3.504C0.917,3.419 1.237,3.09 1.237,2.645C1.237,2.212 1.014,1.964 0.441,1.762C-0.008,1.6 -0.251,1.468 -0.251,1.23C-0.251,1.041 -0.108,0.838 0.292,0.838C0.602,0.838 0.826,0.915 0.975,0.979L1.08,0.586C0.931,0.525 0.727,0.465 0.435,0.456L0.341,0.453L0.341,-0L0.026,-0L0.026,0.476L-0.053,0.491C-0.552,0.584 -0.85,0.893 -0.85,1.318C-0.85,1.715 -0.591,1.971 0.017,2.176C0.389,2.3 0.638,2.439 0.638,2.718C0.638,2.972 0.402,3.137 0.038,3.137C-0.293,3.137 -0.576,3.037 -0.759,2.952L-0.865,3.366C-0.694,3.446 -0.413,3.53 -0.092,3.545L0,3.549L0,4.036ZM0.513,4.229L-0.193,4.229L-0.193,3.731C-0.496,3.706 -0.814,3.619 -1.025,3.503L-1.091,3.467L-0.885,2.667L-0.776,2.726C-0.629,2.807 -0.327,2.942 0.038,2.942C0.234,2.942 0.444,2.884 0.444,2.718C0.444,2.6 0.361,2.494 -0.044,2.359C-0.51,2.202 -1.043,1.942 -1.043,1.318C-1.043,0.824 -0.71,0.446 -0.167,0.317L-0.167,-0.193L0.534,-0.193L0.534,0.267C0.86,0.29 1.079,0.371 1.234,0.442L1.309,0.476L1.102,1.254L0.997,1.203C0.867,1.141 0.637,1.031 0.292,1.031C0.07,1.031 -0.057,1.103 -0.057,1.23C-0.057,1.334 0.106,1.435 0.506,1.58C1.154,1.808 1.431,2.127 1.431,2.645C1.431,3.158 1.073,3.557 0.513,3.68L0.513,4.229Z" style="fill:rgb(35,31,32);fill-rule:nonzero;"/>
            </g>
            <g transform="matrix(4.16667,0,0,4.16667,1814.82,1096.17)">
                <path d="M0,-4.565L-0.024,-4.565L-1.514,-3.856L-1.813,-5.225L0.264,-6.186L1.766,-6.186L1.766,1.621L0,1.621L0,-4.565Z" style="fill:rgb(255,225,104);fill-rule:nonzero;stroke:rgb(35,31,32);stroke-width:0.2px;"/>
            </g>
            <g transform="matrix(4.16667,0,0,4.16667,1835.03,1086.61)">
                <path d="M0,0.023C0,1.813 0.433,2.666 1.129,2.666C1.838,2.666 2.222,1.777 2.222,-0C2.222,-1.73 1.85,-2.643 1.118,-2.643C0.457,-2.643 0,-1.802 0,0.023M4.048,-0.025C4.048,2.377 3.075,4.047 1.093,4.047C-0.924,4.047 -1.813,2.234 -1.825,0.023C-1.825,-2.247 -0.876,-4.024 1.141,-4.024C3.219,-4.024 4.048,-2.163 4.048,-0.025" style="fill:rgb(255,225,104);fill-rule:nonzero;"/>
            </g>
            <g transform="matrix(4.16667,0,0,4.16667,1835.03,1086.61)">
                <path d="M0,0.023C0,1.813 0.433,2.666 1.129,2.666C1.838,2.666 2.222,1.777 2.222,-0C2.222,-1.73 1.85,-2.643 1.118,-2.643C0.457,-2.643 0,-1.802 0,0.023ZM4.048,-0.025C4.048,2.377 3.075,4.047 1.093,4.047C-0.924,4.047 -1.813,2.234 -1.825,0.023C-1.825,-2.247 -0.876,-4.024 1.141,-4.024C3.219,-4.024 4.048,-2.163 4.048,-0.025Z" style="fill:none;fill-rule:nonzero;stroke:rgb(35,31,32);stroke-width:0.2px;"/>
            </g>
            <g transform="matrix(0,-4.16667,-4.16667,0,1968.24,1040.54)">
                <path d="M-11.18,-11.182C-17.356,-11.182 -22.362,-6.175 -22.362,-0.001C-22.362,6.175 -17.356,11.18 -11.18,11.18C-5.005,11.18 0.001,6.175 0.001,-0.001C0.001,-6.175 -5.005,-11.182 -11.18,-11.182" style="fill:rgb(255,225,104);fill-rule:nonzero;"/>
            </g>
            <g transform="matrix(4.16667,0,0,4.16667,1968.24,1133.05)">
                <path d="M0,-22.047C-6.078,-22.047 -11.023,-17.102 -11.023,-11.024C-11.023,-4.945 -6.078,0 0,0C6.078,0 11.023,-4.945 11.023,-11.024C11.023,-17.102 6.078,-22.047 0,-22.047M0,0.315C-6.252,0.315 -11.339,-4.772 -11.339,-11.024C-11.339,-17.276 -6.252,-22.362 0,-22.362C6.252,-22.362 11.339,-17.276 11.339,-11.024C11.339,-4.772 6.252,0.315 0,0.315" style="fill:rgb(35,31,32);fill-rule:nonzero;"/>
            </g>
            <g transform="matrix(0,-4.16667,-4.16667,0,1967.62,1056.52)">
                <path d="M-7.344,-7.344C-11.4,-7.344 -14.688,-4.056 -14.688,0C-14.688,4.055 -11.4,7.344 -7.344,7.344C-3.288,7.344 0,4.055 0,0C0,-4.056 -3.288,-7.344 -7.344,-7.344" style="fill:rgb(232,217,181);fill-rule:nonzero;"/>
            </g>
            <g transform="matrix(4.16667,0,0,4.16667,1967.62,1117.07)">
                <path d="M0,-14.373C-3.962,-14.373 -7.186,-11.149 -7.186,-7.187C-7.186,-3.226 -3.962,-0.002 0,-0.002C3.962,-0.002 7.186,-3.226 7.186,-7.187C7.186,-11.149 3.962,-14.373 0,-14.373M0,0.315C-4.136,0.315 -7.501,-3.051 -7.501,-7.187C-7.501,-11.323 -4.136,-14.688 0,-14.688C4.136,-14.688 7.501,-11.323 7.501,-7.187C7.501,-3.051 4.136,0.315 0,0.315" style="fill:rgb(35,31,32);fill-rule:nonzero;"/>
            </g>
            <g transform="matrix(4.16667,0,0,4.16667,1946.9,1086.38)">
                <path d="M0,4.23L0,3.737C-0.347,3.721 -0.685,3.628 -0.881,3.514L-0.726,2.908C-0.508,3.027 -0.202,3.135 0.134,3.135C0.43,3.135 0.632,3.021 0.632,2.814C0.632,2.617 0.466,2.493 0.083,2.363C-0.472,2.176 -0.851,1.917 -0.851,1.415C-0.851,0.959 -0.529,0.6 0.025,0.492L0.025,0L0.534,0L0.534,0.456C0.881,0.471 1.114,0.543 1.286,0.626L1.135,1.212C1,1.155 0.762,1.036 0.389,1.036C0.052,1.036 -0.057,1.181 -0.057,1.327C-0.057,1.498 0.124,1.606 0.565,1.772C1.182,1.99 1.431,2.275 1.431,2.742C1.431,3.203 1.104,3.597 0.508,3.701L0.508,4.23L0,4.23Z" style="fill:rgb(255,225,104);fill-rule:nonzero;"/>
            </g>
            <g transform="matrix(4.16667,0,0,4.16667,1947.34,1086.78)">
                <path d="M0,4.036L0.319,4.036L0.319,3.517L0.4,3.504C0.917,3.419 1.237,3.09 1.237,2.645C1.237,2.212 1.014,1.964 0.441,1.762C-0.008,1.6 -0.251,1.468 -0.251,1.23C-0.251,1.041 -0.108,0.838 0.292,0.838C0.602,0.838 0.826,0.915 0.975,0.979L1.08,0.586C0.931,0.525 0.727,0.465 0.435,0.456L0.341,0.453L0.341,-0L0.026,-0L0.026,0.476L-0.053,0.491C-0.552,0.584 -0.85,0.893 -0.85,1.318C-0.85,1.715 -0.591,1.971 0.017,2.176C0.389,2.3 0.638,2.439 0.638,2.718C0.638,2.972 0.402,3.137 0.038,3.137C-0.293,3.137 -0.576,3.037 -0.759,2.952L-0.865,3.366C-0.694,3.446 -0.413,3.53 -0.092,3.545L0,3.549L0,4.036ZM0.513,4.229L-0.193,4.229L-0.193,3.731C-0.496,3.706 -0.814,3.619 -1.025,3.503L-1.091,3.467L-0.885,2.667L-0.776,2.726C-0.628,2.807 -0.327,2.942 0.038,2.942C0.234,2.942 0.444,2.884 0.444,2.718C0.444,2.6 0.361,2.494 -0.044,2.359C-0.51,2.202 -1.043,1.942 -1.043,1.318C-1.043,0.824 -0.71,0.446 -0.167,0.317L-0.167,-0.193L0.534,-0.193L0.534,0.267C0.861,0.29 1.079,0.371 1.234,0.442L1.309,0.476L1.102,1.254L0.997,1.203C0.867,1.141 0.638,1.031 0.292,1.031C0.07,1.031 -0.057,1.103 -0.057,1.23C-0.057,1.334 0.106,1.435 0.506,1.58C1.154,1.808 1.431,2.127 1.431,2.645C1.431,3.158 1.073,3.557 0.513,3.68L0.513,4.229Z" style="fill:rgb(35,31,32);fill-rule:nonzero;"/>
            </g>
            <g transform="matrix(4.16667,0,0,4.16667,1956.61,1096.17)">
                <path d="M0,-4.565L-0.024,-4.565L-1.513,-3.856L-1.813,-5.225L0.264,-6.186L1.766,-6.186L1.766,1.621L0,1.621L0,-4.565Z" style="fill:rgb(255,225,104);fill-rule:nonzero;stroke:rgb(35,31,32);stroke-width:0.2px;"/>
            </g>
            <g transform="matrix(4.16667,0,0,4.16667,1976.82,1086.61)">
                <path d="M0,0.023C0,1.813 0.433,2.666 1.129,2.666C1.838,2.666 2.223,1.777 2.223,-0C2.223,-1.73 1.85,-2.643 1.118,-2.643C0.457,-2.643 0,-1.802 0,0.023M4.048,-0.025C4.048,2.377 3.075,4.047 1.093,4.047C-0.924,4.047 -1.813,2.234 -1.825,0.023C-1.825,-2.247 -0.876,-4.024 1.141,-4.024C3.219,-4.024 4.048,-2.163 4.048,-0.025" style="fill:rgb(255,225,104);fill-rule:nonzero;"/>
            </g>
            <g transform="matrix(4.16667,0,0,4.16667,1976.82,1086.61)">
                <path d="M0,0.023C0,1.813 0.433,2.666 1.129,2.666C1.838,2.666 2.223,1.777 2.223,-0C2.223,-1.73 1.85,-2.643 1.118,-2.643C0.457,-2.643 0,-1.802 0,0.023ZM4.048,-0.025C4.048,2.377 3.075,4.047 1.093,4.047C-0.924,4.047 -1.813,2.234 -1.825,0.023C-1.825,-2.247 -0.876,-4.024 1.141,-4.024C3.219,-4.024 4.048,-2.163 4.048,-0.025Z" style="fill:none;fill-rule:nonzero;stroke:rgb(35,31,32);stroke-width:0.2px;"/>
            </g>
            <g transform="matrix(0,-4.16667,-4.16667,0,2110.03,1040.54)">
                <path d="M-11.18,-11.182C-17.356,-11.182 -22.362,-6.175 -22.362,-0.001C-22.362,6.175 -17.356,11.18 -11.18,11.18C-5.005,11.18 0.001,6.175 0.001,-0.001C0.001,-6.175 -5.005,-11.182 -11.18,-11.182" style="fill:rgb(255,225,104);fill-rule:nonzero;"/>
            </g>
            <g transform="matrix(4.16667,0,0,4.16667,2110.03,1133.05)">
                <path d="M0,-22.047C-6.078,-22.047 -11.023,-17.102 -11.023,-11.024C-11.023,-4.945 -6.078,0 0,0C6.078,0 11.023,-4.945 11.023,-11.024C11.023,-17.102 6.078,-22.047 0,-22.047M0,0.315C-6.252,0.315 -11.339,-4.772 -11.339,-11.024C-11.339,-17.276 -6.252,-22.362 0,-22.362C6.252,-22.362 11.339,-17.276 11.339,-11.024C11.339,-4.772 6.252,0.315 0,0.315" style="fill:rgb(35,31,32);fill-rule:nonzero;"/>
            </g>
            <g transform="matrix(0,-4.16667,-4.16667,0,2109.42,1056.52)">
                <path d="M-7.343,-7.343C-11.4,-7.343 -14.688,-4.056 -14.688,-0C-14.688,4.056 -11.4,7.343 -7.343,7.343C-3.287,7.343 0,4.056 0,-0C0,-4.056 -3.287,-7.343 -7.343,-7.343" style="fill:rgb(232,217,181);fill-rule:nonzero;"/>
            </g>
            <g transform="matrix(4.16667,0,0,4.16667,2109.42,1117.07)">
                <path d="M0,-14.373C-3.962,-14.373 -7.187,-11.149 -7.187,-7.187C-7.187,-3.226 -3.962,-0.002 0,-0.002C3.962,-0.002 7.186,-3.226 7.186,-7.187C7.186,-11.149 3.962,-14.373 0,-14.373M0,0.315C-4.137,0.315 -7.502,-3.051 -7.502,-7.187C-7.502,-11.323 -4.137,-14.688 0,-14.688C4.136,-14.688 7.501,-11.323 7.501,-7.187C7.501,-3.051 4.136,0.315 0,0.315" style="fill:rgb(35,31,32);fill-rule:nonzero;"/>
            </g>
            <g transform="matrix(4.16667,0,0,4.16667,2088.69,1086.38)">
                <path d="M0,4.23L0,3.737C-0.348,3.721 -0.685,3.628 -0.881,3.514L-0.726,2.908C-0.509,3.027 -0.202,3.135 0.135,3.135C0.43,3.135 0.632,3.021 0.632,2.814C0.632,2.617 0.466,2.493 0.083,2.363C-0.472,2.176 -0.851,1.917 -0.851,1.415C-0.851,0.959 -0.529,0.6 0.025,0.492L0.025,0L0.534,0L0.534,0.456C0.881,0.471 1.114,0.543 1.285,0.626L1.135,1.212C1,1.155 0.762,1.036 0.389,1.036C0.052,1.036 -0.058,1.181 -0.058,1.327C-0.058,1.498 0.124,1.606 0.564,1.772C1.182,1.99 1.431,2.275 1.431,2.742C1.431,3.203 1.104,3.597 0.508,3.701L0.508,4.23L0,4.23Z" style="fill:rgb(255,225,104);fill-rule:nonzero;"/>
            </g>
            <g transform="matrix(4.16667,0,0,4.16667,2089.13,1086.78)">
                <path d="M0,4.036L0.319,4.036L0.319,3.517L0.4,3.504C0.917,3.419 1.237,3.09 1.237,2.645C1.237,2.212 1.014,1.964 0.441,1.762C-0.008,1.6 -0.251,1.468 -0.251,1.23C-0.251,1.041 -0.108,0.838 0.292,0.838C0.602,0.838 0.826,0.915 0.975,0.979L1.079,0.586C0.931,0.525 0.727,0.465 0.435,0.456L0.341,0.453L0.341,-0L0.026,-0L0.026,0.476L-0.053,0.491C-0.552,0.584 -0.85,0.893 -0.85,1.318C-0.85,1.715 -0.591,1.971 0.017,2.176C0.39,2.3 0.638,2.439 0.638,2.718C0.638,2.972 0.402,3.137 0.038,3.137C-0.293,3.137 -0.576,3.037 -0.759,2.952L-0.865,3.366C-0.693,3.446 -0.413,3.53 -0.092,3.545L0,3.549L0,4.036ZM0.513,4.229L-0.193,4.229L-0.193,3.731C-0.496,3.706 -0.813,3.619 -1.024,3.503L-1.091,3.467L-0.885,2.667L-0.776,2.726C-0.629,2.807 -0.327,2.942 0.038,2.942C0.234,2.942 0.444,2.884 0.444,2.718C0.444,2.6 0.361,2.494 -0.044,2.359C-0.51,2.202 -1.044,1.942 -1.044,1.318C-1.044,0.824 -0.71,0.446 -0.168,0.317L-0.168,-0.193L0.534,-0.193L0.534,0.267C0.86,0.29 1.078,0.371 1.234,0.442L1.309,0.476L1.103,1.254L0.997,1.203C0.867,1.141 0.638,1.031 0.292,1.031C0.07,1.031 -0.058,1.103 -0.058,1.23C-0.058,1.334 0.106,1.435 0.506,1.58C1.154,1.808 1.431,2.127 1.431,2.645C1.431,3.158 1.073,3.557 0.513,3.68L0.513,4.229Z" style="fill:rgb(35,31,32);fill-rule:nonzero;"/>
            </g>
            <g transform="matrix(4.16667,0,0,4.16667,2098.4,1096.17)">
                <path d="M0,-4.565L-0.024,-4.565L-1.514,-3.856L-1.813,-5.225L0.264,-6.186L1.766,-6.186L1.766,1.621L0,1.621L0,-4.565Z" style="fill:rgb(255,225,104);fill-rule:nonzero;stroke:rgb(35,31,32);stroke-width:0.2px;"/>
            </g>
            <g transform="matrix(4.16667,0,0,4.16667,2118.61,1086.61)">
                <path d="M0,0.023C0,1.813 0.433,2.666 1.129,2.666C1.838,2.666 2.222,1.777 2.222,-0C2.222,-1.73 1.85,-2.643 1.117,-2.643C0.456,-2.643 0,-1.802 0,0.023M4.048,-0.025C4.048,2.377 3.074,4.047 1.093,4.047C-0.925,4.047 -1.813,2.234 -1.826,0.023C-1.826,-2.247 -0.877,-4.024 1.141,-4.024C3.219,-4.024 4.048,-2.163 4.048,-0.025" style="fill:rgb(255,225,104);fill-rule:nonzero;"/>
            </g>
            <g transform="matrix(4.16667,0,0,4.16667,2118.61,1086.61)">
                <path d="M0,0.023C0,1.813 0.433,2.666 1.129,2.666C1.838,2.666 2.222,1.777 2.222,-0C2.222,-1.73 1.85,-2.643 1.117,-2.643C0.456,-2.643 0,-1.802 0,0.023ZM4.048,-0.025C4.048,2.377 3.074,4.047 1.093,4.047C-0.925,4.047 -1.813,2.234 -1.826,0.023C-1.826,-2.247 -0.877,-4.024 1.141,-4.024C3.219,-4.024 4.048,-2.163 4.048,-0.025Z" style="fill:none;fill-rule:nonzero;stroke:rgb(35,31,32);stroke-width:0.2px;"/>
            </g>
            <g transform="matrix(0,-4.16667,-4.16667,0,1897.34,1105.1)">
                <path d="M-11.18,-11.182C-17.356,-11.182 -22.362,-6.175 -22.362,-0.001C-22.362,6.175 -17.356,11.18 -11.18,11.18C-5.005,11.18 0.001,6.175 0.001,-0.001C0.001,-6.175 -5.005,-11.182 -11.18,-11.182" style="fill:rgb(255,225,104);fill-rule:nonzero;"/>
            </g>
            <g transform="matrix(4.16667,0,0,4.16667,1897.35,1197.61)">
                <path d="M0,-22.047C-6.078,-22.047 -11.023,-17.102 -11.023,-11.024C-11.023,-4.945 -6.078,0 0,0C6.078,0 11.023,-4.945 11.023,-11.024C11.023,-17.102 6.078,-22.047 0,-22.047M0,0.315C-6.252,0.315 -11.338,-4.772 -11.338,-11.024C-11.338,-17.276 -6.252,-22.362 0,-22.362C6.252,-22.362 11.339,-17.276 11.339,-11.024C11.339,-4.772 6.252,0.315 0,0.315" style="fill:rgb(35,31,32);fill-rule:nonzero;"/>
            </g>
            <g transform="matrix(0,-4.16667,-4.16667,0,1896.73,1121.08)">
                <path d="M-7.343,-7.343C-11.4,-7.343 -14.688,-4.055 -14.688,-0C-14.688,4.056 -11.4,7.343 -7.343,7.343C-3.287,7.343 0,4.056 0,-0C0,-4.055 -3.287,-7.343 -7.343,-7.343" style="fill:rgb(232,217,181);fill-rule:nonzero;"/>
            </g>
            <g transform="matrix(4.16667,0,0,4.16667,1896.73,1181.62)">
                <path d="M0,-14.372C-3.962,-14.372 -7.186,-11.148 -7.186,-7.186C-7.186,-3.225 -3.962,-0.001 0,-0.001C3.962,-0.001 7.186,-3.225 7.186,-7.186C7.186,-11.148 3.962,-14.372 0,-14.372M0,0.315C-4.137,0.315 -7.501,-3.05 -7.501,-7.186C-7.501,-11.322 -4.137,-14.687 0,-14.687C4.136,-14.687 7.501,-11.322 7.501,-7.186C7.501,-3.05 4.136,0.315 0,0.315" style="fill:rgb(35,31,32);fill-rule:nonzero;"/>
            </g>
            <g transform="matrix(4.16667,0,0,4.16667,1876.01,1150.93)">
                <path d="M0,4.23L0,3.737C-0.347,3.721 -0.684,3.628 -0.881,3.514L-0.726,2.908C-0.508,3.027 -0.202,3.135 0.135,3.135C0.43,3.135 0.632,3.021 0.632,2.814C0.632,2.617 0.466,2.493 0.083,2.363C-0.472,2.176 -0.85,1.917 -0.85,1.415C-0.85,0.959 -0.529,0.6 0.026,0.492L0.026,0L0.534,0L0.534,0.456C0.881,0.471 1.114,0.543 1.286,0.626L1.135,1.212C1,1.155 0.762,1.036 0.389,1.036C0.052,1.036 -0.057,1.181 -0.057,1.327C-0.057,1.498 0.125,1.606 0.565,1.772C1.182,1.99 1.431,2.275 1.431,2.742C1.431,3.203 1.104,3.597 0.508,3.701L0.508,4.23L0,4.23Z" style="fill:rgb(255,225,104);fill-rule:nonzero;"/>
            </g>
            <g transform="matrix(4.16667,0,0,4.16667,1876.44,1151.34)">
                <path d="M0,4.036L0.319,4.036L0.319,3.517L0.4,3.504C0.917,3.419 1.237,3.09 1.237,2.645C1.237,2.212 1.014,1.964 0.441,1.762C-0.008,1.6 -0.251,1.468 -0.251,1.23C-0.251,1.041 -0.108,0.838 0.292,0.838C0.601,0.838 0.826,0.915 0.975,0.979L1.079,0.586C0.93,0.525 0.727,0.465 0.434,0.456L0.34,0.453L0.34,-0L0.025,-0L0.025,0.476L-0.053,0.491C-0.552,0.584 -0.851,0.893 -0.851,1.318C-0.851,1.715 -0.591,1.971 0.017,2.176C0.389,2.3 0.637,2.439 0.637,2.718C0.637,2.972 0.402,3.137 0.038,3.137C-0.293,3.137 -0.577,3.037 -0.759,2.952L-0.865,3.366C-0.694,3.446 -0.413,3.53 -0.092,3.545L0,3.549L0,4.036ZM0.513,4.229L-0.193,4.229L-0.193,3.731C-0.496,3.706 -0.814,3.619 -1.025,3.503L-1.091,3.467L-0.886,2.667L-0.776,2.726C-0.629,2.807 -0.327,2.942 0.038,2.942C0.234,2.942 0.444,2.884 0.444,2.718C0.444,2.6 0.361,2.494 -0.045,2.359C-0.51,2.202 -1.044,1.942 -1.044,1.318C-1.044,0.824 -0.71,0.446 -0.168,0.317L-0.168,-0.193L0.534,-0.193L0.534,0.267C0.86,0.29 1.078,0.371 1.234,0.442L1.309,0.476L1.102,1.254L0.997,1.203C0.867,1.141 0.637,1.031 0.292,1.031C0.07,1.031 -0.058,1.103 -0.058,1.23C-0.058,1.334 0.105,1.435 0.506,1.58C1.154,1.808 1.431,2.127 1.431,2.645C1.431,3.158 1.073,3.557 0.513,3.68L0.513,4.229Z" style="fill:rgb(35,31,32);fill-rule:nonzero;"/>
            </g>
            <g transform="matrix(4.16667,0,0,4.16667,1885.71,1160.73)">
                <path d="M0,-4.565L-0.024,-4.565L-1.514,-3.856L-1.813,-5.225L0.264,-6.186L1.765,-6.186L1.765,1.621L0,1.621L0,-4.565Z" style="fill:rgb(255,225,104);fill-rule:nonzero;stroke:rgb(35,31,32);stroke-width:0.2px;"/>
            </g>
            <g transform="matrix(4.16667,0,0,4.16667,1905.93,1151.17)">
                <path d="M0,0.023C0,1.813 0.433,2.666 1.129,2.666C1.838,2.666 2.222,1.777 2.222,-0C2.222,-1.73 1.85,-2.643 1.117,-2.643C0.457,-2.643 0,-1.802 0,0.023M4.048,-0.025C4.048,2.377 3.075,4.047 1.093,4.047C-0.924,4.047 -1.813,2.234 -1.826,0.023C-1.826,-2.247 -0.877,-4.024 1.141,-4.024C3.219,-4.024 4.048,-2.163 4.048,-0.025" style="fill:rgb(255,225,104);fill-rule:nonzero;"/>
            </g>
            <g transform="matrix(4.16667,0,0,4.16667,1905.93,1151.17)">
                <path d="M0,0.023C0,1.813 0.433,2.666 1.129,2.666C1.838,2.666 2.222,1.777 2.222,-0C2.222,-1.73 1.85,-2.643 1.117,-2.643C0.457,-2.643 0,-1.802 0,0.023ZM4.048,-0.025C4.048,2.377 3.075,4.047 1.093,4.047C-0.924,4.047 -1.813,2.234 -1.826,0.023C-1.826,-2.247 -0.877,-4.024 1.141,-4.024C3.219,-4.024 4.048,-2.163 4.048,-0.025Z" style="fill:none;fill-rule:nonzero;stroke:rgb(35,31,32);stroke-width:0.2px;"/>
            </g>
            <g transform="matrix(0,-4.16667,-4.16667,0,2039.13,1105.1)">
                <path d="M-11.18,-11.182C-17.356,-11.182 -22.362,-6.175 -22.362,-0.001C-22.362,6.175 -17.356,11.18 -11.18,11.18C-5.005,11.18 0.001,6.175 0.001,-0.001C0.001,-6.175 -5.005,-11.182 -11.18,-11.182" style="fill:rgb(255,225,104);fill-rule:nonzero;"/>
            </g>
            <g transform="matrix(4.16667,0,0,4.16667,2039.14,1197.61)">
                <path d="M0,-22.047C-6.078,-22.047 -11.023,-17.102 -11.023,-11.024C-11.023,-4.945 -6.078,0 0,0C6.079,0 11.023,-4.945 11.023,-11.024C11.023,-17.102 6.079,-22.047 0,-22.047M0,0.315C-6.252,0.315 -11.338,-4.772 -11.338,-11.024C-11.338,-17.276 -6.252,-22.362 0,-22.362C6.252,-22.362 11.339,-17.276 11.339,-11.024C11.339,-4.772 6.252,0.315 0,0.315" style="fill:rgb(35,31,32);fill-rule:nonzero;"/>
            </g>
            <g transform="matrix(0,-4.16667,-4.16667,0,2038.52,1121.08)">
                <path d="M-7.343,-7.343C-11.4,-7.343 -14.688,-4.055 -14.688,-0C-14.688,4.056 -11.4,7.343 -7.343,7.343C-3.287,7.343 0,4.056 0,-0C0,-4.055 -3.287,-7.343 -7.343,-7.343" style="fill:rgb(232,217,181);fill-rule:nonzero;"/>
            </g>
            <g transform="matrix(4.16667,0,0,4.16667,2038.52,1181.62)">
                <path d="M0,-14.372C-3.962,-14.372 -7.186,-11.148 -7.186,-7.186C-7.186,-3.225 -3.962,-0.001 0,-0.001C3.962,-0.001 7.185,-3.225 7.185,-7.186C7.185,-11.148 3.962,-14.372 0,-14.372M0,0.315C-4.137,0.315 -7.501,-3.05 -7.501,-7.186C-7.501,-11.322 -4.137,-14.687 0,-14.687C4.136,-14.687 7.501,-11.322 7.501,-7.186C7.501,-3.05 4.136,0.315 0,0.315" style="fill:rgb(35,31,32);fill-rule:nonzero;"/>
            </g>
            <g transform="matrix(4.16667,0,0,4.16667,2017.8,1150.93)">
                <path d="M0,4.23L0,3.737C-0.347,3.721 -0.684,3.628 -0.881,3.514L-0.726,2.908C-0.508,3.027 -0.202,3.135 0.135,3.135C0.43,3.135 0.632,3.021 0.632,2.814C0.632,2.617 0.466,2.493 0.083,2.363C-0.472,2.176 -0.85,1.917 -0.85,1.415C-0.85,0.959 -0.529,0.6 0.026,0.492L0.026,0L0.534,0L0.534,0.456C0.881,0.471 1.115,0.543 1.286,0.626L1.135,1.212C1,1.155 0.762,1.036 0.389,1.036C0.052,1.036 -0.057,1.181 -0.057,1.327C-0.057,1.498 0.125,1.606 0.565,1.772C1.182,1.99 1.431,2.275 1.431,2.742C1.431,3.203 1.104,3.597 0.508,3.701L0.508,4.23L0,4.23Z" style="fill:rgb(255,225,104);fill-rule:nonzero;"/>
            </g>
            <g transform="matrix(4.16667,0,0,4.16667,2018.24,1151.34)">
                <path d="M0,4.036L0.319,4.036L0.319,3.517L0.4,3.504C0.917,3.419 1.237,3.09 1.237,2.645C1.237,2.212 1.014,1.964 0.441,1.762C-0.008,1.6 -0.251,1.468 -0.251,1.23C-0.251,1.041 -0.108,0.838 0.292,0.838C0.602,0.838 0.826,0.915 0.975,0.979L1.079,0.586C0.93,0.525 0.727,0.465 0.435,0.456L0.34,0.453L0.34,-0L0.025,-0L0.025,0.476L-0.053,0.491C-0.552,0.584 -0.85,0.893 -0.85,1.318C-0.85,1.715 -0.591,1.971 0.017,2.176C0.389,2.3 0.637,2.439 0.637,2.718C0.637,2.972 0.402,3.137 0.038,3.137C-0.293,3.137 -0.577,3.037 -0.759,2.952L-0.865,3.366C-0.694,3.446 -0.413,3.53 -0.092,3.545L0,3.549L0,4.036ZM0.513,4.229L-0.193,4.229L-0.193,3.731C-0.496,3.706 -0.814,3.619 -1.025,3.503L-1.091,3.467L-0.885,2.667L-0.776,2.726C-0.629,2.807 -0.327,2.942 0.038,2.942C0.234,2.942 0.444,2.884 0.444,2.718C0.444,2.6 0.361,2.494 -0.044,2.359C-0.51,2.202 -1.044,1.942 -1.044,1.318C-1.044,0.824 -0.71,0.446 -0.168,0.317L-0.168,-0.193L0.534,-0.193L0.534,0.267C0.86,0.29 1.078,0.371 1.234,0.442L1.309,0.476L1.102,1.254L0.997,1.203C0.867,1.141 0.637,1.031 0.292,1.031C0.07,1.031 -0.058,1.103 -0.058,1.23C-0.058,1.334 0.106,1.435 0.506,1.58C1.154,1.808 1.431,2.127 1.431,2.645C1.431,3.158 1.073,3.557 0.513,3.68L0.513,4.229Z" style="fill:rgb(35,31,32);fill-rule:nonzero;"/>
            </g>
            <g transform="matrix(4.16667,0,0,4.16667,2027.5,1160.73)">
                <path d="M0,-4.565L-0.024,-4.565L-1.514,-3.856L-1.813,-5.225L0.264,-6.186L1.766,-6.186L1.766,1.621L0,1.621L0,-4.565Z" style="fill:rgb(255,225,104);fill-rule:nonzero;stroke:rgb(35,31,32);stroke-width:0.2px;"/>
            </g>
            <g transform="matrix(4.16667,0,0,4.16667,2047.72,1151.17)">
                <path d="M0,0.023C0,1.813 0.433,2.666 1.13,2.666C1.838,2.666 2.223,1.777 2.223,-0C2.223,-1.73 1.851,-2.643 1.118,-2.643C0.457,-2.643 0,-1.802 0,0.023M4.048,-0.025C4.048,2.377 3.075,4.047 1.094,4.047C-0.924,4.047 -1.813,2.234 -1.825,0.023C-1.825,-2.247 -0.876,-4.024 1.142,-4.024C3.22,-4.024 4.048,-2.163 4.048,-0.025" style="fill:rgb(255,225,104);fill-rule:nonzero;"/>
            </g>
            <g transform="matrix(4.16667,0,0,4.16667,2047.72,1151.17)">
                <path d="M0,0.023C0,1.813 0.433,2.666 1.13,2.666C1.838,2.666 2.223,1.777 2.223,-0C2.223,-1.73 1.851,-2.643 1.118,-2.643C0.457,-2.643 0,-1.802 0,0.023ZM4.048,-0.025C4.048,2.377 3.075,4.047 1.094,4.047C-0.924,4.047 -1.813,2.234 -1.825,0.023C-1.825,-2.247 -0.876,-4.024 1.142,-4.024C3.22,-4.024 4.048,-2.163 4.048,-0.025Z" style="fill:none;fill-rule:nonzero;stroke:rgb(35,31,32);stroke-width:0.2px;"/>
            </g>
            <g transform="matrix(0,-4.16667,-4.16667,0,2180.93,1105.1)">
                <path d="M-11.18,-11.181C-17.355,-11.181 -22.362,-6.175 -22.362,-0C-22.362,6.174 -17.355,11.18 -11.18,11.18C-5.005,11.18 0.001,6.174 0.001,-0C0.001,-6.175 -5.005,-11.181 -11.18,-11.181" style="fill:rgb(255,225,104);fill-rule:nonzero;"/>
            </g>
            <g transform="matrix(4.16667,0,0,4.16667,2180.93,1197.61)">
                <path d="M0,-22.047C-6.078,-22.047 -11.023,-17.102 -11.023,-11.024C-11.023,-4.945 -6.078,0 0,0C6.078,0 11.023,-4.945 11.023,-11.024C11.023,-17.102 6.078,-22.047 0,-22.047M0,0.315C-6.252,0.315 -11.339,-4.772 -11.339,-11.024C-11.339,-17.276 -6.252,-22.362 0,-22.362C6.252,-22.362 11.339,-17.276 11.339,-11.024C11.339,-4.772 6.252,0.315 0,0.315" style="fill:rgb(35,31,32);fill-rule:nonzero;"/>
            </g>
            <g transform="matrix(0,-4.16667,-4.16667,0,2180.31,1121.08)">
                <path d="M-7.344,-7.344C-11.4,-7.344 -14.688,-4.056 -14.688,0C-14.688,4.055 -11.4,7.344 -7.344,7.344C-3.288,7.344 0,4.055 0,0C0,-4.056 -3.288,-7.344 -7.344,-7.344" style="fill:rgb(232,217,181);fill-rule:nonzero;"/>
            </g>
            <g transform="matrix(4.16667,0,0,4.16667,2180.31,1181.62)">
                <path d="M0,-14.372C-3.962,-14.372 -7.187,-11.148 -7.187,-7.186C-7.187,-3.225 -3.962,-0.001 0,-0.001C3.962,-0.001 7.186,-3.225 7.186,-7.186C7.186,-11.148 3.962,-14.372 0,-14.372M0,0.315C-4.137,0.315 -7.502,-3.05 -7.502,-7.186C-7.502,-11.322 -4.137,-14.687 0,-14.687C4.136,-14.687 7.501,-11.322 7.501,-7.186C7.501,-3.05 4.136,0.315 0,0.315" style="fill:rgb(35,31,32);fill-rule:nonzero;"/>
            </g>
            <g transform="matrix(4.16667,0,0,4.16667,2159.59,1150.93)">
                <path d="M0,4.23L0,3.737C-0.347,3.721 -0.685,3.628 -0.881,3.514L-0.726,2.908C-0.508,3.027 -0.202,3.135 0.135,3.135C0.431,3.135 0.633,3.021 0.633,2.814C0.633,2.617 0.467,2.493 0.083,2.363C-0.472,2.176 -0.85,1.917 -0.85,1.415C-0.85,0.959 -0.529,0.6 0.026,0.492L0.026,0L0.534,0L0.534,0.456C0.882,0.471 1.114,0.543 1.286,0.626L1.136,1.212C1,1.155 0.762,1.036 0.389,1.036C0.052,1.036 -0.057,1.181 -0.057,1.327C-0.057,1.498 0.125,1.606 0.565,1.772C1.183,1.99 1.431,2.275 1.431,2.742C1.431,3.203 1.104,3.597 0.508,3.701L0.508,4.23L0,4.23Z" style="fill:rgb(255,225,104);fill-rule:nonzero;"/>
            </g>
            <g transform="matrix(4.16667,0,0,4.16667,2160.02,1151.34)">
                <path d="M0,4.036L0.319,4.036L0.319,3.517L0.4,3.504C0.917,3.419 1.237,3.09 1.237,2.645C1.237,2.212 1.015,1.964 0.441,1.762C-0.008,1.6 -0.25,1.468 -0.25,1.23C-0.25,1.041 -0.107,0.838 0.293,0.838C0.602,0.838 0.827,0.915 0.975,0.979L1.08,0.586C0.931,0.525 0.728,0.465 0.435,0.456L0.341,0.453L0.341,-0L0.026,-0L0.026,0.476L-0.053,0.491C-0.552,0.584 -0.85,0.893 -0.85,1.318C-0.85,1.715 -0.591,1.971 0.018,2.176C0.39,2.3 0.638,2.439 0.638,2.718C0.638,2.972 0.402,3.137 0.038,3.137C-0.293,3.137 -0.576,3.037 -0.759,2.952L-0.865,3.366C-0.693,3.446 -0.412,3.53 -0.092,3.545L0,3.549L0,4.036ZM0.514,4.229L-0.193,4.229L-0.193,3.731C-0.496,3.706 -0.813,3.619 -1.024,3.503L-1.09,3.467L-0.885,2.667L-0.775,2.726C-0.628,2.807 -0.327,2.942 0.038,2.942C0.234,2.942 0.444,2.884 0.444,2.718C0.444,2.6 0.361,2.494 -0.044,2.359C-0.51,2.202 -1.043,1.942 -1.043,1.318C-1.043,0.824 -0.71,0.446 -0.167,0.317L-0.167,-0.193L0.534,-0.193L0.534,0.267C0.861,0.29 1.079,0.371 1.234,0.442L1.31,0.476L1.103,1.254L0.997,1.203C0.868,1.141 0.638,1.031 0.293,1.031C0.07,1.031 -0.057,1.103 -0.057,1.23C-0.057,1.334 0.106,1.435 0.507,1.58C1.154,1.808 1.431,2.127 1.431,2.645C1.431,3.158 1.073,3.557 0.514,3.68L0.514,4.229Z" style="fill:rgb(35,31,32);fill-rule:nonzero;"/>
            </g>
            <g transform="matrix(4.16667,0,0,4.16667,2169.29,1160.73)">
                <path d="M0,-4.565L-0.024,-4.565L-1.514,-3.856L-1.813,-5.225L0.264,-6.186L1.766,-6.186L1.766,1.621L0,1.621L0,-4.565Z" style="fill:rgb(255,225,104);fill-rule:nonzero;stroke:rgb(35,31,32);stroke-width:0.2px;"/>
            </g>
            <g transform="matrix(4.16667,0,0,4.16667,2189.51,1151.17)">
                <path d="M0,0.023C0,1.813 0.433,2.666 1.129,2.666C1.838,2.666 2.223,1.777 2.223,-0C2.223,-1.73 1.85,-2.643 1.117,-2.643C0.457,-2.643 0,-1.802 0,0.023M4.048,-0.025C4.048,2.377 3.075,4.047 1.093,4.047C-0.925,4.047 -1.813,2.234 -1.825,0.023C-1.825,-2.247 -0.877,-4.024 1.142,-4.024C3.219,-4.024 4.048,-2.163 4.048,-0.025" style="fill:rgb(255,225,104);fill-rule:nonzero;"/>
            </g>
            <g transform="matrix(4.16667,0,0,4.16667,2189.51,1151.17)">
                <path d="M0,0.023C0,1.813 0.433,2.666 1.129,2.666C1.838,2.666 2.223,1.777 2.223,-0C2.223,-1.73 1.85,-2.643 1.117,-2.643C0.457,-2.643 0,-1.802 0,0.023ZM4.048,-0.025C4.048,2.377 3.075,4.047 1.093,4.047C-0.925,4.047 -1.813,2.234 -1.825,0.023C-1.825,-2.247 -0.877,-4.024 1.142,-4.024C3.219,-4.024 4.048,-2.163 4.048,-0.025Z" style="fill:none;fill-rule:nonzero;stroke:rgb(35,31,32);stroke-width:0.2px;"/>
            </g>
            <g transform="matrix(0,-4.16667,-4.16667,0,2250.03,1054.48)">
                <path d="M-7.558,-7.558C-11.732,-7.558 -15.118,-4.174 -15.118,0.001C-15.118,4.174 -11.732,7.558 -7.558,7.558C-3.383,7.558 0.001,4.174 0.001,0.001C0.001,-4.174 -3.383,-7.558 -7.558,-7.558" style="fill:rgb(192,194,196);fill-rule:nonzero;"/>
            </g>
            <g transform="matrix(4.16667,0,0,4.16667,2250.03,1117.02)">
                <path d="M0,-14.904C-4.108,-14.904 -7.451,-11.561 -7.451,-7.452C-7.451,-3.343 -4.108,-0.001 0,-0.001C4.109,-0.001 7.452,-3.343 7.452,-7.452C7.452,-11.561 4.109,-14.904 0,-14.904M0,0.213C-4.227,0.213 -7.665,-3.225 -7.665,-7.452C-7.665,-11.678 -4.227,-15.117 0,-15.117C4.227,-15.117 7.665,-11.678 7.665,-7.452C7.665,-3.225 4.227,0.213 0,0.213" style="fill:rgb(35,31,32);fill-rule:nonzero;"/>
            </g>
            <g transform="matrix(0,-4.16667,-4.16667,0,2250.03,1065.28)">
                <path d="M-4.965,-4.964C-7.706,-4.964 -9.929,-2.741 -9.929,0.001C-9.929,2.742 -7.706,4.965 -4.965,4.965C-2.223,4.965 0,2.742 0,0.001C0,-2.741 -2.223,-4.964 -4.965,-4.964" style="fill:rgb(224,192,25);fill-rule:nonzero;"/>
            </g>
            <g transform="matrix(4.16667,0,0,4.16667,2250.03,1106.21)">
                <path d="M0,-9.714C-2.678,-9.714 -4.857,-7.535 -4.857,-4.857C-4.857,-2.179 -2.678,0.001 0,0.001C2.679,0.001 4.857,-2.179 4.857,-4.857C4.857,-7.535 2.679,-9.714 0,-9.714M0,0.214C-2.796,0.214 -5.071,-2.061 -5.071,-4.857C-5.071,-7.652 -2.796,-9.928 0,-9.928C2.796,-9.928 5.071,-7.652 5.071,-4.857C5.071,-2.061 2.796,0.214 0,0.214" style="fill:rgb(35,31,32);fill-rule:nonzero;"/>
            </g>
            <g transform="matrix(4.16667,0,0,4.16667,2239.46,1082.62)">
                <path d="M0,3.448L0,3.046C-0.283,3.034 -0.558,2.958 -0.719,2.864L-0.592,2.37C-0.414,2.468 -0.165,2.556 0.109,2.556C0.351,2.556 0.516,2.463 0.516,2.294C0.516,2.134 0.38,2.032 0.067,1.927C-0.385,1.774 -0.693,1.563 -0.693,1.153C-0.693,0.781 -0.432,0.489 0.021,0.401L0.021,0L0.436,0L0.436,0.371C0.718,0.384 0.908,0.443 1.048,0.51L0.925,0.988C0.815,0.942 0.621,0.844 0.316,0.844C0.042,0.844 -0.047,0.963 -0.047,1.081C-0.047,1.22 0.102,1.309 0.46,1.445C0.963,1.622 1.166,1.854 1.166,2.235C1.166,2.611 0.899,2.932 0.414,3.016L0.414,3.448L0,3.448Z" style="fill:rgb(255,211,68);fill-rule:nonzero;"/>
            </g>
            <g transform="matrix(4.16667,0,0,4.16667,2239.81,1082.95)">
                <path d="M0,3.291L0.261,3.291L0.261,2.868L0.326,2.857C0.747,2.787 1.009,2.52 1.009,2.157C1.009,1.804 0.827,1.602 0.359,1.437C-0.006,1.305 -0.204,1.197 -0.204,1.004C-0.204,0.849 -0.088,0.684 0.238,0.684C0.49,0.684 0.674,0.747 0.795,0.8L0.88,0.478C0.759,0.429 0.593,0.38 0.354,0.373L0.277,0.37L0.277,0.001L0.021,0.001L0.021,0.389L-0.043,0.4C-0.45,0.477 -0.692,0.728 -0.692,1.075C-0.692,1.398 -0.481,1.607 0.014,1.774C0.317,1.875 0.52,1.989 0.52,2.216C0.52,2.423 0.328,2.558 0.031,2.558C-0.239,2.558 -0.47,2.477 -0.618,2.407L-0.705,2.745C-0.565,2.81 -0.337,2.878 -0.075,2.89L0,2.894L0,3.291ZM0.418,3.448L-0.157,3.448L-0.157,3.042C-0.404,3.021 -0.663,2.95 -0.835,2.855L-0.889,2.826L-0.722,2.174L-0.633,2.223C-0.513,2.289 -0.267,2.399 0.031,2.399C0.191,2.399 0.362,2.352 0.362,2.216C0.362,2.12 0.294,2.033 -0.036,1.924C-0.415,1.796 -0.851,1.584 -0.851,1.075C-0.851,0.673 -0.579,0.364 -0.137,0.26L-0.137,-0.157L0.436,-0.157L0.436,0.219C0.701,0.236 0.879,0.304 1.006,0.361L1.067,0.389L0.898,1.022L0.812,0.981C0.707,0.931 0.52,0.842 0.238,0.842C0.058,0.842 -0.047,0.9 -0.047,1.004C-0.047,1.088 0.087,1.171 0.413,1.288C0.94,1.475 1.166,1.734 1.166,2.157C1.166,2.575 0.875,2.9 0.418,3L0.418,3.448Z" style="fill:rgb(35,31,32);fill-rule:nonzero;"/>
            </g>
            <g transform="matrix(4.16667,0,0,4.16667,2251.52,1092.21)">
                <path d="M0,-3.555L-0.019,-3.555L-1.179,-3.003L-1.412,-4.07L0.206,-4.818L1.376,-4.818L1.376,1.263L0,1.263L0,-3.555Z" style="fill:rgb(255,211,68);fill-rule:nonzero;stroke:rgb(35,31,32);stroke-width:0.2px;"/>
            </g>
        </g>
    </g>
</svg>
