<?xml version="1.0" encoding="UTF-8" standalone="no"?>
<!DOCTYPE svg PUBLIC "-//W3C//DTD SVG 1.1//EN" "http://www.w3.org/Graphics/SVG/1.1/DTD/svg11.dtd">
<svg width="100%" height="100%" viewBox="0 0 532 165" version="1.1" xmlns="http://www.w3.org/2000/svg" xmlns:xlink="http://www.w3.org/1999/xlink" xml:space="preserve" xmlns:serif="http://www.serif.com/" style="fill-rule:evenodd;clip-rule:evenodd;stroke-miterlimit:10;">
    <g transform="matrix(1,0,0,1,-106,-764)">
        <g id="i1" transform="matrix(1,0,0,1,-281.136,1.07422)">
            <g transform="matrix(0,-4.16667,-4.16667,0,495.495,763.602)">
                <path d="M-11.18,-11.182C-17.356,-11.182 -22.362,-6.175 -22.362,-0.001C-22.362,6.175 -17.356,11.18 -11.18,11.18C-5.005,11.18 0.001,6.175 0.001,-0.001C0.001,-6.175 -5.005,-11.182 -11.18,-11.182" style="fill:rgb(255,225,104);fill-rule:nonzero;"/>
            </g>
            <g transform="matrix(4.16667,0,0,4.16667,495.498,856.12)">
                <path d="M0,-22.047C-6.078,-22.047 -11.023,-17.102 -11.023,-11.024C-11.023,-4.946 -6.078,-0.001 0,-0.001C6.078,-0.001 11.023,-4.946 11.023,-11.024C11.023,-17.102 6.078,-22.047 0,-22.047M0,0.315C-6.252,0.315 -11.339,-4.772 -11.339,-11.024C-11.339,-17.276 -6.252,-22.362 0,-22.362C6.252,-22.362 11.339,-17.276 11.339,-11.024C11.339,-4.772 6.252,0.315 0,0.315" style="fill:rgb(35,31,32);fill-rule:nonzero;"/>
            </g>
            <g transform="matrix(0,-4.16667,-4.16667,0,494.88,779.591)">
                <path d="M-7.343,-7.344C-11.399,-7.344 -14.687,-4.056 -14.687,0C-14.687,4.055 -11.399,7.343 -7.343,7.343C-3.287,7.343 0,4.055 0,0C0,-4.056 -3.287,-7.344 -7.343,-7.344" style="fill:rgb(232,217,181);fill-rule:nonzero;"/>
            </g>
            <g transform="matrix(4.16667,0,0,4.16667,494.884,840.13)">
                <path d="M0,-14.372C-3.962,-14.372 -7.186,-11.148 -7.186,-7.186C-7.186,-3.224 -3.962,0 0,0C3.962,0 7.186,-3.224 7.186,-7.186C7.186,-11.148 3.962,-14.372 0,-14.372M0,0.315C-4.137,0.315 -7.502,-3.05 -7.502,-7.186C-7.502,-11.323 -4.137,-14.687 0,-14.687C4.136,-14.687 7.501,-11.323 7.501,-7.186C7.501,-3.05 4.136,0.315 0,0.315" style="fill:rgb(35,31,32);fill-rule:nonzero;"/>
            </g>
            <g transform="matrix(4.16667,0,0,4.16667,474.16,809.438)">
                <path d="M0,4.23L0,3.737C-0.347,3.722 -0.684,3.628 -0.881,3.514L-0.726,2.908C-0.508,3.027 -0.202,3.136 0.135,3.136C0.43,3.136 0.632,3.022 0.632,2.814C0.632,2.618 0.466,2.493 0.083,2.364C-0.472,2.177 -0.85,1.918 -0.85,1.415C-0.85,0.959 -0.529,0.601 0.026,0.492L0.026,0L0.534,0L0.534,0.456C0.881,0.471 1.114,0.544 1.286,0.627L1.135,1.213C1,1.156 0.762,1.037 0.389,1.037C0.052,1.037 -0.057,1.182 -0.057,1.327C-0.057,1.498 0.125,1.607 0.565,1.772C1.182,1.99 1.431,2.276 1.431,2.742C1.431,3.203 1.104,3.598 0.508,3.701L0.508,4.23L0,4.23Z" style="fill:rgb(255,225,104);fill-rule:nonzero;"/>
            </g>
            <g transform="matrix(4.16667,0,0,4.16667,474.598,809.84)">
                <path d="M0,4.037L0.319,4.037L0.319,3.518L0.4,3.505C0.917,3.419 1.237,3.09 1.237,2.646C1.237,2.212 1.014,1.965 0.441,1.763C-0.008,1.6 -0.251,1.468 -0.251,1.231C-0.251,1.041 -0.108,0.838 0.292,0.838C0.601,0.838 0.826,0.916 0.975,0.98L1.079,0.586C0.93,0.526 0.727,0.465 0.434,0.457L0.34,0.454L0.34,0L0.025,0L0.025,0.476L-0.054,0.492C-0.552,0.585 -0.851,0.894 -0.851,1.319C-0.851,1.715 -0.591,1.972 0.017,2.176C0.389,2.3 0.637,2.44 0.637,2.718C0.637,2.973 0.402,3.137 0.038,3.137C-0.293,3.137 -0.577,3.037 -0.759,2.953L-0.866,3.367C-0.694,3.446 -0.413,3.531 -0.093,3.545L0,3.549L0,4.037ZM0.513,4.23L-0.194,4.23L-0.194,3.732C-0.496,3.706 -0.814,3.62 -1.025,3.503L-1.091,3.467L-0.886,2.667L-0.776,2.727C-0.629,2.808 -0.328,2.943 0.038,2.943C0.234,2.943 0.444,2.884 0.444,2.718C0.444,2.6 0.361,2.495 -0.045,2.359C-0.51,2.203 -1.044,1.943 -1.044,1.319C-1.044,0.825 -0.71,0.447 -0.168,0.318L-0.168,-0.193L0.534,-0.193L0.534,0.268C0.86,0.29 1.078,0.372 1.234,0.443L1.309,0.476L1.102,1.254L0.997,1.204C0.867,1.142 0.637,1.032 0.292,1.032C0.07,1.032 -0.058,1.104 -0.058,1.231C-0.058,1.335 0.105,1.436 0.506,1.58C1.154,1.809 1.431,2.127 1.431,2.646C1.431,3.159 1.073,3.558 0.513,3.68L0.513,4.23Z" style="fill:rgb(35,31,32);fill-rule:nonzero;"/>
            </g>
            <g transform="matrix(4.16667,0,0,4.16667,483.865,819.233)">
                <path d="M0,-4.564L-0.024,-4.564L-1.514,-3.856L-1.814,-5.225L0.264,-6.186L1.765,-6.186L1.765,1.622L0,1.622L0,-4.564Z" style="fill:rgb(255,225,104);fill-rule:nonzero;stroke:rgb(35,31,32);stroke-width:0.2px;"/>
            </g>
            <g transform="matrix(4.16667,0,0,4.16667,504.08,809.674)">
                <path d="M0,0.024C0,1.814 0.432,2.666 1.129,2.666C1.838,2.666 2.222,1.777 2.222,0C2.222,-1.73 1.85,-2.643 1.117,-2.643C0.457,-2.643 0,-1.802 0,0.024M4.047,-0.024C4.047,2.378 3.075,4.047 1.093,4.047C-0.924,4.047 -1.813,2.234 -1.826,0.024C-1.826,-2.246 -0.877,-4.023 1.141,-4.023C3.219,-4.023 4.047,-2.162 4.047,-0.024" style="fill:rgb(255,225,104);fill-rule:nonzero;"/>
            </g>
            <g transform="matrix(4.16667,0,0,4.16667,504.08,809.674)">
                <path d="M0,0.024C0,1.814 0.432,2.666 1.129,2.666C1.838,2.666 2.222,1.777 2.222,0C2.222,-1.73 1.85,-2.643 1.117,-2.643C0.457,-2.643 0,-1.802 0,0.024ZM4.047,-0.024C4.047,2.378 3.075,4.047 1.093,4.047C-0.924,4.047 -1.813,2.234 -1.826,0.024C-1.826,-2.246 -0.877,-4.023 1.141,-4.023C3.219,-4.023 4.047,-2.162 4.047,-0.024Z" style="fill:none;fill-rule:nonzero;stroke:rgb(35,31,32);stroke-width:0.2px;"/>
            </g>
            <g transform="matrix(0,-4.16667,-4.16667,0,705.734,763.604)">
                <path d="M-11.18,-11.181C-17.355,-11.181 -22.362,-6.175 -22.362,-0C-22.362,6.174 -17.355,11.18 -11.18,11.18C-5.005,11.18 0.001,6.174 0.001,-0C0.001,-6.175 -5.005,-11.181 -11.18,-11.181" style="fill:rgb(255,225,104);fill-rule:nonzero;"/>
            </g>
            <g transform="matrix(4.16667,0,0,4.16667,705.736,856.12)">
                <path d="M0,-22.047C-6.078,-22.047 -11.022,-17.102 -11.022,-11.024C-11.022,-4.946 -6.078,-0.001 0,-0.001C6.078,-0.001 11.023,-4.946 11.023,-11.024C11.023,-17.102 6.078,-22.047 0,-22.047M0,0.315C-6.252,0.315 -11.339,-4.772 -11.339,-11.024C-11.339,-17.276 -6.252,-22.362 0,-22.362C6.252,-22.362 11.339,-17.276 11.339,-11.024C11.339,-4.772 6.252,0.315 0,0.315" style="fill:rgb(35,31,32);fill-rule:nonzero;"/>
            </g>
            <g transform="matrix(0,-4.16667,-4.16667,0,705.118,779.589)">
                <path d="M-7.343,-7.344C-11.4,-7.344 -14.688,-4.056 -14.688,-0C-14.688,4.055 -11.4,7.343 -7.343,7.343C-3.287,7.343 -0,4.055 -0,-0C-0,-4.056 -3.287,-7.344 -7.343,-7.344" style="fill:rgb(232,217,181);fill-rule:nonzero;"/>
            </g>
            <g transform="matrix(4.16667,0,0,4.16667,705.121,840.13)">
                <path d="M0,-14.372C-3.962,-14.372 -7.186,-11.148 -7.186,-7.186C-7.186,-3.224 -3.962,0 0,0C3.962,0 7.186,-3.224 7.186,-7.186C7.186,-11.148 3.962,-14.372 0,-14.372M0,0.315C-4.137,0.315 -7.502,-3.05 -7.502,-7.186C-7.502,-11.323 -4.137,-14.687 0,-14.687C4.136,-14.687 7.501,-11.323 7.501,-7.186C7.501,-3.05 4.136,0.315 0,0.315" style="fill:rgb(35,31,32);fill-rule:nonzero;"/>
            </g>
            <g transform="matrix(4.16667,0,0,4.16667,684.398,809.438)">
                <path d="M0,4.23L0,3.737C-0.347,3.722 -0.684,3.628 -0.881,3.514L-0.726,2.908C-0.508,3.027 -0.202,3.136 0.135,3.136C0.431,3.136 0.633,3.022 0.633,2.814C0.633,2.618 0.467,2.493 0.083,2.364C-0.472,2.177 -0.85,1.918 -0.85,1.415C-0.85,0.959 -0.528,0.601 0.026,0.492L0.026,0L0.534,0L0.534,0.456C0.882,0.471 1.114,0.544 1.286,0.627L1.136,1.213C1.001,1.156 0.762,1.037 0.389,1.037C0.052,1.037 -0.057,1.182 -0.057,1.327C-0.057,1.498 0.125,1.607 0.565,1.772C1.183,1.99 1.431,2.276 1.431,2.742C1.431,3.203 1.104,3.598 0.508,3.701L0.508,4.23L0,4.23Z" style="fill:rgb(255,225,104);fill-rule:nonzero;"/>
            </g>
            <g transform="matrix(4.16667,0,0,4.16667,684.837,809.84)">
                <path d="M0,4.037L0.319,4.037L0.319,3.518L0.399,3.505C0.916,3.419 1.236,3.09 1.236,2.646C1.236,2.212 1.014,1.965 0.44,1.763C-0.009,1.6 -0.251,1.468 -0.251,1.231C-0.251,1.041 -0.108,0.838 0.292,0.838C0.601,0.838 0.826,0.916 0.975,0.98L1.079,0.586C0.93,0.526 0.727,0.465 0.434,0.457L0.34,0.454L0.34,0L0.025,0L0.025,0.476L-0.054,0.492C-0.553,0.585 -0.851,0.894 -0.851,1.319C-0.851,1.715 -0.591,1.972 0.017,2.176C0.389,2.3 0.637,2.44 0.637,2.718C0.637,2.973 0.401,3.137 0.037,3.137C-0.294,3.137 -0.577,3.037 -0.76,2.953L-0.866,3.367C-0.694,3.446 -0.413,3.531 -0.093,3.545L0,3.549L0,4.037ZM0.513,4.23L-0.194,4.23L-0.194,3.732C-0.496,3.706 -0.814,3.62 -1.025,3.503L-1.091,3.467L-0.886,2.667L-0.776,2.727C-0.629,2.808 -0.327,2.943 0.037,2.943C0.233,2.943 0.443,2.884 0.443,2.718C0.443,2.6 0.36,2.495 -0.045,2.359C-0.511,2.203 -1.044,1.943 -1.044,1.319C-1.044,0.825 -0.711,0.447 -0.168,0.318L-0.168,-0.193L0.533,-0.193L0.533,0.268C0.86,0.29 1.078,0.372 1.233,0.443L1.309,0.476L1.102,1.254L0.996,1.204C0.867,1.142 0.637,1.032 0.292,1.032C0.069,1.032 -0.058,1.104 -0.058,1.231C-0.058,1.335 0.105,1.436 0.506,1.58C1.153,1.809 1.431,2.127 1.431,2.646C1.431,3.159 1.073,3.558 0.513,3.68L0.513,4.23Z" style="fill:rgb(35,31,32);fill-rule:nonzero;"/>
            </g>
            <g transform="matrix(4.16667,0,0,4.16667,694.103,819.233)">
                <path d="M0,-4.564L-0.024,-4.564L-1.514,-3.856L-1.813,-5.225L0.264,-6.186L1.766,-6.186L1.766,1.622L0,1.622L0,-4.564Z" style="fill:rgb(255,225,104);fill-rule:nonzero;stroke:rgb(35,31,32);stroke-width:0.2px;"/>
            </g>
            <g transform="matrix(4.16667,0,0,4.16667,714.317,809.674)">
                <path d="M0,0.024C0,1.814 0.433,2.666 1.129,2.666C1.838,2.666 2.223,1.777 2.223,0C2.223,-1.73 1.85,-2.643 1.117,-2.643C0.457,-2.643 0,-1.802 0,0.024M4.048,-0.024C4.048,2.378 3.075,4.047 1.093,4.047C-0.924,4.047 -1.813,2.234 -1.825,0.024C-1.825,-2.246 -0.877,-4.023 1.142,-4.023C3.219,-4.023 4.048,-2.162 4.048,-0.024" style="fill:rgb(255,225,104);fill-rule:nonzero;"/>
            </g>
            <g transform="matrix(4.16667,0,0,4.16667,714.317,809.674)">
                <path d="M0,0.024C0,1.814 0.433,2.666 1.129,2.666C1.838,2.666 2.223,1.777 2.223,0C2.223,-1.73 1.85,-2.643 1.117,-2.643C0.457,-2.643 0,-1.802 0,0.024ZM4.048,-0.024C4.048,2.378 3.075,4.047 1.093,4.047C-0.924,4.047 -1.813,2.234 -1.825,0.024C-1.825,-2.246 -0.877,-4.023 1.142,-4.023C3.219,-4.023 4.048,-2.162 4.048,-0.024Z" style="fill:none;fill-rule:nonzero;stroke:rgb(35,31,32);stroke-width:0.2px;"/>
            </g>
            <g transform="matrix(0,-4.16667,-4.16667,0,600.615,763.602)">
                <path d="M-11.18,-11.182C-17.356,-11.182 -22.362,-6.175 -22.362,-0.001C-22.362,6.175 -17.356,11.18 -11.18,11.18C-5.005,11.18 0.001,6.175 0.001,-0.001C0.001,-6.175 -5.005,-11.182 -11.18,-11.182" style="fill:rgb(255,225,104);fill-rule:nonzero;"/>
            </g>
            <g transform="matrix(4.16667,0,0,4.16667,600.617,856.12)">
                <path d="M0,-22.047C-6.078,-22.047 -11.023,-17.102 -11.023,-11.024C-11.023,-4.946 -6.078,-0.001 0,-0.001C6.079,-0.001 11.023,-4.946 11.023,-11.024C11.023,-17.102 6.079,-22.047 0,-22.047M0,0.315C-6.252,0.315 -11.338,-4.772 -11.338,-11.024C-11.338,-17.276 -6.252,-22.362 0,-22.362C6.252,-22.362 11.339,-17.276 11.339,-11.024C11.339,-4.772 6.252,0.315 0,0.315" style="fill:rgb(35,31,32);fill-rule:nonzero;"/>
            </g>
            <g transform="matrix(0,-4.16667,-4.16667,0,599.999,779.591)">
                <path d="M-7.343,-7.344C-11.399,-7.344 -14.687,-4.056 -14.687,-0.001C-14.687,4.055 -11.399,7.343 -7.343,7.343C-3.287,7.343 0,4.055 0,-0.001C0,-4.056 -3.287,-7.344 -7.343,-7.344" style="fill:rgb(232,217,181);fill-rule:nonzero;"/>
            </g>
            <g transform="matrix(4.16667,0,0,4.16667,600.003,840.13)">
                <path d="M0,-14.372C-3.962,-14.372 -7.186,-11.148 -7.186,-7.186C-7.186,-3.224 -3.962,0 0,0C3.962,0 7.186,-3.224 7.186,-7.186C7.186,-11.148 3.962,-14.372 0,-14.372M0,0.315C-4.137,0.315 -7.501,-3.05 -7.501,-7.186C-7.501,-11.323 -4.137,-14.687 0,-14.687C4.136,-14.687 7.501,-11.323 7.501,-7.186C7.501,-3.05 4.136,0.315 0,0.315" style="fill:rgb(35,31,32);fill-rule:nonzero;"/>
            </g>
            <g transform="matrix(4.16667,0,0,4.16667,579.279,809.438)">
                <path d="M0,4.23L0,3.737C-0.347,3.722 -0.684,3.628 -0.881,3.514L-0.726,2.908C-0.508,3.027 -0.202,3.136 0.135,3.136C0.43,3.136 0.632,3.022 0.632,2.814C0.632,2.618 0.466,2.493 0.083,2.364C-0.472,2.177 -0.85,1.918 -0.85,1.415C-0.85,0.959 -0.529,0.601 0.026,0.492L0.026,0L0.534,0L0.534,0.456C0.881,0.471 1.115,0.544 1.286,0.627L1.135,1.213C1,1.156 0.762,1.037 0.389,1.037C0.052,1.037 -0.057,1.182 -0.057,1.327C-0.057,1.498 0.125,1.607 0.565,1.772C1.182,1.99 1.431,2.276 1.431,2.742C1.431,3.203 1.104,3.598 0.508,3.701L0.508,4.23L0,4.23Z" style="fill:rgb(255,225,104);fill-rule:nonzero;"/>
            </g>
            <g transform="matrix(4.16667,0,0,4.16667,579.716,809.84)">
                <path d="M0,4.037L0.319,4.037L0.319,3.518L0.4,3.505C0.917,3.419 1.237,3.09 1.237,2.646C1.237,2.212 1.014,1.965 0.441,1.763C-0.008,1.6 -0.251,1.468 -0.251,1.231C-0.251,1.041 -0.108,0.838 0.292,0.838C0.602,0.838 0.826,0.916 0.975,0.98L1.079,0.586C0.93,0.526 0.727,0.465 0.435,0.457L0.34,0.454L0.34,0L0.026,0L0.026,0.476L-0.053,0.492C-0.552,0.585 -0.85,0.894 -0.85,1.319C-0.85,1.715 -0.591,1.972 0.017,2.176C0.389,2.3 0.637,2.44 0.637,2.718C0.637,2.973 0.402,3.137 0.038,3.137C-0.293,3.137 -0.577,3.037 -0.759,2.953L-0.865,3.367C-0.694,3.446 -0.413,3.531 -0.092,3.545L0,3.549L0,4.037ZM0.513,4.23L-0.193,4.23L-0.193,3.732C-0.496,3.706 -0.814,3.62 -1.025,3.503L-1.091,3.467L-0.885,2.667L-0.776,2.727C-0.629,2.808 -0.327,2.943 0.038,2.943C0.234,2.943 0.444,2.884 0.444,2.718C0.444,2.6 0.361,2.495 -0.044,2.359C-0.51,2.203 -1.044,1.943 -1.044,1.319C-1.044,0.825 -0.71,0.447 -0.168,0.318L-0.168,-0.193L0.534,-0.193L0.534,0.268C0.86,0.29 1.078,0.372 1.234,0.443L1.309,0.476L1.102,1.254L0.997,1.204C0.867,1.142 0.637,1.032 0.292,1.032C0.07,1.032 -0.058,1.104 -0.058,1.231C-0.058,1.335 0.106,1.436 0.506,1.58C1.154,1.809 1.431,2.127 1.431,2.646C1.431,3.159 1.073,3.558 0.513,3.68L0.513,4.23Z" style="fill:rgb(35,31,32);fill-rule:nonzero;"/>
            </g>
            <g transform="matrix(4.16667,0,0,4.16667,588.984,819.233)">
                <path d="M0,-4.564L-0.024,-4.564L-1.514,-3.856L-1.813,-5.225L0.264,-6.186L1.766,-6.186L1.766,1.622L0,1.622L0,-4.564Z" style="fill:rgb(255,225,104);fill-rule:nonzero;stroke:rgb(35,31,32);stroke-width:0.2px;"/>
            </g>
            <g transform="matrix(4.16667,0,0,4.16667,609.198,809.674)">
                <path d="M0,0.024C0,1.814 0.433,2.666 1.129,2.666C1.838,2.666 2.222,1.777 2.222,0C2.222,-1.73 1.85,-2.643 1.117,-2.643C0.457,-2.643 0,-1.802 0,0.024M4.048,-0.024C4.048,2.378 3.075,4.047 1.093,4.047C-0.924,4.047 -1.813,2.234 -1.826,0.024C-1.826,-2.246 -0.877,-4.023 1.141,-4.023C3.219,-4.023 4.048,-2.162 4.048,-0.024" style="fill:rgb(255,225,104);fill-rule:nonzero;"/>
            </g>
            <g transform="matrix(4.16667,0,0,4.16667,609.198,809.674)">
                <path d="M0,0.024C0,1.814 0.433,2.666 1.129,2.666C1.838,2.666 2.222,1.777 2.222,0C2.222,-1.73 1.85,-2.643 1.117,-2.643C0.457,-2.643 0,-1.802 0,0.024ZM4.048,-0.024C4.048,2.378 3.075,4.047 1.093,4.047C-0.924,4.047 -1.813,2.234 -1.826,0.024C-1.826,-2.246 -0.877,-4.023 1.141,-4.023C3.219,-4.023 4.048,-2.162 4.048,-0.024Z" style="fill:none;fill-rule:nonzero;stroke:rgb(35,31,32);stroke-width:0.2px;"/>
            </g>
            <g transform="matrix(0,-4.16667,-4.16667,0,810.855,763.602)">
                <path d="M-11.18,-11.182C-17.356,-11.182 -22.362,-6.175 -22.362,0.001C-22.362,6.175 -17.356,11.18 -11.18,11.18C-5.005,11.18 0.001,6.175 0.001,0.001C0.001,-6.175 -5.005,-11.182 -11.18,-11.182" style="fill:rgb(255,225,104);fill-rule:nonzero;"/>
            </g>
            <g transform="matrix(4.16667,0,0,4.16667,810.855,856.12)">
                <path d="M0,-22.047C-6.078,-22.047 -11.022,-17.102 -11.022,-11.024C-11.022,-4.946 -6.078,-0.001 0,-0.001C6.079,-0.001 11.023,-4.946 11.023,-11.024C11.023,-17.102 6.079,-22.047 0,-22.047M0,0.315C-6.252,0.315 -11.338,-4.772 -11.338,-11.024C-11.338,-17.276 -6.252,-22.362 0,-22.362C6.253,-22.362 11.339,-17.276 11.339,-11.024C11.339,-4.772 6.253,0.315 0,0.315" style="fill:rgb(35,31,32);fill-rule:nonzero;"/>
            </g>
            <g transform="matrix(0,-4.16667,-4.16667,0,810.237,779.589)">
                <path d="M-7.343,-7.344C-11.4,-7.344 -14.688,-4.056 -14.688,-0C-14.688,4.055 -11.4,7.343 -7.343,7.343C-3.287,7.343 -0,4.055 -0,-0C-0,-4.056 -3.287,-7.344 -7.343,-7.344" style="fill:rgb(232,217,181);fill-rule:nonzero;"/>
            </g>
            <g transform="matrix(4.16667,0,0,4.16667,810.24,840.13)">
                <path d="M0,-14.372C-3.962,-14.372 -7.186,-11.148 -7.186,-7.186C-7.186,-3.224 -3.962,0 0,0C3.963,0 7.186,-3.224 7.186,-7.186C7.186,-11.148 3.963,-14.372 0,-14.372M0,0.315C-4.137,0.315 -7.501,-3.05 -7.501,-7.186C-7.501,-11.323 -4.137,-14.687 0,-14.687C4.137,-14.687 7.501,-11.323 7.501,-7.186C7.501,-3.05 4.137,0.315 0,0.315" style="fill:rgb(35,31,32);fill-rule:nonzero;"/>
            </g>
            <g transform="matrix(4.16667,0,0,4.16667,789.517,809.438)">
                <path d="M0,4.23L0,3.737C-0.347,3.722 -0.684,3.628 -0.881,3.514L-0.726,2.908C-0.508,3.027 -0.202,3.136 0.135,3.136C0.431,3.136 0.633,3.022 0.633,2.814C0.633,2.618 0.467,2.493 0.083,2.364C-0.472,2.177 -0.85,1.918 -0.85,1.415C-0.85,0.959 -0.528,0.601 0.026,0.492L0.026,0L0.534,0L0.534,0.456C0.882,0.471 1.115,0.544 1.286,0.627L1.136,1.213C1.001,1.156 0.763,1.037 0.39,1.037C0.052,1.037 -0.057,1.182 -0.057,1.327C-0.057,1.498 0.125,1.607 0.565,1.772C1.183,1.99 1.431,2.276 1.431,2.742C1.431,3.203 1.104,3.598 0.509,3.701L0.509,4.23L0,4.23Z" style="fill:rgb(255,225,104);fill-rule:nonzero;"/>
            </g>
            <g transform="matrix(4.16667,0,0,4.16667,789.956,809.84)">
                <path d="M0,4.037L0.319,4.037L0.319,3.518L0.4,3.505C0.916,3.419 1.237,3.09 1.237,2.646C1.237,2.212 1.014,1.965 0.44,1.763C-0.008,1.6 -0.251,1.468 -0.251,1.231C-0.251,1.041 -0.108,0.838 0.292,0.838C0.602,0.838 0.826,0.916 0.975,0.98L1.079,0.586C0.93,0.526 0.727,0.465 0.435,0.457L0.34,0.454L0.34,0L0.025,0L0.025,0.476L-0.054,0.492C-0.553,0.585 -0.851,0.894 -0.851,1.319C-0.851,1.715 -0.591,1.972 0.017,2.176C0.389,2.3 0.638,2.44 0.638,2.718C0.638,2.973 0.401,3.137 0.037,3.137C-0.294,3.137 -0.577,3.037 -0.759,2.953L-0.865,3.367C-0.694,3.446 -0.413,3.531 -0.093,3.545L0,3.549L0,4.037ZM0.513,4.23L-0.193,4.23L-0.193,3.732C-0.496,3.706 -0.814,3.62 -1.025,3.503L-1.091,3.467L-0.886,2.667L-0.776,2.727C-0.629,2.808 -0.327,2.943 0.037,2.943C0.233,2.943 0.443,2.884 0.443,2.718C0.443,2.6 0.36,2.495 -0.045,2.359C-0.51,2.203 -1.044,1.943 -1.044,1.319C-1.044,0.825 -0.711,0.447 -0.168,0.318L-0.168,-0.193L0.534,-0.193L0.534,0.268C0.86,0.29 1.078,0.372 1.234,0.443L1.309,0.476L1.102,1.254L0.996,1.204C0.867,1.142 0.637,1.032 0.292,1.032C0.069,1.032 -0.058,1.104 -0.058,1.231C-0.058,1.335 0.105,1.436 0.506,1.58C1.153,1.809 1.431,2.127 1.431,2.646C1.431,3.159 1.073,3.558 0.513,3.68L0.513,4.23Z" style="fill:rgb(35,31,32);fill-rule:nonzero;"/>
            </g>
            <g transform="matrix(4.16667,0,0,4.16667,799.221,819.233)">
                <path d="M0,-4.564L-0.024,-4.564L-1.514,-3.856L-1.813,-5.225L0.264,-6.186L1.766,-6.186L1.766,1.622L0,1.622L0,-4.564Z" style="fill:rgb(255,225,104);fill-rule:nonzero;stroke:rgb(35,31,32);stroke-width:0.2px;"/>
            </g>
            <g transform="matrix(4.16667,0,0,4.16667,819.436,809.674)">
                <path d="M0,0.024C0,1.814 0.433,2.666 1.13,2.666C1.838,2.666 2.223,1.777 2.223,0C2.223,-1.73 1.85,-2.643 1.117,-2.643C0.457,-2.643 0,-1.802 0,0.024M4.048,-0.024C4.048,2.378 3.075,4.047 1.094,4.047C-0.924,4.047 -1.813,2.234 -1.825,0.024C-1.825,-2.246 -0.877,-4.023 1.142,-4.023C3.22,-4.023 4.048,-2.162 4.048,-0.024" style="fill:rgb(255,225,104);fill-rule:nonzero;"/>
            </g>
            <g transform="matrix(4.16667,0,0,4.16667,819.436,809.674)">
                <path d="M0,0.024C0,1.814 0.433,2.666 1.13,2.666C1.838,2.666 2.223,1.777 2.223,0C2.223,-1.73 1.85,-2.643 1.117,-2.643C0.457,-2.643 0,-1.802 0,0.024ZM4.048,-0.024C4.048,2.378 3.075,4.047 1.094,4.047C-0.924,4.047 -1.813,2.234 -1.825,0.024C-1.825,-2.246 -0.877,-4.023 1.142,-4.023C3.22,-4.023 4.048,-2.162 4.048,-0.024Z" style="fill:none;fill-rule:nonzero;stroke:rgb(35,31,32);stroke-width:0.2px;"/>
            </g>
            <g transform="matrix(0,-4.16667,-4.16667,0,419.239,863.597)">
                <path d="M-7.558,-7.558C-11.732,-7.558 -15.118,-4.175 -15.118,-0C-15.118,4.174 -11.732,7.558 -7.558,7.558C-3.383,7.558 0.001,4.174 0.001,-0C0.001,-4.175 -3.383,-7.558 -7.558,-7.558" style="fill:rgb(192,194,196);fill-rule:nonzero;"/>
            </g>
            <g transform="matrix(4.16667,0,0,4.16667,419.241,926.14)">
                <path d="M0,-14.904C-4.109,-14.904 -7.452,-11.561 -7.452,-7.452C-7.452,-3.343 -4.109,-0.001 0,-0.001C4.109,-0.001 7.452,-3.343 7.452,-7.452C7.452,-11.561 4.109,-14.904 0,-14.904M0,0.213C-4.227,0.213 -7.665,-3.225 -7.665,-7.452C-7.665,-11.678 -4.227,-15.117 0,-15.117C4.226,-15.117 7.665,-11.678 7.665,-7.452C7.665,-3.225 4.226,0.213 0,0.213" style="fill:rgb(35,31,32);fill-rule:nonzero;"/>
            </g>
            <g transform="matrix(0,-4.16667,-4.16667,0,419.242,874.403)">
                <path d="M-4.965,-4.964C-7.706,-4.964 -9.929,-2.741 -9.929,-0C-9.929,2.742 -7.706,4.965 -4.965,4.965C-2.223,4.965 0,2.742 0,-0C0,-2.741 -2.223,-4.964 -4.965,-4.964" style="fill:rgb(224,192,25);fill-rule:nonzero;"/>
            </g>
            <g transform="matrix(4.16667,0,0,4.16667,419.241,915.327)">
                <path d="M0,-9.714C-2.678,-9.714 -4.858,-7.535 -4.858,-4.857C-4.858,-2.178 -2.678,0.001 0,0.001C2.679,0.001 4.857,-2.178 4.857,-4.857C4.857,-7.535 2.679,-9.714 0,-9.714M0,0.214C-2.796,0.214 -5.071,-2.061 -5.071,-4.857C-5.071,-7.652 -2.796,-9.928 0,-9.928C2.796,-9.928 5.071,-7.652 5.071,-4.857C5.071,-2.061 2.796,0.214 0,0.214" style="fill:rgb(35,31,32);fill-rule:nonzero;"/>
            </g>
            <g transform="matrix(4.16667,0,0,4.16667,408.663,891.743)">
                <path d="M0,3.448L0,3.047C-0.283,3.034 -0.558,2.958 -0.718,2.864L-0.591,2.37C-0.414,2.468 -0.165,2.556 0.11,2.556C0.351,2.556 0.516,2.463 0.516,2.294C0.516,2.134 0.38,2.032 0.067,1.927C-0.385,1.774 -0.693,1.563 -0.693,1.153C-0.693,0.781 -0.431,0.49 0.021,0.401L0.021,0L0.436,0L0.436,0.371C0.718,0.384 0.909,0.443 1.048,0.51L0.925,0.988C0.815,0.942 0.621,0.844 0.317,0.844C0.042,0.844 -0.046,0.963 -0.046,1.081C-0.046,1.22 0.102,1.309 0.46,1.445C0.964,1.622 1.167,1.855 1.167,2.235C1.167,2.611 0.9,2.932 0.414,3.016L0.414,3.448L0,3.448Z" style="fill:rgb(255,211,68);fill-rule:nonzero;"/>
            </g>
            <g transform="matrix(4.16667,0,0,4.16667,409.019,892.068)">
                <path d="M0,3.291L0.26,3.291L0.26,2.868L0.326,2.857C0.747,2.787 1.009,2.52 1.009,2.157C1.009,1.804 0.827,1.602 0.359,1.437C-0.006,1.305 -0.205,1.197 -0.205,1.004C-0.205,0.849 -0.088,0.684 0.238,0.684C0.49,0.684 0.674,0.747 0.794,0.8L0.88,0.478C0.758,0.429 0.593,0.38 0.354,0.373L0.278,0.37L0.278,0.001L0.021,0.001L0.021,0.389L-0.043,0.401C-0.45,0.477 -0.693,0.729 -0.693,1.075C-0.693,1.398 -0.481,1.607 0.014,1.774C0.317,1.875 0.52,1.989 0.52,2.216C0.52,2.424 0.328,2.558 0.031,2.558C-0.239,2.558 -0.47,2.477 -0.619,2.407L-0.705,2.745C-0.565,2.81 -0.336,2.878 -0.075,2.89L0,2.894L0,3.291ZM0.418,3.448L-0.158,3.448L-0.158,3.043C-0.404,3.021 -0.664,2.95 -0.835,2.855L-0.889,2.826L-0.722,2.175L-0.633,2.224C-0.513,2.289 -0.267,2.399 0.031,2.399C0.191,2.399 0.362,2.352 0.362,2.216C0.362,2.12 0.294,2.034 -0.036,1.924C-0.416,1.796 -0.851,1.584 -0.851,1.075C-0.851,0.673 -0.579,0.364 -0.137,0.26L-0.137,-0.157L0.436,-0.157L0.436,0.219C0.702,0.236 0.879,0.304 1.006,0.361L1.067,0.389L0.898,1.022L0.812,0.981C0.707,0.931 0.52,0.842 0.238,0.842C0.057,0.842 -0.047,0.9 -0.047,1.004C-0.047,1.089 0.086,1.171 0.413,1.288C0.94,1.475 1.167,1.734 1.167,2.157C1.167,2.575 0.875,2.9 0.418,3L0.418,3.448Z" style="fill:rgb(35,31,32);fill-rule:nonzero;"/>
            </g>
            <g transform="matrix(4.16667,0,0,4.16667,420.73,901.326)">
                <path d="M0,-3.555L-0.019,-3.555L-1.179,-3.003L-1.413,-4.07L0.206,-4.818L1.375,-4.818L1.375,1.263L0,1.263L0,-3.555Z" style="fill:rgb(255,211,68);fill-rule:nonzero;stroke:rgb(35,31,32);stroke-width:0.2px;"/>
            </g>
            <g transform="matrix(0,-4.16667,-4.16667,0,497.218,863.597)">
                <path d="M-7.558,-7.558C-11.732,-7.558 -15.118,-4.175 -15.118,-0C-15.118,4.174 -11.732,7.558 -7.558,7.558C-3.383,7.558 0.001,4.174 0.001,-0C0.001,-4.175 -3.383,-7.558 -7.558,-7.558" style="fill:rgb(192,194,196);fill-rule:nonzero;"/>
            </g>
            <g transform="matrix(4.16667,0,0,4.16667,497.219,926.14)">
                <path d="M0,-14.904C-4.109,-14.904 -7.452,-11.561 -7.452,-7.452C-7.452,-3.343 -4.109,-0.001 0,-0.001C4.109,-0.001 7.452,-3.343 7.452,-7.452C7.452,-11.561 4.109,-14.904 0,-14.904M0,0.213C-4.226,0.213 -7.665,-3.225 -7.665,-7.452C-7.665,-11.678 -4.226,-15.117 0,-15.117C4.227,-15.117 7.665,-11.678 7.665,-7.452C7.665,-3.225 4.227,0.213 0,0.213" style="fill:rgb(35,31,32);fill-rule:nonzero;"/>
            </g>
            <g transform="matrix(0,-4.16667,-4.16667,0,497.221,874.403)">
                <path d="M-4.965,-4.964C-7.706,-4.964 -9.929,-2.741 -9.929,-0C-9.929,2.742 -7.706,4.965 -4.965,4.965C-2.223,4.965 0,2.742 0,-0C0,-2.741 -2.223,-4.964 -4.965,-4.964" style="fill:rgb(224,192,25);fill-rule:nonzero;"/>
            </g>
            <g transform="matrix(4.16667,0,0,4.16667,497.221,915.327)">
                <path d="M0,-9.714C-2.679,-9.714 -4.858,-7.535 -4.858,-4.857C-4.858,-2.178 -2.679,0.001 0,0.001C2.678,0.001 4.857,-2.178 4.857,-4.857C4.857,-7.535 2.678,-9.714 0,-9.714M0,0.214C-2.796,0.214 -5.071,-2.061 -5.071,-4.857C-5.071,-7.652 -2.796,-9.928 0,-9.928C2.795,-9.928 5.07,-7.652 5.07,-4.857C5.07,-2.061 2.795,0.214 0,0.214" style="fill:rgb(35,31,32);fill-rule:nonzero;"/>
            </g>
            <g transform="matrix(4.16667,0,0,4.16667,486.644,891.743)">
                <path d="M0,3.448L0,3.047C-0.283,3.034 -0.558,2.958 -0.719,2.864L-0.592,2.37C-0.415,2.468 -0.165,2.556 0.109,2.556C0.35,2.556 0.515,2.463 0.515,2.294C0.515,2.134 0.38,2.032 0.067,1.927C-0.385,1.774 -0.693,1.563 -0.693,1.153C-0.693,0.781 -0.432,0.49 0.021,0.401L0.021,0L0.435,0L0.435,0.371C0.718,0.384 0.908,0.443 1.048,0.51L0.925,0.988C0.815,0.942 0.621,0.844 0.317,0.844C0.042,0.844 -0.047,0.963 -0.047,1.081C-0.047,1.22 0.101,1.309 0.46,1.445C0.963,1.622 1.166,1.855 1.166,2.235C1.166,2.611 0.9,2.932 0.414,3.016L0.414,3.448L0,3.448Z" style="fill:rgb(255,211,68);fill-rule:nonzero;"/>
            </g>
            <g transform="matrix(4.16667,0,0,4.16667,486.998,892.068)">
                <path d="M0,3.291L0.26,3.291L0.26,2.868L0.327,2.857C0.748,2.787 1.009,2.52 1.009,2.157C1.009,1.804 0.827,1.602 0.36,1.437C-0.006,1.305 -0.204,1.197 -0.204,1.004C-0.204,0.849 -0.088,0.684 0.238,0.684C0.49,0.684 0.674,0.747 0.794,0.8L0.88,0.478C0.759,0.429 0.593,0.38 0.354,0.373L0.278,0.37L0.278,0.001L0.021,0.001L0.021,0.389L-0.043,0.401C-0.45,0.477 -0.693,0.729 -0.693,1.075C-0.693,1.398 -0.481,1.607 0.014,1.774C0.317,1.875 0.52,1.989 0.52,2.216C0.52,2.424 0.328,2.558 0.031,2.558C-0.239,2.558 -0.47,2.477 -0.619,2.407L-0.705,2.745C-0.565,2.81 -0.336,2.878 -0.075,2.89L0,2.894L0,3.291ZM0.418,3.448L-0.158,3.448L-0.158,3.043C-0.404,3.021 -0.664,2.95 -0.835,2.855L-0.889,2.826L-0.722,2.175L-0.632,2.224C-0.512,2.289 -0.267,2.399 0.031,2.399C0.191,2.399 0.362,2.352 0.362,2.216C0.362,2.12 0.294,2.034 -0.036,1.924C-0.416,1.796 -0.851,1.584 -0.851,1.075C-0.851,0.673 -0.579,0.364 -0.137,0.26L-0.137,-0.157L0.436,-0.157L0.436,0.219C0.702,0.236 0.879,0.304 1.006,0.361L1.067,0.389L0.898,1.022L0.812,0.981C0.707,0.931 0.52,0.842 0.238,0.842C0.057,0.842 -0.046,0.9 -0.046,1.004C-0.046,1.089 0.086,1.171 0.413,1.288C0.941,1.475 1.167,1.734 1.167,2.157C1.167,2.575 0.875,2.9 0.418,3L0.418,3.448Z" style="fill:rgb(35,31,32);fill-rule:nonzero;"/>
            </g>
            <g transform="matrix(4.16667,0,0,4.16667,498.71,901.326)">
                <path d="M0,-3.555L-0.019,-3.555L-1.179,-3.003L-1.413,-4.07L0.206,-4.818L1.375,-4.818L1.375,1.263L0,1.263L0,-3.555Z" style="fill:rgb(255,211,68);fill-rule:nonzero;stroke:rgb(35,31,32);stroke-width:0.2px;"/>
            </g>
            <g transform="matrix(0,-4.16667,-4.16667,0,575.198,863.597)">
                <path d="M-7.558,-7.558C-11.732,-7.558 -15.118,-4.175 -15.118,0.001C-15.118,4.174 -11.732,7.558 -7.558,7.558C-3.383,7.558 0.001,4.174 0.001,0.001C0.001,-4.175 -3.383,-7.558 -7.558,-7.558" style="fill:rgb(192,194,196);fill-rule:nonzero;"/>
            </g>
            <g transform="matrix(4.16667,0,0,4.16667,575.198,926.14)">
                <path d="M0,-14.904C-4.109,-14.904 -7.452,-11.561 -7.452,-7.452C-7.452,-3.343 -4.109,-0.001 0,-0.001C4.109,-0.001 7.452,-3.343 7.452,-7.452C7.452,-11.561 4.109,-14.904 0,-14.904M0,0.213C-4.226,0.213 -7.665,-3.225 -7.665,-7.452C-7.665,-11.678 -4.226,-15.117 0,-15.117C4.227,-15.117 7.665,-11.678 7.665,-7.452C7.665,-3.225 4.227,0.213 0,0.213" style="fill:rgb(35,31,32);fill-rule:nonzero;"/>
            </g>
            <g transform="matrix(0,-4.16667,-4.16667,0,575.201,874.405)">
                <path d="M-4.964,-4.964C-7.705,-4.964 -9.929,-2.74 -9.929,0C-9.929,2.743 -7.705,4.964 -4.964,4.964C-2.222,4.964 0.001,2.743 0.001,0C0.001,-2.74 -2.222,-4.964 -4.964,-4.964" style="fill:rgb(224,192,25);fill-rule:nonzero;"/>
            </g>
            <g transform="matrix(4.16667,0,0,4.16667,575.2,915.327)">
                <path d="M0,-9.714C-2.679,-9.714 -4.858,-7.535 -4.858,-4.857C-4.858,-2.178 -2.679,0.001 0,0.001C2.678,0.001 4.857,-2.178 4.857,-4.857C4.857,-7.535 2.678,-9.714 0,-9.714M0,0.214C-2.796,0.214 -5.071,-2.061 -5.071,-4.857C-5.071,-7.652 -2.796,-9.928 0,-9.928C2.796,-9.928 5.07,-7.652 5.07,-4.857C5.07,-2.061 2.796,0.214 0,0.214" style="fill:rgb(35,31,32);fill-rule:nonzero;"/>
            </g>
            <g transform="matrix(4.16667,0,0,4.16667,564.623,891.743)">
                <path d="M0,3.448L0,3.047C-0.283,3.034 -0.558,2.958 -0.718,2.864L-0.592,2.37C-0.415,2.468 -0.165,2.556 0.109,2.556C0.351,2.556 0.515,2.463 0.515,2.294C0.515,2.134 0.38,2.032 0.067,1.927C-0.385,1.774 -0.693,1.563 -0.693,1.153C-0.693,0.781 -0.431,0.49 0.021,0.401L0.021,0L0.435,0L0.435,0.371C0.718,0.384 0.908,0.443 1.048,0.51L0.925,0.988C0.815,0.942 0.621,0.844 0.317,0.844C0.042,0.844 -0.046,0.963 -0.046,1.081C-0.046,1.22 0.101,1.309 0.46,1.445C0.963,1.622 1.166,1.855 1.166,2.235C1.166,2.611 0.9,2.932 0.414,3.016L0.414,3.448L0,3.448Z" style="fill:rgb(255,211,68);fill-rule:nonzero;"/>
            </g>
            <g transform="matrix(4.16667,0,0,4.16667,564.978,892.068)">
                <path d="M0,3.291L0.26,3.291L0.26,2.868L0.326,2.857C0.747,2.787 1.008,2.52 1.008,2.157C1.008,1.804 0.826,1.602 0.359,1.437C-0.007,1.305 -0.205,1.197 -0.205,1.004C-0.205,0.849 -0.088,0.684 0.238,0.684C0.49,0.684 0.673,0.747 0.794,0.8L0.879,0.478C0.758,0.429 0.592,0.38 0.354,0.373L0.277,0.37L0.277,0.001L0.021,0.001L0.021,0.389L-0.043,0.401C-0.45,0.477 -0.693,0.729 -0.693,1.075C-0.693,1.398 -0.482,1.607 0.014,1.774C0.317,1.875 0.52,1.989 0.52,2.216C0.52,2.424 0.328,2.558 0.031,2.558C-0.239,2.558 -0.47,2.477 -0.619,2.407L-0.706,2.745C-0.566,2.81 -0.337,2.878 -0.076,2.89L0,2.894L0,3.291ZM0.418,3.448L-0.158,3.448L-0.158,3.043C-0.405,3.021 -0.664,2.95 -0.835,2.855L-0.889,2.826L-0.722,2.175L-0.633,2.224C-0.513,2.289 -0.267,2.399 0.031,2.399C0.19,2.399 0.362,2.352 0.362,2.216C0.362,2.12 0.294,2.034 -0.037,1.924C-0.416,1.796 -0.851,1.584 -0.851,1.075C-0.851,0.673 -0.579,0.364 -0.137,0.26L-0.137,-0.157L0.435,-0.157L0.435,0.219C0.701,0.236 0.879,0.304 1.006,0.361L1.066,0.389L0.898,1.022L0.812,0.981C0.707,0.931 0.52,0.842 0.238,0.842C0.057,0.842 -0.047,0.9 -0.047,1.004C-0.047,1.089 0.086,1.171 0.412,1.288C0.94,1.475 1.166,1.734 1.166,2.157C1.166,2.575 0.875,2.9 0.418,3L0.418,3.448Z" style="fill:rgb(35,31,32);fill-rule:nonzero;"/>
            </g>
            <g transform="matrix(4.16667,0,0,4.16667,576.689,901.326)">
                <path d="M0,-3.555L-0.019,-3.555L-1.179,-3.003L-1.413,-4.07L0.206,-4.818L1.375,-4.818L1.375,1.263L0,1.263L0,-3.555Z" style="fill:rgb(255,211,68);fill-rule:nonzero;stroke:rgb(35,31,32);stroke-width:0.2px;"/>
            </g>
            <g transform="matrix(0,-4.16667,-4.16667,0,653.177,863.597)">
                <path d="M-7.558,-7.558C-11.732,-7.558 -15.118,-4.175 -15.118,0.001C-15.118,4.174 -11.732,7.558 -7.558,7.558C-3.383,7.558 0.001,4.174 0.001,0.001C0.001,-4.175 -3.383,-7.558 -7.558,-7.558" style="fill:rgb(192,194,196);fill-rule:nonzero;"/>
            </g>
            <g transform="matrix(4.16667,0,0,4.16667,653.178,926.14)">
                <path d="M0,-14.904C-4.109,-14.904 -7.452,-11.561 -7.452,-7.452C-7.452,-3.343 -4.109,-0.001 0,-0.001C4.109,-0.001 7.452,-3.343 7.452,-7.452C7.452,-11.561 4.109,-14.904 0,-14.904M0,0.213C-4.227,0.213 -7.665,-3.225 -7.665,-7.452C-7.665,-11.678 -4.227,-15.117 0,-15.117C4.226,-15.117 7.665,-11.678 7.665,-7.452C7.665,-3.225 4.226,0.213 0,0.213" style="fill:rgb(35,31,32);fill-rule:nonzero;"/>
            </g>
            <g transform="matrix(0,-4.16667,-4.16667,0,653.18,874.403)">
                <path d="M-4.965,-4.964C-7.706,-4.964 -9.929,-2.741 -9.929,-0C-9.929,2.742 -7.706,4.965 -4.965,4.965C-2.223,4.965 0,2.742 0,-0C0,-2.741 -2.223,-4.964 -4.965,-4.964" style="fill:rgb(224,192,25);fill-rule:nonzero;"/>
            </g>
            <g transform="matrix(4.16667,0,0,4.16667,653.178,915.327)">
                <path d="M0,-9.714C-2.678,-9.714 -4.858,-7.535 -4.858,-4.857C-4.858,-2.178 -2.678,0.001 0,0.001C2.678,0.001 4.857,-2.178 4.857,-4.857C4.857,-7.535 2.678,-9.714 0,-9.714M0,0.214C-2.796,0.214 -5.071,-2.061 -5.071,-4.857C-5.071,-7.652 -2.796,-9.928 0,-9.928C2.795,-9.928 5.071,-7.652 5.071,-4.857C5.071,-2.061 2.795,0.214 0,0.214" style="fill:rgb(35,31,32);fill-rule:nonzero;"/>
            </g>
            <g transform="matrix(4.16667,0,0,4.16667,642.601,891.743)">
                <path d="M0,3.448L0,3.047C-0.283,3.034 -0.558,2.958 -0.718,2.864L-0.592,2.37C-0.414,2.468 -0.165,2.556 0.11,2.556C0.351,2.556 0.515,2.463 0.515,2.294C0.515,2.134 0.38,2.032 0.067,1.927C-0.385,1.774 -0.693,1.563 -0.693,1.153C-0.693,0.781 -0.431,0.49 0.021,0.401L0.021,0L0.435,0L0.435,0.371C0.718,0.384 0.908,0.443 1.048,0.51L0.925,0.988C0.815,0.942 0.621,0.844 0.317,0.844C0.042,0.844 -0.046,0.963 -0.046,1.081C-0.046,1.22 0.102,1.309 0.46,1.445C0.963,1.622 1.166,1.855 1.166,2.235C1.166,2.611 0.9,2.932 0.414,3.016L0.414,3.448L0,3.448Z" style="fill:rgb(255,211,68);fill-rule:nonzero;"/>
            </g>
            <g transform="matrix(4.16667,0,0,4.16667,642.957,892.068)">
                <path d="M0,3.291L0.26,3.291L0.26,2.868L0.326,2.857C0.747,2.787 1.008,2.52 1.008,2.157C1.008,1.804 0.826,1.602 0.359,1.437C-0.006,1.305 -0.205,1.197 -0.205,1.004C-0.205,0.849 -0.088,0.684 0.238,0.684C0.49,0.684 0.673,0.747 0.794,0.8L0.88,0.478C0.758,0.429 0.592,0.38 0.354,0.373L0.277,0.37L0.277,0.001L0.021,0.001L0.021,0.389L-0.043,0.401C-0.45,0.477 -0.693,0.729 -0.693,1.075C-0.693,1.398 -0.481,1.607 0.014,1.774C0.317,1.875 0.52,1.989 0.52,2.216C0.52,2.424 0.328,2.558 0.031,2.558C-0.239,2.558 -0.47,2.477 -0.619,2.407L-0.706,2.745C-0.566,2.81 -0.337,2.878 -0.075,2.89L0,2.894L0,3.291ZM0.418,3.448L-0.158,3.448L-0.158,3.043C-0.404,3.021 -0.664,2.95 -0.835,2.855L-0.889,2.826L-0.722,2.175L-0.633,2.224C-0.513,2.289 -0.267,2.399 0.031,2.399C0.191,2.399 0.362,2.352 0.362,2.216C0.362,2.12 0.294,2.034 -0.037,1.924C-0.416,1.796 -0.851,1.584 -0.851,1.075C-0.851,0.673 -0.579,0.364 -0.137,0.26L-0.137,-0.157L0.435,-0.157L0.435,0.219C0.701,0.236 0.879,0.304 1.006,0.361L1.066,0.389L0.898,1.022L0.812,0.981C0.707,0.931 0.52,0.842 0.238,0.842C0.057,0.842 -0.047,0.9 -0.047,1.004C-0.047,1.089 0.086,1.171 0.413,1.288C0.94,1.475 1.166,1.734 1.166,2.157C1.166,2.575 0.875,2.9 0.418,3L0.418,3.448Z" style="fill:rgb(35,31,32);fill-rule:nonzero;"/>
            </g>
            <g transform="matrix(4.16667,0,0,4.16667,654.668,901.326)">
                <path d="M0,-3.555L-0.019,-3.555L-1.179,-3.003L-1.413,-4.07L0.206,-4.818L1.375,-4.818L1.375,1.263L0,1.263L0,-3.555Z" style="fill:rgb(255,211,68);fill-rule:nonzero;stroke:rgb(35,31,32);stroke-width:0.2px;"/>
            </g>
            <g transform="matrix(0,-4.16667,-4.16667,0,731.157,863.599)">
                <path d="M-7.558,-7.558C-11.732,-7.558 -15.117,-4.174 -15.117,0.001C-15.117,4.174 -11.732,7.558 -7.558,7.558C-3.383,7.558 0.001,4.174 0.001,0.001C0.001,-4.174 -3.383,-7.558 -7.558,-7.558" style="fill:rgb(192,194,196);fill-rule:nonzero;"/>
            </g>
            <g transform="matrix(4.16667,0,0,4.16667,731.155,926.14)">
                <path d="M0,-14.904C-4.108,-14.904 -7.451,-11.561 -7.451,-7.452C-7.451,-3.343 -4.108,-0.001 0,-0.001C4.109,-0.001 7.452,-3.343 7.452,-7.452C7.452,-11.561 4.109,-14.904 0,-14.904M0,0.213C-4.226,0.213 -7.665,-3.225 -7.665,-7.452C-7.665,-11.678 -4.226,-15.117 0,-15.117C4.227,-15.117 7.665,-11.678 7.665,-7.452C7.665,-3.225 4.227,0.213 0,0.213" style="fill:rgb(35,31,32);fill-rule:nonzero;"/>
            </g>
            <g transform="matrix(0,-4.16667,-4.16667,0,731.158,874.403)">
                <path d="M-4.965,-4.964C-7.706,-4.964 -9.929,-2.741 -9.929,0.001C-9.929,2.742 -7.706,4.965 -4.965,4.965C-2.223,4.965 0,2.742 0,0.001C0,-2.741 -2.223,-4.964 -4.965,-4.964" style="fill:rgb(224,192,25);fill-rule:nonzero;"/>
            </g>
            <g transform="matrix(4.16667,0,0,4.16667,731.159,915.327)">
                <path d="M0,-9.714C-2.679,-9.714 -4.858,-7.535 -4.858,-4.857C-4.858,-2.178 -2.679,0.001 0,0.001C2.678,0.001 4.857,-2.178 4.857,-4.857C4.857,-7.535 2.678,-9.714 0,-9.714M0,0.214C-2.797,0.214 -5.071,-2.061 -5.071,-4.857C-5.071,-7.652 -2.797,-9.928 0,-9.928C2.796,-9.928 5.07,-7.652 5.07,-4.857C5.07,-2.061 2.796,0.214 0,0.214" style="fill:rgb(35,31,32);fill-rule:nonzero;"/>
            </g>
            <g transform="matrix(4.16667,0,0,4.16667,720.58,891.743)">
                <path d="M0,3.448L0,3.047C-0.283,3.034 -0.558,2.958 -0.718,2.864L-0.592,2.37C-0.414,2.468 -0.165,2.556 0.109,2.556C0.351,2.556 0.516,2.463 0.516,2.294C0.516,2.134 0.38,2.032 0.067,1.927C-0.385,1.774 -0.693,1.563 -0.693,1.153C-0.693,0.781 -0.431,0.49 0.021,0.401L0.021,0L0.436,0L0.436,0.371C0.719,0.384 0.908,0.443 1.048,0.51L0.926,0.988C0.815,0.942 0.621,0.844 0.317,0.844C0.042,0.844 -0.047,0.963 -0.047,1.081C-0.047,1.22 0.102,1.309 0.461,1.445C0.964,1.622 1.166,1.855 1.166,2.235C1.166,2.611 0.9,2.932 0.414,3.016L0.414,3.448L0,3.448Z" style="fill:rgb(255,211,68);fill-rule:nonzero;"/>
            </g>
            <g transform="matrix(4.16667,0,0,4.16667,720.938,892.068)">
                <path d="M0,3.291L0.26,3.291L0.26,2.868L0.326,2.857C0.747,2.787 1.008,2.52 1.008,2.157C1.008,1.804 0.826,1.602 0.359,1.437C-0.007,1.305 -0.205,1.197 -0.205,1.004C-0.205,0.849 -0.089,0.684 0.237,0.684C0.49,0.684 0.673,0.747 0.794,0.8L0.879,0.478C0.758,0.429 0.592,0.38 0.354,0.373L0.277,0.37L0.277,0.001L0.021,0.001L0.021,0.389L-0.044,0.401C-0.45,0.477 -0.693,0.729 -0.693,1.075C-0.693,1.398 -0.482,1.607 0.014,1.774C0.316,1.875 0.52,1.989 0.52,2.216C0.52,2.424 0.327,2.558 0.03,2.558C-0.239,2.558 -0.471,2.477 -0.619,2.407L-0.706,2.745C-0.566,2.81 -0.337,2.878 -0.076,2.89L0,2.894L0,3.291ZM0.418,3.448L-0.158,3.448L-0.158,3.043C-0.405,3.021 -0.664,2.95 -0.836,2.855L-0.89,2.826L-0.722,2.175L-0.633,2.224C-0.513,2.289 -0.268,2.399 0.03,2.399C0.19,2.399 0.361,2.352 0.361,2.216C0.361,2.12 0.294,2.034 -0.037,1.924C-0.416,1.796 -0.852,1.584 -0.852,1.075C-0.852,0.673 -0.579,0.364 -0.137,0.26L-0.137,-0.157L0.435,-0.157L0.435,0.219C0.701,0.236 0.879,0.304 1.006,0.361L1.066,0.389L0.897,1.022L0.812,0.981C0.706,0.931 0.52,0.842 0.237,0.842C0.057,0.842 -0.047,0.9 -0.047,1.004C-0.047,1.089 0.086,1.171 0.412,1.288C0.94,1.475 1.166,1.734 1.166,2.157C1.166,2.575 0.874,2.9 0.418,3L0.418,3.448Z" style="fill:rgb(35,31,32);fill-rule:nonzero;"/>
            </g>
            <g transform="matrix(4.16667,0,0,4.16667,732.648,901.326)">
                <path d="M0,-3.555L-0.02,-3.555L-1.179,-3.003L-1.413,-4.07L0.205,-4.818L1.375,-4.818L1.375,1.263L0,1.263L0,-3.555Z" style="fill:rgb(255,211,68);fill-rule:nonzero;stroke:rgb(35,31,32);stroke-width:0.2px;"/>
            </g>
            <g transform="matrix(0,-4.16667,-4.16667,0,809.136,863.599)">
                <path d="M-7.558,-7.558C-11.732,-7.558 -15.117,-4.174 -15.117,0.001C-15.117,4.174 -11.732,7.558 -7.558,7.558C-3.383,7.558 0.001,4.174 0.001,0.001C0.001,-4.174 -3.383,-7.558 -7.558,-7.558" style="fill:rgb(192,194,196);fill-rule:nonzero;"/>
            </g>
            <g transform="matrix(4.16667,0,0,4.16667,809.133,926.14)">
                <path d="M0,-14.904C-4.108,-14.904 -7.451,-11.561 -7.451,-7.452C-7.451,-3.343 -4.108,-0.001 0,-0.001C4.109,-0.001 7.452,-3.343 7.452,-7.452C7.452,-11.561 4.109,-14.904 0,-14.904M0,0.213C-4.226,0.213 -7.664,-3.225 -7.664,-7.452C-7.664,-11.678 -4.226,-15.117 0,-15.117C4.227,-15.117 7.665,-11.678 7.665,-7.452C7.665,-3.225 4.227,0.213 0,0.213" style="fill:rgb(35,31,32);fill-rule:nonzero;"/>
            </g>
            <g transform="matrix(0,-4.16667,-4.16667,0,809.137,874.403)">
                <path d="M-4.965,-4.964C-7.706,-4.964 -9.929,-2.741 -9.929,-0C-9.929,2.742 -7.706,4.965 -4.965,4.965C-2.223,4.965 0,2.742 0,-0C0,-2.741 -2.223,-4.964 -4.965,-4.964" style="fill:rgb(224,192,25);fill-rule:nonzero;"/>
            </g>
            <g transform="matrix(4.16667,0,0,4.16667,809.138,915.327)">
                <path d="M0,-9.714C-2.679,-9.714 -4.858,-7.535 -4.858,-4.857C-4.858,-2.178 -2.679,0.001 0,0.001C2.678,0.001 4.857,-2.178 4.857,-4.857C4.857,-7.535 2.678,-9.714 0,-9.714M0,0.214C-2.797,0.214 -5.071,-2.061 -5.071,-4.857C-5.071,-7.652 -2.797,-9.928 0,-9.928C2.796,-9.928 5.07,-7.652 5.07,-4.857C5.07,-2.061 2.796,0.214 0,0.214" style="fill:rgb(35,31,32);fill-rule:nonzero;"/>
            </g>
            <g transform="matrix(4.16667,0,0,4.16667,798.558,891.743)">
                <path d="M0,3.448L0,3.047C-0.283,3.034 -0.558,2.958 -0.718,2.864L-0.592,2.37C-0.414,2.468 -0.165,2.556 0.11,2.556C0.351,2.556 0.516,2.463 0.516,2.294C0.516,2.134 0.38,2.032 0.067,1.927C-0.385,1.774 -0.692,1.563 -0.692,1.153C-0.692,0.781 -0.431,0.49 0.021,0.401L0.021,0L0.436,0L0.436,0.371C0.719,0.384 0.908,0.443 1.048,0.51L0.926,0.988C0.815,0.942 0.621,0.844 0.317,0.844C0.042,0.844 -0.046,0.963 -0.046,1.081C-0.046,1.22 0.102,1.309 0.461,1.445C0.964,1.622 1.166,1.855 1.166,2.235C1.166,2.611 0.9,2.932 0.414,3.016L0.414,3.448L0,3.448Z" style="fill:rgb(255,211,68);fill-rule:nonzero;"/>
            </g>
            <g transform="matrix(4.16667,0,0,4.16667,798.916,892.068)">
                <path d="M0,3.291L0.26,3.291L0.26,2.868L0.326,2.857C0.747,2.787 1.008,2.52 1.008,2.157C1.008,1.804 0.826,1.602 0.359,1.437C-0.007,1.305 -0.205,1.197 -0.205,1.004C-0.205,0.849 -0.089,0.684 0.237,0.684C0.49,0.684 0.673,0.747 0.794,0.8L0.879,0.478C0.758,0.429 0.592,0.38 0.354,0.373L0.277,0.37L0.277,0.001L0.021,0.001L0.021,0.389L-0.044,0.401C-0.45,0.477 -0.693,0.729 -0.693,1.075C-0.693,1.398 -0.481,1.607 0.014,1.774C0.317,1.875 0.52,1.989 0.52,2.216C0.52,2.424 0.327,2.558 0.03,2.558C-0.239,2.558 -0.471,2.477 -0.619,2.407L-0.706,2.745C-0.566,2.81 -0.337,2.878 -0.075,2.89L0,2.894L0,3.291ZM0.418,3.448L-0.158,3.448L-0.158,3.043C-0.404,3.021 -0.664,2.95 -0.836,2.855L-0.89,2.826L-0.722,2.175L-0.633,2.224C-0.513,2.289 -0.267,2.399 0.03,2.399C0.19,2.399 0.361,2.352 0.361,2.216C0.361,2.12 0.294,2.034 -0.037,1.924C-0.416,1.796 -0.852,1.584 -0.852,1.075C-0.852,0.673 -0.579,0.364 -0.137,0.26L-0.137,-0.157L0.435,-0.157L0.435,0.219C0.701,0.236 0.879,0.304 1.006,0.361L1.066,0.389L0.897,1.022L0.812,0.981C0.707,0.931 0.52,0.842 0.237,0.842C0.057,0.842 -0.047,0.9 -0.047,1.004C-0.047,1.089 0.086,1.171 0.412,1.288C0.94,1.475 1.166,1.734 1.166,2.157C1.166,2.575 0.874,2.9 0.418,3L0.418,3.448Z" style="fill:rgb(35,31,32);fill-rule:nonzero;"/>
            </g>
            <g transform="matrix(4.16667,0,0,4.16667,810.627,901.326)">
                <path d="M0,-3.555L-0.019,-3.555L-1.179,-3.003L-1.413,-4.07L0.206,-4.818L1.375,-4.818L1.375,1.263L0,1.263L0,-3.555Z" style="fill:rgb(255,211,68);fill-rule:nonzero;stroke:rgb(35,31,32);stroke-width:0.2px;"/>
            </g>
            <g transform="matrix(0,-4.16667,-4.16667,0,887.114,863.599)">
                <path d="M-7.558,-7.558C-11.732,-7.558 -15.117,-4.174 -15.117,0.001C-15.117,4.174 -11.732,7.558 -7.558,7.558C-3.383,7.558 0.001,4.174 0.001,0.001C0.001,-4.174 -3.383,-7.558 -7.558,-7.558" style="fill:rgb(192,194,196);fill-rule:nonzero;"/>
            </g>
            <g transform="matrix(4.16667,0,0,4.16667,887.116,926.14)">
                <path d="M0,-14.904C-4.109,-14.904 -7.452,-11.561 -7.452,-7.452C-7.452,-3.343 -4.109,-0.001 0,-0.001C4.108,-0.001 7.451,-3.343 7.451,-7.452C7.451,-11.561 4.108,-14.904 0,-14.904M0,0.213C-4.227,0.213 -7.665,-3.225 -7.665,-7.452C-7.665,-11.678 -4.227,-15.117 0,-15.117C4.226,-15.117 7.665,-11.678 7.665,-7.452C7.665,-3.225 4.226,0.213 0,0.213" style="fill:rgb(35,31,32);fill-rule:nonzero;"/>
            </g>
            <g transform="matrix(0,-4.16667,-4.16667,0,887.115,874.403)">
                <path d="M-4.965,-4.964C-7.706,-4.964 -9.929,-2.741 -9.929,-0C-9.929,2.742 -7.706,4.965 -4.965,4.965C-2.223,4.965 0,2.742 0,-0C0,-2.741 -2.223,-4.964 -4.965,-4.964" style="fill:rgb(224,192,25);fill-rule:nonzero;"/>
            </g>
            <g transform="matrix(4.16667,0,0,4.16667,887.116,915.327)">
                <path d="M0,-9.714C-2.679,-9.714 -4.858,-7.535 -4.858,-4.857C-4.858,-2.178 -2.679,0.001 0,0.001C2.679,0.001 4.857,-2.178 4.857,-4.857C4.857,-7.535 2.679,-9.714 0,-9.714M0,0.214C-2.797,0.214 -5.071,-2.061 -5.071,-4.857C-5.071,-7.652 -2.797,-9.928 0,-9.928C2.796,-9.928 5.07,-7.652 5.07,-4.857C5.07,-2.061 2.796,0.214 0,0.214" style="fill:rgb(35,31,32);fill-rule:nonzero;"/>
            </g>
            <g transform="matrix(4.16667,0,0,4.16667,876.536,891.743)">
                <path d="M0,3.448L0,3.047C-0.283,3.034 -0.558,2.958 -0.718,2.864L-0.592,2.37C-0.414,2.468 -0.164,2.556 0.11,2.556C0.351,2.556 0.516,2.463 0.516,2.294C0.516,2.134 0.381,2.032 0.067,1.927C-0.385,1.774 -0.692,1.563 -0.692,1.153C-0.692,0.781 -0.431,0.49 0.021,0.401L0.021,0L0.436,0L0.436,0.371C0.719,0.384 0.909,0.443 1.048,0.51L0.926,0.988C0.815,0.942 0.621,0.844 0.317,0.844C0.043,0.844 -0.046,0.963 -0.046,1.081C-0.046,1.22 0.102,1.309 0.461,1.445C0.964,1.622 1.167,1.855 1.167,2.235C1.167,2.611 0.9,2.932 0.414,3.016L0.414,3.448L0,3.448Z" style="fill:rgb(255,211,68);fill-rule:nonzero;"/>
            </g>
            <g transform="matrix(4.16667,0,0,4.16667,876.895,892.068)">
                <path d="M0,3.291L0.26,3.291L0.26,2.868L0.326,2.857C0.747,2.787 1.008,2.52 1.008,2.157C1.008,1.804 0.826,1.602 0.359,1.437C-0.007,1.305 -0.205,1.197 -0.205,1.004C-0.205,0.849 -0.089,0.684 0.238,0.684C0.49,0.684 0.673,0.747 0.794,0.8L0.88,0.478C0.758,0.429 0.592,0.38 0.354,0.373L0.277,0.37L0.277,0.001L0.021,0.001L0.021,0.389L-0.044,0.401C-0.45,0.477 -0.693,0.729 -0.693,1.075C-0.693,1.398 -0.481,1.607 0.014,1.774C0.317,1.875 0.52,1.989 0.52,2.216C0.52,2.424 0.327,2.558 0.03,2.558C-0.239,2.558 -0.47,2.477 -0.619,2.407L-0.706,2.745C-0.565,2.81 -0.337,2.878 -0.075,2.89L0,2.894L0,3.291ZM0.418,3.448L-0.158,3.448L-0.158,3.043C-0.404,3.021 -0.664,2.95 -0.836,2.855L-0.89,2.826L-0.722,2.175L-0.633,2.224C-0.513,2.289 -0.267,2.399 0.03,2.399C0.19,2.399 0.361,2.352 0.361,2.216C0.361,2.12 0.294,2.034 -0.036,1.924C-0.416,1.796 -0.851,1.584 -0.851,1.075C-0.851,0.673 -0.579,0.364 -0.137,0.26L-0.137,-0.157L0.435,-0.157L0.435,0.219C0.701,0.236 0.879,0.304 1.006,0.361L1.066,0.389L0.898,1.022L0.812,0.981C0.707,0.931 0.52,0.842 0.238,0.842C0.057,0.842 -0.047,0.9 -0.047,1.004C-0.047,1.089 0.086,1.171 0.412,1.288C0.94,1.475 1.166,1.734 1.166,2.157C1.166,2.575 0.875,2.9 0.418,3L0.418,3.448Z" style="fill:rgb(35,31,32);fill-rule:nonzero;"/>
            </g>
            <g transform="matrix(4.16667,0,0,4.16667,888.605,901.326)">
                <path d="M0,-3.555L-0.019,-3.555L-1.179,-3.003L-1.413,-4.07L0.206,-4.818L1.375,-4.818L1.375,1.263L0,1.263L0,-3.555Z" style="fill:rgb(255,211,68);fill-rule:nonzero;stroke:rgb(35,31,32);stroke-width:0.2px;"/>
            </g>
        </g>
    </g>
</svg>
