<?xml version="1.0" encoding="UTF-8" standalone="no"?>
<!DOCTYPE svg PUBLIC "-//W3C//DTD SVG 1.1//EN" "http://www.w3.org/Graphics/SVG/1.1/DTD/svg11.dtd">
<svg width="100%" height="100%" viewBox="0 0 449 450" version="1.1" xmlns="http://www.w3.org/2000/svg" xmlns:xlink="http://www.w3.org/1999/xlink" xml:space="preserve" xmlns:serif="http://www.serif.com/" style="fill-rule:evenodd;clip-rule:evenodd;stroke-miterlimit:10;">
    <g transform="matrix(1,0,0,1,-169,-630)">
        <g transform="matrix(1,0,0,1,-44.6348,-830.081)">
            <g transform="matrix(0,202.348,202.348,0,437.641,1684.92)">
                <ellipse cx="0" cy="-0" rx="1" ry="1" style="fill:url(#_Radial1);"/>
            </g>
            <g transform="matrix(4.16667,0,0,4.16667,0,0)">
                <g opacity="0.2">
                    <g transform="matrix(1,0,0,1,134.637,402.25)">
                        <path d="M0,-17.103C-2.525,-15.695 -4.515,-13.351 -5.496,-10.631C-5.867,-9.604 -6.097,-8.522 -6.13,-7.43C-6.231,-4.079 -4.301,-0.745 -1.343,0.837C1.613,2.419 5.457,2.174 8.189,0.23C9.408,-0.637 10.392,-1.79 11.541,-2.749C12.546,-3.587 13.693,-4.292 14.465,-5.349C15.047,-6.148 15.381,-7.107 15.559,-8.08C16.008,-10.524 15.468,-13.157 14.004,-15.165C10.858,-19.48 4.337,-19.522 0,-17.103" style="fill:rgb(217,27,91);fill-rule:nonzero;"/>
                    </g>
                </g>
            </g>
            <g transform="matrix(4.16667,0,0,4.16667,550.753,1675.03)">
                <path d="M0,-17.104C-2.526,-15.695 -4.515,-13.352 -5.496,-10.632C-5.867,-9.605 -6.097,-8.522 -6.13,-7.431C-6.231,-4.079 -4.301,-0.746 -1.344,0.836C1.613,2.418 5.456,2.173 8.189,0.229C9.408,-0.638 10.392,-1.791 11.541,-2.75C12.546,-3.588 13.693,-4.294 14.465,-5.35C15.047,-6.148 15.381,-7.108 15.559,-8.081C16.007,-10.525 15.468,-13.158 14.004,-15.166C10.858,-19.48 4.337,-19.522 0,-17.104" style="fill:rgb(255,226,182);fill-rule:nonzero;"/>
            </g>
            <g transform="matrix(4.16667,0,0,4.16667,609.1,1684.57)">
                <path d="M0,-17.455C-0.034,-17.501 -0.073,-17.539 -0.108,-17.585C0.122,-17.08 0.263,-16.528 0.273,-15.928C0.293,-14.764 -0.149,-13.7 -1.043,-12.952C-1.896,-12.235 -2.953,-11.818 -3.9,-11.249C-4.384,-10.96 -4.86,-10.629 -5.233,-10.203C-5.638,-9.74 -5.934,-9.173 -6.217,-8.631C-6.82,-7.471 -7.314,-6.256 -7.964,-5.12C-8.596,-4.016 -9.402,-2.983 -10.502,-2.315C-11.599,-1.647 -12.884,-1.475 -14.137,-1.719C-15.395,-1.964 -16.601,-2.539 -17.68,-3.306C-17.007,-2.567 -16.23,-1.926 -15.347,-1.453C-12.39,0.13 -8.547,-0.116 -5.814,-2.06C-4.595,-2.926 -3.611,-4.079 -2.462,-5.037C-1.458,-5.876 -0.311,-6.581 0.461,-7.638C1.045,-8.437 1.378,-9.396 1.556,-10.369C2.004,-12.814 1.465,-15.447 0,-17.455" style="fill:rgb(255,210,145);fill-rule:nonzero;"/>
            </g>
            <g transform="matrix(4.16667,0,0,4.16667,527.158,1630.95)">
                <path d="M0,0.467C0.272,3.186 1.783,5.915 4.452,6.861C5.196,7.126 5.945,7.195 6.696,6.917C7.429,6.647 8.051,6.128 8.544,5.531C9.349,4.557 9.91,3.305 10.04,2.029C9.374,3.01 8.459,3.9 7.405,4.369C6.885,4.6 6.296,4.705 5.743,4.538C5.125,4.354 4.675,3.864 4.367,3.315C3.682,2.096 3.586,0.586 3.722,-0.778C3.874,-2.279 4.319,-3.756 5.013,-5.093C5.31,-5.665 5.665,-6.22 6.074,-6.728C5.938,-6.658 5.795,-6.598 5.662,-6.525C3.137,-5.116 1.147,-2.772 0.166,-0.052C0.105,0.119 0.053,0.294 0,0.467" style="fill:rgb(255,210,145);fill-rule:nonzero;"/>
            </g>
            <g transform="matrix(4.16667,0,0,4.16667,590.586,1617.14)">
                <path d="M0,3.428C-1.166,6.166 -4.33,7.44 -7.068,6.274C-9.806,5.108 -11.08,1.944 -9.914,-0.794C-9.121,-2.655 -7.772,-2.549 -5.893,-2.751C-5.01,-2.845 -3.721,-4.012 -2.846,-3.64C-0.108,-2.474 1.166,0.691 0,3.428" style="fill:rgb(237,28,36);fill-rule:nonzero;"/>
            </g>
            <g transform="matrix(4.16667,0,0,4.16667,579.127,1648.14)">
                <path d="M0,-11.027C0.603,-10.445 1.055,-9.718 1.249,-8.881C1.811,-6.453 0.392,-4.092 -1.681,-2.883C-2.846,-2.205 -4.302,-1.871 -5.561,-2.494C-6.011,-2.717 -6.402,-3.035 -6.804,-3.337C-6.24,-2.403 -5.399,-1.626 -4.318,-1.166C-1.58,0 1.584,-1.274 2.75,-4.012C3.901,-6.715 2.667,-9.827 0,-11.027" style="fill:rgb(186,40,46);fill-rule:nonzero;"/>
            </g>
            <g transform="matrix(4.16667,0,0,4.16667,552.558,1624.27)">
                <path d="M0,-1.725C-0.321,-1.482 -0.51,-1.046 -0.391,-0.662C-0.292,-0.34 -0.005,-0.112 0.286,0.062C0.623,0.262 0.996,0.419 1.387,0.448C1.779,0.475 2.192,0.36 2.467,0.081C2.992,-0.448 3.254,-1.505 2.411,-1.782C1.708,-2.014 0.627,-2.2 0,-1.725" style="fill:white;fill-rule:nonzero;"/>
            </g>
            <g transform="matrix(4.16667,0,0,4.16667,569.677,1613.57)">
                <path d="M0,-1.256C-0.281,-1.261 -0.562,-1.205 -0.82,-1.092C-1.107,-0.964 -1.394,-0.692 -1.322,-0.386C-1.252,-0.077 -0.871,0.041 -0.554,0.041C-0.121,0.04 0.34,-0.098 0.601,-0.444C0.693,-0.566 0.757,-0.722 0.72,-0.87C0.659,-1.118 0.367,-1.216 0.119,-1.274C0.06,-1.287 -0.013,-1.297 -0.051,-1.251" style="fill:rgb(186,40,46);fill-rule:nonzero;"/>
            </g>
            <g transform="matrix(4.16667,0,0,4.16667,567.421,1555.28)">
                <path d="M0,13.368C0,13.368 -3.525,6.326 0,0L0.999,0.361C0.999,0.361 -2.53,3.737 0,13.368" style="fill:rgb(186,40,46);fill-rule:nonzero;"/>
            </g>
            <g transform="matrix(4.16667,0,0,4.16667,532.62,1665.14)">
                <path d="M0,-0.313C0.52,0.694 1.371,1.554 2.432,1.952C3.571,2.379 4.909,2.23 5.928,1.564C6.945,0.896 7.615,-0.272 7.678,-1.487C7.386,-0.583 6.752,0.207 5.932,0.69C5.418,0.991 4.824,1.175 4.229,1.154C3.841,1.14 3.461,1.04 3.097,0.906C1.244,0.222 0.509,-1.177 -0.477,-2.692C-0.84,-2 -0.328,-0.947 0,-0.313" style="fill:white;fill-rule:nonzero;"/>
            </g>
            <g transform="matrix(4.16667,0,0,4.16667,478.693,1566.04)">
                <path d="M0,-0.294C0.57,0.209 1.119,0.735 1.645,1.284C1.983,1.636 2.582,1.624 2.921,1.284C3.273,0.932 3.259,0.361 2.921,0.008C2.395,-0.542 1.847,-1.067 1.276,-1.57C0.911,-1.892 0.36,-1.93 0,-1.57C-0.329,-1.241 -0.367,-0.618 0,-0.294" style="fill:rgb(4,175,231);fill-rule:nonzero;"/>
            </g>
            <g transform="matrix(4.16667,0,0,4.16667,565.355,1725.41)">
                <path d="M0,3.47C0.363,2.617 0.726,1.765 1.088,0.91C1.278,0.463 1.222,-0.056 0.764,-0.324C0.385,-0.545 -0.279,-0.451 -0.47,0C-0.833,0.853 -1.196,1.707 -1.558,2.56C-1.749,3.007 -1.692,3.526 -1.234,3.794C-0.856,4.015 -0.191,3.921 0,3.47" style="fill:rgb(4,175,231);fill-rule:nonzero;"/>
            </g>
            <g transform="matrix(0,4.16667,4.16667,0,504.725,1662.1)">
                <path d="M-0.207,-2.011L2.011,-2.011C3.172,-2.011 3.174,-0.206 2.011,-0.206L-0.207,-0.206C-1.368,-0.206 -1.37,-2.011 -0.207,-2.011" style="fill:rgb(4,175,231);fill-rule:nonzero;"/>
            </g>
            <g transform="matrix(4.16667,0,0,4.16667,430.675,1720.64)">
                <path d="M0,1.502C0.911,1.867 1.855,1.922 2.819,1.788C3.301,1.722 3.566,1.104 3.449,0.679C3.305,0.158 2.823,-0.019 2.339,0.048C1.701,0.137 1.069,-0.002 0.48,-0.238C0.027,-0.42 -0.511,-0.04 -0.631,0.392C-0.772,0.906 -0.454,1.32 0,1.502" style="fill:rgb(4,175,231);fill-rule:nonzero;"/>
            </g>
            <g transform="matrix(4.16667,0,0,4.16667,542.298,1552.11)">
                <path d="M0,-2.068C0.117,-1.219 0.234,-0.37 0.351,0.48C0.417,0.963 1.036,1.227 1.461,1.11C1.981,0.967 2.157,0.484 2.09,0C1.974,-0.849 1.857,-1.698 1.74,-2.548C1.673,-3.03 1.056,-3.295 0.63,-3.178C0.109,-3.034 -0.067,-2.552 0,-2.068" style="fill:rgb(4,175,231);fill-rule:nonzero;"/>
            </g>
            <g transform="matrix(4.16667,0,0,4.16667,432.19,1625.93)">
                <path d="M0,3.25C0.737,2.695 1.405,2.083 1.984,1.363C2.289,0.983 2.355,0.458 1.984,0.087C1.668,-0.229 1.015,-0.295 0.708,0.087C0.233,0.678 -0.304,1.234 -0.911,1.692C-1.299,1.985 -1.501,2.471 -1.234,2.926C-1.011,3.309 -0.392,3.545 0,3.25" style="fill:rgb(255,217,64);fill-rule:nonzero;"/>
            </g>
            <g transform="matrix(4.16667,0,0,4.16667,435.974,1787.36)">
                <path d="M0,1.998C0.042,1.429 0.188,0.88 0.396,0.348C0.572,-0.106 0.202,-0.642 -0.235,-0.761C-0.745,-0.902 -1.167,-0.587 -1.344,-0.131C-1.611,0.555 -1.75,1.265 -1.805,1.998C-1.841,2.484 -1.364,2.9 -0.902,2.9C-0.384,2.9 -0.036,2.485 0,1.998" style="fill:rgb(255,217,64);fill-rule:nonzero;"/>
            </g>
            <g transform="matrix(4.16667,0,0,4.16667,409.089,1863.94)">
                <path d="M0,0.63C0.96,1 1.922,1.37 2.882,1.74C3.337,1.915 3.872,1.547 3.992,1.11C4.132,0.601 3.819,0.176 3.363,-0C2.401,-0.37 1.441,-0.739 0.48,-1.109C0.024,-1.285 -0.51,-0.917 -0.631,-0.479C-0.771,0.029 -0.457,0.455 0,0.63" style="fill:rgb(255,217,64);fill-rule:nonzero;"/>
            </g>
            <g transform="matrix(4.16667,0,0,4.16667,564.927,1777.39)">
                <path d="M0,2.981C0.656,2.478 1.206,1.899 1.627,1.182C1.874,0.762 1.723,0.194 1.303,-0.052C0.88,-0.298 0.316,-0.149 0.068,0.272C-0.084,0.533 -0.216,0.721 -0.367,0.893C-0.454,0.992 -0.546,1.086 -0.642,1.178C-0.701,1.237 -0.762,1.291 -0.824,1.345C-0.837,1.357 -0.982,1.478 -0.911,1.422C-1.297,1.718 -1.503,2.199 -1.234,2.657C-1.013,3.037 -0.389,3.279 0,2.981" style="fill:rgb(255,217,64);fill-rule:nonzero;"/>
            </g>
            <g transform="matrix(-2.82725,3.06068,3.06068,2.82725,619.312,1678.94)">
                <path d="M1.233,-2.816C1.743,-2.015 2.255,-1.214 2.765,-0.412C3.389,0.566 1.858,1.522 1.233,0.539C0.72,-0.262 0.21,-1.063 -0.3,-1.865C-0.925,-2.842 0.607,-3.799 1.233,-2.816" style="fill:rgb(255,217,64);fill-rule:nonzero;"/>
            </g>
            <g transform="matrix(4.16667,0,0,4.16667,438.656,1508.5)">
                <path d="M0,-0.272C0.409,0.244 0.817,0.76 1.225,1.276C1.528,1.658 2.185,1.593 2.501,1.276C2.879,0.898 2.805,0.384 2.501,0C2.093,-0.517 1.684,-1.032 1.276,-1.548C0.973,-1.93 0.317,-1.864 0,-1.548C-0.377,-1.17 -0.303,-0.655 0,-0.272" style="fill:rgb(255,217,64);fill-rule:nonzero;"/>
            </g>
            <g transform="matrix(4.16667,0,0,4.16667,417.25,1678.84)">
                <path d="M0,2.722C0.516,2.241 1.033,1.759 1.548,1.276C1.905,0.943 1.885,0.337 1.548,0C1.193,-0.355 0.63,-0.334 0.272,0C-0.244,0.482 -0.76,0.965 -1.275,1.447C-1.632,1.78 -1.612,2.386 -1.275,2.722C-0.92,3.077 -0.357,3.056 0,2.722" style="fill:rgb(237,28,36);fill-rule:nonzero;"/>
            </g>
            <g transform="matrix(-1.21662,3.98509,3.98509,1.21662,507.304,1600.76)">
                <path d="M1.701,-2.297C2.231,-1.395 2.762,-0.492 3.294,0.409C3.884,1.412 2.288,2.258 1.701,1.258L0.109,-1.449C-0.482,-2.452 1.112,-3.296 1.701,-2.297" style="fill:rgb(237,28,36);fill-rule:nonzero;"/>
            </g>
            <g transform="matrix(4.16667,0,0,4.16667,435.397,1579.56)">
                <path d="M0,2.854L1.637,1.275C1.988,0.937 1.978,0.34 1.637,0C1.287,-0.351 0.714,-0.34 0.362,0C-0.184,0.526 -0.731,1.052 -1.276,1.579C-1.627,1.917 -1.616,2.514 -1.276,2.854C-0.925,3.205 -0.352,3.193 0,2.854" style="fill:rgb(237,28,36);fill-rule:nonzero;"/>
            </g>
            <g transform="matrix(4.16667,0,0,4.16667,503.208,1517.37)">
                <path d="M0,-0.259C0.512,0.283 0.911,0.892 1.23,1.567C1.438,2.007 2.07,2.121 2.464,1.89C2.915,1.626 2.997,1.098 2.788,0.655C2.406,-0.153 1.89,-0.886 1.276,-1.535C0.477,-2.38 -0.798,-1.103 0,-0.259" style="fill:rgb(237,28,36);fill-rule:nonzero;"/>
            </g>
            <g transform="matrix(4.16667,0,0,4.16667,598.092,1738.45)">
                <path d="M0,2.884C0.546,2.383 1.003,1.776 1.326,1.108C1.539,0.67 1.446,0.134 1.003,-0.126C0.607,-0.357 -0.018,-0.242 -0.232,0.197C-0.511,0.775 -0.806,1.177 -1.276,1.608C-1.635,1.938 -1.61,2.55 -1.276,2.884C-0.918,3.241 -0.36,3.214 0,2.884" style="fill:rgb(237,28,36);fill-rule:nonzero;"/>
            </g>
            <g transform="matrix(4.16667,0,0,4.16667,497.864,1706.7)">
                <path d="M0,-0.617C0.544,0.061 1.219,0.625 1.969,1.066C2.973,1.655 3.882,0.096 2.879,-0.493C2.254,-0.86 1.731,-1.328 1.276,-1.892C0.97,-2.272 0.319,-2.212 0,-1.892C-0.376,-1.517 -0.307,-0.998 0,-0.617" style="fill:white;fill-rule:nonzero;"/>
            </g>
            <g transform="matrix(4.16667,0,0,4.16667,560.658,1815.47)">
                <path d="M0,2.14C0.107,1.926 0.228,1.721 0.365,1.525C0.374,1.512 0.472,1.379 0.419,1.448C0.367,1.516 0.471,1.387 0.48,1.375C0.562,1.279 0.649,1.187 0.737,1.096C1.068,0.758 1.099,0.152 0.737,-0.179C0.38,-0.509 -0.185,-0.54 -0.539,-0.179C-0.945,0.235 -1.296,0.71 -1.558,1.23C-1.77,1.651 -1.683,2.226 -1.234,2.463C-0.824,2.68 -0.227,2.589 0,2.14" style="fill:white;fill-rule:nonzero;"/>
            </g>
            <g transform="matrix(4.0619,-0.928474,-0.928474,-4.0619,429.881,1836.84)">
                <path d="M-0.343,-0.039C0.254,0.621 0.785,1.339 1.247,2.1C1.851,3.095 0.258,3.945 -0.343,2.955C-0.726,2.324 -1.163,1.745 -1.659,1.196C-2.44,0.335 -1.123,-0.902 -0.343,-0.039" style="fill:white;fill-rule:nonzero;"/>
            </g>
            <g transform="matrix(4.16667,0,0,4.16667,524.298,1572.49)">
                <path d="M0,2.511L1.963,1.558C2.402,1.345 2.519,0.72 2.287,0.323C2.026,-0.124 1.493,-0.214 1.053,0C0.398,0.317 -0.257,0.635 -0.911,0.953C-1.349,1.166 -1.467,1.79 -1.234,2.187C-0.972,2.635 -0.44,2.725 0,2.511" style="fill:white;fill-rule:nonzero;"/>
            </g>
            <g transform="matrix(4.16667,0,0,4.16667,457.138,1528.12)">
                <path d="M0,1.805L2.882,1.805C4.044,1.805 4.046,0 2.882,0L0,0C-1.161,0 -1.163,1.805 0,1.805" style="fill:white;fill-rule:nonzero;"/>
            </g>
            <g transform="matrix(0.372509,4.14998,4.14998,-0.372509,453.225,1660.12)">
                <path d="M1.86,-1.657C2.535,-0.744 3.098,0.246 3.551,1.29C4.014,2.356 2.321,2.984 1.86,1.922C1.466,1.018 0.976,0.182 0.388,-0.61C-0.303,-1.546 1.168,-2.591 1.86,-1.657" style="fill:white;fill-rule:nonzero;"/>
            </g>
            <g transform="matrix(4.16667,0,0,4.16667,583.088,1703.4)">
                <path d="M0,0.017L1.176,1.277C1.5,1.623 2.13,1.627 2.452,1.277C2.792,0.907 2.797,0.371 2.452,0.001L1.276,-1.258C0.953,-1.605 0.322,-1.61 0,-1.258C-0.34,-0.888 -0.345,-0.352 0,0.017" style="fill:white;fill-rule:nonzero;"/>
            </g>
            <g transform="matrix(4.16667,0,0,4.16667,465.42,1623.74)">
                <path d="M0,-1.62C0.27,-0.558 0.773,0.378 1.461,1.225C1.767,1.604 2.417,1.545 2.736,1.225C3.111,0.85 3.045,0.329 2.736,-0.051C2.249,-0.653 1.93,-1.352 1.74,-2.1C1.454,-3.224 -0.287,-2.748 0,-1.62" style="fill:rgb(189,61,150);fill-rule:nonzero;"/>
            </g>
            <g transform="matrix(4.16667,0,0,4.16667,481.76,1723.45)">
                <path d="M0,2.619C0.397,2.023 0.894,1.514 1.456,1.071C1.838,0.768 1.771,0.112 1.456,-0.204C1.078,-0.582 0.563,-0.508 0.179,-0.204C-0.503,0.335 -1.076,0.985 -1.558,1.709C-1.829,2.114 -1.637,2.707 -1.234,2.943C-0.792,3.201 -0.272,3.025 0,2.619" style="fill:rgb(189,61,150);fill-rule:nonzero;"/>
            </g>
            <g transform="matrix(-1.05923,4.02978,4.02978,1.05923,414.983,1746.43)">
                <path d="M1.799,-2.335C2.318,-1.398 2.839,-0.46 3.358,0.477C3.922,1.493 2.363,2.404 1.799,1.386C1.28,0.45 0.76,-0.488 0.241,-1.425C-0.323,-2.441 1.234,-3.353 1.799,-2.335" style="fill:rgb(189,61,150);fill-rule:nonzero;"/>
            </g>
            <g transform="matrix(4.16667,0,0,4.16667,488.661,1535.32)">
                <path d="M0,2.75C0.764,2.307 1.496,1.815 2.196,1.274C2.581,0.977 2.788,0.498 2.519,0.039C2.298,-0.34 1.672,-0.584 1.284,-0.284C0.584,0.257 -0.146,0.748 -0.911,1.192C-1.915,1.775 -1.008,3.334 0,2.75" style="fill:rgb(189,61,150);fill-rule:nonzero;"/>
            </g>
            <g transform="matrix(4.16667,0,0,4.16667,600.452,1776.31)">
                <path d="M0,2.786C0.302,2.16 0.604,1.535 0.905,0.91C1.117,0.471 1.026,-0.065 0.581,-0.325C0.186,-0.555 -0.44,-0.442 -0.653,-0.001C-0.954,0.625 -1.256,1.25 -1.558,1.876C-1.769,2.314 -1.678,2.85 -1.234,3.11C-0.839,3.341 -0.213,3.226 0,2.786" style="fill:rgb(189,61,150);fill-rule:nonzero;"/>
            </g>
            <g transform="matrix(4.16667,0,0,4.16667,614.758,1715.14)">
                <path d="M0,-1.388C0.365,-0.518 0.86,0.255 1.562,0.894C1.922,1.223 2.482,1.251 2.838,0.894C3.171,0.561 3.199,-0.052 2.838,-0.381C2.381,-0.797 1.981,-1.293 1.739,-1.868C1.551,-2.316 1.143,-2.639 0.63,-2.498C0.207,-2.381 -0.189,-1.84 0,-1.388" style="fill:rgb(189,61,150);fill-rule:nonzero;"/>
            </g>
            <g transform="matrix(4.16667,0,0,4.16667,468.317,1500.39)">
                <path d="M0,-1.407C0.145,-0.778 0.291,-0.15 0.435,0.48C0.544,0.954 1.09,1.235 1.546,1.11C2.032,0.976 2.285,0.476 2.176,-0C2.03,-0.629 1.885,-1.258 1.74,-1.887C1.63,-2.361 1.086,-2.642 0.63,-2.517C0.143,-2.383 -0.11,-1.883 0,-1.407" style="fill:rgb(189,61,150);fill-rule:nonzero;"/>
            </g>
            <g transform="matrix(4.16667,0,0,4.16667,585.124,1575.01)">
                <path d="M0,2.493C0.675,2.181 1.349,1.869 2.025,1.557C2.467,1.353 2.578,0.714 2.348,0.322C2.083,-0.132 1.558,-0.206 1.114,-0.001C0.439,0.31 -0.236,0.623 -0.91,0.935C-1.353,1.139 -1.464,1.777 -1.234,2.169C-0.968,2.623 -0.444,2.699 0,2.493" style="fill:rgb(189,61,150);fill-rule:nonzero;"/>
            </g>
            <g transform="matrix(4.16667,0,0,4.16667,437.797,1686.63)">
                <path d="M0,-0.666L34.803,-34.238C25.96,-43.504 13.969,-48.896 0.149,-48.896C-26.672,-48.896 -48.414,-27.154 -48.414,-0.333C-48.414,26.488 -26.672,48.23 0.149,48.23C13.449,48.23 25.495,42.881 34.265,34.221L0,-0.666Z" style="fill:white;fill-rule:nonzero;stroke:white;stroke-width:1px;"/>
            </g>
            <g transform="matrix(0,4.16667,4.16667,0,644.635,1685.44)">
                <path d="M-48.868,-48.868L48.868,-48.868" style="fill:none;fill-rule:nonzero;stroke:rgb(219,86,129);stroke-width:1px;"/>
            </g>
            <g transform="matrix(4.16667,0,0,4.16667,236.797,1683.35)">
                <path d="M0,0L97.131,0" style="fill:none;fill-rule:nonzero;stroke:rgb(219,86,129);stroke-width:1px;"/>
            </g>
            <g transform="matrix(-2.96668,2.92574,2.92574,2.96668,435.359,1889.71)">
                <path d="M-83.462,-34.232L14.04,-34.232" style="fill:none;fill-rule:nonzero;stroke:rgb(219,86,129);stroke-width:1px;"/>
            </g>
            <g transform="matrix(2.93761,2.95493,2.95493,-2.93761,439.437,1481.44)">
                <path d="M-14.335,-34.464L82.859,-34.464" style="fill:none;fill-rule:nonzero;stroke:rgb(219,86,129);stroke-width:1px;"/>
            </g>
            <g transform="matrix(0,-4.16667,-4.16667,0,437.198,1483.47)">
                <ellipse cx="-48.563" cy="0" rx="48.563" ry="48.564" style="fill:none;stroke:rgb(35,31,32);stroke-width:1px;"/>
            </g>
        </g>
    </g>
    <defs>
        <radialGradient id="_Radial1" cx="0" cy="0" r="1" gradientUnits="userSpaceOnUse" gradientTransform="matrix(0,1,1,0,1.71569e-05,-1.71569e-05)"><stop offset="0" style="stop-color:rgb(251,209,208);stop-opacity:1"/><stop offset="1" style="stop-color:rgb(243,129,141);stop-opacity:1"/><stop offset="1" style="stop-color:rgb(243,129,141);stop-opacity:1"/></radialGradient>
    </defs>
</svg>
