<?xml version="1.0" encoding="UTF-8" standalone="no"?>
<!DOCTYPE svg PUBLIC "-//W3C//DTD SVG 1.1//EN" "http://www.w3.org/Graphics/SVG/1.1/DTD/svg11.dtd">
<svg width="100%" height="100%" viewBox="0 0 450 448" version="1.1" xmlns="http://www.w3.org/2000/svg" xmlns:xlink="http://www.w3.org/1999/xlink" xml:space="preserve" xmlns:serif="http://www.serif.com/" style="fill-rule:evenodd;clip-rule:evenodd;stroke-miterlimit:10;">
    <g transform="matrix(1,0,0,1,-647,-629)">
        <g transform="matrix(1,0,0,1,-92.1379,-821.726)">
            <g transform="matrix(0,202.348,202.348,0,961.446,1675.12)">
                <circle cx="-0" cy="0" r="1" style="fill:url(#_Radial1);"/>
            </g>
            <g transform="matrix(4.16667,0,0,4.16667,0,0)">
                <g opacity="0.2">
                    <g transform="matrix(1,0,0,1,199.418,426.694)">
                        <path d="M0,-18.966C-2.824,-18.346 -5.406,-16.677 -7.129,-14.354C-7.78,-13.477 -8.313,-12.51 -8.659,-11.473C-9.723,-8.293 -8.836,-4.544 -6.461,-2.177C-4.086,0.191 -0.336,1.065 2.841,-0.008C4.259,-0.486 5.534,-1.306 6.911,-1.893C8.115,-2.405 9.416,-2.75 10.46,-3.539C11.249,-4.136 11.844,-4.957 12.295,-5.838C13.43,-8.05 13.673,-10.726 12.85,-13.072C11.081,-18.11 4.85,-20.031 0,-18.966" style="fill:rgb(217,27,91);fill-rule:nonzero;"/>
                    </g>
                </g>
            </g>
            <g transform="matrix(4.16667,0,0,4.16667,825.396,1771.35)">
                <path d="M0,-18.966C-2.824,-18.346 -5.406,-16.677 -7.129,-14.354C-7.781,-13.477 -8.313,-12.51 -8.66,-11.473C-9.723,-8.293 -8.836,-4.544 -6.461,-2.177C-4.086,0.191 -0.336,1.065 2.841,-0.008C4.259,-0.486 5.534,-1.306 6.911,-1.893C8.114,-2.405 9.416,-2.75 10.46,-3.539C11.248,-4.136 11.844,-4.957 12.295,-5.838C13.429,-8.05 13.673,-10.726 12.849,-13.072C11.081,-18.11 4.85,-20.031 0,-18.966" style="fill:rgb(255,226,182);fill-rule:nonzero;"/>
            </g>
            <g transform="matrix(4.16667,0,0,4.16667,878.933,1775.15)">
                <path d="M0,-13.983C-0.019,-14.037 -0.045,-14.085 -0.065,-14.138C0.009,-13.589 -0.016,-13.019 -0.179,-12.442C-0.496,-11.322 -1.226,-10.431 -2.297,-9.971C-3.32,-9.532 -4.452,-9.437 -5.524,-9.166C-6.07,-9.027 -6.622,-8.849 -7.103,-8.547C-7.623,-8.222 -8.071,-7.764 -8.498,-7.326C-9.41,-6.391 -10.234,-5.369 -11.183,-4.469C-12.107,-3.594 -13.176,-2.839 -14.423,-2.516C-15.666,-2.193 -16.945,-2.398 -18.075,-2.993C-19.21,-3.591 -20.197,-4.489 -21.01,-5.535C-20.578,-4.634 -20.02,-3.795 -19.311,-3.088C-16.936,-0.72 -13.184,0.155 -10.007,-0.919C-8.591,-1.397 -7.316,-2.217 -5.939,-2.804C-4.735,-3.316 -3.434,-3.661 -2.39,-4.45C-1.601,-5.047 -1.005,-5.868 -0.553,-6.749C0.58,-8.961 0.823,-11.637 0,-13.983" style="fill:rgb(255,210,145);fill-rule:nonzero;"/>
            </g>
            <g transform="matrix(4.16667,0,0,4.16667,794.401,1726)">
                <path d="M0,-3.02C-0.523,-0.338 0.135,2.711 2.419,4.388C3.055,4.854 3.752,5.137 4.551,5.088C5.331,5.039 6.076,4.723 6.72,4.294C7.771,3.593 8.67,2.556 9.163,1.371C8.242,2.118 7.109,2.707 5.964,2.851C5.401,2.923 4.806,2.853 4.324,2.535C3.786,2.18 3.497,1.581 3.361,0.967C3.057,-0.398 3.4,-1.872 3.924,-3.138C4.5,-4.532 5.353,-5.818 6.404,-6.898C6.853,-7.36 7.354,-7.789 7.892,-8.157C7.742,-8.131 7.586,-8.114 7.439,-8.081C4.615,-7.461 2.033,-5.792 0.31,-3.469C0.202,-3.324 0.101,-3.17 0,-3.02" style="fill:rgb(255,210,145);fill-rule:nonzero;"/>
            </g>
            <g transform="matrix(4.16667,0,0,4.16667,855.557,1705.87)">
                <path d="M0,5.863C-1.906,8.148 -5.303,8.456 -7.588,6.55C-9.873,4.643 -10.181,1.246 -8.274,-1.04C-6.978,-2.593 -5.718,-2.102 -3.861,-1.753C-2.987,-1.589 -1.418,-2.336 -0.687,-1.725C1.599,0.181 1.906,3.578 0,5.863" style="fill:rgb(237,28,36);fill-rule:nonzero;"/>
            </g>
            <g transform="matrix(4.16667,0,0,4.16667,853.017,1741.1)">
                <path d="M0,-10.103C0.409,-9.372 0.633,-8.544 0.576,-7.688C0.414,-5.201 -1.625,-3.351 -3.959,-2.791C-5.27,-2.478 -6.76,-2.577 -7.786,-3.537C-8.153,-3.881 -8.436,-4.298 -8.732,-4.702C-8.461,-3.647 -7.881,-2.659 -6.979,-1.906C-4.694,0 -1.296,-0.307 0.61,-2.593C2.491,-4.85 2.208,-8.184 0,-10.103" style="fill:rgb(186,40,46);fill-rule:nonzero;"/>
            </g>
            <g transform="matrix(4.16667,0,0,4.16667,823.283,1715.41)">
                <path d="M0,-2.357C-0.377,-2.217 -0.685,-1.854 -0.681,-1.452C-0.678,-1.114 -0.47,-0.813 -0.242,-0.563C0.023,-0.274 0.334,-0.016 0.702,0.124C1.068,0.263 1.498,0.273 1.842,0.085C2.496,-0.271 3.053,-1.207 2.326,-1.715C1.719,-2.139 0.738,-2.63 0,-2.357" style="fill:white;fill-rule:nonzero;"/>
            </g>
            <g transform="matrix(4.16667,0,0,4.16667,842.199,1706.72)">
                <path d="M0,-1.095C-0.268,-1.181 -0.554,-1.207 -0.833,-1.173C-1.145,-1.135 -1.497,-0.956 -1.518,-0.644C-1.54,-0.326 -1.209,-0.103 -0.905,-0.013C-0.49,0.111 -0.009,0.112 0.34,-0.145C0.463,-0.235 0.57,-0.365 0.577,-0.518C0.59,-0.772 0.339,-0.951 0.118,-1.077C0.066,-1.108 0,-1.138 -0.051,-1.105" style="fill:rgb(186,40,46);fill-rule:nonzero;"/>
            </g>
            <g transform="matrix(4.16667,0,0,4.16667,839.274,1650.71)">
                <path d="M0,12.8C0,12.8 -1.343,5.04 3.857,0L4.708,0.633C4.708,0.633 0.355,2.848 0,12.8" style="fill:rgb(186,40,46);fill-rule:nonzero;"/>
            </g>
            <g transform="matrix(4.16667,0,0,4.16667,790.707,1750.6)">
                <path d="M0,-1.436C0.208,-0.323 0.774,0.747 1.675,1.433C2.643,2.171 3.968,2.415 5.134,2.07C6.301,1.724 7.279,0.799 7.691,-0.346C7.149,0.436 6.315,1.009 5.391,1.234C4.811,1.375 4.191,1.38 3.625,1.188C3.258,1.062 2.922,0.858 2.613,0.624C1.037,-0.566 0.737,-2.118 0.229,-3.851C-0.318,-3.295 -0.13,-2.138 0,-1.436" style="fill:white;fill-rule:nonzero;"/>
            </g>
            <g transform="matrix(4.16667,0,0,4.16667,0,0)">
                <g opacity="0.2">
                    <g transform="matrix(1,0,0,1,219.131,379.091)">
                        <path d="M0,-18.967C-2.824,-18.347 -5.406,-16.677 -7.129,-14.355C-7.781,-13.478 -8.313,-12.51 -8.66,-11.474C-9.723,-8.293 -8.836,-4.545 -6.461,-2.177C-4.086,0.19 -0.336,1.065 2.841,-0.008C4.259,-0.487 5.534,-1.307 6.911,-1.894C8.114,-2.406 9.416,-2.751 10.46,-3.54C11.248,-4.137 11.844,-4.958 12.295,-5.839C13.429,-8.051 13.673,-10.727 12.849,-13.073C11.081,-18.111 4.85,-20.032 0,-18.967" style="fill:rgb(217,27,91);fill-rule:nonzero;"/>
                    </g>
                </g>
            </g>
            <g transform="matrix(4.16667,0,0,4.16667,900.74,1581.14)">
                <path d="M0,-18.967C-2.824,-18.346 -5.406,-16.677 -7.129,-14.355C-7.78,-13.478 -8.313,-12.51 -8.659,-11.473C-9.723,-8.293 -8.836,-4.545 -6.461,-2.177C-4.086,0.19 -0.336,1.065 2.841,-0.008C4.259,-0.487 5.534,-1.307 6.911,-1.893C8.114,-2.406 9.416,-2.751 10.46,-3.54C11.249,-4.137 11.844,-4.958 12.295,-5.839C13.43,-8.051 13.673,-10.727 12.85,-13.072C11.081,-18.111 4.85,-20.032 0,-18.967" style="fill:rgb(255,226,182);fill-rule:nonzero;"/>
            </g>
            <g transform="matrix(4.16667,0,0,4.16667,954.279,1584.93)">
                <path d="M0,-13.981C-0.019,-14.035 -0.046,-14.084 -0.065,-14.137C0.009,-13.587 -0.016,-13.018 -0.179,-12.441C-0.496,-11.32 -1.226,-10.43 -2.297,-9.97C-3.32,-9.531 -4.452,-9.435 -5.524,-9.165C-6.071,-9.026 -6.622,-8.847 -7.103,-8.546C-7.623,-8.22 -8.072,-7.762 -8.498,-7.325C-9.41,-6.389 -10.234,-5.368 -11.183,-4.467C-12.107,-3.593 -13.176,-2.837 -14.423,-2.514C-15.667,-2.192 -16.945,-2.397 -18.075,-2.992C-19.21,-3.59 -20.197,-4.488 -21.01,-5.534C-20.578,-4.632 -20.02,-3.793 -19.311,-3.086C-16.936,-0.718 -13.185,0.156 -10.007,-0.917C-8.591,-1.396 -7.316,-2.216 -5.939,-2.802C-4.736,-3.315 -3.434,-3.66 -2.39,-4.449C-1.602,-5.045 -1.006,-5.867 -0.554,-6.748C0.58,-8.96 0.823,-11.636 0,-13.981" style="fill:rgb(255,210,145);fill-rule:nonzero;"/>
            </g>
            <g transform="matrix(4.16667,0,0,4.16667,869.745,1535.78)">
                <path d="M0,-3.02C-0.523,-0.338 0.136,2.711 2.419,4.388C3.055,4.854 3.752,5.137 4.552,5.088C5.331,5.039 6.076,4.724 6.72,4.294C7.772,3.593 8.67,2.556 9.164,1.372C8.242,2.118 7.11,2.708 5.965,2.852C5.401,2.924 4.806,2.853 4.324,2.535C3.787,2.18 3.497,1.581 3.361,0.967C3.057,-0.397 3.4,-1.871 3.924,-3.138C4.501,-4.532 5.354,-5.817 6.404,-6.898C6.853,-7.36 7.354,-7.788 7.892,-8.157C7.742,-8.13 7.587,-8.113 7.439,-8.081C4.615,-7.46 2.033,-5.791 0.31,-3.469C0.202,-3.323 0.102,-3.17 0,-3.02" style="fill:rgb(255,210,145);fill-rule:nonzero;"/>
            </g>
            <g transform="matrix(4.16667,0,0,4.16667,930.902,1515.66)">
                <path d="M0,5.862C-1.906,8.147 -5.303,8.455 -7.588,6.549C-9.873,4.643 -10.181,1.245 -8.275,-1.039C-6.979,-2.593 -5.718,-2.103 -3.861,-1.753C-2.987,-1.59 -1.418,-2.336 -0.687,-1.726C1.599,0.18 1.906,3.577 0,5.862" style="fill:rgb(237,28,36);fill-rule:nonzero;"/>
            </g>
            <g transform="matrix(4.16667,0,0,4.16667,928.361,1550.89)">
                <path d="M0,-10.103C0.41,-9.372 0.633,-8.545 0.576,-7.688C0.414,-5.202 -1.625,-3.351 -3.958,-2.791C-5.27,-2.477 -6.76,-2.577 -7.786,-3.537C-8.153,-3.881 -8.435,-4.297 -8.732,-4.703C-8.461,-3.647 -7.88,-2.659 -6.978,-1.906C-4.693,0 -1.295,-0.308 0.61,-2.593C2.492,-4.85 2.208,-8.184 0,-10.103" style="fill:rgb(186,40,46);fill-rule:nonzero;"/>
            </g>
            <g transform="matrix(4.16667,0,0,4.16667,898.629,1525.2)">
                <path d="M0,-2.355C-0.377,-2.215 -0.685,-1.853 -0.682,-1.451C-0.679,-1.112 -0.47,-0.811 -0.243,-0.562C0.023,-0.273 0.334,-0.015 0.701,0.125C1.068,0.265 1.497,0.274 1.842,0.086C2.495,-0.27 3.053,-1.206 2.325,-1.714C1.719,-2.138 0.737,-2.629 0,-2.355" style="fill:white;fill-rule:nonzero;"/>
            </g>
            <g transform="matrix(4.16667,0,0,4.16667,917.543,1516.51)">
                <path d="M0,-1.094C-0.268,-1.18 -0.553,-1.207 -0.833,-1.173C-1.144,-1.135 -1.497,-0.956 -1.518,-0.642C-1.539,-0.326 -1.209,-0.102 -0.904,-0.011C-0.49,0.112 -0.008,0.113 0.341,-0.143C0.464,-0.234 0.57,-0.364 0.578,-0.517C0.59,-0.771 0.34,-0.95 0.118,-1.076C0.066,-1.107 0,-1.136 -0.051,-1.104" style="fill:rgb(186,40,46);fill-rule:nonzero;"/>
            </g>
            <g transform="matrix(4.16667,0,0,4.16667,914.62,1460.49)">
                <path d="M0,12.8C0,12.8 -1.343,5.04 3.856,0L4.707,0.634C4.707,0.634 0.355,2.848 0,12.8" style="fill:rgb(186,40,46);fill-rule:nonzero;"/>
            </g>
            <g transform="matrix(4.16667,0,0,4.16667,866.05,1560.39)">
                <path d="M0,-1.436C0.208,-0.322 0.774,0.747 1.675,1.434C2.643,2.172 3.968,2.415 5.134,2.07C6.301,1.725 7.28,0.8 7.691,-0.346C7.15,0.437 6.315,1.01 5.391,1.235C4.811,1.375 4.191,1.38 3.626,1.188C3.258,1.063 2.923,0.859 2.613,0.625C1.037,-0.565 0.737,-2.117 0.23,-3.851C-0.318,-3.295 -0.13,-2.138 0,-1.436" style="fill:white;fill-rule:nonzero;"/>
            </g>
            <g transform="matrix(4.16667,0,0,4.16667,904.338,1620.57)">
                <path d="M0,2.996C0.459,2.322 0.86,1.617 1.206,0.88C1.413,0.439 1.329,-0.094 0.882,-0.356C0.491,-0.584 -0.145,-0.475 -0.353,-0.032C-0.698,0.707 -1.099,1.412 -1.558,2.086C-1.833,2.488 -1.634,3.086 -1.234,3.32C-0.789,3.58 -0.275,3.4 0,2.996" style="fill:rgb(4,175,231);fill-rule:nonzero;"/>
            </g>
            <g transform="matrix(-0.984675,4.04864,4.04864,0.984675,910.908,1801.55)">
                <path d="M2.137,-2.799C2.84,-1.593 3.418,-0.319 3.865,1.003C4.238,2.106 2.508,2.618 2.137,1.521C1.737,0.339 1.223,-0.783 0.597,-1.862C0.011,-2.866 1.551,-3.805 2.137,-2.799" style="fill:rgb(4,175,231);fill-rule:nonzero;"/>
            </g>
            <g transform="matrix(4.16667,0,0,4.16667,808.385,1618.46)">
                <path d="M0,-0.125C0.515,0.371 0.976,0.907 1.375,1.5C1.647,1.904 2.171,2.082 2.61,1.824C3.011,1.589 3.206,0.996 2.933,0.59C2.45,-0.129 1.9,-0.8 1.276,-1.401C0.439,-2.207 -0.838,-0.933 0,-0.125" style="fill:rgb(4,175,231);fill-rule:nonzero;"/>
            </g>
            <g transform="matrix(4.16667,0,0,4.16667,840.063,1799.58)">
                <path d="M0,-0.621C0.352,0.027 0.81,0.619 1.347,1.123C1.702,1.456 2.271,1.476 2.624,1.123C2.96,0.787 2.981,0.182 2.624,-0.152C2.161,-0.586 1.864,-0.97 1.558,-1.531C1.325,-1.959 0.735,-2.097 0.324,-1.855C-0.108,-1.603 -0.234,-1.051 0,-0.621" style="fill:rgb(4,175,231);fill-rule:nonzero;"/>
            </g>
            <g transform="matrix(4.16667,0,0,4.16667,954.485,1710.83)">
                <path d="M0,1.502C0.912,1.867 1.855,1.922 2.819,1.788C3.301,1.722 3.566,1.104 3.449,0.679C3.305,0.158 2.823,-0.019 2.339,0.048C1.701,0.137 1.069,-0.002 0.48,-0.238C0.027,-0.42 -0.511,-0.04 -0.63,0.392C-0.772,0.906 -0.454,1.32 0,1.502" style="fill:rgb(4,175,231);fill-rule:nonzero;"/>
            </g>
            <g transform="matrix(4.16667,0,0,4.16667,956,1616.12)">
                <path d="M0,3.25C0.737,2.695 1.405,2.083 1.984,1.363C2.289,0.983 2.355,0.458 1.984,0.087C1.668,-0.229 1.015,-0.295 0.708,0.087C0.233,0.678 -0.304,1.234 -0.91,1.692C-1.299,1.985 -1.501,2.471 -1.234,2.926C-1.011,3.309 -0.391,3.545 0,3.25" style="fill:rgb(255,217,64);fill-rule:nonzero;"/>
            </g>
            <g transform="matrix(4.16667,0,0,4.16667,833.463,1551.01)">
                <path d="M0,-0.712C0.26,-0.253 0.462,0.212 0.62,0.716C0.764,1.181 1.248,1.479 1.729,1.346C2.189,1.22 2.504,0.704 2.359,0.235C2.158,-0.409 1.891,-1.035 1.558,-1.623C1.318,-2.047 0.74,-2.191 0.324,-1.946C-0.103,-1.696 -0.241,-1.138 0,-0.712" style="fill:rgb(255,217,64);fill-rule:nonzero;"/>
            </g>
            <g transform="matrix(4.16667,0,0,4.16667,782.75,1673.6)">
                <path d="M0,2.761C0.522,2.36 1.044,1.959 1.566,1.558C1.951,1.261 2.156,0.781 1.889,0.323C1.667,-0.056 1.044,-0.299 0.655,0L-0.911,1.202C-1.296,1.499 -1.503,1.979 -1.234,2.437C-1.013,2.817 -0.389,3.06 0,2.761" style="fill:rgb(255,217,64);fill-rule:nonzero;"/>
            </g>
            <g transform="matrix(4.16667,0,0,4.16667,901.963,1710.02)">
                <path d="M0,-0.749C0.457,0.064 0.99,0.82 1.577,1.544C1.884,1.923 2.533,1.863 2.852,1.544C3.227,1.17 3.161,0.648 2.852,0.269C2.363,-0.335 1.939,-0.984 1.558,-1.659C0.989,-2.672 -0.57,-1.764 0,-0.749" style="fill:rgb(255,217,64);fill-rule:nonzero;"/>
            </g>
            <g transform="matrix(4.16667,0,0,4.16667,959.784,1777.55)">
                <path d="M0,1.998C0.042,1.429 0.188,0.88 0.396,0.348C0.572,-0.106 0.202,-0.642 -0.235,-0.761C-0.745,-0.902 -1.167,-0.587 -1.344,-0.131C-1.611,0.555 -1.75,1.265 -1.805,1.998C-1.841,2.484 -1.363,2.9 -0.902,2.9C-0.384,2.9 -0.036,2.485 0,1.998" style="fill:rgb(255,217,64);fill-rule:nonzero;"/>
            </g>
            <g transform="matrix(4.16667,0,0,4.16667,932.9,1854.13)">
                <path d="M0,0.63C0.96,1 1.922,1.37 2.882,1.74C3.337,1.915 3.872,1.547 3.992,1.11C4.132,0.601 3.819,0.176 3.363,-0C2.401,-0.37 1.441,-0.739 0.48,-1.109C0.025,-1.285 -0.51,-0.917 -0.631,-0.479C-0.77,0.029 -0.457,0.455 0,0.63" style="fill:rgb(255,217,64);fill-rule:nonzero;"/>
            </g>
            <g transform="matrix(4.16667,0,0,4.16667,962.469,1498.7)">
                <path d="M0,-0.272L1.225,1.276C1.528,1.658 2.185,1.593 2.501,1.276C2.879,0.898 2.804,0.384 2.501,0C2.092,-0.517 1.684,-1.032 1.275,-1.548C0.973,-1.93 0.316,-1.864 0,-1.548C-0.378,-1.17 -0.304,-0.655 0,-0.272" style="fill:rgb(255,217,64);fill-rule:nonzero;"/>
            </g>
            <g transform="matrix(0.574429,4.12688,4.12688,-0.574429,860.212,1596.76)">
                <path d="M2.019,-1.572C2.757,-0.692 3.324,0.318 3.676,1.412C4.03,2.511 2.375,3.233 2.019,2.127C1.708,1.165 1.25,0.32 0.601,-0.456C-0.147,-1.348 1.273,-2.461 2.019,-1.572" style="fill:rgb(237,28,36);fill-rule:nonzero;"/>
            </g>
            <g transform="matrix(4.16667,0,0,4.16667,941.062,1669.04)">
                <path d="M0,2.722C0.516,2.241 1.032,1.759 1.548,1.276C1.904,0.943 1.884,0.337 1.548,0C1.193,-0.355 0.629,-0.334 0.272,0C-0.245,0.482 -0.76,0.965 -1.276,1.447C-1.632,1.779 -1.612,2.386 -1.276,2.722C-0.92,3.077 -0.357,3.056 0,2.722" style="fill:rgb(237,28,36);fill-rule:nonzero;"/>
            </g>
            <g transform="matrix(4.16667,0,0,4.16667,959.207,1569.75)">
                <path d="M0,2.854L1.637,1.275C1.988,0.937 1.978,0.34 1.637,0C1.287,-0.351 0.714,-0.34 0.362,0C-0.184,0.526 -0.731,1.052 -1.276,1.579C-1.627,1.917 -1.616,2.514 -1.276,2.854C-0.925,3.205 -0.352,3.193 0,2.854" style="fill:rgb(237,28,36);fill-rule:nonzero;"/>
            </g>
            <g transform="matrix(0.379942,4.14931,4.14931,-0.379942,877.791,1828.84)">
                <path d="M1.725,-1.573C2.215,-0.768 2.703,0.037 3.192,0.842C3.793,1.831 2.327,2.884 1.725,1.892C1.235,1.087 0.745,0.281 0.257,-0.524C-0.344,-1.512 1.122,-2.567 1.725,-1.573" style="fill:rgb(237,28,36);fill-rule:nonzero;"/>
            </g>
            <g transform="matrix(4.16667,0,0,4.16667,900.536,1756.68)">
                <path d="M0,3.244C0.367,2.467 0.734,1.689 1.101,0.911C1.308,0.471 1.223,-0.062 0.777,-0.323C0.385,-0.553 -0.25,-0.442 -0.458,0.001C-0.824,0.778 -1.191,1.555 -1.558,2.334C-1.765,2.774 -1.681,3.306 -1.234,3.568C-0.842,3.797 -0.209,3.686 0,3.244" style="fill:rgb(237,28,36);fill-rule:nonzero;"/>
            </g>
            <g transform="matrix(4.16667,0,0,4.16667,789.603,1641.88)">
                <path d="M0,-0.572C0.649,-0.289 1.138,0.125 1.482,0.739C2.048,1.753 3.608,0.844 3.04,-0.172C2.56,-1.027 1.813,-1.737 0.911,-2.13C0.464,-2.325 -0.057,-2.262 -0.324,-1.806C-0.547,-1.424 -0.449,-0.767 0,-0.572" style="fill:rgb(237,28,36);fill-rule:nonzero;"/>
            </g>
            <g transform="matrix(4.16667,0,0,4.16667,816.419,1574.54)">
                <path d="M0,1.016C0.658,1.258 1.316,1.499 1.974,1.741C2.431,1.908 2.963,1.552 3.084,1.11C3.222,0.607 2.913,0.169 2.454,-0C1.796,-0.241 1.138,-0.483 0.48,-0.724C0.022,-0.892 -0.508,-0.536 -0.63,-0.094C-0.769,0.409 -0.459,0.848 0,1.016" style="fill:white;fill-rule:nonzero;"/>
            </g>
            <g transform="matrix(4.16667,0,0,4.16667,880.789,1671.71)">
                <path d="M0,2.81C0.474,2.176 0.948,1.544 1.422,0.91C1.714,0.52 1.485,-0.097 1.099,-0.324C0.638,-0.594 0.156,-0.392 -0.136,0C-0.61,0.632 -1.085,1.266 -1.558,1.899C-1.851,2.29 -1.621,2.907 -1.234,3.133C-0.773,3.404 -0.293,3.202 0,2.81" style="fill:white;fill-rule:nonzero;"/>
            </g>
            <g transform="matrix(4.0619,-0.928474,-0.928474,-4.0619,953.691,1827.04)">
                <path d="M-0.343,-0.039C0.255,0.621 0.785,1.339 1.247,2.1C1.851,3.095 0.258,3.945 -0.343,2.955C-0.726,2.324 -1.162,1.745 -1.659,1.196C-2.44,0.335 -1.123,-0.902 -0.343,-0.039" style="fill:white;fill-rule:nonzero;"/>
            </g>
            <g transform="matrix(4.16667,0,0,4.16667,980.948,1518.31)">
                <path d="M0,1.805L2.882,1.805C4.044,1.805 4.046,0 2.882,0L0,0C-1.161,0 -1.163,1.805 0,1.805" style="fill:white;fill-rule:nonzero;"/>
            </g>
            <g transform="matrix(0.372509,4.14998,4.14998,-0.372509,977.035,1650.31)">
                <path d="M1.86,-1.657C2.535,-0.743 3.098,0.246 3.551,1.29C4.014,2.357 2.321,2.984 1.86,1.922C1.466,1.018 0.976,0.182 0.388,-0.61C-0.303,-1.546 1.168,-2.591 1.86,-1.657" style="fill:white;fill-rule:nonzero;"/>
            </g>
            <g transform="matrix(4.16667,0,0,4.16667,869.151,1795.94)">
                <path d="M0,2.709C0.312,1.876 0.481,1.018 0.552,0.132C0.592,-0.354 0.11,-0.77 -0.35,-0.77C-0.87,-0.77 -1.212,-0.356 -1.252,0.132C-1.31,0.854 -1.487,1.552 -1.739,2.229C-1.911,2.686 -1.55,3.218 -1.11,3.34C-0.605,3.479 -0.17,3.167 0,2.709" style="fill:white;fill-rule:nonzero;"/>
            </g>
            <g transform="matrix(4.15315,0.335302,0.335302,-4.15315,822.053,1671.86)">
                <path d="M0.16,-0.006C0.703,1.063 1.245,2.131 1.788,3.2C2.313,4.238 0.685,5.018 0.16,3.983C-0.382,2.913 -0.924,1.844 -1.466,0.775C-1.993,-0.263 -0.365,-1.042 0.16,-0.006" style="fill:white;fill-rule:nonzero;"/>
            </g>
            <g transform="matrix(4.16667,0,0,4.16667,860.344,1507.08)">
                <path d="M0,2.595C0.592,2.026 1.217,1.503 1.89,1.033C2.29,0.754 2.474,0.243 2.214,-0.202C1.983,-0.597 1.381,-0.806 0.979,-0.525C0.181,0.031 -0.574,0.644 -1.276,1.319C-2.114,2.126 -0.837,3.401 0,2.595" style="fill:white;fill-rule:nonzero;"/>
            </g>
            <g transform="matrix(-1.05923,4.02978,4.02978,1.05923,938.794,1736.62)">
                <path d="M1.799,-2.335C2.318,-1.398 2.839,-0.46 3.358,0.477C3.922,1.494 2.363,2.404 1.799,1.386C1.28,0.45 0.76,-0.488 0.241,-1.425C-0.323,-2.441 1.234,-3.353 1.799,-2.335" style="fill:rgb(189,61,150);fill-rule:nonzero;"/>
            </g>
            <g transform="matrix(4.16667,0,0,4.16667,851.975,1774.77)">
                <path d="M0,0.985C0.101,1.025 0.113,1.03 0.036,1C0.091,1.024 0.146,1.05 0.201,1.078C0.296,1.125 0.389,1.175 0.48,1.23C0.572,1.284 0.663,1.34 0.75,1.399C0.8,1.433 0.85,1.467 0.898,1.504C0.837,1.454 0.848,1.463 0.931,1.53C1.297,1.827 1.855,1.915 2.208,1.53C2.509,1.202 2.6,0.572 2.208,0.254C1.671,-0.179 1.121,-0.501 0.48,-0.754C0.04,-0.93 -0.53,-0.565 -0.63,-0.125C-0.749,0.395 -0.471,0.798 0,0.985" style="fill:rgb(189,61,150);fill-rule:nonzero;"/>
            </g>
            <g transform="matrix(4.16667,0,0,4.16667,925.923,1838.06)">
                <path d="M0,2.13C0.183,1.585 0.324,1.03 0.42,0.463C0.502,-0.017 0.293,-0.51 -0.21,-0.648C-0.644,-0.767 -1.237,-0.501 -1.319,-0.017C-1.417,0.551 -1.556,1.105 -1.74,1.65C-1.896,2.112 -1.561,2.637 -1.11,2.761C-0.617,2.897 -0.156,2.594 0,2.13" style="fill:rgb(189,61,150);fill-rule:nonzero;"/>
            </g>
            <g transform="matrix(4.16667,0,0,4.16667,913.879,1603.32)">
                <path d="M0,-1.08C0.834,-0.48 1.587,0.215 2.273,0.978C3.051,1.843 4.324,0.564 3.549,-0.298C2.757,-1.177 1.872,-1.948 0.91,-2.638C0.514,-2.923 -0.094,-2.707 -0.324,-2.314C-0.59,-1.86 -0.397,-1.365 0,-1.08" style="fill:rgb(189,61,150);fill-rule:nonzero;"/>
            </g>
            <g transform="matrix(4.14052,-0.466072,-0.466072,-4.14052,797.489,1602.92)">
                <path d="M-0.177,-0.01C0.306,0.682 0.787,1.375 1.27,2.067C1.934,3.019 0.488,4.101 -0.177,3.146C-0.659,2.454 -1.141,1.761 -1.623,1.07C-2.287,0.117 -0.841,-0.965 -0.177,-0.01" style="fill:rgb(189,61,150);fill-rule:nonzero;"/>
            </g>
            <g transform="matrix(4.16667,0,0,4.16667,841.874,1636.22)">
                <path d="M0,-1.108C1.041,-0.261 2.103,0.559 3.187,1.351C3.583,1.641 4.19,1.415 4.421,1.027C4.694,0.574 4.489,0.079 4.097,-0.207C3.138,-0.908 2.198,-1.633 1.275,-2.384C0.895,-2.694 0.374,-2.749 0,-2.384C-0.322,-2.069 -0.377,-1.415 0,-1.108" style="fill:rgb(189,61,150);fill-rule:nonzero;"/>
            </g>
            <g transform="matrix(4.16667,0,0,4.16667,805.85,1777.4)">
                <path d="M0,1.937C0.665,1.893 1.329,1.849 1.994,1.806C2.481,1.774 2.897,1.414 2.897,0.903C2.897,0.439 2.483,-0.032 1.994,0C1.329,0.044 0.665,0.088 0,0.131C-0.486,0.164 -0.902,0.524 -0.902,1.035C-0.902,1.499 -0.488,1.969 0,1.937" style="fill:rgb(189,61,150);fill-rule:nonzero;"/>
            </g>
            <g transform="matrix(4.16667,0,0,4.16667,964.347,1469.03)">
                <path d="M0,98.801L0,0C50.576,6.154 47.868,49.461 47.868,49.461C47.868,49.461 49.912,93.157 0,98.801" style="fill:white;fill-rule:nonzero;"/>
            </g>
            <g transform="matrix(4.16667,0,0,4.16667,760.607,1673.54)">
                <path d="M0,0L97.628,0" style="fill:none;fill-rule:nonzero;stroke:rgb(219,86,129);stroke-width:1px;"/>
            </g>
            <g transform="matrix(-2.96673,2.92568,2.92568,2.96673,959.733,1878.56)">
                <path d="M-83.139,-34.099L13.985,-34.099" style="fill:none;fill-rule:nonzero;stroke:rgb(219,86,129);stroke-width:1px;"/>
            </g>
            <g transform="matrix(2.93761,2.95493,2.95493,-2.93761,963.25,1471.63)">
                <path d="M-14.335,-34.464L82.859,-34.464" style="fill:none;fill-rule:nonzero;stroke:rgb(219,86,129);stroke-width:1px;"/>
            </g>
            <g transform="matrix(0,4.16667,4.16667,0,1166.36,1673.54)">
                <path d="M-48.366,-48.366L48.366,-48.366" style="fill:none;fill-rule:nonzero;stroke:rgb(219,86,129);stroke-width:1px;"/>
            </g>
            <g transform="matrix(0,-4.16667,-4.16667,0,964.072,1472.52)">
                <ellipse cx="-48.563" cy="0" rx="48.563" ry="48.564" style="fill:none;stroke:rgb(35,31,32);stroke-width:1px;"/>
            </g>
        </g>
    </g>
    <defs>
        <radialGradient id="_Radial1" cx="0" cy="0" r="1" gradientUnits="userSpaceOnUse" gradientTransform="matrix(0,1,1,0,-8.69581e-06,8.69581e-06)"><stop offset="0" style="stop-color:rgb(251,209,208);stop-opacity:1"/><stop offset="1" style="stop-color:rgb(243,129,141);stop-opacity:1"/><stop offset="1" style="stop-color:rgb(243,129,141);stop-opacity:1"/></radialGradient>
    </defs>
</svg>
