<?xml version="1.0" encoding="UTF-8" standalone="no"?>
<!DOCTYPE svg PUBLIC "-//W3C//DTD SVG 1.1//EN" "http://www.w3.org/Graphics/SVG/1.1/DTD/svg11.dtd">
<svg width="100%" height="100%" viewBox="0 0 450 449" version="1.1" xmlns="http://www.w3.org/2000/svg" xmlns:xlink="http://www.w3.org/1999/xlink" xml:space="preserve" xmlns:serif="http://www.serif.com/" style="fill-rule:evenodd;clip-rule:evenodd;stroke-miterlimit:10;">
    <g transform="matrix(1,0,0,1,-653,-1167)">
        <g transform="matrix(1,0,0,1,-74.6753,-1046.05)">
            <g transform="matrix(0,201.69,201.69,0,950.84,2438.85)">
                <ellipse cx="0" cy="0" rx="1" ry="1" style="fill:url(#_Radial1);"/>
            </g>
            <g transform="matrix(4.16667,0,0,4.16667,1080.2,2309.63)">
                <path d="M0,13.324C0,13.324 -3.513,6.305 0,0L0.995,0.359C0.995,0.359 -2.522,3.724 0,13.324" style="fill:rgb(186,40,46);fill-rule:nonzero;"/>
            </g>
            <g transform="matrix(4.16667,0,0,4.16667,0,0)">
                <g opacity="0.2">
                    <g transform="matrix(1,0,0,1,213.727,560.889)">
                        <path d="M0,-17.048C-2.518,-15.645 -4.501,-13.309 -5.478,-10.598C-5.848,-9.573 -6.078,-8.494 -6.111,-7.407C-6.211,-4.066 -4.287,-0.744 -1.34,0.833C1.608,2.41 5.438,2.166 8.162,0.229C9.377,-0.636 10.359,-1.785 11.504,-2.74C12.505,-3.576 13.648,-4.279 14.418,-5.331C14.998,-6.128 15.331,-7.084 15.509,-8.054C15.955,-10.491 15.418,-13.115 13.958,-15.116C10.822,-19.416 4.323,-19.458 0,-17.048" style="fill:rgb(217,27,91);fill-rule:nonzero;"/>
                    </g>
                </g>
            </g>
            <g transform="matrix(4.16667,0,0,4.16667,880.326,2336.03)">
                <path d="M0,-17.049C-2.517,-15.645 -4.501,-13.31 -5.478,-10.598C-5.847,-9.574 -6.078,-8.495 -6.11,-7.408C-6.21,-4.066 -4.287,-0.745 -1.339,0.833C1.608,2.41 5.439,2.166 8.162,0.228C9.377,-0.636 10.36,-1.786 11.504,-2.741C12.506,-3.577 13.648,-4.28 14.418,-5.332C14.999,-6.129 15.331,-7.085 15.509,-8.054C15.956,-10.492 15.418,-13.115 13.958,-15.117C10.822,-19.417 4.323,-19.459 0,-17.049" style="fill:rgb(255,226,182);fill-rule:nonzero;"/>
            </g>
            <g transform="matrix(4.16667,0,0,4.16667,938.483,2345.53)">
                <path d="M0,-17.397C-0.034,-17.443 -0.073,-17.482 -0.107,-17.527C0.122,-17.024 0.262,-16.473 0.272,-15.875C0.292,-14.715 -0.148,-13.655 -1.038,-12.908C-1.889,-12.195 -2.942,-11.778 -3.887,-11.211C-4.369,-10.923 -4.844,-10.593 -5.216,-10.168C-5.62,-9.708 -5.915,-9.141 -6.197,-8.601C-6.798,-7.445 -7.29,-6.234 -7.937,-5.101C-8.567,-4.002 -9.37,-2.972 -10.467,-2.306C-11.562,-1.64 -12.841,-1.469 -14.091,-1.712C-15.345,-1.956 -16.546,-2.53 -17.622,-3.294C-16.951,-2.558 -16.177,-1.918 -15.297,-1.446C-12.349,0.13 -8.519,-0.113 -5.795,-2.052C-4.58,-2.915 -3.598,-4.065 -2.454,-5.02C-1.452,-5.855 -0.31,-6.559 0.46,-7.612C1.041,-8.408 1.374,-9.365 1.551,-10.334C1.998,-12.771 1.46,-15.394 0,-17.397" style="fill:rgb(255,210,145);fill-rule:nonzero;"/>
            </g>
            <g transform="matrix(4.16667,0,0,4.16667,856.807,2292.09)">
                <path d="M0,0.466C0.272,3.176 1.778,5.896 4.439,6.84C5.179,7.103 5.926,7.172 6.674,6.895C7.405,6.626 8.025,6.108 8.516,5.514C9.318,4.543 9.878,3.295 10.009,2.023C9.343,3 8.432,3.889 7.381,4.356C6.863,4.586 6.276,4.69 5.725,4.525C5.108,4.34 4.66,3.852 4.353,3.306C3.671,2.09 3.574,0.585 3.71,-0.775C3.861,-2.27 4.305,-3.743 4.997,-5.076C5.293,-5.646 5.647,-6.199 6.056,-6.706C5.919,-6.636 5.777,-6.576 5.644,-6.503C3.127,-5.098 1.144,-2.763 0.167,-0.052C0.105,0.118 0.054,0.293 0,0.466" style="fill:rgb(255,210,145);fill-rule:nonzero;"/>
            </g>
            <g transform="matrix(4.16667,0,0,4.16667,920.029,2278.32)">
                <path d="M0,3.418C-1.162,6.146 -4.316,7.417 -7.045,6.255C-9.773,5.093 -11.043,1.939 -9.882,-0.79C-9.091,-2.646 -7.746,-2.541 -5.874,-2.741C-4.993,-2.836 -3.709,-3.999 -2.837,-3.627C-0.108,-2.466 1.162,0.69 0,3.418" style="fill:rgb(237,28,36);fill-rule:nonzero;"/>
            </g>
            <g transform="matrix(4.16667,0,0,4.16667,908.607,2309.22)">
                <path d="M0,-10.991C0.602,-10.41 1.052,-9.686 1.245,-8.852C1.805,-6.432 0.391,-4.079 -1.676,-2.875C-2.837,-2.197 -4.288,-1.865 -5.542,-2.486C-5.992,-2.709 -6.381,-3.026 -6.781,-3.326C-6.219,-2.396 -5.38,-1.621 -4.304,-1.162C-1.575,0 1.58,-1.27 2.741,-3.999C3.889,-6.693 2.658,-9.795 0,-10.991" style="fill:rgb(186,40,46);fill-rule:nonzero;"/>
            </g>
            <g transform="matrix(4.16667,0,0,4.16667,882.125,2285.42)">
                <path d="M0,-1.718C-0.32,-1.476 -0.509,-1.041 -0.39,-0.658C-0.29,-0.337 -0.005,-0.11 0.285,0.063C0.622,0.263 0.992,0.42 1.382,0.447C1.773,0.474 2.185,0.36 2.46,0.083C2.982,-0.446 3.245,-1.498 2.404,-1.775C1.704,-2.006 0.626,-2.192 0,-1.718" style="fill:white;fill-rule:nonzero;"/>
            </g>
            <g transform="matrix(4.16667,0,0,4.16667,899.19,2274.77)">
                <path d="M0,-1.253C-0.28,-1.258 -0.562,-1.202 -0.817,-1.089C-1.103,-0.962 -1.389,-0.691 -1.319,-0.386C-1.248,-0.077 -0.868,0.041 -0.553,0.04C-0.121,0.039 0.339,-0.099 0.599,-0.443C0.69,-0.565 0.754,-0.721 0.717,-0.868C0.657,-1.114 0.366,-1.213 0.118,-1.271C0.06,-1.284 -0.013,-1.294 -0.052,-1.248" style="fill:rgb(186,40,46);fill-rule:nonzero;"/>
            </g>
            <g transform="matrix(4.16667,0,0,4.16667,896.942,2216.67)">
                <path d="M0,13.325C0,13.325 -3.513,6.306 0,0L0.994,0.359C0.994,0.359 -2.522,3.725 0,13.325" style="fill:rgb(186,40,46);fill-rule:nonzero;"/>
            </g>
            <g transform="matrix(4.16667,0,0,4.16667,862.254,2326.18)">
                <path d="M0,-0.314C0.519,0.689 1.366,1.547 2.424,1.943C3.559,2.37 4.893,2.221 5.908,1.556C6.922,0.891 7.591,-0.273 7.654,-1.484C7.362,-0.583 6.73,0.206 5.913,0.685C5.4,0.986 4.809,1.169 4.215,1.148C3.828,1.134 3.45,1.036 3.086,0.902C1.24,0.219 0.508,-1.175 -0.476,-2.684C-0.837,-1.997 -0.327,-0.946 0,-0.314" style="fill:white;fill-rule:nonzero;"/>
            </g>
            <g transform="matrix(4.16667,0,0,4.16667,829.066,2414.52)">
                <path d="M0,12.759C0,12.759 -1.339,5.025 3.844,0L4.693,0.632C4.693,0.632 0.354,2.839 0,12.759" style="fill:rgb(186,40,46);fill-rule:nonzero;"/>
            </g>
            <g transform="matrix(4.16667,0,0,4.16667,893.919,2384.48)">
                <path d="M0,2.985C0.458,2.313 0.858,1.611 1.202,0.876C1.408,0.435 1.325,-0.095 0.879,-0.356C0.49,-0.583 -0.145,-0.475 -0.351,-0.034C-0.696,0.704 -1.095,1.406 -1.553,2.078C-1.827,2.478 -1.629,3.075 -1.23,3.308C-0.786,3.568 -0.274,3.387 0,2.985" style="fill:rgb(4,175,231);fill-rule:nonzero;"/>
            </g>
            <g transform="matrix(4.16667,0,0,4.16667,991.767,2320.35)">
                <path d="M0,-0.293C0.569,0.209 1.115,0.732 1.64,1.28C1.976,1.631 2.573,1.618 2.912,1.28C3.262,0.929 3.249,0.36 2.912,0.008C2.386,-0.539 1.84,-1.063 1.271,-1.565C0.907,-1.887 0.358,-1.924 0,-1.565C-0.328,-1.237 -0.366,-0.616 0,-0.293" style="fill:rgb(4,175,231);fill-rule:nonzero;"/>
            </g>
            <g transform="matrix(4.16667,0,0,4.16667,798.278,2382.37)">
                <path d="M0,-0.122C0.514,0.372 0.973,0.906 1.371,1.498C1.642,1.901 2.163,2.076 2.601,1.821C3.001,1.587 3.196,0.995 2.924,0.59C2.442,-0.127 1.894,-0.796 1.272,-1.394C0.438,-2.198 -0.835,-0.927 0,-0.122" style="fill:rgb(4,175,231);fill-rule:nonzero;"/>
            </g>
            <g transform="matrix(0,4.16667,4.16667,0,1017.71,2416.1)">
                <path d="M-0.206,-2.005L2.004,-2.005C3.162,-2.005 3.164,-0.206 2.004,-0.206L-0.206,-0.206C-1.363,-0.206 -1.365,-2.005 -0.206,-2.005" style="fill:rgb(4,175,231);fill-rule:nonzero;"/>
            </g>
            <g transform="matrix(4.16667,0,0,4.16667,1055.16,2306.47)">
                <path d="M0,-2.062C0.117,-1.215 0.233,-0.369 0.35,0.478C0.417,0.959 1.032,1.223 1.456,1.106C1.976,0.963 2.15,0.483 2.084,-0C1.968,-0.847 1.852,-1.693 1.735,-2.541C1.668,-3.021 1.052,-3.285 0.628,-3.167C0.109,-3.025 -0.066,-2.545 0,-2.062" style="fill:rgb(4,175,231);fill-rule:nonzero;"/>
            </g>
            <g transform="matrix(4.16667,0,0,4.16667,945.414,2380.05)">
                <path d="M0,3.238C0.734,2.684 1.4,2.075 1.978,1.357C2.281,0.979 2.347,0.455 1.978,0.085C1.663,-0.23 1.011,-0.295 0.705,0.085C0.232,0.675 -0.303,1.228 -0.907,1.685C-1.295,1.977 -1.496,2.462 -1.23,2.916C-1.007,3.297 -0.39,3.533 0,3.238" style="fill:rgb(255,217,64);fill-rule:nonzero;"/>
            </g>
            <g transform="matrix(4.16667,0,0,4.16667,823.274,2315.15)">
                <path d="M0,-0.71C0.259,-0.252 0.461,0.211 0.618,0.714C0.761,1.178 1.244,1.473 1.724,1.342C2.181,1.216 2.496,0.701 2.351,0.235C2.151,-0.408 1.885,-1.031 1.553,-1.617C1.314,-2.04 0.737,-2.183 0.323,-1.94C-0.103,-1.691 -0.24,-1.135 0,-0.71" style="fill:rgb(255,217,64);fill-rule:nonzero;"/>
            </g>
            <g transform="matrix(4.16667,0,0,4.16667,951.86,2263)">
                <path d="M0,-0.272C0.407,0.243 0.813,0.756 1.221,1.271C1.523,1.653 2.177,1.587 2.493,1.271C2.87,0.895 2.795,0.382 2.493,-0.001C2.085,-0.515 1.679,-1.029 1.271,-1.543C0.97,-1.925 0.315,-1.859 0,-1.543C-0.377,-1.167 -0.303,-0.654 0,-0.272" style="fill:rgb(255,217,64);fill-rule:nonzero;"/>
            </g>
            <g transform="matrix(0.575172,4.12678,4.12678,-0.575172,849.939,2360.75)">
                <path d="M2.011,-1.568C2.747,-0.69 3.312,0.316 3.665,1.406C4.017,2.501 2.367,3.222 2.011,2.119C1.703,1.16 1.246,0.319 0.598,-0.455C-0.146,-1.344 1.269,-2.454 2.011,-1.568" style="fill:rgb(237,28,36);fill-rule:nonzero;"/>
            </g>
            <g transform="matrix(-1.21593,3.9853,3.9853,1.21593,1020.28,2354.96)">
                <path d="M1.693,-2.289C2.223,-1.39 2.753,-0.49 3.282,0.408C3.87,1.408 2.281,2.25 1.693,1.254C1.165,0.355 0.635,-0.544 0.107,-1.444C-0.482,-2.443 1.108,-3.285 1.693,-2.289" style="fill:rgb(237,28,36);fill-rule:nonzero;"/>
            </g>
            <g transform="matrix(4.16667,0,0,4.16667,948.61,2333.83)">
                <path d="M0,2.845C0.544,2.32 1.088,1.796 1.633,1.271C1.982,0.934 1.972,0.339 1.633,-0.001C1.283,-0.35 0.711,-0.339 0.361,-0.001C-0.184,0.525 -0.727,1.048 -1.272,1.574C-1.622,1.91 -1.611,2.506 -1.272,2.845C-0.922,3.195 -0.351,3.183 0,2.845" style="fill:rgb(237,28,36);fill-rule:nonzero;"/>
            </g>
            <g transform="matrix(4.16667,0,0,4.16667,1016.2,2271.84)">
                <path d="M0,-0.258C0.511,0.283 0.909,0.889 1.226,1.562C1.433,2.001 2.064,2.114 2.456,1.884C2.906,1.622 2.987,1.095 2.779,0.653C2.398,-0.152 1.884,-0.883 1.272,-1.529C0.476,-2.372 -0.794,-1.099 0,-0.258" style="fill:rgb(237,28,36);fill-rule:nonzero;"/>
            </g>
            <g transform="matrix(4.16667,0,0,4.16667,779.558,2405.72)">
                <path d="M0,-0.57C0.647,-0.288 1.134,0.125 1.477,0.737C2.042,1.747 3.596,0.841 3.03,-0.171C2.553,-1.024 1.807,-1.731 0.908,-2.123C0.463,-2.317 -0.057,-2.254 -0.323,-1.8C-0.545,-1.419 -0.448,-0.765 0,-0.57" style="fill:rgb(237,28,36);fill-rule:nonzero;"/>
            </g>
            <g transform="matrix(4.16667,0,0,4.16667,806.286,2338.6)">
                <path d="M0,1.013C0.656,1.254 1.312,1.494 1.968,1.735C2.423,1.902 2.953,1.548 3.074,1.107C3.212,0.605 2.904,0.169 2.446,0C1.791,-0.24 1.134,-0.481 0.479,-0.721C0.022,-0.889 -0.507,-0.534 -0.628,-0.093C-0.766,0.408 -0.458,0.845 0,1.013" style="fill:white;fill-rule:nonzero;"/>
            </g>
            <g transform="matrix(4.16667,0,0,4.16667,1037.22,2326.79)">
                <path d="M0,2.503C0.653,2.186 1.305,1.869 1.958,1.553C2.394,1.341 2.512,0.718 2.28,0.322C2.02,-0.124 1.488,-0.213 1.049,-0C0.397,0.317 -0.255,0.633 -0.908,0.949C-1.345,1.162 -1.462,1.784 -1.23,2.18C-0.969,2.626 -0.439,2.716 0,2.503" style="fill:white;fill-rule:nonzero;"/>
            </g>
            <g transform="matrix(4.16667,0,0,4.16667,970.28,2282.55)">
                <path d="M0,1.799L2.874,1.799C4.031,1.799 4.033,0 2.874,0L0,0C-1.157,0 -1.159,1.799 0,1.799" style="fill:white;fill-rule:nonzero;"/>
            </g>
            <g transform="matrix(0.37144,4.15008,4.15008,-0.37144,966.386,2414.13)">
                <path d="M1.854,-1.652C2.529,-0.741 3.088,0.245 3.539,1.285C4.001,2.349 2.313,2.974 1.854,1.915C1.461,1.013 0.973,0.181 0.388,-0.61C-0.302,-1.543 1.165,-2.583 1.854,-1.652" style="fill:white;fill-rule:nonzero;"/>
            </g>
            <g transform="matrix(4.15315,0.335354,0.335354,-4.15315,811.902,2435.61)">
                <path d="M0.16,-0.006C0.701,1.06 1.241,2.125 1.782,3.191C2.305,4.225 0.683,5.001 0.16,3.969C-0.381,2.904 -0.921,1.84 -1.461,0.773C-1.986,-0.262 -0.364,-1.038 0.16,-0.006" style="fill:white;fill-rule:nonzero;"/>
            </g>
            <g transform="matrix(4.16667,0,0,4.16667,850.068,2271.36)">
                <path d="M0,2.587C0.59,2.02 1.213,1.499 1.884,1.03C2.282,0.752 2.466,0.243 2.206,-0.2C1.977,-0.595 1.376,-0.803 0.976,-0.523C0.181,0.032 -0.573,0.643 -1.272,1.316C-2.107,2.119 -0.834,3.39 0,2.587" style="fill:white;fill-rule:nonzero;"/>
            </g>
            <g transform="matrix(4.16667,0,0,4.16667,978.536,2377.86)">
                <path d="M0,-1.613C0.27,-0.555 0.77,0.378 1.456,1.222C1.763,1.6 2.409,1.541 2.728,1.222C3.101,0.849 3.035,0.329 2.728,-0.05C2.241,-0.65 1.924,-1.347 1.735,-2.092C1.45,-3.213 -0.286,-2.737 0,-1.613" style="fill:rgb(189,61,150);fill-rule:nonzero;"/>
            </g>
            <g transform="matrix(4.16667,0,0,4.16667,903.429,2367.29)">
                <path d="M0,-1.077C0.831,-0.479 1.582,0.214 2.265,0.975C3.041,1.837 4.31,0.562 3.537,-0.298C2.748,-1.174 1.866,-1.942 0.907,-2.631C0.513,-2.914 -0.094,-2.699 -0.323,-2.307C-0.588,-1.854 -0.396,-1.361 0,-1.077" style="fill:rgb(189,61,150);fill-rule:nonzero;"/>
            </g>
            <g transform="matrix(4.1405,-0.466237,-0.466237,-4.1405,787.417,2366.89)">
                <path d="M-0.176,-0.01C0.305,0.679 0.784,1.369 1.266,2.06C1.928,3.01 0.487,4.086 -0.176,3.136C-0.656,2.445 -1.136,1.756 -1.618,1.065C-2.279,0.116 -0.84,-0.962 -0.176,-0.01" style="fill:rgb(189,61,150);fill-rule:nonzero;"/>
            </g>
            <g transform="matrix(4.16667,0,0,4.16667,831.659,2400.08)">
                <path d="M0,-1.104C1.037,-0.259 2.096,0.559 3.177,1.347C3.571,1.636 4.176,1.412 4.407,1.025C4.679,0.573 4.475,0.08 4.084,-0.206C3.128,-0.905 2.19,-1.627 1.272,-2.375C0.892,-2.685 0.373,-2.74 0,-2.375C-0.32,-2.062 -0.376,-1.41 0,-1.104" style="fill:rgb(189,61,150);fill-rule:nonzero;"/>
            </g>
            <g transform="matrix(4.16667,0,0,4.16667,1001.7,2289.73)">
                <path d="M0,2.741C0.762,2.299 1.491,1.808 2.188,1.269C2.572,0.972 2.779,0.497 2.511,0.039C2.29,-0.339 1.667,-0.583 1.281,-0.283C0.584,0.256 -0.146,0.745 -0.907,1.187C-1.909,1.769 -1.003,3.324 0,2.741" style="fill:rgb(189,61,150);fill-rule:nonzero;"/>
            </g>
            <g transform="matrix(4.16667,0,0,4.16667,981.423,2254.92)">
                <path d="M0,-1.404C0.145,-0.776 0.29,-0.15 0.434,0.477C0.543,0.95 1.086,1.23 1.541,1.105C2.026,0.971 2.278,0.474 2.168,-0.002C2.024,-0.629 1.879,-1.255 1.735,-1.883C1.625,-2.355 1.082,-2.634 0.629,-2.51C0.143,-2.377 -0.109,-1.879 0,-1.404" style="fill:rgb(189,61,150);fill-rule:nonzero;"/>
            </g>
            <g transform="matrix(4.16667,0,0,4.16667,950.844,2495.99)">
                <path d="M0,-13.714L34.889,-47.268C43.559,-38.253 48.405,-26.221 48.405,-13.714C48.405,12.841 26.555,34.691 0,34.691C-26.555,34.691 -48.405,12.841 -48.405,-13.714C-48.405,-26.775 -43.119,-39.296 -33.759,-48.405L0,-13.714Z" style="fill:white;fill-rule:nonzero;"/>
            </g>
            <g transform="matrix(0,4.16667,4.16667,0,1155.08,2437.28)">
                <path d="M-48.209,-48.209L48.209,-48.209" style="fill:none;fill-rule:nonzero;stroke:rgb(96,56,18);stroke-width:1.08px;"/>
            </g>
            <g transform="matrix(4.16667,0,0,4.16667,750.656,2437.28)">
                <path d="M0,0L96.816,0" style="fill:none;fill-rule:nonzero;stroke:rgb(96,56,18);stroke-width:1.08px;"/>
            </g>
            <g transform="matrix(-2.96669,2.92573,2.92573,2.96669,949.556,2640.66)">
                <path d="M-82.634,-33.892L13.901,-33.892" style="fill:none;fill-rule:nonzero;stroke:rgb(96,56,18);stroke-width:1.08px;"/>
            </g>
            <g transform="matrix(2.9376,2.95493,2.95493,-2.9376,952.64,2236.03)">
                <path d="M-14.288,-34.352L82.589,-34.352" style="fill:none;fill-rule:nonzero;stroke:rgb(96,56,18);stroke-width:1.08px;"/>
            </g>
            <g transform="matrix(0,-4.16667,-4.16667,0,951.448,2237.16)">
                <ellipse cx="-48.406" cy="-0.001" rx="48.405" ry="48.406" style="fill:none;stroke:rgb(35,31,32);stroke-width:1px;"/>
            </g>
        </g>
    </g>
    <defs>
        <radialGradient id="_Radial1" cx="0" cy="0" r="1" gradientUnits="userSpaceOnUse" gradientTransform="matrix(0,1,1,0,-1.66138e-05,1.66138e-05)"><stop offset="0" style="stop-color:rgb(188,132,81);stop-opacity:1"/><stop offset="0" style="stop-color:rgb(188,132,81);stop-opacity:1"/><stop offset="0.93" style="stop-color:rgb(158,93,55);stop-opacity:1"/><stop offset="1" style="stop-color:rgb(158,93,55);stop-opacity:1"/></radialGradient>
    </defs>
</svg>
