<svg id="Capa_1" data-name="Capa 1" xmlns="http://www.w3.org/2000/svg" viewBox="0 0 85.04 85.04"><defs><style>.cls-1{fill:#bee2e9;}.cls-1,.cls-2{stroke:#00aca9;stroke-width:0.65px;}.cls-2{fill:#87cedc;}</style></defs><path class="cls-1" d="M66.57,14.14a2,2,0,0,0,0-.24v-.08h0C66,9.18,55,5.47,41.49,5.47c-13.86,0-25.08,3.88-25.08,8.67a7.82,7.82,0,0,0-.05,1.45l-.09,55.84a4.21,4.21,0,0,0,.14,1.45c1.16,4.9,11.22,8.67,25.08,8.67,13.19,0,24-3.53,25-8h.06v-.43a.74.74,0,0,0,0-.48V14.38A2,2,0,0,0,66.57,14.14Z"/><ellipse class="cls-2" cx="41.47" cy="14.59" rx="25.06" ry="9.19"/></svg>