<svg id="Capa_1" data-name="Capa 1" xmlns="http://www.w3.org/2000/svg" viewBox="0 0 85.04 85.04"><defs><style>.cls-1{fill:#00b5ec;}.cls-2{fill:#e30613;}.cls-3{fill:#ffde00;}.cls-4{fill:#008fd6;opacity:0.43;}.cls-5{fill:#5bc5f2;}</style></defs><path class="cls-1" d="M42.32,74.62A30.08,30.08,0,0,1,30.9,72.49c-1.27-.48-1.33-.56-.78-1.85a21.43,21.43,0,0,1,2.21-4.35,84.6,84.6,0,0,1,6.86-8.54C42.8,54,46.66,50.46,50.54,47a73.35,73.35,0,0,1,11.92-9c2.83-1.64,5.65-3.28,8.51-4.87,2-1.09,2.07-1,2.6,1.1,2.19,8.81,1.18,17.22-3.64,24.94C63.59,69.34,54.26,74.39,42.32,74.62Z"/><path class="cls-2" d="M70.89,27.4c-3.62,1.73-7.08,3.48-10.61,5.05A56.05,56.05,0,0,0,42.57,44.79c-4.06,4.19-8,8.55-11.9,12.86-2.6,2.84-4.37,6.24-6.26,9.55-.75,1.32-.85,1.41-2,.32-2-1.87-3.81-3.87-5.68-5.84a2,2,0,0,1-.32-2.74,3.17,3.17,0,0,0,.19-.42c4.12-7.06,8-14.29,13.74-20.23A66,66,0,0,1,48.71,24.81a57.62,57.62,0,0,1,14.18-5.27,2.53,2.53,0,0,1,2.87.82c1,1.23,2,2.37,3,3.62C69.5,25,70.13,26.19,70.89,27.4Z"/><path class="cls-1" d="M56.17,13.57c-1,.49-1.68.83-2.36,1.15-3.52,1.65-7.05,3.26-10.53,5a38.43,38.43,0,0,0-4.38,2.66A63.92,63.92,0,0,0,20.84,40.06C19.3,42.4,17.58,44.63,16,46.94c-1.26,1.85-2.43,3.76-3.64,5.65C8.72,45.2,9.69,30.71,18.8,20.85A32,32,0,0,1,56.17,13.57Z"/><path class="cls-3" d="M15,58.69c-.24-.19-.32-.23-.35-.29-2-3.17-2-3.3-.26-6.56A20.13,20.13,0,0,1,16,49.25q5.22-7.19,10.51-14.32A20.13,20.13,0,0,1,29.18,32C35.46,26.34,42.05,21.16,50,18c2.31-.92,4.58-1.95,6.83-3a2.08,2.08,0,0,1,2.38.1c1.18.87,2.4,1.69,3.9,2.75-.72.27-1.09.44-1.49.55A68.37,68.37,0,0,0,39,29.08,57.85,57.85,0,0,0,24.08,43.8c-2.85,4.27-5.41,8.74-8.09,13.13C15.67,57.45,15.39,58,15,58.69Z"/><path class="cls-3" d="M28.32,71.44c-1.14-.74-2.19-1.37-3.15-2.13-.14-.1.11-.88.33-1.24,1.69-2.71,3.11-5.67,5.2-8,5.11-5.77,10.39-11.41,15.88-16.82A47.46,47.46,0,0,1,61.89,33.5c2.08-.86,4-2,6-3a24.55,24.55,0,0,1,2.36-1c.63-.24,1.28-.64,1.74.34s-.3,1.16-.88,1.49c-4,2.3-8,4.53-11.91,6.94-4.66,2.87-8.69,6.58-12.75,10.22-3.14,2.8-6.06,5.84-9,8.89-3.68,3.86-6.91,8-8.65,13.19A4.76,4.76,0,0,1,28.32,71.44Z"/><path class="cls-4" d="M29.85,71.92s30-3.36,34.62-16.2,5.67-30.26,2-36.29c0,0,13.73,15.51,8.2,32.57S48.23,81.78,29.85,71.92Z"/><path d="M42.43,76.34a33.82,33.82,0,0,1,0-67.64A33.54,33.54,0,0,1,76.36,42.55,33.67,33.67,0,0,1,42.43,76.34Zm-.11-1.72c11.94-.23,21.27-5.28,27.61-15.43,4.82-7.72,5.83-16.13,3.64-24.94-.53-2.13-.64-2.19-2.6-1.1-2.86,1.59-5.68,3.23-8.51,4.87a73.35,73.35,0,0,0-11.92,9c-3.88,3.47-7.74,7-11.35,10.76a84.6,84.6,0,0,0-6.86,8.54,21.43,21.43,0,0,0-2.21,4.35c-.55,1.29-.49,1.37.78,1.85A30.08,30.08,0,0,0,42.32,74.62ZM70.89,27.4C70.13,26.19,69.5,25,68.72,24c-.92-1.25-2-2.39-3-3.62a2.53,2.53,0,0,0-2.87-.82,57.62,57.62,0,0,0-14.18,5.27A66,66,0,0,0,30.35,38.29c-5.74,5.94-9.62,13.17-13.74,20.23a3.17,3.17,0,0,1-.19.42,2,2,0,0,0,.32,2.74c1.87,2,3.72,4,5.68,5.84,1.14,1.09,1.24,1,2-.32,1.89-3.31,3.66-6.71,6.26-9.55,3.94-4.31,7.84-8.67,11.9-12.86A56.05,56.05,0,0,1,60.28,32.45C63.81,30.88,67.27,29.13,70.89,27.4ZM56.17,13.57A32,32,0,0,0,18.8,20.85C9.69,30.71,8.72,45.2,12.37,52.59c1.21-1.89,2.38-3.8,3.64-5.65,1.57-2.31,3.29-4.54,4.83-6.88A63.92,63.92,0,0,1,38.9,22.37a38.43,38.43,0,0,1,4.38-2.66c3.48-1.73,7-3.34,10.53-5C54.49,14.4,55.16,14.06,56.17,13.57ZM15,58.69c.37-.68.65-1.24,1-1.76,2.68-4.39,5.24-8.86,8.09-13.13A57.85,57.85,0,0,1,39,29.08,68.37,68.37,0,0,1,61.63,18.37c.4-.11.77-.28,1.49-.55-1.5-1.06-2.72-1.88-3.9-2.75a2.08,2.08,0,0,0-2.38-.1C54.59,16,52.32,17.06,50,18c-8,3.18-14.55,8.36-20.83,14a20.13,20.13,0,0,0-2.68,2.93Q21.19,42.06,16,49.25a20.13,20.13,0,0,0-1.58,2.59c-1.74,3.26-1.72,3.39.26,6.56C14.7,58.46,14.78,58.5,15,58.69Zm13.3,12.75a4.76,4.76,0,0,0,.56-.9c1.74-5.15,5-9.33,8.65-13.19,2.9-3.05,5.82-6.09,9-8.89,4.06-3.64,8.09-7.35,12.75-10.22,3.91-2.41,7.93-4.64,11.91-6.94.58-.33,1.37-.46.88-1.49s-1.11-.58-1.74-.34a24.55,24.55,0,0,0-2.36,1c-2,1-4,2.17-6,3a47.46,47.46,0,0,0-15.31,9.72C41.09,48.63,35.81,54.27,30.7,60c-2.09,2.36-3.51,5.32-5.2,8-.22.36-.47,1.14-.33,1.24C26.13,70.07,27.18,70.7,28.32,71.44Z"/><path class="cls-5" d="M19.14,25.89s6.33-13,21.67-12-9.69,8.87-15.68,13.43S16.94,29.2,19.14,25.89Z"/></svg>