<svg id="Capa_1" data-name="Capa 1" xmlns="http://www.w3.org/2000/svg" viewBox="0 0 85.04 85.04"><defs><style>.cls-1{fill:#f39200;}.cls-2{fill:#e94e1b;}.cls-3{fill:#fff;}.cls-4,.cls-6,.cls-7{fill:none;}.cls-4{stroke:#1d1d1b;stroke-miterlimit:10;stroke-width:0.89px;}.cls-5{fill:#1d1d1b;}.cls-6{stroke:#c51a21;stroke-width:2px;}.cls-6,.cls-7{stroke-linecap:round;stroke-linejoin:round;}.cls-7{stroke:#e94f35;stroke-width:1.3px;}.cls-8{fill:#e6332a;}</style></defs><circle class="cls-1" cx="42.52" cy="42.52" r="38.31"/><circle class="cls-2" cx="42.52" cy="42.52" r="33.44"/><circle class="cls-3" cx="42.52" cy="42.52" r="30.31"/><circle class="cls-4" cx="42.52" cy="42.52" r="38.31"/><circle class="cls-4" cx="42.52" cy="42.52" r="33.44"/><circle class="cls-4" cx="42.52" cy="42.52" r="30.31"/><path class="cls-5" d="M41,18.94h-.47V14.86l-.84.72-.29-.33,1.18-1H41Z"/><path class="cls-5" d="M45.1,18.94h-3v-.49L44,16.52l.21-.23a1.51,1.51,0,0,0,.18-.26,1.82,1.82,0,0,0,.13-.28,1,1,0,0,0,0-.3.87.87,0,0,0-.07-.37,1,1,0,0,0-.2-.28.92.92,0,0,0-.3-.18,1,1,0,0,0-.35-.06.92.92,0,0,0-.63.23,1.11,1.11,0,0,0-.33.6l-.47-.09a1.41,1.41,0,0,1,.17-.46,1.59,1.59,0,0,1,.32-.36,1.43,1.43,0,0,1,.94-.32,1.91,1.91,0,0,1,.54.08,1.55,1.55,0,0,1,.44.24,1.12,1.12,0,0,1,.3.41,1.2,1.2,0,0,1,.12.55,1.42,1.42,0,0,1-.07.42,1.65,1.65,0,0,1-.16.36,2.43,2.43,0,0,1-.24.32c-.09.11-.19.21-.29.31l-1.68,1.67H45.1Z"/><path class="cls-5" d="M42.57,68.11v0a.7.7,0,0,1,.3-.13,1.61,1.61,0,0,1,.37,0,1.47,1.47,0,0,1,.56.1,1.37,1.37,0,0,1,.45.3,1.19,1.19,0,0,1,.3.45,1.58,1.58,0,0,1,.11.58,1.64,1.64,0,0,1-.11.6,1.27,1.27,0,0,1-.32.46,1.39,1.39,0,0,1-.48.3,1.51,1.51,0,0,1-.61.11,1.49,1.49,0,0,1-.6-.11,1.31,1.31,0,0,1-.48-.3,1.27,1.27,0,0,1-.32-.46,1.64,1.64,0,0,1-.11-.6,1.67,1.67,0,0,1,.13-.67,4,4,0,0,1,.29-.59l1.27-2h.55Zm-.46,1.28a1.18,1.18,0,0,0,.08.43.93.93,0,0,0,.21.33,1.23,1.23,0,0,0,.33.23,1.16,1.16,0,0,0,.42.08,1.18,1.18,0,0,0,.43-.08,1.23,1.23,0,0,0,.33-.23.93.93,0,0,0,.21-.33,1.18,1.18,0,0,0,.07-.43,1.16,1.16,0,0,0-.07-.42,1,1,0,0,0-.2-.33.83.83,0,0,0-.33-.22,1,1,0,0,0-.44-.08,1,1,0,0,0-.43.08.83.83,0,0,0-.33.22.86.86,0,0,0-.2.33A1.16,1.16,0,0,0,42.11,69.39Z"/><path class="cls-5" d="M68.63,41.32h.2a1.87,1.87,0,0,0,.42,0,.93.93,0,0,0,.35-.15.67.67,0,0,0,.23-.27.8.8,0,0,0,.09-.39,1,1,0,0,0-.07-.36,1,1,0,0,0-.2-.28,1.11,1.11,0,0,0-.3-.17.84.84,0,0,0-.35-.07,1,1,0,0,0-.53.14,1,1,0,0,0-.36.41l-.4-.21a1.35,1.35,0,0,1,.55-.56,1.58,1.58,0,0,1,.76-.18,1.84,1.84,0,0,1,.53.08,1.49,1.49,0,0,1,.43.24,1.08,1.08,0,0,1,.3.4,1.12,1.12,0,0,1,.11.53,1,1,0,0,1-.23.7,1.12,1.12,0,0,1-.58.37h0a1.24,1.24,0,0,1,.67.39,1.11,1.11,0,0,1,.27.77,1.43,1.43,0,0,1-.12.6,1.45,1.45,0,0,1-.33.44,1.64,1.64,0,0,1-.48.28,1.79,1.79,0,0,1-.57.09,1.58,1.58,0,0,1-.9-.25,1.55,1.55,0,0,1-.58-.7L68,43a1,1,0,0,0,.39.52,1.1,1.1,0,0,0,.64.19,1,1,0,0,0,.38-.07.89.89,0,0,0,.33-.19,1,1,0,0,0,.31-.74.87.87,0,0,0-.1-.44,1,1,0,0,0-.27-.3,1.68,1.68,0,0,0-.39-.16,2.22,2.22,0,0,0-.45-.05h-.2Z"/><path class="cls-5" d="M57.38,23.21H56.9V19.14l-.84.71-.29-.32,1.18-1h.43Z"/><path class="cls-5" d="M67,32.05H64v-.5l1.91-1.93a2.4,2.4,0,0,0,.21-.23,1.44,1.44,0,0,0,.18-.25,2.39,2.39,0,0,0,.13-.28,1.06,1.06,0,0,0,0-.31.86.86,0,0,0-.07-.36.84.84,0,0,0-.2-.28.92.92,0,0,0-.3-.18,1,1,0,0,0-.35-.06.88.88,0,0,0-.63.23,1.08,1.08,0,0,0-.33.6l-.47-.1a1.44,1.44,0,0,1,.17-.45,1.59,1.59,0,0,1,.32-.36,1.64,1.64,0,0,1,.43-.24,1.4,1.4,0,0,1,.51-.09,1.61,1.61,0,0,1,.54.09,1.18,1.18,0,0,1,.44.24,1.08,1.08,0,0,1,.3.4,1.25,1.25,0,0,1,.12.56,1.3,1.3,0,0,1-.07.41,1.73,1.73,0,0,1-.16.37,2.43,2.43,0,0,1-.24.32l-.29.31-1.68,1.66H67Z"/><path class="cls-5" d="M20.41,32.05h-.47V28l-.85.72-.29-.33,1.19-1h.42Z"/><path class="cls-5" d="M23.12,27.26a1.24,1.24,0,0,1,.73.22,1.62,1.62,0,0,1,.47.56,3,3,0,0,1,.25.78,5.47,5.47,0,0,1,.08.9,5.26,5.26,0,0,1-.08.89,3,3,0,0,1-.25.79,1.58,1.58,0,0,1-.47.55,1.23,1.23,0,0,1-.73.21,1.21,1.21,0,0,1-.73-.21,1.48,1.48,0,0,1-.47-.55,2.71,2.71,0,0,1-.25-.79,5.26,5.26,0,0,1-.07-.89,5.46,5.46,0,0,1,.07-.9,2.64,2.64,0,0,1,.25-.78,1.52,1.52,0,0,1,.47-.56A1.22,1.22,0,0,1,23.12,27.26Zm0,.41a.69.69,0,0,0-.51.19,1.28,1.28,0,0,0-.33.48,2.63,2.63,0,0,0-.16.67,5.07,5.07,0,0,0,0,1.42,2.66,2.66,0,0,0,.16.66,1.37,1.37,0,0,0,.33.48.73.73,0,0,0,.51.19.76.76,0,0,0,.51-.19,1.35,1.35,0,0,0,.32-.48,2.66,2.66,0,0,0,.17-.66,5.07,5.07,0,0,0,0-1.42,2.63,2.63,0,0,0-.17-.67,1.27,1.27,0,0,0-.32-.48A.72.72,0,0,0,23.12,27.67Z"/><path class="cls-5" d="M27.06,23.21h-.48V19.14l-.84.71-.29-.32,1.19-1h.42Z"/><path class="cls-5" d="M30.22,23.21h-.48V19.14l-.84.71-.29-.32,1.19-1h.42Z"/><path class="cls-5" d="M67.9,54h.69v.42H67.9v1.12h-.46V54.41H65.31V54l2-3.08h.61Zm-.46-2.58h0L65.8,54h1.64Z"/><path class="cls-5" d="M57.78,61.77H55.84l0,1.44a1.5,1.5,0,0,1,.32-.08l.32,0a1.64,1.64,0,0,1,.6.11,1.31,1.31,0,0,1,.48.3,1.36,1.36,0,0,1,.32.46,1.63,1.63,0,0,1,.11.59,1.81,1.81,0,0,1-.11.63,1.46,1.46,0,0,1-.31.49,1.51,1.51,0,0,1-.49.33,1.61,1.61,0,0,1-.63.12,1.58,1.58,0,0,1-.86-.23,1.7,1.7,0,0,1-.54-.62l.43-.2a1,1,0,0,0,.38.47,1,1,0,0,0,.56.17,1,1,0,0,0,.44-.09,1,1,0,0,0,.35-.23,1,1,0,0,0,.22-.35,1,1,0,0,0,.09-.44,1.11,1.11,0,0,0-.09-.46,1,1,0,0,0-.25-.36,1.09,1.09,0,0,0-.36-.22,1.39,1.39,0,0,0-.46-.08,1.68,1.68,0,0,0-.5.07,2.72,2.72,0,0,0-.47.19l0-2.41h2.37Z"/><path class="cls-5" d="M30.35,61.78,28.47,66h-.53l1.93-4.24H27.58v-.43h2.77Z"/><path class="cls-5" d="M20.58,53.07a1.2,1.2,0,0,1,.63.44,1.31,1.31,0,0,1,.25.8,1.28,1.28,0,0,1-.12.56,1.34,1.34,0,0,1-.33.42,1.87,1.87,0,0,1-.48.27,1.79,1.79,0,0,1-.57.09,1.88,1.88,0,0,1-.57-.09,1.65,1.65,0,0,1-.47-.27,1.34,1.34,0,0,1-.33-.42,1.28,1.28,0,0,1-.12-.56,1.22,1.22,0,0,1,.25-.8,1,1,0,0,1,.28-.27,1,1,0,0,1,.35-.17v0a.89.89,0,0,1-.29-.15,1.36,1.36,0,0,1-.22-.25,1,1,0,0,1-.14-.31,1,1,0,0,1-.05-.34,1.27,1.27,0,0,1,.1-.52,1.24,1.24,0,0,1,.29-.39,1.46,1.46,0,0,1,.42-.25,1.35,1.35,0,0,1,.5-.09,1.44,1.44,0,0,1,.51.09,1.46,1.46,0,0,1,.42.25,1.24,1.24,0,0,1,.29.39,1.21,1.21,0,0,1-.1,1.17.88.88,0,0,1-.22.25.76.76,0,0,1-.28.15Zm-1.64,1.19a1,1,0,0,0,.08.39.76.76,0,0,0,.2.32,1.18,1.18,0,0,0,.32.21,1.16,1.16,0,0,0,.42.07,1.09,1.09,0,0,0,.42-.07A1,1,0,0,0,20.7,55a.89.89,0,0,0,.21-.32,1.12,1.12,0,0,0,0-.78,1,1,0,0,0-.21-.31.89.89,0,0,0-.32-.21,1.32,1.32,0,0,0-.42-.07,1.42,1.42,0,0,0-.42.07,1,1,0,0,0-.32.21.79.79,0,0,0-.2.31A1,1,0,0,0,18.94,54.26ZM19.11,52a.9.9,0,0,0,.06.34.83.83,0,0,0,.19.26.8.8,0,0,0,.27.18.88.88,0,0,0,.33.06,1,1,0,0,0,.34-.06.8.8,0,0,0,.27-.18.68.68,0,0,0,.18-.26.74.74,0,0,0,.07-.34.8.8,0,0,0-.07-.34.8.8,0,0,0-.45-.46.9.9,0,0,0-.34-.06.82.82,0,0,0-.61.24,1.12,1.12,0,0,0-.18.28A1,1,0,0,0,19.11,52Z"/><path class="cls-5" d="M16.92,41.94v0a.7.7,0,0,1-.3.13,1.64,1.64,0,0,1-.37.05,1.47,1.47,0,0,1-.56-.11,1.51,1.51,0,0,1-.45-.29,1.31,1.31,0,0,1-.3-.46,1.54,1.54,0,0,1-.11-.58,1.68,1.68,0,0,1,.11-.6,1.36,1.36,0,0,1,.32-.46,1.31,1.31,0,0,1,.48-.3,1.72,1.72,0,0,1,1.21,0,1.31,1.31,0,0,1,.48.3,1.36,1.36,0,0,1,.32.46,1.68,1.68,0,0,1,.11.6,1.63,1.63,0,0,1-.13.67,3.59,3.59,0,0,1-.29.59l-1.27,2h-.55Zm.46-1.28a1.16,1.16,0,0,0-.08-.42,1,1,0,0,0-.21-.34,1.1,1.1,0,0,0-.76-.31,1,1,0,0,0-.42.09,1,1,0,0,0-.33.22,1,1,0,0,0-.21.34,1.29,1.29,0,0,0,0,.84.91.91,0,0,0,.2.33.83.83,0,0,0,.33.22,1,1,0,0,0,.43.08,1,1,0,0,0,.44-.08.83.83,0,0,0,.33-.22.79.79,0,0,0,.2-.33A1.16,1.16,0,0,0,17.38,40.66Z"/><line class="cls-6" x1="42.52" y1="42.52" x2="37.41" y2="29.36"/><line class="cls-7" x1="42.34" y1="42.42" x2="20.49" y2="42.79"/><circle class="cls-8" cx="42.52" cy="42.52" r="1.27"/></svg>