<svg id="Capa_1" data-name="Capa 1" xmlns="http://www.w3.org/2000/svg" viewBox="0 0 85.04 85.04"><defs><style>.cls-1{fill:#6a9731;}.cls-2{fill:#b4ab19;}.cls-3{fill:#ee7247;}.cls-4{fill:#e4ca00;}.cls-5{fill:#68a130;}.cls-6{fill:#e59f00;}.cls-7{fill:#ea5436;}.cls-8{fill:#8fc034;}.cls-10,.cls-11,.cls-9{fill:#fff;}.cls-9{opacity:0.66;}.cls-10{opacity:0.59;}</style></defs><path d="M82.89,44.37A10.66,10.66,0,0,1,82,45.73c-3.61,3.76-7,7.75-10.89,11.21-5.27,4.71-10.91,9-16.38,13.47-.14.12-.33.18-.44.32-2.42,3.11-5.47,2.93-8.87,2C39.76,71.15,34,70,28.36,68.34c-3.38-1-6.57-2.59-9.88-3.84C13.58,62.63,8.65,60.84,3.75,59c-.51-.19-1.3-.65-1.29-.95a2.13,2.13,0,0,1,.89-1.6c2.66-1.24,4-3.7,5.78-5.8C14.74,43.91,20.37,37.21,26,30.47c3-3.6,5.83-7.31,8.79-10.93,2.39-2.93,4.81-5.82,7.29-8.67,1.37-1.58,2.1-1.71,3.56-.19,2.28,2.37,4.27,5,6.48,7.44a92.45,92.45,0,0,0,8.43,8.81A96.76,96.76,0,0,1,73.05,39a18.24,18.24,0,0,1,1.32,1.47c1.55,2.33,4.13,2.16,6.4,2.77A10.2,10.2,0,0,1,82.89,44.37Zm-33,1.3a13.76,13.76,0,0,1,8.19,6.26c1.81,3.25,3,6.84,4.42,10.25,6.9-4.34,11.69-11.26,17.73-17.12-3.48-.9-4.32,3.35-7.09,3.52l-.42-.47L75.63,45c-1.55-1.86-2.89-3.72-4.48-5.34-3.32-3.37-6.62-6.78-10.18-9.88-4.32-3.74-8.54-7.51-11.7-12.34a55.45,55.45,0,0,0-3.93-4.74C46.9,23.9,48.39,34.6,49.92,45.67Zm.48,26a3.35,3.35,0,0,0,.14-.79c-.82-7-1.57-14-2.56-21-.16-1.18-1.13-2.94-2.08-3.22-3.93-1.13-7.88-.47-12,.64.78,1.53,1.53,2.83,2.09,4.2.16.4-.2,1-.33,1.52-.4-.21-1-.32-1.19-.65A23.58,23.58,0,0,1,32.82,49c-.4-1.05-.93-1.42-2-.94-2.07.93-4.24,1.66-6.24,2.73-4.32,2.32-6.85,6.12-8.46,10.56C27,66.84,38.51,69.67,50.4,71.68Zm-7.2-60-35.15,43c1.51.76,3,1.42,4.36,2.22.34.2.41.87.61,1.32a4.1,4.1,0,0,1-1.44,0c-.95-.36-1.79-1-2.75-1.29-1.23-.34-2.65-1.24-3.72.67L14.6,61c2.83-8.17,8.85-12.67,16.73-14.82-.48-2-.95-3.7-1.25-5.41-.07-.42.39-.93.61-1.41.34.35.83.63,1,1,.35,1,.55,2.13.9,3.56A17.36,17.36,0,0,1,33.87,40,24.42,24.42,0,0,1,42,31.75c1.14-.66,1.65-.28,1.91.85a10.68,10.68,0,0,1-2.46,10.2c-.37.42-.72.85-1.14,1.34l7.34.66C47.48,33.72,45,23,43.2,11.7Zm9.23,58.59c2.39-1.85,4.6-3.64,6.91-5.3a2.21,2.21,0,0,0,.92-2.79,85,85,0,0,0-3.17-8.55c-1.46-3.07-5.28-5.72-7.53-5.86C50.5,55.14,51.44,62.53,52.43,70.29ZM42.25,33.71C38,35.6,34.18,41.11,34.52,44.9,38.59,44.81,44.23,39.43,42.25,33.71Z"/><path class="cls-1" d="M49.92,45.67c-1.53-11.07-3-21.77-4.58-33a55.45,55.45,0,0,1,3.93,4.74C52.43,22.26,56.65,26,61,29.77c3.56,3.1,6.86,6.51,10.18,9.88,1.59,1.62,2.93,3.48,4.48,5.34l-2.88,3.12.42.47c2.77-.17,3.61-4.42,7.09-3.52-6,5.86-10.83,12.78-17.73,17.12-1.44-3.41-2.61-7-4.42-10.25A13.76,13.76,0,0,0,49.92,45.67Z"/><path class="cls-2" d="M52.41,23.06a34.33,34.33,0,0,1,5.29,3.5,49.17,49.17,0,0,1-8.26-9.3,55.74,55.74,0,0,0-3.93-4.73c.59,4.29,1.18,8.49,1.76,12.68C47.89,23,49.29,21.49,52.41,23.06Z"/><path class="cls-2" d="M57.11,33.25c.8-.16,1.59-.32,2.39-.46a.57.57,0,0,1,.59.7c-.49,1.79-6.21,8.68-7.55,9.86,4.15-2.65,10.51-7.2,13.57-8.28a61.84,61.84,0,0,0-7.18-6.54A15.49,15.49,0,0,1,57.11,33.25Z"/><path class="cls-3" d="M50.4,71.68C38.51,69.67,27,66.84,16.1,61.3c1.61-4.44,4.14-8.24,8.46-10.56,2-1.07,4.17-1.8,6.24-2.73,1.09-.48,1.62-.11,2,.94a23.58,23.58,0,0,0,1.65,3.39c.2.33.79.44,1.19.65.13-.51.49-1.12.33-1.52-.56-1.37-1.31-2.67-2.09-4.2,4.12-1.11,8.07-1.77,12-.64,1,.28,1.92,2,2.08,3.22,1,7,1.74,14,2.56,21A3.35,3.35,0,0,1,50.4,71.68Z"/><path class="cls-4" d="M43.2,11.7C45,23,47.48,33.72,47.63,44.8l-7.34-.66c.42-.49.77-.92,1.14-1.34a10.68,10.68,0,0,0,2.46-10.2c-.26-1.13-.77-1.51-1.91-.85A24.42,24.42,0,0,0,33.87,40a17.36,17.36,0,0,0-1.31,3.92c-.35-1.43-.55-2.52-.9-3.56-.14-.41-.63-.69-1-1-.22.48-.68,1-.61,1.41.3,1.71.77,3.39,1.25,5.41C23.45,48.29,17.43,52.79,14.6,61L5.11,57.59c1.07-1.91,2.49-1,3.72-.67,1,.27,1.8.93,2.75,1.29a4.1,4.1,0,0,0,1.44,0c-.2-.45-.27-1.12-.61-1.32-1.38-.8-2.85-1.46-4.36-2.22Zm.16,9.58-.21-.05c0-.42.16-.93,0-1.24a6.26,6.26,0,0,0-1.77-2.2c-.32-.19-1.64.56-1.89,1.14a14.55,14.55,0,0,0-1.25,4.72,2.75,2.75,0,0,0,1.76,2,3,3,0,0,0,2.42-1.2A10.7,10.7,0,0,0,43.36,21.28Z"/><path class="cls-5" d="M37.74,31.51C32.52,33.91,27.61,37.06,22,38l-3,3.66c1.69-.61,3.36-1.27,5.05-1.87,3.31-1.18,6.72-2.1,10.1-3.07l3.24-.92a20.36,20.36,0,0,1,4.78-3.89c1.14-.66,1.65-.29,1.91.84.08.36.14.71.19,1.06l2.6-.77c-.22-1.67-.47-3.34-.74-5C43.29,29.13,40.49,30.25,37.74,31.51Z"/><path class="cls-6" d="M35.42,37.34c-4.05,1.15-8.14,2.26-12.09,3.74-1.84.68-3.66,1.39-5.5,2l-3.58,4.38c.46-.19.89-.38,1.24-.49,1.25-.4,2.51-.79,3.76-1.17,1.91-.59,3.83-1.15,5.74-1.7l5.59-1.58c-.12-.54-.24-1.08-.33-1.62s.39-.94.61-1.41c.33.34.83.63,1,1s.29,1,.42,1.52l1.14-.32A5.68,5.68,0,0,1,34,40.16a35.63,35.63,0,0,1,2.22-3.06Z"/><path class="cls-7" d="M52.43,70.29c-1-7.76-1.93-15.15-2.87-22.5,2.25.14,6.07,2.79,7.53,5.86a85,85,0,0,1,3.17,8.55A2.21,2.21,0,0,1,59.34,65C57,66.65,54.82,68.44,52.43,70.29Z"/><path class="cls-8" d="M42.25,33.71c2,5.72-3.66,11.1-7.73,11.19C34.18,41.11,38,35.6,42.25,33.71Z"/><path d="M43.36,21.28a10.7,10.7,0,0,1-1,3.19A3,3,0,0,1,40,25.67a2.75,2.75,0,0,1-1.76-2,14.55,14.55,0,0,1,1.25-4.72c.25-.58,1.57-1.33,1.89-1.14A6.26,6.26,0,0,1,43.12,20c.19.31,0,.82,0,1.24Zm-2.18-1.49-.83-.08c-.2,1.17-.44,2.33-.57,3.51,0,.25.34.63.61.77a.79.79,0,0,0,.74-.26A4.54,4.54,0,0,0,41.18,19.79Z"/><path class="cls-5" d="M41.18,19.79a4.54,4.54,0,0,1,0,3.94.79.79,0,0,1-.74.26c-.27-.14-.63-.52-.61-.77.13-1.18.37-2.34.57-3.51Z"/><path class="cls-9" d="M11.24,54.8l26.54-34a23.94,23.94,0,0,0,.43,2.86c.23.79-23.32,33-23.32,33s3.65,2,2.65,2.32a26.38,26.38,0,0,1-4.64.34L14.22,58Z"/><path class="cls-10" d="M47.4,16.47c0,.5,25.72,27.71,25.72,27.71S70.46,48.49,71.29,49s-3.65,4.65-3.65,4.65,2.66-4.65,2-5.48.67-3,.83-3.48S47.73,18.8,47.73,18.8Z"/><path class="cls-11" d="M30.15,52.92q0,.9-.81.9h-.42a2.53,2.53,0,0,0-.45.06c0,.13-.06.44-.11.94,0,.16-.11,1-.3,2.56,0,.13,0,.36-.06.71a7.09,7.09,0,0,1-.63,1.85A2.44,2.44,0,0,1,26,61.29a4.26,4.26,0,0,1-.81.2,2.7,2.7,0,0,1-2.07-1.32,1,1,0,0,1-.12-.43,1.2,1.2,0,0,1,.45-.83.88.88,0,0,1,.6-.3.5.5,0,0,1,.45.2l.27.41c.08.14.2.32.33.57a.52.52,0,0,0,.25.08.69.69,0,0,0,.53-.34,1.76,1.76,0,0,0,.31-.57,10.5,10.5,0,0,0,.54-2.82q.06-1,.15-2.07l-.11,0a6.29,6.29,0,0,0-.85.14l-.25.09a.67.67,0,0,1-.29.08q-.57,0-.57-.72a2.11,2.11,0,0,1,0-.33.84.84,0,0,1,.91-.75c.48-.09,1.28-.21,2.39-.38a12.86,12.86,0,0,1,1.39-.15.51.51,0,0,1,.45.29A1.08,1.08,0,0,1,30.15,52.92Z"/><path class="cls-11" d="M34.45,54.87a.77.77,0,0,1-.14.4,1.17,1.17,0,0,0-.12.2c-.09.36-.23,1.16-.42,2.38,0,.11-.07.33-.14.68a2.85,2.85,0,0,0-.07.61,3.46,3.46,0,0,0,0,.38,2.31,2.31,0,0,1,0,.39.76.76,0,0,1-.29.6,1,1,0,0,1-.67.25c-.3,0-.46-.23-.46-.69V60a2.58,2.58,0,0,1-1.53.65,1,1,0,0,1-1-.5,3.23,3.23,0,0,0-.2-.42,4.93,4.93,0,0,1-.22-1.93,4,4,0,0,1,0-.66c0-.31.1-.78.2-1.41s.35-1.09.65-1.09a.84.84,0,0,1,.32.07c.39.16.59.38.59.69a.55.55,0,0,1-.1.32,3.6,3.6,0,0,0-.24,1c-.05.38-.09.71-.1,1,0,0,0,.29.07,1,.06.34.15.52.27.52a.42.42,0,0,0,.15,0,2.84,2.84,0,0,0,1.22-.86c.14-.93.32-1.91.53-2.95.17-.83.44-1.24.8-1.24a.53.53,0,0,1,.24.06A.8.8,0,0,1,34.45,54.87Z"/><path class="cls-11" d="M40.29,55.87a.83.83,0,0,1-.1.38c0,.19-.12.47-.24.85s-.25,1.27-.44,2.29a9.47,9.47,0,0,1-1.8,4.32,1.59,1.59,0,0,1-1.26.68l-.71-.14c-.84-.16-1.26-.49-1.27-1a1.6,1.6,0,0,1,.11-.42,3.37,3.37,0,0,1,.19-.43.68.68,0,0,1,.61-.34q.45,0,.57.57v0a1.73,1.73,0,0,0,.53.12c.24,0,.5-.26.79-.78a3.71,3.71,0,0,0,.44-1.12,1.78,1.78,0,0,0,0-.2,4.42,4.42,0,0,1-.78.07,4,4,0,0,1-1.4-.25,1.71,1.71,0,0,1-1.1-1.8,2.58,2.58,0,0,1,.38-1.41,6.15,6.15,0,0,1,2.3-1.94,3.25,3.25,0,0,1,1.45-.48,1.1,1.1,0,0,1,.71.22C40,55.31,40.29,55.56,40.29,55.87ZM38.63,57c0-.36-.11-.54-.34-.54a.83.83,0,0,0-.35.09q-2.07,1.05-2.07,1.89v.22c0,.23.24.43.71.62a1.75,1.75,0,0,0,.65.13,2.19,2.19,0,0,0,.82-.17,7.86,7.86,0,0,0,.52-1.69A3,3,0,0,0,38.63,57Z"/><path class="cls-11" d="M46.1,56.79c0,.16,0,.36,0,.59a3.94,3.94,0,0,1-.36,1.48,3.89,3.89,0,0,1-1.2,1.43,3.78,3.78,0,0,1-2,.53,1.81,1.81,0,0,1-1.37-.94,2.39,2.39,0,0,1-.48-1.4,3.43,3.43,0,0,1,0-.41,4.29,4.29,0,0,1,1.2-2.9,2.35,2.35,0,0,1,1.62-.67,3.28,3.28,0,0,1,1.9.51A2,2,0,0,1,46.1,56.79Zm-1.31,0a1.5,1.5,0,0,0-.07-.47,2.66,2.66,0,0,0-.63-.35L44,56a1.17,1.17,0,0,0-.25.1.76.76,0,0,1-.32.11.79.79,0,0,1-.38-.12A.15.15,0,0,0,43,56l-.32.32a1.89,1.89,0,0,0-.45.64,10.08,10.08,0,0,0-.26,1.58c0,.25.23.47.6.67a1.73,1.73,0,0,0,.3.15,1.71,1.71,0,0,0,1.32-.69,2.37,2.37,0,0,0,.62-1.39A4.12,4.12,0,0,0,44.79,56.82Z"/></svg>