<svg id="Capa_1" data-name="Capa 1" xmlns="http://www.w3.org/2000/svg" viewBox="0 0 85.04 85.04"><defs><style>.cls-1{fill:#c6e8fb;}.cls-2{fill:#90d4f6;}.cls-3{fill:#e6f5fe;}.cls-4{fill:#41c0f0;opacity:0.65;}</style></defs><path class="cls-1" d="M55.6,65.74c-2.13-.6-4.05-1.19-6-1.67a27.64,27.64,0,0,0-9.07-.32c-3.08.27-6.13,1-9.19,1.51-1.78.32-1.86.33-1.86-1.49q0-15.89.05-31.79,0-7.83.07-15.66c0-.55,0-1.09,0-1.64s.2-.95,1-.81c2.37.41,4.77.66,7.15,1.06a41.27,41.27,0,0,0,15.31-.36c2.25-.47,2.31-.41,2.32,2q.12,23.39.21,46.75Z"/><path class="cls-2" d="M29.73,66.82c8.77-1.75,17-3.31,25.39.61a4.35,4.35,0,0,1-.77.56c-5.7,2.11-11.52,3.33-17.6,2.12A15.64,15.64,0,0,1,29.73,66.82Z"/><path class="cls-1" d="M55.29,69.21c.62,1,.22,1.63-.57,2.22a12.49,12.49,0,0,1-6.27,2.35c-4.73.43-9.49.64-14.19-.42a12.08,12.08,0,0,1-2.65-.86c-2.38-1.18-2.51-1.38-1.94-3.9a1.08,1.08,0,0,1,.45.05A20.22,20.22,0,0,0,43.51,71.8a83.31,83.31,0,0,0,10-2A16.2,16.2,0,0,0,55.29,69.21Z"/><path class="cls-2" d="M29.92,12.36c4.64-2.39,19-2.23,24.5.18C50.38,15.08,35,14.13,29.92,12.36Z"/><path class="cls-3" d="M34.56,17.76s-3.91-1-3.29,5.73,3.35-.56,5.74-2.95S36.7,17.22,34.56,17.76Z"/><path class="cls-4" d="M45.22,74s4.49.38,5.82-3.65.8-56.28.8-56.28l3.76-.26.95,54.77S55.53,77.09,45.22,74Z"/><path d="M28,42.07q0-13.44,0-26.88c0-3.36.69-4.38,4-4.85s7-.67,10.45-.94c4-.31,7.9.54,11.76,1.49,2.43.6,2.75,1,2.75,3.55Q57,39.22,56.92,64c0,2.09-.11,4.19-.07,6.29a2.72,2.72,0,0,1-1.37,2.5,16.41,16.41,0,0,1-8.57,2.77c-4.66.26-9.36.29-13.89-1.18a12.8,12.8,0,0,1-2-.71c-1.82-.92-2.94-2.05-2.88-4.49.19-9,.07-18.08.07-27.12ZM55.6,65.74V63.3q-.1-23.37-.21-46.75c0-2.39-.07-2.45-2.32-2a41.27,41.27,0,0,1-15.31.36c-2.38-.4-4.78-.65-7.15-1.06-.8-.14-1,.17-1,.81s0,1.09,0,1.64q0,7.83-.07,15.66,0,15.9-.05,31.79c0,1.82.08,1.81,1.86,1.49,3.06-.56,6.11-1.24,9.19-1.51a27.64,27.64,0,0,1,9.07.32C51.55,64.55,53.47,65.14,55.6,65.74ZM29.73,66.82a15.64,15.64,0,0,0,7,3.29c6.08,1.21,11.9,0,17.6-2.12a4.35,4.35,0,0,0,.77-.56C46.77,63.51,38.5,65.07,29.73,66.82Zm25.56,2.39a16.2,16.2,0,0,1-1.74.59,83.31,83.31,0,0,1-10,2,20.22,20.22,0,0,1-13.39-3.15,1.08,1.08,0,0,0-.45-.05c-.57,2.52-.44,2.72,1.94,3.9a12.08,12.08,0,0,0,2.65.86c4.7,1.06,9.46.85,14.19.42a12.49,12.49,0,0,0,6.27-2.35C55.51,70.84,55.91,70.22,55.29,69.21ZM29.92,12.36c5.12,1.77,20.46,2.72,24.5.18C48.93,10.13,34.56,10,29.92,12.36Z"/></svg>