<svg xmlns="http://www.w3.org/2000/svg" viewBox="0 0 85.04 85.04"><defs><style>.cls-1{isolation:isolate;}.cls-2{fill:#ef7c28;}.cls-2,.cls-3,.cls-4,.cls-5,.cls-6{stroke:#1d1d1b;stroke-miterlimit:10;}.cls-3,.cls-7{fill:#d45e2c;}.cls-4{fill:#f9b96a;}.cls-5{fill:none;}.cls-6{fill:#d0ccca;}.cls-7{mix-blend-mode:darken;}.cls-8{fill:#fff;}</style></defs><g class="cls-1"><g id="Capa_1" data-name="Capa 1"><rect class="cls-2" x="13.68" y="39.95" width="62.93" height="42.61"/><polygon class="cls-3" points="13.68 39.95 7.78 36.01 7.78 76 13.68 82.55 13.68 39.95"/><polygon class="cls-4" points="76.61 39.95 65.8 36.01 7.78 36.01 13.68 39.95 76.61 39.95"/><path class="cls-5" d="M69.4,61.25H20.89c-4,0-5.13-2.9-5.13-6.88L13.68,40H76.61l-2,14.53C74.64,58.46,73.38,61.25,69.4,61.25Z"/><rect class="cls-6" x="38.81" y="52.4" width="13.77" height="5.9" rx="2.95"/><path class="cls-6" d="M9.13,29.6a2.23,2.23,0,0,0-1.24.21,3.56,3.56,0,0,0-1.82,3.54,4.59,4.59,0,0,0,1.72,3.26c.07-1.06-.59-2.09-.45-3.19A27.53,27.53,0,0,1,9.13,29.6Z"/><path class="cls-6" d="M13.89,36.89a8.62,8.62,0,0,1-.48,3.63,3,3,0,0,0,2-2.48,5.35,5.35,0,0,0-.68-3.24,5.49,5.49,0,0,0-.32,1.65"/><path class="cls-6" d="M66.06,36l2.1.77a2.18,2.18,0,0,1-.51-1.43,31.59,31.59,0,0,0-.38-4.7C66.78,31.14,64.92,35.58,66.06,36Z"/><path class="cls-6" d="M75.34,40l1.59.51c.52.17.48-3.59.41-3.92A6.06,6.06,0,0,0,75.26,33C76.24,35.3,76.78,37.7,75.34,40Z"/><path class="cls-3" d="M67.76,33.94l8.85,3.17s-4.29-15.78-8.85-22.4S58.51,5.41,51.7,3c-6.49-2.28-6-.55-6-.55s7.87,3.17,11.91,7.1S66.89,20,67.76,33.94Z"/><path class="cls-2" d="M7.78,32.45l5.9,5.24s6.45-18.57,10.71-23.16S36.3,5,41,4,53.2,3.39,53.2,3.39,47.33.19,37.61,1.63,18.6,12.45,15.1,18.25,7.78,32.45,7.78,32.45Z"/><path class="cls-7" d="M13.68,44.86s1.47,16,1.77,18.14,1.29,1.64,5.11,1.75,46.65.11,48.29,0,2.52-3.5,2.52-3.5S25.92,61,22.53,61.14s-5-.11-5.71-1.86S14.2,43.54,14.2,43.54"/><path class="cls-7" d="M38.21,57.84a3.53,3.53,0,0,0,1,1.56,4.62,4.62,0,0,0,2.91.7q2.93,0,5.83-.26a5,5,0,0,0,1.71-.37,1.86,1.86,0,0,0,1.09-1.28,60.4,60.4,0,0,1-9.51.18,2.31,2.31,0,0,1-1.07-.25,2.17,2.17,0,0,1-.69-.91c-.56-1.11-.94-2.4-.14-3.48A3.56,3.56,0,0,0,38.21,57.84Z"/><rect class="cls-8" x="41.1" y="53.06" width="9.65" height="1.86" rx="0.93"/></g></g></svg>