<svg id="Capa_1" data-name="Capa 1" xmlns="http://www.w3.org/2000/svg" viewBox="0 0 85.04 85.04"><defs><style>.cls-1{fill:#e2b816;}.cls-2{fill:#d2ecfc;}.cls-3{fill:#f3faff;}</style></defs><path d="M17.13,44.19c0-9.91,1.45-18,4.9-25.61A34.45,34.45,0,0,1,29.81,7.37,18.83,18.83,0,0,1,41.67,1.91a16.1,16.1,0,0,1,8.51,1.9,25.51,25.51,0,0,1,9.28,8.56A45.28,45.28,0,0,1,66.15,28a61.86,61.86,0,0,1-1.79,35.36A36.28,36.28,0,0,1,55.18,78,19.57,19.57,0,0,1,46,83.05,16,16,0,0,1,35.69,82a24.22,24.22,0,0,1-9.6-8.18,46.47,46.47,0,0,1-7.61-17.91A57.62,57.62,0,0,1,17.13,44.19Zm49.39-1.37c-.19-2.61-.27-5.23-.57-7.82a49.79,49.79,0,0,0-6.5-20,29.15,29.15,0,0,0-6.72-7.87C46.5,2.17,39,2,32.68,6.87a28.56,28.56,0,0,0-4.6,4.53,39.31,39.31,0,0,0-7.26,14.66,61.16,61.16,0,0,0-2,22,52.5,52.5,0,0,0,6.15,21.32,28.85,28.85,0,0,0,7.16,8.75,16.42,16.42,0,0,0,10,3.9,16.5,16.5,0,0,0,11.4-4.46A32.13,32.13,0,0,0,61.67,66.1,58.2,58.2,0,0,0,66.52,42.82Z"/><path class="cls-1" d="M66.52,42.82A58.2,58.2,0,0,1,61.67,66.1a32.13,32.13,0,0,1-8.12,11.43A16.5,16.5,0,0,1,42.15,82a16.42,16.42,0,0,1-10-3.9,28.85,28.85,0,0,1-7.16-8.75A52.5,52.5,0,0,1,18.79,48a61.16,61.16,0,0,1,2-22A39.31,39.31,0,0,1,28.08,11.4a28.56,28.56,0,0,1,4.6-4.53C39,2,46.5,2.17,52.73,7.13A29.15,29.15,0,0,1,59.45,15,49.79,49.79,0,0,1,66,35C66.25,37.59,66.33,40.21,66.52,42.82ZM20.8,42.4a64,64,0,0,0,1.63,14,42.47,42.47,0,0,0,5.87,14A23.25,23.25,0,0,0,34.67,77,13.35,13.35,0,0,0,50.3,77a25.25,25.25,0,0,0,4.35-3.92A32.25,32.25,0,0,0,60.86,62a59.55,59.55,0,0,0,1.28-35,38.63,38.63,0,0,0-6.48-14,20.49,20.49,0,0,0-6.87-6,13.13,13.13,0,0,0-7-1.6A14.82,14.82,0,0,0,33.4,8.86a28.47,28.47,0,0,0-7.79,10.45C22.2,26.62,21,34.39,20.8,42.4Z"/><path d="M20.8,42.4c.17-8,1.4-15.78,4.81-23.09A28.47,28.47,0,0,1,33.4,8.86a14.82,14.82,0,0,1,8.41-3.42,13.13,13.13,0,0,1,7,1.6,20.49,20.49,0,0,1,6.87,6.05,38.63,38.63,0,0,1,6.48,14,59.55,59.55,0,0,1-1.28,35,32.25,32.25,0,0,1-6.21,11.06A25.25,25.25,0,0,1,50.3,77a13.35,13.35,0,0,1-15.63,0,23.25,23.25,0,0,1-6.37-6.59,42.47,42.47,0,0,1-5.87-14A64,64,0,0,1,20.8,42.4Zm1.52,1A53,53,0,0,0,24,56.64a38.72,38.72,0,0,0,6.87,14.85,18.26,18.26,0,0,0,5.88,5.11,11.89,11.89,0,0,0,11.48,0A16.91,16.91,0,0,0,53,72.88,32.87,32.87,0,0,0,59.69,61a58.33,58.33,0,0,0,1.71-31,41.5,41.5,0,0,0-5.66-14.34,22.2,22.2,0,0,0-6-6.43A12,12,0,0,0,35.61,9a17.93,17.93,0,0,0-1.72,1.29,28.25,28.25,0,0,0-7.54,10.87C23.47,28,22.3,35.1,22.32,43.39Z"/><path class="cls-2" d="M22.32,43.39c0-8.29,1.15-15.41,4-22.2a28.25,28.25,0,0,1,7.54-10.87A17.93,17.93,0,0,1,35.61,9a12,12,0,0,1,14.16.25,22.2,22.2,0,0,1,6,6.43A41.5,41.5,0,0,1,61.4,30.05a58.33,58.33,0,0,1-1.71,31A32.87,32.87,0,0,1,53,72.88a16.91,16.91,0,0,1-4.75,3.75,11.89,11.89,0,0,1-11.48,0,18.26,18.26,0,0,1-5.88-5.11A38.72,38.72,0,0,1,24,56.64,53,53,0,0,1,22.32,43.39Z"/><path class="cls-3" d="M25.62,32.8s28.52-15,28.19-7.09S23.14,46.82,40.71,43.37s26.37.66,16.59,8.3S31.1,66.25,32.09,63.44,60.45,50.36,49,48.86s-25.34,5-21.87-3.14S33.75,35.14,37.89,32.8,20.32,37.47,25.62,32.8Z"/></svg>