<svg id="Capa_1" data-name="Capa 1" xmlns="http://www.w3.org/2000/svg" viewBox="0 0 85.04 85.04"><defs><style>.cls-1{fill:#e94e1b;}.cls-2{fill:#fff;}.cls-3{fill:#ed6f36;}.cls-4,.cls-5{fill:#cb4d23;}.cls-5{opacity:0.57;}</style></defs><path class="cls-1" d="M39.16,64.77a55.12,55.12,0,0,1-11.32-1.48A4.69,4.69,0,0,1,26.71,63c-2.06-1-2.18-1.09-1.5-3.14.82-2.43,1.54-4.89,2.26-7.35.27-.91.61-1,1.51-.6a16.7,16.7,0,0,0,7,1.54c4.51,0,9,0,13.54.06a23.25,23.25,0,0,0,6.68-.9c1.3-.38,1.47-.24,1.84,1,.61,2.09,1.19,4.18,1.73,6.29.34,1.34.24,1.62-1.1,2.1a24.39,24.39,0,0,1-5.34,1.53C48.61,64.09,43.88,64.38,39.16,64.77Z"/><path class="cls-2" d="M43.12,52.1c-2.72,0-5.46.16-8.16-.05a39,39,0,0,1-5.88-1.26c-.74-.17-.91-.63-.65-1.4.75-2.28,1.44-4.59,2.13-6.9.23-.79.49-1.06,1.47-.81a37.68,37.68,0,0,0,15,.64c2.15-.33,4.29-.69,6.43-1.06a1,1,0,0,1,1.35.88c.71,2.62,1.45,5.24,2.19,7.86.2.68-.05,1-.72,1.14-2,.33-4,.8-6,.94-2.4.16-4.82,0-7.23,0Z"/><path class="cls-1" d="M40.42,41.5c-2.47-.24-5-.42-7.41-.74-1.47-.2-1.67-.62-1.24-2,.73-2.46,1.48-4.91,2.27-7.36.39-1.22.42-1.16,1.8-.9a55,55,0,0,0,12.28.89A9,9,0,0,0,49.94,31c1.64-.41,1.66-.42,2.09,1.06q.88,3,1.69,6.07c.41,1.54.36,1.74-1.26,2A53.58,53.58,0,0,1,41.6,41.36H40.44Z"/><path class="cls-3" d="M45,76.39c-5.34-1.48-10.29-2.84-15.23-4.22q-9-2.51-18-5.06c-1.93-.54-1.93-.56-1.94-2.47,0-2.66.17-2.84,2.76-2.15q15.21,4,30.42,8.14c1.93.52,1.93.54,2,2.46C45,74.09,45,75.1,45,76.39Z"/><path class="cls-1" d="M14.08,61.7c3.22-1.16,6.36-2.25,9.9-2.27a4.74,4.74,0,0,1-.25,1c-.66,1.12-.17,1.91.66,2.65A8.9,8.9,0,0,0,28.62,65a62.28,62.28,0,0,0,20.43.62c1.47-.17,2.94-.36,4.41-.46a19,19,0,0,0,6.68-2c1.31-.61,1.4-1.09.86-2.64-.37-1.08-.67-2.19-1.12-3.68,4.55,1,8.86,1.34,13.15,3.55-.86.4-1.37.68-1.91.87q-11.85,4.26-23.73,8.5a4.14,4.14,0,0,1-2.7.24C34.86,67.33,25,64.7,15.18,62,14.81,61.94,14.45,61.81,14.08,61.7Z"/><path class="cls-2" d="M46.22,30.05c-3.45-.22-6.16-.37-8.86-.58a5.62,5.62,0,0,1-1.8-.46,1,1,0,0,1-.47-.84c.76-2.61,1.58-5.2,2.37-7.79.17-.57.51-.68,1-.55a28,28,0,0,0,9,.32c.93-.08,1.26.21,1.48,1,.61,2.24,1.2,4.5,1.88,6.72.28.91,0,1.37-.84,1.53C48.55,29.69,47,29.91,46.22,30.05Z"/><path class="cls-4" d="M74.71,61.42c.43,4,.44,4-3,5.25L48.32,75.38a5.12,5.12,0,0,1-1.32.44c-.28,0-.82-.28-.83-.46-.09-1.09-.06-2.18-.05-3.27,0-.7.57-.84,1.09-1l7.93-2.79,17.41-6.13C73.2,61.92,73.86,61.7,74.71,61.42Z"/><path class="cls-1" d="M43.27,19c-1.32-.06-2.64-.09-4-.19-.82-.07-1.26-.45-1-1.4.75-2.28,1.43-4.59,2.13-6.88A1.54,1.54,0,0,1,42,9.31c3.57-.35,3.57-.38,4.58,3.21.46,1.64.88,3.29,1.37,4.92.28.94-.11,1.36-1,1.39-1.23.05-2.48,0-3.72,0Z"/><path class="cls-5" d="M44.15,9.16,55.82,63.52s4.44-1.24,4.81-2.1L46.08,9.16Z"/><path d="M76,62.45c0,.62,0,1.25,0,1.87.19,2,.2,1.94-1.64,2.62-8.55,3.12-17.14,6.15-25.63,9.44a9.06,9.06,0,0,1-6.05.22c-10.16-2.66-20.34-5.21-30.52-7.8-.3-.08-.61-.15-.9-.24-2.17-.62-2.39-.86-2.37-3,0-1.31.16-2.62.25-3.93,1.17-.36,2.32-.81,3.51-1.09,3.48-.82,7-1.69,10.47-2.31,1.5-.27,1.84-1.17,2.2-2.31Q31,37.69,36.61,19.51c.9-2.9,1.75-5.82,2.66-8.71.64-2.07,1.13-2.45,3.31-2.6,4.15-.3,3.52-.65,4.57,3.09q6,21.24,11.85,42.52A2.53,2.53,0,0,0,61.45,56c2.68.39,5.34,1,8,1.63,1.88.44,3.73,1,5.56,1.62a1.79,1.79,0,0,1,1,1.11,9.8,9.8,0,0,1,0,2.1ZM39.16,64.77c4.72-.39,9.45-.68,14.16-1.22A24.39,24.39,0,0,0,58.66,62c1.34-.48,1.44-.76,1.1-2.1-.54-2.11-1.12-4.2-1.73-6.29-.37-1.26-.54-1.4-1.84-1a23.25,23.25,0,0,1-6.68.9c-4.51,0-9-.1-13.54-.06a16.7,16.7,0,0,1-7-1.54c-.9-.4-1.24-.31-1.51.6C26.75,55,26,57.43,25.21,59.86c-.68,2-.56,2.1,1.5,3.14a4.69,4.69,0,0,0,1.13.29A55.12,55.12,0,0,0,39.16,64.77Zm4-12.67v0c2.41,0,4.83.12,7.23,0,2-.14,4-.61,6-.94.67-.11.92-.46.72-1.14-.74-2.62-1.48-5.24-2.19-7.86a1,1,0,0,0-1.35-.88c-2.14.37-4.28.73-6.43,1.06a37.68,37.68,0,0,1-15-.64c-1-.25-1.24,0-1.47.81-.69,2.31-1.38,4.62-2.13,6.9-.26.77-.09,1.23.65,1.4A39,39,0,0,0,35,52.05C37.66,52.26,40.4,52.1,43.12,52.1Zm-2.7-10.6,0-.14H41.6a53.58,53.58,0,0,0,10.86-1.25c1.62-.29,1.67-.49,1.26-2Q52.91,35,52,32c-.43-1.48-.45-1.47-2.09-1.06a9,9,0,0,1-1.82.39,55,55,0,0,1-12.28-.89c-1.38-.26-1.41-.32-1.8.9-.79,2.45-1.54,4.9-2.27,7.36-.43,1.43-.23,1.85,1.24,2C35.47,41.08,38,41.26,40.42,41.5ZM45,76.39c0-1.29,0-2.3,0-3.3,0-1.92,0-1.94-2-2.46q-15.21-4.08-30.42-8.14C10.07,61.8,9.87,62,9.9,64.64c0,1.91,0,1.93,1.94,2.47q9,2.55,18,5.06C34.74,73.55,39.69,74.91,45,76.39ZM14.08,61.7c.37.11.73.24,1.1.34C25,64.7,34.86,67.33,44.69,70a4.14,4.14,0,0,0,2.7-.24q11.86-4.25,23.73-8.5c.54-.19,1-.47,1.91-.87-4.29-2.21-8.6-2.56-13.15-3.55.45,1.49.75,2.6,1.12,3.68.54,1.55.45,2-.86,2.64a19,19,0,0,1-6.68,2c-1.47.1-2.94.29-4.41.46A62.28,62.28,0,0,1,28.62,65a8.9,8.9,0,0,1-4.23-1.87c-.83-.74-1.32-1.53-.66-2.65a4.74,4.74,0,0,0,.25-1C20.44,59.45,17.3,60.54,14.08,61.7ZM46.22,30.05c.81-.14,2.33-.36,3.84-.66.8-.16,1.12-.62.84-1.53-.68-2.22-1.27-4.48-1.88-6.72-.22-.78-.55-1.07-1.48-1a28,28,0,0,1-9-.32c-.54-.13-.88,0-1,.55-.79,2.59-1.61,5.18-2.37,7.79a1,1,0,0,0,.47.84,5.62,5.62,0,0,0,1.8.46C40.06,29.68,42.77,29.83,46.22,30.05ZM74.71,61.42c-.85.28-1.51.5-2.16.73L55.14,68.28l-7.93,2.79c-.52.18-1.08.32-1.09,1,0,1.09,0,2.18.05,3.27,0,.18.55.48.83.46a5.12,5.12,0,0,0,1.32-.44l23.42-8.71C75.15,65.39,75.14,65.38,74.71,61.42ZM43.27,19v-.12c1.24,0,2.49,0,3.72,0,.86,0,1.25-.45,1-1.39-.49-1.63-.91-3.28-1.37-4.92-1-3.59-1-3.56-4.58-3.21a1.54,1.54,0,0,0-1.51,1.18c-.7,2.29-1.38,4.6-2.13,6.88-.31.95.13,1.33,1,1.4C40.63,18.87,42,18.9,43.27,19Z"/></svg>