<svg id="Capa_1" data-name="Capa 1" xmlns="http://www.w3.org/2000/svg" viewBox="0 0 85.04 85.04"><defs><style>.cls-1{fill:#fff;}.cls-2{fill:#b7e2fa;}.cls-3{fill:#d4edfc;}.cls-4{fill:#1d1d1b;}.cls-5{fill:none;stroke:#00628b;stroke-linecap:round;stroke-linejoin:round;}</style></defs><polygon class="cls-1" points="72.04 56.53 42.68 74.87 12.95 56.12 10.57 20.32 42.95 7.08 74.04 19.94 72.04 56.53"/><polygon class="cls-2" points="74.04 19.94 72.04 56.53 42.68 74.87 42.71 55.27 42.74 36.48 74.04 19.94"/><polygon class="cls-3" points="42.74 36.48 42.71 55.27 10.57 20.32 42.74 36.48"/><path class="cls-4" d="M67.77,34.63a6.4,6.4,0,0,0,2.66-4.93c0-1.86-1.14-2.67-2.58-1.81a6.39,6.39,0,0,0-2.67,4.93C65.16,34.68,66.32,35.49,67.77,34.63Z"/><path class="cls-4" d="M50.7,38.11A6.39,6.39,0,0,0,48,43c0,1.86,1.14,2.67,2.59,1.81a6.38,6.38,0,0,0,2.66-4.93C53.3,38.06,52.14,37.25,50.7,38.11Z"/><path class="cls-4" d="M50.44,60.23a6.39,6.39,0,0,0-2.66,4.94c0,1.86,1.13,2.67,2.58,1.81A6.39,6.39,0,0,0,53,62C53,60.18,51.89,59.37,50.44,60.23Z"/><path class="cls-4" d="M67.59,50A6.39,6.39,0,0,0,64.93,55c0,1.86,1.14,2.67,2.58,1.81a6.39,6.39,0,0,0,2.66-4.94C70.2,50,69,49.15,67.59,50Z"/><path class="cls-4" d="M17.23,27.09C15.49,26.2,14,27,13.94,29a6,6,0,0,0,3,5.11c1.74.89,3.22,0,3.29-1.87A6,6,0,0,0,17.23,27.09Z"/><path class="cls-4" d="M35.5,57.56c-1.75-.89-3.22-.05-3.3,1.87a6.06,6.06,0,0,0,3,5.11c1.75.9,3.22.06,3.29-1.87A6,6,0,0,0,35.5,57.56Z"/><path class="cls-4" d="M49.47,14.45c1.67-.67,1.64-1.82-.06-2.56a9.1,9.1,0,0,0-6.11-.13c-1.67.67-1.65,1.82.06,2.56A9.1,9.1,0,0,0,49.47,14.45Z"/><path class="cls-4" d="M23.5,19.7c-1.67.67-1.64,1.82.06,2.56a9.13,9.13,0,0,0,6.12.13c1.67-.67,1.64-1.82-.06-2.56A9.13,9.13,0,0,0,23.5,19.7Z"/><path class="cls-4" d="M33.4,15.73c-1.67.67-1.64,1.82.06,2.56a9.13,9.13,0,0,0,6.12.13c1.66-.67,1.64-1.82-.07-2.56A9.1,9.1,0,0,0,33.4,15.73Z"/><path class="cls-4" d="M37.11,26.08c-1.67.69-1.63,1.83.08,2.56a9.16,9.16,0,0,0,6.11.07c1.67-.69,1.63-1.84-.08-2.56A9,9,0,0,0,37.11,26.08Z"/><path class="cls-4" d="M56.82,17.93c-1.66.69-1.62,1.84.09,2.56a9,9,0,0,0,6.11.07c1.66-.69,1.62-1.84-.08-2.56A9.18,9.18,0,0,0,56.82,17.93Z"/><path class="cls-4" d="M47,22c-1.66.68-1.62,1.83.09,2.56a9.09,9.09,0,0,0,6.11.06c1.66-.68,1.63-1.83-.08-2.56A9.12,9.12,0,0,0,47,22Z"/><polyline class="cls-5" points="10.57 20.32 42.74 36.48 74.04 19.94"/><line class="cls-5" x1="42.68" y1="74.87" x2="42.74" y2="36.48"/><polygon class="cls-5" points="72.04 56.53 42.68 74.87 12.95 56.12 10.57 20.32 42.95 7.08 74.04 19.94 72.04 56.53"/></svg>