<svg id="Capa_1" data-name="Capa 1" xmlns="http://www.w3.org/2000/svg" viewBox="0 0 85.04 85.04"><defs><style>.cls-1{fill:#d8b485;}.cls-2{fill:#ca9e67;}.cls-3{fill:#fed789;}.cls-4{fill:#b98650;}.cls-5{fill:#ffe59d;}</style></defs><path d="M77.58,35.75c0,6.16,0,12.32,0,18.47a3.52,3.52,0,0,1-1.69,3.28C68.53,62.69,61.18,68,53.82,73.19a7.39,7.39,0,0,0-1.5,1.11c-1.2,1.49-2.54,1.3-4.17.77C35.58,71,23,67,10.39,62.9a17.3,17.3,0,0,1-1.76-.59,1.79,1.79,0,0,1-1.2-1.82c0-.39,0-.78,0-1.17V21c0-.46,0-.93,0-1.4A1.71,1.71,0,0,1,8.79,17.9c6.44-2.27,12.92-4.44,19.29-6.9A18.5,18.5,0,0,1,38.42,9.87c10.66,1.81,21.39,3.19,32.09,4.76,2,.29,4,.64,6,1,.58.09,1,.26,1,1q0,9.57,0,19.15Zm-27,15.19h0q0-10.87,0-21.74c0-1.91,0-1.95-1.82-2.29q-18.9-3.64-37.81-7.26c-1.9-.36-2-.29-2.06,1.61,0,.31,0,.62,0,.93V58.66a4.94,4.94,0,0,0,0,1.39,1.84,1.84,0,0,0,.75,1,7.77,7.77,0,0,0,1.54.53C19.57,64.31,28,67,36.42,69.82c4.28,1.41,8.52,3,12.79,4.41,1,.36,1.25.2,1.32-.85,0-.39,0-.78,0-1.17ZM58.28,24c-2,.78-3.73,1.46-5.47,2.12a1.3,1.3,0,0,0-1,1.4c0,.46,0,.93,0,1.4q0,21.29-.05,42.58c0,.43.09.85.18,1.64,2.57-1.87,4.91-3.52,7.17-5.27a2.06,2.06,0,0,0,.46-1.45c0-2.26,0-4.52,0-6.78,0-.88-.4-2.15.71-2.44.57-.15,1.44.67,2.1,1.15,1.18.85,1.26.87,1.69-.53.27-.89.41-1.82.72-2.7.15-.39.54-.89.89-.95s.75.43,1,.77a13.51,13.51,0,0,1,.89,1.66,11.21,11.21,0,0,0,.57-1.09c.37-1,.68-2.08,1.11-3.08.12-.29.55-.45.84-.67.22.29.57.55.63.87.19,1,.24,2,.38,3s.31,1.94.46,2.91c.85-.5,1.68-1,2.56-1.48,1.78-.88,2.14-2.28,2.14-4.19,0-11.39,0-22.77.08-34.16,0-.52-.09-1-.15-1.81-2,.8-3.92,1.51-5.76,2.3a1.61,1.61,0,0,0-.73,1,6.36,6.36,0,0,0,0,1.63c.11,2.25.27,4.5.34,6.75a6.21,6.21,0,0,1-.27,2.06c-.34,1.15-.81,1.35-1.91,1-1.52-.52-1.52-.52-2.14.88a6.09,6.09,0,0,1-.3.63c-.47.77-1.09.87-1.71.24s-.95-1.12-1.51-1.8c-.68,1.15-1.19,2.11-1.81,3a1.42,1.42,0,0,1-1.12.58c-.32-.07-.68-.6-.78-1a10.57,10.57,0,0,1-.25-2.32C58.26,29.41,58.28,26.92,58.28,24Zm7.39-4.24.06-.43c-.59-.17-1.16-.37-1.76-.5-9.19-2-18.42-3.78-27.57-6-4.17-1-8.07-1.2-11.93.84-.48.25-1,.34-1.53.56a3.82,3.82,0,0,0-.74.55,2.32,2.32,0,0,0,.49.27Q40,18.8,57.35,22.44a3,3,0,0,0,1.58-.1C61.19,21.53,63.42,20.65,65.67,19.79ZM55.18,23.67a9.46,9.46,0,0,0-1.2-.52c-9.86-2.23-19.75-4.35-29.57-6.75a13.29,13.29,0,0,0-9.46.81c-1,.52-2.17.87-3.57,1.42.57.19.71.26.86.29L36.3,23.59c3.74.72,7.49,1.45,11.23,2.15a6,6,0,0,0,2.74.29A42.69,42.69,0,0,0,55.18,23.67Zm4.71,10c.58-1.08,1.13-2.18,1.75-3.22.46-.77.92-.75,1.39,0,.34.53.59,1.1.94,1.61s.7.36.87-.09c.33-.88.52-1.79.84-2.67.25-.69.75-.77,1.19-.21.19.24.26.6.48.8a6.93,6.93,0,0,0,1.08.66c.17-.32.49-.65.48-1-.09-2.87-.23-5.74-.39-8.61,0-.83-.65-.75-1.2-.54-2.32.9-4.62,1.84-6.94,2.73a1.56,1.56,0,0,0-1.07,1.58A24.94,24.94,0,0,0,59.89,33.67ZM73.58,16.5c-.78-.22-1.06-.33-1.35-.38-3.53-.53-7.07-1-10.59-1.58-8.52-1.34-17-2.7-25.54-4a4.82,4.82,0,0,0-4.05.77,11.84,11.84,0,0,0,1.59.53c10.91,2,21.83,4,32.72,6.19C68.94,18.51,71,17.91,73.58,16.5ZM60.87,66.72c3.08-2.24,5.89-4.28,8.69-6.34a1.13,1.13,0,0,0,.44-.77,8,8,0,0,0-.41-3.78c-.28.46-.44.71-.59,1-1.17,2-1.16,2-2.89.3-.07-.07-.27,0-.42,0-.33,1-.65,1.92-1,2.86a.88.88,0,0,1-1.48.46c-.73-.49-1.45-1-2.33-1.63Z"/><path class="cls-1" d="M50.54,50.94V72.21c0,.39,0,.78,0,1.17-.07,1.05-.27,1.21-1.32.85-4.27-1.45-8.51-3-12.79-4.41C28,67,19.57,64.31,11.14,61.56A7.77,7.77,0,0,1,9.6,61a1.84,1.84,0,0,1-.75-1,4.94,4.94,0,0,1,0-1.39V22.19c0-.31,0-.62,0-.93.09-1.9.16-2,2.06-1.61q18.92,3.62,37.81,7.26c1.8.34,1.82.38,1.82,2.29q0,10.86,0,21.74Z"/><path class="cls-2" d="M58.28,24c0,2.89,0,5.38,0,7.87a10.57,10.57,0,0,0,.25,2.32c.1.39.46.92.78,1a1.42,1.42,0,0,0,1.12-.58c.62-.88,1.13-1.84,1.81-3,.56.68,1,1.28,1.51,1.8S65,34,65.47,33.2a6.09,6.09,0,0,0,.3-.63c.62-1.4.62-1.4,2.14-.88,1.1.37,1.57.17,1.91-1a6.21,6.21,0,0,0,.27-2.06c-.07-2.25-.23-4.5-.34-6.75a6.36,6.36,0,0,1,0-1.63,1.61,1.61,0,0,1,.73-1c1.84-.79,3.72-1.5,5.76-2.3.06.77.15,1.29.15,1.81,0,11.39-.13,22.77-.08,34.16,0,1.91-.36,3.31-2.14,4.19-.88.44-1.71,1-2.56,1.48-.15-1-.33-1.94-.46-2.91s-.19-2-.38-3c-.06-.32-.41-.58-.63-.87-.29.22-.72.38-.84.67-.43,1-.74,2-1.11,3.08a11.21,11.21,0,0,1-.57,1.09A13.51,13.51,0,0,0,66.72,55c-.25-.34-.71-.82-1-.77s-.74.56-.89.95c-.31.88-.45,1.81-.72,2.7-.43,1.4-.51,1.38-1.69.53-.66-.48-1.53-1.3-2.1-1.15-1.11.29-.69,1.56-.71,2.44,0,2.26,0,4.52,0,6.78a2.06,2.06,0,0,1-.46,1.45c-2.26,1.75-4.6,3.4-7.17,5.27-.09-.79-.18-1.21-.18-1.64q0-21.28.05-42.58c0-.47,0-.94,0-1.4a1.3,1.3,0,0,1,1-1.4C54.55,25.49,56.27,24.81,58.28,24Z"/><path class="cls-3" d="M65.67,19.79c-2.25.86-4.48,1.74-6.74,2.55a3,3,0,0,1-1.58.1Q40,18.81,22.69,15.12a2.32,2.32,0,0,1-.49-.27,3.82,3.82,0,0,1,.74-.55c.49-.22,1-.31,1.53-.56,3.86-2,7.76-1.83,11.93-.84,9.15,2.18,18.38,4,27.57,6,.6.13,1.17.33,1.76.5Z"/><path class="cls-4" d="M55.18,23.67A42.69,42.69,0,0,1,50.27,26a6,6,0,0,1-2.74-.29C43.79,25,40,24.31,36.3,23.59L12.24,18.92c-.15,0-.29-.1-.86-.29,1.4-.55,2.52-.9,3.57-1.42a13.29,13.29,0,0,1,9.46-.81c9.82,2.4,19.71,4.52,29.57,6.75A9.46,9.46,0,0,1,55.18,23.67Z"/><path class="cls-5" d="M59.89,33.67a24.94,24.94,0,0,1-.58-8.94,1.56,1.56,0,0,1,1.07-1.58c2.32-.89,4.62-1.83,6.94-2.73.55-.21,1.16-.29,1.2.54.16,2.87.3,5.74.39,8.61,0,.31-.31.64-.48,1a6.93,6.93,0,0,1-1.08-.66c-.22-.2-.29-.56-.48-.8-.44-.56-.94-.48-1.19.21-.32.88-.51,1.79-.84,2.67-.17.45-.57.52-.87.09S63.37,31,63,30.43c-.47-.73-.93-.75-1.39,0C61,31.49,60.47,32.59,59.89,33.67Z"/><path class="cls-4" d="M73.58,16.5c-2.54,1.41-4.64,2-7.22,1.5-10.89-2.18-21.81-4.14-32.72-6.19a11.84,11.84,0,0,1-1.59-.53,4.82,4.82,0,0,1,4.05-.77c8.51,1.33,17,2.69,25.54,4,3.52.55,7.06,1.05,10.59,1.58C72.52,16.17,72.8,16.28,73.58,16.5Z"/><path class="cls-5" d="M60.87,66.72V58.81c.88.62,1.6,1.14,2.33,1.63A.88.88,0,0,0,64.68,60c.36-.94.68-1.9,1-2.86.15,0,.35-.09.42,0,1.73,1.7,1.72,1.7,2.89-.3.15-.26.31-.51.59-1A8,8,0,0,1,70,59.61a1.13,1.13,0,0,1-.44.77C66.76,62.44,64,64.48,60.87,66.72Z"/></svg>