<svg id="Capa_1" data-name="Capa 1" xmlns="http://www.w3.org/2000/svg" viewBox="0 0 85.04 85.04"><defs><style>.cls-1{fill:#00b8ee;}.cls-2{fill:#41c0f0;}.cls-3{fill:#00a8e8;}</style></defs><path class="cls-1" d="M6,19.45c1,.72,1.57,1.11,2.12,1.53L38.29,44.24a8.67,8.67,0,0,0,1.51,1.1A1.51,1.51,0,0,0,41,45.23q13.38-9,26.73-18,4.56-3.07,9.13-6.12c.56-.38,1.16-.7,2-1.17.06.83.14,1.42.14,2q0,21.29,0,42.57c0,2,0,2-1.87,2-2.65,0-5.3,0-7.95,0l-60.11.06c-3.14,0-2.88.33-2.9-2.89Q6.07,42.72,6,21.8Z"/><path class="cls-2" d="M6.48,17.86c24.15.07,47.81-.15,71.83.35a10,10,0,0,1-1.11,1.07q-18,12-36,24a1.75,1.75,0,0,1-2.44-.09q-15.48-12.07-31-24.09A17.18,17.18,0,0,1,6.48,17.86Z"/><path class="cls-3" d="M57.92,66.56s13.53,3,16.09-14.3-.33-21.93-4-26.59l8.83-5.77V66.75Z"/><path d="M42,16.91c11.54-.1,23.07-.18,34.61-.3,4.7-.05,3.83.51,3.83,3.84q0,23.15,0,46.3a4,4,0,0,1,0,.92c-.13.6-.3,1-1.11.64a7.54,7.54,0,0,0-2.67-.46q-28.17-.07-56.35-.08H6.68c-2,0-2.08,0-2.08-2.1,0-3.58.1-7.17.12-10.75q.06-17.08.1-34.15a19.66,19.66,0,0,0-.23-2.53c-.15-1.06.07-1.39,1.16-1.43.85,0,1.71,0,2.57,0H42ZM6,19.45V21.8q.09,20.92.18,41.86c0,3.22-.24,2.89,2.9,2.89l60.11-.06c2.65,0,5.3,0,7.95,0,1.87,0,1.87,0,1.87-2q0-21.28,0-42.57c0-.58-.08-1.17-.14-2-.8.47-1.4.79-2,1.17q-4.58,3-9.13,6.12-13.35,9-26.73,18a1.51,1.51,0,0,1-1.21.11,8.67,8.67,0,0,1-1.51-1.1L8.11,21C7.56,20.56,7,20.17,6,19.45Zm.49-1.59a17.18,17.18,0,0,0,1.29,1.27q15.51,12,31,24.09a1.75,1.75,0,0,0,2.44.09q18-12,36-24a10,10,0,0,0,1.11-1.07C54.29,17.71,30.63,17.93,6.48,17.86Z"/></svg>