<svg id="Capa_1" data-name="Capa 1" xmlns="http://www.w3.org/2000/svg" viewBox="0 0 85.04 85.04"><defs><style>.cls-1{fill:#fff;}.cls-2{fill:#3aaa35;}.cls-3{fill:#e30613;}</style></defs><path d="M43,17.55H81.84q.47,0,.93,0a.89.89,0,0,1,1.07.93c0,.55,0,1.09,0,1.64q0,22.1-.07,44.19a9.32,9.32,0,0,1,0,1.4,1.81,1.81,0,0,1-1.8,1.8,12.68,12.68,0,0,1-1.63,0q-35-.06-69.91-.12c-2.42,0-4.83-.1-7.25-.2-1.73-.07-1.95-.34-2-2.12,0-.31,0-.62,0-.93q.06-21.75.14-43.49c0-3,0-3.05,3.14-3.05H43Zm-14,24.87h0V63.24c0,.54,0,1.09,0,1.63,0,.88.32,1.29,1.23,1.26,1.09,0,2.18,0,3.27,0L52.93,66c2.33,0,2.34,0,2.35-2.26,0-1.48,0-3,0-4.44q0-18.84,0-37.66c0-3,.27-2.7-2.8-2.71-5.38,0-10.76,0-16.14,0-1.87,0-3.74,0-5.61,0-1.61,0-1.62,0-1.66,1.73,0,.47,0,.94,0,1.41Zm27.55.14h-.09V63.82c0,2.07,0,2.07,2,2.07l21.27-.06c2.91,0,2.63.16,2.63-2.66l-.06-41.59c0-.55,0-1.09,0-1.64s-.39-1-1-1l-1.17,0H58.86c-.39,0-.78,0-1.17,0-.82,0-1.1.41-1.08,1.15,0,.54,0,1.09,0,1.63Zm-28.85.12h-.06q0-10.87,0-21.75c0-2,0-2-1.86-2q-10.76,0-21.51,0c-1.82,0-1.85,0-1.85,1.78q.06,21.75.15,43.49c0,2.43.34,2,2.13,2l20.58,0h1.4a.9.9,0,0,0,1-1c0-.46,0-.93,0-1.4Z"/><path class="cls-1" d="M29.05,42.42V22.08c0-.47,0-.94,0-1.41,0-1.69.05-1.71,1.66-1.73,1.87,0,3.74,0,5.61,0,5.38,0,10.76,0,16.14,0,3.07,0,2.8-.32,2.8,2.71q0,18.82,0,37.66c0,1.48,0,3,0,4.44,0,2.24,0,2.25-2.35,2.26l-19.42.08c-1.09,0-2.18,0-3.27,0-.91,0-1.27-.38-1.23-1.26,0-.54,0-1.09,0-1.63V42.42Z"/><path class="cls-2" d="M56.6,42.56V21.76c0-.54,0-1.09,0-1.63,0-.74.26-1.19,1.08-1.15.39,0,.78,0,1.17,0H80.12l1.17,0c.65,0,1,.27,1,1s0,1.09,0,1.64l.06,41.59c0,2.82.28,2.65-2.63,2.66l-21.27.06c-2,0-2,0-2-2.07V42.56Z"/><path class="cls-3" d="M27.75,42.68v21c0,.47,0,.94,0,1.4a.9.9,0,0,1-1,1h-1.4l-20.58,0c-1.79,0-2.12.47-2.13-2Q2.54,42.46,2.46,20.7c0-1.74,0-1.78,1.85-1.78q10.76,0,21.51,0c1.84,0,1.86,0,1.86,2q0,10.88,0,21.75Z"/></svg>