<svg id="Capa_1" data-name="Capa 1" xmlns="http://www.w3.org/2000/svg" viewBox="0 0 85.04 85.04"><defs><style>.cls-1{fill:#d8ad74;}.cls-2{fill:#e5c084;}.cls-3{fill:#b98754;}.cls-4{fill:#ffe6a8;}.cls-5{fill:#e30613;}</style></defs><path d="M2.76,47c0-1.79,0-3.58,0-5.38,0-.92.13-1.66,1.31-1.82A4.41,4.41,0,0,0,5.7,39c10.75-7.2,21.53-14.35,32.2-21.66a6.36,6.36,0,0,1,5.34-1C55.47,18.57,67.73,20.75,80,23c.38.07.78.09,1.15.19a1.5,1.5,0,0,1,1.24,1.7c-.11,2.95-.15,5.9-.28,8.86a3,3,0,0,1-.49,1.69c-2.79,3.55-5.69,7-8.45,10.58C67.86,52.85,62.64,59.76,57.4,66.64c-2.06,2.7-2.07,2.7-5.27,1.74-5.45-1.63-10.89-3.23-16.32-4.89C26.57,60.67,17.35,57.81,8.12,55,6.58,54.5,5,54,3.48,53.56c-.74-.23-.84-.67-.8-1.42.1-1.7,0-3.42,0-5.14Zm2.76-6.44c5,1.32,9.5,2.49,14,3.72q16.42,4.47,32.84,9A3.11,3.11,0,0,0,56,52.18C63.52,43.55,71.15,35,78.75,26.43c.5-.57.94-1.19,1.48-1.87-.72-.2-1.24-.39-1.77-.49C66.65,21.67,54.83,19.3,43,16.85a4.16,4.16,0,0,0-3.47.73q-16,10.74-32,21.46C7,39.41,6.45,39.85,5.52,40.56Zm48,20.38H53.4c0-1.56,0-3.12,0-4.68,0-1.8,0-1.8-1.63-2.28l-.45-.11c-5.71-1.53-11.42-3.08-17.14-4.6A4.78,4.78,0,0,0,31.52,49c-.45.19-.42,1.53-.6,2.36,0,.07,0,.15-.05.23-.37,1.38-.49,1.49-2,1.09-2.4-.66-4.8-1.34-7.16-2.1-2.9-.93-2.88-1-3.06-4v-.23a1.26,1.26,0,0,0-1.14-1.46c-1.89-.46-3.76-1-5.64-1.53-2.25-.61-4.51-1.18-6.76-1.8-.76-.21-1.27-.09-1.28.78-.05,3-.05,6.08-.09,9.12a1.26,1.26,0,0,0,1.06,1.32l1.34.4,40.27,12c1.86.56,3.71,1.15,5.59,1.68,1.3.36,1.44.23,1.47-1.2S53.51,62.49,53.51,60.94ZM81,25.68c-.81.77-1.27,1.15-1.65,1.59q-6.27,7.08-12.52,14.17L55.61,54.24a3.2,3.2,0,0,0-1.08,2.23c0,3.34,0,6.69,0,10a3.29,3.29,0,0,0,.34,1,3,3,0,0,0,.9-.58c1.38-1.79,2.69-3.63,4.08-5.41q10-12.9,20.08-25.79a4.12,4.12,0,0,0,1.1-2C81.14,31.23,81.05,28.69,81,25.68ZM19.76,45.45c0,.81-.08,1.42-.11,2a1.26,1.26,0,0,0,.92,1.43c2.74.87,5.48,1.74,8.22,2.57.54.17.88-.12.94-.71a6,6,0,0,0,.17-1.61c-.09-.45-.44-1.11-.81-1.21C26.05,47.07,23,46.29,19.76,45.45Z"/><path class="cls-1" d="M5.52,40.56c.93-.71,1.45-1.15,2-1.52q16-10.74,32-21.46A4.16,4.16,0,0,1,43,16.85c11.8,2.45,23.62,4.82,35.43,7.22.53.1,1.05.29,1.77.49-.54.68-1,1.3-1.48,1.87C71.15,35,63.52,43.55,56,52.18a3.11,3.11,0,0,1-3.63,1.09q-16.41-4.53-32.84-9C15,43.05,10.51,41.88,5.52,40.56Zm19.26-2.22,0,.58a22.57,22.57,0,0,0,2.72.27c2.72,0,5.45-.07,8.16-.3,5.73-.5,11.46-1.09,17.18-1.72,1.24-.14,2.13-.24,2.91,1.11.91,1.6,2.35,1.61,3.73.4a2.81,2.81,0,0,0,.52-3.8,23.53,23.53,0,0,1-3-6.29,5,5,0,0,0-2.36-2.78c-1.6-1-4.33-.58-4.71.91-.43,1.64-1.57,1.93-2.78,2.41Q38.06,32.74,29,36.4C27.54,37,26.17,37.69,24.78,38.34Z"/><path class="cls-2" d="M53.51,60.94c0,1.55,0,3.11,0,4.67s-.17,1.56-1.47,1.2c-1.88-.53-3.73-1.12-5.59-1.68l-40.27-12-1.34-.4A1.26,1.26,0,0,1,3.78,51.4c0-3,0-6.08.09-9.12,0-.87.52-1,1.28-.78,2.25.62,4.51,1.19,6.76,1.8,1.88.5,3.75,1.07,5.64,1.53a1.26,1.26,0,0,1,1.14,1.46v.23c.18,3,.16,3.09,3.06,4,2.36.76,4.76,1.44,7.16,2.1,1.47.4,1.59.29,2-1.09,0-.08,0-.16.05-.23.18-.83.15-2.17.6-2.36a4.78,4.78,0,0,1,2.66.31c5.72,1.52,11.43,3.07,17.14,4.6l.45.11c1.59.48,1.61.48,1.63,2.28,0,1.56,0,3.12,0,4.68Z"/><path class="cls-3" d="M81,25.68c0,3,.1,5.55,0,8.08a4.12,4.12,0,0,1-1.1,2q-10,12.92-20.08,25.79c-1.39,1.78-2.7,3.62-4.08,5.41a3,3,0,0,1-.9.58,3.29,3.29,0,0,1-.34-1c0-3.35.05-6.7,0-10a3.2,3.2,0,0,1,1.08-2.23l11.26-12.8q6.25-7.09,12.52-14.17C79.77,26.83,80.23,26.45,81,25.68Z"/><path class="cls-3" d="M19.76,45.45c3.21.84,6.29,1.62,9.33,2.5.37.1.72.76.81,1.21a6,6,0,0,1-.17,1.61c-.06.59-.4.88-.94.71-2.74-.83-5.48-1.7-8.22-2.57a1.26,1.26,0,0,1-.92-1.43C19.68,46.87,19.72,46.26,19.76,45.45Z"/><path d="M24.78,38.34C26.17,37.69,27.54,37,29,36.4Q38,32.73,47.16,29.13c1.21-.48,2.35-.77,2.78-2.41.38-1.49,3.11-1.9,4.71-.91A5,5,0,0,1,57,28.59a23.53,23.53,0,0,0,3,6.29,2.81,2.81,0,0,1-.52,3.8c-1.38,1.21-2.82,1.2-3.73-.4C55,36.93,54.11,37,52.87,37.17c-5.72.63-11.45,1.22-17.18,1.72-2.71.23-5.44.25-8.16.3a22.57,22.57,0,0,1-2.72-.27Zm14-.86h2.53c.71,0,1.19-.26,1.18-1.07a1.81,1.81,0,0,1,1.38-1.92c1.66-.47,3.43-.48,4.49,1a2.26,2.26,0,0,0,2.74.92q.69-.14,1.38-.21c3.11-.35,3.17-.37,1.91-3.28a25.55,25.55,0,0,0-2.25-3.79,1.13,1.13,0,0,0-1-.39c-.28.05-.72.49-.7.72a2.71,2.71,0,0,1-1.71,3,3.52,3.52,0,0,1-3.73-.48,1.55,1.55,0,0,0-1.88-.18c-1,.42-2,.81-3.06,1.13s-1.29.74-1.05,1.84A9,9,0,0,1,38.81,37.48ZM51.15,26.83A9.39,9.39,0,0,1,53,28.38c.94,1.32,1.73,2.74,2.54,4.14a17.51,17.51,0,0,0,1.65,3c.57.65.44.84-.11,1.19s-.83.63-.3,1.06a1.81,1.81,0,0,0,1.35.49,1.85,1.85,0,0,0,.94-2.87,37.64,37.64,0,0,1-3.25-6.92C55,26.39,53.16,25.9,51.15,26.83ZM27.71,38.41l6.5-.38a10.11,10.11,0,0,0-.4-1.79c-.1-.25-.59-.58-.76-.51A16.76,16.76,0,0,0,27.71,38.41Zm8.54-1.28c1.31,0,1.94-.55,1.92-1.73,0-.7-.27-1.21-1.07-1.2a2.28,2.28,0,0,0-2.37,1.72C34.69,36.84,35,37.12,36.25,37.13ZM48,36.32c-1.19-1.55-2.6-1.35-4-1-.32.08-.5.81-.65,1.28a1.49,1.49,0,0,0,.87.45C45.48,37,46.76,37.2,48,36.32ZM45.17,31.1c2.09,1.11,3.43.94,4.15-.4a1.08,1.08,0,0,0,.1-.85c-.08-.16-.55-.26-.77-.18C47.53,30.09,46.43,30.58,45.17,31.1Z"/><path class="cls-4" d="M38.81,37.48a9,9,0,0,0,.27-2.75c-.24-1.1.08-1.54,1.05-1.84s2-.71,3.06-1.13a1.55,1.55,0,0,1,1.88.18,3.52,3.52,0,0,0,3.73.48,2.71,2.71,0,0,0,1.71-3c0-.23.42-.67.7-.72a1.13,1.13,0,0,1,1,.39,25.55,25.55,0,0,1,2.25,3.79c1.26,2.91,1.2,2.93-1.91,3.28q-.69.07-1.38.21a2.26,2.26,0,0,1-2.74-.92c-1.06-1.45-2.83-1.44-4.49-1a1.81,1.81,0,0,0-1.38,1.92c0,.81-.47,1.07-1.18,1.07Z"/><path class="cls-2" d="M51.15,26.83c2-.93,3.83-.44,4.65,1.66a37.64,37.64,0,0,0,3.25,6.92,1.85,1.85,0,0,1-.94,2.87,1.81,1.81,0,0,1-1.35-.49c-.53-.43-.12-.79.3-1.06s.68-.54.11-1.19a17.51,17.51,0,0,1-1.65-3c-.81-1.4-1.6-2.82-2.54-4.14A9.39,9.39,0,0,0,51.15,26.83Z"/><path class="cls-4" d="M27.71,38.41a16.76,16.76,0,0,1,5.34-2.68c.17-.07.66.26.76.51a10.11,10.11,0,0,1,.4,1.79Z"/><path class="cls-5" d="M36.25,37.13c-1.21,0-1.56-.29-1.52-1.21A2.28,2.28,0,0,1,37.1,34.2c.8,0,1.06.5,1.07,1.2C38.19,36.58,37.56,37.14,36.25,37.13Z"/><path class="cls-5" d="M48,36.32c-1.24.88-2.52.63-3.73.74a1.49,1.49,0,0,1-.87-.45c.15-.47.33-1.2.65-1.28C45.4,35,46.81,34.77,48,36.32Z"/><path class="cls-5" d="M45.17,31.1c1.26-.52,2.36-1,3.48-1.43.22-.08.69,0,.77.18a1.08,1.08,0,0,1-.1.85C48.6,32,47.26,32.21,45.17,31.1Z"/></svg>