<svg id="Capa_1" data-name="Capa 1" xmlns="http://www.w3.org/2000/svg" viewBox="0 0 85.04 85.04"><defs><style>.cls-1{fill:#fff;}.cls-2{fill:#b2e0f9;}.cls-3{fill:#fde2cb;}.cls-4{fill:#b17f4a;}.cls-5{fill:#95c11f;}.cls-6{fill:#bcd361;}.cls-7{fill:#009fe3;}.cls-8{fill:#ca9e67;}.cls-9{fill:#be1622;}</style></defs><path d="M75.18,43.24v34.6c0,2.62,0,2.61-2.59,2.61l-58.44,0c-.63,0-1.25,0-1.87,0-1.84-.06-2.37-.54-2.51-2.31,0-.54,0-1.09,0-1.63L9.85,12.4c0-2,0-4.05.07-6.08C10,5,10.26,4.74,11.61,4.64c.55,0,1.1,0,1.64,0l59.15,0c3.27,0,2.33-.09,2.82,2.65a11.29,11.29,0,0,1,0,2.1v33.9ZM11,42.45h.08V76.37c0,.62,0,1.24,0,1.87a.88.88,0,0,0,1,1c.39,0,.78,0,1.17,0L71,79.16c.55,0,1.1,0,1.64,0,1,.07,1.46-.35,1.4-1.36,0-.46,0-.93,0-1.4L74,57C74,41,74,25,73.89,9c0-3.9.29-3.29-3.22-3.3q-28.53-.08-57.08-.1C10.68,5.63,11,5.37,11,8.3,11,19.68,11,31.06,11,42.45Z"/><path class="cls-1" d="M11,42.45c0-11.39,0-22.77,0-34.15,0-2.93-.3-2.67,2.61-2.67q28.54,0,57.08.1c3.51,0,3.2-.6,3.22,3.3C74,25,74,41,74,57l0,19.42c0,.47,0,.94,0,1.4.06,1-.41,1.43-1.4,1.36-.54,0-1.09,0-1.64,0l-57.78.08c-.39,0-.78,0-1.17,0a.88.88,0,0,1-1-1c0-.63,0-1.25,0-1.87V42.45Zm3.64-2.9H14.4q0,12.84,0,25.7c0,.55,0,1.09,0,1.64,0,.84.35,1.32,1.24,1.31h1.17l50.72,0c.86,0,1.71,0,2.57-.08a.88.88,0,0,0,1-1.05c0-.39,0-.78,0-1.17q0-25.83,0-51.65c0-.47,0-.94,0-1.4A1.08,1.08,0,0,0,70,11.64c-1.09-.09-2.16-.32-3.24-.32q-25,0-50,0c-2.1,0-2.12,0-2.12,2.27Q14.61,26.58,14.61,39.55Z"/><path d="M14.61,39.55q0-13,0-25.93c0-2.23,0-2.27,2.12-2.27q25,0,50,0c1.08,0,2.15.23,3.24.32a1.08,1.08,0,0,1,1.08,1.24c0,.46,0,.93,0,1.4q0,25.83,0,51.65c0,.39,0,.78,0,1.17a.88.88,0,0,1-1,1.05c-.86,0-1.71.08-2.57.08l-50.72,0H15.68c-.89,0-1.25-.47-1.24-1.31,0-.55,0-1.09,0-1.64q0-12.86,0-25.7Zm1.11-14.24A16.34,16.34,0,0,0,17,24a8.66,8.66,0,0,1,3.67-2.81A38.7,38.7,0,0,1,26,19.29a2.65,2.65,0,0,0,2-1.63,5.73,5.73,0,0,1,2.67-2.85c1.84-.92,3.33-.63,4.38,1,.4.6.71.74,1.28.32a3.1,3.1,0,0,1,1-.59,7.18,7.18,0,0,1,2.46-.46c1,.1.81,1.18,1.12,1.85a1.08,1.08,0,0,0,.8.46c.54,0,1.08-.11,1.62-.12,2.29,0,5,1.79,5.51,4,.74,3.23.66,6.5-1.91,8.92-1.54,1.44-1.49,2.59-.53,4.18a23.48,23.48,0,0,1,1.48,3.17,7.52,7.52,0,0,1,.59,2c.72,8-3.21,13.29-10.13,15.63-.29.09-.61.13-.91.21-.84.26-.91,1-1,1.7,0,.27.51.66.86.9a2.48,2.48,0,0,0,2.2.43c4.85-1.31,9.86-1.36,14.82-1.67,3.5-.21,7-.12,10.52-.19,1.38,0,1.45-.1,1.48-1.48,0-1.79,0-3.58,0-5.37,0-1.39-.06-1.32-1.4-1.54a20.71,20.71,0,0,1-3.83-.9c-2.26-.84-3.69-2.36-3.17-5,.21-1.08-.28-1.49-1.16-1.92a3.41,3.41,0,0,1-2.21-2.53c-.45-3.18,1.12-6.76,4.31-7.3a1.38,1.38,0,0,0,.48-.22,30.72,30.72,0,0,1-.81-5.46,4.64,4.64,0,0,1,6-4.49,20.84,20.84,0,0,1,3.66,1.46c1.15.51,1.59.31,1.62-1,0-2.34,0-4.68,0-7,0-.92-.48-1.22-1.32-1.17-.46,0-.93,0-1.4,0H25.22c-2.73,0-5.46,0-8.18,0-1,0-1.36.39-1.35,1.38.05,2.8,0,5.61,0,8.41Zm31.53,16.3a9.64,9.64,0,0,0-.32-3c-1.7-3.68-3.57-7.27-5.36-10.9A2.89,2.89,0,0,0,38.33,26a7.32,7.32,0,0,1-2.56-.11,2.61,2.61,0,0,0-2.68.88c-1.63,1.52-3.45,2.71-5.84,2.41-.9-.11-1.06.41-1.06,1.12a10.09,10.09,0,0,1-1,5.22c-.63,1.12-1.13,2.09-.33,3.4.3.5,0,1.35.05,2A8.3,8.3,0,0,0,25,42.32c.24,1.2.53,2.39.73,3.6a.85.85,0,0,1-.37.71,1.25,1.25,0,0,1-.88-.11c-.18-.08-.22-.4-.38-.56-.75-.75-3-1-3.61-.27A3.87,3.87,0,0,0,19.93,49a2.16,2.16,0,0,0,1.83,1.89c1.23.18,2.55.67,3.66-.61.53-.61,1.3-.32,1.45.59a1.88,1.88,0,0,0,1.29,1.48c1,.46,2,.92,3,1.28a10.68,10.68,0,0,0,8.41-.27C44.47,51,47.38,47.31,47.25,41.61ZM42,25.94c.72,1.22,1.4,2.43,2.13,3.61.62,1,.84,1,1.71.13,2.31-2.35,2.64-5.21,1.86-8.22a4.74,4.74,0,0,0-5.34-3.16,17.1,17.1,0,0,0-2.09.87c-.18-.8-.38-1.61-.53-2.42s-.5-1-1.13-.67c-1,.5-1.89,1.07-2.8,1.66-1.15.74-1.28.7-1.58-.71-.36-1.64-1.05-2.08-2.62-1.56a4.3,4.3,0,0,0-2.84,2.9c-.41,1.5-1.37,1.81-2.65,2.09-3.57.78-6.78,2.23-9.11,5.23a5.4,5.4,0,0,0-1.32,3.6c.09,3.82,0,7.64,0,11.46,0,3.66,0,7.32,0,11a1.85,1.85,0,0,0,1,1.94,12.36,12.36,0,0,0,9.93.9,7.24,7.24,0,0,0,1.3-.75,4.22,4.22,0,0,0-4.25-1.54,4.45,4.45,0,0,1-4.17-7.06,3.08,3.08,0,0,1,1.78-.85,16.48,16.48,0,0,1,2.33,0c.27,0,.66-.14.75-.33a1,1,0,0,0-.12-.86,16.12,16.12,0,0,0-1.44-1.15c-.38-.31-.41-.56,0-.88,1.17-.82,1.42-1.39.66-2.55A1.85,1.85,0,0,1,23.59,36a3.54,3.54,0,0,0,.81-1.66c.29-1.6.48-3.22.66-4.84.14-1.33.19-1.44,1.54-1.44A6.47,6.47,0,0,0,30,27.56a11.33,11.33,0,0,0,4.09-3.75,11.46,11.46,0,0,1,.83-1.4c.2-.23.61-.28.93-.4a2.21,2.21,0,0,1,.09.83c-.18.61-.44,1.2-.75,2,3,0,5.75.31,8.42-.52a3.67,3.67,0,0,1,1.14-.18c.15,0,.33.26.42.44A.42.42,0,0,1,45,25C44.05,25.29,43.09,25.59,42,25.94Zm27.8,8.69h0c0-3.19,0-6.39,0-9.58,0-.5-.12-1.26-.44-1.45a16.87,16.87,0,0,0-5.25-2.36A3.86,3.86,0,0,0,59.56,25a11.47,11.47,0,0,0,1.22,4.93c.65,1.41.56,1.57-.89,1.74-2.55.3-3.71,1.36-4.2,3.85s.45,3.69,2.84,4.18c1.36.28,1.36.28.91,1.5-.93,2.57-.43,3.76,1.94,4.9a10.76,10.76,0,0,0,6.18.63A2.51,2.51,0,0,0,69.8,44C69.83,40.85,69.81,37.74,69.81,34.63ZM39.44,59.11l1.12,1.32a33.06,33.06,0,0,1,2.22,2.67A15,15,0,0,1,44,65.61a1.81,1.81,0,0,0,2,1.27c1.08-.08,2.18,0,3.27,0,6.38,0,12.76,0,19.15,0,1,0,1.44-.22,1.41-1.27,0-2.1,0-4.21,0-6.31,0-1-.36-1.47-1.3-1.55A29,29,0,0,0,65,57.48c-6.06.15-12.13.29-18.19.58C44.48,58.18,42.13,58.72,39.44,59.11Zm3.71,7.65a12.81,12.81,0,0,0-5.82-7.61,3.78,3.78,0,0,0-2.15-.61,11,11,0,0,1-5.88-1.15,2.51,2.51,0,0,0-2.77.31c-3.42,2-4.67,5.38-5.72,9.06ZM28.38,55.64c-2.29.2-4.33.34-6.36.57-2.2.24-4-1.1-6.26-1.64V64c1.64-.41,3-.7,4.34-1.11a2.06,2.06,0,0,0,1.19-.9c1.13-2.46,3.16-4,5.37-5.32C27.16,56.32,27.69,56,28.38,55.64Zm41.4-8.16c-2.12.62-2.2.62-2.22,1.63,0,2.17,0,4.35,0,6.52,0,.84.56,1,1.25,1s1-.39,1-1C69.79,53,69.78,50.38,69.78,47.48ZM35.09,55.77c-1.48-.36-3-.68-4.44-1.09-.67-.18-1,0-1.23.62A.91.91,0,0,0,30,56.58c1,.3,1.9.66,2.87.87C34.41,57.77,34.62,57.57,35.09,55.77ZM20.42,64c-1.31.28-2.35.47-3.37.73a1.87,1.87,0,0,0-1,.59,1.3,1.3,0,0,0-.24,1,1.09,1.09,0,0,0,.8.55c2.34.32,2.7.09,3.61-2.11C20.31,64.63,20.32,64.47,20.42,64Z"/><path class="cls-2" d="M15.72,25.31v-3c0-2.8,0-5.61,0-8.41,0-1,.33-1.4,1.35-1.38,2.72.06,5.45,0,8.18,0H67.07c.47,0,.94,0,1.4,0,.84,0,1.33.25,1.32,1.17,0,2.34,0,4.68,0,7,0,1.28-.47,1.48-1.62,1a20.84,20.84,0,0,0-3.66-1.46,4.64,4.64,0,0,0-6,4.49,30.72,30.72,0,0,0,.81,5.46,1.38,1.38,0,0,1-.48.22c-3.19.54-4.76,4.12-4.31,7.3a3.41,3.41,0,0,0,2.21,2.53c.88.43,1.37.84,1.16,1.92-.52,2.63.91,4.15,3.17,5a20.71,20.71,0,0,0,3.83.9c1.34.22,1.38.15,1.4,1.54,0,1.79,0,3.58,0,5.37,0,1.38-.1,1.44-1.48,1.48-3.51.07-7,0-10.52.19-5,.31-10,.36-14.82,1.67a2.48,2.48,0,0,1-2.2-.43c-.35-.24-.88-.63-.86-.9.07-.65.14-1.44,1-1.7.3-.08.62-.12.91-.21,6.92-2.34,10.85-7.61,10.13-15.63a7.52,7.52,0,0,0-.59-2,23.48,23.48,0,0,0-1.48-3.17c-1-1.59-1-2.74.53-4.18,2.57-2.42,2.65-5.69,1.91-8.92-.5-2.18-3.22-4-5.51-4-.54,0-1.08.16-1.62.12a1.08,1.08,0,0,1-.8-.46c-.31-.67-.15-1.75-1.12-1.85a7.18,7.18,0,0,0-2.46.46,3.1,3.1,0,0,0-1,.59c-.57.42-.88.28-1.28-.32-1.05-1.62-2.54-1.91-4.38-1A5.73,5.73,0,0,0,28,17.66a2.65,2.65,0,0,1-2,1.63,38.7,38.7,0,0,0-5.24,1.91A8.66,8.66,0,0,0,17,24,16.34,16.34,0,0,1,15.72,25.31Z"/><path class="cls-3" d="M47.25,41.61c.13,5.7-2.78,9.42-7.68,11.79a10.68,10.68,0,0,1-8.41.27c-1-.36-2-.82-3-1.28a1.88,1.88,0,0,1-1.29-1.48c-.15-.91-.92-1.2-1.45-.59-1.11,1.28-2.43.79-3.66.61A2.16,2.16,0,0,1,19.93,49a3.87,3.87,0,0,1,.56-3.35c.61-.69,2.86-.48,3.61.27.16.16.2.48.38.56a1.25,1.25,0,0,0,.88.11.85.85,0,0,0,.37-.71c-.2-1.21-.49-2.4-.73-3.6A8.3,8.3,0,0,1,24.89,41c0-.7.25-1.55-.05-2-.8-1.31-.3-2.28.33-3.4a10.09,10.09,0,0,0,1-5.22c0-.71.16-1.23,1.06-1.12,2.39.3,4.21-.89,5.84-2.41a2.61,2.61,0,0,1,2.68-.88,7.32,7.32,0,0,0,2.56.11,2.89,2.89,0,0,1,3.24,1.69c1.79,3.63,3.66,7.22,5.36,10.9A9.64,9.64,0,0,1,47.25,41.61ZM33.57,47a20.59,20.59,0,0,0,0,2.89,3,3,0,0,0,2.46,2.5,2.89,2.89,0,0,0,2.69-1.89c.41-.9.86-1.78,1.27-2.69a1.76,1.76,0,0,0,0-.65c-.26,0-.64-.08-.75,0-1,1.23-2.33,1.13-3.64.82A12,12,0,0,1,33.57,47Zm4.37-7.11c1.92-.1,2.61.56,2.36,2.37-.07.46-.52.87-.79,1.3l-.54.88c.42,0,.92.13,1.25,0,1.25-.67,1.56-1.88,1.05-3.67a2.6,2.6,0,0,0-4.06-1.46.48.48,0,0,0-.2.37c0,.11.15.29.25.3A3.11,3.11,0,0,0,37.94,39.84ZM27,39q1.24-2,2.48-4a.41.41,0,0,0-.13-.35c-.11-.06-.35-.09-.42,0C27.78,35.86,26.74,37.11,27,39Zm-3.09,8.9c-.1-.21-.14-.38-.25-.46a1.47,1.47,0,0,0-2.15.42c-.13.29,0,.71.05,1.07l.79-.22a11.78,11.78,0,0,0,1.19-.38C23.66,48.27,23.76,48.05,23.87,47.92ZM36,30.89c1.06,0,1.75,0,2.43,0,.23,0,.45-.23.67-.35-.23-.16-.44-.43-.69-.46A2.45,2.45,0,0,0,36,30.89Z"/><path class="cls-4" d="M42,25.94c1.08-.35,2-.65,3-1a.42.42,0,0,0,.19-.37c-.09-.18-.27-.44-.42-.44a3.67,3.67,0,0,0-1.14.18c-2.67.83-5.39.5-8.42.52.31-.8.57-1.39.75-2a2.21,2.21,0,0,0-.09-.83c-.32.12-.73.17-.93.4a11.46,11.46,0,0,0-.83,1.4A11.33,11.33,0,0,1,30,27.56,6.47,6.47,0,0,1,26.6,28c-1.35,0-1.4.11-1.54,1.44-.18,1.62-.37,3.24-.66,4.84A3.54,3.54,0,0,1,23.59,36a1.85,1.85,0,0,0-.09,2.65c.76,1.16.51,1.73-.66,2.55-.44.32-.41.57,0,.88a16.12,16.12,0,0,1,1.44,1.15,1,1,0,0,1,.12.86c-.09.19-.48.32-.75.33a16.48,16.48,0,0,0-2.33,0,3.08,3.08,0,0,0-1.78.85,4.45,4.45,0,0,0,4.17,7.06,4.22,4.22,0,0,1,4.25,1.54,7.24,7.24,0,0,1-1.3.75,12.36,12.36,0,0,1-9.93-.9,1.85,1.85,0,0,1-1-1.94c0-3.67,0-7.33,0-11,0-3.82.06-7.64,0-11.46A5.4,5.4,0,0,1,17,25.69c2.33-3,5.54-4.45,9.11-5.23,1.28-.28,2.24-.59,2.65-2.09a4.3,4.3,0,0,1,2.84-2.9c1.57-.52,2.26-.08,2.62,1.56.3,1.41.43,1.45,1.58.71.91-.59,1.84-1.16,2.8-1.66.63-.33,1,0,1.13.67s.35,1.62.53,2.42a17.1,17.1,0,0,1,2.09-.87,4.74,4.74,0,0,1,5.34,3.16c.78,3,.45,5.87-1.86,8.22-.87.88-1.09.89-1.71-.13C43.41,28.37,42.73,27.16,42,25.94Z"/><path class="cls-5" d="M69.81,34.63c0,3.11,0,6.22,0,9.34a2.51,2.51,0,0,1-2.24,2.77,10.76,10.76,0,0,1-6.18-.63C59,45,58.51,43.78,59.44,41.21c.45-1.22.45-1.22-.91-1.5-2.39-.49-3.29-1.82-2.84-4.18s1.65-3.55,4.2-3.85c1.45-.17,1.54-.33.89-1.74A11.47,11.47,0,0,1,59.56,25a3.86,3.86,0,0,1,4.53-3.77,16.87,16.87,0,0,1,5.25,2.36c.32.19.44.95.44,1.45,0,3.19,0,6.39,0,9.58Z"/><path class="cls-6" d="M39.44,59.11c2.69-.39,5-.93,7.4-1C52.9,57.77,59,57.63,65,57.48a29,29,0,0,1,3.48.28c.94.08,1.32.6,1.3,1.55,0,2.1,0,4.21,0,6.31,0,1-.46,1.27-1.41,1.27-6.39,0-12.77,0-19.15,0-1.09,0-2.19-.06-3.27,0a1.81,1.81,0,0,1-2-1.27,15,15,0,0,0-1.24-2.51,33.06,33.06,0,0,0-2.22-2.67C40.28,60.09,40,59.76,39.44,59.11Z"/><path class="cls-7" d="M43.15,66.76H20.81c1.05-3.68,2.3-7,5.72-9.06a2.51,2.51,0,0,1,2.77-.31,11,11,0,0,0,5.88,1.15,3.78,3.78,0,0,1,2.15.61A12.81,12.81,0,0,1,43.15,66.76Z"/><path class="cls-2" d="M28.38,55.64c-.69.39-1.22.68-1.72,1C24.45,58,22.42,59.49,21.29,62a2.06,2.06,0,0,1-1.19.9c-1.33.41-2.7.7-4.34,1.11V54.57c2.27.54,4.06,1.88,6.26,1.64C24.05,56,26.09,55.84,28.38,55.64Z"/><path class="cls-8" d="M69.78,47.48c0,2.9,0,5.52,0,8.15,0,.62-.24,1-1,1s-1.25-.17-1.25-1c0-2.17-.06-4.35,0-6.52C67.58,48.1,67.66,48.1,69.78,47.48Z"/><path class="cls-3" d="M35.09,55.77c-.47,1.8-.68,2-2.19,1.68-1-.21-1.91-.57-2.87-.87a.91.91,0,0,1-.61-1.28c.18-.63.56-.8,1.23-.62C32.12,55.09,33.61,55.41,35.09,55.77Z"/><path class="cls-6" d="M20.42,64c-.1.51-.11.67-.16.81C19.35,67,19,67.2,16.65,66.88a1.09,1.09,0,0,1-.8-.55,1.3,1.3,0,0,1,.24-1,1.87,1.87,0,0,1,1-.59C18.07,64.43,19.11,64.24,20.42,64Z"/><path d="M33.57,47a12,12,0,0,0,2.07,1c1.31.31,2.62.41,3.64-.82.11-.13.49,0,.75,0a1.76,1.76,0,0,1,0,.65c-.41.91-.86,1.79-1.27,2.69a2.89,2.89,0,0,1-2.69,1.89,3,3,0,0,1-2.46-2.5A20.59,20.59,0,0,1,33.57,47Zm.68,1.93a7.34,7.34,0,0,0,.67,1.69c.8,1.09,1.85,1,2.59-.13.43-.66.22-1.18-.54-1.28S35.34,49,34.25,48.88Z"/><path d="M37.94,39.84a3.11,3.11,0,0,1-.68,0c-.1,0-.24-.19-.25-.3a.48.48,0,0,1,.2-.37,2.6,2.6,0,0,1,4.06,1.46c.51,1.79.2,3-1.05,3.67-.33.18-.83,0-1.25,0l.54-.88c.27-.43.72-.84.79-1.3C40.55,40.4,39.86,39.74,37.94,39.84Z"/><path d="M27,39c-.22-1.91.82-3.16,1.93-4.38.07-.07.31,0,.42,0a.41.41,0,0,1,.13.35Q28.21,37,27,39Z"/><path d="M23.87,47.92c-.11.13-.21.35-.37.43a11.78,11.78,0,0,1-1.19.38l-.79.22c0-.36-.18-.78-.05-1.07a1.47,1.47,0,0,1,2.15-.42C23.73,47.54,23.77,47.71,23.87,47.92Z"/><path d="M36,30.89a2.45,2.45,0,0,1,2.41-.83c.25,0,.46.3.69.46-.22.12-.44.34-.67.35C37.77,30.92,37.08,30.89,36,30.89Z"/><path class="cls-9" d="M34.25,48.88c1.09.11,1.91.18,2.72.28s1,.62.54,1.28c-.74,1.14-1.79,1.22-2.59.13A7.34,7.34,0,0,1,34.25,48.88Z"/><ellipse cx="31.86" cy="40.02" rx="0.78" ry="1"/><ellipse cx="39.8" cy="36.81" rx="0.78" ry="1"/></svg>