<svg id="Capa_1" data-name="Capa 1" xmlns="http://www.w3.org/2000/svg" viewBox="0 0 85.04 85.04"><defs><style>.cls-1{fill:#f8ab41;}.cls-2{fill:#f9bc88;}.cls-3{fill:#8e5832;}.cls-4{fill:#d9a153;}.cls-5{fill:#cf772e;}.cls-6{fill:#fff;}.cls-7{fill:#c9c9c9;}.cls-8{fill:#1d1d1b;}</style></defs><path d="M84.05,44.14c-.23,3.29-.47,6.58-.7,9.88a2.34,2.34,0,0,1-2.24,2.22c-3.7.64-7.39,1.34-11.11,1.82-13,1.67-26.07,3.08-39,5a7.63,7.63,0,0,1-7.56-2.62c-4.48-4.72-9.28-9.15-13.76-13.88C7.19,44,4.89,41.29,1.86,39.34a2.05,2.05,0,0,1-.7-1.49c-.09-2.65-.09-5.31-.1-8A1.75,1.75,0,0,1,2.74,28c3.54-.38,7.07-.73,10.61-1.06,6.18-.56,12.38-1,18.56-1.66S44,23.81,50.11,23.1a2,2,0,0,1,1,0c5,2.32,10.2,4.29,14.88,7.12,4.13,2.5,8.31,4.79,12.65,6.86,2,1,4.17,2.08,5,4.42a15.38,15.38,0,0,1,.51,2.57Zm-42.91,16a6.74,6.74,0,0,0,.78,0c8.1-1,16.21-2,24.3-3,4.71-.62,9.4-1.42,14.11-2.1a2,2,0,0,0,1.89-2.21c.11-2.4.31-4.8.44-7.2,0-.92,0-1.85,0-3.12C64.93,46.66,47,48.25,29.14,50.37a10.39,10.39,0,0,0,.07,1c.05.28.13.56.18.78,3.17-1,6.26-1.32,9.32,0a4.34,4.34,0,0,1,2.86,4.36C41.46,57.71,41.29,58.88,41.14,60.14Zm2.94-24.36c-.22,2.86,1.88,5.06.23,7.22a39.72,39.72,0,0,1-4.85,4.64,305.56,305.56,0,0,0,42.29-6.57,33.18,33.18,0,0,0-5.16-3.23,75.22,75.22,0,0,1-10.38-5.67c-2.81-1.91-6.07-3.14-9-4.62a26.47,26.47,0,0,1-1.55,2.94C54,32.83,51.45,33.63,48.74,34,46.84,34.22,44.94,34.47,44.08,35.78ZM31.57,43,31,42.43a6.77,6.77,0,0,1,.95-1.1A35.59,35.59,0,0,0,35,39.16a33.11,33.11,0,0,0,4.2-4.43c1.16-1.56.7-2.55-1.1-3.11A17.44,17.44,0,0,0,35.13,31a58.77,58.77,0,0,0-17.06.39,22.26,22.26,0,0,0-7.26,2.32l12,10.53,4.28-1.45c-.39,2.21-2.32,1.74-3.53,3,.94.28,1.73.8,2.34.64a32.17,32.17,0,0,0,11-5.14,30.92,30.92,0,0,0,4.63-4.38c.8-.89.53-2-.34-3.12C39.12,38.29,35.35,40.66,31.57,43ZM28.2,62.24c0-.91,0-1.45,0-2,0-3-.06-6.09-.16-9.14A2,2,0,0,0,27.27,50c-2.33-2-4.74-3.84-7-5.84S16,39.91,13.62,38.09c-2.53-2-5.37-3.48-8-5.26-1-.68-1.89-1.53-3-2.47V37.9a60.66,60.66,0,0,1,5.16,4.17c3.65,3.64,7.13,7.44,10.73,11.13,2.62,2.69,5.31,5.31,8,7.93A10.69,10.69,0,0,0,28.2,62.24ZM43.29,34.76c1.75-1.67,3.76-2,5.81-2.3a9.64,9.64,0,0,0,3.8-1.25,9.51,9.51,0,0,0,2.44-3.07c.17-.28-.26-1.23-.66-1.51a9.84,9.84,0,0,0-8.82-1.51,15.43,15.43,0,0,1-3,.45C31.33,26.65,19.83,28.5,8.17,28.63a39.94,39.94,0,0,0-4.2.46l-.09.46,5.05,3.73a26.35,26.35,0,0,1,2.67-1.43c8.48-3.26,17.21-3.42,26-1.94A6.64,6.64,0,0,1,43.29,34.76ZM29.67,57.55c3.91.41,8.41-1.16,9.45-3.3-2-1.71-4.46-1.48-6.84-1.33-3,.2-3,.32-2.77,3.2C29.55,56.61,29.62,57.09,29.67,57.55Zm10.72-1.49L40,55.73c-2.9,2.82-6.64,3.15-10.46,3.5l.19,2.4c3.64-.22,6.91-1.1,9.56-3.53A7.33,7.33,0,0,0,40.39,56.06Zm3.33-15.52c-2.5,1.84-4.5,3.51-6.69,4.86s-4.62,2.44-6.58,3.45c3.8.13,7.18-2.06,10.57-4.14a8.3,8.3,0,0,0,2.1-2.12A7.19,7.19,0,0,0,43.72,40.54Zm-1-2.81c-4.35,5-9.93,7.76-15.89,10.08a2.3,2.3,0,0,0,1.29.08c1-.28,2-.64,3-1,4.22-1.43,7.64-4.11,10.94-7C42.7,39.42,43.42,38.76,42.76,37.73Z"/><path class="cls-1" d="M41.14,60.14c.15-1.26.32-2.43.43-3.6a4.34,4.34,0,0,0-2.86-4.36c-3.06-1.31-6.15-1-9.32,0-.05-.22-.13-.5-.18-.78a10.39,10.39,0,0,1-.07-1C47,48.25,64.93,46.66,82.66,42.48c0,1.27,0,2.2,0,3.12-.13,2.4-.33,4.8-.44,7.2A2,2,0,0,1,80.33,55c-4.71.68-9.4,1.48-14.11,2.1-8.09,1.06-16.2,2-24.3,3A6.74,6.74,0,0,1,41.14,60.14Z"/><path class="cls-2" d="M44.08,35.78c.86-1.31,2.76-1.56,4.66-1.8,2.71-.35,5.21-1.15,6.89-3.49a26.47,26.47,0,0,0,1.55-2.94c3,1.48,6.22,2.71,9,4.62a75.22,75.22,0,0,0,10.38,5.67,33.18,33.18,0,0,1,5.16,3.23,305.56,305.56,0,0,1-42.29,6.57A39.72,39.72,0,0,0,44.31,43C46,40.84,43.86,38.64,44.08,35.78Z"/><path class="cls-3" d="M31.57,43c3.78-2.36,7.55-4.73,9.55-9.29.87,1.1,1.14,2.23.34,3.12a30.92,30.92,0,0,1-4.63,4.38,32.17,32.17,0,0,1-10.95,5.14c-.61.16-1.4-.36-2.34-.64,1.21-1.23,3.14-.76,3.53-3l-4.28,1.45-12-10.53a22.26,22.26,0,0,1,7.26-2.32A58.77,58.77,0,0,1,35.13,31a17.44,17.44,0,0,1,2.93.65c1.8.56,2.26,1.55,1.1,3.11A33.11,33.11,0,0,1,35,39.16a35.59,35.59,0,0,1-3.05,2.17,6.77,6.77,0,0,0-.95,1.1Z"/><path class="cls-4" d="M32.19,31.46c1.82,0,7,.73,7.3,2.84.89-1.39.39-2.29-1.3-2.81a17.14,17.14,0,0,0-2.92-.66,58.77,58.77,0,0,0-17.06.39A22,22,0,0,0,11,33.55L12.66,35C18.13,31.45,25.91,31.43,32.19,31.46Z"/><path class="cls-5" d="M28.2,62.24a10.69,10.69,0,0,1-1.76-1.11c-2.69-2.62-5.38-5.24-8-7.93-3.6-3.69-7.08-7.49-10.73-11.13A60.66,60.66,0,0,0,2.55,37.9V30.36c1.15.94,2,1.79,3,2.47,2.66,1.78,5.5,3.31,8,5.26C16,39.91,18,42.2,20.25,44.18s4.69,3.88,7,5.84A2,2,0,0,1,28,51.11c.1,3,.12,6.09.16,9.14C28.21,60.79,28.2,61.33,28.2,62.24Zm-19.87-25a3.34,3.34,0,0,0-3-3.53c-1.08-.05-1.71,1-1.7,3,0,1.14,1.91,2.9,3.31,2.81C8.46,39.46,8.24,38.11,8.33,37.27ZM19.7,49.36c-.26-.54-.31-.77-.44-.88-1.77-1.46-3.54-2.91-5.35-4.31a.91.91,0,0,0-.88.17.94.94,0,0,0,.09.92c1.7,1.47,3.41,2.91,5.18,4.28C18.54,49.72,19.12,49.45,19.7,49.36ZM11,40.93l.41.54c.13-.47.52-1.1.35-1.38a4.9,4.9,0,0,0-1.56-1.44,1.09,1.09,0,0,0-1.05.09C8.2,39.8,8.34,41,9.59,42a5,5,0,0,0,1.53.54Z"/><path class="cls-1" d="M43.29,34.76a6.64,6.64,0,0,0-5.66-4.85c-8.82-1.48-17.55-1.32-26,1.94a26.35,26.35,0,0,0-2.67,1.43l-5-3.73L4,29.09a39.94,39.94,0,0,1,4.2-.46c11.66-.13,23.16-2,34.72-3.06a15.43,15.43,0,0,0,3-.45,9.84,9.84,0,0,1,8.82,1.51c.4.28.83,1.23.66,1.51a9.51,9.51,0,0,1-2.44,3.07,9.64,9.64,0,0,1-3.8,1.25C47.05,32.8,45,33.09,43.29,34.76Z"/><path class="cls-3" d="M29.67,57.55c-.05-.46-.12-.94-.16-1.43-.27-2.88-.2-3,2.77-3.2,2.38-.15,4.81-.38,6.84,1.33C38.08,56.39,33.58,58,29.67,57.55Z"/><path class="cls-6" d="M40.39,56.06a7.33,7.33,0,0,1-1.14,2c-2.65,2.43-5.92,3.31-9.56,3.53l-.19-2.4c3.82-.35,7.56-.68,10.46-3.5Z"/><path class="cls-3" d="M43.72,40.54a7.19,7.19,0,0,1-.6,2.05A8.3,8.3,0,0,1,41,44.71c-3.39,2.08-6.77,4.27-10.57,4.14,2-1,4.37-2.07,6.58-3.45S41.22,42.38,43.72,40.54Z"/><path class="cls-6" d="M42.76,37.73c.66,1-.06,1.69-.66,2.21-3.3,2.87-6.72,5.55-10.94,7-1,.33-2,.69-3,1a2.3,2.3,0,0,1-1.29-.08C32.83,45.49,38.41,42.69,42.76,37.73Z"/><path d="M8.33,37.27c-.09.84.13,2.19-1.43,2.28-1.4.09-3.31-1.67-3.31-2.81,0-2,.62-3.05,1.7-3A3.34,3.34,0,0,1,8.33,37.27ZM5.25,35.33c-.81,1.85.43,2.13,1.61,2.57C7.35,36.36,6.57,35.74,5.25,35.33Z"/><path d="M19.7,49.36c-.58.09-1.16.36-1.4.18-1.77-1.37-3.48-2.81-5.18-4.28a.94.94,0,0,1-.09-.92.91.91,0,0,1,.88-.17c1.81,1.4,3.58,2.85,5.35,4.31C19.39,48.59,19.44,48.82,19.7,49.36Z"/><path d="M11,40.93l.1,1.63A5,5,0,0,1,9.59,42c-1.25-1-1.39-2.22-.42-3.28a1.09,1.09,0,0,1,1.05-.09,4.9,4.9,0,0,1,1.56,1.44c.17.28-.22.91-.35,1.38Z"/><path class="cls-7" d="M5.25,35.33c1.32.41,2.1,1,1.61,2.57C5.68,37.46,4.44,37.18,5.25,35.33Z"/><path class="cls-8" d="M51.26,39.9a1,1,0,0,1,.42.15,1.44,1.44,0,0,1,.32.26.75.75,0,0,1,.15.25.18.18,0,0,1,0,.2l1.32,1.52a1,1,0,0,1,.21.37,1.15,1.15,0,0,1,0,.31V43a.63.63,0,0,1-.19.56,1,1,0,0,1-.59.24,2.81,2.81,0,0,1-1.33-.18A8,8,0,0,1,50.14,43a11.06,11.06,0,0,1-1.36-1,10.3,10.3,0,0,1-1.1-1.08,6.54,6.54,0,0,1-.91-1.36,3.77,3.77,0,0,1-.27-.69,1.33,1.33,0,0,1,0-.58,2.11,2.11,0,0,1,.38-.71,1,1,0,0,1,.72-.36h.38a4.81,4.81,0,0,1,.49.07,2.5,2.5,0,0,1,.52.19,1.31,1.31,0,0,1,.44.33.54.54,0,0,1,.16.32c0,.1,0,.15-.16.17H49.2a1.29,1.29,0,0,1-.24,0l-.33-.07a.9.9,0,0,0-.27,0l-.12,0a.24.24,0,0,0-.11.06,2.53,2.53,0,0,0-.36.37.94.94,0,0,0-.17.51,1.69,1.69,0,0,0,.17.72,4.89,4.89,0,0,0,.71,1,8.7,8.7,0,0,0,.92.9,8,8,0,0,0,1,.69,4,4,0,0,0,.93.43,1.62,1.62,0,0,0,.74.11.56.56,0,0,0,.39-.19.61.61,0,0,0,.11-.46l-1.18-1.37-.56.08-.56.07a1.16,1.16,0,0,1-.45-.12,1.34,1.34,0,0,1-.34-.28.59.59,0,0,1-.17-.33c0-.11.05-.17.2-.19l.88-.11.54-.08.34-.05Z"/><path class="cls-8" d="M58.11,42.4a1.08,1.08,0,0,1,.28.29.51.51,0,0,1,.09.25.16.16,0,0,1-.12.13A.66.66,0,0,1,58,43l-.28-.15-.25-.16a.55.55,0,0,1-.23.43,1.36,1.36,0,0,1-.48.15,1.87,1.87,0,0,1-.47,0,2.35,2.35,0,0,1-.61-.18,4.12,4.12,0,0,1-1-.61,6.39,6.39,0,0,1-.84-.8,6,6,0,0,1-.62-.84,4.65,4.65,0,0,1-.35-.77,2.51,2.51,0,0,1-.14-.67,1.72,1.72,0,0,1,.06-.57A.85.85,0,0,1,53,38.6a1,1,0,0,1,.2-.11l.24-.06a1.75,1.75,0,0,1,.51,0,1.53,1.53,0,0,1,.62.35l.45.52.3.35.2.24.15.18.67.75.72.76a3.51,3.51,0,0,0,.32.26l.36.27h0l.25.18C58.08,42.35,58.11,42.38,58.11,42.4Zm-1.72-.61c-.25-.23-.5-.48-.74-.74L55,40.27l-.41-.49c-.12-.15-.25-.29-.37-.43a.5.5,0,0,0-.19.13l-.11.13a.57.57,0,0,0-.08.4,1.78,1.78,0,0,0,.16.55,4.3,4.3,0,0,0,.35.61,4,4,0,0,0,.51.61,2.37,2.37,0,0,0,.45.36,1.89,1.89,0,0,0,.44.2.93.93,0,0,0,.36,0,.44.44,0,0,0,.24-.1A1.7,1.7,0,0,0,56.39,41.79Z"/><path class="cls-8" d="M59.63,42.12a1.43,1.43,0,0,1,.57.39.53.53,0,0,1,.15.24.24.24,0,0,1,0,.18.15.15,0,0,1-.13.09A.49.49,0,0,1,60,43l-.6-.25a.82.82,0,0,1-.23-.14l-.21-.19-5-5.73a.58.58,0,0,1-.13-.33.14.14,0,0,1,.14-.14.58.58,0,0,1,.32.07,1.73,1.73,0,0,1,.42.27l4.79,5.54.08,0Z"/><path class="cls-8" d="M61.69,41.85a1.82,1.82,0,0,1,.58.39,1.14,1.14,0,0,1,.15.24.3.3,0,0,1,0,.18.17.17,0,0,1-.13.1.77.77,0,0,1-.3,0l-.6-.25a1.53,1.53,0,0,1-.23-.15,1.63,1.63,0,0,1-.21-.19L56,36.4a.64.64,0,0,1-.14-.34.15.15,0,0,1,.14-.14.62.62,0,0,1,.33.07,2,2,0,0,1,.41.28l4.8,5.53a.11.11,0,0,0,.07,0Z"/><path class="cls-8" d="M64.56,40.69a.26.26,0,0,1,.19-.09.79.79,0,0,1,.25,0l.26.15a1.51,1.51,0,0,1,.23.21.79.79,0,0,1,.14.23.45.45,0,0,1,0,.23,1.55,1.55,0,0,1-.34.53,1.09,1.09,0,0,1-.63.29,1.8,1.8,0,0,1-.55,0,3,3,0,0,1-.68-.22,6.12,6.12,0,0,1-1.27-.79,7.54,7.54,0,0,1-1.12-1,5.58,5.58,0,0,1-.74-1.07,1.28,1.28,0,0,1-.18-.88,1,1,0,0,1,.26-.5,1,1,0,0,1,.56-.24,1.48,1.48,0,0,1,.42,0,2.17,2.17,0,0,1,.49.14,3.48,3.48,0,0,1,.54.28,4.6,4.6,0,0,1,.52.38,3,3,0,0,1,.44.43,2.42,2.42,0,0,1,.22.28,1,1,0,0,1,.14.28.79.79,0,0,1,0,.47.89.89,0,0,1-.18.38,1.77,1.77,0,0,1-.31.3l-.36.23-.22.14-.07,0a3.06,3.06,0,0,0,.74.44,1,1,0,0,0,.64.08.51.51,0,0,0,.36-.26A2,2,0,0,0,64.56,40.69Zm-3.29-1.91a.57.57,0,0,0,0,.52,2.53,2.53,0,0,0,.43.68l.05,0,.13-.09.23-.18.16-.12.21-.17a.74.74,0,0,0,.14-.22.3.3,0,0,0,0-.26,1.33,1.33,0,0,0-.46-.4.76.76,0,0,0-.39-.08.62.62,0,0,0-.32.14A1.18,1.18,0,0,0,61.27,38.78Z"/><path class="cls-8" d="M63.87,38.19a1.12,1.12,0,0,1-.44-.13,1.45,1.45,0,0,1-.36-.28.63.63,0,0,1-.16-.33c0-.11.05-.17.2-.19l.37,0-1.39-1.59a.58.58,0,0,1-.13-.35.14.14,0,0,1,.14-.14.63.63,0,0,1,.33.07,1.38,1.38,0,0,1,.42.29l1.41,1.62L65,37a1.26,1.26,0,0,1,.42.16,1.18,1.18,0,0,1,.32.26q.29.33,0,.51l-.68.08L66.72,40l.56.65.57.65a.64.64,0,0,1,.21.4.17.17,0,0,1-.16.16.64.64,0,0,1-.35-.08,1.77,1.77,0,0,1-.45-.34l-.71-.82-.73-.84-1.39-1.6Z"/><path class="cls-8" d="M72,40.61a1.49,1.49,0,0,1,.28.29.51.51,0,0,1,.09.25.16.16,0,0,1-.13.13.64.64,0,0,1-.34,0l-.27-.16-.25-.16a.54.54,0,0,1-.23.43,1.36,1.36,0,0,1-.48.15,1.84,1.84,0,0,1-.47,0,2.43,2.43,0,0,1-.61-.19,4.12,4.12,0,0,1-1-.61,6.39,6.39,0,0,1-.84-.8,6,6,0,0,1-.62-.84,4,4,0,0,1-.35-.77,2.51,2.51,0,0,1-.14-.67,1.63,1.63,0,0,1,.06-.56.35.35,0,0,1,.08-.12.6.6,0,0,1,.14-.13l.2-.1a.94.94,0,0,1,.24-.06,1.46,1.46,0,0,1,.51,0,1.49,1.49,0,0,1,.62.34l.45.52.3.35c.08.1.14.18.2.24l.15.18.67.75c.24.26.48.52.72.76a2.22,2.22,0,0,0,.31.26l.37.27h0l.25.18C72,40.56,72,40.59,72,40.61ZM70.29,40c-.25-.24-.5-.49-.74-.75l-.69-.78L68.45,38l-.37-.43a.43.43,0,0,0-.19.13l-.11.13a.59.59,0,0,0-.08.41,1.81,1.81,0,0,0,.16.54,3.57,3.57,0,0,0,.35.62,3.53,3.53,0,0,0,.51.6,2.09,2.09,0,0,0,.45.36,1.63,1.63,0,0,0,.43.2.82.82,0,0,0,.37,0,.38.38,0,0,0,.24-.1A1.62,1.62,0,0,0,70.29,40Z"/><path class="cls-8" d="M72.3,40.26a1.19,1.19,0,0,1-.44-.51c0-.14,0-.22.14-.24a1,1,0,0,1,.41.09,4.8,4.8,0,0,0,.83.44.79.79,0,0,0,.61.08A.18.18,0,0,0,74,40a.36.36,0,0,0,0-.22.88.88,0,0,0-.17-.26,1.55,1.55,0,0,0-.27-.24,2.36,2.36,0,0,0-.36-.21,1.37,1.37,0,0,0-.28-.1,1.11,1.11,0,0,0-.23,0l-.2,0-.32,0-.34-.09a2.76,2.76,0,0,1-.37-.16,4.26,4.26,0,0,1-.44-.25A4.35,4.35,0,0,1,70.5,38a3.64,3.64,0,0,1-.34-.33,2.79,2.79,0,0,1-.33-.46,2.08,2.08,0,0,1-.19-.45,1,1,0,0,1,0-.36.34.34,0,0,1,.15-.24,1.14,1.14,0,0,1,.68-.12,3.08,3.08,0,0,1,.9.21,1.54,1.54,0,0,1,.36.2,1.1,1.1,0,0,1,.25.21.65.65,0,0,1,.14.23.28.28,0,0,1,0,.18.15.15,0,0,1-.13.09.61.61,0,0,1-.3-.06,2.49,2.49,0,0,0-.38-.08.77.77,0,0,0-.37,0,.17.17,0,0,0-.16.18c0,.09.09.23.27.43a1.46,1.46,0,0,0,.29.17,1,1,0,0,0,.26.11l.26.07.24,0,.64.16a3.66,3.66,0,0,1,.62.25,4.25,4.25,0,0,1,.61.4,5.53,5.53,0,0,1,.61.59,2.84,2.84,0,0,1,.37.56,1.48,1.48,0,0,1,.16.51.58.58,0,0,1-.06.38.39.39,0,0,1-.29.18,2.56,2.56,0,0,1-1.1-.15,5.6,5.6,0,0,1-1.31-.63Z"/><path class="cls-8" d="M44.59,56.2a.68.68,0,0,1-.05-.23.39.39,0,0,1,.06-.27.22.22,0,0,1,.18-.13.14.14,0,0,1,.11,0l.11.08a1.55,1.55,0,0,0,.42.35.7.7,0,0,0,.46.07.56.56,0,0,0,.42-.27,1.06,1.06,0,0,0,.13-.53,1.21,1.21,0,0,0-.1-.47.7.7,0,0,0-.23-.25.74.74,0,0,0-.29-.12l-.26,0a2.62,2.62,0,0,1-.38-.09,1,1,0,0,1-.32-.21.91.91,0,0,1-.24-.35,1.68,1.68,0,0,1-.1-.54,2,2,0,0,1,.11-.73,1.72,1.72,0,0,1,.31-.53,1.74,1.74,0,0,1,.43-.34,1.46,1.46,0,0,1,.47-.16,1,1,0,0,1,.35,0,1,1,0,0,1,.3.14.31.31,0,0,1,.12.14.43.43,0,0,1,0,.19.45.45,0,0,1,0,.16.47.47,0,0,1-.06.15.28.28,0,0,1-.1.09.12.12,0,0,1-.13,0l-.3-.08a.6.6,0,0,0-.3,0,.75.75,0,0,0-.23.07.73.73,0,0,0-.23.16.89.89,0,0,0-.16.25.8.8,0,0,0-.07.36.36.36,0,0,0,.09.29.62.62,0,0,0,.2.16.6.6,0,0,0,.19.08h.09l.43.1a1.39,1.39,0,0,1,.44.22.93.93,0,0,1,.34.45,2.12,2.12,0,0,1,.14.69,2.19,2.19,0,0,1-.07.7,1.84,1.84,0,0,1-.22.53,1.45,1.45,0,0,1-.35.35,1.14,1.14,0,0,1-.41.18,1.21,1.21,0,0,1-.38,0,1.58,1.58,0,0,1-.37-.11,1.72,1.72,0,0,1-.32-.23,1.48,1.48,0,0,1-.26-.3Z"/><path class="cls-8" d="M49.7,55.65a.71.71,0,0,1,0,.25.4.4,0,0,1-.07.2.21.21,0,0,1-.14.11.22.22,0,0,1-.19,0l-.09-.13a1,1,0,0,1-.08-.14,1.41,1.41,0,0,1-.36.37,1.13,1.13,0,0,1-.38.12.71.71,0,0,1-.29,0,.73.73,0,0,1-.29-.15,1.23,1.23,0,0,1-.32-.51,2.09,2.09,0,0,1-.11-.67,3.31,3.31,0,0,1,0-.71,3.16,3.16,0,0,1,.17-.64,3.3,3.3,0,0,1,.26-.57,3.23,3.23,0,0,1,.32-.47l.11-.1a1,1,0,0,1,.15-.11,1.51,1.51,0,0,1,.18-.09l.18-.05a.63.63,0,0,1,.31,0c.09,0,.16.12.21.28s0,.33,0,.44v.3a1.42,1.42,0,0,1,0,.19v.15c0,.21,0,.42,0,.64s0,.43.06.63a1,1,0,0,0,.06.22c0,.09.07.16.1.23h0c0,.06,0,.11.07.14S49.71,55.64,49.7,55.65Zm-.77-.5a4.17,4.17,0,0,1-.08-.63c0-.22,0-.43,0-.65s0-.29,0-.41V53.1a.52.52,0,0,0-.19.11l-.13.11a1,1,0,0,0-.26.34,1.7,1.7,0,0,0-.18.46,3.06,3.06,0,0,0-.1.51,2.86,2.86,0,0,0,0,.51.81.81,0,0,0,.1.3.46.46,0,0,0,.17.17.39.39,0,0,0,.21,0,.5.5,0,0,0,.2-.08A4,4,0,0,0,48.93,55.15Z"/><path class="cls-8" d="M51.09,55.89a.87.87,0,0,1-.23,0,.58.58,0,0,1-.23-.1.17.17,0,0,1-.08.07l-.09,0a.17.17,0,0,1-.18-.08.36.36,0,0,1-.08-.24.66.66,0,0,1,0-.28l-.17-4.49a.9.9,0,0,1,.09-.29.27.27,0,0,1,.17-.11.18.18,0,0,1,.17,0,.45.45,0,0,1,.11.23l.08,1.93a1,1,0,0,1,.18-.21.85.85,0,0,1,.23-.2,1.23,1.23,0,0,1,.26-.12.44.44,0,0,1,.3,0,.76.76,0,0,1,.26.15.6.6,0,0,1,.2.24,2.13,2.13,0,0,1,.14.35,2.7,2.7,0,0,1,.08.41c0,.15,0,.29,0,.44a4.14,4.14,0,0,1,0,.62,2.52,2.52,0,0,1-.1.56,1.49,1.49,0,0,1-.21.44,1.54,1.54,0,0,1-.3.32,1,1,0,0,1-.33.2A.88.88,0,0,1,51.09,55.89Zm-.35-2.1,0,1.21a.5.5,0,0,0,.21.1h.18a.66.66,0,0,0,.34-.16.94.94,0,0,0,.26-.44,1.72,1.72,0,0,0,.07-.37,2.28,2.28,0,0,0,0-.37,1.84,1.84,0,0,0,0-.33,1.5,1.5,0,0,0-.07-.32.53.53,0,0,0-.12-.21.2.2,0,0,0-.17-.08.46.46,0,0,0-.23.09,1.42,1.42,0,0,0-.18.22l-.16.3Z"/><path class="cls-8" d="M54,51.54a.58.58,0,0,1,.41.09,1.06,1.06,0,0,1,.32.37,2,2,0,0,1,.21.56,3.5,3.5,0,0,1,.09.66,1.22,1.22,0,0,1,0,.27,2.45,2.45,0,0,1,0,.27,4,4,0,0,1-.15.7,2.91,2.91,0,0,1-.26.59,1.83,1.83,0,0,1-.34.42.83.83,0,0,1-.41.2.62.62,0,0,1-.42-.09,1.25,1.25,0,0,1-.32-.36,1.69,1.69,0,0,1-.22-.53,2.1,2.1,0,0,1-.09-.61,3.14,3.14,0,0,1,.07-.87,3.49,3.49,0,0,1,.24-.79,2.22,2.22,0,0,1,.39-.6A.91.91,0,0,1,54,51.54Zm-.64,2a3.24,3.24,0,0,0,0,.45,3,3,0,0,0,.06.46,1,1,0,0,0,.16.34.28.28,0,0,0,.28.1.4.4,0,0,0,.29-.2,1.22,1.22,0,0,0,.21-.41,2.11,2.11,0,0,0,.12-.51,2.71,2.71,0,0,0,0-.47,2.32,2.32,0,0,0,0-.38,1.59,1.59,0,0,0-.09-.33,1.39,1.39,0,0,0-.15-.22.25.25,0,0,0-.2-.06.48.48,0,0,0-.24.15,1.38,1.38,0,0,0-.2.31,3.35,3.35,0,0,0-.14.38A3.24,3.24,0,0,0,53.33,53.54Z"/><path class="cls-8" d="M55.5,52.12a.57.57,0,0,1-.15-.17.41.41,0,0,1-.05-.19.49.49,0,0,1,.06-.27.28.28,0,0,1,.19-.13.31.31,0,0,1,.2,0,.59.59,0,0,1,.18.13,2.34,2.34,0,0,1,.33-.4.66.66,0,0,1,.37-.19.54.54,0,0,1,.17,0,.76.76,0,0,1,.22.11.55.55,0,0,1,.2.2.67.67,0,0,1,.1.32.51.51,0,0,1-.07.28.25.25,0,0,1-.17.12A.14.14,0,0,1,57,52a.5.5,0,0,1-.11-.1.43.43,0,0,0-.09-.1.16.16,0,0,0-.1,0,.33.33,0,0,0-.14.09,1.08,1.08,0,0,0-.16.2,1.43,1.43,0,0,0-.16.24l-.13.22.09,2.3a.57.57,0,0,1-.08.34.26.26,0,0,1-.17.13.19.19,0,0,1-.18-.07.61.61,0,0,1-.11-.29l-.1-2.75Z"/><path class="cls-8" d="M61,53.26a.36.36,0,0,1,.1-.11.21.21,0,0,1,.11,0,.17.17,0,0,1,.18.08.47.47,0,0,1,.09.25.62.62,0,0,1-.08.31,1.33,1.33,0,0,1-.34.47.8.8,0,0,1-.42.19.57.57,0,0,1-.29,0,.73.73,0,0,1-.27-.15,1,1,0,0,1-.23-.27,1.46,1.46,0,0,1-.17-.4h0a2.74,2.74,0,0,1-.15-1,5,5,0,0,1,.07-.76,3.91,3.91,0,0,1,.21-.71,1.82,1.82,0,0,1,.34-.56.7.7,0,0,1,.45-.26h.15l.15,0a1.25,1.25,0,0,1,.28.15,1.45,1.45,0,0,1,.27.28.6.6,0,0,1,.06.24.75.75,0,0,1,0,.21.28.28,0,0,1-.09.14.18.18,0,0,1-.14.06.28.28,0,0,1-.17,0,.76.76,0,0,0-.23-.24.3.3,0,0,0-.21,0,.41.41,0,0,0-.25.16,1.42,1.42,0,0,0-.18.37,3.06,3.06,0,0,0-.12.5,3.26,3.26,0,0,0,0,.54,2.58,2.58,0,0,0,0,.29,1.27,1.27,0,0,0,.06.28.77.77,0,0,0,.2.35.28.28,0,0,0,.25.08.37.37,0,0,0,.2-.11,1.17,1.17,0,0,0,.19-.26Z"/><path class="cls-8" d="M62.63,53.69a.58.58,0,0,1-.07.33.27.27,0,0,1-.18.14.2.2,0,0,1-.18-.07.4.4,0,0,1-.11-.27L61.91,49a.55.55,0,0,1,.09-.28.23.23,0,0,1,.16-.12.22.22,0,0,1,.17,0,.7.7,0,0,1,.13.23l.06,1.89a1.88,1.88,0,0,1,.48-.47.51.51,0,0,1,.45,0,.55.55,0,0,1,.3.21,1.4,1.4,0,0,1,.22.38,2.89,2.89,0,0,1,.14.47,4.43,4.43,0,0,1,.06.51c0,.27,0,.49,0,.67s0,.32,0,.44,0,.22,0,.29,0,.15,0,.22a.74.74,0,0,1-.07.33.3.3,0,0,1-.18.14.27.27,0,0,1-.18-.07.57.57,0,0,1-.11-.29l0-.8,0-.82a2.77,2.77,0,0,0-.1-.53.74.74,0,0,0-.22-.38.28.28,0,0,0-.21.05.72.72,0,0,0-.18.2,3,3,0,0,0-.18.32l-.18.4Z"/><path class="cls-8" d="M65.78,49.65a.58.58,0,0,1,.41.09,1.06,1.06,0,0,1,.32.37,2,2,0,0,1,.21.56,3.5,3.5,0,0,1,.09.66,1.22,1.22,0,0,1,0,.27,2.45,2.45,0,0,1,0,.27,4,4,0,0,1-.15.7,2.91,2.91,0,0,1-.26.59,1.83,1.83,0,0,1-.34.42.83.83,0,0,1-.41.2.62.62,0,0,1-.42-.09,1.12,1.12,0,0,1-.32-.36,1.69,1.69,0,0,1-.22-.53,2.51,2.51,0,0,1-.1-.61,3.57,3.57,0,0,1,.08-.87,3.49,3.49,0,0,1,.24-.79,2.22,2.22,0,0,1,.39-.6A.88.88,0,0,1,65.78,49.65Zm-.64,2a3.24,3.24,0,0,0,0,.45,3,3,0,0,0,.06.46,1,1,0,0,0,.16.34.28.28,0,0,0,.28.1.4.4,0,0,0,.29-.2,1.22,1.22,0,0,0,.21-.41,2.11,2.11,0,0,0,.12-.51,2.71,2.71,0,0,0,0-.47,2.32,2.32,0,0,0,0-.38,1.59,1.59,0,0,0-.09-.33,1.39,1.39,0,0,0-.15-.22.25.25,0,0,0-.2-.06.48.48,0,0,0-.24.15,1.38,1.38,0,0,0-.2.31,3.35,3.35,0,0,0-.14.38A3.24,3.24,0,0,0,65.14,51.65Z"/><path class="cls-8" d="M68.68,52a.33.33,0,0,1,.21-.16.21.21,0,0,1,.19.08.49.49,0,0,1,.08.25.77.77,0,0,1-.07.32,1.3,1.3,0,0,1-.35.46.82.82,0,0,1-.42.2.54.54,0,0,1-.28,0,.67.67,0,0,1-.28-.14,1.11,1.11,0,0,1-.23-.28,1.34,1.34,0,0,1-.17-.4h0a3.32,3.32,0,0,1-.15-1,4,4,0,0,1,.08-.75,3.17,3.17,0,0,1,.2-.72,2.45,2.45,0,0,1,.34-.55.77.77,0,0,1,.45-.27h.15a.28.28,0,0,1,.15,0,1.32,1.32,0,0,1,.29.15,1.35,1.35,0,0,1,.26.27.61.61,0,0,1,.06.25.44.44,0,0,1,0,.2.38.38,0,0,1-.09.15.26.26,0,0,1-.13.06.33.33,0,0,1-.18-.05,1.07,1.07,0,0,0-.23-.24.33.33,0,0,0-.21-.05.39.39,0,0,0-.24.17,1.17,1.17,0,0,0-.19.37,3.19,3.19,0,0,0-.12.49,4.89,4.89,0,0,0,0,.54l0,.3a1.07,1.07,0,0,0,.06.27.76.76,0,0,0,.21.36.29.29,0,0,0,.24.08.4.4,0,0,0,.2-.11.85.85,0,0,0,.19-.27Z"/><path class="cls-8" d="M70.61,48.88A.53.53,0,0,1,71,49a1.07,1.07,0,0,1,.32.37,2.34,2.34,0,0,1,.21.55,2.84,2.84,0,0,1,.08.66,1.31,1.31,0,0,1,0,.28c0,.08,0,.17,0,.26a5.25,5.25,0,0,1-.16.71,2.91,2.91,0,0,1-.26.59,1.6,1.6,0,0,1-.34.42.87.87,0,0,1-.41.2.58.58,0,0,1-.42-.1,1.09,1.09,0,0,1-.32-.35A2.11,2.11,0,0,1,69.5,52a2.58,2.58,0,0,1-.09-.62,3.77,3.77,0,0,1,.32-1.66,1.9,1.9,0,0,1,.39-.59A.8.8,0,0,1,70.61,48.88Zm-.64,2a3.24,3.24,0,0,0,0,.45,2,2,0,0,0,.07.45.76.76,0,0,0,.16.35.29.29,0,0,0,.28.1.46.46,0,0,0,.29-.2,1.56,1.56,0,0,0,.2-.41,2.72,2.72,0,0,0,.13-.51,4.4,4.4,0,0,0,0-.48c0-.13,0-.25,0-.38a2,2,0,0,0-.1-.32.77.77,0,0,0-.15-.22.23.23,0,0,0-.19-.06.4.4,0,0,0-.25.15,1.74,1.74,0,0,0-.2.3,2.23,2.23,0,0,0-.13.39A2.08,2.08,0,0,0,70,50.88Z"/><path class="cls-8" d="M72.71,51.91a.43.43,0,0,1,.16.32.64.64,0,0,1,0,.2.48.48,0,0,1-.08.16.21.21,0,0,1-.13.07.2.2,0,0,1-.16,0l-.24-.21a.42.42,0,0,1-.08-.12,1.57,1.57,0,0,1,0-.16l-.18-4.8a.55.55,0,0,1,.09-.28.23.23,0,0,1,.16-.12.19.19,0,0,1,.17.06.49.49,0,0,1,.12.23l.17,4.64,0,0Z"/><path class="cls-8" d="M75.44,51.53a.72.72,0,0,1,0,.25.4.4,0,0,1-.07.2.23.23,0,0,1-.15.11.23.23,0,0,1-.19,0L75,51.93a.91.91,0,0,1-.07-.14,1.41,1.41,0,0,1-.36.37,1.21,1.21,0,0,1-.38.12.71.71,0,0,1-.29,0,.67.67,0,0,1-.29-.15,1.14,1.14,0,0,1-.32-.51,2.41,2.41,0,0,1-.12-.67,3.3,3.3,0,0,1,.05-.71,3.16,3.16,0,0,1,.16-.64A4.27,4.27,0,0,1,73.6,49a3.28,3.28,0,0,1,.33-.47.93.93,0,0,1,.1-.1l.16-.11.18-.09.18,0a.64.64,0,0,1,.31,0c.09,0,.16.12.21.29s0,.32,0,.43,0,.22,0,.3a1,1,0,0,0,0,.19v.15c0,.21,0,.42,0,.64s0,.43.06.63a1,1,0,0,0,.06.22c0,.09.06.16.09.23h0l.07.14A.17.17,0,0,1,75.44,51.53Zm-.77-.5a4.17,4.17,0,0,1-.08-.63c0-.21,0-.43,0-.65s0-.29,0-.41,0-.24,0-.36a.58.58,0,0,0-.18.11l-.14.11a1.15,1.15,0,0,0-.25.34,1.7,1.7,0,0,0-.18.46,3.06,3.06,0,0,0-.1.51,2.15,2.15,0,0,0,0,.51.76.76,0,0,0,.1.3.46.46,0,0,0,.17.17.28.28,0,0,0,.2,0,.54.54,0,0,0,.21-.08A4,4,0,0,0,74.67,51Z"/><path class="cls-8" d="M75.81,48.84a.31.31,0,0,1-.21-.11.42.42,0,0,1-.08-.23.55.55,0,0,1,.07-.28.29.29,0,0,1,.22-.16l.25,0,0-1.34a.71.71,0,0,1,.09-.29.25.25,0,0,1,.17-.12.2.2,0,0,1,.17.06.41.41,0,0,1,.11.24l0,1.36.49-.07a.27.27,0,0,1,.18.13.31.31,0,0,1,.07.21.44.44,0,0,1-.24.43l-.47.08.06,1.61c0,.18,0,.36,0,.54l0,.54a.55.55,0,0,1-.08.34.27.27,0,0,1-.18.13.19.19,0,0,1-.17-.06.43.43,0,0,1-.11-.29l0-.68,0-.71,0-1.34Z"/><path class="cls-8" d="M79.42,50.22a.43.43,0,0,1,.16-.07.21.21,0,0,1,.13.05.23.23,0,0,1,.09.12.85.85,0,0,1,0,.17.48.48,0,0,1,0,.2.62.62,0,0,1-.11.19,3,3,0,0,1-.49.45,1.2,1.2,0,0,1-.53.24.74.74,0,0,1-.33,0,1,1,0,0,1-.32-.19,1.63,1.63,0,0,1-.39-.65,2.92,2.92,0,0,1-.16-.89,3.32,3.32,0,0,1,.08-.89,1.74,1.74,0,0,1,.34-.74,1.82,1.82,0,0,1,.41-.42,1.2,1.2,0,0,1,.48-.21,1.13,1.13,0,0,1,.26,0,.57.57,0,0,1,.23.12.9.9,0,0,1,.2.23,1.53,1.53,0,0,1,.13.32,2.25,2.25,0,0,1,.06.36,1.93,1.93,0,0,1,0,.24,1,1,0,0,1-.05.23,1.39,1.39,0,0,1-.21.4,3.14,3.14,0,0,1-.31.32c-.11.09-.23.17-.35.25l-.33.19-.22.12-.06,0a.91.91,0,0,0,.24.37.38.38,0,0,0,.36.06.78.78,0,0,0,.36-.22A2.9,2.9,0,0,0,79.42,50.22Zm-1.08-1.59a.92.92,0,0,0-.26.44,2,2,0,0,0-.08.57l.06,0,.12-.07.23-.15.17-.1.22-.15a1.8,1.8,0,0,0,.2-.19.57.57,0,0,0,.12-.21.44.44,0,0,0-.08-.34.22.22,0,0,0-.2-.06.62.62,0,0,0-.27.11A1.66,1.66,0,0,0,78.34,48.63Z"/></svg>