<svg id="Capa_1" data-name="Capa 1" xmlns="http://www.w3.org/2000/svg" viewBox="0 0 85.04 85.04"><defs><style>.cls-1{fill:#eaf6fe;}.cls-2{fill:none;stroke:#575756;stroke-miterlimit:10;stroke-width:0.25px;}</style></defs><path class="cls-1" d="M48.61,32.73a2.19,2.19,0,0,0,1.84.79c4.6,0,9.2,0,13.8,0a2,2,0,0,0,1.89-1A45.45,45.45,0,0,1,71,26.66c.1,1.08.2,1.67.2,2.27,0,5.14,0,10.29,0,15.44A2.66,2.66,0,0,1,69.84,47c-2.27,1.5-4.36,3.28-6.47,5a4,4,0,0,1-2.56.93c-2,0-3.9,0-5.85.14a4.61,4.61,0,0,1-3.24-1c-2.33-1.71-4.68-3.37-7-5a15.25,15.25,0,0,0-1.34-.93c-.87-.51-1.36-.29-1.38.71,0,3,0,5.93,0,8.89,0,.65.27,1,1,1,.16,0,.31,0,.47,0,2.63-.09,2.65-.09,2.63,2.42,0,1.08-.13,2.15-.19,3.23-1.14.09-2.28.22-3.42.26-1.56.05-3.12,0-4.68.06-1,0-1.36-.37-1.35-1.36,0-3,0-6.08,0-9.13,0-.54,0-1.09,0-1.63,0-1-.41-1.41-1.4-1.39-2.17,0-4.36,0-6.53.07a2,2,0,0,0-1.12.68,19.53,19.53,0,0,1-1.76,1.87c-1.44,1.1-1.57,2.55-1.44,4.17.07.76.33,1.1,1.15,1.07,1.79-.06,3.59,0,5.38-.07,1,0,1.43.31,1.39,1.34s0,2.18,0,3.27c0,.79-.3,1.13-1.1,1.11-1.64,0-3.27,0-4.91,0H20.48c-2.17,0-2.19,0-2.72-2.22-.83-3.4-1.61-6.82-2.47-10.22-.31-1.18-.83-2.3-1.21-3.47a4.44,4.44,0,0,1-.21-1.36c0-4.52,0-9,0-13.56,0-.84.05-1.52,1-1.81A3.21,3.21,0,0,0,16,29.16q4-3.9,8.05-7.82a3.31,3.31,0,0,0,.89-1.07c.23-.67.66-.76,1.25-.75,1,0,2-.05,3,0,.79.07,2-.45,2.26.53.28,1.28.7,2.83-.49,4-1.69,1.62-3.39,3.23-5.22,4.68a4.39,4.39,0,0,1-2.4.52c-3.16.07-3.21-.48-3.2,3.15,0,2.34,0,4.68,0,7a6.82,6.82,0,0,0,.36,1.5,5.71,5.71,0,0,0,1.54-.78c1.67-1.63,3.32-3.3,4.88-5a3.74,3.74,0,0,1,3.28-1.36,27.45,27.45,0,0,0,3.74,0,4.11,4.11,0,0,1,3.32,1.34c1.34,1.31,2.76,2.53,4.18,3.75a8.63,8.63,0,0,0,1.36.79A8,8,0,0,0,43.27,38c.06-3.12,0-6.24.08-9.36,0-.46-.11-1.23.42-1.19m20.4,16.28c1,0,2,0,3,0,.77.05,1.21-.22,1.22-1,0-1.93,0-3.87,0-5.81a1.23,1.23,0,0,0-1.27-1.37c-1.94,0-3.88,0-5.82.08-1.17.07-1.51.56-1.54,1.87,0,1.63,0,3.26,0,4.88,0,1.06.48,1.36,1.41,1.34S63.16,43.68,64.17,43.68Zm-14-8.19h0c-1,0-2,0-3,0s-1.46.24-1.42,1.32c.07,1.71,0,3.42,0,5.13,0,1.37.41,1.83,1.79,1.89,1.78.09,3.58.07,5.36,0,1.22,0,1.73-.47,1.8-1.67.1-1.79,0-3.58,0-5.37a1.16,1.16,0,0,0-1.29-1.3Zm7,14.36h0c.86,0,1.71,0,2.56,0a12.56,12.56,0,0,0,1.69-.4,8.85,8.85,0,0,0-1.11-1.37c-1.18-1-2.43-1.83-3.65-2.73l-3.1,3.43a1.1,1.1,0,0,0-.14.18c-.29.56-.15.89.5.89Z"/><path d="M42.87,14.76H69.29c.63,0,1.25,0,1.87,0s1.19.29,1.23,1.06.1,1.4.1,2.1q0,24.09,0,48.17c0,5-.51,4.13-4.1,4.13q-26.43,0-52.85-.17h-.23c-2.62,0-2.72-.1-2.72-2.82q0-24.66.06-49.34c0-.15,0-.31,0-.46.06-2.52.21-2.68,2.66-2.68Zm.48,13.83c-.05,3.12,0,6.24-.08,9.36a8,8,0,0,1-.42,1.68,8.63,8.63,0,0,1-1.36-.79c-1.42-1.22-2.84-2.44-4.18-3.75A4.11,4.11,0,0,0,34,33.75a27.45,27.45,0,0,1-3.74,0A3.74,3.74,0,0,0,27,35.1c-1.56,1.73-3.21,3.4-4.88,5a5.71,5.71,0,0,1-1.54.78,6.82,6.82,0,0,1-.36-1.5c0-2.34,0-4.68,0-7,0-3.63,0-3.08,3.2-3.15a4.39,4.39,0,0,0,2.4-.52C27.61,27.27,29.31,25.66,31,24c1.19-1.14.77-2.69.49-4-.22-1-1.47-.46-2.26-.53-1-.07-2,0-3,0-.59,0-1,.08-1.25.75a3.31,3.31,0,0,1-.89,1.07q-4,3.91-8,7.82a3.21,3.21,0,0,1-1.12.81c-1,.29-1,1-1,1.81,0,4.52,0,9,0,13.56a4.44,4.44,0,0,0,.21,1.36c.38,1.17.9,2.29,1.21,3.47.86,3.4,1.64,6.82,2.47,10.22.53,2.21.55,2.21,2.72,2.22h5.61c1.64,0,3.27,0,4.91,0,.8,0,1.12-.32,1.1-1.11,0-1.09-.05-2.18,0-3.27s-.41-1.37-1.39-1.34c-1.79.06-3.59,0-5.38.07-.82,0-1.08-.31-1.15-1.07-.13-1.62,0-3.07,1.44-4.17a19.53,19.53,0,0,0,1.76-1.87,2,2,0,0,1,1.12-.68c2.17-.08,4.36,0,6.53-.07,1,0,1.44.4,1.4,1.39,0,.54,0,1.09,0,1.63,0,3,0,6.09,0,9.13,0,1,.34,1.41,1.35,1.36,1.56-.06,3.12,0,4.68-.06,1.14,0,2.28-.17,3.42-.26.06-1.08.18-2.15.19-3.23,0-2.51,0-2.51-2.63-2.42-.16,0-.31,0-.47,0-.72.08-1-.31-1-1,0-3,0-5.92,0-8.89,0-1,.51-1.22,1.38-.71a15.25,15.25,0,0,1,1.34.93c2.35,1.68,4.7,3.34,7,5a4.61,4.61,0,0,0,3.24,1c1.95-.13,3.9-.13,5.85-.14A4,4,0,0,0,63.37,52c2.11-1.72,4.2-3.5,6.47-5a2.66,2.66,0,0,0,1.39-2.61c0-5.15,0-10.3,0-15.44,0-.6-.1-1.19-.2-2.27a45.45,45.45,0,0,0-4.86,5.83,2,2,0,0,1-1.89,1c-4.6,0-9.2,0-13.8,0a2.19,2.19,0,0,1-1.84-.79m-3-4.37c1.1,1,2.16,2,3.17,3.1a3.31,3.31,0,0,0,2.68,1.1c3.27-.06,6.56-.16,9.82,0,2.47.14,4.44-.29,5.58-2.69a.84.84,0,0,1,.15-.18c1.39-1.66,3.33-3.11,4-5s.19-4.31.18-6.49,0-2.23-2.14-2.26h-.94l-51.68,0c-.47,0-.94,0-1.41,0-.93-.05-1.21.44-1.19,1.29,0,1.17,0,2.34,0,3.51,0,2.34,0,4.68,0,7a3.7,3.7,0,0,0,.34,1,4.91,4.91,0,0,0,1-.44,12.61,12.61,0,0,0,1.19-1.12c2-2,3.9-4.06,6-5.92,1-.85,1.26-2.43,2.61-2.68a19.45,19.45,0,0,1,4-.07c3.87,0,3.63-.61,3.7,3.86A3,3,0,0,1,31.54,25a36.29,36.29,0,0,0-3.15,2.79c-1.57,1.62-3.23,2.91-5.68,2.37a1,1,0,0,0-.68.06c-.28.19-.68.49-.69.75-.05,2.69,0,5.39,0,8.08a32.93,32.93,0,0,0,5.05-4.95,3.66,3.66,0,0,1,3.25-1.44,25.06,25.06,0,0,0,4,0,5.06,5.06,0,0,1,4.53,1.81c1.19,1.28,2.57,2.39,4.26,3.95V36.28c0-3-.08-5.92-.06-8.88a5.87,5.87,0,0,1,.48-1.62q.54.66,1.08,1.35M14.29,51.07l-.44.12q0,7.59,0,15.18c0,2.45-.21,2.39,2.43,2.39l52.13-.07c.54,0,1.09,0,1.63,0,.93,0,1.21-.45,1.2-1.3,0-6.07,0-12.15,0-18.23,0-1.26-.31-1.42-1.35-.72-2.27,1.5-4.54,3-6.74,4.62a4.49,4.49,0,0,1-3,1c-1.78-.08-3.58-.07-5.37,0a5,5,0,0,1-3.25-1c-2.14-1.56-4.34-3-6.54-4.51-.48-.32-1-.56-1.82-1,0,1.94,0,3.57,0,5.2a4.84,4.84,0,0,0,.27,2.45c.29.41,1.42.25,2.17.33,1.22.13,1.56.37,1.6,1.55,0,1.79,0,3.58,0,5.37,0,.83-.29,1.38-1.18,1.37-3.35,0-6.7-.05-10-.11-.61,0-.83-.29-.8-1.06.16-3.72.17-7.46.24-11.19,0-.8-.36-1.1-1.13-1.1a18.77,18.77,0,0,1-3.27,0c-2.79-.49-4.09,1.53-5.45,3.25-.93,1.17-.12,2.37,1.4,2.41,1.33,0,2.65,0,4,0,1.62,0,2,.46,2.1,2.1,0,.86,0,1.72,0,2.57-.07,2.94.52,2.91-2.89,3-4,.06-7.93.08-11.9.15-.72,0-.95-.35-1.09-.93-.3-1.29-.61-2.58-.92-3.86C15.56,56.31,14.93,53.69,14.29,51.07Z"/><path class="cls-1" d="M44.09,27.43,44,27.29c0-.08-.13-.11-.17-.16q-.54-.69-1.08-1.35a5.87,5.87,0,0,0-.48,1.62c0,3,0,5.92.06,8.88V38.4c-1.69-1.56-3.07-2.67-4.26-3.95a5.06,5.06,0,0,0-4.53-1.81,25.06,25.06,0,0,1-4,0,3.66,3.66,0,0,0-3.25,1.44A32.93,32.93,0,0,1,21.31,39c0-2.69,0-5.39,0-8.08,0-.26.41-.56.69-.75a1,1,0,0,1,.68-.06c2.45.54,4.11-.75,5.68-2.37A36.29,36.29,0,0,1,31.54,25a3,3,0,0,0,1.15-2.63c-.07-4.47.17-3.82-3.7-3.86a19.45,19.45,0,0,0-4,.07c-1.35.25-1.65,1.83-2.61,2.68-2.09,1.86-4,3.93-6,5.92a12.61,12.61,0,0,1-1.19,1.12,4.91,4.91,0,0,1-1,.44,3.7,3.7,0,0,1-.34-1c0-2.34,0-4.68,0-7,0-1.17,0-2.34,0-3.51,0-.85.26-1.34,1.19-1.29.47,0,.94,0,1.41,0l51.68,0h.94c2.12,0,2.14,0,2.14,2.26s.52,4.56-.18,6.49-2.64,3.36-4,5a.84.84,0,0,0-.15.18c-1.14,2.4-3.11,2.83-5.58,2.69-3.26-.18-6.55-.08-9.82,0a3.31,3.31,0,0,1-2.68-1.1c-1-1.08-2.11-2.06-3.21-3A8.32,8.32,0,0,0,44.09,27.43Z"/><path class="cls-1" d="M14.29,51.07c.64,2.62,1.27,5.24,1.91,7.87.31,1.28.62,2.57.92,3.86.14.58.37,1,1.09.93,4-.07,7.94-.09,11.9-.15,3.41,0,2.82,0,2.89-3,0-.85,0-1.71,0-2.57-.08-1.64-.48-2-2.1-2.1-1.33,0-2.65,0-4,0-1.52,0-2.33-1.24-1.4-2.41,1.36-1.72,2.66-3.74,5.45-3.25a18.77,18.77,0,0,0,3.27,0c.77,0,1.15.3,1.13,1.1-.07,3.73-.08,7.47-.24,11.19,0,.77.19,1,.8,1.06,3.34.06,6.69.09,10,.11.89,0,1.19-.54,1.18-1.37,0-1.79.08-3.58,0-5.37,0-1.18-.38-1.42-1.6-1.55-.75-.08-1.88.08-2.17-.33a4.84,4.84,0,0,1-.27-2.45c0-1.63,0-3.26,0-5.2.8.43,1.34.67,1.82,1,2.2,1.49,4.4,3,6.54,4.51a5,5,0,0,0,3.25,1c1.79,0,3.59,0,5.37,0a4.49,4.49,0,0,0,3-1c2.2-1.6,4.47-3.12,6.74-4.62,1-.7,1.34-.54,1.35.72,0,6.08,0,12.16,0,18.23,0,.85-.27,1.34-1.2,1.3-.54,0-1.09,0-1.63,0l-52.13.07c-2.64,0-2.43.06-2.43-2.39q0-7.59,0-15.18Z"/><path d="M64.17,43.68c-1,0-2,0-3,0s-1.45-.28-1.41-1.34c.05-1.62,0-3.25,0-4.88,0-1.31.37-1.8,1.54-1.87,1.94-.12,3.88-.09,5.82-.08a1.23,1.23,0,0,1,1.27,1.37c0,1.94,0,3.88,0,5.81,0,.78-.45,1.05-1.22,1C66.19,43.63,65.18,43.68,64.17,43.68Zm-.23-1h.24c3.64,0,3.24.33,3.26-3.24s.21-3.1-3.2-3.08c-4,0-3.46-.56-3.48,3.43C60.75,42.64,60.24,42.65,63.94,42.68Z"/><path d="M50.14,35.49H53.4a1.16,1.16,0,0,1,1.29,1.3c0,1.79.07,3.58,0,5.37-.07,1.2-.58,1.63-1.8,1.67-1.78.05-3.58.07-5.36,0-1.38-.06-1.76-.52-1.79-1.89,0-1.71,0-3.42,0-5.13,0-1.08.51-1.33,1.42-1.32s2,0,3,0Zm0,7.34c3.55,0,3.55,0,3.54-3.55,0-.39,0-.78,0-1.16-.06-1.55-.08-1.59-1.54-1.64-.85,0-1.7,0-2.55,0-3.23,0-2.86-.18-2.86,2.87C46.7,42.83,46.71,42.83,50.11,42.83Z"/><path d="M57.17,49.85H53.92c-.65,0-.79-.33-.5-.89a1.1,1.1,0,0,1,.14-.18l3.1-3.43c1.22.9,2.47,1.78,3.65,2.73a8.85,8.85,0,0,1,1.11,1.37,12.56,12.56,0,0,1-1.69.4c-.85.06-1.7,0-2.56,0Zm2.24-1c-2.41-2.68-2.55-2.69-4.32-.32,0,0,0,.14.06.32Z"/><path class="cls-1" d="M63.94,42.68c-3.7,0-3.19,0-3.18-2.89,0-4-.49-3.41,3.48-3.43,3.41,0,3.21-.35,3.2,3.08s.38,3.22-3.26,3.24Z"/><path class="cls-1" d="M50.11,42.83c-3.4,0-3.41,0-3.41-3.48,0-3.05-.37-2.86,2.86-2.87.85,0,1.7,0,2.55,0,1.46.05,1.48.09,1.54,1.64,0,.38,0,.77,0,1.16C53.66,42.83,53.66,42.83,50.11,42.83Z"/><path class="cls-1" d="M59.41,48.84H55.15c0-.18-.09-.28-.06-.32C56.86,46.15,57,46.16,59.41,48.84Z"/><line class="cls-2" x1="17.51" y1="68.76" x2="17.51" y2="15.91"/><line class="cls-2" x1="21.98" y1="68.76" x2="21.98" y2="15.91"/><line class="cls-2" x1="26.44" y1="68.76" x2="26.44" y2="15.91"/><line class="cls-2" x1="30.91" y1="68.76" x2="30.91" y2="15.91"/><line class="cls-2" x1="35.82" y1="68.76" x2="35.82" y2="15.91"/><line class="cls-2" x1="40.29" y1="68.76" x2="40.29" y2="15.91"/><line class="cls-2" x1="44.75" y1="68.76" x2="44.75" y2="15.91"/><line class="cls-2" x1="49.22" y1="68.76" x2="49.22" y2="15.91"/><line class="cls-2" x1="54.03" y1="68.76" x2="54.03" y2="15.91"/><line class="cls-2" x1="58.5" y1="68.76" x2="58.5" y2="15.91"/><line class="cls-2" x1="62.97" y1="68.76" x2="62.97" y2="15.91"/><line class="cls-2" x1="67.43" y1="68.76" x2="67.43" y2="15.91"/><line class="cls-2" x1="13.84" y1="19.46" x2="71.23" y2="19.46"/><line class="cls-2" x1="13.84" y1="23.97" x2="71.23" y2="23.97"/><line class="cls-2" x1="13.91" y1="28.28" x2="71.31" y2="28.28"/><line class="cls-2" x1="13.91" y1="32.79" x2="71.31" y2="32.79"/><line class="cls-2" x1="13.88" y1="37.21" x2="71.27" y2="37.21"/><line class="cls-2" x1="13.88" y1="41.72" x2="71.27" y2="41.72"/><line class="cls-2" x1="13.95" y1="46.02" x2="71.35" y2="46.02"/><line class="cls-2" x1="13.95" y1="50.53" x2="71.35" y2="50.53"/><line class="cls-2" x1="13.78" y1="54.77" x2="71.18" y2="54.77"/><line class="cls-2" x1="13.78" y1="59.28" x2="71.18" y2="59.28"/><line class="cls-2" x1="13.86" y1="63.58" x2="71.26" y2="63.58"/></svg>