<svg width="220" height="220" viewBox="0 0 220 220" fill="none" xmlns="http://www.w3.org/2000/svg">
<circle cx="110" cy="110" r="96.5" fill="white" stroke="#6CB2BE" stroke-width="27"/>
<path fill-rule="evenodd" clip-rule="evenodd" d="M140.075 67.2427C137.732 64.8996 133.933 64.8996 131.589 67.2427L116.033 82.7991C112.909 85.9233 107.844 85.9233 104.719 82.7991L89.163 67.2428C86.8199 64.8997 83.0209 64.8997 80.6777 67.2428L67.2427 80.6778C64.8996 83.021 64.8996 86.82 67.2427 89.1631L82.799 104.719C85.9232 107.844 85.9232 112.909 82.799 116.033L67.2427 131.589C64.8996 133.933 64.8996 137.732 67.2427 140.075L80.6778 153.51C83.0209 155.853 86.8199 155.853 89.1631 153.51L104.719 137.953C107.844 134.829 112.909 134.829 116.033 137.953L131.589 153.51C133.933 155.853 137.732 155.853 140.075 153.51L153.51 140.075C155.853 137.732 155.853 133.933 153.51 131.59L137.953 116.033C134.829 112.909 134.829 107.844 137.953 104.719L153.51 89.163C155.853 86.8199 155.853 83.0209 153.51 80.6777L140.075 67.2427Z" fill="#447278"/>
</svg>
