<svg id="e6r6rneu1fov1" xmlns="http://www.w3.org/2000/svg" xmlns:xlink="http://www.w3.org/1999/xlink" viewBox="0 0 200 200" shape-rendering="geometricPrecision" text-rendering="geometricPrecision"><g id="e6r6rneu1fov2" transform="matrix(1.07170000000000 0 0 1.09534000000000 -13.25750000000000 10.49070000000000)" clip-rule="evenodd"><path id="e6r6rneu1fov3" d="M184.901000,67.773000C184.901000,34.950000,148.038000,8.303000,102.634000,8.303000C57.229000,8.303000,20.366000,34.950000,20.366000,67.773000C20.366000,87.169000,33.452000,105.347000,55.427000,116.477000L45.047000,156.977000L81.318000,125.211000C88.270000,126.560000,95.436000,127.242000,102.634000,127.242000C148.038000,127.242000,184.901000,100.595000,184.901000,67.773000Z" clip-rule="evenodd" fill="rgb(255,255,255)" fill-rule="evenodd" stroke="rgb(0,0,0)" stroke-width="6" stroke-linejoin="round" stroke-miterlimit="2"/></g><g id="e6r6rneu1fov4" transform="matrix(1 0 0 1 -0.39430200000000 4.23640000000000)" clip-rule="evenodd"><circle id="e6r6rneu1fov5" r="10.962000" transform="matrix(1 0 0 1 47.35100000000000 80.04600000000001)" clip-rule="evenodd" fill="rgb(254,245,206)" fill-rule="evenodd" stroke="rgb(0,0,0)" stroke-width="6" stroke-linejoin="round" stroke-miterlimit="2"/></g><g id="e6r6rneu1fov6" transform="matrix(1 0 0 1 49.38420000000000 4.23640000000000)" opacity="1" clip-rule="evenodd"><circle id="e6r6rneu1fov7" r="10.962000" transform="matrix(1 0 0 1 47.35100000000000 80.04600000000001)" clip-rule="evenodd" fill="rgb(254,245,206)" fill-rule="evenodd" stroke="rgb(0,0,0)" stroke-width="6" stroke-linejoin="round" stroke-miterlimit="2"/></g><g id="e6r6rneu1fov8" transform="matrix(1 0 0 1 99.16280000000000 4.23640000000000)" opacity="1" clip-rule="evenodd"><circle id="e6r6rneu1fov9" r="10.962000" transform="matrix(1 0 0 1 47.35100000000000 80.04600000000001)" clip-rule="evenodd" fill="rgb(254,245,206)" fill-rule="evenodd" stroke="rgb(0,0,0)" stroke-width="6" stroke-linejoin="round" stroke-miterlimit="2"/></g></svg>