<?xml version="1.0" encoding="UTF-8" standalone="no"?>
<!DOCTYPE svg PUBLIC "-//W3C//DTD SVG 1.1//EN" "http://www.w3.org/Graphics/SVG/1.1/DTD/svg11.dtd">
<svg width="100%" height="100%" viewBox="0 0 200 200" version="1.1" xmlns="http://www.w3.org/2000/svg" xmlns:xlink="http://www.w3.org/1999/xlink" xml:space="preserve" xmlns:serif="http://www.serif.com/" style="fill-rule:evenodd;clip-rule:evenodd;stroke-linecap:round;stroke-linejoin:round;stroke-miterlimit:1.5;">
    <g transform="matrix(1,0,0,1.03882,-1.17699,-4.15583)">
        <g transform="matrix(1.02153,0,0,1.02153,-2.16768,6.20245)">
            <path d="M192.379,24.135L9.953,24.135C9.953,24.135 7.024,160.972 7.024,172.78C7.024,175.432 8.078,177.975 9.953,179.851C11.829,181.726 14.372,182.78 17.024,182.78C26.581,182.78 42.187,183.545 60.296,183.303C79.573,183.046 101.687,181.78 122.363,181.78C148.547,181.78 172.424,182.78 185.308,182.78C187.96,182.78 190.504,181.726 192.379,179.851C194.254,177.975 195.308,175.432 195.308,172.78C195.308,161.2 192.379,24.135 192.379,24.135Z" style="fill:rgb(251,243,204);stroke:black;stroke-width:3.84px;"/>
        </g>
        <path d="M195.308,17.845C195.308,15.193 194.254,12.65 192.379,10.774C190.504,8.899 187.96,7.845 185.308,7.845C178.768,7.845 169.396,6.932 158.328,7.043C141.481,7.211 91.066,7.533 86.644,7.567C66.244,7.725 46.775,8.845 32.196,8.845C26.23,8.845 21.082,7.845 17.024,7.845C14.372,7.845 11.829,8.899 9.953,10.774C8.078,12.65 7.024,15.193 7.024,17.845C7.024,36.856 6.024,79.643 6.024,116.872C6.024,139.994 7.024,160.972 7.024,172.78C7.024,175.432 8.078,177.975 9.953,179.851C11.829,181.726 14.372,182.78 17.024,182.78C26.581,182.78 42.187,183.545 60.296,183.303C79.573,183.046 101.687,181.78 122.363,181.78C148.547,181.78 172.424,182.78 185.308,182.78C187.96,182.78 190.504,181.726 192.379,179.851C194.254,177.975 195.308,175.432 195.308,172.78C195.308,161.2 195.087,156.955 195.087,134.363C195.087,126.908 194.686,106.774 195.087,99.164C195.602,89.379 195.271,74.645 195.642,65.425C196.435,45.714 195.308,28.35 195.308,17.845Z" style="fill:white;stroke:black;stroke-width:3.92px;"/>
    </g>
</svg>
