<svg width="1000" height="1000" viewBox="0 0 1000 1000" fill="none" xmlns="http://www.w3.org/2000/svg">
<g clip-path="url(#clip0)">
<rect width="1000" height="1000" fill="white"/>
<rect width="1000" height="1000" fill="#5EB247"/>
<path fill-rule="evenodd" clip-rule="evenodd" d="M1000 246.874V1000H420.03C401.834 943.945 392 884.121 392 822C392 503.884 649.884 246 968 246C978.738 246 989.407 246.294 1000 246.874Z" fill="url(#paint0_linear)" fill-opacity="0.1"/>
<path fill-rule="evenodd" clip-rule="evenodd" d="M181 766C588.034 766 918 436.034 918 29C918 19.2881 917.812 9.62061 917.44 0H1000V1000H0V743.61C57.9102 758.232 118.548 766 181 766Z" fill="#82E367" fill-opacity="0.1"/>
<path fill-rule="evenodd" clip-rule="evenodd" d="M1000 211.17V1000H457.214L1000 211.17Z" fill="url(#paint1_linear)" fill-opacity="0.1"/>
<path fill-rule="evenodd" clip-rule="evenodd" d="M1000 780V1000H0L1000 780Z" fill="url(#paint2_linear)" fill-opacity="0.1"/>
<path fill-rule="evenodd" clip-rule="evenodd" d="M2.39611e-05 500L6.76724e-05 0.00048601L603.864 0.000538801L2.39611e-05 500Z" fill="url(#paint3_linear)" fill-opacity="0.1"/>
</g>
<defs>
<linearGradient id="paint0_linear" x1="542" y1="1000" x2="1000" y2="810" gradientUnits="userSpaceOnUse">
<stop/>
<stop offset="1" stop-opacity="0"/>
</linearGradient>
<linearGradient id="paint1_linear" x1="594" y1="1000" x2="974.001" y2="330" gradientUnits="userSpaceOnUse">
<stop/>
<stop offset="1" stop-opacity="0"/>
</linearGradient>
<linearGradient id="paint2_linear" x1="252.008" y1="1000" x2="273.057" y2="754.84" gradientUnits="userSpaceOnUse">
<stop/>
<stop offset="1" stop-opacity="0"/>
</linearGradient>
<linearGradient id="paint3_linear" x1="50.7246" y1="416.667" x2="187.964" y2="-63.7753" gradientUnits="userSpaceOnUse">
<stop/>
<stop offset="1" stop-opacity="0"/>
</linearGradient>
<clipPath id="clip0">
<rect width="1000" height="1000" fill="white"/>
</clipPath>
</defs>
</svg>
