<svg width="2952" height="1000" viewBox="0 0 2952 1000" fill="none" xmlns="http://www.w3.org/2000/svg">
<g clip-path="url(#clip0_128_89)">
<path d="M2952 0H0V1000H2952V0Z" fill="white"/>
<path d="M2952 0H0V1000H2952V0Z" fill="url(#paint0_linear_128_89)"/>
<path d="M534.312 766C1735.88 766 2709.94 436.034 2709.94 29C2709.94 19.2886 2709.38 9.62116 2708.28 0.000976562H2952V1000H0V743.61C170.951 758.232 349.954 766 534.312 766Z" fill="#EAAA3B"/>
<path d="M2952 211V1000H1676L2952 211Z" fill="url(#paint1_linear_128_89)" fill-opacity="0.1"/>
<path d="M2952 780V1000H972L2952 780Z" fill="url(#paint2_linear_128_89)" fill-opacity="0.1"/>
<path d="M0.000976562 1000L0.00108775 0.000488281L1536 0.000593864L0.000976562 1000Z" fill="url(#paint3_linear_128_89)" fill-opacity="0.05"/>
<path d="M2716.5 0.000314075C1790.59 0.000269434 1040 362.202 1040 809C1040 874.796 1056.28 938.758 1087 999.999H0.000488281L0.000646802 -0.000976562L2952 -0.000834239V7.91927C2875.05 2.69948 2796.43 0.000317928 2716.5 0.000314075Z" fill="#EAAA3B"/>
</g>
<defs>
<linearGradient id="paint0_linear_128_89" x1="-1.16481e-07" y1="528" x2="2952" y2="528" gradientUnits="userSpaceOnUse">
<stop stop-color="#F7DCAE"/>
<stop offset="0.538" stop-color="#F6DAA8"/>
<stop offset="1" stop-color="#E09B62"/>
</linearGradient>
<linearGradient id="paint1_linear_128_89" x1="1997.56" y1="1000" x2="2199.54" y2="163.025" gradientUnits="userSpaceOnUse">
<stop/>
<stop offset="1" stop-opacity="0"/>
</linearGradient>
<linearGradient id="paint2_linear_128_89" x1="1470.98" y1="1000" x2="1481.66" y2="753.496" gradientUnits="userSpaceOnUse">
<stop/>
<stop offset="1" stop-opacity="0"/>
</linearGradient>
<linearGradient id="paint3_linear_128_89" x1="129.025" y1="833.334" x2="351.242" y2="-156.046" gradientUnits="userSpaceOnUse">
<stop/>
<stop offset="1" stop-opacity="0"/>
</linearGradient>
<clipPath id="clip0_128_89">
<rect width="2952" height="1000" fill="white"/>
</clipPath>
</defs>
</svg>
