<?xml version="1.0" encoding="UTF-8" standalone="no"?><!DOCTYPE svg PUBLIC "-//W3C//DTD SVG 1.1//EN" "http://www.w3.org/Graphics/SVG/1.1/DTD/svg11.dtd"><svg width="100%" height="100%" viewBox="0 0 200 200" version="1.1" xmlns="http://www.w3.org/2000/svg" xmlns:xlink="http://www.w3.org/1999/xlink" xml:space="preserve" xmlns:serif="http://www.serif.com/" style="fill-rule:evenodd;clip-rule:evenodd;stroke-linejoin:round;stroke-miterlimit:2;"><path d="M200,16.318c0,-9.006 -7.312,-16.318 -16.318,-16.318l-167.364,0c-9.006,0 -16.318,7.312 -16.318,16.318l0,167.364c0,9.006 7.312,16.318 16.318,16.318l167.364,0c9.006,0 16.318,-7.312 16.318,-16.318l0,-167.364Z" style="fill-opacity:0.15;"/><path d="M164.612,51.304c1.144,-1.144 2.865,-1.486 4.36,-0.867c1.494,0.619 2.469,2.078 2.469,3.696c0,27.734 0,105.65 0,105.65c0,6.434 -5.224,11.658 -11.658,11.658l-105.65,0c-1.618,0 -3.077,-0.975 -3.696,-2.469c-0.619,-1.495 -0.277,-3.216 0.867,-4.36c22.058,-22.058 91.25,-91.25 113.308,-113.308Zm-18.745,-22.745c1.618,0 3.077,0.975 3.696,2.469c0.619,1.495 0.277,3.216 -0.867,4.36c-22.058,22.058 -91.25,91.25 -113.308,113.308c-1.144,1.144 -2.865,1.486 -4.36,0.867c-1.494,-0.619 -2.469,-2.078 -2.469,-3.696c0,-27.734 0,-105.65 0,-105.65c0,-6.434 5.224,-11.658 11.658,-11.658l105.65,0Z"/></svg>