<?xml version="1.0" encoding="UTF-8" standalone="no"?>
<!DOCTYPE svg PUBLIC "-//W3C//DTD SVG 1.1//EN" "http://www.w3.org/Graphics/SVG/1.1/DTD/svg11.dtd">
<svg width="100%" height="100%" viewBox="0 0 1024 1024" version="1.1" xmlns="http://www.w3.org/2000/svg" xmlns:xlink="http://www.w3.org/1999/xlink" xml:space="preserve" xmlns:serif="http://www.serif.com/" style="fill-rule:evenodd;clip-rule:evenodd;stroke-linecap:round;stroke-linejoin:round;stroke-miterlimit:1.5;">
    <g id="plyr-airplay">
        <path d="M16,1L2,1" style="fill:none;fill-rule:nonzero;"/>
        <path d="M4,17L14,17L9,11L4,17Z" style="fill-rule:nonzero;"/>
    </g>
    <g id="plyr-captions-off">
        <path d="M1,1C0.4,1 0,1.4 0,2L0,13C0,13.6 0.4,14 1,14L5.6,14L8.3,16.7C8.5,16.9 8.7,17 9,17C9.3,17 9.5,16.9 9.7,16.7L12.4,14L17,14C17.6,14 18,13.6 18,13L18,2C18,1.4 17.6,1 17,1L1,1ZM5.52,11.15C7.51,11.15 8.53,9.83 8.8,8.74L7.51,8.35C7.32,9.01 6.73,9.8 5.52,9.8C4.38,9.8 3.32,8.97 3.32,7.46C3.32,5.85 4.44,5.09 5.5,5.09C6.73,5.09 7.28,5.84 7.45,6.52L8.75,6.11C8.47,4.96 7.46,3.76 5.5,3.76C3.6,3.76 1.89,5.2 1.89,7.46C1.89,9.72 3.54,11.15 5.52,11.15ZM13.09,11.15C15.08,11.15 16.1,9.83 16.37,8.74L15.08,8.35C14.89,9.01 14.3,9.8 13.09,9.8C11.95,9.8 10.89,8.97 10.89,7.46C10.89,5.85 12.01,5.09 13.07,5.09C14.3,5.09 14.85,5.84 15.02,6.52L16.32,6.11C16.04,4.96 15.03,3.76 13.07,3.76C11.17,3.76 9.46,5.2 9.46,7.46C9.46,9.72 11.11,11.15 13.09,11.15Z" style="fill-opacity:0.5;"/>
    </g>
    <g id="plyr-captions-on">
        <path d="M1,1C0.4,1 0,1.4 0,2L0,13C0,13.6 0.4,14 1,14L5.6,14L8.3,16.7C8.5,16.9 8.7,17 9,17C9.3,17 9.5,16.9 9.7,16.7L12.4,14L17,14C17.6,14 18,13.6 18,13L18,2C18,1.4 17.6,1 17,1L1,1ZM5.52,11.15C7.51,11.15 8.53,9.83 8.8,8.74L7.51,8.35C7.32,9.01 6.73,9.8 5.52,9.8C4.38,9.8 3.32,8.97 3.32,7.46C3.32,5.85 4.44,5.09 5.5,5.09C6.73,5.09 7.28,5.84 7.45,6.52L8.75,6.11C8.47,4.96 7.46,3.76 5.5,3.76C3.6,3.76 1.89,5.2 1.89,7.46C1.89,9.72 3.54,11.15 5.52,11.15ZM13.09,11.15C15.08,11.15 16.1,9.83 16.37,8.74L15.08,8.35C14.89,9.01 14.3,9.8 13.09,9.8C11.95,9.8 10.89,8.97 10.89,7.46C10.89,5.85 12.01,5.09 13.07,5.09C14.3,5.09 14.85,5.84 15.02,6.52L16.32,6.11C16.04,4.96 15.03,3.76 13.07,3.76C11.17,3.76 9.46,5.2 9.46,7.46C9.46,9.72 11.11,11.15 13.09,11.15Z"/>
    </g>
    <g id="plyr-download">
        <path d="M9,13C9.3,13 9.5,12.9 9.7,12.7L15.4,7L14,5.6L10,9.6L10,1L8,1L8,9.6L4,5.6L2.6,7L8.3,12.7C8.5,12.9 8.7,13 9,13ZM2,15L16,15L16,17L2,17L2,15Z" style="fill-rule:nonzero;"/>
    </g>
    <g id="plyr-enter-fullscreen">
        <g>
            <g transform="matrix(1.01482,0,0,1.01482,2.2104,2.80816)">
                <path d="M6.69,-2.207C8.942,-2.207 12.361,-2.24 13.858,-0.784C15.41,0.726 14.999,3.767 14.999,6.101C14.999,7.84 15.163,11.439 14.249,12.774C12.752,14.96 9.538,14.41 6.69,14.41C4.321,14.41 0.95,14.856 -0.565,13.263C-1.981,11.773 -1.618,8.318 -1.618,6.101C-1.618,3.579 -2.021,0.233 -0.244,-1.292C1.21,-2.538 4.627,-2.207 6.69,-2.207Z" style="fill:rgb(235,235,235);stroke:black;stroke-width:0.99px;"/>
            </g>
            <g transform="matrix(0.846489,0,0,0.846489,1.75714,1.05823)">
                <path d="M9.793,6.548L8.713,5.093C8.456,4.836 8.596,4.376 8.99,4.303L14.568,3.215C14.863,3.176 15.119,3.433 15.081,3.728L13.993,9.306C13.92,9.7 13.46,9.839 13.203,9.583L11.993,8.517C11.571,8.943 10.994,9.509 10.659,9.662C9.972,9.974 9.695,9.446 9.339,9.09C9.042,8.793 8.518,8.474 8.693,7.919C8.818,7.525 9.331,7 9.793,6.548Z" style="fill:rgb(235,235,235);stroke:black;stroke-width:1.18px;"/>
            </g>
            <g transform="matrix(-0.846489,-1.03665e-16,1.03665e-16,-0.846489,16.2507,17.5762)">
                <path d="M9.793,6.548L8.713,5.093C8.456,4.836 8.596,4.376 8.99,4.303L14.568,3.215C14.863,3.176 15.119,3.433 15.081,3.728L13.993,9.306C13.92,9.7 13.46,9.839 13.203,9.583L11.993,8.517C11.571,8.943 10.994,9.509 10.659,9.662C9.972,9.974 9.695,9.446 9.339,9.09C9.042,8.793 8.518,8.474 8.693,7.919C8.818,7.525 9.331,7 9.793,6.548Z" style="fill:rgb(235,235,235);stroke:black;stroke-width:1.18px;"/>
            </g>
        </g>
    </g>
    <g id="plyr-exit-fullscreen">
        <g>
            <g transform="matrix(1.01482,0,0,1.01482,2.2104,2.80816)">
                <path d="M6.69,-2.207C8.942,-2.207 12.361,-2.24 13.858,-0.784C15.41,0.726 14.999,3.767 14.999,6.101C14.999,7.84 15.163,11.439 14.249,12.774C12.752,14.96 9.538,14.41 6.69,14.41C4.321,14.41 0.95,14.856 -0.565,13.263C-1.981,11.773 -1.618,8.318 -1.618,6.101C-1.618,3.579 -2.021,0.233 -0.244,-1.292C1.21,-2.538 4.627,-2.207 6.69,-2.207Z" style="fill:rgb(235,235,235);stroke:black;stroke-width:0.99px;"/>
            </g>
            <g transform="matrix(-0.846489,-1.03665e-16,1.03665e-16,-0.846489,21.7918,12.0351)">
                <path d="M9.793,6.548L8.713,5.093C8.456,4.836 8.596,4.376 8.99,4.303L14.568,3.215C14.863,3.176 15.119,3.433 15.081,3.728L13.993,9.306C13.92,9.7 13.46,9.839 13.203,9.583L11.993,8.517C11.571,8.943 10.994,9.509 10.659,9.662C9.972,9.974 9.695,9.446 9.339,9.09C9.042,8.793 8.518,8.474 8.693,7.919C8.818,7.525 9.331,7 9.793,6.548Z" style="fill:rgb(235,235,235);stroke:black;stroke-width:1.18px;"/>
            </g>
            <g transform="matrix(0.846489,2.0733e-16,-2.0733e-16,0.846489,-3.78393,6.59929)">
                <path d="M9.793,6.548L8.713,5.093C8.456,4.836 8.596,4.376 8.99,4.303L14.568,3.215C14.863,3.176 15.119,3.433 15.081,3.728L13.993,9.306C13.92,9.7 13.46,9.839 13.203,9.583L11.993,8.517C11.571,8.943 10.994,9.509 10.659,9.662C9.972,9.974 9.695,9.446 9.339,9.09C9.042,8.793 8.518,8.474 8.693,7.919C8.818,7.525 9.331,7 9.793,6.548Z" style="fill:rgb(235,235,235);stroke:black;stroke-width:1.18px;"/>
            </g>
        </g>
    </g>
    <g id="plyr-fast-forward">
        <path d="M7.875,7.171L0,1L0,17L7.875,10.829L7.875,17L18,9L7.875,1L7.875,7.171Z" style="fill-rule:nonzero;"/>
    </g>
    <g id="plyr-logo-vimeo">
        <path d="M17,5.3C16.9,6.9 15.8,9 13.7,11.7C11.5,14.5 9.7,15.9 8.2,15.9C7.3,15.9 6.5,15 5.8,13.3C5,10.9 4.4,6 3,6C2.9,6 2.5,6.3 1.8,6.8L1,5.8C1.8,5.1 4.5,2.4 5.7,2.3C6.9,2.2 7.7,3 8,4.8C8.3,6.8 8.8,10.9 9.8,10.9C10.7,10.9 12.3,7.5 12.4,6.9C12.5,6 12.1,5 10.1,5.8C10.9,3.2 12.4,2 14.6,2C16.3,2.1 17.1,3.2 17,5.3Z" style="fill-rule:nonzero;"/>
    </g>
    <g id="plyr-logo-youtube">
        <path d="M16.8,5.8C16.6,4.5 16,3.6 14.6,3.4C12.4,3 9,3 9,3C9,3 5.6,3 3.4,3.4C2,3.6 1.3,4.5 1.2,5.8C1,7.1 1,9 1,9C1,9 1,10.9 1.2,12.2C1.4,13.5 2,14.4 3.4,14.6C5.6,15 9,15 9,15C9,15 12.4,15 14.6,14.6C16,14.3 16.6,13.5 16.8,12.2C17,10.9 17,9 17,9C17,9 17,7.1 16.8,5.8ZM7,12L7,6L12,9L7,12Z" style="fill-rule:nonzero;"/>
    </g>
    <g id="plyr-muted">
        <path d="M12.4,12.5L14.5,10.4L16.6,12.5L18,11.1L15.9,9L18,6.9L16.6,5.5L14.5,7.6L12.4,5.5L11,6.9L13.1,9L11,11.1L12.4,12.5ZM3.786,6.008L0.714,6.008C0.286,6.008 0,6.31 0,6.76L0,11.272C0,11.724 0.286,12.024 0.714,12.024L3.786,12.024L7.857,15.882C8.357,16.182 9,15.882 9,15.28L9,2.752C9,2.151 8.357,1.775 7.857,2.151L3.786,6.008Z" style="fill-rule:nonzero;"/>
    </g>
    <g id="plyr-pause">
        <path d="M6,1L3,1C2.4,1 2,1.4 2,2L2,16C2,16.6 2.4,17 3,17L6,17C6.6,17 7,16.6 7,16L7,2C7,1.4 6.6,1 6,1ZM12,1C11.4,1 11,1.4 11,2L11,16C11,16.6 11.4,17 12,17L15,17C15.6,17 16,16.6 16,16L16,2C16,1.4 15.6,1 15,1L12,1Z" style="fill-rule:nonzero;"/>
        <g>
            <g transform="matrix(1.01482,0,0,1.01482,2.2104,2.80816)">
                <path d="M6.69,-2.207C8.942,-2.207 12.361,-2.24 13.858,-0.784C15.41,0.726 14.999,3.767 14.999,6.101C14.999,7.84 15.163,11.439 14.249,12.774C12.752,14.96 9.538,14.41 6.69,14.41C4.321,14.41 0.95,14.856 -0.565,13.263C-1.981,11.773 -1.618,8.318 -1.618,6.101C-1.618,3.579 -2.021,0.233 -0.244,-1.292C1.21,-2.538 4.627,-2.207 6.69,-2.207Z" style="fill:rgb(235,235,235);stroke:black;stroke-width:0.99px;"/>
            </g>
            <g transform="matrix(0.176992,0,0,0.638607,4.52365,5.1077)">
                <path d="M6.69,-2.207C8.942,-2.207 12.361,-2.24 13.858,-0.784C15.41,0.726 14.999,3.767 14.999,6.101C14.999,7.84 15.163,11.439 14.249,12.774C12.752,14.96 9.538,14.41 6.69,14.41C4.321,14.41 0.95,14.856 -0.565,13.263C-1.981,11.773 -1.618,8.318 -1.618,6.101C-1.618,3.579 -2.021,0.233 -0.244,-1.292C1.21,-2.538 4.627,-2.207 6.69,-2.207Z" style="fill:rgb(235,235,235);stroke:black;stroke-width:2.13px;"/>
            </g>
            <g transform="matrix(0.176992,0,0,0.638607,11.1145,5.1077)">
                <path d="M6.69,-2.207C8.942,-2.207 12.361,-2.24 13.858,-0.784C15.41,0.726 14.999,3.767 14.999,6.101C14.999,7.84 15.163,11.439 14.249,12.774C12.752,14.96 9.538,14.41 6.69,14.41C4.321,14.41 0.95,14.856 -0.565,13.263C-1.981,11.773 -1.618,8.318 -1.618,6.101C-1.618,3.579 -2.021,0.233 -0.244,-1.292C1.21,-2.538 4.627,-2.207 6.69,-2.207Z" style="fill:rgb(235,235,235);stroke:black;stroke-width:2.13px;"/>
            </g>
        </g>
    </g>
    <g id="plyr-pip">
        <path d="M13.293,3.293L7.022,9.564L8.436,10.978L14.707,4.707L17,7L17,1L11,1L13.293,3.293Z" style="fill-rule:nonzero;"/>
        <path d="M13,15L3,15L3,5L8,5L8,3L2,3" style="fill-rule:nonzero;"/>
    </g>
    <g id="plyr-play">
        <g>
            <g transform="matrix(1.01482,0,0,1.01482,2.2104,2.80816)">
                <path d="M6.69,-2.207C8.942,-2.207 12.361,-2.24 13.858,-0.784C15.41,0.726 14.999,3.767 14.999,6.101C14.999,7.84 15.163,11.439 14.249,12.774C12.752,14.96 9.538,14.41 6.69,14.41C4.321,14.41 0.95,14.856 -0.565,13.263C-1.981,11.773 -1.618,8.318 -1.618,6.101C-1.618,3.579 -2.021,0.233 -0.244,-1.292C1.21,-2.538 4.627,-2.207 6.69,-2.207Z" style="fill:rgb(235,235,235);stroke:black;stroke-width:0.99px;"/>
            </g>
            <g transform="matrix(0.403192,0,0,0.403192,6.25788,5.37127)">
                <path d="M15.562,8.1L3.871,0.225C3.052,-0.337 2,0.225 2,1.125L1.301,5.854L2,16.875C2,17.775 3.052,18.337 3.871,17.775L15.562,9.9C16.146,9.45 16.146,8.55 15.562,8.1Z" style="fill:rgb(235,235,235);fill-rule:nonzero;stroke:black;stroke-width:2.48px;stroke-linecap:butt;stroke-miterlimit:2;"/>
            </g>
        </g>
    </g>
    <g id="plyr-restart">
        <path d="M9.7,1.2L10.4,7.6L12.5,5.5C14.4,7.4 14.4,10.6 12.5,12.5C11.6,13.5 10.3,14 9,14C7.7,14 6.4,13.5 5.5,12.5C3.6,10.6 3.6,7.4 5.5,5.5C6.1,4.9 6.9,4.4 7.8,4.2L7.2,2.3C6,2.6 4.9,3.2 4,4.1C1.3,6.8 1.3,11.2 4,14C5.3,15.3 7.1,16 8.9,16C10.8,16 12.5,15.3 13.8,14C16.5,11.3 16.5,6.9 13.8,4.1L16,1.9L9.7,1.2Z" style="fill-rule:nonzero;"/>
    </g>
    <g id="plyr-rewind">
        <path d="M10.125,1L0,9L10.125,17L10.125,10.829L18,17L18,1L10.125,7.171L10.125,1Z" style="fill-rule:nonzero;"/>
    </g>
    <g id="plyr-volume">
        <path d="M15.6,3.3C15.2,2.9 14.6,2.9 14.2,3.3C13.8,3.7 13.8,4.3 14.2,4.7C15.4,5.9 16,7.4 16,9C16,10.6 15.4,12.1 14.2,13.3C13.8,13.7 13.8,14.3 14.2,14.7C14.4,14.9 14.7,15 14.9,15C15.2,15 15.4,14.9 15.6,14.7C17.1,13.2 18,11.2 18,9C18,6.8 17.1,4.8 15.6,3.3Z" style="fill-rule:nonzero;"/>
    </g>
</svg>
