<?xml version="1.0" encoding="UTF-8" standalone="no"?>
<!DOCTYPE svg PUBLIC "-//W3C//DTD SVG 1.1//EN" "http://www.w3.org/Graphics/SVG/1.1/DTD/svg11.dtd">
<svg width="100%" height="100%" viewBox="0 0 452 448" version="1.1" xmlns="http://www.w3.org/2000/svg" xmlns:xlink="http://www.w3.org/1999/xlink" xml:space="preserve" xmlns:serif="http://www.serif.com/" style="fill-rule:evenodd;clip-rule:evenodd;stroke-linecap:round;stroke-linejoin:round;stroke-miterlimit:10;">
    <g transform="matrix(1,0,0,1,-1623,-617)">
        <g transform="matrix(1,0,0,1,-154.104,-830.93)">
            <g transform="matrix(0,202.348,202.348,0,2002.58,1672.58)">
                <circle cx="-0" cy="-0" r="1" style="fill:url(#_Radial1);"/>
            </g>
            <g transform="matrix(4.16667,0,0,4.16667,0,0)">
                <g opacity="0.2">
                    <g transform="matrix(0,-1,-1,0,485.358,366.018)">
                        <path d="M-36.839,-36.839C-57.555,-36.839 -74.349,-20.345 -74.349,0.001C-74.349,20.346 -57.555,36.839 -36.839,36.839C-16.123,36.839 0.67,20.346 0.67,0.001C0.67,-20.345 -16.123,-36.839 -36.839,-36.839" style="fill:rgb(117,76,40);fill-rule:nonzero;"/>
                    </g>
                </g>
            </g>
            <g transform="matrix(0,-4.16667,-4.16667,0,2002.58,1522.53)">
                <path d="M-36.011,-36.011C-55.898,-36.011 -72.021,-19.888 -72.021,0C-72.021,19.888 -55.898,36.011 -36.011,36.011C-16.123,36.011 -0.001,19.888 -0.001,0C-0.001,-19.888 -16.123,-36.011 -36.011,-36.011" style="fill:rgb(234,203,156);fill-rule:nonzero;"/>
            </g>
            <g transform="matrix(4.16667,0,0,4.16667,1922.12,1742.7)">
                <path d="M0,-43.405C-4.004,-38.983 -7.036,-33.685 -8.835,-28C-10.63,-22.34 -11.193,-16.254 -10.146,-10.392C-9.103,-4.563 -6.468,1.069 -1.792,4.848C0.393,6.615 2.942,7.915 5.659,8.635C7.938,9.239 10.296,9.436 12.641,9.304C11.257,8.876 10.011,8.045 8.927,7.1C7.633,5.975 6.5,4.671 5.496,3.285C4.58,2.02 3.75,0.681 3.078,-0.731C2.4,-2.157 1.943,-3.689 1.594,-5.227C0.75,-8.951 0.609,-12.833 0.98,-16.626C1.354,-20.452 2.253,-24.26 3.786,-27.791C5.207,-31.066 7.209,-34.047 9.862,-36.45C12.486,-38.828 15.619,-40.609 18.923,-41.857C22.303,-43.132 25.886,-43.87 29.487,-44.126C33.149,-44.385 36.88,-44.171 40.454,-43.303C42.109,-42.902 43.746,-42.367 45.331,-41.709C38.774,-48.564 29.545,-52.841 19.31,-52.841C16.576,-52.841 13.918,-52.526 11.358,-51.949C7.059,-49.888 3.199,-46.938 0,-43.405" style="fill:rgb(213,167,111);fill-rule:nonzero;"/>
            </g>
            <g transform="matrix(4.16667,0,0,4.16667,2044.84,1731.09)">
                <path d="M0,-28.33C-2.596,-29.917 -5.715,-30.4 -8.693,-29.838C-11.535,-29.301 -14.061,-27.674 -15.748,-25.328C-17.454,-22.957 -18.218,-20.08 -18.275,-17.185C-18.32,-14.929 -17.994,-12.355 -16.772,-10.367C-16.839,-11.896 -16.663,-13.434 -16.327,-14.922C-15.913,-16.759 -15.254,-18.55 -14.324,-20.189C-13.467,-21.702 -12.337,-23.138 -10.862,-24.089C-9.476,-24.983 -7.836,-25.349 -6.208,-25.049C-4.374,-24.71 -2.684,-23.71 -1.649,-22.143C-0.649,-20.631 -0.316,-18.778 -0.36,-16.99C-0.409,-15.014 -0.898,-13.043 -1.671,-11.231C-2.395,-9.533 -3.385,-7.905 -4.723,-6.623C-6.593,-4.833 -9.207,-4.016 -11.758,-3.989C-14.563,-3.961 -17.289,-4.719 -20.031,-5.217C-19.934,-4.737 -19.797,-4.268 -19.59,-3.822C-18.511,-1.5 -16.198,0.037 -13.858,0.888C-11.58,1.717 -8.876,2.07 -6.536,1.281C-3.55,0.275 -0.928,-1.79 1.094,-4.168C3.179,-6.621 4.748,-9.533 5.593,-12.644C6.392,-15.585 6.541,-18.717 5.479,-21.61C4.461,-24.379 2.52,-26.789 0,-28.33" style="fill:rgb(213,167,111);fill-rule:nonzero;"/>
            </g>
            <g transform="matrix(4.16667,0,0,4.16667,2079.06,1647.43)">
                <path d="M0,-16.967C2.766,-16.116 5.429,-14.92 7.79,-13.233C11.906,-10.291 14.767,-6.056 16.577,-1.376C16.801,-0.797 17.008,-0.212 17.205,0.378C16.225,-5.823 13.662,-11.494 9.943,-16.216C8.684,-16.595 7.395,-16.875 6.097,-17.048C4.09,-17.315 2.002,-17.345 0,-16.967" style="fill:rgb(213,167,111);fill-rule:nonzero;"/>
            </g>
            <g transform="matrix(4.16667,0,0,4.16667,2075.04,1692.52)">
                <path d="M0,21.667C2.227,18.785 4.128,15.644 5.657,12.337C6.372,10.788 7.007,9.2 7.538,7.578C8.265,5.356 8.642,3.04 8.769,0.708C8.957,-2.728 8.615,-6.148 8.235,-9.559C8.166,-4.874 7.792,-0.127 5.879,4.198C4.794,6.652 3.207,8.886 1.503,10.945C-0.25,13.062 -2.196,15.02 -4.253,16.842C-8.17,20.31 -12.467,23.373 -17.489,24.998C-19.925,25.786 -22.475,26.234 -25.037,26.252C-26.34,26.262 -27.644,26.166 -28.932,25.961C-30.383,25.73 -31.821,25.497 -33.248,25.143C-34.642,24.797 -36.018,24.381 -37.371,23.902C-38.568,23.479 -39.768,23.015 -40.917,22.465C-34.606,27.919 -26.386,31.226 -17.39,31.226C-14.548,31.226 -11.788,30.886 -9.136,30.265C-8.685,29.976 -8.24,29.678 -7.806,29.367C-4.828,27.221 -2.24,24.565 0,21.667" style="fill:rgb(213,167,111);fill-rule:nonzero;"/>
            </g>
            <g transform="matrix(4.16667,0,0,4.16667,1867.63,1687.14)">
                <path d="M0,8.737C1.976,13.763 5.292,18.208 9.318,21.808C6.867,19.058 5.062,15.792 3.565,12.427C1.775,8.4 0.388,4.142 0.047,-0.252C-0.3,-4.733 0.62,-8.876 2.082,-13.071C-4.303,-8.333 -2.475,2.444 0,8.737" style="fill:rgb(247,239,206);fill-rule:nonzero;"/>
            </g>
            <g transform="matrix(4.16667,0,0,4.16667,2002.16,1612.19)">
                <path d="M0,-2.511C5.464,-3.811 11.596,-1.65 15.038,2.789C15.498,1.731 15.239,0.463 14.609,-0.505C13.979,-1.471 13.028,-2.182 12.045,-2.786C9.564,-4.31 6.678,-5.3 3.774,-5.126C1.021,-4.959 -2.248,-3.536 -3.511,-0.944C-2.37,-1.586 -1.31,-2.199 0,-2.511" style="fill:rgb(247,239,206);fill-rule:nonzero;"/>
            </g>
            <g transform="matrix(4.16667,0,0,4.16667,2129.73,1765.01)">
                <path d="M0,-27.384C0.483,-22.693 0.771,-17.953 0.246,-13.266C-0.28,-8.581 -1.65,-3.924 -4.266,0C-1.044,-3.194 1.65,-7.202 2.399,-11.703C2.844,-14.387 2.858,-17.139 2.442,-19.827C2.235,-21.17 1.922,-22.497 1.5,-23.789C1.146,-24.877 0.112,-26.293 0,-27.384" style="fill:rgb(247,239,206);fill-rule:nonzero;"/>
            </g>
            <g transform="matrix(4.16667,0,0,4.16667,2075.26,1660.17)">
                <path d="M0,17.73C1.57,16.043 3.103,14.283 4.154,12.233C5.28,10.029 5.81,7.567 6.093,5.109C6.692,-0.076 6.132,-5.672 3.028,-9.867C4.009,-6.196 5.001,-2.415 4.552,1.358C4.154,4.706 2.645,7.815 0.957,10.733C-2.651,16.972 -7.184,22.676 -12.449,27.597C-11.642,26.843 -9.58,26.505 -8.546,25.853C-7.691,25.311 -6.96,24.711 -6.228,24.021C-4.086,22.005 -2.004,19.884 0,17.73" style="fill:rgb(247,239,206);fill-rule:nonzero;"/>
            </g>
            <g transform="matrix(4.16667,0,0,4.16667,1954.89,1653.76)">
                <path d="M0,10.438C3.963,14.092 10.694,14.484 14.761,10.947C18.037,8.097 19.18,3.462 19.194,-0.88C18.07,2.96 16.468,7.076 12.956,8.991C11.109,9.998 8.947,10.256 6.843,10.276C5.202,10.292 3.493,10.154 2.072,9.332C-0.261,7.983 -1.241,5.175 -2.042,2.6C-2.736,0.371 -3.171,-1.738 -3.041,-4.046C-4.986,0.764 -3.853,6.887 0,10.438" style="fill:rgb(247,239,206);fill-rule:nonzero;"/>
            </g>
            <g transform="matrix(4.16667,0,0,4.16667,0,0)">
                <g opacity="0.3">
                    <g transform="matrix(1,0,0,1,467.547,445.782)">
                        <path d="M0,-81.32C-10.222,-79.386 -18.403,-71.273 -23.119,-61.999C-26,-56.331 -27.831,-50.088 -28.101,-43.735C-28.214,-41.134 -28.049,-38.453 -26.99,-36.074C-25.931,-33.695 -23.84,-31.654 -21.271,-31.225C-20.825,-42.888 -16.343,-54.38 -8.681,-63.186C-1.02,-71.992 9.784,-78.035 21.317,-79.833C25.647,-80.509 29.794,-83.265 34.082,-82.364C35.865,-81.989 37.546,-80.918 38.411,-79.314C39.277,-77.71 39.194,-75.571 38.008,-74.188C36.437,-72.351 33.674,-72.316 31.259,-72.227C18.328,-71.751 5.749,-65.223 -2.085,-54.926C-9.921,-44.629 -12.856,-30.764 -9.866,-18.175C-9.522,-16.727 -9.105,-15.212 -9.502,-13.778C-10.469,-10.289 -9.342,-6.303 -6.69,-3.837C-5.667,-2.887 -4.025,-2.168 -2.945,-3.052C-2.543,-3.38 -2.314,-3.871 -2.131,-4.357C-0.228,-9.431 -2.259,-15.052 -2.269,-20.472C-2.278,-25.713 -0.284,-30.932 3.218,-34.83C4.415,-36.163 5.898,-37.772 5.346,-39.475C3.857,-44.073 4.417,-49.294 6.848,-53.47C9.28,-57.647 13.542,-60.713 18.275,-61.689C19.588,-61.96 20.959,-62.075 22.261,-61.761C23.678,-61.421 24.92,-60.6 26.21,-59.92C31.601,-57.072 38.849,-56.889 43.32,-61.036C44.921,-62.52 46.115,-64.485 48.01,-65.573C49.903,-66.661 52.935,-66.259 53.485,-64.145C53.969,-62.277 52.28,-60.647 51.046,-59.163C49.253,-57.006 48.179,-54.261 48.034,-51.46C35.291,-43.961 24.138,-33.774 15.519,-21.759C13.581,-19.057 11.721,-16.138 11.292,-12.84C11.011,-10.683 11.363,-8.499 11.715,-6.353C11.942,-4.959 12.176,-3.55 12.739,-2.255C13.749,0.06 16.043,1.945 18.568,1.869C21.096,1.793 23.442,-0.74 22.824,-3.191C22.163,-5.797 23.176,-8.513 24.277,-10.968C30.683,-25.257 40.789,-37.868 53.335,-47.237C54.295,-47.952 55.539,-48.681 56.614,-48.152C57.331,-47.799 57.699,-46.982 57.838,-46.195C58.369,-43.201 56.419,-40.392 54.612,-37.949C48.59,-29.808 42.886,-21.103 40.623,-11.234C40.61,-11.179 40.584,-11.127 40.549,-11.083" style="fill:none;fill-rule:nonzero;stroke:rgb(138,93,59);stroke-width:3.01px;"/>
                    </g>
                </g>
            </g>
            <g transform="matrix(4.16667,0,0,4.16667,1940.51,1853.89)">
                <path d="M0,-81.32C-10.222,-79.385 -18.403,-71.273 -23.119,-61.999C-26,-56.331 -27.831,-50.088 -28.101,-43.735C-28.214,-41.133 -28.049,-38.453 -26.99,-36.074C-25.931,-33.695 -23.84,-31.653 -21.271,-31.225C-20.825,-42.888 -16.343,-54.38 -8.681,-63.186C-1.02,-71.992 9.784,-78.034 21.317,-79.833C25.647,-80.509 29.794,-83.265 34.082,-82.364C35.865,-81.989 37.546,-80.918 38.411,-79.314C39.277,-77.71 39.194,-75.571 38.008,-74.188C36.436,-72.351 33.674,-72.316 31.259,-72.227C18.328,-71.751 5.749,-65.223 -2.085,-54.926C-9.921,-44.629 -12.856,-30.764 -9.867,-18.175C-9.522,-16.727 -9.105,-15.211 -9.502,-13.778C-10.469,-10.289 -9.342,-6.303 -6.69,-3.837C-5.667,-2.887 -4.025,-2.168 -2.945,-3.052C-2.543,-3.38 -2.314,-3.871 -2.131,-4.357C-0.228,-9.431 -2.259,-15.052 -2.269,-20.472C-2.278,-25.713 -0.284,-30.932 3.218,-34.83C4.415,-36.163 5.898,-37.771 5.346,-39.475C3.857,-44.073 4.417,-49.294 6.848,-53.47C9.28,-57.647 13.542,-60.713 18.275,-61.689C19.588,-61.96 20.959,-62.075 22.262,-61.761C23.678,-61.421 24.92,-60.6 26.21,-59.92C31.601,-57.071 38.849,-56.889 43.32,-61.036C44.921,-62.52 46.115,-64.485 48.01,-65.573C49.903,-66.661 52.935,-66.259 53.484,-64.145C53.969,-62.277 52.28,-60.647 51.046,-59.163C49.253,-57.006 48.179,-54.261 48.034,-51.46C35.291,-43.961 24.138,-33.774 15.519,-21.759C13.581,-19.057 11.721,-16.138 11.292,-12.84C11.01,-10.683 11.363,-8.499 11.715,-6.353C11.942,-4.959 12.176,-3.55 12.739,-2.255C13.749,0.061 16.043,1.945 18.568,1.869C21.095,1.793 23.443,-0.74 22.824,-3.191C22.163,-5.797 23.176,-8.513 24.277,-10.968C30.683,-25.257 40.789,-37.868 53.335,-47.237C54.295,-47.952 55.539,-48.68 56.614,-48.152C57.331,-47.799 57.699,-46.982 57.838,-46.194C58.369,-43.201 56.419,-40.392 54.612,-37.948C48.59,-29.807 42.885,-21.103 40.623,-11.234C40.61,-11.179 40.584,-11.127 40.549,-11.083" style="fill:none;fill-rule:nonzero;stroke:rgb(138,93,59);stroke-width:3.01px;"/>
            </g>
            <g transform="matrix(0,-4.16667,-4.16667,0,2022.32,1625.67)">
                <path d="M-1.62,-1.62C-2.514,-1.62 -3.24,-0.894 -3.24,0C-3.24,0.895 -2.514,1.62 -1.62,1.62C-0.725,1.62 0,0.895 0,0C0,-0.894 -0.725,-1.62 -1.62,-1.62" style="fill:rgb(96,56,18);fill-rule:nonzero;"/>
            </g>
            <g transform="matrix(0,-4.16667,-4.16667,0,2020.93,1628.14)">
                <path d="M-0.544,-0.544C-0.843,-0.544 -1.087,-0.301 -1.087,-0C-1.087,0.301 -0.843,0.544 -0.544,0.544C-0.243,0.544 -0,0.301 -0,-0C-0,-0.301 -0.243,-0.544 -0.544,-0.544" style="fill:rgb(247,239,206);fill-rule:nonzero;"/>
            </g>
            <g transform="matrix(0,-4.16667,-4.16667,0,1995.83,1644.16)">
                <path d="M-1.62,-1.62C-2.514,-1.62 -3.24,-0.895 -3.24,-0C-3.24,0.894 -2.514,1.62 -1.62,1.62C-0.724,1.62 0.001,0.894 0.001,-0C0.001,-0.895 -0.724,-1.62 -1.62,-1.62" style="fill:rgb(96,56,18);fill-rule:nonzero;"/>
            </g>
            <g transform="matrix(0,-4.16667,-4.16667,0,1994.44,1646.63)">
                <path d="M-0.544,-0.544C-0.843,-0.544 -1.087,-0.301 -1.087,-0C-1.087,0.301 -0.843,0.544 -0.544,0.544C-0.243,0.544 -0,0.301 -0,-0C-0,-0.301 -0.243,-0.544 -0.544,-0.544" style="fill:rgb(247,239,206);fill-rule:nonzero;"/>
            </g>
            <g transform="matrix(0,-4.16667,-4.16667,0,2020.93,1656.29)">
                <path d="M-1.62,-1.62C-2.515,-1.62 -3.24,-0.894 -3.24,0C-3.24,0.895 -2.515,1.62 -1.62,1.62C-0.726,1.62 0,0.895 0,0C0,-0.894 -0.726,-1.62 -1.62,-1.62" style="fill:rgb(96,56,18);fill-rule:nonzero;"/>
            </g>
            <g transform="matrix(0,-4.16667,-4.16667,0,2019.54,1658.76)">
                <path d="M-0.544,-0.544C-0.845,-0.544 -1.087,-0.3 -1.087,0C-1.087,0.301 -0.845,0.544 -0.544,0.544C-0.244,0.544 -0.001,0.301 -0.001,0C-0.001,-0.3 -0.244,-0.544 -0.544,-0.544" style="fill:rgb(247,239,206);fill-rule:nonzero;"/>
            </g>
            <g transform="matrix(0,-4.16667,-4.16667,0,2001.42,1622.45)">
                <path d="M-1.62,-1.62C-2.515,-1.62 -3.24,-0.893 -3.24,-0C-3.24,0.894 -2.515,1.62 -1.62,1.62C-0.725,1.62 0.001,0.894 0.001,-0C0.001,-0.893 -0.725,-1.62 -1.62,-1.62" style="fill:rgb(96,56,18);fill-rule:nonzero;"/>
            </g>
            <g transform="matrix(0,-4.16667,-4.16667,0,2000.03,1624.92)">
                <path d="M-0.544,-0.544C-0.845,-0.544 -1.087,-0.3 -1.087,-0.001C-1.087,0.3 -0.845,0.544 -0.544,0.544C-0.244,0.544 -0.001,0.3 -0.001,-0.001C-0.001,-0.3 -0.244,-0.544 -0.544,-0.544" style="fill:rgb(247,239,206);fill-rule:nonzero;"/>
            </g>
            <g transform="matrix(0,-4.16667,-4.16667,0,2014.18,1639.88)">
                <path d="M-1.62,-1.62C-2.515,-1.62 -3.24,-0.893 -3.24,0.001C-3.24,0.894 -2.515,1.62 -1.62,1.62C-0.724,1.62 0.001,0.894 0.001,0.001C0.001,-0.893 -0.724,-1.62 -1.62,-1.62" style="fill:rgb(96,56,18);fill-rule:nonzero;"/>
            </g>
            <g transform="matrix(0,-4.16667,-4.16667,0,2012.78,1642.35)">
                <path d="M-0.544,-0.544C-0.844,-0.544 -1.087,-0.3 -1.087,-0.001C-1.087,0.3 -0.844,0.544 -0.544,0.544C-0.244,0.544 -0.001,0.3 -0.001,-0.001C-0.001,-0.3 -0.244,-0.544 -0.544,-0.544" style="fill:rgb(247,239,206);fill-rule:nonzero;"/>
            </g>
            <g transform="matrix(0,-4.16667,-4.16667,0,2035.83,1639.17)">
                <path d="M-1.62,-1.62C-2.515,-1.62 -3.24,-0.893 -3.24,0.001C-3.24,0.895 -2.515,1.62 -1.62,1.62C-0.725,1.62 0.001,0.895 0.001,0.001C0.001,-0.893 -0.725,-1.62 -1.62,-1.62" style="fill:rgb(96,56,18);fill-rule:nonzero;"/>
            </g>
            <g transform="matrix(0,-4.16667,-4.16667,0,2034.43,1641.64)">
                <path d="M-0.544,-0.544C-0.845,-0.544 -1.087,-0.3 -1.087,0C-1.087,0.3 -0.845,0.544 -0.544,0.544C-0.244,0.544 -0.001,0.3 -0.001,0C-0.001,-0.3 -0.244,-0.544 -0.544,-0.544" style="fill:rgb(247,239,206);fill-rule:nonzero;"/>
            </g>
            <g transform="matrix(0,-4.16667,-4.16667,0,2007.43,1679.07)">
                <path d="M-1.62,-1.62C-2.515,-1.62 -3.24,-0.895 -3.24,-0C-3.24,0.894 -2.515,1.62 -1.62,1.62C-0.724,1.62 0.001,0.894 0.001,-0C0.001,-0.895 -0.724,-1.62 -1.62,-1.62" style="fill:rgb(96,56,18);fill-rule:nonzero;"/>
            </g>
            <g transform="matrix(0,-4.16667,-4.16667,0,2006.03,1681.55)">
                <path d="M-0.544,-0.544C-0.845,-0.544 -1.087,-0.301 -1.087,-0C-1.087,0.301 -0.845,0.544 -0.544,0.544C-0.243,0.544 -0,0.301 -0,-0C-0,-0.301 -0.243,-0.544 -0.544,-0.544" style="fill:rgb(247,239,206);fill-rule:nonzero;"/>
            </g>
            <g transform="matrix(0,-4.16667,-4.16667,0,1976.55,1658.77)">
                <path d="M-1.62,-1.62C-2.515,-1.62 -3.24,-0.894 -3.24,0C-3.24,0.895 -2.515,1.62 -1.62,1.62C-0.725,1.62 0,0.895 0,0C0,-0.894 -0.725,-1.62 -1.62,-1.62" style="fill:rgb(96,56,18);fill-rule:nonzero;"/>
            </g>
            <g transform="matrix(0,-4.16667,-4.16667,0,1975.16,1661.24)">
                <path d="M-0.544,-0.544C-0.845,-0.544 -1.087,-0.301 -1.087,-0C-1.087,0.301 -0.845,0.544 -0.544,0.544C-0.244,0.544 -0,0.301 -0,-0C-0,-0.301 -0.244,-0.544 -0.544,-0.544" style="fill:rgb(247,239,206);fill-rule:nonzero;"/>
            </g>
            <g transform="matrix(0,-4.16667,-4.16667,0,1997.76,1661.62)">
                <path d="M-1.62,-1.62C-2.515,-1.62 -3.24,-0.893 -3.24,0.001C-3.24,0.895 -2.515,1.62 -1.62,1.62C-0.725,1.62 0.001,0.895 0.001,0.001C0.001,-0.893 -0.725,-1.62 -1.62,-1.62" style="fill:rgb(96,56,18);fill-rule:nonzero;"/>
            </g>
            <g transform="matrix(0,-4.16667,-4.16667,0,1996.37,1664.08)">
                <path d="M-0.544,-0.544C-0.845,-0.544 -1.087,-0.3 -1.087,0C-1.087,0.3 -0.845,0.544 -0.544,0.544C-0.244,0.544 -0.001,0.3 -0.001,0C-0.001,-0.3 -0.244,-0.544 -0.544,-0.544" style="fill:rgb(247,239,206);fill-rule:nonzero;"/>
            </g>
            <g transform="matrix(0,-4.16667,-4.16667,0,1977.43,1628.14)">
                <path d="M-1.62,-1.62C-2.515,-1.62 -3.24,-0.893 -3.24,0.001C-3.24,0.894 -2.515,1.62 -1.62,1.62C-0.725,1.62 0.001,0.894 0.001,0.001C0.001,-0.893 -0.725,-1.62 -1.62,-1.62" style="fill:rgb(96,56,18);fill-rule:nonzero;"/>
            </g>
            <g transform="matrix(0,-4.16667,-4.16667,0,1976.03,1630.61)">
                <path d="M-0.544,-0.544C-0.845,-0.544 -1.087,-0.3 -1.087,-0.001C-1.087,0.3 -0.845,0.544 -0.544,0.544C-0.244,0.544 -0.001,0.3 -0.001,-0.001C-0.001,-0.3 -0.244,-0.544 -0.544,-0.544" style="fill:rgb(247,239,206);fill-rule:nonzero;"/>
            </g>
            <g transform="matrix(0,-4.16667,-4.16667,0,2043.45,1665.83)">
                <path d="M-1.62,-1.62C-2.514,-1.62 -3.24,-0.893 -3.24,0.001C-3.24,0.895 -2.514,1.62 -1.62,1.62C-0.724,1.62 0.001,0.895 0.001,0.001C0.001,-0.893 -0.724,-1.62 -1.62,-1.62" style="fill:rgb(96,56,18);fill-rule:nonzero;"/>
            </g>
            <g transform="matrix(0,-4.16667,-4.16667,0,2042.05,1668.3)">
                <path d="M-0.544,-0.544C-0.844,-0.544 -1.087,-0.3 -1.087,0C-1.087,0.3 -0.844,0.544 -0.544,0.544C-0.243,0.544 -0.001,0.3 -0.001,0C-0.001,-0.3 -0.243,-0.544 -0.544,-0.544" style="fill:rgb(247,239,206);fill-rule:nonzero;"/>
            </g>
            <g transform="matrix(0,-4.16667,-4.16667,0,2056.94,1642.79)">
                <path d="M-1.62,-1.62C-2.514,-1.62 -3.24,-0.893 -3.24,-0C-3.24,0.894 -2.514,1.62 -1.62,1.62C-0.724,1.62 0.001,0.894 0.001,-0C0.001,-0.893 -0.724,-1.62 -1.62,-1.62" style="fill:rgb(96,56,18);fill-rule:nonzero;"/>
            </g>
            <g transform="matrix(0,-4.16667,-4.16667,0,2055.55,1645.27)">
                <path d="M-0.544,-0.544C-0.844,-0.544 -1.087,-0.3 -1.087,-0.001C-1.087,0.3 -0.844,0.544 -0.544,0.544C-0.243,0.544 -0.001,0.3 -0.001,-0.001C-0.001,-0.3 -0.243,-0.544 -0.544,-0.544" style="fill:rgb(247,239,206);fill-rule:nonzero;"/>
            </g>
            <g transform="matrix(0,-4.16667,-4.16667,0,2041.18,1618.92)">
                <path d="M-1.62,-1.62C-2.515,-1.62 -3.24,-0.894 -3.24,0C-3.24,0.895 -2.515,1.62 -1.62,1.62C-0.726,1.62 0,0.895 0,0C0,-0.894 -0.726,-1.62 -1.62,-1.62" style="fill:rgb(96,56,18);fill-rule:nonzero;"/>
            </g>
            <g transform="matrix(0,-4.16667,-4.16667,0,2039.78,1621.39)">
                <path d="M-0.544,-0.544C-0.845,-0.544 -1.087,-0.301 -1.087,-0C-1.087,0.301 -0.845,0.544 -0.544,0.544C-0.244,0.544 -0,0.301 -0,-0C-0,-0.301 -0.244,-0.544 -0.544,-0.544" style="fill:rgb(247,239,206);fill-rule:nonzero;"/>
            </g>
            <g transform="matrix(0,-4.16667,-4.16667,0,2012.79,1606.51)">
                <path d="M-1.62,-1.62C-2.515,-1.62 -3.24,-0.893 -3.24,-0C-3.24,0.894 -2.515,1.62 -1.62,1.62C-0.725,1.62 0.001,0.894 0.001,-0C0.001,-0.893 -0.725,-1.62 -1.62,-1.62" style="fill:rgb(96,56,18);fill-rule:nonzero;"/>
            </g>
            <g transform="matrix(0,-4.16667,-4.16667,0,2011.39,1608.98)">
                <path d="M-0.544,-0.544C-0.845,-0.544 -1.087,-0.3 -1.087,-0.001C-1.087,0.3 -0.845,0.544 -0.544,0.544C-0.244,0.544 -0.001,0.3 -0.001,-0.001C-0.001,-0.3 -0.244,-0.544 -0.544,-0.544" style="fill:rgb(247,239,206);fill-rule:nonzero;"/>
            </g>
            <g transform="matrix(0,-4.16667,-4.16667,0,2029.07,1680.3)">
                <path d="M-1.62,-1.62C-2.515,-1.62 -3.24,-0.893 -3.24,-0C-3.24,0.894 -2.515,1.62 -1.62,1.62C-0.725,1.62 0.001,0.894 0.001,-0C0.001,-0.893 -0.725,-1.62 -1.62,-1.62" style="fill:rgb(96,56,18);fill-rule:nonzero;"/>
            </g>
            <g transform="matrix(0,-4.16667,-4.16667,0,2027.68,1682.77)">
                <path d="M-0.544,-0.544C-0.845,-0.544 -1.087,-0.3 -1.087,-0.001C-1.087,0.3 -0.845,0.544 -0.544,0.544C-0.243,0.544 -0.001,0.3 -0.001,-0.001C-0.001,-0.3 -0.243,-0.544 -0.544,-0.544" style="fill:rgb(247,239,206);fill-rule:nonzero;"/>
            </g>
            <g transform="matrix(0,-4.16667,-4.16667,0,1986.6,1696.09)">
                <path d="M-1.62,-1.619C-2.514,-1.619 -3.239,-0.894 -3.239,0C-3.239,0.895 -2.514,1.62 -1.62,1.62C-0.725,1.62 0,0.895 0,0C0,-0.894 -0.725,-1.619 -1.62,-1.619" style="fill:rgb(96,56,18);fill-rule:nonzero;"/>
            </g>
            <g transform="matrix(0,-4.16667,-4.16667,0,1985.2,1698.57)">
                <path d="M-0.544,-0.543C-0.844,-0.543 -1.087,-0.3 -1.087,0C-1.087,0.301 -0.844,0.544 -0.544,0.544C-0.243,0.544 0,0.301 0,0C0,-0.3 -0.243,-0.543 -0.544,-0.543" style="fill:rgb(247,239,206);fill-rule:nonzero;"/>
            </g>
            <g transform="matrix(0,-4.16667,-4.16667,0,1986.6,1676.02)">
                <path d="M-1.62,-1.619C-2.515,-1.619 -3.239,-0.894 -3.239,0C-3.239,0.895 -2.515,1.62 -1.62,1.62C-0.725,1.62 0,0.895 0,0C0,-0.894 -0.725,-1.619 -1.62,-1.619" style="fill:rgb(96,56,18);fill-rule:nonzero;"/>
            </g>
            <g transform="matrix(0,-4.16667,-4.16667,0,1985.2,1678.49)">
                <path d="M-0.544,-0.544C-0.843,-0.544 -1.087,-0.301 -1.087,-0C-1.087,0.301 -0.843,0.544 -0.544,0.544C-0.243,0.544 -0,0.301 -0,-0C-0,-0.301 -0.243,-0.544 -0.544,-0.544" style="fill:rgb(247,239,206);fill-rule:nonzero;"/>
            </g>
            <g transform="matrix(0,-4.16667,-4.16667,0,1954.63,1665.83)">
                <path d="M-1.62,-1.62C-2.514,-1.62 -3.24,-0.895 -3.24,-0C-3.24,0.894 -2.514,1.62 -1.62,1.62C-0.724,1.62 0.001,0.894 0.001,-0C0.001,-0.895 -0.724,-1.62 -1.62,-1.62" style="fill:rgb(96,56,18);fill-rule:nonzero;"/>
            </g>
            <g transform="matrix(0,-4.16667,-4.16667,0,1953.24,1668.31)">
                <path d="M-0.544,-0.544C-0.843,-0.544 -1.087,-0.301 -1.087,-0C-1.087,0.301 -0.843,0.544 -0.544,0.544C-0.243,0.544 -0,0.301 -0,-0C-0,-0.301 -0.243,-0.544 -0.544,-0.544" style="fill:rgb(247,239,206);fill-rule:nonzero;"/>
            </g>
            <g transform="matrix(0,-4.16667,-4.16667,0,1966.14,1645.92)">
                <path d="M-1.62,-1.62C-2.514,-1.62 -3.24,-0.894 -3.24,0C-3.24,0.895 -2.514,1.62 -1.62,1.62C-0.725,1.62 0,0.895 0,0C0,-0.894 -0.725,-1.62 -1.62,-1.62" style="fill:rgb(96,56,18);fill-rule:nonzero;"/>
            </g>
            <g transform="matrix(0,-4.16667,-4.16667,0,1964.75,1648.39)">
                <path d="M-0.544,-0.544C-0.844,-0.544 -1.087,-0.3 -1.087,0C-1.087,0.3 -0.844,0.544 -0.544,0.544C-0.243,0.544 -0.001,0.3 -0.001,0C-0.001,-0.3 -0.243,-0.544 -0.544,-0.544" style="fill:rgb(247,239,206);fill-rule:nonzero;"/>
            </g>
            <g transform="matrix(4.16667,0,0,4.16667,2002.58,1846.47)">
                <path d="M0,-41.734L48.563,-41.734C48.563,-33.319 46.377,-25.046 42.216,-17.729C38.057,-10.414 32.065,-4.304 24.834,0L0,-41.734Z" style="fill:white;fill-rule:nonzero;"/>
            </g>
            <g transform="matrix(4.16667,0,0,4.16667,1800.24,1671.79)">
                <path d="M0,0L97.315,0" style="fill:none;fill-rule:nonzero;stroke:rgb(96,56,18);stroke-width:1.09px;stroke-linecap:butt;stroke-linejoin:miter;"/>
            </g>
            <g transform="matrix(-2.08769,3.60592,3.60592,2.08769,2106.26,1848.02)">
                <path d="M-73.208,-42.207L24.335,-42.208" style="fill:none;fill-rule:nonzero;stroke:rgb(96,56,18);stroke-width:1.09px;stroke-linecap:butt;stroke-linejoin:miter;"/>
            </g>
            <g transform="matrix(2.09187,3.6035,3.6035,-2.09187,2105.34,1495.51)">
                <path d="M-24.212,-42.051L73.034,-42.051" style="fill:none;fill-rule:nonzero;stroke:rgb(96,56,18);stroke-width:1.09px;stroke-linecap:butt;stroke-linejoin:miter;"/>
            </g>
            <g transform="matrix(0,-4.16667,-4.16667,0,2003.39,1469.7)">
                <ellipse cx="-48.563" cy="0" rx="48.563" ry="48.564" style="fill:none;stroke:rgb(35,31,32);stroke-width:1px;stroke-linecap:butt;stroke-linejoin:miter;"/>
            </g>
        </g>
    </g>
    <defs>
        <radialGradient id="_Radial1" cx="0" cy="0" r="1" gradientUnits="userSpaceOnUse" gradientTransform="matrix(0,1,1,0,-2.70779e-06,2.70779e-06)"><stop offset="0" style="stop-color:rgb(231,193,138);stop-opacity:1"/><stop offset="0.93" style="stop-color:rgb(183,126,78);stop-opacity:1"/><stop offset="1" style="stop-color:rgb(183,126,78);stop-opacity:1"/></radialGradient>
    </defs>
</svg>
