<?xml version="1.0" encoding="UTF-8" standalone="no"?>
<!DOCTYPE svg PUBLIC "-//W3C//DTD SVG 1.1//EN" "http://www.w3.org/Graphics/SVG/1.1/DTD/svg11.dtd">
<svg width="100%" height="100%" viewBox="0 0 273 308" version="1.1" xmlns="http://www.w3.org/2000/svg" xmlns:xlink="http://www.w3.org/1999/xlink" xml:space="preserve" xmlns:serif="http://www.serif.com/" style="fill-rule:evenodd;clip-rule:evenodd;stroke-linejoin:round;stroke-miterlimit:2;">
    <g transform="matrix(1,0,0,1,-11720,-405)">
        <g transform="matrix(4.16667,0,0,4.16667,11137.5,0)">
            <g transform="matrix(0.24,0,0,0.24,-2622.33,305.77)">
                <g transform="matrix(4.16667,0,0,4.16667,11574.3,-838.596)">
                    <path d="M0,12.72C1.147,13.969 2.988,13.882 5.12,13.783C7.054,13.69 9.053,13.598 10.784,14.55C11.554,14.973 12.163,15.55 12.751,16.109C13.238,16.571 13.696,17.006 14.209,17.322C16.77,18.894 20.192,17.25 21.545,16.471C22.252,16.065 22.942,15.615 23.632,15.165C25.406,14.01 27.24,12.816 29.391,12.305C29.635,12.246 29.884,12.197 30.133,12.148C30.829,12.011 31.487,11.881 31.974,11.546C32.567,11.141 32.904,10.418 33.082,9.884C34.198,6.546 32.067,2.86 29.496,1.086C27.313,-0.42 24.442,-1.238 20.76,-1.406C21.886,1.623 21.799,4.542 20.469,6.727L18.996,5.829C20.153,3.93 20.075,1.118 18.786,-1.692C18.251,-2.86 17.692,-3.685 17.027,-4.291C14.957,-6.174 11.19,-5.913 9.122,-3.741C7.232,-1.759 6.76,1.583 7.916,4.351C9.633,3.879 11.444,3.777 13.214,3.992C17.032,4.517 20.513,6.398 23.121,9.021C19.733,7.526 16.448,6.134 12.99,5.7C9.561,5.255 6.032,5.712 2.766,7.458C3.689,6.347 4.928,5.498 6.287,4.908C5.482,2.923 5.35,0.751 5.861,-1.215C3.651,-0.562 1.667,0.858 0.389,2.775C-1.158,5.095 -1.656,8.089 -0.941,10.786C-0.713,11.647 -0.405,12.28 0,12.72" style="fill:white;fill-rule:nonzero;"/>
                </g>
                <g transform="matrix(0.321314,-4.15426,-4.15426,-0.321314,11638.5,-861.74)">
                    <path d="M-7.286,-5.627C-13.135,-5.919 -11.014,-5.51 -10.98,1.568C-10.951,7.442 -11.172,7.585 -7.286,7.886C-3.401,8.186 -0.029,5.566 0.244,2.034C0.518,-1.499 -3.394,-5.433 -7.286,-5.627" style="fill:rgb(201,21,47);fill-rule:nonzero;"/>
                </g>
                <g transform="matrix(4.16667,0,0,4.16667,11672.6,-584.565)">
                    <path d="M0,-23.092L-4.053,-26.96L-3.789,-4.715L-5.611,-26.685L-9.811,-21.152L-8.599,3.868C-5.506,3.739 -2.696,3.345 -0.233,2.816L0,-23.092Z" style="fill:rgb(188,203,89);fill-rule:nonzero;"/>
                </g>
                <g transform="matrix(4.16667,0,0,4.16667,11732.9,-582.349)">
                    <path d="M0,-27.864L-7.89,-29.747L-8.326,-7.39L-9.458,-28.332L-12.759,-23.71L-12.989,1.883C-10.458,1.243 -8.365,0.496 -6.772,-0.164L0,-27.864Z" style="fill:rgb(154,169,88);fill-rule:nonzero;"/>
                </g>
                <g transform="matrix(3.43533,-2.35788,-2.35788,-3.43533,11760.8,-716.39)">
                    <path d="M-1.147,1.036L2.651,1.036L0.826,5.423C0.781,5.406 0.738,5.387 0.692,5.372C0.339,3.838 -0.283,2.361 -1.147,1.036" style="fill:rgb(211,232,244);fill-rule:nonzero;"/>
                </g>
                <g transform="matrix(4.16667,0,0,4.16667,11550.1,-797.25)">
                    <path d="M0,15.303C0.783,15.188 1.488,14.616 2.235,14.012C2.472,13.822 2.708,13.631 2.946,13.452C4.258,12.473 6.168,11.819 7.61,12.908C8.296,13.426 8.611,14.163 8.89,14.815C9.005,15.082 9.118,15.353 9.265,15.598C10.065,16.949 11.896,17.448 13.701,17.844C14.852,18.096 16.039,18.297 16.824,17.784C17.146,17.574 17.422,17.225 17.714,16.856C17.879,16.65 18.043,16.445 18.218,16.251C19.983,14.315 22.988,13.707 25.363,14.81C26.253,15.223 27.037,15.835 27.795,16.428C29.012,17.378 30.062,18.199 31.253,18.038C32.292,17.899 33.068,17.048 33.969,16.065C34.819,15.135 35.699,14.174 36.943,13.693C38.647,13.034 40.438,13.515 42.018,13.939L42.595,14.093C43.945,14.442 45.749,14.646 46.683,13.649C47.284,13.005 47.413,11.933 47.458,11.182C47.766,6.011 45.112,0.723 40.888,-2.28C40.924,-1.357 40.831,-0.421 40.521,0.508C40.139,1.649 39.545,2.502 38.753,3.045C37.973,3.58 37.068,3.759 36.27,3.916C36.043,3.962 35.816,4.006 35.594,4.059C33.734,4.501 32.104,5.564 30.377,6.688C29.661,7.155 28.943,7.62 28.209,8.043C26.215,9.191 24.257,9.772 22.505,9.772C21.248,9.772 20.096,9.472 19.111,8.868C18.444,8.458 17.897,7.939 17.368,7.438C16.835,6.931 16.332,6.453 15.758,6.137C14.452,5.42 12.778,5.499 11.004,5.582C8.659,5.694 6.228,5.808 4.534,3.964C3.936,3.312 3.498,2.443 3.196,1.305C2.825,-0.093 2.748,-1.557 2.916,-2.994C1.387,-2.162 0.033,-0.75 -0.933,1.059C-2.174,3.382 -2.684,6.022 -3.051,8.53C-3.279,10.091 -3.458,11.735 -2.933,13.154C-2.49,14.356 -1.29,15.486 0,15.303" style="fill:rgb(142,87,68);fill-rule:nonzero;"/>
                </g>
                <g transform="matrix(4.16667,0,0,4.16667,11744.6,-687.75)">
                    <path d="M0,-10.604C-1.166,-10.094 -2.685,-10.044 -4.515,-10.518L-5.109,-10.676C-6.562,-11.067 -7.935,-11.436 -9.113,-10.98C-9.98,-10.644 -10.688,-9.871 -11.438,-9.052C-12.422,-7.976 -13.538,-6.757 -15.195,-6.533C-17.1,-6.272 -18.614,-7.454 -19.945,-8.495C-20.658,-9.051 -21.33,-9.577 -22.042,-9.907C-23.723,-10.686 -25.935,-10.241 -27.186,-8.87C-27.334,-8.705 -27.474,-8.528 -27.613,-8.352C-27.961,-7.914 -28.355,-7.416 -28.91,-7.053C-29.607,-6.597 -30.397,-6.453 -31.154,-6.453C-31.98,-6.453 -32.765,-6.624 -33.347,-6.751C-35.427,-7.208 -37.743,-7.857 -38.897,-9.801C-39.081,-10.111 -39.228,-10.449 -39.373,-10.786C-39.595,-11.305 -39.787,-11.753 -40.108,-11.996C-40.745,-12.477 -41.868,-12.067 -42.702,-11.445C-42.923,-11.281 -43.14,-11.104 -43.359,-10.927C-44.212,-10.237 -45.179,-9.456 -46.429,-9.272C-47.241,-9.155 -48.007,-9.319 -48.688,-9.657C-48.636,-8.412 -48.57,-6.982 -48.504,-5.548C-48.428,-3.906 -48.354,-2.282 -48.299,-0.923L-43.65,-6.996L-38.966,0.979L-33.316,-5.944L-27.928,1.873L-22.315,-5.522L-16.532,-0.003L-11.884,-6.51L-1.918,-4.133L0.607,-5.868C0.731,-7.465 0.523,-9.088 0,-10.604" style="fill:rgb(216,168,102);fill-rule:nonzero;"/>
                </g>
                <g transform="matrix(4.16667,0,0,4.16667,11754,-595.754)">
                    <path d="M0,-26.9L-0.103,-26.916L-3.24,-24.76L-9.822,2.161C-9.223,1.868 -8.781,1.63 -8.534,1.492L3.021,-29.061L0.007,-26.991C0.002,-26.961 0.004,-26.929 0,-26.9" style="fill:rgb(154,169,88);fill-rule:nonzero;"/>
                </g>
                <g transform="matrix(1.38628,-3.92929,-3.92929,-1.38628,11531.3,-718.945)">
                    <path d="M-1.583,-1.58C-0.4,-1.101 0.77,-0.627 1.832,-0.2L-1.583,2.613L-4.388,-2.716C-3.496,-2.356 -2.541,-1.969 -1.583,-1.58" style="fill:rgb(211,232,244);fill-rule:nonzero;"/>
                </g>
                <g transform="matrix(4.16667,0,0,4.16667,11578.3,-600.493)">
                    <path d="M0,-18.157L-3.934,-24.854L-7.561,-20.118L-2.967,-3.276L-9.249,-19.84L-12.488,-23.336L-4.128,2.061C-3.617,2.616 -1.017,5.215 4.234,6.697L0,-18.157Z" style="fill:rgb(188,203,89);fill-rule:nonzero;"/>
                </g>
                <g transform="matrix(4.16667,0,0,4.16667,11624.5,-593.24)">
                    <path d="M0,-19.054L-3.612,-24.294L-2.994,-4.055L-5.203,-25.044L-9.355,-19.956L-5.037,5.394C-3.224,5.767 -1.141,5.99 1.213,5.986L0,-19.054Z" style="fill:rgb(188,203,89);fill-rule:nonzero;"/>
                </g>
                <g transform="matrix(4.16667,0,0,4.16667,11718.4,-843.801)">
                    <path d="M0,61.023C-0.247,61.162 -0.689,61.399 -1.288,61.692L5.294,34.771L8.431,32.616L8.534,32.631C8.539,32.602 8.537,32.571 8.541,32.541L11.556,30.47L0,61.023ZM-27.568,65.529L-31.886,40.178L-27.733,35.09L-25.525,56.08L-26.143,35.84L-22.531,41.081L-21.318,66.121C-23.671,66.125 -25.754,65.902 -27.568,65.529M-37.752,60.455L-46.112,35.058L-42.874,38.554L-36.591,55.118L-41.186,38.276L-37.558,33.54L-33.625,40.237L-29.39,65.091C-34.642,63.609 -37.241,61.01 -37.752,60.455M-44.111,28.304C-44.062,29.448 -44.004,30.709 -43.946,31.984C-43.898,33.017 -43.851,34.045 -43.809,35.007L-47.9,30.589L-44.111,28.304ZM-43.449,19.702C-43.083,17.194 -42.572,14.554 -41.331,12.231C-40.365,10.422 -39.011,9.01 -37.483,8.178C-37.651,9.615 -37.573,11.079 -37.203,12.477C-36.9,13.615 -36.463,14.484 -35.864,15.136C-34.17,16.98 -31.74,16.866 -29.395,16.754C-27.621,16.671 -25.946,16.592 -24.641,17.309C-24.066,17.626 -23.563,18.103 -23.031,18.61C-22.501,19.111 -21.954,19.63 -21.287,20.041C-20.302,20.644 -19.15,20.944 -17.894,20.944C-16.141,20.944 -14.184,20.363 -12.189,19.215C-11.455,18.793 -10.738,18.327 -10.021,17.86C-8.295,16.736 -6.664,15.673 -4.804,15.231C-4.582,15.178 -4.355,15.134 -4.128,15.088C-3.33,14.931 -2.425,14.752 -1.645,14.217C-0.854,13.674 -0.259,12.821 0.122,11.68C0.433,10.752 0.526,9.815 0.489,8.892C4.714,11.895 7.368,17.183 7.059,22.354C7.015,23.105 6.886,24.177 6.285,24.821C5.35,25.818 3.547,25.614 2.197,25.265L1.619,25.111C0.04,24.687 -1.751,24.207 -3.456,24.865C-4.699,25.346 -5.579,26.307 -6.429,27.237C-7.33,28.22 -8.107,29.071 -9.145,29.211C-10.336,29.371 -11.387,28.55 -12.604,27.6C-13.361,27.007 -14.145,26.395 -15.036,25.982C-17.411,24.879 -20.415,25.487 -22.181,27.423C-22.355,27.617 -22.52,27.822 -22.684,28.028C-22.976,28.397 -23.253,28.746 -23.575,28.957C-24.359,29.469 -25.547,29.268 -26.698,29.016C-28.503,28.62 -30.333,28.121 -31.134,26.77C-31.28,26.525 -31.393,26.254 -31.508,25.987C-31.787,25.335 -32.103,24.598 -32.788,24.081C-34.23,22.991 -36.14,23.645 -37.452,24.625C-37.691,24.803 -37.927,24.994 -38.163,25.184C-38.91,25.789 -39.616,26.36 -40.398,26.475C-41.688,26.658 -42.889,25.528 -43.332,24.326C-43.856,22.907 -43.678,21.263 -43.449,19.702M-34.206,4.024C-32.927,2.107 -30.943,0.687 -28.734,0.035C-29.245,2.001 -29.112,4.172 -28.308,6.158C-29.667,6.748 -30.905,7.596 -31.829,8.708C-28.563,6.961 -25.034,6.504 -21.604,6.95C-18.146,7.383 -14.861,8.775 -11.474,10.27C-14.082,7.647 -17.563,5.766 -21.38,5.242C-23.15,5.026 -24.962,5.128 -26.679,5.6C-27.834,2.833 -27.363,-0.51 -25.473,-2.492C-23.405,-4.664 -19.638,-4.924 -17.568,-3.041C-16.903,-2.436 -16.344,-1.611 -15.809,-0.443C-14.52,2.368 -14.441,5.179 -15.599,7.079L-14.125,7.976C-12.796,5.792 -12.709,2.873 -13.835,-0.157C-10.153,0.011 -7.281,0.83 -5.099,2.335C-2.527,4.109 -0.396,7.795 -1.513,11.133C-1.691,11.668 -2.028,12.39 -2.621,12.795C-3.108,13.13 -3.766,13.26 -4.462,13.397C-4.711,13.446 -4.959,13.496 -5.204,13.554C-7.354,14.065 -9.189,15.259 -10.962,16.415C-11.652,16.864 -12.342,17.314 -13.05,17.72C-14.402,18.5 -17.825,20.143 -20.386,18.571C-20.898,18.255 -21.357,17.82 -21.844,17.358C-22.432,16.799 -23.041,16.222 -23.811,15.799C-25.542,14.847 -27.541,14.939 -29.475,15.033C-31.607,15.131 -33.447,15.218 -34.595,13.969C-35,13.529 -35.308,12.896 -35.536,12.036C-36.25,9.338 -35.753,6.344 -34.206,4.024M-9.269,39.039L-5.967,34.417L-4.835,55.358L-4.399,33.002L3.491,34.884L-3.282,62.585C-4.875,63.245 -6.968,63.992 -9.499,64.631L-9.269,39.039ZM-20.805,41.065L-16.605,35.532L-14.783,57.502L-15.046,35.256L-10.994,39.125L-11.227,65.033C-13.69,65.561 -16.5,65.956 -19.593,66.085L-20.805,41.065ZM4.362,33.319L-5.604,30.942L-10.252,37.449L-16.035,31.93L-21.647,39.325L-27.036,31.508L-32.686,38.431L-37.37,30.457L-42.019,36.529C-42.074,35.17 -42.148,33.546 -42.224,31.904C-42.29,30.47 -42.355,29.041 -42.408,27.795C-41.727,28.133 -40.96,28.297 -40.148,28.18C-38.898,27.997 -37.932,27.215 -37.079,26.525C-36.86,26.348 -36.643,26.171 -36.421,26.007C-35.588,25.385 -34.465,24.975 -33.828,25.457C-33.507,25.699 -33.315,26.147 -33.093,26.667C-32.948,27.003 -32.801,27.341 -32.617,27.651C-31.463,29.595 -29.147,30.244 -27.067,30.701C-26.485,30.829 -25.7,31 -24.874,31C-24.117,31 -23.327,30.855 -22.63,30.399C-22.075,30.036 -21.681,29.539 -21.333,29.1C-21.194,28.924 -21.054,28.748 -20.905,28.583C-19.655,27.211 -17.442,26.766 -15.761,27.545C-15.05,27.876 -14.377,28.401 -13.665,28.958C-12.334,29.999 -10.819,31.18 -8.915,30.919C-7.257,30.695 -6.142,29.476 -5.157,28.4C-4.408,27.582 -3.7,26.808 -2.833,26.472C-1.654,26.016 -0.282,26.385 1.171,26.776L1.766,26.934C3.596,27.408 5.114,27.358 6.28,26.848C6.804,28.364 7.011,29.987 6.888,31.585L4.362,33.319ZM11.782,28.224L8.651,30.374C8.613,28.793 8.29,27.222 7.713,25.757C7.743,25.719 7.767,25.679 7.795,25.64L11.782,28.224ZM13.322,27.168L8.538,24.068C8.686,23.492 8.752,22.924 8.78,22.457C9.162,16.051 5.669,9.723 0.079,6.587C-0.656,4.263 -2.256,2.202 -4.12,0.916C-6.746,-0.894 -10.187,-1.803 -14.611,-1.897C-15.146,-2.907 -15.725,-3.695 -16.408,-4.316C-19.175,-6.836 -23.996,-6.539 -26.721,-3.682C-27.221,-3.158 -27.622,-2.552 -27.963,-1.912C-31.052,-1.371 -33.901,0.459 -35.64,3.068C-36.264,4.003 -36.731,5.037 -37.057,6.113C-39.393,6.956 -41.478,8.845 -42.852,11.419C-44.218,13.975 -44.766,16.791 -45.155,19.452C-45.404,21.155 -45.614,23.124 -44.95,24.922C-44.771,25.408 -44.5,25.884 -44.164,26.322L-49.097,29.297L-50.224,28.081L-39.335,61.161L-39.187,61.432C-38.971,61.701 -33.857,67.859 -21.353,67.859C-21.037,67.859 -20.716,67.854 -20.392,67.847C-7.376,67.525 0.809,62.558 1.151,62.347L1.401,62.193L15.115,25.936L13.322,27.168Z" style="fill:rgb(30,19,15);fill-rule:nonzero;"/>
                </g>
                <g transform="matrix(0,-4.16667,-4.16667,0,11629.3,-863.909)">
                    <path d="M-3.407,-3.409C-4.427,-3.409 -5.252,-1.883 -5.252,-0.001C-5.252,1.883 -4.427,3.407 -3.407,3.407C-2.388,3.407 -1.563,1.883 -1.563,-0.001C-1.563,-1.883 -2.388,-3.409 -3.407,-3.409" style="fill:rgb(226,150,120);fill-rule:nonzero;"/>
                </g>
            </g>
        </g>
    </g>
</svg>
